<?xml version="1.0" encoding="UTF-8"?>
<svg width="42px" height="23px" viewBox="0 0 42 23" version="1.1" xmlns="http://www.w3.org/2000/svg" xmlns:xlink="http://www.w3.org/1999/xlink">
    <title>动态</title>
    <defs>
        <linearGradient x1="50%" y1="0%" x2="50%" y2="100%" id="linearGradient-1">
            <stop stop-color="#FF896F" offset="0%"></stop>
            <stop stop-color="#FF0D65" offset="100%"></stop>
        </linearGradient>
    </defs>
    <g id="动态" stroke="none" stroke-width="1" fill="none" fill-rule="evenodd">
        <g>
            <rect id="矩形" fill="url(#linearGradient-1)" x="0" y="0" width="42" height="23" rx="3"></rect>
            <path d="M14.7,17.316 C16.332,15.72 17.16,13.2 17.196,9.756 L17.196,9.66 L18.564,9.66 C18.54,12.84 18.504,14.7 18.432,15.24 C18.336,15.768 18.048,16.032 17.544,16.032 C17.232,16.032 16.872,16.008 16.452,15.984 L16.74,17.076 C17.22,17.112 17.544,17.136 17.736,17.136 C18.84,17.136 19.464,16.692 19.608,15.804 C19.716,14.868 19.776,12.42 19.776,8.46 L17.196,8.46 L17.196,6.156 L15.948,6.156 L15.948,8.46 L14.472,8.46 L14.472,9.66 L15.948,9.66 L15.948,9.756 C15.924,12.036 15.516,13.884 14.712,15.276 C14.208,14.076 13.68,12.984 13.152,12 L12.108,12.504 C12.372,13.008 12.636,13.536 12.9,14.112 C12.168,14.376 11.424,14.604 10.668,14.772 C10.968,14.004 11.316,12.852 11.712,11.292 L14.4,11.292 L14.4,10.068 L9.012,10.068 L9.012,11.292 L10.5,11.292 C9.984,13.236 9.564,14.436 9.252,14.892 C9.204,14.928 9.12,14.964 9,15 L9.288,16.176 C10.728,15.912 12.084,15.576 13.344,15.144 C13.44,15.372 13.536,15.612 13.632,15.876 L14.664,15.348 C14.4,15.768 14.1,16.152 13.752,16.488 L14.7,17.316 Z M13.968,8.028 L13.968,6.84 L9.456,6.84 L9.456,8.028 L13.968,8.028 Z M26.932,12.348 L27.796,11.472 C27.196,10.944 26.668,10.5 26.188,10.164 C26.596,9.684 26.932,9.12 27.196,8.472 C27.796,10.056 29.392,11.328 32.008,12.264 L32.68,11.184 C30.448,10.524 29.044,9.612 28.468,8.46 L32.044,8.46 L32.044,7.248 L27.568,7.248 C27.652,6.888 27.712,6.516 27.76,6.132 L26.512,6 C26.464,6.432 26.38,6.852 26.272,7.248 L22.156,7.248 L22.156,8.46 L25.792,8.46 C25.612,8.796 25.396,9.096 25.156,9.36 C24.424,10.128 23.224,10.728 21.544,11.148 L22.048,12.312 C23.44,11.94 24.556,11.472 25.372,10.896 C25.924,11.352 26.452,11.844 26.932,12.348 Z M27.544,15.12 L28.696,14.604 C28.384,13.908 28.024,13.248 27.616,12.636 L26.512,13.008 C26.884,13.608 27.232,14.316 27.544,15.12 Z M31.54,16.284 L32.692,15.768 C32.284,14.748 31.792,13.8 31.24,12.912 L30.028,13.308 C30.58,14.172 31.084,15.156 31.54,16.284 Z M28.864,16.98 C29.344,16.98 29.704,16.872 29.932,16.68 C30.196,16.464 30.376,15.816 30.472,14.712 L29.284,14.316 C29.248,15.012 29.176,15.432 29.056,15.564 C28.96,15.696 28.816,15.768 28.624,15.768 L26.176,15.768 C25.864,15.768 25.708,15.6 25.708,15.288 L25.708,13.08 L24.436,13.08 L24.436,15.552 C24.436,16.5 24.88,16.98 25.792,16.98 L28.864,16.98 Z M22.732,16.644 C23.236,15.732 23.632,14.64 23.92,13.392 L22.684,13.116 C22.492,14.124 22.144,15.072 21.652,15.96 L22.732,16.644 Z" fill="#FFFFFF" fill-rule="nonzero"></path>
        </g>
    </g>
</svg>