<?xml version="1.0" encoding="UTF-8"?>
<svg width="34px" height="34px" viewBox="0 0 34 34" version="1.1" xmlns="http://www.w3.org/2000/svg" xmlns:xlink="http://www.w3.org/1999/xlink">
    <title>电话</title>
    <g id="电话" stroke="none" stroke-width="1" fill="none" fill-rule="evenodd">
        <g id="编组" transform="translate(2.000000, 2.000000)" fill="#D6D6D6" fill-rule="nonzero">
            <path d="M22.1707847,13.2259931 C22.1707847,13.859816 22.6067277,14.2800105 23.2597303,14.2800105 C23.914557,14.2800105 24.3505,13.859816 24.3505,13.2259931 C24.3404797,9.73341168 21.4178492,6.90452547 17.8095299,6.8948265 C17.1547032,6.8948265 16.7187602,7.31678657 16.7187602,7.94884392 C16.7187602,8.58443231 17.1565273,9.00462686 17.8095299,9.00462686 C20.2138522,9.01237781 22.1609528,10.8970246 22.1689606,13.2242276 L22.1707847,13.2259931 Z M26.5302154,13.2259931 C26.5302154,13.859816 26.9679825,14.2800105 27.6209851,14.2800105 C28.2758118,14.2800105 28.7117549,13.859816 28.7117549,13.2259931 C28.7117549,7.42271797 23.8051152,2.67346025 17.8095299,2.67346025 C17.1547032,2.67346025 16.7187602,3.09718584 16.7187602,3.72924319 C16.7187602,4.36306606 17.1565273,4.78502613 17.8095299,4.78502613 C22.6195992,4.79859105 26.5160129,8.56844873 26.5320395,13.2242276 L26.5302154,13.2259931 Z M11.8139445,9.53251833 C13.0190138,8.39925855 13.1145611,6.55731307 12.0328281,5.3129176 L8.65290121,1.19571723 C7.5621315,-0.176094386 5.49185789,-0.387957184 4.07276285,0.666060236 C3.96332108,0.771991635 3.85570333,0.771991635 3.85570333,0.877923034 L0.911719534,3.72924319 C-1.92282248,6.47286642 2.11193102,13.859816 9.41716962,20.9289713 C16.7187602,27.9981267 24.2392342,31.7975329 27.0737763,29.159841 L30.0177601,26.3102864 C31.3274133,25.0426407 31.3274133,23.0387717 30.0177601,21.8788229 L29.8007005,21.6669601 L25.5488875,18.3954454 C24.2410583,17.3396624 22.3896682,17.4455938 21.1894567,18.6073082 L19.3362426,20.4010799 C17.3735868,19.241131 15.6298145,17.9734853 14.1012777,16.4975078 C12.5763889,15.0197648 11.2703837,13.330159 10.0701722,11.4304559 L11.8139445,9.53251833 Z M10.2890558,6.6829637 C10.6155571,7.10668929 10.6155571,7.73874664 10.179614,8.05654084 L7.77736699,10.4823699 C7.43720164,10.8188882 7.35049392,11.3252685 7.56030747,11.7500156 C8.84563577,14.0346618 10.4609583,16.1302416 12.3575053,17.9734853 C14.262406,19.8093172 16.428049,21.3728316 18.7890338,22.6168116 C19.2268009,22.8180813 19.7502974,22.7333362 20.096863,22.4049488 L22.6049037,19.9791198 C22.9721116,19.5827718 23.5964545,19.5361064 24.0221747,19.8731884 L28.2721637,23.2506345 C28.2721637,23.2506345 28.3816055,23.2506345 28.3816055,23.3565659 C28.5899026,23.5491136 28.7077434,23.8157651 28.7077434,24.0945546 C28.7077434,24.3733442 28.5899026,24.6399957 28.3816055,24.8325434 L25.4376217,27.682098 C24.0221747,29.0521441 17.262321,25.5722977 10.8307926,19.4494628 C4.39926415,13.330159 0.911719534,6.68472922 2.32899054,5.31115208 L5.38059208,2.35743157 C5.81835919,2.03963738 6.58080357,2.03963738 6.9091289,2.56929437 L10.2890558,6.6829637 Z" id="形状"></path>
        </g>
    </g>
</svg>