<?xml version="1.0" encoding="UTF-8"?>
<svg width="80px" height="80px" viewBox="0 0 80 80" version="1.1" xmlns="http://www.w3.org/2000/svg" xmlns:xlink="http://www.w3.org/1999/xlink">
    <title>图标4</title>
    <defs>
        <linearGradient x1="50%" y1="0%" x2="50%" y2="100%" id="linearGradient-1">
            <stop stop-color="#E2E2F6" offset="0%"></stop>
            <stop stop-color="#9DAFF6" offset="100%"></stop>
        </linearGradient>
    </defs>
    <g id="图标4" stroke="none" stroke-width="1" fill="none" fill-rule="evenodd">
        <g fill-rule="nonzero" id="财务报表">
            <g transform="translate(6.000000, 0.000000)">
                <path d="M34.2408358,0 C21.9621493,0 12,9.98923646 12,22.324588 C12,34.6495123 21.9517612,44.6491759 34.2408358,44.6491759 C46.5195224,44.6491759 56.4816716,34.6599395 56.4816716,22.324588 C56.4816716,9.98923646 46.5195224,0 34.2408358,0 Z M43.9640597,28.2159435 C43.6420299,32.9081736 40.7333731,35.4106963 35.5393433,35.7339388 L35.5393433,38.3198789 L32.7553433,38.3198789 L32.7553433,35.6713757 C28.1326567,35.1395896 25.3278806,32.4910864 24.4448955,27.715439 L28.5170149,26.5580222 C28.8598209,30.3118063 30.9478209,32.1469896 34.7602388,32.0635721 C38.0740299,32.0635721 39.7257313,30.7497477 39.7257313,28.1012445 C40.1412537,26.2347797 38.2402388,24.8166835 33.9811343,23.8782375 C27.8729552,22.5956946 24.9746866,20.0827447 25.3174925,16.3289606 C25.5564179,11.9286916 27.9248955,9.47830474 32.7449552,8.98822738 L32.7449552,6.50655903 L35.5289552,6.50655903 L35.5289552,8.9778002 C39.7880597,9.39488732 42.4889552,11.8139926 43.3303881,16.2038345 L39.2271045,17.3612513 C38.624597,14.2122435 36.9313433,12.6690212 34.1265672,12.7524386 C31.0724776,12.835856 29.5038806,14.0349815 29.4207761,16.3393878 C29.2441791,17.8826102 30.9893731,19.0713084 34.6459701,19.926337 C41.0242388,21.1880256 44.1406567,23.9616549 43.9640597,28.2159435 L43.9640597,28.2159435 Z" id="形状" fill="#3365DD"></path>
                <path d="M27.5636364,52 C28.9090909,52 30,52.8969568 30,54.0032034 L30,54.0032034 L30,77.9967966 C30,79.1030432 28.9090909,80 27.5636364,80 L27.5636364,80 L21.4454545,80 C20.1,80 19.0090909,79.1030432 19.0090909,77.9967966 L19.009,78.004 L19,78.0042712 L19,54.0032034 C19,52.8969568 20.0909091,52 21.4363636,52 L21.4363636,52 Z M46.5636364,52 C47.9090909,52 49,52.8969568 49,54.0032034 L49,54.0032034 L49,77.9967966 C49,79.1030432 47.9090909,80 46.5636364,80 L46.5636364,80 L40.4363636,80 C39.0909091,80 38,79.1030432 38,77.9967966 L38,77.9967966 L38,54.0032034 C38,52.8969568 39.0909091,52 40.4363636,52 L40.4363636,52 Z M65.5330544,40 C66.8953975,40 68,40.896861 68,42.0029895 L68,42.0029895 L68,77.9970105 C68,79.103139 66.8953975,80 65.5330544,80 L65.5330544,80 L59.4669456,80 C58.1046025,80 57,79.103139 57,77.9970105 L57,77.9970105 L57,42.0029895 C57,40.896861 58.1230126,40 59.4669456,40 L59.4669456,40 Z M8.53305439,40 C9.89539749,40 11,40.896861 11,42.0029895 L11,42.0029895 L11,77.9970105 C11,79.103139 9.89539749,80 8.53305439,80 L8.53305439,80 L2.46694561,80 C1.10460251,80 0,79.103139 0,77.9970105 L0,77.9970105 L0,42.0029895 C0,40.896861 1.12301255,40 2.46694561,40 L2.46694561,40 Z" id="形状结合" fill="url(#linearGradient-1)"></path>
            </g>
        </g>
    </g>
</svg>