<?xml version="1.0" encoding="UTF-8"?>
<svg width="80px" height="80px" viewBox="0 0 80 80" version="1.1" xmlns="http://www.w3.org/2000/svg" xmlns:xlink="http://www.w3.org/1999/xlink">
    <title>图标3</title>
    <g id="图标3" stroke="none" stroke-width="1" fill="none" fill-rule="evenodd">
        <g fill-rule="nonzero" id="写作图标">
            <g transform="translate(5.000000, 4.000000)">
                <path d="M62.3656553,73 C62.3656553,73 7,72.1038252 7,70.9963571 L62.3656553,69 C63.2659632,69 63.9967262,69.892622 64,70.9963571 C64,72.1029385 63.268279,73 62.3656553,73 L62.3656553,73 Z" id="形状" fill="#B7C1FF"></path>
                <path d="M0.0162387446,72.4749379 C3.38318917,59.3736992 21.0804993,7.04616099 71.3111168,0.00126758759 C71.5034759,-0.01077586 71.6912171,0.0634716596 71.8234183,0.203871614 C71.9556196,0.344271567 72.0185771,0.536270239 71.9952145,0.72779085 C71.6144992,6.00997206 68.8186217,14.293528 54.0123679,20.9215638 C53.8375951,21.0141226 53.7163106,21.1833893 53.6847533,21.3787882 C53.653196,21.5741871 53.7150203,21.7730903 53.8517536,21.9160668 C55.2556411,23.2321458 59.6576611,22.5770838 62.0430801,22.142361 C62.2004839,22.1323761 62.3503309,22.21102 62.4316608,22.3462989 C62.5129907,22.4815779 62.5122516,22.6509503 62.429744,22.7855127 C60.3298615,26.3585778 54.7440551,34.880338 35.5417299,39.0250935 C35.190758,39.0965548 35.2264501,39.6682452 35.5833707,39.7277963 L39.9734933,40.4840951 C40.2132167,40.5429331 40.4113536,40.7111854 40.5084409,40.9383577 C40.6055282,41.16553 40.5902655,41.4251809 40.4672334,41.6393862 C38.4803757,45.0040225 29.3253638,53.8830892 13.9123451,55.2051233 C12.8979834,55.2891736 11.9807622,55.841863 11.4317474,56.6998555 C8.73699727,60.8446111 3.38318917,67.9431003 0.646798354,72.8262893 C0.408851301,73.2014611 -0.0967860946,72.9156159 0.0162387446,72.4749379 Z" id="路径" fill="#3464E0"></path>
            </g>
        </g>
    </g>
</svg>