<?xml version="1.0" encoding="UTF-8"?>
<svg width="80px" height="80px" viewBox="0 0 80 80" version="1.1" xmlns="http://www.w3.org/2000/svg" xmlns:xlink="http://www.w3.org/1999/xlink">
    <title>图标5</title>
    <defs>
        <linearGradient x1="50%" y1="0%" x2="50%" y2="100%" id="linearGradient-1">
            <stop stop-color="#E2E2F6" offset="0%"></stop>
            <stop stop-color="#9DAFF6" offset="100%"></stop>
        </linearGradient>
    </defs>
    <g id="图标5" stroke="none" stroke-width="1" fill="none" fill-rule="evenodd">
        <g id="简历图标">
            <g transform="translate(6.000000, 0.000000)">
                <path d="M34.55,37 C33.15,38.125 31.75,38.875 30,38.875 C28.25,38.875 26.85,38.125 25.8,37.375 C24.05,38.5 23,40.75 23,43 L37,43 C37,40.75 35.95,38.5 34.55,37 L34.55,37 Z M26,30.9111111 C26,32.3333333 26.6956522,33.7555556 28.0869565,34.4666667 C29.4782609,35.1777778 30.8695652,35.1777778 31.9130435,34.4666667 C33.3043478,33.7555556 34,32.6888889 34,30.9111111 C34,28.7777778 32.2608696,27 30.173913,27 C28.0869565,27 26,28.7777778 26,30.9111111 Z M23,61.6989399 C23,62.4116226 23.5319624,63 24.1931157,63 L55.8068842,63 C56.4604381,63 57,62.4199095 57,61.6989399 L57,61.3011637 C57,60.588481 56.4604381,60 55.8068842,60 L24.1931157,60 C23.5395618,60 23,60.5801941 23,61.3011637 L23,61.6989399 Z M23,53.6988951 C23,54.4116023 23.5319624,55 24.1931157,55 L55.8068842,55 C56.4604381,55 57,54.4198895 57,53.6988951 L57,53.301105 C57,52.5801105 56.4604381,52 55.8068842,52 L24.1931157,52 C23.5395618,52 23,52.5801105 23,53.301105 L23,53.6988951 Z M23,69.6988363 C23,70.411519 23.5319624,71 24.1931157,71 L55.8068842,71 C56.4604381,71 57,70.4198059 57,69.6988363 L57,69.3010601 C57,68.5800905 56.4604381,68 55.8068842,68 L24.1931157,68 C23.5395618,68 23,68.5800905 23,69.3010601 L23,69.6988363 Z M64,80 C63.744448,80 48.1437413,80 17.1978799,80 C14.8812722,80 13,78.1323663 13,75.8494895 L13,17.1505105 C13,14.8600436 14.8890459,13 17.1978799,13 C32.6654888,13 44.2661955,13 52,13 C54,17 63,26 67.8077292,29.0664961 C67.850456,39.4961636 67.9145463,55.1406649 68,76 C66.4490594,78.6666667 65.115726,80 64,80 Z" id="形状" fill="#3365DD" fill-rule="nonzero"></path>
                <path d="M52,13 L68,29 L57,29 C54.2385763,29 52,26.7614237 52,24 L52,13 L52,13 Z" id="矩形" fill="#C9D9F7"></path>
                <path d="M39,0 C42.3137085,-6.08718376e-16 45,2.6862915 45,6 L45,9 L15,9 C11.7616031,9 9.12242824,11.5655749 9.00413847,14.7750617 L9,15 L9,67 L6,67 C2.6862915,67 4.05812251e-16,64.3137085 0,61 L0,6 C-4.05812251e-16,2.6862915 2.6862915,6.08718376e-16 6,0 L39,0 Z" id="形状结合" fill="url(#linearGradient-1)" fill-rule="nonzero"></path>
            </g>
        </g>
    </g>
</svg>