<?xml version="1.0" encoding="UTF-8"?>
<svg width="80px" height="80px" viewBox="0 0 80 80" version="1.1" xmlns="http://www.w3.org/2000/svg" xmlns:xlink="http://www.w3.org/1999/xlink">
    <title>图标2</title>
    <g id="图标2" stroke="none" stroke-width="1" fill="none" fill-rule="evenodd">
        <g id="图标内容">
            <g transform="translate(3.000000, 3.000000)">
                <polygon id="路径-2" fill="#B7C1FF" points="14 2 14 42.6153846 25.6 46 41.3428571 33.3076923 52.1142857 40.9230769 72 27.3846154 72 17.2307692 57.9142857 22.3076923 43 7.07692308 33.0571429 14.6923077"></polygon>
                <polygon id="路径-2" fill="#3464E0" points="14 62 14 48.8235294 25.6 52.1176471 41.3428571 39.7647059 52.1142857 47.1764706 72 34 72 61.1764706"></polygon>
                <path d="M3.31818182,68.3333333 C5.15076303,68.3333333 6.63636364,69.8257175 6.63636364,71.6666667 C6.63636364,73.5076158 5.15076303,75 3.31818182,75 C1.4856006,75 0,73.5076158 0,71.6666667 C0,69.8257175 1.4856006,68.3333333 3.31818182,68.3333333 Z M19.9090909,68.3333333 C21.7416721,68.3333333 23.2272727,69.8257175 23.2272727,71.6666667 C23.2272727,73.5076158 21.7416721,75 19.9090909,75 C18.0765097,75 16.5909091,73.5076158 16.5909091,71.6666667 C16.5909091,69.8257175 18.0765097,68.3333333 19.9090909,68.3333333 Z M36.5,68.3333333 C38.3325812,68.3333333 39.8181818,69.8257175 39.8181818,71.6666667 C39.8181818,73.5076158 38.3325812,75 36.5,75 C34.6674188,75 33.1818182,73.5076158 33.1818182,71.6666667 C33.1818182,69.8257175 34.6674188,68.3333333 36.5,68.3333333 Z M53.0909091,68.3333333 C54.9234903,68.3333333 56.4090909,69.8257175 56.4090909,71.6666667 C56.4090909,73.5076158 54.9234903,75 53.0909091,75 C51.2583279,75 49.7727273,73.5076158 49.7727273,71.6666667 C49.7727273,69.8257175 51.2583279,68.3333333 53.0909091,68.3333333 Z M69.6818182,68.3333333 C71.5143994,68.3333333 73,69.8257175 73,71.6666667 C73,73.5076158 71.5143994,75 69.6818182,75 C67.849237,75 66.3636364,73.5076158 66.3636364,71.6666667 C66.3636364,69.8257175 67.849237,68.3333333 69.6818182,68.3333333 Z M3.31818182,51.6666667 C5.15076303,51.6666667 6.63636364,53.1590508 6.63636364,55 C6.63636364,56.8409492 5.15076303,58.3333333 3.31818182,58.3333333 C1.4856006,58.3333333 0,56.8409492 0,55 C0,53.1590508 1.4856006,51.6666667 3.31818182,51.6666667 Z M3.31818182,35 C5.15076303,35 6.63636364,36.4923842 6.63636364,38.3333333 C6.63636364,40.1742825 5.15076303,41.6666667 3.31818182,41.6666667 C1.4856006,41.6666667 0,40.1742825 0,38.3333333 C0,36.4923842 1.4856006,35 3.31818182,35 Z M3.31818182,16.6666667 C5.15076303,16.6666667 6.63636364,18.1590508 6.63636364,20 C6.63636364,21.8409492 5.15076303,23.3333333 3.31818182,23.3333333 C1.4856006,23.3333333 0,21.8409492 0,20 C0,18.1590508 1.4856006,16.6666667 3.31818182,16.6666667 Z M3.31818182,0 C5.15076303,0 6.63636364,1.49238417 6.63636364,3.33333333 C6.63636364,5.1742825 5.15076303,6.66666667 3.31818182,6.66666667 C1.4856006,6.66666667 0,5.1742825 0,3.33333333 C0,1.49238417 1.4856006,0 3.31818182,0 Z" id="形状结合" fill="#B7C1FF"></path>
            </g>
        </g>
    </g>
</svg>