<?xml version="1.0" encoding="UTF-8"?>
<svg width="80px" height="80px" viewBox="0 0 80 80" version="1.1" xmlns="http://www.w3.org/2000/svg" xmlns:xlink="http://www.w3.org/1999/xlink">
    <title>图标1</title>
    <defs>
        <linearGradient x1="50%" y1="0%" x2="50%" y2="100%" id="linearGradient-1">
            <stop stop-color="#E2E2F6" offset="0%"></stop>
            <stop stop-color="#9DAFF6" offset="100%"></stop>
        </linearGradient>
    </defs>
    <g id="图标1" stroke="none" stroke-width="1" fill="none" fill-rule="evenodd">
        <g fill-rule="nonzero" id="图标内容">
            <g>
                <g transform="translate(7.000000, 5.000000)">
                    <path d="M10.8106007,48.7662796 C10.8106007,49.4789622 11.3425632,50.0673397 12.0037165,50.0673397 L43.617485,50.0673397 C44.2710389,50.0673397 44.8106007,49.4872492 44.8106007,48.7662796 L44.8106007,48.3685033 C44.8106007,47.6558207 44.2710389,47.0673397 43.617485,47.0673397 L12.0037165,47.0673397 C11.3501626,47.0673397 10.8106007,47.6475337 10.8106007,48.3685033 L10.8106007,48.7662796 Z M10.8106007,40.7662347 C10.8106007,41.478942 11.3425632,42.0673397 12.0037165,42.0673397 L43.617485,42.0673397 C44.2710389,42.0673397 44.8106007,41.4872292 44.8106007,40.7662347 L44.8106007,40.3684446 C44.8106007,39.6474502 44.2710389,39.0673397 43.617485,39.0673397 L12.0037165,39.0673397 C11.3501626,39.0673397 10.8106007,39.6474502 10.8106007,40.3684446 L10.8106007,40.7662347 Z M10.8106007,56.766176 C10.8106007,57.4788586 11.3425632,58.0673397 12.0037165,58.0673397 L43.617485,58.0673397 C44.2710389,58.0673397 44.8106007,57.4871456 44.8106007,56.766176 L44.8106007,56.3683997 C44.8106007,55.6474301 44.2710389,55.0673397 43.617485,55.0673397 L12.0037165,55.0673397 C11.3501626,55.0673397 10.8106007,55.6474301 10.8106007,56.3683997 L10.8106007,56.766176 Z M55,67 L4.1978799,67 C1.88127215,67 0,65.1323663 0,62.8494895 L0,4.15051046 C0,1.86004358 1.8890459,0 4.1978799,0 L50.5611308,0 C52.8777385,0 55,1.71721923 55,4 L55,67 Z" id="形状" fill="#3365DD"></path>
                    <path d="M64,15 C66.3166077,15 68,17.1477572 68,19.430538 L68,62.8494895 C68,65.1399563 66.1109541,67 63.8021201,67 L59,67 L59,15 L64,15 Z" id="形状" fill="url(#linearGradient-1)"></path>
                    <path d="M20.9142857,15 L20.9142857,22.0857143 L28,22.0857143 L28,23 C28,27.4182857 24.4182857,31 20,31 C15.5817143,31 12,27.4182857 12,23 C12,18.632 15.5008,15.0813714 19.8496,15.0013714 L20,15 L20.9142857,15 Z M23.8235294,13 C27.2345882,13 30,15.7654118 30,19.1764706 L30,20 L23,20 L23,13 L23.8235294,13 Z" id="形状" fill="#FFFFFF"></path>
                </g>
            </g>
        </g>
    </g>
</svg>