<?xml version="1.0" encoding="UTF-8"?>
<svg width="28px" height="28px" viewBox="0 0 28 28" version="1.1" xmlns="http://www.w3.org/2000/svg" xmlns:xlink="http://www.w3.org/1999/xlink">
    <!-- Generator: Sketch 64 (93537) - https://sketch.com -->
    <title>锁定2</title>
    <desc>Created with Sketch.</desc>
    <g id="页面-1" stroke="none" stroke-width="1" fill="none" fill-rule="evenodd">
        <g id="我的项目" transform="translate(-1165.000000, -330.000000)">
            <g id="锁定2" transform="translate(1165.000000, 330.000000)">
                <rect id="矩形" fill="#000000" opacity="0.600000024" x="0" y="0" width="28" height="28" rx="6"></rect>
                <path d="M17.1899337,12.2883906 L17.1899337,10.1552654 C17.1899337,8.50099778 15.7617517,7.15994891 14,7.15994891 C12.2382483,7.15994891 10.8100663,8.50099778 10.8100663,10.1552654 L10.8100663,12.2883906 L17.1899337,12.2883906 L17.1899337,12.2883906 Z M8.34517939,12.3126597 L8.34381908,12.2449617 L8.34381908,9.89980131 C8.34381908,7.19371577 10.680069,5 13.5619793,5 L14.4380207,5 C15.8219629,5 17.1492223,5.51622758 18.1278172,6.43511858 C19.1064121,7.35400957 19.6561809,8.6002932 19.6561809,9.89980131 L19.6561809,12.3126597 C21.0002135,12.4891522 22.0001867,13.5687168 22,14.8430315 L22,20.4453591 C22,21.8562483 20.7819344,23 19.2793743,23 L8.72062574,23 C7.21806564,23 6,21.8562483 6,20.4453591 L6,14.8443088 C6,13.5695717 7.00060659,12.4898507 8.34517939,12.313937 L8.34517939,12.3126597 Z M13.3715355,18.0797616 L13.3715355,19.7504967 C13.3715355,20.0764121 13.6529086,20.3406188 14,20.3406188 C14.3470914,20.3406188 14.6284645,20.0764121 14.6284645,19.7504967 L14.6284645,18.0797616 C15.4023579,17.7959667 15.8515219,17.0351102 15.6977479,16.2684605 C15.543974,15.5018109 14.8308166,14.9465123 14,14.9465123 C13.1691834,14.9465123 12.456026,15.5018109 12.3022521,16.2684605 C12.1484781,17.0351102 12.5976421,17.7959667 13.3715355,18.0797616 L13.3715355,18.0797616 Z" id="形状" fill="#FFFFFF" fill-rule="nonzero"></path>
            </g>
        </g>
    </g>
</svg>