<?xml version="1.0" encoding="UTF-8"?>
<svg width="572px" height="675px" viewBox="0 0 572 675" version="1.1" xmlns="http://www.w3.org/2000/svg" xmlns:xlink="http://www.w3.org/1999/xlink">
    <!-- Generator: Sketch 55.1 (78136) - https://sketchapp.com -->
    <title>编组 4</title>
    <desc>Created with Sketch.</desc>
    <g id="Page-1" stroke="none" stroke-width="1" fill="none" fill-rule="evenodd">
        <g id="镝数小程序1" transform="translate(-89.000000, -495.000000)">
            <g id="编组-4" transform="translate(89.000000, 495.000000)">
                <path d="M572,193.549001 L572,647 C572,662.463973 559.463973,675 544,675 L28,675 C12.536027,675 1.8937905e-15,662.463973 0,647 L0,192.687826 C8.26211999,188.658789 14,179.791351 14,169.5 C14,159.208649 8.26211999,150.341211 1.01671895e-06,146.31218 L0,28 C-1.8937905e-15,12.536027 12.536027,2.84068575e-15 28,0 L544,0 C559.463973,-2.84068575e-15 572,12.536027 572,28 L572,145.450999 C562.678461,148.951608 556,158.39714 556,169.5 C556,180.60286 562.678461,190.048392 572,193.549001 Z" id="形状结合" fill="#FFFFFF"></path>
                <g id="编组" transform="translate(29.000000, 40.000000)" fill-rule="nonzero">
                    <g id="编组-2">
                        <path d="M98.1258913,1.228 L110.077891,1.228 L110.077891,4.576 L101.869891,4.576 L101.869891,23.296 L98.1258913,23.296 L98.1258913,1.228 Z M134.154313,14.116 L129.618313,14.116 L129.618313,34.636 L126.162313,34.636 L126.162313,11.056 L130.446313,11.056 C130.050313,10.048 129.582313,9.148 129.078313,8.284 L132.210313,7.096 L125.622313,7.096 L125.622313,3.82 L133.614313,3.82 C133.326313,3.1 133.002313,2.416 132.642313,1.804 L136.638313,1.156 C136.926313,1.948 137.250313,2.812 137.538313,3.82 L145.926313,3.82 L145.926313,7.096 L140.022313,7.096 L142.722313,8.068 C142.290313,9.148 141.858313,10.156 141.354313,11.056 L145.530313,11.056 L145.530313,30.388 C145.530313,33.196 144.378313,34.6 142.074313,34.6 L139.122313,34.6 L138.150313,31.108 L140.886313,31.288 C141.678313,31.288 142.110313,30.712 142.110313,29.596 L142.110313,14.116 L137.394313,14.116 L137.394313,16.168 L141.174313,16.168 L141.174313,19.12 L137.394313,19.12 L137.394313,21.208 L140.490313,21.208 L140.490313,29.92 L131.130313,29.92 L131.130313,21.208 L134.154313,21.208 L134.154313,19.12 L130.374313,19.12 L130.374313,16.168 L134.154313,16.168 L134.154313,14.116 Z M139.122313,7.096 L132.534313,7.096 C133.110313,8.212 133.614313,9.544 134.082313,11.056 L137.502313,11.056 C138.078313,9.796 138.618313,8.464 139.122313,7.096 Z M137.466313,27.22 L137.466313,23.872 L134.154313,23.872 L134.154313,27.22 L137.466313,27.22 Z M116.658313,1.516 L120.222313,2.272 C120.006313,3.28 119.754313,4.216 119.538313,5.116 L124.506313,5.116 L124.506313,8.68 L118.494313,8.68 C118.062313,10.012 117.594313,11.272 117.090313,12.424 L124.038313,12.424 L124.038313,15.772 L121.338313,15.772 L121.338313,19.156 L125.082313,19.156 L125.082313,22.612 L121.338313,22.612 L121.338313,29.488 C122.490313,28.948 123.678313,28.264 124.866313,27.472 L125.514313,30.748 C123.354313,32.044 120.906313,33.124 118.134313,33.988 L116.586313,30.784 C117.306313,30.424 117.666313,29.956 117.666313,29.308 L117.666313,22.612 L113.922313,22.612 L113.922313,19.156 L117.666313,19.156 L117.666313,15.772 L116.334313,15.772 L116.334313,14.008 L115.794313,15.088 L112.698313,13.144 C114.570313,9.508 115.866313,5.62 116.658313,1.516 Z M172.414735,10.156 C172.270735,10.66 172.162735,11.128 172.018735,11.632 C172.810735,15.196 173.782735,18.328 174.970735,21.028 C176.050735,17.86 176.662735,14.224 176.806735,10.156 L172.414735,10.156 Z M173.242735,24.88 C172.090735,22.504 171.082735,19.84 170.218735,16.888 C169.678735,18.076 169.102735,19.192 168.526735,20.2 L166.186735,17.284 C168.166735,13.324 169.498735,8.032 170.182735,1.408 L173.854735,2.056 C173.638735,3.64 173.422735,5.116 173.170735,6.52 L182.170735,6.52 L182.170735,10.156 L180.190735,10.156 C179.974735,15.952 178.930735,20.884 177.022735,24.988 C178.750735,27.868 180.802735,30.136 183.178735,31.756 L181.090735,34.816 C178.858735,33.16 176.878735,31 175.186735,28.336 C173.494735,30.856 171.406735,33.016 168.958735,34.78 L167.014735,31.612 C169.606735,29.884 171.694735,27.652 173.242735,24.88 Z M156.214735,18.112 L159.742735,18.544 C159.526735,19.084 159.346735,19.624 159.166735,20.128 L166.402735,20.128 L166.402735,23.152 C165.790735,25.24 164.710735,27.112 163.126735,28.696 C164.530735,29.308 165.898735,29.956 167.230735,30.676 L165.214735,33.628 C163.846735,32.8 162.190735,31.936 160.246735,31.036 C157.870735,32.548 154.918735,33.736 151.354735,34.672 L149.626735,31.54 C152.218735,30.964 154.450735,30.208 156.358735,29.344 C154.918735,28.732 153.370735,28.12 151.786735,27.508 C152.650735,26.068 153.406735,24.664 154.054735,23.332 L150.490735,23.332 L150.490735,20.128 L155.494735,20.128 C155.746735,19.408 155.998735,18.76 156.214735,18.112 Z M159.742735,27.292 C161.218735,26.14 162.334735,24.808 163.090735,23.332 L157.762735,23.332 C157.294735,24.268 156.790735,25.168 156.286735,26.032 C157.438735,26.392 158.590735,26.824 159.742735,27.292 Z M154.018735,1.948 C154.774735,3.28 155.458735,4.72 156.034735,6.268 L153.370735,7.456 C152.650735,5.728 151.894735,4.216 151.102735,2.884 L154.018735,1.948 Z M164.134735,1.912 L166.762735,3.172 C166.042735,4.684 165.142735,6.16 164.026735,7.6 L161.398735,6.268 C162.550735,4.792 163.486735,3.352 164.134735,1.912 Z M150.562735,7.996 L157.258735,7.996 L157.258735,1.48 L160.714735,1.48 L160.714735,7.996 L166.834735,7.996 L166.834735,11.272 L160.714735,11.272 L160.714735,11.344 C162.586735,12.1 164.494735,12.964 166.438735,13.936 L164.494735,16.888 C162.982735,15.7 161.722735,14.764 160.714735,14.08 L160.714735,17.86 L157.258735,17.86 L157.258735,12.208 C156.034735,14.656 154.162735,16.78 151.570735,18.652 L149.698735,15.628 C152.038735,14.296 153.766735,12.856 154.846735,11.272 L150.562735,11.272 L150.562735,7.996 Z M200.775157,34.348 L195.591157,34.348 L194.691157,30.424 C196.347157,30.604 197.895157,30.712 199.335157,30.712 C200.739157,30.712 201.459157,29.992 201.459157,28.552 L201.459157,1.984 L205.383157,1.984 L205.383157,29.56 C205.383157,32.728 203.835157,34.348 200.775157,34.348 Z M191.739157,10.336 L195.519157,11.812 C193.899157,18.868 191.775157,24.304 189.111157,28.048 L185.799157,25.132 C188.499157,21.424 190.479157,16.492 191.739157,10.336 Z M213.951157,9.4 C216.435157,15.7 218.379157,21.208 219.747157,25.888 L216.327157,28.264 C214.887157,23.26 212.943157,17.68 210.495157,11.56 L213.951157,9.4 Z M245.551578,10.156 C245.407578,10.66 245.299578,11.128 245.155578,11.632 C245.947578,15.196 246.919578,18.328 248.107578,21.028 C249.187578,17.86 249.799578,14.224 249.943578,10.156 L245.551578,10.156 Z M246.379578,24.88 C245.227578,22.504 244.219578,19.84 243.355578,16.888 C242.815578,18.076 242.239578,19.192 241.663578,20.2 L239.323578,17.284 C241.303578,13.324 242.635578,8.032 243.319578,1.408 L246.991578,2.056 C246.775578,3.64 246.559578,5.116 246.307578,6.52 L255.307578,6.52 L255.307578,10.156 L253.327578,10.156 C253.111578,15.952 252.067578,20.884 250.159578,24.988 C251.887578,27.868 253.939578,30.136 256.315578,31.756 L254.227578,34.816 C251.995578,33.16 250.015578,31 248.323578,28.336 C246.631578,30.856 244.543578,33.016 242.095578,34.78 L240.151578,31.612 C242.743578,29.884 244.831578,27.652 246.379578,24.88 Z M229.351578,18.112 L232.879578,18.544 C232.663578,19.084 232.483578,19.624 232.303578,20.128 L239.539578,20.128 L239.539578,23.152 C238.927578,25.24 237.847578,27.112 236.263578,28.696 C237.667578,29.308 239.035578,29.956 240.367578,30.676 L238.351578,33.628 C236.983578,32.8 235.327578,31.936 233.383578,31.036 C231.007578,32.548 228.055578,33.736 224.491578,34.672 L222.763578,31.54 C225.355578,30.964 227.587578,30.208 229.495578,29.344 C228.055578,28.732 226.507578,28.12 224.923578,27.508 C225.787578,26.068 226.543578,24.664 227.191578,23.332 L223.627578,23.332 L223.627578,20.128 L228.631578,20.128 C228.883578,19.408 229.135578,18.76 229.351578,18.112 Z M232.879578,27.292 C234.355578,26.14 235.471578,24.808 236.227578,23.332 L230.899578,23.332 C230.431578,24.268 229.927578,25.168 229.423578,26.032 C230.575578,26.392 231.727578,26.824 232.879578,27.292 Z M227.155578,1.948 C227.911578,3.28 228.595578,4.72 229.171578,6.268 L226.507578,7.456 C225.787578,5.728 225.031578,4.216 224.239578,2.884 L227.155578,1.948 Z M237.271578,1.912 L239.899578,3.172 C239.179578,4.684 238.279578,6.16 237.163578,7.6 L234.535578,6.268 C235.687578,4.792 236.623578,3.352 237.271578,1.912 Z M223.699578,7.996 L230.395578,7.996 L230.395578,1.48 L233.851578,1.48 L233.851578,7.996 L239.971578,7.996 L239.971578,11.272 L233.851578,11.272 L233.851578,11.344 C235.723578,12.1 237.631578,12.964 239.575578,13.936 L237.631578,16.888 C236.119578,15.7 234.859578,14.764 233.851578,14.08 L233.851578,17.86 L230.395578,17.86 L230.395578,12.208 C229.171578,14.656 227.299578,16.78 224.707578,18.652 L222.835578,15.628 C225.175578,14.296 226.903578,12.856 227.983578,11.272 L223.699578,11.272 L223.699578,7.996 Z M263.94,34.42 L260.88,34.42 L260.088,30.892 C260.988,31.036 261.852,31.144 262.68,31.144 C263.436,31.144 263.832,30.676 263.832,29.776 L263.832,22.504 C262.608,22.936 261.42,23.368 260.196,23.764 L259.224,20.056 C260.772,19.696 262.32,19.264 263.832,18.76 L263.832,11.56 L259.944,11.56 L259.944,7.924 L263.832,7.924 L263.832,1.552 L267.504,1.552 L267.504,7.924 L270.564,7.924 L270.564,11.56 L267.504,11.56 L267.504,17.284 C268.512,16.816 269.484,16.348 270.42,15.844 L270.42,19.516 C269.412,20.02 268.44,20.488 267.504,20.956 L267.504,30.712 C267.504,33.16 266.316,34.42 263.94,34.42 Z M275.316,18.904 C274.884,24.916 273.516,30.208 271.248,34.816 L268.296,32.188 C270.636,27.616 271.824,21.712 271.86,14.512 L271.86,2.56 L291.588,2.56 L291.588,12.1 L285.108,12.1 L285.108,15.484 L292.38,15.484 L292.38,18.904 L285.108,18.904 L285.108,22.36 L290.796,22.36 L290.796,34.744 L287.34,34.744 L287.34,33.268 L279.24,33.268 L279.24,34.744 L275.784,34.744 L275.784,22.36 L281.436,22.36 L281.436,18.904 L275.316,18.904 Z M281.436,12.1 L275.496,12.1 L275.496,14.512 C275.496,14.836 275.46,15.16 275.46,15.484 L281.436,15.484 L281.436,12.1 Z M279.24,29.956 L287.34,29.956 L287.34,25.672 L279.24,25.672 L279.24,29.956 Z M287.916,5.98 L275.496,5.98 L275.496,8.788 L287.916,8.788 L287.916,5.98 Z M303.856422,12.784 L307.600422,12.784 L307.600422,34.852 L295.648422,34.852 L295.648422,31.504 L303.856422,31.504 L303.856422,12.784 Z M347.048843,34.348 L341.864843,34.348 L340.964843,30.424 C342.620843,30.604 344.168843,30.712 345.608843,30.712 C347.012843,30.712 347.732843,29.992 347.732843,28.552 L347.732843,1.984 L351.656843,1.984 L351.656843,29.56 C351.656843,32.728 350.108843,34.348 347.048843,34.348 Z M338.012843,10.336 L341.792843,11.812 C340.172843,18.868 338.048843,24.304 335.384843,28.048 L332.072843,25.132 C334.772843,21.424 336.752843,16.492 338.012843,10.336 Z M360.224843,9.4 C362.708843,15.7 364.652843,21.208 366.020843,25.888 L362.600843,28.264 C361.160843,23.26 359.216843,17.68 356.768843,11.56 L360.224843,9.4 Z M384.085265,2.56 L400.249265,2.56 L400.249265,13.648 L384.085265,13.648 L384.085265,2.56 Z M396.613265,10.336 L396.613265,5.872 L387.757265,5.872 L387.757265,10.336 L396.613265,10.336 Z M383.113265,16.24 L401.293265,16.24 L401.293265,19.624 L393.877265,19.624 L393.877265,23.008 L400.177265,23.008 L400.177265,26.356 L393.877265,26.356 L393.877265,30.028 L402.157265,30.028 L402.157265,33.556 L381.745265,33.556 L381.745265,30.028 L390.061265,30.028 L390.061265,26.356 L383.941265,26.356 L383.941265,23.008 L390.061265,23.008 L390.061265,19.624 L383.113265,19.624 L383.113265,16.24 Z M369.649265,10.912 L374.509265,10.912 L374.509265,6.88 C373.177265,7.06 371.809265,7.204 370.441265,7.348 L369.685265,3.82 C374.113265,3.46 378.073265,2.776 381.565265,1.696 L382.897265,5.224 C381.349265,5.656 379.729265,6.016 378.073265,6.304 L378.073265,10.912 L381.997265,10.912 L381.997265,14.476 L378.073265,14.476 L378.073265,15.88 C379.657265,17.32 381.277265,18.868 382.897265,20.596 L380.773265,23.8 C379.729265,22.072 378.829265,20.632 378.073265,19.48 L378.073265,34.6 L374.509265,34.6 L374.509265,20.056 C373.393265,22.936 372.025265,25.564 370.369265,27.976 L368.713265,23.764 C371.125265,21.028 372.925265,17.932 374.077265,14.476 L369.649265,14.476 L369.649265,10.912 Z M424.325687,1.192 C424.757687,2.056 425.153687,2.992 425.585687,4.036 L438.293687,4.036 L438.293687,7.492 L412.157687,7.492 L412.157687,15.556 C412.013687,23.548 410.753687,29.956 408.341687,34.78 L405.497687,32.224 C407.369687,28.228 408.341687,22.684 408.413687,15.556 L408.413687,4.036 L421.733687,4.036 C421.373687,3.244 420.941687,2.524 420.509687,1.84 L424.325687,1.192 Z M420.725687,13.504 C422.381687,14.332 423.857687,15.16 425.225687,15.988 C426.953687,15.016 428.573687,13.9 430.121687,12.676 L415.181687,12.676 L415.181687,9.508 L434.873687,9.508 L434.873687,12.172 C432.749687,14.368 430.481687,16.24 428.033687,17.824 C428.357687,18.04 428.681687,18.292 429.005687,18.544 L428.573687,18.976 L437.789687,18.976 L437.789687,21.892 C436.277687,24.7 434.657687,27.04 432.893687,28.84 L430.085687,26.608 C431.381687,25.456 432.605687,24.088 433.721687,22.432 L426.989687,22.432 L426.989687,31.036 C426.989687,33.556 425.729687,34.816 423.245687,34.816 L417.881687,34.816 L417.089687,31.288 C418.817687,31.432 420.437687,31.54 421.985687,31.54 C422.813687,31.54 423.245687,31.072 423.245687,30.136 L423.245687,22.432 L413.093687,22.432 L413.093687,18.976 L424.433687,18.976 C422.777687,17.896 420.797687,16.816 418.493687,15.664 L420.725687,13.504 Z" id="「镝数小数据」小程序" fill="#2C105A"></path>
                        <path d="M8.94178422,64.616 C12.6377842,64.616 14.7657842,66.38 15.3257842,69.964 L13.0577842,69.964 C12.6097842,67.668 11.2377842,66.548 8.91378422,66.548 C7.34578422,66.548 6.11378422,67.304 5.21778422,68.872 C4.32178422,70.328 3.90178422,72.204 3.90178422,74.472 C3.90178422,74.584 3.90178422,74.836 3.92978422,75.2 L4.04178422,75.2 C4.54578422,74.164 5.24578422,73.352 6.19778422,72.792 C7.09378422,72.204 8.12978422,71.924 9.30578422,71.924 C11.2097842,71.924 12.7497842,72.54 13.9257842,73.772 C15.0737842,75.004 15.6617842,76.572 15.6617842,78.532 C15.6617842,80.492 15.0177842,82.144 13.7577842,83.432 C12.4697842,84.72 10.8737842,85.392 8.91378422,85.392 C6.47778422,85.392 4.65778422,84.468 3.42578422,82.676 C2.24978422,80.968 1.68978422,78.588 1.68978422,75.536 C1.68978422,72.344 2.30578422,69.74 3.56578422,67.752 C4.88178422,65.652 6.67378422,64.616 8.94178422,64.616 Z M8.85778422,73.828 C7.54178422,73.828 6.44978422,74.276 5.58178422,75.172 C4.71378422,76.068 4.29378422,77.188 4.29378422,78.588 C4.29378422,79.988 4.68578422,81.136 5.52578422,82.032 C6.36578422,82.984 7.45778422,83.46 8.85778422,83.46 C10.2017842,83.46 11.2937842,82.984 12.1337842,82.088 C12.9737842,81.136 13.3937842,79.96 13.3937842,78.532 C13.3937842,77.104 12.9737842,75.984 12.1617842,75.144 C11.3217842,74.248 10.2297842,73.828 8.85778422,73.828 Z M19.2118899,69.488 L30.1038899,69.488 C30.3278899,67.864 30.4398899,66.184 30.4678899,64.42 L30.4678899,62.152 L32.5398899,62.152 L32.5398899,63.972 C32.5398899,65.932 32.3998899,67.752 32.1758899,69.488 L43.7958899,69.488 L43.7958899,71.448 L32.7638899,71.448 C34.7238899,77.776 38.5878899,82.648 44.3278899,86.064 L43.0678899,87.688 C37.4398899,84.216 33.5758899,79.344 31.4758899,73.016 C29.7398899,79.82 25.8758899,84.776 19.9118899,87.884 L18.6518899,86.204 C24.6158899,83.264 28.3118899,78.336 29.7678899,71.448 L19.2118899,71.448 L19.2118899,69.488 Z M59.1059957,63.3 L72.3779957,63.3 L72.3779957,65.204 L66.8059957,65.204 C66.6659957,66.268 66.4979957,67.276 66.2739957,68.284 L71.5099957,68.284 L71.5099957,81.5 L69.5499957,81.5 L69.5499957,70.132 L62.2979957,70.132 L62.2979957,81.724 L60.3099957,81.724 L60.3099957,68.284 L64.3139957,68.284 C64.5379957,67.276 64.7059957,66.268 64.8179957,65.204 L59.1059957,65.204 L59.1059957,63.3 Z M68.0099957,81.584 C69.9139957,83.208 71.5099957,84.86 72.8259957,86.484 L71.3979957,87.912 C70.2499957,86.344 68.6539957,84.664 66.6379957,82.9 L68.0099957,81.584 Z M64.9299957,71.98 L66.8339957,71.98 L66.8339957,76.796 C66.7779957,79.792 66.1899957,82.2 65.0979957,83.992 C64.0339957,85.644 62.2979957,86.96 59.8899957,87.912 L58.8259957,86.204 C61.0939957,85.336 62.6899957,84.16 63.5859957,82.704 C64.4259957,81.192 64.8739957,79.232 64.9299957,76.796 L64.9299957,71.98 Z M52.6099957,62.376 L54.1219957,62.376 C56.0259957,64.588 57.8739957,66.94 59.6659957,69.432 L58.3219957,70.86 C56.5019957,68.116 54.9059957,65.932 53.5619957,64.308 C51.9659957,67.164 50.1179957,69.768 48.0179957,72.12 L46.8699957,70.496 C48.9699957,68.2 50.8739957,65.484 52.6099957,62.376 Z M48.4659957,74.612 L58.4899957,74.612 L58.4899957,76.292 C57.2859957,78.84 55.9139957,81.108 54.3459957,83.124 C55.4379957,84.16 56.4459957,85.196 57.3419957,86.232 L55.8859957,87.66 C54.2059957,85.56 51.9099957,83.32 48.9699957,80.94 L50.3139957,79.652 C51.2659957,80.408 52.1619957,81.164 53.0299957,81.92 C54.1779957,80.38 55.2699957,78.56 56.3339957,76.488 L48.4659957,76.488 L48.4659957,74.612 Z M53.1979957,68.452 C54.4299957,70.104 55.3539957,71.532 56.0259957,72.764 L54.5699957,73.8 C53.8699957,72.456 52.9179957,70.972 51.7419957,69.348 L53.1979957,68.452 Z M83.3481014,65.932 L93.2601014,65.932 C93.2321014,64.7 93.2321014,63.44 93.2321014,62.152 L95.1921014,62.152 C95.1921014,63.468 95.1921014,64.728 95.2201014,65.932 L98.0761014,65.932 C97.6841014,64.868 97.2921014,63.916 96.8441014,63.048 L98.6641014,62.74 C99.0281014,63.664 99.3921014,64.728 99.7561014,65.932 L101.128101,65.932 L101.128101,67.836 L95.2481014,67.836 C95.3321014,72.148 95.5281014,75.676 95.8361014,78.392 C96.9281014,76.04 97.7961014,73.324 98.4121014,70.188 L100.148101,70.916 C99.2241014,75.116 97.9361014,78.644 96.2841014,81.444 C96.8441014,84.104 97.4601014,85.476 98.1881014,85.588 C98.7481014,85.532 99.2801014,84.104 99.8401014,81.36 L101.352101,82.592 C100.456101,85.952 99.4201014,87.632 98.1881014,87.632 C97.2641014,87.632 96.4521014,86.904 95.7241014,85.448 C95.4441014,84.86 95.1641014,84.188 94.9401014,83.46 C93.5681014,85.252 92.0001014,86.68 90.2641014,87.744 L89.0321014,86.148 C91.1041014,84.944 92.8961014,83.236 94.3521014,81.024 C94.1841014,80.24 94.0721014,79.428 93.9601014,78.532 C93.5961014,75.732 93.3721014,72.148 93.2881014,67.836 L83.3481014,67.836 L83.3481014,65.932 Z M84.4681014,70.608 L91.5801014,70.608 L91.5801014,78.504 L84.4681014,78.504 L84.4681014,70.608 Z M89.7881014,76.852 L89.7881014,72.288 L86.2321014,72.288 L86.2321014,76.852 L89.7881014,76.852 Z M91.8321014,80.24 L91.8321014,82.06 C89.0881014,83.124 86.1201014,84.02 82.9281014,84.748 L82.4521014,82.816 C85.7001014,82.256 88.8361014,81.388 91.8321014,80.24 Z M75.9281014,69.572 L78.6721014,69.572 L78.6721014,62.18 L80.6601014,62.18 L80.6601014,69.572 L83.3201014,69.572 L83.3201014,71.532 L80.6601014,71.532 L80.6601014,79.988 C81.5561014,79.596 82.4521014,79.148 83.2921014,78.7 L83.2921014,80.716 C81.0801014,81.892 78.7001014,82.872 76.1801014,83.656 L75.6761014,81.612 C76.6841014,81.36 77.6921014,81.08 78.6721014,80.744 L78.6721014,71.532 L75.9281014,71.532 L75.9281014,69.572 Z M107.674207,81.08 C108.738207,81.836 109.830207,82.76 110.894207,83.88 C111.818207,84.832 112.630207,85.812 113.302207,86.764 L111.902207,87.94 C111.230207,86.988 110.418207,86.036 109.522207,85.084 C108.486207,83.964 107.450207,83.04 106.414207,82.256 L107.674207,81.08 Z M137.712313,65.008 L139.504313,65.008 L139.504313,85 L137.208313,85 L137.208313,67.808 C135.948313,69.096 134.380313,69.992 132.504313,70.552 L132.504313,68.256 C133.400313,68.004 134.352313,67.612 135.304313,67.052 C136.256313,66.436 137.040313,65.764 137.712313,65.008 Z M151.342419,64.616 C153.722419,64.616 155.514419,65.652 156.746419,67.78 C157.810419,69.572 158.342419,71.98 158.342419,75.004 C158.342419,78.028 157.810419,80.436 156.746419,82.228 C155.514419,84.328 153.722419,85.392 151.342419,85.392 C148.934419,85.392 147.142419,84.328 145.938419,82.228 C144.874419,80.436 144.342419,78.028 144.342419,75.004 C144.342419,71.98 144.874419,69.572 145.938419,67.78 C147.142419,65.652 148.934419,64.616 151.342419,64.616 Z M151.342419,66.576 C149.550419,66.576 148.262419,67.528 147.478419,69.46 C146.918419,70.804 146.638419,72.652 146.638419,75.004 C146.638419,77.328 146.918419,79.176 147.478419,80.548 C148.262419,82.452 149.550419,83.432 151.342419,83.432 C153.134419,83.432 154.422419,82.452 155.206419,80.548 C155.766419,79.176 156.074419,77.328 156.074419,75.004 C156.074419,72.652 155.766419,70.804 155.206419,69.46 C154.422419,67.528 153.134419,66.576 151.342419,66.576 Z M168.584524,64.616 C170.964524,64.616 172.756524,65.652 173.988524,67.78 C175.052524,69.572 175.584524,71.98 175.584524,75.004 C175.584524,78.028 175.052524,80.436 173.988524,82.228 C172.756524,84.328 170.964524,85.392 168.584524,85.392 C166.176524,85.392 164.384524,84.328 163.180524,82.228 C162.116524,80.436 161.584524,78.028 161.584524,75.004 C161.584524,71.98 162.116524,69.572 163.180524,67.78 C164.384524,65.652 166.176524,64.616 168.584524,64.616 Z M168.584524,66.576 C166.792524,66.576 165.504524,67.528 164.720524,69.46 C164.160524,70.804 163.880524,72.652 163.880524,75.004 C163.880524,77.328 164.160524,79.176 164.720524,80.548 C165.504524,82.452 166.792524,83.432 168.584524,83.432 C170.376524,83.432 171.664524,82.452 172.448524,80.548 C173.008524,79.176 173.316524,77.328 173.316524,75.004 C173.316524,72.652 173.008524,70.804 172.448524,69.46 C171.664524,67.528 170.376524,66.576 168.584524,66.576 Z M184.95863,70.692 L186.86263,70.692 L186.86263,76.796 L192.96663,76.796 L192.96663,78.7 L186.86263,78.7 L186.86263,84.832 L184.95863,84.832 L184.95863,78.7 L178.82663,78.7 L178.82663,76.796 L184.95863,76.796 L184.95863,70.692 Z M206.708736,63.916 L220.120736,63.916 L220.120736,65.904 L206.708736,65.904 L206.708736,63.916 Z M205.952736,71.028 L221.352736,71.028 L221.352736,73.016 L216.816736,73.016 L216.816736,85.252 C216.816736,86.876 215.892736,87.688 214.100736,87.688 L209.984736,87.688 L209.564736,85.7 C210.908736,85.784 212.168736,85.84 213.400736,85.84 C214.296736,85.84 214.772736,85.476 214.772736,84.748 L214.772736,73.016 L205.952736,73.016 L205.952736,71.028 Z M202.284736,62.376 L204.104736,63.216 C202.536736,66.324 200.016736,69.068 196.544736,71.448 L195.956736,69.432 C198.868736,67.36 200.968736,65.008 202.284736,62.376 Z M203.600736,68.76 L205.420736,69.6 C204.608736,71.168 203.600736,72.68 202.368736,74.08 L202.368736,87.8 L200.380736,87.8 L200.380736,76.124 C199.260736,77.132 198.056736,78.112 196.712736,79.036 L196.124736,77.02 C199.540736,74.612 202.032736,71.868 203.600736,68.76 Z M233.190841,62.404 L235.234841,62.404 L235.234841,84.664 L239.210841,84.664 L239.210841,62.404 L241.254841,62.404 L241.254841,84.664 L249.654841,84.664 L249.654841,86.624 L224.846841,86.624 L224.846841,84.664 L233.190841,84.664 L233.190841,62.404 Z M247.106841,67.5 L248.898841,68.004 C247.778841,72.876 246.378841,77.132 244.670841,80.8 L242.850841,80.156 C244.474841,76.852 245.902841,72.624 247.106841,67.5 Z M227.254841,67.444 C228.710841,71.224 230.026841,75.564 231.174841,80.464 L229.326841,80.94 C228.318841,76.46 227.058841,72.148 225.546841,68.004 L227.254841,67.444 Z M256.536947,81.08 C257.600947,81.836 258.692947,82.76 259.756947,83.88 C260.680947,84.832 261.492947,85.812 262.164947,86.764 L260.764947,87.94 C260.092947,86.988 259.280947,86.036 258.384947,85.084 C257.348947,83.964 256.312947,83.04 255.276947,82.256 L256.536947,81.08 Z M283.075053,65.008 L294.695053,65.008 L294.695053,67.052 L284.951053,67.052 L284.279053,73.744 L284.391053,73.744 C284.951053,73.072 285.679053,72.568 286.547053,72.232 C287.331053,71.896 288.171053,71.756 289.095053,71.756 C290.999053,71.756 292.539053,72.344 293.715053,73.548 C294.891053,74.78 295.507053,76.46 295.507053,78.616 C295.507053,80.632 294.779053,82.284 293.351053,83.572 C292.007053,84.776 290.327053,85.392 288.367053,85.392 C286.603053,85.392 285.091053,84.916 283.859053,83.964 C282.459053,82.9 281.703053,81.444 281.563053,79.624 L283.831053,79.624 C283.943053,80.884 284.447053,81.864 285.343053,82.536 C286.127053,83.124 287.163053,83.432 288.395053,83.432 C289.795053,83.432 290.943053,82.984 291.867053,82.088 C292.763053,81.192 293.239053,80.044 293.239053,78.644 C293.239053,77.048 292.791053,75.816 291.951053,74.948 C291.139053,74.052 289.991053,73.632 288.535053,73.632 C287.583053,73.632 286.743053,73.828 285.987053,74.248 C285.203053,74.64 284.587053,75.256 284.195053,76.04 L282.011053,76.04 L283.075053,65.008 Z M305.777159,64.616 C308.157159,64.616 309.949159,65.652 311.181159,67.78 C312.245159,69.572 312.777159,71.98 312.777159,75.004 C312.777159,78.028 312.245159,80.436 311.181159,82.228 C309.949159,84.328 308.157159,85.392 305.777159,85.392 C303.369159,85.392 301.577159,84.328 300.373159,82.228 C299.309159,80.436 298.777159,78.028 298.777159,75.004 C298.777159,71.98 299.309159,69.572 300.373159,67.78 C301.577159,65.652 303.369159,64.616 305.777159,64.616 Z M305.777159,66.576 C303.985159,66.576 302.697159,67.528 301.913159,69.46 C301.353159,70.804 301.073159,72.652 301.073159,75.004 C301.073159,77.328 301.353159,79.176 301.913159,80.548 C302.697159,82.452 303.985159,83.432 305.777159,83.432 C307.569159,83.432 308.857159,82.452 309.641159,80.548 C310.201159,79.176 310.509159,77.328 310.509159,75.004 C310.509159,72.652 310.201159,70.804 309.641159,69.46 C308.857159,67.528 307.569159,66.576 305.777159,66.576 Z M323.019264,64.616 C325.399264,64.616 327.191264,65.652 328.423264,67.78 C329.487264,69.572 330.019264,71.98 330.019264,75.004 C330.019264,78.028 329.487264,80.436 328.423264,82.228 C327.191264,84.328 325.399264,85.392 323.019264,85.392 C320.611264,85.392 318.819264,84.328 317.615264,82.228 C316.551264,80.436 316.019264,78.028 316.019264,75.004 C316.019264,71.98 316.551264,69.572 317.615264,67.78 C318.819264,65.652 320.611264,64.616 323.019264,64.616 Z M323.019264,66.576 C321.227264,66.576 319.939264,67.528 319.155264,69.46 C318.595264,70.804 318.315264,72.652 318.315264,75.004 C318.315264,77.328 318.595264,79.176 319.155264,80.548 C319.939264,82.452 321.227264,83.432 323.019264,83.432 C324.811264,83.432 326.099264,82.452 326.883264,80.548 C327.443264,79.176 327.751264,77.328 327.751264,75.004 C327.751264,72.652 327.443264,70.804 326.883264,69.46 C326.099264,67.528 324.811264,66.576 323.019264,66.576 Z M340.26137,64.616 C342.64137,64.616 344.43337,65.652 345.66537,67.78 C346.72937,69.572 347.26137,71.98 347.26137,75.004 C347.26137,78.028 346.72937,80.436 345.66537,82.228 C344.43337,84.328 342.64137,85.392 340.26137,85.392 C337.85337,85.392 336.06137,84.328 334.85737,82.228 C333.79337,80.436 333.26137,78.028 333.26137,75.004 C333.26137,71.98 333.79337,69.572 334.85737,67.78 C336.06137,65.652 337.85337,64.616 340.26137,64.616 Z M340.26137,66.576 C338.46937,66.576 337.18137,67.528 336.39737,69.46 C335.83737,70.804 335.55737,72.652 335.55737,75.004 C335.55737,77.328 335.83737,79.176 336.39737,80.548 C337.18137,82.452 338.46937,83.432 340.26137,83.432 C342.05337,83.432 343.34137,82.452 344.12537,80.548 C344.68537,79.176 344.99337,77.328 344.99337,75.004 C344.99337,72.652 344.68537,70.804 344.12537,69.46 C343.34137,67.528 342.05337,66.576 340.26137,66.576 Z M357.503476,64.616 C359.883476,64.616 361.675476,65.652 362.907476,67.78 C363.971476,69.572 364.503476,71.98 364.503476,75.004 C364.503476,78.028 363.971476,80.436 362.907476,82.228 C361.675476,84.328 359.883476,85.392 357.503476,85.392 C355.095476,85.392 353.303476,84.328 352.099476,82.228 C351.035476,80.436 350.503476,78.028 350.503476,75.004 C350.503476,71.98 351.035476,69.572 352.099476,67.78 C353.303476,65.652 355.095476,64.616 357.503476,64.616 Z M357.503476,66.576 C355.711476,66.576 354.423476,67.528 353.639476,69.46 C353.079476,70.804 352.799476,72.652 352.799476,75.004 C352.799476,77.328 353.079476,79.176 353.639476,80.548 C354.423476,82.452 355.711476,83.432 357.503476,83.432 C359.295476,83.432 360.583476,82.452 361.367476,80.548 C361.927476,79.176 362.235476,77.328 362.235476,75.004 C362.235476,72.652 361.927476,70.804 361.367476,69.46 C360.583476,67.528 359.295476,66.576 357.503476,66.576 Z M374.745581,64.616 C377.125581,64.616 378.917581,65.652 380.149581,67.78 C381.213581,69.572 381.745581,71.98 381.745581,75.004 C381.745581,78.028 381.213581,80.436 380.149581,82.228 C378.917581,84.328 377.125581,85.392 374.745581,85.392 C372.337581,85.392 370.545581,84.328 369.341581,82.228 C368.277581,80.436 367.745581,78.028 367.745581,75.004 C367.745581,71.98 368.277581,69.572 369.341581,67.78 C370.545581,65.652 372.337581,64.616 374.745581,64.616 Z M374.745581,66.576 C372.953581,66.576 371.665581,67.528 370.881581,69.46 C370.321581,70.804 370.041581,72.652 370.041581,75.004 C370.041581,77.328 370.321581,79.176 370.881581,80.548 C371.665581,82.452 372.953581,83.432 374.745581,83.432 C376.537581,83.432 377.825581,82.452 378.609581,80.548 C379.169581,79.176 379.477581,77.328 379.477581,75.004 C379.477581,72.652 379.169581,70.804 378.609581,69.46 C377.825581,67.528 376.537581,66.576 374.745581,66.576 Z M391.119687,70.692 L393.023687,70.692 L393.023687,76.796 L399.127687,76.796 L399.127687,78.7 L393.023687,78.7 L393.023687,84.832 L391.119687,84.832 L391.119687,78.7 L384.987687,78.7 L384.987687,76.796 L391.119687,76.796 L391.119687,70.692 Z M405.813793,71.896 C404.833793,73.24 403.741793,74.528 402.565793,75.732 L401.977793,73.716 C405.001793,70.356 407.185793,66.52 408.557793,62.208 L410.377793,63.048 C409.705793,65.064 408.837793,66.996 407.829793,68.816 L407.829793,87.8 L405.813793,87.8 L405.813793,71.896 Z M409.845793,68.956 L415.613793,68.956 C415.641793,68.396 415.669793,67.836 415.669793,67.276 L415.669793,62.208 L417.601793,62.208 L417.601793,67.276 C417.601793,67.836 417.573793,68.396 417.545793,68.956 L426.953793,68.956 L426.953793,70.916 L421.129793,70.916 L421.129793,84.664 C421.129793,85.224 421.381793,85.504 421.941793,85.504 L424.377793,85.504 C424.685793,85.504 424.937793,85.336 425.161793,85.028 C425.413793,84.608 425.581793,83.124 425.665793,80.548 L427.485793,81.136 C427.289793,84.104 426.981793,85.924 426.589793,86.54 C426.197793,87.044 425.609793,87.324 424.881793,87.352 L421.409793,87.352 C419.925793,87.352 419.197793,86.568 419.197793,85.028 L419.197793,70.916 L417.433793,70.916 C416.817793,78.392 414.465793,83.992 410.433793,87.716 L408.949793,86.428 C412.701793,83.012 414.885793,77.86 415.501793,70.916 L409.845793,70.916 L409.845793,68.956 Z M421.269793,62.712 C423.005793,63.916 424.489793,65.148 425.665793,66.38 L424.293793,67.752 C423.229793,66.548 421.801793,65.288 419.953793,63.972 L421.269793,62.712 Z M435.487899,70.3 L435.487899,72.764 C435.347899,78.924 434.143899,83.852 431.847899,87.548 L430.447899,86.064 C432.351899,82.872 433.387899,78.42 433.555899,72.764 L433.555899,64 C440.947899,63.944 447.611899,63.356 453.519899,62.292 L454.527899,64.112 C448.871899,65.064 442.515899,65.596 435.487899,65.708 L435.487899,68.452 L444.839899,68.452 C444.979899,67.612 445.091899,66.744 445.175899,65.904 L447.191899,66.156 C447.107899,66.94 446.995899,67.724 446.883899,68.452 L455.759899,68.452 L455.759899,70.3 L446.575899,70.3 C446.407899,71.252 446.211899,72.12 445.987899,72.96 L453.183899,72.96 L453.183899,82.48 L451.251899,82.48 L451.251899,74.808 L440.191899,74.808 L440.191899,82.592 L438.259899,82.592 L438.259899,72.96 L443.943899,72.96 C444.167899,72.064 444.363899,71.196 444.531899,70.3 L435.487899,70.3 Z M447.331899,81.836 C450.439899,83.012 453.267899,84.412 455.815899,86.064 L454.695899,87.772 C451.979899,85.924 449.179899,84.44 446.323899,83.348 L447.331899,81.836 Z M445.259899,75.928 L447.219899,76.068 C446.883899,79.372 445.875899,81.92 444.195899,83.656 C442.459899,85.392 439.799899,86.792 436.243899,87.8 L435.151899,85.952 C438.455899,85.112 440.891899,83.964 442.459899,82.452 C444.027899,80.94 444.951899,78.756 445.259899,75.928 Z M476.278004,68.34 L475.914004,69.796 C476.614004,73.072 477.510004,75.9 478.630004,78.252 C479.722004,75.424 480.310004,72.12 480.422004,68.34 L476.278004,68.34 Z M477.706004,80.268 C476.614004,78.112 475.690004,75.648 474.934004,72.848 C474.430004,74.136 473.870004,75.284 473.282004,76.292 L472.022004,74.752 C473.674004,71.616 474.794004,67.388 475.354004,62.068 L477.314004,62.404 C477.146004,63.832 476.922004,65.176 476.698004,66.408 L484.090004,66.408 L484.090004,68.34 L482.270004,68.34 C482.130004,73.016 481.262004,77.02 479.694004,80.324 C481.150004,82.844 482.858004,84.776 484.874004,86.148 L483.782004,87.8 C481.822004,86.4 480.142004,84.496 478.742004,82.144 C477.398004,84.384 475.662004,86.26 473.562004,87.772 L472.526004,86.092 C474.710004,84.58 476.418004,82.648 477.706004,80.268 Z M464.434004,75.144 L466.310004,75.368 C466.114004,75.9 465.918004,76.404 465.750004,76.908 L471.602004,76.908 L471.602004,78.56 C470.986004,80.408 469.950004,82.004 468.494004,83.348 C469.838004,83.964 471.126004,84.58 472.358004,85.252 L471.266004,86.82 C470.034004,86.092 468.606004,85.336 466.954004,84.608 C465.106004,85.896 462.782004,86.932 459.982004,87.716 L459.030004,86.036 C461.326004,85.42 463.314004,84.664 464.938004,83.74 C463.706004,83.208 462.418004,82.676 461.046004,82.172 C461.774004,80.94 462.418004,79.792 462.978004,78.672 L459.674004,78.672 L459.674004,76.908 L463.762004,76.908 C464.014004,76.292 464.238004,75.704 464.434004,75.144 Z M466.646004,82.564 C468.046004,81.444 469.110004,80.128 469.782004,78.672 L464.966004,78.672 C464.518004,79.624 464.014004,80.52 463.454004,81.36 C464.574004,81.752 465.638004,82.144 466.646004,82.564 Z M461.886004,62.656 C462.558004,63.748 463.118004,64.924 463.622004,66.156 L462.166004,66.828 C461.578004,65.456 460.962004,64.252 460.290004,63.188 L461.886004,62.656 Z M470.398004,62.572 L471.854004,63.244 C471.294004,64.476 470.594004,65.68 469.698004,66.856 L468.270004,66.128 C469.166004,64.924 469.894004,63.748 470.398004,62.572 Z M459.730004,67.5 L465.190004,67.5 L465.190004,62.152 L467.066004,62.152 L467.066004,67.5 L472.162004,67.5 L472.162004,69.264 L467.066004,69.264 L467.066004,69.572 C468.578004,70.328 470.146004,71.196 471.714004,72.148 L470.678004,73.716 C469.278004,72.596 468.074004,71.7 467.066004,71.028 L467.066004,74.668 L465.190004,74.668 L465.190004,69.348 C464.266004,71.56 462.586004,73.464 460.178004,75.088 L459.198004,73.464 C461.354004,72.204 462.866004,70.804 463.706004,69.264 L459.730004,69.264 L459.730004,67.5 Z M490.88811,87.548 L488.50811,87.548 L488.08811,85.644 C488.81611,85.728 489.54411,85.784 490.21611,85.784 C490.91611,85.784 491.28011,85.364 491.28011,84.58 L491.28011,77.72 C490.16011,78.14 489.06811,78.532 487.97611,78.868 L487.47211,76.908 C488.76011,76.6 490.04811,76.208 491.28011,75.76 L491.28011,69.432 L487.92011,69.432 L487.92011,67.5 L491.28011,67.5 L491.28011,62.208 L493.24011,62.208 L493.24011,67.5 L495.92811,67.5 L495.92811,69.432 L493.24011,69.432 L493.24011,74.948 C494.13611,74.556 495.00411,74.136 495.84411,73.688 L495.84411,75.676 C494.97611,76.124 494.10811,76.516 493.24011,76.908 L493.24011,85.084 C493.24011,86.708 492.45611,87.548 490.88811,87.548 Z M499.26011,75.172 C498.92411,79.96 497.83211,84.16 495.98411,87.8 L494.41611,86.4 C496.40411,82.704 497.41211,77.888 497.44011,72.008 L497.44011,63.244 L512.19611,63.244 L512.19611,70.048 L506.93211,70.048 L506.93211,73.352 L512.92411,73.352 L512.92411,75.172 L506.93211,75.172 L506.93211,78.616 L511.63611,78.616 L511.63611,87.8 L509.76011,87.8 L509.76011,86.428 L502.17211,86.428 L502.17211,87.8 L500.29611,87.8 L500.29611,78.616 L504.97211,78.616 L504.97211,75.172 L499.26011,75.172 Z M504.97211,70.048 L499.40011,70.048 L499.40011,72.008 C499.40011,72.456 499.37211,72.904 499.37211,73.352 L504.97211,73.352 L504.97211,70.048 Z M502.17211,84.636 L509.76011,84.636 L509.76011,80.408 L502.17211,80.408 L502.17211,84.636 Z M510.23611,65.12 L499.40011,65.12 L499.40011,68.228 L510.23611,68.228 L510.23611,65.12 Z" id="6大领域、100+行业、500000+优质数据" fill="#323B47"></path>
                    </g>
                    <path d="M144.939577,526.988 L150.623577,526.988 L150.623577,516.264 L152.639577,516.264 L152.639577,526.988 L169.607577,526.988 L169.607577,528.948 L160.395577,528.948 C161.571577,533.428 164.763577,536.928 169.943577,539.448 L168.767577,541.324 C163.111577,538.328 159.695577,534.212 158.463577,528.948 L152.639577,528.948 L152.639577,539.084 C154.739577,538.58 156.839577,537.936 158.911577,537.152 L159.443577,539.084 C156.699577,540.036 153.759577,540.848 150.623577,541.576 L149.979577,539.728 C150.399577,539.504 150.623577,539.196 150.623577,538.748 L150.623577,528.948 L144.939577,528.948 L144.939577,526.988 Z M165.351577,516.488 L166.723577,517.86 C164.483577,520.38 161.095577,522.648 156.615577,524.664 L155.411577,523.068 C159.863577,521.108 163.167577,518.924 165.351577,516.488 Z M197.573683,519.316 L197.573683,524.832 L195.641683,524.832 L195.641683,521.136 L184.469683,521.136 L184.469683,524.944 L182.565683,524.944 L182.565683,519.316 L189.005683,519.316 C188.641683,518.196 188.221683,517.188 187.773683,516.236 L189.817683,515.9 C190.237683,516.908 190.629683,518.028 191.021683,519.316 L197.573683,519.316 Z M187.773683,522.9 L189.733683,523.068 C189.341683,524.664 188.921683,526.12 188.529683,527.408 L198.469683,527.408 L198.469683,529.34 L195.109683,529.34 C194.661683,532.14 193.681683,534.492 192.197683,536.34 C194.829683,537.796 196.929683,539.112 198.553683,540.232 L197.181683,541.828 C195.501683,540.596 193.401683,539.252 190.881683,537.768 C188.921683,539.504 185.785683,540.876 181.417683,541.912 L180.605683,540.008 C184.301683,539.168 187.073683,538.048 188.977683,536.648 C187.353683,535.724 185.617683,534.772 183.769683,533.792 C184.525683,532.392 185.197683,530.908 185.813683,529.34 L181.893683,529.34 L181.893683,527.408 L186.485683,527.408 C186.961683,525.952 187.381683,524.468 187.773683,522.9 Z M193.177683,529.34 L187.857683,529.34 C187.297683,530.796 186.737683,532.084 186.149683,533.148 C187.661683,533.932 189.089683,534.66 190.405683,535.36 C191.777683,533.792 192.701683,531.804 193.177683,529.34 Z M176.125683,541.548 L173.745683,541.548 L173.325683,539.588 C174.053683,539.644 174.753683,539.7 175.425683,539.7 C176.097683,539.7 176.461683,539.336 176.461683,538.608 L176.461683,531.86 C175.341683,532.28 174.221683,532.672 173.129683,533.008 L172.625683,530.992 C173.941683,530.684 175.229683,530.292 176.461683,529.844 L176.461683,523.432 L173.185683,523.432 L173.185683,521.5 L176.461683,521.5 L176.461683,516.208 L178.533683,516.208 L178.533683,521.5 L181.165683,521.5 L181.165683,523.432 L178.533683,523.432 L178.533683,529.032 C179.401683,528.64 180.269683,528.22 181.137683,527.772 L181.137683,529.816 C180.269683,530.236 179.401683,530.628 178.533683,531.02 L178.533683,539.112 C178.533683,540.736 177.721683,541.548 176.125683,541.548 Z M212.323788,517.804 L225.203788,517.804 L225.203788,530.88 L212.323788,530.88 L212.323788,517.804 Z M223.187788,528.92 L223.187788,519.736 L214.339788,519.736 L214.339788,528.92 L223.187788,528.92 Z M204.707788,516.404 C206.555788,517.804 208.095788,519.232 209.383788,520.66 L208.011788,522.06 C206.863788,520.716 205.295788,519.288 203.307788,517.776 L204.707788,516.404 Z M201.347788,524.692 L207.339788,524.692 L207.339788,537.04 C208.235788,536.256 209.187788,535.332 210.223788,534.296 L210.755788,536.424 C209.131788,538.048 207.423788,539.476 205.603788,540.736 L204.819788,538.944 C205.211788,538.608 205.407788,538.216 205.407788,537.768 L205.407788,526.624 L201.347788,526.624 L201.347788,524.692 Z M215.319788,532.56 L217.111788,533.428 C215.711788,536.704 214.059788,539.532 212.155788,541.94 L210.391788,540.652 C212.323788,538.412 213.975788,535.696 215.319788,532.56 Z M222.039788,532.476 C224.251788,535.584 225.959788,538.3 227.135788,540.624 L225.399788,541.828 C224.167788,539.308 222.515788,536.536 220.415788,533.512 L222.039788,532.476 Z M235.725894,526.148 L231.273894,526.148 L231.273894,517.244 L243.173894,517.244 L243.173894,526.148 L237.685894,526.148 C237.629894,527.38 237.545894,528.5 237.433894,529.564 L243.453894,529.564 C243.453894,534.436 243.313894,537.432 243.033894,538.608 C242.753894,540.456 241.409894,541.408 238.973894,541.408 C238.581894,541.408 237.965894,541.38 237.069894,541.324 L236.593894,539.532 C237.405894,539.588 238.105894,539.644 238.693894,539.644 C240.093894,539.644 240.933894,539.028 241.157894,537.824 C241.325894,537.124 241.409894,534.996 241.465894,531.44 L237.181894,531.44 C236.873894,533.176 236.509894,534.576 236.061894,535.64 C235.025894,537.992 233.317894,540.036 230.937894,541.744 L229.649894,540.148 C231.805894,538.664 233.345894,536.9 234.241894,534.828 C234.633894,533.932 234.941894,532.784 235.193894,531.44 L230.209894,531.44 L230.209894,529.564 L235.445894,529.564 C235.557894,528.5 235.669894,527.38 235.725894,526.148 Z M246.337894,518.588 L248.297894,518.588 L248.297894,536.032 L246.337894,536.032 L246.337894,518.588 Z M251.545894,541.548 L247.569894,541.548 L247.121894,539.616 C248.437894,539.7 249.669894,539.756 250.845894,539.756 C251.713894,539.756 252.161894,539.252 252.161894,538.244 L252.161894,516.208 L254.177894,516.208 L254.177894,538.748 C254.177894,540.596 253.281894,541.548 251.545894,541.548 Z M241.241894,524.3 L241.241894,519.064 L233.205894,519.064 L233.205894,524.3 L241.241894,524.3 Z M269.656,541.492 L265.372,541.492 L264.896,539.392 C266.296,539.504 267.64,539.56 268.9,539.56 C269.936,539.56 270.468,539.028 270.468,537.992 L270.468,516.544 L272.54,516.544 L272.54,538.524 C272.54,540.484 271.56,541.492 269.656,541.492 Z M262.964,523.04 L264.98,523.824 C263.636,529.424 261.872,533.68 259.688,536.592 L257.952,535.052 C260.192,532.084 261.844,528.08 262.964,523.04 Z M278.868,522.368 C281.08,527.38 282.788,531.748 283.964,535.472 L282.172,536.732 C280.912,532.756 279.204,528.36 277.048,523.516 L278.868,522.368 Z M298.630106,517.16 L310.250106,517.16 L310.250106,525.252 L298.630106,525.252 L298.630106,517.16 Z M308.290106,523.432 L308.290106,518.952 L300.618106,518.952 L300.618106,523.432 L308.290106,523.432 Z M297.538106,527.856 L311.454106,527.856 L311.454106,529.704 L305.350106,529.704 L305.350106,533.288 L310.586106,533.288 L310.586106,535.108 L305.350106,535.108 L305.350106,538.888 L312.126106,538.888 L312.126106,540.792 L296.418106,540.792 L296.418106,538.888 L303.278106,538.888 L303.278106,535.108 L298.182106,535.108 L298.182106,533.288 L303.278106,533.288 L303.278106,529.704 L297.538106,529.704 L297.538106,527.856 Z M287.066106,523.796 L291.154106,523.796 L291.154106,519.736 C289.978106,519.904 288.746106,520.072 287.486106,520.212 L287.094106,518.308 C290.594106,517.972 293.702106,517.384 296.390106,516.544 L297.090106,518.448 C295.830106,518.812 294.486106,519.12 293.086106,519.4 L293.086106,523.796 L296.698106,523.796 L296.698106,525.728 L293.086106,525.728 L293.086106,527.212 C294.402106,528.5 295.746106,529.956 297.090106,531.552 L295.970106,533.232 C294.850106,531.496 293.870106,530.096 293.086106,529.06 L293.086106,541.688 L291.154106,541.688 L291.154106,529.06 C290.174106,531.804 288.886106,534.268 287.290106,536.48 L286.422106,534.24 C288.550106,531.748 290.062106,528.92 290.958106,525.728 L287.066106,525.728 L287.066106,523.796 Z M328.948212,516.012 C329.340212,516.74 329.732212,517.552 330.096212,518.448 L340.232212,518.448 L340.232212,520.296 L319.568212,520.296 L319.568212,527.492 C319.456212,533.428 318.476212,538.16 316.572212,541.744 L315.060212,540.4 C316.656212,537.292 317.496212,532.98 317.552212,527.492 L317.552212,518.448 L328.080212,518.448 C327.716212,517.692 327.324212,516.992 326.904212,516.348 L328.948212,516.012 Z M326.512212,525.616 C327.856212,526.288 329.088212,526.988 330.208212,527.688 C331.888212,526.708 333.428212,525.56 334.828212,524.272 L322.480212,524.272 L322.480212,522.536 L337.348212,522.536 L337.348212,523.992 C335.640212,525.812 333.764212,527.38 331.748212,528.696 C332.196212,528.976 332.616212,529.284 333.008212,529.592 L332.588212,530.012 L339.700212,530.012 L339.700212,531.58 C338.552212,533.764 337.264212,535.612 335.836212,537.124 L334.324212,535.92 C335.500212,534.8 336.564212,533.456 337.544212,531.888 L331.104212,531.888 L331.104212,539.364 C331.104212,541.016 330.264212,541.856 328.612212,541.856 L324.496212,541.856 L324.076212,539.952 C325.420212,540.036 326.708212,540.092 327.940212,540.092 C328.696212,540.092 329.088212,539.672 329.088212,538.888 L329.088212,531.888 L320.856212,531.888 L320.856212,530.012 L330.824212,530.012 C329.368212,529.004 327.520212,527.912 325.308212,526.792 L326.512212,525.616 Z M352.910317,525.952 L352.910317,540.344 L351.062317,540.344 L351.062317,538.748 L348.038317,538.748 L348.038317,540.876 L346.162317,540.876 L346.162317,529.48 C345.602317,530.488 344.986317,531.468 344.314317,532.42 L343.306317,530.796 C345.434317,527.548 346.834317,523.824 347.506317,519.652 L344.090317,519.652 L344.090317,517.692 L353.638317,517.692 L353.638317,519.652 L349.410317,519.652 C349.018317,521.892 348.486317,523.992 347.758317,525.952 L352.910317,525.952 Z M348.038317,536.928 L351.062317,536.928 L351.062317,527.8 L348.038317,527.8 L348.038317,536.928 Z M356.690317,521.164 L358.678317,521.304 L357.446317,528.36 L363.382317,528.36 L364.782317,519.204 L354.926317,519.204 L354.926317,517.3 L366.966317,517.3 L365.426317,528.36 L368.394317,528.36 C368.394317,535.136 368.002317,539.028 367.274317,540.092 C366.490317,541.1 364.894317,541.632 362.430317,541.632 C361.646317,541.632 360.806317,541.604 359.910317,541.548 L359.350317,539.588 C360.582317,539.7 361.450317,539.756 361.954317,539.756 C364.110317,539.756 365.398317,539.28 365.818317,538.384 C366.266317,537.432 366.490317,534.716 366.490317,530.236 L355.178317,530.236 L356.690317,521.164 Z M354.310317,533.792 L364.558317,533.792 L364.558317,535.696 L354.310317,535.696 L354.310317,533.792 Z M134.694524,570.624 L151.438524,570.624 L151.438524,580.928 L134.694524,580.928 L134.694524,570.624 Z M149.478524,579.136 L149.478524,576.672 L136.654524,576.672 L136.654524,579.136 L149.478524,579.136 Z M136.654524,574.964 L149.478524,574.964 L149.478524,572.416 L136.654524,572.416 L136.654524,574.964 Z M131.558524,562.644 L142.086524,562.644 L142.086524,560.068 L144.046524,560.068 L144.046524,562.644 L154.574524,562.644 L154.574524,564.492 L145.978524,564.492 C148.078524,566.536 151.326524,568.16 155.750524,569.336 L154.882524,571.156 C149.842524,569.448 146.286524,567.236 144.214524,564.492 L144.046524,564.492 L144.046524,569.728 L142.086524,569.728 L142.086524,564.492 L141.918524,564.492 C139.734524,567.18 136.178524,569.42 131.278524,571.184 L130.214524,569.392 C134.694524,568.104 138.026524,566.452 140.210524,564.492 L131.558524,564.492 L131.558524,562.644 Z M130.998524,583.112 L155.050524,583.112 L155.050524,584.988 L130.998524,584.988 L130.998524,583.112 Z M169.29663,568.3 L177.86463,568.3 L177.86463,581.124 L169.29663,581.124 L169.29663,568.3 Z M175.96063,579.388 L175.96063,575.496 L171.25663,575.496 L171.25663,579.388 L175.96063,579.388 Z M171.25663,573.816 L175.96063,573.816 L175.96063,570.036 L171.25663,570.036 L171.25663,573.816 Z M171.14463,560.04 L173.16063,560.32 C172.90863,561.3 172.60063,562.224 172.26463,563.12 L183.29663,563.12 C183.29663,573.34 183.15663,579.668 182.90463,582.076 C182.62463,584.4 181.28063,585.576 178.92863,585.576 C178.42463,585.576 177.52863,585.548 176.26863,585.492 L175.79263,583.672 C176.91263,583.728 177.86463,583.784 178.67663,583.784 C179.96463,583.784 180.72063,582.944 180.94463,581.292 C181.14063,579.528 181.25263,574.096 181.30863,565.024 L171.39663,565.024 C170.41663,566.9 169.18463,568.58 167.67263,570.036 L166.41263,568.412 C168.76463,566.116 170.33263,563.344 171.14463,560.04 Z M161.98863,560.404 C163.83663,561.832 165.43263,563.26 166.72063,564.716 L165.34863,566.116 C164.17263,564.744 162.60463,563.288 160.58863,561.776 L161.98863,560.404 Z M158.62863,568.692 L164.67663,568.692 L164.67663,581.096 C165.57263,580.312 166.52463,579.388 167.56063,578.352 L168.12063,580.48 C166.49663,582.104 164.76063,583.532 162.91263,584.792 L162.12863,583 C162.52063,582.636 162.74463,582.216 162.74463,581.768 L162.74463,570.624 L158.62863,570.624 L158.62863,568.692 Z M204.318736,566.34 L203.954735,567.796 C204.654735,571.072 205.550736,573.9 206.670736,576.252 C207.762735,573.424 208.350736,570.12 208.462735,566.34 L204.318736,566.34 Z M205.746735,578.268 C204.654735,576.112 203.730736,573.648 202.974735,570.848 C202.470735,572.136 201.910736,573.284 201.322735,574.292 L200.062736,572.752 C201.714735,569.616 202.834735,565.388 203.394735,560.068 L205.354736,560.404 C205.186735,561.832 204.962735,563.176 204.738735,564.408 L212.130735,564.408 L212.130735,566.34 L210.310735,566.34 C210.170736,571.016 209.302736,575.02 207.734735,578.324 C209.190735,580.844 210.898736,582.776 212.914735,584.148 L211.822735,585.8 C209.862736,584.4 208.182736,582.496 206.782736,580.144 C205.438735,582.384 203.702735,584.26 201.602735,585.772 L200.566735,584.092 C202.750735,582.58 204.458735,580.648 205.746735,578.268 Z M192.474735,573.144 L194.350735,573.368 C194.154735,573.9 193.958735,574.404 193.790736,574.908 L199.642735,574.908 L199.642735,576.56 C199.026735,578.408 197.990735,580.004 196.534735,581.348 C197.878735,581.964 199.166735,582.58 200.398735,583.252 L199.306736,584.82 C198.074735,584.092 196.646736,583.336 194.994735,582.608 C193.146736,583.896 190.822735,584.932 188.022735,585.716 L187.070735,584.036 C189.366736,583.42 191.354736,582.664 192.978735,581.74 C191.746735,581.208 190.458735,580.676 189.086736,580.172 C189.814736,578.94 190.458735,577.792 191.018735,576.672 L187.714735,576.672 L187.714735,574.908 L191.802736,574.908 C192.054735,574.292 192.278736,573.704 192.474735,573.144 Z M194.686735,580.564 C196.086736,579.444 197.150735,578.128 197.822735,576.672 L193.006735,576.672 C192.558735,577.624 192.054735,578.52 191.494735,579.36 C192.614735,579.752 193.678735,580.144 194.686735,580.564 Z M189.926735,560.656 C190.598736,561.748 191.158736,562.924 191.662735,564.156 L190.206736,564.828 C189.618735,563.456 189.002736,562.252 188.330736,561.188 L189.926735,560.656 Z M198.438735,560.572 L199.894735,561.244 C199.334735,562.476 198.634736,563.68 197.738735,564.856 L196.310735,564.128 C197.206736,562.924 197.934736,561.748 198.438735,560.572 Z M187.770736,565.5 L193.230736,565.5 L193.230736,560.152 L195.106735,560.152 L195.106735,565.5 L200.202735,565.5 L200.202735,567.264 L195.106735,567.264 L195.106735,567.572 C196.618735,568.328 198.186735,569.196 199.754736,570.148 L198.718736,571.716 C197.318736,570.596 196.114735,569.7 195.106735,569.028 L195.106735,572.668 L193.230736,572.668 L193.230736,567.348 C192.306736,569.56 190.626735,571.464 188.218736,573.088 L187.238735,571.464 C189.394735,570.204 190.906735,568.804 191.746735,567.264 L187.770736,567.264 L187.770736,565.5 Z M218.928841,585.548 L216.548841,585.548 L216.128841,583.644 C216.856841,583.728 217.584841,583.784 218.256841,583.784 C218.956841,583.784 219.320841,583.364 219.320841,582.58 L219.320841,575.72 C218.200841,576.14 217.108841,576.532 216.016841,576.868 L215.512841,574.908 C216.800841,574.6 218.088841,574.208 219.320841,573.76 L219.320841,567.432 L215.960841,567.432 L215.960841,565.5 L219.320841,565.5 L219.320841,560.208 L221.280841,560.208 L221.280841,565.5 L223.968841,565.5 L223.968841,567.432 L221.280841,567.432 L221.280841,572.948 C222.176841,572.556 223.044841,572.136 223.884841,571.688 L223.884841,573.676 C223.016841,574.124 222.148841,574.516 221.280841,574.908 L221.280841,583.084 C221.280841,584.708 220.496841,585.548 218.928841,585.548 Z M227.300841,573.172 C226.964841,577.96 225.872841,582.16 224.024841,585.8 L222.456841,584.4 C224.444841,580.704 225.452841,575.888 225.480841,570.008 L225.480841,561.244 L240.236841,561.244 L240.236841,568.048 L234.972841,568.048 L234.972841,571.352 L240.964841,571.352 L240.964841,573.172 L234.972841,573.172 L234.972841,576.616 L239.676841,576.616 L239.676841,585.8 L237.800841,585.8 L237.800841,584.428 L230.212841,584.428 L230.212841,585.8 L228.336841,585.8 L228.336841,576.616 L233.012841,576.616 L233.012841,573.172 L227.300841,573.172 Z M233.012841,568.048 L227.440841,568.048 L227.440841,570.008 C227.440841,570.456 227.412841,570.904 227.412841,571.352 L233.012841,571.352 L233.012841,568.048 Z M230.212841,582.636 L237.800841,582.636 L237.800841,578.408 L230.212841,578.408 L230.212841,582.636 Z M238.276841,563.12 L227.440841,563.12 L227.440841,566.228 L238.276841,566.228 L238.276841,563.12 Z M245.746947,568.636 L256.022947,568.636 L256.022947,577.176 L245.746947,577.176 L245.746947,568.636 Z M254.034947,575.356 L254.034947,570.512 L247.762947,570.512 L247.762947,575.356 L254.034947,575.356 Z M256.890947,578.772 L256.890947,580.732 C253.166947,581.74 249.134947,582.608 244.822947,583.308 L244.318947,581.32 C248.686947,580.76 252.858947,579.92 256.890947,578.772 Z M266.326947,585.716 C264.926947,585.688 263.610947,584.792 262.322947,583 C261.930947,582.468 261.594947,581.908 261.314947,581.32 C259.746947,583.224 258.010947,584.736 256.134947,585.856 L255.042947,584.12 C257.030947,582.916 258.822947,581.292 260.390947,579.22 C259.998947,578.156 259.690947,577.008 259.410947,575.776 C258.766947,572.92 258.430947,569.56 258.402947,565.696 L244.318947,565.696 L244.318947,563.736 L258.402947,563.736 L258.402947,560.152 L260.418947,560.152 L260.418947,563.736 L264.534947,563.736 C264.058947,562.728 263.526947,561.776 262.966947,560.936 L265.010947,560.6 C265.514947,561.524 266.018947,562.56 266.494947,563.736 L269.210947,563.736 L269.210947,565.696 L260.446947,565.696 C260.502947,569.112 260.754947,572.136 261.230947,574.768 C261.398947,575.636 261.566947,576.448 261.790947,577.204 C263.358947,574.628 264.674947,571.576 265.738947,568.048 L267.502947,569 C266.186947,573.228 264.562947,576.756 262.602947,579.612 C262.882947,580.256 263.162947,580.844 263.470947,581.348 C264.450947,582.804 265.318947,583.532 266.102947,583.532 C266.774947,583.532 267.362947,581.936 267.838947,578.744 L269.574947,579.892 C268.818947,583.756 267.726947,585.716 266.326947,585.716 Z M289.645053,566.34 L289.281053,567.796 C289.981053,571.072 290.877053,573.9 291.997053,576.252 C293.089053,573.424 293.677053,570.12 293.789053,566.34 L289.645053,566.34 Z M291.073053,578.268 C289.981053,576.112 289.057053,573.648 288.301053,570.848 C287.797053,572.136 287.237053,573.284 286.649053,574.292 L285.389053,572.752 C287.041053,569.616 288.161053,565.388 288.721053,560.068 L290.681053,560.404 C290.513053,561.832 290.289053,563.176 290.065053,564.408 L297.457053,564.408 L297.457053,566.34 L295.637053,566.34 C295.497053,571.016 294.629053,575.02 293.061053,578.324 C294.517053,580.844 296.225053,582.776 298.241053,584.148 L297.149053,585.8 C295.189053,584.4 293.509053,582.496 292.109053,580.144 C290.765053,582.384 289.029053,584.26 286.929053,585.772 L285.893053,584.092 C288.077053,582.58 289.785053,580.648 291.073053,578.268 Z M277.801053,573.144 L279.677053,573.368 C279.481053,573.9 279.285053,574.404 279.117053,574.908 L284.969053,574.908 L284.969053,576.56 C284.353053,578.408 283.317053,580.004 281.861053,581.348 C283.205053,581.964 284.493053,582.58 285.725053,583.252 L284.633053,584.82 C283.401053,584.092 281.973053,583.336 280.321053,582.608 C278.473053,583.896 276.149053,584.932 273.349053,585.716 L272.397053,584.036 C274.693053,583.42 276.681053,582.664 278.305053,581.74 C277.073053,581.208 275.785053,580.676 274.413053,580.172 C275.141053,578.94 275.785053,577.792 276.345053,576.672 L273.041053,576.672 L273.041053,574.908 L277.129053,574.908 C277.381053,574.292 277.605053,573.704 277.801053,573.144 Z M280.013053,580.564 C281.413053,579.444 282.477053,578.128 283.149053,576.672 L278.333053,576.672 C277.885053,577.624 277.381053,578.52 276.821053,579.36 C277.941053,579.752 279.005053,580.144 280.013053,580.564 Z M275.253053,560.656 C275.925053,561.748 276.485053,562.924 276.989053,564.156 L275.533053,564.828 C274.945053,563.456 274.329053,562.252 273.657053,561.188 L275.253053,560.656 Z M283.765053,560.572 L285.221053,561.244 C284.661053,562.476 283.961053,563.68 283.065053,564.856 L281.637053,564.128 C282.533053,562.924 283.261053,561.748 283.765053,560.572 Z M273.097053,565.5 L278.557053,565.5 L278.557053,560.152 L280.433053,560.152 L280.433053,565.5 L285.529053,565.5 L285.529053,567.264 L280.433053,567.264 L280.433053,567.572 C281.945053,568.328 283.513053,569.196 285.081053,570.148 L284.045053,571.716 C282.645053,570.596 281.441053,569.7 280.433053,569.028 L280.433053,572.668 L278.557053,572.668 L278.557053,567.348 C277.633053,569.56 275.953053,571.464 273.545053,573.088 L272.565053,571.464 C274.721053,570.204 276.233053,568.804 277.073053,567.264 L273.097053,567.264 L273.097053,565.5 Z M304.255159,585.548 L301.875159,585.548 L301.455159,583.644 C302.183159,583.728 302.911159,583.784 303.583159,583.784 C304.283159,583.784 304.647159,583.364 304.647159,582.58 L304.647159,575.72 C303.527159,576.14 302.435159,576.532 301.343159,576.868 L300.839159,574.908 C302.127159,574.6 303.415159,574.208 304.647159,573.76 L304.647159,567.432 L301.287159,567.432 L301.287159,565.5 L304.647159,565.5 L304.647159,560.208 L306.607159,560.208 L306.607159,565.5 L309.295159,565.5 L309.295159,567.432 L306.607159,567.432 L306.607159,572.948 C307.503159,572.556 308.371159,572.136 309.211159,571.688 L309.211159,573.676 C308.343159,574.124 307.475159,574.516 306.607159,574.908 L306.607159,583.084 C306.607159,584.708 305.823159,585.548 304.255159,585.548 Z M312.627159,573.172 C312.291159,577.96 311.199159,582.16 309.351159,585.8 L307.783159,584.4 C309.771159,580.704 310.779159,575.888 310.807159,570.008 L310.807159,561.244 L325.563159,561.244 L325.563159,568.048 L320.299159,568.048 L320.299159,571.352 L326.291159,571.352 L326.291159,573.172 L320.299159,573.172 L320.299159,576.616 L325.003159,576.616 L325.003159,585.8 L323.127159,585.8 L323.127159,584.428 L315.539159,584.428 L315.539159,585.8 L313.663159,585.8 L313.663159,576.616 L318.339159,576.616 L318.339159,573.172 L312.627159,573.172 Z M318.339159,568.048 L312.767159,568.048 L312.767159,570.008 C312.767159,570.456 312.739159,570.904 312.739159,571.352 L318.339159,571.352 L318.339159,568.048 Z M315.539159,582.636 L323.127159,582.636 L323.127159,578.408 L315.539159,578.408 L315.539159,582.636 Z M323.603159,563.12 L312.767159,563.12 L312.767159,566.228 L323.603159,566.228 L323.603159,563.12 Z M338.941264,571.38 L338.941264,573.368 C337.877265,573.9 336.813265,574.404 335.721265,574.852 L335.721265,583.196 C335.721265,584.876 334.909265,585.716 333.285265,585.716 L330.681264,585.716 L330.233265,583.784 C331.045265,583.868 331.829265,583.924 332.585264,583.924 C333.341264,583.924 333.733265,583.504 333.733265,582.72 L333.733265,575.664 C332.445265,576.14 331.101265,576.588 329.757265,577.008 L329.253265,575.02 C330.793264,574.656 332.277265,574.208 333.733265,573.704 L333.733265,567.208 L329.673265,567.208 L329.673265,565.276 L333.733265,565.276 L333.733265,560.208 L335.721265,560.208 L335.721265,565.276 L338.857265,565.276 L338.857265,567.208 L335.721265,567.208 L335.721265,572.92 C336.813265,572.444 337.877265,571.94 338.941264,571.38 Z M342.385264,573.144 L342.385264,585.8 L340.481264,585.8 L340.481264,561.272 L352.773264,561.272 C352.773264,564.38 352.605264,566.452 352.297264,567.488 C351.961264,568.496 350.897265,569.028 349.105264,569.028 L347.089265,569.028 L346.529264,567.264 C346.977264,567.264 347.509264,567.292 348.181264,567.292 C348.853265,567.292 349.385264,567.236 349.721264,567.18 C350.029264,567.068 350.281265,566.872 350.477264,566.536 C350.673264,566.004 350.785265,564.856 350.841264,563.12 L342.385264,563.12 L342.385264,571.296 L353.025264,571.296 L353.025264,573.032 C352.465264,576 351.485264,578.548 350.029264,580.648 C351.373265,581.936 353.025264,583.112 354.985264,584.204 L353.641265,585.744 C351.793264,584.568 350.197264,583.364 348.909264,582.076 C347.565265,583.616 345.913264,584.876 344.009264,585.828 L343.029264,584.064 C344.821264,583.168 346.333265,582.02 347.565265,580.62 C345.633264,578.324 344.457264,575.832 344.009264,573.144 L342.385264,573.144 Z M345.829265,573.144 C346.221265,575.328 347.145265,577.344 348.657265,579.164 C349.777265,577.456 350.589265,575.44 351.093265,573.144 L345.829265,573.144 Z M379.75937,575.468 L379.75937,585.772 L377.71537,585.772 L377.71537,584.288 L363.54737,584.288 L363.54737,585.772 L361.50337,585.772 L361.50337,575.468 L379.75937,575.468 Z M363.54737,582.384 L377.71537,582.384 L377.71537,577.4 L363.54737,577.4 L363.54737,582.384 Z M363.18337,566.004 C362.23137,567.292 361.11137,568.496 359.79537,569.588 L358.59137,567.992 C361.11137,565.976 362.84737,563.484 363.74337,560.544 L365.75937,560.768 C365.39537,561.944 364.94737,563.036 364.38737,564.072 L369.87537,564.072 L369.87537,560.096 L371.91937,560.096 L371.91937,564.072 L381.07537,564.072 L381.07537,566.004 L371.91937,566.004 L371.91937,570.54 L383.20337,570.54 L383.20337,572.528 L357.89137,572.528 L357.89137,570.54 L369.87537,570.54 L369.87537,566.004 L363.18337,566.004 Z" id="长按识别小程序码查询数据或数据报告" fill="#5C6066"></path>
                </g>
                <path d="M73.9063496,171 L481.288507,171" id="直线" stroke="#D3D3D3" stroke-width="4" stroke-linecap="square" stroke-dasharray="14"></path>
            </g>
        </g>
    </g>
</svg>