<?xml version="1.0" encoding="UTF-8"?>
<svg width="20px" height="20px" viewBox="0 0 20 20" version="1.1" xmlns="http://www.w3.org/2000/svg" xmlns:xlink="http://www.w3.org/1999/xlink">
    <!-- Generator: Sketch 64 (93537) - https://sketch.com -->
    <title>账号图标</title>
    <desc>Created with Sketch.</desc>
    <g id="账号图标" stroke="none" stroke-width="1" fill="none" fill-rule="evenodd">
        <g id="形状结合" stroke="#333333" stroke-width="1.6">
            <path d="M10,11.8 C7.90832135,11.8 6.38748494,12.3585327 5.38218388,13.3638337 C4.42539793,14.3206197 3.95042048,15.6554678 3.83081966,17.1859918 L16.1505389,16.9799319 C16.0023336,15.507726 15.5125759,14.2280692 14.564015,13.3109311 C13.5584365,12.3386642 12.0547389,11.8 10,11.8 Z M10,2.8 C9.1163444,2.8 8.3163444,3.1581722 7.7372583,3.7372583 C7.1581722,4.3163444 6.8,5.1163444 6.8,6 C6.8,6.8836556 7.1581722,7.6836556 7.7372583,8.2627417 C8.3163444,8.8418278 9.1163444,9.2 10,9.2 C10.8836556,9.2 11.6836556,8.8418278 12.2627417,8.2627417 C12.8418278,7.6836556 13.2,6.8836556 13.2,6 C13.2,5.1163444 12.8418278,4.3163444 12.2627417,3.7372583 C11.6836556,3.1581722 10.8836556,2.8 10,2.8 Z"></path>
        </g>
    </g>
</svg>