<?xml version="1.0" encoding="UTF-8"?>
<svg width="20px" height="20px" viewBox="0 0 20 20" version="1.1" xmlns="http://www.w3.org/2000/svg" xmlns:xlink="http://www.w3.org/1999/xlink">
    <!-- Generator: Sketch 64 (93537) - https://sketch.com -->
    <title>邀请图标</title>
    <desc>Created with Sketch.</desc>
    <g id="邀请图标" stroke="none" stroke-width="1" fill="none" fill-rule="evenodd">
        <g id="编组-12">
            <g transform="translate(2.000000, 1.000000)">
                <path d="M10.0500842,5.95804725 C9.58698746,5.95804725 8.66574495,5.95804725 7.28635665,5.95804725 C6.7340719,5.95804725 6.28635665,5.510332 6.28635665,4.95804725 L6.28635665,2.95804725 C6.28635665,2.4057625 6.7340719,1.95804725 7.28635665,1.95804725 C9.57086668,1.95804725 11.2842492,1.95804725 12.4265042,1.95804725 C13.046455,1.95804725 10.2351285,5.95804725 10.0500842,5.95804725 Z M12.5251548,2.95804725 L7.28635665,2.95804725 L7.28635665,4.95804725 L11.2130367,4.95804725 L12.5251548,2.95804725 Z" id="矩形" fill="#333333" fill-rule="nonzero" transform="translate(9.405756, 3.958047) scale(-1, 1) rotate(49.000000) translate(-9.405756, -3.958047) "></path>
                <path d="M6.89916753,6.18431471 C6.65837499,6.18431471 6.43584636,6.18431471 6.23158163,6.18431471 C5.81828109,6.18431471 5.19833028,6.18431471 4.3717292,6.18431471 C3.81944445,6.18431471 3.3717292,5.73659946 3.3717292,5.18431471 L3.3717292,3.18431471 C3.3717292,2.63202996 3.81944445,2.18431471 4.3717292,2.18431471 C5.65356806,2.18431471 6.56535336,2.18431471 7.1070851,2.18431471 C8.36509282,2.18431471 9.38537639,2.18431471 10.1679358,2.18431471 C10.5692003,2.18431471 8.00489473,6.18431471 6.89916753,6.18431471 Z M8.85581775,3.18431471 L7.44504914,3.18431471 L4.3717292,3.18431471 L4.3717292,5.18431471 L8.29840927,5.18431471 L8.85581775,3.18431471 Z" id="矩形" fill="#333333" fill-rule="nonzero" transform="translate(6.790936, 4.184315) rotate(49.000000) translate(-6.790936, -4.184315) "></path>
                <rect id="矩形" stroke="#333333" stroke-width="1.4" x="0.7" y="5.7" width="14.6" height="3.6" rx="1"></rect>
                <rect id="矩形" stroke="#333333" stroke-width="1.4" x="1.7" y="9.7" width="12.6" height="6.6" rx="1"></rect>
                <line x1="8" y1="9" x2="8" y2="16" id="路径-12" stroke="#333333" stroke-width="1.4"></line>
            </g>
        </g>
    </g>
</svg>