<?xml version="1.0" encoding="UTF-8"?>
<svg width="36px" height="36px" viewBox="0 0 36 36" version="1.1" xmlns="http://www.w3.org/2000/svg" xmlns:xlink="http://www.w3.org/1999/xlink">
    <!-- Generator: Sketch 57 (83077) - https://sketch.com -->
    <title>邮件</title>
    <desc>Created with Sketch.</desc>
    <g id="邮件" stroke="none" stroke-width="1" fill="none" fill-rule="evenodd">
        <g id="mail-fill" fill-rule="nonzero">
            <rect id="矩形" fill="#000000" opacity="0" x="0" y="0" width="35.84" height="35.84"></rect>
            <path d="M30.8685714,7.68 L5.61142857,7.68 C5.07410714,7.68 4.64,8.1025 4.64,8.62545455 L4.64,27.5345455 C4.64,28.0575 5.07410714,28.48 5.61142857,28.48 L30.8685714,28.48 C31.4058929,28.48 31.84,28.0575 31.84,27.5345455 L31.84,8.62545455 C31.84,8.1025 31.4058929,7.68 30.8685714,7.68 Z M28.5520541,11.2331895 L18.6570616,17.9547409 C18.412431,18.121753 18.0705755,18.121753 17.8259449,17.9547409 L7.9278161,11.2331895 C7.87136289,11.1948588 7.84,11.1373629 7.84,11.077129 C7.84,10.9676129 7.94036126,10.88 8.06581283,10.88 L28.4140574,10.88 C28.4830558,10.88 28.5489178,10.907379 28.5928259,10.9566613 C28.6680968,11.0415363 28.6524154,11.1647419 28.5520541,11.2331895 Z" id="形状" fill="#F8C01C"></path>
        </g>
    </g>
</svg>
