<?xml version="1.0" encoding="UTF-8"?>
<svg width="20px" height="20px" viewBox="0 0 20 20" version="1.1" xmlns="http://www.w3.org/2000/svg" xmlns:xlink="http://www.w3.org/1999/xlink">
    <title>兑换图标</title>
    <g id="兑换图标" stroke="none" stroke-width="1" fill="none" fill-rule="evenodd">
        <g id="退出图标"></g>
        <g id="编组" transform="translate(10.500000, 10.000000) scale(-1, 1) translate(-10.500000, -10.000000) translate(2.000000, 1.000000)" fill="#333333" fill-rule="nonzero">
            <path d="M6.52980131,8.6625 C5.96688741,7.76250001 5.74172183,6.75000001 5.74172186,5.625 C5.74172186,2.47499998 8.21854306,0 11.3708609,0 C14.5231788,0 17,2.47500001 17,5.625 C17,8.77499998 14.5231788,11.25 11.3708609,11.25 C10.1324503,11.25 9.11920531,10.9125 8.10596027,10.2375 L5.51655628,12.825 L6.75496689,14.0625 L5.17880793,15.6375 L3.94039735,14.4 L3.15231787,15.1875 L4.39072848,16.425 L2.81456952,18 L0,15.1875 L6.52980131,8.6625 Z M11.3708609,2.24999999 C9.45695365,2.24999999 7.99337748,3.7125 7.99337748,5.625 C7.99337748,7.53749999 9.45695365,9 11.3708609,9 C13.2847682,9 14.7483444,7.53749999 14.7483444,5.625 C14.7483444,3.7125 13.1721854,2.24999999 11.3708609,2.24999999 Z" id="形状"></path>
        </g>
    </g>
</svg>