<?xml version="1.0" encoding="UTF-8"?>
<svg width="36px" height="36px" viewBox="0 0 36 36" version="1.1" xmlns="http://www.w3.org/2000/svg" xmlns:xlink="http://www.w3.org/1999/xlink">
    <!-- Generator: Sketch 57 (83077) - https://sketch.com -->
    <title>电话</title>
    <desc>Created with Sketch.</desc>
    <g id="电话" stroke="none" stroke-width="1" fill="none" fill-rule="evenodd">
        <g id="phone-fill" fill-rule="nonzero">
            <rect id="矩形" fill="#000000" opacity="0" x="0" y="0" width="35.84" height="35.84"></rect>
            <path d="M28.8014267,9.71223301 L25.6995314,6.61320388 C25.253907,6.16757282 24.6568286,5.92 24.0306244,5.92 C23.398595,5.92 22.8044291,6.16757282 22.3588047,6.61320388 L19.0209906,9.95106796 C18.5753662,10.396699 18.3277971,10.9937864 18.3277971,11.62 C18.3277971,12.2520388 18.5753662,12.8462136 19.0209906,13.2918447 L21.4617308,15.7326214 C20.887953,16.996699 20.0986444,18.1326214 19.1171057,19.1141748 C18.1384796,20.0986408 16.9996617,20.8879612 15.7356029,21.4675728 L13.2948628,19.0267961 C12.8492384,18.581165 12.2521599,18.3335922 11.6259557,18.3335922 C10.9939263,18.3335922 10.3997605,18.581165 9.95413608,19.0267961 L6.6134094,22.3617476 C6.167785,22.8073786 5.9202159,23.404466 5.9202159,24.0335922 C5.9202159,24.6656311 6.167785,25.2598058 6.6134094,25.7054369 L9.70947955,28.8015534 C10.4201485,29.5151456 11.4016872,29.92 12.4094391,29.92 C12.6220573,29.92 12.8259377,29.9025243 13.0269056,29.8675728 C16.9530604,29.2209709 20.8471769,27.1326214 23.9898483,23.9928155 C27.1296071,20.8559223 29.2150128,16.9646602 29.8703428,13.0267961 C30.068398,11.8238835 29.6693749,10.5860194 28.8014267,9.71223301 Z" id="路径" fill="#ffffff"></path>
        </g>
    </g>
</svg>
