<?xml version="1.0" encoding="UTF-8"?>
<svg width="36px" height="36px" viewBox="0 0 36 36" version="1.1" xmlns="http://www.w3.org/2000/svg" xmlns:xlink="http://www.w3.org/1999/xlink">
    <!-- Generator: Sketch 57 (83077) - https://sketch.com -->
    <title>微信</title>
    <desc>Created with Sketch.</desc>
    <g id="微信" stroke="none" stroke-width="1" fill="none" fill-rule="evenodd">
        <g id="wechat-fill" fill-rule="nonzero">
            <rect id="矩形" fill="#000000" opacity="0" x="0" y="0" width="35.84" height="35.84"></rect>
            <path d="M24.1535,13.209 C24.36,13.209 24.5665,13.216 24.7695,13.2265 C23.9155,8.722 19.229,5.278 13.573,5.278 C7.315,5.278 2.24,9.499 2.24,14.707 C2.24,17.5455 3.766,20.104 6.1565,21.833 C6.349,21.9695 6.475,22.1935 6.475,22.449 C6.475,22.533 6.4575,22.61 6.4365,22.6905 C6.244,23.401 5.9395,24.5385 5.9255,24.591 C5.901,24.682 5.866,24.773 5.866,24.8675 C5.866,25.074 6.034,25.2455 6.244,25.2455 C6.3245,25.2455 6.391,25.214 6.461,25.1755 L8.9425,23.744 C9.128,23.6355 9.3275,23.569 9.5445,23.569 C9.6565,23.569 9.7685,23.5865 9.877,23.618 C11.0355,23.9505 12.285,24.136 13.5765,24.136 C13.7865,24.136 13.993,24.1325 14.1995,24.122 C13.951,23.387 13.818,22.6135 13.818,21.812 C13.818,17.059 18.445,13.209 24.1535,13.209 L24.1535,13.209 Z M17.353,10.1815 C18.186,10.1815 18.865,10.857 18.865,11.69 C18.865,12.523 18.1895,13.1985 17.353,13.1985 C16.52,13.1985 15.841,12.523 15.841,11.69 C15.841,10.857 16.52,10.1815 17.353,10.1815 Z M9.7965,13.1985 C8.9635,13.1985 8.2845,12.523 8.2845,11.69 C8.2845,10.857 8.96,10.1815 9.7965,10.1815 C10.633,10.1815 11.3085,10.857 11.3085,11.69 C11.3085,12.523 10.6295,13.1985 9.7965,13.1985 Z M30.3345,27.7445 C32.326,26.3025 33.5965,24.1745 33.5965,21.805 C33.5965,17.465 29.3685,13.9475 24.15,13.9475 C18.935,13.9475 14.7035,17.465 14.7035,21.805 C14.7035,26.145 18.9315,29.6625 24.15,29.6625 C25.228,29.6625 26.271,29.5085 27.2335,29.232 C27.3245,29.204 27.4155,29.19 27.51,29.19 C27.692,29.19 27.8565,29.246 28.0105,29.3335 L30.079,30.5235 C30.1385,30.5585 30.1945,30.583 30.261,30.583 C30.345,30.583 30.4255,30.5515 30.485,30.492 C30.5445,30.4325 30.576,30.352 30.576,30.268 C30.576,30.191 30.5445,30.114 30.527,30.037 C30.5165,29.995 30.261,29.0465 30.1,28.4515 C30.0825,28.385 30.0685,28.3185 30.0685,28.252 C30.072,28.0455 30.177,27.86 30.3345,27.7445 Z M21.007,20.552 C20.3105,20.552 19.747,19.9885 19.747,19.2955 C19.747,18.6025 20.3105,18.039 21.007,18.039 C21.7035,18.039 22.267,18.6025 22.267,19.2955 C22.267,19.9885 21.7,20.552 21.007,20.552 Z M27.3035,20.552 C26.607,20.552 26.0435,19.9885 26.0435,19.2955 C26.0435,18.6025 26.607,18.039 27.3035,18.039 C28,18.039 28.5635,18.6025 28.5635,19.2955 C28.56,19.9885 27.9965,20.552 27.3035,20.552 Z" id="形状" fill="#ffffff"></path>
        </g>
    </g>
</svg>
