<?xml version="1.0" encoding="UTF-8"?>
<svg width="36px" height="36px" viewBox="0 0 36 36" version="1.1" xmlns="http://www.w3.org/2000/svg" xmlns:xlink="http://www.w3.org/1999/xlink">
    <!-- Generator: Sketch 57 (83077) - https://sketch.com -->
    <title>微博</title>
    <desc>Created with Sketch.</desc>
    <g id="微博" stroke="none" stroke-width="1" fill="none" fill-rule="evenodd">
        <g id="weibo" fill-rule="nonzero">
            <rect id="矩形" fill="#000000" opacity="0" x="0" y="0" width="35.84" height="35.84"></rect>
            <path d="M16.0055,19.005 C13.622,18.3855 10.9305,19.572 9.8945,21.672 C8.841,23.814 9.8595,26.1905 12.2675,26.9675 C14.7595,27.7725 17.6995,26.5405 18.7215,24.227 C19.726,21.966 18.4695,19.642 16.0055,19.005 L16.0055,19.005 Z M14.1855,24.472 C13.7025,25.2455 12.663,25.5815 11.8825,25.228 C11.1125,24.878 10.885,23.9785 11.3715,23.226 C11.851,22.477 12.852,22.141 13.6255,22.4665 C14.4095,22.799 14.6615,23.6915 14.1855,24.472 L14.1855,24.472 Z M15.778,22.4245 C15.603,22.7255 15.2145,22.869 14.9135,22.743 C14.616,22.6205 14.5215,22.2845 14.6895,21.9905 C14.8645,21.6965 15.2355,21.5565 15.533,21.672 C15.8375,21.784 15.946,22.1235 15.778,22.4245 L15.778,22.4245 Z M27.4855,15.5225 C28.0105,15.6905 28.5705,15.4035 28.742,14.882 C29.155,13.601 28.896,12.138 27.93,11.067 C26.964,9.996 25.536,9.5865 24.22,9.8665 C23.681,9.982 23.338,10.5105 23.4535,11.0495 C23.569,11.585 24.0975,11.9315 24.6365,11.8125 C25.2805,11.676 25.977,11.8755 26.453,12.397 C26.9255,12.922 27.055,13.636 26.8485,14.2625 C26.677,14.791 26.9605,15.351 27.4855,15.5225 L27.4855,15.5225 Z M30.9785,8.3125 C28.994,6.111 26.0645,5.271 23.359,5.845 C22.7325,5.978 22.3335,6.594 22.47,7.2205 C22.603,7.847 23.219,8.246 23.8455,8.113 C25.7705,7.7035 27.8495,8.302 29.2635,9.8665 C30.674,11.431 31.0555,13.566 30.4535,15.435 C30.2575,16.044 30.59,16.695 31.199,16.8945 C31.808,17.0905 32.459,16.758 32.655,16.1525 L32.655,16.149 C33.4985,13.51 32.9665,10.5105 30.9785,8.3125 L30.9785,8.3125 Z M25.515,17.465 C25.088,17.339 24.7975,17.2515 25.0215,16.6915 C25.5045,15.477 25.5535,14.427 25.032,13.6815 C24.052,12.278 21.364,12.355 18.284,13.643 C18.284,13.643 17.318,14.0665 17.563,13.3 C18.0355,11.7775 17.9655,10.5035 17.227,9.765 C15.5575,8.092 11.116,9.828 7.3045,13.636 C4.4555,16.4885 2.8,19.5125 2.8,22.127 C2.8,27.1285 9.212,30.17 15.4875,30.17 C23.7125,30.17 29.183,25.3925 29.183,21.595 C29.183,19.3025 27.251,18.004 25.515,17.465 Z M15.505,28.378 C10.5,28.8715 6.1775,26.6105 5.852,23.3205 C5.5265,20.034 9.324,16.968 14.329,16.4745 C19.334,15.9775 23.6565,18.242 23.982,21.5285 C24.304,24.815 20.51,27.881 15.505,28.378 Z" id="形状" fill="#ED1C24"></path>
        </g>
    </g>
</svg>
