<?xml version="1.0" encoding="UTF-8"?>
<svg width="36px" height="36px" viewBox="0 0 36 36" version="1.1" xmlns="http://www.w3.org/2000/svg" xmlns:xlink="http://www.w3.org/1999/xlink">
    <!-- Generator: Sketch 57 (83077) - https://sketch.com -->
    <title>知乎</title>
    <desc>Created with Sketch.</desc>
    <g id="知乎" stroke="none" stroke-width="1" fill="none" fill-rule="evenodd">
        <g id="zhihu" fill-rule="nonzero">
            <rect id="矩形" fill="#000000" opacity="0" x="0" y="0" width="35.84" height="35.84"></rect>
            <path d="M19.7645,8.0535 L19.7645,28.105 L21.8645,28.105 L22.7465,30.604 L26.4705,28.105 L31.073,28.105 L31.073,8.0535 L19.7645,8.0535 Z M28.434,25.4485 L26.3375,25.4485 L23.709,27.2125 L23.086,25.4485 L22.456,25.4485 L22.456,10.7905 L28.4305,10.7905 L28.4305,25.4485 L28.434,25.4485 Z M18.4135,17.0415 L13.7655,17.0415 C13.839,15.47 13.916,13.391 13.9965,10.99 L18.578,10.99 L18.5745,10.7065 C18.5745,10.6855 18.5675,10.192 18.494,9.688 C18.4205,9.163 18.263,8.4665 17.759,8.4665 L10.073,8.4665 C10.227,7.7455 10.6225,6.027 11.102,5.1835 L11.326,4.7915 L10.8745,4.767 C10.8465,4.767 10.1885,4.7355 9.4255,5.138 C8.176,5.803 7.616,7.112 7.371,8.092 C6.727,10.6505 5.81,12.4285 5.4215,13.188 C5.306,13.412 5.236,13.545 5.2045,13.636 C5.1415,13.8075 5.1765,13.979 5.3025,14.091 C5.67,14.4235 6.6395,13.9895 6.65,13.986 C6.671,13.9755 6.6955,13.965 6.727,13.951 C7.2135,13.7305 8.6555,13.076 9.17,10.9935 L11.1545,10.9935 C11.179,12.1205 11.263,15.8375 11.256,17.045 L6.321,17.045 L6.2475,17.0975 C5.439,17.689 5.18,19.3095 5.1695,19.3795 L5.1205,19.7015 L10.9655,19.7015 C10.535,22.442 10.038,23.6705 9.7755,24.1605 C9.646,24.4055 9.52,24.6505 9.401,24.8885 C8.6555,26.3655 7.882,27.8915 4.9805,30.2645 C4.8545,30.3625 4.7355,30.5445 4.8125,30.744 C4.8965,30.9645 5.138,31.0625 5.6735,31.0625 C5.8625,31.0625 6.0865,31.052 6.3525,31.0275 C8.099,30.8735 9.8805,30.3975 11.081,27.9615 C11.676,26.733 12.1905,25.452 12.6175,24.15 L17.395,29.75 L17.57,29.33 C17.598,29.2635 18.235,27.7095 17.7485,25.9735 L17.731,25.9105 L13.9475,21.6055 L13.1775,22.1865 C13.4015,21.273 13.5485,20.44 13.615,19.698 L19.1695,19.698 L19.1695,19.418 C19.1695,18.0145 18.522,17.1815 18.4975,17.1465 L18.4135,17.0415 Z" id="形状" fill="#2977FF"></path>
        </g>
    </g>
</svg>
