<?xml version="1.0" encoding="UTF-8"?>
<svg width="12px" height="12px" viewBox="0 0 12 12" version="1.1" xmlns="http://www.w3.org/2000/svg" xmlns:xlink="http://www.w3.org/1999/xlink">
    <!-- Generator: Sketch 64 (93537) - https://sketch.com -->
    <title>编辑图标</title>
    <desc>Created with Sketch.</desc>
    <g id="页面-1" stroke="none" stroke-width="1" fill="none" fill-rule="evenodd">
        <g id="首页的hover状态" transform="translate(-766.000000, -3250.000000)" fill="#FFFFFF" fill-rule="nonzero">
            <g id="项目hover" transform="translate(263.000000, 3232.000000)">
                <g id="收藏后" transform="translate(475.000000, 0.000000)">
                    <g id="编辑按钮" transform="translate(8.000000, 8.000000)">
                        <path d="M26.3189317,10.0000026 C26.6660784,10.0000026 26.9477597,10.2814049 26.9477597,10.6288045 L26.9477597,10.6288045 C26.9487567,10.9795106 26.6675853,11.2622807 26.3195323,11.2636038 L26.3195323,11.2636038 L26.3189317,11.2636038 L21.2636828,11.2612038 L21.2636828,20.7369935 L30.7375448,20.7369935 L30.7375448,15.680799 C30.7375448,15.3339994 31.0192261,15.0519997 31.3663728,15.0519997 L31.3663728,15.0519997 L31.3693758,15.0519997 C31.7169606,15.0525983 31.9990125,15.3335631 32.0000102,15.680799 L32.0000102,15.680799 L32.0000102,21.3711928 C32.0006444,21.5377397 31.934865,21.6976841 31.8172054,21.8156763 C31.6995459,21.9336685 31.5396942,22.0000026 31.3729794,22.0000026 L31.3729794,22.0000026 L20.6282482,22.0000026 C20.4613377,22.0009569 20.3009838,21.9351449 20.1829583,21.8172374 C20.0649328,21.6993299 19.999055,21.5391364 20.0000102,21.3723928 L20.0000102,21.3723928 L20.0000102,10.6282045 C19.9992196,10.4615598 20.0650484,10.3014917 20.1828905,10.1835421 C20.3007327,10.0655925 20.4608348,9.99952349 20.6276476,10.0000026 L20.6276476,10.0000026 Z M30.3795447,10.0000026 C30.543355,9.99967286 30.7005767,10.0644046 30.8165716,10.1799378 L30.8165716,10.1799378 C31.0603713,10.4234532 31.0603713,10.8163717 30.8189271,11.0575343 L30.8189271,11.0575343 L24.0555459,17.8183213 C23.8141018,18.0600721 23.42308,18.0606603 23.1816358,17.8194977 L23.1816358,17.8194977 C22.9396647,17.5763848 22.9396647,17.185014 23.1810469,16.9430776 L23.1810469,16.9430776 L29.9432503,10.1817024 C30.0587763,10.0657014 30.2157345,10.0003348 30.3795447,10.0000026 Z" id="编辑图标"></path>
                    </g>
                </g>
            </g>
        </g>
    </g>
</svg>