<?xml version="1.0" encoding="UTF-8"?>
<svg width="53px" height="15px" viewBox="0 0 53 15" version="1.1" xmlns="http://www.w3.org/2000/svg" xmlns:xlink="http://www.w3.org/1999/xlink">
    <title>NEW：</title>
    <g id="页面-1" stroke="none" stroke-width="1" fill="none" fill-rule="evenodd">
        <g id="编辑页加载1" transform="translate(-641.000000, -686.000000)" fill="#333333" fill-rule="nonzero">
            <g id="编组" transform="translate(641.000000, 679.000000)">
                <path d="M3.24613527,21 L5.66800338,9.88 L5.78800338,9.88 L8.84613527,21 L12.4061353,21 L15.4291145,7.12 L12.8691145,7.12 L10.5909904,17.58 L10.4709904,17.58 L7.70911453,7.12 L3.68911453,7.12 L0.666135267,21 L3.24613527,21 Z M24.2661353,21 L24.7670612,18.7 L18.8070612,18.7 L19.6259663,14.94 L24.8259663,14.94 L25.300757,12.76 L20.100757,12.76 L20.8325445,9.4 L26.4325445,9.4 L26.9291145,7.12 L18.7091145,7.12 L15.6861353,21 L24.2661353,21 Z M32.0261353,21 L36.4916185,11.7 L36.6116185,11.7 L36.9461353,21 L40.2461353,21 L46.4891145,7.12 L43.7891145,7.12 L39.2212963,17.9 L39.1012963,17.9 L38.8354913,8.56 L35.7954913,8.56 L31.4012963,17.9 L31.2812963,17.9 L31.4291145,7.12 L28.6891145,7.12 L28.7461353,21 L32.0261353,21 Z M50.7675041,13.28 C51.0875041,13.28 51.3551934,13.26 51.5705718,13.22 C51.7859502,13.18 51.9659811,13.1033333 52.1106644,12.99 C52.2553477,12.8766667 52.3701947,12.7166667 52.4552054,12.51 C52.5402162,12.3033333 52.6204725,12.0266667 52.6959744,11.68 C52.7714763,11.3333333 52.8124585,11.0533333 52.8189212,10.84 C52.8253839,10.6266667 52.7809569,10.4633333 52.6856403,10.35 C52.5903236,10.2366667 52.4429618,10.1633333 52.2435549,10.13 C52.044148,10.0966667 51.7844446,10.08 51.4644446,10.08 C51.1311113,10.08 50.8574814,10.0966667 50.6435549,10.13 C50.4296284,10.1633333 50.2503236,10.2366667 50.1056403,10.35 C49.9609569,10.4633333 49.8453839,10.6266667 49.7589212,10.84 C49.6724585,11.0533333 49.5914763,11.3333333 49.5159744,11.68 C49.4404725,12.0266667 49.4002162,12.3033333 49.3952054,12.51 C49.3901947,12.7166667 49.4353477,12.8766667 49.5306644,12.99 C49.6259811,13.1033333 49.7726169,13.18 49.9705718,13.22 C50.1685267,13.26 50.4341708,13.28 50.7675041,13.28 Z M49.06,21.12 C49.38,21.12 49.6476892,21.1 49.8630676,21.06 C50.0784461,21.02 50.2584769,20.9433333 50.4031602,20.83 C50.5478435,20.7166667 50.6626906,20.5566667 50.7477013,20.35 C50.832712,20.1433333 50.9129683,19.8666667 50.9884702,19.52 C51.0639721,19.1733333 51.1049544,18.8933333 51.1114171,18.68 C51.1178798,18.4666667 51.0734528,18.3033333 50.9781361,18.19 C50.8828194,18.0766667 50.7354576,18.0033333 50.5360508,17.97 C50.3366439,17.9366667 50.0769405,17.92 49.7569405,17.92 C49.4236071,17.92 49.1499772,17.9366667 48.9360508,17.97 C48.7221243,18.0033333 48.5428194,18.0766667 48.3981361,18.19 C48.2534528,18.3033333 48.1378798,18.4666667 48.0514171,18.68 C47.9649544,18.8933333 47.8839721,19.1733333 47.8084702,19.52 C47.7329683,19.8666667 47.692712,20.1433333 47.6877013,20.35 C47.6826906,20.5566667 47.7278435,20.7166667 47.8231602,20.83 C47.9184769,20.9433333 48.0651127,21.02 48.2630676,21.06 C48.4610225,21.1 48.7266667,21.12 49.06,21.12 Z" id="NEW："></path>
            </g>
        </g>
    </g>
</svg>