<?xml version="1.0" encoding="UTF-8"?>
<svg width="69px" height="20px" viewBox="0 0 69 20" version="1.1" xmlns="http://www.w3.org/2000/svg" xmlns:xlink="http://www.w3.org/1999/xlink">
    <title>Protip：</title>
    <defs>
        <linearGradient x1="-26.6023115%" y1="50%" x2="72.4955924%" y2="50%" id="linearGradient-1">
            <stop stop-color="#7D5BEF" offset="0%"></stop>
            <stop stop-color="#7BD8FF" offset="100%"></stop>
        </linearGradient>
        <path d="M4.26,21 L4.26,16.5 L6.08,16.5 C7.02666667,16.5 7.83666667,16.4166667 8.51,16.25 C9.18333333,16.0833333 9.73666667,15.81 10.17,15.43 C10.6033333,15.05 10.92,14.56 11.12,13.96 C11.32,13.36 11.42,12.62 11.42,11.74 C11.42,10.9266667 11.3333333,10.2266667 11.16,9.64 C10.9866667,9.05333333 10.6933333,8.57333333 10.28,8.2 C9.86666667,7.82666667 9.31666667,7.55333333 8.63,7.38 C7.94333333,7.20666667 7.09333333,7.12 6.08,7.12 L6.08,7.12 L1.64,7.12 L1.64,21 L4.26,21 Z M5.76,14.38 L4.26,14.38 L4.26,9.24 L5.76,9.24 C6.86666667,9.24 7.64,9.42666667 8.08,9.8 C8.52,10.1733333 8.74,10.8333333 8.74,11.78 C8.74,12.2866667 8.69,12.7066667 8.59,13.04 C8.49,13.3733333 8.32333333,13.64 8.09,13.84 C7.85666667,14.04 7.55,14.18 7.17,14.26 C6.79,14.34 6.32,14.38 5.76,14.38 L5.76,14.38 Z M16.5,21 L16.5,14.58 C16.5933333,14.1133333 16.7466667,13.73 16.96,13.43 C17.1733333,13.13 17.42,12.89 17.7,12.71 C17.98,12.53 18.2833333,12.4066667 18.61,12.34 C18.9366667,12.2733333 19.2733333,12.24 19.62,12.24 L19.62,12.24 L19.88,12.24 L19.96,10 L19.74,10 C19.42,10 19.1033333,10.0266667 18.79,10.08 C18.4766667,10.1333333 18.1766667,10.24 17.89,10.4 C17.6033333,10.56 17.34,10.78 17.1,11.06 C16.86,11.34 16.66,11.7 16.5,12.14 L16.5,12.14 L16.5,10.2 L14,10.2 L14,21 L16.5,21 Z M26.48,21.2 C27.3066667,21.2 28.0433333,21.1133333 28.69,20.94 C29.3366667,20.7666667 29.88,20.4666667 30.32,20.04 C30.76,19.6133333 31.0966667,19.04 31.33,18.32 C31.5633333,17.6 31.68,16.6933333 31.68,15.6 C31.68,14.5066667 31.5633333,13.6 31.33,12.88 C31.0966667,12.16 30.76,11.5866667 30.32,11.16 C29.88,10.7333333 29.3366667,10.4333333 28.69,10.26 C28.0433333,10.0866667 27.3066667,10 26.48,10 C25.6533333,10 24.92,10.0866667 24.28,10.26 C23.64,10.4333333 23.1,10.7333333 22.66,11.16 C22.22,11.5866667 21.8833333,12.16 21.65,12.88 C21.4166667,13.6 21.3,14.5066667 21.3,15.6 C21.3,16.6933333 21.4166667,17.6 21.65,18.32 C21.8833333,19.04 22.22,19.6133333 22.66,20.04 C23.1,20.4666667 23.64,20.7666667 24.28,20.94 C24.92,21.1133333 25.6533333,21.2 26.48,21.2 Z M26.48,19.26 C26,19.26 25.5933333,19.2 25.26,19.08 C24.9266667,18.96 24.6566667,18.76 24.45,18.48 C24.2433333,18.2 24.0966667,17.8266667 24.01,17.36 C23.9233333,16.8933333 23.88,16.3066667 23.88,15.6 C23.88,14.9066667 23.9233333,14.3233333 24.01,13.85 C24.0966667,13.3766667 24.24,12.9966667 24.44,12.71 C24.64,12.4233333 24.9066667,12.22 25.24,12.1 C25.5733333,11.98 25.9866667,11.92 26.48,11.92 C26.9733333,11.92 27.3866667,11.98 27.72,12.1 C28.0533333,12.22 28.3233333,12.4233333 28.53,12.71 C28.7366667,12.9966667 28.8833333,13.3766667 28.97,13.85 C29.0566667,14.3233333 29.1,14.9066667 29.1,15.6 C29.1,16.3066667 29.0566667,16.8933333 28.97,17.36 C28.8833333,17.8266667 28.74,18.2 28.54,18.48 C28.34,18.76 28.0733333,18.96 27.74,19.08 C27.4066667,19.2 26.9866667,19.26 26.48,19.26 Z M43.06,21.12 C43.2866667,21.12 43.5133333,21.11 43.74,21.09 C43.9666667,21.07 44.1866667,21.0466667 44.4,21.02 L44.4,21.02 L44.4,19.04 C44.2533333,19.08 44.1,19.1066667 43.94,19.12 C43.78,19.1333333 43.6066667,19.14 43.42,19.14 C43.14,19.14 42.9133333,19.1166667 42.74,19.07 C42.5666667,19.0233333 42.43,18.9333333 42.33,18.8 C42.23,18.6666667 42.1633333,18.4866667 42.13,18.26 C42.0966667,18.0333333 42.08,17.7466667 42.08,17.4 L42.08,17.4 L42.08,12.2 L44.46,12.2 L44.46,10.2 L42.08,10.2 L42.08,7.64 L39.58,7.64 L39.58,10.2 L38.08,10.2 L38.08,12.2 L39.58,12.2 L39.58,17.6 C39.58,18.3066667 39.64,18.89 39.76,19.35 C39.88,19.81 40.0766667,20.17 40.35,20.43 C40.6233333,20.69 40.9833333,20.87 41.43,20.97 C41.8766667,21.07 42.42,21.12 43.06,21.12 Z M47.64,8.54 C47.92,8.54 48.15,8.52666667 48.33,8.5 C48.51,8.47333333 48.6566667,8.41 48.77,8.31 C48.8833333,8.21 48.96,8.07333333 49,7.9 C49.04,7.72666667 49.06,7.48666667 49.06,7.18 C49.06,6.87333333 49.04,6.63 49,6.45 C48.96,6.27 48.8833333,6.13666667 48.77,6.05 C48.6566667,5.96333333 48.51,5.90666667 48.33,5.88 C48.15,5.85333333 47.92,5.84 47.64,5.84 C47.36,5.84 47.13,5.85333333 46.95,5.88 C46.77,5.90666667 46.6233333,5.96333333 46.51,6.05 C46.3966667,6.13666667 46.32,6.27 46.28,6.45 C46.24,6.63 46.22,6.87333333 46.22,7.18 C46.22,7.48666667 46.24,7.72666667 46.28,7.9 C46.32,8.07333333 46.3966667,8.21 46.51,8.31 C46.6233333,8.41 46.77,8.47333333 46.95,8.5 C47.13,8.52666667 47.36,8.54 47.64,8.54 Z M48.88,21 L48.88,10.2 L46.38,10.2 L46.38,21 L48.88,21 Z M54.52,25 L54.52,19.46 C54.7466667,19.9933333 55.11,20.4166667 55.61,20.73 C56.11,21.0433333 56.86,21.2 57.86,21.2 C58.74,21.2 59.4633333,21.0533333 60.03,20.76 C60.5966667,20.4666667 61.0433333,20.0633333 61.37,19.55 C61.6966667,19.0366667 61.92,18.44 62.04,17.76 C62.16,17.08 62.22,16.36 62.22,15.6 C62.22,14.76 62.16,13.9933333 62.04,13.3 C61.92,12.6066667 61.6966667,12.0166667 61.37,11.53 C61.0433333,11.0433333 60.5966667,10.6666667 60.03,10.4 C59.4633333,10.1333333 58.74,10 57.86,10 C56.8733333,10 56.1266667,10.1666667 55.62,10.5 C55.1133333,10.8333333 54.7466667,11.24 54.52,11.72 L54.52,11.72 L54.52,10.2 L52.02,10.2 L52.02,25 L54.52,25 Z M57.18,19.26 C56.6333333,19.26 56.18,19.1733333 55.82,19 C55.46,18.8266667 55.1733333,18.58 54.96,18.26 C54.7466667,17.94 54.5966667,17.5566667 54.51,17.11 C54.4233333,16.6633333 54.38,16.16 54.38,15.6 C54.38,15.0266667 54.4233333,14.51 54.51,14.05 C54.5966667,13.59 54.7466667,13.2033333 54.96,12.89 C55.1733333,12.5766667 55.46,12.3366667 55.82,12.17 C56.18,12.0033333 56.6333333,11.92 57.18,11.92 C57.7133333,11.92 58.1433333,12.0133333 58.47,12.2 C58.7966667,12.3866667 59.0466667,12.6466667 59.22,12.98 C59.3933333,13.3133333 59.5066667,13.7033333 59.56,14.15 C59.6133333,14.5966667 59.64,15.08 59.64,15.6 C59.64,16.08 59.6133333,16.5433333 59.56,16.99 C59.5066667,17.4366667 59.3966667,17.8266667 59.23,18.16 C59.0633333,18.4933333 58.8166667,18.76 58.49,18.96 C58.1633333,19.16 57.7266667,19.26 57.18,19.26 Z M68.42,13.28 C68.74,13.28 69.0033333,13.26 69.21,13.22 C69.4166667,13.18 69.58,13.1033333 69.7,12.99 C69.82,12.8766667 69.9,12.7166667 69.94,12.51 C69.98,12.3033333 70,12.0266667 70,11.68 C70,11.3333333 69.98,11.0533333 69.94,10.84 C69.9,10.6266667 69.82,10.4633333 69.7,10.35 C69.58,10.2366667 69.4166667,10.1633333 69.21,10.13 C69.0033333,10.0966667 68.74,10.08 68.42,10.08 C68.0866667,10.08 67.8166667,10.0966667 67.61,10.13 C67.4033333,10.1633333 67.24,10.2366667 67.12,10.35 C67,10.4633333 66.92,10.6266667 66.88,10.84 C66.84,11.0533333 66.82,11.3333333 66.82,11.68 C66.82,12.0266667 66.84,12.3033333 66.88,12.51 C66.92,12.7166667 67,12.8766667 67.12,12.99 C67.24,13.1033333 67.4033333,13.18 67.61,13.22 C67.8166667,13.26 68.0866667,13.28 68.42,13.28 Z M68.42,21.12 C68.74,21.12 69.0033333,21.1 69.21,21.06 C69.4166667,21.02 69.58,20.9433333 69.7,20.83 C69.82,20.7166667 69.9,20.5566667 69.94,20.35 C69.98,20.1433333 70,19.8666667 70,19.52 C70,19.1733333 69.98,18.8933333 69.94,18.68 C69.9,18.4666667 69.82,18.3033333 69.7,18.19 C69.58,18.0766667 69.4166667,18.0033333 69.21,17.97 C69.0033333,17.9366667 68.74,17.92 68.42,17.92 C68.0866667,17.92 67.8166667,17.9366667 67.61,17.97 C67.4033333,18.0033333 67.24,18.0766667 67.12,18.19 C67,18.3033333 66.92,18.4666667 66.88,18.68 C66.84,18.8933333 66.82,19.1733333 66.82,19.52 C66.82,19.8666667 66.84,20.1433333 66.88,20.35 C66.92,20.5566667 67,20.7166667 67.12,20.83 C67.24,20.9433333 67.4033333,21.02 67.61,21.06 C67.8166667,21.1 68.0866667,21.12 68.42,21.12 Z" id="path-2"></path>
    </defs>
    <g id="页面-1" stroke="none" stroke-width="1" fill="none" fill-rule="evenodd">
        <g id="编辑页加载2" transform="translate(-497.000000, -341.000000)" fill-rule="nonzero">
            <g id="编组-8" transform="translate(459.000000, 333.000000)">
                <g id="Protip：" transform="translate(37.000000, 3.000000)">
                    <use fill="#129CFF" xlink:href="#path-2"></use>
                    <use fill="url(#linearGradient-1)" xlink:href="#path-2"></use>
                </g>
            </g>
        </g>
    </g>
</svg>