<?xml version="1.0" encoding="UTF-8"?>
<svg width="77px" height="12px" viewBox="0 0 77 12" version="1.1" xmlns="http://www.w3.org/2000/svg" xmlns:xlink="http://www.w3.org/1999/xlink">
    <!-- Generator: Sketch 61 (89581) - https://sketch.com -->
    <title>NotoSansSC</title>
    <desc>Created with Sketch.</desc>
    <g id="Page-1" stroke="none" stroke-width="1" fill="none" fill-rule="evenodd">
        <g id="图表-文字" transform="translate(-938.000000, -678.000000)" fill="#FFFFFF" fill-rule="nonzero">
            <g id="下拉框" transform="translate(843.000000, 395.000000)">
                <g id="组合-&lt;v0&gt;">
                    <g id="10" transform="translate(0.000000, 270.000000)">
                        <path d="M96.324,24.014 L96.324,16.062 L101,24.014 L102.302,24.014 L102.302,13.99 L101.084,13.99 L101.084,21.928 L96.408,13.99 L95.106,13.99 L95.106,24.014 L96.324,24.014 Z M107.202,24.154 C108.191333,24.154 108.984667,23.8226667 109.582,23.16 C110.160667,22.4973333 110.45,21.6106667 110.45,20.5 C110.45,19.408 110.160667,18.526 109.582,17.854 C108.984667,17.182 108.191333,16.846 107.202,16.846 C106.212667,16.846 105.419333,17.1726667 104.822,17.826 C104.234,18.498 103.94,19.3893333 103.94,20.5 C103.94,21.6013333 104.234,22.488 104.822,23.16 C105.419333,23.8226667 106.212667,24.154 107.202,24.154 Z M107.202,23.076 C106.539333,23.076 106.026,22.8333333 105.662,22.348 C105.307333,21.9 105.13,21.284 105.13,20.5 C105.13,19.7533333 105.293333,19.156 105.62,18.708 C105.993333,18.1946667 106.520667,17.938 107.202,17.938 C107.883333,17.938 108.410667,18.1993333 108.784,18.722 C109.12,19.1793333 109.283333,19.772 109.274,20.5 C109.264667,21.3026667 109.087333,21.9233333 108.742,22.362 C108.387333,22.838 107.874,23.076 107.202,23.076 Z M114.174,24.154 C114.622,24.154 114.990667,24.1073333 115.28,24.014 L115.28,24.014 L115.21,23.006 L115.14,23.006 C115.102667,23.0153333 115.079333,23.02 115.07,23.02 C114.846,23.0573333 114.654667,23.076 114.496,23.076 C113.861333,23.076 113.544,22.698 113.544,21.942 L113.544,21.942 L113.544,18.064 L115.308,18.064 L115.308,17.014 L113.544,17.014 L113.544,14.9 L112.368,15.264 L112.368,17.014 L111.318,17.014 L111.318,18.064 L112.368,18.064 L112.368,22.11 C112.368,23.4726667 112.97,24.154 114.174,24.154 Z M119.522,24.154 C120.511333,24.154 121.304667,23.8226667 121.902,23.16 C122.480667,22.4973333 122.77,21.6106667 122.77,20.5 C122.77,19.408 122.480667,18.526 121.902,17.854 C121.304667,17.182 120.511333,16.846 119.522,16.846 C118.532667,16.846 117.739333,17.1726667 117.142,17.826 C116.554,18.498 116.26,19.3893333 116.26,20.5 C116.26,21.6013333 116.554,22.488 117.142,23.16 C117.739333,23.8226667 118.532667,24.154 119.522,24.154 Z M119.522,23.076 C118.859333,23.076 118.346,22.8333333 117.982,22.348 C117.627333,21.9 117.45,21.284 117.45,20.5 C117.45,19.7533333 117.613333,19.156 117.94,18.708 C118.313333,18.1946667 118.840667,17.938 119.522,17.938 C120.203333,17.938 120.730667,18.1993333 121.104,18.722 C121.44,19.1793333 121.603333,19.772 121.594,20.5 C121.584667,21.3026667 121.407333,21.9233333 121.062,22.362 C120.707333,22.838 120.194,23.076 119.522,23.076 Z M129.448,24.196 C131.641333,24.14 132.738,23.2066667 132.738,21.396 C132.738,19.968 131.860667,18.89 130.106,18.162 C128.874,17.5646667 128.258,16.9486667 128.258,16.314 C128.258,15.474 128.892667,15.0213333 130.162,14.956 C130.862,14.956 131.501333,15.082 132.08,15.334 L132.08,15.334 L132.36,14.27 C131.632,13.9806667 130.899333,13.836 130.162,13.836 C129.154,13.864 128.374667,14.0926667 127.824,14.522 C127.292,14.9606667 127.026,15.558 127.026,16.314 C127.026,17.5086667 127.852,18.4793333 129.504,19.226 C130.838667,19.7953333 131.506,20.5186667 131.506,21.396 C131.496667,22.516 130.773333,23.076 129.336,23.076 C128.542667,23.0106667 127.828667,22.8286667 127.194,22.53 L127.194,22.53 L126.914,23.594 C127.931333,23.9953333 128.776,24.196 129.448,24.196 Z M135.874,24.154 C136.826,24.154 137.572667,23.8086667 138.114,23.118 L138.114,23.118 L138.268,24.014 L139.318,24.014 C139.280667,23.622 139.252667,23.216 139.234,22.796 C139.215333,22.4413333 139.206,22.1193333 139.206,21.83 L139.206,21.83 L139.206,19.184 C139.206,17.6253333 138.38,16.846 136.728,16.846 C136.392,16.846 136,16.8973333 135.552,17 C135.057333,17.1026667 134.651333,17.238 134.334,17.406 C134.39,17.63 134.450667,17.8073333 134.516,17.938 C134.562667,18.0406667 134.618667,18.1806667 134.684,18.358 C135.346667,18.0406667 135.995333,17.882 136.63,17.882 C137.152667,17.882 137.516667,17.98 137.722,18.176 C137.936667,18.3626667 138.044,18.6986667 138.044,19.184 L138.044,19.184 L138.044,19.478 C135.234667,19.6926667 133.83,20.5933333 133.83,22.18 C133.83,22.768 134.021333,23.244 134.404,23.608 C134.786667,23.972 135.276667,24.154 135.874,24.154 Z M136.154,23.146 C135.379333,23.146 134.992,22.81 134.992,22.138 C134.992,21.7273333 135.234667,21.3773333 135.72,21.088 C136.252,20.7706667 137.026667,20.5653333 138.044,20.472 L138.044,20.472 L138.044,21.508 C138.044,21.8813333 137.843333,22.2406667 137.442,22.586 C137.040667,22.9593333 136.611333,23.146 136.154,23.146 Z M142.496,24.014 L142.496,20.024 C142.496,19.4453333 142.659333,18.96 142.986,18.568 C143.322,18.148 143.77,17.938 144.33,17.938 C145.412667,17.938 145.954,18.6333333 145.954,20.024 L145.954,20.024 L145.954,24.014 L147.13,24.014 L147.13,20.024 C147.13,19.0533333 146.910667,18.2833333 146.472,17.714 C146.024,17.154 145.431333,16.874 144.694,16.874 C143.648667,16.874 142.897333,17.2053333 142.44,17.868 L142.44,17.868 L142.272,17.014 L141.236,17.014 C141.282667,17.5086667 141.310667,17.9753333 141.32,18.414 C141.329333,18.5726667 141.334,18.7406667 141.334,18.918 L141.334,18.918 L141.334,24.014 L142.496,24.014 Z M150.784,24.154 C151.577333,24.154 152.212,23.9766667 152.688,23.622 C153.164,23.2486667 153.402,22.7446667 153.402,22.11 C153.402,21.1486667 152.744,20.4113333 151.428,19.898 C150.438667,19.4873333 149.944,19.0813333 149.944,18.68 C149.944,18.4653333 150.056,18.2833333 150.28,18.134 C150.522667,17.9753333 150.858667,17.896 151.288,17.896 C151.829333,17.896 152.370667,17.9986667 152.912,18.204 L152.912,18.204 L152.926,18.134 L152.954,18.05 C152.963333,17.9846667 152.972667,17.938 152.982,17.91 C153.000667,17.826 153.028667,17.714 153.066,17.574 L153.066,17.574 L153.15,17.21 C152.926,17.1166667 152.641333,17.0326667 152.296,16.958 C151.922667,16.8833333 151.591333,16.846 151.302,16.846 C150.546,16.846 149.93,17.0233333 149.454,17.378 C149.006,17.7326667 148.782,18.1666667 148.782,18.68 C148.782,19.5946667 149.458667,20.3226667 150.812,20.864 C151.736,21.2653333 152.202667,21.6946667 152.212,22.152 C152.221333,22.4413333 152.086,22.6746667 151.806,22.852 C151.544667,23.02 151.19,23.104 150.742,23.104 C150.144667,23.104 149.566,22.9826667 149.006,22.74 L149.006,22.74 L148.698,23.762 C149.211333,24.0233333 149.906667,24.154 150.784,24.154 Z M160.024,24.196 C162.217333,24.14 163.314,23.2066667 163.314,21.396 C163.314,19.968 162.436667,18.89 160.682,18.162 C159.45,17.5646667 158.834,16.9486667 158.834,16.314 C158.834,15.474 159.468667,15.0213333 160.738,14.956 C161.438,14.956 162.077333,15.082 162.656,15.334 L162.656,15.334 L162.936,14.27 C162.208,13.9806667 161.475333,13.836 160.738,13.836 C159.73,13.864 158.950667,14.0926667 158.4,14.522 C157.868,14.9606667 157.602,15.558 157.602,16.314 C157.602,17.5086667 158.428,18.4793333 160.08,19.226 C161.414667,19.7953333 162.082,20.5186667 162.082,21.396 C162.072667,22.516 161.349333,23.076 159.912,23.076 C159.118667,23.0106667 158.404667,22.8286667 157.77,22.53 L157.77,22.53 L157.49,23.594 C158.507333,23.9953333 159.352,24.196 160.024,24.196 Z M169.516,24.154 C170.244,24.154 170.990667,24.0233333 171.756,23.762 L171.756,23.762 L171.462,22.684 C170.79,22.9173333 170.16,23.034 169.572,23.034 C168.358667,23.034 167.406667,22.6746667 166.716,21.956 C166.016,21.2373333 165.666,20.2433333 165.666,18.974 C165.666,17.742 165.997333,16.7713333 166.66,16.062 C167.332,15.3246667 168.27,14.956 169.474,14.956 C170.183333,14.956 170.813333,15.068 171.364,15.292 L171.364,15.292 L171.644,14.214 C171.046667,13.962 170.309333,13.836 169.432,13.836 C167.948,13.836 166.748667,14.3026667 165.834,15.236 C164.928667,16.1786667 164.476,17.4246667 164.476,18.974 C164.476,20.57 164.961333,21.844 165.932,22.796 C166.865333,23.7013333 168.06,24.154 169.516,24.154 Z" id="NotoSansSC"></path>
                    </g>
                </g>
            </g>
        </g>
    </g>
</svg>