<?xml version="1.0" encoding="UTF-8"?>
<svg width="56px" height="14px" viewBox="0 0 56 14" version="1.1" xmlns="http://www.w3.org/2000/svg" xmlns:xlink="http://www.w3.org/1999/xlink">
    <!-- Generator: Sketch 52.6 (67491) - http://www.bohemiancoding.com/sketch -->
    <title>方正黑体</title>
    <desc>Created with Sketch.</desc>
    <g id="Page-1" stroke="none" stroke-width="1" fill="none" fill-rule="evenodd">
        <g id="图表-文字" transform="translate(-1072.000000, -493.000000)" fill="#FFFFFF">
            <g id="下拉框" transform="translate(1062.000000, 395.000000)">
                <g id="组合-&lt;v0&gt;">
                    <g id="4" transform="translate(0.000000, 90.000000)">
                        <path d="M17.21875,8.6796875 C17.5468766,9.26302375 17.7838534,9.88280922 17.9296875,10.5390625 L16.6171875,10.921875 C16.3984364,10.0833291 16.1614596,9.46354367 15.90625,9.0625 L17.21875,8.6796875 Z M10.8203125,10.9765625 L10.984375,10.9765625 C11.6041698,11.085938 12.3515581,11.140625 13.2265625,11.140625 L20.5546875,11.140625 C21.4296919,11.140625 22.2499962,11.085938 23.015625,10.9765625 L23.234375,10.9765625 L23.234375,12.2890625 L23.015625,12.2890625 C22.3593717,12.252604 21.5755254,12.234375 20.6640625,12.234375 L16.34375,12.234375 C16.34375,12.7447942 16.307292,13.3645797 16.234375,14.09375 L19.5703125,14.09375 L21.375,13.984375 C21.3385415,14.1666676 21.2838545,14.4765603 21.2109375,14.9140625 C21.174479,15.0963551 21.15625,15.223958 21.15625,15.296875 C20.9374989,17.9948052 20.7005221,19.6171848 20.4453125,20.1640625 C20.2630199,20.7838573 19.3880287,21.130208 17.8203125,21.203125 C17.7473955,20.5833302 17.5286477,20.0729187 17.1640625,19.671875 C18.4765691,19.9270846 19.1874995,19.8723977 19.296875,19.5078125 C19.4791676,19.1432273 19.6796864,17.7031376 19.8984375,15.1875 L16.125,15.1875 C15.8333319,17.8125131 14.466158,19.8723884 12.0234375,21.3671875 C11.7317694,21.0026023 11.2942738,20.6927096 10.7109375,20.4375 C13.7734528,19.5260371 15.2317716,16.7916895 15.0859375,12.234375 L13.2265625,12.234375 C12.4609337,12.234375 11.7500033,12.270833 11.09375,12.34375 L10.8203125,12.34375 L10.8203125,10.9765625 Z M25.8046875,9.71875 C26.7526089,9.79166703 27.6093712,9.828125 28.375,9.828125 L33.6796875,9.828125 C34.4817748,9.828125 35.3567661,9.79166703 36.3046875,9.71875 L36.3046875,10.9765625 C35.7213512,10.940104 34.864589,10.903646 33.734375,10.8671875 L31.8203125,10.8671875 L31.8203125,14.203125 L33.3515625,14.203125 C34.3359424,14.203125 35.1197887,14.166667 35.703125,14.09375 L35.703125,15.296875 C34.9010377,15.223958 34.1536493,15.1875 33.4609375,15.1875 L31.8203125,15.1875 L31.8203125,19.1796875 L34.7734375,19.1796875 C35.94011,19.1796875 36.7421853,19.1432295 37.1796875,19.0703125 L37.1796875,20.2734375 C36.4505172,20.2005205 35.6666709,20.1640625 34.828125,20.1640625 L26.7890625,20.1640625 C26.2057262,20.1640625 25.5130248,20.2005205 24.7109375,20.2734375 L24.7109375,19.0703125 C25.4036493,19.1432295 26.0781217,19.1796875 26.734375,19.1796875 L27.0078125,19.1796875 L27.0078125,17.265625 C27.044271,14.7864459 27.026042,13.3828141 26.953125,13.0546875 C27.8645879,13.0546875 28.3385415,13.1093745 28.375,13.21875 C28.375,13.2552085 28.356771,13.3098955 28.3203125,13.3828125 C28.2473955,13.5651051 28.1927085,13.7656239 28.15625,13.984375 C28.15625,16.8645977 28.138021,18.5963513 28.1015625,19.1796875 L30.671875,19.1796875 L30.671875,10.8671875 L28.375,10.8671875 C27.2812445,10.903646 26.4244823,10.940104 25.8046875,10.9765625 L25.8046875,9.71875 Z M49.9765625,9.0625 C49.9036455,9.17187555 49.8671875,9.60937117 49.8671875,10.375 L49.8671875,12.78125 C49.8671875,13.3645863 49.9036455,13.7473949 49.9765625,13.9296875 C49.5026018,13.893229 48.9921902,13.875 48.4453125,13.875 L45.546875,13.875 L45.546875,14.9140625 L47.8984375,14.9140625 C48.8828174,14.9140625 49.5208319,14.8958335 49.8125,14.859375 L49.8671875,14.859375 L49.8671875,15.953125 L49.8125,15.953125 C49.3749978,15.880208 48.7369834,15.84375 47.8984375,15.84375 L45.546875,15.84375 L45.546875,16.9921875 L48.2265625,16.9921875 C49.8671957,16.9921875 50.8333319,16.9557295 51.125,16.8828125 L51.125,17.9765625 L51.0703125,17.9765625 C50.7421859,17.940104 49.8125077,17.921875 48.28125,17.921875 L41.2265625,17.921875 C39.8411389,17.921875 39.0390636,17.940104 38.8203125,17.9765625 L38.8203125,16.8828125 C39.0755221,16.9557295 39.8593684,16.9921875 41.171875,16.9921875 L44.5078125,16.9921875 L44.5078125,15.84375 L42.1015625,15.84375 C41.2265581,15.84375 40.5885437,15.880208 40.1875,15.953125 L40.1875,14.859375 C40.3697926,14.8958335 41.026036,14.9140625 42.15625,14.9140625 L44.5078125,14.9140625 L44.5078125,13.875 L41.4453125,13.875 C41.0442688,13.875 40.6796891,13.893229 40.3515625,13.9296875 L40.1328125,13.9296875 C40.169271,13.5286438 40.1875,13.1093772 40.1875,12.671875 L40.1875,10.3203125 C40.1875,9.88281031 40.169271,9.46354367 40.1328125,9.0625 C40.2786466,9.13541703 40.7343712,9.171875 41.5,9.171875 L48.4453125,9.171875 C49.0286488,9.171875 49.5390603,9.13541703 49.9765625,9.0625 Z M45.546875,10.1015625 L45.546875,12.890625 L48.8828125,12.890625 L48.8828125,10.1015625 L45.546875,10.1015625 Z M41.171875,10.1015625 L41.171875,12.890625 L44.5078125,12.890625 L44.5078125,10.1015625 L41.171875,10.1015625 Z M46.96875,10.59375 C47.0052085,10.59375 47.0416665,10.611979 47.078125,10.6484375 C47.8437538,10.7942716 48.2265625,10.8854165 48.2265625,10.921875 C48.2265625,10.9583335 48.1901045,11.0130205 48.1171875,11.0859375 C48.007812,11.195313 47.916667,11.304687 47.84375,11.4140625 L47.296875,12.6171875 L46.203125,12.34375 C46.5312516,11.7968723 46.7864574,11.2135448 46.96875,10.59375 Z M43.0859375,10.703125 C43.3046886,10.9947931 43.5416654,11.5052047 43.796875,12.234375 L42.6484375,12.5078125 C42.4661449,11.8880177 42.2656261,11.3776062 42.046875,10.9765625 L43.0859375,10.703125 Z M40.078125,18.4140625 L41.390625,18.8515625 C41.0989569,19.5442743 40.6979192,20.2916627 40.1875,21.09375 L38.875,20.6015625 C39.3854192,19.9817677 39.7864569,19.2526084 40.078125,18.4140625 Z M49.4296875,18.46875 C49.466146,18.5052085 49.502604,18.5598955 49.5390625,18.6328125 C50.1588573,19.5442754 50.5598949,20.1822898 50.7421875,20.546875 L49.375,21.0390625 C49.1197904,20.0911411 48.7369817,19.3802107 48.2265625,18.90625 L49.4296875,18.46875 Z M46.5859375,18.46875 C46.8411471,19.1614618 47.0781239,19.8723922 47.296875,20.6015625 L45.984375,20.9296875 C45.8020824,19.835932 45.5833346,19.1250016 45.328125,18.796875 L46.5859375,18.46875 Z M43.796875,18.7421875 C43.9427091,19.0338556 44.0885409,19.6900991 44.234375,20.7109375 L42.921875,20.9296875 C42.8854165,20.3098927 42.7578136,19.6536493 42.5390625,18.9609375 L43.796875,18.7421875 Z M55.2265625,8.625 C56.2838595,9.02604367 56.776042,9.28124945 56.703125,9.390625 C56.703125,9.42708352 56.648438,9.48177047 56.5390625,9.5546875 C56.3932284,9.70052156 56.2838545,9.84635344 56.2109375,9.9921875 C56.101562,10.1744801 55.9557301,10.4296859 55.7734375,10.7578125 C55.5911449,11.0859391 55.445313,11.3593739 55.3359375,11.578125 L55.3359375,18.03125 C57.0859462,16.7916605 58.1979143,14.8958461 58.671875,12.34375 L57.7421875,12.34375 C57.4140609,12.34375 56.8125044,12.380208 55.9375,12.453125 L55.9375,11.25 C56.6666703,11.322917 57.2682268,11.359375 57.7421875,11.359375 L59.65625,11.359375 L59.65625,9.609375 C59.65625,9.35416539 59.638021,9.04427266 59.6015625,8.6796875 C60.3671913,8.71614602 60.8411449,8.78906195 61.0234375,8.8984375 C61.0234375,8.93489602 60.9869795,9.00781195 60.9140625,9.1171875 C60.8411455,9.29948008 60.8046875,9.44531195 60.8046875,9.5546875 L60.8046875,11.3046875 L62.9375,11.3046875 C63.7031288,11.3046875 64.4322882,11.2682295 65.125,11.1953125 L65.125,12.3984375 C64.9791659,12.3984375 64.6510442,12.3802085 64.140625,12.34375 C63.5572887,12.3072915 63.1744801,12.2890625 62.9921875,12.2890625 L61.734375,12.2890625 C61.9531261,14.8776171 63.174468,16.7734315 65.3984375,17.9765625 C65.289062,18.085938 65.1432301,18.2135409 64.9609375,18.359375 C64.6692694,18.6875016 64.4687505,18.9427074 64.359375,19.125 C63.8489558,18.7604148 63.3750022,18.3046902 62.9375,17.7578125 L62.9375,18.796875 C62.3541637,18.723958 61.8619812,18.6875 61.4609375,18.6875 L60.859375,18.6875 L60.859375,19.2890625 C60.859375,19.7994817 60.895833,20.4921831 60.96875,21.3671875 L59.65625,21.3671875 C59.65625,21.0755194 59.674479,20.6197948 59.7109375,20 L59.7109375,18.6875 L59.109375,18.6875 C58.3437462,18.6875 57.7786477,18.705729 57.4140625,18.7421875 L57.4140625,17.703125 C57.0494773,18.2135442 56.6666687,18.6874978 56.265625,19.125 C56.0468739,18.7968734 55.7369812,18.4869806 55.3359375,18.1953125 L55.3359375,19.8359375 C55.372396,20.5286493 55.390625,21.0208319 55.390625,21.3125 L54.1328125,21.3125 C54.2057295,20.255203 54.2421875,19.4166698 54.2421875,18.796875 L54.2421875,13.4375 C53.9140609,14.0937533 53.4947942,14.8229127 52.984375,15.625 L52.21875,14.4765625 C53.3854225,13.2734315 54.3880166,11.3229302 55.2265625,8.625 Z M59.7109375,12.2890625 L59.546875,12.2890625 C59.2552069,14.4401149 58.5807345,16.2083264 57.5234375,17.59375 C58.3255248,17.666667 58.8359364,17.703125 59.0546875,17.703125 L59.7109375,17.703125 L59.7109375,12.2890625 Z M60.8046875,17.703125 L61.296875,17.703125 C61.6250016,17.703125 62.1171842,17.666667 62.7734375,17.59375 C61.7161405,16.1354094 61.132813,14.3671979 61.0234375,12.2890625 L60.8046875,12.2890625 L60.8046875,17.703125 Z" id="方正黑体"></path>
                    </g>
                </g>
            </g>
        </g>
    </g>
</svg>