<?xml version="1.0" encoding="UTF-8"?>
<svg width="55px" height="14px" viewBox="0 0 55 14" version="1.1" xmlns="http://www.w3.org/2000/svg" xmlns:xlink="http://www.w3.org/1999/xlink">
    <!-- Generator: Sketch 52.6 (67491) - http://www.bohemiancoding.com/sketch -->
    <title>方正楷体</title>
    <desc>Created with Sketch.</desc>
    <g id="Page-1" stroke="none" stroke-width="1" fill="none" fill-rule="evenodd">
        <g id="图表-文字" transform="translate(-1073.000000, -523.000000)" fill="#FFFFFF">
            <g id="下拉框" transform="translate(1062.000000, 395.000000)">
                <g id="组合-&lt;v0&gt;">
                    <g id="5" transform="translate(0.000000, 120.000000)">
                        <path d="M16.0703125,9.9375 C15.7057273,9.64583187 15.7604143,9.5 16.234375,9.5 C17.0364623,9.57291703 17.6197898,9.73697789 17.984375,9.9921875 C18.4583357,10.8671919 18.4036488,11.3046875 17.8203125,11.3046875 C17.5651029,11.195312 17.1640652,10.8854192 16.6171875,10.375 C16.3619779,10.1562489 16.179688,10.010417 16.0703125,9.9375 Z M21.1015625,12.015625 C21.7942743,11.9791665 22.3411438,12.1432273 22.7421875,12.5078125 C22.9973971,12.8359391 22.7421913,13 21.9765625,13 L21.5390625,13 C20.2265559,12.9635415 18.7864662,13.0182284 17.21875,13.1640625 C17.5468766,13.4192721 17.7109375,13.601562 17.7109375,13.7109375 C17.747396,13.7838545 17.6927091,13.9296864 17.546875,14.1484375 C17.4374995,14.2942716 17.3645835,14.4036455 17.328125,14.4765625 C17.8385442,14.6588551 18.2942688,14.75 18.6953125,14.75 C18.8411466,14.75 18.9322915,14.768229 18.96875,14.8046875 C19.5885448,15.0963556 19.9895824,15.4244773 20.171875,15.7890625 C20.171875,15.825521 20.117188,15.880208 20.0078125,15.953125 C19.7161444,16.1354176 19.5520835,16.4270813 19.515625,16.828125 C19.2968739,17.958339 18.9140652,18.9609331 18.3671875,19.8359375 C17.9296853,20.4557323 17.4739607,20.6927091 17,20.546875 C16.927083,20.546875 16.854167,20.4010431 16.78125,20.109375 C16.6354159,19.6718728 16.4713551,19.3255221 16.2890625,19.0703125 C15.9973944,18.7057273 16.0885393,18.6145824 16.5625,18.796875 C17.0364607,19.0156261 17.3645824,19.106771 17.546875,19.0703125 C18.3489623,18.1953081 18.768229,17.0651111 18.8046875,15.6796875 C18.7317705,15.5338534 18.4765647,15.3697926 18.0390625,15.1875 C17.6015603,15.0416659 17.3098966,14.8958341 17.1640625,14.75 C15.6328048,17.3020961 13.8463644,18.9791627 11.8046875,19.78125 C11.1119757,19.9270841 10.9114569,19.9088551 11.203125,19.7265625 C14.4479329,17.6848856 16.2526023,15.5156365 16.6171875,13.21875 C14.9036373,13.4739596 13.6276084,13.7473944 12.7890625,14.0390625 C12.6432284,14.075521 12.5520835,14.09375 12.515625,14.09375 C11.385411,13.8020819 11.0937473,13.5833341 11.640625,13.4375 C15.250018,13.0364563 18.0755106,12.6171897 20.1171875,12.1796875 C20.5911482,12.070312 20.9192699,12.015625 21.1015625,12.015625 Z M33.734375,10.265625 C34.7552134,10.338542 35.0833352,10.5755188 34.71875,10.9765625 C34.1354137,11.1588551 33.0781327,11.3776029 31.546875,11.6328125 C31.9479187,11.8151051 32.1484375,11.9791659 32.1484375,12.125 C32.1484375,12.1614585 32.1302085,12.2526034 32.09375,12.3984375 C32.020833,12.9088567 31.966146,13.6380161 31.9296875,14.5859375 C32.3307312,14.476562 32.8046848,14.3307301 33.3515625,14.1484375 C33.7526062,14.039062 33.989583,13.984375 34.0625,13.984375 C34.5364607,13.984375 34.8645824,14.0572909 35.046875,14.203125 C35.1927091,14.3489591 35.1197931,14.4947909 34.828125,14.640625 C34.4635398,14.8229176 33.5156327,14.9869784 31.984375,15.1328125 L31.875,17.9765625 C34.6093887,17.6119773 36.0312495,17.4661455 36.140625,17.5390625 C36.7239613,17.648438 37.1249989,17.8854148 37.34375,18.25 C37.4895841,18.6145852 37.2708363,18.760417 36.6875,18.6875 C33.8437358,18.2864563 30.6172055,18.4869752 27.0078125,19.2890625 C26.5703103,19.3619795 26.2968755,19.4166665 26.1875,19.453125 C24.984369,19.0885398 24.7291632,18.869792 25.421875,18.796875 C26.0416698,18.7604165 26.989577,18.6510426 28.265625,18.46875 C28.2291665,18.1406234 28.2109375,17.7213567 28.2109375,17.2109375 C28.174479,16.8098938 28.15625,16.4635431 28.15625,16.171875 C28.1197915,15.1510366 27.9375016,14.4401062 27.609375,14.0390625 C27.536458,13.929687 27.518229,13.838542 27.5546875,13.765625 C28.0651067,13.5468739 28.5390603,13.7656217 28.9765625,14.421875 L28.9765625,14.640625 C28.9036455,15.0781272 28.8854165,15.7525996 28.921875,16.6640625 L28.921875,18.359375 C29.9062549,18.2135409 30.6536433,18.122396 31.1640625,18.0859375 C31.3098966,14.658837 31.2734386,12.5260459 31.0546875,11.6875 C30.6536438,11.7968755 30.1979192,11.8515625 29.6875,11.8515625 C29.0677052,11.815104 28.6484386,11.7239591 28.4296875,11.578125 C28.320312,11.4687495 28.5390598,11.3776045 29.0859375,11.3046875 C30.0338589,11.195312 31.1822849,10.9401062 32.53125,10.5390625 C33.1875033,10.3567699 33.5885409,10.265625 33.734375,10.265625 Z M47.4609375,8.84375 L47.515625,8.84375 C48.1354198,9.13541812 48.3906255,9.40885289 48.28125,9.6640625 C48.28125,9.70052102 48.263021,9.73697898 48.2265625,9.7734375 C48.0078114,10.3203152 47.8984375,10.9583297 47.8984375,11.6875 C48.7005248,11.2499978 49.1380205,10.8489602 49.2109375,10.484375 C49.2838545,10.1927069 49.4661444,10.1744779 49.7578125,10.4296875 C50.2682317,10.9036482 50.4322926,11.195312 50.25,11.3046875 C49.9583319,11.341146 49.5026073,11.4869779 48.8828125,11.7421875 C48.4453103,11.8880216 48.0989596,11.9973955 47.84375,12.0703125 C47.84375,12.8723998 47.880208,13.3463534 47.953125,13.4921875 C48.0625005,13.7838556 48.3723933,13.9296875 48.8828125,13.9296875 C49.5026073,13.9296875 49.9583319,13.8203136 50.25,13.6015625 C50.5052096,13.492187 50.6692705,13.1276073 50.7421875,12.5078125 C50.778646,12.2161444 50.833333,12.0703125 50.90625,12.0703125 C50.9427085,12.0703125 50.9973955,12.2343734 51.0703125,12.5625 C51.106771,12.8906266 51.1979159,13.2187484 51.34375,13.546875 C51.4895841,13.7291676 51.4531261,13.8749995 51.234375,13.984375 C49.9947855,14.7500038 48.8645884,14.8593777 47.84375,14.3125 C47.4062478,14.0208319 47.223958,13.3645884 47.296875,12.34375 L47.296875,12.0703125 C47.296875,11.960937 47.315104,11.7968761 47.3515625,11.578125 C47.460938,10.302077 47.3697931,9.50000164 47.078125,9.171875 C47.005208,9.02604094 47.005208,8.93489602 47.078125,8.8984375 C47.151042,8.82552047 47.2786449,8.80729148 47.4609375,8.84375 Z M41.7734375,8.953125 C42.6484419,9.20833461 43.0312505,9.49999836 42.921875,9.828125 C42.7395824,10.1197931 42.6119795,10.7760366 42.5390625,11.796875 C42.502604,12.1614602 42.484375,12.4166659 42.484375,12.5625 C43.687506,12.2708319 44.2161466,12.3255188 44.0703125,12.7265625 C44.033854,12.835938 43.7968772,12.927083 43.359375,13 C42.9947898,13.072917 42.6848971,13.145833 42.4296875,13.21875 L42.4296875,14.8046875 C42.8671897,14.914063 43.2317694,15.0963529 43.5234375,15.3515625 C43.7786471,15.5703136 43.851563,15.8255194 43.7421875,16.1171875 C43.632812,16.2994801 43.4505221,16.2812511 43.1953125,16.0625 C43.0494784,15.9166659 42.7760437,15.6250022 42.375,15.1875 L42.375,16.71875 C42.4114585,18.3229247 42.4296875,19.2526029 42.4296875,19.5078125 C42.393229,20.2369828 42.2656261,20.6562495 42.046875,20.765625 C41.8281239,20.838542 41.6093761,20.5651073 41.390625,19.9453125 C41.3541665,19.835937 41.3723955,19.6536471 41.4453125,19.3984375 C41.5911466,18.8151012 41.7005205,18.1223998 41.7734375,17.3203125 C41.8463545,16.5911422 41.9010415,15.606777 41.9375,14.3671875 C40.880203,16.0442792 39.9322959,17.2109342 39.09375,17.8671875 C38.6562478,18.2317727 38.419271,18.3776045 38.3828125,18.3046875 C38.346354,18.195312 38.5286438,17.9218772 38.9296875,17.484375 C40.0599015,16.2447855 40.9895797,14.8776116 41.71875,13.3828125 C40.588536,13.5651051 39.8411477,13.638021 39.4765625,13.6015625 C39.2578114,13.565104 39.0937505,13.492188 38.984375,13.3828125 C38.911458,13.273437 38.9661449,13.200521 39.1484375,13.1640625 L39.3671875,13.109375 C40.0234408,12.9999995 40.8619741,12.8541676 41.8828125,12.671875 L41.8828125,12.3984375 C42.0286466,10.9400969 41.9375016,9.99218969 41.609375,9.5546875 C41.4999995,9.33593641 41.4453125,9.19010453 41.4453125,9.1171875 C41.481771,9.00781195 41.5911449,8.953125 41.7734375,8.953125 Z M44.453125,10.265625 C45.1093783,10.4843761 45.401042,10.7395819 45.328125,11.03125 C45.255208,11.3593766 45.21875,11.6874984 45.21875,12.015625 L46.09375,11.6875 C46.2031255,11.614583 46.2760415,11.578125 46.3125,11.578125 C46.8229192,11.5416665 47.041667,11.6328114 46.96875,11.8515625 C46.7135404,12.1796891 46.1119839,12.34375 45.1640625,12.34375 C45.127604,13.473964 45.109375,14.0572915 45.109375,14.09375 C45.2552091,14.09375 45.6197887,13.9296891 46.203125,13.6015625 C46.4947931,13.4557284 46.695312,13.4192705 46.8046875,13.4921875 C46.8046875,13.5651045 46.6588556,13.7109364 46.3671875,13.9296875 C45.8567683,14.2213556 45.2552118,14.7135382 44.5625,15.40625 C44.1614563,15.5156255 44.0156245,15.2421908 44.125,14.5859375 C44.4895852,14.2942694 44.653646,13.619797 44.6171875,12.5625 C44.580729,11.7239541 44.4531261,11.0859397 44.234375,10.6484375 C44.1249995,10.539062 44.0885415,10.447917 44.125,10.375 C44.197917,10.2656245 44.3072909,10.2291665 44.453125,10.265625 Z M46.421875,14.8046875 C47.1145868,14.9869801 47.3880216,15.132812 47.2421875,15.2421875 C46.9869779,15.4244801 46.5677113,15.8255177 45.984375,16.4453125 C46.7500038,16.2994784 47.4427052,16.0989596 48.0625,15.84375 C48.1718755,15.8072915 48.2447915,15.7890625 48.28125,15.7890625 C49.1927129,15.9348966 49.6484375,16.2265603 49.6484375,16.6640625 C49.4661449,17.0286477 49.393229,17.5937462 49.4296875,18.359375 L49.4296875,19.2890625 C49.393229,20.2734424 49.1197942,20.9296859 48.609375,21.2578125 C48.4999995,21.3307295 48.3723966,21.0937527 48.2265625,20.546875 C48.117187,20.1093728 48.007813,19.7812511 47.8984375,19.5625 L45.546875,19.7265625 C45.5833335,20.2369817 45.5286466,20.5104165 45.3828125,20.546875 C45.1276029,20.473958 44.963542,20.2369812 44.890625,19.8359375 C44.963542,18.7786405 44.8541681,17.7395884 44.5625,16.71875 C44.4531245,16.5364574 44.4531245,16.4270835 44.5625,16.390625 C44.6718755,16.390625 44.9270813,16.4635409 45.328125,16.609375 L45.546875,16.5546875 C46.0208357,16.0442683 46.2031255,15.5703147 46.09375,15.1328125 L46.09375,15.078125 C45.9843745,14.8958324 46.0937484,14.8046875 46.421875,14.8046875 Z M47.953125,16.5546875 C47.7343739,16.5546875 47.0416725,16.6276034 45.875,16.7734375 C45.6927074,16.809896 45.5468755,16.828125 45.4375,16.828125 L45.4921875,17.8671875 C47.2421962,17.4661438 48.0807295,17.4479148 48.0078125,17.8125 C47.7161444,18.1406266 46.8958401,18.2864585 45.546875,18.25 L45.546875,19.3984375 C46.3854209,19.289062 47.1328092,19.179688 47.7890625,19.0703125 C47.8619795,19.033854 47.9895824,19.1249989 48.171875,19.34375 C48.2812505,19.4531255 48.3541665,19.5078125 48.390625,19.5078125 C48.6822931,19.398437 48.7552091,18.6875066 48.609375,17.375 C48.4999995,16.8281223 48.3359386,16.5546875 48.1171875,16.5546875 L47.953125,16.5546875 Z M59.4921875,9.28125 C60.1848993,9.50000109 60.494792,9.73697789 60.421875,9.9921875 C60.2760409,10.1744801 60.184896,11.0130134 60.1484375,12.5078125 C60.7317738,12.398437 61.2786433,12.2708341 61.7890625,12.125 C61.9348966,12.052083 62.0442705,12.015625 62.1171875,12.015625 C63.0286504,12.0520835 63.3932301,12.2526023 63.2109375,12.6171875 C63.0651034,12.653646 62.8463556,12.690104 62.5546875,12.7265625 C61.8619757,12.763021 61.1145873,12.8541659 60.3125,13 C61.7708406,15.5156376 63.3749912,17.0468723 65.125,17.59375 C65.4166681,17.7031255 65.5625,17.7760415 65.5625,17.8125 C65.5625,17.885417 65.4348971,17.921875 65.1796875,17.921875 C64.1223905,18.0312505 63.3750022,17.9947926 62.9375,17.8125 C62.4635393,17.5572904 61.5338611,16.0625137 60.1484375,13.328125 C60.111979,14.0208368 60.09375,15.3333237 60.09375,17.265625 C60.2395841,17.2291665 60.4401029,17.1744795 60.6953125,17.1015625 C60.9505221,16.9557284 61.1510409,16.9010415 61.296875,16.9375 C61.6250016,17.010417 61.7890625,17.1197909 61.7890625,17.265625 C61.7890625,17.4114591 61.6067727,17.502604 61.2421875,17.5390625 C61.205729,17.5390625 61.0963551,17.5755205 60.9140625,17.6484375 C60.6223944,17.684896 60.3671886,17.739583 60.1484375,17.8125 L60.1484375,19.453125 C60.1484375,20.583339 60.0390636,21.1666665 59.8203125,21.203125 C59.5286444,21.0572909 59.3098966,20.7109402 59.1640625,20.1640625 C59.1640625,20.127604 59.1822915,20.072917 59.21875,20 C59.4010426,19.5260393 59.4921875,18.8333379 59.4921875,17.921875 C59.1640609,17.994792 58.8541681,18.013021 58.5625,17.9765625 C58.2708319,17.940104 58.0338551,17.885417 57.8515625,17.8125 C57.7786455,17.739583 57.8515614,17.666667 58.0703125,17.59375 C58.8723998,17.520833 59.3645824,17.447917 59.546875,17.375 L59.546875,15.625 C59.5833335,14.7135371 59.6015625,14.0390647 59.6015625,13.6015625 C58.9088507,15.5338638 57.7239667,17.0468695 56.046875,18.140625 L55.828125,18.0859375 C55.828125,18.4869812 55.809896,18.9427058 55.7734375,19.453125 L55.7734375,19.7265625 C55.7005205,20.3463573 55.5729176,20.5651051 55.390625,20.3828125 C55.1354154,20.0911444 54.9895835,19.6354198 54.953125,19.015625 C54.9166665,18.8333324 54.9713534,18.5781266 55.1171875,18.25 C55.1901045,17.9947904 55.2447915,17.7942716 55.28125,17.6484375 C55.354167,17.2109353 55.408854,16.40886 55.4453125,15.2421875 C55.4453125,14.1848905 55.4088545,13.619792 55.3359375,13.546875 C54.4609331,14.822923 53.6406288,15.6979143 52.875,16.171875 C52.7291659,16.2812505 52.638021,16.3177085 52.6015625,16.28125 C52.565104,16.208333 52.601562,16.0989591 52.7109375,15.953125 C54.6067803,13.8020726 55.6822904,11.8698002 55.9375,10.15625 C55.9010415,9.97395742 55.9192705,9.86458352 55.9921875,9.828125 C56.028646,9.75520797 56.1197909,9.75520797 56.265625,9.828125 C56.9947953,10.2291687 57.2500011,10.5937484 57.03125,10.921875 C56.8489574,11.0677091 56.5026067,11.5781206 55.9921875,12.453125 C55.8098949,12.8177102 55.664063,13.0911449 55.5546875,13.2734375 C55.9557312,13.5651056 56.0833341,13.8567694 55.9375,14.1484375 C55.9010415,14.2942716 55.8645835,14.7682252 55.828125,15.5703125 C55.7916665,16.4453169 55.7916665,17.2291632 55.828125,17.921875 C57.2135486,17.0468706 58.3255166,15.479178 59.1640625,13.21875 C58.5078092,13.3281255 58.0338556,13.4192705 57.7421875,13.4921875 C57.1223927,13.3463534 56.9036449,13.2005216 57.0859375,13.0546875 C57.8880248,12.9817705 58.7265581,12.8359386 59.6015625,12.6171875 C59.638021,10.9400958 59.5468761,9.91927266 59.328125,9.5546875 C59.255208,9.48177047 59.236979,9.40885453 59.2734375,9.3359375 C59.309896,9.26302047 59.382812,9.24479148 59.4921875,9.28125 Z" id="方正楷体"></path>
                    </g>
                </g>
            </g>
        </g>
    </g>
</svg>