<?xml version="1.0" encoding="UTF-8"?>
<svg width="56px" height="14px" viewBox="0 0 56 14" version="1.1" xmlns="http://www.w3.org/2000/svg" xmlns:xlink="http://www.w3.org/1999/xlink">
    <!-- Generator: Sketch 52.6 (67491) - http://www.bohemiancoding.com/sketch -->
    <title>方正书宋</title>
    <desc>Created with Sketch.</desc>
    <g id="Page-1" stroke="none" stroke-width="1" fill="none" fill-rule="evenodd">
        <g id="图表-文字" transform="translate(-1072.000000, -553.000000)" fill="#FFFFFF">
            <g id="下拉框" transform="translate(1062.000000, 395.000000)">
                <g id="组合-&lt;v0&gt;">
                    <g id="6" transform="translate(0.000000, 150.000000)">
                        <path d="M15.4140625,8.515625 C16.653652,9.17187828 17.3828114,9.77343477 17.6015625,10.3203125 C17.6015625,11.0130243 17.3098988,11.395833 16.7265625,11.46875 C16.617187,11.46875 16.544271,11.3229181 16.5078125,11.03125 C16.4348955,10.1927041 16.0338578,9.39062883 15.3046875,8.625 L15.4140625,8.515625 Z M22.25,10.703125 L23.6171875,11.8515625 L23.5625,11.9609375 L16.671875,11.9609375 C16.6354165,12.3255227 16.5078136,13.09114 16.2890625,14.2578125 L19.4609375,14.2578125 C19.5338545,14.2578125 19.7708313,14.0390647 20.171875,13.6015625 C20.8645868,14.2578158 21.2109375,14.6223955 21.2109375,14.6953125 L21.046875,14.859375 C20.7187484,15.0781261 20.5546875,15.205729 20.5546875,15.2421875 C20.518229,15.4609386 20.481771,15.8802052 20.4453125,16.5 C20.2630199,18.4687598 20.0807301,19.6171859 19.8984375,19.9453125 C19.6067694,20.5651073 18.9869839,21.0208319 18.0390625,21.3125 C18.1119795,20.6197882 17.4921941,20.1458346 16.1796875,19.890625 L16.1796875,19.7265625 C17.8203207,20.0546891 18.7499989,20.0000022 18.96875,19.5625 C19.1875011,19.1614563 19.3880199,17.8489695 19.5703125,15.625 C19.606771,15.1874978 19.643229,14.8411471 19.6796875,14.5859375 L16.234375,14.5859375 C15.8697898,18.4140816 14.0286624,20.7656206 10.7109375,21.640625 L10.65625,21.4765625 C13.8645994,20.1275974 15.5416659,16.9557541 15.6875,11.9609375 L11.2578125,11.9609375 L10.6015625,12.125 L10.2734375,11.6328125 L21.484375,11.6328125 L22.25,10.703125 Z M35.484375,9.3359375 L36.796875,10.5390625 L36.7421875,10.6484375 L31.65625,10.6484375 L31.65625,14.9140625 L34.171875,14.9140625 L34.7734375,14.09375 L35.921875,15.1875 L35.921875,15.2421875 L31.65625,15.2421875 L31.65625,20.4375 L35.15625,20.4375 L35.8125,19.453125 L37.34375,20.65625 L37.2890625,20.765625 L25.640625,20.765625 L24.8203125,20.875 L24.3828125,20.4375 L27.0078125,20.4375 L27.0078125,15.40625 L26.953125,13.328125 C27.026042,13.3645835 27.117187,13.4010415 27.2265625,13.4375 C28.0286498,13.7291681 28.4114585,13.893229 28.375,13.9296875 C28.375,14.0026045 28.2109391,14.1666654 27.8828125,14.421875 L27.8828125,20.4375 L30.671875,20.4375 L30.671875,10.6484375 L26.625,10.6484375 L25.8046875,10.8671875 L25.3671875,10.3203125 L34.828125,10.3203125 L35.484375,9.3359375 Z M43.8515625,8.515625 C44.8359424,8.84375164 45.328125,9.02604148 45.328125,9.0625 C45.328125,9.09895852 45.2552091,9.19010344 45.109375,9.3359375 C44.8906239,9.55468859 44.78125,9.70052047 44.78125,9.7734375 L44.78125,11.8515625 L47.4609375,11.8515625 C47.5338545,11.8515625 47.6979154,11.7057306 47.953125,11.4140625 L48.1171875,11.25 C48.3723971,11.3958341 48.7187478,11.7057268 49.15625,12.1796875 L48.9375,12.34375 C48.7187489,12.4531255 48.591146,12.5260415 48.5546875,12.5625 L48.28125,15.296875 L49.265625,15.296875 C49.338542,15.296875 49.4661449,15.1692721 49.6484375,14.9140625 C49.7942716,14.7317699 49.8854165,14.640625 49.921875,14.640625 C50.5052113,15.0052102 50.8880199,15.3333319 51.0703125,15.625 L50.90625,15.734375 C50.5781234,15.9531261 50.3958335,16.117187 50.359375,16.2265625 L50.359375,16.5 C50.2135409,18.2500087 50.0130221,19.3255188 49.7578125,19.7265625 C49.3203103,20.1640647 48.8098988,20.4374995 48.2265625,20.546875 L48.171875,20.3828125 C48.098958,19.7265592 47.6250044,19.3255216 46.75,19.1796875 L46.75,19.0703125 C48.1718821,19.2526051 48.9374995,19.2526051 49.046875,19.0703125 C49.3750016,18.1588496 49.5572915,17.0104236 49.59375,15.625 L44.78125,15.625 L44.8359375,21.09375 C44.6901034,21.3489596 44.3619817,21.5130205 43.8515625,21.5859375 L43.8515625,15.625 L39.859375,15.625 L39.09375,15.7890625 L38.765625,15.296875 L43.8515625,15.296875 L43.8515625,12.1796875 L40.8984375,12.1796875 L40.2421875,12.2890625 L39.9140625,11.8515625 L43.8515625,11.8515625 L43.8515625,8.515625 Z M47.296875,9.390625 C48.9375082,9.60937609 49.8854154,9.88281086 50.140625,10.2109375 C50.6145857,10.8307323 50.6328147,11.3593728 50.1953125,11.796875 C50.1223955,11.796875 49.9765636,11.6692721 49.7578125,11.4140625 C49.0651007,10.5390581 48.2447964,9.90104367 47.296875,9.5 L47.296875,9.390625 Z M44.78125,12.1796875 L44.78125,15.296875 L47.40625,15.296875 L47.734375,12.234375 L47.734375,12.1796875 L44.78125,12.1796875 Z M57.8515625,8.5703125 C58.8359424,8.86198063 59.4192699,9.15364438 59.6015625,9.4453125 C59.8567721,9.88281469 59.7291692,10.3020813 59.21875,10.703125 L63.4296875,10.703125 C63.7942727,10.1562473 63.9947915,9.8828125 64.03125,9.8828125 L64.25,10.046875 C65.1979214,10.7760453 65.635417,11.158854 65.5625,11.1953125 C65.5625,11.231771 65.526042,11.231771 65.453125,11.1953125 C64.6874962,11.1223955 63.739589,11.723952 62.609375,13 L62.4453125,12.890625 C62.5182295,12.7812495 62.6458324,12.5807306 62.828125,12.2890625 C63.3020857,11.4140581 63.5026045,10.9947915 63.4296875,11.03125 L54.734375,11.03125 C54.7708335,11.9791714 54.5156277,12.6171859 53.96875,12.9453125 C53.6406234,13.0911466 53.3307306,13.0729176 53.0390625,12.890625 C52.7838529,12.7083324 52.8020819,12.5078136 53.09375,12.2890625 L53.1484375,12.234375 C53.9140663,11.8697898 54.333333,11.0494855 54.40625,9.7734375 L54.625,9.7734375 L54.734375,10.703125 L58.8359375,10.703125 C58.7630205,10.630208 58.7083335,10.4843761 58.671875,10.265625 C58.5624995,9.60937172 58.2708357,9.08073117 57.796875,8.6796875 L57.8515625,8.5703125 Z M58.34375,11.4140625 C59.2916714,11.6692721 59.765625,11.833333 59.765625,11.90625 L59.546875,12.0703125 C59.4010409,12.1432295 59.309896,12.1979165 59.2734375,12.234375 L59.2734375,14.3671875 L62.8828125,14.3671875 L63.6484375,13.4375 L65.0703125,14.5859375 L65.0703125,14.6953125 L59.875,14.6953125 C60.8958384,17.138033 62.7551948,18.6145808 65.453125,19.125 L65.453125,19.2890625 C64.7604132,19.2890625 64.2317727,19.5442683 63.8671875,20.0546875 C61.7890521,18.9973905 60.3307334,17.2109501 59.4921875,14.6953125 L59.2734375,14.6953125 L59.2734375,21.3125 C58.9088523,21.5312511 58.5807306,21.640625 58.2890625,21.640625 C58.3619795,19.9270748 58.3802085,17.8671995 58.34375,15.4609375 C56.7395753,17.757824 54.734387,19.5442645 52.328125,20.8203125 L52.21875,20.65625 C54.9166802,18.7604072 56.7395786,16.7734479 57.6875,14.6953125 L53.8046875,14.6953125 L53.0390625,14.859375 L52.7109375,14.3671875 L58.3984375,14.3671875 C58.434896,12.9088469 58.416667,11.9244817 58.34375,11.4140625 Z" id="方正书宋"></path>
                    </g>
                </g>
            </g>
        </g>
    </g>
</svg>