<?xml version="1.0" encoding="UTF-8"?>
<svg width="54px" height="14px" viewBox="0 0 54 14" version="1.1" xmlns="http://www.w3.org/2000/svg" xmlns:xlink="http://www.w3.org/1999/xlink">
    <!-- Generator: Sketch 52.6 (67491) - http://www.bohemiancoding.com/sketch -->
    <title>方正仿宋</title>
    <desc>Created with Sketch.</desc>
    <g id="Page-1" stroke="none" stroke-width="1" fill="none" fill-rule="evenodd">
        <g id="图表-文字" transform="translate(-1073.000000, -583.000000)" fill="#FFFFFF">
            <g id="下拉框" transform="translate(1062.000000, 395.000000)">
                <g id="组合-&lt;v0&gt;">
                    <g id="7" transform="translate(0.000000, 180.000000)">
                        <path d="M16.015625,8.7890625 L16.125,8.6796875 C16.6718777,9.22656523 17.2005183,9.90103766 17.7109375,10.703125 C17.6380205,10.8854176 17.4739596,11.1770813 17.21875,11.578125 C17.145833,11.6875005 17.109375,11.6692716 17.109375,11.5234375 C16.8906239,10.6848916 16.5260442,9.77344242 16.015625,8.7890625 Z M16.2890625,19.0703125 L16.3984375,18.9609375 C17.0546908,19.4713567 17.5286444,19.7812495 17.8203125,19.890625 C18.5130243,18.8697866 19.0234359,17.210949 19.3515625,14.9140625 C18.4036411,15.0598966 17.6562527,15.2057284 17.109375,15.3515625 C16.9999995,15.3515625 16.8359386,15.2604176 16.6171875,15.078125 C15.7057246,18.0677233 13.9375131,20.1822855 11.3125,21.421875 L11.203125,21.2578125 C14.0104307,19.5807208 15.7239552,17.1562659 16.34375,13.984375 C16.416667,13.5104143 16.434896,13.0182317 16.3984375,12.5078125 C14.3203021,12.7265636 12.9895863,12.9088534 12.40625,13.0546875 L12.1328125,13.0546875 C11.4765592,12.7630194 11.2031245,12.5807295 11.3125,12.5078125 L11.96875,12.5078125 C14.0468854,12.471354 17.3281026,12.0703163 21.8125,11.3046875 C21.9218755,11.3776045 22.1770813,11.5598944 22.578125,11.8515625 C22.6145835,11.9244795 22.5963545,11.9609375 22.5234375,11.9609375 C19.4973807,12.1796886 17.6197953,12.3437495 16.890625,12.453125 C17.2552102,12.7812516 17.4375,12.9817705 17.4375,13.0546875 L17.328125,13.1640625 C17.2187495,13.2369795 17.1276045,13.4374984 17.0546875,13.765625 C16.9817705,13.9114591 16.9635415,13.966146 17,13.9296875 C16.8177074,14.3307312 16.7083335,14.6588529 16.671875,14.9140625 C17.0000016,14.877604 17.8385349,14.7317721 19.1875,14.4765625 C19.260417,14.440104 19.3880199,14.2942721 19.5703125,14.0390625 L19.7890625,13.8203125 C20.0078136,14.0390636 20.2265614,14.2760404 20.4453125,14.53125 C20.4453125,14.5677085 20.3906255,14.6223955 20.28125,14.6953125 C20.0260404,14.9140636 19.8984375,15.0781245 19.8984375,15.1875 C19.0963502,18.578142 18.4036488,20.5104143 17.8203125,20.984375 C17.783854,20.984375 17.6562511,20.8385431 17.4375,20.546875 C17.2187489,20.2552069 16.8359402,19.7630243 16.2890625,19.0703125 Z M31.3828125,15.078125 L31.3828125,19.2890625 C34.2630352,19.0703114 35.684896,18.9062505 35.6484375,18.796875 C35.684896,18.7604165 35.721354,18.7421875 35.7578125,18.7421875 C36.3046902,18.9973971 36.596354,19.2161449 36.6328125,19.3984375 C32.6952928,19.5807301 29.1770988,19.8359359 26.078125,20.1640625 C25.6041643,19.9817699 25.3489585,19.835938 25.3125,19.7265625 L25.75,19.671875 C26.4791703,19.671875 27.2447877,19.617188 28.046875,19.5078125 C28.0104165,18.6328081 27.9739585,17.2291763 27.9375,15.296875 C27.9010415,14.6406217 27.7734386,14.0390652 27.5546875,13.4921875 L27.6640625,13.4375 C28.1380232,13.8020852 28.4661449,14.0572909 28.6484375,14.203125 C28.6484375,14.2395835 28.6302085,14.2942705 28.59375,14.3671875 C28.520833,14.6223971 28.484375,14.9505188 28.484375,15.3515625 C28.484375,15.460938 28.502604,16.8463409 28.5390625,19.5078125 C29.5599009,19.4348955 30.3072893,19.3802085 30.78125,19.34375 L30.78125,12.015625 C30.708333,11.4322887 30.635417,11.0677091 30.5625,10.921875 C29.9062467,10.9583335 29.2864612,11.0312495 28.703125,11.140625 C28.1197888,11.213542 27.6276062,11.286458 27.2265625,11.359375 C27.190104,11.359375 27.135417,11.341146 27.0625,11.3046875 C26.8437489,11.1223949 26.697917,10.9583341 26.625,10.8125 L27.71875,10.7578125 C30.3802216,10.6119784 32.6588447,10.3203147 34.5546875,9.8828125 C35.0651067,10.2109391 35.3020835,10.429687 35.265625,10.5390625 C35.265625,10.575521 35.0651062,10.59375 34.6640625,10.59375 C33.1328048,10.6302085 31.9479209,10.7213534 31.109375,10.8671875 C31.3645846,11.1953141 31.5286455,11.395833 31.6015625,11.46875 C31.6015625,11.541667 31.5833335,11.596354 31.546875,11.6328125 C31.4374995,11.7786466 31.3828125,11.9791654 31.3828125,12.234375 C31.3828125,12.2708335 31.3645835,12.3072915 31.328125,12.34375 C31.328125,13.2187544 31.346354,13.9661427 31.3828125,14.5859375 C32.8776116,14.4036449 33.8437478,14.1848971 34.28125,13.9296875 C34.28125,13.966146 34.317708,14.020833 34.390625,14.09375 C34.7552102,14.3125011 34.955729,14.458333 34.9921875,14.53125 C34.955729,14.5677085 34.6640652,14.6223955 34.1171875,14.6953125 C33.3880172,14.7682295 32.476568,14.8958324 31.3828125,15.078125 Z M42.9765625,8.734375 L43.140625,8.625 C43.5416687,9.3177118 43.7421875,9.71874945 43.7421875,9.828125 L43.6328125,9.9375 C43.3046859,10.2291681 42.7942743,10.9765565 42.1015625,12.1796875 L42.1015625,19.7265625 C42.1015625,20.9296935 42.0286466,21.513021 41.8828125,21.4765625 C41.5546859,21.1119773 41.335938,20.7109397 41.2265625,20.2734375 C41.2265625,20.236979 41.2447915,20.1458341 41.28125,20 C41.5000011,19.6718734 41.609375,19.3255227 41.609375,18.9609375 L41.6640625,12.7265625 C40.3150974,14.3307372 39.4583352,15.2604154 39.09375,15.515625 L38.9296875,15.3515625 C41.6640762,12.2525887 43.013021,10.0468816 42.9765625,8.734375 Z M45.6015625,8.84375 L45.765625,8.734375 C46.5312538,9.60937937 47.0234364,10.1927069 47.2421875,10.484375 C47.278646,10.8489602 47.1510431,11.2317688 46.859375,11.6328125 C46.8229165,11.6328125 46.7500005,11.4869806 46.640625,11.1953125 C46.3124984,10.3567666 45.9661477,9.57292031 45.6015625,8.84375 Z M46.2578125,13.0546875 L46.640625,13.65625 C46.4947909,13.8750011 46.367188,14.2213518 46.2578125,14.6953125 C46.221354,14.9505221 46.184896,15.1692699 46.1484375,15.3515625 C46.8411493,15.2786455 47.5520797,15.1510426 48.28125,14.96875 C48.3906255,14.96875 48.5182284,14.8411471 48.6640625,14.5859375 C48.6640625,14.549479 48.6822915,14.513021 48.71875,14.4765625 C48.791667,14.513021 49.0286438,14.7317688 49.4296875,15.1328125 L49.265625,15.296875 C49.0833324,15.4062505 48.9921875,15.4973955 48.9921875,15.5703125 C48.1901002,19.5442907 47.4973988,21.53125 46.9140625,21.53125 C46.877604,21.53125 46.841146,21.476563 46.8046875,21.3671875 C46.5859364,20.8932268 46.1484408,20.2552123 45.4921875,19.453125 L45.6015625,19.34375 L46.96875,20.3828125 C47.4791692,19.9453103 47.9531228,18.3047017 48.390625,15.4609375 C47.5520791,15.570313 47.0234386,15.661458 46.8046875,15.734375 L46.53125,15.734375 C46.3854159,15.7708335 46.2213551,15.7161466 46.0390625,15.5703125 C45.2005166,18.2682427 43.9974037,20.164057 42.4296875,21.2578125 L42.3203125,21.09375 C44.544282,18.8697805 45.692708,16.2083488 45.765625,13.109375 C44.7447866,13.2552091 43.9609402,13.4010409 43.4140625,13.546875 C43.3411455,13.5833335 43.3046875,13.5833335 43.3046875,13.546875 C42.9765609,13.4010409 42.757813,13.2369801 42.6484375,13.0546875 C47.8255467,12.4713512 50.2864596,12.0885426 50.03125,11.90625 C50.03125,11.8697915 50.049479,11.8515625 50.0859375,11.8515625 C50.3411471,11.9973966 50.6145819,12.1796864 50.90625,12.3984375 C50.8697915,12.434896 50.6328147,12.489583 50.1953125,12.5625 C48.955723,12.7083341 47.6432361,12.8723949 46.2578125,13.0546875 Z M58.234375,8.625 L58.34375,8.515625 C59.1822959,9.2083368 59.6562495,9.62760344 59.765625,9.7734375 C59.6562495,10.2473982 59.5104176,10.6119779 59.328125,10.8671875 C59.2916665,10.8671875 59.2369795,10.7942716 59.1640625,10.6484375 C59.127604,10.3932279 58.8177113,9.71875547 58.234375,8.625 Z M64.7421875,19.453125 L64.7421875,19.6171875 C63.648432,19.653646 62.9557306,19.690104 62.6640625,19.7265625 C62.4088529,19.763021 62.28125,19.744792 62.28125,19.671875 C62.2447915,19.671875 62.1171886,19.4895852 61.8984375,19.125 C61.2057257,17.8854105 60.3307345,16.5364656 59.2734375,15.078125 L59.2734375,20.4375 C59.2734375,20.9114607 59.2552085,21.1848955 59.21875,21.2578125 C59.21875,21.4036466 59.200521,21.4947915 59.1640625,21.53125 C58.9817699,21.458333 58.7447931,21.0937533 58.453125,20.4375 L58.453125,20.328125 C58.6718761,20.1093739 58.78125,19.7447942 58.78125,19.234375 L58.78125,15.2421875 C56.9218657,17.684908 55.1171962,19.3619746 53.3671875,20.2734375 L53.203125,20.109375 C55.1354263,18.8697855 56.7760349,17.1927189 58.125,15.078125 C56.7395764,15.2604176 55.8828141,15.3880205 55.5546875,15.4609375 C55.2630194,15.3880205 55.0442716,15.2057306 54.8984375,14.9140625 L55.28125,14.9140625 C55.7916692,14.9140625 56.9583242,14.8046886 58.78125,14.5859375 C58.78125,13.346348 58.6901051,12.5442727 58.5078125,12.1796875 L58.5625,12.0703125 C59.0364607,12.4348977 59.3645824,12.6901034 59.546875,12.8359375 C59.546875,12.872396 59.528646,12.908854 59.4921875,12.9453125 C59.382812,13.3463562 59.328125,13.8749967 59.328125,14.53125 C61.2968848,14.3124989 62.317708,14.166667 62.390625,14.09375 C62.4270835,14.0572915 62.4635415,14.0390625 62.5,14.0390625 C62.8281266,14.1848966 63.0833324,14.3854154 63.265625,14.640625 C63.2291665,14.6770835 63.0833346,14.6953125 62.828125,14.6953125 C62.3906228,14.6953125 61.3515707,14.7682284 59.7109375,14.9140625 C60.7317759,16.5182372 61.6432252,17.7031212 62.4453125,18.46875 C62.8463562,18.9062522 63.6119735,19.2343739 64.7421875,19.453125 Z M62.390625,13.109375 L62.2265625,12.9453125 L62.8828125,11.4140625 C60.6223845,11.5598966 58.1614716,11.7604154 55.5,12.015625 C55.3177074,13.291673 55.0625016,13.9296875 54.734375,13.9296875 C54.5885409,13.6380194 54.515625,13.3463556 54.515625,13.0546875 C54.4791665,13.0546875 54.4973955,13.0182295 54.5703125,12.9453125 C55.0078147,12.5442688 55.2447915,11.7057355 55.28125,10.4296875 L55.5,10.4296875 L55.5546875,11.5234375 C59.8567923,11.1953109 62.2994762,10.976563 62.8828125,10.8671875 C62.919271,10.8671875 62.973958,10.7760426 63.046875,10.59375 C63.119792,10.4479159 63.174479,10.375 63.2109375,10.375 C63.6484397,10.7760437 63.9036455,11.0494784 63.9765625,11.1953125 C63.9765625,11.231771 63.9401045,11.286458 63.8671875,11.359375 C63.4661438,11.6510431 62.9739612,12.2343706 62.390625,13.109375 Z" id="方正仿宋"></path>
                    </g>
                </g>
            </g>
        </g>
    </g>
</svg>