<?xml version="1.0" encoding="UTF-8"?>
<svg width="69px" height="10px" viewBox="0 0 69 10" version="1.1" xmlns="http://www.w3.org/2000/svg" xmlns:xlink="http://www.w3.org/1999/xlink">
    <!-- Generator: Sketch 52.6 (67491) - http://www.bohemiancoding.com/sketch -->
    <title>站酷高端黑</title>
    <desc>Created with Sketch.</desc>
    <g id="Page-1" stroke="none" stroke-width="1" fill="none" fill-rule="evenodd">
        <g id="图表-文字" transform="translate(-1073.000000, -615.000000)" fill="#FFFFFF">
            <g id="下拉框" transform="translate(1062.000000, 395.000000)">
                <g id="组合-&lt;v0&gt;">
                    <g id="8" transform="translate(0.000000, 210.000000)">
                        <path d="M22.81,14.4 L22.81,19.23 L16.902,19.23 L16.902,14.4 L18.47,14.414 L18.47,14.4 L18.974,14.4 L18.974,10.676 L20.57,10.676 L20.57,12.146 L22.838,12.146 L22.46,12.776 L20.57,12.776 L20.57,14.4 L22.81,14.4 Z M18.498,15.044 L18.498,18.614 L21.228,18.614 L21.228,14.624 L20.892,15.044 L18.498,15.044 Z M14.354,18.32 L15.194,12.762 L16.888,12.762 L16.02,18.32 L14.354,18.32 Z M12.338,18.32 L11.47,12.762 L13.164,12.762 L14.004,18.32 L12.338,18.32 Z M11.148,11.656 L13.43,11.656 L12.968,10.69 L14.662,10.69 L15.096,11.656 L17.28,11.656 L16.748,12.286 L11.148,12.286 L11.148,11.656 Z M11.148,18.558 L16.804,18.558 L16.272,19.202 L11.148,19.202 L11.148,18.558 Z M30.72,13.252 L30.72,13.938 L33.422,13.938 L33.422,12.244 L32.33,12.244 L32.12,13.252 L30.72,13.252 Z M30.72,12.86 L30.72,13.252 L31.21,11.04 L32.596,11.04 L32.47,11.628 L33.422,11.628 L33.422,10.676 L34.822,10.676 L34.822,11.628 L36.894,11.628 L36.544,12.244 L34.822,12.244 L34.822,13.938 L37.076,13.938 L36.74,14.554 L30.72,14.554 L30.72,19.23 L24.91,19.23 L24.91,12.86 L26.422,12.86 L26.422,11.614 L24.91,11.614 L24.91,11.012 L30.72,11.012 L30.384,11.614 L29.04,11.614 L29.04,12.86 L30.72,12.86 Z M35.004,15.758 L32.568,15.758 L32.568,18.614 L35.354,18.614 L35.354,15.142 L36.74,15.142 L36.74,19.23 L31.182,19.23 L31.182,15.142 L35.354,15.142 L35.004,15.758 Z M27.08,16.486 L26.156,16.486 L26.156,17.158 L29.334,17.158 L29.334,16.276 L29.194,16.486 L27.976,16.486 L27.976,13.476 L27.486,13.476 L27.486,15.394 L27.08,16.486 Z M26.156,18.614 L29.334,18.614 L29.334,17.774 L26.156,17.774 L26.156,18.614 Z M29.04,15.87 L29.334,15.87 L29.334,13.476 L29.04,13.476 L29.04,15.87 Z M27.486,12.86 L27.976,12.86 L27.976,11.614 L27.486,11.614 L27.486,12.86 Z M26.422,15.394 L26.422,13.476 L26.156,13.476 L26.156,16.108 L26.422,15.394 Z M39.134,14.946 L50.782,14.946 L50.782,19.244 L48.08,19.244 L47.702,18.586 L49.172,18.586 L49.172,15.604 L40.73,15.604 L40.73,19.244 L39.134,19.244 L39.134,14.946 Z M49.844,14.456 L40.128,14.456 L40.128,12.398 L49.844,12.398 L49.844,14.456 Z M48.794,18.362 L41.15,18.362 L41.15,16.178 L48.794,16.178 L48.794,18.362 Z M50.502,11.922 L39.064,11.922 L39.064,11.278 L44.258,11.278 L44.258,10.662 L45.854,10.662 L45.854,11.278 L50.922,11.278 L50.502,11.922 Z M41.71,13.868 L48.248,13.868 L48.248,12.524 L47.842,12.944 L41.71,12.944 L41.71,13.868 Z M47.198,16.29 L46.778,16.71 L42.774,16.71 L42.774,17.774 L47.198,17.774 L47.198,16.29 Z M61.912,14.778 L64.894,14.778 L64.894,19.258 L62.346,19.258 L62.136,18.88 L61.842,18.88 L61.842,15.436 L61.058,15.436 L61.058,18.88 L60.078,18.88 L60.078,15.436 L59.602,15.436 L59.602,19.258 L58.006,19.258 L58.006,14.778 L60.316,14.778 L60.624,14.036 L58.006,14.036 L58.006,13.378 L64.894,13.378 L64.516,14.036 L62.22,14.036 L61.912,14.778 Z M64.516,12.958 L58.202,12.958 L58.202,10.676 L59.798,10.676 L59.798,12.314 L60.596,12.314 L60.596,10.676 L62.192,10.676 L62.192,12.314 L62.92,12.314 L62.92,10.676 L64.516,10.676 L64.516,12.958 Z M57.11,17.928 L57.782,17.816 L57.782,18.474 L53.106,19.272 L53.106,18.614 L55.514,18.194 L55.822,12.902 L57.404,12.902 L57.11,17.928 Z M55.29,17.578 L53.694,17.578 L53.428,12.902 L55.01,12.902 L55.29,17.578 Z M56.228,11.628 L57.782,11.628 L57.404,12.286 L53.106,12.286 L53.106,11.628 L54.646,11.628 L54.646,10.634 L56.228,10.634 L56.228,11.628 Z M63.298,14.778 L62.92,15.436 L62.822,15.436 L62.822,18.586 L63.298,18.586 L63.298,14.778 Z M79.146,16.234 L78.768,16.976 L66.84,16.976 L66.84,16.234 L72.258,16.234 L72.258,15.674 L67.428,15.674 L67.428,14.946 L72.258,14.946 L72.258,14.498 L67.358,14.498 L67.358,10.648 L76.836,10.648 L76.458,11.306 L74.022,11.306 L74.022,13.812 L76.85,13.812 L76.85,12.048 L75.926,13.252 L74.4,13.252 L75.408,11.894 L76.85,11.894 L76.85,10.648 L78.502,10.648 L78.502,14.498 L74.022,14.498 L74.022,14.946 L78.656,14.946 L78.264,15.674 L74.022,15.674 L74.022,16.234 L79.146,16.234 Z M72.258,13.812 L72.258,11.306 L69.08,11.306 L69.08,13.812 L72.258,13.812 Z M76.108,19.258 L74.33,19.258 L73.392,17.34 L75.17,17.34 L76.108,19.258 Z M71.572,19.258 L70.606,17.34 L72.356,17.34 L73.294,19.258 L71.572,19.258 Z M68.03,17.34 L69.752,17.34 L68.8,19.258 L67.064,19.258 L68.03,17.34 Z M78.894,19.258 L77.172,19.258 L76.234,17.34 L77.956,17.34 L78.894,19.258 Z M71.642,13.252 L70.634,11.894 L69.01,11.894 L70.046,13.252 L71.642,13.252 Z" id="站酷高端黑"></path>
                    </g>
                </g>
            </g>
        </g>
    </g>
</svg>