<?xml version="1.0" encoding="UTF-8"?>
<svg width="122px" height="12px" viewBox="0 0 122 12" version="1.1" xmlns="http://www.w3.org/2000/svg" xmlns:xlink="http://www.w3.org/1999/xlink">
    <!-- Generator: Sketch 52.6 (67491) - http://www.bohemiancoding.com/sketch -->
    <title>Droid Sans Fallback</title>
    <desc>Created with Sketch.</desc>
    <g id="Page-1" stroke="none" stroke-width="1" fill="none" fill-rule="evenodd">
        <g id="图表-文字" transform="translate(-1073.000000, -645.000000)" fill="#FFFFFF">
            <g id="下拉框" transform="translate(1062.000000, 395.000000)">
                <g id="组合-&lt;v0&gt;">
                    <g id="9" transform="translate(0.000000, 240.000000)">
                        <path d="M11.3671875,21 L11.3671875,10.9921875 L14.15625,10.9921875 C15.5781321,10.9921875 16.6992146,11.4205686 17.5195312,12.2773438 C18.3398479,13.1341189 18.75,14.3463463 18.75,15.9140625 C18.75,17.5546957 18.3216189,18.8124956 17.4648438,19.6875 C16.6080686,20.5625044 15.4140702,21 13.8828125,21 L11.3671875,21 Z M12.625,12.0859375 L12.625,19.90625 L13.71875,19.90625 C14.9583395,19.90625 15.8789032,19.5781283 16.4804688,18.921875 C17.0820343,18.2656217 17.3828125,17.2812566 17.3828125,15.96875 C17.3828125,14.6562434 17.1002632,13.6809928 16.5351562,13.0429688 C15.9700493,12.4049447 15.1224015,12.0859375 13.9921875,12.0859375 L12.625,12.0859375 Z M24.875,13.3984375 L24.7109375,14.546875 C24.4192694,14.5104165 24.1640636,14.4921875 23.9453125,14.4921875 C23.3984348,14.4921875 22.9427102,14.7109353 22.578125,15.1484375 C22.2135398,15.5859397 22.03125,16.1874962 22.03125,16.953125 L22.03125,21 L20.7734375,21 L20.7734375,13.5078125 L21.7578125,13.5078125 L21.921875,14.875 L21.9765625,14.875 C22.5598987,13.8541616 23.2343712,13.34375 24,13.34375 C24.3281266,13.34375 24.6197904,13.361979 24.875,13.3984375 Z M25.9140625,17.2265625 C25.9140625,15.986973 26.2148407,15.0299513 26.8164062,14.3554688 C27.4179718,13.6809862 28.2109326,13.34375 29.1953125,13.34375 C30.1432339,13.34375 30.9270802,13.6901007 31.546875,14.3828125 C32.1666698,15.0755243 32.4765625,16.0234315 32.4765625,17.2265625 C32.4765625,18.5026105 32.1757843,19.4687467 31.5742188,20.125 C30.9726532,20.7812533 30.1796924,21.109375 29.1953125,21.109375 C28.2109326,21.109375 27.4179718,20.7721388 26.8164062,20.0976562 C26.2148407,19.4231737 25.9140625,18.466152 25.9140625,17.2265625 Z M31.1640625,17.2265625 C31.1640625,16.2786411 31.0000016,15.5677107 30.671875,15.09375 C30.3437484,14.6197893 29.8515658,14.3828125 29.1953125,14.3828125 C28.5390592,14.3828125 28.0468766,14.6197893 27.71875,15.09375 C27.3906234,15.5677107 27.2265625,16.2786411 27.2265625,17.2265625 C27.2265625,18.1744839 27.3906234,18.8945288 27.71875,19.3867188 C28.0468766,19.8789087 28.5390592,20.125 29.1953125,20.125 C29.8515658,20.125 30.3437484,19.8789087 30.671875,19.3867188 C31.0000016,18.8945288 31.1640625,18.1744839 31.1640625,17.2265625 Z M35.8125,11.484375 C35.8125,11.7395846 35.7486986,11.9309889 35.6210938,12.0585938 C35.4934889,12.1861986 35.3020846,12.25 35.046875,12.25 C34.8281239,12.25 34.6549486,12.1861986 34.5273438,12.0585938 C34.3997389,11.9309889 34.3359375,11.7395846 34.3359375,11.484375 C34.3359375,11.1927069 34.3997389,10.9830736 34.5273438,10.8554688 C34.6549486,10.7278639 34.8281239,10.6640625 35.046875,10.6640625 C35.3020846,10.6640625 35.4934889,10.7278639 35.6210938,10.8554688 C35.7486986,10.9830736 35.8125,11.1927069 35.8125,11.484375 Z M35.703125,21 L34.4453125,21 L34.4453125,13.5078125 L35.703125,13.5078125 L35.703125,21 Z M42.703125,20.015625 L42.6484375,20.015625 C42.1380183,20.7447953 41.4088589,21.109375 40.4609375,21.109375 C39.6223916,21.109375 38.9388047,20.7903678 38.4101562,20.1523438 C37.8815078,19.5143197 37.6171875,18.557298 37.6171875,17.28125 C37.6171875,15.9687434 37.8815078,14.9843783 38.4101562,14.328125 C38.9388047,13.6718717 39.6223916,13.34375 40.4609375,13.34375 C41.3724004,13.34375 42.1015598,13.7083297 42.6484375,14.4375 L42.703125,14.4375 L42.6484375,13.34375 L42.6484375,10.3359375 L43.8515625,10.3359375 L43.8515625,21 L42.8671875,21 L42.703125,20.015625 Z M42.6484375,17.5546875 L42.6484375,17.28125 C42.6484375,16.1874945 42.4843766,15.4309917 42.15625,15.0117188 C41.8281234,14.5924458 41.3359408,14.3828125 40.6796875,14.3828125 C40.0963512,14.3828125 39.6588556,14.6197893 39.3671875,15.09375 C39.0755194,15.5677107 38.9296875,16.2968701 38.9296875,17.28125 C38.9296875,18.2291714 39.0755194,18.9401018 39.3671875,19.4140625 C39.6588556,19.8880232 40.1145802,20.125 40.734375,20.125 C41.3541698,20.125 41.8281234,19.9244812 42.15625,19.5234375 C42.4843766,19.1223938 42.6484375,18.4661504 42.6484375,17.5546875 Z M49.4296875,20.671875 L49.4296875,19.46875 C50.3046919,19.8333352 51.1432252,20.015625 51.9453125,20.015625 C52.6744828,20.015625 53.2122379,19.8880221 53.5585938,19.6328125 C53.9049496,19.3776029 54.078125,18.9765652 54.078125,18.4296875 C54.078125,17.9921853 53.9505221,17.6276056 53.6953125,17.3359375 C53.5130199,17.1536449 52.8385475,16.8072942 51.671875,16.296875 C50.9062462,15.9322898 50.3593766,15.5312522 50.03125,15.09375 C49.7031234,14.6562478 49.5390625,14.0911493 49.5390625,13.3984375 C49.5390625,12.6328087 49.8033828,12.0221377 50.3320312,11.5664062 C50.8606797,11.1106748 51.5989536,10.8828125 52.546875,10.8828125 C53.5312549,10.8828125 54.4062462,11.0651023 55.171875,11.4296875 L54.734375,12.46875 C53.9687462,12.1406234 53.2395868,11.9765625 52.546875,11.9765625 C51.9635387,11.9765625 51.5260431,12.1041654 51.234375,12.359375 C50.9427069,12.6145846 50.796875,12.9609353 50.796875,13.3984375 C50.796875,13.9088567 50.9153634,14.2825509 51.1523438,14.5195312 C51.3893241,14.7565116 51.9908806,15.0846333 52.9570312,15.5039062 C53.9231819,15.9231792 54.5611964,16.3424458 54.8710938,16.7617188 C55.1809911,17.1809917 55.3359375,17.7005177 55.3359375,18.3203125 C55.3359375,19.1588584 55.0442738,19.8333308 54.4609375,20.34375 C53.8776012,20.8541692 53.039068,21.109375 51.9453125,21.109375 C50.8880155,21.109375 50.0494823,20.9635431 49.4296875,20.671875 Z M61.40625,21 L61.1875,19.9609375 L61.1328125,19.9609375 C60.5859348,20.7265663 59.8203174,21.109375 58.8359375,21.109375 C58.1432257,21.109375 57.6054707,20.9179707 57.2226562,20.5351562 C56.8398418,20.1523418 56.6484375,19.6145868 56.6484375,18.921875 C56.6484375,17.3906173 57.7057186,16.588542 59.8203125,16.515625 L61.078125,16.4609375 L61.078125,16.0234375 C61.078125,15.4765598 60.9596366,15.0664076 60.7226562,14.7929688 C60.4856759,14.5195299 60.1119817,14.3828125 59.6015625,14.3828125 C58.9817677,14.3828125 58.3255243,14.5651023 57.6328125,14.9296875 L57.1953125,14 C57.9973998,13.5624978 58.7994752,13.34375 59.6015625,13.34375 C60.5494839,13.34375 61.2421853,13.5442688 61.6796875,13.9453125 C62.1171897,14.3463562 62.3359375,14.9843706 62.3359375,15.859375 L62.3359375,21 L61.40625,21 Z M61.078125,17.3359375 L60.09375,17.390625 C59.2552041,17.4270835 58.6809911,17.5729154 58.3710938,17.828125 C58.0611964,18.0833346 57.90625,18.4479143 57.90625,18.921875 C57.90625,19.3229187 58.0065094,19.6236969 58.2070312,19.8242188 C58.4075531,20.0247406 58.7083313,20.125 59.109375,20.125 C59.7291698,20.125 60.2122379,19.9427102 60.5585938,19.578125 C60.9049496,19.2135398 61.078125,18.6848993 61.078125,17.9921875 L61.078125,17.3359375 Z M69.3359375,21 L69.3359375,16.1875 C69.3359375,15.5677052 69.2083346,15.1119806 68.953125,14.8203125 C68.6979154,14.5286444 68.3151067,14.3828125 67.8046875,14.3828125 C67.1848927,14.3828125 66.7109391,14.5924458 66.3828125,15.0117188 C66.0546859,15.4309917 65.890625,16.1328076 65.890625,17.1171875 L65.890625,21 L64.6328125,21 L64.6328125,13.5078125 L65.6171875,13.5078125 L65.8359375,14.4921875 L65.890625,14.4921875 C66.3281272,13.7265587 67.0390576,13.34375 68.0234375,13.34375 C68.8619834,13.34375 69.4908833,13.5716123 69.9101562,14.0273438 C70.3294292,14.4830752 70.5390625,15.1666621 70.5390625,16.078125 L70.5390625,21 L69.3359375,21 Z M72.2890625,20.671875 L72.2890625,19.5234375 C73.0911498,19.9244812 73.8385382,20.125 74.53125,20.125 C75.0781277,20.125 75.4882799,20.0338551 75.7617188,19.8515625 C76.0351576,19.6692699 76.171875,19.3958352 76.171875,19.03125 C76.171875,18.7395819 76.0716156,18.5117196 75.8710938,18.3476562 C75.6705719,18.1835929 75.1601604,17.9101582 74.3398438,17.5273438 C73.5195271,17.1445293 72.9908866,16.7981786 72.7539062,16.4882812 C72.5169259,16.1783839 72.3984375,15.8046897 72.3984375,15.3671875 C72.3984375,14.7473927 72.6262998,14.2552102 73.0820312,13.890625 C73.5377627,13.5260398 74.1848916,13.34375 75.0234375,13.34375 C75.7890663,13.34375 76.5364547,13.5260398 77.265625,13.890625 L76.828125,14.875 C76.0989547,14.5468734 75.4791692,14.3828125 74.96875,14.3828125 C74.5312478,14.3828125 74.1940116,14.4557284 73.9570312,14.6015625 C73.7200509,14.7473966 73.6015625,14.9661444 73.6015625,15.2578125 C73.6015625,15.5494806 73.6927074,15.7773429 73.875,15.9414062 C74.0572926,16.1054696 74.5677041,16.3697898 75.40625,16.734375 C76.2447959,17.0989602 76.7825509,17.4453109 77.0195312,17.7734375 C77.2565116,18.1015641 77.375,18.4843728 77.375,18.921875 C77.375,19.6145868 77.1380232,20.1523418 76.6640625,20.5351562 C76.1901018,20.9179707 75.4791714,21.109375 74.53125,21.109375 C73.5833286,21.109375 72.8359402,20.9635431 72.2890625,20.671875 Z M84.3203125,21 L83.0625,21 L83.0625,10.9921875 L88.2578125,10.9921875 L88.2578125,12.140625 L84.3203125,12.140625 L84.3203125,15.640625 L87.984375,15.640625 L87.984375,16.7890625 L84.3203125,16.7890625 L84.3203125,21 Z M94,21 L93.78125,19.9609375 L93.7265625,19.9609375 C93.1796848,20.7265663 92.4140674,21.109375 91.4296875,21.109375 C90.7369757,21.109375 90.1992207,20.9179707 89.8164062,20.5351562 C89.4335918,20.1523418 89.2421875,19.6145868 89.2421875,18.921875 C89.2421875,17.3906173 90.2994686,16.588542 92.4140625,16.515625 L93.671875,16.4609375 L93.671875,16.0234375 C93.671875,15.4765598 93.5533866,15.0664076 93.3164062,14.7929688 C93.0794259,14.5195299 92.7057317,14.3828125 92.1953125,14.3828125 C91.5755177,14.3828125 90.9192743,14.5651023 90.2265625,14.9296875 L89.7890625,14 C90.5911498,13.5624978 91.3932252,13.34375 92.1953125,13.34375 C93.1432339,13.34375 93.8359353,13.5442688 94.2734375,13.9453125 C94.7109397,14.3463562 94.9296875,14.9843706 94.9296875,15.859375 L94.9296875,21 L94,21 Z M93.671875,17.3359375 L92.6875,17.390625 C91.8489541,17.4270835 91.2747411,17.5729154 90.9648438,17.828125 C90.6549464,18.0833346 90.5,18.4479143 90.5,18.921875 C90.5,19.3229187 90.6002594,19.6236969 90.8007812,19.8242188 C91.0013031,20.0247406 91.3020813,20.125 91.703125,20.125 C92.3229198,20.125 92.8059879,19.9427102 93.1523438,19.578125 C93.4986996,19.2135398 93.671875,18.6848993 93.671875,17.9921875 L93.671875,17.3359375 Z M98.484375,21 L97.2265625,21 L97.2265625,10.3359375 L98.484375,10.3359375 L98.484375,21 Z M102.09375,21 L100.835938,21 L100.835938,10.3359375 L102.09375,10.3359375 L102.09375,21 Z M105.703125,20.0703125 L105.59375,20.0703125 L105.320312,21 L104.445312,21 L104.445312,10.3359375 L105.703125,10.3359375 L105.703125,12.90625 C105.703125,13.3072937 105.684896,13.8359342 105.648438,14.4921875 L105.703125,14.4921875 C106.177086,13.7265587 106.888016,13.34375 107.835938,13.34375 C108.674483,13.34375 109.35807,13.6718717 109.886719,14.328125 C110.415367,14.9843783 110.679688,15.9505145 110.679688,17.2265625 C110.679688,18.5026105 110.415367,19.4687467 109.886719,20.125 C109.35807,20.7812533 108.674483,21.109375 107.835938,21.109375 C106.888016,21.109375 106.177086,20.7630243 105.703125,20.0703125 Z M107.617188,20.125 C108.200524,20.125 108.638019,19.8789087 108.929688,19.3867188 C109.221356,18.8945288 109.367188,18.1744839 109.367188,17.2265625 C109.367188,16.2786411 109.221356,15.5677107 108.929688,15.09375 C108.638019,14.6197893 108.182295,14.3828125 107.5625,14.3828125 C106.942705,14.3828125 106.477866,14.5833313 106.167969,14.984375 C105.858071,15.3854187 105.703125,16.132807 105.703125,17.2265625 C105.703125,18.320318 105.858071,19.0768208 106.167969,19.4960938 C106.477866,19.9153667 106.960934,20.125 107.617188,20.125 Z M116.859375,21 L116.640625,19.9609375 L116.585938,19.9609375 C116.03906,20.7265663 115.273442,21.109375 114.289062,21.109375 C113.596351,21.109375 113.058596,20.9179707 112.675781,20.5351562 C112.292967,20.1523418 112.101562,19.6145868 112.101562,18.921875 C112.101562,17.3906173 113.158844,16.588542 115.273438,16.515625 L116.53125,16.4609375 L116.53125,16.0234375 C116.53125,15.4765598 116.412762,15.0664076 116.175781,14.7929688 C115.938801,14.5195299 115.565107,14.3828125 115.054688,14.3828125 C114.434893,14.3828125 113.778649,14.5651023 113.085938,14.9296875 L112.648438,14 C113.450525,13.5624978 114.2526,13.34375 115.054688,13.34375 C116.002609,13.34375 116.69531,13.5442688 117.132812,13.9453125 C117.570315,14.3463562 117.789062,14.9843706 117.789062,15.859375 L117.789062,21 L116.859375,21 Z M116.53125,17.3359375 L115.546875,17.390625 C114.708329,17.4270835 114.134116,17.5729154 113.824219,17.828125 C113.514321,18.0833346 113.359375,18.4479143 113.359375,18.921875 C113.359375,19.3229187 113.459634,19.6236969 113.660156,19.8242188 C113.860678,20.0247406 114.161456,20.125 114.5625,20.125 C115.182295,20.125 115.665363,19.9427102 116.011719,19.578125 C116.358075,19.2135398 116.53125,18.6848993 116.53125,17.9921875 L116.53125,17.3359375 Z M124.898438,13.78125 L124.515625,14.8203125 C123.932289,14.5651029 123.421877,14.4375 122.984375,14.4375 C122.291663,14.4375 121.781252,14.6744768 121.453125,15.1484375 C121.124998,15.6223982 120.960938,16.3333286 120.960938,17.28125 C120.960938,18.1927129 121.124998,18.8854143 121.453125,19.359375 C121.781252,19.8333357 122.273434,20.0703125 122.929688,20.0703125 C123.549482,20.0703125 124.169268,19.9244806 124.789062,19.6328125 L124.789062,20.7265625 C124.278643,20.9817721 123.658858,21.109375 122.929688,21.109375 C121.908849,21.109375 121.106774,20.7903678 120.523438,20.1523438 C119.940101,19.5143197 119.648438,18.557298 119.648438,17.28125 C119.648438,15.9687434 119.949216,14.9843783 120.550781,14.328125 C121.152347,13.6718717 121.963537,13.34375 122.984375,13.34375 C123.677087,13.34375 124.315101,13.4895819 124.898438,13.78125 Z M127.742188,17.1171875 L130.640625,13.5078125 L132.117188,13.5078125 L129.382812,16.734375 L132.28125,21 L130.859375,21 L128.5625,17.5546875 L127.796875,18.1015625 L127.796875,21 L126.59375,21 L126.59375,10.3359375 L127.796875,10.3359375 L127.796875,15.2578125 L127.6875,17.1171875 L127.742188,17.1171875 Z" id="Droid-Sans-Fallback"></path>
                    </g>
                </g>
            </g>
        </g>
    </g>
</svg>