<?xml version="1.0" encoding="UTF-8"?>
<svg width="126px" height="14px" viewBox="0 0 126 14" version="1.1" xmlns="http://www.w3.org/2000/svg" xmlns:xlink="http://www.w3.org/1999/xlink">
    <!-- Generator: Sketch 60.1 (88133) - https://sketch.com -->
    <title>阿里巴巴普惠体细体</title>
    <desc>Created with Sketch.</desc>
    <g id="Page-1" stroke="none" stroke-width="1" fill="none" fill-rule="evenodd">
        <g id="图表-文字" transform="translate(-679.000000, -166.000000)" fill="#FFFFFF" fill-rule="nonzero">
            <g id="下拉框" transform="translate(668.000000, 158.000000)">
                <g id="组合-&lt;v0&gt;">
                    <g id="1">
                        <path d="M12.1,21.316 L12.1,10.256 L14.466,10.256 L13.318,13.756 C13.738,14.316 14.0483333,14.841 14.249,15.331 C14.4496667,15.821 14.55,16.29 14.55,16.738 C14.55,16.99 14.529,17.2 14.487,17.368 C14.445,17.536 14.3726667,17.6713333 14.27,17.774 C14.1673333,17.8766667 14.0273333,17.9536667 13.85,18.005 C13.6726667,18.0563333 13.444,18.1006667 13.164,18.138 L13.164,18.138 L12.604,18.194 L12.772,18.656 L13.234,18.586 C13.5606667,18.5393333 13.8336667,18.481 14.053,18.411 C14.2723333,18.341 14.4496667,18.2406667 14.585,18.11 C14.7203333,17.9793333 14.8183333,17.8113333 14.879,17.606 C14.9396667,17.4006667 14.97,17.1346667 14.97,16.808 C14.97,16.2946667 14.8766667,15.7813333 14.69,15.268 C14.5033333,14.7546667 14.2,14.218 13.78,13.658 L13.78,13.658 L14.914,10.256 L14.914,9.78 L11.666,9.78 L11.666,21.316 L12.1,21.316 Z M19.156,21.05 L19.8,21.008 C20.1733333,20.98 20.479,20.938 20.717,20.882 C20.955,20.826 21.1416667,20.735 21.277,20.609 C21.4123333,20.483 21.5056667,20.322 21.557,20.126 C21.6083333,19.93 21.634,19.678 21.634,19.37 L21.634,19.37 L21.634,10.508 L23.104,10.508 L23.104,10.032 L15.572,10.032 L15.572,10.508 L21.172,10.508 L21.172,19.258 C21.172,19.5006667 21.1533333,19.7013333 21.116,19.86 C21.0786667,20.0186667 21.0063333,20.1423333 20.899,20.231 C20.7916667,20.3196667 20.6423333,20.385 20.451,20.427 C20.2596667,20.469 20.0146667,20.4993333 19.716,20.518 L19.716,20.518 L18.974,20.546 L19.156,21.05 Z M19.268,17.774 L19.268,12.818 L15.964,12.818 L15.964,17.774 L19.268,17.774 Z M18.848,17.312 L16.384,17.312 L16.384,13.294 L18.848,13.294 L18.848,17.312 Z M36.712,20.672 L36.712,20.21 L30.888,20.21 L30.888,18.068 L35.606,18.068 L35.606,17.606 L30.888,17.606 L30.888,15.618 L35.2,15.618 L35.2,9.654 L26.086,9.654 L26.086,15.618 L30.426,15.618 L30.426,17.606 L25.694,17.606 L25.694,18.068 L30.426,18.068 L30.426,20.21 L24.574,20.21 L24.574,20.672 L36.712,20.672 Z M30.426,12.398 L26.576,12.398 L26.576,10.102 L30.426,10.102 L30.426,12.398 Z M34.724,12.398 L30.888,12.398 L30.888,10.102 L34.724,10.102 L34.724,12.398 Z M30.426,15.156 L26.576,15.156 L26.576,12.832 L30.426,12.832 L30.426,15.156 Z M34.724,15.156 L30.888,15.156 L30.888,12.832 L34.724,12.832 L34.724,15.156 Z M41.766,20.77 C43.838,20.8446667 45.91,20.8446667 47.982,20.77 C48.3646667,20.7606667 48.6796667,20.728 48.927,20.672 C49.1743333,20.616 49.3726667,20.5273333 49.522,20.406 C49.6713333,20.2846667 49.7856667,20.119 49.865,19.909 C49.9443333,19.699 50.0073333,19.4306667 50.054,19.104 C50.1006667,18.8333333 50.1356667,18.593 50.159,18.383 C50.1823333,18.173 50.1986667,18.0446667 50.208,17.998 L50.208,17.998 L49.704,17.816 C49.704,17.844 49.6923333,17.97 49.669,18.194 C49.6456667,18.418 49.6106667,18.6606667 49.564,18.922 C49.5173333,19.1926667 49.466,19.4143333 49.41,19.587 C49.354,19.7596667 49.27,19.8973333 49.158,20 C49.046,20.1026667 48.892,20.175 48.696,20.217 C48.5,20.259 48.234,20.2846667 47.898,20.294 C45.8913333,20.3686667 43.8893333,20.3686667 41.892,20.294 C41.556,20.2846667 41.2783333,20.2543333 41.059,20.203 C40.8396667,20.1516667 40.667,20.063 40.541,19.937 C40.415,19.811 40.3263333,19.6383333 40.275,19.419 C40.2236667,19.1996667 40.198,18.9173333 40.198,18.572 L40.198,18.572 L40.198,15.086 L48.962,15.086 L48.962,9.78 L39.708,9.78 L39.708,18.656 C39.708,19.0573333 39.7406667,19.391 39.806,19.657 C39.8713333,19.923 39.9833333,20.1353333 40.142,20.294 C40.3006667,20.4526667 40.513,20.5693333 40.779,20.644 C41.045,20.7186667 41.374,20.7606667 41.766,20.77 Z M44.132,14.582 L40.198,14.582 L40.198,10.256 L44.132,10.256 L44.132,14.582 Z M48.458,14.582 L44.622,14.582 L44.622,10.256 L48.458,10.256 L48.458,14.582 Z M55.542,20.77 C57.614,20.8446667 59.686,20.8446667 61.758,20.77 C62.1406667,20.7606667 62.4556667,20.728 62.703,20.672 C62.9503333,20.616 63.1486667,20.5273333 63.298,20.406 C63.4473333,20.2846667 63.5616667,20.119 63.641,19.909 C63.7203333,19.699 63.7833333,19.4306667 63.83,19.104 C63.8766667,18.8333333 63.9116667,18.593 63.935,18.383 C63.9583333,18.173 63.9746667,18.0446667 63.984,17.998 L63.984,17.998 L63.48,17.816 C63.48,17.844 63.4683333,17.97 63.445,18.194 C63.4216667,18.418 63.3866667,18.6606667 63.34,18.922 C63.2933333,19.1926667 63.242,19.4143333 63.186,19.587 C63.13,19.7596667 63.046,19.8973333 62.934,20 C62.822,20.1026667 62.668,20.175 62.472,20.217 C62.276,20.259 62.01,20.2846667 61.674,20.294 C59.6673333,20.3686667 57.6653333,20.3686667 55.668,20.294 C55.332,20.2846667 55.0543333,20.2543333 54.835,20.203 C54.6156667,20.1516667 54.443,20.063 54.317,19.937 C54.191,19.811 54.1023333,19.6383333 54.051,19.419 C53.9996667,19.1996667 53.974,18.9173333 53.974,18.572 L53.974,18.572 L53.974,15.086 L62.738,15.086 L62.738,9.78 L53.484,9.78 L53.484,18.656 C53.484,19.0573333 53.5166667,19.391 53.582,19.657 C53.6473333,19.923 53.7593333,20.1353333 53.918,20.294 C54.0766667,20.4526667 54.289,20.5693333 54.555,20.644 C54.821,20.7186667 55.15,20.7606667 55.542,20.77 Z M57.908,14.582 L53.974,14.582 L53.974,10.256 L57.908,10.256 L57.908,14.582 Z M62.234,14.582 L58.398,14.582 L58.398,10.256 L62.234,10.256 L62.234,14.582 Z M70.396,10.508 L70.76,10.228 C70.676,10.116 70.5686667,9.98766667 70.438,9.843 C70.3073333,9.69833333 70.172,9.55133333 70.032,9.402 C69.892,9.25266667 69.7543333,9.11033333 69.619,8.975 C69.4836667,8.83966667 69.3646667,8.72533333 69.262,8.632 L69.262,8.632 L68.898,8.898 C69.01,9.00066667 69.1383333,9.122 69.283,9.262 C69.4276667,9.402 69.57,9.54666667 69.71,9.696 C69.85,9.84533333 69.9806667,9.99 70.102,10.13 C70.2233333,10.27 70.3213333,10.396 70.396,10.508 L70.396,10.508 Z M78.152,14.554 L78.152,14.12 L73.574,14.12 L73.574,10.97 L77.41,10.97 L77.41,10.536 L73.812,10.536 C73.924,10.4053333 74.0453333,10.2676667 74.176,10.123 C74.3066667,9.97833333 74.4326667,9.83366667 74.554,9.689 C74.6753333,9.54433333 74.7896667,9.40666667 74.897,9.276 C75.0043333,9.14533333 75.0953333,9.02866667 75.17,8.926 L75.17,8.926 L74.792,8.674 C74.708,8.786 74.6006667,8.92133333 74.47,9.08 C74.3393333,9.23866667 74.1993333,9.40666667 74.05,9.584 C73.9006667,9.76133333 73.7513333,9.934 73.602,10.102 C73.4526667,10.27 73.322,10.4146667 73.21,10.536 L73.21,10.536 L66.602,10.536 L66.602,10.97 L70.424,10.97 L70.424,14.12 L65.86,14.12 L65.86,14.554 L78.152,14.554 Z M73.14,14.12 L70.872,14.12 L70.872,10.97 L73.14,10.97 L73.14,14.12 Z M69.122,13.63 L69.458,13.308 C69.3553333,13.1866667 69.2246667,13.0373333 69.066,12.86 C68.9073333,12.6826667 68.7416667,12.5006667 68.569,12.314 C68.3963333,12.1273333 68.2283333,11.9476667 68.065,11.775 C67.9016667,11.6023333 67.7593333,11.46 67.638,11.348 L67.638,11.348 L67.33,11.67 C67.442,11.782 67.5796667,11.922 67.743,12.09 C67.9063333,12.258 68.0743333,12.4353333 68.247,12.622 C68.4196667,12.8086667 68.583,12.9906667 68.737,13.168 C68.891,13.3453333 69.0193333,13.4993333 69.122,13.63 L69.122,13.63 Z M74.82,13.644 C74.96,13.5133333 75.1163333,13.3593333 75.289,13.182 C75.4616667,13.0046667 75.6343333,12.825 75.807,12.643 C75.9796667,12.461 76.1406667,12.2836667 76.29,12.111 C76.4393333,11.9383333 76.5653333,11.7913333 76.668,11.67 L76.668,11.67 L76.346,11.376 C76.2433333,11.5066667 76.1173333,11.656 75.968,11.824 C75.8186667,11.992 75.66,12.167 75.492,12.349 C75.324,12.531 75.1513333,12.7083333 74.974,12.881 C74.7966667,13.0536667 74.638,13.2006667 74.498,13.322 L74.498,13.322 L74.82,13.644 Z M68.45,21.358 L68.45,20.602 L75.562,20.602 L75.562,21.33 L76.01,21.33 L76.01,15.954 L68.002,15.954 L68.002,21.358 L68.45,21.358 Z M75.562,18.096 L68.45,18.096 L68.45,16.388 L75.562,16.388 L75.562,18.096 Z M75.562,20.154 L68.45,20.154 L68.45,18.516 L75.562,18.516 L75.562,20.154 Z M91.074,18.124 L91.382,17.788 C91.2606667,17.648 91.1136667,17.4823333 90.941,17.291 C90.7683333,17.0996667 90.5886667,16.9036667 90.402,16.703 C90.2153333,16.5023333 90.031,16.311 89.849,16.129 C89.667,15.947 89.5106667,15.7906667 89.38,15.66 L89.38,15.66 L89.03,15.912 C89.1326667,16.0146667 89.2563333,16.1383333 89.401,16.283 C89.5456667,16.4276667 89.6973333,16.584 89.856,16.752 C89.324,16.7706667 88.7266667,16.7846667 88.064,16.794 C87.4013333,16.8033333 86.7106667,16.8173333 85.992,16.836 L85.992,16.836 L85.992,15.492 L90.304,15.492 L90.304,11.838 L85.992,11.838 L85.992,10.648 L91.508,10.648 L91.508,10.214 L85.992,10.214 L85.992,8.786 L85.544,8.758 L85.544,10.214 L80,10.214 L80,10.648 L85.544,10.648 L85.544,11.838 L81.204,11.838 L81.204,15.492 L85.544,15.492 L85.544,16.85 L80.056,16.962 L80.07,17.396 C80.4806667,17.3866667 80.959,17.375 81.505,17.361 C82.051,17.347 82.625,17.333 83.227,17.319 C83.829,17.305 84.452,17.2886667 85.096,17.27 C85.74,17.2513333 86.3676667,17.235 86.979,17.221 C87.5903333,17.207 88.1736667,17.193 88.729,17.179 C89.2843333,17.165 89.7813333,17.1533333 90.22,17.144 C90.388,17.3306667 90.5466667,17.508 90.696,17.676 C90.8453333,17.844 90.9713333,17.9933333 91.074,18.124 L91.074,18.124 Z M85.544,13.476 L81.68,13.476 L81.68,12.244 L85.544,12.244 L85.544,13.476 Z M89.828,13.476 L85.992,13.476 L85.992,12.244 L89.828,12.244 L89.828,13.476 Z M85.544,15.1 L81.68,15.1 L81.68,13.84 L85.544,13.84 L85.544,15.1 Z M89.828,15.1 L85.992,15.1 L85.992,13.84 L89.828,13.84 L89.828,15.1 Z M86.79,19.496 L87.098,19.174 C87.0046667,19.0806667 86.8786667,18.957 86.72,18.803 C86.5613333,18.649 86.3933333,18.4926667 86.216,18.334 C86.0386667,18.1753333 85.8683333,18.0236667 85.705,17.879 C85.5416667,17.7343333 85.4086667,17.62 85.306,17.536 L85.306,17.536 L85.012,17.844 C85.124,17.928 85.264,18.0446667 85.432,18.194 C85.6,18.3433333 85.7703333,18.4996667 85.943,18.663 C86.1156667,18.8263333 86.279,18.9826667 86.433,19.132 C86.587,19.2813333 86.706,19.4026667 86.79,19.496 L86.79,19.496 Z M80.196,20.826 C80.4946667,20.4433333 80.8003333,20.0046667 81.113,19.51 C81.4256667,19.0153333 81.6893333,18.5393333 81.904,18.082 L81.904,18.082 L81.512,17.872 C81.4093333,18.0866667 81.2903333,18.313 81.155,18.551 C81.0196667,18.789 80.8796667,19.027 80.735,19.265 C80.5903333,19.503 80.4386667,19.734 80.28,19.958 C80.1213333,20.182 79.9673333,20.3826667 79.818,20.56 L79.818,20.56 L80.196,20.826 Z M91.27,20.686 L91.676,20.448 C91.564,20.2893333 91.431,20.1003333 91.277,19.881 C91.123,19.6616667 90.962,19.4353333 90.794,19.202 C90.626,18.9686667 90.4603333,18.7423333 90.297,18.523 C90.1336667,18.3036667 89.9866667,18.1146667 89.856,17.956 L89.856,17.956 L89.478,18.194 C89.618,18.362 89.7696667,18.5533333 89.933,18.768 C90.0963333,18.9826667 90.2573333,19.202 90.416,19.426 C90.5746667,19.65 90.7286667,19.8716667 90.878,20.091 C91.0273333,20.3103333 91.158,20.5086667 91.27,20.686 L91.27,20.686 Z M84.424,20.938 C85.32,20.994 86.216,20.994 87.112,20.938 C87.392,20.9193333 87.623,20.8913333 87.805,20.854 C87.987,20.8166667 88.134,20.7606667 88.246,20.686 C88.358,20.6113333 88.4443333,20.5063333 88.505,20.371 C88.5656667,20.2356667 88.6146667,20.0606667 88.652,19.846 C88.6613333,19.7806667 88.6706667,19.7013333 88.68,19.608 L88.68,19.608 L88.708,19.328 C88.7173333,19.2346667 88.7243333,19.1506667 88.729,19.076 C88.7336667,19.0013333 88.736,18.95 88.736,18.922 L88.736,18.922 L88.302,18.754 C88.302,18.7726667 88.2996667,18.8216667 88.295,18.901 C88.2903333,18.9803333 88.2833333,19.069 88.274,19.167 C88.2646667,19.265 88.2553333,19.3653333 88.246,19.468 C88.2366667,19.5706667 88.2273333,19.65 88.218,19.706 C88.19,19.874 88.155,20.007 88.113,20.105 C88.071,20.203 88.0103333,20.28 87.931,20.336 C87.8516667,20.392 87.7443333,20.4316667 87.609,20.455 C87.4736667,20.4783333 87.2893333,20.4946667 87.056,20.504 C86.216,20.56 85.376,20.56 84.536,20.504 C84.3306667,20.4946667 84.1626667,20.476 84.032,20.448 C83.9013333,20.42 83.7963333,20.3733333 83.717,20.308 C83.6376667,20.2426667 83.5816667,20.1563333 83.549,20.049 C83.5163333,19.9416667 83.5,19.7993333 83.5,19.622 L83.5,19.622 L83.5,18.04 L83.024,18.012 L83.024,19.734 C83.024,19.958 83.0496667,20.1423333 83.101,20.287 C83.1523333,20.4316667 83.234,20.5506667 83.346,20.644 C83.458,20.7373333 83.6026667,20.805 83.78,20.847 C83.9573333,20.889 84.172,20.9193333 84.424,20.938 Z M101.126,21.372 L101.126,18.74 L103.646,18.74 L103.646,18.278 L101.126,18.278 L101.126,12.426 C101.602,13.7046667 102.218,14.8923333 102.974,15.989 C103.73,17.0856667 104.602667,18.068 105.592,18.936 L105.592,18.936 L105.928,18.53 C104.957333,17.6806667 104.082333,16.703 103.303,15.597 C102.523667,14.491 101.896,13.2986667 101.42,12.02 L101.42,12.02 L105.326,12.02 L105.326,11.53 L101.126,11.53 L101.126,8.814 L100.636,8.786 L100.636,11.53 L96.73,11.53 L96.73,12.02 L100.328,12.02 C100.085333,12.6546667 99.8146667,13.259 99.516,13.833 C99.2173333,14.407 98.8836667,14.9646667 98.515,15.506 C98.1463333,16.0473333 97.7403333,16.5746667 97.297,17.088 C96.8536667,17.6013333 96.366,18.1146667 95.834,18.628 L95.834,18.628 L96.198,19.048 C96.7393333,18.5066667 97.2316667,17.9723333 97.675,17.445 C98.1183333,16.9176667 98.5196667,16.381 98.879,15.835 C99.2383333,15.289 99.5626667,14.7266667 99.852,14.148 C100.141333,13.5693333 100.402667,12.958 100.636,12.314 L100.636,12.314 L100.636,18.278 L98.074,18.278 L98.074,18.74 L100.636,18.74 L100.636,21.372 L101.126,21.372 Z M95.722,21.26 L95.722,11.992 C96.1606667,11.0213333 96.5293333,10.0366667 96.828,9.038 L96.828,9.038 L96.338,8.94 C96.1606667,9.54666667 95.946,10.165 95.694,10.795 C95.442,11.425 95.1713333,12.034 94.882,12.622 C94.5926667,13.21 94.2916667,13.7606667 93.979,14.274 C93.6663333,14.7873333 93.3653333,15.24 93.076,15.632 L93.076,15.632 L93.44,15.954 C93.748,15.5433333 94.0536667,15.0883333 94.357,14.589 C94.6603333,14.0896667 94.9566667,13.5553333 95.246,12.986 L95.246,12.986 L95.246,21.26 L95.722,21.26 Z M110.898,17.424 C110.921333,17.4146667 110.952833,17.4041667 110.9925,17.3925 L111.136,17.354 C111.248,17.326 111.350667,17.3026667 111.444,17.284 C111.5,17.2746667 111.614333,17.256 111.787,17.228 C111.959667,17.2 112.158,17.1696667 112.382,17.137 C112.606,17.1043333 112.839333,17.0716667 113.082,17.039 C113.324667,17.0063333 113.548667,16.9736667 113.754,16.941 C113.959333,16.9083333 114.132,16.8826667 114.272,16.864 C114.412,16.8453333 114.491333,16.836 114.51,16.836 L114.51,16.836 L114.482,16.374 C114.463333,16.374 114.386333,16.3856667 114.251,16.409 C114.115667,16.4323333 113.947667,16.458 113.747,16.486 C113.546333,16.514 113.334,16.5466667 113.11,16.584 C112.886,16.6213333 112.673667,16.654 112.473,16.682 C112.272333,16.71 112.099667,16.7333333 111.955,16.752 C111.810333,16.7706667 111.724,16.78 111.696,16.78 C111.892,16.5186667 112.125333,16.178 112.396,15.758 C112.666667,15.338 112.942,14.8946667 113.222,14.428 C113.502,13.9613333 113.775,13.4876667 114.041,13.007 C114.307,12.5263333 114.533333,12.09 114.72,11.698 L114.72,11.698 L114.328,11.502 C114.216,11.7446667 114.085333,12.0036667 113.936,12.279 C113.786667,12.5543333 113.628,12.8413333 113.46,13.14 L113.46,13.14 L111.248,13.28 C111.397333,13.0746667 111.567667,12.8086667 111.759,12.482 C111.950333,12.1553333 112.146333,11.803 112.347,11.425 C112.547667,11.047 112.739,10.662 112.921,10.27 C113.103,9.878 113.264,9.51866667 113.404,9.192 L113.404,9.192 L112.984,9.024 C112.844,9.36933333 112.680667,9.74266667 112.494,10.144 C112.307333,10.5453333 112.113667,10.9373333 111.913,11.32 C111.712333,11.7026667 111.516333,12.055 111.325,12.377 C111.133667,12.699 110.963333,12.9486667 110.814,13.126 C110.776667,13.1726667 110.737,13.2146667 110.695,13.252 C110.653,13.2893333 110.571333,13.3266667 110.45,13.364 L110.45,13.364 L110.562,13.812 C110.683333,13.784 110.774333,13.7653333 110.835,13.756 C110.895667,13.7466667 110.954,13.742 111.01,13.742 C111.066,13.7326667 111.185,13.7233333 111.367,13.714 C111.549,13.7046667 111.749667,13.693 111.969,13.679 C112.188333,13.665 112.41,13.651 112.634,13.637 C112.858,13.623 113.049333,13.6113333 113.208,13.602 C112.881333,14.162 112.55,14.7033333 112.214,15.226 C111.878,15.7486667 111.574667,16.1966667 111.304,16.57 C111.22,16.682 111.15,16.7613333 111.094,16.808 C111.038,16.8546667 110.930667,16.9013333 110.772,16.948 L110.772,16.948 L110.898,17.424 Z M115.77,21.162 L115.77,20.112 L121.342,20.112 L121.342,21.162 L121.818,21.162 L121.818,10.032 L115.294,10.032 L115.294,21.162 L115.77,21.162 Z M118.346,14.82 L115.77,14.82 L115.77,10.522 L118.346,10.522 L118.346,14.82 Z M121.342,14.82 L118.794,14.82 L118.794,10.522 L121.342,10.522 L121.342,14.82 Z M118.346,19.65 L115.77,19.65 L115.77,15.324 L118.346,15.324 L118.346,19.65 Z M121.342,19.65 L118.794,19.65 L118.794,15.324 L121.342,15.324 L121.342,19.65 Z M110.366,20.266 C110.646,20.2193333 110.984333,20.1586667 111.381,20.084 C111.777667,20.0093333 112.183667,19.9323333 112.599,19.853 C113.014333,19.7736667 113.418,19.6943333 113.81,19.615 C114.202,19.5356667 114.538,19.4633333 114.818,19.398 L114.818,19.398 L114.804,19.132 L114.79,18.908 C114.500667,18.9826667 114.157667,19.062 113.761,19.146 C113.364333,19.23 112.958333,19.314 112.543,19.398 C112.127667,19.482 111.721667,19.5613333 111.325,19.636 C110.928333,19.7106667 110.59,19.7666667 110.31,19.804 L110.31,19.804 L110.366,20.266 Z M131.996,21.372 L131.996,18.74 L134.516,18.74 L134.516,18.278 L131.996,18.278 L131.996,12.426 C132.472,13.7046667 133.088,14.8923333 133.844,15.989 C134.6,17.0856667 135.472667,18.068 136.462,18.936 L136.462,18.936 L136.798,18.53 C135.827333,17.6806667 134.952333,16.703 134.173,15.597 C133.393667,14.491 132.766,13.2986667 132.29,12.02 L132.29,12.02 L136.196,12.02 L136.196,11.53 L131.996,11.53 L131.996,8.814 L131.506,8.786 L131.506,11.53 L127.6,11.53 L127.6,12.02 L131.198,12.02 C130.955333,12.6546667 130.684667,13.259 130.386,13.833 C130.087333,14.407 129.753667,14.9646667 129.385,15.506 C129.016333,16.0473333 128.610333,16.5746667 128.167,17.088 C127.723667,17.6013333 127.236,18.1146667 126.704,18.628 L126.704,18.628 L127.068,19.048 C127.609333,18.5066667 128.101667,17.9723333 128.545,17.445 C128.988333,16.9176667 129.389667,16.381 129.749,15.835 C130.108333,15.289 130.432667,14.7266667 130.722,14.148 C131.011333,13.5693333 131.272667,12.958 131.506,12.314 L131.506,12.314 L131.506,18.278 L128.944,18.278 L128.944,18.74 L131.506,18.74 L131.506,21.372 L131.996,21.372 Z M126.592,21.26 L126.592,11.992 C127.030667,11.0213333 127.399333,10.0366667 127.698,9.038 L127.698,9.038 L127.208,8.94 C127.030667,9.54666667 126.816,10.165 126.564,10.795 C126.312,11.425 126.041333,12.034 125.752,12.622 C125.462667,13.21 125.161667,13.7606667 124.849,14.274 C124.536333,14.7873333 124.235333,15.24 123.946,15.632 L123.946,15.632 L124.31,15.954 C124.618,15.5433333 124.923667,15.0883333 125.227,14.589 C125.530333,14.0896667 125.826667,13.5553333 126.116,12.986 L126.116,12.986 L126.116,21.26 L126.592,21.26 Z" id="阿里巴巴普惠体细体"></path>
                    </g>
                </g>
            </g>
        </g>
    </g>
</svg>