<?xml version="1.0" encoding="UTF-8"?>
<svg width="126px" height="14px" viewBox="0 0 126 14" version="1.1" xmlns="http://www.w3.org/2000/svg" xmlns:xlink="http://www.w3.org/1999/xlink">
    <!-- Generator: Sketch 60.1 (88133) - https://sketch.com -->
    <title>阿里巴巴普惠体常规</title>
    <desc>Created with Sketch.</desc>
    <g id="Page-1" stroke="none" stroke-width="1" fill="none" fill-rule="evenodd">
        <g id="图表-文字" transform="translate(-679.000000, -196.000000)" fill="#FFFFFF" fill-rule="nonzero">
            <g id="下拉框" transform="translate(668.000000, 158.000000)">
                <g id="组合-&lt;v0&gt;">
                    <g id="2" transform="translate(0.000000, 30.000000)">
                        <path d="M12.464,21.372 L12.464,10.396 L14.298,10.396 C14.1673333,10.9746667 14.004,11.5696667 13.808,12.181 C13.612,12.7923333 13.3973333,13.378 13.164,13.938 C13.2946667,14.134 13.4206667,14.337 13.542,14.547 C13.6633333,14.757 13.7683333,14.9833333 13.857,15.226 C13.9456667,15.4686667 14.018,15.7393333 14.074,16.038 C14.13,16.3366667 14.158,16.6726667 14.158,17.046 C14.158,17.3913333 14.102,17.6223333 13.99,17.739 C13.878,17.8556667 13.682,17.9326667 13.402,17.97 L13.402,17.97 L12.744,18.054 L13.108,19.034 L13.906,18.922 C14.158,18.8846667 14.361,18.8193333 14.515,18.726 C14.669,18.6326667 14.788,18.509 14.872,18.355 C14.956,18.201 15.0143333,18.0166667 15.047,17.802 C15.0796667,17.5873333 15.096,17.34 15.096,17.06 C15.096,16.64 15.0703333,16.2736667 15.019,15.961 C14.9676667,15.6483333 14.9,15.3683333 14.816,15.121 C14.732,14.8736667 14.6363333,14.6473333 14.529,14.442 C14.4216667,14.2366667 14.3166667,14.0266667 14.214,13.812 C14.4286667,13.2426667 14.613,12.6943333 14.767,12.167 C14.921,11.6396667 15.0726667,11.0493333 15.222,10.396 L15.222,10.396 L15.222,9.402 L11.47,9.402 L11.47,21.372 L12.464,21.372 Z M19.408,21.288 L20.374,21.204 C20.682,21.176 20.941,21.1363333 21.151,21.085 C21.361,21.0336667 21.529,20.9566667 21.655,20.854 C21.781,20.7513333 21.8696667,20.6183333 21.921,20.455 C21.9723333,20.2916667 21.998,20.084 21.998,19.832 L21.998,19.832 L21.998,10.648 L23.16,10.648 L23.16,9.654 L15.698,9.654 L15.698,10.648 L20.948,10.648 L20.948,19.342 C20.948,19.51 20.9386667,19.6453333 20.92,19.748 C20.9013333,19.8506667 20.8663333,19.9323333 20.815,19.993 C20.7636667,20.0536667 20.6936667,20.098 20.605,20.126 C20.5163333,20.154 20.3973333,20.1726667 20.248,20.182 L20.248,20.182 L19.058,20.266 L19.408,21.288 Z M19.548,17.928 L19.548,12.552 L15.866,12.552 L15.866,17.928 L19.548,17.928 Z M18.596,16.99 L16.818,16.99 L16.818,13.49 L18.596,13.49 L18.596,16.99 Z M36.894,20.868 L36.894,19.916 L31.182,19.916 L31.182,18.166 L35.676,18.166 L35.676,17.2 L31.182,17.2 L31.182,15.646 L35.382,15.646 L35.382,9.43 L25.848,9.43 L25.848,15.646 L30.132,15.646 L30.132,17.2 L25.666,17.2 L25.666,18.166 L30.132,18.166 L30.132,19.916 L24.462,19.916 L24.462,20.868 L36.894,20.868 Z M30.132,12.09 L26.842,12.09 L26.842,10.368 L30.132,10.368 L30.132,12.09 Z M34.332,12.09 L31.182,12.09 L31.182,10.368 L34.332,10.368 L34.332,12.09 Z M30.132,14.708 L26.842,14.708 L26.842,12.986 L30.132,12.986 L30.132,14.708 Z M34.332,14.708 L31.182,14.708 L31.182,12.986 L34.332,12.986 L34.332,14.708 Z M44.1436667,20.9893333 L44.853,20.987 C45.567,20.9823333 46.2506667,20.973 46.904,20.959 C47.5573333,20.945 48.1033333,20.9286667 48.542,20.91 C48.794,20.9006667 49.011,20.8773333 49.193,20.84 C49.375,20.8026667 49.529,20.7303333 49.655,20.623 C49.781,20.5156667 49.886,20.364 49.97,20.168 C50.054,19.972 50.124,19.7106667 50.18,19.384 C50.208,19.216 50.229,19.0573333 50.243,18.908 C50.257,18.7586667 50.2733333,18.6326667 50.292,18.53 C50.3106667,18.4086667 50.3246667,18.2966667 50.334,18.194 L50.334,18.194 L49.312,17.774 C49.3026667,17.8953333 49.2933333,18.026 49.284,18.166 C49.2653333,18.2873333 49.249,18.425 49.235,18.579 C49.221,18.733 49.2,18.894 49.172,19.062 C49.1346667,19.2673333 49.074,19.4376667 48.99,19.573 C48.906,19.7083333 48.7286667,19.7853333 48.458,19.804 C48.206,19.8226667 47.8933333,19.839 47.52,19.853 C47.1466667,19.867 46.7383333,19.8786667 46.295,19.888 C45.8516667,19.8973333 45.3873333,19.902 44.902,19.902 C44.4166667,19.902 43.943,19.8996667 43.481,19.895 C43.019,19.8903333 42.585,19.881 42.179,19.867 C41.773,19.853 41.4206667,19.8366667 41.122,19.818 C40.7766667,19.79 40.604,19.6406667 40.604,19.37 L40.604,19.37 L40.604,15.31 L49.242,15.31 L49.242,9.57 L39.526,9.57 L39.526,19.524 C39.526,19.6733333 39.547,19.8273333 39.589,19.986 C39.631,20.1446667 39.708,20.2916667 39.82,20.427 C39.932,20.5623333 40.0813333,20.6766667 40.268,20.77 C40.4546667,20.8633333 40.688,20.9146667 40.968,20.924 C41.472,20.952 42.067,20.9706667 42.753,20.98 C43.439,20.9893333 44.139,20.9916667 44.853,20.987 L44.1436667,20.9893333 Z M43.908,14.302 L40.604,14.302 L40.604,10.55 L43.908,10.55 L43.908,14.302 Z M48.15,14.302 L44.972,14.302 L44.972,10.55 L48.15,10.55 L48.15,14.302 Z M57.9196667,20.9893333 L58.629,20.987 C59.343,20.9823333 60.0266667,20.973 60.68,20.959 C61.3333333,20.945 61.8793333,20.9286667 62.318,20.91 C62.57,20.9006667 62.787,20.8773333 62.969,20.84 C63.151,20.8026667 63.305,20.7303333 63.431,20.623 C63.557,20.5156667 63.662,20.364 63.746,20.168 C63.83,19.972 63.9,19.7106667 63.956,19.384 C63.984,19.216 64.005,19.0573333 64.019,18.908 C64.033,18.7586667 64.0493333,18.6326667 64.068,18.53 C64.0866667,18.4086667 64.1006667,18.2966667 64.11,18.194 L64.11,18.194 L63.088,17.774 C63.0786667,17.8953333 63.0693333,18.026 63.06,18.166 C63.0413333,18.2873333 63.025,18.425 63.011,18.579 C62.997,18.733 62.976,18.894 62.948,19.062 C62.9106667,19.2673333 62.85,19.4376667 62.766,19.573 C62.682,19.7083333 62.5046667,19.7853333 62.234,19.804 C61.982,19.8226667 61.6693333,19.839 61.296,19.853 C60.9226667,19.867 60.5143333,19.8786667 60.071,19.888 C59.6276667,19.8973333 59.1633333,19.902 58.678,19.902 C58.1926667,19.902 57.719,19.8996667 57.257,19.895 C56.795,19.8903333 56.361,19.881 55.955,19.867 C55.549,19.853 55.1966667,19.8366667 54.898,19.818 C54.5526667,19.79 54.38,19.6406667 54.38,19.37 L54.38,19.37 L54.38,15.31 L63.018,15.31 L63.018,9.57 L53.302,9.57 L53.302,19.524 C53.302,19.6733333 53.323,19.8273333 53.365,19.986 C53.407,20.1446667 53.484,20.2916667 53.596,20.427 C53.708,20.5623333 53.8573333,20.6766667 54.044,20.77 C54.2306667,20.8633333 54.464,20.9146667 54.744,20.924 C55.248,20.952 55.843,20.9706667 56.529,20.98 C57.215,20.9893333 57.915,20.9916667 58.629,20.987 L57.9196667,20.9893333 Z M57.684,14.302 L54.38,14.302 L54.38,10.55 L57.684,10.55 L57.684,14.302 Z M61.926,14.302 L58.748,14.302 L58.748,10.55 L61.926,10.55 L61.926,14.302 Z M78.152,14.708 L78.152,13.812 L73.882,13.812 L73.882,11.11 L77.522,11.11 L77.522,10.214 L74.358,10.214 C74.5166667,9.99933333 74.673,9.78466667 74.827,9.57 C74.981,9.35533333 75.1046667,9.16866667 75.198,9.01 L75.198,9.01 L74.4,8.52 C74.3346667,8.632 74.253,8.76033333 74.155,8.905 C74.057,9.04966667 73.952,9.199 73.84,9.353 C73.728,9.507 73.6136667,9.65866667 73.497,9.808 C73.3803333,9.95733333 73.2706667,10.0926667 73.168,10.214 L73.168,10.214 L70.312,10.214 L70.718,9.906 C70.5593333,9.67266667 70.375,9.43 70.165,9.178 C69.955,8.926 69.7706667,8.70666667 69.612,8.52 L69.612,8.52 L68.842,9.038 C68.9726667,9.18733333 69.122,9.36466667 69.29,9.57 C69.458,9.77533333 69.6166667,9.99 69.766,10.214 L69.766,10.214 L66.49,10.214 L66.49,11.11 L70.13,11.11 L70.13,13.812 L65.846,13.812 L65.846,14.708 L78.152,14.708 Z M72.902,13.812 L71.11,13.812 L71.11,11.11 L72.902,11.11 L72.902,13.812 Z M68.744,13.798 L69.416,13.014 C69.3226667,12.8926667 69.2036667,12.7456667 69.059,12.573 C68.9143333,12.4003333 68.7626667,12.2276667 68.604,12.055 C68.4453333,11.8823333 68.2866667,11.7166667 68.128,11.558 C67.9693333,11.3993333 67.8293333,11.264 67.708,11.152 L67.708,11.152 L67.064,11.782 C67.1853333,11.8846667 67.323,12.0176667 67.477,12.181 C67.631,12.3443333 67.7873333,12.5216667 67.946,12.713 C68.1046667,12.9043333 68.254,13.0956667 68.394,13.287 C68.534,13.4783333 68.6506667,13.6486667 68.744,13.798 L68.744,13.798 Z M75.198,13.672 C75.31,13.56 75.443,13.4223333 75.597,13.259 C75.751,13.0956667 75.9073333,12.9253333 76.066,12.748 C76.2246667,12.5706667 76.3786667,12.3956667 76.528,12.223 C76.6773333,12.0503333 76.8033333,11.8986667 76.906,11.768 L76.906,11.768 L76.192,11.208 C76.0986667,11.3386667 75.982,11.488 75.842,11.656 C75.702,11.824 75.555,11.9943333 75.401,12.167 C75.247,12.3396667 75.093,12.5076667 74.939,12.671 C74.785,12.8343333 74.6473333,12.9766667 74.526,13.098 L74.526,13.098 L75.198,13.672 Z M68.744,21.4 L68.744,20.756 L75.268,20.756 L75.268,21.386 L76.248,21.386 L76.248,15.772 L67.764,15.772 L67.764,21.4 L68.744,21.4 Z M75.268,17.858 L68.744,17.858 L68.744,16.696 L75.268,16.696 L75.268,17.858 Z M75.268,19.86 L68.744,19.86 L68.744,18.726 L75.268,18.726 L75.268,19.86 Z M90.836,18.264 L91.508,17.634 C91.3773333,17.438 91.2303333,17.2303333 91.067,17.011 C90.9036667,16.7916667 90.738,16.5793333 90.57,16.374 C90.402,16.1686667 90.2386667,15.9773333 90.08,15.8 C89.9213333,15.6226667 89.7813333,15.4733333 89.66,15.352 L89.66,15.352 L90.374,15.352 L90.374,11.474 L86.244,11.474 L86.244,10.676 L91.536,10.676 L91.536,9.836 L86.244,9.836 L86.244,8.786 L85.306,8.744 L85.306,9.836 L80.014,9.836 L80.014,10.676 L85.306,10.676 L85.306,11.474 L81.12,11.474 L81.12,15.352 L85.306,15.352 L85.306,16.402 C84.7553333,16.4206667 84.2116667,16.4346667 83.675,16.444 C83.1383333,16.4533333 82.646,16.4626667 82.198,16.472 C81.75,16.4813333 81.3626667,16.4906667 81.036,16.5 C80.7093333,16.5093333 80.4853333,16.514 80.364,16.514 L80.364,16.514 L80.42,17.396 C80.5506667,17.396 80.8446667,17.3866667 81.302,17.368 C81.7593333,17.3493333 82.3006667,17.3306667 82.926,17.312 C83.5513333,17.2933333 84.2233333,17.2723333 84.942,17.249 C85.6606667,17.2256667 86.3536667,17.2023333 87.021,17.179 C87.6883333,17.1556667 88.2926667,17.137 88.834,17.123 C89.3753333,17.109 89.7766667,17.0973333 90.038,17.088 C90.1873333,17.2933333 90.332,17.4963333 90.472,17.697 C90.612,17.8976667 90.7333333,18.0866667 90.836,18.264 L90.836,18.264 Z M85.306,13.042 L82.142,13.042 L82.142,12.258 L85.306,12.258 L85.306,13.042 Z M89.352,13.042 L86.244,13.042 L86.244,12.258 L89.352,12.258 L89.352,13.042 Z M85.306,14.568 L82.142,14.568 L82.142,13.742 L85.306,13.742 L85.306,14.568 Z M89.352,14.568 L86.244,14.568 L86.244,13.742 L89.352,13.742 L89.352,14.568 Z M86.244,16.388 L86.244,15.352 L89.59,15.352 L88.96,15.772 C89.0253333,15.8466667 89.0976667,15.9283333 89.177,16.017 C89.2563333,16.1056667 89.3426667,16.2013333 89.436,16.304 C89.0533333,16.3226667 88.5843333,16.3366667 88.029,16.346 C87.4736667,16.3553333 86.8786667,16.3693333 86.244,16.388 L86.244,16.388 Z M86.608,19.58 L87.294,18.936 C87.2006667,18.8146667 87.084,18.6723333 86.944,18.509 C86.804,18.3456667 86.6616667,18.1846667 86.517,18.026 C86.3723333,17.8673333 86.23,17.7156667 86.09,17.571 C85.95,17.4263333 85.838,17.312 85.754,17.228 L85.754,17.228 L85.11,17.732 C85.1846667,17.8066667 85.2896667,17.9163333 85.425,18.061 C85.5603333,18.2056667 85.7003333,18.3666667 85.845,18.544 C85.9896667,18.7213333 86.132,18.9033333 86.272,19.09 C86.412,19.2766667 86.524,19.44 86.608,19.58 L86.608,19.58 Z M80.448,21.064 C80.588,20.896 80.7326667,20.7 80.882,20.476 C81.0313333,20.252 81.1806667,20.0116667 81.33,19.755 C81.4793333,19.4983333 81.6263333,19.2323333 81.771,18.957 C81.9156667,18.6816667 82.0486667,18.4086667 82.17,18.138 L82.17,18.138 L81.302,17.732 C81.2086667,17.956 81.0966667,18.194 80.966,18.446 C80.8353333,18.698 80.693,18.95 80.539,19.202 C80.385,19.454 80.224,19.6966667 80.056,19.93 C79.888,20.1633333 79.7293333,20.3686667 79.58,20.546 L79.58,20.546 L80.448,21.064 Z M91.004,20.896 L91.83,20.294 C91.69,20.07 91.5383333,19.8366667 91.375,19.594 C91.2116667,19.3513333 91.0483333,19.118 90.885,18.894 C90.7216667,18.67 90.5606667,18.4576667 90.402,18.257 C90.2433333,18.0563333 90.0986667,17.8813333 89.968,17.732 L89.968,17.732 L89.24,18.236 C89.5386667,18.5813333 89.8396667,18.9873333 90.143,19.454 C90.4463333,19.9206667 90.7333333,20.4013333 91.004,20.896 L91.004,20.896 Z M85.978,21.12 C86.4446667,21.12 86.902,21.106 87.35,21.078 C87.6206667,21.0593333 87.8493333,21.0336667 88.036,21.001 C88.2226667,20.9683333 88.3766667,20.91 88.498,20.826 C88.6193333,20.742 88.715,20.6253333 88.785,20.476 C88.855,20.3266667 88.9133333,20.126 88.96,19.874 C88.9786667,19.734 88.9973333,19.5916667 89.016,19.447 C89.0346667,19.3023333 89.0533333,19.16 89.072,19.02 L89.072,19.02 L88.12,18.67 C88.1106667,18.81 88.1013333,18.9476667 88.092,19.083 C88.0826667,19.2183333 88.0686667,19.3513333 88.05,19.482 C88.0313333,19.6313333 88.0033333,19.7503333 87.966,19.839 C87.9286667,19.9276667 87.875,19.9953333 87.805,20.042 C87.735,20.0886667 87.6393333,20.1236667 87.518,20.147 C87.3966667,20.1703333 87.2473333,20.1866667 87.07,20.196 C86.37,20.252 85.6606667,20.252 84.942,20.196 C84.5966667,20.168 84.3633333,20.1096667 84.242,20.021 C84.1206667,19.9323333 84.06,19.7386667 84.06,19.44 L84.06,19.44 L84.06,17.984 L82.996,17.928 L82.996,19.804 C82.996,20.252 83.1173333,20.567 83.36,20.749 C83.6026667,20.931 84.018,21.0406667 84.606,21.078 C85.054,21.106 85.5113333,21.12 85.978,21.12 Z M101.49,21.4 L101.49,18.95 L103.926,18.95 L103.926,17.984 L101.49,17.984 L101.49,12.678 C101.714,13.2846667 101.952,13.8633333 102.204,14.414 C102.456,14.9646667 102.740667,15.499 103.058,16.017 C103.375333,16.535 103.734667,17.0436667 104.136,17.543 C104.537333,18.0423333 104.999333,18.5346667 105.522,19.02 L105.522,19.02 L106.264,18.124 C105.806667,17.7413333 105.384333,17.3376667 104.997,16.913 C104.609667,16.4883333 104.248,16.0333333 103.912,15.548 C103.576,15.0626667 103.261,14.54 102.967,13.98 C102.673,13.42 102.395333,12.818 102.134,12.174 L102.134,12.174 L105.284,12.174 L105.284,11.18 L101.49,11.18 L101.49,8.842 L100.426,8.8 L100.426,11.18 L97.052,11.18 L97.052,12.174 L99.824,12.174 C99.4133333,13.378 98.8603333,14.4793333 98.165,15.478 C97.4696667,16.4766667 96.7346667,17.354 95.96,18.11 L95.96,18.11 L95.96,12.244 C96.24,11.628 96.4733333,11.0563333 96.66,10.529 C96.8466667,10.0016667 97.0006667,9.53733333 97.122,9.136 L97.122,9.136 L96.128,8.828 C95.876,9.77066667 95.498,10.7996667 94.994,11.915 C94.49,13.0303333 93.804,14.1713333 92.936,15.338 L92.936,15.338 L93.72,16.038 C93.9533333,15.7393333 94.1703333,15.436 94.371,15.128 C94.5716667,14.82 94.7606667,14.5166667 94.938,14.218 L94.938,14.218 L94.938,21.288 L95.96,21.288 L95.96,18.138 L96.744,18.894 C97.584,17.9886667 98.3166667,17.0436667 98.942,16.059 C99.5673333,15.0743333 100.062,14.008 100.426,12.86 L100.426,12.86 L100.426,17.984 L98.102,17.984 L98.074,18.95 L100.426,18.95 L100.426,21.4 L101.49,21.4 Z M122.574,13.658 L122.574,10.97 L119.774,10.97 C119.876667,10.858 119.991,10.7273333 120.117,10.578 C120.243,10.4286667 120.364333,10.277 120.481,10.123 C120.597667,9.969 120.712,9.81733333 120.824,9.668 C120.936,9.51866667 121.029333,9.388 121.104,9.276 L121.104,9.276 L120.292,8.758 C120.198667,8.898 120.093667,9.04733333 119.977,9.206 C119.860333,9.36466667 119.736667,9.528 119.606,9.696 C119.475333,9.864 119.34,10.0273333 119.2,10.186 C119.06,10.3446667 118.92,10.4893333 118.78,10.62 L118.78,10.62 L119.284,10.97 L117.45,10.97 L117.45,8.744 L116.428,8.716 L116.428,10.97 L114.608,10.97 L115.042,10.578 C114.939333,10.4473333 114.820333,10.298 114.685,10.13 C114.549667,9.962 114.412,9.794 114.272,9.626 C114.132,9.458 113.994333,9.30166667 113.859,9.157 C113.723667,9.01233333 113.609333,8.89333333 113.516,8.8 L113.516,8.8 L112.718,9.416 C112.811333,9.5 112.914,9.60266667 113.026,9.724 C113.138,9.84533333 113.254667,9.976 113.376,10.116 C113.497333,10.256 113.616333,10.3983333 113.733,10.543 C113.849667,10.6876667 113.954667,10.83 114.048,10.97 L114.048,10.97 L111.304,10.97 L111.304,13.644 L112.326,13.644 L112.326,11.894 L121.538,11.894 L121.538,13.658 L122.574,13.658 Z M116.428,21.554 L117.45,21.54 L117.45,17.746 L120.656,17.746 L120.656,18.922 C120.656,19.0713333 120.646667,19.1926667 120.628,19.286 C120.609333,19.3793333 120.567333,19.454 120.502,19.51 C120.436667,19.566 120.338667,19.608 120.208,19.636 C120.077333,19.664 119.895333,19.6873333 119.662,19.706 L119.662,19.706 L118.878,19.776 L119.228,20.77 L119.928,20.686 C120.301333,20.6393333 120.604667,20.5903333 120.838,20.539 C121.071333,20.4876667 121.251,20.4106667 121.377,20.308 C121.503,20.2053333 121.589333,20.0723333 121.636,19.909 C121.682667,19.7456667 121.706,19.5286667 121.706,19.258 L121.706,19.258 L121.706,16.808 L117.45,16.808 L117.45,15.702 L120.712,15.702 L120.712,12.902 L113.152,12.902 L113.152,15.702 L116.428,15.702 L116.428,16.808 L112.214,16.808 L112.214,20.7 L113.208,20.7 L113.208,17.746 L116.428,17.746 L116.428,21.554 Z M119.732,14.89 L114.132,14.89 L114.132,13.728 L119.732,13.728 L119.732,14.89 Z M125.15,21.344 C125.420667,20.9893333 125.665667,20.651 125.885,20.329 C126.104333,20.007 126.300333,19.685 126.473,19.363 C126.645667,19.041 126.797333,18.7096667 126.928,18.369 C127.058667,18.0283333 127.166,17.662 127.25,17.27 C127.520667,17.662 127.791333,18.0796667 128.062,18.523 C128.332667,18.9663333 128.552,19.3513333 128.72,19.678 L128.72,19.678 L129.518,18.922 C129.406,18.7353333 129.263667,18.5136667 129.091,18.257 C128.918333,18.0003333 128.738667,17.739 128.552,17.473 C128.365333,17.207 128.174,16.948 127.978,16.696 C127.782,16.444 127.609333,16.2246667 127.46,16.038 C127.478667,15.9166667 127.490333,15.7953333 127.495,15.674 C127.499667,15.5526667 127.511333,15.4266667 127.53,15.296 L127.53,15.296 L129.476,15.296 L129.476,14.274 L127.572,14.274 C127.581333,14.1153333 127.586,13.952 127.586,13.784 L127.586,13.784 L127.586,12.09 L129.294,12.09 L129.294,11.068 L127.586,11.068 L127.586,8.884 L126.606,8.842 L126.606,11.068 L124.87,11.068 L124.87,12.09 L126.606,12.09 L126.606,13.784 C126.606,13.952 126.601333,14.1153333 126.592,14.274 L126.592,14.274 L124.632,14.274 L124.632,15.296 L126.55,15.296 C126.503333,15.8933333 126.428667,16.4253333 126.326,16.892 C126.223333,17.3586667 126.083333,17.7996667 125.906,18.215 C125.728667,18.6303333 125.509333,19.034 125.248,19.426 C124.986667,19.818 124.669333,20.238 124.296,20.686 L124.296,20.686 L125.15,21.344 Z M130.876,17.284 L130.876,10.466 L134.782,10.466 L134.782,17.27 L135.79,17.27 L135.79,9.472 L129.882,9.472 L129.882,17.284 L130.876,17.284 Z M129.098,21.554 C130.040667,20.9006667 130.810667,20.231 131.408,19.545 C132.005333,18.859 132.453333,18.082 132.752,17.214 L132.752,17.214 L132.752,19.608 C132.752,20.168 132.859333,20.553 133.074,20.763 C133.288667,20.973 133.62,21.0826667 134.068,21.092 C134.450667,21.1106667 134.833333,21.1106667 135.216,21.092 C135.729333,21.0733333 136.088667,20.9916667 136.294,20.847 C136.499333,20.7023333 136.634667,20.4713333 136.7,20.154 C136.765333,19.846 136.812,19.5333333 136.84,19.216 C136.868,18.8986667 136.891333,18.5766667 136.91,18.25 L136.91,18.25 L136,17.9 C136,18.1426667 135.990667,18.3993333 135.972,18.67 C135.953333,18.9406667 135.920667,19.1973333 135.874,19.44 C135.827333,19.6826667 135.743333,19.846 135.622,19.93 C135.500667,20.014 135.295333,20.0653333 135.006,20.084 C134.838,20.1026667 134.67,20.1026667 134.502,20.084 C134.203333,20.0653333 133.998,20 133.886,19.888 C133.774,19.776 133.718,19.5566667 133.718,19.23 L133.718,19.23 L133.718,16.276 L133.032,16.22 C133.097333,15.9026667 133.148667,15.5713333 133.186,15.226 C133.223333,14.8806667 133.246667,14.5166667 133.256,14.134 C133.256,14.022 133.258333,13.833 133.263,13.567 C133.267667,13.301 133.272333,13.021 133.277,12.727 C133.281667,12.433 133.286333,12.1553333 133.291,11.894 C133.295667,11.6326667 133.298,11.446 133.298,11.334 L133.298,11.334 L132.29,11.306 L132.29,11.306 L132.289222,12.1195556 C132.288185,12.2958519 132.286111,12.4773333 132.283,12.664 L132.278333,12.9393333 C132.275222,13.1197778 132.272111,13.294 132.269,13.462 C132.264333,13.714 132.257333,13.896 132.248,14.008 C132.229333,14.8293333 132.154667,15.548 132.024,16.164 C131.893333,16.78 131.681,17.3446667 131.387,17.858 C131.093,18.3713333 130.703333,18.8543333 130.218,19.307 C129.732667,19.7596667 129.126,20.2286667 128.398,20.714 L128.398,20.714 L129.098,21.554 Z" id="阿里巴巴普惠体常规"></path>
                    </g>
                </g>
            </g>
        </g>
    </g>
</svg>