<?xml version="1.0" encoding="UTF-8"?>
<svg width="126px" height="14px" viewBox="0 0 126 14" version="1.1" xmlns="http://www.w3.org/2000/svg" xmlns:xlink="http://www.w3.org/1999/xlink">
    <!-- Generator: Sketch 60.1 (88133) - https://sketch.com -->
    <title>阿里巴巴普惠体中等</title>
    <desc>Created with Sketch.</desc>
    <g id="Page-1" stroke="none" stroke-width="1" fill="none" fill-rule="evenodd">
        <g id="图表-文字" transform="translate(-679.000000, -226.000000)" fill="#FFFFFF" fill-rule="nonzero">
            <g id="下拉框" transform="translate(668.000000, 158.000000)">
                <g id="组合-&lt;v0&gt;">
                    <g id="3" transform="translate(0.000000, 60.000000)">
                        <path d="M12.632,21.372 L12.632,10.676 L13.962,10.676 C13.8313333,11.236 13.6843333,11.7936667 13.521,12.349 C13.3576667,12.9043333 13.1733333,13.462 12.968,14.022 C13.332,14.5633333 13.6166667,15.065 13.822,15.527 C14.0273333,15.989 14.13,16.416 14.13,16.808 C14.13,17.0226667 14.1183333,17.193 14.095,17.319 C14.0716667,17.445 14.025,17.5453333 13.955,17.62 C13.885,17.6946667 13.7916667,17.7483333 13.675,17.781 C13.5583333,17.8136667 13.402,17.844 13.206,17.872 L13.206,17.872 L12.758,17.928 L13.22,19.272 L13.556,19.216 C13.9013333,19.16 14.1883333,19.0923333 14.417,19.013 C14.6456667,18.9336667 14.8276667,18.817 14.963,18.663 C15.0983333,18.509 15.1916667,18.306 15.243,18.054 C15.2943333,17.802 15.32,17.4706667 15.32,17.06 C15.32,16.528 15.2453333,15.9983333 15.096,15.471 C14.9466667,14.9436667 14.676,14.3813333 14.284,13.784 C14.4706667,13.2613333 14.6433333,12.7433333 14.802,12.23 C14.9606667,11.7166667 15.1006667,11.1986667 15.222,10.676 L15.222,10.676 L15.222,9.388 L11.344,9.388 L11.344,21.372 L12.632,21.372 Z M18.974,21.386 L20.108,21.302 C20.5093333,21.274 20.836,21.2226667 21.088,21.148 C21.34,21.0733333 21.5313333,20.9613333 21.662,20.812 C21.7926667,20.6626667 21.8813333,20.469 21.928,20.231 C21.9746667,19.993 21.998,19.6966667 21.998,19.342 L21.998,19.342 L21.998,10.928 L23.048,10.928 L23.048,9.626 L15.642,9.626 L15.642,10.928 L20.696,10.928 L20.696,18.894 C20.696,19.0806667 20.682,19.2346667 20.654,19.356 C20.626,19.4773333 20.5746667,19.573 20.5,19.643 C20.4253333,19.713 20.3203333,19.7666667 20.185,19.804 C20.0496667,19.8413333 19.87,19.8646667 19.646,19.874 L19.646,19.874 L18.554,19.944 L18.974,21.386 Z M19.562,18.096 L19.562,12.44 L15.726,12.44 L15.726,18.096 L19.562,18.096 Z M18.358,16.836 L16.93,16.836 L16.93,13.728 L18.358,13.728 L18.358,16.836 Z M36.74,20.994 L36.74,19.72 L31.364,19.72 L31.364,18.404 L35.676,18.404 L35.676,17.088 L31.364,17.088 L31.364,15.856 L35.55,15.856 L35.55,9.304 L25.764,9.304 L25.764,15.856 L29.964,15.856 L29.964,17.088 L25.652,17.088 L25.652,18.404 L29.964,18.404 L29.964,19.72 L24.574,19.72 L24.574,20.994 L36.74,20.994 Z M29.964,11.978 L27.164,11.978 L27.164,10.536 L29.964,10.536 L29.964,11.978 Z M34.164,11.978 L31.364,11.978 L31.364,10.536 L34.164,10.536 L34.164,11.978 Z M29.964,14.61 L27.164,14.61 L27.164,13.182 L29.964,13.182 L29.964,14.61 Z M34.164,14.61 L31.364,14.61 L31.364,13.182 L34.164,13.182 L34.164,14.61 Z M44.825,21.12 C45.9496667,21.12 47.0626667,21.0966667 48.164,21.05 C48.5746667,21.0313333 48.9106667,20.9893333 49.172,20.924 C49.4333333,20.8586667 49.6433333,20.756 49.802,20.616 C49.9606667,20.476 50.0843333,20.2916667 50.173,20.063 C50.2616667,19.8343333 50.3433333,19.552 50.418,19.216 C50.4646667,18.9826667 50.4996667,18.768 50.523,18.572 C50.5463333,18.376 50.5626667,18.1986667 50.572,18.04 L50.572,18.04 L49.13,17.536 C49.1206667,17.7226667 49.109,17.893 49.095,18.047 C49.081,18.201 49.0553333,18.3806667 49.018,18.586 C48.9806667,18.7913333 48.941,18.9593333 48.899,19.09 C48.857,19.2206667 48.7893333,19.3256667 48.696,19.405 C48.6026667,19.4843333 48.4813333,19.545 48.332,19.587 C48.1826667,19.629 47.9866667,19.6546667 47.744,19.664 C46.8013333,19.72 45.8423333,19.7456667 44.867,19.741 C43.8916667,19.7363333 42.9326667,19.7106667 41.99,19.664 C41.738,19.6546667 41.5326667,19.629 41.374,19.587 C41.2153333,19.545 41.0916667,19.475 41.003,19.377 C40.9143333,19.279 40.8536667,19.1483333 40.821,18.985 C40.7883333,18.8216667 40.772,18.6046667 40.772,18.334 L40.772,18.334 L40.772,15.562 L49.438,15.562 L49.438,9.444 L39.316,9.444 L39.316,18.74 C39.316,19.1786667 39.3533333,19.5426667 39.428,19.832 C39.5026667,20.1213333 39.6263333,20.3546667 39.799,20.532 C39.9716667,20.7093333 40.1956667,20.8353333 40.471,20.91 C40.7463333,20.9846667 41.0846667,21.0313333 41.486,21.05 C42.5873333,21.0966667 43.7003333,21.12 44.825,21.12 Z M43.712,14.176 L40.772,14.176 L40.772,10.816 L43.712,10.816 L43.712,14.176 Z M47.968,14.176 L45.112,14.176 L45.112,10.816 L47.968,10.816 L47.968,14.176 Z M58.601,21.12 C59.7256667,21.12 60.8386667,21.0966667 61.94,21.05 C62.3506667,21.0313333 62.6866667,20.9893333 62.948,20.924 C63.2093333,20.8586667 63.4193333,20.756 63.578,20.616 C63.7366667,20.476 63.8603333,20.2916667 63.949,20.063 C64.0376667,19.8343333 64.1193333,19.552 64.194,19.216 C64.2406667,18.9826667 64.2756667,18.768 64.299,18.572 C64.3223333,18.376 64.3386667,18.1986667 64.348,18.04 L64.348,18.04 L62.906,17.536 C62.8966667,17.7226667 62.885,17.893 62.871,18.047 C62.857,18.201 62.8313333,18.3806667 62.794,18.586 C62.7566667,18.7913333 62.717,18.9593333 62.675,19.09 C62.633,19.2206667 62.5653333,19.3256667 62.472,19.405 C62.3786667,19.4843333 62.2573333,19.545 62.108,19.587 C61.9586667,19.629 61.7626667,19.6546667 61.52,19.664 C60.5773333,19.72 59.6183333,19.7456667 58.643,19.741 C57.6676667,19.7363333 56.7086667,19.7106667 55.766,19.664 C55.514,19.6546667 55.3086667,19.629 55.15,19.587 C54.9913333,19.545 54.8676667,19.475 54.779,19.377 C54.6903333,19.279 54.6296667,19.1483333 54.597,18.985 C54.5643333,18.8216667 54.548,18.6046667 54.548,18.334 L54.548,18.334 L54.548,15.562 L63.214,15.562 L63.214,9.444 L53.092,9.444 L53.092,18.74 C53.092,19.1786667 53.1293333,19.5426667 53.204,19.832 C53.2786667,20.1213333 53.4023333,20.3546667 53.575,20.532 C53.7476667,20.7093333 53.9716667,20.8353333 54.247,20.91 C54.5223333,20.9846667 54.8606667,21.0313333 55.262,21.05 C56.3633333,21.0966667 57.4763333,21.12 58.601,21.12 Z M57.488,14.176 L54.548,14.176 L54.548,10.816 L57.488,10.816 L57.488,14.176 Z M61.744,14.176 L58.888,14.176 L58.888,10.816 L61.744,10.816 L61.744,14.176 Z M78.152,14.876 L78.152,13.7 L75.436,13.7 C75.548,13.588 75.6763333,13.4526667 75.821,13.294 C75.9656667,13.1353333 76.1126667,12.972 76.262,12.804 C76.4113333,12.636 76.556,12.468 76.696,12.3 C76.836,12.132 76.9526667,11.9826667 77.046,11.852 L77.046,11.852 L76.304,11.264 L77.508,11.264 L77.508,10.088 L74.764,10.088 C74.8946667,9.91066667 75.0206667,9.73566667 75.142,9.563 C75.2633333,9.39033333 75.366,9.23866667 75.45,9.108 L75.45,9.108 L74.316,8.408 C74.2506667,8.52 74.1713333,8.64833333 74.078,8.793 C73.9846667,8.93766667 73.882,9.08466667 73.77,9.234 C73.658,9.38333333 73.5436667,9.53266667 73.427,9.682 C73.3103333,9.83133333 73.2006667,9.96666667 73.098,10.088 L73.098,10.088 L70.424,10.088 L70.802,9.808 C70.662,9.59333333 70.487,9.35766667 70.277,9.101 C70.067,8.84433333 69.878,8.618 69.71,8.422 L69.71,8.422 L68.618,9.108 C68.9073333,9.39733333 69.1686667,9.724 69.402,10.088 L69.402,10.088 L66.518,10.088 L66.518,11.264 L67.652,11.264 L66.966,11.95 C67.0686667,12.0526667 67.1876667,12.174 67.323,12.314 C67.4583333,12.454 67.5983333,12.6033333 67.743,12.762 C67.8876667,12.9206667 68.0276667,13.0816667 68.163,13.245 C68.2983333,13.4083333 68.4173333,13.56 68.52,13.7 L68.52,13.7 L65.874,13.7 L65.874,14.876 L78.152,14.876 Z M69.962,13.7 L68.758,13.7 L69.514,12.902 C69.4206667,12.7806667 69.3156667,12.6476667 69.199,12.503 C69.0823333,12.3583333 68.9563333,12.2113333 68.821,12.062 C68.6856667,11.9126667 68.5503333,11.7703333 68.415,11.635 C68.2796667,11.4996667 68.1513333,11.376 68.03,11.264 L68.03,11.264 L69.962,11.264 L69.962,13.7 Z M72.72,13.7 L71.32,13.7 L71.32,11.264 L72.72,11.264 L72.72,13.7 Z M75.282,13.7 L74.064,13.7 L74.064,11.264 L75.996,11.264 C75.8933333,11.3946667 75.779,11.537 75.653,11.691 C75.527,11.845 75.394,11.999 75.254,12.153 C75.114,12.307 74.974,12.4563333 74.834,12.601 C74.694,12.7456667 74.5633333,12.874 74.442,12.986 L74.442,12.986 L75.282,13.7 Z M68.954,21.414 L68.954,20.784 L75.072,20.784 L75.072,21.4 L76.388,21.4 L76.388,15.688 L67.638,15.688 L67.638,21.414 L68.954,21.414 Z M75.072,17.718 L68.954,17.718 L68.954,16.836 L75.072,16.836 L75.072,17.718 Z M75.072,19.706 L68.954,19.706 L68.954,18.838 L75.072,18.838 L75.072,19.706 Z M86.496,19.65 L87.294,18.782 C87.2193333,18.6886667 87.1283333,18.5836667 87.021,18.467 C86.9136667,18.3503333 86.797,18.229 86.671,18.103 C86.545,17.977 86.4166667,17.8533333 86.286,17.732 C86.1553333,17.6106667 86.034,17.4986667 85.922,17.396 C86.342,17.3866667 86.7573333,17.375 87.168,17.361 C87.5786667,17.347 87.9636667,17.3353333 88.323,17.326 C88.6823333,17.3166667 89.009,17.3073333 89.303,17.298 C89.597,17.2886667 89.8466667,17.284 90.052,17.284 C90.1826667,17.4706667 90.311,17.6503333 90.437,17.823 C90.563,17.9956667 90.6633333,18.1473333 90.738,18.278 L90.738,18.278 L91.69,17.452 C91.5966667,17.3306667 91.4916667,17.1883333 91.375,17.025 C91.2583333,16.8616667 91.1323333,16.696 90.997,16.528 C90.8616667,16.36 90.7286667,16.1896667 90.598,16.017 C90.4673333,15.8443333 90.3413333,15.688 90.22,15.548 L90.22,15.548 L90.584,15.548 L90.584,11.488 L86.384,11.488 L86.384,10.83 L91.508,10.83 L91.508,9.738 L86.384,9.738 L86.384,8.8 L85.124,8.744 L85.124,9.738 L80.014,9.738 L80.014,10.83 L85.124,10.83 L85.124,11.488 L80.896,11.488 L80.896,15.548 L85.124,15.548 L85.124,16.374 C84.5453333,16.3833333 83.976,16.3926667 83.416,16.402 C82.856,16.4113333 82.345,16.4206667 81.883,16.43 C81.421,16.4393333 81.0266667,16.4463333 80.7,16.451 C80.4822222,16.4541111 80.3100741,16.4561852 80.1835556,16.4572222 L80.028,16.458 L80.056,17.578 C80.1586667,17.578 80.3826667,17.571 80.728,17.557 C81.0733333,17.543 81.4933333,17.529 81.988,17.515 C82.4826667,17.501 83.0333333,17.4846667 83.64,17.466 C84.2466667,17.4473333 84.8626667,17.4286667 85.488,17.41 L85.488,17.41 L84.914,17.956 C85.0353333,18.068 85.166,18.194 85.306,18.334 C85.446,18.474 85.586,18.6163333 85.726,18.761 C85.866,18.9056667 86.0013333,19.055 86.132,19.209 C86.2626667,19.363 86.384,19.51 86.496,19.65 L86.496,19.65 Z M85.124,13.098 L82.268,13.098 L82.268,12.468 L85.124,12.468 L85.124,13.098 Z M89.226,13.098 L86.384,13.098 L86.384,12.468 L89.226,12.468 L89.226,13.098 Z M85.124,14.61 L82.268,14.61 L82.268,13.952 L85.124,13.952 L85.124,14.61 Z M89.226,14.61 L86.384,14.61 L86.384,13.952 L89.226,13.952 L89.226,14.61 Z M86.384,16.36 L86.384,15.548 L89.52,15.548 L89.002,15.912 C89.0486667,15.968 89.0976667,16.031 89.149,16.101 C89.2003333,16.171 89.2586667,16.2433333 89.324,16.318 C88.932,16.318 88.484,16.3226667 87.98,16.332 C87.476,16.3413333 86.944,16.3506667 86.384,16.36 L86.384,16.36 Z M80.602,21.064 C80.9006667,20.6253333 81.2016667,20.1633333 81.505,19.678 C81.8083333,19.1926667 82.0953333,18.6933333 82.366,18.18 L82.366,18.18 L81.274,17.592 C81.0406667,18.0306667 80.763,18.495 80.441,18.985 C80.119,19.475 79.7946667,19.9346667 79.468,20.364 L79.468,20.364 L80.602,21.064 Z M90.808,20.938 L91.928,20.21 C91.6386667,19.7433333 91.354,19.3046667 91.074,18.894 C90.794,18.4833333 90.4953333,18.0586667 90.178,17.62 L90.178,17.62 L89.114,18.208 C89.282,18.4506667 89.4383333,18.6793333 89.583,18.894 C89.7276667,19.1086667 89.8653333,19.3256667 89.996,19.545 C90.1266667,19.7643333 90.2596667,19.9883333 90.395,20.217 C90.5303333,20.4456667 90.668,20.686 90.808,20.938 L90.808,20.938 Z M84.466,21.162 C85.306,21.2086667 86.1506667,21.2086667 87,21.162 C87.336,21.1433333 87.6136667,21.1106667 87.833,21.064 C88.0523333,21.0173333 88.2366667,20.945 88.386,20.847 C88.5353333,20.749 88.6496667,20.6253333 88.729,20.476 C88.8083333,20.3266667 88.876,20.1446667 88.932,19.93 C88.9693333,19.7806667 88.9996667,19.6383333 89.023,19.503 C89.0463333,19.3676667 89.0673333,19.1926667 89.086,18.978 L89.086,18.978 L87.826,18.558 C87.8073333,18.7446667 87.791,18.908 87.777,19.048 C87.763,19.188 87.742,19.314 87.714,19.426 C87.6673333,19.6406667 87.5903333,19.7876667 87.483,19.867 C87.3756667,19.9463333 87.1586667,19.9953333 86.832,20.014 C86.1786667,20.0606667 85.53,20.0606667 84.886,20.014 C84.5966667,19.9953333 84.403,19.9486667 84.305,19.874 C84.207,19.7993333 84.158,19.6313333 84.158,19.37 L84.158,19.37 L84.158,17.97 L82.758,17.914 L82.758,19.804 C82.758,20.2706667 82.8886667,20.6066667 83.15,20.812 C83.4113333,21.0173333 83.85,21.134 84.466,21.162 Z M101.574,21.414 L101.574,19.132 L103.744,19.132 L103.744,17.844 L101.574,17.844 L101.574,13.868 C102.012667,14.8573333 102.556333,15.8046667 103.205,16.71 C103.853667,17.6153333 104.556,18.4366667 105.312,19.174 L105.312,19.174 L106.264,17.872 C105.386667,17.0786667 104.593333,16.227 103.884,15.317 C103.174667,14.407 102.596,13.4153333 102.148,12.342 L102.148,12.342 L105.382,12.342 L105.382,10.928 L101.574,10.928 L101.574,8.786 L100.202,8.73 L100.202,10.928 L96.856,10.928 L96.856,12.342 L99.698,12.342 C98.8953333,14.3206667 97.738,16.052 96.226,17.536 L96.226,17.536 L96.226,12.034 C96.6366667,11.1006667 96.996,10.102 97.304,9.038 L97.304,9.038 L95.848,8.786 C95.68,9.35533333 95.4816667,9.92933333 95.253,10.508 C95.0243333,11.0866667 94.777,11.6466667 94.511,12.188 C94.245,12.7293333 93.9743333,13.2356667 93.699,13.707 C93.4236667,14.1783333 93.16,14.596 92.908,14.96 L92.908,14.96 L93.776,16.206 C93.972,15.9446667 94.161,15.681 94.343,15.415 C94.525,15.149 94.7046667,14.8806667 94.882,14.61 L94.882,14.61 L94.882,21.316 L96.226,21.316 L96.226,18.516 L96.716,19.174 C97.528,18.3246667 98.214,17.4753333 98.774,16.626 C99.334,15.7766667 99.81,14.8806667 100.202,13.938 L100.202,13.938 L100.202,17.844 L98.144,17.844 L98.144,19.132 L100.202,19.132 L100.202,21.414 L101.574,21.414 Z M117.674,21.4 L117.674,17.424 L122.28,17.424 L122.28,11.222 L117.674,11.222 L117.674,8.758 L116.232,8.702 L116.232,11.222 L111.542,11.222 L111.542,17.424 L116.232,17.424 L116.232,21.4 L117.674,21.4 Z M116.232,16.052 L113.012,16.052 L113.012,12.636 L116.232,12.636 L116.232,16.052 Z M120.824,16.052 L117.674,16.052 L117.674,12.636 L120.824,12.636 L120.824,16.052 Z M128.188,12.748 L129.238,12.048 C129.163333,11.9173333 129.072333,11.754 128.965,11.558 C128.857667,11.362 128.743333,11.1706667 128.622,10.984 L128.622,10.984 L130.582,10.984 L130.204,11.502 L131.394,12.048 C131.506,11.8893333 131.620333,11.719 131.737,11.537 C131.853667,11.355 131.968,11.1706667 132.08,10.984 L132.08,10.984 L132.976,10.984 C133.116,11.2546667 133.265333,11.544 133.424,11.852 C133.582667,12.16 133.722667,12.4306667 133.844,12.664 L133.844,12.664 L134.894,11.964 C134.828667,11.8333333 134.744667,11.684 134.642,11.516 C134.539333,11.348 134.436667,11.1706667 134.334,10.984 L134.334,10.984 L136.546,10.984 L136.546,9.794 L132.724,9.794 C132.798667,9.63533333 132.873333,9.472 132.948,9.304 C133.022667,9.136 133.092667,8.97266667 133.158,8.814 L133.158,8.814 L131.856,8.576 C131.697333,8.968 131.527,9.346 131.345,9.71 C131.163,10.074 130.950667,10.4333333 130.708,10.788 L130.708,10.788 L130.708,9.794 L127.614,9.794 C127.791333,9.44866667 127.940667,9.13133333 128.062,8.842 L128.062,8.842 L126.732,8.562 C126.498667,9.08466667 126.197667,9.647 125.829,10.249 C125.460333,10.851 125.038,11.4133333 124.562,11.936 L124.562,11.936 L125.668,12.678 C125.901333,12.4166667 126.123,12.1436667 126.333,11.859 C126.543,11.5743333 126.741333,11.2826667 126.928,10.984 L126.928,10.984 L127.278,10.984 C127.418,11.2546667 127.572,11.5556667 127.74,11.887 C127.908,12.2183333 128.057333,12.5053333 128.188,12.748 L128.188,12.748 Z M136.728,16.108 L136.728,14.932 L131.31,14.932 L131.31,13.91 L135.594,13.91 L135.594,12.762 L131.31,12.762 L131.31,12.076 L129.91,12.02 L129.91,12.762 L125.612,12.762 L125.612,13.91 L129.91,13.91 L129.91,14.932 L124.478,14.932 L124.478,16.108 L136.728,16.108 Z M130.806,21.4 L131.898,21.316 C132.318,21.288 132.663333,21.2436667 132.934,21.183 C133.204667,21.1223333 133.421667,21.0313333 133.585,20.91 C133.748333,20.7886667 133.862667,20.6206667 133.928,20.406 C133.993333,20.1913333 134.026,19.916 134.026,19.58 L134.026,19.58 L134.026,18.25 L136.14,18.25 L136.14,17.074 L134.026,17.074 L134.026,16.234 L132.64,16.178 L132.64,17.074 L125.066,17.074 L125.066,18.25 L127.04,18.25 L126.662,18.782 C126.83,18.8846667 127.023667,19.013 127.243,19.167 C127.462333,19.321 127.684,19.482 127.908,19.65 C128.132,19.818 128.349,19.986 128.559,20.154 C128.769,20.322 128.944,20.4713333 129.084,20.602 L129.084,20.602 L129.812,19.538 C129.606667,19.3513333 129.345333,19.1413333 129.028,18.908 C128.710667,18.6746667 128.402667,18.4553333 128.104,18.25 L128.104,18.25 L132.64,18.25 L132.64,19.3 C132.64,19.468 132.628333,19.6033333 132.605,19.706 C132.581667,19.8086667 132.530333,19.8856667 132.451,19.937 C132.371667,19.9883333 132.259667,20.0256667 132.115,20.049 C131.970333,20.0723333 131.776667,20.0933333 131.534,20.112 L131.534,20.112 L130.4,20.196 L130.806,21.4 Z" id="阿里巴巴普惠体中等"></path>
                    </g>
                </g>
            </g>
        </g>
    </g>
</svg>