<?xml version="1.0" encoding="UTF-8"?>
<svg width="127px" height="14px" viewBox="0 0 127 14" version="1.1" xmlns="http://www.w3.org/2000/svg" xmlns:xlink="http://www.w3.org/1999/xlink">
    <!-- Generator: Sketch 60.1 (88133) - https://sketch.com -->
    <title>阿里巴巴普惠体粗体</title>
    <desc>Created with Sketch.</desc>
    <g id="Page-1" stroke="none" stroke-width="1" fill="none" fill-rule="evenodd">
        <g id="图表-文字" transform="translate(-679.000000, -256.000000)" fill="#FFFFFF" fill-rule="nonzero">
            <g id="下拉框" transform="translate(668.000000, 158.000000)">
                <g id="组合-&lt;v0&gt;">
                    <g id="4" transform="translate(0.000000, 90.000000)">
                        <path d="M12.772,21.456 L12.772,10.914 L13.864,10.914 C13.7613333,11.4366667 13.6213333,11.9616667 13.444,12.489 C13.2666667,13.0163333 13.0753333,13.532 12.87,14.036 C13.0006667,14.232 13.1313333,14.4373333 13.262,14.652 C13.3926667,14.8666667 13.5093333,15.086 13.612,15.31 C13.7146667,15.534 13.7986667,15.7626667 13.864,15.996 C13.9293333,16.2293333 13.962,16.4673333 13.962,16.71 C13.962,16.906 13.9526667,17.0576667 13.934,17.165 C13.9153333,17.2723333 13.885,17.3563333 13.843,17.417 C13.801,17.4776667 13.745,17.5196667 13.675,17.543 C13.605,17.5663333 13.514,17.592 13.402,17.62 L13.402,17.62 L12.842,17.718 L13.318,19.342 L13.92,19.23 C14.144,19.1926667 14.347,19.146 14.529,19.09 C14.711,19.034 14.8696667,18.9406667 15.005,18.81 C15.1403333,18.6793333 15.243,18.4973333 15.313,18.264 C15.383,18.0306667 15.418,17.7086667 15.418,17.298 C15.418,16.8126667 15.3876667,16.3996667 15.327,16.059 C15.2663333,15.7183333 15.1893333,15.422 15.096,15.17 C15.0026667,14.918 14.9,14.6916667 14.788,14.491 C14.676,14.2903333 14.5686667,14.0826667 14.466,13.868 C14.5686667,13.588 14.662,13.329 14.746,13.091 C14.83,12.853 14.9093333,12.6173333 14.984,12.384 C15.0586667,12.1506667 15.131,11.915 15.201,11.677 C15.271,11.439 15.3433333,11.1846667 15.418,10.914 L15.418,10.914 L15.418,9.262 L11.204,9.262 L11.204,21.456 L12.772,21.456 Z M18.988,21.414 L20.122,21.33 C20.5513333,21.302 20.8966667,21.2483333 21.158,21.169 C21.4193333,21.0896667 21.62,20.966 21.76,20.798 C21.9,20.63 21.9933333,20.4036667 22.04,20.119 C22.0866667,19.8343333 22.11,19.468 22.11,19.02 L22.11,19.02 L22.11,11.18 L23.02,11.18 L23.02,9.514 L15.796,9.514 L15.796,11.18 L20.472,11.18 L20.472,18.502 C20.472,18.7166667 20.4603333,18.894 20.437,19.034 C20.4136667,19.174 20.3693333,19.2836667 20.304,19.363 C20.2386667,19.4423333 20.1523333,19.5006667 20.045,19.538 C19.9376667,19.5753333 19.7953333,19.5986667 19.618,19.608 L19.618,19.608 L18.526,19.692 L18.988,21.414 Z M19.772,18.152 L19.772,12.328 L15.796,12.328 L15.796,18.152 L19.772,18.152 Z M18.26,16.64 L17.182,16.64 L17.182,13.854 L18.26,13.854 L18.26,16.64 Z M36.656,21.064 L36.656,19.468 L31.518,19.468 L31.518,18.516 L35.648,18.516 L35.648,16.906 L31.518,16.906 L31.518,15.954 L35.62,15.954 L35.62,9.234 L25.68,9.234 L25.68,15.954 L29.796,15.954 L29.796,16.906 L25.68,16.906 L25.68,18.516 L29.796,18.516 L29.796,19.468 L24.616,19.468 L24.616,21.064 L36.656,21.064 Z M29.796,11.838 L27.36,11.838 L27.36,10.816 L29.796,10.816 L29.796,11.838 Z M33.954,11.838 L31.518,11.838 L31.518,10.816 L33.954,10.816 L33.954,11.838 Z M29.796,14.386 L27.36,14.386 L27.36,13.35 L29.796,13.35 L29.796,14.386 Z M33.954,14.386 L31.518,14.386 L31.518,13.35 L33.954,13.35 L33.954,14.386 Z M41.598,21.176 C43.7913333,21.288 45.9846667,21.288 48.178,21.176 C48.6166667,21.1573333 48.9713333,21.1153333 49.242,21.05 C49.5126667,20.9846667 49.7296667,20.882 49.893,20.742 C50.0563333,20.602 50.18,20.413 50.264,20.175 C50.348,19.937 50.4273333,19.636 50.502,19.272 C50.5486667,19.0106667 50.5906667,18.7563333 50.628,18.509 C50.6653333,18.2616667 50.6886667,18.068 50.698,17.928 L50.698,17.928 L48.836,17.298 C48.8266667,17.4566667 48.8126667,17.6433333 48.794,17.858 C48.7753333,18.0726667 48.7426667,18.2826667 48.696,18.488 C48.6493333,18.684 48.605,18.8426667 48.563,18.964 C48.521,19.0853333 48.465,19.181 48.395,19.251 C48.325,19.321 48.2293333,19.37 48.108,19.398 C47.9866667,19.426 47.828,19.4446667 47.632,19.454 C46.7266667,19.51 45.8353333,19.538 44.958,19.538 C44.0806667,19.538 43.1753333,19.51 42.242,19.454 C41.9993333,19.4446667 41.8033333,19.4213333 41.654,19.384 C41.5046667,19.3466667 41.388,19.286 41.304,19.202 C41.22,19.118 41.1616667,19.0036667 41.129,18.859 C41.0963333,18.7143333 41.08,18.5253333 41.08,18.292 L41.08,18.292 L41.08,15.646 L49.522,15.646 L49.522,9.29 L39.246,9.29 L39.246,18.768 C39.246,19.2253333 39.288,19.6033333 39.372,19.902 C39.456,20.2006667 39.5913333,20.441 39.778,20.623 C39.9646667,20.805 40.2073333,20.938 40.506,21.022 C40.8046667,21.106 41.1686667,21.1573333 41.598,21.176 Z M43.488,13.924 L41.08,13.924 L41.08,10.984 L43.488,10.984 L43.488,13.924 Z M47.66,13.924 L45.28,13.924 L45.28,10.984 L47.66,10.984 L47.66,13.924 Z M55.374,21.176 C57.5673333,21.288 59.7606667,21.288 61.954,21.176 C62.3926667,21.1573333 62.7473333,21.1153333 63.018,21.05 C63.2886667,20.9846667 63.5056667,20.882 63.669,20.742 C63.8323333,20.602 63.956,20.413 64.04,20.175 C64.124,19.937 64.2033333,19.636 64.278,19.272 C64.3246667,19.0106667 64.3666667,18.7563333 64.404,18.509 C64.4413333,18.2616667 64.4646667,18.068 64.474,17.928 L64.474,17.928 L62.612,17.298 C62.6026667,17.4566667 62.5886667,17.6433333 62.57,17.858 C62.5513333,18.0726667 62.5186667,18.2826667 62.472,18.488 C62.4253333,18.684 62.381,18.8426667 62.339,18.964 C62.297,19.0853333 62.241,19.181 62.171,19.251 C62.101,19.321 62.0053333,19.37 61.884,19.398 C61.7626667,19.426 61.604,19.4446667 61.408,19.454 C60.5026667,19.51 59.6113333,19.538 58.734,19.538 C57.8566667,19.538 56.9513333,19.51 56.018,19.454 C55.7753333,19.4446667 55.5793333,19.4213333 55.43,19.384 C55.2806667,19.3466667 55.164,19.286 55.08,19.202 C54.996,19.118 54.9376667,19.0036667 54.905,18.859 C54.8723333,18.7143333 54.856,18.5253333 54.856,18.292 L54.856,18.292 L54.856,15.646 L63.298,15.646 L63.298,9.29 L53.022,9.29 L53.022,18.768 C53.022,19.2253333 53.064,19.6033333 53.148,19.902 C53.232,20.2006667 53.3673333,20.441 53.554,20.623 C53.7406667,20.805 53.9833333,20.938 54.282,21.022 C54.5806667,21.106 54.9446667,21.1573333 55.374,21.176 Z M57.264,13.924 L54.856,13.924 L54.856,10.984 L57.264,10.984 L57.264,13.924 Z M61.436,13.924 L59.056,13.924 L59.056,10.984 L61.436,10.984 L61.436,13.924 Z M78.082,15.03 L78.082,13.56 L75.73,13.56 C75.9446667,13.336 76.1756667,13.0816667 76.423,12.797 C76.6703333,12.5123333 76.8733333,12.2626667 77.032,12.048 L77.032,12.048 L76.22,11.404 L77.424,11.404 L77.424,9.92 L74.862,9.92 L75.282,8.898 L73.434,8.758 L73.042,9.92 L70.928,9.92 L70.606,8.758 L68.716,8.898 L69.094,9.92 L66.588,9.92 L66.588,11.404 L67.652,11.404 L66.952,12.09 C67.1293333,12.2766667 67.3463333,12.51 67.603,12.79 C67.8596667,13.07 68.0953333,13.3266667 68.31,13.56 L68.31,13.56 L65.916,13.56 L65.916,15.03 L78.082,15.03 Z M69.864,13.56 L68.898,13.56 L69.71,12.79 C69.5326667,12.5846667 69.325,12.356 69.087,12.104 C68.849,11.852 68.6226667,11.6186667 68.408,11.404 L68.408,11.404 L69.864,11.404 L69.864,13.56 Z M72.58,13.56 L71.432,13.56 L71.432,11.404 L72.58,11.404 L72.58,13.56 Z M75.156,13.56 L74.162,13.56 L74.162,11.404 L75.646,11.404 C75.4593333,11.6466667 75.247,11.8963333 75.009,12.153 C74.771,12.4096667 74.5446667,12.6453333 74.33,12.86 L74.33,12.86 L75.156,13.56 Z M76.486,21.19 L76.486,15.52 L67.526,15.52 L67.526,21.19 L76.486,21.19 Z M74.792,17.704 L69.22,17.704 L69.22,16.976 L74.792,16.976 L74.792,17.704 Z M74.792,19.832 L69.22,19.832 L69.22,19.076 L74.792,19.076 L74.792,19.832 Z M80.84,21.106 C81.1293333,20.7233333 81.4233333,20.2776667 81.722,19.769 C82.0206667,19.2603333 82.2773333,18.754 82.492,18.25 L82.492,18.25 L81.33,17.634 C81.8433333,17.6153333 82.4546667,17.5966667 83.164,17.578 C83.8733333,17.5593333 84.6153333,17.536 85.39,17.508 L85.39,17.508 L84.844,18.04 C84.9093333,18.096 85.005,18.187 85.131,18.313 C85.257,18.439 85.3876667,18.5743333 85.523,18.719 C85.6583333,18.8636667 85.7936667,19.0153333 85.929,19.174 C86.0643333,19.3326667 86.1833333,19.4773333 86.286,19.608 L86.286,19.608 L87.322,18.656 C87.1726667,18.4786667 86.993,18.2826667 86.783,18.068 C86.573,17.8533333 86.3746667,17.6573333 86.188,17.48 C86.888,17.452 87.5623333,17.424 88.211,17.396 C88.8596667,17.368 89.422,17.34 89.898,17.312 C89.9446667,17.368 89.9866667,17.424 90.024,17.48 L90.024,17.48 L90.136,17.648 L88.974,18.362 C89.086,18.4926667 89.2096667,18.6583333 89.345,18.859 C89.4803333,19.0596667 89.618,19.2743333 89.758,19.503 C89.898,19.7316667 90.031,19.972 90.157,20.224 C90.283,20.476 90.3926667,20.7186667 90.486,20.952 L90.486,20.952 L91.914,20.07 C91.7833333,19.8086667 91.62,19.5146667 91.424,19.188 C91.228,18.8613333 91.0273333,18.5533333 90.822,18.264 L90.822,18.264 L91.886,17.354 C91.802,17.2513333 91.7016667,17.1276667 91.585,16.983 C91.4683333,16.8383333 91.347,16.6843333 91.221,16.521 C91.095,16.3576667 90.9666667,16.1943333 90.836,16.031 C90.7053333,15.8676667 90.5793333,15.7113333 90.458,15.562 L90.458,15.562 L90.64,15.562 L90.64,11.362 L86.538,11.362 L86.538,10.886 L91.424,10.886 L91.424,9.612 L86.538,9.612 L86.538,8.828 L84.984,8.758 L84.984,9.612 L80.112,9.612 L80.112,10.886 L84.984,10.886 L84.984,11.362 L80.826,11.362 L80.826,15.562 L84.984,15.562 L84.984,16.262 C84.4053333,16.2713333 83.8523333,16.2783333 83.325,16.283 C82.7976667,16.2876667 82.317,16.2923333 81.883,16.297 C81.449,16.3016667 81.078,16.3063333 80.77,16.311 C80.462,16.3156667 80.238,16.318 80.098,16.318 L80.098,16.318 L80.126,17.676 L81.022,17.648 C80.8166667,18.0866667 80.5716667,18.537 80.287,18.999 C80.0023333,19.461 79.7153333,19.8646667 79.426,20.21 L79.426,20.21 L80.84,21.106 Z M84.984,12.986 L82.492,12.986 L82.492,12.524 L84.984,12.524 L84.984,12.986 Z M88.988,12.986 L86.538,12.986 L86.538,12.524 L88.988,12.524 L88.988,12.986 Z M84.984,14.456 L82.492,14.456 L82.492,13.966 L84.984,13.966 L84.984,14.456 Z M88.988,14.456 L86.538,14.456 L86.538,13.966 L88.988,13.966 L88.988,14.456 Z M86.538,16.234 L86.538,15.562 L89.366,15.562 L88.862,15.912 L88.862,15.912 L88.9915,16.0835 L88.9915,16.0835 L89.044,16.15 L86.538,16.234 Z M84.396,21.246 C85.2733333,21.2926667 86.1506667,21.2926667 87.028,21.246 C87.392,21.2273333 87.693,21.197 87.931,21.155 C88.169,21.113 88.365,21.0453333 88.519,20.952 C88.673,20.8586667 88.792,20.7326667 88.876,20.574 C88.96,20.4153333 89.0253333,20.21 89.072,19.958 C89.128,19.65 89.156,19.3513333 89.156,19.062 L89.156,19.062 L87.686,18.642 C87.6673333,18.8286667 87.651,18.9686667 87.637,19.062 C87.623,19.1553333 87.6066667,19.2533333 87.588,19.356 C87.5506667,19.5426667 87.4806667,19.6663333 87.378,19.727 C87.2753333,19.7876667 87.084,19.8273333 86.804,19.846 C86.496,19.8646667 86.1856667,19.8763333 85.873,19.881 C85.5603333,19.8856667 85.25,19.874 84.942,19.846 C84.6993333,19.8366667 84.5383333,19.8016667 84.459,19.741 C84.3796667,19.6803333 84.34,19.524 84.34,19.272 L84.34,19.272 L84.34,17.928 L82.59,17.858 L82.59,19.818 C82.59,20.3033333 82.7276667,20.6556667 83.003,20.875 C83.2783333,21.0943333 83.7426667,21.218 84.396,21.246 Z M101.784,21.4 L101.784,19.272 L103.646,19.272 L103.646,17.676 L101.784,17.676 L101.784,14.358 C101.970667,14.778 102.166667,15.1863333 102.372,15.583 C102.577333,15.9796667 102.806,16.3763333 103.058,16.773 C103.31,17.1696667 103.597,17.571 103.919,17.977 C104.241,18.383 104.607333,18.8053333 105.018,19.244 L105.018,19.244 L106.292,17.69 C105.9,17.326 105.526667,16.9573333 105.172,16.584 C104.817333,16.2106667 104.479,15.8186667 104.157,15.408 C103.835,14.9973333 103.529333,14.561 103.24,14.099 C102.950667,13.637 102.675333,13.14 102.414,12.608 L102.414,12.608 L105.144,12.608 L105.144,10.886 L101.784,10.886 L101.784,8.898 L100.09,8.828 L100.09,10.886 L97.15,10.886 L97.15,12.608 L99.446,12.608 C99.0353333,13.56 98.5826667,14.393 98.088,15.107 C97.5933333,15.821 97.0566667,16.472 96.478,17.06 L96.478,17.06 L96.478,12.146 C96.7206667,11.586 96.9306667,11.0563333 97.108,10.557 C97.2853333,10.0576667 97.4253333,9.63066667 97.528,9.276 L97.528,9.276 L95.834,8.898 C95.7033333,9.36466667 95.5446667,9.85 95.358,10.354 C95.1713333,10.858 94.9566667,11.3666667 94.714,11.88 C94.4713333,12.3933333 94.196,12.9043333 93.888,13.413 C93.58,13.9216667 93.2393333,14.414 92.866,14.89 L92.866,14.89 L94.07,16.262 C94.2006667,16.1033333 94.329,15.9376667 94.455,15.765 C94.581,15.5923333 94.7093333,15.4126667 94.84,15.226 L94.84,15.226 L94.84,21.274 L96.478,21.274 L96.478,18.362 L97.094,19.062 C97.29,18.8566667 97.479,18.6466667 97.661,18.432 C97.843,18.2173333 98.0226667,17.998 98.2,17.774 L98.2,17.774 L98.2,19.272 L100.09,19.272 L100.09,21.4 L101.784,21.4 Z M100.09,17.676 L98.284,17.676 C98.9933333,16.7426667 99.5953333,15.7253333 100.09,14.624 L100.09,14.624 L100.09,17.676 Z M114.37,21.316 L114.37,17.116 C114.51,17.3026667 114.65,17.5033333 114.79,17.718 C114.93,17.9326667 115.074667,18.1566667 115.224,18.39 L115.224,18.39 L116.232,17.13 C115.998667,16.8406667 115.760667,16.5723333 115.518,16.325 C115.275333,16.0776667 115.018667,15.8326667 114.748,15.59 L114.748,15.59 L114.37,15.996 L114.37,15.128 L116.008,15.128 L116.008,13.434 L114.37,13.434 L114.37,12.832 L115.378,13.21 C115.452667,13.042 115.532,12.8483333 115.616,12.629 C115.7,12.4096667 115.786333,12.181 115.875,11.943 C115.963667,11.705 116.047667,11.4693333 116.127,11.236 C116.206333,11.0026667 116.274,10.7926667 116.33,10.606 L116.33,10.606 L116.33,19.496 L115.224,19.496 L115.224,21.162 L123.064,21.162 L123.064,19.496 L122.126,19.496 L122.126,9.192 L116.33,9.192 L116.33,10.354 L115.126,9.892 C115.032667,10.1813333 114.918333,10.5266667 114.783,10.928 C114.647667,11.3293333 114.51,11.712 114.37,12.076 L114.37,12.076 L114.37,8.996 L112.76,8.912 L112.76,12.104 C112.704,11.9173333 112.641,11.7213333 112.571,11.516 C112.501,11.3106667 112.431,11.11 112.361,10.914 C112.291,10.718 112.223333,10.5336667 112.158,10.361 C112.092667,10.1883333 112.032,10.0366667 111.976,9.906 L111.976,9.906 L110.646,10.396 C110.711333,10.564 110.788333,10.767 110.877,11.005 C110.965667,11.243 111.054333,11.4903333 111.143,11.747 C111.231667,12.0036667 111.315667,12.2603333 111.395,12.517 C111.474333,12.7736667 111.542,13 111.598,13.196 L111.598,13.196 L112.76,12.664 L112.76,13.434 L111.024,13.434 L111.024,15.128 L112.41,15.128 C112.139333,15.6413333 111.826667,16.1593333 111.472,16.682 C111.117333,17.2046667 110.767333,17.676 110.422,18.096 L110.422,18.096 L111.304,19.552 C111.602667,19.1506667 111.868667,18.7656667 112.102,18.397 C112.335333,18.0283333 112.554667,17.6573333 112.76,17.284 L112.76,17.284 L112.76,21.316 L114.37,21.316 Z M120.502,12.608 L117.982,12.608 L117.982,10.872 L120.502,10.872 L120.502,12.608 Z M120.502,16.038 L117.982,16.038 L117.982,14.232 L120.502,14.232 L120.502,16.038 Z M120.502,19.496 L117.982,19.496 L117.982,17.704 L120.502,17.704 L120.502,19.496 Z M132.934,21.4 L132.934,19.272 L134.796,19.272 L134.796,17.676 L132.934,17.676 L132.934,14.358 C133.120667,14.778 133.316667,15.1863333 133.522,15.583 C133.727333,15.9796667 133.956,16.3763333 134.208,16.773 C134.46,17.1696667 134.747,17.571 135.069,17.977 C135.391,18.383 135.757333,18.8053333 136.168,19.244 L136.168,19.244 L137.442,17.69 C137.05,17.326 136.676667,16.9573333 136.322,16.584 C135.967333,16.2106667 135.629,15.8186667 135.307,15.408 C134.985,14.9973333 134.679333,14.561 134.39,14.099 C134.100667,13.637 133.825333,13.14 133.564,12.608 L133.564,12.608 L136.294,12.608 L136.294,10.886 L132.934,10.886 L132.934,8.898 L131.24,8.828 L131.24,10.886 L128.3,10.886 L128.3,12.608 L130.596,12.608 C130.185333,13.56 129.732667,14.393 129.238,15.107 C128.743333,15.821 128.206667,16.472 127.628,17.06 L127.628,17.06 L127.628,12.146 C127.870667,11.586 128.080667,11.0563333 128.258,10.557 C128.435333,10.0576667 128.575333,9.63066667 128.678,9.276 L128.678,9.276 L126.984,8.898 C126.853333,9.36466667 126.694667,9.85 126.508,10.354 C126.321333,10.858 126.106667,11.3666667 125.864,11.88 C125.621333,12.3933333 125.346,12.9043333 125.038,13.413 C124.73,13.9216667 124.389333,14.414 124.016,14.89 L124.016,14.89 L125.22,16.262 C125.350667,16.1033333 125.479,15.9376667 125.605,15.765 C125.731,15.5923333 125.859333,15.4126667 125.99,15.226 L125.99,15.226 L125.99,21.274 L127.628,21.274 L127.628,18.362 L128.244,19.062 C128.44,18.8566667 128.629,18.6466667 128.811,18.432 C128.993,18.2173333 129.172667,17.998 129.35,17.774 L129.35,17.774 L129.35,19.272 L131.24,19.272 L131.24,21.4 L132.934,21.4 Z M131.24,17.676 L129.434,17.676 C130.143333,16.7426667 130.745333,15.7253333 131.24,14.624 L131.24,14.624 L131.24,17.676 Z" id="阿里巴巴普惠体粗体"></path>
                    </g>
                </g>
            </g>
        </g>
    </g>
</svg>