<?xml version="1.0" encoding="UTF-8"?>
<svg width="128px" height="14px" viewBox="0 0 128 14" version="1.1" xmlns="http://www.w3.org/2000/svg" xmlns:xlink="http://www.w3.org/1999/xlink">
    <!-- Generator: Sketch 60.1 (88133) - https://sketch.com -->
    <title>阿里巴巴普惠体特粗</title>
    <desc>Created with Sketch.</desc>
    <g id="Page-1" stroke="none" stroke-width="1" fill="none" fill-rule="evenodd">
        <g id="图表-文字" transform="translate(-678.000000, -286.000000)" fill="#FFFFFF" fill-rule="nonzero">
            <g id="下拉框" transform="translate(668.000000, 158.000000)">
                <g id="组合-&lt;v0&gt;">
                    <g id="5" transform="translate(0.000000, 120.000000)">
                        <path d="M12.912,21.582 L12.912,18.264 L13.458,20.252 L14.284,20.084 C14.5266667,20.0373333 14.732,19.9743333 14.9,19.895 C15.068,19.8156667 15.2056667,19.6943333 15.313,19.531 C15.4203333,19.3676667 15.4973333,19.1483333 15.544,18.873 C15.5906667,18.5976667 15.614,18.236 15.614,17.788 C15.614,17.5266667 15.6,17.2653333 15.572,17.004 C15.544,16.7426667 15.4973333,16.472 15.432,16.192 C15.3666667,15.912 15.2803333,15.6156667 15.173,15.303 C15.0656667,14.9903333 14.928,14.652 14.76,14.288 L14.76,14.288 L15.446,11.11 L15.446,8.856 L10.994,8.856 L10.994,21.582 L12.912,21.582 Z M19.66,21.694 L20.542,21.596 C20.9806667,21.5493333 21.3376667,21.4863333 21.613,21.407 C21.8883333,21.3276667 22.103,21.2086667 22.257,21.05 C22.411,20.8913333 22.516,20.6836667 22.572,20.427 C22.628,20.1703333 22.656,19.8366667 22.656,19.426 L22.656,19.426 L22.656,11.292 L23.412,11.292 L23.412,9.122 L15.768,9.122 L15.768,11.292 L20.472,11.292 L20.472,18.474 C20.472,18.698 20.4323333,18.8566667 20.353,18.95 C20.2736667,19.0433333 20.108,19.104 19.856,19.132 L19.856,19.132 L18.89,19.23 L19.66,21.694 Z M12.912,17.942 L12.912,10.942 L13.738,10.942 L13.01,14.624 C13.2713333,15.1373333 13.4603333,15.597 13.577,16.003 C13.6936667,16.409 13.7566667,16.766 13.766,17.074 C13.766,17.4006667 13.7286667,17.6083333 13.654,17.697 C13.5793333,17.7856667 13.4813333,17.8393333 13.36,17.858 L13.36,17.858 L12.912,17.942 Z M19.884,18.404 L19.884,12.034 L15.796,12.034 L15.796,18.404 L19.884,18.404 Z M18.218,16.472 L17.35,16.472 L17.35,13.966 L18.218,13.966 L18.218,16.472 Z M37.216,21.232 L37.216,19.23 L31.896,19.23 L31.896,18.474 L36.208,18.474 L36.208,16.612 L31.896,16.612 L31.896,15.856 L36.138,15.856 L36.138,8.912 L25.428,8.912 L25.428,15.856 L29.698,15.856 L29.698,16.612 L25.358,16.612 L25.358,18.474 L29.698,18.474 L29.698,19.23 L24.35,19.23 L24.35,21.232 L37.216,21.232 Z M29.698,11.768 L27.682,11.768 L27.682,10.998 L29.698,10.998 L29.698,11.768 Z M33.884,11.768 L31.896,11.768 L31.896,10.998 L33.884,10.998 L33.884,11.768 Z M29.698,14.008 L27.682,14.008 L27.682,13.238 L29.698,13.238 L29.698,14.008 Z M33.884,14.008 L31.896,14.008 L31.896,13.238 L33.884,13.238 L33.884,14.008 Z M44.741,21.477 C45.9963333,21.4816667 47.24,21.4513333 48.472,21.386 C48.8826667,21.3673333 49.2163333,21.3253333 49.473,21.26 C49.7296667,21.1946667 49.9373333,21.0943333 50.096,20.959 C50.2546667,20.8236667 50.3806667,20.644 50.474,20.42 C50.5673333,20.196 50.656,19.9113333 50.74,19.566 C50.8053333,19.2953333 50.8566667,19.041 50.894,18.803 C50.9313333,18.565 50.9593333,18.334 50.978,18.11 L50.978,18.11 L48.626,17.326 C48.6073333,17.606 48.5653333,17.914 48.5,18.25 C48.4626667,18.418 48.4253333,18.5556667 48.388,18.663 C48.3506667,18.7703333 48.2993333,18.8566667 48.234,18.922 C48.1686667,18.9873333 48.0846667,19.0363333 47.982,19.069 C47.8793333,19.1016667 47.744,19.1226667 47.576,19.132 C46.6706667,19.188 45.77,19.2113333 44.874,19.202 C43.978,19.1926667 43.0773333,19.1693333 42.172,19.132 C41.8173333,19.1133333 41.57,19.0456667 41.43,18.929 C41.29,18.8123333 41.22,18.572 41.22,18.208 L41.22,18.208 L41.22,16.164 L50.026,16.164 L50.026,9.066 L38.924,9.066 L38.924,19.048 C38.924,19.5146667 38.9636667,19.895 39.043,20.189 C39.1223333,20.483 39.246,20.7163333 39.414,20.889 C39.582,21.0616667 39.799,21.183 40.065,21.253 C40.331,21.323 40.646,21.3673333 41.01,21.386 C42.242,21.442 43.4856667,21.4723333 44.741,21.477 Z M43.502,13.98 L41.22,13.98 L41.22,11.278 L43.502,11.278 L43.502,13.98 Z M47.702,13.98 L45.63,13.98 L45.63,11.278 L47.702,11.278 L47.702,13.98 Z M58.601,21.477 C59.8563333,21.4816667 61.1,21.4513333 62.332,21.386 C62.7426667,21.3673333 63.0763333,21.3253333 63.333,21.26 C63.5896667,21.1946667 63.7973333,21.0943333 63.956,20.959 C64.1146667,20.8236667 64.2406667,20.644 64.334,20.42 C64.4273333,20.196 64.516,19.9113333 64.6,19.566 C64.6653333,19.2953333 64.7166667,19.041 64.754,18.803 C64.7913333,18.565 64.8193333,18.334 64.838,18.11 L64.838,18.11 L62.486,17.326 C62.4673333,17.606 62.4253333,17.914 62.36,18.25 C62.3226667,18.418 62.2853333,18.5556667 62.248,18.663 C62.2106667,18.7703333 62.1593333,18.8566667 62.094,18.922 C62.0286667,18.9873333 61.9446667,19.0363333 61.842,19.069 C61.7393333,19.1016667 61.604,19.1226667 61.436,19.132 C60.5306667,19.188 59.63,19.2113333 58.734,19.202 C57.838,19.1926667 56.9373333,19.1693333 56.032,19.132 C55.6773333,19.1133333 55.43,19.0456667 55.29,18.929 C55.15,18.8123333 55.08,18.572 55.08,18.208 L55.08,18.208 L55.08,16.164 L63.886,16.164 L63.886,9.066 L52.784,9.066 L52.784,19.048 C52.784,19.5146667 52.8236667,19.895 52.903,20.189 C52.9823333,20.483 53.106,20.7163333 53.274,20.889 C53.442,21.0616667 53.659,21.183 53.925,21.253 C54.191,21.323 54.506,21.3673333 54.87,21.386 C56.102,21.442 57.3456667,21.4723333 58.601,21.477 Z M57.362,13.98 L55.08,13.98 L55.08,11.278 L57.362,11.278 L57.362,13.98 Z M61.562,13.98 L59.49,13.98 L59.49,11.278 L61.562,11.278 L61.562,13.98 Z M78.6,15.044 L78.6,13.28 L76.766,13.28 C76.85,13.1773333 76.9433333,13.0583333 77.046,12.923 C77.1486667,12.7876667 77.2536667,12.65 77.361,12.51 C77.4683333,12.37 77.5686667,12.237 77.662,12.111 C77.7553333,11.985 77.8346667,11.88 77.9,11.796 L77.9,11.796 L77.018,11.208 L78.292,11.208 L78.292,9.402 L75.73,9.402 L76.108,8.604 L73.644,8.576 C73.6066667,8.66933333 73.5553333,8.79066667 73.49,8.94 C73.4246667,9.08933333 73.3546667,9.24333333 73.28,9.402 L73.28,9.402 L71.46,9.402 C71.3853333,9.24333333 71.3153333,9.08933333 71.25,8.94 C71.1846667,8.79066667 71.1286667,8.66933333 71.082,8.576 L71.082,8.576 L68.66,8.59 C68.716,8.68333333 68.779,8.80233333 68.849,8.947 C68.919,9.09166667 68.9913333,9.24333333 69.066,9.402 L69.066,9.402 L66.462,9.402 L66.462,11.208 L67.666,11.208 L66.714,11.88 C66.8446667,12.0386667 67.0196667,12.251 67.239,12.517 C67.4583333,12.783 67.6566667,13.0373333 67.834,13.28 L67.834,13.28 L66.154,13.28 L66.154,15.044 L78.6,15.044 Z M69.836,13.28 L68.702,13.28 L69.626,12.636 C69.5046667,12.4586667 69.3366667,12.2346667 69.122,11.964 C68.9073333,11.6933333 68.702,11.4413333 68.506,11.208 L68.506,11.208 L69.836,11.208 L69.836,13.28 Z M72.79,13.28 L71.978,13.28 L71.978,11.208 L72.79,11.208 L72.79,13.28 Z M76.052,13.28 L74.946,13.28 L74.946,11.208 L76.136,11.208 C75.9586667,11.46 75.765,11.7236667 75.555,11.999 C75.345,12.2743333 75.1793333,12.482 75.058,12.622 L75.058,12.622 L76.052,13.28 Z M77.368,21.4 L77.368,15.576 L67.4,15.576 L67.4,21.4 L77.368,21.4 Z M75.058,17.676 L69.598,17.676 L69.598,17.074 L75.058,17.074 L75.058,17.676 Z M75.058,19.762 L69.598,19.762 L69.598,19.174 L75.058,19.174 L75.058,19.762 Z M86.132,21.484 C86.5333333,21.484 86.9206667,21.4746667 87.294,21.456 C87.686,21.4466667 88.0126667,21.4233333 88.274,21.386 C88.5353333,21.3486667 88.75,21.2903333 88.918,21.211 C89.086,21.1316667 89.2166667,21.022 89.31,20.882 C89.4033333,20.742 89.4826667,20.56 89.548,20.336 C89.5946667,20.168 89.6343333,20.007 89.667,19.853 C89.6996667,19.699 89.7206667,19.5566667 89.73,19.426 C89.9166667,19.7526667 90.1056667,20.0863333 90.297,20.427 C90.4883333,20.7676667 90.6586667,21.0873333 90.808,21.386 L90.808,21.386 L92.754,20.35 C92.67,20.21 92.5696667,20.0443333 92.453,19.853 C92.3363333,19.6616667 92.2126667,19.461 92.082,19.251 C91.9513333,19.041 91.8183333,18.831 91.683,18.621 C91.5476667,18.411 91.4193333,18.2126667 91.298,18.026 L91.298,18.026 L92.586,17.242 C92.4273333,16.9806667 92.2336667,16.6866667 92.005,16.36 C91.7763333,16.0333333 91.5546667,15.7206667 91.34,15.422 L91.34,15.422 L91.424,15.422 L91.424,11.292 L87.336,11.292 L87.336,10.83 L92.18,10.83 L92.18,9.22 L87.336,9.22 L87.336,8.632 L85.11,8.576 L85.11,9.22 L80.266,9.22 L80.266,10.83 L85.11,10.83 L85.11,11.292 L81.036,11.292 L81.036,15.422 L85.11,15.422 L85.11,15.87 C84.158,15.8793333 83.2386667,15.8863333 82.352,15.891 C81.7186667,15.8943333 81.154381,15.8964762 80.6591429,15.8974286 L80.098,15.898 L80.182,17.634 C80.4713333,17.6246667 80.8306667,17.6153333 81.26,17.606 C81.6893333,17.5966667 82.1606667,17.5873333 82.674,17.578 C83.1873333,17.5686667 83.7286667,17.5593333 84.298,17.55 C84.8673333,17.5406667 85.4366667,17.5266667 86.006,17.508 L86.006,17.508 L85.432,17.914 C85.5253333,18.0166667 85.6326667,18.1426667 85.754,18.292 C85.8753333,18.4413333 85.9966667,18.593 86.118,18.747 C86.2393333,18.901 86.356,19.0526667 86.468,19.202 C86.58,19.3513333 86.6733333,19.482 86.748,19.594 L86.748,19.594 L87.756,18.796 C87.7373333,18.908 87.7233333,19.0036667 87.714,19.083 C87.7046667,19.1623333 87.6906667,19.2486667 87.672,19.342 C87.6346667,19.5286667 87.5716667,19.6476667 87.483,19.699 C87.3943333,19.7503333 87.2193333,19.79 86.958,19.818 C86.8086667,19.8366667 86.6313333,19.846 86.426,19.846 C86.2206667,19.846 86.0433333,19.8366667 85.894,19.818 C85.6793333,19.7993333 85.537,19.7363333 85.467,19.629 C85.397,19.5216667 85.362,19.3186667 85.362,19.02 L85.362,19.02 L85.362,18.04 L83.234,17.984 L83.234,19.776 C83.234,20.0653333 83.262,20.3126667 83.318,20.518 C83.374,20.7233333 83.4696667,20.8936667 83.605,21.029 C83.7403333,21.1643333 83.92,21.267 84.144,21.337 C84.368,21.407 84.6433333,21.4466667 84.97,21.456 C85.3433333,21.4746667 85.7306667,21.484 86.132,21.484 Z M85.11,12.916 L83.262,12.916 L83.262,12.44 L85.11,12.44 L85.11,12.916 Z M89.156,12.916 L87.336,12.916 L87.336,12.44 L89.156,12.44 L89.156,12.916 Z M85.11,14.33 L83.262,14.33 L83.262,13.854 L85.11,13.854 L85.11,14.33 Z M89.156,14.33 L87.336,14.33 L87.336,13.854 L89.156,13.854 L89.156,14.33 Z M87.7132222,15.8552222 L87.336,15.856 L87.336,15.422 L89.688,15.422 L89.282,15.604 C89.3006667,15.6413333 89.324,15.6786667 89.352,15.716 C89.38,15.7533333 89.408,15.7953333 89.436,15.842 C89.1186667,15.842 88.785,15.8443333 88.435,15.849 C88.085,15.8536667 87.7186667,15.856 87.336,15.856 L87.7132222,15.8552222 Z M89.646,19.286 L87.924,18.67 L88.302,18.376 C88.218,18.264 88.106,18.1263333 87.966,17.963 C87.826,17.7996667 87.6813333,17.6386667 87.532,17.48 C88.1013333,17.4613333 88.6333333,17.4496667 89.128,17.445 C89.6226667,17.4403333 90.052,17.4333333 90.416,17.424 C90.444,17.4613333 90.4696667,17.4986667 90.493,17.536 C90.5163333,17.5733333 90.5373333,17.6106667 90.556,17.648 L90.556,17.648 L89.058,18.334 C89.1513333,18.4646667 89.247,18.6093333 89.345,18.768 C89.443,18.9266667 89.5433333,19.0993333 89.646,19.286 L89.646,19.286 Z M81.526,21.61 C81.7873333,21.19 82.058,20.707 82.338,20.161 C82.618,19.615 82.8793333,19.076 83.122,18.544 L83.122,18.544 L81.246,17.704 C81.1433333,17.928 81.0266667,18.1706667 80.896,18.432 C80.7653333,18.6933333 80.6276667,18.9523333 80.483,19.209 C80.3383333,19.4656667 80.1936667,19.7153333 80.049,19.958 C79.9043333,20.2006667 79.7713333,20.42 79.65,20.616 L79.65,20.616 L81.526,21.61 Z M102.89,21.596 L102.89,19.846 L104.472,19.846 L104.472,18.068 C104.677333,18.3666667 104.882667,18.649 105.088,18.915 C105.293333,19.181 105.489333,19.4353333 105.676,19.678 L105.676,19.678 L106.74,17.004 C106.432,16.696 106.124,16.3646667 105.816,16.01 C105.508,15.6553333 105.211667,15.2913333 104.927,14.918 C104.642333,14.5446667 104.376333,14.1643333 104.129,13.777 C103.881667,13.3896667 103.66,13.0046667 103.464,12.622 L103.464,12.622 L106.138,12.622 L106.138,10.27 L102.89,10.27 L102.89,8.66 L100.51,8.604 L100.496,10.27 L97.696,10.27 L97.696,12.622 L99.558,12.622 C99.2873333,13.3686667 98.942,14.071 98.522,14.729 C98.102,15.387 97.6166667,15.996 97.066,16.556 L97.066,16.556 L97.066,11.824 C97.4206667,10.9373333 97.7426667,10.004 98.032,9.024 L98.032,9.024 L95.708,8.646 C95.4373333,9.69133333 95.1013333,10.6223333 94.7,11.439 C94.2986667,12.2556667 93.8693333,13.0326667 93.412,13.77 L93.412,13.77 L94.042,17.06 C94.2006667,16.8546667 94.3523333,16.6516667 94.497,16.451 C94.6416667,16.2503333 94.784,16.0426667 94.924,15.828 L94.924,15.828 L94.924,21.568 L97.066,21.568 L97.066,18.124 L97.766,19.734 C97.9713333,19.4913333 98.165,19.2463333 98.347,18.999 C98.529,18.7516667 98.704,18.5066667 98.872,18.264 L98.872,18.264 L98.872,19.846 L100.496,19.846 L100.51,21.596 L102.89,21.596 Z M100.58,17.732 L99.208,17.732 C99.7866667,16.78 100.244,15.786 100.58,14.75 L100.58,14.75 L100.58,17.732 Z M104.234,17.732 L102.806,17.732 L102.806,15.282 C103.011333,15.702 103.235333,16.1173333 103.478,16.528 C103.720667,16.9386667 103.972667,17.34 104.234,17.732 L104.234,17.732 Z M115.462,21.596 L115.462,17.578 C115.620667,17.5313333 115.767667,17.4916667 115.903,17.459 C116.038333,17.4263333 116.166667,17.396 116.288,17.368 L116.288,17.368 L116.204,14.974 C116.082667,15.0113333 115.961333,15.044 115.84,15.072 C115.718667,15.1 115.592667,15.1326667 115.462,15.17 L115.462,15.17 L115.462,13.364 L116.33,13.364 L116.33,14.666 L123.974,14.666 L123.974,12.58 L121.076,12.58 L121.076,11.6 L123.288,11.6 L123.288,9.724 L121.076,9.724 L121.076,8.632 L119.032,8.576 L119.032,9.724 L116.89,9.724 L116.89,11.6 L119.032,11.6 L119.032,12.58 L116.344,12.58 L116.344,11.11 L115.462,11.11 L115.462,8.674 L113.334,8.618 L113.334,11.11 L112.844,11.11 C112.862667,10.858 112.874333,10.6176667 112.879,10.389 C112.883667,10.1603333 112.890667,9.94333333 112.9,9.738 L112.9,9.738 L111.388,9.71 C111.378667,10.13 111.362333,10.578 111.339,11.054 C111.315667,11.53 111.29,12.006 111.262,12.482 C111.234,12.958 111.203667,13.4176667 111.171,13.861 C111.138333,14.3043333 111.108,14.6986667 111.08,15.044 L111.08,15.044 L112.62,15.142 C112.638667,14.918 112.657333,14.6543333 112.676,14.351 C112.694667,14.0476667 112.713333,13.7186667 112.732,13.364 L112.732,13.364 L113.334,13.364 L113.334,15.66 C112.867333,15.7626667 112.426333,15.8583333 112.011,15.947 C111.595667,16.0356667 111.238667,16.108 110.94,16.164 L110.94,16.164 L111.29,18.67 C111.532667,18.5953333 111.831333,18.5113333 112.186,18.418 C112.540667,18.3246667 112.923333,18.222 113.334,18.11 L113.334,18.11 L113.334,21.596 L115.462,21.596 Z M119.76,21.61 L120.418,21.54 C120.866,21.4933333 121.232333,21.4396667 121.517,21.379 C121.801667,21.3183333 122.028,21.2226667 122.196,21.092 C122.364,20.9613333 122.478333,20.784 122.539,20.56 C122.599667,20.336 122.63,20.0326667 122.63,19.65 L122.63,19.65 L122.63,17.648 L123.568,17.648 L123.568,15.604 L122.63,15.604 L122.63,14.974 L120.53,14.974 L120.53,15.604 L116.722,15.604 L116.722,17.648 L117.576,17.648 L116.596,18.446 C116.68,18.5393333 116.785,18.663 116.911,18.817 C117.037,18.971 117.17,19.1343333 117.31,19.307 C117.45,19.4796667 117.587667,19.6523333 117.723,19.825 C117.858333,19.9976667 117.972667,20.1446667 118.066,20.266 L118.066,20.266 L119.676,18.866 C119.545333,18.7166667 119.375,18.5276667 119.165,18.299 C118.955,18.0703333 118.756667,17.8533333 118.57,17.648 L118.57,17.648 L120.53,17.648 L120.53,18.53 C120.53,18.81 120.476333,19.006 120.369,19.118 C120.261667,19.23 120.044667,19.3046667 119.718,19.342 L119.718,19.342 L119.102,19.412 L119.76,21.61 Z M128.916,21.582 L128.916,17.844 L129.658,18.866 L130.988,17.69 L130.988,19.062 L130.064,19.062 L130.064,21.302 L137.82,21.302 L137.82,19.062 L137.022,19.062 L137.022,8.87 L130.988,8.87 L130.988,17.424 C130.773333,17.1533333 130.535333,16.871 130.274,16.577 C130.012667,16.283 129.760667,16.0146667 129.518,15.772 L129.518,15.772 L128.916,16.29 L128.916,15.268 L130.428,15.268 L130.428,13.126 L128.916,13.126 L128.916,12.51 L130.092,12.72 C130.148,12.5426667 130.213333,12.3186667 130.288,12.048 C130.362667,11.7773333 130.437333,11.502 130.512,11.222 C130.586667,10.942 130.656667,10.6713333 130.722,10.41 C130.787333,10.1486667 130.838667,9.934 130.876,9.766 L130.876,9.766 L129.35,9.458 C129.303333,9.70066667 129.240333,9.997 129.161,10.347 C129.081667,10.697 129,11.04 128.916,11.376 L128.916,11.376 L128.916,8.646 L126.9,8.59 L126.9,11.866 C126.862667,11.67 126.818333,11.46 126.767,11.236 C126.715667,11.012 126.666667,10.7926667 126.62,10.578 C126.573333,10.3633333 126.524333,10.158 126.473,9.962 C126.421667,9.766 126.377333,9.598 126.34,9.458 L126.34,9.458 L124.912,9.724 C124.968,9.90133333 125.026333,10.1183333 125.087,10.375 C125.147667,10.6316667 125.206,10.8976667 125.262,11.173 C125.318,11.4483333 125.371667,11.7213333 125.423,11.992 C125.474333,12.2626667 125.523333,12.496 125.57,12.692 L125.57,12.692 L126.9,12.454 L126.9,13.126 L125.22,13.126 L125.22,15.268 L126.424,15.268 C126.209333,15.6413333 125.962,16.0053333 125.682,16.36 C125.402,16.7146667 125.122,17.0506667 124.842,17.368 L124.842,17.368 L125.262,20.238 C125.551333,19.9206667 125.833667,19.5776667 126.109,19.209 C126.384333,18.8403333 126.648,18.432 126.9,17.984 L126.9,17.984 L126.9,21.582 L128.916,21.582 Z M134.964,12.286 L133.046,12.286 L133.046,11.082 L134.964,11.082 L134.964,12.286 Z M134.964,15.688 L133.046,15.688 L133.046,14.47 L134.964,14.47 L134.964,15.688 Z M134.964,19.062 L133.046,19.062 L133.046,17.858 L134.964,17.858 L134.964,19.062 Z" id="阿里巴巴普惠体特粗"></path>
                    </g>
                </g>
            </g>
        </g>
    </g>
</svg>