<?xml version="1.0" encoding="UTF-8"?>
<svg width="87px" height="14px" viewBox="0 0 87 14" version="1.1" xmlns="http://www.w3.org/2000/svg" xmlns:xlink="http://www.w3.org/1999/xlink">
    <!-- Generator: Sketch 60.1 (88133) - https://sketch.com -->
    <title>思源宋体加细</title>
    <desc>Created with Sketch.</desc>
    <g id="Page-1" stroke="none" stroke-width="1" fill="none" fill-rule="evenodd">
        <g id="图表-文字" transform="translate(-678.000000, -316.000000)" fill="#FFFFFF" fill-rule="nonzero">
            <g id="下拉框" transform="translate(668.000000, 158.000000)">
                <g id="组合-&lt;v0&gt;">
                    <g id="6" transform="translate(0.000000, 150.000000)">
                        <path d="M12.758,15.772 C13.01,15.772 13.262,15.604 13.262,15.534 L13.262,14.862 L20.724,14.862 L20.724,15.548 L20.808,15.548 C21.018,15.548 21.326,15.366 21.34,15.282 L21.34,9.668 C21.62,9.612 21.844,9.5 21.942,9.388 L21.004,8.66 L20.584,9.108 L13.332,9.108 L12.646,8.758 L12.646,15.772 L12.758,15.772 Z M16.678,11.754 L13.262,11.754 L13.262,9.528 L16.678,9.528 L16.678,11.754 Z M20.724,11.754 L17.294,11.754 L17.294,9.528 L20.724,9.528 L20.724,11.754 Z M20.724,14.442 L17.294,14.442 L17.294,12.174 L20.724,12.174 L20.724,14.442 Z M16.678,14.442 L13.262,14.442 L13.262,12.174 L16.678,12.174 L16.678,14.442 Z M16.244,15.646 L16.104,15.772 C16.79,16.374 17.588,17.452 17.658,18.32 C18.372,18.894 18.89,17.032 16.244,15.646 Z M20.934,20.154 C20.934,20.014 20.85,19.93 20.57,19.86 L20.528,18.068 L20.332,18.068 C20.22,18.866 20.08,19.566 19.982,19.79 C19.926,19.93 19.884,19.972 19.688,19.986 C19.5038462,20.0053846 19.0982604,20.0113491 18.5223423,20.0131843 L15.572,20.014 C14.802,20.014 14.732,19.958 14.732,19.72 L14.732,16.64 C14.998,16.598 15.124,16.472 15.152,16.304 L14.116,16.164 L14.116,19.832 C14.116,20.434 14.34,20.602 15.53,20.602 L17.686,20.602 C20.5,20.602 20.934,20.504 20.934,20.154 Z M20.976,16.542 L20.808,16.668 C21.578,17.354 22.53,18.586 22.698,19.538 C23.496,20.14 24,18.138 20.976,16.542 Z M11.652,19.734 C12.128,19.3 12.814,18.25 12.59,16.626 L12.31,16.612 C12.268,17.83 11.61,18.922 10.966,19.356 C10.77,19.538 10.644,19.776 10.784,19.944 C10.924,20.14 11.358,19.986 11.652,19.734 Z M25.624,8.422 L25.484,8.576 C26.156,8.926 26.982,9.612 27.234,10.2 C28.088,10.606 28.354,8.884 25.624,8.422 Z M27.178,20.98 C29.236,18.53 29.432,15.128 29.432,12.622 L29.432,9.808 L37.062,9.808 C37.258,9.808 37.384,9.738 37.426,9.584 C37.006,9.192 36.362,8.688 36.362,8.688 L35.802,9.388 L29.572,9.388 L28.816,9.01 L28.816,12.636 C28.816,15.436 28.578,18.39 26.94,20.812 L27.178,20.98 Z M32.61,20.994 C33.59,20.882 33.73,20.504 33.73,19.93 L33.73,15.856 L35.718,15.856 L35.718,16.402 L35.802,16.402 C36.012,16.402 36.32,16.22 36.334,16.15 L36.334,12.02 C36.614,11.964 36.838,11.852 36.936,11.74 L35.998,11.012 L35.578,11.46 L32.876,11.46 C33.128,11.166 33.38,10.774 33.576,10.41 C33.842,10.41 33.996,10.284 34.052,10.13 L32.904,9.808 C32.792,10.396 32.652,11.012 32.47,11.46 L31.21,11.46 L30.524,11.124 L30.524,16.5 L30.636,16.5 C30.874,16.5 31.14,16.346 31.14,16.29 L31.14,15.856 L33.114,15.856 L33.114,19.916 C33.114,20.112 33.058,20.182 32.806,20.182 C32.54,20.182 31.266,20.084 31.266,20.084 L31.266,20.308 C31.826,20.364 32.162,20.448 32.358,20.56 C32.512,20.644 32.596,20.826 32.61,20.994 Z M26.086,21.022 C26.478,21.022 26.674,20.7 26.702,20.126 C26.758,19.034 26.422,18.334 26.422,17.774 C26.408,17.424 26.492,17.004 26.618,16.584 C26.8,15.968 27.892,12.762 28.438,11.054 L28.186,10.984 C26.002,16.43 26.002,16.43 25.792,16.906 C25.666,17.186 25.624,17.2 25.47,17.2 L24.882,17.2 L24.882,17.522 C25.176,17.55 25.358,17.578 25.526,17.718 C25.82,17.914 25.904,18.936 25.736,20.336 C25.736,20.742 25.848,21.022 26.086,21.022 Z M24.728,11.628 L24.588,11.768 C25.218,12.09 25.946,12.72 26.17,13.252 C27.024,13.658 27.318,11.95 24.728,11.628 Z M35.718,13.49 L31.14,13.49 L31.14,11.88 L35.718,11.88 L35.718,13.49 Z M35.718,15.436 L31.14,15.436 L31.14,13.91 L35.718,13.91 L35.718,15.436 Z M29.012,20.322 C30.174,19.566 31.266,18.376 31.826,17.508 C32.148,17.564 32.26,17.508 32.344,17.368 L31.322,16.878 C30.846,17.886 29.866,19.258 28.844,20.126 L29.012,20.322 Z M34.64,17.018 L34.472,17.144 C35.312,17.858 36.404,19.104 36.684,20.028 C37.552,20.616 37.986,18.628 34.64,17.018 Z M44.272,8.282 L44.104,8.394 C44.594,8.828 45.126,9.584 45.238,10.172 C45.938,10.704 46.498,9.15 44.272,8.282 Z M39.694,12.552 C40.072,12.314 40.464,11.754 40.506,10.886 L49.886,10.886 C49.662,11.404 49.326,12.09 49.074,12.482 L49.27,12.594 C49.788,12.202 50.46,11.488 50.824,10.998 C51.09,10.984 51.258,10.97 51.356,10.872 L50.404,9.948 L49.9,10.466 L40.492,10.466 C40.478,10.242 40.436,10.018 40.366,9.78 L40.1,9.794 C40.184,10.788 39.666,11.656 39.078,11.978 C38.84,12.132 38.7,12.37 38.798,12.594 C38.952,12.846 39.386,12.79 39.694,12.552 Z M44.818,21.036 C45.042,21.036 45.308,20.882 45.308,20.77 L45.308,14.428 L45.364,14.428 C46.498,17.088 48.514,19.272 50.642,20.406 C50.754,20.126 51.02,19.958 51.286,19.944 L51.314,19.79 C49.13,18.866 46.904,16.752 45.7,14.428 L50.698,14.428 C50.894,14.428 51.034,14.358 51.062,14.204 C50.642,13.798 49.984,13.294 49.984,13.294 L49.41,14.008 L45.308,14.008 L45.308,11.95 C45.658,11.894 45.77,11.754 45.812,11.558 L44.692,11.418 L44.692,14.008 L39.036,14.008 L39.162,14.428 L44.356,14.428 C43.236,16.808 41.22,18.95 38.574,20.35 L38.714,20.588 C41.402,19.356 43.432,17.522 44.692,15.254 L44.692,21.036 L44.818,21.036 Z M54.604,21.05 C54.842,21.05 55.108,20.854 55.122,20.798 L55.122,12.468 C55.36,12.426 55.5,12.342 55.556,12.216 L54.996,11.992 C55.458,11.026 55.85,10.018 56.186,8.982 C56.508,8.982 56.648,8.856 56.704,8.688 L55.556,8.338 C54.87,10.998 53.736,13.686 52.602,15.408 L52.826,15.548 C53.4,14.848 53.974,13.994 54.478,13.028 L54.478,21.05 L54.604,21.05 Z M60.302,21.008 C60.512,21.008 60.778,20.882 60.778,20.784 L60.778,18.138 L63.172,18.138 C63.354,18.138 63.494,18.068 63.522,17.914 C63.158,17.55 62.584,17.102 62.584,17.102 L62.094,17.718 L60.778,17.718 L60.778,11.586 L60.848,11.586 C61.688,14.54 63.172,17.046 64.908,18.488 C65.02,18.18 65.286,18.012 65.566,17.998 L65.608,17.858 C63.816,16.682 62.094,14.204 61.17,11.586 L64.824,11.586 C65.006,11.586 65.132,11.516 65.174,11.362 C64.768,10.97 64.11,10.466 64.11,10.466 L63.55,11.166 L60.778,11.166 L60.778,8.898 C61.114,8.842 61.24,8.702 61.268,8.506 L60.162,8.366 L60.162,11.166 L55.962,11.166 L56.074,11.586 L59.644,11.586 C58.86,14.148 57.432,16.626 55.514,18.446 L55.71,18.642 C57.782,16.92 59.294,14.61 60.162,12.048 L60.162,17.718 L57.614,17.718 L57.712,18.138 L60.162,18.138 L60.162,21.008 L60.302,21.008 Z M70.298,20.994 C72.79,18.376 73.35,14.904 73.504,11.754 L75.8,11.754 C75.688,16.066 75.45,19.132 74.932,19.636 C74.778,19.79 74.68,19.832 74.372,19.832 C74.064,19.832 73.028,19.72 72.398,19.65 L72.384,19.93 C72.93,20 73.546,20.126 73.756,20.252 C73.938,20.378 73.994,20.574 73.994,20.77 C74.554,20.77 75.086,20.574 75.436,20.154 C76.024,19.426 76.332,16.318 76.444,11.824 C76.724,11.782 76.906,11.712 77.004,11.6 L76.08,10.844 L75.674,11.334 L73.518,11.334 C73.56,10.48 73.56,9.654 73.574,8.87 C73.924,8.814 74.022,8.674 74.064,8.478 L72.888,8.352 C72.888,9.304 72.888,10.312 72.86,11.334 L70.396,11.334 L70.522,11.754 L72.846,11.754 C72.706,14.904 72.174,18.208 70.06,20.77 L70.298,20.994 Z M78.152,20.672 C78.432,20.672 78.642,20.504 78.642,20.42 L78.642,19.426 L81.582,19.426 L81.582,20.518 L81.666,20.518 C81.876,20.518 82.184,20.35 82.198,20.266 L82.198,11.306 C82.506,11.25 82.786,11.138 82.884,11.012 L81.862,10.214 L81.428,10.718 L78.712,10.718 L78.026,10.34 L78.026,20.672 L78.152,20.672 Z M81.582,19.006 L78.642,19.006 L78.642,11.138 L81.582,11.138 L81.582,19.006 Z M84.746,17.2 C84.858,17.172 84.97,17.074 85.054,16.948 C86.664,16.514 88.204,16.024 89.058,15.786 L89.03,15.548 C87.574,15.8 86.146,16.024 85.222,16.15 C86.608,14.848 88.12,12.986 88.89,11.726 C89.17,11.796 89.352,11.698 89.422,11.572 L88.414,10.928 C88.204,11.376 87.868,11.95 87.462,12.566 C86.538,12.622 85.642,12.664 85.012,12.678 C85.95,11.712 86.958,10.312 87.504,9.318 C87.798,9.36 87.966,9.234 88.022,9.108 L86.972,8.576 C86.552,9.612 85.516,11.572 84.648,12.454 C84.578,12.51 84.326,12.566 84.326,12.566 L84.718,13.602 C84.802,13.574 84.9,13.504 84.97,13.406 C85.782,13.252 86.608,13.07 87.238,12.93 C86.468,14.078 85.516,15.296 84.704,16.038 C84.62,16.122 84.354,16.164 84.354,16.164 L84.746,17.2 Z M89.814,20.98 C90.122,20.98 90.332,20.798 90.332,20.728 L90.332,19.72 L95.652,19.72 L95.652,20.812 L95.736,20.812 C95.988,20.812 96.254,20.63 96.254,20.56 L96.254,9.99 C96.59,9.948 96.758,9.864 96.87,9.752 L95.96,9.024 L95.582,9.486 L90.5,9.486 L89.73,9.122 L89.73,20.98 L89.814,20.98 Z M92.698,14.176 L90.332,14.176 L90.332,9.906 L92.698,9.906 L92.698,14.176 Z M95.652,14.176 L93.272,14.176 L93.272,9.906 L95.652,9.906 L95.652,14.176 Z M95.652,19.3 L93.272,19.3 L93.272,14.596 L95.652,14.596 L95.652,19.3 Z M92.698,19.3 L90.332,19.3 L90.332,14.596 L92.698,14.596 L92.698,19.3 Z M85.082,20.308 C85.194,20.252 85.306,20.14 85.334,19.972 C87,19.244 88.302,18.586 89.268,18.068 L89.184,17.872 C87.322,18.53 85.404,19.146 84.508,19.37 L85.082,20.308 Z" id="思源宋体加细"></path>
                    </g>
                </g>
            </g>
        </g>
    </g>
</svg>