<?xml version="1.0" encoding="UTF-8"?>
<svg width="88px" height="14px" viewBox="0 0 88 14" version="1.1" xmlns="http://www.w3.org/2000/svg" xmlns:xlink="http://www.w3.org/1999/xlink">
    <!-- Generator: Sketch 60.1 (88133) - https://sketch.com -->
    <title>思源宋体细体</title>
    <desc>Created with Sketch.</desc>
    <g id="Page-1" stroke="none" stroke-width="1" fill="none" fill-rule="evenodd">
        <g id="图表-文字" transform="translate(-678.000000, -346.000000)" fill="#FFFFFF" fill-rule="nonzero">
            <g id="下拉框" transform="translate(668.000000, 158.000000)">
                <g id="组合-&lt;v0&gt;">
                    <g id="7" transform="translate(0.000000, 180.000000)">
                        <path d="M12.744,15.786 C13.052,15.786 13.36,15.59 13.36,15.506 L13.36,14.862 L20.64,14.862 L20.64,15.548 L20.738,15.548 C20.99,15.548 21.368,15.352 21.382,15.268 L21.382,9.696 C21.662,9.64 21.886,9.528 21.984,9.416 L20.962,8.632 L20.5,9.122 L13.43,9.122 L12.604,8.73 L12.604,15.786 L12.744,15.786 Z M16.622,11.754 L13.36,11.754 L13.36,9.542 L16.622,9.542 L16.622,11.754 Z M20.64,11.754 L17.364,11.754 L17.364,9.542 L20.64,9.542 L20.64,11.754 Z M20.64,14.442 L17.364,14.442 L17.364,12.174 L20.64,12.174 L20.64,14.442 Z M16.622,14.442 L13.36,14.442 L13.36,12.174 L16.622,12.174 L16.622,14.442 Z M16.258,15.604 L16.09,15.73 C16.776,16.332 17.546,17.396 17.602,18.292 C18.414,18.936 19.072,16.92 16.258,15.604 Z M20.962,20.126 C20.962,19.958 20.878,19.86 20.57,19.776 L20.528,17.998 L20.332,17.998 C20.206,18.796 20.052,19.468 19.94,19.706 C19.884,19.846 19.828,19.888 19.632,19.902 C19.4478462,19.9213846 19.0556805,19.9273491 18.5066026,19.9291843 L15.642,19.93 C14.9,19.93 14.83,19.874 14.83,19.65 L14.83,16.626 C15.096,16.584 15.222,16.458 15.25,16.29 L14.074,16.15 L14.074,19.79 C14.074,20.448 14.326,20.63 15.558,20.63 L17.686,20.63 C20.5,20.63 20.962,20.518 20.962,20.126 Z M20.92,16.486 L20.752,16.612 C21.522,17.326 22.432,18.558 22.6,19.538 C23.51,20.252 24.14,18.054 20.92,16.486 Z M11.694,19.762 C12.212,19.342 12.87,18.25 12.562,16.57 L12.296,16.57 C12.268,17.746 11.624,18.81 10.994,19.23 C10.756,19.412 10.602,19.664 10.756,19.902 C10.896,20.14 11.372,20.028 11.694,19.762 Z M25.582,8.394 L25.442,8.534 C26.1,8.912 26.87,9.612 27.108,10.214 C28.046,10.704 28.452,8.842 25.582,8.394 Z M32.61,21.022 C33.688,20.896 33.842,20.476 33.842,19.832 L33.842,15.856 L35.662,15.856 L35.662,16.388 L35.76,16.388 C36.012,16.388 36.376,16.192 36.39,16.108 L36.39,12.034 C36.656,11.978 36.88,11.866 36.978,11.754 L35.97,10.984 L35.522,11.46 L32.918,11.46 C33.198,11.152 33.464,10.774 33.674,10.396 C33.94,10.396 34.108,10.27 34.164,10.13 L32.946,9.794 L37.076,9.794 C37.272,9.794 37.398,9.724 37.44,9.57 C37.006,9.164 36.32,8.618 36.32,8.618 L35.718,9.374 L29.656,9.374 L28.774,8.968 L28.774,12.636 C28.774,15.422 28.55,18.404 26.968,20.826 L27.178,20.994 C29.32,18.572 29.502,15.128 29.502,12.622 L29.502,9.794 L32.89,9.794 C32.792,10.382 32.652,11.012 32.498,11.46 L31.35,11.46 L30.566,11.096 L30.566,16.5 L30.692,16.5 C30.972,16.5 31.28,16.318 31.28,16.262 L31.28,15.856 L33.1,15.856 L33.1,19.818 C33.1,20.014 33.044,20.084 32.806,20.084 C32.54,20.084 31.28,19.986 31.28,19.986 L31.28,20.21 C31.84,20.266 32.176,20.364 32.372,20.49 C32.526,20.616 32.596,20.812 32.61,21.022 Z M26.1,21.05 C26.52,21.05 26.758,20.686 26.786,20.112 C26.828,19.006 26.464,18.32 26.464,17.746 C26.45,17.396 26.534,16.962 26.66,16.528 C26.842,15.898 27.892,12.692 28.424,10.97 L28.172,10.914 C25.988,16.402 25.988,16.402 25.764,16.878 C25.638,17.158 25.596,17.172 25.442,17.172 L24.854,17.172 L24.854,17.494 C25.148,17.522 25.316,17.55 25.498,17.69 C25.792,17.886 25.876,18.95 25.694,20.35 C25.708,20.77 25.848,21.05 26.1,21.05 Z M24.686,11.614 L24.546,11.754 C25.162,12.09 25.848,12.734 26.072,13.28 C26.982,13.756 27.402,11.936 24.686,11.614 Z M35.662,13.49 L31.28,13.49 L31.28,11.88 L35.662,11.88 L35.662,13.49 Z M35.662,15.436 L31.28,15.436 L31.28,13.91 L35.662,13.91 L35.662,15.436 Z M29.054,20.35 C30.23,19.594 31.322,18.404 31.882,17.522 C32.204,17.578 32.316,17.508 32.4,17.368 L31.28,16.836 C30.846,17.858 29.88,19.258 28.886,20.154 L29.054,20.35 Z M34.668,16.99 L34.5,17.116 C35.312,17.844 36.348,19.076 36.614,20.014 C37.538,20.658 38.07,18.586 34.668,16.99 Z M44.202,8.268 L44.048,8.38 C44.538,8.814 45.056,9.57 45.154,10.186 C45.98,10.802 46.666,9.024 44.202,8.268 Z M39.736,12.608 C40.128,12.342 40.52,11.782 40.534,10.886 L49.802,10.886 C49.592,11.418 49.284,12.076 49.046,12.496 L49.242,12.608 C49.76,12.216 50.46,11.516 50.838,11.026 C51.132,11.012 51.286,10.998 51.37,10.9 L50.348,9.906 L49.802,10.466 L40.52,10.466 C40.492,10.242 40.45,10.004 40.38,9.766 L40.114,9.78 C40.198,10.732 39.666,11.572 39.092,11.894 C38.826,12.048 38.644,12.314 38.77,12.58 C38.924,12.888 39.414,12.86 39.736,12.608 Z M44.776,21.036 C45.042,21.036 45.378,20.868 45.378,20.756 L45.378,14.4 L45.406,14.4 C46.512,17.074 48.458,19.258 50.6,20.406 C50.726,20.056 51.006,19.846 51.328,19.832 L51.356,19.678 C49.172,18.782 46.946,16.71 45.728,14.4 L50.726,14.4 C50.908,14.4 51.048,14.33 51.076,14.176 C50.642,13.756 49.928,13.224 49.928,13.224 L49.312,13.994 L45.378,13.994 L45.378,11.922 C45.728,11.866 45.84,11.726 45.868,11.53 L44.622,11.39 L44.622,13.994 L39.036,13.994 L39.162,14.4 L44.216,14.4 C43.138,16.78 41.15,18.936 38.56,20.35 L38.7,20.588 C41.346,19.384 43.362,17.592 44.622,15.408 L44.622,21.036 L44.776,21.036 Z M54.562,21.078 C54.842,21.078 55.164,20.868 55.178,20.798 L55.178,12.454 C55.43,12.412 55.556,12.328 55.612,12.202 L55.038,11.992 C55.5,11.04 55.906,10.018 56.242,8.996 C56.564,8.996 56.704,8.87 56.76,8.702 L55.472,8.296 C54.814,10.956 53.694,13.672 52.574,15.408 L52.784,15.534 C53.358,14.89 53.904,14.092 54.408,13.196 L54.408,21.078 L54.562,21.078 Z M60.26,21.05 C60.526,21.05 60.848,20.896 60.848,20.784 L60.848,18.18 L63.2,18.18 C63.368,18.18 63.508,18.11 63.536,17.956 C63.172,17.578 62.556,17.088 62.556,17.088 L62.024,17.76 L60.848,17.76 L60.848,11.572 L60.904,11.572 C61.702,14.568 63.13,17.06 64.824,18.516 C64.978,18.152 65.272,17.942 65.58,17.914 L65.622,17.774 C63.844,16.612 62.136,14.176 61.212,11.572 L64.838,11.572 C65.034,11.572 65.16,11.502 65.202,11.348 C64.768,10.942 64.082,10.396 64.082,10.396 L63.466,11.166 L60.848,11.166 L60.848,8.87 C61.198,8.814 61.31,8.674 61.338,8.478 L60.106,8.338 L60.106,11.166 L55.99,11.166 L56.102,11.572 L59.56,11.572 C58.804,14.134 57.418,16.654 55.542,18.474 L55.724,18.67 C57.754,17.004 59.238,14.806 60.106,12.342 L60.106,17.76 L57.614,17.76 L57.712,18.18 L60.106,18.18 L60.106,21.05 L60.26,21.05 Z M70.746,17.228 C70.858,17.2 70.956,17.116 71.054,16.976 C72.678,16.528 74.204,16.01 75.058,15.744 L75.03,15.506 C73.574,15.758 72.16,15.982 71.222,16.094 C72.608,14.834 74.12,13 74.918,11.754 C75.184,11.824 75.352,11.726 75.422,11.6 L74.316,10.914 C74.12,11.348 73.798,11.922 73.406,12.51 C72.51,12.58 71.642,12.622 71.026,12.636 C71.964,11.698 72.986,10.312 73.546,9.318 C73.84,9.36 74.008,9.234 74.064,9.108 L72.888,8.548 C72.496,9.598 71.46,11.558 70.62,12.412 C70.536,12.468 70.284,12.538 70.284,12.538 L70.732,13.658 C70.816,13.63 70.914,13.56 70.984,13.462 C71.768,13.28 72.552,13.084 73.154,12.93 C72.398,14.064 71.46,15.268 70.69,15.982 C70.578,16.066 70.298,16.108 70.298,16.108 L70.746,17.228 Z M75.8,20.994 C76.164,20.994 76.402,20.798 76.402,20.728 L76.402,19.72 L81.554,19.72 L81.554,20.826 L81.666,20.826 C81.974,20.826 82.282,20.616 82.282,20.546 L82.282,10.004 C82.618,9.962 82.786,9.878 82.898,9.766 L81.918,8.982 L81.484,9.5 L76.57,9.5 L75.688,9.094 L75.688,20.994 L75.8,20.994 Z M78.642,14.176 L76.402,14.176 L76.402,9.92 L78.642,9.92 L78.642,14.176 Z M81.554,14.176 L79.314,14.176 L79.314,9.92 L81.554,9.92 L81.554,14.176 Z M81.554,19.3 L79.314,19.3 L79.314,14.596 L81.554,14.596 L81.554,19.3 Z M78.642,19.3 L76.402,19.3 L76.402,14.596 L78.642,14.596 L78.642,19.3 Z M71.068,20.364 C71.18,20.308 71.292,20.196 71.32,20.028 C73.014,19.258 74.302,18.572 75.24,18.04 L75.184,17.844 C73.294,18.488 71.348,19.09 70.452,19.3 L71.068,20.364 Z M86.174,21.078 C86.454,21.078 86.776,20.868 86.79,20.798 L86.79,12.454 C87.042,12.412 87.168,12.328 87.224,12.202 L86.65,11.992 C87.112,11.04 87.518,10.018 87.854,8.996 C88.176,8.996 88.316,8.87 88.372,8.702 L87.084,8.296 C86.426,10.956 85.306,13.672 84.186,15.408 L84.396,15.534 C84.97,14.89 85.516,14.092 86.02,13.196 L86.02,21.078 L86.174,21.078 Z M91.872,21.05 C92.138,21.05 92.46,20.896 92.46,20.784 L92.46,18.18 L94.812,18.18 C94.98,18.18 95.12,18.11 95.148,17.956 C94.784,17.578 94.168,17.088 94.168,17.088 L93.636,17.76 L92.46,17.76 L92.46,11.572 L92.516,11.572 C93.314,14.568 94.742,17.06 96.436,18.516 C96.59,18.152 96.884,17.942 97.192,17.914 L97.234,17.774 C95.456,16.612 93.748,14.176 92.824,11.572 L96.45,11.572 C96.646,11.572 96.772,11.502 96.814,11.348 C96.38,10.942 95.694,10.396 95.694,10.396 L95.078,11.166 L92.46,11.166 L92.46,8.87 C92.81,8.814 92.922,8.674 92.95,8.478 L91.718,8.338 L91.718,11.166 L87.602,11.166 L87.714,11.572 L91.172,11.572 C90.416,14.134 89.03,16.654 87.154,18.474 L87.336,18.67 C89.366,17.004 90.85,14.806 91.718,12.342 L91.718,17.76 L89.226,17.76 L89.324,18.18 L91.718,18.18 L91.718,21.05 L91.872,21.05 Z" id="思源宋体细体"></path>
                    </g>
                </g>
            </g>
        </g>
    </g>
</svg>