<?xml version="1.0" encoding="UTF-8"?>
<svg width="88px" height="14px" viewBox="0 0 88 14" version="1.1" xmlns="http://www.w3.org/2000/svg" xmlns:xlink="http://www.w3.org/1999/xlink">
    <!-- Generator: Sketch 60.1 (88133) - https://sketch.com -->
    <title>思源宋体常规</title>
    <desc>Created with Sketch.</desc>
    <g id="Page-1" stroke="none" stroke-width="1" fill="none" fill-rule="evenodd">
        <g id="图表-文字" transform="translate(-678.000000, -376.000000)" fill="#FFFFFF" fill-rule="nonzero">
            <g id="下拉框" transform="translate(668.000000, 158.000000)">
                <g id="组合-&lt;v0&gt;">
                    <g id="8" transform="translate(0.000000, 210.000000)">
                        <path d="M12.702,15.814 C13.08,15.814 13.458,15.576 13.458,15.478 L13.458,14.876 L20.542,14.876 L20.542,15.576 L20.682,15.576 C20.99,15.576 21.438,15.352 21.452,15.268 L21.452,9.724 C21.732,9.668 21.956,9.556 22.04,9.444 L20.92,8.576 L20.402,9.136 L13.542,9.136 L12.548,8.688 L12.548,15.814 L12.702,15.814 Z M16.552,11.768 L13.458,11.768 L13.458,9.542 L16.552,9.542 L16.552,11.768 Z M20.542,11.768 L17.448,11.768 L17.448,9.542 L20.542,9.542 L20.542,11.768 Z M20.542,14.456 L17.448,14.456 L17.448,12.174 L20.542,12.174 L20.542,14.456 Z M16.552,14.456 L13.458,14.456 L13.458,12.174 L16.552,12.174 L16.552,14.456 Z M16.244,15.562 L16.09,15.674 C16.748,16.29 17.462,17.354 17.532,18.236 C18.456,18.992 19.268,16.794 16.244,15.562 Z M17.672,20.672 C20.486,20.672 20.99,20.532 20.99,20.07 C20.99,19.888 20.892,19.776 20.542,19.678 L20.5,17.914 L20.318,17.914 C20.164,18.726 19.996,19.37 19.884,19.608 C19.828,19.762 19.772,19.804 19.548,19.818 C19.38,19.8273333 19.0191111,19.8304444 18.5317037,19.8314815 L15.712,19.832 C15.012,19.832 14.942,19.776 14.942,19.552 L14.942,16.626 C15.222,16.584 15.348,16.458 15.376,16.276 L14.032,16.136 L14.032,19.72 C14.032,20.476 14.298,20.672 15.6,20.672 L17.672,20.672 Z M20.836,16.444 L20.682,16.556 C21.438,17.298 22.306,18.544 22.446,19.552 C23.496,20.364 24.294,17.942 20.836,16.444 Z M11.722,19.804 C12.282,19.37 12.926,18.236 12.52,16.528 L12.268,16.514 C12.254,17.648 11.624,18.67 11.008,19.062 C10.728,19.272 10.532,19.552 10.686,19.846 C10.854,20.154 11.372,20.084 11.722,19.804 Z M25.54,8.366 L25.414,8.506 C26.03,8.898 26.758,9.612 26.996,10.242 C28.018,10.816 28.578,8.8 25.54,8.366 Z M32.61,21.064 C33.786,20.938 33.968,20.462 33.968,19.748 L33.968,15.842 L35.592,15.842 L35.592,16.388 L35.732,16.388 C36.012,16.388 36.446,16.178 36.46,16.094 L36.46,12.02 C36.726,11.964 36.95,11.866 37.034,11.754 L35.956,10.928 L35.466,11.446 L32.974,11.446 C33.282,11.138 33.576,10.774 33.8,10.396 C34.066,10.382 34.234,10.256 34.29,10.116 L33.044,9.78 L37.118,9.78 C37.314,9.78 37.44,9.71 37.482,9.556 C37.034,9.122 36.278,8.548 36.278,8.548 L35.634,9.36 L29.782,9.36 L28.732,8.912 L28.732,12.636 C28.732,15.422 28.536,18.446 27.024,20.882 L27.22,21.036 C29.432,18.614 29.614,15.156 29.614,12.622 L29.614,9.78 L32.89,9.78 L32.776963,10.3737037 C32.7002222,10.7677778 32.6193333,11.1473333 32.526,11.446 L31.504,11.446 L30.594,11.04 L30.594,16.5 L30.734,16.5 C31.07,16.5 31.434,16.29 31.434,16.234 L31.434,15.842 L33.086,15.842 L33.086,19.72 C33.086,19.902 33.03,19.972 32.792,19.972 C32.526,19.972 31.308,19.888 31.308,19.888 L31.308,20.098 C31.868,20.168 32.19,20.28 32.372,20.434 C32.512,20.574 32.596,20.798 32.61,21.064 Z M26.128,21.092 C26.59,21.092 26.856,20.728 26.884,20.126 C26.94,18.978 26.548,18.334 26.534,17.704 C26.52,17.368 26.604,16.92 26.73,16.472 C26.898,15.814 27.906,12.58 28.424,10.872 L28.186,10.802 C25.988,16.374 25.988,16.374 25.764,16.864 C25.624,17.144 25.582,17.158 25.414,17.158 L24.826,17.158 L24.826,17.466 C25.12,17.494 25.302,17.522 25.484,17.662 C25.792,17.872 25.862,18.978 25.666,20.392 C25.694,20.84 25.876,21.092 26.128,21.092 Z M24.658,11.586 L24.532,11.712 C25.106,12.076 25.75,12.734 25.96,13.294 C26.954,13.868 27.528,11.894 24.658,11.586 Z M35.592,13.476 L31.434,13.476 L31.434,11.866 L35.592,11.866 L35.592,13.476 Z M35.592,15.436 L31.434,15.436 L31.434,13.896 L35.592,13.896 L35.592,15.436 Z M29.11,20.392 C30.286,19.636 31.364,18.446 31.952,17.536 C32.26,17.578 32.386,17.522 32.456,17.396 L31.224,16.808 C30.818,17.83 29.922,19.286 28.942,20.196 L29.11,20.392 Z M34.724,16.976 L34.556,17.088 C35.326,17.83 36.292,19.062 36.544,20.014 C37.538,20.742 38.196,18.544 34.724,16.976 Z M44.132,8.24 L43.978,8.338 C44.482,8.772 44.972,9.556 45.056,10.172 C46.022,10.9 46.876,8.87 44.132,8.24 Z M39.778,12.664 C40.184,12.398 40.576,11.796 40.562,10.886 L49.704,10.886 C49.522,11.418 49.242,12.104 49.018,12.51 L49.2,12.622 C49.746,12.244 50.488,11.544 50.88,11.054 C51.16,11.04 51.328,11.026 51.426,10.914 L50.32,9.85 L49.69,10.466 L40.534,10.466 C40.506,10.242 40.45,9.99 40.366,9.738 L40.128,9.752 C40.198,10.662 39.652,11.46 39.106,11.768 C38.812,11.95 38.602,12.244 38.728,12.566 C38.882,12.916 39.414,12.93 39.778,12.664 Z M44.72,21.078 C45.056,21.078 45.448,20.868 45.448,20.742 L45.448,14.4 L45.462,14.4 C46.54,17.116 48.402,19.258 50.53,20.434 C50.67,20.014 50.992,19.748 51.384,19.706 L51.412,19.566 C49.228,18.67 47.002,16.682 45.784,14.4 L50.726,14.4 C50.922,14.4 51.062,14.33 51.104,14.176 C50.628,13.728 49.872,13.154 49.872,13.154 L49.214,13.98 L45.448,13.98 L45.448,11.894 C45.798,11.838 45.924,11.698 45.952,11.516 L44.538,11.348 L44.538,13.98 L39.008,13.98 L39.134,14.4 L44.034,14.4 C42.998,16.766 41.066,18.964 38.518,20.392 L38.658,20.616 C41.276,19.44 43.264,17.704 44.538,15.59 L44.538,21.078 L44.72,21.078 Z M54.492,21.106 C54.842,21.106 55.22,20.868 55.234,20.798 L55.234,12.454 C55.486,12.412 55.626,12.328 55.682,12.202 L55.08,11.992 C55.556,11.04 55.948,10.046 56.298,9.01 C56.62,9.01 56.788,8.884 56.844,8.716 L55.36,8.268 C54.744,10.942 53.624,13.658 52.518,15.394 L52.714,15.534 C53.288,14.932 53.82,14.19 54.324,13.378 L54.324,21.106 L54.492,21.106 Z M60.218,21.092 C60.554,21.092 60.946,20.896 60.946,20.77 L60.946,18.208 L63.214,18.208 C63.396,18.208 63.536,18.138 63.578,17.984 C63.172,17.578 62.528,17.046 62.528,17.046 L61.954,17.802 L60.946,17.802 L60.946,11.586 L60.988,11.586 C61.744,14.596 63.074,17.074 64.754,18.544 C64.908,18.096 65.23,17.844 65.608,17.802 L65.65,17.662 C63.886,16.528 62.192,14.162 61.282,11.586 L64.866,11.586 C65.048,11.586 65.174,11.516 65.216,11.362 C64.768,10.928 64.026,10.34 64.026,10.34 L63.382,11.166 L60.946,11.166 L60.946,8.856 C61.282,8.8 61.408,8.66 61.45,8.45 L60.036,8.296 L60.036,11.166 L56.004,11.166 L56.116,11.586 L59.434,11.586 C58.734,14.134 57.39,16.682 55.556,18.502 L55.752,18.698 C57.712,17.116 59.154,15.044 60.036,12.706 L60.036,17.802 L57.614,17.802 L57.726,18.208 L60.036,18.208 L60.036,21.092 L60.218,21.092 Z M71.432,13.14 C71.824,12.86 72.216,12.216 72.216,11.264 L81.372,11.264 C81.204,11.74 80.966,12.328 80.77,12.706 L80.966,12.818 C81.47,12.468 82.142,11.866 82.506,11.418 C82.786,11.404 82.94,11.39 83.038,11.278 L81.946,10.242 L81.358,10.858 L78.614,10.858 C79.286,10.34 79.958,9.682 80.406,9.178 C80.672,9.234 80.882,9.122 80.952,8.982 L79.552,8.408 C79.216,9.136 78.67,10.13 78.222,10.858 L77.06,10.858 L77.06,8.814 C77.382,8.772 77.522,8.632 77.55,8.436 L76.136,8.282 L76.136,10.858 L72.202,10.858 C72.174,10.648 72.132,10.424 72.076,10.186 L71.824,10.186 C71.852,11.138 71.32,12.02 70.76,12.356 C70.466,12.524 70.284,12.818 70.424,13.112 C70.592,13.434 71.096,13.406 71.432,13.14 Z M72.734,8.45 L72.58,8.562 C73.154,9.024 73.742,9.892 73.812,10.592 C74.75,11.278 75.534,9.262 72.734,8.45 Z M76.262,21.064 C76.738,21.064 77.032,20.77 77.032,20.7 L77.032,16.948 L80.266,16.948 L80.266,19.09 C80.266,19.272 80.196,19.356 79.944,19.356 C79.608,19.356 78.222,19.258 78.222,19.258 L78.222,19.468 C78.852,19.538 79.202,19.678 79.412,19.818 C79.594,19.958 79.664,20.196 79.692,20.476 C81.008,20.35 81.162,19.888 81.162,19.188 L81.162,17.116 C81.456,17.06 81.694,16.948 81.778,16.85 L80.588,15.982 L80.126,16.528 L77.032,16.528 L77.032,15.072 L79.188,15.072 L79.188,15.618 L79.328,15.618 C79.608,15.618 80.084,15.408 80.098,15.324 L80.098,13.042 C80.336,13 80.546,12.888 80.63,12.79 L79.538,11.978 L79.062,12.496 L74.134,12.496 L73.168,12.062 L73.168,15.772 L73.308,15.772 C73.672,15.772 74.064,15.562 74.064,15.478 L74.064,15.072 L76.122,15.072 L76.122,16.528 L73.07,16.528 L72.09,16.08 L72.09,20.49 L72.23,20.49 C72.594,20.49 72.986,20.28 72.986,20.196 L72.986,16.948 L76.122,16.948 L76.122,21.064 L76.262,21.064 Z M79.188,14.68 L74.064,14.68 L74.064,12.902 L79.188,12.902 L79.188,14.68 Z M84.242,21.064 C85.81,19.776 86.566,17.97 86.916,16.08 C87.7,16.85 88.428,17.998 88.484,18.978 C89.45,19.79 90.22,17.354 86.972,15.744 C87.028,15.38 87.07,15.03 87.098,14.666 L89.576,14.666 C89.772,14.666 89.898,14.596 89.926,14.442 C89.52,14.05 88.848,13.532 88.848,13.532 L88.26,14.26 L87.14,14.26 C87.182,13.7 87.196,13.126 87.196,12.58 L87.196,11.67 L89.296,11.67 C89.492,11.67 89.618,11.6 89.66,11.446 C89.254,11.054 88.61,10.55 88.61,10.55 L88.036,11.25 L87.196,11.25 L87.196,8.8 C87.546,8.744 87.658,8.604 87.686,8.408 L86.314,8.254 L86.314,11.25 L84.256,11.25 L84.368,11.67 L86.314,11.67 L86.314,12.566 C86.314,13.126 86.3,13.7 86.272,14.26 L83.99,14.26 L84.102,14.666 L86.244,14.666 C86.076,16.948 85.558,19.216 84.032,20.91 L84.242,21.064 Z M90.36,16.388 C90.738,16.388 91.074,16.178 91.074,16.08 L91.074,9.724 L95.022,9.724 L95.022,16.36 L95.162,16.36 C95.47,16.36 95.89,16.122 95.904,16.038 L95.904,9.836 C96.142,9.794 96.324,9.682 96.394,9.598 L95.386,8.786 L94.896,9.304 L91.158,9.304 L90.206,8.87 L90.206,16.388 L90.36,16.388 Z M88.134,21.106 C93.37,18.88 93.286,15.408 93.37,11.222 C93.692,11.18 93.818,11.026 93.846,10.844 L92.544,10.704 C92.53,15.086 92.656,18.502 87.952,20.854 L88.134,21.106 Z M95.274,20.658 C96.8,20.658 97.15,20.462 97.15,20.14 C97.15,19.972 97.094,19.888 96.828,19.79 L96.8,17.886 L96.59,17.886 C96.478,18.67 96.324,19.524 96.24,19.734 C96.212,19.86 96.184,19.888 96.058,19.902 C95.988,19.91075 95.8414375,19.9140313 95.6490742,19.9152617 L94.434,19.916 C94.098,19.916 94.056,19.86 94.056,19.678 L94.056,15.646 C94.308,15.604 94.448,15.478 94.462,15.31 L93.3,15.156 L93.3,19.888 C93.3,20.448 93.44,20.658 94.294,20.658 L95.274,20.658 Z" id="思源宋体常规"></path>
                    </g>
                </g>
            </g>
        </g>
    </g>
</svg>