<?xml version="1.0" encoding="UTF-8"?>
<svg width="88px" height="14px" viewBox="0 0 88 14" version="1.1" xmlns="http://www.w3.org/2000/svg" xmlns:xlink="http://www.w3.org/1999/xlink">
    <!-- Generator: Sketch 60.1 (88133) - https://sketch.com -->
    <title>思源宋体半粗</title>
    <desc>Created with Sketch.</desc>
    <g id="Page-1" stroke="none" stroke-width="1" fill="none" fill-rule="evenodd">
        <g id="图表-文字" transform="translate(-678.000000, -407.000000)" fill="#FFFFFF" fill-rule="nonzero">
            <g id="下拉框" transform="translate(668.000000, 158.000000)">
                <g id="组合-&lt;v0&gt;">
                    <g id="9" transform="translate(0.000000, 240.000000)">
                        <path d="M12.66,16.814 C13.122,16.814 13.598,16.548 13.598,16.422 L13.598,15.862 L20.416,15.862 L20.416,16.576 L20.584,16.576 C20.962,16.576 21.522,16.338 21.536,16.24 L21.536,10.766 C21.816,10.71 22.026,10.584 22.124,10.472 L20.864,9.506 L20.276,10.15 L13.696,10.15 L12.478,9.632 L12.478,16.814 L12.66,16.814 Z M16.454,12.754 L13.598,12.754 L13.598,10.556 L16.454,10.556 L16.454,12.754 Z M20.416,12.754 L17.532,12.754 L17.532,10.556 L20.416,10.556 L20.416,12.754 Z M20.416,15.456 L17.532,15.456 L17.532,13.174 L20.416,13.174 L20.416,15.456 Z M16.454,15.456 L13.598,15.456 L13.598,13.174 L16.454,13.174 L16.454,15.456 Z M16.23,16.492 L16.09,16.59 C16.706,17.234 17.364,18.284 17.42,19.166 C18.512,20.048 19.534,17.612 16.23,16.492 Z M17.658,21.7 C20.472,21.7 21.018,21.546 21.018,21.014 C21.018,20.804 20.92,20.664 20.542,20.538 L20.5,18.788 L20.318,18.788 C20.122,19.614 19.94,20.244 19.814,20.482 C19.73,20.622 19.66,20.664 19.436,20.678 C19.2575,20.699 18.850625,20.70425 18.309875,20.7055625 L15.81,20.706 C15.152,20.706 15.082,20.65 15.082,20.426 L15.082,17.598 C15.362,17.556 15.488,17.43 15.516,17.262 L13.962,17.108 L13.962,20.636 C13.962,21.49 14.27,21.7 15.656,21.7 L17.658,21.7 Z M20.738,17.36 L20.584,17.472 C21.34,18.256 22.152,19.502 22.278,20.566 C23.496,21.532 24.504,18.788 20.738,17.36 Z M11.778,20.832 C12.394,20.412 12.996,19.208 12.464,17.444 L12.226,17.444 C12.24,18.508 11.61,19.46 11.05,19.838 C10.7,20.048 10.462,20.384 10.63,20.748 C10.812,21.126 11.372,21.14 11.778,20.832 Z M25.484,9.338 L25.358,9.464 C25.932,9.884 26.604,10.626 26.814,11.284 C27.948,11.998 28.746,9.758 25.484,9.338 Z M32.638,22.106 C33.954,21.98 34.136,21.42 34.136,20.608 L34.136,16.842 L35.508,16.842 L35.508,17.36 L35.676,17.36 C36.026,17.36 36.544,17.15 36.558,17.066 L36.558,13.048 C36.824,12.992 37.034,12.88 37.118,12.768 L35.928,11.872 L35.382,12.46 L33.058,12.46 C33.38,12.152 33.716,11.774 33.968,11.396 C34.248,11.382 34.416,11.256 34.472,11.102 L33.17,10.78 L37.16,10.78 C37.356,10.78 37.496,10.71 37.538,10.556 C37.034,10.094 36.236,9.464 36.236,9.464 L35.522,10.36 L29.936,10.36 L28.69,9.856 L28.69,13.664 C28.69,16.422 28.522,19.474 27.08,21.938 L27.276,22.078 C29.586,19.684 29.754,16.184 29.754,13.65 L29.754,10.78 L32.862,10.78 C32.806,11.368 32.694,12.012 32.582,12.46 L31.742,12.46 L30.65,11.984 L30.65,17.486 L30.804,17.486 C31.224,17.486 31.672,17.262 31.672,17.178 L31.672,16.842 L33.086,16.842 L33.086,20.58 C33.086,20.762 33.03,20.832 32.806,20.832 C32.526,20.832 31.322,20.748 31.322,20.748 L31.322,20.958 C31.91,21.042 32.218,21.168 32.4,21.336 C32.554,21.504 32.624,21.784 32.638,22.106 Z M26.156,22.134 C26.674,22.134 26.996,21.742 27.024,21.112 C27.066,19.936 26.632,19.32 26.618,18.662 C26.604,18.312 26.674,17.85 26.8,17.388 C26.968,16.702 27.92,13.468 28.424,11.746 L28.172,11.69 C25.96,17.318 25.96,17.318 25.722,17.822 C25.596,18.102 25.54,18.116 25.372,18.116 L24.784,18.116 L24.784,18.41 C25.064,18.438 25.26,18.48 25.442,18.62 C25.75,18.83 25.834,20.006 25.624,21.434 C25.666,21.896 25.876,22.134 26.156,22.134 Z M24.602,12.572 L24.476,12.684 C25.008,13.076 25.61,13.748 25.792,14.35 C26.912,15.022 27.668,12.866 24.602,12.572 Z M35.508,14.49 L31.672,14.49 L31.672,12.866 L35.508,12.866 L35.508,14.49 Z M35.508,16.436 L31.672,16.436 L31.672,14.896 L35.508,14.896 L35.508,16.436 Z M29.18,21.434 C30.384,20.678 31.448,19.488 32.05,18.564 C32.372,18.62 32.498,18.55 32.568,18.396 L31.168,17.752 C30.804,18.788 29.964,20.286 29.026,21.266 L29.18,21.434 Z M34.794,17.948 L34.626,18.046 C35.34,18.802 36.222,20.048 36.446,21.014 C37.538,21.826 38.364,19.474 34.794,17.948 Z M44.02,9.226 L43.894,9.324 C44.384,9.744 44.86,10.528 44.916,11.186 C46.078,12.054 47.156,9.674 44.02,9.226 Z M39.834,13.748 C40.282,13.454 40.646,12.838 40.604,11.886 L49.578,11.886 C49.424,12.418 49.172,13.118 48.962,13.538 L49.116,13.65 C49.718,13.272 50.488,12.6 50.922,12.11 C51.202,12.096 51.356,12.068 51.454,11.97 L50.236,10.78 L49.55,11.48 L40.562,11.48 C40.534,11.242 40.464,10.99 40.38,10.724 L40.142,10.738 C40.212,11.578 39.652,12.334 39.12,12.628 C38.756,12.824 38.518,13.174 38.644,13.552 C38.84,13.972 39.442,14.028 39.834,13.748 Z M44.65,22.12 C45.056,22.12 45.56,21.882 45.56,21.742 L45.56,15.428 C46.582,18.13 48.332,20.272 50.432,21.462 C50.6,20.944 50.992,20.608 51.44,20.538 L51.468,20.384 C49.298,19.544 47.058,17.626 45.854,15.386 L50.754,15.386 C50.95,15.386 51.104,15.316 51.132,15.162 C50.628,14.686 49.802,14.056 49.802,14.056 L49.074,14.98 L45.56,14.98 L45.56,12.852 C45.896,12.796 46.022,12.656 46.05,12.46 L44.44,12.292 L44.44,14.98 L38.994,14.98 L39.12,15.386 L43.81,15.386 C42.83,17.738 40.968,19.978 38.476,21.42 L38.616,21.63 C41.192,20.482 43.166,18.844 44.44,16.8 L44.44,22.12 L44.65,22.12 Z M54.422,22.148 C54.856,22.148 55.318,21.882 55.332,21.798 L55.332,13.44 C55.584,13.398 55.724,13.328 55.78,13.202 L55.164,12.964 C55.64,12.04 56.046,11.06 56.396,10.024 C56.718,10.024 56.886,9.898 56.942,9.73 L55.22,9.212 C54.646,11.886 53.54,14.644 52.462,16.408 L52.658,16.506 C53.218,15.974 53.722,15.316 54.212,14.602 L54.212,22.148 L54.422,22.148 Z M60.162,22.162 C60.568,22.162 61.058,21.896 61.058,21.77 L61.058,19.278 L63.242,19.278 C63.424,19.278 63.564,19.208 63.592,19.054 C63.172,18.606 62.472,18.018 62.472,18.018 L61.856,18.858 L61.058,18.858 L61.058,12.586 L61.1,12.586 C61.786,15.638 63.018,18.088 64.628,19.586 C64.81,19.04 65.202,18.732 65.65,18.662 L65.692,18.522 C63.942,17.416 62.276,15.12 61.38,12.586 L64.88,12.586 C65.076,12.586 65.216,12.516 65.258,12.362 C64.768,11.886 63.97,11.242 63.97,11.242 L63.256,12.18 L61.058,12.18 L61.058,9.814 C61.408,9.758 61.534,9.618 61.562,9.422 L59.938,9.254 L59.938,12.18 L56.032,12.18 L56.144,12.586 L59.308,12.586 C58.622,15.12 57.348,17.724 55.598,19.544 L55.78,19.726 C57.656,18.242 59.042,16.366 59.938,14.196 L59.938,18.858 L57.614,18.858 L57.726,19.278 L59.938,19.278 L59.938,22.162 L60.162,22.162 Z M76.192,22.148 C76.64,22.148 77.144,21.854 77.144,21.7 L77.144,17.612 L82.716,17.612 C82.898,17.612 83.052,17.542 83.08,17.402 C82.52,16.884 81.582,16.184 81.582,16.184 L80.77,17.206 L77.144,17.206 L77.144,14.406 L81.918,14.406 C82.128,14.406 82.268,14.336 82.31,14.182 C81.764,13.692 80.882,13.034 80.882,13.034 L80.112,13.986 L77.144,13.986 L77.144,9.8 C77.494,9.744 77.592,9.604 77.634,9.408 L75.968,9.226 L75.968,13.986 L71.026,13.986 L71.138,14.406 L75.968,14.406 L75.968,17.206 L70.144,17.206 L70.256,17.612 L75.968,17.612 L75.968,22.148 L76.192,22.148 Z M78.53,13.524 C79.44,12.81 80.406,11.732 81.19,10.584 C81.484,10.626 81.68,10.528 81.75,10.374 L80.098,9.66 C79.608,11.018 78.894,12.488 78.334,13.384 L78.53,13.524 Z M71.852,9.828 L71.712,9.926 C72.384,10.78 73.154,12.096 73.28,13.188 C74.484,14.154 75.492,11.536 71.852,9.828 Z M86.622,22.134 C87.042,22.134 87.476,21.896 87.476,21.77 L87.476,15.778 C87.924,16.394 88.428,17.22 88.568,17.864 C89.562,18.634 90.458,16.702 87.476,15.414 L87.476,14.658 L89.618,14.658 C89.814,14.658 89.926,14.588 89.968,14.434 C89.52,14 88.778,13.412 88.778,13.412 L88.148,14.252 L87.476,14.252 L87.476,9.786 C87.84,9.73 87.952,9.59 87.98,9.394 L86.412,9.226 L86.412,14.252 L84.13,14.252 L84.242,14.658 L86.09,14.658 C85.656,16.506 84.928,18.466 83.934,19.922 L84.13,20.09 C85.04,19.208 85.81,18.172 86.412,17.024 L86.412,22.134 L86.622,22.134 Z M97.052,21.714 C97.248,21.714 97.374,21.644 97.416,21.504 C97.066,21.056 96.422,20.384 96.422,20.384 L95.848,21.322 L95.82,21.322 L95.82,10.976 C96.17,10.934 96.352,10.85 96.464,10.724 L95.12,9.702 L94.574,10.416 L91.606,10.416 L90.402,9.912 L90.402,21.322 L88.666,21.322 L88.778,21.714 L97.052,21.714 Z M87.966,13.524 C88.526,12.852 89.114,11.83 89.576,10.892 C89.87,10.906 90.01,10.794 90.08,10.626 L88.596,10.15 C88.386,11.298 88.036,12.586 87.742,13.426 L87.966,13.524 Z M84.536,10.332 L84.354,10.402 C84.62,11.186 84.928,12.334 84.886,13.244 C85.726,14.14 86.748,12.25 84.536,10.332 Z M94.742,13.874 L91.466,13.874 L91.466,10.822 L94.742,10.822 L94.742,13.874 Z M94.742,17.514 L91.466,17.514 L91.466,14.28 L94.742,14.28 L94.742,17.514 Z M94.742,21.322 L91.466,21.322 L91.466,17.92 L94.742,17.92 L94.742,21.322 Z" id="思源宋体半粗"></path>
                    </g>
                </g>
            </g>
        </g>
    </g>
</svg>