<?xml version="1.0" encoding="UTF-8"?>
<svg width="88px" height="14px" viewBox="0 0 88 14" version="1.1" xmlns="http://www.w3.org/2000/svg" xmlns:xlink="http://www.w3.org/1999/xlink">
    <!-- Generator: Sketch 60.1 (88133) - https://sketch.com -->
    <title>思源宋体中粗</title>
    <desc>Created with Sketch.</desc>
    <g id="Page-1" stroke="none" stroke-width="1" fill="none" fill-rule="evenodd">
        <g id="图表-文字" transform="translate(-678.000000, -437.000000)" fill="#FFFFFF" fill-rule="nonzero">
            <g id="下拉框" transform="translate(668.000000, 158.000000)">
                <g id="组合-&lt;v0&gt;">
                    <g id="10" transform="translate(0.000000, 270.000000)">
                        <path d="M12.604,16.842 C13.164,16.842 13.738,16.548 13.738,16.408 L13.738,15.876 L20.276,15.876 L20.276,16.618 L20.5,16.618 C20.934,16.618 21.592,16.338 21.606,16.24 L21.606,10.794 C21.9,10.738 22.11,10.612 22.194,10.5 L20.808,9.422 L20.136,10.164 L13.836,10.164 L12.408,9.562 L12.408,16.842 L12.604,16.842 Z M16.37,12.768 L13.738,12.768 L13.738,10.57 L16.37,10.57 L16.37,12.768 Z M20.276,12.768 L17.644,12.768 L17.644,10.57 L20.276,10.57 L20.276,12.768 Z M20.276,15.47 L17.644,15.47 L17.644,13.174 L20.276,13.174 L20.276,15.47 Z M16.37,15.47 L13.738,15.47 L13.738,13.174 L16.37,13.174 L16.37,15.47 Z M16.216,16.422 L16.09,16.52 C16.664,17.164 17.266,18.2 17.322,19.11 C18.568,20.118 19.786,17.444 16.216,16.422 Z M21.06,20.958 C21.06,20.706 20.948,20.552 20.514,20.412 L20.472,18.676 L20.304,18.676 C20.066,19.488 19.87,20.104 19.73,20.342 C19.632,20.496 19.562,20.538 19.338,20.552 C19.1952,20.5604 18.91632,20.56376 18.558816,20.565104 L15.908,20.566 C15.306,20.566 15.236,20.51 15.236,20.3 L15.236,17.584 C15.516,17.528 15.642,17.416 15.67,17.234 L13.906,17.066 L13.906,20.566 C13.906,21.518 14.242,21.742 15.712,21.742 L17.644,21.742 C20.444,21.742 21.06,21.546 21.06,20.958 Z M20.612,17.29 L20.486,17.388 C21.242,18.2 22.012,19.46 22.124,20.566 C23.51,21.7 24.728,18.634 20.612,17.29 Z M11.82,20.902 C12.506,20.454 13.066,19.194 12.408,17.388 L12.198,17.388 C12.226,18.382 11.624,19.292 11.078,19.642 C10.672,19.852 10.392,20.23 10.56,20.678 C10.756,21.14 11.386,21.21 11.82,20.902 Z M25.428,9.31 L25.302,9.422 C25.834,9.87 26.436,10.64 26.632,11.34 C27.892,12.152 28.9,9.688 25.428,9.31 Z M32.652,22.176 C34.094,22.05 34.304,21.406 34.304,20.496 L34.304,16.842 L35.438,16.842 L35.438,17.374 L35.634,17.374 C36.026,17.374 36.628,17.122 36.642,17.038 L36.642,13.062 C36.908,13.006 37.104,12.894 37.188,12.796 L35.9,11.802 L35.298,12.46 L33.128,12.46 C33.478,12.166 33.828,11.774 34.122,11.41 C34.416,11.396 34.584,11.27 34.64,11.088 L33.268,10.752 L37.202,10.752 C37.398,10.752 37.552,10.682 37.58,10.528 C37.048,10.038 36.166,9.366 36.166,9.366 L35.41,10.36 L30.09,10.36 L28.62,9.786 L28.62,13.692 C28.62,16.436 28.48,19.544 27.122,22.022 L27.318,22.148 C29.726,19.768 29.88,16.226 29.88,13.692 L29.88,10.752 L32.848,10.752 C32.806,11.368 32.722,11.984 32.624,12.46 L31.966,12.46 L30.706,11.928 L30.706,17.514 L30.888,17.514 C31.378,17.514 31.896,17.234 31.896,17.136 L31.896,16.842 L33.058,16.842 L33.058,20.468 C33.058,20.636 33.002,20.706 32.792,20.706 C32.526,20.706 31.336,20.636 31.336,20.636 L31.336,20.832 C31.938,20.916 32.232,21.07 32.4,21.266 C32.568,21.462 32.638,21.77 32.652,22.176 Z M26.184,22.19 C26.758,22.19 27.122,21.77 27.15,21.112 C27.206,19.894 26.702,19.334 26.688,18.634 C26.674,18.27 26.758,17.794 26.87,17.346 C27.024,16.604 27.92,13.37 28.41,11.606 L28.172,11.564 C25.946,17.29 25.946,17.29 25.694,17.794 C25.568,18.074 25.512,18.088 25.33,18.088 L24.714,18.088 L24.714,18.368 C25.008,18.396 25.218,18.452 25.414,18.592 C25.722,18.802 25.792,20.048 25.568,21.49 C25.638,21.966 25.89,22.19 26.184,22.19 Z M24.546,12.544 L24.434,12.656 C24.91,13.062 25.47,13.762 25.638,14.406 C26.856,15.19 27.808,12.824 24.546,12.544 Z M35.438,14.504 L31.896,14.504 L31.896,12.866 L35.438,12.866 L35.438,14.504 Z M35.438,16.436 L31.896,16.436 L31.896,14.91 L35.438,14.91 L35.438,16.436 Z M29.25,21.504 C30.482,20.748 31.532,19.558 32.134,18.606 C32.47,18.648 32.582,18.578 32.652,18.424 L31.126,17.696 C30.79,18.774 30.006,20.328 29.096,21.336 L29.25,21.504 Z M34.836,17.92 L34.682,18.018 C35.34,18.802 36.152,20.02 36.348,21.014 C37.552,21.938 38.518,19.432 34.836,17.92 Z M43.908,9.17 L43.782,9.268 C44.3,9.716 44.734,10.486 44.79,11.186 C46.148,12.194 47.422,9.478 43.908,9.17 Z M39.876,13.846 C40.352,13.538 40.716,12.88 40.646,11.886 L49.452,11.886 C49.312,12.432 49.102,13.118 48.92,13.58 L49.06,13.678 C49.69,13.3 50.502,12.642 50.978,12.152 C51.244,12.138 51.398,12.11 51.51,11.998 L50.166,10.696 L49.396,11.48 L40.59,11.48 C40.548,11.228 40.478,10.962 40.38,10.682 L40.17,10.682 C40.212,11.494 39.638,12.208 39.134,12.488 C38.714,12.698 38.434,13.076 38.588,13.538 C38.784,14.042 39.456,14.14 39.876,13.846 Z M44.58,22.19 C45.07,22.19 45.658,21.896 45.658,21.742 L45.658,15.512 C46.652,18.2 48.29,20.286 50.362,21.49 C50.558,20.874 50.978,20.468 51.496,20.384 L51.538,20.244 C49.368,19.418 47.114,17.584 45.91,15.372 L50.782,15.372 C50.978,15.372 51.132,15.302 51.16,15.148 C50.614,14.644 49.732,13.972 49.732,13.972 L48.948,14.966 L45.658,14.966 L45.658,12.81 C45.994,12.754 46.106,12.614 46.134,12.432 L44.328,12.25 L44.328,14.966 L38.966,14.966 L39.092,15.372 L43.6,15.372 C42.648,17.71 40.842,20.006 38.448,21.462 L38.574,21.658 C41.094,20.552 43.04,18.984 44.328,17.024 L44.328,22.19 L44.58,22.19 Z M54.352,22.19 C54.856,22.19 55.402,21.882 55.416,21.784 L55.416,13.454 C55.668,13.398 55.794,13.328 55.85,13.188 L55.22,12.964 C55.696,12.054 56.116,11.074 56.48,10.052 C56.802,10.052 56.97,9.926 57.026,9.758 L55.066,9.17 C54.534,11.858 53.456,14.63 52.406,16.394 L52.588,16.506 C53.12,16.002 53.624,15.414 54.1,14.784 L54.1,22.19 L54.352,22.19 Z M60.12,22.218 C60.61,22.218 61.184,21.896 61.184,21.756 L61.184,19.32 L63.284,19.32 C63.48,19.32 63.62,19.25 63.648,19.096 C63.214,18.62 62.444,17.962 62.444,17.962 L61.786,18.914 L61.184,18.914 L61.184,12.6 L61.226,12.6 C61.856,15.68 62.948,18.116 64.53,19.614 C64.754,18.984 65.188,18.592 65.692,18.508 L65.748,18.368 C64.012,17.29 62.36,15.092 61.492,12.6 L64.936,12.6 C65.132,12.6 65.272,12.53 65.314,12.376 C64.782,11.858 63.928,11.144 63.928,11.144 L63.144,12.194 L61.184,12.194 L61.184,9.786 C61.548,9.73 61.66,9.59 61.702,9.394 L59.868,9.198 L59.868,12.194 L56.074,12.194 L56.186,12.6 L59.154,12.6 C58.552,15.106 57.32,17.752 55.626,19.572 L55.808,19.74 C57.6,18.368 58.958,16.604 59.868,14.602 L59.868,18.914 L57.628,18.914 L57.74,19.32 L59.868,19.32 L59.868,22.218 L60.12,22.218 Z M76.094,22.19 C76.626,22.19 77.228,21.84 77.228,21.686 L77.228,16.744 L80.77,16.744 L80.77,17.906 L81.008,17.906 C81.47,17.906 82.156,17.654 82.17,17.556 L82.17,12.852 C82.464,12.796 82.66,12.67 82.758,12.558 L81.316,11.452 L80.63,12.208 L77.228,12.208 L77.228,9.772 C77.606,9.716 77.704,9.562 77.746,9.366 L75.828,9.17 L75.828,12.208 L72.412,12.208 L70.914,11.578 L70.914,18.102 L71.124,18.102 C71.684,18.102 72.286,17.78 72.286,17.654 L72.286,16.744 L75.828,16.744 L75.828,22.19 L76.094,22.19 Z M80.77,16.338 L77.228,16.338 L77.228,12.614 L80.77,12.614 L80.77,16.338 Z M75.828,16.338 L72.286,16.338 L72.286,12.614 L75.828,12.614 L75.828,16.338 Z M86.524,22.19 C87,22.19 87.532,21.938 87.532,21.798 L87.532,15.764 C87.938,16.408 88.358,17.22 88.47,17.892 C89.548,18.788 90.64,16.674 87.532,15.358 L87.532,14.672 L89.632,14.672 C89.828,14.672 89.954,14.602 89.996,14.448 C89.52,14 88.736,13.37 88.736,13.37 L88.064,14.266 L87.532,14.266 L87.532,9.772 C87.91,9.716 88.008,9.576 88.036,9.38 L86.272,9.184 L86.272,14.266 L84.032,14.266 L84.144,14.672 L85.964,14.672 C85.544,16.506 84.816,18.494 83.836,19.936 L84.018,20.09 C84.9,19.292 85.67,18.368 86.272,17.332 L86.272,22.19 L86.524,22.19 Z M97.066,21.798 C97.262,21.798 97.388,21.728 97.416,21.574 C97.08,21.112 96.422,20.398 96.422,20.398 L95.848,21.392 L95.834,21.392 L95.834,10.99 C96.184,10.934 96.366,10.864 96.478,10.71 L94.994,9.632 L94.406,10.416 L91.704,10.416 L90.318,9.856 L90.318,21.392 L88.61,21.392 L88.722,21.798 L97.066,21.798 Z M87.966,13.524 C88.554,12.838 89.142,11.844 89.618,10.906 C89.912,10.92 90.08,10.808 90.15,10.64 L88.54,10.094 C88.33,11.256 88.008,12.572 87.742,13.426 L87.966,13.524 Z M84.452,10.276 L84.27,10.332 C84.522,11.144 84.788,12.292 84.732,13.23 C85.628,14.21 86.804,12.208 84.452,10.276 Z M94.546,13.902 L91.564,13.902 L91.564,10.808 L94.546,10.808 L94.546,13.902 Z M94.546,17.556 L91.564,17.556 L91.564,14.294 L94.546,14.294 L94.546,17.556 Z M94.546,21.392 L91.564,21.392 L91.564,17.962 L94.546,17.962 L94.546,21.392 Z" id="思源宋体中粗"></path>
                    </g>
                </g>
            </g>
        </g>
    </g>
</svg>