<?xml version="1.0" encoding="UTF-8"?>
<svg width="88px" height="14px" viewBox="0 0 88 14" version="1.1" xmlns="http://www.w3.org/2000/svg" xmlns:xlink="http://www.w3.org/1999/xlink">
    <!-- Generator: Sketch 60.1 (88133) - https://sketch.com -->
    <title>思源宋体加粗</title>
    <desc>Created with Sketch.</desc>
    <g id="Page-1" stroke="none" stroke-width="1" fill="none" fill-rule="evenodd">
        <g id="图表-文字" transform="translate(-678.000000, -467.000000)" fill="#FFFFFF" fill-rule="nonzero">
            <g id="下拉框" transform="translate(668.000000, 158.000000)">
                <g id="组合-&lt;v0&gt;">
                    <g id="11" transform="translate(0.000000, 300.000000)">
                        <path d="M12.548,16.856 C13.248,16.856 13.962,16.478 13.962,16.31 L13.962,15.848 L20.066,15.848 L20.066,16.604 L20.346,16.604 C20.892,16.604 21.704,16.282 21.718,16.184 L21.718,10.85 C22.012,10.794 22.208,10.654 22.292,10.542 L20.696,9.324 L19.926,10.164 L14.074,10.164 L12.31,9.464 L12.31,16.856 L12.548,16.856 Z M16.23,12.754 L13.962,12.754 L13.962,10.57 L16.23,10.57 L16.23,12.754 Z M20.066,12.754 L17.812,12.754 L17.812,10.57 L20.066,10.57 L20.066,12.754 Z M20.066,15.442 L17.812,15.442 L17.812,13.146 L20.066,13.146 L20.066,15.442 Z M16.23,15.442 L13.962,15.442 L13.962,13.146 L16.23,13.146 L16.23,15.442 Z M16.188,16.324 L16.076,16.408 C16.622,17.066 17.126,18.088 17.168,18.998 C18.666,20.202 20.206,17.178 16.188,16.324 Z M17.616,21.798 C20.43,21.798 21.102,21.56 21.102,20.846 C21.102,20.552 20.99,20.356 20.486,20.188 L20.444,18.48 L20.29,18.48 C20.01,19.32 19.786,19.894 19.618,20.132 C19.506,20.286 19.422,20.328 19.184,20.342 C19.0346667,20.3513333 18.736,20.3544444 18.3751111,20.3554815 L16.062,20.356 C15.53,20.356 15.46,20.3 15.46,20.09 L15.46,17.556 C15.74,17.5 15.866,17.388 15.894,17.192 L13.808,17.024 L13.808,20.412 C13.808,21.546 14.186,21.798 15.796,21.798 L17.616,21.798 Z M20.472,17.164 L20.346,17.262 C21.102,18.116 21.76,19.404 21.844,20.566 C23.51,21.938 25.05,18.41 20.472,17.164 Z M11.904,20.958 C12.674,20.51 13.178,19.152 12.324,17.248 L12.156,17.262 C12.212,18.186 11.638,18.984 11.106,19.292 C10.644,19.544 10.294,19.964 10.476,20.538 C10.672,21.126 11.386,21.294 11.904,20.958 Z M32.666,22.246 C34.318,22.106 34.57,21.364 34.57,20.3 L34.57,16.842 L35.298,16.842 L35.298,17.36 L35.55,17.36 C36.04,17.36 36.782,17.08 36.796,16.982 L36.796,13.062 C37.048,13.006 37.23,12.908 37.3,12.81 L35.858,11.718 L35.172,12.446 L33.226,12.446 C33.632,12.152 34.038,11.76 34.374,11.396 C34.668,11.382 34.836,11.256 34.892,11.074 L33.45,10.738 L37.258,10.738 C37.454,10.738 37.608,10.668 37.636,10.514 C37.062,9.982 36.082,9.212 36.082,9.212 L35.228,10.346 L30.314,10.346 L28.536,9.688 L28.536,13.692 C28.536,16.436 28.438,19.586 27.206,22.106 L27.374,22.204 C29.95,19.852 30.076,16.254 30.076,13.692 L30.076,10.738 L32.834,10.738 C32.806,11.354 32.75,11.984 32.68,12.446 L32.302,12.446 L30.79,11.83 L30.79,17.514 L31,17.514 C31.616,17.514 32.232,17.178 32.232,17.052 L32.232,16.842 L33.03,16.842 L33.03,20.258 C33.03,20.412 32.974,20.496 32.778,20.496 C32.526,20.496 31.378,20.426 31.378,20.426 L31.378,20.608 C31.98,20.72 32.26,20.888 32.414,21.126 C32.582,21.364 32.652,21.742 32.666,22.246 Z M25.33,9.254 L25.218,9.338 C25.68,9.856 26.212,10.654 26.366,11.396 C27.822,12.39 29.124,9.618 25.33,9.254 Z M26.226,22.26 C26.884,22.26 27.318,21.784 27.346,21.084 C27.402,19.838 26.842,19.32 26.814,18.55 C26.8,18.214 26.87,17.71 26.982,17.22 C27.136,16.436 27.934,13.188 28.396,11.438 L28.186,11.368 C26.0004727,16.9802182 25.920999,17.1842988 25.6800848,17.6677684 L25.652,17.724 C25.5275556,17.9853333 25.4694815,18.0143704 25.3204554,18.0175967 L24.644,18.018 L24.644,18.298 C24.938,18.326 25.162,18.382 25.358,18.522 C25.68,18.732 25.736,20.076 25.484,21.518 C25.582,22.064 25.904,22.26 26.226,22.26 Z M24.448,12.502 L24.336,12.6 C24.77,13.048 25.26,13.79 25.386,14.448 C26.786,15.4 28.046,12.768 24.448,12.502 Z M35.298,14.49 L32.232,14.49 L32.232,12.852 L35.298,12.852 L35.298,14.49 Z M35.298,16.436 L32.232,16.436 L32.232,14.896 L35.298,14.896 L35.298,16.436 Z M29.348,21.56 C30.622,20.818 31.658,19.614 32.288,18.634 C32.61,18.662 32.736,18.592 32.792,18.438 L31.042,17.626 C30.762,18.718 30.076,20.356 29.208,21.406 L29.348,21.56 Z M34.934,17.878 L34.78,17.962 C35.354,18.774 36.04,19.992 36.208,21 C37.552,22.064 38.742,19.334 34.934,17.878 Z M43.754,9.128 L43.656,9.212 C44.188,9.674 44.58,10.472 44.594,11.186 C46.246,12.404 47.856,9.184 43.754,9.128 Z M39.96,13.958 C40.478,13.636 40.828,12.922 40.702,11.872 L49.27,11.872 C49.172,12.432 49.004,13.146 48.85,13.608 L48.962,13.692 C49.662,13.342 50.53,12.712 51.048,12.208 C51.328,12.194 51.468,12.166 51.58,12.04 L50.068,10.598 L49.186,11.48 L40.632,11.48 C40.576,11.214 40.492,10.934 40.38,10.64 L40.198,10.64 C40.226,11.354 39.624,12.012 39.134,12.264 C38.672,12.502 38.336,12.936 38.49,13.51 C38.714,14.112 39.484,14.28 39.96,13.958 Z M44.468,22.246 C45.084,22.246 45.812,21.896 45.812,21.728 L45.812,15.61 C46.722,18.284 48.192,20.3 50.236,21.518 C50.46,20.762 50.964,20.272 51.58,20.16 L51.622,19.992 C49.48,19.208 47.226,17.5 46.008,15.358 L50.824,15.358 C51.02,15.358 51.16,15.288 51.202,15.134 C50.614,14.588 49.62,13.818 49.62,13.818 L48.752,14.952 L45.812,14.952 L45.812,12.74 C46.148,12.684 46.26,12.558 46.274,12.362 L44.16,12.166 L44.16,14.952 L38.938,14.952 L39.05,15.358 L43.264,15.358 C42.396,17.668 40.674,20.02 38.406,21.518 L38.532,21.686 C40.968,20.636 42.872,19.166 44.16,17.318 L44.16,22.246 L44.468,22.246 Z M54.226,22.246 C54.856,22.246 55.528,21.896 55.542,21.77 L55.542,13.454 C55.808,13.398 55.934,13.314 55.99,13.174 L55.332,12.936 C55.808,12.068 56.242,11.102 56.606,10.08 C56.942,10.08 57.11,9.968 57.166,9.786 L54.856,9.1 C54.366,11.788 53.33,14.588 52.294,16.38 L52.462,16.492 C52.98,16.058 53.47,15.568 53.918,15.022 L53.918,22.246 L54.226,22.246 Z M60.036,22.302 C60.666,22.302 61.366,21.896 61.366,21.728 L61.366,19.39 L63.326,19.39 C63.522,19.39 63.662,19.32 63.704,19.166 C63.228,18.648 62.388,17.892 62.388,17.892 L61.646,18.998 L61.366,18.998 L61.366,12.6 L61.394,12.6 C61.94,15.722 62.864,18.116 64.376,19.67 C64.628,18.9 65.146,18.424 65.748,18.298 L65.804,18.158 C64.096,17.122 62.5,15.064 61.646,12.6 L64.992,12.6 C65.188,12.6 65.328,12.53 65.37,12.376 C64.81,11.816 63.83,11.004 63.83,11.004 L62.99,12.194 L61.366,12.194 L61.366,9.758 C61.744,9.702 61.856,9.562 61.884,9.352 L59.728,9.142 L59.728,12.194 L56.116,12.194 L56.228,12.6 L58.944,12.6 C58.384,15.12 57.278,17.794 55.682,19.628 L55.836,19.782 C57.53,18.55 58.832,16.996 59.728,15.19 L59.728,18.998 L57.642,18.998 L57.74,19.39 L59.728,19.39 L59.728,22.302 L60.036,22.302 Z M69.934,22.246 C72.888,19.614 73.434,16.086 73.574,12.6 L74.89,12.6 C74.792,17.262 74.638,19.586 74.162,20.034 C74.022,20.146 73.91,20.202 73.672,20.202 C73.392,20.202 72.664,20.146 72.216,20.104 L72.202,20.3 C72.748,20.426 73.126,20.608 73.336,20.874 C73.518,21.084 73.56,21.476 73.56,22.008 C74.316,22.008 74.932,21.798 75.408,21.308 C76.164,20.524 76.36,18.494 76.472,12.88 C76.794,12.824 76.976,12.726 77.074,12.6 L75.604,11.326 L74.75,12.208 L73.588,12.208 C73.616,11.396 73.616,10.584 73.63,9.8 C73.98,9.744 74.106,9.618 74.148,9.408 L71.978,9.212 C71.978,10.206 71.992,11.2 71.978,12.208 L70.102,12.208 L70.228,12.6 L71.964,12.6 C71.908,15.904 71.558,19.208 69.738,22.05 L69.934,22.246 Z M77.746,21.952 C78.432,21.952 79.062,21.574 79.062,21.378 L79.062,20.286 L80.77,20.286 L80.77,21.7 L81.036,21.7 C81.666,21.7 82.408,21.266 82.436,21.112 L82.436,12.18 C82.716,12.11 82.912,11.998 83.01,11.872 L81.428,10.598 L80.63,11.494 L79.118,11.494 L77.466,10.78 L77.466,21.952 L77.746,21.952 Z M80.77,19.88 L79.062,19.88 L79.062,11.886 L80.77,11.886 L80.77,19.88 Z M86.398,22.246 C86.986,22.246 87.63,21.938 87.63,21.784 L87.63,15.722 C87.966,16.38 88.274,17.192 88.33,17.878 C89.534,18.984 90.92,16.576 87.63,15.232 L87.63,14.658 L89.674,14.658 C89.87,14.658 89.996,14.588 90.038,14.434 C89.534,13.944 88.708,13.258 88.708,13.258 L87.952,14.252 L87.63,14.252 L87.63,9.702 C88.022,9.66 88.12,9.506 88.148,9.31 L86.09,9.1 L86.09,14.252 L83.934,14.252 L84.046,14.658 L85.768,14.658 C85.376,16.492 84.69,18.508 83.724,19.922 L83.892,20.076 C84.732,19.39 85.474,18.592 86.09,17.696 L86.09,22.246 L86.398,22.246 Z M97.08,21.854 C97.276,21.854 97.402,21.784 97.43,21.63 C97.094,21.154 96.408,20.398 96.408,20.398 L95.848,21.392 L95.848,10.962 C96.212,10.906 96.38,10.836 96.478,10.682 L94.826,9.478 L94.14,10.388 L91.844,10.388 L90.192,9.744 L90.192,10.598 L88.47,10.024 C88.274,11.186 87.994,12.53 87.756,13.384 L87.98,13.482 C88.61,12.796 89.226,11.83 89.73,10.892 C89.954,10.906 90.108,10.836 90.192,10.738 L90.192,21.448 L88.582,21.448 L88.694,21.854 L97.08,21.854 Z M84.34,10.178 L84.158,10.234 C84.396,11.074 84.62,12.222 84.536,13.174 C85.53,14.322 86.93,12.11 84.34,10.178 Z M94.28,13.888 L91.718,13.888 L91.718,10.78 L94.28,10.78 L94.28,13.888 Z M94.28,17.556 L91.718,17.556 L91.718,14.28 L94.28,14.28 L94.28,17.556 Z M94.28,21.448 L91.718,21.448 L91.718,17.962 L94.28,17.962 L94.28,21.448 Z" id="思源宋体加粗"></path>
                    </g>
                </g>
            </g>
        </g>
    </g>
</svg>