<?xml version="1.0" encoding="UTF-8"?>
<svg width="88px" height="14px" viewBox="0 0 88 14" version="1.1" xmlns="http://www.w3.org/2000/svg" xmlns:xlink="http://www.w3.org/1999/xlink">
    <!-- Generator: Sketch 60.1 (88133) - https://sketch.com -->
    <title>思源宋体超粗</title>
    <desc>Created with Sketch.</desc>
    <g id="Page-1" stroke="none" stroke-width="1" fill="none" fill-rule="evenodd">
        <g id="图表-文字" transform="translate(-678.000000, -497.000000)" fill="#FFFFFF" fill-rule="nonzero">
            <g id="下拉框" transform="translate(668.000000, 158.000000)">
                <g id="组合-&lt;v0&gt;">
                    <g id="12" transform="translate(0.000000, 330.000000)">
                        <path d="M12.478,16.898 C13.332,16.898 14.214,16.45 14.214,16.24 L14.214,15.862 L19.828,15.862 L19.828,16.632 L20.178,16.632 C20.85,16.632 21.844,16.268 21.858,16.156 L21.858,10.92 C22.152,10.864 22.334,10.724 22.418,10.612 L20.584,9.212 L19.688,10.206 L14.354,10.206 L12.184,9.38 L12.184,16.898 L12.478,16.898 Z M16.076,12.768 L14.214,12.768 L14.214,10.598 L16.076,10.598 L16.076,12.768 Z M19.828,12.768 L17.994,12.768 L17.994,10.598 L19.828,10.598 L19.828,12.768 Z M19.828,15.47 L17.994,15.47 L17.994,13.16 L19.828,13.16 L19.828,15.47 Z M16.076,15.47 L14.214,15.47 L14.214,13.16 L16.076,13.16 L16.076,15.47 Z M16.174,16.212 L16.076,16.282 C16.552,16.968 16.944,17.948 16.986,18.872 C18.764,20.328 20.668,16.87 16.174,16.212 Z M21.172,20.734 C21.172,20.384 21.032,20.16 20.458,19.95 L20.416,18.27 L20.276,18.27 C19.926,19.124 19.674,19.656 19.478,19.894 C19.352,20.048 19.254,20.09 19.002,20.104 C18.862,20.11275 18.6180937,20.1160312 18.3454766,20.1172617 L16.23,20.118 C15.782,20.118 15.712,20.062 15.712,19.866 L15.712,17.528 C16.006,17.472 16.132,17.36 16.16,17.164 L13.682,16.982 L13.682,20.272 C13.682,21.588 14.13,21.868 15.88,21.868 L17.588,21.868 C20.402,21.868 21.172,21.588 21.172,20.734 Z M20.276,17.038 L20.164,17.122 C20.92,18.032 21.48,19.348 21.536,20.594 C23.524,22.246 25.428,18.13 20.276,17.038 Z M12.016,21.056 C12.884,20.594 13.318,19.124 12.24,17.122 L12.1,17.136 C12.198,17.948 11.652,18.634 11.176,18.914 C10.588,19.18 10.168,19.684 10.364,20.398 C10.588,21.126 11.4,21.406 12.016,21.056 Z M32.694,22.344 C34.598,22.19 34.878,21.294 34.878,20.048 L34.878,16.828 L35.144,16.828 L35.144,17.332 L35.452,17.332 C36.04,17.332 36.936,17.01 36.95,16.912 L36.95,13.076 C37.188,13.02 37.356,12.922 37.426,12.824 L35.802,11.606 L35.018,12.446 L33.366,12.446 C33.814,12.152 34.276,11.774 34.668,11.382 C34.976,11.354 35.158,11.228 35.214,11.032 L33.73,10.71 L37.328,10.71 C37.524,10.71 37.692,10.64 37.72,10.486 C37.076,9.898 35.984,9.03 35.984,9.03 L35.018,10.318 L30.608,10.318 L28.452,9.576 L28.452,13.734 C28.452,16.436 28.41,19.67 27.318,22.218 L27.458,22.302 C30.216,19.964 30.328,16.31 30.328,13.734 L30.328,10.71 L32.834,10.71 C32.834,11.326 32.806,11.984 32.778,12.446 L32.708,12.446 L30.888,11.732 L30.888,17.5 L31.14,17.5 C31.882,17.5 32.638,17.108 32.638,16.954 L32.638,16.828 L33.016,16.828 L33.016,20.006 C33.016,20.146 32.96,20.23 32.778,20.23 C32.526,20.23 31.434,20.174 31.434,20.174 L31.434,20.342 C32.05,20.468 32.302,20.678 32.456,20.958 C32.624,21.252 32.68,21.714 32.694,22.344 Z M25.232,9.184 L25.134,9.254 C25.512,9.828 25.932,10.654 26.044,11.452 C27.738,12.684 29.432,9.52 25.232,9.184 Z M26.282,22.344 C27.038,22.344 27.57,21.826 27.598,21.084 C27.64,19.754 26.996,19.306 26.968,18.48 C26.954,18.116 27.024,17.584 27.122,17.08 C27.262,16.24 27.976,12.964 28.396,11.186 L28.186,11.144 C25.89,17.122 25.89,17.122 25.61,17.668 C25.4855556,17.9293333 25.4164198,17.9583704 25.2551029,17.9615967 L24.574,17.962 L24.574,18.214 C24.868,18.242 25.106,18.312 25.302,18.452 C25.638,18.676 25.694,20.132 25.4,21.602 C25.54,22.176 25.932,22.344 26.282,22.344 Z M24.364,12.46 L24.266,12.53 C24.63,13.034 25.022,13.804 25.106,14.532 C26.702,15.68 28.312,12.698 24.364,12.46 Z M35.144,14.504 L32.638,14.504 L32.638,12.838 L35.144,12.838 L35.144,14.504 Z M35.144,16.436 L32.638,16.436 L32.638,14.896 L35.144,14.896 L35.144,16.436 Z M29.488,21.644 C30.79,20.902 31.812,19.698 32.456,18.676 C32.792,18.704 32.918,18.62 32.974,18.466 L30.944,17.514 C30.734,18.662 30.16,20.384 29.362,21.504 L29.488,21.644 Z M35.032,17.808 L34.892,17.878 C35.368,18.746 35.9,19.936 36.026,20.986 C37.538,22.246 39.022,19.222 35.032,17.808 Z M40.072,14.126 C40.632,13.776 40.954,12.978 40.786,11.872 L49.032,11.872 C48.976,12.432 48.878,13.16 48.766,13.664 L48.85,13.748 C49.606,13.398 50.544,12.782 51.118,12.292 C51.412,12.278 51.552,12.236 51.664,12.11 L49.928,10.472 L48.92,11.48 L45.658,11.48 C46.918,11.102 47.24,8.862 43.558,9.072 L43.488,9.142 C44.034,9.604 44.37,10.416 44.356,11.2 C44.538,11.34 44.734,11.424 44.916,11.48 L40.702,11.48 C40.632,11.2 40.534,10.906 40.394,10.598 L40.24,10.598 C40.254,11.2 39.624,11.774 39.176,11.998 C38.602,12.264 38.196,12.782 38.378,13.482 C38.616,14.224 39.526,14.476 40.072,14.126 Z M44.342,22.33 C45.098,22.33 45.994,21.91 45.994,21.728 L45.994,15.792 C46.806,18.396 48.108,20.328 50.068,21.56 C50.348,20.636 50.936,20.02 51.692,19.866 L51.734,19.698 C49.606,18.97 47.338,17.416 46.12,15.33 L50.866,15.33 C51.062,15.33 51.216,15.26 51.258,15.106 C50.6,14.518 49.48,13.65 49.48,13.65 L48.5,14.938 L45.994,14.938 L45.994,12.656 C46.33,12.6 46.428,12.474 46.442,12.292 L43.964,12.068 L43.964,14.938 L38.91,14.938 L39.022,15.33 L42.858,15.33 C42.074,17.612 40.478,20.048 38.336,21.588 L38.448,21.728 C40.8,20.762 42.662,19.376 43.964,17.682 L43.964,22.33 L44.342,22.33 Z M54.086,22.316 C54.856,22.316 55.682,21.91 55.696,21.77 L55.696,13.44 C55.976,13.384 56.088,13.3 56.144,13.16 L55.472,12.922 C55.962,12.082 56.382,11.158 56.76,10.122 C57.096,10.122 57.278,10.01 57.334,9.828 L54.604,9.016 C54.184,11.718 53.19,14.56 52.196,16.366 L52.336,16.464 C52.826,16.1 53.288,15.694 53.722,15.246 L53.722,22.316 L54.086,22.316 Z M59.938,22.414 C60.708,22.414 61.576,21.91 61.576,21.714 L61.576,19.488 L63.382,19.488 C63.578,19.488 63.718,19.418 63.76,19.264 C63.242,18.69 62.304,17.822 62.304,17.822 L61.576,18.928 L61.576,12.6 C62.01,15.792 62.724,18.144 64.166,19.74 C64.474,18.788 65.076,18.2 65.804,18.046 L65.86,17.892 C64.194,16.898 62.626,15.008 61.814,12.6 L65.034,12.6 C65.23,12.6 65.384,12.53 65.426,12.376 C64.81,11.76 63.718,10.836 63.718,10.836 L62.752,12.208 L61.576,12.208 L61.576,9.702 C61.968,9.646 62.066,9.506 62.094,9.296 L59.56,9.058 L59.56,12.208 L56.172,12.208 L56.284,12.6 L58.678,12.6 C58.216,15.106 57.208,17.864 55.738,19.698 L55.878,19.824 C57.446,18.746 58.678,17.402 59.56,15.834 L59.56,19.096 L57.642,19.096 L57.754,19.488 L59.56,19.488 L59.56,22.414 L59.938,22.414 Z M69.78,22.302 C70.914,21.224 71.516,19.768 71.852,18.284 C72.678,21.266 74.316,21.966 77.536,21.966 L82.114,21.966 C82.128,21.224 82.45,20.538 83.136,20.37 L83.136,20.202 C81.834,20.244 78.796,20.244 77.578,20.244 C76.36,20.244 75.366,20.202 74.568,20.006 L74.568,17.01 L76.304,17.01 C76.472,17.01 76.598,16.954 76.654,16.856 L76.654,19.908 L76.92,19.908 C77.718,19.908 78.558,19.488 78.558,19.32 L78.558,18.718 L80.336,18.718 L80.336,19.67 L80.686,19.67 C81.386,19.67 82.296,19.208 82.31,19.054 L82.31,15.988 C82.59,15.932 82.758,15.806 82.842,15.708 L81.176,14.448 C81.358,14.378 81.512,14.308 81.652,14.21 C82.31,13.776 82.506,12.852 82.604,10.612 C82.884,10.57 83.038,10.472 83.15,10.36 L81.54,9.058 L80.616,9.912 L76.01,9.912 L76.136,10.304 L77.536,10.304 C77.494,11.312 77.382,12.418 76.724,13.524 C76.164,13.02 75.492,12.488 75.492,12.488 L74.61,13.678 L74.4,13.678 L74.4,11.732 L76.514,11.732 C76.71,11.732 76.864,11.662 76.906,11.508 C76.332,10.976 75.38,10.206 75.38,10.206 L74.526,11.34 L74.4,11.34 L74.4,9.562 C74.722,9.506 74.806,9.394 74.82,9.226 L72.482,9.03 L72.482,11.34 L70.242,11.34 L70.354,11.732 L72.482,11.732 L72.482,13.678 L69.934,13.678 L70.046,14.07 L76.346,14.07 C76.122,14.35 75.856,14.63 75.548,14.91 L75.688,15.078 C76.038,14.924 76.36,14.77 76.654,14.602 L76.654,16.758 C76.178,16.24 75.338,15.47 75.338,15.47 L74.568,16.618 L74.568,14.91 C74.876,14.868 74.974,14.742 75.002,14.574 L72.762,14.35 L72.762,15.316 L70.564,14.882 C70.704,17.094 70.536,20.132 69.64,22.176 L69.78,22.302 Z M80,12.768 C79.776,12.768 79.132,12.74 78.74,12.698 C79.244,11.928 79.468,11.102 79.566,10.304 L80.742,10.304 C80.672,11.76 80.574,12.502 80.364,12.67 C80.294,12.74 80.196,12.768 80,12.768 Z M80.196,15.302 L78.628,15.302 L76.71,14.56 C77.634,14.028 78.264,13.412 78.698,12.768 L78.684,12.866 C79.188,12.978 79.51,13.174 79.72,13.426 C79.916,13.664 79.958,14.098 79.944,14.616 C80.336,14.616 80.658,14.588 80.938,14.518 L80.196,15.302 Z M72.762,19.026 C72.454,18.704 72.188,18.298 71.95,17.78 C72.09,17.066 72.174,16.352 72.23,15.666 C72.538,15.652 72.692,15.54 72.762,15.358 L72.762,19.026 Z M80.336,18.326 L78.558,18.326 L78.558,15.694 L80.336,15.694 L80.336,18.326 Z M86.23,22.316 C86.958,22.316 87.742,21.952 87.742,21.798 L87.742,15.764 C87.966,16.436 88.148,17.206 88.148,17.906 C89.534,19.236 91.256,16.52 87.742,15.12 L87.742,14.658 L89.716,14.658 C89.856,14.658 89.968,14.616 90.038,14.546 L90.038,21.56 L88.512,21.56 L88.624,21.952 L97.08,21.952 C97.276,21.952 97.402,21.882 97.43,21.728 C97.108,21.238 96.408,20.426 96.408,20.426 L95.876,21.434 L95.876,10.962 C96.24,10.906 96.408,10.822 96.506,10.668 L94.602,9.338 L93.804,10.374 L91.998,10.374 L90.038,9.632 L90.038,10.514 L88.344,9.94 C88.19,11.116 87.966,12.502 87.77,13.37 L87.98,13.454 C88.652,12.782 89.31,11.83 89.842,10.906 C89.912,10.906 89.982,10.906 90.038,10.892 L90.038,14.378 C89.492,13.86 88.624,13.16 88.624,13.16 L87.812,14.266 L87.742,14.266 L87.742,9.66 C88.134,9.618 88.232,9.464 88.26,9.268 L85.852,9.03 L85.852,14.266 L83.794,14.266 L83.906,14.658 L85.558,14.658 C85.18,16.478 84.508,18.536 83.556,19.95 L83.71,20.09 C84.508,19.502 85.236,18.816 85.852,18.074 L85.852,22.316 L86.23,22.316 Z M84.186,10.08 L84.018,10.136 C84.228,11.004 84.382,12.138 84.27,13.132 C85.404,14.462 87.07,12.012 84.186,10.08 Z M93.944,13.902 L91.886,13.902 L91.886,10.766 L93.944,10.766 L93.944,13.902 Z M93.944,17.598 L91.886,17.598 L91.886,14.294 L93.944,14.294 L93.944,17.598 Z M93.944,21.56 L91.886,21.56 L91.886,17.99 L93.944,17.99 L93.944,21.56 Z" id="思源宋体超粗"></path>
                    </g>
                </g>
            </g>
        </g>
    </g>
</svg>