<?xml version="1.0" encoding="UTF-8"?>
<svg width="86px" height="13px" viewBox="0 0 86 13" version="1.1" xmlns="http://www.w3.org/2000/svg" xmlns:xlink="http://www.w3.org/1999/xlink">
    <!-- Generator: Sketch 60.1 (88133) - https://sketch.com -->
    <title>思源黑体极细</title>
    <desc>Created with Sketch.</desc>
    <g id="Page-1" stroke="none" stroke-width="1" fill="none" fill-rule="evenodd">
        <g id="图表-文字" transform="translate(-696.000000, -527.000000)" fill="#FFFFFF" fill-rule="nonzero">
            <g id="下拉框" transform="translate(686.000000, 158.000000)">
                <g id="组合-&lt;v0&gt;">
                    <g id="13" transform="translate(0.000000, 360.000000)">
                        <path d="M21.718,16.002 L21.718,10.024 L12.156,10.024 L12.156,16.002 L21.718,16.002 Z M21.312,12.796 L17.182,12.796 L17.182,10.43 L21.312,10.43 L21.312,12.796 Z M16.776,12.796 L12.562,12.796 L12.562,10.43 L16.776,10.43 L16.776,12.796 Z M21.312,15.596 L17.182,15.596 L17.182,13.202 L21.312,13.202 L21.312,15.596 Z M16.776,15.596 L12.562,15.596 L12.562,13.202 L16.776,13.202 L16.776,15.596 Z M18.414,18.998 L18.694,18.704 C18.022,18.074 16.706,17.192 15.586,16.632 L15.306,16.884 C16.426,17.472 17.756,18.382 18.414,18.998 Z M22.67,21.21 L23.062,21.014 C22.712,20.09 21.788,18.606 20.92,17.514 L20.556,17.668 C21.424,18.76 22.306,20.258 22.67,21.21 Z M18.946,21.672 C20.052,21.672 20.234,21.252 20.318,19.418 C20.192,19.39 20.038,19.334 19.912,19.236 C19.842,21 19.716,21.266 18.932,21.266 L15.572,21.266 C14.676,21.266 14.508,21.168 14.508,20.804 L14.508,17.528 L14.102,17.528 L14.102,20.79 C14.102,21.532 14.438,21.672 15.614,21.672 L18.946,21.672 Z M11.218,21.364 C11.946,20.454 12.464,18.956 12.8,17.864 L12.436,17.738 C12.142,18.788 11.596,20.286 10.854,21.182 L11.218,21.364 Z M27.752,11.536 L28.004,11.2 C27.472,10.78 26.45,10.08 25.638,9.59 L25.372,9.842 C26.184,10.36 27.206,11.088 27.752,11.536 Z M27.402,21.868 C29.04,19.516 29.25,16.226 29.25,13.832 L29.25,10.416 L37.202,10.416 L37.202,10.01 L28.844,10.01 L28.844,13.832 C28.844,16.17 28.676,19.334 27.066,21.658 C27.15,21.7 27.332,21.798 27.402,21.868 Z M33.268,21.924 C33.534,21.84 33.618,21.714 33.618,21.392 L33.618,17.066 L36.53,17.066 L36.53,12.46 L33.156,12.46 C33.324,12.026 33.492,11.48 33.646,11.004 L33.226,10.864 C33.128,11.312 32.932,11.97 32.778,12.46 L30.398,12.46 L30.398,17.066 L33.212,17.066 L33.212,21.392 C33.212,21.56 33.156,21.616 32.96,21.63 C32.778,21.63 32.12,21.644 31.266,21.616 C31.336,21.742 31.406,21.882 31.434,21.994 C32.428,22.008 32.988,22.008 33.268,21.924 Z M36.124,14.546 L30.804,14.546 L30.804,12.866 L36.124,12.866 L36.124,14.546 Z M27.122,15.176 L27.36,14.826 C26.8,14.434 25.75,13.79 24.924,13.328 L24.672,13.608 C25.512,14.084 26.562,14.756 27.122,15.176 Z M36.124,16.66 L30.804,16.66 L30.804,14.952 L36.124,14.952 L36.124,16.66 Z M25.428,21.784 C26.142,20.538 27.066,18.69 27.696,17.234 L27.374,16.968 C26.702,18.508 25.75,20.426 25.078,21.504 L25.428,21.784 Z M36.922,20.93 L37.314,20.72 C36.908,20.062 36.124,18.9 35.466,18.032 L35.102,18.186 C35.76,19.054 36.544,20.244 36.922,20.93 Z M29.614,21.07 C30.314,20.342 31.056,19.236 31.56,18.2 L31.154,18.088 C30.678,19.082 29.978,20.09 29.236,20.804 C29.348,20.874 29.544,21 29.614,21.07 Z M51.188,18.508 L51.188,18.102 L45.182,18.102 L45.182,16.268 L49.928,16.268 L49.928,15.862 L45.182,15.862 L45.182,14.224 L49.578,14.224 L49.578,9.982 L40.31,9.982 L40.31,14.224 L44.776,14.224 L44.776,15.862 L40.03,15.862 L40.03,16.268 L44.776,16.268 L44.776,18.102 L38.826,18.102 L38.826,18.508 L51.188,18.508 Z M44.776,13.818 L40.716,13.818 L40.716,10.388 L44.776,10.388 L44.776,13.818 Z M49.172,13.818 L45.182,13.818 L45.182,10.388 L49.172,10.388 L49.172,13.818 Z M43.026,13.286 L43.404,13.118 C43.25,12.516 42.802,11.592 42.312,10.892 L41.962,11.032 C42.424,11.732 42.872,12.684 43.026,13.286 Z M46.484,13.496 C46.932,12.88 47.506,11.9 47.94,11.102 L47.534,10.906 C47.226,11.62 46.624,12.698 46.176,13.328 L46.484,13.496 Z M39.302,22.05 C40.002,21.434 40.59,20.426 40.968,19.558 L40.604,19.474 C40.254,20.328 39.638,21.28 38.98,21.84 L39.302,22.05 Z M50.796,21.98 L51.16,21.77 C50.754,21.14 49.928,20.174 49.186,19.488 L48.836,19.642 C49.578,20.356 50.418,21.35 50.796,21.98 Z M46.778,21.896 L47.156,21.784 C47.002,21.238 46.638,20.286 46.288,19.6 L45.91,19.67 C46.246,20.384 46.624,21.322 46.778,21.896 Z M43.292,21.91 L43.684,21.84 C43.684,21.308 43.544,20.37 43.362,19.656 L42.97,19.67 C43.152,20.398 43.278,21.35 43.292,21.91 Z M60.736,21.938 L60.736,19.138 L63.368,19.138 L63.368,18.732 L60.736,18.732 L60.736,12.95 L60.82,12.95 C61.73,15.596 63.354,18.242 65.076,19.502 C65.174,19.404 65.3,19.25 65.412,19.166 C63.732,18.018 62.108,15.484 61.24,12.95 L65.244,12.95 L65.244,12.544 L60.736,12.544 L60.736,9.408 L60.33,9.408 L60.33,12.544 L55.976,12.544 L55.976,12.95 L59.868,12.95 C58.944,15.484 57.278,18.046 55.626,19.236 C55.738,19.306 55.878,19.446 55.934,19.544 C57.614,18.228 59.322,15.624 60.274,12.95 L60.33,12.95 L60.33,18.732 L57.558,18.732 L57.558,19.138 L60.33,19.138 L60.33,21.938 L60.736,21.938 Z M54.926,21.966 L54.926,12.74 C55.458,11.746 55.934,10.654 56.312,9.52 L55.92,9.436 C55.178,11.676 53.988,13.888 52.672,15.344 C52.784,15.428 52.924,15.582 52.98,15.666 C53.512,15.036 54.044,14.294 54.52,13.468 L54.52,21.966 L54.926,21.966 Z M72.65,21.966 L72.65,13.776 C73.098,14.462 73.798,15.638 74.036,16.086 L74.344,15.722 C74.092,15.302 73,13.622 72.65,13.174 L72.65,12.572 L74.484,12.572 L74.484,12.166 L72.65,12.166 L72.65,9.366 L72.244,9.366 L72.244,12.166 L70.144,12.166 L70.144,12.572 L72.146,12.572 C71.67,14.728 70.648,17.206 69.71,18.466 C69.822,18.536 69.948,18.676 70.018,18.788 C70.844,17.682 71.698,15.652 72.244,13.734 L72.244,21.966 L72.65,21.966 Z M76.192,22.022 C77.298,21.49 78.362,20.762 79.258,19.782 C80.07,20.72 81.036,21.462 82.156,21.952 C82.24,21.826 82.366,21.672 82.478,21.588 C81.33,21.14 80.364,20.412 79.538,19.46 C80.602,18.2 81.428,16.562 81.904,14.49 L81.638,14.35 L81.54,14.378 L79.272,14.378 C79.636,13.244 80.084,11.592 80.434,10.332 L74.568,10.332 L74.568,10.738 L76.43,10.738 C76.276,15.792 75.814,19.432 73.364,21.728 C73.476,21.798 73.658,21.938 73.742,21.994 C75.52,20.188 76.262,17.808 76.612,14.588 C77.158,16.464 77.928,18.13 78.978,19.446 C78.082,20.44 77.018,21.168 75.884,21.686 C75.996,21.756 76.122,21.924 76.192,22.022 Z M79.258,19.138 C78.068,17.626 77.214,15.652 76.71,13.496 C76.78,12.628 76.822,11.718 76.864,10.738 L79.888,10.738 C79.552,12.068 79.076,13.762 78.698,14.784 L81.372,14.784 C80.952,16.548 80.21,17.99 79.258,19.138 Z M83.948,18.228 C84.172,18.102 84.592,18.032 88.89,17.36 C88.876,17.276 88.862,17.094 88.876,16.968 L84.76,17.556 C86.16,16.226 87.574,14.476 88.876,12.628 L88.428,12.418 C88.092,12.95 87.7,13.482 87.322,14.014 L84.48,14.308 C85.488,13.006 86.482,11.256 87.336,9.52 L86.902,9.324 C86.146,11.116 84.9,13.034 84.536,13.524 C84.186,14.042 83.906,14.406 83.682,14.448 C83.752,14.574 83.822,14.812 83.85,14.91 C84.032,14.826 84.354,14.77 86.972,14.448 C86.09,15.568 85.25,16.492 84.914,16.814 C84.424,17.332 84.046,17.696 83.78,17.738 C83.836,17.878 83.92,18.116 83.948,18.228 Z M89.702,21.84 L89.702,20.804 L95.554,20.804 L95.554,21.742 L95.96,21.742 L95.96,10.164 L89.296,10.164 L89.296,21.84 L89.702,21.84 Z M92.474,15.288 L89.702,15.288 L89.702,10.57 L92.474,10.57 L92.474,15.288 Z M95.554,15.288 L92.88,15.288 L92.88,10.57 L95.554,10.57 L95.554,15.288 Z M95.554,20.398 L92.88,20.398 L92.88,15.694 L95.554,15.694 L95.554,20.398 Z M92.474,20.398 L89.702,20.398 L89.702,15.694 L92.474,15.694 L92.474,20.398 Z M83.808,21 C85.152,20.706 87.042,20.328 88.904,19.95 L88.876,19.53 C86.93,19.936 84.984,20.328 83.71,20.566 L83.808,21 Z" id="思源黑体极细"></path>
                    </g>
                </g>
            </g>
        </g>
    </g>
</svg>