<?xml version="1.0" encoding="UTF-8"?>
<svg width="87px" height="14px" viewBox="0 0 87 14" version="1.1" xmlns="http://www.w3.org/2000/svg" xmlns:xlink="http://www.w3.org/1999/xlink">
    <!-- Generator: Sketch 60.1 (88133) - https://sketch.com -->
    <title>思源黑体纤细</title>
    <desc>Created with Sketch.</desc>
    <g id="Page-1" stroke="none" stroke-width="1" fill="none" fill-rule="evenodd">
        <g id="图表-文字" transform="translate(-696.000000, -557.000000)" fill="#FFFFFF" fill-rule="nonzero">
            <g id="下拉框" transform="translate(686.000000, 158.000000)">
                <g id="组合-&lt;v0&gt;">
                    <g id="14" transform="translate(0.000000, 390.000000)">
                        <path d="M21.76,16.072 L21.76,9.968 L12.114,9.968 L12.114,16.072 L21.76,16.072 Z M21.102,12.712 L17.294,12.712 L17.294,10.598 L21.102,10.598 L21.102,12.712 Z M16.65,12.712 L12.772,12.712 L12.772,10.598 L16.65,10.598 L16.65,12.712 Z M21.102,15.456 L17.294,15.456 L17.294,13.314 L21.102,13.314 L21.102,15.456 Z M16.65,15.456 L12.772,15.456 L12.772,13.314 L16.65,13.314 L16.65,15.456 Z M18.344,19.054 L18.806,18.578 C18.148,17.948 16.86,17.108 15.768,16.548 L15.32,16.968 C16.412,17.542 17.7,18.438 18.344,19.054 Z M22.502,21.224 L23.146,20.93 C22.796,19.992 21.914,18.536 21.074,17.458 L20.472,17.71 C21.312,18.788 22.166,20.272 22.502,21.224 Z M18.862,21.714 C20.052,21.714 20.29,21.28 20.402,19.418 C20.206,19.376 19.94,19.278 19.758,19.152 C19.688,20.832 19.576,21.084 18.834,21.084 L15.754,21.084 C14.9,21.084 14.746,21 14.746,20.622 L14.746,17.556 L14.074,17.556 L14.074,20.622 C14.074,21.504 14.438,21.714 15.754,21.714 L18.862,21.714 Z M11.4,21.364 C12.114,20.454 12.618,18.97 12.954,17.864 L12.366,17.654 C12.058,18.718 11.526,20.16 10.798,21.042 L11.4,21.364 Z M27.682,11.634 L28.088,11.088 C27.556,10.682 26.506,9.996 25.722,9.534 L25.33,9.982 C26.114,10.472 27.15,11.186 27.682,11.634 Z M27.598,21.924 C29.236,19.586 29.46,16.226 29.46,13.818 L29.46,10.626 L37.23,10.626 L37.23,9.996 L28.802,9.996 L28.802,13.818 C28.802,16.128 28.648,19.292 27.052,21.588 C27.192,21.644 27.486,21.812 27.598,21.924 Z M33.408,21.924 C33.716,21.812 33.8,21.63 33.8,21.224 L33.8,17.178 L36.614,17.178 L36.614,12.488 L33.366,12.488 C33.534,12.082 33.716,11.592 33.884,11.144 L33.17,10.962 C33.072,11.396 32.89,12.026 32.736,12.488 L30.468,12.488 L30.468,17.178 L33.156,17.178 L33.156,21.224 C33.156,21.378 33.1,21.434 32.904,21.448 C32.736,21.448 32.106,21.462 31.336,21.434 C31.42,21.616 31.504,21.854 31.546,22.022 C32.512,22.036 33.086,22.036 33.408,21.924 Z M35.97,14.546 L31.098,14.546 L31.098,13.062 L35.97,13.062 L35.97,14.546 Z M27.038,15.274 L27.43,14.728 C26.884,14.336 25.82,13.706 25.036,13.286 L24.63,13.734 C25.456,14.182 26.492,14.854 27.038,15.274 Z M35.97,16.604 L31.098,16.604 L31.098,15.092 L35.97,15.092 L35.97,16.604 Z M25.582,21.812 C26.282,20.552 27.122,18.76 27.752,17.29 L27.206,16.898 C26.562,18.452 25.638,20.342 24.994,21.42 L25.582,21.812 Z M36.768,21 L37.384,20.706 C37.006,20.034 36.264,18.886 35.634,18.018 L35.06,18.242 C35.676,19.124 36.404,20.314 36.768,21 Z M29.866,21.126 C30.538,20.398 31.252,19.306 31.742,18.256 L31.112,18.102 C30.678,19.068 30.006,20.062 29.306,20.762 C29.46,20.86 29.754,21.042 29.866,21.126 Z M51.188,18.62 L51.188,18.004 L45.308,18.004 L45.308,16.408 L49.97,16.408 L49.97,15.82 L45.308,15.82 L45.308,14.378 L49.648,14.378 L49.648,9.912 L40.268,9.912 L40.268,14.378 L44.65,14.378 L44.65,15.82 L40.002,15.82 L40.002,16.408 L44.65,16.408 L44.65,18.004 L38.826,18.004 L38.826,18.62 L51.188,18.62 Z M44.65,13.776 L40.912,13.776 L40.912,10.5 L44.65,10.5 L44.65,13.776 Z M48.976,13.776 L45.308,13.776 L45.308,10.5 L48.976,10.5 L48.976,13.776 Z M46.61,13.51 C47.03,12.908 47.548,11.97 47.968,11.186 L47.408,10.948 C47.114,11.648 46.568,12.67 46.162,13.286 L46.61,13.51 Z M42.956,13.328 L43.488,13.104 C43.348,12.53 42.914,11.634 42.466,10.948 L41.976,11.13 C42.41,11.816 42.816,12.726 42.956,13.328 Z M39.512,22.078 C40.198,21.462 40.772,20.454 41.136,19.586 L40.52,19.418 C40.17,20.286 39.568,21.224 38.924,21.77 L39.512,22.078 Z M50.586,22.022 L51.202,21.742 C50.81,21.098 49.998,20.118 49.284,19.432 L48.682,19.656 C49.396,20.384 50.208,21.392 50.586,22.022 Z M46.61,21.938 L47.268,21.77 C47.114,21.21 46.764,20.272 46.428,19.586 L45.798,19.698 C46.134,20.412 46.47,21.364 46.61,21.938 Z M43.18,21.938 L43.838,21.84 C43.838,21.308 43.698,20.356 43.516,19.656 L42.886,19.684 C43.068,20.412 43.18,21.378 43.18,21.938 Z M60.904,21.966 L60.904,19.278 L63.368,19.278 L63.368,18.648 L60.904,18.648 L60.904,13.146 C61.8,15.75 63.326,18.298 64.95,19.628 C65.09,19.46 65.314,19.208 65.468,19.082 C63.872,17.906 62.318,15.47 61.464,13.006 L65.272,13.006 L65.272,12.362 L60.904,12.362 L60.904,9.366 L60.246,9.366 L60.246,12.362 L56.06,12.362 L56.06,13.006 L59.714,13.006 C58.804,15.47 57.236,17.948 55.64,19.166 C55.808,19.278 56.032,19.502 56.13,19.656 C57.754,18.312 59.308,15.778 60.246,13.16 L60.246,18.648 L57.67,18.648 L57.67,19.278 L60.246,19.278 L60.246,21.966 L60.904,21.966 Z M55.066,22.008 L55.066,12.684 C55.57,11.704 56.032,10.64 56.396,9.562 L55.766,9.394 C55.038,11.578 53.876,13.748 52.602,15.162 C52.728,15.316 52.952,15.624 53.022,15.764 C53.498,15.204 53.988,14.546 54.422,13.818 L54.422,22.008 L55.066,22.008 Z M70.06,18.298 C70.34,18.158 70.788,18.06 74.946,17.416 C74.918,17.29 74.904,17.01 74.918,16.828 L71.18,17.36 C72.496,16.072 73.826,14.42 75.002,12.712 L74.4,12.362 C74.078,12.88 73.714,13.398 73.35,13.902 L70.816,14.154 C71.81,12.922 72.79,11.298 73.602,9.702 L72.958,9.394 C72.202,11.13 70.984,12.964 70.62,13.426 C70.27,13.902 69.99,14.252 69.752,14.308 C69.822,14.49 69.934,14.812 69.976,14.966 C70.2,14.882 70.522,14.812 72.86,14.546 C72.048,15.568 71.292,16.422 70.984,16.716 C70.494,17.248 70.102,17.584 69.822,17.64 C69.906,17.822 70.018,18.144 70.06,18.298 Z M79.048,22.022 L79.048,15.596 L82.478,15.596 L82.478,14.924 L79.048,14.924 L79.048,10.752 C80.084,10.57 81.05,10.36 81.778,10.108 L81.232,9.576 C79.944,10.038 77.48,10.43 75.464,10.654 C75.548,10.808 75.632,11.06 75.674,11.214 C76.542,11.144 77.466,11.018 78.376,10.878 L78.376,14.924 L74.946,14.924 L74.946,15.596 L78.376,15.596 L78.376,22.022 L79.048,22.022 Z M69.906,21.084 L75.03,20.048 L74.988,19.446 C73.042,19.824 71.096,20.202 69.794,20.426 L69.906,21.084 Z M84.004,18.298 C84.256,18.158 84.718,18.06 88.876,17.416 C88.862,17.276 88.834,17.01 88.848,16.814 L85.124,17.36 C86.44,16.086 87.756,14.448 88.946,12.768 L88.316,12.418 C88.008,12.908 87.658,13.412 87.308,13.888 L84.746,14.14 C85.726,12.88 86.678,11.228 87.49,9.576 L86.818,9.282 C86.09,11.046 84.886,12.908 84.536,13.384 C84.186,13.888 83.906,14.238 83.668,14.28 C83.766,14.476 83.878,14.826 83.92,14.966 C84.116,14.882 84.452,14.826 86.818,14.546 C85.992,15.568 85.222,16.408 84.9,16.716 C84.424,17.22 84.06,17.556 83.766,17.612 C83.85,17.808 83.962,18.144 84.004,18.298 Z M89.898,21.854 L89.898,20.86 L95.372,20.86 L95.372,21.742 L96.03,21.742 L96.03,10.108 L89.268,10.108 L89.268,21.854 L89.898,21.854 Z M92.362,15.204 L89.898,15.204 L89.898,10.766 L92.362,10.766 L92.362,15.204 Z M95.372,15.204 L92.992,15.204 L92.992,10.766 L95.372,10.766 L95.372,15.204 Z M95.372,20.23 L92.992,20.23 L92.992,15.848 L95.372,15.848 L95.372,20.23 Z M92.362,20.23 L89.898,20.23 L89.898,15.848 L92.362,15.848 L92.362,20.23 Z M83.836,21.112 C85.194,20.818 87.07,20.454 88.904,20.062 L88.862,19.446 C86.93,19.824 84.984,20.202 83.71,20.426 L83.836,21.112 Z" id="思源黑体纤细"></path>
                    </g>
                </g>
            </g>
        </g>
    </g>
</svg>