<?xml version="1.0" encoding="UTF-8"?>
<svg width="87px" height="14px" viewBox="0 0 87 14" version="1.1" xmlns="http://www.w3.org/2000/svg" xmlns:xlink="http://www.w3.org/1999/xlink">
    <!-- Generator: Sketch 60.1 (88133) - https://sketch.com -->
    <title>思源黑体细体</title>
    <desc>Created with Sketch.</desc>
    <g id="Page-1" stroke="none" stroke-width="1" fill="none" fill-rule="evenodd">
        <g id="图表-文字" transform="translate(-696.000000, -587.000000)" fill="#FFFFFF" fill-rule="nonzero">
            <g id="下拉框" transform="translate(686.000000, 158.000000)">
                <g id="组合-&lt;v0&gt;">
                    <g id="15" transform="translate(0.000000, 420.000000)">
                        <path d="M21.802,16.142 L21.802,9.926 L12.086,9.926 L12.086,16.142 L21.802,16.142 Z M20.878,12.628 L17.42,12.628 L17.42,10.752 L20.878,10.752 L20.878,12.628 Z M16.51,12.628 L12.968,12.628 L12.968,10.752 L16.51,10.752 L16.51,12.628 Z M20.878,15.316 L17.42,15.316 L17.42,13.412 L20.878,13.412 L20.878,15.316 Z M16.51,15.316 L12.968,15.316 L12.968,13.412 L16.51,13.412 L16.51,15.316 Z M18.274,19.096 L18.904,18.466 C18.288,17.836 17,17.01 15.95,16.478 L15.348,17.038 C16.398,17.612 17.672,18.494 18.274,19.096 Z M22.32,21.238 L23.23,20.832 C22.894,19.88 22.04,18.466 21.214,17.402 L20.388,17.738 C21.2,18.83 22.026,20.3 22.32,21.238 Z M11.582,21.35 C12.282,20.454 12.772,18.998 13.108,17.85 L12.282,17.57 C11.988,18.648 11.442,20.048 10.756,20.916 L11.582,21.35 Z M18.806,21.756 C20.052,21.756 20.346,21.308 20.472,19.418 C20.22,19.362 19.828,19.208 19.618,19.068 C19.548,20.664 19.422,20.902 18.722,20.902 L15.95,20.902 C15.138,20.902 14.984,20.818 14.984,20.44 L14.984,17.584 L14.06,17.584 L14.06,20.44 C14.06,21.476 14.452,21.756 15.894,21.756 L18.806,21.756 Z M27.612,11.718 L28.172,10.99 C27.64,10.57 26.59,9.912 25.82,9.478 L25.274,10.108 C26.044,10.598 27.08,11.284 27.612,11.718 Z M27.794,21.994 C29.446,19.656 29.67,16.226 29.67,13.804 L29.67,10.822 L37.258,10.822 L37.258,9.968 L28.774,9.968 L28.774,13.804 C28.774,16.1 28.62,19.25 27.024,21.504 C27.234,21.602 27.64,21.826 27.794,21.994 Z M33.548,21.924 C33.898,21.784 33.996,21.546 33.996,21.056 L33.996,17.29 L36.698,17.29 L36.698,12.516 L33.576,12.516 C33.758,12.138 33.954,11.704 34.136,11.284 L33.114,11.074 C33.016,11.48 32.848,12.054 32.708,12.516 L30.552,12.516 L30.552,17.29 L33.1,17.29 L33.1,21.042 C33.1,21.196 33.044,21.252 32.862,21.266 C32.694,21.266 32.078,21.266 31.378,21.252 C31.504,21.49 31.616,21.812 31.658,22.05 C32.582,22.064 33.17,22.064 33.548,21.924 Z M26.968,15.372 L27.514,14.616 C26.968,14.238 25.904,13.622 25.12,13.216 L24.602,13.86 C25.386,14.308 26.422,14.966 26.968,15.372 Z M35.83,14.546 L31.392,14.546 L31.392,13.244 L35.83,13.244 L35.83,14.546 Z M35.83,16.562 L31.392,16.562 L31.392,15.232 L35.83,15.232 L35.83,16.562 Z M25.722,21.854 C26.394,20.566 27.206,18.83 27.794,17.36 L27.052,16.842 C26.422,18.396 25.54,20.258 24.91,21.336 L25.722,21.854 Z M36.614,21.07 L37.468,20.678 C37.104,20.02 36.39,18.872 35.816,18.018 L35.018,18.326 C35.592,19.208 36.278,20.37 36.614,21.07 Z M30.118,21.21 C30.748,20.482 31.462,19.362 31.924,18.34 L31.084,18.116 C30.678,19.04 30.034,20.034 29.362,20.734 C29.586,20.846 29.964,21.056 30.118,21.21 Z M51.188,18.746 L51.188,17.906 L45.448,17.906 L45.448,16.548 L49.998,16.548 L49.998,15.764 L45.448,15.764 L45.448,14.532 L49.718,14.532 L49.718,9.842 L40.226,9.842 L40.226,14.532 L44.524,14.532 L44.524,15.764 L39.974,15.764 L39.974,16.548 L44.524,16.548 L44.524,17.906 L38.826,17.906 L38.826,18.746 L51.188,18.746 Z M44.524,13.748 L41.122,13.748 L41.122,10.64 L44.524,10.64 L44.524,13.748 Z M48.78,13.748 L45.448,13.748 L45.448,10.64 L48.78,10.64 L48.78,13.748 Z M46.75,13.51 C47.114,12.95 47.604,12.054 47.982,11.298 L47.268,11.018 C47.002,11.676 46.512,12.656 46.134,13.258 L46.75,13.51 Z M42.886,13.356 L43.558,13.104 C43.432,12.53 43.026,11.676 42.606,11.018 L41.976,11.242 C42.382,11.9 42.76,12.796 42.886,13.356 Z M39.708,22.12 C40.394,21.49 40.968,20.482 41.318,19.586 L40.436,19.376 C40.086,20.23 39.498,21.168 38.868,21.7 L39.708,22.12 Z M50.348,22.078 L51.244,21.714 C50.852,21.056 50.068,20.062 49.354,19.376 L48.528,19.67 C49.214,20.412 50.012,21.434 50.348,22.078 Z M46.456,21.966 L47.366,21.742 C47.226,21.182 46.876,20.244 46.554,19.544 L45.7,19.726 C46.008,20.44 46.33,21.392 46.456,21.966 Z M43.082,21.98 L43.978,21.854 C43.978,21.308 43.852,20.356 43.67,19.628 L42.816,19.698 C42.97,20.44 43.068,21.406 43.082,21.98 Z M61.058,21.994 L61.058,19.418 L63.382,19.418 L63.382,18.578 L61.058,18.578 L61.058,13.51 C61.926,15.988 63.326,18.424 64.824,19.754 C65.006,19.502 65.328,19.18 65.538,19.012 C63.998,17.822 62.542,15.456 61.688,13.076 L65.3,13.076 L65.3,12.18 L61.058,12.18 L61.058,9.338 L60.162,9.338 L60.162,12.18 L56.158,12.18 L56.158,13.076 L59.56,13.076 C58.692,15.47 57.194,17.864 55.654,19.082 C55.864,19.25 56.158,19.572 56.326,19.782 C57.838,18.438 59.252,16.072 60.162,13.566 L60.162,18.578 L57.782,18.578 L57.782,19.418 L60.162,19.418 L60.162,21.994 L61.058,21.994 Z M55.206,22.036 L55.206,12.628 C55.696,11.662 56.13,10.626 56.48,9.604 L55.612,9.352 C54.912,11.494 53.764,13.594 52.518,14.966 C52.7,15.19 52.98,15.652 53.064,15.876 C53.498,15.372 53.932,14.798 54.324,14.154 L54.324,22.036 L55.206,22.036 Z M70.046,18.368 C70.34,18.214 70.816,18.102 74.862,17.458 C74.834,17.29 74.806,16.912 74.82,16.674 L71.46,17.15 C72.706,15.946 73.938,14.448 75.002,12.908 L74.19,12.404 C73.91,12.866 73.588,13.342 73.28,13.776 L71.012,13.986 C71.95,12.768 72.86,11.2 73.616,9.646 L72.706,9.254 C72.02,10.976 70.858,12.782 70.508,13.258 C70.172,13.734 69.892,14.084 69.64,14.126 C69.752,14.378 69.906,14.84 69.962,15.036 C70.172,14.938 70.522,14.854 72.622,14.63 C71.88,15.568 71.194,16.324 70.886,16.618 C70.41,17.094 70.046,17.43 69.752,17.472 C69.85,17.724 70.004,18.172 70.046,18.368 Z M76.08,21.868 L76.08,20.93 L81.176,20.93 L81.176,21.742 L82.072,21.742 L82.072,10.038 L75.212,10.038 L75.212,21.868 L76.08,21.868 Z M78.222,15.12 L76.08,15.12 L76.08,10.962 L78.222,10.962 L78.222,15.12 Z M81.176,15.12 L79.09,15.12 L79.09,10.962 L81.176,10.962 L81.176,15.12 Z M81.176,20.062 L79.09,20.062 L79.09,15.988 L81.176,15.988 L81.176,20.062 Z M78.222,20.062 L76.08,20.062 L76.08,15.988 L78.222,15.988 L78.222,20.062 Z M69.864,21.21 C71.222,20.93 73.084,20.566 74.876,20.202 L74.834,19.362 C72.916,19.726 70.984,20.076 69.696,20.286 L69.864,21.21 Z M92.18,21.994 L92.18,19.418 L94.504,19.418 L94.504,18.578 L92.18,18.578 L92.18,13.51 C93.048,15.988 94.448,18.424 95.946,19.754 C96.128,19.502 96.45,19.18 96.66,19.012 C95.12,17.822 93.664,15.456 92.81,13.076 L96.422,13.076 L96.422,12.18 L92.18,12.18 L92.18,9.338 L91.284,9.338 L91.284,12.18 L87.28,12.18 L87.28,13.076 L90.682,13.076 C89.814,15.47 88.316,17.864 86.776,19.082 C86.986,19.25 87.28,19.572 87.448,19.782 C88.96,18.438 90.374,16.072 91.284,13.566 L91.284,18.578 L88.904,18.578 L88.904,19.418 L91.284,19.418 L91.284,21.994 L92.18,21.994 Z M86.328,22.036 L86.328,12.628 C86.818,11.662 87.252,10.626 87.602,9.604 L86.734,9.352 C86.034,11.494 84.886,13.594 83.64,14.966 C83.822,15.19 84.102,15.652 84.186,15.876 C84.62,15.372 85.054,14.798 85.446,14.154 L85.446,22.036 L86.328,22.036 Z" id="思源黑体细体"></path>
                    </g>
                </g>
            </g>
        </g>
    </g>
</svg>