<?xml version="1.0" encoding="UTF-8"?>
<svg width="87px" height="14px" viewBox="0 0 87 14" version="1.1" xmlns="http://www.w3.org/2000/svg" xmlns:xlink="http://www.w3.org/1999/xlink">
    <!-- Generator: Sketch 60.1 (88133) - https://sketch.com -->
    <title>思源黑体常规</title>
    <desc>Created with Sketch.</desc>
    <g id="Page-1" stroke="none" stroke-width="1" fill="none" fill-rule="evenodd">
        <g id="图表-文字" transform="translate(-696.000000, -617.000000)" fill="#FFFFFF" fill-rule="nonzero">
            <g id="下拉框" transform="translate(686.000000, 158.000000)">
                <g id="组合-&lt;v0&gt;">
                    <g id="16" transform="translate(0.000000, 450.000000)">
                        <path d="M21.816,16.17 L21.816,9.898 L12.072,9.898 L12.072,16.17 L21.816,16.17 Z M20.794,12.586 L17.476,12.586 L17.476,10.822 L20.794,10.822 L20.794,12.586 Z M16.454,12.586 L13.052,12.586 L13.052,10.822 L16.454,10.822 L16.454,12.586 Z M20.794,15.246 L17.476,15.246 L17.476,13.468 L20.794,13.468 L20.794,15.246 Z M16.454,15.246 L13.052,15.246 L13.052,13.468 L16.454,13.468 L16.454,15.246 Z M18.246,19.124 L18.96,18.424 C18.33,17.794 17.07,16.954 16.034,16.45 L15.348,17.08 C16.384,17.64 17.644,18.494 18.246,19.124 Z M22.25,21.238 L23.258,20.79 C22.936,19.838 22.096,18.424 21.284,17.374 L20.36,17.752 C21.158,18.844 21.97,20.3 22.25,21.238 Z M11.666,21.35 C12.352,20.454 12.842,18.998 13.178,17.85 L12.254,17.528 C11.946,18.62 11.414,19.992 10.728,20.86 L11.666,21.35 Z M18.764,21.784 C20.038,21.784 20.374,21.308 20.514,19.418 C20.22,19.348 19.786,19.194 19.548,19.026 C19.478,20.594 19.366,20.818 18.68,20.818 L16.02,20.818 C15.236,20.818 15.096,20.748 15.096,20.356 L15.096,17.598 L14.06,17.598 L14.06,20.37 C14.06,21.476 14.452,21.784 15.95,21.784 L18.764,21.784 Z M27.584,11.76 L28.2,10.934 C27.668,10.528 26.618,9.884 25.862,9.45 L25.26,10.164 C26.016,10.654 27.052,11.34 27.584,11.76 Z M27.878,22.022 C29.53,19.684 29.768,16.226 29.768,13.79 L29.768,10.92 L37.258,10.92 L37.258,9.968 L28.746,9.968 L28.746,13.79 C28.746,16.086 28.606,19.236 27.024,21.476 C27.262,21.574 27.71,21.84 27.878,22.022 Z M33.59,21.924 C33.982,21.77 34.066,21.504 34.066,20.986 L34.066,17.332 L36.726,17.332 L36.726,12.53 L33.674,12.53 C33.856,12.166 34.052,11.76 34.248,11.354 L33.086,11.116 C33.002,11.508 32.834,12.082 32.68,12.53 L30.566,12.53 L30.566,17.332 L33.072,17.332 L33.072,20.972 C33.072,21.126 33.016,21.168 32.834,21.182 C32.68,21.182 32.064,21.196 31.392,21.168 C31.518,21.434 31.644,21.798 31.686,22.064 C32.624,22.078 33.212,22.078 33.59,21.924 Z M26.926,15.414 L27.542,14.574 C26.996,14.196 25.932,13.608 25.176,13.188 L24.574,13.916 C25.358,14.35 26.394,15.008 26.926,15.414 Z M35.76,14.546 L31.504,14.546 L31.504,13.328 L35.76,13.328 L35.76,14.546 Z M35.76,16.534 L31.504,16.534 L31.504,15.302 L35.76,15.302 L35.76,16.534 Z M25.792,21.868 C26.45,20.58 27.234,18.858 27.808,17.388 L26.996,16.814 C26.352,18.382 25.484,20.216 24.868,21.294 L25.792,21.868 Z M36.544,21.098 L37.496,20.678 C37.146,20.006 36.446,18.858 35.9,18.004 L35.004,18.354 C35.55,19.236 36.236,20.398 36.544,21.098 Z M30.23,21.238 C30.832,20.51 31.532,19.39 31.994,18.368 L31.056,18.116 C30.65,19.04 30.034,20.034 29.39,20.706 C29.642,20.846 30.034,21.084 30.23,21.238 Z M51.188,18.788 L51.188,17.864 L45.49,17.864 L45.49,16.604 L50.012,16.604 L50.012,15.75 L45.49,15.75 L45.49,14.602 L49.746,14.602 L49.746,9.814 L40.212,9.814 L40.212,14.602 L44.468,14.602 L44.468,15.75 L39.974,15.75 L39.974,16.604 L44.468,16.604 L44.468,17.864 L38.826,17.864 L38.826,18.788 L51.188,18.788 Z M44.468,13.72 L41.206,13.72 L41.206,10.696 L44.468,10.696 L44.468,13.72 Z M48.71,13.72 L45.49,13.72 L45.49,10.696 L48.71,10.696 L48.71,13.72 Z M46.792,13.524 C47.156,12.964 47.618,12.096 48.01,11.34 L47.198,11.032 C46.96,11.69 46.484,12.642 46.12,13.244 L46.792,13.524 Z M42.858,13.37 L43.586,13.09 C43.474,12.544 43.082,11.69 42.676,11.046 L41.99,11.284 C42.368,11.942 42.746,12.824 42.858,13.37 Z M39.806,22.134 C40.478,21.504 41.038,20.482 41.388,19.586 L40.394,19.348 C40.058,20.202 39.47,21.14 38.84,21.672 L39.806,22.134 Z M50.25,22.092 L51.258,21.7 C50.88,21.042 50.096,20.034 49.41,19.348 L48.472,19.67 C49.144,20.412 49.914,21.448 50.25,22.092 Z M46.386,21.994 L47.408,21.742 C47.282,21.168 46.932,20.23 46.61,19.53 L45.644,19.726 C45.938,20.454 46.26,21.406 46.386,21.994 Z M43.026,21.994 L44.048,21.854 C44.048,21.308 43.922,20.342 43.74,19.628 L42.774,19.698 C42.928,20.454 43.026,21.42 43.026,21.994 Z M55.276,22.05 L55.276,12.586 C55.752,11.634 56.186,10.626 56.522,9.632 L55.556,9.338 C54.856,11.452 53.722,13.538 52.49,14.896 C52.672,15.134 52.98,15.68 53.092,15.918 C53.498,15.442 53.904,14.896 54.282,14.308 L54.282,22.05 L55.276,22.05 Z M61.128,21.994 L61.128,19.488 L63.382,19.488 L63.382,18.536 L61.128,18.536 L61.128,13.678 C61.982,16.114 63.326,18.466 64.796,19.81 C64.978,19.53 65.328,19.166 65.58,18.984 C64.068,17.766 62.626,15.442 61.8,13.104 L65.3,13.104 L65.3,12.096 L61.128,12.096 L61.128,9.338 L60.12,9.338 L60.12,12.096 L56.2,12.096 L56.2,13.104 L59.49,13.104 C58.636,15.47 57.18,17.836 55.654,19.054 C55.892,19.236 56.228,19.6 56.41,19.838 C57.88,18.494 59.224,16.198 60.12,13.776 L60.12,18.536 L57.838,18.536 L57.838,19.488 L60.12,19.488 L60.12,21.994 L61.128,21.994 Z M71.376,14.448 L71.376,12.362 L80.966,12.362 L80.966,14.448 L81.988,14.448 L81.988,11.452 L76.752,11.452 L76.752,9.282 L75.702,9.282 L75.702,11.452 L72.776,11.452 L73.644,11.06 C73.406,10.598 72.916,9.912 72.454,9.422 L71.53,9.8 C71.936,10.304 72.412,10.99 72.622,11.452 L70.382,11.452 L70.382,14.448 L71.376,14.448 Z M79.454,11.452 C79.86,11.032 80.392,10.388 80.854,9.772 L79.776,9.394 C79.51,9.898 79.006,10.64 78.614,11.102 L79.454,11.452 Z M76.836,22.078 L76.836,18.396 L80.084,18.396 L80.084,20.356 C80.084,20.524 80.014,20.566 79.804,20.58 C79.594,20.594 78.852,20.594 78.012,20.566 C78.152,20.846 78.32,21.224 78.376,21.518 L78.8840185,21.5172222 C79.6799444,21.5133333 80.2263333,21.49 80.588,21.35 C81.022,21.196 81.134,20.916 81.134,20.37 L81.134,17.444 L76.836,17.444 L76.836,16.296 L79.846,16.296 L79.846,13.356 L72.538,13.356 L72.538,16.296 L75.786,16.296 L75.786,17.444 L71.292,17.444 L71.292,21.448 L72.328,21.448 L72.328,18.396 L75.786,18.396 L75.786,22.078 L76.836,22.078 Z M78.81,15.512 L73.532,15.512 L73.532,14.14 L78.81,14.14 L78.81,15.512 Z M84.424,21.924 C85.754,20.748 86.426,19.194 86.748,17.64 C87.364,18.41 88.176,19.474 88.498,20.02 L89.226,19.236 C88.89,18.816 87.476,17.15 86.93,16.576 C86.958,16.31 86.986,16.058 87.014,15.806 L89.128,15.806 L89.128,14.826 L87.056,14.826 C87.07,14.532 87.07,14.224 87.07,13.944 L87.07,12.572 L88.974,12.572 L88.974,11.606 L87.07,11.606 L87.07,9.436 L86.09,9.436 L86.09,11.606 L84.088,11.606 L84.088,12.572 L86.09,12.572 L86.09,13.958 C86.09,14.224 86.09,14.532 86.076,14.826 L83.78,14.826 L83.78,15.806 L86.034,15.806 C85.894,17.682 85.404,19.824 83.696,21.21 C83.948,21.364 84.298,21.714 84.424,21.924 Z M90.794,17.346 L90.794,10.892 L94.658,10.892 L94.658,17.346 L95.68,17.346 L95.68,9.968 L89.8,9.968 L89.8,17.346 L90.794,17.346 Z M88.96,22.064 C91.074,20.958 92.166,19.474 92.712,17.962 L92.712,20.58 C92.712,21.518 93.076,21.77 93.986,21.77 L95.092,21.77 C96.24,21.77 96.408,21.224 96.52,19.054 C96.268,18.998 95.918,18.844 95.666,18.648 C95.61,20.58 95.54,20.944 95.106,20.944 L94.126,20.944 C93.762,20.944 93.65,20.86 93.65,20.482 L93.65,16.94 L93.006,16.94 C93.174,16.184 93.23,15.442 93.23,14.756 L93.23,12.082 L92.25,12.082 L92.25,14.742 C92.25,16.898 91.816,19.516 88.316,21.308 C88.498,21.448 88.834,21.854 88.96,22.064 Z" id="思源黑体常规"></path>
                    </g>
                </g>
            </g>
        </g>
    </g>
</svg>