<?xml version="1.0" encoding="UTF-8"?>
<svg width="87px" height="14px" viewBox="0 0 87 14" version="1.1" xmlns="http://www.w3.org/2000/svg" xmlns:xlink="http://www.w3.org/1999/xlink">
    <!-- Generator: Sketch 60.1 (88133) - https://sketch.com -->
    <title>思源黑体中黑</title>
    <desc>Created with Sketch.</desc>
    <g id="Page-1" stroke="none" stroke-width="1" fill="none" fill-rule="evenodd">
        <g id="图表-文字" transform="translate(-696.000000, -647.000000)" fill="#FFFFFF" fill-rule="nonzero">
            <g id="下拉框" transform="translate(686.000000, 158.000000)">
                <g id="组合-&lt;v0&gt;">
                    <g id="17" transform="translate(0.000000, 480.000000)">
                        <path d="M21.858,16.254 L21.858,9.87 L12.03,9.87 L12.03,16.254 L21.858,16.254 Z M20.57,12.516 L17.588,12.516 L17.588,11.004 L20.57,11.004 L20.57,12.516 Z M16.328,12.516 L13.262,12.516 L13.262,11.004 L16.328,11.004 L16.328,12.516 Z M20.57,15.12 L17.588,15.12 L17.588,13.58 L20.57,13.58 L20.57,15.12 Z M16.328,15.12 L13.262,15.12 L13.262,13.58 L16.328,13.58 L16.328,15.12 Z M18.162,19.18 L19.086,18.284 C18.456,17.668 17.224,16.856 16.202,16.352 L15.348,17.164 C16.37,17.71 17.588,18.564 18.162,19.18 Z M22.082,21.252 L23.342,20.72 C23.048,19.754 22.222,18.368 21.438,17.318 L20.276,17.808 C21.046,18.886 21.816,20.314 22.082,21.252 Z M11.834,21.364 C12.506,20.44 12.996,19.012 13.332,17.878 L12.17,17.444 C11.862,18.564 11.344,19.88 10.672,20.72 L11.834,21.364 Z M18.68,21.826 C20.038,21.826 20.43,21.364 20.598,19.432 C20.248,19.348 19.688,19.152 19.408,18.942 C19.324,20.426 19.226,20.65 18.582,20.65 L16.202,20.65 C15.474,20.65 15.334,20.58 15.334,20.188 L15.334,17.64 L14.018,17.64 L14.018,20.188 C14.018,21.462 14.438,21.826 16.076,21.826 L18.68,21.826 Z M27.5,11.844 L28.298,10.808 C27.752,10.416 26.688,9.8 25.974,9.394 L25.204,10.304 C25.946,10.78 26.982,11.438 27.5,11.844 Z M28.088,22.064 C29.726,19.754 29.978,16.212 29.978,13.776 L29.978,11.13 L37.272,11.13 L37.272,9.954 L28.704,9.954 L28.704,13.776 C28.704,16.044 28.564,19.194 26.996,21.378 C27.304,21.518 27.864,21.854 28.088,22.064 Z M33.73,21.896 C34.15,21.728 34.248,21.406 34.248,20.818 L34.248,17.444 L36.81,17.444 L36.81,12.544 L33.94,12.544 C34.108,12.208 34.304,11.858 34.486,11.48 L33.03,11.214 C32.946,11.592 32.792,12.11 32.652,12.544 L30.65,12.544 L30.65,17.444 L33.016,17.444 L33.016,20.776 C33.016,20.93 32.96,20.986 32.792,20.986 C32.624,20.986 32.05,21 31.462,20.972 C31.588,21.294 31.756,21.77 31.798,22.092 C32.708,22.106 33.324,22.092 33.73,21.896 Z M26.842,15.512 L27.626,14.462 C27.066,14.084 26.016,13.496 25.288,13.104 L24.532,14.042 C25.288,14.476 26.324,15.12 26.842,15.512 Z M35.592,14.532 L31.812,14.532 L31.812,13.524 L35.592,13.524 L35.592,14.532 Z M35.592,16.478 L31.812,16.478 L31.812,15.456 L35.592,15.456 L35.592,16.478 Z M25.96,21.91 C26.604,20.594 27.318,18.914 27.864,17.458 L26.828,16.73 C26.212,18.326 25.372,20.118 24.784,21.21 L25.96,21.91 Z M36.362,21.182 L37.552,20.664 C37.244,19.978 36.586,18.844 36.068,18.004 L34.948,18.424 C35.452,19.306 36.068,20.482 36.362,21.182 Z M30.496,21.294 C31.07,20.594 31.742,19.46 32.19,18.452 L31.028,18.13 C30.664,19.026 30.062,20.006 29.46,20.664 C29.754,20.818 30.258,21.126 30.496,21.294 Z M51.188,18.9 L51.188,17.752 L45.63,17.752 L45.63,16.73 L50.054,16.73 L50.054,15.694 L45.63,15.694 L45.63,14.756 L49.816,14.756 L49.816,9.758 L40.17,9.758 L40.17,14.756 L44.328,14.756 L44.328,15.694 L39.946,15.694 L39.946,16.73 L44.328,16.73 L44.328,17.752 L38.826,17.752 L38.826,18.9 L51.188,18.9 Z M44.328,13.678 L41.402,13.678 L41.402,10.822 L44.328,10.822 L44.328,13.678 Z M48.5,13.678 L45.63,13.678 L45.63,10.822 L48.5,10.822 L48.5,13.678 Z M46.918,13.524 C47.268,12.992 47.674,12.18 48.038,11.452 L47.044,11.088 C46.834,11.718 46.428,12.628 46.106,13.202 L46.918,13.524 Z M42.788,13.426 L43.67,13.09 C43.558,12.544 43.208,11.732 42.816,11.116 L41.976,11.41 C42.354,12.04 42.69,12.894 42.788,13.426 Z M40.016,22.148 C40.66,21.518 41.22,20.51 41.556,19.6 L40.296,19.278 C39.96,20.146 39.386,21.084 38.784,21.602 L40.016,22.148 Z M50.012,22.148 L51.3,21.658 C50.936,20.986 50.152,20.006 49.508,19.278 L48.304,19.684 C48.948,20.44 49.69,21.49 50.012,22.148 Z M46.218,22.036 L47.506,21.728 C47.394,21.14 47.058,20.202 46.75,19.502 L45.518,19.754 C45.812,20.482 46.106,21.448 46.218,22.036 Z M42.914,22.022 L44.202,21.868 C44.202,21.294 44.076,20.342 43.908,19.614 L42.69,19.712 C42.844,20.468 42.914,21.448 42.914,22.022 Z M55.416,22.078 L55.416,12.502 C55.864,11.578 56.284,10.626 56.592,9.674 L55.374,9.324 C54.702,11.354 53.61,13.398 52.406,14.714 C52.63,15.008 53.008,15.722 53.134,16.03 C53.484,15.61 53.82,15.162 54.17,14.658 L54.17,22.078 L55.416,22.078 Z M61.31,22.022 L61.31,19.628 L63.382,19.628 L63.382,18.452 L61.31,18.452 L61.31,14.154 C62.136,16.436 63.34,18.62 64.656,19.922 C64.894,19.572 65.328,19.124 65.65,18.886 C64.208,17.668 62.836,15.414 62.038,13.16 L65.314,13.16 L65.314,11.928 L61.31,11.928 L61.31,9.324 L60.036,9.324 L60.036,11.928 L56.284,11.928 L56.284,13.16 L59.35,13.16 C58.524,15.456 57.152,17.738 55.668,18.97 C55.948,19.194 56.396,19.642 56.592,19.964 C57.964,18.648 59.182,16.534 60.036,14.238 L60.036,18.452 L57.95,18.452 L57.95,19.628 L60.036,19.628 L60.036,22.022 L61.31,22.022 Z M76.794,22.092 L76.794,17.64 L80.434,17.64 L80.434,18.396 L81.792,18.396 L81.792,11.704 L76.794,11.704 L76.794,9.268 L75.436,9.268 L75.436,11.704 L70.508,11.704 L70.508,18.466 L71.81,18.466 L71.81,17.64 L75.436,17.64 L75.436,22.092 L76.794,22.092 Z M80.434,16.366 L76.794,16.366 L76.794,12.978 L80.434,12.978 L80.434,16.366 Z M75.436,16.366 L71.81,16.366 L71.81,12.978 L75.436,12.978 L75.436,16.366 Z M96.338,18.9 L96.338,17.752 L90.78,17.752 L90.78,16.73 L95.204,16.73 L95.204,15.694 L90.78,15.694 L90.78,14.756 L94.966,14.756 L94.966,9.758 L85.32,9.758 L85.32,14.756 L89.478,14.756 L89.478,15.694 L85.096,15.694 L85.096,16.73 L89.478,16.73 L89.478,17.752 L83.976,17.752 L83.976,18.9 L96.338,18.9 Z M89.478,13.678 L86.552,13.678 L86.552,10.822 L89.478,10.822 L89.478,13.678 Z M93.65,13.678 L90.78,13.678 L90.78,10.822 L93.65,10.822 L93.65,13.678 Z M92.068,13.524 C92.418,12.992 92.824,12.18 93.188,11.452 L92.194,11.088 C91.984,11.718 91.578,12.628 91.256,13.202 L92.068,13.524 Z M87.938,13.426 L88.82,13.09 C88.708,12.544 88.358,11.732 87.966,11.116 L87.126,11.41 C87.504,12.04 87.84,12.894 87.938,13.426 Z M85.166,22.148 C85.81,21.518 86.37,20.51 86.706,19.6 L85.446,19.278 C85.11,20.146 84.536,21.084 83.934,21.602 L85.166,22.148 Z M95.162,22.148 L96.45,21.658 C96.086,20.986 95.302,20.006 94.658,19.278 L93.454,19.684 C94.098,20.44 94.84,21.49 95.162,22.148 Z M91.368,22.036 L92.656,21.728 C92.544,21.14 92.208,20.202 91.9,19.502 L90.668,19.754 C90.962,20.482 91.256,21.448 91.368,22.036 Z M88.064,22.022 L89.352,21.868 C89.352,21.294 89.226,20.342 89.058,19.614 L87.84,19.712 C87.994,20.468 88.064,21.448 88.064,22.022 Z" id="思源黑体中黑"></path>
                    </g>
                </g>
            </g>
        </g>
    </g>
</svg>