<?xml version="1.0" encoding="UTF-8"?>
<svg width="87px" height="14px" viewBox="0 0 87 14" version="1.1" xmlns="http://www.w3.org/2000/svg" xmlns:xlink="http://www.w3.org/1999/xlink">
    <!-- Generator: Sketch 60.1 (88133) - https://sketch.com -->
    <title>思源黑体黑体</title>
    <desc>Created with Sketch.</desc>
    <g id="Page-1" stroke="none" stroke-width="1" fill="none" fill-rule="evenodd">
        <g id="图表-文字" transform="translate(-696.000000, -677.000000)" fill="#FFFFFF" fill-rule="nonzero">
            <g id="下拉框" transform="translate(686.000000, 158.000000)">
                <g id="组合-&lt;v0&gt;">
                    <g id="18" transform="translate(0.000000, 510.000000)">
                        <path d="M18.078,19.278 L19.268,18.144 C18.694,17.556 17.616,16.842 16.678,16.366 L21.97,16.366 L21.97,9.73 L11.946,9.73 L11.946,16.366 L16.328,16.366 L15.348,17.276 C16.356,17.808 17.532,18.676 18.078,19.278 Z M16.146,12.348 L13.514,12.348 L13.514,11.172 L16.146,11.172 L16.146,12.348 Z M20.318,12.348 L17.756,12.348 L17.756,11.172 L20.318,11.172 L20.318,12.348 Z M16.146,14.924 L13.514,14.924 L13.514,13.692 L16.146,13.692 L16.146,14.924 Z M20.318,14.924 L17.756,14.924 L17.756,13.692 L20.318,13.692 L20.318,14.924 Z M21.886,21.336 L23.51,20.65 C23.23,19.67 22.446,18.312 21.662,17.262 L20.178,17.878 C20.934,18.97 21.648,20.398 21.886,21.336 Z M12.044,21.42 C12.716,20.496 13.192,19.082 13.528,17.892 L12.016,17.346 C11.722,18.494 11.19,19.754 10.546,20.594 L12.044,21.42 Z M18.596,21.966 C20.052,21.966 20.542,21.462 20.724,19.474 C20.276,19.376 19.562,19.11 19.226,18.858 C19.142,20.244 19.03,20.454 18.456,20.454 L16.468,20.454 C15.768,20.454 15.642,20.398 15.642,19.978 L15.642,17.696 L13.962,17.696 L13.962,19.992 C13.962,21.476 14.424,21.966 16.272,21.966 L18.596,21.966 Z M27.374,11.942 L28.382,10.612 C27.85,10.234 26.758,9.632 26.058,9.24 L25.106,10.444 C25.82,10.878 26.87,11.536 27.374,11.942 Z M28.34,22.232 C30.006,19.908 30.258,16.212 30.258,13.734 L30.258,11.368 L32.96,11.368 C32.89,11.732 32.764,12.152 32.624,12.558 L30.748,12.558 L30.748,17.612 L32.96,17.612 L32.96,20.594 C32.96,20.748 32.904,20.79 32.75,20.79 L32.4684444,20.7894815 C32.2164444,20.7884444 31.8586667,20.7853333 31.532,20.776 C31.714,21.182 31.896,21.77 31.966,22.204 C32.82,22.218 33.478,22.19 33.954,21.966 C34.444,21.742 34.556,21.35 34.556,20.636 L34.556,17.612 L36.992,17.612 L36.992,12.558 L34.318,12.558 C34.5,12.264 34.682,11.956 34.864,11.648 L33.296,11.368 L37.398,11.368 L37.398,9.87 L28.648,9.87 L28.648,13.734 C28.648,16.002 28.508,19.18 26.94,21.336 C27.346,21.518 28.046,21.966 28.34,22.232 Z M26.702,15.638 L27.71,14.294 C27.15,13.93 26.086,13.356 25.372,13.006 L24.434,14.196 C25.162,14.63 26.212,15.246 26.702,15.638 Z M35.452,14.518 L32.218,14.518 L32.218,13.748 L35.452,13.748 L35.452,14.518 Z M35.452,16.422 L32.218,16.422 L32.218,15.638 L35.452,15.638 L35.452,16.422 Z M26.128,22.036 C26.744,20.65 27.402,19.054 27.934,17.556 L26.562,16.646 C25.974,18.27 25.176,20.048 24.602,21.14 L26.128,22.036 Z M36.208,21.35 L37.748,20.678 C37.454,19.992 36.838,18.858 36.39,18.018 L34.948,18.564 C35.396,19.446 35.956,20.622 36.208,21.35 Z M30.846,21.476 C31.364,20.748 32.022,19.586 32.456,18.592 L30.986,18.158 C30.636,19.04 30.09,20.006 29.544,20.664 C29.908,20.846 30.538,21.224 30.846,21.476 Z M51.258,19.11 L51.258,17.654 L45.826,17.654 L45.826,16.94 L50.152,16.94 L50.152,15.638 L45.826,15.638 L45.826,14.966 L49.956,14.966 L49.956,9.604 L40.058,9.604 L40.058,14.966 L44.16,14.966 L44.16,15.638 L39.848,15.638 L39.848,16.94 L44.16,16.94 L44.16,17.654 L38.756,17.654 L38.756,19.11 L51.258,19.11 Z M44.16,13.622 L41.64,13.622 L41.64,10.948 L44.16,10.948 L44.16,13.622 Z M48.276,13.622 L45.826,13.622 L45.826,10.948 L48.276,10.948 L48.276,13.622 Z M47.128,13.524 C47.422,13.02 47.758,12.278 48.108,11.55 L46.876,11.116 C46.708,11.718 46.372,12.586 46.106,13.132 L47.128,13.524 Z M42.676,13.468 L43.768,13.048 C43.67,12.516 43.348,11.746 42.984,11.158 L41.962,11.522 C42.298,12.138 42.592,12.95 42.676,13.468 Z M49.76,22.274 L51.426,21.686 C51.076,21 50.306,19.978 49.69,19.25 L48.122,19.768 C48.738,20.538 49.466,21.602 49.76,22.274 Z M40.24,22.288 C40.87,21.616 41.444,20.608 41.752,19.67 L40.114,19.264 C39.792,20.132 39.232,21.07 38.63,21.588 L40.24,22.288 Z M46.022,22.148 L47.702,21.77 C47.59,21.182 47.268,20.23 46.96,19.53 L45.378,19.838 C45.658,20.58 45.938,21.546 46.022,22.148 Z M42.76,22.148 L44.398,21.938 C44.398,21.35 44.286,20.384 44.132,19.642 L42.578,19.796 C42.704,20.552 42.76,21.532 42.76,22.148 Z M55.584,22.19 L55.584,12.376 C56.018,11.48 56.396,10.57 56.704,9.674 L55.122,9.198 C54.492,11.172 53.4,13.16 52.224,14.434 C52.532,14.854 52.994,15.764 53.148,16.17 C53.428,15.834 53.722,15.456 54.002,15.078 L54.002,22.19 L55.584,22.19 Z M61.548,22.12 L61.548,19.866 L63.424,19.866 L63.424,18.634 C63.788,19.18 64.152,19.684 64.544,20.118 C64.838,19.684 65.412,19.124 65.79,18.83 C64.432,17.556 63.144,15.372 62.374,13.216 L65.412,13.216 L65.412,11.634 L61.548,11.634 L61.548,9.212 L59.924,9.212 L59.924,11.634 L56.382,11.634 L56.382,13.216 L59.14,13.216 C58.37,15.428 57.068,17.64 55.654,18.9 C56.032,19.18 56.564,19.768 56.844,20.16 C57.292,19.712 57.698,19.166 58.09,18.578 L58.09,19.866 L59.924,19.866 L59.924,22.12 L61.548,22.12 Z M63.27,18.382 L61.548,18.382 L61.548,14.728 C62.024,16.044 62.612,17.304 63.27,18.382 Z M59.924,18.382 L58.216,18.382 C58.874,17.346 59.462,16.114 59.924,14.826 L59.924,18.382 Z M82.436,19.11 L82.436,17.654 L77.004,17.654 L77.004,16.94 L81.33,16.94 L81.33,15.638 L77.004,15.638 L77.004,14.966 L81.134,14.966 L81.134,9.604 L71.236,9.604 L71.236,14.966 L75.338,14.966 L75.338,15.638 L71.026,15.638 L71.026,16.94 L75.338,16.94 L75.338,17.654 L69.934,17.654 L69.934,19.11 L82.436,19.11 Z M75.338,13.622 L72.818,13.622 L72.818,10.948 L75.338,10.948 L75.338,13.622 Z M79.454,13.622 L77.004,13.622 L77.004,10.948 L79.454,10.948 L79.454,13.622 Z M78.306,13.524 C78.6,13.02 78.936,12.278 79.286,11.55 L78.054,11.116 C77.886,11.718 77.55,12.586 77.284,13.132 L78.306,13.524 Z M73.854,13.468 L74.946,13.048 C74.848,12.516 74.526,11.746 74.162,11.158 L73.14,11.522 C73.476,12.138 73.77,12.95 73.854,13.468 Z M80.938,22.274 L82.604,21.686 C82.254,21 81.484,19.978 80.868,19.25 L79.3,19.768 C79.916,20.538 80.644,21.602 80.938,22.274 Z M71.418,22.288 C72.048,21.616 72.622,20.608 72.93,19.67 L71.292,19.264 C70.97,20.132 70.41,21.07 69.808,21.588 L71.418,22.288 Z M77.2,22.148 L78.88,21.77 C78.768,21.182 78.446,20.23 78.138,19.53 L76.556,19.838 C76.836,20.58 77.116,21.546 77.2,22.148 Z M73.938,22.148 L75.576,21.938 C75.576,21.35 75.464,20.384 75.31,19.642 L73.756,19.796 C73.882,20.552 73.938,21.532 73.938,22.148 Z M86.762,22.19 L86.762,12.376 C87.196,11.48 87.574,10.57 87.882,9.674 L86.3,9.198 C85.67,11.172 84.578,13.16 83.402,14.434 C83.71,14.854 84.172,15.764 84.326,16.17 C84.606,15.834 84.9,15.456 85.18,15.078 L85.18,22.19 L86.762,22.19 Z M92.726,22.12 L92.726,19.866 L94.602,19.866 L94.602,18.634 C94.966,19.18 95.33,19.684 95.722,20.118 C96.016,19.684 96.59,19.124 96.968,18.83 C95.61,17.556 94.322,15.372 93.552,13.216 L96.59,13.216 L96.59,11.634 L92.726,11.634 L92.726,9.212 L91.102,9.212 L91.102,11.634 L87.56,11.634 L87.56,13.216 L90.318,13.216 C89.548,15.428 88.246,17.64 86.832,18.9 C87.21,19.18 87.742,19.768 88.022,20.16 C88.47,19.712 88.876,19.166 89.268,18.578 L89.268,19.866 L91.102,19.866 L91.102,22.12 L92.726,22.12 Z M94.448,18.382 L92.726,18.382 L92.726,14.728 C93.202,16.044 93.79,17.304 94.448,18.382 Z M91.102,18.382 L89.394,18.382 C90.052,17.346 90.64,16.114 91.102,14.826 L91.102,18.382 Z" id="思源黑体黑体"></path>
                    </g>
                </g>
            </g>
        </g>
    </g>
</svg>