<?xml version="1.0" encoding="UTF-8"?>
<svg width="88px" height="14px" viewBox="0 0 88 14" version="1.1" xmlns="http://www.w3.org/2000/svg" xmlns:xlink="http://www.w3.org/1999/xlink">
    <!-- Generator: Sketch 60.1 (88133) - https://sketch.com -->
    <title>思源黑体粗体</title>
    <desc>Created with Sketch.</desc>
    <g id="Page-1" stroke="none" stroke-width="1" fill="none" fill-rule="evenodd">
        <g id="图表-文字" transform="translate(-696.000000, -707.000000)" fill="#FFFFFF" fill-rule="nonzero">
            <g id="下拉框" transform="translate(686.000000, 158.000000)">
                <g id="组合-&lt;v0&gt;">
                    <g id="19" transform="translate(0.000000, 540.000000)">
                        <path d="M15.964,17.766 C16.762,18.27 17.574,18.9 17.98,19.39 L19.436,18.004 C18.974,17.5 18.12,16.912 17.308,16.464 L22.068,16.464 L22.068,9.604 L11.834,9.604 L11.834,16.464 L16.342,16.464 L15.348,17.402 C15.544,17.514 15.754,17.64 15.964,17.766 Z M15.95,12.208 L13.752,12.208 L13.752,11.354 L15.95,11.354 L15.95,12.208 Z M20.052,12.208 L17.924,12.208 L17.924,11.354 L20.052,11.354 L20.052,12.208 Z M15.95,14.714 L13.752,14.714 L13.752,13.832 L15.95,13.832 L15.95,14.714 Z M20.052,14.714 L17.924,14.714 L17.924,13.832 L20.052,13.832 L20.052,14.714 Z M21.704,21.406 L23.692,20.566 C23.44,19.572 22.67,18.228 21.928,17.192 L20.108,17.948 C20.822,19.04 21.508,20.468 21.704,21.406 Z M12.24,21.476 C12.884,20.538 13.36,19.138 13.696,17.92 L11.848,17.248 C11.554,18.424 11.022,19.628 10.406,20.454 L12.24,21.476 Z M15.964,17.766 L13.906,17.766 L13.906,19.796 C13.906,21.504 14.396,22.078 16.44,22.078 L18.498,22.078 C20.094,22.078 20.654,21.56 20.878,19.502 C20.332,19.376 19.45,19.068 19.044,18.76 C18.96,20.062 18.862,20.244 18.33,20.244 L16.706,20.244 C16.076,20.244 15.964,20.202 15.964,19.768 L15.964,17.766 Z M27.234,12.026 L28.466,10.402 C27.92,10.038 26.814,9.464 26.142,9.114 L24.966,10.57 C25.666,11.004 26.744,11.634 27.234,12.026 Z M28.592,22.372 C30.272,20.048 30.538,16.212 30.538,13.692 L30.538,11.606 L32.876,11.606 C32.806,11.9 32.694,12.25 32.582,12.572 L30.846,12.572 L30.846,17.78 L32.904,17.78 L32.904,20.412 C32.904,20.552 32.848,20.594 32.694,20.594 L32.4555352,20.5932617 C32.2779375,20.5920312 32.0395,20.58875 31.812,20.58 C32.148,19.992 32.484,19.32 32.722,18.718 L30.93,18.2 C30.622,19.04 30.104,20.02 29.614,20.664 C30.062,20.888 30.818,21.336 31.196,21.63 C31.35,21.392 31.518,21.112 31.7,20.804 C31.868,21.28 32.05,21.868 32.106,22.316 C32.946,22.33 33.618,22.302 34.164,22.036 C34.724,21.77 34.836,21.294 34.836,20.468 L34.836,17.78 L37.16,17.78 L37.16,12.572 L34.71,12.572 C34.878,12.334 35.06,12.068 35.228,11.802 L34.08,11.606 L37.482,11.606 L37.482,9.786 L28.564,9.786 L28.564,13.692 C28.564,15.946 28.438,19.152 26.87,21.294 C27.36,21.504 28.228,22.05 28.592,22.372 Z M26.548,15.764 L27.766,14.126 C27.22,13.776 26.142,13.23 25.47,12.894 L24.308,14.364 C25.008,14.77 26.058,15.386 26.548,15.764 Z M35.284,14.504 L32.638,14.504 L32.638,14 L35.284,14 L35.284,14.504 Z M35.284,16.352 L32.638,16.352 L32.638,15.834 L35.284,15.834 L35.284,16.352 Z M26.282,22.162 C26.884,20.734 27.458,19.18 27.962,17.654 L26.296,16.548 C25.722,18.228 24.966,19.978 24.42,21.084 L26.282,22.162 Z M36.026,21.504 L37.902,20.706 C37.65,20.006 37.09,18.858 36.684,18.018 L34.92,18.69 C35.312,19.586 35.816,20.776 36.026,21.504 Z M49.48,22.4 L51.538,21.7 C51.216,21.014 50.516,20.034 49.928,19.292 L51.314,19.292 L51.314,17.528 L46.008,17.528 L46.008,17.136 L50.25,17.136 L50.25,15.568 L46.008,15.568 L46.008,15.162 L50.096,15.162 L50.096,9.464 L39.96,9.464 L39.96,15.162 L43.964,15.162 L43.964,15.568 L39.778,15.568 L39.778,17.136 L43.964,17.136 L43.964,17.528 L38.7,17.528 L38.7,19.292 L39.918,19.292 C39.61,20.16 39.064,21.056 38.504,21.546 L40.478,22.386 C41.108,21.714 41.668,20.678 41.962,19.712 L40.24,19.292 L49.55,19.292 L47.94,19.81 C48.514,20.608 49.214,21.714 49.48,22.4 Z M43.964,13.538 L41.892,13.538 L41.892,11.088 L43.964,11.088 L43.964,13.538 Z M48.038,13.538 L46.008,13.538 L46.008,11.088 L48.038,11.088 L48.038,11.606 L46.694,11.144 C46.568,11.718 46.302,12.53 46.078,13.048 L47.324,13.51 C47.534,13.104 47.772,12.544 48.038,11.956 L48.038,13.538 Z M42.55,13.496 L43.866,13.006 C43.782,12.502 43.502,11.76 43.18,11.2 L41.948,11.634 C42.242,12.222 42.494,13.006 42.55,13.496 Z M45.798,22.26 L47.856,21.798 C47.758,21.182 47.45,20.244 47.156,19.516 L45.224,19.908 C45.476,20.664 45.728,21.658 45.798,22.26 Z M42.578,22.246 L44.594,22.008 C44.594,21.406 44.482,20.412 44.342,19.656 L42.438,19.838 C42.55,20.622 42.592,21.63 42.578,22.246 Z M55.738,22.316 L55.738,18.928 C56.186,19.292 56.774,19.936 57.082,20.37 C57.488,19.922 57.88,19.404 58.23,18.83 L58.23,20.104 L59.812,20.104 L59.812,22.218 L61.8,22.218 L61.8,20.104 L63.466,20.104 L63.466,18.942 C63.774,19.46 64.096,19.922 64.432,20.328 C64.782,19.796 65.468,19.096 65.944,18.746 C64.656,17.444 63.466,15.33 62.724,13.272 L65.496,13.272 L65.496,11.34 L61.8,11.34 L61.8,9.114 L59.812,9.114 L59.812,11.34 L56.48,11.34 L56.48,13.272 L58.944,13.272 C58.216,15.358 57.054,17.43 55.738,18.718 L55.738,12.222 C56.144,11.368 56.494,10.514 56.788,9.674 L54.87,9.086 C54.254,11.004 53.19,12.936 52.056,14.168 C52.406,14.672 52.952,15.82 53.134,16.31 C53.358,16.058 53.582,15.778 53.806,15.484 L53.806,22.316 L55.738,22.316 Z M63.102,18.298 L61.8,18.298 L61.8,15.344 C62.178,16.394 62.612,17.402 63.102,18.298 Z M59.812,18.298 L58.552,18.298 C59.014,17.458 59.448,16.52 59.812,15.54 L59.812,18.298 Z M73.588,22.288 L73.588,17.948 C73.882,18.424 74.148,18.886 74.33,19.25 L75.534,17.668 C75.254,17.36 74.12,16.198 73.588,15.722 L73.588,15.568 L75.352,15.568 L75.352,13.678 L73.588,13.678 L73.588,13.118 L74.652,13.398 C75.002,12.544 75.408,11.2 75.772,10.01 L74.078,9.674 C73.98,10.444 73.798,11.452 73.588,12.292 L73.588,9.058 L71.712,9.058 L71.712,12.348 C71.6,11.536 71.39,10.57 71.11,9.772 L69.71,10.122 C70.032,11.172 70.27,12.572 70.284,13.468 L71.712,13.104 L71.712,13.678 L69.794,13.678 L69.794,15.568 L71.222,15.568 C70.816,16.702 70.2,18.018 69.556,18.802 C69.85,19.376 70.284,20.3 70.452,20.93 C70.914,20.23 71.348,19.278 71.712,18.256 L71.712,22.288 L73.588,22.288 Z M82.856,22.092 L82.856,20.216 L81.904,20.216 L81.904,9.576 L75.94,9.576 L75.94,20.216 L74.778,20.216 L74.778,22.092 L82.856,22.092 Z M79.86,13.132 L77.886,13.132 L77.886,11.452 L79.86,11.452 L79.86,13.132 Z M79.86,16.66 L77.886,16.66 L77.886,14.938 L79.86,14.938 L79.86,16.66 Z M79.86,20.216 L77.886,20.216 L77.886,18.466 L79.86,18.466 L79.86,20.216 Z M86.944,22.316 L86.944,18.928 C87.392,19.292 87.98,19.936 88.288,20.37 C88.694,19.922 89.086,19.404 89.436,18.83 L89.436,20.104 L91.018,20.104 L91.018,22.218 L93.006,22.218 L93.006,20.104 L94.672,20.104 L94.672,18.942 C94.98,19.46 95.302,19.922 95.638,20.328 C95.988,19.796 96.674,19.096 97.15,18.746 C95.862,17.444 94.672,15.33 93.93,13.272 L96.702,13.272 L96.702,11.34 L93.006,11.34 L93.006,9.114 L91.018,9.114 L91.018,11.34 L87.686,11.34 L87.686,13.272 L90.15,13.272 C89.422,15.358 88.26,17.43 86.944,18.718 L86.944,12.222 C87.35,11.368 87.7,10.514 87.994,9.674 L86.076,9.086 C85.46,11.004 84.396,12.936 83.262,14.168 C83.612,14.672 84.158,15.82 84.34,16.31 C84.564,16.058 84.788,15.778 85.012,15.484 L85.012,22.316 L86.944,22.316 Z M94.308,18.298 L93.006,18.298 L93.006,15.344 C93.384,16.394 93.818,17.402 94.308,18.298 Z M91.018,18.298 L89.758,18.298 C90.22,17.458 90.654,16.52 91.018,15.54 L91.018,18.298 Z" id="思源黑体粗体"></path>
                    </g>
                </g>
            </g>
        </g>
    </g>
</svg>