<?xml version="1.0" encoding="UTF-8"?>
<svg width="146px" height="12px" viewBox="0 0 146 12" version="1.1" xmlns="http://www.w3.org/2000/svg" xmlns:xlink="http://www.w3.org/1999/xlink">
    <title>caveatbold1234567890</title>
    <g id="页面-1" stroke="none" stroke-width="1" fill="none" fill-rule="evenodd">
        <g id="弃-增加英文字体分类" transform="translate(-749.000000, -367.000000)" fill="#FFFFFF" fill-rule="nonzero">
            <g id="编组-4" transform="translate(720.000000, 10.000000)">
                <path d="M30.2604313,367.987353 C30.573977,368.097369 30.8902731,368.124873 31.2093196,368.069865 C31.3633421,368.03686 31.5421182,367.976352 31.7456478,367.888339 C31.9491775,367.800326 32.130704,367.712313 32.2902273,367.6243 C32.4497505,367.536287 32.5295122,367.481279 32.5295122,367.459276 C32.5295122,367.393267 32.5845202,367.360262 32.6945362,367.360262 C32.7605459,367.360262 32.8733123,367.297003 33.0328356,367.170484 C33.1923588,367.043966 33.3601333,366.892694 33.536159,366.716668 C33.7121846,366.540642 33.8579559,366.375618 33.9734727,366.221596 C34.0889896,366.067573 34.1357464,365.968559 34.1137432,365.924552 C34.1137432,365.924552 34.1164936,365.9108 34.1219944,365.883296 C34.1274952,365.855792 34.1522488,365.84204 34.1962552,365.84204 C34.2622649,365.809036 34.2705161,365.751277 34.2210088,365.668765 C34.1715016,365.586253 34.0972408,365.500991 33.9982264,365.412978 C33.8992119,365.324965 33.8056983,365.269957 33.7176854,365.247954 C33.5856662,365.247954 33.4508965,365.250704 33.3133765,365.256205 C33.1758564,365.261706 33.06309,365.330466 32.9750771,365.462485 C32.8870643,365.506491 32.8210547,365.575251 32.7770483,365.668765 C32.7330418,365.762279 32.6835346,365.825538 32.6285266,365.858543 C32.4635025,365.97956 32.3122305,366.092327 32.1747104,366.196842 C32.0371904,366.301357 31.8804175,366.397621 31.7043918,366.485634 C31.5833742,366.551644 31.4321021,366.598401 31.2505757,366.625905 C31.0690492,366.653409 30.9012747,366.645157 30.7472522,366.601151 C30.7142474,366.590149 30.6729914,366.513138 30.6234842,366.370117 C30.573977,366.227096 30.5822282,366.029068 30.6482378,365.776031 C30.8132619,365.126936 30.9645339,364.620862 31.102054,364.257809 C31.239574,363.894756 31.3963469,363.611465 31.5723726,363.407935 C31.7483983,363.204406 31.9739311,363.02563 32.2489713,362.871607 C32.4690033,362.783594 32.6065234,362.791846 32.6615314,362.896361 C32.7165394,363.000876 32.7110386,363.207156 32.645029,363.515201 C32.5570162,363.900257 32.5130098,364.120289 32.5130098,364.175297 C32.5460146,364.26331 32.6230258,364.32932 32.7440434,364.373326 C32.8650611,364.417333 32.9833283,364.439336 33.0988452,364.439336 C33.214362,364.439336 33.2721205,364.411832 33.2721205,364.356824 C33.2721205,364.301816 33.2913733,364.271561 33.3298789,364.266061 C33.3683845,364.26056 33.4096405,364.257809 33.4536469,364.257809 C33.5416598,364.257809 33.6489254,364.158795 33.7754439,363.960766 C33.9019623,363.762737 33.9872247,363.559207 34.0312312,363.350177 C34.0972408,363.229159 34.1082424,363.066886 34.064236,362.863356 C34.0202296,362.659826 33.9569703,362.4783 33.8744583,362.318777 C33.7919463,362.159253 33.7176854,362.079492 33.6516758,362.079492 L33.6516758,362.079492 L33.5691638,361.99698 C33.5691638,361.86496 33.4618981,361.749444 33.2473668,361.650429 C33.0328356,361.551415 32.8375571,361.479904 32.6615314,361.435898 C32.5735186,361.435898 32.4167457,361.455151 32.1912128,361.493656 C31.9656799,361.532162 31.7759023,361.584419 31.6218798,361.650429 C31.4458541,361.72744 31.2478252,361.875962 31.0277932,362.095994 C30.8077611,362.316026 30.587729,362.558061 30.3676969,362.8221 C30.11466,363.141146 29.8918775,363.531703 29.6993494,363.993771 C29.5068214,364.455838 29.3638005,364.915155 29.2702869,365.371722 C29.1767732,365.828288 29.1465188,366.221596 29.1795236,366.551644 C29.1795236,366.903695 29.2812885,367.203489 29.4848181,367.451025 C29.6883478,367.698561 29.9468855,367.877337 30.2604313,367.987353 Z M35.6154622,367.657305 C35.9895167,367.89934 36.4543345,367.902091 37.0099156,367.665556 C37.5654966,367.429022 38.233844,366.914697 39.014958,366.122581 C39.0809676,366.056572 39.1497276,365.982311 39.221238,365.899799 C39.2927485,365.817287 39.3505069,365.748527 39.3945133,365.693519 C39.4055149,365.748527 39.4467709,365.866794 39.5182814,366.04832 C39.5897918,366.229847 39.6475502,366.353615 39.6915566,366.419625 C39.9555951,366.925698 40.2526385,367.239244 40.5826866,367.360262 C40.9127347,367.481279 41.2592853,367.519785 41.6223382,367.475779 C41.7323542,367.453775 41.8341191,367.385015 41.9276327,367.269499 C42.0211464,367.153982 42.0679032,366.964204 42.0679032,366.700165 C42.0679032,366.579148 42.0293976,366.491135 41.9523863,366.436127 C41.8753751,366.381119 41.7928631,366.348114 41.7048502,366.337113 C41.4188085,366.293106 41.2207796,366.155586 41.1107636,365.924552 C40.9677427,365.682517 40.8632275,365.396475 40.7972179,365.066427 C40.7312082,364.736379 40.7697139,364.351323 40.9127347,363.911259 L40.9127347,363.911259 L41.1932756,363.086138 L40.5826866,362.541559 C40.4726705,362.442545 40.3434017,362.332529 40.19488,362.211511 C40.0463584,362.090493 39.9143391,361.980477 39.7988223,361.881463 C39.6833054,361.782448 39.6090446,361.716439 39.5760398,361.683434 C39.4000141,361.540413 39.1882332,361.463402 38.9406971,361.4524 C38.693161,361.441399 38.4538761,361.512909 38.2228424,361.666931 C38.1128264,361.732941 37.9725559,361.837456 37.8020311,361.980477 C37.6315062,362.123498 37.4637317,362.27477 37.2987077,362.434293 C37.1336836,362.593817 36.9934131,362.739588 36.8778963,362.871607 C36.7623795,363.003626 36.6936194,363.091639 36.6716162,363.135646 L36.6716162,363.135646 L36.539597,363.399684 C36.4955905,363.399684 36.4570849,363.418937 36.4240801,363.457443 C36.3910753,363.495948 36.3745729,363.537204 36.3745729,363.581211 C36.3305665,363.625217 36.2645569,363.718731 36.176544,363.861752 C36.0885312,364.004772 36.0005184,364.120289 35.9125055,364.208302 C35.703475,364.593358 35.510947,364.972914 35.3349213,365.346968 C35.1588956,365.721023 35.0268764,366.037319 34.9388635,366.295857 C34.8508507,366.554394 34.8343483,366.716668 34.8893563,366.782678 C34.9333627,366.826684 34.9801195,366.895444 35.0296268,366.988958 C35.079134,367.082471 35.1038876,367.151231 35.1038876,367.195238 C35.1038876,367.239244 35.1781484,367.305254 35.3266701,367.393267 C35.4751917,367.481279 35.5714558,367.569292 35.6154622,367.657305 Z M36.5230946,366.287605 C36.5230946,366.287605 36.5616002,366.174839 36.6386114,365.949306 C36.7156226,365.723773 36.8256387,365.489989 36.9686595,365.247954 C37.4197253,364.477841 37.8130327,363.892006 38.1485816,363.490447 C38.4841305,363.088889 38.7619211,362.88811 38.9819531,362.88811 C39.069966,362.88811 39.1579788,362.926615 39.2459916,363.003626 C39.3340045,363.080638 39.4330189,363.245662 39.543035,363.498699 L39.543035,363.498699 L39.179982,364.092785 C38.9489483,364.422833 38.7124138,364.692373 38.4703785,364.901403 C38.2283432,365.110434 37.9202983,365.374472 37.5462438,365.693519 C37.2712037,365.913551 37.0511716,366.070324 36.8861475,366.163837 C36.7211234,366.257351 36.6001058,366.298607 36.5230946,366.287605 Z M44.1554576,367.698561 C44.3149809,367.69306 44.4497505,367.651804 44.5597666,367.574793 C44.6477794,367.530787 44.7632963,367.451025 44.9063171,367.335508 C45.049338,367.219991 45.1758564,367.085222 45.2858725,366.931199 C45.4288933,366.744172 45.5939174,366.52689 45.7809447,366.279354 C45.9679719,366.031818 46.1522488,365.778781 46.3337753,365.520243 C46.5153018,365.261706 46.6693242,365.030672 46.7958427,364.827142 C46.9223611,364.623613 46.9966219,364.483342 47.0186252,364.406331 L47.0186252,364.406331 L47.1836492,364.241307 C47.2386572,364.208302 47.3074173,364.090035 47.3899293,363.886505 C47.4724413,363.682975 47.5439518,363.473945 47.6044606,363.259414 C47.6649694,363.044882 47.6952238,362.910113 47.6952238,362.855105 C47.6952238,362.811098 47.6787214,362.769842 47.6457166,362.731337 C47.6127118,362.692831 47.5742062,362.657076 47.5301998,362.624071 C47.3981805,362.54706 47.2936653,362.54706 47.216654,362.624071 C47.1726476,362.624071 47.0901356,362.648825 46.9691179,362.698332 C46.8481003,362.747839 46.7655883,362.75609 46.7215818,362.723085 C46.6775754,362.723085 46.5895626,362.791846 46.4575433,362.929366 C46.3255241,363.066886 46.1990056,363.240161 46.077988,363.449191 C46.0339816,363.526203 45.9789735,363.603214 45.9129639,363.680225 C45.8469543,363.757236 45.7919463,363.839748 45.7479398,363.927761 C45.7039334,363.971768 45.6296726,364.065281 45.5251574,364.208302 C45.4206421,364.351323 45.3078757,364.499845 45.186858,364.653867 C45.1098468,364.774885 45.0190836,364.934408 44.9145683,365.132437 C44.8100531,365.330466 44.713789,365.489989 44.6257762,365.611007 C44.4607521,365.776031 44.3782401,365.855792 44.3782401,365.850292 C44.3782401,365.844791 44.3562369,365.803535 44.3122305,365.726523 C44.2792257,365.682517 44.2682241,365.528495 44.2792257,365.264456 C44.2902273,365.000418 44.3122305,364.648366 44.3452353,364.208302 C44.3452353,363.636219 44.3369841,363.209906 44.3204817,362.929366 C44.3039793,362.648825 44.2709745,362.453546 44.2214672,362.34353 C44.17196,362.233514 44.0921984,362.151002 43.9821823,362.095994 C43.8611647,362.040986 43.7043918,361.99973 43.5118638,361.972226 C43.3193357,361.944722 43.1625628,361.969476 43.0415452,362.046487 C43.0415452,362.090493 43.0387948,362.305025 43.033294,362.690081 C43.0277932,363.075137 43.0030396,363.493198 42.9590331,363.944264 C42.9590331,364.956411 43.0360444,365.756778 43.1900668,366.345364 C43.3440893,366.93395 43.5256158,367.327257 43.7346462,367.525286 C43.8556639,367.646303 43.9959343,367.704062 44.1554576,367.698561 Z M49.7085174,368.300899 C49.9395511,368.300899 50.1760856,368.254142 50.4181209,368.160628 C50.6601562,368.067115 50.8031771,367.981852 50.8471835,367.904841 L50.8471835,367.904841 L50.9792027,367.904841 C51.0782172,367.904841 51.1772316,367.838832 51.2762461,367.706812 L51.2762461,367.706812 L51.2597437,367.706812 C51.2927485,367.684809 51.3257533,367.665556 51.3587581,367.649054 C51.3917629,367.632551 51.4247677,367.618799 51.4577725,367.607798 C51.6007934,367.530787 51.7410638,367.423521 51.8785839,367.286001 C52.016104,367.148481 52.1316208,367.00821 52.2251344,366.86519 C52.3186481,366.722169 52.3654049,366.617653 52.3654049,366.551644 C52.3654049,366.397621 52.2911441,366.268353 52.1426224,366.163837 C51.9941007,366.059322 51.8428287,366.018066 51.6888062,366.040069 C51.6337982,366.040069 51.584291,366.062072 51.5402846,366.106079 C51.5072798,366.128082 51.4577725,366.152836 51.3917629,366.18034 C51.3257533,366.207844 51.1992348,366.271103 51.0122076,366.370117 L51.0122076,366.370117 L51.02871,366.419625 L50.9627003,366.452629 C50.8196795,366.529641 50.6849098,366.620404 50.5583914,366.724919 C50.4318729,366.829434 50.2695993,366.903695 50.0715704,366.947702 C50.027564,366.958703 49.9753063,366.966954 49.9147975,366.972455 C49.8542887,366.977956 49.7910295,366.980706 49.7250198,366.980706 C49.5159894,366.980706 49.3674677,366.920198 49.2794549,366.79918 C49.2244468,366.711167 49.191442,366.598401 49.1804404,366.460881 C49.1694388,366.323361 49.163938,366.188591 49.163938,366.056572 C49.163938,365.990562 49.17769,365.886047 49.205194,365.743026 C49.232698,365.600005 49.2849557,365.423979 49.3619669,365.214949 L49.3619669,365.214949 L49.4444789,365.049925 L49.5764982,365.165442 C49.8845431,365.407477 50.2585977,365.528495 50.6986618,365.528495 C50.8746875,365.528495 51.0452124,365.489989 51.2102364,365.412978 C51.529283,365.280959 51.8345775,365.049925 52.12612,364.719877 C52.4176625,364.389829 52.6349442,364.043278 52.7779651,363.680225 C52.8769795,363.427188 52.9264867,363.185153 52.9264867,362.954119 C52.9264867,362.536058 52.8302227,362.217012 52.6376946,361.99698 C52.4451665,361.776948 52.222384,361.628426 51.9693471,361.551415 C51.8263263,361.496407 51.6750542,361.460651 51.515531,361.444149 C51.3560077,361.427647 51.2102364,361.419395 51.0782172,361.419395 C50.9571995,361.419395 50.8334315,361.433147 50.706913,361.460651 C50.5803946,361.488155 50.4621273,361.529411 50.3521113,361.584419 C50.055068,361.716439 49.7580247,361.950223 49.4609813,362.285772 C49.163938,362.621321 48.8916483,363.014628 48.6441122,363.465694 C48.3965761,363.91676 48.1985472,364.378827 48.0500256,364.851896 C47.9015039,365.324965 47.8272431,365.759528 47.8272431,366.155586 C47.8272431,367.585795 48.4543345,368.300899 49.7085174,368.300899 Z M50.5666426,364.323819 C50.4236217,364.323819 50.3273577,364.290814 50.2778505,364.224804 C50.2283432,364.158795 50.1870872,364.092785 50.1540824,364.026776 C50.1210776,363.960766 50.055068,363.927761 49.9560535,363.927761 C49.9340503,363.927761 49.9010455,363.938763 49.8570391,363.960766 L49.8570391,363.960766 L50.0715704,363.614215 C50.247596,363.328174 50.4511257,363.09714 50.6821594,362.921114 C50.9131931,362.745089 51.1222236,362.657076 51.3092509,362.657076 C51.3972637,362.657076 51.4632733,362.690081 51.5072798,362.75609 C51.639299,362.910113 51.666803,363.135646 51.5897918,363.432689 C51.5127806,363.729732 51.3422557,363.971768 51.0782172,364.158795 C50.9131931,364.268811 50.7426682,364.323819 50.5666426,364.323819 Z M54.4460283,367.718034 L54.5272202,367.706812 C54.6372362,367.706812 54.7857579,367.679308 54.9727851,367.6243 C55.1598124,367.569292 55.3303373,367.506033 55.4843597,367.434523 C55.6383822,367.363012 55.7153934,367.305254 55.7153934,367.261247 L55.7153934,367.261247 L55.8804175,367.261247 C55.9244239,367.261247 55.9656799,367.244745 56.0041856,367.21174 C56.0426912,367.178735 56.0784464,367.14023 56.1114512,367.096223 C56.1554576,367.052217 56.2049648,366.999959 56.2599729,366.93945 C56.3149809,366.878942 56.4029937,366.788178 56.5240114,366.667161 L56.5240114,366.667161 L57.0025812,366.353615 L57.0850932,366.518639 C57.1290996,366.672661 57.2308644,366.837686 57.3903877,367.013711 C57.549911,367.189737 57.7121846,367.338259 57.8772087,367.459276 C58.0422328,367.580294 58.2760169,367.640803 58.578561,367.640803 C58.8811051,367.640803 59.1313916,367.580294 59.3294205,367.459276 C59.4174333,367.382265 59.4806925,367.324507 59.5191982,367.286001 L59.5191982,367.286001 L59.5769566,367.228242 C59.5769566,367.173234 59.6594686,367.063218 59.8244927,366.898194 C59.8795007,366.810182 59.9235071,366.700165 59.9565119,366.568146 C59.9895167,366.436127 60.01152,366.31786 60.0225216,366.213344 C60.0335232,366.108829 60.01152,366.056572 59.9565119,366.056572 C59.9125055,366.056572 59.8739999,366.04282 59.8409951,366.015316 C59.8079903,365.987812 59.7914879,365.97406 59.7914879,365.97406 C59.7914879,365.886047 59.7144766,365.855792 59.5604542,365.883296 C59.4064317,365.9108 59.2689117,365.968559 59.147894,366.056572 C58.9058587,366.298607 58.7105802,366.397621 58.5620586,366.353615 C58.4135369,366.309609 58.2952697,366.166588 58.2072568,365.924552 C58.1632504,365.759528 58.1605,365.569751 58.1990056,365.355219 C58.2375112,365.140688 58.2952697,364.912405 58.3722809,364.670369 C58.4162873,364.593358 58.4410409,364.5356 58.4465417,364.497094 C58.4520425,364.458589 58.4547929,364.439336 58.4547929,364.439336 C58.4107865,364.439336 58.4327897,364.384328 58.5208026,364.274312 C58.564809,364.230305 58.5978138,364.167046 58.619817,364.084534 C58.6418202,364.002022 58.6088154,363.823246 58.5208026,363.548206 C58.4877977,363.339175 58.4492921,363.152148 58.4052857,362.987124 C58.3612793,362.8221 58.2952697,362.657076 58.2072568,362.492052 C58.0862392,362.327028 57.9459687,362.214261 57.7864455,362.153752 C57.6269222,362.093244 57.4701493,362.040986 57.3161269,361.99698 C57.1511028,361.908967 57.035586,361.851208 56.9695763,361.823704 C56.9035667,361.7962 56.8375571,361.7962 56.7715475,361.823704 C56.7055378,361.851208 56.590021,361.908967 56.4249969,361.99698 C55.9519279,362.20601 55.5173646,362.514055 55.1213068,362.921114 C54.725249,363.328174 54.3869497,363.770988 54.1064088,364.249558 C53.8258679,364.728128 53.6223382,365.190195 53.4958197,365.63576 C53.3693013,366.081325 53.3335461,366.447129 53.3885541,366.73317 C53.4215589,366.86519 53.504071,367.013711 53.6360902,367.178735 C53.7681095,367.343759 53.9166311,367.481279 54.0816552,367.591295 C54.2466792,367.701311 54.3952009,367.739817 54.5272202,367.706812 L54.4460283,367.718034 Z M54.8737707,366.32061 C54.8737707,366.32061 54.8600187,366.304108 54.8325147,366.271103 C54.8050107,366.238098 54.7912587,366.199592 54.7912587,366.155586 C54.7912587,366.023567 54.8517675,365.828288 54.9727851,365.569751 C55.0938028,365.311213 55.2478252,365.036173 55.4348525,364.74463 C55.6218798,364.453088 55.8171583,364.186299 56.020688,363.944264 C56.2242176,363.702228 56.4084945,363.531703 56.5735186,363.432689 C56.7825491,363.344676 56.9200691,363.306171 56.9860787,363.317172 C57.0520884,363.328174 57.1070964,363.394183 57.1511028,363.515201 C57.2721205,363.71323 57.2996245,363.897507 57.2336148,364.068032 C57.1676052,364.238556 57.008082,364.46684 56.7550451,364.752882 C56.6780338,364.829893 56.6092738,364.917906 56.548765,365.01692 C56.4882561,365.115934 56.4359985,365.187445 56.3919921,365.231451 C56.3149809,365.330466 56.1692096,365.467986 55.9546783,365.644011 C55.740147,365.820037 55.5283662,365.97681 55.3193357,366.11433 C55.1103052,366.25185 54.9617835,366.32061 54.8737707,366.32061 Z M62.0028104,368.994 C62.0578184,368.994 62.1733352,368.903237 62.3493609,368.72171 C62.5253866,368.540184 62.7014122,368.311901 62.8774379,368.03686 C63.1964844,367.189737 63.2734957,366.804681 63.1084716,366.881692 C63.0644652,366.881692 62.9929547,366.887193 62.8939403,366.898194 C62.7949259,366.909196 62.7179146,366.909196 62.6629066,366.898194 C62.6189002,366.909196 62.5913962,366.887193 62.5803946,366.832185 C62.569393,366.777177 62.5583914,366.650658 62.5473898,366.452629 C62.6023978,366.309609 62.6546554,366.155586 62.7041626,365.990562 C62.7536699,365.825538 62.7784235,365.699019 62.7784235,365.611007 C62.8224299,365.533995 62.8581851,365.462485 62.8856891,365.396475 C62.9131931,365.330466 62.9049419,365.275458 62.8609355,365.231451 C62.8609355,365.231451 62.8801883,365.201197 62.9186939,365.140688 C62.9571995,365.080179 63.0039564,365.033422 63.0589644,365.000418 C63.1469772,364.934408 63.1634796,364.835394 63.1084716,364.703374 C63.1084716,364.637365 63.1304748,364.60436 63.1744812,364.60436 C63.1744812,364.60436 63.2157372,364.527349 63.2982493,364.373326 C63.3807613,364.219304 63.4550221,364.048779 63.5210318,363.861752 C63.598043,363.707729 63.6723038,363.564708 63.7438142,363.432689 C63.8153247,363.30067 63.8510799,363.201655 63.8510799,363.135646 C63.8730831,363.113642 63.9115887,363.044882 63.9665967,362.929366 C64.0216048,362.813849 64.0876144,362.68458 64.1646256,362.541559 L64.1646256,362.541559 L64.4451665,361.980477 L65.3197941,361.897965 C65.572831,361.886964 65.7846119,361.851208 65.9551367,361.7907 C66.1256616,361.730191 66.238428,361.699936 66.2934361,361.699936 C66.3704473,361.666931 66.4309561,361.581669 66.4749625,361.444149 C66.518969,361.306629 66.5382218,361.163608 66.532721,361.015086 C66.5272202,360.866565 66.4969657,360.753798 66.4419577,360.676787 C66.3319417,360.621779 66.2356776,360.608027 66.1531656,360.635531 C66.0706536,360.663035 65.9248823,360.687789 65.7158518,360.709792 C65.4628149,360.720793 65.2812885,360.729045 65.1712724,360.734545 C65.0612564,360.740046 64.9952467,360.687789 64.9732435,360.577773 C65.01725,360.577773 65.0502548,360.555769 65.072258,360.511763 C65.0942612,360.467757 65.1492692,360.35224 65.237282,360.165212 C65.2702869,359.989187 65.3335461,359.815912 65.4270597,359.645387 C65.5205734,359.474862 65.600335,359.351094 65.6663446,359.274083 C65.6883478,359.197071 65.7213526,359.100807 65.7653591,358.98529 C65.8093655,358.869774 65.8423703,358.790012 65.8643735,358.746006 C65.9853911,358.547977 66.0348984,358.385703 66.0128952,358.259185 C65.9908919,358.132666 65.9358839,358.028151 65.8478711,357.945639 C65.7598583,357.863127 65.6663446,357.794367 65.5673302,357.739359 C65.4023061,357.629343 65.2290308,357.585336 65.0475044,357.607339 C64.8659779,357.629343 64.681701,357.777864 64.4946737,358.052904 C64.4726705,358.096911 64.4121617,358.209677 64.3131473,358.391204 C64.2141328,358.57273 64.098616,358.77351 63.9665967,358.993542 C63.9445935,359.19157 63.8840847,359.381348 63.7850703,359.562875 C63.6860558,359.744401 63.6365486,359.835164 63.6365486,359.835164 C63.6145454,359.967184 63.598043,360.057947 63.5870414,360.107454 C63.5760398,360.156961 63.5540366,360.203718 63.5210318,360.247725 C63.4880269,360.291731 63.4275181,360.385245 63.3395053,360.528265 L63.3395053,360.528265 L63.2899981,360.808806 L62.4483753,360.874816 C62.151332,360.907821 61.9340503,360.932574 61.7965303,360.949077 C61.6590102,360.965579 61.5489942,360.97383 61.4664821,360.97383 C61.3839701,360.97383 61.2712037,360.979331 61.1281828,360.990333 C60.9081507,361.001334 60.7486275,361.114101 60.649613,361.328632 C60.5505986,361.543163 60.567101,361.72744 60.6991202,361.881463 C60.8311395,361.958474 60.998914,362.007981 61.2024436,362.029984 C61.4059733,362.051988 61.678263,362.06849 62.0193128,362.079492 C62.2393448,362.06849 62.4483753,362.073991 62.6464042,362.095994 C62.8444331,362.117997 62.8884395,362.156503 62.7784235,362.211511 C62.7564203,362.255517 62.7096634,362.349031 62.638153,362.492052 C62.5666426,362.635073 62.4923817,362.794596 62.4153705,362.970622 C62.3383593,363.146647 62.2723497,363.30067 62.2173416,363.432689 C62.1623336,363.564708 62.1348296,363.641719 62.1348296,363.663723 C62.1018248,363.762737 62.0358152,363.900257 61.9368007,364.076283 C61.8377863,364.252309 61.7497735,364.420083 61.6727622,364.579606 C61.595751,364.739129 61.568247,364.840894 61.5902502,364.884901 C61.6452582,364.95091 61.6425078,365.008669 61.581999,365.058176 C61.5214902,365.107683 61.4637317,365.159941 61.4087237,365.214949 C61.3537157,365.269957 61.3537157,365.341467 61.4087237,365.42948 C61.4087237,365.42948 61.3894709,365.476237 61.3509653,365.569751 C61.3124597,365.663264 61.2822053,365.743026 61.2602021,365.809036 C61.1611876,366.062072 61.1116804,366.260101 61.1116804,366.403122 C61.1446852,366.436127 61.1529364,366.469132 61.136434,366.502137 L61.136434,366.502137 L61.1116804,366.551644 C61.0346692,366.59565 60.9879123,366.702916 60.9714099,366.873441 C60.9549075,367.043966 60.9136515,367.233743 60.8476419,367.442774 C60.7816323,367.882838 60.8228883,368.248641 60.9714099,368.540184 C61.1199316,368.831726 61.4637317,368.982998 62.0028104,368.994 Z M72.052776,367.904841 C72.1407888,367.882838 72.2673073,367.858084 72.4323313,367.83058 C72.5973554,367.803076 72.7238738,367.783824 72.8118867,367.772822 C73.0099156,367.706812 73.2492005,367.594046 73.5297414,367.434523 C73.8102823,367.274999 74.0935736,367.093473 74.3796153,366.889943 C74.665657,366.686413 74.9076923,366.480133 75.1057212,366.271103 C75.2927485,366.062072 75.4797757,365.83929 75.666803,365.602755 C75.8538303,365.366221 75.9528447,365.209448 75.9638463,365.132437 C75.9638463,365.08843 75.9913503,365.030672 76.0463584,364.959162 C76.1013664,364.887651 76.1563744,364.829893 76.2113824,364.785886 C76.3654049,364.532849 76.4589185,364.227555 76.4919233,363.870003 C76.5249282,363.512451 76.4809217,363.218158 76.3599041,362.987124 C76.2168832,362.745089 76.0546096,362.538809 75.8730831,362.368284 C75.6915566,362.197759 75.4797757,362.112496 75.2377404,362.112496 C75.0507132,362.112496 74.8609355,362.131749 74.6684074,362.170255 C74.4758793,362.20876 74.3631129,362.233514 74.3301081,362.244516 C74.2640985,362.255517 74.1595832,362.288522 74.0165624,362.34353 C73.8735415,362.398538 73.7277702,362.461797 73.5792486,362.533308 C73.4307269,362.604818 73.3124597,362.673578 73.2244468,362.739588 C73.081426,362.838602 72.9494067,362.937617 72.8283891,363.036631 C72.7073714,363.135646 72.5918546,363.240161 72.4818385,363.350177 L72.4818385,363.350177 L72.052776,363.828747 L72.135288,363.465694 C72.245304,363.179652 72.3525697,362.877108 72.4570849,362.558061 C72.5616002,362.239015 72.6991202,361.85946 72.8696451,361.419395 C73.04017,360.979331 73.2794549,360.429251 73.5874998,359.769155 C73.8295351,359.263081 74.0165624,358.869774 74.1485816,358.589233 C74.2806009,358.308692 74.3741145,358.105162 74.4291225,357.978644 C74.4841305,357.852125 74.5088842,357.761362 74.5033834,357.706354 C74.4978825,357.651346 74.4786297,357.596338 74.4456249,357.54133 C74.3906169,357.453317 74.2916025,357.365304 74.1485816,357.277291 C74.0055608,357.189278 73.8652903,357.117768 73.7277702,357.06276 C73.5902502,357.007752 73.4939861,356.985749 73.4389781,356.99675 C73.3619669,357.029755 73.2767045,357.142522 73.1831908,357.33505 C73.0896772,357.527578 72.9769107,357.717355 72.8448915,357.904383 C72.7678803,358.113413 72.6716162,358.352698 72.5560994,358.622237 C72.4405825,358.891777 72.3278161,359.150314 72.2178,359.397851 C72.107784,359.645387 72.0142704,359.859918 71.9372591,360.041444 C71.8602479,360.222971 71.8217423,360.330237 71.8217423,360.363241 C71.689723,360.737296 71.579707,361.03984 71.4916941,361.270874 C71.4036813,361.501907 71.3376717,361.633927 71.2936653,361.666931 C71.2936653,361.710938 71.2689117,361.782448 71.2194044,361.881463 C71.1698972,361.980477 71.134142,362.095994 71.1121388,362.228013 C71.1121388,362.360033 71.0901356,362.475549 71.0461292,362.574564 C71.0021228,362.673578 70.9801195,362.723085 70.9801195,362.723085 C70.9471147,362.745089 70.8948571,362.868857 70.8233467,363.09439 C70.7518363,363.319923 70.6775754,363.589462 70.6005642,363.903008 C70.523553,364.216553 70.4520425,364.516347 70.3860329,364.802389 C70.2760169,365.198446 70.2210088,365.478987 70.2210088,365.644011 C70.2210088,365.787032 70.2540137,365.888797 70.3200233,365.949306 C70.3860329,366.009815 70.4685449,366.078575 70.5675594,366.155586 C70.5895626,366.254601 70.6363194,366.334362 70.7078298,366.394871 C70.7793403,366.45538 70.8370987,366.496636 70.8811051,366.518639 C70.9691179,366.518639 71.0763836,366.485634 71.202902,366.419625 C71.3294205,366.353615 71.3926797,366.298607 71.3926797,366.254601 C71.3926797,366.254601 71.4696909,366.163837 71.6237134,365.982311 C71.7777359,365.800784 71.9207567,365.622008 72.052776,365.445983 C72.2948113,365.126936 72.5588498,364.840894 72.8448915,364.587857 C73.1309332,364.334821 73.5104886,364.05978 73.9835575,363.762737 C74.3246073,363.542705 74.5776442,363.432689 74.7426682,363.432689 C74.9076923,363.432689 75.0122076,363.476695 75.056214,363.564708 C75.111222,363.663723 75.1359756,363.759987 75.1304748,363.8535 C75.124974,363.947014 75.0644652,364.081784 74.9489483,364.257809 C74.8334315,364.433835 74.6326522,364.708875 74.3466105,365.08293 C73.9835575,365.412978 73.6205046,365.718272 73.2574517,365.998813 C72.8943987,366.279354 72.5616002,366.496636 72.2590561,366.650658 C71.9565119,366.804681 71.7007246,366.876191 71.4916941,366.86519 C71.4476877,366.854188 71.4064317,366.854188 71.3679261,366.86519 C71.3294205,366.876191 71.3101677,366.898194 71.3101677,366.931199 C71.2991661,366.964204 71.2716621,366.983457 71.2276556,366.988958 C71.1836492,366.994458 71.134142,366.997209 71.079134,366.997209 C71.0681324,367.041215 71.0708828,367.090722 71.0873852,367.14573 C71.1038876,367.200738 71.1561452,367.27775 71.244158,367.376764 C71.3101677,367.519785 71.4064317,367.638052 71.5329502,367.731566 C71.6594686,367.82508 71.8327439,367.882838 72.052776,367.904841 Z M78.3731977,367.888339 C78.6262346,367.866336 78.8847723,367.838832 79.1488108,367.805827 C79.4128493,367.772822 79.6603854,367.679308 79.8914191,367.525286 C80.2104656,367.338259 80.5020082,367.134729 80.7660467,366.914697 C81.0300852,366.694665 81.2996245,366.38662 81.5746646,365.990562 C82.0147288,365.363471 82.2842681,364.81064 82.3832825,364.33207 C82.4822969,363.8535 82.5153018,363.449191 82.4822969,363.119143 C82.4492921,362.8221 82.3805321,362.580065 82.2760169,362.393037 C82.1715016,362.20601 81.9927255,362.057488 81.7396886,361.947472 C81.5746646,361.771447 81.3628837,361.683434 81.104346,361.683434 C80.8458083,361.683434 80.5955218,361.710938 80.3534865,361.765946 C80.1114512,361.820954 79.8721663,361.919968 79.6356318,362.062989 C79.3990973,362.20601 79.14331,362.393037 78.8682699,362.624071 C78.7362506,362.734087 78.5904794,362.879858 78.4309561,363.061385 C78.2714329,363.242911 78.1256616,363.424438 77.9936423,363.605964 C77.8616231,363.787491 77.7626087,363.933262 77.696599,364.043278 C77.531575,364.307317 77.4023061,364.585107 77.3087925,364.87665 C77.2152788,365.168192 77.1795236,365.35797 77.2015268,365.445983 C77.22353,365.567 77.2015268,365.627509 77.1355172,365.627509 C77.113514,365.671515 77.0915108,365.70177 77.0695076,365.718272 C77.0475044,365.734775 77.0640068,365.77053 77.1190148,365.825538 C77.1190148,365.825538 77.1217652,365.866794 77.127266,365.949306 C77.1327668,366.031818 77.1190148,366.11708 77.08601,366.205093 C77.0530052,366.392121 77.099762,366.612153 77.2262804,366.86519 C77.3527989,367.118226 77.5205734,367.354761 77.7296038,367.574793 C77.8506215,367.673807 77.9523863,367.750819 78.0348984,367.805827 C78.1174104,367.860835 78.2301768,367.888339 78.3731977,367.888339 Z M79.0817825,366.438979 L79.0002892,366.419625 C78.7692555,366.331612 78.6757418,366.084076 78.7197482,365.677016 C78.8297643,365.159941 79.0250428,364.722627 79.3055837,364.365075 C79.5861246,364.007523 79.8914191,363.691227 80.2214672,363.416187 C80.3754897,363.306171 80.5020082,363.23191 80.6010226,363.193404 C80.700037,363.154898 80.7990515,363.174151 80.8980659,363.251163 C80.9640755,363.273166 81.0025812,363.358428 81.0135828,363.50695 C81.0245844,363.655471 81.021834,363.806744 81.0053316,363.960766 C80.9888291,364.114788 80.9585747,364.224804 80.9145683,364.290814 C80.7935507,364.631864 80.6807842,364.928907 80.576269,365.181944 C80.4717537,365.434981 80.2984785,365.666015 80.0564432,365.875045 C79.5833742,366.326111 79.2313228,366.507637 79.0002892,366.419625 L79.0817825,366.438979 Z M83.6539678,367.607798 C83.7859871,367.673807 83.9042543,367.673807 84.0087696,367.607798 C84.1132848,367.541788 84.1985472,367.442774 84.2645569,367.310755 C84.3305665,367.178735 84.3690721,367.057718 84.3800737,366.947702 C84.4680865,366.771676 84.525845,366.565396 84.553349,366.328861 C84.580853,366.092327 84.6276098,365.853042 84.6936194,365.611007 C84.6936194,365.567 84.718373,365.459735 84.7678803,365.28921 C84.8173875,365.118685 84.8751459,364.934408 84.9411555,364.736379 C84.9741603,364.549352 85.0071652,364.362325 85.04017,364.175297 C85.0731748,363.98827 85.1281828,363.834248 85.205194,363.71323 C85.3482149,363.460193 85.4582309,363.193404 85.5352422,362.912863 C85.6122534,362.632322 85.6892646,362.360033 85.7662759,362.095994 C85.8432871,361.820954 85.9340503,361.562416 86.0385656,361.320381 C86.1430808,361.078346 86.233844,360.83081 86.3108553,360.577773 C86.3328585,360.500761 86.3741145,360.401747 86.4346233,360.280729 C86.4951321,360.159712 86.5473898,360.033193 86.5913962,359.901174 C86.6464042,359.780156 86.6904106,359.645387 86.7234154,359.496865 C86.7564203,359.348343 86.7949259,359.202572 86.8389323,359.059551 C86.9159435,358.91653 86.9737019,358.803764 87.0122076,358.721252 C87.0507132,358.63874 87.0919692,358.575481 87.1359756,358.531474 C87.179982,358.465465 87.2102364,358.393954 87.2267388,358.316943 C87.2432412,358.239932 87.2514925,358.179423 87.2514925,358.135416 C87.2624941,358.069407 87.2322396,357.978644 87.1607292,357.863127 C87.0892188,357.74761 87.014958,357.643095 86.9379467,357.549581 C86.8609355,357.456067 86.8059275,357.414811 86.7729227,357.425813 C86.7289162,357.370805 86.6491546,357.346051 86.5336378,357.351552 C86.4181209,357.357053 86.3081049,357.376306 86.2035896,357.409311 C86.0990744,357.442315 86.041316,357.480821 86.0303144,357.524827 C85.9863079,357.590837 85.9450519,357.659597 85.9065463,357.731107 C85.8680407,357.802618 85.8157831,357.88788 85.7497735,357.986895 C85.595751,358.239932 85.4829845,358.523223 85.4114741,358.836769 C85.3399637,359.150314 85.2547013,359.444607 85.1556868,359.719647 C84.9796611,360.203718 84.8338899,360.602526 84.718373,360.916072 C84.6028562,361.229618 84.4735873,361.58992 84.3305665,361.99698 C84.231552,362.437044 84.1160352,362.863356 83.9840159,363.275916 C83.8519967,363.688476 83.7254782,364.103787 83.6044606,364.521848 C83.4944445,364.697873 83.4201837,364.887651 83.3816781,365.091181 C83.3431725,365.294711 83.3129181,365.49549 83.2909149,365.693519 C83.2469084,365.869544 83.202902,366.081325 83.1588956,366.328861 C83.1148892,366.576397 83.092886,366.782678 83.092886,366.947702 C83.092886,367.068719 83.1588956,367.192487 83.2909149,367.319006 C83.4229341,367.445524 83.5439518,367.541788 83.6539678,367.607798 Z M89.9991432,368.276145 C90.1476648,368.270645 90.2824345,368.245891 90.4034521,368.201884 C90.4804633,368.146876 90.5492234,368.078116 90.6097322,367.995604 C90.670241,367.913092 90.7004954,367.849833 90.7004954,367.805827 C90.6674906,367.48678 90.6482378,367.21449 90.642737,366.988958 C90.6372362,366.763425 90.670241,366.496636 90.7417514,366.188591 C90.8132619,365.880546 90.9425307,365.451483 91.129558,364.901403 C91.1625628,364.81339 91.225822,364.656617 91.3193357,364.431085 C91.4128493,364.205552 91.4926109,363.949764 91.5586206,363.663723 C91.5916254,363.5097 91.657635,363.328174 91.7566495,363.119143 C91.8556639,362.910113 91.9656799,362.635073 92.0866976,362.294023 C92.24072,361.831956 92.4029937,361.394642 92.5735186,360.982082 C92.7440434,360.569521 92.9173187,360.159712 93.0933444,359.752652 C93.2913733,359.290585 93.4343941,358.891777 93.522407,358.556228 C93.6104198,358.220679 93.6544262,358.003397 93.6544262,357.904383 C93.6104198,357.772364 93.508655,357.634843 93.3491317,357.491823 C93.1896084,357.348802 93.049338,357.293794 92.9283203,357.326799 L92.9283203,357.326799 L92.4662529,357.47532 C92.4222465,357.519327 92.3864913,357.599088 92.3589873,357.714605 C92.3314833,357.830122 92.2627233,357.992396 92.1527072,358.201426 C91.9106719,358.784511 91.6796382,359.359345 91.4596061,359.925928 C91.239574,360.49251 91.0305436,361.050842 90.8325147,361.600922 C90.7335002,361.853959 90.6482378,362.007981 90.5767274,362.062989 C90.505217,362.117997 90.3704473,362.123498 90.1724184,362.079492 C89.8533719,361.85946 89.4353109,361.826455 88.9182355,361.980477 C88.6762002,362.057488 88.4396657,362.162004 88.208632,362.294023 C87.9775983,362.426042 87.8400783,362.514055 87.7960719,362.558061 C87.5100302,362.855105 87.2377404,363.182402 86.9792027,363.539955 C86.720665,363.897507 86.4868809,364.323819 86.2778505,364.818891 C86.06882,365.434981 86.0055608,365.996063 86.0880728,366.502137 C86.1705848,367.00821 86.3658633,367.354761 86.6739082,367.541788 C86.8609355,367.684809 87.0342108,367.75632 87.193734,367.75632 C87.3532573,367.75632 87.598043,367.717814 87.9280911,367.640803 C88.2801425,367.442774 88.5689346,367.274999 88.7944675,367.137479 C89.0200004,366.999959 89.1107636,366.909196 89.0667572,366.86519 C88.9897459,366.821183 88.9374883,366.738671 88.9099843,366.617653 C88.8824803,366.496636 88.8687283,366.414124 88.8687283,366.370117 C88.8687283,366.260101 88.8549763,366.166588 88.8274723,366.089576 C88.7999683,366.012565 88.7532115,365.97406 88.6872018,365.97406 C88.5771858,366.018066 88.4644193,366.064823 88.3489025,366.11433 C88.2333856,366.163837 88.1371216,366.210594 88.0601104,366.254601 C87.8950863,366.342613 87.7520655,366.400372 87.6310478,366.427876 C87.5100302,366.45538 87.4330189,366.430626 87.4000141,366.353615 C87.3560077,366.254601 87.3615085,366.075824 87.4165165,365.817287 C87.4715245,365.558749 87.6310478,365.22595 87.8950863,364.818891 C88.2471376,364.268811 88.5606834,363.867252 88.8357235,363.614215 C89.1107636,363.361179 89.3748021,363.240161 89.627839,363.251163 C89.8478711,363.262164 89.9798903,363.30067 90.0238968,363.366679 C90.0679032,363.432689 90.0514008,363.597713 89.9743895,363.861752 C89.9303831,363.960766 89.8726247,364.150544 89.8011143,364.431085 C89.7296038,364.711625 89.6525926,365.025171 89.5700806,365.371722 C89.4875685,365.718272 89.4133077,366.04832 89.3472981,366.361866 C89.2812885,366.675412 89.237282,366.914697 89.2152788,367.079721 C89.2152788,367.354761 89.2345316,367.558291 89.2730373,367.69031 C89.3115429,367.822329 89.3858037,367.948848 89.4958197,368.069865 C89.682847,368.212886 89.8506215,368.281646 89.9991432,368.276145 Z M104.884314,368.317401 C105.010832,368.328403 105.090594,368.322902 105.123599,368.300899 C105.178607,368.256893 105.233615,368.119372 105.288623,367.888339 C105.343631,367.657305 105.415141,367.420771 105.503154,367.178735 C105.536159,367.013711 105.585666,366.80193 105.651676,366.543393 C105.717685,366.284855 105.791946,366.020816 105.874458,365.751277 C105.95697,365.481738 106.036732,365.258955 106.113743,365.08293 C106.190754,364.785886 106.259514,364.552102 106.320023,364.381577 C106.380532,364.211052 106.446542,364.032276 106.518052,363.845249 C106.589563,363.658222 106.669324,363.394183 106.757337,363.053134 C106.823347,362.8221 106.908609,362.544309 107.013124,362.219762 C107.11764,361.895215 107.227656,361.565167 107.343172,361.229618 C107.458689,360.894069 107.565955,360.597025 107.664969,360.338488 C107.763984,360.07995 107.835494,359.901174 107.879501,359.80216 C108.01152,359.527119 108.044525,359.351094 107.978515,359.274083 C107.967514,359.208073 107.901504,359.125561 107.780486,359.026546 C107.659469,358.927532 107.535701,358.839519 107.409182,358.762508 C107.282664,358.685497 107.202902,358.646991 107.169897,358.646991 C107.125891,358.635989 106.944364,358.7075 106.625318,358.861522 C106.306271,359.015545 105.943218,359.219074 105.536159,359.472111 C105.151103,359.758153 104.793551,360.016691 104.463503,360.247725 C104.133454,360.478758 103.940926,360.62728 103.885918,360.693289 C103.786904,360.759299 103.69339,360.83081 103.605377,360.907821 C103.517365,360.984832 103.456856,361.023338 103.423851,361.023338 C103.368843,361.056342 103.272579,361.122352 103.135059,361.221366 C102.997539,361.320381 102.846267,361.430397 102.681243,361.551415 C102.516219,361.672432 102.370447,361.776948 102.243929,361.86496 C102.11741,361.952973 102.04315,362.00248 102.021146,362.013482 C101.955137,362.123498 101.985391,362.296773 102.11191,362.533308 C102.238428,362.769842 102.373198,362.948618 102.516219,363.069636 C102.615233,363.124644 102.716998,363.119143 102.821513,363.053134 C102.926028,362.987124 103.126808,362.838602 103.423851,362.607569 C103.62188,362.486551 103.839161,362.329778 104.075696,362.13725 C104.31223,361.944722 104.524011,361.79345 104.711039,361.683434 C105.06309,361.419395 105.379386,361.204864 105.659927,361.03984 C105.940468,360.874816 106.080738,360.792304 106.080738,360.792304 C106.080738,360.792304 106.036732,360.880317 105.948719,361.056342 C105.860706,361.232368 105.767193,361.479904 105.668178,361.798951 C105.558162,362.14 105.448146,362.492052 105.33813,362.855105 C105.228114,363.218158 105.151103,363.476695 105.107096,363.630718 C104.975077,364.070782 104.85681,364.444837 104.752295,364.752882 C104.647779,365.060926 104.568018,365.22595 104.51301,365.247954 C104.51301,365.247954 104.485506,365.335967 104.430498,365.511992 C104.37549,365.688018 104.314981,365.897048 104.248971,366.139084 C104.182962,366.381119 104.127954,366.612153 104.083947,366.832185 C104.017938,367.173234 103.982182,367.420771 103.976682,367.574793 C103.971181,367.728815 103.990434,367.836081 104.03444,367.89659 C104.078446,367.957099 104.122453,368.009356 104.166459,368.053363 C104.24347,368.119372 104.350736,368.177131 104.488256,368.226638 C104.625776,368.276145 104.757795,368.3064 104.884314,368.317401 Z M109.232698,367.871836 C109.287706,367.882838 109.411474,367.871836 109.604002,367.838832 C109.79653,367.805827 110.013812,367.75632 110.255847,367.69031 C110.497883,367.6243 110.723415,367.558291 110.932446,367.492281 C111.141476,367.426271 111.295499,367.376764 111.394513,367.343759 C111.669553,367.255747 111.906088,367.192487 112.104117,367.153982 C112.302146,367.115476 112.500175,367.107225 112.698203,367.129228 C112.830223,367.118226 112.967743,367.112726 113.110764,367.112726 C113.253784,367.112726 113.347298,367.101724 113.391305,367.079721 C113.578332,367.046716 113.814866,367.030214 114.100908,367.030214 C114.540972,367.107225 114.846267,367.063218 115.016792,366.898194 C115.187316,366.73317 115.184566,366.579148 115.00854,366.436127 C114.942531,366.359116 114.895774,366.295857 114.86827,366.246349 C114.840766,366.196842 114.827014,366.172088 114.827014,366.172088 C114.827014,366.062072 114.694995,365.968559 114.430956,365.891548 C114.221926,365.825538 113.988142,365.776031 113.729604,365.743026 C113.471066,365.710021 113.330796,365.732024 113.308792,365.809036 C113.308792,365.809036 113.300541,365.817287 113.284039,365.833789 C113.267536,365.850292 113.248284,365.831039 113.22628,365.776031 C113.182274,365.732024 113.025501,365.723773 112.755962,365.751277 C112.486423,365.778781 112.189379,365.822788 111.864832,365.883296 C111.540285,365.943805 111.267995,366.012565 111.047963,366.089576 C110.948948,366.122581 110.836182,366.163837 110.709663,366.213344 C110.583145,366.262852 110.525387,366.265602 110.536388,366.221596 C110.514385,366.221596 110.572143,366.141834 110.709663,365.982311 C110.847183,365.822788 111.017708,365.63576 111.221238,365.421229 C111.424768,365.206698 111.617296,365.011419 111.798822,364.835394 C111.980349,364.659368 112.109618,364.554853 112.186629,364.521848 C112.241637,364.46684 112.365405,364.340321 112.557933,364.142292 C112.750461,363.944264 112.964992,363.71598 113.201527,363.457443 C113.438061,363.198905 113.649842,362.965121 113.836869,362.75609 C114.023897,362.54706 114.144914,362.40954 114.199922,362.34353 C114.474963,361.936471 114.634486,361.545914 114.678492,361.171859 C114.722499,360.797805 114.656489,360.478758 114.480463,360.21472 C114.414454,360.060697 114.296186,359.906675 114.125662,359.752652 C113.955137,359.59863 113.784612,359.472111 113.614087,359.373097 C113.443562,359.274083 113.314293,359.230076 113.22628,359.241078 C113.22628,359.241078 113.176773,359.227326 113.077759,359.199822 C112.978744,359.172318 112.868728,359.158566 112.747711,359.158566 C112.439666,359.059551 112.079363,359.084305 111.666803,359.232826 C111.254243,359.381348 110.82243,359.59863 110.371364,359.884672 L110.371364,359.884672 L109.859789,360.165212 L110.024814,360.874816 C110.090823,360.940826 110.151332,361.012336 110.20634,361.089347 C110.261348,361.166358 110.310855,361.215866 110.354862,361.237869 C110.442875,361.248871 110.55014,361.226867 110.676659,361.171859 C110.803177,361.116851 110.943448,361.072845 111.09747,361.03984 C111.482526,360.7648 111.790571,360.599776 112.021605,360.544768 C112.252638,360.48976 112.500175,360.506262 112.764213,360.594275 C113.006248,360.671286 113.15477,360.723544 113.209778,360.751048 C113.264786,360.778552 113.275788,360.852813 113.242783,360.97383 C113.22078,361.050842 113.171272,361.169109 113.094261,361.328632 C113.01725,361.488155 112.934738,361.633927 112.846725,361.765946 C112.736709,361.875962 112.640445,361.988728 112.557933,362.104245 C112.475421,362.219762 112.423163,362.321527 112.40116,362.40954 C112.33515,362.475549 112.255389,362.54706 112.161875,362.624071 C112.068362,362.701082 111.994101,362.75609 111.939093,362.789095 C111.884085,362.8221 111.837328,362.857855 111.798822,362.896361 C111.760317,362.934866 111.741064,362.954119 111.741064,362.954119 C111.730062,363.03113 111.636549,363.1659 111.460523,363.358428 C111.284497,363.550956 111.080968,363.773739 110.849934,364.026776 C110.629902,364.257809 110.404369,364.483342 110.173335,364.703374 C109.942302,364.923406 109.782778,365.08843 109.694765,365.198446 C109.639757,365.264456 109.565497,365.344218 109.471983,365.437731 C109.378469,365.531245 109.304208,365.622008 109.2492,365.710021 C109.205194,365.743026 109.158437,365.77328 109.10893,365.800784 C109.059423,365.828288 109.029168,365.864044 109.018167,365.90805 C109.018167,365.930053 108.990663,365.998813 108.935655,366.11433 C108.880647,366.229847 108.825639,366.337113 108.770631,366.436127 C108.715623,366.535141 108.671616,366.573647 108.638611,366.551644 C108.594605,366.551644 108.553349,366.623154 108.514843,366.766175 C108.476338,366.909196 108.473587,367.00821 108.506592,367.063218 C108.539597,367.129228 108.605607,367.225492 108.704621,367.352011 C108.803635,367.478529 108.9054,367.591295 109.009916,367.69031 C109.114431,367.789324 109.188692,367.849833 109.232698,367.871836 Z M118.011978,367.987353 C118.36403,367.96535 118.762838,367.918593 119.208403,367.847083 C119.653968,367.775572 120.030773,367.651804 120.338818,367.475779 C120.723874,367.244745 121.062173,366.950452 121.353716,366.5929 C121.645258,366.235348 121.848788,365.855792 121.964305,365.454234 C122.079822,365.052675 122.060569,364.681371 121.906546,364.340321 C121.79653,364.186299 121.606753,363.974518 121.337213,363.704979 C121.067674,363.435439 120.773381,363.245662 120.454335,363.135646 C120.399327,363.080638 120.308563,363.039382 120.182045,363.011878 C120.055526,362.984374 119.94001,362.96237 119.835494,362.945868 C119.730979,362.929366 119.678721,362.921114 119.678721,362.921114 C119.678721,362.899111 119.750232,362.860606 119.893253,362.805598 C120.036274,362.75059 120.190296,362.690081 120.35532,362.624071 C120.520344,362.558061 120.641362,362.497553 120.718373,362.442545 C120.97141,362.321527 121.172189,362.20326 121.320711,362.087743 C121.469233,361.972226 121.681013,361.826455 121.956054,361.650429 C122.2751,361.364387 122.486881,361.100349 122.591396,360.858314 C122.695911,360.616278 122.720665,360.374243 122.665657,360.132208 C122.577644,359.692143 122.379615,359.370347 122.07157,359.166817 C121.763525,358.963287 121.356466,358.834018 120.850392,358.77901 C120.718373,358.768009 120.501091,358.77626 120.198547,358.803764 C119.896003,358.831268 119.593459,358.864273 119.290915,358.902778 C118.988371,358.941284 118.760087,358.98254 118.606065,359.026546 C118.485047,359.081554 118.336526,359.161316 118.1605,359.265831 C117.984474,359.370347 117.827701,359.469361 117.690181,359.562875 C117.552661,359.656388 117.4729,359.725148 117.450897,359.769155 C117.428893,359.824163 117.439895,359.925928 117.483901,360.074449 C117.527908,360.222971 117.585666,360.363241 117.657177,360.495261 C117.728687,360.62728 117.791946,360.704291 117.846954,360.726294 C117.879959,360.726294 117.965222,360.709792 118.102742,360.676787 C118.240262,360.643782 118.377782,360.602526 118.515302,360.553019 C118.652822,360.503512 118.727083,360.467757 118.738084,360.445753 C118.749086,360.412749 118.839849,360.374243 119.010374,360.330237 C119.180899,360.28623 119.359675,360.247725 119.546702,360.21472 C119.733729,360.181715 119.854747,360.176214 119.909755,360.198217 L119.909755,360.198217 L119.975765,360.198217 C119.975765,360.154211 120.058277,360.123956 120.223301,360.107454 C120.388325,360.090952 120.608357,360.093702 120.883397,360.115705 C121.169439,360.170713 121.31796,360.236723 121.328962,360.313734 C121.339964,360.390745 121.279455,360.506262 121.147436,360.660285 C121.048421,360.748298 120.930154,360.83356 120.792634,360.916072 C120.655114,360.998584 120.462586,361.1086 120.21505,361.24612 C119.967514,361.38364 119.612712,361.578919 119.150644,361.831956 C118.644571,362.106996 118.259514,362.324277 117.995476,362.483801 C117.731437,362.643324 117.555412,362.761591 117.467399,362.838602 C117.379386,362.915614 117.34088,362.981623 117.351882,363.036631 C117.373885,363.080638 117.412391,363.190654 117.467399,363.366679 C117.522407,363.542705 117.582916,363.669223 117.648925,363.746235 C117.791946,363.823246 117.934967,363.886505 118.077988,363.936012 C118.221009,363.98552 118.342026,364.004772 118.441041,363.993771 C118.661073,363.971768 118.944364,364.018524 119.290915,364.134041 C119.637465,364.249558 119.915256,364.384328 120.124286,364.53835 C120.443333,364.747381 120.597355,364.953661 120.586354,365.15719 C120.575352,365.36072 120.42133,365.605506 120.124286,365.891548 C119.816241,366.199592 119.370676,366.411373 118.787591,366.52689 C118.204506,366.642407 117.637924,366.645157 117.087844,366.535141 C116.845808,366.502137 116.669783,366.535141 116.559767,366.634156 C116.449751,366.73317 116.389242,366.87069 116.37824,367.046716 C116.367238,367.178735 116.438749,367.316255 116.592771,367.459276 C116.746794,367.602297 116.953074,367.726065 117.211612,367.83058 C117.470149,367.935096 117.736938,367.987353 118.011978,367.987353 Z M126.873771,368.201884 C127.060798,368.201884 127.247825,368.119372 127.434853,367.954348 C127.62188,367.789324 127.715393,367.596796 127.715393,367.376764 C127.682389,367.299753 127.663136,367.203489 127.657635,367.087972 C127.652134,366.972455 127.69339,366.760674 127.781403,366.452629 C127.869416,366.144584 128.03444,365.666015 128.276475,365.01692 C128.463503,364.499845 128.689035,363.936012 128.953074,363.325423 C129.217112,362.714834 129.508655,362.090493 129.827701,361.4524 C130.047734,361.034339 130.223759,360.723544 130.355778,360.520014 C130.487798,360.316485 130.553807,360.110204 130.553807,359.901174 C130.553807,359.879171 130.526303,359.837915 130.471295,359.777406 C130.416287,359.716897 130.344777,359.648137 130.256764,359.571126 C130.146748,359.472111 130.031231,359.378598 129.910214,359.290585 C129.789196,359.202572 129.712185,359.158566 129.67918,359.158566 C129.657177,359.158566 129.552661,359.276833 129.365634,359.513367 C129.178607,359.749902 128.947573,360.121206 128.672533,360.62728 C128.595522,360.781302 128.510259,360.949077 128.416746,361.130603 C128.323232,361.31213 128.232469,361.512909 128.144456,361.732941 C128.001435,362.051988 127.89692,362.305025 127.83091,362.492052 C127.764901,362.679079 127.665886,362.827601 127.533867,362.937617 C127.478859,362.981623 127.4156,363.017378 127.344089,363.044882 C127.272579,363.072386 127.192817,363.102641 127.104804,363.135646 C126.950782,363.190654 126.763755,363.240161 126.543723,363.284167 C126.444708,363.306171 126.337442,363.328174 126.221926,363.350177 C126.106409,363.37218 125.97714,363.394183 125.834119,363.416187 C125.647092,363.416187 125.553578,363.361179 125.553578,363.251163 C125.553578,363.16315 125.619588,362.992625 125.751607,362.739588 C125.883626,362.486551 126.0459,362.197759 126.238428,361.873212 C126.430956,361.548664 126.626235,361.240619 126.824263,360.949077 C127.022292,360.657534 127.187316,360.434752 127.319336,360.280729 C127.473358,360.104704 127.591625,359.961683 127.674137,359.851667 C127.756649,359.741651 127.819909,359.653638 127.863915,359.587628 C127.89692,359.53262 127.918923,359.494115 127.929925,359.472111 L127.929925,359.472111 L127.946427,359.439107 C127.946427,359.3951 127.918923,359.312588 127.863915,359.19157 C127.808907,359.070553 127.740147,358.952286 127.657635,358.836769 C127.575123,358.721252 127.489861,358.663493 127.401848,358.663493 C127.324836,358.663493 127.201068,358.696498 127.030544,358.762508 C126.860019,358.828518 126.741751,358.878025 126.675742,358.91103 C126.598731,358.977039 126.477713,359.11731 126.312689,359.331841 C126.147665,359.546372 125.963388,359.788408 125.759858,360.057947 C125.556329,360.327486 125.3638,360.594275 125.182274,360.858314 C125.000748,361.122352 124.860477,361.336883 124.761463,361.501907 C124.684451,361.611923 124.640445,361.688935 124.629443,361.732941 C124.629443,361.787949 124.615691,361.842957 124.588187,361.897965 C124.560683,361.952973 124.513927,362.040986 124.447917,362.162004 C124.381907,362.283021 124.293894,362.48105 124.183878,362.75609 C124.040858,362.899111 123.9886,363.075137 124.027106,363.284167 C124.065611,363.493198 124.139872,363.685726 124.249888,363.861752 C124.359904,364.037777 124.447917,364.158795 124.513927,364.224804 C124.711955,364.554853 124.95124,364.719877 125.231781,364.719877 C125.512322,364.719877 125.922132,364.664869 126.461211,364.554853 C126.615233,364.521848 126.744502,364.494344 126.849017,364.472341 C126.953532,364.450337 127.011291,364.439336 127.022292,364.439336 C127.022292,364.472341 126.997539,364.554853 126.948032,364.686872 C126.898524,364.818891 126.840766,364.983915 126.774756,365.181944 C126.675742,365.478987 126.573977,365.817287 126.469462,366.196842 C126.364946,366.576397 126.307188,366.9367 126.296186,367.27775 C126.296186,367.585795 126.381449,367.816828 126.551974,367.970851 C126.722499,368.124873 126.829764,368.201884 126.873771,368.201884 Z M132.608357,367.9626 C132.998914,367.946097 133.414225,367.860835 133.854289,367.706812 C134.294353,367.55279 134.712414,367.341009 135.108472,367.07147 C135.504529,366.80193 135.829077,366.491135 136.082114,366.139084 C136.236136,365.90805 136.32965,365.726523 136.362654,365.594504 C136.395659,365.462485 136.428664,365.275458 136.461669,365.033422 C136.516677,364.659368 136.530429,364.266061 136.502925,363.8535 C136.475421,363.44094 136.387408,363.061385 136.238886,362.714834 C136.090365,362.368284 135.862081,362.106996 135.554037,361.93097 C135.278996,361.765946 135.072716,361.664181 134.935196,361.625675 C134.797676,361.58717 134.591396,361.545914 134.316356,361.501907 C134.107326,361.479904 133.972556,361.455151 133.912047,361.427647 C133.851538,361.400143 133.826785,361.347885 133.837786,361.270874 C133.848788,361.226867 133.854289,361.188362 133.854289,361.155357 L133.854289,361.155357 L133.854289,361.10585 C133.898295,361.149856 133.92855,361.158107 133.945052,361.130603 C133.961554,361.103099 133.99731,361.056342 134.052318,360.990333 C134.052318,360.946326 134.06882,360.90507 134.101825,360.866565 C134.13483,360.828059 134.151332,360.808806 134.151332,360.808806 C134.195338,360.819808 134.225593,360.808806 134.242095,360.775802 C134.258598,360.742797 134.288852,360.709792 134.332858,360.676787 C134.387867,360.555769 134.486881,360.465006 134.629902,360.404497 C134.772923,360.343989 134.95995,360.269728 135.190984,360.181715 C135.488027,360.093702 135.768568,360.038694 136.032606,360.016691 C136.296645,359.994688 136.505675,360.033193 136.659698,360.132208 C136.791717,360.198217 136.901733,360.187216 136.989746,360.099203 C137.077759,360.01119 137.132767,359.884672 137.15477,359.719647 C137.176773,359.554623 137.143768,359.3951 137.055756,359.241078 C136.923736,359.065052 136.777965,358.941284 136.618442,358.869774 C136.458919,358.798263 136.219634,358.757007 135.900587,358.746006 C135.449521,358.724002 134.992955,358.803764 134.530887,358.98529 C134.06882,359.166817 133.672762,359.439107 133.342714,359.80216 C133.210695,359.934179 133.067674,360.104704 132.913652,360.313734 C132.759629,360.522765 132.608357,360.737296 132.459835,360.957328 C132.311314,361.17736 132.187546,361.38089 132.088531,361.567917 C131.989517,361.754944 131.929008,361.886964 131.907005,361.963975 C131.907005,362.018983 131.959262,362.101495 132.063778,362.211511 C132.168293,362.321527 132.28381,362.426042 132.410328,362.525057 C132.536847,362.624071 132.62761,362.679079 132.682618,362.690081 C132.682618,362.690081 132.69637,362.698332 132.723874,362.714834 C132.751378,362.731337 132.853143,362.734087 133.029168,362.723085 C133.194192,362.701082 133.397722,362.679079 133.639757,362.657076 C133.881793,362.635073 134.041316,362.635073 134.118327,362.657076 C134.305354,362.734087 134.497883,362.857855 134.695911,363.02838 C134.89394,363.198905 135.020459,363.366679 135.075467,363.531703 C135.108472,363.619716 135.133225,363.702228 135.149728,363.77924 C135.16623,363.856251 135.174481,363.894756 135.174481,363.894756 C135.229489,363.894756 135.245992,363.993771 135.223988,364.1918 C135.201985,364.389829 135.157979,364.615361 135.091969,364.868398 C135.02596,365.121435 134.954449,365.324965 134.877438,365.478987 C134.613399,365.820037 134.305354,366.089576 133.953303,366.287605 C133.601252,366.485634 133.194192,366.590149 132.732125,366.601151 C132.49009,366.612153 132.294811,366.590149 132.14629,366.535141 C131.997768,366.480133 131.912506,366.408623 131.890502,366.32061 C131.879501,366.232597 131.810741,366.18584 131.684222,366.18034 C131.557704,366.174839 131.431185,366.194092 131.304667,366.238098 C131.178148,366.282105 131.092886,366.348114 131.04888,366.436127 C131.037878,366.480133 131.040628,366.573647 131.057131,366.716668 C131.073633,366.859689 131.095636,366.991708 131.12314,367.112726 C131.150644,367.233743 131.180899,367.288751 131.213904,367.27775 C131.268912,367.27775 131.318419,367.310755 131.362425,367.376764 C131.362425,367.475779 131.46144,367.596796 131.659469,367.739817 C131.901504,367.904841 132.2178,367.979102 132.608357,367.9626 Z M139.869416,367.847083 C140.193963,367.874587 140.537763,367.838832 140.900816,367.739817 C141.076842,367.695811 141.285872,367.618799 141.527908,367.508783 C141.769943,367.398767 142.009228,367.274999 142.245762,367.137479 C142.482297,366.999959 142.680326,366.873441 142.839849,366.757924 C142.999372,366.642407 143.084635,366.551644 143.095636,366.485634 C143.095636,366.485634 143.114889,366.471882 143.153395,366.444378 C143.1919,366.416874 143.233156,366.392121 143.277163,366.370117 C143.376177,366.304108 143.494445,366.18309 143.631965,366.007064 C143.769485,365.831039 143.909755,365.63576 144.052776,365.421229 C144.195797,365.206698 144.311314,365.027922 144.399327,364.884901 C144.520344,364.74188 144.597355,364.60436 144.63036,364.472341 C144.663365,364.340321 144.679867,364.186299 144.679867,364.010273 C144.690869,363.724231 144.655114,363.460193 144.572602,363.218158 C144.49009,362.976122 144.338818,362.75059 144.118786,362.541559 C143.986766,362.376535 143.87675,362.27202 143.788737,362.228013 C143.700725,362.184007 143.535701,362.14 143.293665,362.095994 C143.183649,362.073991 143.043379,362.046487 142.872854,362.013482 C142.702329,361.980477 142.567559,361.985978 142.468545,362.029984 C142.215508,362.051988 141.965222,362.098744 141.717685,362.170255 C141.470149,362.241765 141.346381,362.299524 141.346381,362.34353 C141.33538,362.387537 141.26662,362.426042 141.140101,362.459047 C141.013583,362.492052 140.933821,362.475549 140.900816,362.40954 C140.900816,362.40954 140.955824,362.34078 141.06584,362.20326 C141.175856,362.06574 141.302375,361.925469 141.445396,361.782448 C141.467399,361.738442 141.516906,361.672432 141.593917,361.584419 C141.670929,361.496407 141.758941,361.408394 141.857956,361.320381 C142.02298,361.144355 142.207257,360.993083 142.410787,360.866565 C142.614316,360.740046 142.806844,360.646533 142.988371,360.586024 C143.169897,360.525515 143.293665,360.506262 143.359675,360.528265 C143.359675,360.528265 143.387179,360.536517 143.442187,360.553019 C143.497195,360.569521 143.519198,360.599776 143.508197,360.643782 C143.552203,360.687789 143.604461,360.704291 143.664969,360.693289 C143.725478,360.682288 143.832744,360.621779 143.986766,360.511763 C144.140789,360.368742 144.272808,360.222971 144.382824,360.074449 C144.49284,359.925928 144.536847,359.80766 144.514843,359.719647 C144.481839,359.664639 144.451584,359.606881 144.42408,359.546372 C144.396576,359.485863 144.360821,359.450108 144.316814,359.439107 C144.228802,359.417103 144.127037,359.348343 144.01152,359.232826 C143.896003,359.11731 143.838245,359.059551 143.838245,359.059551 C143.860248,358.927532 143.695224,358.922031 143.343172,359.043049 C143.167147,359.065052 142.958116,359.128311 142.716081,359.232826 C142.474046,359.337342 142.22651,359.466611 141.973473,359.620633 C141.720436,359.774656 141.494903,359.925928 141.296874,360.074449 C141.098845,360.222971 140.955824,360.346739 140.867811,360.445753 C140.812803,360.522765 140.760546,360.577773 140.711039,360.610777 C140.661531,360.643782 140.609274,360.676787 140.554266,360.709792 C140.554266,360.709792 140.507509,360.773051 140.413995,360.89957 C140.320482,361.026088 140.218717,361.160858 140.108701,361.303879 C139.987683,361.435898 139.872166,361.578919 139.76215,361.732941 C139.652134,361.886964 139.569622,362.00248 139.514614,362.079492 C139.459606,362.145501 139.374344,362.296773 139.258827,362.533308 C139.14331,362.769842 139.041545,363.003626 138.953532,363.23466 C138.755503,363.5097 138.623484,363.759987 138.557475,363.98552 C138.491465,364.211052 138.414454,364.521848 138.326441,364.917906 C138.271433,365.214949 138.230177,365.434981 138.202673,365.578002 C138.175169,365.721023 138.166918,365.84204 138.177919,365.941055 C138.188921,366.040069 138.221926,366.172088 138.276934,366.337113 C138.309938,366.557145 138.406203,366.771676 138.565726,366.980706 C138.725249,367.189737 138.882022,367.354761 139.036044,367.475779 C139.267078,367.695811 139.544869,367.819579 139.869416,367.847083 Z M140.30673,366.510388 C140.218717,366.504887 140.086698,366.491135 139.910672,366.469132 C139.833661,366.447129 139.767651,366.419625 139.712643,366.38662 C139.657635,366.353615 139.619129,366.282105 139.597126,366.172088 C139.55312,366.095077 139.539368,366.001564 139.55587,365.891548 C139.572373,365.781532 139.608128,365.555999 139.663136,365.214949 C139.773152,364.730878 139.866665,364.406331 139.943677,364.241307 C140.020688,364.076283 140.114202,363.98827 140.224218,363.977268 C140.279226,363.955265 140.350736,363.92226 140.438749,363.878254 C140.526762,363.834248 140.58177,363.795742 140.603773,363.762737 C140.691786,363.740734 140.777048,363.710479 140.85956,363.671974 C140.942072,363.633468 141.021834,363.608715 141.098845,363.597713 C141.538909,363.487697 141.860706,363.413436 142.064236,363.374931 C142.267766,363.336425 142.419038,363.317172 142.518052,363.317172 C142.617067,363.317172 142.721582,363.333675 142.831598,363.366679 C142.930612,363.377681 143.015875,363.394183 143.087385,363.416187 C143.158896,363.43819 143.205652,363.449191 143.227656,363.449191 C143.227656,363.471195 143.244158,363.523452 143.277163,363.605964 C143.310168,363.688476 143.321169,363.762737 143.310168,363.828747 C143.365176,364.092785 143.266161,364.414582 143.013124,364.794138 C142.760087,365.173693 142.375031,365.522994 141.857956,365.84204 C141.68193,365.952056 141.525157,366.053821 141.387637,366.147335 C141.332629,366.18474 141.288623,366.214665 141.255618,366.237108 L141.181357,366.287605 C141.148352,366.276604 141.098845,366.282105 141.032836,366.304108 C140.966826,366.326111 140.889815,366.348114 140.801802,366.370117 C140.559767,366.469132 140.394743,366.515889 140.30673,366.510388 Z M147.683305,368.432918 C147.804323,368.454921 147.961096,368.419166 148.153624,368.325653 C148.346152,368.232139 148.511176,368.122123 148.648696,367.995604 C148.786216,367.869086 148.827472,367.767321 148.772464,367.69031 C148.750461,367.602297 148.720207,367.539038 148.681701,367.500532 C148.643195,367.462027 148.579936,367.453775 148.491923,367.475779 C148.458919,367.464777 148.442416,367.401518 148.442416,367.286001 C148.442416,367.170484 148.458919,367.038465 148.491923,366.889943 C148.524928,366.741421 148.563434,366.628655 148.60744,366.551644 C148.629443,366.474633 148.665199,366.408623 148.714706,366.353615 C148.764213,366.298607 148.794467,366.243599 148.805469,366.188591 C148.871479,366.078575 148.964992,365.916301 149.08601,365.70177 C149.207028,365.487239 149.328045,365.267207 149.449063,365.041674 C149.570081,364.816141 149.669095,364.648366 149.746106,364.53835 C149.801114,364.472341 149.850621,364.409081 149.894628,364.348573 C149.938634,364.288064 149.982641,364.246808 150.026647,364.224804 C150.059652,364.224804 150.131162,364.241307 150.241178,364.274312 C150.351194,364.307317 150.463961,364.354073 150.579478,364.414582 C150.694995,364.475091 150.769255,364.53835 150.80226,364.60436 C150.835265,364.648366 150.915027,364.653867 151.041545,364.620862 C151.168064,364.587857 151.258827,364.532849 151.313835,364.455838 C151.412849,364.411832 151.456856,364.26331 151.445854,364.010273 C151.401848,363.856251 151.319336,363.726982 151.198318,363.622467 C151.0773,363.517951 150.923278,363.427188 150.736251,363.350177 C150.59323,363.284167 150.521719,363.218158 150.521719,363.152148 C150.521719,363.086138 150.598731,362.981623 150.752753,362.838602 C150.785758,362.783594 150.846267,362.690081 150.93428,362.558061 C151.022292,362.426042 151.115806,362.283021 151.21482,362.128999 C151.313835,361.974976 151.401848,361.840207 151.478859,361.72469 C151.55587,361.609173 151.599877,361.545914 151.610878,361.534912 C151.62188,361.501907 151.646633,361.457901 151.685139,361.402893 C151.723645,361.347885 151.748398,361.298378 151.7594,361.254371 C151.814408,361.188362 151.869416,361.136104 151.924424,361.097598 C151.979432,361.059093 152.012437,361.017837 152.023438,360.97383 L152.023438,360.97383 L152.064694,360.891318 C152.092198,360.83631 152.133454,360.786803 152.188462,360.742797 C152.232469,360.709792 152.292978,360.632781 152.369989,360.511763 C152.447,360.390745 152.502008,360.269728 152.535013,360.14871 C152.568018,359.983686 152.570768,359.857168 152.543264,359.769155 C152.51576,359.681142 152.447,359.543622 152.336984,359.356595 C152.270974,359.246579 152.226968,359.155815 152.204965,359.084305 C152.182962,359.012794 152.149957,358.971538 152.10595,358.960537 C152.094949,359.004543 152.075696,359.012794 152.048192,358.98529 C152.020688,358.957786 152.006936,358.944034 152.006936,358.944034 C151.96293,358.856022 151.811657,358.795513 151.55312,358.762508 C151.294582,358.729503 151.00579,358.718501 150.686743,358.729503 C150.367697,358.740505 150.081655,358.768009 149.828618,358.812015 C149.267536,358.955036 148.772464,359.098057 148.343402,359.241078 C147.914339,359.384099 147.688806,359.516118 147.666803,359.637135 C147.655801,359.714147 147.653051,359.826913 147.658552,359.975435 C147.664053,360.123956 147.686056,360.258726 147.724561,360.379744 C147.763067,360.500761 147.815325,360.566771 147.881334,360.577773 C148.002352,360.643782 148.148123,360.663035 148.318648,360.635531 C148.489173,360.608027 148.728458,360.533766 149.036503,360.412749 C149.454564,360.258726 149.77086,360.15146 149.985391,360.090952 C150.199922,360.030443 150.395201,359.989187 150.571227,359.967184 C150.791259,359.94518 150.879272,360.027692 150.835265,360.21472 C150.791259,360.401747 150.576727,360.770301 150.191671,361.320381 C150.04865,361.595421 149.90563,361.823704 149.762609,362.005231 C149.619588,362.186757 149.504071,362.354532 149.416058,362.508554 C149.262036,362.706583 149.15752,362.830351 149.102512,362.879858 C149.047504,362.929366 148.942989,362.943118 148.788967,362.921114 C148.722957,362.910113 148.648696,362.904612 148.566184,362.904612 L148.566184,362.904612 L148.359904,362.904612 C148.238886,362.904612 148.109618,362.899111 147.972098,362.88811 C147.834577,362.877108 147.688806,362.871607 147.534784,362.871607 C147.446771,362.849604 147.386262,362.835852 147.353257,362.830351 C147.320252,362.82485 147.276246,362.8221 147.221238,362.8221 C147.199235,362.877108 147.207486,362.951369 147.245992,363.044882 C147.284497,363.138396 147.248742,363.212657 147.138726,363.267665 C147.039712,363.278667 147.003956,363.336425 147.03146,363.44094 C147.058964,363.545455 147.160729,363.641719 147.336755,363.729732 C147.36976,363.773739 147.471525,363.814995 147.642049,363.8535 C147.812574,363.892006 147.947344,363.92226 148.046358,363.944264 C148.26639,363.944264 148.376407,363.977268 148.376407,364.043278 C148.376407,364.109288 148.255389,364.340321 148.013354,364.736379 C147.639299,365.440482 147.342256,366.053821 147.122224,366.576397 C146.902192,367.098974 146.814179,367.464777 146.858185,367.673807 C146.924195,367.82783 147.045212,367.987353 147.221238,368.152377 C147.397264,368.317401 147.551286,368.410915 147.683305,368.432918 Z M154.135746,368.779469 C154.212758,368.812474 154.358529,368.817974 154.57306,368.795971 C154.787591,368.773968 155.010374,368.729961 155.241408,368.663952 C155.472441,368.597942 155.659469,368.51543 155.802489,368.416416 C156.044525,368.262393 156.21505,368.207385 156.314064,368.251392 C156.369072,368.262393 156.432331,368.254142 156.503842,368.226638 C156.575352,368.199134 156.622109,368.146876 156.644112,368.069865 C156.69912,368.03686 156.751378,368.003856 156.800885,367.970851 C156.850392,367.937846 156.875146,367.921344 156.875146,367.921344 C157.018167,367.932345 157.210695,367.786574 157.45273,367.48403 C157.694765,367.181486 157.920298,366.793679 158.129329,366.32061 C158.294353,366.089576 158.313606,365.756778 158.187087,365.322215 C158.060569,364.887651 157.870791,364.433835 157.617754,363.960766 C157.309709,363.586711 157.227197,363.410686 157.370218,363.432689 C157.436228,363.388683 157.485735,363.366679 157.51874,363.366679 L157.51874,363.366679 L157.568247,363.366679 C157.612253,363.388683 157.711268,363.37218 157.86529,363.317172 C158.019313,363.262164 158.170585,363.196154 158.319106,363.119143 C158.467628,363.042132 158.541889,362.992625 158.541889,362.970622 C158.541889,362.926615 158.563892,362.907362 158.607899,362.912863 C158.651905,362.918364 158.695911,362.937617 158.739918,362.970622 C158.783924,362.970622 158.830681,362.943118 158.880188,362.88811 C158.929696,362.833102 158.981953,362.767092 159.036961,362.690081 C159.124974,362.668077 159.204736,362.624071 159.276246,362.558061 C159.347756,362.492052 159.411016,362.437044 159.466024,362.393037 C159.57604,362.349031 159.768568,362.173005 160.043608,361.86496 C160.109618,361.765946 160.159125,361.617424 160.19213,361.419395 C160.225134,361.221366 160.238886,361.017837 160.233386,360.808806 C160.227885,360.599776 160.19213,360.434752 160.12612,360.313734 C160.115118,360.258726 160.090365,360.211969 160.051859,360.173464 C160.013354,360.134958 159.994101,360.099203 159.994101,360.066198 C159.983099,360.000188 159.889586,359.895673 159.71356,359.752652 C159.537534,359.609631 159.342256,359.466611 159.127724,359.32359 C158.913193,359.180569 158.739918,359.081554 158.607899,359.026546 C158.420871,358.938534 158.165084,358.861522 157.840537,358.795513 C157.515989,358.729503 157.202444,358.668994 156.8999,358.613986 C156.597355,358.558978 156.385575,358.525973 156.264557,358.514972 C155.934509,358.558978 155.620963,358.724002 155.32392,359.010044 C155.026876,359.296086 154.790342,359.637135 154.614316,360.033193 C154.460294,360.341238 154.380532,360.654784 154.375031,360.97383 C154.36953,361.292877 154.449292,361.529411 154.614316,361.683434 C154.647321,361.760445 154.677575,361.818204 154.705079,361.856709 C154.732583,361.895215 154.746335,361.914468 154.746335,361.914468 C154.702329,361.914468 154.70783,361.944722 154.762838,362.005231 C154.817846,362.06574 154.867353,362.156503 154.91136,362.277521 C155.131392,362.574564 155.244158,362.775343 155.249659,362.879858 C155.25516,362.984374 155.197401,363.113642 155.076384,363.267665 C154.988371,363.377681 154.853601,363.556457 154.672075,363.803993 C154.490548,364.051529 154.29802,364.323819 154.09449,364.620862 C153.890961,364.917906 153.703933,365.214949 153.533409,365.511992 C153.362884,365.809036 153.239116,366.067573 153.162104,366.287605 C153.085093,366.397621 153.032836,366.540642 153.005332,366.716668 C152.977828,366.892694 152.964076,367.046716 152.964076,367.178735 C152.931071,367.409769 152.931071,367.574793 152.964076,367.673807 C152.99708,367.772822 153.052088,367.915843 153.1291,368.10287 C153.195109,368.157878 153.294124,368.23764 153.426143,368.342155 C153.558162,368.44667 153.690181,368.542934 153.822201,368.630947 C153.95422,368.71896 154.058735,368.768467 154.135746,368.779469 Z M157.073175,362.145501 C156.798135,362.321527 156.594605,362.376535 156.462586,362.310525 C156.330566,362.244516 156.253555,362.184007 156.231552,362.128999 C156.143539,362.128999 156.099533,362.079492 156.099533,361.980477 C156.099533,361.980477 156.08303,361.944722 156.050026,361.873212 C156.017021,361.801701 155.951011,361.743943 155.851997,361.699936 C155.763984,361.512909 155.719977,361.353386 155.719977,361.221366 C155.719977,361.089347 155.752982,360.918822 155.818992,360.709792 C155.962013,360.324736 156.21505,360.090952 156.578103,360.00844 C156.941156,359.925928 157.463732,360.005689 158.145831,360.247725 C158.376865,360.335737 158.536388,360.412749 158.624401,360.478758 C158.712414,360.544768 158.761921,360.610777 158.772923,360.676787 C158.783924,360.742797 158.783924,360.83081 158.772923,360.940826 C158.794926,361.116851 158.819679,361.204864 158.847183,361.204864 C158.874688,361.204864 158.855435,361.265373 158.789425,361.386391 C158.613399,361.573418 158.429123,361.719189 158.236594,361.823704 C158.044066,361.92822 157.936801,361.958474 157.914798,361.914468 C157.848788,361.79345 157.749773,361.749444 157.617754,361.782448 C157.485735,361.815453 157.304208,361.936471 157.073175,362.145501 Z M154.515302,367.525286 C154.372281,367.503283 154.331025,367.354761 154.391534,367.079721 C154.452043,366.804681 154.603315,366.45813 154.84535,366.040069 C154.933363,365.886047 155.010374,365.729274 155.076384,365.569751 C155.142393,365.410227 155.175398,365.313963 155.175398,365.280959 L155.175398,365.280959 L155.538451,364.917906 C155.582457,364.840894 155.615462,364.785886 155.637465,364.752882 C155.659469,364.719877 155.730979,364.626363 155.851997,364.472341 C155.907005,364.351323 155.959262,364.255059 156.00877,364.183548 C156.058277,364.112038 156.08303,364.076283 156.08303,364.076283 C156.138038,364.109288 156.190296,364.147793 156.239803,364.1918 C156.28931,364.235806 156.347069,364.307317 156.413079,364.406331 C156.468087,364.494344 156.534096,364.615361 156.611107,364.769384 L156.611107,364.769384 L156.825639,365.198446 C157.034669,365.737525 156.787133,366.287605 156.08303,366.848687 C155.840995,367.024713 155.557704,367.184236 155.233156,367.327257 C154.908609,367.470278 154.669324,367.536287 154.515302,367.525286 Z M163.707142,368.696957 C163.751149,368.696957 163.833661,368.65295 163.954678,368.564937 C164.075696,368.476925 164.210466,368.369659 164.358987,368.24314 C164.507509,368.116622 164.639528,367.987353 164.755045,367.855334 C164.870562,367.723315 164.944823,367.618799 164.977828,367.541788 C165.032836,367.420771 165.06034,367.332758 165.06034,367.27775 C165.06034,367.222742 165.043837,367.173234 165.010832,367.129228 C164.966826,367.129228 164.889815,367.112726 164.779799,367.079721 C164.669783,367.046716 164.592771,367.030214 164.548765,367.030214 C164.471754,367.019212 164.452501,366.826684 164.491007,366.452629 C164.529512,366.078575 164.625776,365.660514 164.779799,365.198446 C164.955824,364.692373 165.162104,364.178048 165.398639,363.655471 C165.635173,363.132895 165.871708,362.668077 166.108242,362.261018 C166.344777,361.853959 166.551057,361.573418 166.727083,361.419395 C166.870103,361.265373 166.991121,361.094848 167.090136,360.907821 C167.18915,360.720793 167.277163,360.445753 167.354174,360.0827 C167.387179,359.950681 167.334921,359.763654 167.197401,359.521619 C167.059881,359.279583 166.892107,359.04855 166.694078,358.828518 C166.496049,358.608485 166.314522,358.465465 166.149498,358.399455 C166.017479,358.344447 165.830452,358.311442 165.588417,358.300441 C165.346381,358.289439 165.137351,358.300441 164.961325,358.333445 C164.675283,358.388453 164.356237,358.525973 164.004186,358.746006 C163.652134,358.966038 163.313835,359.230076 162.989288,359.538121 C162.66474,359.846166 162.38695,360.170713 162.155916,360.511763 C162.012895,360.753798 161.91113,360.943576 161.850621,361.081096 C161.790113,361.218616 161.754357,361.369888 161.743356,361.534912 C161.721353,361.853959 161.792863,362.164754 161.957887,362.467298 C162.122911,362.769842 162.348444,363.003626 162.634486,363.16865 C162.920528,363.333675 163.234073,363.388683 163.575123,363.333675 C163.839161,363.311671 163.979432,363.344676 163.995934,363.432689 C164.012437,363.520702 163.943677,363.762737 163.789654,364.158795 C163.679638,364.477841 163.564121,364.838144 163.443104,365.239702 C163.322086,365.641261 163.217571,366.023567 163.129558,366.38662 C163.041545,366.749673 162.986537,367.041215 162.964534,367.261247 C162.964534,367.338259 162.959033,367.442774 162.948032,367.574793 C162.93703,367.706812 162.931529,367.789324 162.931529,367.822329 C162.920528,367.89934 162.926028,367.973601 162.948032,368.045112 C162.970035,368.116622 162.981036,368.152377 162.981036,368.152377 C163.036044,368.152377 163.058048,368.179881 163.047046,368.234889 C163.047046,368.256893 163.091052,368.3064 163.179065,368.383411 C163.267078,368.460422 163.363342,368.529182 163.467857,368.589691 C163.572373,368.6502 163.652134,368.685955 163.707142,368.696957 Z M164.177461,362.021733 C163.786904,362.214261 163.470608,362.178506 163.228572,361.914468 C163.118556,361.79345 163.102054,361.642178 163.179065,361.460651 C163.256076,361.279125 163.437603,361.034339 163.723645,360.726294 C163.910672,360.572272 163.976682,360.445753 163.921674,360.346739 C163.921674,360.302733 163.932675,360.277979 163.954678,360.272478 C163.976682,360.266977 163.987683,360.264227 163.987683,360.264227 C164.03169,360.275229 164.075696,360.277979 164.119702,360.272478 C164.163709,360.266977 164.207715,360.242224 164.251722,360.198217 C164.482755,360.044195 164.645029,359.928678 164.738543,359.851667 C164.832056,359.774656 164.966826,359.719647 165.142852,359.686643 C165.40689,359.587628 165.582916,359.543622 165.670929,359.554623 C165.758941,359.565625 165.841453,359.631635 165.918465,359.752652 C165.995476,359.829664 166.006478,359.912176 165.95147,360.000188 C165.896462,360.088201 165.797447,360.209219 165.654426,360.363241 C165.61042,360.396246 165.569164,360.459505 165.530658,360.553019 C165.492153,360.646533 165.40689,360.770301 165.274871,360.924323 C164.933821,361.463402 164.568018,361.829205 164.177461,362.021733 Z M170.621651,367.954348 C170.742668,367.954348 170.921444,367.891089 171.157979,367.764571 C171.394513,367.638052 171.633798,367.489531 171.875834,367.319006 C172.117869,367.148481 172.293894,367.00821 172.403911,366.898194 C172.601939,366.700165 172.775215,366.507637 172.923736,366.32061 C173.072258,366.133583 173.146519,366.018066 173.146519,365.97406 C173.146519,365.941055 173.160271,365.921802 173.187775,365.916301 C173.215279,365.9108 173.229031,365.90805 173.229031,365.90805 C173.262036,365.90805 173.308792,365.858543 173.369301,365.759528 C173.42981,365.660514 173.487569,365.553248 173.542577,365.437731 C173.597585,365.322215 173.625089,365.247954 173.625089,365.214949 C173.581082,365.170942 173.572831,365.132437 173.600335,365.099432 C173.627839,365.066427 173.663594,365.027922 173.707601,364.983915 C173.751607,364.895902 173.823117,364.74188 173.922132,364.521848 C174.021146,364.301816 174.092657,364.147793 174.136663,364.05978 C174.136663,364.015774 174.139414,363.963516 174.144914,363.903008 C174.150415,363.842499 174.169668,363.77924 174.202673,363.71323 C174.246679,363.614215 174.293436,363.460193 174.342943,363.251163 C174.392451,363.042132 174.441958,362.816599 174.491465,362.574564 C174.540972,362.332529 174.579478,362.104245 174.606982,361.889714 C174.634486,361.675183 174.648238,361.512909 174.648238,361.402893 C174.648238,361.281875 174.631735,361.147106 174.598731,360.998584 C174.565726,360.850062 174.52722,360.731795 174.483214,360.643782 L174.483214,360.643782 L174.31819,360.14871 L174.483214,360.14871 C174.571227,360.192716 174.620734,360.176214 174.631735,360.099203 C174.642737,360.022192 174.648238,359.94518 174.648238,359.868169 C174.648238,359.758153 174.549223,359.639886 174.351194,359.513367 C174.153166,359.386849 173.919382,359.276833 173.649842,359.183319 C173.380303,359.089806 173.135517,359.043049 172.915485,359.043049 C172.838474,359.043049 172.687202,359.045799 172.461669,359.0513 C172.236136,359.056801 172.062861,359.076054 171.941843,359.109058 C171.611795,359.18607 171.30375,359.312588 171.017708,359.488614 C170.731667,359.664639 170.445625,359.879171 170.159583,360.132208 C169.620505,360.594275 169.158437,361.17461 168.773381,361.873212 C168.388325,362.571813 168.135288,363.273166 168.01427,363.977268 C167.959262,364.340321 167.94551,364.725377 167.973014,365.132437 C168.000518,365.539496 168.096782,365.938304 168.261806,366.328861 C168.426831,366.719418 168.69637,367.07422 169.070424,367.393267 C169.191442,367.492281 169.359216,367.583044 169.573748,367.665556 C169.788279,367.748068 169.99731,367.816828 170.200839,367.871836 C170.404369,367.926844 170.544639,367.954348 170.621651,367.954348 Z M170.217342,366.477383 C170.178836,366.504887 170.099074,366.463631 169.978057,366.353615 C169.945052,366.309609 169.881793,366.235348 169.788279,366.130832 C169.694765,366.026317 169.626005,365.935554 169.581999,365.858543 C169.526991,365.748527 169.485735,365.666015 169.458231,365.611007 C169.430727,365.555999 169.411474,365.484488 169.400473,365.396475 C169.389471,365.308463 169.38397,365.170942 169.38397,364.983915 L169.38397,364.092785 C169.405973,364.004772 169.45273,363.875504 169.524241,363.704979 C169.595751,363.534454 169.670012,363.361179 169.747023,363.185153 C169.824034,363.009127 169.890044,362.882609 169.945052,362.805598 C169.978057,362.717585 170.011062,362.640573 170.044066,362.574564 C170.077071,362.508554 170.093574,362.453546 170.093574,362.40954 C170.093574,362.365533 170.162334,362.241765 170.299854,362.038236 C170.437374,361.834706 170.605148,361.633927 170.803177,361.435898 C171.045212,361.138854 171.240491,360.90507 171.389013,360.734545 C171.537534,360.564021 171.611795,360.555769 171.611795,360.709792 C171.611795,360.7648 171.658552,360.808806 171.752065,360.841811 C171.845579,360.874816 171.930842,360.869315 172.007853,360.825309 C172.095866,360.770301 172.203131,360.723544 172.32965,360.685038 C172.456168,360.646533 172.557933,360.62728 172.634944,360.62728 C172.711955,360.62728 172.786216,360.643782 172.857727,360.676787 C172.929237,360.709792 172.986996,360.742797 173.031002,360.775802 C173.108013,360.863814 173.15202,360.932574 173.163021,360.982082 C173.174023,361.031589 173.179524,361.199363 173.179524,361.485405 C173.135517,361.628426 173.110764,361.804452 173.105263,362.013482 C173.099762,362.222512 173.097012,362.387537 173.097012,362.508554 C173.097012,362.629572 173.080509,362.778094 173.047504,362.954119 C173.0145,363.130145 172.953991,363.278667 172.865978,363.399684 C172.711955,363.839748 172.599189,364.150544 172.527679,364.33207 C172.456168,364.513597 172.359904,364.686872 172.238886,364.851896 C172.117869,365.137938 171.966597,365.390975 171.78507,365.611007 C171.603544,365.831039 171.413766,366.007064 171.215737,366.139084 C171.138726,366.216095 171.045212,366.273853 170.935196,366.312359 C170.82518,366.350865 170.709663,366.370117 170.588646,366.370117 C170.379615,366.414124 170.255847,366.449879 170.217342,366.477383 Z" id="caveatbold1234567890"></path>
            </g>
        </g>
    </g>
</svg>