<?xml version="1.0" encoding="UTF-8"?>
<svg width="146px" height="13px" viewBox="0 0 146 13" version="1.1" xmlns="http://www.w3.org/2000/svg" xmlns:xlink="http://www.w3.org/1999/xlink">
    <title>caveatregular1234567890</title>
    <g id="页面-1" stroke="none" stroke-width="1" fill="none" fill-rule="evenodd">
        <g id="弃-增加英文字体分类" transform="translate(-749.000000, -332.000000)" fill="#FFFFFF" fill-rule="nonzero">
            <g id="编组-4" transform="translate(720.000000, 10.000000)">
                <path d="M29.7104907,331.444431 C30.0254345,331.664391 30.397868,331.739378 30.8277912,331.66939 C30.9677662,331.639396 31.1302372,331.584406 31.3152042,331.50442 C31.5001711,331.424434 31.6651417,331.344448 31.8101158,331.264463 C31.9550899,331.184477 32.0275769,331.134486 32.0275769,331.11449 C32.0275769,331.0545 32.077568,331.024506 32.1775502,331.024506 C32.2375395,331.024506 32.3400212,330.972015 32.4849953,330.867034 C32.6299694,330.762052 32.7824421,330.634575 32.9424136,330.484602 C33.102385,330.334629 33.2348614,330.197153 33.3398426,330.072176 C33.4448239,329.947198 33.4873163,329.864713 33.4673198,329.82472 C33.4673198,329.82472 33.4698194,329.812222 33.4748185,329.787227 C33.4798176,329.762231 33.5023136,329.749733 33.5423065,329.749733 C33.6222922,329.70974 33.6197926,329.65725 33.5348078,329.592261 C33.449823,329.527273 33.3473413,329.474782 33.2273627,329.43479 C33.1073841,329.43479 33.0174002,329.444788 32.9574109,329.464784 C32.8974216,329.484781 32.8274341,329.554768 32.7474484,329.674747 C32.6674627,329.71474 32.5924761,329.76973 32.5224886,329.839717 C32.4525011,329.909705 32.3925118,329.959696 32.3425207,329.98969 C32.1925475,330.099671 32.0175787,330.222149 31.8176144,330.357125 C31.6176501,330.492101 31.4376823,330.599582 31.2777108,330.679567 C31.1677305,330.739557 30.9927617,330.782049 30.7528046,330.807044 C30.5128474,330.83204 30.3228814,330.824541 30.1829063,330.784548 C30.1529117,330.77455 30.1304157,330.684566 30.1154184,330.514597 C30.1004211,330.344627 30.1229171,330.144663 30.1829063,329.914704 C30.4128653,329.034861 30.6853166,328.362481 31.0002604,327.897564 C31.3152042,327.432647 31.657643,327.095207 32.0275769,326.885245 C32.4275055,326.715275 32.5674805,326.900242 32.447502,327.440146 C32.4075091,327.630112 32.3675162,327.785084 32.3275234,327.905063 C32.2875305,328.025041 32.2675341,328.110026 32.2675341,328.160017 C32.307527,328.279996 32.3825136,328.36748 32.4924939,328.42247 C32.6024743,328.47746 32.6574645,328.469962 32.6574645,328.399974 C32.6574645,328.349983 32.6749613,328.322488 32.7099551,328.317489 C32.7449488,328.31249 32.7824421,328.30999 32.822435,328.30999 C32.9024207,328.30999 32.9924047,328.240003 33.0923868,328.100028 C33.1923689,327.960053 33.2623564,327.795082 33.3023493,327.605116 C33.3623386,327.495136 33.3873341,327.35766 33.3773359,327.19269 C33.3673377,327.027719 33.3398426,326.880246 33.2948506,326.750269 C33.2498587,326.620292 33.1973681,326.555304 33.1373788,326.555304 L33.1373788,326.555304 L33.0623922,326.480317 C33.0623922,326.360339 32.9699087,326.247859 32.7849417,326.142877 C32.5999747,326.037896 32.4275055,325.965409 32.2675341,325.925416 C32.1875484,325.925416 32.0850667,325.932915 31.960089,325.947912 C31.8351113,325.962909 31.702635,326.000403 31.56266,326.060392 C31.4026885,326.13038 31.2227207,326.265355 31.0227564,326.46532 C30.8227921,326.665284 30.6228278,326.885245 30.4228635,327.125202 C30.1929046,327.41515 29.9804425,327.760089 29.7854773,328.160017 C29.5905121,328.559946 29.4430385,328.957375 29.3430563,329.352304 C29.2430742,329.747234 29.2080804,330.094672 29.2380751,330.394618 C29.2380751,330.874532 29.3955469,331.22447 29.7104907,331.444431 Z M34.6221136,331.294457 C35.291994,331.724381 36.3318083,331.229469 37.7415566,329.809723 C37.8015459,329.749733 37.8865307,329.652251 37.9965111,329.517275 C38.1064914,329.382299 38.181478,329.289815 38.2214709,329.239824 C38.2314691,329.289815 38.2689624,329.397296 38.3339508,329.562267 C38.3989392,329.727237 38.4514298,329.839717 38.4914227,329.899706 C38.9613388,330.809544 39.531237,331.219471 40.2011174,331.129487 C40.3810852,331.089494 40.4710692,330.969515 40.4710692,330.769551 C40.4710692,330.659571 40.4360754,330.579585 40.3660879,330.529594 C40.2961004,330.479603 40.2211138,330.449608 40.1411281,330.43961 C40.0011531,330.419614 39.8536794,330.359624 39.6987071,330.259642 C39.5437348,330.15966 39.4412531,330.054679 39.391262,329.944698 C39.2612852,329.724738 39.1638026,329.464784 39.0988142,329.164838 C39.0338258,328.864891 39.06632,328.514954 39.1962968,328.115025 L39.1962968,328.115025 L39.4662486,327.365159 L38.9113477,326.870247 C38.7613745,326.730272 38.6188999,326.597796 38.483924,326.472818 C38.3489481,326.347841 38.2614637,326.265355 38.2214709,326.225363 C38.0614995,326.095386 37.8690338,326.045395 37.644074,326.075389 C37.4191142,326.105384 37.201653,326.190369 36.9916905,326.330344 C36.8917083,326.390333 36.7667307,326.487816 36.6167574,326.622792 C36.4667842,326.757768 36.3218101,326.897743 36.1818351,327.042717 C36.0418601,327.187691 35.9243811,327.320167 35.829398,327.440146 C35.734415,327.560124 35.6869235,327.645109 35.6869235,327.6951 L35.6869235,327.6951 L35.6869235,327.785084 C35.6469306,327.785084 35.6119369,327.802581 35.5819422,327.837575 C35.5519476,327.872568 35.5369503,327.910062 35.5369503,327.950055 C35.4969574,327.990047 35.4369681,328.075032 35.3569824,328.205009 C35.2769967,328.334986 35.197011,328.439967 35.1170253,328.519953 C34.9270592,328.86989 34.7620886,329.202331 34.6221136,329.517275 C34.4821386,329.832219 34.3821565,330.097171 34.3221672,330.312133 C34.2621779,330.527094 34.2571788,330.66457 34.3071699,330.724559 C34.3471627,330.764552 34.3696587,330.807044 34.3746578,330.852036 C34.3796569,330.897028 34.3821565,330.939521 34.3821565,330.979514 C34.3821565,331.019507 34.4121511,331.061999 34.4721404,331.106991 C34.5321297,331.151983 34.5821208,331.214472 34.6221136,331.294457 Z M35.4844596,330.447109 C35.269498,330.522095 35.1620172,330.524595 35.1620172,330.454607 C35.1620172,330.454607 35.1995105,330.362124 35.2744971,330.177157 C35.3494837,329.99219 35.4369681,329.799724 35.5369503,329.59976 C35.7969038,329.119846 36.0718548,328.679924 36.361803,328.279996 C36.6517512,327.880067 36.9242025,327.560124 37.179157,327.320167 C37.4341115,327.08021 37.6265771,326.960231 37.7565539,326.960231 C37.8365396,326.960231 37.9340222,327.002724 38.0490017,327.087709 C38.1639812,327.172693 38.271462,327.330165 38.3714441,327.560124 L38.3714441,327.560124 L38.041503,328.100028 C37.8315405,328.399974 37.5540901,328.724916 37.2091517,329.074854 C36.8642133,329.424791 36.5217744,329.744734 36.1818351,330.034682 C35.9318797,330.234647 35.6994213,330.372122 35.4844596,330.447109 Z M42.3907264,331.451929 C42.4307192,331.456928 42.5007067,331.424434 42.6006889,331.354447 C42.6806746,331.314454 42.7856559,331.241967 42.9156326,331.136986 C43.0456094,331.032004 43.1605889,330.909526 43.2605711,330.769551 C43.3905478,330.599582 43.5405211,330.404616 43.7104907,330.184656 C43.8804604,329.964695 44.0454309,329.744734 44.2054023,329.524773 C44.3653738,329.304813 44.5003497,329.107348 44.61033,328.932379 C44.7203104,328.75741 44.7852988,328.634932 44.8052952,328.564945 C44.8452881,328.524952 44.8802818,328.489958 44.9102765,328.459964 L44.9102765,328.459964 L44.9552684,328.414972 C45.0052595,328.384977 45.0777466,328.297493 45.1727296,328.152518 C45.2677126,328.007544 45.3526975,327.855072 45.4276841,327.6951 C45.5026707,327.535129 45.540164,327.430147 45.540164,327.380156 C45.540164,327.340164 45.5251667,327.30267 45.495172,327.267676 C45.4651774,327.232683 45.4301836,327.200189 45.3901908,327.170194 C45.2702122,327.100206 45.1752291,327.100206 45.1052416,327.170194 C45.0652488,327.170194 45.0277555,327.177693 44.9927617,327.19269 C44.957768,327.207687 44.9202747,327.200189 44.8802818,327.170194 C44.840289,327.170194 44.7603032,327.232683 44.6403247,327.35766 C44.5203461,327.482638 44.4053666,327.64011 44.2953863,327.830076 C44.2553934,327.900064 44.2054023,327.970051 44.145413,328.040039 C44.0854238,328.110026 44.0354327,328.185013 43.9954398,328.264998 C43.955447,328.304991 43.887959,328.389976 43.792976,328.519953 C43.6979929,328.64993 43.5955112,328.784906 43.4855309,328.924881 C43.4155434,329.034861 43.3205603,329.182335 43.2005818,329.367302 C43.0806032,329.552269 42.980621,329.699742 42.9006353,329.809723 C42.7506621,329.959696 42.6481804,330.052179 42.5931902,330.087173 C42.5382,330.122167 42.4907085,330.10467 42.4507157,330.034682 C42.420721,329.99469 42.4057237,329.827219 42.4057237,329.532272 C42.4057237,329.237325 42.420721,328.889887 42.4507157,328.489958 C42.4507157,327.970051 42.4457166,327.58262 42.4357183,327.327666 C42.4257201,327.072711 42.4032241,326.895243 42.3682304,326.795261 C42.3332366,326.695279 42.2657487,326.620292 42.1657666,326.570301 C42.0957791,326.530308 42.0132938,326.510312 41.9183107,326.510312 C41.8233277,326.510312 41.7608389,326.530308 41.7308442,326.570301 C41.7308442,326.610294 41.7283447,326.775264 41.7233456,327.065213 C41.7183464,327.355161 41.6958505,327.705098 41.6558576,328.115025 C41.6558576,329.034861 41.6933509,329.747234 41.7683375,330.252144 C41.8433241,330.757053 41.9758005,331.099492 42.1657666,331.27946 C42.2757469,331.38944 42.3507335,331.44693 42.3907264,331.451929 Z M47.4748185,331.879353 C47.684781,331.879353 47.8997426,331.836861 48.1197033,331.751876 C48.3396641,331.666891 48.4696409,331.589405 48.5096337,331.519417 L48.5096337,331.519417 L48.6296123,331.519417 C48.7195962,331.519417 48.8095802,331.459428 48.8995641,331.339449 L48.8995641,331.339449 L48.8845668,331.339449 C48.9045632,331.319453 48.9445561,331.296957 49.0045453,331.271961 C49.0645346,331.246966 49.0995284,331.229469 49.1095266,331.219471 C49.1695159,331.209473 49.247002,331.159482 49.3419851,331.069498 C49.4369681,330.979514 49.5244525,330.882031 49.6044382,330.77705 C49.6844239,330.672069 49.7294159,330.594582 49.7394141,330.544591 C49.7394141,330.434611 49.6769253,330.344627 49.5519476,330.27464 C49.4269699,330.204652 49.3244882,330.189655 49.2445025,330.229648 C49.2045096,330.279639 49.1645168,330.304634 49.1245239,330.304634 C49.1245239,330.304634 49.0770324,330.334629 48.9820494,330.394618 C48.8870663,330.454607 48.7795855,330.514597 48.6596069,330.574586 L48.6596069,330.574586 L48.6746043,330.574586 L48.614615,330.604581 C48.5046346,330.684566 48.3971538,330.759553 48.2921726,330.82954 C48.1871913,330.899528 48.0497158,330.964516 47.8797462,331.024506 C47.8097587,331.0545 47.7372716,331.071997 47.662285,331.076996 C47.5872984,331.081995 47.5148114,331.084495 47.4448239,331.084495 C47.3348435,331.084495 47.2323618,331.071997 47.1373788,331.047002 C47.0423957,331.022006 46.9749078,330.979514 46.9349149,330.919524 C46.8349328,330.759553 46.7849417,330.54959 46.7849417,330.289637 C46.7849417,329.909705 46.889923,329.449787 47.0998855,328.909883 L47.0998855,328.909883 L47.1448774,328.789905 L47.2498587,328.909883 C47.359839,329.059856 47.5073127,329.172336 47.6922797,329.247323 C47.8772466,329.32231 48.0697123,329.359803 48.2696766,329.359803 C48.3796569,329.359803 48.4871377,329.347305 48.592119,329.32231 C48.6971002,329.297314 48.7895837,329.259821 48.8695694,329.20983 C49.1895123,329.029862 49.4444668,328.809901 49.6344329,328.549948 C49.8243989,328.289994 49.9793713,327.980049 50.0993498,327.620114 C50.1493409,327.460142 50.1743365,327.340164 50.1743365,327.260178 C50.1743365,327.180192 50.1593391,327.045216 50.1293445,326.85525 C50.059357,326.645288 49.9793713,326.490315 49.8893873,326.390333 C49.7994034,326.290351 49.6694266,326.205366 49.499457,326.135379 C49.4194712,326.095386 49.3194891,326.057893 49.1995105,326.022899 C49.079532,325.987905 48.9645525,325.970408 48.8545721,325.970408 C48.6046168,325.970408 48.3796569,326.025398 48.1796926,326.135379 C47.9097408,326.255357 47.6497873,326.460321 47.3998319,326.750269 C47.1498765,327.040217 46.9199176,327.377657 46.7099551,327.762588 C46.4999926,328.147519 46.3325225,328.547448 46.2075448,328.962374 C46.0825671,329.3773 46.0100801,329.764731 45.9900836,330.124666 C45.9800854,330.624577 46.1150613,331.042002 46.3950113,331.376943 C46.6749613,331.711883 47.0348971,331.879353 47.4748185,331.879353 Z M48.149698,328.579942 C48.0497158,328.579942 47.9622315,328.53495 47.8872449,328.444966 C47.8122583,328.354982 47.7747649,328.240003 47.7747649,328.100028 C47.7647667,328.080031 47.7222743,328.072533 47.6472877,328.077532 C47.5723011,328.082531 47.4948149,328.100028 47.4148292,328.130022 L47.4148292,328.130022 L47.6097944,327.815079 C47.6897801,327.705098 47.8072591,327.570122 47.9622315,327.410151 C48.1172038,327.25018 48.2746757,327.105205 48.4346471,326.975229 C48.5946185,326.845252 48.7195962,326.770265 48.8095802,326.750269 C48.9395569,326.710276 49.0270413,326.692779 49.0720333,326.697778 C49.1170253,326.702777 49.1695159,326.720274 49.2295052,326.750269 C49.3294873,326.850251 49.3619815,327.027719 49.3269878,327.282674 C49.291994,327.537628 49.174515,327.800081 48.9745507,328.070033 C48.8745686,328.20001 48.7570895,328.317489 48.6221136,328.42247 C48.4871377,328.527452 48.3296659,328.579942 48.149698,328.579942 Z M51.7292588,331.352079 L51.8390392,331.339449 C51.9890124,331.339449 52.1614816,331.296957 52.3564468,331.211972 C52.551412,331.126987 52.6488946,331.049501 52.6488946,330.979514 L52.6488946,330.979514 L52.7988678,330.979514 C52.8388606,330.979514 52.8763539,330.964516 52.9113477,330.934522 C52.9463415,330.904527 52.9788356,330.869533 53.0088303,330.82954 C53.0488231,330.789548 53.1313084,330.71956 53.2562861,330.619578 C53.3812638,330.519596 53.4987428,330.414615 53.6087232,330.304634 L53.6087232,330.304634 L54.0436455,330.019685 L54.1186321,330.169658 C54.158625,330.309633 54.2411102,330.474604 54.3660879,330.66457 C54.4910656,330.854536 54.6285411,331.004509 54.7785143,331.11449 C54.9284875,331.22447 55.1409496,331.27946 55.4159005,331.27946 C55.6908514,331.27946 55.9183107,331.22447 56.0982786,331.11449 C56.1782643,331.044502 56.2357541,330.992011 56.2707478,330.957018 C56.3057416,330.922024 56.3232384,330.904527 56.3232384,330.904527 C56.3232384,330.854536 56.398225,330.754554 56.5481983,330.604581 C56.6181858,330.4946 56.6531795,330.394618 56.6531795,330.304634 C56.6531795,330.21465 56.6181858,330.169658 56.5481983,330.169658 C56.5082054,330.169658 56.4732117,330.157161 56.443217,330.132165 C56.4132224,330.107169 56.398225,330.094672 56.398225,330.094672 C56.398225,330.014686 56.348234,330.007187 56.2482518,330.072176 C56.1482697,330.137164 56.0432884,330.209651 55.9333081,330.289637 C55.7133473,330.509598 55.4983857,330.599582 55.2884232,330.559589 C55.0784607,330.519596 54.9334866,330.389619 54.8535009,330.169658 C54.813508,330.019685 54.8110085,329.827219 54.8460022,329.592261 C54.880996,329.357303 54.9334866,329.129844 55.0034741,328.909883 C55.043467,328.839896 55.0659629,328.787405 55.0709621,328.752411 C55.0759612,328.717418 55.0784607,328.699921 55.0784607,328.699921 C55.0384679,328.699921 55.0584643,328.64993 55.13845,328.549948 C55.1784429,328.509955 55.2084375,328.452465 55.2284339,328.377478 C55.2484304,328.302492 55.2184357,328.140021 55.13845,327.890065 C55.1084554,327.700099 55.0734616,327.53013 55.0334687,327.380156 C54.9934759,327.230183 54.9334866,327.08021 54.8535009,326.930237 C54.7435205,326.780264 54.6535366,326.680281 54.5835491,326.63029 C54.5135616,326.580299 54.4085803,326.535307 54.2686053,326.495314 C54.0486446,326.385334 53.9011709,326.332843 53.8261843,326.337843 C53.7511977,326.342842 53.6287196,326.395332 53.4587499,326.495314 C53.2387892,326.585298 53.0013316,326.752768 52.7463772,326.997725 C52.4914227,327.242681 52.2464664,327.53013 52.0115084,327.860071 C51.7765503,328.190012 51.5665878,328.532451 51.3816209,328.887387 C51.1966539,329.242324 51.0566789,329.577264 50.9616959,329.892208 C50.8667128,330.207152 50.8392177,330.469605 50.8792106,330.679567 C50.9192034,330.859535 51.0441811,331.024506 51.2541436,331.174479 C51.4641061,331.324452 51.6590713,331.379442 51.8390392,331.339449 L51.7292588,331.352079 Z M51.689066,330.529594 C51.689066,330.529594 51.6765682,330.514597 51.6515727,330.484602 C51.6265771,330.454607 51.6140794,330.419614 51.6140794,330.379621 C51.6140794,330.249644 51.6690695,330.069676 51.7790499,329.839717 C51.8890303,329.609758 52.0290053,329.359803 52.1989749,329.089851 C52.3689446,328.819899 52.551412,328.557446 52.7463772,328.302492 C52.9413423,328.047537 53.1263093,327.822577 53.3012781,327.627612 C53.4762468,327.432647 53.6237205,327.300171 53.7436991,327.230183 C53.9336651,327.150197 54.0586428,327.115204 54.1186321,327.125202 C54.1786214,327.1352 54.2286125,327.195189 54.2686053,327.30517 C54.3785857,327.485138 54.3885839,327.732593 54.2986,328.047537 C54.208616,328.362481 54.0486446,328.64993 53.8186857,328.909883 C53.7486982,328.979871 53.6687125,329.062356 53.5787285,329.157339 C53.4887446,329.252322 53.4237562,329.31981 53.3837633,329.359803 C53.3237741,329.42979 53.2162932,329.529773 53.0613209,329.659749 C52.9063486,329.789726 52.7313798,329.919703 52.5364147,330.04968 C52.3414495,330.179656 52.1664807,330.292136 52.0115084,330.387119 C51.8565361,330.482102 51.7490553,330.529594 51.689066,330.529594 Z M58.4078662,332.584227 C58.4578573,332.584227 58.5128474,332.526737 58.5728367,332.411758 C58.632826,332.296778 58.7428064,332.114311 58.9027778,331.864356 C59.192726,331.104491 59.2677126,330.754554 59.1277376,330.814543 C59.0877448,330.814543 59.0477519,330.819542 59.0077591,330.82954 C58.9677662,330.839539 58.9227742,330.839539 58.8727832,330.82954 C58.8327903,330.839539 58.8077948,330.819542 58.7977965,330.769551 C58.7877983,330.71956 58.7778001,330.604581 58.7678019,330.424613 C58.817793,330.294636 58.8652845,330.154661 58.9102765,330.004688 C58.9552684,329.854715 58.9777644,329.739735 58.9777644,329.659749 C59.0177573,329.589762 59.0502515,329.524773 59.075247,329.464784 C59.1002425,329.404795 59.0927439,329.354804 59.052751,329.314811 C59.052751,329.314811 59.0702479,329.287316 59.1052416,329.232326 C59.1402354,329.177335 59.1827278,329.134843 59.2327189,329.104848 C59.3127046,329.044859 59.3277019,328.954875 59.2777108,328.834897 C59.2777108,328.774907 59.2977073,328.744913 59.3377001,328.744913 C59.3377001,328.744913 59.3751934,328.674925 59.4501801,328.53495 C59.5251667,328.394975 59.5926546,328.240003 59.6526439,328.070033 C59.7226314,327.930058 59.7901193,327.800081 59.8551077,327.680103 C59.9200961,327.560124 59.9525903,327.47014 59.9525903,327.410151 C59.9725868,327.390155 60.0075805,327.327666 60.0575716,327.222685 C60.1075627,327.117703 60.1675519,327.000224 60.2375395,326.870247 L60.2375395,326.870247 L60.4924939,326.360339 L61.287352,326.285352 C61.5173109,326.275354 61.7097766,326.242859 61.8647489,326.187869 C62.0197212,326.132879 62.1222029,326.105384 62.172194,326.105384 C62.2821743,326.055393 62.3271663,325.96041 62.3071699,325.820435 C62.2871734,325.68046 62.2371824,325.560481 62.1571967,325.460499 C62.0572145,325.410508 61.9697301,325.39801 61.8947435,325.423006 C61.8197569,325.448001 61.6872806,325.470497 61.4973145,325.490494 C61.2673556,325.500492 61.102385,325.507991 61.0024029,325.51299 C60.9024207,325.517989 60.8424314,325.470497 60.822435,325.370515 C60.8624279,325.370515 60.917418,325.303027 60.9874055,325.168051 C61.057393,325.033076 61.1323797,324.880603 61.2123654,324.710633 C61.24236,324.550662 61.2998498,324.39319 61.3848346,324.238217 C61.4698194,324.083245 61.5423065,323.970765 61.6022957,323.900778 C61.6222922,323.83079 61.6522868,323.743306 61.6922797,323.638325 C61.7322725,323.533343 61.7622672,323.460856 61.7822636,323.420863 C61.9022422,323.310883 61.9172395,323.200903 61.8272556,323.090922 C61.7372716,322.980942 61.6272913,322.885959 61.4973145,322.805973 C61.3473413,322.705991 61.2498587,322.656 61.2048667,322.656 C61.1598747,322.656 61.0823886,322.700992 60.9724082,322.790976 C60.9524118,322.830969 60.8974216,322.93345 60.8074377,323.098421 C60.7174538,323.263392 60.6124725,323.445859 60.4924939,323.645823 C60.4724975,323.825791 60.4175073,323.99826 60.3275234,324.163231 C60.2375395,324.328201 60.1925475,324.410687 60.1925475,324.410687 C60.1625528,324.600653 60.1100622,324.768123 60.0350756,324.913097 C59.960089,325.058071 59.8676055,325.23054 59.7576251,325.430505 L59.7576251,325.430505 L59.7126332,325.685459 L58.9477698,325.745448 C58.677818,325.775443 58.4803532,325.797939 58.3553756,325.812936 C58.2303979,325.827934 58.1304157,325.835432 58.0554291,325.835432 C57.9804425,325.835432 57.8779608,325.840431 57.747984,325.85043 C57.5480197,325.860428 57.4305407,325.897921 57.3955469,325.962909 C57.3605532,326.027898 57.4030456,326.13038 57.5230242,326.270355 C57.6430028,326.340342 57.7954755,326.385334 57.9804425,326.40533 C58.1654095,326.425327 58.4128653,326.440324 58.7228099,326.450322 C58.9227742,326.440324 59.1127403,326.445323 59.2927082,326.46532 C59.472676,326.485316 59.5126689,326.52031 59.4126867,326.570301 C59.3926903,326.610294 59.3501979,326.695279 59.2852095,326.825255 C59.2202211,326.955232 59.1527332,327.100206 59.0827457,327.260178 C59.0127582,327.420149 58.9527689,327.560124 58.9027778,327.680103 C58.8527867,327.800081 58.8277912,327.870069 58.8277912,327.890065 C58.7977965,327.980049 58.7378073,328.105027 58.6478233,328.264998 C58.5578394,328.42497 58.4778537,328.577443 58.4078662,328.722417 C58.3378787,328.867391 58.3128831,328.959874 58.3328796,328.999867 C58.3828706,329.059856 58.3803711,329.112347 58.3253809,329.157339 C58.2703907,329.202331 58.2179001,329.249823 58.167909,329.299814 C58.117918,329.349805 58.117918,329.414793 58.167909,329.494779 C58.167909,329.494779 58.1504122,329.537271 58.1154184,329.622256 C58.0804246,329.707241 58.0529296,329.779728 58.0329331,329.839717 C57.9429492,330.069676 57.8979572,330.249644 57.8979572,330.379621 C57.9279519,330.409615 57.9354505,330.43961 57.9204532,330.469605 C57.9054559,330.499599 57.8979572,330.514597 57.8979572,330.514597 C57.8279697,330.55459 57.7854773,330.652072 57.77048,330.807044 C57.7554827,330.962017 57.7179894,331.134486 57.6580001,331.324452 C57.5980108,331.724381 57.6255059,332.021828 57.7404854,332.216793 C57.8554648,332.411758 58.0779251,332.534236 58.4078662,332.584227 Z M66.2964575,331.549412 C66.3764432,331.549412 66.4764254,331.469426 66.5964039,331.309455 C66.6663914,331.219471 66.7163825,331.126987 66.7463772,331.032004 C66.7763718,330.937021 66.7913691,330.88953 66.7913691,330.88953 C66.7913691,330.859535 66.808866,330.767052 66.8438598,330.612079 C66.8788535,330.457107 66.9213459,330.294636 66.971337,330.124666 C67.0213281,329.954697 67.0713191,329.844716 67.1213102,329.794725 C67.2012959,329.664748 67.2762825,329.54477 67.34627,329.43479 C67.4162575,329.324809 67.486245,329.229826 67.5562325,329.14984 C67.8761754,328.799903 68.208616,328.519953 68.5535544,328.30999 C68.8984929,328.100028 69.2609281,327.885066 69.6408603,327.665106 C69.7808353,327.605116 69.9008139,327.555125 70.000796,327.515132 C70.1007782,327.475139 70.2157576,327.450144 70.3457344,327.440146 C70.5057058,327.430147 70.6381822,327.41765 70.7431634,327.402652 C70.8481447,327.387655 70.9006353,327.345163 70.9006353,327.275175 C70.9006353,327.275175 70.8981358,327.260178 70.8931367,327.230183 C70.8881376,327.200189 70.8656416,327.185191 70.8256487,327.185191 C70.8256487,327.185191 70.7981536,327.165195 70.7431634,327.125202 C70.6881733,327.085209 70.6556791,327.02522 70.6456809,326.945234 C70.5856916,326.795261 70.4357183,326.705277 70.1957612,326.675282 C69.955804,326.645288 69.720846,326.68528 69.4908871,326.795261 C69.4508942,326.815257 69.3784072,326.842752 69.2734259,326.877746 C69.1684446,326.91274 69.0759612,326.955232 68.9959754,327.005223 C68.9359862,327.035218 68.8260058,327.105205 68.6660344,327.215186 C68.5060629,327.325166 68.3360933,327.450144 68.1561254,327.590119 C67.9761576,327.730094 67.8061879,327.872568 67.6462165,328.017543 C67.486245,328.162517 67.3762647,328.289994 67.3162754,328.399974 C67.1962968,328.47996 67.1538044,328.467462 67.1887982,328.362481 C67.2237919,328.2575 67.3362718,328.000046 67.5262379,327.590119 C67.7561968,327.110205 67.9086696,326.757768 67.9836562,326.532808 C68.0586428,326.307848 68.0411459,326.150376 67.9311656,326.060392 C67.8511799,325.980406 67.7536973,325.935414 67.6387178,325.925416 C67.5237383,325.915418 67.4262558,325.940413 67.34627,326.000403 C67.2462879,326.150376 67.1263093,326.377835 66.9863343,326.682781 C66.8463593,326.987726 66.7063843,327.310169 66.5664093,327.650108 C66.4264343,327.990047 66.3089553,328.304991 66.2139722,328.594939 C66.1189892,328.884888 66.0614995,329.089851 66.041503,329.20983 C65.9715155,329.48978 65.9115262,329.737235 65.8615352,329.952197 C65.8115441,330.167159 65.7715512,330.414615 65.7415566,330.694565 C65.7115619,330.894529 65.7140615,331.029505 65.7490553,331.099492 C65.784049,331.16948 65.8465378,331.239467 65.9365218,331.309455 C66.0964932,331.469426 66.2164718,331.549412 66.2964575,331.549412 Z M72.7986964,331.633707 L72.9627671,331.624399 C73.237718,331.594404 73.4801747,331.489423 73.6901372,331.309455 C73.9100979,331.16948 74.100064,331.017007 74.2600354,330.852036 C74.4200069,330.687066 74.5274877,330.544591 74.5824779,330.424613 C74.637468,330.304634 74.6149721,330.244645 74.5149899,330.244645 C74.474997,330.224648 74.4350042,330.192154 74.3950113,330.147162 C74.3550185,330.10217 74.3100265,330.079674 74.2600354,330.079674 C74.2100444,330.079674 74.1650524,330.097171 74.1250595,330.132165 C74.0850667,330.167159 74.0300765,330.219649 73.960089,330.289637 L73.960089,330.289637 L73.7726225,330.477103 C73.7476269,330.502099 73.7151327,330.522095 73.6751399,330.537093 C73.635147,330.55209 73.5351649,330.60958 73.3751934,330.709562 C73.2052238,330.809544 73.0627492,330.852036 72.9477698,330.837039 C72.8327903,330.822042 72.6753184,330.794547 72.4753541,330.754554 C72.3053845,330.724559 72.1704086,330.622077 72.0704264,330.447109 C71.9704443,330.27214 71.9404496,329.99469 71.9804425,329.614757 C72.0304336,329.214829 72.0854238,328.962374 72.145413,328.857393 C72.2054023,328.752411 72.33038,328.739914 72.5203461,328.819899 C72.6903157,328.939878 72.9052774,329.004866 73.1652309,329.014864 C73.4251845,329.024863 73.6651417,328.994868 73.8851024,328.924881 C74.2950292,328.724916 74.6274698,328.467462 74.8824243,328.152518 C75.1373788,327.837575 75.2848524,327.570122 75.3248453,327.350162 C75.3248453,327.210187 75.2998498,327.067712 75.2498587,326.922738 C75.1998676,326.777764 75.0998855,326.63029 74.9499122,326.480317 C74.8799247,326.380335 74.7874413,326.300349 74.6724618,326.24036 C74.5574823,326.180371 74.3850131,326.135379 74.1550542,326.105384 C73.9350935,326.085388 73.7726225,326.07289 73.6676412,326.067891 C73.56266,326.062892 73.4351827,326.110383 73.2852095,326.210365 C72.9752649,326.330344 72.6628207,326.545305 72.3478769,326.85525 C72.0329331,327.165195 71.7654809,327.517632 71.5455202,327.912561 C71.3255594,328.307491 71.2005818,328.699921 71.1705871,329.089851 C71.1305943,329.549769 71.1355934,329.922202 71.1855844,330.207152 C71.2355755,330.492101 71.3455559,330.744556 71.5155255,330.964516 C71.6854952,331.204473 71.9004568,331.381942 72.1604104,331.496921 C72.4203639,331.611901 72.6878162,331.654393 72.9627671,331.624399 L72.7986964,331.633707 Z M73.2477162,328.220006 C73.0727474,328.230005 72.9152756,328.222506 72.7753006,328.19751 C72.6353256,328.172515 72.5503407,328.135022 72.5203461,328.085031 C72.5003497,328.065034 72.5278448,328.000046 72.6028314,327.890065 C72.677818,327.780085 72.7778001,327.655107 72.9027778,327.515132 C73.0277555,327.375157 73.1602318,327.24768 73.3002068,327.132701 C73.4401818,327.017721 73.5651595,326.945234 73.6751399,326.915239 C73.9350935,326.845252 74.1300586,326.85775 74.2600354,326.952733 C74.3900122,327.047716 74.4550006,327.165195 74.4550006,327.30517 C74.4550006,327.435147 74.3650167,327.587619 74.1850488,327.762588 C74.005081,327.937557 73.8351113,328.060035 73.6751399,328.130022 C73.5651595,328.180014 73.422685,328.210008 73.2477162,328.220006 Z M77.1416209,334.655657 L77.2145078,334.653858 C77.3844775,334.633861 77.5744436,334.551376 77.7844061,334.406402 C77.9943686,334.261428 78.1743365,334.063963 78.3243097,333.814007 C78.4642847,333.644038 78.5667664,333.486566 78.6317548,333.341592 C78.6967432,333.196618 78.7492338,332.979157 78.7892266,332.689208 C78.8792106,332.459249 78.9616959,332.216793 79.0366825,331.961838 C79.1116691,331.706884 79.1541615,331.549412 79.1641597,331.489423 C79.1741579,331.429433 79.201653,331.291958 79.246645,331.076996 C79.2916369,330.862035 79.3441276,330.619578 79.4041168,330.349626 C79.4641061,330.079674 79.5165968,329.837218 79.5615887,329.622256 C79.6065807,329.407294 79.6340758,329.274818 79.644074,329.224827 C79.7540544,329.09485 79.8215423,328.999867 79.8465378,328.939878 C79.8715334,328.879889 79.8840311,328.829898 79.8840311,328.789905 C79.8840311,328.749912 79.9415209,328.689923 80.0565004,328.609937 C80.1714798,328.529951 80.2689624,328.494957 80.3489481,328.504956 C80.4289338,328.514954 80.5114191,328.414972 80.5964039,328.205009 C80.6813888,327.995047 80.7288803,327.780085 80.7388785,327.560124 C80.7288803,327.300171 80.6438955,327.032718 80.483924,326.757768 C80.3239526,326.482817 80.1339865,326.300349 79.9140258,326.210365 C79.8040454,326.160374 79.7165611,326.117882 79.6515727,326.082888 C79.5865843,326.047894 79.5540901,326.030397 79.5540901,326.030397 L79.5540901,326.030397 L79.4566075,326.030397 C79.3916191,326.030397 79.3241311,326.025398 79.2541436,326.0154 C79.0141865,326.035397 78.7542329,326.13038 78.4742829,326.300349 C78.1943329,326.470319 77.8793891,326.715275 77.5294516,327.035218 C76.9995462,327.455143 76.7245953,327.710097 76.7045989,327.800081 C76.7045989,327.900064 76.6796034,327.950055 76.6296123,327.950055 C76.6096159,327.950055 76.5571252,328.012543 76.4721404,328.137521 C76.3871556,328.262499 76.2921726,328.414972 76.1871913,328.594939 C76.08221,328.774907 75.9897266,328.944877 75.9097408,329.104848 C75.8297551,329.26482 75.7847632,329.384798 75.7747649,329.464784 C75.7547685,329.624756 75.7997605,329.807223 75.9097408,330.012186 C76.0197212,330.21715 76.1247025,330.344627 76.2246846,330.394618 C76.3746578,330.444609 76.5846203,330.459606 76.8545721,330.43961 C77.1245239,330.419614 77.3994748,330.364623 77.6794248,330.27464 C77.7594105,330.224648 77.8768896,330.15966 78.0318619,330.079674 C78.1868342,329.999689 78.3293088,329.924702 78.4592856,329.854715 C78.5892624,329.784727 78.6542508,329.749733 78.6542508,329.749733 C78.6842454,329.76973 78.6992427,329.804723 78.6992427,329.854715 C78.6992427,329.904706 78.6817458,330.007187 78.6467521,330.16216 C78.6117583,330.317132 78.5492695,330.574586 78.4592856,330.934522 C78.3892981,331.254465 78.3318083,331.50442 78.2868164,331.684388 C78.2418244,331.864356 78.1968324,332.026827 78.1518405,332.171801 C78.1068485,332.316775 78.0443597,332.499242 77.9643739,332.719203 C77.8343972,333.029148 77.6869235,333.286602 77.5219529,333.491565 C77.3569824,333.696528 77.1495195,333.819007 76.8995641,333.858999 C76.7895837,333.868998 76.6346114,333.811508 76.4346471,333.68653 C76.2346828,333.561553 76.0697123,333.414079 75.9397355,333.244109 C75.8897444,333.164124 75.7922618,333.099135 75.6472877,333.049144 C75.5023136,332.999153 75.4248274,333.01415 75.4148292,333.094136 C75.404831,333.18412 75.4373252,333.316596 75.5123118,333.491565 C75.5872984,333.666534 75.6897801,333.839003 75.8197569,334.008973 C75.9497337,334.178942 76.0797105,334.313918 76.2096873,334.4139 C76.3196676,334.463891 76.4871377,334.518882 76.7120976,334.578871 C76.9370574,334.63886 77.1045275,334.663856 77.2145078,334.653858 L77.1416209,334.655657 Z M77.0045453,329.71224 C76.75459,329.747234 76.6196141,329.71474 76.5996177,329.614757 C76.569623,329.474782 76.6171145,329.304813 76.7420922,329.104848 C76.8670699,328.904884 77.03454,328.689923 77.2445025,328.459964 C77.454465,328.230005 77.6744257,328.010044 77.9043847,327.800081 C78.1943329,327.540128 78.4392891,327.320167 78.6392534,327.140199 C78.8392177,326.960231 79.0141865,326.91024 79.1641597,326.990226 C79.3041347,327.060214 79.4191142,327.155197 79.5090981,327.275175 C79.599082,327.395154 79.6490731,327.490137 79.6590713,327.560124 C79.689066,327.780085 79.6490731,327.92006 79.5390927,327.980049 C79.409116,327.930058 79.3091338,327.910062 79.2391463,327.92006 C79.1991534,327.930058 79.156661,327.962552 79.1116691,328.017543 C79.0666771,328.072533 79.039182,328.120024 79.0291838,328.160017 C78.9691945,328.349983 78.9192034,328.494957 78.8792106,328.594939 C78.8392177,328.694922 78.7892266,328.794904 78.7292374,328.894886 C78.6592499,329.024863 78.5342722,329.124845 78.3543043,329.194832 C78.1743365,329.26482 77.9743722,329.354804 77.7544114,329.464784 C77.5044561,329.594761 77.2545007,329.677246 77.0045453,329.71224 Z M84.7164495,331.82405 L84.7731581,331.804366 C84.8031527,331.804366 84.863142,331.78187 84.953126,331.736878 C85.0431099,331.691886 85.1155969,331.634397 85.1705871,331.564409 C85.2255773,331.494422 85.2080804,331.429433 85.1180965,331.369444 C85.0581072,331.319453 85.0056166,331.256964 84.9606246,331.181978 C84.9156326,331.106991 84.8781393,331.039503 84.8481447,330.979514 C84.8081518,330.899528 84.7806568,330.767052 84.7656594,330.582085 C84.7506621,330.397118 84.7531617,330.234647 84.7731581,330.094672 C84.8531438,329.664748 84.9856202,329.242324 85.1705871,328.827398 C85.3555541,328.412472 85.5430206,327.990047 85.7329867,327.560124 C85.7729796,327.47014 85.8354684,327.327666 85.9204532,327.132701 C86.005438,326.937735 86.0679269,326.790262 86.1079197,326.69028 C86.1079197,326.640289 86.1029206,326.597796 86.0929224,326.562802 C86.0829242,326.527809 86.0379322,326.490315 85.9579465,326.450322 C85.8779608,326.370337 85.8079733,326.325345 85.747984,326.315347 L85.747984,326.315347 L85.5380215,326.315347 C85.4380394,326.345341 85.3530545,326.40783 85.283067,326.502813 C85.2130795,326.597796 85.1080983,326.775264 84.9681233,327.035218 C84.9281304,327.1352 84.8356469,327.30517 84.6906728,327.545127 C84.5456987,327.785084 84.4082233,328.005045 84.2782465,328.205009 C84.1082768,328.484959 83.9408067,328.749912 83.7758362,328.999867 C83.6108656,329.249823 83.4233991,329.479781 83.2134366,329.689744 C83.0334687,329.859714 82.8460022,330.002188 82.651037,330.117168 C82.4560719,330.232147 82.2886018,330.289637 82.1486268,330.289637 C82.1086339,330.289637 82.1036348,330.207152 82.1336294,330.042181 C82.1636241,329.87721 82.2186143,329.664748 82.2986,329.404795 C82.3785857,329.144841 82.4710692,328.874889 82.5760504,328.594939 C82.6810317,328.314989 82.791012,328.055036 82.9059915,327.815079 C83.020971,327.575122 83.1234527,327.395154 83.2134366,327.275175 C83.2934223,327.205188 83.3359147,327.145198 83.3409138,327.095207 C83.345913,327.045216 83.3284161,326.985227 83.2884232,326.915239 C83.1584464,326.585298 83.0184714,326.420328 82.8684982,326.420328 C82.7485196,326.420328 82.6110442,326.525309 82.4560719,326.735272 C82.3010995,326.945234 82.1511263,327.220185 82.0061522,327.560124 C81.8611781,327.900064 81.7337009,328.259999 81.6237205,328.639931 C81.5137401,329.019864 81.436254,329.382299 81.391262,329.727237 C81.34627,330.072176 81.3537687,330.354625 81.413758,330.574586 C81.4837455,330.764552 81.5812281,330.937021 81.7062058,331.091994 C81.8311834,331.246966 81.9486625,331.324452 82.0586428,331.324452 C82.1986178,331.33445 82.3810852,331.269462 82.6060451,331.129487 C82.8310049,330.989512 83.0684625,330.794547 83.3184179,330.544591 C83.6383607,330.224648 83.8308264,330.059678 83.8958148,330.04968 C83.9608032,330.039681 83.9882982,330.179656 83.9783,330.469605 C83.9783,330.71956 83.9907978,330.914525 84.0157933,331.0545 C84.0407889,331.194475 84.0882804,331.324452 84.1582679,331.444431 C84.2682483,331.584406 84.3807282,331.689387 84.4957076,331.759374 C84.6106871,331.829362 84.7031706,331.844359 84.7731581,331.804366 L84.7164495,331.82405 Z M86.8127939,331.969337 C86.9527689,332.00933 87.0577501,331.994332 87.1277376,331.924345 C87.1977251,331.854357 87.2477162,331.714382 87.2777108,331.50442 C87.2777108,331.494422 87.2802104,331.484423 87.2852095,331.474425 C87.2902086,331.464427 87.2927082,331.454429 87.2927082,331.444431 C87.3127046,331.124488 87.3476984,330.819542 87.3976894,330.529594 C87.4476805,330.239646 87.4926725,330.014686 87.5326653,329.854715 C87.5326653,329.844716 87.5351649,329.832219 87.540164,329.817221 C87.5451631,329.802224 87.5476626,329.789726 87.5476626,329.779728 C87.5776573,329.749733 87.5976537,329.70974 87.6076519,329.659749 C87.6176501,329.609758 87.6326475,329.554768 87.6526439,329.494779 L87.6526439,329.494779 L87.7426278,329.20983 L87.8776037,328.879889 L87.9525903,328.564945 L88.2075448,327.6951 C88.2375395,327.645109 88.2675341,327.58512 88.2975287,327.515132 C88.3275234,327.445145 88.357518,327.375157 88.3875127,327.30517 C88.3875127,327.285173 88.3975109,327.255179 88.4175073,327.215186 L88.4175073,327.215186 L88.4924939,326.990226 C88.5524832,326.840253 88.6474662,326.625291 88.777443,326.345341 C88.9074198,326.065391 89.0448953,325.775443 89.1898694,325.475497 C89.3348435,325.17555 89.4648203,324.913097 89.5797998,324.688137 C89.6947792,324.463177 89.7672663,324.330701 89.7972609,324.290708 C89.8272556,324.260713 89.8547507,324.215721 89.8797462,324.155732 C89.9047417,324.095743 89.9272377,324.040753 89.9472341,323.990762 C89.9672306,323.960767 89.9922261,323.913275 90.0222208,323.848287 C90.0522154,323.783299 90.0572145,323.760803 90.0372181,323.780799 L90.0372181,323.780799 L90.0222208,323.780799 C90.1022065,323.700813 90.1446989,323.628326 90.149698,323.563338 C90.1546971,323.49835 90.1571967,323.390869 90.1571967,323.240896 C90.1571967,323.100921 90.1471984,323.010937 90.127202,322.970944 C90.1072056,322.930951 90.0272199,322.910954 89.8872449,322.910954 C89.7972609,322.910954 89.7147757,322.918453 89.639789,322.93345 C89.5648024,322.948448 89.5023136,323.000938 89.4523225,323.090922 L89.4523225,323.090922 L89.4673198,323.10592 C89.427327,323.145913 89.3673377,323.228398 89.287352,323.353375 C89.2073663,323.478353 89.147377,323.585834 89.1073841,323.675818 C89.0673913,323.745805 89.0024029,323.860785 88.9124189,324.020756 C88.822435,324.180728 88.7474484,324.325702 88.6874591,324.455679 L88.6874591,324.455679 L88.6274698,324.620649 C88.5774787,324.720631 88.5324868,324.803117 88.4924939,324.868105 C88.4525011,324.933093 88.4225064,324.985584 88.40251,325.025577 C88.3425207,325.115561 88.307527,325.220542 88.2975287,325.340521 C88.2875305,325.370515 88.2725332,325.408009 88.2525368,325.453001 C88.2325403,325.497993 88.217543,325.535486 88.2075448,325.56548 C88.0975644,325.715454 87.9725868,325.952911 87.8326118,326.277853 C87.6926368,326.602795 87.5376644,327.000224 87.3676948,327.47014 C87.3277019,327.580121 87.2877091,327.692601 87.2477162,327.80758 C87.2077233,327.92256 87.1877269,327.980049 87.1877269,327.980049 C87.1777287,328.020042 87.1327367,328.172515 87.052751,328.437468 C86.9727653,328.70242 86.8977787,328.964873 86.8277912,329.224827 L86.8277912,329.224827 L86.7228099,329.629755 C86.7228099,329.579764 86.7178108,329.577264 86.7078126,329.622256 C86.6978144,329.667248 86.6853166,329.729737 86.6703193,329.809723 C86.655322,329.889708 86.6428242,329.949698 86.632826,329.98969 C86.632826,329.999689 86.6303265,330.017186 86.6253273,330.042181 C86.6203282,330.067177 86.6178287,330.089673 86.6178287,330.109669 C86.5678376,330.369623 86.5228456,330.599582 86.4828528,330.799546 C86.4428599,330.99951 86.4228635,331.159482 86.4228635,331.27946 C86.4328617,331.659392 86.5628385,331.889351 86.8127939,331.969337 Z M90.1523975,331.352079 L90.2621779,331.339449 C90.4121511,331.339449 90.5846203,331.296957 90.7795855,331.211972 C90.9745507,331.126987 91.0720333,331.049501 91.0720333,330.979514 L91.0720333,330.979514 L91.2220065,330.979514 C91.2619994,330.979514 91.2994927,330.964516 91.3344864,330.934522 C91.3694802,330.904527 91.4019744,330.869533 91.431969,330.82954 C91.4719619,330.789548 91.5544471,330.71956 91.6794248,330.619578 C91.8044025,330.519596 91.9218815,330.414615 92.0318619,330.304634 L92.0318619,330.304634 L92.4667842,330.019685 L92.5417708,330.169658 C92.5817637,330.309633 92.664249,330.474604 92.7892266,330.66457 C92.9142043,330.854536 93.0516798,331.004509 93.201653,331.11449 C93.3516262,331.22447 93.5640883,331.27946 93.8390392,331.27946 C94.1139901,331.27946 94.3414495,331.22447 94.5214173,331.11449 C94.601403,331.044502 94.6588928,330.992011 94.6938865,330.957018 L94.6938865,330.957018 L94.7463772,330.904527 C94.7463772,330.854536 94.8213638,330.754554 94.971337,330.604581 C95.0413245,330.4946 95.0763182,330.394618 95.0763182,330.304634 C95.0763182,330.21465 95.0413245,330.169658 94.971337,330.169658 C94.9313441,330.169658 94.8963504,330.157161 94.8663557,330.132165 C94.8363611,330.107169 94.8213638,330.094672 94.8213638,330.094672 C94.8213638,330.014686 94.7713727,330.007187 94.6713905,330.072176 C94.5714084,330.137164 94.4664271,330.209651 94.3564468,330.289637 C94.1364861,330.509598 93.9215245,330.599582 93.7115619,330.559589 C93.5015994,330.519596 93.3566253,330.389619 93.2766396,330.169658 C93.2366468,330.019685 93.2341472,329.827219 93.269141,329.592261 C93.3041347,329.357303 93.3566253,329.129844 93.4266128,328.909883 C93.4666057,328.839896 93.4891017,328.787405 93.4941008,328.752411 C93.4990999,328.717418 93.5015994,328.699921 93.5015994,328.699921 C93.4616066,328.699921 93.481603,328.64993 93.5615887,328.549948 C93.6015816,328.509955 93.6315762,328.452465 93.6515727,328.377478 C93.6715691,328.302492 93.6415744,328.140021 93.5615887,327.890065 C93.5315941,327.700099 93.4966003,327.53013 93.4566075,327.380156 C93.4166146,327.230183 93.3566253,327.08021 93.2766396,326.930237 C93.1666593,326.780264 93.0766753,326.680281 93.0066878,326.63029 C92.9367003,326.580299 92.8317191,326.535307 92.6917441,326.495314 C92.4717833,326.385334 92.3243097,326.332843 92.2493231,326.337843 C92.1743365,326.342842 92.0518583,326.395332 91.8818887,326.495314 C91.661928,326.585298 91.4244704,326.752768 91.1695159,326.997725 C90.9145614,327.242681 90.6696052,327.53013 90.4346471,327.860071 C90.1996891,328.190012 89.9897266,328.532451 89.8047596,328.887387 C89.6197926,329.242324 89.4798176,329.577264 89.3848346,329.892208 C89.2898515,330.207152 89.2623564,330.469605 89.3023493,330.679567 C89.3423422,330.859535 89.4673198,331.024506 89.6772824,331.174479 C89.8872449,331.324452 90.08221,331.379442 90.2621779,331.339449 L90.1523975,331.352079 Z M90.1122047,330.529594 C90.1122047,330.529594 90.0997069,330.514597 90.0747114,330.484602 C90.0497158,330.454607 90.0372181,330.419614 90.0372181,330.379621 C90.0372181,330.249644 90.0922083,330.069676 90.2021886,329.839717 C90.312169,329.609758 90.452144,329.359803 90.6221136,329.089851 C90.7920833,328.819899 90.9745507,328.557446 91.1695159,328.302492 C91.3644811,328.047537 91.549448,327.822577 91.7244168,327.627612 C91.8993855,327.432647 92.0468592,327.300171 92.1668378,327.230183 C92.3568039,327.150197 92.4817815,327.115204 92.5417708,327.125202 C92.6017601,327.1352 92.6517512,327.195189 92.6917441,327.30517 C92.8017244,327.485138 92.8117226,327.732593 92.7217387,328.047537 C92.6317548,328.362481 92.4717833,328.64993 92.2418244,328.909883 C92.1718369,328.979871 92.0918512,329.062356 92.0018672,329.157339 C91.9118833,329.252322 91.8468949,329.31981 91.8069021,329.359803 C91.7469128,329.42979 91.639432,329.529773 91.4844596,329.659749 C91.3294873,329.789726 91.1545186,329.919703 90.9595534,330.04968 C90.7645882,330.179656 90.5896194,330.292136 90.4346471,330.387119 C90.2796748,330.482102 90.172194,330.529594 90.1122047,330.529594 Z M96.1261308,331.549412 C96.2061165,331.549412 96.3060986,331.469426 96.4260772,331.309455 C96.4960647,331.219471 96.5460558,331.126987 96.5760504,331.032004 C96.6060451,330.937021 96.6210424,330.88953 96.6210424,330.88953 C96.6210424,330.859535 96.6385393,330.767052 96.673533,330.612079 C96.7085268,330.457107 96.7510192,330.294636 96.8010103,330.124666 C96.8510013,329.954697 96.9009924,329.844716 96.9509835,329.794725 C97.0309692,329.664748 97.1059558,329.54477 97.1759433,329.43479 C97.2459308,329.324809 97.3159183,329.229826 97.3859058,329.14984 C97.7058487,328.799903 98.0382893,328.519953 98.3832277,328.30999 C98.7281661,328.100028 99.0906014,327.885066 99.4705336,327.665106 C99.6105086,327.605116 99.7304871,327.555125 99.8304693,327.515132 C99.9304514,327.475139 100.045431,327.450144 100.175408,327.440146 C100.335379,327.430147 100.467855,327.41765 100.572837,327.402652 C100.677818,327.387655 100.730309,327.345163 100.730309,327.275175 C100.730309,327.275175 100.727809,327.260178 100.72281,327.230183 C100.717811,327.200189 100.695315,327.185191 100.655322,327.185191 C100.655322,327.185191 100.627827,327.165195 100.572837,327.125202 C100.517847,327.085209 100.485352,327.02522 100.475354,326.945234 C100.415365,326.795261 100.265392,326.705277 100.025434,326.675282 C99.7854773,326.645288 99.5505193,326.68528 99.3205603,326.795261 C99.2805675,326.815257 99.2080804,326.842752 99.1030992,326.877746 C98.9981179,326.91274 98.9056344,326.955232 98.8256487,327.005223 C98.7656594,327.035218 98.6556791,327.105205 98.4957076,327.215186 C98.3357362,327.325166 98.1657666,327.450144 97.9857987,327.590119 C97.8058308,327.730094 97.6358612,327.872568 97.4758897,328.017543 C97.3159183,328.162517 97.205938,328.289994 97.1459487,328.399974 C97.0259701,328.47996 96.9834777,328.467462 97.0184714,328.362481 C97.0534652,328.2575 97.1659451,328.000046 97.3559112,327.590119 C97.5858701,327.110205 97.7383429,326.757768 97.8133295,326.532808 C97.8883161,326.307848 97.8708192,326.150376 97.7608389,326.060392 C97.6808531,325.980406 97.5833706,325.935414 97.4683911,325.925416 C97.3534116,325.915418 97.255929,325.940413 97.1759433,326.000403 C97.0759612,326.150376 96.9559826,326.377835 96.8160076,326.682781 C96.6760326,326.987726 96.5360576,327.310169 96.3960826,327.650108 C96.2561076,327.990047 96.1386285,328.304991 96.0436455,328.594939 C95.9486625,328.884888 95.8911727,329.089851 95.8711763,329.20983 C95.8011888,329.48978 95.7411995,329.737235 95.6912084,329.952197 C95.6412174,330.167159 95.6012245,330.414615 95.5712299,330.694565 C95.5412352,330.894529 95.5437348,331.029505 95.5787285,331.099492 C95.6137223,331.16948 95.6762111,331.239467 95.766195,331.309455 C95.9261665,331.469426 96.0461451,331.549412 96.1261308,331.549412 Z M111.25093,331.969337 C111.335915,332.019328 111.403403,332.024327 111.453394,331.984334 C111.503385,331.944341 111.553376,331.83936 111.603367,331.66939 C111.653358,331.499421 111.718346,331.304456 111.798332,331.084495 C111.828327,330.934522 111.873319,330.742056 111.933308,330.507098 C111.993297,330.27214 112.060785,330.032183 112.135772,329.787227 C112.210759,329.54227 112.283246,329.339806 112.353233,329.179835 C112.423221,328.909883 112.485709,328.697421 112.5407,328.542449 C112.59569,328.387477 112.655679,328.225006 112.720667,328.055036 C112.785656,327.885066 112.858143,327.645109 112.938129,327.335164 C112.998118,327.125202 113.075604,326.872747 113.170587,326.5778 C113.26557,326.282852 113.365552,325.982906 113.470534,325.67796 C113.575515,325.373015 113.672997,325.103063 113.762981,324.868105 C113.852965,324.633147 113.917954,324.470676 113.957947,324.380692 C114.077925,324.130737 114.10792,323.970765 114.04793,323.900778 C114.037932,323.810794 113.972944,323.725809 113.852965,323.645823 C113.732987,323.565838 113.653001,323.520846 113.613008,323.510847 C113.573015,323.500849 113.425542,323.565838 113.170587,323.705813 C112.915633,323.845788 112.603188,324.030755 112.233255,324.260713 C111.883317,324.520667 111.558375,324.755625 111.258429,324.965588 C110.958482,325.17555 110.783513,325.310526 110.733522,325.370515 C110.643538,325.430505 110.558554,325.495493 110.478568,325.56548 C110.398582,325.635468 110.343592,325.670462 110.313597,325.670462 C110.253608,325.700456 110.136129,325.777943 109.96116,325.90292 C109.786191,326.027898 109.616222,326.147876 109.451251,326.262856 C109.286281,326.377835 109.188798,326.440324 109.158804,326.450322 C109.038825,326.660285 109.118811,326.885245 109.398761,327.125202 C109.488745,327.175193 109.563731,327.187691 109.62372,327.162695 C109.68371,327.1377 109.84868,327.020221 110.118632,326.810258 C110.2986,326.700278 110.506063,326.555304 110.741021,326.375336 C110.975979,326.195368 111.178443,326.055393 111.348413,325.955411 C111.558375,325.795439 111.773337,325.647966 111.993297,325.51299 C112.213258,325.378014 112.395725,325.268034 112.5407,325.183049 C112.685674,325.098064 112.758161,325.055572 112.758161,325.055572 C112.758161,325.055572 112.728166,325.173051 112.668177,325.408009 C112.608188,325.642967 112.533201,325.90542 112.443217,326.195368 C112.343235,326.505313 112.243253,326.825255 112.143271,327.155197 C112.043288,327.485138 111.973301,327.720096 111.933308,327.860071 C111.813329,328.259999 111.705849,328.599939 111.610866,328.879889 C111.515883,329.159839 111.443396,329.309812 111.393404,329.329808 C111.393404,329.329808 111.373408,329.397296 111.333415,329.532272 C111.293422,329.667248 111.24843,329.834718 111.198439,330.034682 C111.148448,330.234647 111.103456,330.434611 111.063463,330.634575 C111.003474,330.94452 110.958482,331.16948 110.928487,331.309455 C110.898493,331.44943 110.888495,331.546912 110.898493,331.601903 C110.908491,331.656893 110.933487,331.704384 110.973479,331.744377 C111.073462,331.844359 111.165945,331.919346 111.25093,331.969337 Z M115.772622,331.489423 C115.822614,331.499421 115.935093,331.489423 116.110062,331.459428 C116.285031,331.429433 116.482496,331.384441 116.702456,331.324452 C116.922417,331.264463 117.127381,331.204473 117.317347,331.144484 C117.507313,331.084495 117.647288,331.039503 117.737272,331.009508 C117.987227,330.929523 118.202189,330.872033 118.382156,330.837039 C118.562124,330.802045 118.742092,330.794547 118.92206,330.814543 C119.042039,330.804545 119.167016,330.799546 119.296993,330.799546 C119.42697,330.799546 119.511955,330.789548 119.551948,330.769551 C119.721917,330.739557 119.936879,330.724559 120.196832,330.724559 C120.596761,330.794547 120.856715,330.809544 120.976693,330.769551 C121.096672,330.729558 121.076675,330.644573 120.916704,330.514597 C120.856715,330.444609 120.814222,330.387119 120.789227,330.342127 C120.764231,330.297136 120.751733,330.27464 120.751733,330.27464 C120.751733,330.234647 120.719239,330.204652 120.654251,330.184656 C120.589262,330.164659 120.501778,330.139664 120.391798,330.109669 C120.201832,330.04968 119.989369,330.004688 119.754411,329.974693 C119.519453,329.944698 119.391976,329.964695 119.37198,330.034682 C119.37198,330.034682 119.364481,330.042181 119.349484,330.057178 C119.334486,330.072176 119.31699,330.054679 119.296993,330.004688 C119.266998,329.974693 119.154519,329.964695 118.959553,329.974693 C118.764588,329.984691 118.537129,330.007187 118.277175,330.042181 C118.017222,330.077175 117.764767,330.119667 117.51981,330.169658 C117.274854,330.219649 117.077389,330.26964 116.927416,330.319631 C116.747448,330.379621 116.667463,330.379621 116.687459,330.319631 C116.667463,330.319631 116.719953,330.242145 116.844931,330.087173 C116.969909,329.932201 117.124881,329.752233 117.309848,329.547269 C117.494815,329.342306 117.669784,329.15234 117.834754,328.977371 C117.999725,328.802402 118.117204,328.699921 118.187191,328.669926 C118.237182,328.619935 118.349662,328.504956 118.524631,328.324988 C118.6996,328.14502 118.894565,327.937557 119.109527,327.702599 C119.324488,327.467641 119.516954,327.255179 119.686923,327.065213 C119.856893,326.875247 119.966873,326.750269 120.016865,326.69028 C120.26682,326.320346 120.419293,326.002902 120.474283,325.73795 C120.529273,325.472997 120.476782,325.220542 120.316811,324.980585 C120.216829,324.770622 120.069355,324.565659 119.87439,324.365695 C119.679425,324.16573 119.521953,324.070747 119.401974,324.080746 C119.401974,324.080746 119.356982,324.068248 119.266998,324.043252 C119.177015,324.018257 119.077032,324.005759 118.967052,324.005759 C118.687102,323.915775 118.379657,323.920774 118.044717,324.020756 C117.709777,324.120738 117.337343,324.300706 116.927416,324.56066 L116.927416,324.56066 L116.462499,324.815614 L116.612472,325.130558 C116.672462,325.190547 116.727452,325.255536 116.777443,325.325523 C116.827434,325.395511 116.872426,325.440503 116.912419,325.460499 C116.992405,325.470497 117.089887,325.450501 117.204867,325.40051 C117.319846,325.350519 117.447323,325.310526 117.587298,325.280531 C117.937236,325.030576 118.254679,324.8981 118.539628,324.883102 C118.824577,324.868105 119.087031,324.900599 119.326988,324.980585 C119.546948,325.050572 119.671926,325.098064 119.701921,325.123059 C119.731915,325.148055 119.731915,325.215543 119.701921,325.325523 C119.681924,325.395511 119.636932,325.502992 119.566945,325.647966 C119.496957,325.79294 119.421971,325.925416 119.341985,326.045395 C119.242003,326.145377 119.14452,326.267855 119.049537,326.412829 C118.954554,326.557803 118.897065,326.670283 118.877068,326.750269 C118.817079,326.810258 118.744592,326.875247 118.659607,326.945234 C118.574622,327.015222 118.507134,327.065213 118.457143,327.095207 C118.407152,327.125202 118.36466,327.157696 118.329666,327.19269 C118.318001,327.204354 118.308281,327.214075 118.300504,327.221851 L118.277175,327.245181 C118.267177,327.315168 118.182192,327.437646 118.022221,327.612615 C117.862249,327.787584 117.677282,327.990047 117.46732,328.220006 C117.267356,328.429969 117.062392,328.634932 116.85243,328.834897 C116.642467,329.034861 116.497493,329.184834 116.417507,329.284816 C116.367516,329.344806 116.300028,329.417293 116.215043,329.502277 C116.130059,329.587262 116.062571,329.669748 116.01258,329.749733 C115.972587,329.779728 115.930094,329.807223 115.885102,329.832219 C115.84011,329.857214 115.812615,329.889708 115.802617,329.929701 C115.802617,329.949698 115.767623,330.012186 115.697636,330.117168 C115.627648,330.222149 115.557661,330.319631 115.487673,330.409615 C115.417686,330.499599 115.367695,330.534593 115.3377,330.514597 C115.297707,330.514597 115.260214,330.579585 115.22522,330.709562 C115.190226,330.839539 115.187727,330.929523 115.217722,330.979514 C115.267713,331.079496 115.357697,331.184477 115.487673,331.294457 C115.61765,331.404438 115.712633,331.469426 115.772622,331.489423 Z M123.781192,331.594404 C124.101135,331.574407 124.446074,331.511919 124.816008,331.406937 C125.185942,331.301956 125.510883,331.16948 125.790834,331.009508 C126.310741,330.699564 126.64818,330.334629 126.803153,329.914704 C126.958125,329.494779 126.93063,329.054857 126.720667,328.594939 C126.620685,328.454964 126.450716,328.274997 126.210759,328.055036 C125.970801,327.835075 125.705849,327.675104 125.4159,327.575122 C125.335915,327.505134 125.253429,327.442645 125.168445,327.387655 C125.08346,327.332665 125.040967,327.30517 125.040967,327.30517 C125.040967,327.285173 125.090958,327.242681 125.190941,327.177693 C125.290923,327.112704 125.400903,327.040217 125.520882,326.960231 C125.64086,326.880246 125.735843,326.815257 125.805831,326.765266 C126.125774,326.595297 126.365731,326.455322 126.525702,326.345341 C126.685674,326.235361 126.890637,326.100385 127.140592,325.940413 C127.340557,325.760446 127.480532,325.62297 127.560517,325.527987 C127.640503,325.433004 127.685495,325.340521 127.695493,325.250537 C127.705492,325.160553 127.695493,325.045573 127.665499,324.905598 C127.54552,324.255714 127.035611,323.880781 126.135772,323.780799 C126.015793,323.770801 125.825827,323.768301 125.565874,323.7733 C125.30592,323.7783 125.048466,323.790797 124.793512,323.810794 C124.538557,323.83079 124.341092,323.860785 124.201117,323.900778 C124.031148,323.980763 123.838682,324.078246 123.62372,324.193225 C123.408759,324.308205 123.29128,324.395689 123.271283,324.455679 C123.251287,324.50567 123.261285,324.578157 123.301278,324.67314 C123.341271,324.768123 123.393762,324.858107 123.45875,324.943092 C123.523738,325.028076 123.581228,325.080567 123.631219,325.100563 C123.661214,325.100563 123.728702,325.085566 123.833683,325.055572 C123.938664,325.025577 124.043646,324.988084 124.148627,324.943092 C124.253608,324.8981 124.311098,324.865605 124.321096,324.845609 C124.331094,324.815614 124.413579,324.780621 124.568552,324.740628 C124.723524,324.700635 124.885995,324.665641 125.055965,324.635646 C125.225934,324.605652 125.335915,324.600653 125.385906,324.620649 L125.385906,324.620649 L125.445895,324.620649 C125.445895,324.580656 125.560875,324.565659 125.790834,324.575657 C126.020792,324.585655 126.26075,324.600653 126.510705,324.620649 C126.770659,324.67064 126.900635,324.73063 126.900635,324.800617 C126.900635,324.870605 126.810651,325.025577 126.630684,325.265534 C126.5407,325.34552 126.423221,325.433004 126.278246,325.527987 C126.133272,325.62297 125.938307,325.742949 125.693351,325.887923 C125.448395,326.032897 125.115954,326.220364 124.696029,326.450322 C124.236111,326.700278 123.896172,326.887744 123.676211,327.012722 C123.45625,327.1377 123.313776,327.225184 123.248787,327.275175 C123.183799,327.325166 123.156304,327.375157 123.166302,327.425148 C123.186299,327.465141 123.221292,327.52763 123.271283,327.612615 C123.321274,327.6976 123.376265,327.775086 123.436254,327.845073 C123.566231,327.915061 123.658714,327.955054 123.713704,327.965052 C123.768695,327.97505 123.841182,327.97505 123.931166,327.965052 C124.071141,327.955054 124.253608,327.972551 124.478568,328.017543 C124.703528,328.062535 124.930987,328.125023 125.160946,328.205009 C125.390905,328.284995 125.570873,328.36998 125.70085,328.459964 C125.990798,328.64993 126.14827,328.874889 126.173265,329.134843 C126.198261,329.394797 126.075783,329.65475 125.805831,329.914704 C125.615865,330.10467 125.350912,330.27464 125.010973,330.424613 C124.671033,330.574586 124.306099,330.679567 123.916168,330.739557 C123.526238,330.799546 123.161303,330.794547 122.821364,330.724559 C122.601403,330.694565 122.461428,330.687066 122.401439,330.702063 C122.341449,330.717061 122.306456,330.804545 122.296458,330.964516 C122.286459,331.084495 122.351448,331.191976 122.491423,331.286959 C122.631398,331.381942 122.818864,331.456928 123.053822,331.511919 C123.28878,331.566909 123.531237,331.594404 123.781192,331.594404 Z M131.872248,331.931844 C131.987227,331.916846 132.094708,331.846859 132.19469,331.721881 C132.294672,331.596903 132.334665,331.444431 132.314669,331.264463 C132.264677,331.164481 132.242181,331.052001 132.247181,330.927023 C132.25218,330.802045 132.289673,330.627077 132.359661,330.402117 C132.429648,330.177157 132.534629,329.864713 132.674604,329.464784 C132.734594,329.284816 132.827077,329.04236 132.952055,328.737414 C133.077032,328.432468 133.214508,328.105027 133.364481,327.755089 C133.514454,327.405152 133.666927,327.065213 133.821899,326.735272 C133.976872,326.40533 134.114347,326.120381 134.234326,325.880424 C134.354304,325.650465 134.446788,325.475497 134.511776,325.355518 C134.576765,325.235539 134.626756,325.133058 134.661749,325.048073 C134.696743,324.963088 134.724238,324.860606 134.744235,324.740628 C134.82422,324.600653 134.854215,324.498171 134.834219,324.433183 C134.814222,324.368194 134.76923,324.300706 134.699243,324.230719 C134.65925,324.150733 134.60426,324.093243 134.534272,324.05825 C134.464285,324.023256 134.409294,324.005759 134.369302,324.005759 C134.329309,324.005759 134.276818,324.088244 134.21183,324.253215 C134.146841,324.418185 133.989369,324.780621 133.739414,325.340521 C133.619436,325.530487 133.501957,325.752947 133.386977,326.007901 C133.271998,326.262856 133.174515,326.46532 133.094529,326.615293 C133.054536,326.725273 133.002046,326.845252 132.937057,326.975229 C132.872069,327.105205 132.839575,327.19019 132.839575,327.230183 C132.839575,327.270176 132.807081,327.30517 132.742092,327.335164 C132.677104,327.365159 132.604617,327.380156 132.524631,327.380156 C132.454644,327.420149 132.337165,327.457643 132.172194,327.492636 C132.007223,327.52763 131.829755,327.565123 131.639789,327.605116 C131.289852,327.705098 131.0174,327.762588 130.822435,327.777585 C130.62747,327.792583 130.499993,327.785084 130.440003,327.755089 C130.40001,327.715097 130.387513,327.650108 130.40251,327.560124 C130.417507,327.47014 130.479996,327.255179 130.589977,326.915239 C130.789941,326.545305 130.997404,326.197868 131.212365,325.872926 C131.427327,325.547984 131.674783,325.195547 131.954733,324.815614 C132.074711,324.675639 132.184692,324.540663 132.284674,324.410687 C132.384656,324.28071 132.434647,324.195725 132.434647,324.155732 C132.434647,324.115739 132.447145,324.093243 132.47214,324.088244 C132.497136,324.083245 132.509634,324.080746 132.509634,324.080746 C132.539628,324.080746 132.547127,324.040753 132.53213,323.960767 C132.517132,323.880781 132.494636,323.790797 132.464642,323.690815 C132.434647,323.590833 132.404652,323.515846 132.374658,323.465855 C132.344663,323.425863 132.284674,323.418364 132.19469,323.443359 C132.104706,323.468355 132.019721,323.500849 131.939735,323.540842 C131.85975,323.610829 131.732273,323.765802 131.557304,324.005759 C131.382335,324.245716 131.197368,324.510669 131.002403,324.800617 C130.807438,325.090565 130.632469,325.358017 130.477497,325.602974 C130.322524,325.84793 130.225042,326.0154 130.185049,326.105384 C130.185049,326.145377 130.172551,326.18287 130.147556,326.217864 C130.12256,326.252858 130.110062,326.285352 130.110062,326.315347 C130.110062,326.355339 130.060071,326.467819 129.960089,326.652786 C129.860107,326.837753 129.770123,327.030219 129.690137,327.230183 C129.640146,327.280174 129.615151,327.365159 129.615151,327.485138 C129.615151,327.605116 129.632647,327.727594 129.667641,327.852572 C129.702635,327.97755 129.745127,328.065034 129.795118,328.115025 C129.95509,328.384977 130.172551,328.544948 130.447502,328.594939 C130.722453,328.644931 131.109884,328.609937 131.609794,328.489958 C131.789762,328.409973 131.944735,328.364981 132.074711,328.354982 C132.204688,328.344984 132.269677,328.339985 132.269677,328.339985 C132.269677,328.339985 132.247181,328.419971 132.202189,328.579942 C132.157197,328.739914 132.094708,328.914882 132.014722,329.104848 C131.974729,329.284816 131.919739,329.527273 131.849752,329.832219 C131.779764,330.137164 131.719775,330.419614 131.669784,330.679567 C131.5798,331.049501 131.534808,331.294457 131.534808,331.414436 C131.534808,331.534415 131.569802,331.639396 131.639789,331.72938 C131.679782,331.879353 131.757268,331.946841 131.872248,331.931844 Z M136.95634,331.684388 C137.281282,331.67439 137.62372,331.601903 137.983656,331.466927 C138.343592,331.331951 138.68853,331.141985 139.018471,330.897028 C139.348413,330.652072 139.628363,330.369623 139.858321,330.04968 C139.998296,329.839717 140.083281,329.674747 140.113276,329.554768 C140.143271,329.43479 140.173265,329.26482 140.20326,329.044859 C140.283246,328.53495 140.230755,328.045038 140.045788,327.575122 C139.860821,327.105205 139.563374,326.750269 139.153447,326.510312 C138.903492,326.360339 138.713526,326.267855 138.583549,326.232861 C138.453572,326.197868 138.263606,326.160374 138.013651,326.120381 C137.823685,326.100385 137.716204,326.067891 137.691208,326.022899 C137.666213,325.977907 137.658714,325.920417 137.668712,325.85043 C137.678711,325.810437 137.68371,325.775443 137.68371,325.745448 L137.68371,325.745448 L137.68371,325.700456 C137.723703,325.740449 137.751198,325.747948 137.766195,325.722952 C137.781192,325.697957 137.813687,325.655464 137.863678,325.595475 C137.863678,325.555482 137.878675,325.517989 137.90867,325.482995 C137.938664,325.448001 137.953662,325.430505 137.953662,325.430505 C137.993654,325.440503 138.02115,325.430505 138.036147,325.40051 C138.051144,325.370515 138.078639,325.340521 138.118632,325.310526 C138.168623,325.200546 138.311098,325.058071 138.546056,324.883102 C138.781014,324.708134 139.003474,324.580656 139.213437,324.500671 C139.483388,324.420685 139.740842,324.370694 139.985799,324.350697 C140.230755,324.330701 140.423221,324.365695 140.563196,324.455679 C140.733165,324.545663 140.855643,324.525666 140.93063,324.395689 C141.005617,324.265713 140.983121,324.095743 140.863142,323.88578 C140.743163,323.725809 140.620685,323.628326 140.495708,323.593333 C140.37073,323.558339 140.163267,323.535843 139.873319,323.525845 C139.013472,323.475854 138.273604,323.795796 137.653715,324.485673 C137.503742,324.635646 137.338771,324.84061 137.158804,325.100563 C136.978836,325.360517 136.823863,325.607973 136.693887,325.842931 C136.56391,326.077889 136.488923,326.245359 136.468927,326.345341 C136.468927,326.395332 136.50892,326.460321 136.588905,326.540306 C136.668891,326.620292 136.756375,326.695279 136.851358,326.765266 C136.946341,326.835254 137.018829,326.875247 137.06882,326.885245 C137.06882,326.885245 137.131308,326.890244 137.256286,326.900242 C137.381264,326.91024 137.523738,326.91024 137.68371,326.900242 C137.833683,326.880246 138.001153,326.877746 138.18612,326.892743 C138.371087,326.907741 138.498564,326.925238 138.568552,326.945234 C138.738521,327.015222 138.91349,327.127701 139.093458,327.282674 C139.273426,327.437646 139.388405,327.590119 139.438396,327.740092 C139.468391,327.820078 139.490887,327.895064 139.505884,327.965052 C139.520882,328.035039 139.52838,328.070033 139.52838,328.070033 C139.578371,328.070033 139.593369,328.160017 139.573372,328.339985 C139.553376,328.519953 139.513383,328.724916 139.453394,328.954875 C139.393404,329.184834 139.328416,329.369801 139.258429,329.509776 C139.098457,329.719739 138.885995,329.924702 138.621042,330.124666 C138.35609,330.324631 138.071141,330.489601 137.766195,330.619578 C137.46125,330.749555 137.168802,330.819542 136.888852,330.82954 C136.668891,330.839539 136.491423,330.819542 136.356447,330.769551 C136.221471,330.71956 136.143985,330.654572 136.123988,330.574586 C136.103992,330.464606 136.021507,330.399617 135.876532,330.379621 C135.731558,330.359624 135.634076,330.404616 135.584085,330.514597 C135.574086,330.55459 135.576586,330.622077 135.591583,330.717061 C135.606581,330.812044 135.626577,330.894529 135.651573,330.964516 C135.676568,331.034504 135.704063,331.064498 135.734058,331.0545 C135.784049,331.0545 135.829041,331.084495 135.869034,331.144484 C135.869034,331.234468 135.959018,331.344448 136.138986,331.474425 C136.358946,331.624399 136.631398,331.694386 136.95634,331.684388 Z M143.352697,331.466927 C143.572658,331.491922 143.847609,331.459428 144.17755,331.369444 C144.337522,331.329451 144.519989,331.264463 144.724952,331.174479 C144.929916,331.084495 145.13238,330.984513 145.332344,330.874532 C145.532308,330.764552 145.699778,330.66207 145.834754,330.567087 C145.96973,330.472104 146.042217,330.394618 146.052215,330.334629 C146.052215,330.334629 146.069712,330.322131 146.104706,330.297136 C146.1397,330.27214 146.177193,330.249644 146.217186,330.229648 C146.30717,330.169658 146.414651,330.069676 146.539628,329.929701 C146.664606,329.789726 146.792083,329.632254 146.92206,329.457285 C147.052037,329.282317 147.157018,329.129844 147.237004,328.999867 C147.346984,328.86989 147.416972,328.744913 147.446966,328.624934 C147.476961,328.504956 147.491958,328.364981 147.491958,328.205009 C147.501957,327.945056 147.469462,327.722595 147.394476,327.537628 C147.319489,327.352661 147.182014,327.165195 146.982049,326.975229 C146.862071,326.825255 146.762089,326.730272 146.682103,326.69028 C146.602117,326.650287 146.452144,326.610294 146.232183,326.570301 C146.132201,326.550305 146.004724,326.525309 145.849752,326.495314 C145.694779,326.46532 145.572301,326.470319 145.482317,326.510312 C145.252358,326.530308 145.024899,326.572801 144.799939,326.637789 C144.574979,326.702777 144.462499,326.755268 144.462499,326.795261 C144.452501,326.835254 144.390012,326.870247 144.275033,326.900242 C144.160053,326.930237 144.087566,326.915239 144.057572,326.85525 C144.057572,326.85525 144.107563,326.792761 144.207545,326.667784 C144.307527,326.542806 144.422506,326.415329 144.552483,326.285352 C144.57248,326.245359 144.617472,326.18537 144.687459,326.105384 C144.757447,326.025398 144.837432,325.945413 144.927416,325.865427 C145.077389,325.705455 145.264856,325.540485 145.489816,325.370515 C145.714776,325.200546 145.927238,325.060571 146.127202,324.95059 C146.327166,324.84061 146.457143,324.795618 146.517132,324.815614 C146.517132,324.815614 146.542128,324.823113 146.592119,324.83811 C146.64211,324.853108 146.662106,324.880603 146.652108,324.920596 C146.692101,324.960588 146.739593,324.975586 146.794583,324.965588 C146.849573,324.955589 146.947056,324.900599 147.087031,324.800617 C147.227006,324.67064 147.309491,324.575657 147.334486,324.515668 C147.359482,324.455679 147.361982,324.385691 147.341985,324.305705 C147.31199,324.255714 147.284495,324.203224 147.2595,324.148234 C147.234504,324.093243 147.20201,324.060749 147.162017,324.050751 C147.082032,324.030755 147.027041,324.005759 146.997047,323.975764 L146.997047,323.975764 L146.952055,323.930772 C146.972051,323.810794 146.822078,323.805795 146.502135,323.915775 C146.292173,323.935771 146.059714,324.010758 145.80476,324.140735 C145.549805,324.270712 145.312348,324.415686 145.092387,324.575657 C144.872426,324.735629 144.707456,324.880603 144.597475,325.01058 C144.547484,325.080567 144.499993,325.130558 144.455001,325.160553 C144.410009,325.190547 144.362517,325.220542 144.312526,325.250537 C144.312526,325.250537 144.270034,325.308026 144.185049,325.423006 C144.100064,325.537985 144.007581,325.660463 143.907598,325.79044 C143.797618,325.910419 143.692637,326.040396 143.592655,326.180371 C143.492672,326.320346 143.417686,326.425327 143.367695,326.495314 C143.317704,326.555304 143.240218,326.692779 143.135236,326.907741 C143.030255,327.122702 142.937772,327.335164 142.857786,327.545127 C142.677818,327.795082 142.557839,328.022542 142.49785,328.227505 C142.437861,328.432468 142.367873,328.714918 142.287888,329.074854 C142.237897,329.344806 142.200403,329.54477 142.175408,329.674747 C142.150412,329.804723 142.142913,329.914704 142.152912,330.004688 C142.16291,330.094672 142.192905,330.21465 142.242896,330.364623 C142.27289,330.564588 142.322881,330.714561 142.392869,330.814543 C142.462856,330.914525 142.567838,331.019507 142.707813,331.129487 C142.917775,331.329451 143.132737,331.441931 143.352697,331.466927 Z M143.592655,330.687066 C143.492672,330.692065 143.352697,330.674568 143.17273,330.634575 C143.102742,330.614579 143.037754,330.589583 142.977764,330.559589 C142.917775,330.529594 142.877782,330.454607 142.857786,330.334629 C142.807795,330.254643 142.787798,330.154661 142.797797,330.034682 C142.807795,329.914704 142.847788,329.684745 142.917775,329.344806 C143.027755,328.844895 143.122739,328.504956 143.202724,328.324988 C143.28271,328.14502 143.382692,328.050037 143.502671,328.040039 C143.572658,328.020042 143.647645,327.987548 143.727631,327.942556 C143.807616,327.897564 143.867606,327.860071 143.907598,327.830076 C143.997582,327.81008 144.087566,327.777585 144.17755,327.732593 C144.267534,327.687601 144.34752,327.655107 144.417507,327.635111 C144.877425,327.525131 145.219864,327.447644 145.444824,327.402652 C145.669784,327.35766 145.839753,327.330165 145.954733,327.320167 C146.069712,327.310169 146.187191,327.320167 146.30717,327.350162 C146.41715,327.370158 146.507134,327.390155 146.577122,327.410151 C146.647109,327.430147 146.6971,327.440146 146.727095,327.440146 C146.717097,327.480139 146.729594,327.537628 146.764588,327.612615 C146.799582,327.687601 146.81208,327.765088 146.802081,327.845073 C146.852073,328.115025 146.732094,328.457464 146.442146,328.87239 C146.152198,329.287316 145.742271,329.664748 145.212365,330.004688 C145.022399,330.114668 144.857429,330.21715 144.717454,330.312133 C144.577479,330.407116 144.507491,330.454607 144.507491,330.454607 C144.467498,330.444609 144.412508,330.449608 144.342521,330.469605 C144.272533,330.489601 144.197547,330.509598 144.117561,330.529594 C143.867606,330.629576 143.692637,330.682067 143.592655,330.687066 Z M150.446431,332.104313 C150.556411,332.124309 150.67639,332.101813 150.806366,332.036825 C150.936343,331.971836 151.041324,331.891851 151.12131,331.796868 C151.201296,331.701885 151.216293,331.619399 151.166302,331.549412 C151.146306,331.469426 151.118811,331.411936 151.083817,331.376943 C151.048823,331.341949 150.991333,331.33445 150.911348,331.354447 C150.881353,331.344448 150.866356,331.286959 150.866356,331.181978 C150.866356,331.076996 150.881353,330.957018 150.911348,330.822042 C150.941342,330.687066 150.976336,330.584584 151.016329,330.514597 C151.036325,330.444609 151.06882,330.38462 151.113812,330.334629 C151.158804,330.284638 151.186299,330.234647 151.196297,330.184656 C151.256286,330.084673 151.34377,329.927202 151.45875,329.71224 C151.573729,329.497278 151.688709,329.277318 151.803688,329.052358 C151.918668,328.827398 152.011151,328.664927 152.081139,328.564945 C152.13113,328.504956 152.176122,328.447466 152.216115,328.392476 C152.256108,328.337485 152.2961,328.299992 152.336093,328.279996 C152.366088,328.279996 152.431076,328.294993 152.531058,328.324988 C152.631041,328.354982 152.733522,328.397475 152.838504,328.452465 C152.943485,328.507455 153.010973,328.564945 153.040967,328.624934 C153.070962,328.664927 153.13845,328.689923 153.243431,328.699921 C153.348413,328.709919 153.425899,328.679924 153.47589,328.609937 C153.535879,328.579942 153.560875,328.464963 153.550876,328.264998 C153.510883,328.125023 153.435897,328.007544 153.325917,327.912561 C153.215936,327.817578 153.075961,327.735093 152.905992,327.665106 C152.776015,327.605116 152.711026,327.545127 152.711026,327.485138 C152.711026,327.425148 152.781014,327.330165 152.920989,327.200189 C152.950983,327.150197 153.008473,327.062713 153.093458,326.937735 C153.178443,326.812758 153.270926,326.675282 153.370908,326.525309 L153.465892,326.382001 C153.525881,326.290906 153.579205,326.208699 153.625863,326.135379 C153.69585,326.025398 153.735843,325.965409 153.745842,325.955411 C153.75584,325.925416 153.778336,325.885423 153.813329,325.835432 C153.848323,325.785441 153.870819,325.740449 153.880817,325.700456 C153.930809,325.640467 153.9808,325.592976 154.030791,325.557982 C154.080782,325.522988 154.110776,325.485495 154.120775,325.445502 L154.120775,325.445502 L154.158268,325.370515 C154.183263,325.320524 154.220757,325.275532 154.270748,325.235539 C154.310741,325.205545 154.365731,325.135557 154.435718,325.025577 C154.505706,324.915597 154.555697,324.805616 154.585692,324.695636 C154.615686,324.545663 154.618186,324.430683 154.59319,324.350697 C154.568195,324.270712 154.505706,324.145734 154.405724,323.975764 C154.345734,323.875782 154.305742,323.793297 154.285745,323.728309 C154.265749,323.66332 154.235754,323.625827 154.195761,323.615829 C154.185763,323.655821 154.168266,323.66332 154.143271,323.638325 C154.118275,323.613329 154.105777,323.600831 154.105777,323.600831 C154.03579,323.480853 153.855822,323.418364 153.565874,323.413365 C153.275925,323.408366 152.955983,323.430862 152.606045,323.480853 C152.096136,323.610829 151.646216,323.740806 151.256286,323.870783 C150.866356,324.00076 150.661392,324.120738 150.641396,324.230719 C150.621399,324.340699 150.626399,324.44818 150.656393,324.553161 C150.686388,324.658142 150.746377,324.720631 150.836361,324.740628 C150.946341,324.800617 151.073819,324.813115 151.218793,324.778121 C151.363767,324.743127 151.621221,324.645645 151.991155,324.485673 C152.371087,324.345698 152.658536,324.245716 152.853501,324.185727 C153.048466,324.125738 153.225934,324.090744 153.385906,324.080746 C153.675854,324.060749 153.793333,324.16573 153.738343,324.395689 C153.683353,324.625648 153.4159,325.080567 152.935986,325.760446 C152.806009,326.010401 152.656036,326.252858 152.486066,326.487816 C152.316097,326.722774 152.191119,326.91024 152.111133,327.050215 C151.971158,327.230183 151.876175,327.342663 151.826184,327.387655 C151.776193,327.432647 151.68121,327.445145 151.541235,327.425148 C151.481246,327.41515 151.413758,327.410151 151.338771,327.410151 L151.338771,327.410151 L150.566409,327.410151 C150.516418,327.400153 150.468927,327.390155 150.423935,327.380156 C150.378943,327.370158 150.341449,327.370158 150.311455,327.380156 C150.301457,327.410151 150.301457,327.442645 150.311455,327.477639 C150.321453,327.512633 150.306456,327.540128 150.266463,327.560124 C150.176479,327.570122 150.143985,327.622613 150.16898,327.717596 C150.193976,327.812579 150.286459,327.900064 150.446431,327.980049 C150.476425,328.020042 150.551412,328.052536 150.671391,328.077532 C150.791369,328.102527 150.89635,328.125023 150.986334,328.14502 C151.166302,328.14502 151.261285,328.175014 151.271283,328.235004 C151.281282,328.294993 151.1763,328.504956 150.95634,328.864891 C150.6164,329.504777 150.346449,330.062177 150.146484,330.537093 C149.94652,331.012008 149.866534,331.344448 149.906527,331.534415 C149.966516,331.67439 150.041503,331.799367 150.131487,331.909348 C150.221471,332.019328 150.326452,332.084316 150.446431,332.104313 Z M156.520346,332.314275 C156.630326,332.364266 156.822792,332.369265 157.097743,332.329273 C157.372694,332.28928 157.605152,332.204295 157.795118,332.074318 C158.015079,331.934343 158.170052,331.884352 158.260035,331.924345 C158.310027,331.934343 158.367516,331.926844 158.432505,331.901849 C158.497493,331.876853 158.539985,331.829362 158.559982,331.759374 C158.609973,331.72938 158.657464,331.699385 158.702456,331.66939 C158.747448,331.639396 158.769944,331.624399 158.769944,331.624399 C158.899921,331.634397 159.07489,331.50192 159.294851,331.226969 C159.514811,330.952019 159.719775,330.599582 159.909741,330.169658 C160.059714,329.959696 160.077211,329.65725 159.962231,329.26232 C159.847252,328.867391 159.674783,328.454964 159.444824,328.025041 C159.164874,327.685102 159.089887,327.525131 159.219864,327.545127 C159.279853,327.505134 159.324845,327.485138 159.35484,327.485138 L159.35484,327.485138 L159.399832,327.485138 C159.439825,327.505134 159.529809,327.490137 159.669784,327.440146 C159.809759,327.390155 159.947234,327.330165 160.08221,327.260178 C160.217186,327.19019 160.284674,327.145198 160.284674,327.125202 C160.284674,327.085209 160.30467,327.067712 160.344663,327.072711 C160.384656,327.07771 160.424649,327.095207 160.464642,327.125202 C160.504635,327.125202 160.547127,327.100206 160.592119,327.050215 C160.637111,327.000224 160.684602,326.940235 160.734594,326.870247 C160.814579,326.850251 160.887066,326.810258 160.952055,326.750269 C161.017043,326.69028 161.074533,326.640289 161.124524,326.600296 C161.224506,326.560303 161.399475,326.400331 161.64943,326.120381 C161.739414,325.980406 161.794404,325.787941 161.814401,325.542984 C161.834397,325.298028 161.804403,325.095564 161.724417,324.935593 C161.714419,324.885602 161.691923,324.843109 161.656929,324.808116 C161.621935,324.773122 161.604438,324.740628 161.604438,324.710633 C161.59444,324.650644 161.529452,324.568159 161.409473,324.463177 C161.289494,324.358196 161.152019,324.250715 160.997047,324.140735 C160.842074,324.030755 160.704599,323.950769 160.58462,323.900778 C160.414651,323.820792 160.189691,323.750804 159.909741,323.690815 C159.629791,323.630826 159.359839,323.575836 159.099885,323.525845 C158.839932,323.475854 158.654965,323.445859 158.544985,323.435861 C158.245038,323.475854 157.997582,323.588334 157.802617,323.7733 C157.607652,323.958267 157.430184,324.230719 157.270212,324.590655 C157.130237,324.870605 157.05775,325.155554 157.052751,325.445502 C157.047752,325.73545 157.120239,325.950412 157.270212,326.090387 C157.300207,326.160374 157.327702,326.212865 157.352697,326.247859 C157.377693,326.282852 157.390191,326.300349 157.390191,326.300349 C157.350198,326.300349 157.355197,326.327844 157.405188,326.382834 C157.455179,326.437825 157.500171,326.52031 157.540164,326.63029 C157.740128,326.900242 157.84261,327.08271 157.847609,327.177693 C157.852608,327.272676 157.800118,327.390155 157.690137,327.53013 C157.610151,327.630112 157.487673,327.792583 157.322703,328.017543 C157.157732,328.242502 156.982764,328.489958 156.797797,328.75991 C156.61283,329.029862 156.44286,329.299814 156.287888,329.569765 C156.132915,329.839717 156.020435,330.074675 155.950448,330.27464 C155.88046,330.374622 155.832969,330.504598 155.807973,330.66457 C155.782978,330.824541 155.77048,330.964516 155.77048,331.084495 C155.740485,331.294457 155.740485,331.444431 155.77048,331.534415 C155.800475,331.624399 155.850466,331.754375 155.920453,331.924345 C156.010437,332.004331 156.10792,332.084316 156.212901,332.164302 C156.317882,332.244288 156.420364,332.294279 156.520346,332.314275 Z M159.084888,326.600296 C158.834933,326.760267 158.649966,326.810258 158.529987,326.750269 C158.410009,326.69028 158.340021,326.635289 158.320025,326.585298 C158.240039,326.585298 158.200046,326.540306 158.200046,326.450322 C158.200046,326.450322 158.185049,326.417828 158.155054,326.35284 C158.12506,326.287851 158.06507,326.235361 157.975086,326.195368 C157.895101,326.025398 157.855108,325.865427 157.855108,325.715454 C157.855108,325.56548 157.885102,325.395511 157.945092,325.205545 C158.085067,324.735629 158.355018,324.460678 158.754947,324.380692 C159.154876,324.300706 159.664785,324.370694 160.284674,324.590655 C160.604617,324.720631 160.799582,324.823113 160.869569,324.8981 C160.939557,324.973086 160.969552,325.085566 160.959553,325.235539 C160.97955,325.395511 160.984549,325.505491 160.974551,325.56548 C160.964552,325.62547 160.929559,325.710455 160.869569,325.820435 C160.709598,325.990405 160.522131,326.140378 160.30717,326.270355 C160.092208,326.400331 159.974729,326.445323 159.954733,326.40533 C159.894744,326.29535 159.787263,326.252858 159.63229,326.277853 C159.477318,326.302849 159.294851,326.41033 159.084888,326.600296 Z M156.842789,331.549412 L156.760303,331.549412 C156.630326,331.529415 156.592833,331.361945 156.647823,331.047002 C156.702814,330.732058 156.840289,330.38462 157.06025,330.004688 C157.140235,329.864713 157.210223,329.722238 157.270212,329.577264 C157.330201,329.43229 157.360196,329.344806 157.360196,329.314811 L157.360196,329.314811 L157.690137,328.98487 C157.73013,328.914882 157.782621,328.829898 157.847609,328.729915 C157.912597,328.629933 158.000082,328.509955 158.110062,328.36998 C158.160053,328.259999 158.222542,328.177514 158.297529,328.122524 C158.372515,328.067534 158.410009,328.040039 158.410009,328.040039 C158.46,328.070033 158.507491,328.105027 158.552483,328.14502 C158.597475,328.185013 158.649966,328.250001 158.709955,328.339985 C158.759946,328.419971 158.819935,328.529951 158.889923,328.669926 L158.889923,328.669926 L159.084888,329.059856 C159.204867,329.369801 159.197368,329.669748 159.062392,329.959696 C158.927416,330.249644 158.669962,330.54959 158.29003,330.859535 C158.140057,330.959517 157.962589,331.066998 157.757625,331.181978 C157.552662,331.296957 157.360196,331.38944 157.180228,331.459428 C157.00026,331.529415 156.860285,331.55941 156.760303,331.549412 L156.842789,331.549412 Z M165.323774,332.239289 C165.373765,332.239289 165.451251,332.191797 165.556233,332.096814 C165.661214,332.001831 165.766195,331.886852 165.871176,331.751876 C165.976158,331.6169 166.043646,331.50442 166.07364,331.414436 C166.123631,331.304456 166.148627,331.22447 166.148627,331.174479 C166.148627,331.124488 166.133629,331.079496 166.103635,331.039503 C166.063642,331.039503 166.011151,331.024506 165.946163,330.994511 C165.881175,330.964516 165.828684,330.949519 165.788691,330.949519 C165.718704,330.939521 165.701207,330.764552 165.7362,330.424613 C165.771194,330.084673 165.858679,329.704741 165.998654,329.284816 C166.158625,328.824898 166.346091,328.357482 166.561053,327.882567 C166.776015,327.407651 166.990976,326.985227 167.205938,326.615293 C167.4209,326.245359 167.608366,325.990405 167.768338,325.85043 C167.898314,325.710455 168.008295,325.555482 168.098279,325.385513 C168.188263,325.215543 168.268248,324.965588 168.338236,324.635646 C168.36823,324.515668 168.343235,324.365695 168.263249,324.185727 C168.183263,324.005759 168.075783,323.83329 167.940807,323.668319 C167.805831,323.503349 167.663356,323.390869 167.513383,323.330879 C167.393404,323.280888 167.223435,323.250894 167.003474,323.240896 C166.783513,323.230897 166.593547,323.240896 166.433576,323.27089 C166.043646,323.340878 165.643717,323.535843 165.23379,323.855786 C164.823863,324.175729 164.463928,324.565659 164.153983,325.025577 C164.024006,325.245538 163.931523,325.418007 163.876532,325.542984 C163.821542,325.667962 163.789048,325.805438 163.77905,325.955411 C163.759053,326.245359 163.824042,326.51781 163.974015,326.772765 C164.123988,327.027719 164.326452,327.220185 164.581407,327.350162 C164.836361,327.480139 165.118811,327.520131 165.428755,327.47014 C165.668712,327.450144 165.79619,327.480139 165.811187,327.560124 C165.826184,327.64011 165.763695,327.860071 165.62372,328.220006 C165.523738,328.509955 165.418757,328.837396 165.308777,329.202331 C165.198796,329.567266 165.103813,329.914704 165.023828,330.244645 C164.943842,330.574586 164.893851,330.839539 164.873854,331.039503 C164.873854,331.10949 164.868855,331.204473 164.858857,331.324452 C164.848859,331.444431 164.84386,331.519417 164.84386,331.549412 C164.833862,331.619399 164.838861,331.686887 164.858857,331.751876 C164.878854,331.816864 164.888852,331.849358 164.888852,331.849358 C164.938843,331.849358 164.958839,331.874354 164.948841,331.924345 C164.948841,331.964338 164.993833,332.024327 165.083817,332.104313 C165.173801,332.184299 165.253787,332.22929 165.323774,332.239289 Z M165.263785,326.675282 C165.003831,326.735272 164.798868,326.68528 164.648895,326.525309 C164.548912,326.415329 164.543913,326.217864 164.633897,325.932915 C164.723881,325.647966 164.89885,325.365516 165.158804,325.085566 C165.328773,324.945591 165.388762,324.830612 165.338771,324.740628 C165.338771,324.700635 165.34877,324.678139 165.368766,324.67314 C165.388762,324.668141 165.398761,324.665641 165.398761,324.665641 C165.438754,324.675639 165.478746,324.678139 165.518739,324.67314 C165.558732,324.668141 165.598725,324.645645 165.638718,324.605652 C165.84868,324.465677 166.02115,324.363195 166.156125,324.298207 C166.291101,324.233218 166.438575,324.185727 166.598546,324.155732 C166.838504,324.065748 167.023471,324.025755 167.153447,324.035754 C167.283424,324.045752 167.383406,324.105741 167.453394,324.215721 C167.523381,324.285709 167.550876,324.365695 167.535879,324.455679 C167.520882,324.545663 167.448395,324.660642 167.318418,324.800617 C167.278425,324.830612 167.215936,324.908098 167.130951,325.033076 C167.045967,325.158053 166.943485,325.29053 166.823506,325.430505 C166.613544,325.760446 166.366088,326.035397 166.081139,326.255357 C165.79619,326.475318 165.523738,326.615293 165.263785,326.675282 Z M171.577657,331.519417 C171.677639,331.519417 171.812615,331.479424 171.982585,331.399439 C172.152555,331.319453 172.325024,331.22197 172.499993,331.106991 C172.674961,330.992011 172.812437,330.884531 172.912419,330.784548 C173.092387,330.604581 173.247359,330.432111 173.377336,330.267141 C173.507313,330.10217 173.572301,329.999689 173.572301,329.959696 C173.572301,329.929701 173.584799,329.912204 173.609794,329.907205 C173.63479,329.902206 173.647288,329.899706 173.647288,329.899706 C173.677282,329.899706 173.719775,329.854715 173.774765,329.764731 C173.829755,329.674747 173.882246,329.577264 173.932237,329.472283 C173.982228,329.367302 174.007223,329.304813 174.007223,329.284816 C173.967231,329.244823 173.959732,329.20983 173.984727,329.179835 C174.009723,329.14984 174.042217,329.114847 174.08221,329.074854 C174.122203,328.994868 174.184692,328.854893 174.269677,328.654929 C174.354661,328.454964 174.41715,328.319989 174.457143,328.250001 C174.457143,328.210008 174.459643,328.162517 174.464642,328.107527 C174.469641,328.052536 174.487138,327.995047 174.517132,327.935057 C174.557125,327.845073 174.602117,327.705098 174.652108,327.515132 C174.702099,327.325166 174.75209,327.120203 174.802081,326.900242 C174.852073,326.680281 174.892065,326.472818 174.92206,326.277853 C174.952055,326.082888 174.967052,325.940413 174.967052,325.85043 C174.967052,325.740449 174.952055,325.617971 174.92206,325.482995 C174.892065,325.348019 174.857072,325.240538 174.817079,325.160553 L174.817079,325.160553 L174.667106,324.72563 L174.817079,324.72563 C174.897065,324.765623 174.942057,324.768123 174.952055,324.733129 C174.962053,324.698135 174.967052,324.645645 174.967052,324.575657 C174.967052,324.475675 174.897065,324.368194 174.75709,324.253215 C174.617115,324.138235 174.447145,324.040753 174.247181,323.960767 C174.047216,323.880781 173.847252,323.840788 173.647288,323.840788 C173.5773,323.840788 173.477318,323.843288 173.347341,323.848287 C173.217364,323.853286 173.097386,323.870783 172.987406,323.900778 C172.687459,323.970765 172.432505,324.068248 172.222542,324.193225 C172.01258,324.318203 171.777622,324.495671 171.517668,324.72563 C171.037754,325.135557 170.61283,325.652965 170.242896,326.277853 C169.872962,326.902742 169.633005,327.535129 169.523024,328.175014 C169.453037,328.664927 169.500528,329.162338 169.665499,329.667248 C169.830469,330.172158 170.077925,330.584584 170.407866,330.904527 C170.507848,330.994511 170.637825,331.086994 170.797797,331.181978 C170.957768,331.276961 171.110241,331.356946 171.255215,331.421935 C171.400189,331.486923 171.50767,331.519417 171.577657,331.519417 Z M171.206474,330.618215 L171.142735,330.612079 C171.072747,330.597082 170.982764,330.539592 170.872783,330.43961 C170.842789,330.399617 170.785299,330.332129 170.700314,330.237146 C170.615329,330.142163 170.55284,330.059678 170.512847,329.98969 C170.44286,329.849715 170.390369,329.70974 170.355376,329.569765 C170.320382,329.42979 170.302885,329.229826 170.302885,328.969873 L170.302885,328.969873 L170.302885,328.160017 C170.322881,328.080031 170.365374,327.962552 170.430362,327.80758 C170.495351,327.652608 170.562839,327.495136 170.632826,327.335164 C170.702814,327.175193 170.762803,327.060214 170.812794,326.990226 C170.842789,326.91024 170.872783,326.840253 170.902778,326.780264 C170.932772,326.720274 170.94777,326.670283 170.94777,326.63029 C170.94777,326.590297 171.010259,326.477818 171.135236,326.292851 C171.260214,326.107884 171.412687,325.925416 171.592655,325.745448 C171.812615,325.475497 172.01258,325.283031 172.192547,325.168051 C172.372515,325.053072 172.462499,325.06557 172.462499,325.205545 C172.462499,325.255536 172.504992,325.295529 172.589977,325.325523 C172.674961,325.355518 172.752448,325.350519 172.822435,325.310526 C172.902421,325.260535 173.037397,325.198046 173.227363,325.123059 C173.417329,325.048073 173.547306,325.01058 173.617293,325.01058 C173.687281,325.01058 173.754769,325.025577 173.819757,325.055572 C173.884745,325.085566 173.937236,325.115561 173.977229,325.145555 C174.047216,325.225541 174.087209,325.308026 174.097207,325.393011 C174.107206,325.477996 174.112205,325.650465 174.112205,325.910419 C174.072212,326.040396 174.049716,326.200367 174.044717,326.390333 C174.039718,326.580299 174.037218,326.730272 174.037218,326.840253 C174.037218,326.950233 174.022221,327.085209 173.992226,327.245181 C173.962231,327.405152 173.907241,327.540128 173.827256,327.650108 C173.687281,328.050037 173.584799,328.332486 173.51981,328.497457 C173.454822,328.662427 173.367338,328.819899 173.257357,328.969873 C173.147377,329.229826 172.972408,329.497278 172.732451,329.772229 C172.492494,330.04718 172.282531,330.244645 172.102564,330.364623 C172.032576,330.434611 171.947591,330.487102 171.847609,330.522095 C171.747627,330.557089 171.642646,330.574586 171.532665,330.574586 C171.342699,330.614579 171.212722,330.627077 171.142735,330.612079 L171.206474,330.618215 Z" id="caveatregular1234567890"></path>
            </g>
        </g>
    </g>
</svg>