<?xml version="1.0" encoding="UTF-8"?>
<svg width="154px" height="13px" viewBox="0 0 154 13" version="1.1" xmlns="http://www.w3.org/2000/svg" xmlns:xlink="http://www.w3.org/1999/xlink">
    <title>dancingscriptbold1234567890</title>
    <g id="页面-1" stroke="none" stroke-width="1" fill="none" fill-rule="evenodd">
        <g id="弃-增加英文字体分类" transform="translate(-747.000000, -297.000000)" fill="#FFFFFF" fill-rule="nonzero">
            <g id="编组-4" transform="translate(720.000000, 10.000000)">
                <path d="M28.8229254,296.314925 C29.1652139,296.314925 29.5433234,296.145771 29.9572537,295.807463 C30.3711841,295.469154 30.7731741,295.017413 31.1632239,294.452239 C31.0995423,294.786567 31.0677015,295.045274 31.0677015,295.228358 C31.0677015,295.538806 31.1353632,295.789552 31.2706866,295.980597 C31.40601,296.171642 31.6288955,296.267164 31.9393433,296.267164 C32.3930746,296.267164 32.8507861,296.060199 33.3124776,295.646269 C33.7741692,295.232338 34.1363582,294.699005 34.3990448,294.046269 L34.3990448,294.046269 L34.1721791,293.855224 C33.9094925,294.396517 33.6030249,294.826368 33.2527761,295.144776 C32.9025274,295.463184 32.5920796,295.622388 32.3214328,295.622388 C32.2338706,295.622388 32.1721791,295.588557 32.1363582,295.520896 C32.1005373,295.453234 32.0826269,295.323881 32.0826269,295.132836 C32.0826269,294.416418 32.2537711,293.618408 32.5960597,292.738806 C32.9383483,291.859204 33.4000398,290.830348 33.9811343,289.652239 C34.2756617,289.055224 34.4846169,288.617413 34.608,288.338806 C34.7313831,288.060199 34.7930746,287.853234 34.7930746,287.71791 C34.7930746,287.614428 34.7592438,287.528856 34.6915821,287.461194 C34.6239204,287.393532 34.5463085,287.359701 34.4587463,287.359701 C34.1403383,287.359701 33.766209,287.803483 33.3363582,288.691045 C32.9065075,289.578607 32.3811343,290.818408 31.7602388,292.410448 C31.5134726,293.047264 31.2328756,293.604478 30.9184478,294.08209 C30.6040199,294.559701 30.2975522,294.927861 29.9990448,295.186567 C29.7005373,295.445274 29.4398408,295.574627 29.2169552,295.574627 C29.089592,295.574627 28.9940697,295.530846 28.9303881,295.443284 C28.8667065,295.355721 28.8348657,295.232338 28.8348657,295.073134 C28.8348657,294.754726 28.9482985,294.356716 29.1751642,293.879104 C29.4020299,293.401493 29.6985473,292.985572 30.0647164,292.631343 C30.4308856,292.277114 30.8169552,292.1 31.2229254,292.1 C31.4378507,292.1 31.5771542,292.143781 31.6408358,292.231343 C31.7363582,292.175622 31.7841194,292.08408 31.7841194,291.956716 C31.7841194,291.70199 31.5890945,291.574627 31.1990448,291.574627 C30.6736716,291.574627 30.1482985,291.781592 29.6229254,292.195522 C29.0975522,292.609453 28.6637214,293.108955 28.3214328,293.69403 C27.9791443,294.279104 27.808,294.794527 27.808,295.240299 C27.808,295.590547 27.9114826,295.857214 28.1184478,296.040299 C28.3254129,296.223383 28.5602388,296.314925 28.8229254,296.314925 Z M34.5303881,296.51791 C34.8169552,296.51791 35.087602,296.418408 35.3423284,296.219403 C35.5970547,296.020398 35.9035224,295.70597 36.2617313,295.276119 C36.2617313,295.546766 36.3473035,295.787562 36.5184478,295.998507 C36.689592,296.209453 36.9343682,296.314925 37.2527761,296.314925 C37.6985473,296.314925 38.1403383,296.11393 38.5781493,295.71194 C39.0159602,295.30995 39.3821294,294.778607 39.6766567,294.11791 L39.6766567,294.11791 L39.449791,293.891045 C39.1234229,294.51194 38.7871045,294.977612 38.4408358,295.28806 C38.0945672,295.598507 37.80999,295.753731 37.5871045,295.753731 C37.4677015,295.753731 37.3781493,295.71194 37.3184478,295.628358 C37.2587463,295.544776 37.2288955,295.443284 37.2288955,295.323881 C37.2288955,295.188557 37.2647164,295.043284 37.3363582,294.88806 C37.408,294.732836 37.5075025,294.551741 37.6348657,294.344776 C37.7065075,294.225373 37.7701891,294.10995 37.8259104,293.998507 C37.8816318,293.887065 37.9094925,293.803483 37.9094925,293.747761 C37.9094925,293.596517 37.766209,293.477114 37.4796418,293.389552 C37.9333731,293.373632 38.1602388,293.182587 38.1602388,292.816418 C38.1602388,292.537811 38.0428259,292.308955 37.808,292.129851 C37.5731741,291.950746 37.2806368,291.861194 36.9303881,291.861194 C36.4050149,291.861194 35.8796418,292.060199 35.3542687,292.458209 C34.8288955,292.856219 34.3970547,293.341791 34.0587463,293.914925 C33.7204378,294.48806 33.5512836,295.005473 33.5512836,295.467164 C33.5512836,295.801493 33.6448159,296.060199 33.8318806,296.243284 C34.0189453,296.426368 34.2517811,296.51791 34.5303881,296.51791 Z M34.7811343,295.908955 C34.6856119,295.908955 34.6159602,295.879104 34.5721791,295.819403 C34.528398,295.759701 34.5065075,295.662189 34.5065075,295.526866 C34.5065075,295.160697 34.6358607,294.718905 34.8945672,294.201493 C35.1532736,293.68408 35.4736716,293.238308 35.8557612,292.864179 C36.2378507,292.49005 36.6040199,292.302985 36.9542687,292.302985 C37.288597,292.302985 37.4557612,292.50995 37.4557612,292.923881 C37.4557612,293.091045 37.4358607,293.238308 37.3960597,293.365672 L37.3960597,293.365672 L37.3482985,293.353731 C37.3084975,293.353731 37.2766567,293.373632 37.2527761,293.413433 L37.2527761,293.413433 L37.0139701,293.735821 C36.5443184,294.380597 36.1244179,294.90398 35.7542687,295.30597 C35.3841194,295.70796 35.0597413,295.908955 34.7811343,295.908955 Z M43.1871045,296.195522 C43.6328756,296.195522 44.0288955,296.004478 44.3751642,295.622388 C44.7214328,295.240299 45.0378507,294.718905 45.3244179,294.058209 L45.3244179,294.058209 L45.1214328,293.891045 C44.8746667,294.384577 44.5980498,294.812438 44.2915821,295.174627 C43.9851144,295.536816 43.7005373,295.71791 43.4378507,295.71791 C43.3582488,295.71791 43.2905871,295.69005 43.2348657,295.634328 C43.1791443,295.578607 43.1512836,295.491045 43.1512836,295.371642 C43.1512836,295.204478 43.2189453,294.953731 43.3542687,294.619403 C43.4418308,294.420398 43.5075025,294.241294 43.5512836,294.08209 C43.5950647,293.922886 43.6169552,293.755721 43.6169552,293.580597 C43.6169552,293.278109 43.529393,293.017413 43.3542687,292.798507 C43.1791443,292.579602 42.9323781,292.470149 42.6139701,292.470149 C42.2398408,292.470149 41.8597413,292.621393 41.4736716,292.923881 C41.087602,293.226368 40.7154627,293.616418 40.3572537,294.09403 C40.4925771,293.600498 40.5602388,293.246269 40.5602388,293.031343 C40.5602388,292.9199 40.5244179,292.832338 40.4527761,292.768657 C40.3811343,292.704975 40.2776517,292.673134 40.1423284,292.673134 C40.0308856,292.673134 39.9154627,292.702985 39.7960597,292.762687 C39.6766567,292.822388 39.5851144,292.88806 39.5214328,292.959701 C39.5214328,293.508955 39.286607,294.352736 38.8169552,295.491045 L38.8169552,295.491045 L38.7094925,295.789552 C38.8846169,296.020398 39.1433234,296.135821 39.4856119,296.135821 C39.9791443,295.323881 40.4408358,294.653234 40.8706866,294.123881 C41.3005373,293.594527 41.726408,293.329851 42.1482985,293.329851 C42.2677015,293.329851 42.367204,293.367662 42.446806,293.443284 C42.526408,293.518905 42.566209,293.636318 42.566209,293.795522 C42.566209,293.970647 42.5104876,294.241294 42.3990448,294.607463 C42.3592438,294.742786 42.3214328,294.878109 42.2856119,295.013433 C42.249791,295.148756 42.2318806,295.268159 42.2318806,295.371642 C42.2318806,295.618408 42.3154627,295.817413 42.4826269,295.968657 C42.649791,296.1199 42.8846169,296.195522 43.1871045,296.195522 Z M46.1602388,296.625373 C46.5582488,296.625373 46.9642189,296.51592 47.3781493,296.297015 C47.7920796,296.078109 48.168199,295.777612 48.5065075,295.395522 C48.8448159,295.013433 49.1094925,294.583582 49.3005373,294.10597 L49.3005373,294.10597 L49.0617313,293.891045 C48.8945672,294.312935 48.6677015,294.685075 48.3811343,295.007463 C48.0945672,295.329851 47.7861095,295.578607 47.4557612,295.753731 C47.1254129,295.928856 46.808995,296.016418 46.5065075,296.016418 C46.1960597,296.016418 45.9771542,295.930846 45.849791,295.759701 C45.7224279,295.588557 45.6587463,295.375622 45.6587463,295.120896 C45.6587463,294.770647 45.7582488,294.380597 45.9572537,293.950746 C46.1562587,293.520896 46.4030249,293.154726 46.6975522,292.852239 C46.9920796,292.549751 47.2667065,292.398507 47.5214328,292.398507 C47.6726766,292.398507 47.7482985,292.466169 47.7482985,292.601493 C47.7482985,292.816418 47.7084975,293.003483 47.6288955,293.162687 C47.5492935,293.321891 47.4617313,293.433333 47.366209,293.497015 C47.4617313,293.648259 47.5851144,293.723881 47.7363582,293.723881 C47.9035224,293.723881 48.0448159,293.622388 48.1602388,293.419403 C48.2756617,293.216418 48.3333731,292.995522 48.3333731,292.756716 C48.3333731,292.51791 48.2557612,292.318905 48.1005373,292.159701 C47.9453134,292.000498 47.7084975,291.920896 47.3900896,291.920896 C46.968199,291.920896 46.5502886,292.072139 46.1363582,292.374627 C45.7224279,292.677114 45.3861095,293.071144 45.127403,293.556716 C44.8686965,294.042289 44.7393433,294.539801 44.7393433,295.049254 C44.7393433,295.566667 44.8686965,295.958706 45.127403,296.225373 C45.3861095,296.49204 45.7303881,296.625373 46.1602388,296.625373 Z M51.1512836,290.929851 C51.366209,290.929851 51.5652139,290.852239 51.7482985,290.697015 C51.9313831,290.541791 52.0229254,290.380597 52.0229254,290.213433 C52.0229254,289.918905 51.8517811,289.771642 51.5094925,289.771642 C51.2786468,289.771642 51.0617313,289.841294 50.8587463,289.980597 C50.6557612,290.1199 50.5542687,290.281095 50.5542687,290.464179 C50.5542687,290.615423 50.6119801,290.730846 50.727403,290.810448 C50.8428259,290.89005 50.9841194,290.929851 51.1512836,290.929851 Z M49.7423284,296.314925 C50.2358607,296.314925 50.6975522,296.1199 51.127403,295.729851 C51.5572537,295.339801 51.9114826,294.794527 52.1900896,294.09403 L52.1900896,294.09403 L52.0109851,293.902985 C51.3900896,295.120896 50.7652139,295.729851 50.1363582,295.729851 C49.9532736,295.729851 49.8179502,295.68607 49.7303881,295.598507 C49.6428259,295.510945 49.5990448,295.343781 49.5990448,295.097015 C49.5990448,294.810448 49.6726766,294.50597 49.8199403,294.183582 C49.967204,293.861194 50.168199,293.489055 50.4229254,293.067164 C50.566209,292.836318 50.6696915,292.659204 50.7333731,292.535821 C50.7970547,292.412438 50.8288955,292.314925 50.8288955,292.243284 C50.8288955,292.131841 50.7950647,292.046269 50.727403,291.986567 C50.6597413,291.926866 50.5741692,291.897015 50.4706866,291.897015 C50.1920796,291.897015 49.9154627,292.10398 49.6408358,292.51791 C49.366209,292.931841 49.1393433,293.411443 48.9602388,293.956716 C48.7811343,294.50199 48.6915821,294.933831 48.6915821,295.252239 C48.6915821,295.562687 48.7831244,295.817413 48.966209,296.016418 C49.1492935,296.215423 49.408,296.314925 49.7423284,296.314925 Z M55.7244179,296.195522 C56.1701891,296.195522 56.566209,296.004478 56.9124776,295.622388 C57.2587463,295.240299 57.5751642,294.718905 57.8617313,294.058209 L57.8617313,294.058209 L57.6587463,293.891045 C57.4119801,294.384577 57.1353632,294.812438 56.8288955,295.174627 C56.5224279,295.536816 56.2378507,295.71791 55.9751642,295.71791 C55.8955622,295.71791 55.8279005,295.69005 55.7721791,295.634328 C55.7164577,295.578607 55.688597,295.491045 55.688597,295.371642 C55.688597,295.204478 55.7562587,294.953731 55.8915821,294.619403 C55.9791443,294.420398 56.0448159,294.241294 56.088597,294.08209 C56.1323781,293.922886 56.1542687,293.755721 56.1542687,293.580597 C56.1542687,293.278109 56.0667065,293.017413 55.8915821,292.798507 C55.7164577,292.579602 55.4696915,292.470149 55.1512836,292.470149 C54.7771542,292.470149 54.3970547,292.621393 54.0109851,292.923881 C53.6249154,293.226368 53.2527761,293.616418 52.8945672,294.09403 C53.0298905,293.600498 53.0975522,293.246269 53.0975522,293.031343 C53.0975522,292.9199 53.0617313,292.832338 52.9900896,292.768657 C52.9184478,292.704975 52.8149652,292.673134 52.6796418,292.673134 C52.568199,292.673134 52.4527761,292.702985 52.3333731,292.762687 C52.2139701,292.822388 52.1224279,292.88806 52.0587463,292.959701 C52.0587463,293.508955 51.8239204,294.352736 51.3542687,295.491045 L51.3542687,295.491045 L51.246806,295.789552 C51.4219303,296.020398 51.6806368,296.135821 52.0229254,296.135821 C52.5164577,295.323881 52.9781493,294.653234 53.408,294.123881 C53.8378507,293.594527 54.2637214,293.329851 54.6856119,293.329851 C54.8050149,293.329851 54.9045174,293.367662 54.9841194,293.443284 C55.0637214,293.518905 55.1035224,293.636318 55.1035224,293.795522 C55.1035224,293.970647 55.047801,294.241294 54.9363582,294.607463 C54.8965572,294.742786 54.8587463,294.878109 54.8229254,295.013433 C54.7871045,295.148756 54.769194,295.268159 54.769194,295.371642 C54.769194,295.618408 54.8527761,295.817413 55.0199403,295.968657 C55.1871045,296.1199 55.4219303,296.195522 55.7244179,296.195522 Z M57.9453134,299.3 C58.3990448,299.3 58.8229254,299.043284 59.2169552,298.529851 C59.6109851,298.016418 59.9910846,297.31791 60.3572537,296.434328 C60.8269055,296.219403 61.286607,295.908955 61.7363582,295.502985 C62.1861095,295.097015 62.4985473,294.643284 62.6736716,294.141791 L62.6736716,294.141791 L62.4587463,293.926866 C62.2995423,294.388557 62.0348657,294.796517 61.6647164,295.150746 C61.2945672,295.504975 60.9104876,295.765672 60.5124776,295.932836 C60.7592438,295.264179 60.9701891,294.619403 61.1453134,293.998507 C61.3204378,293.377612 61.408,292.963682 61.408,292.756716 C61.2806368,292.724876 61.1652139,292.708955 61.0617313,292.708955 C60.8388458,292.708955 60.6677015,292.806468 60.5482985,293.001493 C60.4288955,293.196517 60.3254129,293.516915 60.2378507,293.962687 C59.927403,294.400498 59.6149652,294.758706 59.3005373,295.037313 C58.9861095,295.31592 58.7214328,295.455224 58.5065075,295.455224 C58.3950647,295.455224 58.3055124,295.413433 58.2378507,295.329851 C58.1701891,295.246269 58.1363582,295.124876 58.1363582,294.965672 C58.1363582,294.639303 58.249791,294.271144 58.4766567,293.861194 C58.7035224,293.451244 59.0000398,293.100995 59.366209,292.810448 C59.7323781,292.5199 60.1104876,292.374627 60.5005373,292.374627 C60.6199403,292.374627 60.7194428,292.390547 60.7990448,292.422388 C60.8786468,292.454229 60.9582488,292.50995 61.0378507,292.589552 C61.0696915,292.581592 61.1094925,292.545771 61.1572537,292.48209 C61.2050149,292.418408 61.2288955,292.346766 61.2288955,292.267164 C61.2288955,292.139801 61.1632239,292.032338 61.0318806,291.944776 C60.9005373,291.857214 60.7114826,291.813433 60.4647164,291.813433 C59.9950647,291.813433 59.5015323,291.958706 58.9841194,292.249254 C58.4667065,292.539801 58.0328756,292.923881 57.6826269,293.401493 C57.3323781,293.879104 57.1572537,294.384577 57.1572537,294.91791 C57.1572537,295.28408 57.2507861,295.578607 57.4378507,295.801493 C57.6249154,296.024378 57.8776517,296.135821 58.1960597,296.135821 C58.7612338,296.135821 59.366209,295.729851 60.0109851,294.91791 C59.8915821,295.411443 59.7323781,295.908955 59.5333731,296.410448 C59.0239204,296.649254 58.6139701,296.858209 58.3035224,297.037313 C57.9930746,297.216418 57.7204378,297.433333 57.4856119,297.68806 C57.2507861,297.942786 57.1333731,298.225373 57.1333731,298.535821 C57.1333731,298.782587 57.2129751,298.971642 57.3721791,299.102985 C57.5313831,299.234328 57.7224279,299.3 57.9453134,299.3 Z M57.8975522,298.750746 C57.8338706,298.750746 57.7801393,298.720896 57.7363582,298.661194 C57.6925771,298.601493 57.6706866,298.5199 57.6706866,298.416418 C57.6706866,298.161692 57.8139701,297.920896 58.1005373,297.69403 C58.3871045,297.467164 58.7890945,297.226368 59.3065075,296.971642 C59.0358607,297.568657 58.7731741,298.014428 58.5184478,298.308955 C58.2637214,298.603483 58.0567562,298.750746 57.8975522,298.750746 Z M66.6617313,296.565672 C67.0358607,296.565672 67.366209,296.48408 67.6527761,296.320896 C67.9393433,296.157711 68.1463085,295.916915 68.2736716,295.598507 C68.6557612,295.542786 68.9880995,295.375622 69.2706866,295.097015 C69.5532736,294.818408 69.7741692,294.452239 69.9333731,293.998507 L69.9333731,293.998507 L69.7900896,293.891045 C69.3920796,294.655224 68.9224279,295.104975 68.3811343,295.240299 C68.4129751,295.049254 68.4288955,294.88607 68.4288955,294.750746 C68.4288955,294.48806 68.3950647,294.229353 68.327403,293.974627 C68.2597413,293.7199 68.1622289,293.417413 68.0348657,293.067164 C67.9313831,292.780597 67.8557612,292.553731 67.808,292.386567 C67.7602388,292.219403 67.7363582,292.060199 67.7363582,291.908955 C67.7363582,291.821393 67.7463085,291.737811 67.766209,291.658209 C67.7861095,291.578607 67.7960597,291.518905 67.7960597,291.479104 C67.7801393,291.3199 67.6846169,291.240299 67.5094925,291.240299 C67.3502886,291.240299 67.2209353,291.31194 67.1214328,291.455224 C67.0219303,291.598507 66.9721791,291.817413 66.9721791,292.11194 L66.9721791,292.11194 L66.9721791,292.231343 C66.7094925,292.796517 66.3234229,293.341791 65.8139701,293.867164 C65.7900896,293.891045 65.7084975,293.934826 65.569194,293.998507 C65.4298905,294.062189 65.3045174,294.155721 65.1930746,294.279104 C65.0816318,294.402488 65.0259104,294.619403 65.0259104,294.929851 C65.0259104,295.375622 65.1592438,295.759701 65.4259104,296.08209 C65.6925771,296.404478 66.1045174,296.565672 66.6617313,296.565672 Z M67.4378507,295.216418 C67.127403,295.144776 66.848796,295.015423 66.6020299,294.828358 C66.3552637,294.641294 66.1642189,294.432338 66.0288955,294.201493 C66.3313831,293.883085 66.6776517,293.385572 67.0677015,292.708955 L67.0677015,292.708955 L67.1751642,293.138806 C67.2706866,293.528856 67.3423284,293.847264 67.3900896,294.09403 C67.4378507,294.340796 67.4657114,294.591542 67.4736716,294.846269 C67.4736716,295.021393 67.4617313,295.144776 67.4378507,295.216418 Z M66.5781493,296.040299 C66.2995423,296.040299 66.0806368,295.930846 65.9214328,295.71194 C65.7622289,295.493035 65.6826269,295.240299 65.6826269,294.953731 C65.6826269,294.762687 65.7383483,294.655224 65.849791,294.631343 C66.008995,294.838308 66.2199403,295.031343 66.4826269,295.210448 C66.7453134,295.389552 67.0318806,295.510945 67.3423284,295.574627 C67.2706866,295.725871 67.1652139,295.841294 67.0259104,295.920896 C66.886607,296.000498 66.7373532,296.040299 66.5781493,296.040299 Z M70.8050149,296.625373 C71.2030249,296.625373 71.608995,296.51592 72.0229254,296.297015 C72.4368557,296.078109 72.8129751,295.777612 73.1512836,295.395522 C73.489592,295.013433 73.7542687,294.583582 73.9453134,294.10597 L73.9453134,294.10597 L73.7065075,293.891045 C73.5393433,294.312935 73.3124776,294.685075 73.0259104,295.007463 C72.7393433,295.329851 72.4308856,295.578607 72.1005373,295.753731 C71.7701891,295.928856 71.4537711,296.016418 71.1512836,296.016418 C70.8408358,296.016418 70.6219303,295.930846 70.4945672,295.759701 C70.367204,295.588557 70.3035224,295.375622 70.3035224,295.120896 C70.3035224,294.770647 70.4030249,294.380597 70.6020299,293.950746 C70.8010348,293.520896 71.047801,293.154726 71.3423284,292.852239 C71.6368557,292.549751 71.9114826,292.398507 72.166209,292.398507 C72.3174527,292.398507 72.3930746,292.466169 72.3930746,292.601493 C72.3930746,292.816418 72.3532736,293.003483 72.2736716,293.162687 C72.1940697,293.321891 72.1065075,293.433333 72.0109851,293.497015 C72.1065075,293.648259 72.2298905,293.723881 72.3811343,293.723881 C72.5482985,293.723881 72.689592,293.622388 72.8050149,293.419403 C72.9204378,293.216418 72.9781493,292.995522 72.9781493,292.756716 C72.9781493,292.51791 72.9005373,292.318905 72.7453134,292.159701 C72.5900896,292.000498 72.3532736,291.920896 72.0348657,291.920896 C71.6129751,291.920896 71.1950647,292.072139 70.7811343,292.374627 C70.367204,292.677114 70.0308856,293.071144 69.7721791,293.556716 C69.5134726,294.042289 69.3841194,294.539801 69.3841194,295.049254 C69.3841194,295.566667 69.5134726,295.958706 69.7721791,296.225373 C70.0308856,296.49204 70.3751642,296.625373 70.8050149,296.625373 Z M75.6408358,296.267164 C75.9831244,296.267164 76.3313831,296.163682 76.6856119,295.956716 C77.0398408,295.749751 77.3602388,295.483085 77.646806,295.156716 C77.9333731,294.830348 78.1562587,294.48806 78.3154627,294.129851 L78.3154627,294.129851 L78.0288955,293.914925 C77.9174527,294.153731 77.7443184,294.410448 77.5094925,294.685075 C77.2746667,294.959701 77.0159602,295.192537 76.7333731,295.383582 C76.4507861,295.574627 76.1900896,295.670149 75.9512836,295.670149 C75.7522786,295.670149 75.6527761,295.578607 75.6527761,295.395522 C75.6527761,295.244279 75.7403383,294.993532 75.9154627,294.643284 C76.0348657,294.396517 76.1244179,294.185572 76.1841194,294.010448 C76.2438209,293.835323 76.2736716,293.660199 76.2736716,293.485075 C76.2736716,293.198507 76.1960597,292.969652 76.0408358,292.798507 C75.8856119,292.627363 75.6686965,292.450249 75.3900896,292.267164 C75.2388458,292.171642 75.1353632,292.09801 75.0796418,292.046269 C75.0239204,291.994527 74.9920796,291.940796 74.9841194,291.885075 C75.0000398,291.837313 75.0259104,291.759701 75.0617313,291.652239 C75.0975522,291.544776 75.1154627,291.475124 75.1154627,291.443284 C75.1154627,291.379602 75.089592,291.3 75.0378507,291.204478 C74.9861095,291.108955 74.9204378,291.061194 74.8408358,291.061194 C74.7214328,291.061194 74.5980498,291.152736 74.4706866,291.335821 C74.3433234,291.518905 74.2796418,291.71393 74.2796418,291.920896 C74.2796418,292.056219 74.3194428,292.163682 74.3990448,292.243284 C74.1204378,293.031343 73.7980498,293.751741 73.4318806,294.404478 L73.4318806,294.404478 L73.6109851,294.750746 C73.7781493,294.472139 73.967204,294.129851 74.1781493,293.723881 C74.3890945,293.31791 74.5741692,292.91592 74.7333731,292.51791 C75.1313831,292.724876 75.3303881,292.979602 75.3303881,293.28209 C75.3303881,293.401493 75.3025274,293.538806 75.246806,293.69403 C75.1910846,293.849254 75.1114826,294.038308 75.008,294.261194 C74.888597,294.51592 74.7990448,294.732836 74.7393433,294.91194 C74.6796418,295.091045 74.649791,295.256219 74.649791,295.407463 C74.649791,295.670149 74.7413333,295.879104 74.9244179,296.034328 C75.1075025,296.189552 75.3463085,296.267164 75.6408358,296.267164 Z M80.1303881,290.929851 C80.3453134,290.929851 80.5443184,290.852239 80.727403,290.697015 C80.9104876,290.541791 81.0020299,290.380597 81.0020299,290.213433 C81.0020299,289.918905 80.8308856,289.771642 80.488597,289.771642 C80.2577512,289.771642 80.0408358,289.841294 79.8378507,289.980597 C79.6348657,290.1199 79.5333731,290.281095 79.5333731,290.464179 C79.5333731,290.615423 79.5910846,290.730846 79.7065075,290.810448 C79.8219303,290.89005 79.9632239,290.929851 80.1303881,290.929851 Z M78.7214328,296.314925 C79.2149652,296.314925 79.6766567,296.1199 80.1065075,295.729851 C80.5363582,295.339801 80.8905871,294.794527 81.169194,294.09403 L81.169194,294.09403 L80.9900896,293.902985 C80.369194,295.120896 79.7443184,295.729851 79.1154627,295.729851 C78.9323781,295.729851 78.7970547,295.68607 78.7094925,295.598507 C78.6219303,295.510945 78.5781493,295.343781 78.5781493,295.097015 C78.5781493,294.810448 78.6517811,294.50597 78.7990448,294.183582 C78.9463085,293.861194 79.1473035,293.489055 79.4020299,293.067164 C79.5453134,292.836318 79.648796,292.659204 79.7124776,292.535821 C79.7761592,292.412438 79.808,292.314925 79.808,292.243284 C79.808,292.131841 79.7741692,292.046269 79.7065075,291.986567 C79.6388458,291.926866 79.5532736,291.897015 79.449791,291.897015 C79.1711841,291.897015 78.8945672,292.10398 78.6199403,292.51791 C78.3453134,292.931841 78.1184478,293.411443 77.9393433,293.956716 C77.7602388,294.50199 77.6706866,294.933831 77.6706866,295.252239 C77.6706866,295.562687 77.7622289,295.817413 77.9453134,296.016418 C78.128398,296.215423 78.3871045,296.314925 78.7214328,296.314925 Z M80.0109851,299.3 C80.2259104,299.3 80.4149652,299.071144 80.5781493,298.613433 C80.7413333,298.155721 80.9383483,297.437313 81.169194,296.458209 C81.3841194,295.574627 81.5592438,294.89801 81.6945672,294.428358 C81.80601,294.181592 81.9652139,293.914925 82.1721791,293.628358 C82.3791443,293.341791 82.6139701,293.097015 82.8766567,292.89403 C83.1393433,292.691045 83.3940697,292.589552 83.6408358,292.589552 C83.8637214,292.589552 84.0308856,292.673134 84.1423284,292.840299 C84.2537711,293.007463 84.3094925,293.218408 84.3094925,293.473134 C84.3094925,293.839303 84.2020299,294.209453 83.9871045,294.583582 C83.7721791,294.957711 83.4736716,295.270149 83.0915821,295.520896 C82.7094925,295.771642 82.2796418,295.900995 81.8020299,295.908955 C81.6109851,295.908955 81.5154627,295.948756 81.5154627,296.028358 C81.5154627,296.10796 81.5930746,296.179602 81.7482985,296.243284 C81.9035224,296.306965 82.1045174,296.338806 82.3512836,296.338806 C82.8925771,296.338806 83.3861095,296.179602 83.8318806,295.861194 C84.2776517,295.542786 84.6259104,295.146766 84.8766567,294.673134 C85.127403,294.199502 85.2527761,293.751741 85.2527761,293.329851 C85.2527761,292.90796 85.1254129,292.563682 84.8706866,292.297015 C84.6159602,292.030348 84.2935721,291.897015 83.9035224,291.897015 C83.5214328,291.897015 83.1652139,292.026368 82.8348657,292.285075 C82.5045174,292.543781 82.2119801,292.868159 81.9572537,293.258209 C82.0686965,292.700995 82.1244179,292.326866 82.1244179,292.135821 C82.1244179,291.960697 82.0647164,291.811443 81.9453134,291.68806 C81.8259104,291.564677 81.6507861,291.502985 81.4199403,291.502985 C81.3005373,291.502985 81.2269055,291.520896 81.1990448,291.556716 C81.1711841,291.592537 81.1492935,291.666169 81.1333731,291.777612 C80.9582488,293.122886 80.8169552,294.1199 80.7094925,294.768657 C80.6020299,295.417413 80.4667065,296.030348 80.3035224,296.607463 C80.1403383,297.184577 79.8836219,297.982587 79.5333731,299.001493 C79.5413333,299.057214 79.5990448,299.120896 79.7065075,299.192537 C79.8139701,299.264179 79.9154627,299.3 80.0109851,299.3 Z M86.6975522,296.50597 C87.2547662,296.50597 87.7920796,296.273134 88.3094925,295.807463 C88.8269055,295.341791 89.248796,294.738806 89.5751642,293.998507 L89.5751642,293.998507 L89.408,293.879104 C89.0975522,294.5 88.7333731,294.991542 88.3154627,295.353731 C87.8975522,295.71592 87.489592,295.897015 87.0915821,295.897015 C86.8686965,295.897015 86.7055124,295.829353 86.6020299,295.69403 C86.4985473,295.558706 86.446806,295.327861 86.446806,295.001493 C86.446806,294.380597 86.6537711,293.580597 87.0677015,292.601493 C87.728398,292.601493 88.528398,292.553731 89.4677015,292.458209 L89.4677015,292.458209 L89.4677015,292.064179 C88.926408,292.1199 88.1980498,292.147761 87.2826269,292.147761 C87.4816318,291.749751 87.7562587,291.256219 88.1065075,290.667164 C88.3612338,290.229353 88.5443184,289.902985 88.6557612,289.68806 C88.767204,289.473134 88.8229254,289.30199 88.8229254,289.174627 C88.8229254,289.071144 88.7890945,288.987562 88.7214328,288.923881 C88.6537711,288.860199 88.5761592,288.828358 88.488597,288.828358 C88.2338706,288.828358 87.9015323,289.150746 87.4915821,289.795522 C87.0816318,290.440299 86.6975522,291.212438 86.3393433,292.11194 C86.1482985,292.09602 85.9572537,292.076119 85.766209,292.052239 L85.766209,292.052239 L85.766209,292.422388 C85.8378507,292.454229 85.9771542,292.49005 86.1841194,292.529851 C85.9851144,293.071144 85.8259104,293.582587 85.7065075,294.064179 C85.5871045,294.545771 85.527403,294.941791 85.527403,295.252239 C85.527403,295.666169 85.6308856,295.978607 85.8378507,296.189552 C86.0448159,296.400498 86.3313831,296.50597 86.6975522,296.50597 Z M93.408,296.828358 C93.8219303,296.828358 94.1960597,296.710945 94.5303881,296.476119 C94.8647164,296.241294 95.1552637,295.928856 95.4020299,295.538806 C95.4577512,295.546766 95.5413333,295.550746 95.6527761,295.550746 C96.1065075,295.550746 96.4786468,295.433333 96.769194,295.198507 C97.0597413,294.963682 97.3124776,294.599502 97.527403,294.10597 L97.527403,294.10597 L97.3482985,293.855224 C97.1652139,294.229353 96.9542687,294.543781 96.7154627,294.798507 C96.4766567,295.053234 96.1741692,295.180597 95.808,295.180597 L95.808,295.180597 L95.5930746,295.168657 C95.8318806,294.651244 95.9512836,294.149751 95.9512836,293.664179 C95.9512836,293.274129 95.8716816,292.977612 95.7124776,292.774627 C95.5532736,292.571642 95.3383483,292.470149 95.0677015,292.470149 C94.7572537,292.470149 94.4985473,292.591542 94.2915821,292.834328 C94.0846169,293.077114 93.9811343,293.389552 93.9811343,293.771642 C93.9811343,294.09801 94.0587463,294.402488 94.2139701,294.685075 C94.369194,294.967662 94.5900896,295.188557 94.8766567,295.347761 C94.7254129,295.626368 94.5303881,295.859204 94.2915821,296.046269 C94.0527761,296.233333 93.8298905,296.326866 93.6229254,296.326866 C93.408,296.326866 93.2507861,296.221393 93.1512836,296.010448 C93.0517811,295.799502 93.0020299,295.518905 93.0020299,295.168657 C93.0020299,294.730846 93.0637214,294.275124 93.1871045,293.801493 C93.3104876,293.327861 93.4279005,292.987562 93.5393433,292.780597 C94.008995,292.50995 94.4567562,292.09204 94.8826269,291.526866 C95.3084975,290.961692 95.6527761,290.370647 95.9154627,289.753731 C96.1781493,289.136816 96.3094925,288.637313 96.3094925,288.255224 C96.3015323,288.040299 96.2557612,287.849254 96.1721791,287.68209 C96.088597,287.514925 95.9711841,287.431343 95.8199403,287.431343 C95.4696915,287.431343 94.9880995,287.918905 94.3751642,288.89403 C93.7622289,289.869154 93.2169552,290.983582 92.7393433,292.237313 C92.2617313,293.491045 92.0229254,294.49204 92.0229254,295.240299 C92.0229254,295.741791 92.1423284,296.131841 92.3811343,296.410448 C92.6199403,296.689055 92.9622289,296.828358 93.408,296.828358 Z M93.766209,292.028358 C93.9333731,291.510945 94.1522786,290.991542 94.4229254,290.470149 C94.6935721,289.948756 94.9562587,289.508955 95.2109851,289.150746 C95.4657114,288.792537 95.6448159,288.593532 95.7482985,288.553731 C95.7403383,288.744776 95.6408358,289.061194 95.449791,289.502985 C95.2587463,289.944776 95.0119801,290.402488 94.7094925,290.876119 C94.407005,291.349751 94.0925771,291.733831 93.766209,292.028358 Z M95.0796418,294.953731 C94.9045174,294.826368 94.7751642,294.657214 94.6915821,294.446269 C94.608,294.235323 94.566209,294.030348 94.566209,293.831343 C94.566209,293.632338 94.6040199,293.461194 94.6796418,293.31791 C94.7552637,293.174627 94.8448159,293.102985 94.9482985,293.102985 C95.0517811,293.102985 95.1353632,293.174627 95.1990448,293.31791 C95.2627264,293.461194 95.2945672,293.668159 95.2945672,293.938806 C95.2945672,294.289055 95.2229254,294.627363 95.0796418,294.953731 Z M97.8259104,296.338806 C98.1602388,296.338806 98.5025274,296.227363 98.8527761,296.004478 C99.2030249,295.781592 99.5254129,295.495025 99.8199403,295.144776 C100.034866,295.216418 100.233871,295.252239 100.416955,295.252239 C100.719443,295.252239 101.01198,295.152736 101.294567,294.953731 C101.577154,294.754726 101.80203,294.464179 101.969194,294.08209 L101.969194,294.08209 L101.754269,293.926866 C101.618945,294.229353 101.42392,294.454229 101.169194,294.601493 C100.914468,294.748756 100.675662,294.822388 100.452776,294.822388 C100.325413,294.822388 100.21397,294.798507 100.118448,294.750746 C100.349294,294.392537 100.538348,294.034328 100.685612,293.676119 C100.832876,293.31791 100.906507,292.999502 100.906507,292.720896 C100.906507,292.434328 100.830886,292.201493 100.679642,292.022388 C100.528398,291.843284 100.293572,291.753731 99.9751642,291.753731 C99.5930746,291.753731 99.2965572,291.873134 99.0856119,292.11194 C98.8746667,292.350746 98.7453134,292.653234 98.6975522,293.019403 C98.5463085,292.955721 98.4229254,292.923881 98.327403,292.923881 C98.0965572,292.923881 97.8696915,293.043284 97.646806,293.28209 C97.4239204,293.520896 97.2428259,293.819403 97.1035224,294.177612 C96.9642189,294.535821 96.8945672,294.88209 96.8945672,295.216418 C96.8945672,295.534826 96.968199,295.801493 97.1154627,296.016418 C97.2627264,296.231343 97.4995423,296.338806 97.8259104,296.338806 Z M99.7124776,294.5 C99.608995,294.372637 99.5254129,294.191542 99.4617313,293.956716 C99.3980498,293.721891 99.366209,293.512935 99.366209,293.329851 C99.366209,293.122886 99.4020299,292.933831 99.4736716,292.762687 C99.5453134,292.591542 99.6368557,292.454229 99.7482985,292.350746 C99.8597413,292.247264 99.967204,292.195522 100.070687,292.195522 C100.293572,292.195522 100.405015,292.370647 100.405015,292.720896 C100.405015,292.975622 100.339343,293.262189 100.208,293.580597 C100.076657,293.899005 99.9114826,294.205473 99.7124776,294.5 Z M98.2557612,295.729851 C97.9851144,295.729851 97.849791,295.546766 97.849791,295.180597 C97.849791,294.957711 97.8975522,294.695025 97.9930746,294.392537 C98.088597,294.09005 98.2040199,293.815423 98.3393433,293.568657 C98.4746667,293.321891 98.5900896,293.174627 98.6856119,293.126866 C98.7094925,293.899005 98.9482985,294.48408 99.4020299,294.88209 C99.1950647,295.128856 98.9880995,295.331841 98.7811343,295.491045 C98.5741692,295.650249 98.3990448,295.729851 98.2557612,295.729851 Z M102.506507,296.314925 C102.960239,296.314925 103.39805,296.11393 103.81994,295.71194 C104.241831,295.30995 104.6279,294.746766 104.978149,294.022388 L104.978149,294.022388 L104.691582,293.867164 C104.444816,294.392537 104.164219,294.840299 103.849791,295.210448 C103.535363,295.580597 103.238846,295.765672 102.960239,295.765672 C102.801035,295.765672 102.675662,295.69801 102.584119,295.562687 C102.492577,295.427363 102.446806,295.220398 102.446806,294.941791 C102.446806,294.687065 102.490587,294.312935 102.578149,293.819403 C103.143323,293.373632 103.674667,292.788557 104.172179,292.064179 C104.669692,291.339801 105.065711,290.625373 105.360239,289.920896 C105.654766,289.216418 105.80203,288.681095 105.80203,288.314925 C105.79407,288.1 105.742328,287.887065 105.646806,287.676119 C105.551284,287.465174 105.435861,287.359701 105.300537,287.359701 C105.00601,287.359701 104.548299,287.845274 103.927403,288.816418 C103.306507,289.787562 102.747303,290.88607 102.249791,292.11194 C101.752279,293.337811 101.503522,294.316915 101.503522,295.049254 C101.503522,295.431343 101.583124,295.737811 101.742328,295.968657 C101.901532,296.199502 102.156259,296.314925 102.506507,296.314925 Z M102.793075,293.079104 C103.008,292.402488 103.288597,291.70398 103.634866,290.983582 C103.981134,290.263184 104.311483,289.660199 104.62591,289.174627 C104.940338,288.689055 105.149294,288.446269 105.252776,288.446269 C105.252776,288.716915 105.139343,289.130846 104.912478,289.68806 C104.685612,290.245274 104.383124,290.834328 104.005015,291.455224 C103.626905,292.076119 103.222925,292.617413 102.793075,293.079104 Z M105.228896,296.314925 C105.571184,296.314925 105.949294,296.145771 106.363224,295.807463 C106.777154,295.469154 107.179144,295.017413 107.569194,294.452239 C107.505512,294.786567 107.473672,295.045274 107.473672,295.228358 C107.473672,295.538806 107.541333,295.789552 107.676657,295.980597 C107.81198,296.171642 108.034866,296.267164 108.345313,296.267164 C108.799045,296.267164 109.256756,296.060199 109.718448,295.646269 C110.180139,295.232338 110.542328,294.699005 110.805015,294.046269 L110.805015,294.046269 L110.578149,293.855224 C110.315463,294.396517 110.008995,294.826368 109.658746,295.144776 C109.308498,295.463184 108.99805,295.622388 108.727403,295.622388 C108.639841,295.622388 108.578149,295.588557 108.542328,295.520896 C108.506507,295.453234 108.488597,295.323881 108.488597,295.132836 C108.488597,294.416418 108.659741,293.618408 109.00203,292.738806 C109.344318,291.859204 109.80601,290.830348 110.387104,289.652239 C110.681632,289.055224 110.890587,288.617413 111.01397,288.338806 C111.137353,288.060199 111.199045,287.853234 111.199045,287.71791 C111.199045,287.614428 111.165214,287.528856 111.097552,287.461194 C111.029891,287.393532 110.952279,287.359701 110.864716,287.359701 C110.546308,287.359701 110.172179,287.803483 109.742328,288.691045 C109.312478,289.578607 108.787104,290.818408 108.166209,292.410448 C107.919443,293.047264 107.638846,293.604478 107.324418,294.08209 C107.00999,294.559701 106.703522,294.927861 106.405015,295.186567 C106.106507,295.445274 105.845811,295.574627 105.622925,295.574627 C105.495562,295.574627 105.40004,295.530846 105.336358,295.443284 C105.272677,295.355721 105.240836,295.232338 105.240836,295.073134 C105.240836,294.754726 105.354269,294.356716 105.581134,293.879104 C105.808,293.401493 106.104517,292.985572 106.470687,292.631343 C106.836856,292.277114 107.222925,292.1 107.628896,292.1 C107.843821,292.1 107.983124,292.143781 108.046806,292.231343 C108.142328,292.175622 108.19009,292.08408 108.19009,291.956716 C108.19009,291.70199 107.995065,291.574627 107.605015,291.574627 C107.079642,291.574627 106.554269,291.781592 106.028896,292.195522 C105.503522,292.609453 105.069692,293.108955 104.727403,293.69403 C104.385114,294.279104 104.21397,294.794527 104.21397,295.240299 C104.21397,295.590547 104.317453,295.857214 104.524418,296.040299 C104.731383,296.223383 104.966209,296.314925 105.228896,296.314925 Z M117.336358,296.995522 C117.41596,296.995522 117.654766,296.979602 118.052776,296.947761 C118.713473,296.90796 119.131383,296.88806 119.306507,296.88806 C119.648796,296.88806 120.014965,296.91194 120.405015,296.959701 C120.333373,296.641294 120.1881,296.420398 119.969194,296.297015 C119.750289,296.173632 119.469692,296.11194 119.127403,296.11194 C119.039841,296.11194 118.900537,296.1199 118.709493,296.135821 C119.139343,295.164677 119.473672,294.125871 119.712478,293.019403 C119.951284,291.912935 120.186109,290.615423 120.416955,289.126866 C120.432876,289.007463 120.480637,288.792537 120.560239,288.48209 C120.568199,288.450249 120.59009,288.364677 120.62591,288.225373 C120.661731,288.08607 120.679642,287.956716 120.679642,287.837313 C120.679642,287.622388 120.6279,287.467164 120.524418,287.371642 C120.070687,287.801493 119.573174,288.217413 119.031881,288.619403 C118.490587,289.021393 118.088597,289.28607 117.82591,289.413433 C117.82591,289.739801 117.941333,289.902985 118.172179,289.902985 C118.283622,289.902985 118.432876,289.857214 118.61994,289.765672 C118.807005,289.674129 119.103522,289.493035 119.509493,289.222388 C119.429891,289.580597 119.302527,290.229353 119.127403,291.168657 C118.920438,292.330846 118.723423,293.343781 118.536358,294.207463 C118.349294,295.071144 118.148299,295.749751 117.933373,296.243284 C117.376159,296.322886 116.962229,296.362687 116.691582,296.362687 L116.691582,296.362687 L116.357254,296.350746 C116.245811,296.334826 116.150289,296.326866 116.070687,296.326866 C116.245811,296.549751 116.432876,296.716915 116.631881,296.828358 C116.830886,296.939801 117.065711,296.995522 117.336358,296.995522 Z M126.387104,296.995522 C126.737353,296.995522 127.02193,296.88408 127.240836,296.661194 C127.459741,296.438308 127.632876,296.0801 127.760239,295.586567 C127.489592,295.729851 127.284617,295.827363 127.145313,295.879104 C127.00601,295.930846 126.840836,295.956716 126.649791,295.956716 C126.19606,295.956716 125.376159,295.825373 124.19009,295.562687 C124.779144,295.085075 125.332378,294.51194 125.849791,293.843284 C126.367204,293.174627 126.783124,292.476119 127.097552,291.747761 C127.41198,291.019403 127.569194,290.340796 127.569194,289.71194 C127.569194,289.019403 127.380139,288.454229 127.00203,288.016418 C126.62392,287.578607 126.088597,287.359701 125.39606,287.359701 C124.894567,287.359701 124.440836,287.475124 124.034866,287.70597 C123.628896,287.936816 123.312478,288.243284 123.085612,288.625373 C122.858746,289.007463 122.745313,289.413433 122.745313,289.843284 C122.745313,290.217413 122.832876,290.49602 123.008,290.679104 C123.183124,290.862189 123.40203,290.965672 123.664716,290.989552 L123.664716,290.989552 L123.891582,291.013433 C123.740338,290.663184 123.664716,290.316915 123.664716,289.974627 C123.664716,289.624378 123.724418,289.28607 123.843821,288.959701 C123.963224,288.633333 124.144318,288.366667 124.387104,288.159701 C124.629891,287.952736 124.922428,287.849254 125.264716,287.849254 C125.654766,287.849254 125.967204,287.988557 126.20203,288.267164 C126.436856,288.545771 126.554269,288.955721 126.554269,289.497015 C126.554269,290.125871 126.397055,290.816418 126.082627,291.568657 C125.768199,292.320896 125.366209,293.039303 124.876657,293.723881 C124.387104,294.408458 123.891582,294.965672 123.39009,295.395522 C122.848796,295.29204 122.414965,295.240299 122.088597,295.240299 C121.41994,295.240299 121.085612,295.451244 121.085612,295.873134 C121.085612,296.08806 121.173174,296.263184 121.348299,296.398507 C121.523423,296.533831 121.750289,296.601493 122.028896,296.601493 C122.426905,296.601493 122.900537,296.438308 123.449791,296.11194 C123.79208,296.239303 123.991085,296.314925 124.046806,296.338806 C124.60402,296.553731 125.063721,296.716915 125.42591,296.828358 C125.7881,296.939801 126.108498,296.995522 126.387104,296.995522 Z M122.005015,296.11194 C121.909493,296.11194 121.82392,296.09204 121.748299,296.052239 C121.672677,296.012438 121.630886,295.964677 121.622925,295.908955 C121.622925,295.861194 121.650786,295.817413 121.706507,295.777612 C121.762229,295.737811 121.853771,295.71791 121.981134,295.71791 C122.1881,295.71791 122.438846,295.765672 122.733373,295.861194 C122.438846,296.028358 122.19606,296.11194 122.005015,296.11194 Z M130.709493,296.995522 C131.354269,296.995522 131.935363,296.846269 132.452776,296.547761 C132.970189,296.249254 133.376159,295.865174 133.670687,295.395522 C133.965214,294.925871 134.112478,294.440299 134.112478,293.938806 C134.112478,293.469154 133.975164,293.019403 133.700537,292.589552 C133.42591,292.159701 132.99805,291.845274 132.416955,291.646269 C132.783124,291.510945 133.111483,291.3 133.40203,291.013433 C133.692577,290.726866 133.919443,290.408458 134.082627,290.058209 C134.245811,289.70796 134.327403,289.369652 134.327403,289.043284 C134.327403,288.693035 134.231881,288.390547 134.040836,288.135821 C133.849791,287.881095 133.599045,287.68806 133.288597,287.556716 C132.978149,287.425373 132.647801,287.359701 132.297552,287.359701 C131.891582,287.359701 131.507502,287.433333 131.145313,287.580597 C130.783124,287.727861 130.488597,287.938806 130.261731,288.213433 C130.034866,288.48806 129.921433,288.808458 129.921433,289.174627 C129.921433,289.437313 129.973174,289.678109 130.076657,289.897015 C130.180139,290.11592 130.315463,290.225373 130.482627,290.225373 C130.59407,290.225373 130.707502,290.181592 130.822925,290.09403 C130.938348,290.006468 131.01994,289.910945 131.067701,289.807463 C130.908498,289.512935 130.828896,289.238308 130.828896,288.983582 C130.828896,288.641294 130.962229,288.366667 131.228896,288.159701 C131.495562,287.952736 131.80402,287.849254 132.154269,287.849254 C132.456756,287.849254 132.711483,287.934826 132.918448,288.10597 C133.125413,288.277114 133.228896,288.541791 133.228896,288.9 C133.228896,289.234328 133.139343,289.590547 132.960239,289.968657 C132.781134,290.346766 132.528398,290.699005 132.20203,291.025373 C131.875662,291.351741 131.501532,291.606468 131.079642,291.789552 C131.652776,291.940796 132.064716,292.219403 132.315463,292.625373 C132.566209,293.031343 132.691582,293.489055 132.691582,293.998507 C132.691582,294.460199 132.60004,294.878109 132.416955,295.252239 C132.233871,295.626368 131.997055,295.918905 131.706507,296.129851 C131.41596,296.340796 131.115463,296.446269 130.805015,296.446269 C130.558249,296.446269 130.337353,296.380597 130.142328,296.249254 C129.947303,296.11791 129.79407,295.948756 129.682627,295.741791 C129.571184,295.534826 129.515463,295.3199 129.515463,295.097015 C129.515463,294.88209 129.563224,294.665174 129.658746,294.446269 C129.754269,294.227363 129.873672,294.058209 130.016955,293.938806 C129.849791,293.906965 129.710488,293.891045 129.599045,293.891045 C129.264716,293.891045 129.00402,294.026368 128.816955,294.297015 C128.629891,294.567662 128.536358,294.874129 128.536358,295.216418 C128.536358,295.502985 128.61198,295.783582 128.763224,296.058209 C128.914468,296.332836 129.151284,296.557711 129.473672,296.732836 C129.79606,296.90796 130.208,296.995522 130.709493,296.995522 Z M138.852776,296.995522 C138.852776,296.549751 138.910488,295.920896 139.02591,295.108955 C139.141333,294.297015 139.238846,293.668159 139.318448,293.222388 C139.589095,293.222388 139.859741,293.136816 140.130388,292.965672 C140.401035,292.794527 140.639841,292.569652 140.846806,292.291045 C140.647801,292.346766 140.458746,292.382587 140.279642,292.398507 C140.100537,292.414428 139.8279,292.422388 139.461731,292.422388 C139.80402,290.51194 140.066706,289.182587 140.249791,288.434328 C140.408995,288.187562 140.488597,287.968657 140.488597,287.777612 C140.488597,287.594527 140.389095,287.455224 140.19009,287.359701 C139.322428,288.577612 137.730388,290.261194 135.41397,292.410448 C135.207005,292.601493 135.055761,292.764677 134.960239,292.9 C134.864716,293.035323 134.816955,293.194527 134.816955,293.377612 C134.912478,293.321891 135.298547,293.272139 135.975164,293.228358 C136.651781,293.184577 137.133373,293.162687 137.41994,293.162687 C137.690587,293.162687 137.969194,293.178607 138.255761,293.210448 C138.080637,294.197512 137.949294,294.945771 137.861731,295.455224 C137.774169,295.964677 137.730388,296.263184 137.730388,296.350746 C137.730388,296.525871 137.8279,296.671144 138.022925,296.786567 C138.21795,296.90199 138.494567,296.971642 138.852776,296.995522 Z M136.20203,292.398507 C136.512478,292.08806 137.081632,291.558706 137.909493,290.810448 C138.737353,290.054229 139.123423,289.70398 139.067701,289.759701 C138.892577,290.340796 138.681632,291.216418 138.434866,292.386567 C137.957254,292.370647 137.571184,292.362687 137.276657,292.362687 C136.870687,292.362687 136.512478,292.374627 136.20203,292.398507 Z M143.175164,296.995522 C143.81994,296.995522 144.393075,296.860199 144.894567,296.589552 C145.39606,296.318905 145.786109,295.948756 146.064716,295.479104 C146.343323,295.009453 146.482627,294.49602 146.482627,293.938806 C146.482627,293.230348 146.261731,292.663184 145.81994,292.237313 C145.378149,291.811443 144.739343,291.598507 143.903522,291.598507 C143.593075,291.598507 143.266706,291.630348 142.924418,291.69403 C142.956259,291.598507 143.02392,291.331841 143.127403,290.89403 C143.310488,290.145771 143.467701,289.572637 143.599045,289.174627 C143.730388,288.776617 143.859741,288.577612 143.987104,288.577612 C144.106507,288.577612 144.265711,288.597512 144.464716,288.637313 C144.854766,288.693035 145.149294,288.720896 145.348299,288.720896 C145.778149,288.720896 146.152279,288.647264 146.470687,288.5 C146.789095,288.352736 146.948299,288.1199 146.948299,287.801493 C146.948299,287.721891 146.920438,287.570647 146.864716,287.347761 C146.442826,287.427363 146.084617,287.487065 145.79009,287.526866 C145.495562,287.566667 145.193075,287.586567 144.882627,287.586567 C144.420935,287.586567 143.963224,287.530846 143.509493,287.419403 L143.509493,287.419403 L143.234866,288.374627 C142.964219,289.329851 142.749294,290.10796 142.59009,290.708955 C142.430886,291.30995 142.319443,291.825373 142.255761,292.255224 C142.797055,292.151741 143.214965,292.1 143.509493,292.1 C144.050786,292.1 144.456756,292.271144 144.727403,292.613433 C144.99805,292.955721 145.133373,293.389552 145.133373,293.914925 C145.133373,294.320896 145.053771,294.718905 144.894567,295.108955 C144.735363,295.499005 144.506507,295.819403 144.208,296.070149 C143.909493,296.320896 143.561234,296.446269 143.163224,296.446269 C142.757254,296.446269 142.450786,296.316915 142.243821,296.058209 C142.036856,295.799502 141.933373,295.491045 141.933373,295.132836 C141.933373,294.89403 141.979144,294.665174 142.070687,294.446269 C142.162229,294.227363 142.283622,294.058209 142.434866,293.938806 C142.267701,293.906965 142.124418,293.891045 142.005015,293.891045 C141.670687,293.891045 141.41198,294.026368 141.228896,294.297015 C141.045811,294.567662 140.954269,294.878109 140.954269,295.228358 C140.954269,295.514925 141.0279,295.793532 141.175164,296.064179 C141.322428,296.334826 141.561234,296.557711 141.891582,296.732836 C142.22193,296.90796 142.649791,296.995522 143.175164,296.995522 Z M150.339343,296.995522 C150.976159,296.995522 151.541333,296.854229 152.034866,296.571642 C152.528398,296.289055 152.910488,295.904975 153.181134,295.419403 C153.451781,294.933831 153.587104,294.392537 153.587104,293.795522 C153.587104,293.007463 153.360239,292.412438 152.906507,292.010448 C152.452776,291.608458 151.883622,291.407463 151.199045,291.407463 C150.840836,291.407463 150.488597,291.463184 150.142328,291.574627 C149.79606,291.68607 149.487602,291.845274 149.216955,292.052239 C149.39208,291.327861 149.634866,290.643284 149.945313,289.998507 C150.255761,289.353731 150.61795,288.826368 151.031881,288.416418 C151.445811,288.006468 151.887602,287.801493 152.357254,287.801493 C152.59606,287.801493 152.759244,287.853234 152.846806,287.956716 C152.934368,288.060199 152.978149,288.207463 152.978149,288.398507 C152.978149,288.50199 152.970189,288.633333 152.954269,288.792537 C153.224915,288.720896 153.41198,288.629353 153.515463,288.51791 C153.618945,288.406468 153.670687,288.275124 153.670687,288.123881 C153.670687,287.869154 153.553274,287.678109 153.318448,287.550746 C153.083622,287.423383 152.775164,287.359701 152.393075,287.359701 C151.469692,287.359701 150.647801,287.71194 149.927403,288.416418 C149.207005,289.120896 148.649791,289.990547 148.255761,291.025373 C147.861731,292.060199 147.664716,293.035323 147.664716,293.950746 C147.664716,294.874129 147.883622,295.612438 148.321433,296.165672 C148.759244,296.718905 149.431881,296.995522 150.339343,296.995522 Z M150.399045,296.446269 C149.865711,296.446269 149.487602,296.217413 149.264716,295.759701 C149.041831,295.30199 148.930388,294.790547 148.930388,294.225373 C148.930388,293.580597 149.077652,293.045274 149.372179,292.619403 C149.666706,292.193532 150.124418,291.980597 150.745313,291.980597 C151.230886,291.980597 151.618945,292.127861 151.909493,292.422388 C152.20004,292.716915 152.345313,293.158706 152.345313,293.747761 C152.345313,294.193532 152.263721,294.623383 152.100537,295.037313 C151.937353,295.451244 151.708498,295.789552 151.41397,296.052239 C151.119443,296.314925 150.781134,296.446269 150.399045,296.446269 Z M155.533373,296.995522 C155.692577,296.995522 155.877652,296.927861 156.088597,296.792537 C156.299542,296.657214 156.472677,296.450249 156.608,296.171642 C156.480637,296.08408 156.416955,295.916915 156.416955,295.670149 C156.416955,295.30398 156.512478,294.852239 156.703522,294.314925 C156.894567,293.777612 157.141333,293.162687 157.443821,292.470149 L157.443821,292.470149 L158.339343,292.470149 C158.546308,292.470149 158.743323,292.402488 158.930388,292.267164 C159.117453,292.131841 159.310488,291.928856 159.509493,291.658209 C159.302527,291.71393 159.043821,291.741791 158.733373,291.741791 C158.391085,291.741791 158.080637,291.725871 157.80203,291.69403 C158.21596,290.810448 158.62591,290.040299 159.031881,289.383582 C159.437851,288.726866 159.923423,288.032338 160.488597,287.3 C159.843821,287.506965 159.071682,287.610448 158.172179,287.610448 C157.527403,287.610448 156.755264,287.530846 155.855761,287.371642 C155.720438,287.594527 155.652776,287.789552 155.652776,287.956716 C155.652776,288.386567 156.126408,288.601493 157.073672,288.601493 C157.360239,288.601493 157.658746,288.589552 157.969194,288.565672 C158.072677,288.557711 158.20203,288.549751 158.357254,288.541791 C158.512478,288.533831 158.685612,288.529851 158.876657,288.529851 C158.725413,288.768657 158.347303,289.393532 157.742328,290.404478 C157.42392,290.953731 157.173174,291.367662 156.99009,291.646269 C156.329393,291.646269 155.80999,291.71194 155.431881,291.843284 C155.053771,291.974627 154.860736,292.223383 154.852776,292.589552 C155.40999,292.525871 155.975164,292.48607 156.548299,292.470149 C155.529393,294.50796 155.01994,295.809453 155.01994,296.374627 C155.01994,296.573632 155.071682,296.726866 155.175164,296.834328 C155.278647,296.941791 155.39805,296.995522 155.533373,296.995522 Z M162.100537,296.995522 C162.641831,296.995522 163.151284,296.89005 163.628896,296.679104 C164.106507,296.468159 164.490587,296.169652 164.781134,295.783582 C165.071682,295.397512 165.216955,294.957711 165.216955,294.464179 C165.216955,294.121891 165.147303,293.803483 165.008,293.508955 C164.868697,293.214428 164.693572,292.945771 164.482627,292.702985 C164.271682,292.460199 163.987104,292.159701 163.628896,291.801493 C164.170189,291.395522 164.586109,290.985572 164.876657,290.571642 C165.167204,290.157711 165.312478,289.68806 165.312478,289.162687 C165.312478,288.581592 165.129393,288.137811 164.763224,287.831343 C164.397055,287.524876 163.915463,287.371642 163.318448,287.371642 C162.912478,287.371642 162.532378,287.441294 162.178149,287.580597 C161.82392,287.7199 161.535363,287.940796 161.312478,288.243284 C161.089592,288.545771 160.978149,288.9199 160.978149,289.365672 C160.978149,289.851244 161.097552,290.285075 161.336358,290.667164 C161.575164,291.049254 161.921433,291.471144 162.375164,291.932836 C162.263721,292.020398 162.160239,292.09801 162.064716,292.165672 C161.969194,292.233333 161.885612,292.295025 161.81397,292.350746 C161.368199,292.669154 161.01198,292.943781 160.745313,293.174627 C160.478647,293.405473 160.253771,293.670149 160.070687,293.968657 C159.887602,294.267164 159.79606,294.595522 159.79606,294.953731 C159.79606,295.2801 159.871682,295.598507 160.022925,295.908955 C160.174169,296.219403 160.422925,296.478109 160.769194,296.685075 C161.115463,296.89204 161.559244,296.995522 162.100537,296.995522 Z M163.187104,291.335821 C162.836856,290.961692 162.568199,290.611443 162.381134,290.285075 C162.19407,289.958706 162.100537,289.604478 162.100537,289.222388 C162.100537,288.768657 162.229891,288.428358 162.488597,288.201493 C162.747303,287.974627 163.031881,287.861194 163.342328,287.861194 C163.660736,287.861194 163.923423,287.976617 164.130388,288.207463 C164.337353,288.438308 164.440836,288.760697 164.440836,289.174627 C164.440836,289.596517 164.333373,289.978607 164.118448,290.320896 C163.903522,290.663184 163.593075,291.001493 163.187104,291.335821 Z M162.208,296.362687 C161.953274,296.362687 161.712478,296.304975 161.485612,296.189552 C161.258746,296.074129 161.073672,295.908955 160.930388,295.69403 C160.787104,295.479104 160.715463,295.228358 160.715463,294.941791 C160.715463,294.607463 160.810985,294.295025 161.00203,294.004478 C161.193075,293.71393 161.429891,293.451244 161.712478,293.216418 C161.995065,292.981592 162.367204,292.704975 162.828896,292.386567 C163.226905,292.792537 163.527403,293.154726 163.730388,293.473134 C163.933373,293.791542 164.034866,294.141791 164.034866,294.523881 C164.034866,294.874129 163.945313,295.190547 163.766209,295.473134 C163.587104,295.755721 163.356259,295.974627 163.073672,296.129851 C162.791085,296.285075 162.502527,296.362687 162.208,296.362687 Z M168.548299,296.995522 C169.431881,296.995522 170.21397,296.669154 170.894567,296.016418 C171.575164,295.363682 172.100537,294.545771 172.470687,293.562687 C172.840836,292.579602 173.02591,291.622388 173.02591,290.691045 C173.02591,289.71194 172.801035,288.91194 172.351284,288.291045 C171.901532,287.670149 171.199045,287.359701 170.243821,287.359701 C169.622925,287.359701 169.077652,287.491045 168.608,287.753731 C168.138348,288.016418 167.774169,288.382587 167.515463,288.852239 C167.256756,289.321891 167.127403,289.859204 167.127403,290.464179 C167.127403,290.989552 167.234866,291.439303 167.449791,291.813433 C167.664716,292.187562 167.957254,292.468159 168.327403,292.655224 C168.697552,292.842289 169.113473,292.935821 169.575164,292.935821 C169.933373,292.935821 170.283622,292.8801 170.62591,292.768657 C170.968199,292.657214 171.270687,292.50199 171.533373,292.302985 C171.382129,293.027363 171.167204,293.71194 170.888597,294.356716 C170.60999,295.001493 170.271682,295.528856 169.873672,295.938806 C169.475662,296.348756 169.041831,296.553731 168.572179,296.553731 C168.309493,296.553731 168.136358,296.458209 168.052776,296.267164 C167.969194,296.076119 167.927403,295.829353 167.927403,295.526866 C167.465711,295.662189 167.234866,295.889055 167.234866,296.207463 C167.234866,296.462189 167.356259,296.657214 167.599045,296.792537 C167.841831,296.927861 168.158249,296.995522 168.548299,296.995522 Z M170.052776,292.362687 C169.527403,292.362687 169.113473,292.205473 168.810985,291.891045 C168.508498,291.576617 168.357254,291.112935 168.357254,290.5 C168.357254,290.062189 168.430886,289.644279 168.578149,289.246269 C168.725413,288.848259 168.940338,288.525871 169.222925,288.279104 C169.505512,288.032338 169.829891,287.908955 170.19606,287.908955 C170.745313,287.908955 171.141333,288.159701 171.384119,288.661194 C171.626905,289.162687 171.748299,289.7199 171.748299,290.332836 C171.748299,290.969652 171.607005,291.467164 171.324418,291.825373 C171.041831,292.183582 170.61795,292.362687 170.052776,292.362687 Z M176.381134,296.995522 C177.216955,296.995522 177.981134,296.679104 178.673672,296.046269 C179.366209,295.413433 179.913473,294.605473 180.315463,293.622388 C180.717453,292.639303 180.918448,291.658209 180.918448,290.679104 C180.918448,289.628358 180.683622,288.812438 180.21397,288.231343 C179.744318,287.650249 179.115463,287.359701 178.327403,287.359701 C177.459741,287.359701 176.685612,287.69801 176.005015,288.374627 C175.324418,289.051244 174.799045,289.889055 174.428896,290.88806 C174.058746,291.887065 173.873672,292.840299 173.873672,293.747761 C173.873672,294.695025 174.088597,295.473134 174.518448,296.08209 C174.948299,296.691045 175.569194,296.995522 176.381134,296.995522 Z M176.548299,296.422388 C176.086607,296.422388 175.724418,296.199502 175.461731,295.753731 C175.199045,295.30796 175.067701,294.706965 175.067701,293.950746 C175.067701,293.170647 175.199045,292.299005 175.461731,291.335821 C175.724418,290.372637 176.102527,289.550746 176.59606,288.870149 C177.089592,288.189552 177.666706,287.849254 178.327403,287.849254 C178.844816,287.849254 179.224915,288.062189 179.467701,288.48806 C179.710488,288.91393 179.831881,289.489055 179.831881,290.213433 C179.831881,291.073134 179.680637,291.990547 179.378149,292.965672 C179.075662,293.940796 178.671682,294.760697 178.166209,295.425373 C177.660736,296.09005 177.121433,296.422388 176.548299,296.422388 Z" id="dancingscriptbold1234567890"></path>
            </g>
        </g>
    </g>
</svg>