<?xml version="1.0" encoding="UTF-8"?>
<svg width="162px" height="13px" viewBox="0 0 162 13" version="1.1" xmlns="http://www.w3.org/2000/svg" xmlns:xlink="http://www.w3.org/1999/xlink">
    <title>dancingscriptregular1234567890</title>
    <g id="页面-1" stroke="none" stroke-width="1" fill="none" fill-rule="evenodd">
        <g id="弃-增加英文字体分类" transform="translate(-747.000000, -264.000000)" fill="#FFFFFF" fill-rule="nonzero">
            <g id="编组-4" transform="translate(720.000000, 10.000000)">
                <path d="M28.708,263.36 C29.06,263.36 29.454,263.156 29.89,262.748 C30.326,262.34 30.748,261.8 31.156,261.128 C31.004,261.712 30.928,262.14 30.928,262.412 C30.928,262.66 30.992,262.872 31.12,263.048 C31.248,263.224 31.448,263.312 31.72,263.312 C31.992,263.312 32.278,263.218 32.578,263.03 C32.878,262.842 33.16,262.584 33.424,262.256 C33.688,261.928 33.896,261.564 34.048,261.164 L34.048,261.164 L33.904,261.056 C33.744,261.408 33.552,261.718 33.328,261.986 C33.104,262.254 32.878,262.462 32.65,262.61 C32.422,262.758 32.224,262.832 32.056,262.832 C31.928,262.832 31.85,262.786 31.822,262.694 C31.794,262.602 31.78,262.424 31.78,262.16 C31.78,261.488 31.956,260.702 32.308,259.802 C32.66,258.902 33.132,257.836 33.724,256.604 C34.012,255.996 34.22,255.546 34.348,255.254 C34.476,254.962 34.54,254.756 34.54,254.636 C34.54,254.556 34.516,254.49 34.468,254.438 C34.42,254.386 34.364,254.36 34.3,254.36 C34.012,254.36 33.658,254.81 33.238,255.71 C32.818,256.61 32.296,257.868 31.672,259.484 C31.424,260.124 31.14,260.696 30.82,261.2 C30.5,261.704 30.184,262.094 29.872,262.37 C29.56,262.646 29.296,262.784 29.08,262.784 C28.944,262.784 28.838,262.732 28.762,262.628 C28.686,262.524 28.648,262.384 28.648,262.208 C28.648,261.88 28.766,261.46 29.002,260.948 C29.238,260.436 29.544,259.99 29.92,259.61 C30.296,259.23 30.684,259.04 31.084,259.04 C31.308,259.04 31.46,259.1 31.54,259.22 C31.556,259.14 31.564,259.084 31.564,259.052 C31.564,258.804 31.388,258.68 31.036,258.68 C30.564,258.68 30.076,258.888 29.572,259.304 C29.068,259.72 28.648,260.222 28.312,260.81 C27.976,261.398 27.808,261.912 27.808,262.352 C27.808,262.68 27.9,262.93 28.084,263.102 C28.268,263.274 28.476,263.36 28.708,263.36 Z M34.252,263.564 C34.532,263.564 34.814,263.452 35.098,263.228 C35.382,263.004 35.704,262.652 36.064,262.172 C36.04,262.3 36.028,262.416 36.028,262.52 C36.028,262.752 36.102,262.95 36.25,263.114 C36.398,263.278 36.612,263.36 36.892,263.36 C37.172,263.36 37.464,263.268 37.768,263.084 C38.072,262.9 38.356,262.642 38.62,262.31 C38.884,261.978 39.1,261.6 39.268,261.176 L39.268,261.176 L39.148,261.056 C38.804,261.656 38.456,262.122 38.104,262.454 C37.752,262.786 37.46,262.952 37.228,262.952 C37.092,262.952 36.99,262.898 36.922,262.79 C36.854,262.682 36.82,262.56 36.82,262.424 C36.82,262.272 36.86,262.106 36.94,261.926 C37.02,261.746 37.128,261.54 37.264,261.308 C37.28,261.284 37.326,261.202 37.402,261.062 C37.478,260.922 37.516,260.82 37.516,260.756 C37.516,260.676 37.462,260.61 37.354,260.558 C37.246,260.506 37.14,260.472 37.036,260.456 C36.54,261.184 36.076,261.802 35.644,262.31 C35.212,262.818 34.836,263.072 34.516,263.072 C34.3,263.072 34.192,262.916 34.192,262.604 C34.192,262.212 34.322,261.744 34.582,261.2 C34.842,260.656 35.166,260.188 35.554,259.796 C35.942,259.404 36.312,259.208 36.664,259.208 C36.864,259.208 37.012,259.27 37.108,259.394 C37.204,259.518 37.252,259.68 37.252,259.88 C37.252,260.016 37.232,260.156 37.192,260.3 C37.376,260.3 37.52,260.26 37.624,260.18 C37.728,260.1 37.78,259.968 37.78,259.784 C37.78,259.52 37.676,259.304 37.468,259.136 C37.26,258.968 37,258.884 36.688,258.884 C36.192,258.884 35.684,259.088 35.164,259.496 C34.644,259.904 34.214,260.4 33.874,260.984 C33.534,261.568 33.364,262.096 33.364,262.568 C33.364,262.888 33.446,263.134 33.61,263.306 C33.774,263.478 33.988,263.564 34.252,263.564 Z M42.784,263.24 C43.592,263.24 44.284,262.564 44.86,261.212 L44.86,261.212 L44.728,261.056 C44.464,261.584 44.186,262.028 43.894,262.388 C43.602,262.748 43.32,262.928 43.048,262.928 C42.808,262.928 42.688,262.776 42.688,262.472 C42.688,262.344 42.708,262.216 42.748,262.088 C42.788,261.96 42.844,261.808 42.916,261.632 C43.004,261.424 43.07,261.24 43.114,261.08 C43.158,260.92 43.18,260.752 43.18,260.576 C43.18,260.28 43.106,260.026 42.958,259.814 C42.81,259.602 42.588,259.496 42.292,259.496 C41.876,259.496 41.452,259.7 41.02,260.108 C40.588,260.516 40.18,261.016 39.796,261.608 C39.908,261.272 40,260.954 40.072,260.654 C40.144,260.354 40.18,260.144 40.18,260.024 C40.18,259.816 40.072,259.712 39.856,259.712 C39.752,259.712 39.648,259.738 39.544,259.79 C39.44,259.842 39.36,259.9 39.304,259.964 C39.296,260.292 39.228,260.666 39.1,261.086 C38.972,261.506 38.808,261.972 38.608,262.484 C38.504,262.732 38.452,262.876 38.452,262.916 C38.516,263.004 38.604,263.07 38.716,263.114 C38.828,263.158 38.952,263.18 39.088,263.18 C39.416,262.628 39.71,262.156 39.97,261.764 C40.23,261.372 40.526,261.016 40.858,260.696 C41.19,260.376 41.508,260.216 41.812,260.216 C42.132,260.216 42.292,260.412 42.292,260.804 C42.292,260.932 42.274,261.076 42.238,261.236 C42.202,261.396 42.16,261.548 42.112,261.692 C42.072,261.828 42.034,261.966 41.998,262.106 C41.962,262.246 41.944,262.368 41.944,262.472 C41.944,262.704 42.016,262.89 42.16,263.03 C42.304,263.17 42.512,263.24 42.784,263.24 Z M45.784,263.672 C46.168,263.672 46.554,263.564 46.942,263.348 C47.33,263.132 47.684,262.834 48.004,262.454 C48.324,262.074 48.576,261.644 48.76,261.164 L48.76,261.164 L48.604,261.044 C48.348,261.692 47.982,262.216 47.506,262.616 C47.03,263.016 46.548,263.216 46.06,263.216 C45.748,263.216 45.524,263.122 45.388,262.934 C45.252,262.746 45.184,262.508 45.184,262.22 C45.184,261.836 45.29,261.412 45.502,260.948 C45.714,260.484 45.974,260.09 46.282,259.766 C46.59,259.442 46.88,259.28 47.152,259.28 C47.248,259.28 47.316,259.304 47.356,259.352 C47.396,259.4 47.416,259.476 47.416,259.58 C47.416,259.764 47.372,259.954 47.284,260.15 C47.196,260.346 47.092,260.472 46.972,260.528 C47.068,260.648 47.184,260.708 47.32,260.708 C47.504,260.708 47.65,260.622 47.758,260.45 C47.866,260.278 47.92,260.072 47.92,259.832 C47.92,259.584 47.854,259.374 47.722,259.202 C47.59,259.03 47.372,258.944 47.068,258.944 C46.668,258.944 46.262,259.098 45.85,259.406 C45.438,259.714 45.1,260.116 44.836,260.612 C44.572,261.108 44.44,261.616 44.44,262.136 C44.44,262.632 44.564,263.012 44.812,263.276 C45.06,263.54 45.384,263.672 45.784,263.672 Z M50.68,257.816 C50.872,257.816 51.05,257.746 51.214,257.606 C51.378,257.466 51.46,257.32 51.46,257.168 C51.46,256.92 51.328,256.796 51.064,256.796 C50.864,256.796 50.668,256.86 50.476,256.988 C50.284,257.116 50.188,257.26 50.188,257.42 C50.188,257.548 50.234,257.646 50.326,257.714 C50.418,257.782 50.536,257.816 50.68,257.816 Z M49.24,263.312 C49.72,263.312 50.178,263.124 50.614,262.748 C51.05,262.372 51.38,261.848 51.604,261.176 L51.604,261.176 L51.496,261.056 C50.888,262.28 50.272,262.892 49.648,262.892 C49.44,262.892 49.29,262.842 49.198,262.742 C49.106,262.642 49.06,262.452 49.06,262.172 C49.06,261.86 49.138,261.53 49.294,261.182 C49.45,260.834 49.66,260.44 49.924,260 C50.18,259.576 50.308,259.308 50.308,259.196 C50.308,259.116 50.282,259.052 50.23,259.004 C50.178,258.956 50.116,258.932 50.044,258.932 C49.788,258.932 49.526,259.14 49.258,259.556 C48.99,259.972 48.766,260.456 48.586,261.008 C48.406,261.56 48.316,261.992 48.316,262.304 C48.316,262.6 48.396,262.842 48.556,263.03 C48.716,263.218 48.944,263.312 49.24,263.312 Z M55.144,263.24 C55.952,263.24 56.644,262.564 57.22,261.212 L57.22,261.212 L57.088,261.056 C56.824,261.584 56.546,262.028 56.254,262.388 C55.962,262.748 55.68,262.928 55.408,262.928 C55.168,262.928 55.048,262.776 55.048,262.472 C55.048,262.344 55.068,262.216 55.108,262.088 C55.148,261.96 55.204,261.808 55.276,261.632 C55.364,261.424 55.43,261.24 55.474,261.08 C55.518,260.92 55.54,260.752 55.54,260.576 C55.54,260.28 55.466,260.026 55.318,259.814 C55.17,259.602 54.948,259.496 54.652,259.496 C54.236,259.496 53.812,259.7 53.38,260.108 C52.948,260.516 52.54,261.016 52.156,261.608 C52.268,261.272 52.36,260.954 52.432,260.654 C52.504,260.354 52.54,260.144 52.54,260.024 C52.54,259.816 52.432,259.712 52.216,259.712 C52.112,259.712 52.008,259.738 51.904,259.79 C51.8,259.842 51.72,259.9 51.664,259.964 C51.656,260.292 51.588,260.666 51.46,261.086 C51.332,261.506 51.168,261.972 50.968,262.484 C50.864,262.732 50.812,262.876 50.812,262.916 C50.876,263.004 50.964,263.07 51.076,263.114 C51.188,263.158 51.312,263.18 51.448,263.18 C51.776,262.628 52.07,262.156 52.33,261.764 C52.59,261.372 52.886,261.016 53.218,260.696 C53.55,260.376 53.868,260.216 54.172,260.216 C54.492,260.216 54.652,260.412 54.652,260.804 C54.652,260.932 54.634,261.076 54.598,261.236 C54.562,261.396 54.52,261.548 54.472,261.692 C54.432,261.828 54.394,261.966 54.358,262.106 C54.322,262.246 54.304,262.368 54.304,262.472 C54.304,262.704 54.376,262.89 54.52,263.03 C54.664,263.17 54.872,263.24 55.144,263.24 Z M57.316,266.36 C57.732,266.36 58.132,266.1 58.516,265.58 C58.9,265.06 59.28,264.344 59.656,263.432 C60.112,263.216 60.558,262.908 60.994,262.508 C61.43,262.108 61.732,261.664 61.9,261.176 L61.9,261.176 L61.744,261.056 C61.568,261.496 61.302,261.894 60.946,262.25 C60.59,262.606 60.204,262.884 59.788,263.084 C60.052,262.412 60.272,261.75 60.448,261.098 C60.624,260.446 60.712,260.012 60.712,259.796 C60.616,259.772 60.532,259.76 60.46,259.76 C60.284,259.76 60.146,259.824 60.046,259.952 C59.946,260.08 59.88,260.22 59.848,260.372 L59.848,260.372 L59.704,261.008 C59.384,261.472 59.062,261.852 58.738,262.148 C58.414,262.444 58.144,262.592 57.928,262.592 C57.8,262.592 57.698,262.542 57.622,262.442 C57.546,262.342 57.508,262.196 57.508,262.004 C57.508,261.66 57.624,261.272 57.856,260.84 C58.088,260.408 58.39,260.04 58.762,259.736 C59.134,259.432 59.52,259.28 59.92,259.28 C60.16,259.28 60.32,259.34 60.4,259.46 C60.424,259.452 60.454,259.426 60.49,259.382 C60.526,259.338 60.544,259.284 60.544,259.22 C60.544,259.108 60.49,259.016 60.382,258.944 C60.274,258.872 60.112,258.836 59.896,258.836 C59.456,258.836 58.986,258.982 58.486,259.274 C57.986,259.566 57.566,259.952 57.226,260.432 C56.886,260.912 56.716,261.416 56.716,261.944 C56.716,262.296 56.796,262.578 56.956,262.79 C57.116,263.002 57.336,263.108 57.616,263.108 C58.208,263.108 58.86,262.596 59.572,261.572 C59.388,262.316 59.184,262.976 58.96,263.552 C58.464,263.8 58.066,264.014 57.766,264.194 C57.466,264.374 57.2,264.59 56.968,264.842 C56.736,265.094 56.62,265.368 56.62,265.664 C56.62,265.896 56.688,266.07 56.824,266.186 C56.96,266.302 57.124,266.36 57.316,266.36 Z M57.28,265.976 C57.192,265.976 57.122,265.938 57.07,265.862 C57.018,265.786 56.992,265.684 56.992,265.556 C56.992,265.244 57.152,264.96 57.472,264.704 C57.792,264.448 58.244,264.172 58.828,263.876 C58.532,264.58 58.246,265.106 57.97,265.454 C57.694,265.802 57.464,265.976 57.28,265.976 Z M65.908,263.612 C66.268,263.612 66.584,263.528 66.856,263.36 C67.128,263.192 67.324,262.944 67.444,262.616 C67.828,262.56 68.168,262.412 68.464,262.172 C68.76,261.932 68.98,261.604 69.124,261.188 L69.124,261.188 L69.016,261.068 C68.792,261.5 68.556,261.822 68.308,262.034 C68.06,262.246 67.792,262.376 67.504,262.424 C67.552,262.24 67.576,262.044 67.576,261.836 C67.576,261.572 67.546,261.312 67.486,261.056 C67.426,260.8 67.34,260.5 67.228,260.156 C67.132,259.868 67.062,259.634 67.018,259.454 C66.974,259.274 66.952,259.104 66.952,258.944 C66.952,258.824 66.964,258.714 66.988,258.614 C67.012,258.514 67.024,258.448 67.024,258.416 C67.024,258.368 67.008,258.33 66.976,258.302 C66.944,258.274 66.896,258.26 66.832,258.26 C66.704,258.26 66.594,258.328 66.502,258.464 C66.41,258.6 66.364,258.804 66.364,259.076 L66.364,259.076 L66.364,259.22 C66.084,259.82 65.688,260.4 65.176,260.96 C65.152,260.984 65.074,261.024 64.942,261.08 C64.81,261.136 64.688,261.23 64.576,261.362 C64.464,261.494 64.408,261.72 64.408,262.04 C64.408,262.464 64.528,262.832 64.768,263.144 C65.008,263.456 65.388,263.612 65.908,263.612 Z M66.748,262.412 C66.404,262.34 66.102,262.196 65.842,261.98 C65.582,261.764 65.388,261.516 65.26,261.236 C65.628,260.868 66.016,260.348 66.424,259.676 C66.44,259.772 66.484,259.98 66.556,260.3 C66.636,260.612 66.696,260.888 66.736,261.128 C66.776,261.368 66.796,261.608 66.796,261.848 C66.796,262.016 66.78,262.204 66.748,262.412 Z M65.932,263.192 C65.636,263.192 65.398,263.074 65.218,262.838 C65.038,262.602 64.948,262.332 64.948,262.028 C64.948,261.756 65.036,261.616 65.212,261.608 C65.348,261.832 65.548,262.038 65.812,262.226 C66.076,262.414 66.368,262.54 66.688,262.604 C66.552,262.996 66.3,263.192 65.932,263.192 Z M70.072,263.672 C70.456,263.672 70.842,263.564 71.23,263.348 C71.618,263.132 71.972,262.834 72.292,262.454 C72.612,262.074 72.864,261.644 73.048,261.164 L73.048,261.164 L72.892,261.044 C72.636,261.692 72.27,262.216 71.794,262.616 C71.318,263.016 70.836,263.216 70.348,263.216 C70.036,263.216 69.812,263.122 69.676,262.934 C69.54,262.746 69.472,262.508 69.472,262.22 C69.472,261.836 69.578,261.412 69.79,260.948 C70.002,260.484 70.262,260.09 70.57,259.766 C70.878,259.442 71.168,259.28 71.44,259.28 C71.536,259.28 71.604,259.304 71.644,259.352 C71.684,259.4 71.704,259.476 71.704,259.58 C71.704,259.764 71.66,259.954 71.572,260.15 C71.484,260.346 71.38,260.472 71.26,260.528 C71.356,260.648 71.472,260.708 71.608,260.708 C71.792,260.708 71.938,260.622 72.046,260.45 C72.154,260.278 72.208,260.072 72.208,259.832 C72.208,259.584 72.142,259.374 72.01,259.202 C71.878,259.03 71.66,258.944 71.356,258.944 C70.956,258.944 70.55,259.098 70.138,259.406 C69.726,259.714 69.388,260.116 69.124,260.612 C68.86,261.108 68.728,261.616 68.728,262.136 C68.728,262.632 68.852,263.012 69.1,263.276 C69.348,263.54 69.672,263.672 70.072,263.672 Z M74.74,263.312 C75.22,263.312 75.696,263.1 76.168,262.676 C76.64,262.252 77,261.764 77.248,261.212 L77.248,261.212 L77.092,261.092 C76.988,261.332 76.82,261.594 76.588,261.878 C76.356,262.162 76.102,262.4 75.826,262.592 C75.55,262.784 75.292,262.88 75.052,262.88 C74.812,262.88 74.692,262.76 74.692,262.52 C74.692,262.352 74.78,262.076 74.956,261.692 C75.068,261.412 75.152,261.186 75.208,261.014 C75.264,260.842 75.292,260.668 75.292,260.492 C75.292,260.22 75.222,259.998 75.082,259.826 C74.942,259.654 74.748,259.48 74.5,259.304 C74.348,259.2 74.238,259.114 74.17,259.046 C74.102,258.978 74.068,258.904 74.068,258.824 C74.076,258.784 74.1,258.708 74.14,258.596 C74.18,258.484 74.2,258.412 74.2,258.38 C74.2,258.188 74.144,258.092 74.032,258.092 C73.984,258.092 73.918,258.128 73.834,258.2 C73.75,258.272 73.678,258.372 73.618,258.5 C73.558,258.628 73.528,258.764 73.528,258.908 C73.528,259.02 73.568,259.116 73.648,259.196 C73.384,259.972 73.06,260.732 72.676,261.476 L72.676,261.476 L72.784,261.68 C72.92,261.448 73.088,261.118 73.288,260.69 C73.488,260.262 73.676,259.824 73.852,259.376 C73.892,259.4 73.968,259.45 74.08,259.526 C74.192,259.602 74.294,259.698 74.386,259.814 C74.478,259.93 74.524,260.088 74.524,260.288 C74.524,260.424 74.498,260.57 74.446,260.726 C74.394,260.882 74.316,261.092 74.212,261.356 C73.98,261.868 73.864,262.26 73.864,262.532 C73.864,262.764 73.942,262.952 74.098,263.096 C74.254,263.24 74.468,263.312 74.74,263.312 Z M79.144,257.816 C79.336,257.816 79.514,257.746 79.678,257.606 C79.842,257.466 79.924,257.32 79.924,257.168 C79.924,256.92 79.792,256.796 79.528,256.796 C79.328,256.796 79.132,256.86 78.94,256.988 C78.748,257.116 78.652,257.26 78.652,257.42 C78.652,257.548 78.698,257.646 78.79,257.714 C78.882,257.782 79,257.816 79.144,257.816 Z M77.704,263.312 C78.184,263.312 78.642,263.124 79.078,262.748 C79.514,262.372 79.844,261.848 80.068,261.176 L80.068,261.176 L79.96,261.056 C79.352,262.28 78.736,262.892 78.112,262.892 C77.904,262.892 77.754,262.842 77.662,262.742 C77.57,262.642 77.524,262.452 77.524,262.172 C77.524,261.86 77.602,261.53 77.758,261.182 C77.914,260.834 78.124,260.44 78.388,260 C78.644,259.576 78.772,259.308 78.772,259.196 C78.772,259.116 78.746,259.052 78.694,259.004 C78.642,258.956 78.58,258.932 78.508,258.932 C78.252,258.932 77.99,259.14 77.722,259.556 C77.454,259.972 77.23,260.456 77.05,261.008 C76.87,261.56 76.78,261.992 76.78,262.304 C76.78,262.6 76.86,262.842 77.02,263.03 C77.18,263.218 77.408,263.312 77.704,263.312 Z M78.976,266.36 C79.032,266.36 79.08,266.34 79.12,266.3 C79.256,266.172 79.462,265.642 79.738,264.71 C80.014,263.778 80.3,262.68 80.596,261.416 C80.708,261.152 80.87,260.87 81.082,260.57 C81.294,260.27 81.534,260.014 81.802,259.802 C82.07,259.59 82.332,259.484 82.588,259.484 C82.812,259.484 82.982,259.57 83.098,259.742 C83.214,259.914 83.272,260.136 83.272,260.408 C83.272,260.816 83.156,261.224 82.924,261.632 C82.692,262.04 82.388,262.376 82.012,262.64 C81.636,262.904 81.24,263.036 80.824,263.036 C80.744,263.036 80.674,263.04 80.614,263.048 C80.554,263.056 80.524,263.072 80.524,263.096 C80.524,263.152 80.59,263.202 80.722,263.246 C80.854,263.29 81.02,263.312 81.22,263.312 C81.74,263.312 82.218,263.154 82.654,262.838 C83.09,262.522 83.432,262.126 83.68,261.65 C83.928,261.174 84.052,260.724 84.052,260.3 C84.052,259.892 83.938,259.562 83.71,259.31 C83.482,259.058 83.192,258.932 82.84,258.932 C82.416,258.932 82.026,259.106 81.67,259.454 C81.314,259.802 81.012,260.216 80.764,260.696 C80.948,259.84 81.04,259.3 81.04,259.076 C81.04,258.924 80.992,258.794 80.896,258.686 C80.8,258.578 80.656,258.524 80.464,258.524 C80.376,258.524 80.318,258.538 80.29,258.566 C80.262,258.594 80.244,258.648 80.236,258.728 C80.1,259.856 79.966,260.782 79.834,261.506 C79.702,262.23 79.576,262.804 79.456,263.228 C79.336,263.652 79.188,264.12 79.012,264.632 C78.852,265.096 78.716,265.52 78.604,265.904 C78.596,265.92 78.612,265.968 78.652,266.048 C78.692,266.128 78.74,266.2 78.796,266.264 C78.852,266.328 78.912,266.36 78.976,266.36 Z M85.444,263.552 C85.996,263.552 86.524,263.33 87.028,262.886 C87.532,262.442 87.932,261.872 88.228,261.176 L88.228,261.176 L88.072,261.056 C87.76,261.696 87.404,262.198 87.004,262.562 C86.604,262.926 86.2,263.108 85.792,263.108 C85.552,263.108 85.38,263.034 85.276,262.886 C85.172,262.738 85.12,262.492 85.12,262.148 C85.12,261.412 85.34,260.54 85.78,259.532 L85.78,259.532 L85.96,259.532 C86.496,259.532 87.2,259.484 88.072,259.388 L88.072,259.388 L88.072,259.172 C87.592,259.22 87.02,259.244 86.356,259.244 L86.356,259.244 L85.912,259.244 C86.08,258.876 86.268,258.51 86.476,258.146 C86.684,257.782 86.808,257.56 86.848,257.48 C87.088,257.064 87.258,256.756 87.358,256.556 C87.458,256.356 87.508,256.204 87.508,256.1 C87.508,256.02 87.482,255.956 87.43,255.908 C87.378,255.86 87.32,255.836 87.256,255.836 C87.024,255.836 86.706,256.17 86.302,256.838 C85.898,257.506 85.52,258.296 85.168,259.208 C85.104,259.208 84.928,259.192 84.64,259.16 L84.64,259.16 L84.64,259.376 C84.736,259.408 84.88,259.44 85.072,259.472 C84.856,260.04 84.686,260.578 84.562,261.086 C84.438,261.594 84.376,262.02 84.376,262.364 C84.376,263.156 84.732,263.552 85.444,263.552 Z M93.04,263.312 C93.52,263.312 93.996,263.1 94.468,262.676 C94.94,262.252 95.3,261.764 95.548,261.212 L95.548,261.212 L95.392,261.092 C95.288,261.332 95.12,261.594 94.888,261.878 C94.656,262.162 94.402,262.4 94.126,262.592 C93.85,262.784 93.592,262.88 93.352,262.88 C93.112,262.88 92.992,262.76 92.992,262.52 C92.992,262.352 93.08,262.076 93.256,261.692 C93.368,261.412 93.452,261.186 93.508,261.014 C93.564,260.842 93.592,260.668 93.592,260.492 C93.592,260.22 93.522,259.998 93.382,259.826 C93.242,259.654 93.048,259.48 92.8,259.304 C92.648,259.2 92.538,259.114 92.47,259.046 C92.402,258.978 92.368,258.904 92.368,258.824 C92.376,258.784 92.4,258.708 92.44,258.596 C92.48,258.484 92.5,258.412 92.5,258.38 C92.5,258.188 92.444,258.092 92.332,258.092 C92.284,258.092 92.218,258.128 92.134,258.2 C92.05,258.272 91.978,258.372 91.918,258.5 C91.858,258.628 91.828,258.764 91.828,258.908 C91.828,259.02 91.868,259.116 91.948,259.196 C91.684,259.972 91.36,260.732 90.976,261.476 L90.976,261.476 L91.084,261.68 C91.22,261.448 91.388,261.118 91.588,260.69 C91.788,260.262 91.976,259.824 92.152,259.376 C92.192,259.4 92.268,259.45 92.38,259.526 C92.492,259.602 92.594,259.698 92.686,259.814 C92.778,259.93 92.824,260.088 92.824,260.288 C92.824,260.424 92.798,260.57 92.746,260.726 C92.694,260.882 92.616,261.092 92.512,261.356 C92.28,261.868 92.164,262.26 92.164,262.532 C92.164,262.764 92.242,262.952 92.398,263.096 C92.554,263.24 92.768,263.312 93.04,263.312 Z M96.436,263.528 C97.036,263.528 97.62,263.312 98.188,262.88 C98.756,262.448 99.2,261.876 99.52,261.164 L99.52,261.164 L99.376,261.056 C99.064,261.656 98.66,262.16 98.164,262.568 C97.668,262.976 97.176,263.18 96.688,263.18 C96.344,263.18 96.1,263.084 95.956,262.892 C95.812,262.7 95.74,262.46 95.74,262.172 C95.74,262.02 95.756,261.876 95.788,261.74 C96.252,261.692 96.716,261.56 97.18,261.344 C97.644,261.128 98.024,260.85 98.32,260.51 C98.616,260.17 98.764,259.804 98.764,259.412 C98.764,258.924 98.516,258.68 98.02,258.68 C97.564,258.68 97.098,258.866 96.622,259.238 C96.146,259.61 95.752,260.068 95.44,260.612 C95.128,261.156 94.972,261.664 94.972,262.136 C94.972,262.544 95.098,262.878 95.35,263.138 C95.602,263.398 95.964,263.528 96.436,263.528 Z M95.848,261.512 C95.952,261.136 96.126,260.756 96.37,260.372 C96.614,259.988 96.882,259.672 97.174,259.424 C97.466,259.176 97.736,259.052 97.984,259.052 C98.08,259.052 98.146,259.074 98.182,259.118 C98.218,259.162 98.236,259.232 98.236,259.328 C98.236,259.648 98.106,259.954 97.846,260.246 C97.586,260.538 97.272,260.792 96.904,261.008 C96.536,261.224 96.184,261.392 95.848,261.512 Z M99.592,266.36 C100.008,266.36 100.408,266.1 100.792,265.58 C101.176,265.06 101.556,264.344 101.932,263.432 C102.388,263.216 102.834,262.908 103.27,262.508 C103.706,262.108 104.008,261.664 104.176,261.176 L104.176,261.176 L104.02,261.056 C103.844,261.496 103.578,261.894 103.222,262.25 C102.866,262.606 102.48,262.884 102.064,263.084 C102.328,262.412 102.548,261.75 102.724,261.098 C102.9,260.446 102.988,260.012 102.988,259.796 C102.892,259.772 102.808,259.76 102.736,259.76 C102.56,259.76 102.422,259.824 102.322,259.952 C102.222,260.08 102.156,260.22 102.124,260.372 L102.124,260.372 L101.98,261.008 C101.66,261.472 101.338,261.852 101.014,262.148 C100.69,262.444 100.42,262.592 100.204,262.592 C100.076,262.592 99.974,262.542 99.898,262.442 C99.822,262.342 99.784,262.196 99.784,262.004 C99.784,261.66 99.9,261.272 100.132,260.84 C100.364,260.408 100.666,260.04 101.038,259.736 C101.41,259.432 101.796,259.28 102.196,259.28 C102.436,259.28 102.596,259.34 102.676,259.46 C102.7,259.452 102.73,259.426 102.766,259.382 C102.802,259.338 102.82,259.284 102.82,259.22 C102.82,259.108 102.766,259.016 102.658,258.944 C102.55,258.872 102.388,258.836 102.172,258.836 C101.732,258.836 101.262,258.982 100.762,259.274 C100.262,259.566 99.842,259.952 99.502,260.432 C99.162,260.912 98.992,261.416 98.992,261.944 C98.992,262.296 99.072,262.578 99.232,262.79 C99.392,263.002 99.612,263.108 99.892,263.108 C100.484,263.108 101.136,262.596 101.848,261.572 C101.664,262.316 101.46,262.976 101.236,263.552 C100.74,263.8 100.342,264.014 100.042,264.194 C99.742,264.374 99.476,264.59 99.244,264.842 C99.012,265.094 98.896,265.368 98.896,265.664 C98.896,265.896 98.964,266.07 99.1,266.186 C99.236,266.302 99.4,266.36 99.592,266.36 Z M99.556,265.976 C99.468,265.976 99.398,265.938 99.346,265.862 C99.294,265.786 99.268,265.684 99.268,265.556 C99.268,265.244 99.428,264.96 99.748,264.704 C100.068,264.448 100.52,264.172 101.104,263.876 C100.808,264.58 100.522,265.106 100.246,265.454 C99.97,265.802 99.74,265.976 99.556,265.976 Z M107.032,263.36 C107.312,263.36 107.608,263.266 107.92,263.078 C108.232,262.89 108.522,262.63 108.79,262.298 C109.058,261.966 109.276,261.588 109.444,261.164 L109.444,261.164 L109.288,261.056 C109.104,261.448 108.888,261.792 108.64,262.088 C108.392,262.384 108.148,262.61 107.908,262.766 C107.668,262.922 107.46,263 107.284,263 C107.02,263 106.888,262.84 106.888,262.52 C106.888,262.272 106.95,261.97 107.074,261.614 C107.198,261.258 107.352,260.876 107.536,260.468 C107.568,260.396 107.602,260.314 107.638,260.222 C107.674,260.13 107.692,260.076 107.692,260.06 C107.692,259.924 107.5,259.82 107.116,259.748 L107.116,259.748 L106.924,260.144 C106.54,260.936 106.182,261.59 105.85,262.106 C105.518,262.622 105.212,262.88 104.932,262.88 C104.764,262.88 104.65,262.792 104.59,262.616 C104.53,262.44 104.5,262.26 104.5,262.076 C104.5,261.716 104.592,261.29 104.776,260.798 C104.96,260.306 105.136,259.928 105.304,259.664 C105.24,259.6 105.162,259.544 105.07,259.496 C104.978,259.448 104.908,259.424 104.86,259.424 C104.748,259.424 104.606,259.586 104.434,259.91 C104.262,260.234 104.114,260.614 103.99,261.05 C103.866,261.486 103.804,261.852 103.804,262.148 C103.804,262.484 103.888,262.77 104.056,263.006 C104.224,263.242 104.44,263.36 104.704,263.36 C104.984,263.36 105.252,263.226 105.508,262.958 C105.764,262.69 106.02,262.328 106.276,261.872 C106.22,262.112 106.192,262.312 106.192,262.472 C106.192,263.064 106.472,263.36 107.032,263.36 Z M110.056,263.36 C110.872,263.36 111.624,262.624 112.312,261.152 L112.312,261.152 L112.132,261.056 C111.892,261.584 111.618,262.036 111.31,262.412 C111.002,262.788 110.7,262.976 110.404,262.976 C110.052,262.976 109.876,262.668 109.876,262.052 C109.876,261.708 109.928,261.304 110.032,260.84 C110.584,260.384 111.104,259.788 111.592,259.052 C112.08,258.316 112.474,257.59 112.774,256.874 C113.074,256.158 113.224,255.616 113.224,255.248 C113.224,255.048 113.186,254.85 113.11,254.654 C113.034,254.458 112.94,254.36 112.828,254.36 C112.556,254.36 112.114,254.856 111.502,255.848 C110.89,256.84 110.336,257.954 109.84,259.19 C109.344,260.426 109.096,261.404 109.096,262.124 C109.096,262.5 109.174,262.8 109.33,263.024 C109.486,263.248 109.728,263.36 110.056,263.36 Z M110.14,260.432 C110.348,259.712 110.636,258.956 111.004,258.164 C111.372,257.372 111.73,256.702 112.078,256.154 C112.426,255.606 112.656,255.332 112.768,255.332 C112.824,255.332 112.852,255.396 112.852,255.524 C112.852,255.796 112.72,256.238 112.456,256.85 C112.192,257.462 111.85,258.102 111.43,258.77 C111.01,259.438 110.58,259.992 110.14,260.432 Z M112.468,263.564 C112.748,263.564 113.03,263.452 113.314,263.228 C113.598,263.004 113.92,262.652 114.28,262.172 C114.256,262.3 114.244,262.416 114.244,262.52 C114.244,262.752 114.318,262.95 114.466,263.114 C114.614,263.278 114.828,263.36 115.108,263.36 C115.388,263.36 115.68,263.268 115.984,263.084 C116.288,262.9 116.572,262.642 116.836,262.31 C117.1,261.978 117.316,261.6 117.484,261.176 L117.484,261.176 L117.364,261.056 C117.02,261.656 116.672,262.122 116.32,262.454 C115.968,262.786 115.676,262.952 115.444,262.952 C115.308,262.952 115.206,262.898 115.138,262.79 C115.07,262.682 115.036,262.56 115.036,262.424 C115.036,262.272 115.076,262.106 115.156,261.926 C115.236,261.746 115.344,261.54 115.48,261.308 C115.496,261.284 115.542,261.202 115.618,261.062 C115.694,260.922 115.732,260.82 115.732,260.756 C115.732,260.676 115.678,260.61 115.57,260.558 C115.462,260.506 115.356,260.472 115.252,260.456 C114.756,261.184 114.292,261.802 113.86,262.31 C113.428,262.818 113.052,263.072 112.732,263.072 C112.516,263.072 112.408,262.916 112.408,262.604 C112.408,262.212 112.538,261.744 112.798,261.2 C113.058,260.656 113.382,260.188 113.77,259.796 C114.158,259.404 114.528,259.208 114.88,259.208 C115.08,259.208 115.228,259.27 115.324,259.394 C115.42,259.518 115.468,259.68 115.468,259.88 C115.468,260.016 115.448,260.156 115.408,260.3 C115.592,260.3 115.736,260.26 115.84,260.18 C115.944,260.1 115.996,259.968 115.996,259.784 C115.996,259.52 115.892,259.304 115.684,259.136 C115.476,258.968 115.216,258.884 114.904,258.884 C114.408,258.884 113.9,259.088 113.38,259.496 C112.86,259.904 112.43,260.4 112.09,260.984 C111.75,261.568 111.58,262.096 111.58,262.568 C111.58,262.888 111.662,263.134 111.826,263.306 C111.99,263.478 112.204,263.564 112.468,263.564 Z M119.2,263.312 C119.68,263.312 120.156,263.1 120.628,262.676 C121.1,262.252 121.46,261.764 121.708,261.212 L121.708,261.212 L121.552,261.092 C121.448,261.332 121.28,261.594 121.048,261.878 C120.816,262.162 120.562,262.4 120.286,262.592 C120.01,262.784 119.752,262.88 119.512,262.88 C119.272,262.88 119.152,262.76 119.152,262.52 C119.152,262.352 119.24,262.076 119.416,261.692 C119.528,261.412 119.612,261.186 119.668,261.014 C119.724,260.842 119.752,260.668 119.752,260.492 C119.752,260.22 119.682,259.998 119.542,259.826 C119.402,259.654 119.208,259.48 118.96,259.304 C118.808,259.2 118.698,259.114 118.63,259.046 C118.562,258.978 118.528,258.904 118.528,258.824 C118.536,258.784 118.56,258.708 118.6,258.596 C118.64,258.484 118.66,258.412 118.66,258.38 C118.66,258.188 118.604,258.092 118.492,258.092 C118.444,258.092 118.378,258.128 118.294,258.2 C118.21,258.272 118.138,258.372 118.078,258.5 C118.018,258.628 117.988,258.764 117.988,258.908 C117.988,259.02 118.028,259.116 118.108,259.196 C117.844,259.972 117.52,260.732 117.136,261.476 L117.136,261.476 L117.244,261.68 C117.38,261.448 117.548,261.118 117.748,260.69 C117.948,260.262 118.136,259.824 118.312,259.376 C118.352,259.4 118.428,259.45 118.54,259.526 C118.652,259.602 118.754,259.698 118.846,259.814 C118.938,259.93 118.984,260.088 118.984,260.288 C118.984,260.424 118.958,260.57 118.906,260.726 C118.854,260.882 118.776,261.092 118.672,261.356 C118.44,261.868 118.324,262.26 118.324,262.532 C118.324,262.764 118.402,262.952 118.558,263.096 C118.714,263.24 118.928,263.312 119.2,263.312 Z M127.9,264.044 C128.108,264.044 128.42,264.028 128.836,263.996 C129.22,263.956 129.588,263.936 129.94,263.936 C130.212,263.936 130.528,263.956 130.888,263.996 C130.84,263.74 130.718,263.564 130.522,263.468 C130.326,263.372 130.06,263.324 129.724,263.324 C129.572,263.324 129.412,263.336 129.244,263.36 C129.628,262.544 129.98,261.458 130.3,260.102 C130.62,258.746 130.876,257.404 131.068,256.076 C131.1,255.916 131.144,255.716 131.2,255.476 C131.296,255.124 131.344,254.876 131.344,254.732 C131.344,254.548 131.308,254.424 131.236,254.36 C130.844,254.792 130.392,255.212 129.88,255.62 C129.368,256.028 128.98,256.3 128.716,256.436 C128.716,256.572 128.74,256.664 128.788,256.712 C128.836,256.76 128.912,256.784 129.016,256.784 C129.192,256.784 129.652,256.52 130.396,255.992 C130.252,256.576 130.092,257.356 129.916,258.332 C129.676,259.604 129.462,260.65 129.274,261.47 C129.086,262.29 128.884,262.948 128.668,263.444 C128.156,263.532 127.724,263.576 127.372,263.576 C127.276,263.576 127.148,263.568 126.988,263.552 C127.092,263.704 127.232,263.824 127.408,263.912 C127.584,264 127.748,264.044 127.9,264.044 Z M136.696,264.044 C137.016,264.044 137.274,263.95 137.47,263.762 C137.666,263.574 137.816,263.276 137.92,262.868 C137.728,262.98 137.566,263.058 137.434,263.102 C137.302,263.146 137.16,263.168 137.008,263.168 C136.584,263.168 135.836,263.044 134.764,262.796 L134.764,262.796 L134.428,262.724 C135.004,262.252 135.556,261.672 136.084,260.984 C136.612,260.296 137.032,259.604 137.344,258.908 C137.72,258.076 137.908,257.288 137.908,256.544 C137.908,256.136 137.83,255.766 137.674,255.434 C137.518,255.102 137.294,254.84 137.002,254.648 C136.71,254.456 136.372,254.36 135.988,254.36 C135.492,254.36 135.046,254.476 134.65,254.708 C134.254,254.94 133.946,255.248 133.726,255.632 C133.506,256.016 133.396,256.424 133.396,256.856 C133.396,257.176 133.464,257.416 133.6,257.576 C133.736,257.736 133.948,257.852 134.236,257.924 L134.236,257.924 L134.296,257.924 C134.24,257.772 134.202,257.638 134.182,257.522 C134.162,257.406 134.152,257.268 134.152,257.108 C134.152,256.404 134.298,255.824 134.59,255.368 C134.882,254.912 135.284,254.684 135.796,254.684 C136.18,254.684 136.488,254.824 136.72,255.104 C136.952,255.384 137.068,255.812 137.068,256.388 C137.068,257.06 136.908,257.794 136.588,258.59 C136.268,259.386 135.858,260.14 135.358,260.852 C134.858,261.564 134.356,262.144 133.852,262.592 C133.292,262.48 132.872,262.424 132.592,262.424 C131.992,262.424 131.692,262.616 131.692,263 C131.692,263.192 131.768,263.348 131.92,263.468 C132.072,263.588 132.268,263.648 132.508,263.648 C132.884,263.648 133.34,263.476 133.876,263.132 C133.972,263.172 134.064,263.21 134.152,263.246 C134.24,263.282 134.32,263.316 134.392,263.348 C134.896,263.564 135.338,263.734 135.718,263.858 C136.098,263.982 136.424,264.044 136.696,264.044 Z M132.496,263.324 C132.384,263.324 132.284,263.296 132.196,263.24 C132.108,263.184 132.064,263.112 132.064,263.024 C132.064,262.952 132.098,262.886 132.166,262.826 C132.234,262.766 132.34,262.736 132.484,262.736 C132.684,262.736 132.988,262.808 133.396,262.952 C133.028,263.2 132.728,263.324 132.496,263.324 Z M140.668,264.044 C141.268,264.044 141.82,263.896 142.324,263.6 C142.828,263.304 143.224,262.92 143.512,262.448 C143.8,261.976 143.944,261.488 143.944,260.984 C143.944,260.488 143.8,260.018 143.512,259.574 C143.224,259.13 142.768,258.828 142.144,258.668 C142.52,258.564 142.87,258.362 143.194,258.062 C143.518,257.762 143.774,257.416 143.962,257.024 C144.15,256.632 144.244,256.26 144.244,255.908 C144.244,255.412 144.066,255.03 143.71,254.762 C143.354,254.494 142.916,254.36 142.396,254.36 C142.028,254.36 141.67,254.432 141.322,254.576 C140.974,254.72 140.692,254.93 140.476,255.206 C140.26,255.482 140.152,255.804 140.152,256.172 C140.152,256.404 140.192,256.62 140.272,256.82 C140.352,257.02 140.46,257.12 140.596,257.12 C140.676,257.12 140.766,257.086 140.866,257.018 C140.966,256.95 141.036,256.872 141.076,256.784 C140.948,256.52 140.884,256.252 140.884,255.98 C140.884,255.588 141.022,255.274 141.298,255.038 C141.574,254.802 141.892,254.684 142.252,254.684 C142.556,254.684 142.812,254.778 143.02,254.966 C143.228,255.154 143.332,255.448 143.332,255.848 C143.332,256.192 143.25,256.56 143.086,256.952 C142.922,257.344 142.692,257.706 142.396,258.038 C142.1,258.37 141.764,258.62 141.388,258.788 C141.852,258.908 142.19,259.172 142.402,259.58 C142.614,259.988 142.72,260.456 142.72,260.984 C142.72,261.496 142.626,261.956 142.438,262.364 C142.25,262.772 142.006,263.09 141.706,263.318 C141.406,263.546 141.096,263.66 140.776,263.66 C140.4,263.66 140.094,263.512 139.858,263.216 C139.622,262.92 139.504,262.572 139.504,262.172 C139.504,261.956 139.54,261.74 139.612,261.524 C139.684,261.308 139.776,261.152 139.888,261.056 C139.848,261.048 139.776,261.044 139.672,261.044 C139.376,261.044 139.14,261.176 138.964,261.44 C138.788,261.704 138.7,262.004 138.7,262.34 C138.7,262.612 138.766,262.878 138.898,263.138 C139.03,263.398 139.242,263.614 139.534,263.786 C139.826,263.958 140.204,264.044 140.668,264.044 Z M148.312,264.044 C148.312,263.82 148.36,263.346 148.456,262.622 C148.552,261.898 148.64,261.324 148.72,260.9 C148.744,260.74 148.788,260.5 148.852,260.18 L148.852,260.18 L149.116,260.18 C149.268,260.18 149.45,260.114 149.662,259.982 C149.874,259.85 150.052,259.68 150.196,259.472 C150.02,259.52 149.78,259.544 149.476,259.544 L149.476,259.544 L148.972,259.544 C149.324,257.68 149.612,256.276 149.836,255.332 C149.988,255.076 150.064,254.856 150.064,254.672 C150.064,254.584 150.05,254.514 150.022,254.462 C149.994,254.41 149.964,254.376 149.932,254.36 C149.62,254.912 149.208,255.464 148.696,256.016 C148.184,256.568 147.508,257.24 146.668,258.032 C145.812,258.84 145.212,259.444 144.868,259.844 C144.724,259.964 144.652,260.132 144.652,260.348 C145.268,260.22 146.048,260.156 146.992,260.156 L146.992,260.156 L147.988,260.168 C147.82,260.952 147.732,261.376 147.724,261.44 C147.604,262.104 147.52,262.594 147.472,262.91 C147.424,263.226 147.396,263.416 147.388,263.48 C147.388,263.8 147.696,263.988 148.312,264.044 Z M145.708,259.544 C145.756,259.496 145.806,259.444 145.858,259.388 C145.91,259.332 145.968,259.268 146.032,259.196 C146.32,258.892 146.832,258.396 147.568,257.708 C148.248,257.076 148.688,256.66 148.888,256.46 C148.704,257.076 148.452,258.092 148.132,259.508 C147.652,259.492 147.248,259.484 146.92,259.484 C146.4,259.484 145.996,259.504 145.708,259.544 Z M152.476,264.044 C153.084,264.044 153.63,263.908 154.114,263.636 C154.598,263.364 154.976,262.994 155.248,262.526 C155.52,262.058 155.656,261.54 155.656,260.972 C155.656,260.292 155.454,259.744 155.05,259.328 C154.646,258.912 154.056,258.704 153.28,258.704 C152.96,258.704 152.612,258.744 152.236,258.824 L152.236,258.824 L152.332,258.464 C152.5,257.792 152.65,257.222 152.782,256.754 C152.914,256.286 153.036,255.924 153.148,255.668 C153.196,255.564 153.236,255.498 153.268,255.47 C153.3,255.442 153.352,255.428 153.424,255.428 C153.528,255.428 153.672,255.448 153.856,255.488 C154.176,255.552 154.468,255.584 154.732,255.584 C155.14,255.584 155.488,255.514 155.776,255.374 C156.064,255.234 156.208,255.004 156.208,254.684 C156.208,254.588 156.192,254.48 156.16,254.36 C155.768,254.44 155.434,254.5 155.158,254.54 C154.882,254.58 154.596,254.6 154.3,254.6 C153.868,254.6 153.444,254.548 153.028,254.444 L153.028,254.444 L152.728,255.512 C152.184,257.376 151.868,258.596 151.78,259.172 C152.22,259.084 152.588,259.04 152.884,259.04 C153.428,259.04 153.832,259.216 154.096,259.568 C154.36,259.92 154.492,260.368 154.492,260.912 C154.492,261.352 154.41,261.784 154.246,262.208 C154.082,262.632 153.846,262.98 153.538,263.252 C153.23,263.524 152.876,263.66 152.476,263.66 C152.06,263.66 151.752,263.522 151.552,263.246 C151.352,262.97 151.252,262.628 151.252,262.22 C151.252,261.972 151.288,261.74 151.36,261.524 C151.432,261.308 151.524,261.152 151.636,261.056 C151.596,261.048 151.524,261.044 151.42,261.044 C151.124,261.044 150.888,261.176 150.712,261.44 C150.536,261.704 150.448,262.008 150.448,262.352 C150.448,262.624 150.514,262.888 150.646,263.144 C150.778,263.4 150.994,263.614 151.294,263.786 C151.594,263.958 151.988,264.044 152.476,264.044 Z M159.316,264.044 C159.916,264.044 160.452,263.904 160.924,263.624 C161.396,263.344 161.764,262.96 162.028,262.472 C162.292,261.984 162.424,261.44 162.424,260.84 C162.424,260.072 162.218,259.492 161.806,259.1 C161.394,258.708 160.868,258.512 160.228,258.512 C159.852,258.512 159.486,258.58 159.13,258.716 C158.774,258.852 158.464,259.044 158.2,259.292 C158.384,258.516 158.634,257.774 158.95,257.066 C159.266,256.358 159.638,255.776 160.066,255.32 C160.494,254.864 160.948,254.636 161.428,254.636 C161.676,254.636 161.848,254.696 161.944,254.816 C162.04,254.936 162.088,255.096 162.088,255.296 C162.088,255.368 162.084,255.428 162.076,255.476 C162.068,255.524 162.064,255.576 162.064,255.632 C162.432,255.52 162.616,255.328 162.616,255.056 C162.616,254.824 162.514,254.65 162.31,254.534 C162.106,254.418 161.832,254.36 161.488,254.36 C160.616,254.36 159.826,254.716 159.118,255.428 C158.41,256.14 157.858,257.024 157.462,258.08 C157.066,259.136 156.868,260.136 156.868,261.08 C156.868,261.968 157.064,262.684 157.456,263.228 C157.848,263.772 158.468,264.044 159.316,264.044 Z M159.376,263.66 C158.84,263.66 158.466,263.418 158.254,262.934 C158.042,262.45 157.936,261.912 157.936,261.32 C157.936,260.624 158.09,260.05 158.398,259.598 C158.706,259.146 159.2,258.92 159.88,258.92 C160.312,258.92 160.67,259.076 160.954,259.388 C161.238,259.7 161.38,260.16 161.38,260.768 C161.38,261.232 161.296,261.688 161.128,262.136 C160.96,262.584 160.724,262.95 160.42,263.234 C160.116,263.518 159.768,263.66 159.376,263.66 Z M164.152,264.044 C164.296,264.044 164.464,263.984 164.656,263.864 C164.848,263.744 165,263.564 165.112,263.324 C165.016,263.252 164.968,263.1 164.968,262.868 C164.968,262.468 165.046,262.03 165.202,261.554 C165.358,261.078 165.576,260.504 165.856,259.832 L165.856,259.832 L166.036,259.412 C166.3,259.42 166.604,259.424 166.948,259.424 C167.3,259.424 167.616,259.22 167.896,258.812 C167.8,258.836 167.672,258.848 167.512,258.848 C167.264,258.848 167,258.836 166.72,258.812 L166.72,258.812 L166.324,258.788 C166.956,257.404 167.596,256.236 168.244,255.284 C168.428,255.084 168.644,254.784 168.892,254.384 C168.42,254.544 167.748,254.624 166.876,254.624 C166.492,254.624 166.176,254.61 165.928,254.582 C165.68,254.554 165.388,254.512 165.052,254.456 L165.052,254.456 L164.68,254.384 C164.576,254.576 164.524,254.744 164.524,254.888 C164.524,255.264 164.932,255.452 165.748,255.452 C165.948,255.452 166.14,255.448 166.324,255.44 C166.508,255.432 166.668,255.424 166.804,255.416 C167.14,255.392 167.432,255.38 167.68,255.38 L167.68,255.38 L166.996,256.532 C166.428,257.452 165.996,258.192 165.7,258.752 L165.7,258.752 L165.412,258.752 C164.908,258.752 164.502,258.802 164.194,258.902 C163.886,259.002 163.728,259.212 163.72,259.532 C163.904,259.508 164.158,259.484 164.482,259.46 C164.806,259.436 165.096,259.42 165.352,259.412 C164.856,260.42 164.464,261.274 164.176,261.974 C163.888,262.674 163.744,263.184 163.744,263.504 C163.744,263.672 163.784,263.804 163.864,263.9 C163.944,263.996 164.04,264.044 164.152,264.044 Z M170.296,264.044 C170.8,264.044 171.28,263.94 171.736,263.732 C172.192,263.524 172.562,263.23 172.846,262.85 C173.13,262.47 173.272,262.032 173.272,261.536 C173.272,261.192 173.202,260.866 173.062,260.558 C172.922,260.25 172.754,259.974 172.558,259.73 C172.362,259.486 172.096,259.18 171.76,258.812 C172.304,258.38 172.726,257.954 173.026,257.534 C173.326,257.114 173.476,256.636 173.476,256.1 C173.476,255.548 173.312,255.122 172.984,254.822 C172.656,254.522 172.216,254.372 171.664,254.372 C171.288,254.372 170.932,254.442 170.596,254.582 C170.26,254.722 169.984,254.94 169.768,255.236 C169.552,255.532 169.444,255.904 169.444,256.352 C169.444,256.84 169.56,257.28 169.792,257.672 C170.024,258.064 170.356,258.496 170.788,258.968 L170.788,258.968 L170.368,259.28 C169.88,259.632 169.494,259.932 169.21,260.18 C168.926,260.428 168.686,260.712 168.49,261.032 C168.294,261.352 168.196,261.7 168.196,262.076 C168.196,262.388 168.264,262.692 168.4,262.988 C168.536,263.284 168.76,263.534 169.072,263.738 C169.384,263.942 169.792,264.044 170.296,264.044 Z M171.448,258.452 C171.104,258.06 170.84,257.688 170.656,257.336 C170.472,256.984 170.38,256.604 170.38,256.196 C170.38,255.852 170.446,255.568 170.578,255.344 C170.71,255.12 170.876,254.956 171.076,254.852 C171.276,254.748 171.476,254.696 171.676,254.696 C171.988,254.696 172.25,254.816 172.462,255.056 C172.674,255.296 172.78,255.64 172.78,256.088 C172.78,256.552 172.664,256.974 172.432,257.354 C172.2,257.734 171.872,258.1 171.448,258.452 Z M170.416,263.576 C170.16,263.576 169.918,263.512 169.69,263.384 C169.462,263.256 169.278,263.076 169.138,262.844 C168.998,262.612 168.928,262.344 168.928,262.04 C168.928,261.688 169.026,261.358 169.222,261.05 C169.418,260.742 169.658,260.464 169.942,260.216 C170.226,259.968 170.612,259.668 171.1,259.316 C171.484,259.74 171.778,260.122 171.982,260.462 C172.186,260.802 172.288,261.176 172.288,261.584 C172.288,261.968 172.196,262.312 172.012,262.616 C171.828,262.92 171.59,263.156 171.298,263.324 C171.006,263.492 170.712,263.576 170.416,263.576 Z M176.368,264.044 C177.224,264.044 177.986,263.7 178.654,263.012 C179.322,262.324 179.84,261.47 180.208,260.45 C180.576,259.43 180.76,258.448 180.76,257.504 C180.76,256.568 180.554,255.81 180.142,255.23 C179.73,254.65 179.084,254.36 178.204,254.36 C177.62,254.36 177.1,254.496 176.644,254.768 C176.188,255.04 175.834,255.41 175.582,255.878 C175.33,256.346 175.204,256.872 175.204,257.456 C175.204,258.256 175.42,258.862 175.852,259.274 C176.284,259.686 176.828,259.892 177.484,259.892 C177.86,259.892 178.224,259.824 178.576,259.688 C178.928,259.552 179.228,259.36 179.476,259.112 C179.324,259.888 179.102,260.63 178.81,261.338 C178.518,262.046 178.166,262.628 177.754,263.084 C177.342,263.54 176.896,263.768 176.416,263.768 C176.16,263.768 175.982,263.704 175.882,263.576 C175.782,263.448 175.732,263.28 175.732,263.072 L175.732,263.072 L175.744,262.772 C175.392,262.884 175.216,263.068 175.216,263.324 C175.216,263.564 175.32,263.744 175.528,263.864 C175.736,263.984 176.016,264.044 176.368,264.044 Z M177.82,259.484 C177.372,259.484 176.998,259.32 176.698,258.992 C176.398,258.664 176.248,258.176 176.248,257.528 C176.248,257.072 176.326,256.63 176.482,256.202 C176.638,255.774 176.862,255.424 177.154,255.152 C177.446,254.88 177.78,254.744 178.156,254.744 C178.708,254.744 179.096,255 179.32,255.512 C179.544,256.024 179.656,256.644 179.656,257.372 C179.656,258.028 179.504,258.544 179.2,258.92 C178.896,259.296 178.436,259.484 177.82,259.484 Z M183.892,264.044 C184.7,264.044 185.444,263.716 186.124,263.06 C186.804,262.404 187.34,261.554 187.732,260.51 C188.124,259.466 188.32,258.4 188.32,257.312 C188.32,256.72 188.222,256.202 188.026,255.758 C187.83,255.314 187.554,254.97 187.198,254.726 C186.842,254.482 186.424,254.36 185.944,254.36 C185.136,254.36 184.4,254.704 183.736,255.392 C183.072,256.08 182.55,256.938 182.17,257.966 C181.79,258.994 181.6,259.976 181.6,260.912 C181.6,261.808 181.794,262.554 182.182,263.15 C182.57,263.746 183.14,264.044 183.892,264.044 Z M184.06,263.636 C183.612,263.636 183.258,263.412 182.998,262.964 C182.738,262.516 182.608,261.916 182.608,261.164 C182.608,260.364 182.744,259.45 183.016,258.422 C183.288,257.394 183.678,256.514 184.186,255.782 C184.694,255.05 185.284,254.684 185.956,254.684 C186.46,254.684 186.828,254.898 187.06,255.326 C187.292,255.754 187.408,256.332 187.408,257.06 C187.408,257.956 187.252,258.922 186.94,259.958 C186.628,260.994 186.214,261.866 185.698,262.574 C185.182,263.282 184.636,263.636 184.06,263.636 Z" id="dancingscriptregular1234567890"></path>
            </g>
        </g>
    </g>
</svg>