<?xml version="1.0" encoding="UTF-8"?>
<svg width="192px" height="13px" viewBox="0 0 192 13" version="1.1" xmlns="http://www.w3.org/2000/svg" xmlns:xlink="http://www.w3.org/1999/xlink">
    <title>girassolregular1234567890</title>
    <g id="页面-1" stroke="none" stroke-width="1" fill="none" fill-rule="evenodd">
        <g id="弃-增加英文字体分类" transform="translate(-748.000000, -27.000000)" fill="#FFFFFF" fill-rule="nonzero">
            <g id="编组-4" transform="translate(720.000000, 10.000000)">
                <path d="M31.2714033,29.5931226 C32.0501643,29.5931226 32.6721618,29.3554488 33.1373957,28.8801011 L33.1373957,28.8801011 L33.5621745,29.4414159 L33.9110999,29.4414159 L33.9110999,26.0886979 C33.9110999,25.7347155 34.0628066,25.5577244 34.36622,25.5577244 L34.36622,25.5577244 L34.36622,25.0570923 L31.3624273,25.0570923 L31.3624273,25.5577244 C32.0805057,25.5577244 32.4395449,25.8257396 32.4395449,26.3617699 L32.4395449,26.3617699 L32.4395449,27.5299115 C32.4395449,27.9749178 32.3358786,28.3314286 32.1285461,28.5994437 C31.9212137,28.8674589 31.6405563,29.0014665 31.286574,29.0014665 C30.9427054,29.0014665 30.6671049,28.8649305 30.4597724,28.5918584 C30.2524399,28.3187863 30.1487737,27.964804 30.1487737,27.5299115 L30.1487737,27.5299115 L30.1487737,23.3124652 C30.1487737,22.8674589 30.2954235,22.4881922 30.5887231,22.174665 C30.8820228,21.8611378 31.2309482,21.7043742 31.6354994,21.7043742 C31.9186852,21.7043742 32.1588875,21.7574716 32.3561062,21.8636662 C32.5533249,21.9698609 32.7328445,22.1544374 32.894665,22.4173957 C33.0564855,22.680354 33.2284197,23.049507 33.4104678,23.5248546 L33.4104678,23.5248546 L33.9262705,23.3883186 L33.3042731,20.9458407 L32.7884703,20.9458407 C32.7176738,21.1076612 32.6013654,21.1734008 32.4395449,21.1430594 C32.2777244,21.1127181 32.0147661,21.0975474 31.65067,21.0975474 C30.6696334,21.0975474 29.8959292,21.3857901 29.3295575,21.9622756 C28.7631858,22.5387611 28.48,23.3326928 28.48,24.3440708 L28.48,24.3440708 L28.48,26.3465992 C28.48,28.5109482 29.4104678,29.5931226 31.2714033,29.5931226 Z M38.5229836,29.4414159 L38.5229836,28.8801011 C38.1993426,28.8801011 37.9667257,28.8295322 37.8251327,28.7283944 C37.6835398,28.6272566 37.6127434,28.4603793 37.6127434,28.2277623 L37.6127434,28.2277623 L37.6127434,22.4629077 C37.6127434,22.2302908 37.6835398,22.0634134 37.8251327,21.9622756 C37.9667257,21.8611378 38.1993426,21.8105689 38.5229836,21.8105689 L38.5229836,21.8105689 L38.5229836,21.2492541 L35.0337295,21.2492541 L35.0337295,21.8105689 C35.3573704,21.8105689 35.5899874,21.8611378 35.7315803,21.9622756 C35.8731732,22.0634134 35.9439697,22.2302908 35.9439697,22.4629077 L35.9439697,22.4629077 L35.9439697,28.2277623 C35.9439697,28.4603793 35.8731732,28.6272566 35.7315803,28.7283944 C35.5899874,28.8295322 35.3573704,28.8801011 35.0337295,28.8801011 L35.0337295,28.8801011 L35.0337295,29.4414159 L38.5229836,29.4414159 Z M42.7404298,29.4414159 L42.7404298,28.8801011 C42.4167889,28.8801011 42.1841719,28.8295322 42.042579,28.7283944 C41.9009861,28.6272566 41.8301896,28.4603793 41.8301896,28.2277623 L41.8301896,28.2277623 L41.8301896,21.8409102 L42.8314539,21.8409102 C43.1652086,21.8409102 43.4332238,21.9749178 43.6354994,22.242933 C43.837775,22.5109482 43.9389128,22.8674589 43.9389128,23.3124652 L43.9389128,23.3124652 L43.9389128,24.0861694 C43.9389128,24.5311757 43.837775,24.8902149 43.6354994,25.163287 C43.4332238,25.436359 43.1652086,25.5728951 42.8314539,25.5728951 L42.8314539,25.5728951 L42.4370164,25.5728951 L42.4370164,26.1342099 L42.7556005,26.1342099 C43.0489001,26.1342099 43.3068015,26.2935019 43.5293047,26.612086 C43.7518078,26.93067 43.8630594,27.3074083 43.8630594,27.7423009 C43.8630594,28.3289001 44.0375221,28.7587358 44.3864475,29.0318078 C44.7353729,29.3048799 45.2789886,29.4414159 46.0172946,29.4414159 L46.0172946,29.4414159 L46.1538306,29.4414159 L46.1538306,28.8801011 L46.0628066,28.8801011 C45.8807585,28.8801011 45.7265234,28.7688496 45.6001011,28.5463464 C45.4736789,28.3238432 45.4104678,28.0558281 45.4104678,27.7423009 C45.4104678,26.8320607 44.985689,26.1999494 44.1361315,25.8459671 C44.6215929,25.6032364 44.9755752,25.322579 45.1980784,25.0039949 C45.4205815,24.6854109 45.5318331,24.3086726 45.5318331,23.87378 C45.5318331,22.9736536 45.3143869,22.311201 44.8794943,21.8864223 C44.4446018,21.4616435 43.7619216,21.2492541 42.8314539,21.2492541 L42.8314539,21.2492541 L39.2511757,21.2492541 L39.2511757,21.8105689 C39.5748167,21.8105689 39.8074336,21.8611378 39.9490265,21.9622756 C40.0906195,22.0634134 40.1614159,22.2302908 40.1614159,22.4629077 L40.1614159,22.4629077 L40.1614159,28.2277623 C40.1614159,28.4603793 40.0906195,28.6272566 39.9490265,28.7283944 C39.8074336,28.8295322 39.5748167,28.8801011 39.2511757,28.8801011 L39.2511757,28.8801011 L39.2511757,29.4414159 L42.7404298,29.4414159 Z M48.6418205,29.4414159 L48.6418205,28.8801011 C48.297952,28.8801011 48.042579,28.8194185 47.8757016,28.6980531 C47.7088243,28.5766877 47.6607838,28.4148673 47.7315803,28.2125917 L47.7315803,28.2125917 L48.0501643,27.2416688 L50.4774716,27.2416688 L50.7960556,28.2581037 C50.9275348,28.6727686 50.6190645,28.8801011 49.8706448,28.8801011 L49.8706448,28.8801011 L49.8706448,29.4414159 L53.3598989,29.4414159 L53.3598989,28.8801011 C53.0463717,28.8801011 52.8339823,28.839646 52.7227307,28.7587358 C52.6114791,28.6778255 52.5103413,28.5058913 52.4193173,28.242933 L52.4193173,28.242933 L50.0526928,21.1885714 L49.3245006,21.1885714 L47.0489001,28.2125917 C46.9781037,28.4553224 46.871909,28.6272566 46.7303161,28.7283944 C46.5887231,28.8295322 46.3813906,28.8801011 46.1083186,28.8801011 L46.1083186,28.8801011 L46.1083186,29.4414159 L48.6418205,29.4414159 Z M50.2954235,26.6651833 L48.2473831,26.6651833 L49.2941593,23.4793426 L50.2954235,26.6651833 Z M56.6519343,29.5931226 C57.1475095,29.5931226 57.5950442,29.4919848 57.9945386,29.2897092 C58.3940329,29.0874336 58.7126169,28.8143616 58.9502908,28.470493 C59.1879646,28.1266245 59.3068015,27.7473578 59.3068015,27.3326928 C59.3068015,26.8270038 59.1879646,26.3744121 58.9502908,25.9749178 C58.7126169,25.5754235 58.3763338,25.2593679 57.9414412,25.0267509 L57.9414412,25.0267509 L56.3030088,24.1316814 C55.9389128,23.9294058 55.6860683,23.7347155 55.5444753,23.5476106 C55.4028824,23.3605057 55.332086,23.1253603 55.332086,22.8421745 C55.332086,22.5286473 55.445866,22.2631606 55.673426,22.0457143 C55.9009861,21.828268 56.1715297,21.7195449 56.4850569,21.7195449 C56.8997219,21.7195449 57.2360051,21.851024 57.4939064,22.1139823 C57.7518078,22.3769406 58.0071808,22.8573451 58.2600253,23.555196 L58.2600253,23.555196 L58.7758281,23.4186599 L58.1538306,20.976182 L57.6380278,20.976182 C57.5874589,21.1076612 57.5191909,21.1784576 57.4332238,21.1885714 C57.3472566,21.1986852 57.2208344,21.186043 57.053957,21.1506448 C56.8870796,21.1152465 56.6519343,21.0975474 56.3485209,21.0975474 C55.9237421,21.0975474 55.5242478,21.2012137 55.1500379,21.4085461 C54.7758281,21.6158786 54.4724147,21.8914791 54.2397977,22.2353477 C54.0071808,22.5792162 53.8908723,22.9483692 53.8908723,23.3428066 C53.8908723,24.2125917 54.3915044,24.9205563 55.3927686,25.4667004 L55.3927686,25.4667004 L56.7277876,26.2100632 C57.4357522,26.6045006 57.7897345,27.0697345 57.7897345,27.6057649 C57.7897345,27.828268 57.7239949,28.0406574 57.5925158,28.242933 C57.4610367,28.4452086 57.2916308,28.612086 57.0842984,28.7435651 C56.8769659,28.8750442 56.6569912,28.9407838 56.4243742,28.9407838 C55.9085714,28.9407838 55.4711504,28.7233375 55.1121113,28.288445 C54.7530721,27.8535525 54.502756,27.2366119 54.3611631,26.4376233 L54.3611631,26.4376233 L53.8453603,26.4376233 L53.8453603,29.4414159 L54.3763338,29.4414159 C54.4471302,29.2593679 54.5988369,29.1683439 54.8314539,29.1683439 C54.9325917,29.1683439 55.0514286,29.2037421 55.1879646,29.2745386 C55.3245006,29.345335 55.5090771,29.4161315 55.7416941,29.4869279 C55.974311,29.5577244 56.2777244,29.5931226 56.6519343,29.5931226 Z M63.2056637,29.5931226 C63.7012389,29.5931226 64.1487737,29.4919848 64.548268,29.2897092 C64.9477623,29.0874336 65.2663464,28.8143616 65.5040202,28.470493 C65.7416941,28.1266245 65.860531,27.7473578 65.860531,27.3326928 C65.860531,26.8270038 65.7416941,26.3744121 65.5040202,25.9749178 C65.2663464,25.5754235 64.9300632,25.2593679 64.4951707,25.0267509 L64.4951707,25.0267509 L62.8567383,24.1316814 C62.4926422,23.9294058 62.2397977,23.7347155 62.0982048,23.5476106 C61.9566119,23.3605057 61.8858154,23.1253603 61.8858154,22.8421745 C61.8858154,22.5286473 61.9995954,22.2631606 62.2271555,22.0457143 C62.4547155,21.828268 62.7252592,21.7195449 63.0387863,21.7195449 C63.4534513,21.7195449 63.7897345,21.851024 64.0476359,22.1139823 C64.3055373,22.3769406 64.5609102,22.8573451 64.8137547,23.555196 L64.8137547,23.555196 L65.3295575,23.4186599 L64.7075601,20.976182 L64.1917573,20.976182 C64.1411884,21.1076612 64.0729204,21.1784576 63.9869532,21.1885714 C63.9009861,21.1986852 63.7745638,21.186043 63.6076865,21.1506448 C63.4408091,21.1152465 63.2056637,21.0975474 62.9022503,21.0975474 C62.4774716,21.0975474 62.0779772,21.2012137 61.7037674,21.4085461 C61.3295575,21.6158786 61.0261441,21.8914791 60.7935272,22.2353477 C60.5609102,22.5792162 60.4446018,22.9483692 60.4446018,23.3428066 C60.4446018,24.2125917 60.9452339,24.9205563 61.9464981,25.4667004 L61.9464981,25.4667004 L63.2815171,26.2100632 C63.9894817,26.6045006 64.343464,27.0697345 64.343464,27.6057649 C64.343464,27.828268 64.2777244,28.0406574 64.1462453,28.242933 C64.0147661,28.4452086 63.8453603,28.612086 63.6380278,28.7435651 C63.4306953,28.8750442 63.2107206,28.9407838 62.9781037,28.9407838 C62.4623009,28.9407838 62.0248799,28.7233375 61.6658407,28.288445 C61.3068015,27.8535525 61.0564855,27.2366119 60.9148925,26.4376233 L60.9148925,26.4376233 L60.3990898,26.4376233 L60.3990898,29.4414159 L60.9300632,29.4414159 C61.0008597,29.2593679 61.1525664,29.1683439 61.3851833,29.1683439 C61.4863211,29.1683439 61.605158,29.2037421 61.7416941,29.2745386 C61.8782301,29.345335 62.0628066,29.4161315 62.2954235,29.4869279 C62.5280405,29.5577244 62.8314539,29.5931226 63.2056637,29.5931226 Z M69.8959292,29.668976 C71.837775,29.668976 72.8086979,28.5868015 72.8086979,26.4224526 L72.8086979,26.4224526 L72.8086979,24.2682174 C72.8086979,23.2366119 72.5558534,22.4376233 72.0501643,21.8712516 C71.5444753,21.3048799 70.826397,21.0216941 69.8959292,21.0216941 C68.9351201,21.0216941 68.2043995,21.2947661 67.7037674,21.8409102 C67.2031353,22.3870544 66.9528192,23.1961568 66.9528192,24.2682174 L66.9528192,24.2682174 L66.9528192,26.4224526 C66.9528192,27.4742857 67.2056637,28.2783312 67.7113527,28.8345891 C68.2170417,29.390847 68.9452339,29.668976 69.8959292,29.668976 Z M69.8959292,29.0773198 C69.5217193,29.0773198 69.2208344,28.9458407 68.9932743,28.6828824 C68.7657143,28.4199241 68.6519343,28.0709987 68.6519343,27.6361062 L68.6519343,27.6361062 L68.6519343,23.0697345 C68.6519343,22.6550695 68.7707712,22.3086726 69.008445,22.0305436 C69.2461188,21.7524147 69.5419469,21.6133502 69.8959292,21.6133502 C70.2600253,21.6133502 70.5583818,21.7498862 70.7909987,22.0229583 C71.0236157,22.2960303 71.1399241,22.6449558 71.1399241,23.0697345 L71.1399241,23.0697345 L71.1399241,27.6361062 C71.1399241,28.060885 71.0236157,28.4072819 70.7909987,28.6752971 C70.5583818,28.9433123 70.2600253,29.0773198 69.8959292,29.0773198 Z M79.6810114,29.76 L79.6810114,26.81689 L79.1803793,26.81689 C79.1196966,27.3731479 79.0286726,27.7979267 78.9073072,28.0912263 C78.7859418,28.3845259 78.6038938,28.5842731 78.3611631,28.6904678 C78.1184324,28.7966625 77.769507,28.8497598 77.3143869,28.8497598 L77.3143869,28.8497598 L76.3586346,28.8497598 L76.3586346,22.4629077 C76.3586346,22.2302908 76.4294311,22.0634134 76.571024,21.9622756 C76.7126169,21.8611378 76.9452339,21.8105689 77.2688748,21.8105689 L77.2688748,21.8105689 L77.2688748,21.2492541 L73.7796207,21.2492541 L73.7796207,21.8105689 C74.1032617,21.8105689 74.3358786,21.8611378 74.4774716,21.9622756 C74.6190645,22.0634134 74.6898609,22.2302908 74.6898609,22.4629077 L74.6898609,22.4629077 L74.6898609,28.2277623 C74.6898609,28.4603793 74.6190645,28.6272566 74.4774716,28.7283944 C74.3358786,28.8295322 74.1032617,28.8801011 73.7796207,28.8801011 L73.7796207,28.8801011 L73.7796207,29.4414159 L78.1184324,29.4414159 C78.4724147,29.4414159 78.7252592,29.4641719 78.8769659,29.5096839 C79.0286726,29.555196 79.1247535,29.6386346 79.1652086,29.76 L79.1652086,29.76 L79.6810114,29.76 Z M86.6898609,29.4414159 L86.6898609,28.8801011 C86.36622,28.8801011 86.133603,28.8295322 85.9920101,28.7283944 C85.8504172,28.6272566 85.7796207,28.4603793 85.7796207,28.2277623 L85.7796207,28.2277623 L85.7796207,21.8409102 L86.780885,21.8409102 C87.1146397,21.8409102 87.3826549,21.9749178 87.5849305,22.242933 C87.7872061,22.5109482 87.8883439,22.8674589 87.8883439,23.3124652 L87.8883439,23.3124652 L87.8883439,24.0861694 C87.8883439,24.5311757 87.7872061,24.8902149 87.5849305,25.163287 C87.3826549,25.436359 87.1146397,25.5728951 86.780885,25.5728951 L86.780885,25.5728951 L86.3864475,25.5728951 L86.3864475,26.1342099 L86.7050316,26.1342099 C86.9983312,26.1342099 87.2562326,26.2935019 87.4787358,26.612086 C87.7012389,26.93067 87.8124905,27.3074083 87.8124905,27.7423009 C87.8124905,28.3289001 87.9869532,28.7587358 88.3358786,29.0318078 C88.684804,29.3048799 89.2284197,29.4414159 89.9667257,29.4414159 L89.9667257,29.4414159 L90.1032617,29.4414159 L90.1032617,28.8801011 L90.0122377,28.8801011 C89.8301896,28.8801011 89.6759545,28.7688496 89.5495322,28.5463464 C89.42311,28.3238432 89.3598989,28.0558281 89.3598989,27.7423009 C89.3598989,26.8320607 88.9351201,26.1999494 88.0855626,25.8459671 C88.571024,25.6032364 88.9250063,25.322579 89.1475095,25.0039949 C89.3700126,24.6854109 89.4812642,24.3086726 89.4812642,23.87378 C89.4812642,22.9736536 89.263818,22.311201 88.8289254,21.8864223 C88.3940329,21.4616435 87.7113527,21.2492541 86.780885,21.2492541 L86.780885,21.2492541 L83.2006068,21.2492541 L83.2006068,21.8105689 C83.5242478,21.8105689 83.7568647,21.8611378 83.8984576,21.9622756 C84.0400506,22.0634134 84.110847,22.2302908 84.110847,22.4629077 L84.110847,22.4629077 L84.110847,28.2277623 C84.110847,28.4603793 84.0400506,28.6272566 83.8984576,28.7283944 C83.7568647,28.8295322 83.5242478,28.8801011 83.2006068,28.8801011 L83.2006068,28.8801011 L83.2006068,29.4414159 L86.6898609,29.4414159 Z M97.0514286,29.76 L97.0514286,26.8472314 L96.5507965,26.8472314 C96.4901138,27.4034893 96.4016182,27.8257396 96.2853097,28.1139823 C96.1690013,28.402225 95.9869532,28.5969153 95.7391656,28.6980531 C95.491378,28.7991909 95.1399241,28.8497598 94.684804,28.8497598 L94.684804,28.8497598 L93.1070544,28.8497598 L93.1070544,25.6942604 L94.1993426,25.6942604 C94.59378,25.6942604 94.7909987,26.0027307 94.7909987,26.6196713 L94.7909987,26.6196713 L95.2764602,26.6196713 L95.2764602,24.3137295 L94.7909987,24.3137295 C94.7909987,24.839646 94.59378,25.1026043 94.1993426,25.1026043 L94.1993426,25.1026043 L93.1070544,25.1026043 L93.1070544,21.8409102 L94.1841719,21.8409102 C94.6291783,21.8409102 94.9806321,21.8813654 95.2385335,21.9622756 C95.4964349,22.0431858 95.7088243,22.2075348 95.8757016,22.4553224 C96.042579,22.70311 96.2170417,23.0697345 96.3990898,23.555196 L96.3990898,23.555196 L96.8997219,23.4186599 L96.2777244,20.9610114 L95.7770923,20.9610114 C95.7669785,21.0621492 95.7062958,21.1354741 95.5950442,21.1809861 C95.4837927,21.2264981 95.2966877,21.2492541 95.0337295,21.2492541 L95.0337295,21.2492541 L90.5432111,21.2492541 L90.5432111,21.8105689 C90.8668521,21.8105689 91.099469,21.8611378 91.2410619,21.9622756 C91.3826549,22.0634134 91.4534513,22.2302908 91.4534513,22.4629077 L91.4534513,22.4629077 L91.4534513,28.2277623 C91.4534513,28.4603793 91.3826549,28.6272566 91.2410619,28.7283944 C91.099469,28.8295322 90.8668521,28.8801011 90.5432111,28.8801011 L90.5432111,28.8801011 L90.5432111,29.4414159 L95.4888496,29.4414159 C95.8428319,29.4414159 96.0956764,29.4641719 96.2473831,29.5096839 C96.3990898,29.555196 96.4951707,29.6386346 96.5356258,29.76 L96.5356258,29.76 L97.0514286,29.76 Z M100.692389,29.5931226 C101.47115,29.5931226 102.093148,29.3554488 102.558382,28.8801011 L102.558382,28.8801011 L102.983161,29.4414159 L103.332086,29.4414159 L103.332086,26.0886979 C103.332086,25.7347155 103.483793,25.5577244 103.787206,25.5577244 L103.787206,25.5577244 L103.787206,25.0570923 L100.783413,25.0570923 L100.783413,25.5577244 C101.501492,25.5577244 101.860531,25.8257396 101.860531,26.3617699 L101.860531,26.3617699 L101.860531,27.5299115 C101.860531,27.9749178 101.756865,28.3314286 101.549532,28.5994437 C101.3422,28.8674589 101.061542,29.0014665 100.70756,29.0014665 C100.363692,29.0014665 100.088091,28.8649305 99.8807585,28.5918584 C99.673426,28.3187863 99.5697598,27.964804 99.5697598,27.5299115 L99.5697598,27.5299115 L99.5697598,23.3124652 C99.5697598,22.8674589 99.7164096,22.4881922 100.009709,22.174665 C100.303009,21.8611378 100.651934,21.7043742 101.056485,21.7043742 C101.339671,21.7043742 101.579874,21.7574716 101.777092,21.8636662 C101.974311,21.9698609 102.153831,22.1544374 102.315651,22.4173957 C102.477472,22.680354 102.649406,23.049507 102.831454,23.5248546 L102.831454,23.5248546 L103.347257,23.3883186 L102.725259,20.9458407 L102.209456,20.9458407 C102.13866,21.1076612 102.022351,21.1734008 101.860531,21.1430594 C101.69871,21.1127181 101.435752,21.0975474 101.071656,21.0975474 C100.090619,21.0975474 99.3169153,21.3857901 98.7505436,21.9622756 C98.1841719,22.5387611 97.9009861,23.3326928 97.9009861,24.3440708 L97.9009861,24.3440708 L97.9009861,26.3465992 C97.9009861,28.5109482 98.8314539,29.5931226 100.692389,29.5931226 Z M107.928799,29.5931226 C109.6178,29.5931226 110.462301,28.5109482 110.462301,26.3465992 L110.462301,26.3465992 L110.462301,22.4629077 C110.462301,22.220177 110.52804,22.0507712 110.65952,21.9546903 C110.790999,21.8586094 111.028673,21.8105689 111.372541,21.8105689 L111.372541,21.8105689 L111.372541,21.2492541 L108.899722,21.2492541 L108.899722,21.8105689 C109.24359,21.8105689 109.481264,21.8586094 109.612743,21.9546903 C109.744223,22.0507712 109.809962,22.220177 109.809962,22.4629077 L109.809962,22.4629077 L109.809962,26.5741593 C109.809962,27.2720101 109.665841,27.8434387 109.377598,28.288445 C109.089355,28.7334513 108.712617,28.9559545 108.247383,28.9559545 C107.812491,28.9559545 107.461037,28.8093047 107.193021,28.5160051 C106.925006,28.2227054 106.790999,27.8434387 106.790999,27.3782048 L106.790999,27.3782048 L106.790999,22.4629077 C106.790999,22.2302908 106.861795,22.0634134 107.003388,21.9622756 C107.144981,21.8611378 107.377598,21.8105689 107.701239,21.8105689 L107.701239,21.8105689 L107.701239,21.2492541 L104.211985,21.2492541 L104.211985,21.8105689 C104.535626,21.8105689 104.768243,21.8611378 104.909836,21.9622756 C105.051429,22.0634134 105.122225,22.2302908 105.122225,22.4629077 L105.122225,22.4629077 L105.122225,26.3465992 C105.122225,27.3579772 105.372541,28.151909 105.873173,28.7283944 C106.373805,29.3048799 107.059014,29.5931226 107.928799,29.5931226 Z M117.759393,29.76 L117.759393,26.81689 L117.258761,26.81689 C117.198078,27.3731479 117.107054,27.7979267 116.985689,28.0912263 C116.864324,28.3845259 116.682276,28.5842731 116.439545,28.6904678 C116.196814,28.7966625 115.847889,28.8497598 115.392769,28.8497598 L115.392769,28.8497598 L114.437016,28.8497598 L114.437016,22.4629077 C114.437016,22.2302908 114.507813,22.0634134 114.649406,21.9622756 C114.790999,21.8611378 115.023616,21.8105689 115.347257,21.8105689 L115.347257,21.8105689 L115.347257,21.2492541 L111.858003,21.2492541 L111.858003,21.8105689 C112.181643,21.8105689 112.41426,21.8611378 112.555853,21.9622756 C112.697446,22.0634134 112.768243,22.2302908 112.768243,22.4629077 L112.768243,22.4629077 L112.768243,28.2277623 C112.768243,28.4603793 112.697446,28.6272566 112.555853,28.7283944 C112.41426,28.8295322 112.181643,28.8801011 111.858003,28.8801011 L111.858003,28.8801011 L111.858003,29.4414159 L116.196814,29.4414159 C116.550796,29.4414159 116.803641,29.4641719 116.955348,29.5096839 C117.107054,29.555196 117.203135,29.6386346 117.24359,29.76 L117.24359,29.76 L117.759393,29.76 Z M120.41426,29.4414159 L120.41426,28.8801011 C120.070392,28.8801011 119.815019,28.8194185 119.648142,28.6980531 C119.481264,28.5766877 119.433224,28.4148673 119.50402,28.2125917 L119.50402,28.2125917 L119.822604,27.2416688 L122.249912,27.2416688 L122.568496,28.2581037 C122.699975,28.6727686 122.391504,28.8801011 121.643085,28.8801011 L121.643085,28.8801011 L121.643085,29.4414159 L125.132339,29.4414159 L125.132339,28.8801011 C124.818812,28.8801011 124.606422,28.839646 124.495171,28.7587358 C124.383919,28.6778255 124.282781,28.5058913 124.191757,28.242933 L124.191757,28.242933 L121.825133,21.1885714 L121.096941,21.1885714 L118.82134,28.2125917 C118.750544,28.4553224 118.644349,28.6272566 118.502756,28.7283944 C118.361163,28.8295322 118.153831,28.8801011 117.880759,28.8801011 L117.880759,28.8801011 L117.880759,29.4414159 L120.41426,29.4414159 Z M122.067863,26.6651833 L120.019823,26.6651833 L121.066599,23.4793426 L122.067863,26.6651833 Z M128.864324,29.4414159 L128.864324,28.8801011 C128.540683,28.8801011 128.308066,28.8295322 128.166473,28.7283944 C128.02488,28.6272566 127.954083,28.4603793 127.954083,28.2277623 L127.954083,28.2277623 L127.954083,21.8409102 L128.955348,21.8409102 C129.289102,21.8409102 129.557118,21.9749178 129.759393,22.242933 C129.961669,22.5109482 130.062807,22.8674589 130.062807,23.3124652 L130.062807,23.3124652 L130.062807,24.0861694 C130.062807,24.5311757 129.961669,24.8902149 129.759393,25.163287 C129.557118,25.436359 129.289102,25.5728951 128.955348,25.5728951 L128.955348,25.5728951 L128.56091,25.5728951 L128.56091,26.1342099 L128.879494,26.1342099 C129.172794,26.1342099 129.430695,26.2935019 129.653198,26.612086 C129.875702,26.93067 129.986953,27.3074083 129.986953,27.7423009 C129.986953,28.3289001 130.161416,28.7587358 130.510341,29.0318078 C130.859267,29.3048799 131.402882,29.4414159 132.141188,29.4414159 L132.141188,29.4414159 L132.277724,29.4414159 L132.277724,28.8801011 L132.1867,28.8801011 C132.004652,28.8801011 131.850417,28.7688496 131.723995,28.5463464 C131.597573,28.3238432 131.534362,28.0558281 131.534362,27.7423009 C131.534362,26.8320607 131.109583,26.1999494 130.260025,25.8459671 C130.745487,25.6032364 131.099469,25.322579 131.321972,25.0039949 C131.544475,24.6854109 131.655727,24.3086726 131.655727,23.87378 C131.655727,22.9736536 131.438281,22.311201 131.003388,21.8864223 C130.568496,21.4616435 129.885815,21.2492541 128.955348,21.2492541 L128.955348,21.2492541 L125.37507,21.2492541 L125.37507,21.8105689 C125.69871,21.8105689 125.931327,21.8611378 126.07292,21.9622756 C126.214513,22.0634134 126.28531,22.2302908 126.28531,22.4629077 L126.28531,22.4629077 L126.28531,28.2277623 C126.28531,28.4603793 126.214513,28.6272566 126.07292,28.7283944 C125.931327,28.8295322 125.69871,28.8801011 125.37507,28.8801011 L125.37507,28.8801011 L125.37507,29.4414159 L128.864324,29.4414159 Z M144.338407,29.4414159 L144.338407,28.8801011 C143.903515,28.8801011 143.592516,28.81689 143.405411,28.6904678 C143.218306,28.5640455 143.124753,28.3592415 143.124753,28.0760556 L143.124753,28.0760556 L143.124753,17.76 L142.563439,17.76 C142.340936,18.2151201 142.019823,18.6196713 141.600101,18.9736536 C141.180379,19.3276359 140.717674,19.5804804 140.211985,19.7321871 L140.211985,19.7321871 L140.211985,20.2783312 L141.425638,20.2783312 L141.425638,28.0760556 C141.425638,28.3592415 141.332086,28.5640455 141.144981,28.6904678 C140.957876,28.81689 140.646877,28.8801011 140.211985,28.8801011 L140.211985,28.8801011 L140.211985,29.4414159 L144.338407,29.4414159 Z M153.091884,29.714488 L153.713881,26.3314286 L153.213249,26.1948925 C153.010973,26.6904678 152.826397,27.0621492 152.65952,27.3099368 C152.492642,27.5577244 152.28531,27.7195449 152.037522,27.7953982 C151.789735,27.8712516 151.443338,27.9091783 150.998331,27.9091783 L150.998331,27.9091783 L148.373805,27.9091783 C148.505284,27.4945133 148.720202,27.1051327 149.018559,26.7410367 C149.316915,26.3769406 149.655727,26.0229583 150.034994,25.6790898 C150.41426,25.3352212 150.798584,24.9888243 151.187965,24.6398989 C151.577345,24.2909735 151.938913,23.9319343 152.272668,23.5627813 C152.606422,23.1936283 152.876966,22.7991909 153.084298,22.379469 C153.291631,21.9597472 153.395297,21.5071555 153.395297,21.0216941 C153.395297,20.424981 153.256233,19.8914791 152.978104,19.4211884 C152.699975,18.9508976 152.315651,18.5817446 151.825133,18.3137295 C151.334614,18.0457143 150.775828,17.9117067 150.148774,17.9117067 C149.582402,17.9117067 149.079241,18.0128445 148.639292,18.2151201 C148.199343,18.4173957 147.852946,18.6980531 147.600101,19.0570923 C147.347257,19.4161315 147.220834,19.8232111 147.220834,20.2783312 C147.220834,20.6525411 147.337143,20.9685967 147.56976,21.2264981 C147.802377,21.4843995 148.090619,21.6184071 148.434488,21.6285209 C148.758129,21.6386346 149.036258,21.5324399 149.268875,21.3099368 C149.501492,21.0874336 149.6178,20.8244753 149.6178,20.5210619 C149.6178,20.2682174 149.529305,20.0406574 149.352314,19.8383818 C149.175322,19.6361062 148.930063,19.4894564 148.616536,19.3984324 C148.930063,18.9129709 149.395297,18.6702402 150.012238,18.6702402 C150.325765,18.6702402 150.608951,18.7739064 150.861795,18.9812389 C151.11464,19.1885714 151.316915,19.4667004 151.468622,19.8156258 C151.620329,20.1645512 151.696182,20.5564602 151.696182,20.9913527 C151.696182,21.4869279 151.589987,21.9521618 151.377598,22.3870544 C151.165209,22.8219469 150.889608,23.2391403 150.550796,23.6386346 C150.211985,24.038129 149.850417,24.4300379 149.466094,24.8143616 C149.08177,25.1986852 148.720202,25.5855373 148.381391,25.9749178 C148.042579,26.3642984 147.766979,26.7663211 147.554589,27.1809861 C147.3422,27.5956511 147.236005,28.0356005 147.236005,28.5008344 L147.236005,28.5008344 L147.236005,29.4262453 L151.847889,29.4262453 C152.110847,29.4262453 152.297952,29.4464728 152.409204,29.4869279 C152.520455,29.5273831 152.581138,29.6032364 152.591252,29.714488 L152.591252,29.714488 L153.091884,29.714488 Z M158.401618,29.5931226 C159.524248,29.5931226 160.378862,29.2922377 160.965461,28.6904678 C161.552061,28.0886979 161.84536,27.2012137 161.84536,26.0280152 C161.84536,25.4009608 161.675954,24.8320607 161.337143,24.3213148 C160.998331,23.8105689 160.550796,23.4338306 159.994539,23.1910999 C160.48,22.9281416 160.856738,22.5741593 161.124753,22.129153 C161.392769,21.6841466 161.526776,21.1885714 161.526776,20.6424273 C161.53689,19.8029836 161.27646,19.1380025 160.745487,18.6474842 C160.214513,18.1569659 159.483793,17.9117067 158.553325,17.9117067 C157.986953,17.9117067 157.483793,18.0128445 157.043843,18.2151201 C156.603894,18.4173957 156.257497,18.6980531 156.004652,19.0570923 C155.751808,19.4161315 155.625386,19.8232111 155.625386,20.2783312 C155.625386,20.6525411 155.741694,20.9685967 155.974311,21.2264981 C156.206928,21.4843995 156.495171,21.6184071 156.839039,21.6285209 C157.16268,21.6386346 157.440809,21.5324399 157.673426,21.3099368 C157.906043,21.0874336 158.022351,20.8244753 158.022351,20.5210619 C158.022351,20.2581037 157.931327,20.0280152 157.749279,19.8307965 C157.567231,19.6335777 157.314387,19.4843995 156.990746,19.3832617 C157.132339,19.1607585 157.321972,18.9812389 157.559646,18.8447029 C157.79732,18.7081669 158.05775,18.6398989 158.340936,18.6398989 C158.846625,18.6398989 159.233477,18.8143616 159.501492,19.163287 C159.769507,19.5122124 159.903515,20.0153729 159.903515,20.6727686 C159.903515,21.2189128 159.741694,21.7220733 159.418053,22.1822503 C159.094412,22.6424273 158.654463,22.9888243 158.098205,23.2214412 L158.098205,23.2214412 L158.553325,23.828268 C159.58493,23.828268 160.100733,24.6221997 160.100733,26.2100632 C160.100733,27.9698609 159.483793,28.8497598 158.249912,28.8497598 C157.632971,28.8497598 157.172794,28.6019722 156.869381,28.106397 C157.172794,28.0153729 157.415525,27.8687231 157.597573,27.6664475 C157.779621,27.4641719 157.870645,27.2366119 157.870645,26.9837674 C157.870645,26.680354 157.754336,26.4173957 157.521719,26.1948925 C157.289102,25.9723894 157.010973,25.8661947 156.687332,25.8763085 C156.343464,25.8864223 156.055221,26.0204298 155.822604,26.2783312 C155.589987,26.5362326 155.473679,26.8522882 155.473679,27.2264981 C155.473679,27.6816182 155.600101,28.0861694 155.852946,28.4401517 C156.10579,28.794134 156.452187,29.0747914 156.892137,29.2821239 C157.332086,29.4894564 157.835247,29.5931226 158.401618,29.5931226 Z M170.158887,29.4414159 L170.158887,28.8801011 C169.723995,28.8801011 169.412996,28.81689 169.225891,28.6904678 C169.038786,28.5640455 168.945234,28.3592415 168.945234,28.0760556 L168.945234,28.0760556 L168.945234,25.9521618 L169.096941,25.9521618 C169.329558,25.9521618 169.496435,26.0229583 169.597573,26.1645512 C169.69871,26.3061441 169.749279,26.5387611 169.749279,26.862402 L169.749279,26.862402 L170.310594,26.862402 L170.310594,24.2833881 L169.749279,24.2833881 C169.749279,24.6070291 169.69871,24.839646 169.597573,24.9812389 C169.496435,25.1228319 169.329558,25.1936283 169.096941,25.1936283 L169.096941,25.1936283 L168.945234,25.1936283 L168.945234,17.76 L168.217042,17.76 L163.392769,25.2239697 L163.392769,25.9521618 L167.246119,25.9521618 L167.246119,28.0760556 C167.246119,28.3592415 167.152566,28.5640455 166.965461,28.6904678 C166.778357,28.81689 166.467358,28.8801011 166.032465,28.8801011 L166.032465,28.8801011 L166.032465,29.4414159 L170.158887,29.4414159 Z M167.246119,25.1936283 L164.454716,25.1936283 L167.246119,20.7637927 L167.246119,25.1936283 Z M174.649406,29.5931226 C175.802377,29.5931226 176.710088,29.2568394 177.372541,28.5842731 C178.034994,27.9117067 178.36622,27.0090518 178.36622,25.8763085 C178.36622,25.2492541 178.206928,24.6752971 177.888344,24.1544374 C177.56976,23.6335777 177.150038,23.2163843 176.629178,22.9028571 C176.108319,22.58933 175.539418,22.4325664 174.922478,22.4325664 C174.517927,22.4325664 174.037522,22.5387611 173.481264,22.7511504 L173.481264,22.7511504 L173.799848,19.413603 L174.816283,19.413603 C175.251176,19.413603 175.605158,19.4667004 175.87823,19.5728951 C176.151302,19.6790898 176.386448,19.8661947 176.583666,20.1342099 C176.780885,20.402225 176.980632,20.7890771 177.182908,21.2947661 L177.182908,21.2947661 L177.68354,21.1582301 L177.061542,17.7751707 L176.56091,17.7751707 C176.550796,17.8763085 176.490114,17.9496334 176.378862,17.9951454 C176.267611,18.0406574 176.080506,18.0634134 175.817547,18.0634134 L175.817547,18.0634134 L173.056485,18.0634134 L172.525512,23.4034893 L173.117168,23.9951454 C173.218306,23.8535525 173.364956,23.7246018 173.557118,23.6082933 C173.749279,23.4919848 173.954083,23.3984324 174.17153,23.3276359 C174.388976,23.2568394 174.588723,23.2214412 174.770771,23.2214412 C175.124753,23.2214412 175.440809,23.345335 175.718938,23.5931226 C175.997067,23.8409102 176.217042,24.1797219 176.378862,24.6095575 C176.540683,25.0393932 176.621593,25.5223262 176.621593,26.0583565 C176.621593,26.8978003 176.424374,27.5728951 176.029937,28.083641 C175.635499,28.5943869 175.124753,28.8497598 174.497699,28.8497598 C173.971783,28.8497598 173.511606,28.5918584 173.117168,28.0760556 C173.734109,27.8029836 174.042579,27.4237168 174.042579,26.9382554 C174.042579,26.6146144 173.938913,26.3541846 173.73158,26.1569659 C173.524248,25.9597472 173.258761,25.8661947 172.93512,25.8763085 C172.591252,25.8864223 172.303009,26.0204298 172.070392,26.2783312 C171.837775,26.5362326 171.721466,26.8522882 171.721466,27.2264981 C171.721466,27.6816182 171.847889,28.0861694 172.100733,28.4401517 C172.353578,28.794134 172.699975,29.0747914 173.139924,29.2821239 C173.579874,29.4894564 174.083034,29.5931226 174.649406,29.5931226 Z M183.296688,29.5627813 C184.348521,29.5627813 185.16268,29.2568394 185.739166,28.6449558 C186.315651,28.0330721 186.608951,27.1708723 186.619064,26.0583565 C186.608951,25.0166372 186.313123,24.1898357 185.73158,23.577952 C185.150038,22.9660683 184.373805,22.6601264 183.402882,22.6601264 C183.008445,22.6601264 182.67469,22.7005815 182.401618,22.7814918 C182.128546,22.862402 181.815019,23.0141087 181.461037,23.2366119 C181.47115,22.1240961 181.541947,21.2264981 181.673426,20.543818 C181.804905,19.8611378 182.014766,19.3630341 182.303009,19.049507 C182.591252,18.7359798 182.96799,18.5792162 183.433224,18.5792162 C183.746751,18.5792162 184.040051,18.6500126 184.313123,18.7916056 C184.586195,18.9331985 184.798584,19.1203034 184.950291,19.3529204 C184.636764,19.4439444 184.388976,19.5880657 184.206928,19.7852845 C184.02488,19.9825032 183.933856,20.2125917 183.933856,20.4755499 C183.933856,20.7789633 184.052693,21.0419216 184.290367,21.2644248 C184.52804,21.4869279 184.803641,21.5931226 185.117168,21.5830088 C185.461037,21.5728951 185.749279,21.4388875 185.981896,21.1809861 C186.214513,20.9230847 186.330822,20.6070291 186.330822,20.2328192 C186.330822,19.7776991 186.204399,19.3706195 185.951555,19.0115803 C185.69871,18.6525411 185.352314,18.3718837 184.912364,18.1696081 C184.472415,17.9673325 183.969254,17.8661947 183.402882,17.8661947 C182.543211,17.8661947 181.850417,18.1013401 181.324501,18.5716308 C180.798584,19.0419216 180.416789,19.782756 180.179115,20.794134 C179.941441,21.805512 179.832718,23.1304172 179.852946,24.7688496 C179.873173,26.3870544 180.166473,27.5905942 180.732845,28.379469 C181.299216,29.1683439 182.153831,29.5627813 183.296688,29.5627813 Z M183.251176,28.8801011 C182.705032,28.8902149 182.270139,28.6373704 181.946498,28.1215676 C181.622857,27.6057649 181.461037,26.9129709 181.461037,26.0431858 C181.461037,25.2340834 181.620329,24.5994437 181.938913,24.1392668 C182.257497,23.6790898 182.694918,23.4490013 183.251176,23.4490013 C183.847889,23.4490013 184.305537,23.6740329 184.624121,24.1240961 C184.942705,24.5741593 185.101997,25.2138559 185.101997,26.0431858 C185.101997,27.9344627 184.485057,28.8801011 183.251176,28.8801011 Z M191.625386,29.4414159 C191.554589,27.3984324 191.772035,25.5223262 192.277724,23.8130973 L192.277724,23.8130973 L193.703767,23.8130973 L193.703767,23.1152465 L192.505284,23.1152465 C192.778357,22.3263717 193.119697,21.5653097 193.529305,20.8320607 C193.938913,20.0988116 194.411732,19.3832617 194.947762,18.6854109 L194.947762,18.6854109 L195.008445,18.0634134 L190.260025,18.0634134 C189.997067,18.0634134 189.809962,18.0406574 189.69871,17.9951454 C189.587459,17.9496334 189.526776,17.8763085 189.516662,17.7751707 L189.516662,17.7751707 L189.01603,17.7751707 L188.394033,21.1582301 L188.894665,21.2947661 C189.096941,20.7890771 189.281517,20.4148673 189.448394,20.1721365 C189.615272,19.9294058 189.822604,19.7701138 190.070392,19.6942604 C190.31818,19.6184071 190.664576,19.5804804 191.109583,19.5804804 L191.109583,19.5804804 L193.294159,19.5804804 C192.889608,20.1569659 192.522984,20.7359798 192.194286,21.3175221 C191.865588,21.8990645 191.574817,22.4983059 191.321972,23.1152465 L191.321972,23.1152465 L189.562174,23.1152465 L189.562174,23.8130973 L191.0489,23.8130973 C190.745487,24.6323135 190.497699,25.5046271 190.305537,26.4300379 C190.113375,27.3554488 189.961669,28.3592415 189.850417,29.4414159 L189.850417,29.4414159 L191.625386,29.4414159 Z M199.620329,29.5931226 C200.64182,29.5931226 201.420582,29.299823 201.956612,28.7132238 C202.492642,28.1266245 202.760657,27.2821239 202.760657,26.1797219 C202.760657,25.4313021 202.624121,24.8093047 202.351049,24.3137295 C202.077977,23.8181542 201.638028,23.4034893 201.031201,23.0697345 C201.53689,22.7562073 201.900986,22.4072819 202.123489,22.0229583 C202.345992,21.6386346 202.457244,21.1784576 202.457244,20.6424273 C202.467358,19.8029836 202.21957,19.1380025 201.713881,18.6474842 C201.208192,18.1569659 200.510341,17.9117067 199.620329,17.9117067 C198.730316,17.9117067 198.032465,18.1569659 197.526776,18.6474842 C197.021087,19.1380025 196.7733,19.8029836 196.783413,20.6424273 C196.783413,21.1784576 196.894665,21.6386346 197.117168,22.0229583 C197.339671,22.4072819 197.703767,22.7562073 198.209456,23.0697345 C197.60263,23.4034893 197.16268,23.8181542 196.889608,24.3137295 C196.616536,24.8093047 196.48,25.4313021 196.48,26.1797219 C196.48,27.2821239 196.750544,28.1266245 197.291631,28.7132238 C197.832718,29.299823 198.608951,29.5931226 199.620329,29.5931226 Z M199.620329,22.7663211 C199.19555,22.7663211 198.88708,22.6019722 198.694918,22.2732743 C198.502756,21.9445765 198.406675,21.4110746 198.406675,20.6727686 C198.406675,19.9142351 198.502756,19.368091 198.694918,19.0343363 C198.88708,18.7005815 199.19555,18.5337042 199.620329,18.5337042 C200.045107,18.5337042 200.353578,18.7005815 200.54574,19.0343363 C200.737901,19.368091 200.833982,19.9142351 200.833982,20.6727686 C200.833982,21.4110746 200.737901,21.9445765 200.54574,22.2732743 C200.353578,22.6019722 200.045107,22.7663211 199.620329,22.7663211 Z M199.620329,28.9711252 C199.124753,28.9711252 198.765714,28.7562073 198.543211,28.3263717 C198.320708,27.896536 198.209456,27.1910999 198.209456,26.2100632 C198.209456,25.2391403 198.323236,24.5261188 198.550796,24.0709987 C198.778357,23.6158786 199.134867,23.3883186 199.620329,23.3883186 C200.10579,23.3883186 200.462301,23.6158786 200.689861,24.0709987 C200.917421,24.5261188 201.031201,25.2391403 201.031201,26.2100632 C201.031201,27.1910999 200.919949,27.896536 200.697446,28.3263717 C200.474943,28.7562073 200.115904,28.9711252 199.620329,28.9711252 Z M207.645613,29.5627813 C208.505284,29.5526675 209.198078,29.3149937 209.723995,28.8497598 C210.249912,28.3845259 210.631707,27.64622 210.869381,26.634842 C211.107054,25.623464 211.215777,24.2985588 211.19555,22.6601264 C211.175322,21.0318078 210.882023,19.8257396 210.315651,19.0419216 C209.749279,18.2581037 208.894665,17.8661947 207.751808,17.8661947 C206.710088,17.8661947 205.898458,18.1721365 205.316915,18.7840202 C204.735373,19.3959039 204.439545,20.2581037 204.429431,21.3706195 C204.439545,22.4123388 204.735373,23.2391403 205.316915,23.851024 C205.898458,24.4629077 206.67469,24.7688496 207.645613,24.7688496 C208.040051,24.7688496 208.373805,24.7283944 208.646877,24.6474842 C208.919949,24.566574 209.233477,24.4148673 209.587459,24.1923641 C209.577345,25.3048799 209.506549,26.2024779 209.37507,26.885158 C209.24359,27.5678382 209.033729,28.0659418 208.745487,28.379469 C208.457244,28.6929962 208.080506,28.8497598 207.615272,28.8497598 C207.301745,28.8497598 207.008445,28.7789633 206.735373,28.6373704 C206.462301,28.4957775 206.249912,28.3086726 206.098205,28.0760556 C206.411732,27.9850316 206.65952,27.8409102 206.841568,27.6436915 C207.023616,27.4464728 207.11464,27.2163843 207.11464,26.953426 C207.11464,26.6500126 206.998331,26.3870544 206.765714,26.1645512 C206.533097,25.942048 206.254968,25.8358534 205.931327,25.8459671 C205.587459,25.8560809 205.299216,25.9900885 205.066599,26.2479899 C204.833982,26.5058913 204.717674,26.8219469 204.717674,27.1961568 C204.717674,27.6512769 204.844096,28.0558281 205.096941,28.4098104 C205.349785,28.7637927 205.696182,29.0444501 206.136131,29.2517826 C206.576081,29.459115 207.079241,29.5627813 207.645613,29.5627813 Z M207.79732,23.9799747 C207.210721,23.9799747 206.755601,23.7549431 206.43196,23.3048799 C206.108319,22.8548167 205.946498,22.2151201 205.946498,21.3857901 C205.946498,19.4945133 206.563439,18.5488748 207.79732,18.5488748 C208.343464,18.5387611 208.778357,18.7916056 209.101997,19.3074083 C209.425638,19.8232111 209.587459,20.5160051 209.587459,21.3857901 C209.587459,22.1948925 209.430695,22.8295322 209.117168,23.2897092 C208.803641,23.7498862 208.363692,23.9799747 207.79732,23.9799747 Z M216.034994,29.5931226 C216.813755,29.5931226 217.450923,29.4161315 217.946498,29.0621492 C218.442073,28.7081669 218.811226,28.106397 219.053957,27.2568394 C219.296688,26.4072819 219.418053,25.2391403 219.418053,23.7524147 C219.418053,22.265689 219.311858,21.0975474 219.099469,20.2479899 C218.88708,19.3984324 218.535626,18.7966625 218.045107,18.4426802 C217.554589,18.0886979 216.884551,17.9117067 216.034994,17.9117067 C215.185436,17.9117067 214.510341,18.0937547 214.009709,18.4578508 C213.509077,18.8219469 213.147509,19.4313021 212.925006,20.2859166 C212.702503,21.140531 212.591252,22.2960303 212.591252,23.7524147 C212.591252,25.208799 212.702503,26.3617699 212.925006,27.2113274 C213.147509,28.060885 213.509077,28.6702402 214.009709,29.0393932 C214.510341,29.4085461 215.185436,29.5931226 216.034994,29.5931226 Z M216.034994,28.9104425 C215.438281,28.9104425 215.003388,28.5109482 214.730316,27.7119595 C214.457244,26.9129709 214.320708,25.6032364 214.320708,23.782756 C214.320708,21.9218205 214.457244,20.5868015 214.730316,19.7776991 C215.003388,18.9685967 215.438281,18.5640455 216.034994,18.5640455 C216.631707,18.5640455 217.066599,18.9812389 217.339671,19.8156258 C217.612743,20.6500126 217.749279,21.9723894 217.749279,23.782756 C217.749279,25.5526675 217.610215,26.8497598 217.332086,27.6740329 C217.053957,28.4983059 216.621593,28.9104425 216.034994,28.9104425 Z" id="girassolregular1234567890"></path>
            </g>
        </g>
    </g>
</svg>