<?xml version="1.0" encoding="UTF-8"?>
<svg width="268px" height="13px" viewBox="0 0 268 13" version="1.1" xmlns="http://www.w3.org/2000/svg" xmlns:xlink="http://www.w3.org/1999/xlink">
    <title>ibarrarealnovasemibold1234567890</title>
    <g id="页面-1" stroke="none" stroke-width="1" fill="none" fill-rule="evenodd">
        <g id="弃-增加英文字体分类" transform="translate(-748.000000, -400.000000)" fill="#FFFFFF" fill-rule="nonzero">
            <g id="编组-4" transform="translate(720.000000, 10.000000)">
                <path d="M30.1653765,393.118397 C30.4676707,393.118397 30.724081,393.013134 30.9346073,392.802607 C31.1451336,392.592081 31.2503968,392.335671 31.2503968,392.033377 C31.2503968,391.731082 31.1451336,391.474672 30.9346073,391.264146 C30.724081,391.053619 30.4676707,390.948356 30.1653765,390.948356 C29.8630823,390.948356 29.6066721,391.053619 29.3961457,391.264146 C29.1856194,391.474672 29.0803563,391.731082 29.0803563,392.033377 C29.0803563,392.335671 29.1856194,392.592081 29.3961457,392.802607 C29.6066721,393.013134 29.8630823,393.118397 30.1653765,393.118397 Z M31.9629474,402.057668 L31.9629474,401.798559 L31.3799514,401.604227 C31.2827854,401.571838 31.1910175,401.512459 31.1046478,401.426089 C31.018278,401.339719 30.9750931,401.226359 30.9750931,401.086008 L30.9750931,401.086008 L30.9750931,396.389652 C30.9750931,396.065765 30.9885884,395.779665 31.0155789,395.531352 C31.0425695,395.283039 31.0992497,395.072513 31.1856194,394.899773 L31.1856194,394.899773 L31.0236761,394.786413 C30.6026235,394.959152 30.189668,395.088707 29.7848097,395.175077 C29.3799514,395.261447 28.9130148,395.347816 28.384,395.434186 L28.384,395.434186 L28.384,395.677101 L28.9831903,395.82285 C29.1235412,395.866035 29.2288043,395.928113 29.2989798,396.009085 C29.3691552,396.090057 29.4042429,396.238505 29.4042429,396.454429 L29.4042429,396.454429 L29.4042429,401.005036 C29.4042429,401.307331 29.2584939,401.507061 28.966996,401.604227 L28.966996,401.604227 L28.384,401.798559 L28.384,402.057668 L31.9629474,402.057668 Z M33.9224615,402.252 C34.0304238,402.057668 34.1437841,401.882229 34.2625425,401.725684 C34.3813009,401.569139 34.5108556,401.426089 34.6512065,401.296534 C34.921112,401.544848 35.2692901,401.758073 35.6957409,401.936211 C36.1221916,402.114348 36.5567395,402.203417 36.9993846,402.203417 C37.8414899,402.203417 38.532448,402.014483 39.0722591,401.636615 C39.6120702,401.258748 40.0142294,400.778316 40.2787368,400.19532 C40.5432443,399.612324 40.675498,399.013134 40.675498,398.397749 C40.675498,397.782364 40.5513414,397.207466 40.3030283,396.673053 C40.0547152,396.13864 39.6741484,395.704092 39.1613279,395.369409 C38.6485074,395.034726 37.992637,394.867385 37.1937166,394.867385 C37.0857544,394.867385 36.9750931,394.888977 36.8617328,394.932162 C36.7483725,394.975347 36.6539055,395.013134 36.578332,395.045522 L36.578332,395.045522 L35.2180081,395.790462 L35.2180081,392.146737 C35.2180081,391.82285 35.2342024,391.53675 35.2665911,391.288437 C35.2989798,391.040124 35.3529609,390.829598 35.4285344,390.656858 L35.4285344,390.656858 L35.2827854,390.543498 C34.8509366,390.727034 34.432583,390.861987 34.0277247,390.948356 C33.6228664,391.034726 33.1559298,391.121096 32.626915,391.207466 L32.626915,391.207466 L32.626915,391.434186 L33.2422996,391.59613 C33.3826505,391.628518 33.4852146,391.685198 33.5499919,391.76617 C33.6147692,391.847142 33.6471579,392.000988 33.6471579,392.227709 L33.6471579,392.227709 L33.6471579,402.203417 L33.9224615,402.252 Z M37.0155789,401.685198 C36.7024885,401.685198 36.4082915,401.588032 36.1329879,401.3937 C35.8576842,401.199368 35.6363617,400.942958 35.4690202,400.62447 C35.3016788,400.305981 35.2180081,399.952405 35.2180081,399.563741 L35.2180081,399.563741 L35.2180081,397.312729 C35.2180081,396.934861 35.3529609,396.602877 35.6228664,396.316777 C35.8927719,396.030677 36.2706397,395.887628 36.7564696,395.887628 C37.2746883,395.887628 37.6957409,396.033377 38.0196275,396.324874 C38.3435142,396.616372 38.5864291,396.996939 38.7483725,397.466575 C38.9103158,397.936211 38.9912874,398.435536 38.9912874,398.964551 C38.9912874,399.439584 38.921112,399.884928 38.7807611,400.300583 C38.6404103,400.716238 38.4244858,401.05092 38.1329879,401.304632 C37.8414899,401.558343 37.4690202,401.685198 37.0155789,401.685198 Z M44.043919,402.171028 C44.3893981,402.171028 44.7429744,402.065765 45.1046478,401.855239 C45.4663212,401.644713 45.8091012,401.415293 46.1329879,401.16698 C46.2085614,401.825549 46.5216518,402.154834 47.0722591,402.154834 C47.309776,402.154834 47.5958758,402.08196 47.9305587,401.936211 C48.2652416,401.790462 48.5351471,401.65281 48.7402753,401.523255 L48.7402753,401.523255 L48.7402753,401.183174 C48.4595735,401.28034 48.2220567,401.328923 48.0277247,401.328923 C47.8225965,401.328923 47.6984399,401.25335 47.6552551,401.102202 C47.6120702,400.951055 47.5904777,400.76752 47.5904777,400.551595 L47.5904777,400.551595 L47.5904777,397.086008 C47.5904777,396.373457 47.3475628,395.82285 46.8617328,395.434186 C46.3759028,395.045522 45.7605182,394.85119 45.0155789,394.85119 C44.5729339,394.85119 44.141085,394.945657 43.7200324,395.134591 C43.2989798,395.323525 42.9535007,395.577236 42.6835951,395.895725 C42.4136896,396.214213 42.2787368,396.567789 42.2787368,396.956453 C42.2787368,397.237155 42.3543104,397.455779 42.5054575,397.612324 C42.6566046,397.768869 42.8671309,397.847142 43.1370364,397.847142 C43.3961457,397.847142 43.6093711,397.779665 43.7767126,397.644713 C43.944054,397.50976 44.0277247,397.318127 44.0277247,397.069814 C44.0277247,396.951055 44.0034332,396.837695 43.9548502,396.729733 C43.9062672,396.621771 43.8441889,396.519206 43.7686154,396.42204 C43.7146343,396.357263 43.6687503,396.292486 43.6309636,396.227709 C43.5931768,396.162931 43.5742834,396.092756 43.5742834,396.017182 C43.5742834,395.82285 43.6714494,395.658208 43.8657814,395.523255 C44.0601134,395.388302 44.3138246,395.320826 44.626915,395.320826 C45.1019487,395.320826 45.4528259,395.471973 45.6795466,395.774267 C45.9062672,396.076561 46.0196275,396.465225 46.0196275,396.940259 L46.0196275,396.940259 L46.0196275,397.426089 C46.0196275,397.609625 45.9818408,397.752675 45.9062672,397.855239 C45.8306937,397.957803 45.6849447,398.046872 45.4690202,398.122445 L45.4690202,398.122445 L42.2301538,399.320826 C42.1437841,399.353215 42.0817058,399.409895 42.043919,399.490866 C42.0061323,399.571838 41.9872389,399.704092 41.9872389,399.887628 C41.9872389,400.287088 42.0790067,400.659557 42.2625425,401.005036 C42.4460783,401.350516 42.6916923,401.631217 42.9993846,401.847142 C43.3070769,402.063066 43.6552551,402.171028 44.043919,402.171028 Z M44.772664,401.28034 C44.5675358,401.28034 44.3732038,401.207466 44.189668,401.061717 C44.0061323,400.915968 43.8549852,400.732432 43.7362267,400.511109 C43.6174683,400.289787 43.5580891,400.060367 43.5580891,399.82285 C43.5580891,399.650111 43.5715843,399.528653 43.5985749,399.458478 C43.6255655,399.388302 43.6714494,399.33702 43.7362267,399.304632 L43.7362267,399.304632 L45.9062672,398.511109 C45.9818408,398.478721 46.0196275,398.500313 46.0196275,398.575887 L46.0196275,398.575887 L46.0196275,400.341069 C46.0196275,400.578586 45.9494521,400.751325 45.8091012,400.859287 C45.6255655,400.988842 45.4501269,401.091406 45.2827854,401.16698 C45.115444,401.242553 44.9454035,401.28034 44.772664,401.28034 Z M53.1937166,402.057668 L53.1937166,401.798559 L52.5135547,401.604227 C52.2004642,401.507061 52.043919,401.334321 52.043919,401.086008 L52.043919,401.086008 L52.043919,397.717587 C52.043919,397.264146 52.1005992,396.921366 52.2139595,396.689247 C52.3273198,396.457128 52.4568745,396.297884 52.6026235,396.211514 C52.7483725,396.125144 52.8644318,396.08196 52.9508016,396.08196 C53.0479676,396.08196 53.1343374,396.119746 53.2099109,396.19532 C53.2854845,396.270893 53.3556599,396.346467 53.4204372,396.42204 C53.5176032,396.519206 53.6282645,396.608275 53.7524211,396.689247 C53.8765776,396.770219 54.0358219,396.810704 54.2301538,396.810704 C54.532448,396.810704 54.775363,396.713538 54.9588988,396.519206 C55.1424345,396.324874 55.2342024,396.10895 55.2342024,395.871433 C55.2342024,395.579935 55.1370364,395.33702 54.9427045,395.142688 C54.7483725,394.948356 54.532448,394.85119 54.2949312,394.85119 C54.2085614,394.85119 54.1140945,394.864686 54.0115304,394.891676 C53.9089663,394.918667 53.7929069,394.969949 53.6633522,395.045522 L53.6633522,395.045522 L51.9305587,396.098154 C51.9305587,395.860637 51.9494521,395.633916 51.9872389,395.417992 C52.0250256,395.202067 52.0763077,395.029328 52.141085,394.899773 L52.141085,394.899773 L51.995336,394.786413 C51.5742834,394.959152 51.1775223,395.088707 50.8050526,395.175077 C50.432583,395.261447 49.9818408,395.347816 49.4528259,395.434186 L49.4528259,395.434186 L49.4528259,395.677101 L50.0520162,395.839045 C50.1923671,395.871433 50.2976302,395.928113 50.3678057,396.009085 C50.4379811,396.090057 50.4730688,396.243903 50.4730688,396.470623 L50.4730688,396.470623 L50.4730688,401.005036 C50.4730688,401.177776 50.4406802,401.307331 50.3759028,401.3937 C50.3111255,401.48007 50.1977652,401.550246 50.0358219,401.604227 L50.0358219,401.604227 L49.4528259,401.798559 L49.4528259,402.057668 L53.1937166,402.057668 Z M59.6552551,402.057668 L59.6552551,401.798559 L58.9750931,401.604227 C58.6620027,401.507061 58.5054575,401.334321 58.5054575,401.086008 L58.5054575,401.086008 L58.5054575,397.717587 C58.5054575,397.264146 58.5621377,396.921366 58.675498,396.689247 C58.7888583,396.457128 58.918413,396.297884 59.0641619,396.211514 C59.2099109,396.125144 59.3259703,396.08196 59.4123401,396.08196 C59.5095061,396.08196 59.5958758,396.119746 59.6714494,396.19532 C59.7470229,396.270893 59.8171984,396.346467 59.8819757,396.42204 C59.9791417,396.519206 60.089803,396.608275 60.2139595,396.689247 C60.3381161,396.770219 60.4973603,396.810704 60.6916923,396.810704 C60.9939865,396.810704 61.2369015,396.713538 61.4204372,396.519206 C61.603973,396.324874 61.6957409,396.10895 61.6957409,395.871433 C61.6957409,395.579935 61.5985749,395.33702 61.4042429,395.142688 C61.2099109,394.948356 60.9939865,394.85119 60.7564696,394.85119 C60.6700999,394.85119 60.5756329,394.864686 60.4730688,394.891676 C60.3705047,394.918667 60.2544453,394.969949 60.1248907,395.045522 L60.1248907,395.045522 L58.3920972,396.098154 C58.3920972,395.860637 58.4109906,395.633916 58.4487773,395.417992 C58.4865641,395.202067 58.5378462,395.029328 58.6026235,394.899773 L58.6026235,394.899773 L58.4568745,394.786413 C58.0358219,394.959152 57.6390607,395.088707 57.2665911,395.175077 C56.8941215,395.261447 56.4433792,395.347816 55.9143644,395.434186 L55.9143644,395.434186 L55.9143644,395.677101 L56.5135547,395.839045 C56.6539055,395.871433 56.7591687,395.928113 56.8293441,396.009085 C56.8995196,396.090057 56.9346073,396.243903 56.9346073,396.470623 L56.9346073,396.470623 L56.9346073,401.005036 C56.9346073,401.177776 56.9022186,401.307331 56.8374413,401.3937 C56.772664,401.48007 56.6593036,401.550246 56.4973603,401.604227 L56.4973603,401.604227 L55.9143644,401.798559 L55.9143644,402.057668 L59.6552551,402.057668 Z M64.6916923,402.171028 C65.0371714,402.171028 65.3907476,402.065765 65.7524211,401.855239 C66.1140945,401.644713 66.4568745,401.415293 66.7807611,401.16698 C66.8563347,401.825549 67.1694251,402.154834 67.7200324,402.154834 C67.9575493,402.154834 68.2436491,402.08196 68.578332,401.936211 C68.9130148,401.790462 69.1829204,401.65281 69.3880486,401.523255 L69.3880486,401.523255 L69.3880486,401.183174 C69.1073468,401.28034 68.86983,401.328923 68.675498,401.328923 C68.4703698,401.328923 68.3462132,401.25335 68.3030283,401.102202 C68.2598435,400.951055 68.238251,400.76752 68.238251,400.551595 L68.238251,400.551595 L68.238251,397.086008 C68.238251,396.373457 67.995336,395.82285 67.5095061,395.434186 C67.0236761,395.045522 66.4082915,394.85119 65.6633522,394.85119 C65.2207072,394.85119 64.7888583,394.945657 64.3678057,395.134591 C63.946753,395.323525 63.601274,395.577236 63.3313684,395.895725 C63.0614629,396.214213 62.9265101,396.567789 62.9265101,396.956453 C62.9265101,397.237155 63.0020837,397.455779 63.1532308,397.612324 C63.3043779,397.768869 63.5149042,397.847142 63.7848097,397.847142 C64.043919,397.847142 64.2571444,397.779665 64.4244858,397.644713 C64.5918273,397.50976 64.675498,397.318127 64.675498,397.069814 C64.675498,396.951055 64.6512065,396.837695 64.6026235,396.729733 C64.5540405,396.621771 64.4919622,396.519206 64.4163887,396.42204 C64.3624076,396.357263 64.3165236,396.292486 64.2787368,396.227709 C64.2409501,396.162931 64.2220567,396.092756 64.2220567,396.017182 C64.2220567,395.82285 64.3192227,395.658208 64.5135547,395.523255 C64.7078866,395.388302 64.9615978,395.320826 65.2746883,395.320826 C65.749722,395.320826 66.1005992,395.471973 66.3273198,395.774267 C66.5540405,396.076561 66.6674008,396.465225 66.6674008,396.940259 L66.6674008,396.940259 L66.6674008,397.426089 C66.6674008,397.609625 66.629614,397.752675 66.5540405,397.855239 C66.4784669,397.957803 66.3327179,398.046872 66.1167935,398.122445 L66.1167935,398.122445 L62.8779271,399.320826 C62.7915574,399.353215 62.7294791,399.409895 62.6916923,399.490866 C62.6539055,399.571838 62.6350121,399.704092 62.6350121,399.887628 C62.6350121,400.287088 62.72678,400.659557 62.9103158,401.005036 C63.0938516,401.350516 63.3394656,401.631217 63.6471579,401.847142 C63.9548502,402.063066 64.3030283,402.171028 64.6916923,402.171028 Z M65.4204372,401.28034 C65.215309,401.28034 65.0209771,401.207466 64.8374413,401.061717 C64.6539055,400.915968 64.5027584,400.732432 64.384,400.511109 C64.2652416,400.289787 64.2058623,400.060367 64.2058623,399.82285 C64.2058623,399.650111 64.2193576,399.528653 64.2463482,399.458478 C64.2733387,399.388302 64.3192227,399.33702 64.384,399.304632 L64.384,399.304632 L66.5540405,398.511109 C66.629614,398.478721 66.6674008,398.500313 66.6674008,398.575887 L66.6674008,398.575887 L66.6674008,400.341069 C66.6674008,400.578586 66.5972254,400.751325 66.4568745,400.859287 C66.2733387,400.988842 66.0979001,401.091406 65.9305587,401.16698 C65.7632173,401.242553 65.5931768,401.28034 65.4204372,401.28034 Z M78.3273198,402.057668 L78.3273198,401.798559 L77.6471579,401.604227 C77.3340675,401.507061 77.1775223,401.334321 77.1775223,401.086008 L77.1775223,401.086008 L77.1775223,397.717587 C77.1775223,397.264146 77.2342024,396.921366 77.3475628,396.689247 C77.4609231,396.457128 77.5904777,396.297884 77.7362267,396.211514 C77.8819757,396.125144 77.9980351,396.08196 78.0844049,396.08196 C78.1815709,396.08196 78.2679406,396.119746 78.3435142,396.19532 C78.4190877,396.270893 78.4892632,396.346467 78.5540405,396.42204 C78.6512065,396.519206 78.7618677,396.608275 78.8860243,396.689247 C79.0101808,396.770219 79.1694251,396.810704 79.3637571,396.810704 C79.6660513,396.810704 79.9089663,396.713538 80.092502,396.519206 C80.2760378,396.324874 80.3678057,396.10895 80.3678057,395.871433 C80.3678057,395.579935 80.2706397,395.33702 80.0763077,395.142688 C79.8819757,394.948356 79.6660513,394.85119 79.4285344,394.85119 C79.3421646,394.85119 79.2476977,394.864686 79.1451336,394.891676 C79.0425695,394.918667 78.9265101,394.969949 78.7969555,395.045522 L78.7969555,395.045522 L77.0641619,396.098154 C77.0641619,395.860637 77.0830553,395.633916 77.1208421,395.417992 C77.1586289,395.202067 77.2099109,395.029328 77.2746883,394.899773 L77.2746883,394.899773 L77.1289393,394.786413 C76.7078866,394.959152 76.3111255,395.088707 75.9386559,395.175077 C75.5661862,395.261447 75.115444,395.347816 74.5864291,395.434186 L74.5864291,395.434186 L74.5864291,395.677101 L75.1856194,395.839045 C75.3259703,395.871433 75.4312335,395.928113 75.5014089,396.009085 C75.5715843,396.090057 75.6066721,396.243903 75.6066721,396.470623 L75.6066721,396.470623 L75.6066721,401.005036 C75.6066721,401.177776 75.5742834,401.307331 75.5095061,401.3937 C75.4447287,401.48007 75.3313684,401.550246 75.1694251,401.604227 L75.1694251,401.604227 L74.5864291,401.798559 L74.5864291,402.057668 L78.3273198,402.057668 Z M84.4973603,402.187223 C85.0155789,402.187223 85.5203023,402.05227 86.0115304,401.782364 C86.5027584,401.512459 86.9588988,401.08061 87.3799514,400.486818 L87.3799514,400.486818 L87.1370364,400.276291 C86.4892632,400.826899 85.8360918,401.102202 85.1775223,401.102202 C84.7348772,401.102202 84.3327179,400.99424 83.9710445,400.778316 C83.6093711,400.562391 83.3178731,400.241204 83.0965506,399.814753 C82.8752281,399.388302 82.7645668,398.867385 82.7645668,398.252 L82.7645668,398.252 L82.7645668,398.122445 L87.0398704,398.122445 C87.1478327,398.122445 87.2288043,398.087358 87.2827854,398.017182 C87.3367665,397.947007 87.3637571,397.863336 87.3637571,397.76617 C87.3637571,397.226359 87.2503968,396.735131 87.0236761,396.292486 C86.7969555,395.849841 86.4784669,395.498964 86.0682105,395.239854 C85.6579541,394.980745 85.1829204,394.85119 84.6431093,394.85119 C83.9629474,394.85119 83.3529609,395.010435 82.8131498,395.328923 C82.2733387,395.647412 81.846888,396.090057 81.5337976,396.656858 C81.2207072,397.22366 81.0641619,397.87953 81.0641619,398.62447 C81.0641619,399.283039 81.2099109,399.882229 81.5014089,400.42204 C81.7929069,400.961852 82.1977652,401.391001 82.7159838,401.70949 C83.2342024,402.027978 83.8279946,402.187223 84.4973603,402.187223 Z M82.7969555,397.588032 C82.872529,396.90787 83.0614629,396.362661 83.3637571,395.952405 C83.6660513,395.542148 84.0493171,395.33702 84.5135547,395.33702 C84.9022186,395.33702 85.1991147,395.507061 85.4042429,395.847142 C85.6093711,396.187223 85.7119352,396.627169 85.7119352,397.16698 C85.7119352,397.382904 85.6255655,397.490866 85.4528259,397.490866 L85.4528259,397.490866 L82.7969555,397.588032 Z M90.7159838,402.171028 C91.0614629,402.171028 91.4150391,402.065765 91.7767126,401.855239 C92.138386,401.644713 92.481166,401.415293 92.8050526,401.16698 C92.8806262,401.825549 93.1937166,402.154834 93.7443239,402.154834 C93.9818408,402.154834 94.2679406,402.08196 94.6026235,401.936211 C94.9373063,401.790462 95.2072119,401.65281 95.4123401,401.523255 L95.4123401,401.523255 L95.4123401,401.183174 C95.1316383,401.28034 94.8941215,401.328923 94.6997895,401.328923 C94.4946613,401.328923 94.3705047,401.25335 94.3273198,401.102202 C94.284135,400.951055 94.2625425,400.76752 94.2625425,400.551595 L94.2625425,400.551595 L94.2625425,397.086008 C94.2625425,396.373457 94.0196275,395.82285 93.5337976,395.434186 C93.0479676,395.045522 92.432583,394.85119 91.6876437,394.85119 C91.2449987,394.85119 90.8131498,394.945657 90.3920972,395.134591 C89.9710445,395.323525 89.6255655,395.577236 89.3556599,395.895725 C89.0857544,396.214213 88.9508016,396.567789 88.9508016,396.956453 C88.9508016,397.237155 89.0263752,397.455779 89.1775223,397.612324 C89.3286694,397.768869 89.5391957,397.847142 89.8091012,397.847142 C90.0682105,397.847142 90.2814359,397.779665 90.4487773,397.644713 C90.6161188,397.50976 90.6997895,397.318127 90.6997895,397.069814 C90.6997895,396.951055 90.675498,396.837695 90.626915,396.729733 C90.578332,396.621771 90.5162537,396.519206 90.4406802,396.42204 C90.3866991,396.357263 90.3408151,396.292486 90.3030283,396.227709 C90.2652416,396.162931 90.2463482,396.092756 90.2463482,396.017182 C90.2463482,395.82285 90.3435142,395.658208 90.5378462,395.523255 C90.7321781,395.388302 90.9858893,395.320826 91.2989798,395.320826 C91.7740135,395.320826 92.1248907,395.471973 92.3516113,395.774267 C92.578332,396.076561 92.6916923,396.465225 92.6916923,396.940259 L92.6916923,396.940259 L92.6916923,397.426089 C92.6916923,397.609625 92.6539055,397.752675 92.578332,397.855239 C92.5027584,397.957803 92.3570094,398.046872 92.141085,398.122445 L92.141085,398.122445 L88.9022186,399.320826 C88.8158489,399.353215 88.7537706,399.409895 88.7159838,399.490866 C88.678197,399.571838 88.6593036,399.704092 88.6593036,399.887628 C88.6593036,400.287088 88.7510715,400.659557 88.9346073,401.005036 C89.118143,401.350516 89.3637571,401.631217 89.6714494,401.847142 C89.9791417,402.063066 90.3273198,402.171028 90.7159838,402.171028 Z M91.4447287,401.28034 C91.2396005,401.28034 91.0452686,401.207466 90.8617328,401.061717 C90.678197,400.915968 90.5270499,400.732432 90.4082915,400.511109 C90.2895331,400.289787 90.2301538,400.060367 90.2301538,399.82285 C90.2301538,399.650111 90.2436491,399.528653 90.2706397,399.458478 C90.2976302,399.388302 90.3435142,399.33702 90.4082915,399.304632 L90.4082915,399.304632 L92.578332,398.511109 C92.6539055,398.478721 92.6916923,398.500313 92.6916923,398.575887 L92.6916923,398.575887 L92.6916923,400.341069 C92.6916923,400.578586 92.6215169,400.751325 92.481166,400.859287 C92.2976302,400.988842 92.1221916,401.091406 91.9548502,401.16698 C91.7875088,401.242553 91.6174683,401.28034 91.4447287,401.28034 Z M99.7200324,402.057668 L99.7200324,401.798559 L99.1370364,401.604227 C99.018278,401.571838 98.918413,401.515158 98.8374413,401.434186 C98.7564696,401.353215 98.7159838,401.237155 98.7159838,401.086008 L98.7159838,401.086008 L98.7159838,392.146737 C98.7159838,391.82285 98.7321781,391.53675 98.7645668,391.288437 C98.7969555,391.040124 98.8563347,390.829598 98.9427045,390.656858 L98.9427045,390.656858 L98.7807611,390.543498 C98.3597085,390.727034 97.944054,390.861987 97.5337976,390.948356 C97.1235412,391.034726 96.6539055,391.121096 96.1248907,391.207466 L96.1248907,391.207466 L96.1248907,391.434186 L96.7402753,391.59613 C96.8806262,391.628518 96.9831903,391.685198 97.0479676,391.76617 C97.1127449,391.847142 97.1451336,392.000988 97.1451336,392.227709 L97.1451336,392.227709 L97.1451336,401.005036 C97.1451336,401.307331 96.9993846,401.507061 96.7078866,401.604227 L96.7078866,401.604227 L96.1248907,401.798559 L96.1248907,402.057668 L99.7200324,402.057668 Z M108.675498,402.057668 L108.675498,401.798559 L108.092502,401.604227 C107.973744,401.571838 107.873879,401.515158 107.792907,401.434186 C107.711935,401.353215 107.671449,401.237155 107.671449,401.086008 L107.671449,401.086008 L107.671449,397.620421 C107.671449,397.16698 107.8118,396.783714 108.092502,396.470623 C108.373204,396.157533 108.761868,396.000988 109.258494,396.000988 C109.744324,396.000988 110.119493,396.133242 110.384,396.397749 C110.648507,396.662256 110.780761,397.037425 110.780761,397.523255 L110.780761,397.523255 L110.780761,401.005036 C110.780761,401.307331 110.635012,401.507061 110.343514,401.604227 L110.343514,401.604227 L109.760518,401.798559 L109.760518,402.057668 L113.35566,402.057668 L113.35566,401.798559 L112.772664,401.604227 C112.653906,401.571838 112.55404,401.515158 112.473069,401.434186 C112.392097,401.353215 112.351611,401.237155 112.351611,401.086008 L112.351611,401.086008 L112.351611,397.118397 C112.351611,396.384254 112.138386,395.82285 111.711935,395.434186 C111.285484,395.045522 110.694391,394.85119 109.938656,394.85119 C109.819897,394.85119 109.701139,394.883579 109.582381,394.948356 C109.280086,395.121096 108.9562,395.299233 108.610721,395.482769 C108.265242,395.666305 107.941355,395.828248 107.639061,395.968599 L107.639061,395.968599 L107.558089,395.968599 C107.579682,395.504362 107.649857,395.148086 107.768615,394.899773 L107.768615,394.899773 L107.622866,394.786413 C107.201814,394.959152 106.805053,395.088707 106.432583,395.175077 C106.060113,395.261447 105.609371,395.347816 105.080356,395.434186 L105.080356,395.434186 L105.080356,395.677101 L105.679547,395.839045 C105.819897,395.871433 105.925161,395.928113 105.995336,396.009085 C106.065511,396.090057 106.100599,396.243903 106.100599,396.470623 L106.100599,396.470623 L106.100599,401.005036 C106.100599,401.307331 105.95485,401.507061 105.663352,401.604227 L105.663352,401.604227 L105.080356,401.798559 L105.080356,402.057668 L108.675498,402.057668 Z M117.630964,402.187223 C118.332718,402.187223 118.950802,402.027978 119.485215,401.70949 C120.019628,401.391001 120.435282,400.951055 120.732178,400.389652 C121.029074,399.828248 121.177522,399.185873 121.177522,398.462526 C121.177522,397.782364 121.029074,397.169679 120.732178,396.62447 C120.435282,396.07926 120.019628,395.650111 119.485215,395.33702 C118.950802,395.02393 118.332718,394.867385 117.630964,394.867385 C116.918413,394.867385 116.29763,395.02393 115.768615,395.33702 C115.239601,395.650111 114.826645,396.087358 114.529749,396.648761 C114.232853,397.210165 114.084405,397.857938 114.084405,398.592081 C114.084405,399.272243 114.232853,399.882229 114.529749,400.42204 C114.826645,400.961852 115.239601,401.391001 115.768615,401.70949 C116.29763,402.027978 116.918413,402.187223 117.630964,402.187223 Z M117.647158,401.717587 C117.053366,401.717587 116.599924,401.431487 116.286834,400.859287 C115.973744,400.287088 115.817198,399.471973 115.817198,398.413943 C115.817198,397.377506 115.971045,396.605576 116.278737,396.098154 C116.586429,395.590731 117.031773,395.33702 117.614769,395.33702 C118.208561,395.33702 118.662003,395.620421 118.975093,396.187223 C119.288184,396.754024 119.444729,397.571838 119.444729,398.640664 C119.444729,399.666305 119.288184,400.435536 118.975093,400.948356 C118.662003,401.461177 118.219358,401.717587 117.647158,401.717587 Z M125.987239,402.219611 L128.659304,395.806656 C128.734877,395.62312 128.896821,395.498964 129.145134,395.434186 L129.145134,395.434186 L129.760518,395.272243 L129.760518,394.996939 L126.958899,394.996939 L126.958899,395.272243 L127.703838,395.417992 C127.865781,395.450381 127.965646,395.501663 128.003433,395.571838 C128.04122,395.642013 128.038521,395.731082 127.995336,395.839045 L127.995336,395.839045 L126.311126,400.000988 L124.594526,395.968599 C124.529749,395.806656 124.540545,395.682499 124.626915,395.59613 C124.713285,395.50976 124.837441,395.444982 124.999385,395.401798 L124.999385,395.401798 L125.566186,395.272243 L125.566186,394.996939 L121.792907,394.996939 L121.792907,395.272243 L122.294931,395.385603 C122.543244,395.439584 122.705188,395.558343 122.780761,395.741879 L122.780761,395.741879 L125.630964,402.219611 L125.987239,402.219611 Z M132.675498,402.171028 C133.020977,402.171028 133.374553,402.065765 133.736227,401.855239 C134.0979,401.644713 134.44068,401.415293 134.764567,401.16698 C134.84014,401.825549 135.153231,402.154834 135.703838,402.154834 C135.941355,402.154834 136.227455,402.08196 136.562138,401.936211 C136.896821,401.790462 137.166726,401.65281 137.371854,401.523255 L137.371854,401.523255 L137.371854,401.183174 C137.091152,401.28034 136.853636,401.328923 136.659304,401.328923 C136.454175,401.328923 136.330019,401.25335 136.286834,401.102202 C136.243649,400.951055 136.222057,400.76752 136.222057,400.551595 L136.222057,400.551595 L136.222057,397.086008 C136.222057,396.373457 135.979142,395.82285 135.493312,395.434186 C135.007482,395.045522 134.392097,394.85119 133.647158,394.85119 C133.204513,394.85119 132.772664,394.945657 132.351611,395.134591 C131.930559,395.323525 131.58508,395.577236 131.315174,395.895725 C131.045269,396.214213 130.910316,396.567789 130.910316,396.956453 C130.910316,397.237155 130.985889,397.455779 131.137036,397.612324 C131.288184,397.768869 131.49871,397.847142 131.768615,397.847142 C132.027725,397.847142 132.24095,397.779665 132.408291,397.644713 C132.575633,397.50976 132.659304,397.318127 132.659304,397.069814 C132.659304,396.951055 132.635012,396.837695 132.586429,396.729733 C132.537846,396.621771 132.475768,396.519206 132.400194,396.42204 C132.346213,396.357263 132.300329,396.292486 132.262543,396.227709 C132.224756,396.162931 132.205862,396.092756 132.205862,396.017182 C132.205862,395.82285 132.303028,395.658208 132.49736,395.523255 C132.691692,395.388302 132.945404,395.320826 133.258494,395.320826 C133.733528,395.320826 134.084405,395.471973 134.311126,395.774267 C134.537846,396.076561 134.651206,396.465225 134.651206,396.940259 L134.651206,396.940259 L134.651206,397.426089 C134.651206,397.609625 134.61342,397.752675 134.537846,397.855239 C134.462273,397.957803 134.316524,398.046872 134.100599,398.122445 L134.100599,398.122445 L130.861733,399.320826 C130.775363,399.353215 130.713285,399.409895 130.675498,399.490866 C130.637711,399.571838 130.618818,399.704092 130.618818,399.887628 C130.618818,400.287088 130.710586,400.659557 130.894121,401.005036 C131.077657,401.350516 131.323271,401.631217 131.630964,401.847142 C131.938656,402.063066 132.286834,402.171028 132.675498,402.171028 Z M133.404243,401.28034 C133.199115,401.28034 133.004783,401.207466 132.821247,401.061717 C132.637711,400.915968 132.486564,400.732432 132.367806,400.511109 C132.249047,400.289787 132.189668,400.060367 132.189668,399.82285 C132.189668,399.650111 132.203163,399.528653 132.230154,399.458478 C132.257144,399.388302 132.303028,399.33702 132.367806,399.304632 L132.367806,399.304632 L134.537846,398.511109 C134.61342,398.478721 134.651206,398.500313 134.651206,398.575887 L134.651206,398.575887 L134.651206,400.341069 C134.651206,400.578586 134.581031,400.751325 134.44068,400.859287 C134.257144,400.988842 134.081706,401.091406 133.914364,401.16698 C133.747023,401.242553 133.576982,401.28034 133.404243,401.28034 Z M145.209911,402.187223 C145.792907,402.187223 146.273339,402.08196 146.651206,401.871433 C147.029074,401.660907 147.312475,401.388302 147.501409,401.053619 C147.690343,400.718937 147.78481,400.368059 147.78481,400.000988 C147.78481,399.385603 147.620167,398.915968 147.290883,398.592081 C146.961598,398.268194 146.478467,397.992891 145.84149,397.76617 C145.409641,397.615023 145.074958,397.477371 144.837441,397.353215 C144.599924,397.229058 144.432583,397.086008 144.335417,396.924065 C144.238251,396.762121 144.189668,396.546197 144.189668,396.276291 C144.189668,395.99559 144.286834,395.763471 144.481166,395.579935 C144.675498,395.396399 144.934607,395.304632 145.258494,395.304632 C145.679547,395.304632 146.035822,395.463876 146.32732,395.782364 C146.618818,396.100853 146.834742,396.562391 146.975093,397.16698 L146.975093,397.16698 L147.41234,397.16698 C147.347563,396.810704 147.307077,396.489517 147.290883,396.203417 C147.274688,395.917317 147.277387,395.585333 147.29898,395.207466 L147.29898,395.207466 L146.910316,395.207466 C146.672799,395.099503 146.446078,395.013134 146.230154,394.948356 C146.014229,394.883579 145.738926,394.85119 145.404243,394.85119 C144.896821,394.85119 144.456874,394.945657 144.084405,395.134591 C143.711935,395.323525 143.423136,395.56644 143.218008,395.863336 C143.01288,396.160232 142.910316,396.48142 142.910316,396.826899 C142.910316,397.388302 143.058764,397.830947 143.35566,398.154834 C143.652556,398.478721 144.108696,398.764821 144.724081,399.013134 C145.199115,399.185873 145.563487,399.347816 145.817198,399.498964 C146.07091,399.650111 146.246348,399.812054 146.343514,399.984794 C146.44068,400.157533 146.489263,400.378856 146.489263,400.648761 C146.489263,400.972648 146.378602,401.234456 146.157279,401.434186 C145.935957,401.633916 145.66875,401.733781 145.35566,401.733781 C144.751072,401.733781 144.27064,401.515158 143.914364,401.077911 C143.558089,400.640664 143.336767,400.098154 143.250397,399.450381 L143.250397,399.450381 L142.699789,399.450381 C142.775363,399.785063 142.81315,400.135941 142.81315,400.503012 C142.81315,400.870084 142.802354,401.210165 142.780761,401.523255 C143.018278,401.65281 143.35566,401.79586 143.792907,401.952405 C144.230154,402.10895 144.702489,402.187223 145.209911,402.187223 Z M152.367806,402.187223 C152.886024,402.187223 153.390748,402.05227 153.881976,401.782364 C154.373204,401.512459 154.829344,401.08061 155.250397,400.486818 L155.250397,400.486818 L155.007482,400.276291 C154.359709,400.826899 153.706537,401.102202 153.047968,401.102202 C152.605323,401.102202 152.203163,400.99424 151.84149,400.778316 C151.479816,400.562391 151.188318,400.241204 150.966996,399.814753 C150.745673,399.388302 150.635012,398.867385 150.635012,398.252 L150.635012,398.252 L150.635012,398.122445 L154.910316,398.122445 C155.018278,398.122445 155.09925,398.087358 155.153231,398.017182 C155.207212,397.947007 155.234202,397.863336 155.234202,397.76617 C155.234202,397.226359 155.120842,396.735131 154.894121,396.292486 C154.667401,395.849841 154.348912,395.498964 153.938656,395.239854 C153.528399,394.980745 153.053366,394.85119 152.513555,394.85119 C151.833393,394.85119 151.223406,395.010435 150.683595,395.328923 C150.143784,395.647412 149.717333,396.090057 149.404243,396.656858 C149.091152,397.22366 148.934607,397.87953 148.934607,398.62447 C148.934607,399.283039 149.080356,399.882229 149.371854,400.42204 C149.663352,400.961852 150.068211,401.391001 150.586429,401.70949 C151.104648,402.027978 151.69844,402.187223 152.367806,402.187223 Z M150.667401,397.588032 C150.742974,396.90787 150.931908,396.362661 151.234202,395.952405 C151.536497,395.542148 151.919762,395.33702 152.384,395.33702 C152.772664,395.33702 153.06956,395.507061 153.274688,395.847142 C153.479816,396.187223 153.582381,396.627169 153.582381,397.16698 C153.582381,397.382904 153.496011,397.490866 153.323271,397.490866 L153.323271,397.490866 L150.667401,397.588032 Z M159.865781,402.057668 L159.865781,401.798559 L159.282785,401.604227 C159.164027,401.571838 159.064162,401.515158 158.98319,401.434186 C158.902219,401.353215 158.861733,401.237155 158.861733,401.086008 L158.861733,401.086008 L158.861733,397.604227 C158.861733,397.150785 158.991287,396.770219 159.250397,396.462526 C159.509506,396.154834 159.865781,396.000988 160.319223,396.000988 C160.761868,396.000988 161.104648,396.133242 161.347563,396.397749 C161.590478,396.662256 161.711935,397.042823 161.711935,397.539449 L161.711935,397.539449 L161.711935,401.005036 C161.711935,401.307331 161.566186,401.507061 161.274688,401.604227 L161.274688,401.604227 L160.691692,401.798559 L160.691692,402.057668 L164.303028,402.057668 L164.303028,401.798559 L163.720032,401.604227 C163.601274,401.571838 163.49871,401.515158 163.41234,401.434186 C163.32597,401.353215 163.282785,401.237155 163.282785,401.086008 L163.282785,401.086008 L163.282785,397.604227 C163.282785,397.150785 163.415039,396.770219 163.679547,396.462526 C163.944054,396.154834 164.29763,396.000988 164.740275,396.000988 C165.18292,396.000988 165.5257,396.133242 165.768615,396.397749 C166.01153,396.662256 166.132988,397.042823 166.132988,397.539449 L166.132988,397.539449 L166.132988,401.005036 C166.132988,401.307331 165.992637,401.507061 165.711935,401.604227 L165.711935,401.604227 L165.128939,401.798559 L165.128939,402.057668 L168.724081,402.057668 L168.724081,401.798559 L168.141085,401.604227 C168.022327,401.571838 167.919762,401.515158 167.833393,401.434186 C167.747023,401.353215 167.703838,401.237155 167.703838,401.086008 L167.703838,401.086008 L167.703838,397.118397 C167.703838,396.384254 167.504108,395.825549 167.104648,395.442283 C166.705188,395.059018 166.149182,394.867385 165.436632,394.867385 C165.350262,394.867385 165.258494,394.894375 165.161328,394.948356 C164.891422,395.121096 164.578332,395.301933 164.222057,395.490866 C163.865781,395.6798 163.547293,395.839045 163.266591,395.968599 L163.266591,395.968599 L163.056065,395.968599 C162.699789,395.234456 162.014229,394.867385 160.999385,394.867385 C160.913015,394.867385 160.826645,394.894375 160.740275,394.948356 C160.459574,395.121096 160.141085,395.301933 159.78481,395.490866 C159.428534,395.6798 159.110046,395.839045 158.829344,395.968599 L158.829344,395.968599 L158.748372,395.968599 C158.769965,395.504362 158.84014,395.148086 158.958899,394.899773 L158.958899,394.899773 L158.81315,394.786413 C158.392097,394.959152 157.995336,395.088707 157.622866,395.175077 C157.250397,395.261447 156.799655,395.347816 156.27064,395.434186 L156.27064,395.434186 L156.27064,395.677101 L156.86983,395.839045 C157.010181,395.871433 157.115444,395.928113 157.185619,396.009085 C157.255795,396.090057 157.290883,396.243903 157.290883,396.470623 L157.290883,396.470623 L157.290883,401.005036 C157.290883,401.307331 157.145134,401.507061 156.853636,401.604227 L156.853636,401.604227 L156.27064,401.798559 L156.27064,402.057668 L159.865781,402.057668 Z M171.218008,393.118397 C171.520302,393.118397 171.776713,393.013134 171.987239,392.802607 C172.197765,392.592081 172.303028,392.335671 172.303028,392.033377 C172.303028,391.731082 172.197765,391.474672 171.987239,391.264146 C171.776713,391.053619 171.520302,390.948356 171.218008,390.948356 C170.915714,390.948356 170.659304,391.053619 170.448777,391.264146 C170.238251,391.474672 170.132988,391.731082 170.132988,392.033377 C170.132988,392.335671 170.238251,392.592081 170.448777,392.802607 C170.659304,393.013134 170.915714,393.118397 171.218008,393.118397 Z M173.015579,402.057668 L173.015579,401.798559 L172.432583,401.604227 C172.335417,401.571838 172.243649,401.512459 172.157279,401.426089 C172.07091,401.339719 172.027725,401.226359 172.027725,401.086008 L172.027725,401.086008 L172.027725,396.389652 C172.027725,396.065765 172.04122,395.779665 172.068211,395.531352 C172.095201,395.283039 172.151881,395.072513 172.238251,394.899773 L172.238251,394.899773 L172.076308,394.786413 C171.655255,394.959152 171.2423,395.088707 170.837441,395.175077 C170.432583,395.261447 169.965646,395.347816 169.436632,395.434186 L169.436632,395.434186 L169.436632,395.677101 L170.035822,395.82285 C170.176173,395.866035 170.281436,395.928113 170.351611,396.009085 C170.421787,396.090057 170.456874,396.238505 170.456874,396.454429 L170.456874,396.454429 L170.456874,401.005036 C170.456874,401.307331 170.311126,401.507061 170.019628,401.604227 L170.019628,401.604227 L169.436632,401.798559 L169.436632,402.057668 L173.015579,402.057668 Z M174.975093,402.252 C175.083055,402.057668 175.196416,401.882229 175.315174,401.725684 C175.433933,401.569139 175.563487,401.426089 175.703838,401.296534 C175.973744,401.544848 176.321922,401.758073 176.748372,401.936211 C177.174823,402.114348 177.609371,402.203417 178.052016,402.203417 C178.894121,402.203417 179.58508,402.014483 180.124891,401.636615 C180.664702,401.258748 181.066861,400.778316 181.331368,400.19532 C181.595876,399.612324 181.72813,399.013134 181.72813,398.397749 C181.72813,397.782364 181.603973,397.207466 181.35566,396.673053 C181.107347,396.13864 180.72678,395.704092 180.21396,395.369409 C179.701139,395.034726 179.045269,394.867385 178.246348,394.867385 C178.138386,394.867385 178.027725,394.888977 177.914364,394.932162 C177.801004,394.975347 177.706537,395.013134 177.630964,395.045522 L177.630964,395.045522 L176.27064,395.790462 L176.27064,392.146737 C176.27064,391.82285 176.286834,391.53675 176.319223,391.288437 C176.351611,391.040124 176.405592,390.829598 176.481166,390.656858 L176.481166,390.656858 L176.335417,390.543498 C175.903568,390.727034 175.485215,390.861987 175.080356,390.948356 C174.675498,391.034726 174.208561,391.121096 173.679547,391.207466 L173.679547,391.207466 L173.679547,391.434186 L174.294931,391.59613 C174.435282,391.628518 174.537846,391.685198 174.602623,391.76617 C174.667401,391.847142 174.699789,392.000988 174.699789,392.227709 L174.699789,392.227709 L174.699789,402.203417 L174.975093,402.252 Z M178.068211,401.685198 C177.75512,401.685198 177.460923,401.588032 177.185619,401.3937 C176.910316,401.199368 176.688993,400.942958 176.521652,400.62447 C176.35431,400.305981 176.27064,399.952405 176.27064,399.563741 L176.27064,399.563741 L176.27064,397.312729 C176.27064,396.934861 176.405592,396.602877 176.675498,396.316777 C176.945404,396.030677 177.323271,395.887628 177.809101,395.887628 C178.32732,395.887628 178.748372,396.033377 179.072259,396.324874 C179.396146,396.616372 179.639061,396.996939 179.801004,397.466575 C179.962947,397.936211 180.043919,398.435536 180.043919,398.964551 C180.043919,399.439584 179.973744,399.884928 179.833393,400.300583 C179.693042,400.716238 179.477117,401.05092 179.185619,401.304632 C178.894121,401.558343 178.521652,401.685198 178.068211,401.685198 Z M186.343514,402.187223 C187.045269,402.187223 187.663352,402.027978 188.197765,401.70949 C188.732178,401.391001 189.147833,400.951055 189.444729,400.389652 C189.741625,399.828248 189.890073,399.185873 189.890073,398.462526 C189.890073,397.782364 189.741625,397.169679 189.444729,396.62447 C189.147833,396.07926 188.732178,395.650111 188.197765,395.33702 C187.663352,395.02393 187.045269,394.867385 186.343514,394.867385 C185.630964,394.867385 185.010181,395.02393 184.481166,395.33702 C183.952151,395.650111 183.539196,396.087358 183.2423,396.648761 C182.945404,397.210165 182.796955,397.857938 182.796955,398.592081 C182.796955,399.272243 182.945404,399.882229 183.2423,400.42204 C183.539196,400.961852 183.952151,401.391001 184.481166,401.70949 C185.010181,402.027978 185.630964,402.187223 186.343514,402.187223 Z M186.359709,401.717587 C185.765916,401.717587 185.312475,401.431487 184.999385,400.859287 C184.686294,400.287088 184.529749,399.471973 184.529749,398.413943 C184.529749,397.377506 184.683595,396.605576 184.991287,396.098154 C185.29898,395.590731 185.744324,395.33702 186.32732,395.33702 C186.921112,395.33702 187.374553,395.620421 187.687644,396.187223 C188.000734,396.754024 188.157279,397.571838 188.157279,398.640664 C188.157279,399.666305 188.000734,400.435536 187.687644,400.948356 C187.374553,401.461177 186.931908,401.717587 186.359709,401.717587 Z M194.537846,402.057668 L194.537846,401.798559 L193.95485,401.604227 C193.836092,401.571838 193.736227,401.515158 193.655255,401.434186 C193.574283,401.353215 193.533798,401.237155 193.533798,401.086008 L193.533798,401.086008 L193.533798,392.146737 C193.533798,391.82285 193.549992,391.53675 193.582381,391.288437 C193.614769,391.040124 193.674148,390.829598 193.760518,390.656858 L193.760518,390.656858 L193.598575,390.543498 C193.177522,390.727034 192.761868,390.861987 192.351611,390.948356 C191.941355,391.034726 191.471719,391.121096 190.942704,391.207466 L190.942704,391.207466 L190.942704,391.434186 L191.558089,391.59613 C191.69844,391.628518 191.801004,391.685198 191.865781,391.76617 C191.930559,391.847142 191.962947,392.000988 191.962947,392.227709 L191.962947,392.227709 L191.962947,401.005036 C191.962947,401.307331 191.817198,401.507061 191.5257,401.604227 L191.5257,401.604227 L190.942704,401.798559 L190.942704,402.057668 L194.537846,402.057668 Z M201.307077,402.187223 C201.72813,402.133242 202.130289,402.08196 202.513555,402.033377 C202.896821,401.984794 203.29898,401.955104 203.720032,401.944308 L203.720032,401.944308 L203.720032,401.555644 C203.277387,401.56644 202.9562,401.504362 202.75647,401.369409 C202.55674,401.234456 202.456874,400.99424 202.456874,400.648761 L202.456874,400.648761 L202.456874,392.146737 C202.456874,391.82285 202.47037,391.53675 202.49736,391.288437 C202.524351,391.040124 202.581031,390.829598 202.667401,390.656858 L202.667401,390.656858 L202.505457,390.543498 C202.084405,390.727034 201.657954,390.861987 201.226105,390.948356 C200.794256,391.034726 200.319223,391.121096 199.801004,391.207466 L199.801004,391.207466 L199.801004,391.434186 L200.464972,391.59613 C200.605323,391.628518 200.710586,391.685198 200.780761,391.76617 C200.850937,391.847142 200.886024,392.000988 200.886024,392.227709 L200.886024,392.227709 L200.886024,395.320826 C200.6701,395.191271 200.392097,395.083309 200.052016,394.996939 C199.711935,394.91057 199.352961,394.867385 198.975093,394.867385 C198.165377,394.867385 197.49871,395.053619 196.975093,395.426089 C196.451476,395.798559 196.062812,396.276291 195.809101,396.859287 C195.55539,397.442283 195.428534,398.046872 195.428534,398.673053 C195.428534,399.288437 195.552691,399.863336 195.801004,400.397749 C196.049317,400.932162 196.429884,401.364011 196.942704,401.693296 C197.455525,402.02258 198.111395,402.187223 198.910316,402.187223 C199.018278,402.187223 199.128939,402.168329 199.2423,402.130543 C199.35566,402.092756 199.450127,402.05227 199.5257,402.009085 L199.5257,402.009085 L200.966996,401.231757 L201.031773,401.231757 L201.161328,402.106251 L201.307077,402.187223 Z M199.347563,401.199368 C198.829344,401.199368 198.408291,401.056318 198.084405,400.770219 C197.760518,400.484119 197.520302,400.103552 197.363757,399.628518 C197.207212,399.153484 197.128939,398.640664 197.128939,398.090057 C197.128939,397.615023 197.199115,397.172378 197.339466,396.762121 C197.479816,396.351865 197.695741,396.017182 197.987239,395.758073 C198.278737,395.498964 198.651206,395.369409 199.104648,395.369409 C199.417738,395.369409 199.709236,395.466575 199.979142,395.660907 C200.249047,395.855239 200.467671,396.114348 200.635012,396.438235 C200.802354,396.762121 200.886024,397.118397 200.886024,397.507061 L200.886024,397.507061 L200.886024,399.741879 C200.886024,400.130543 200.748372,400.470623 200.473069,400.762121 C200.197765,401.053619 199.822596,401.199368 199.347563,401.199368 Z M219.072259,402.057668 L219.072259,401.733781 L218.294931,401.571838 C217.971045,401.507061 217.733528,401.439584 217.582381,401.369409 C217.431233,401.299233 217.336767,401.19397 217.29898,401.053619 C217.261193,400.913269 217.2423,400.713538 217.2423,400.454429 L217.2423,400.454429 L217.2423,391.013134 L213.598575,391.628518 L213.598575,392.033377 L214.845538,391.984794 C215.029074,391.973997 215.15593,392.000988 215.226105,392.065765 C215.296281,392.130543 215.331368,392.238505 215.331368,392.389652 L215.331368,392.389652 L215.331368,400.454429 C215.331368,400.713538 215.312475,400.913269 215.274688,401.053619 C215.236901,401.19397 215.142435,401.299233 214.991287,401.369409 C214.84014,401.439584 214.602623,401.507061 214.278737,401.571838 L214.278737,401.571838 L213.501409,401.733781 L213.501409,402.057668 L219.072259,402.057668 Z M226.246348,402.057668 L226.796955,399.077911 L226.456874,399.077911 L226.32732,399.450381 C226.208561,399.785063 226.087104,400.025279 225.962947,400.171028 C225.838791,400.316777 225.630964,400.389652 225.339466,400.389652 L225.339466,400.389652 L222.084405,400.389652 L223.29898,399.1103 C223.849587,398.516507 224.375903,397.949706 224.877927,397.409895 C225.379951,396.870084 225.787509,396.316777 226.100599,395.749976 C226.41369,395.183174 226.570235,394.554294 226.570235,393.863336 C226.570235,393.291136 226.427185,392.791811 226.141085,392.36536 C225.854985,391.93891 225.452826,391.604227 224.934607,391.361312 C224.416389,391.118397 223.8118,390.996939 223.120842,390.996939 C222.537846,390.996939 222.008831,391.099503 221.533798,391.304632 C221.058764,391.50976 220.683595,391.782364 220.408291,392.122445 C220.132988,392.462526 219.995336,392.843093 219.995336,393.264146 C219.995336,393.523255 220.076308,393.73648 220.238251,393.903822 C220.400194,394.071163 220.599924,394.154834 220.837441,394.154834 C221.096551,394.154834 221.309776,394.08196 221.477117,393.936211 C221.644459,393.790462 221.72813,393.59343 221.72813,393.345117 C221.72813,393.204767 221.706537,393.088707 221.663352,392.996939 C221.620167,392.905171 221.571584,392.821501 221.517603,392.745927 C221.431233,392.616372 221.388049,392.486818 221.388049,392.357263 C221.388049,392.130543 221.517603,391.941609 221.776713,391.790462 C222.035822,391.639314 222.348912,391.563741 222.715984,391.563741 C223.352961,391.563741 223.819897,391.768869 224.116794,392.179126 C224.41369,392.589382 224.562138,393.16698 224.562138,393.911919 C224.562138,394.45173 224.494661,394.980745 224.359709,395.498964 C224.224756,396.017182 223.992637,396.551595 223.663352,397.102202 C223.334067,397.65281 222.894121,398.257398 222.343514,398.915968 L222.343514,398.915968 L219.946753,401.798559 L219.946753,402.057668 L226.246348,402.057668 Z M230.796955,402.203417 C231.660653,402.203417 232.408291,402.046872 233.03987,401.733781 C233.671449,401.420691 234.159978,400.986143 234.505457,400.430138 C234.850937,399.874132 235.023676,399.234456 235.023676,398.511109 C235.023676,398.025279 234.907617,397.563741 234.675498,397.126494 C234.443379,396.689247 234.108696,396.322175 233.671449,396.025279 C233.234202,395.728383 232.713285,395.547547 232.108696,395.482769 L232.108696,395.482769 L232.108696,395.450381 C232.724081,395.202067 233.201814,394.883579 233.541895,394.494915 C233.881976,394.106251 234.052016,393.642013 234.052016,393.102202 C234.052016,392.432837 233.774013,391.914618 233.218008,391.547547 C232.662003,391.180475 231.946753,390.996939 231.072259,390.996939 C230.521652,390.996939 230.030424,391.091406 229.598575,391.28034 C229.166726,391.469274 228.829344,391.712189 228.586429,392.009085 C228.343514,392.305981 228.222057,392.627169 228.222057,392.972648 C228.222057,393.274942 228.303028,393.501663 228.464972,393.65281 C228.626915,393.803957 228.815849,393.87953 229.031773,393.87953 C229.26929,393.87953 229.474418,393.812054 229.647158,393.677101 C229.819897,393.542148 229.906267,393.361312 229.906267,393.134591 C229.906267,392.983444 229.884675,392.864686 229.84149,392.778316 C229.798305,392.691946 229.75512,392.610974 229.711935,392.535401 C229.66875,392.48142 229.633663,392.42474 229.606672,392.36536 C229.579682,392.305981 229.566186,392.233107 229.566186,392.146737 C229.566186,391.99559 229.666051,391.855239 229.865781,391.725684 C230.065511,391.59613 230.343514,391.531352 230.699789,391.531352 C231.218008,391.531352 231.593177,391.690596 231.825296,392.009085 C232.057414,392.327574 232.173474,392.745927 232.173474,393.264146 C232.173474,393.706791 232.07091,394.111649 231.865781,394.478721 C231.660653,394.845792 231.401544,395.164281 231.088453,395.434186 C230.775363,395.704092 230.451476,395.920016 230.116794,396.08196 L230.116794,396.08196 L229.647158,396.324874 L229.84149,396.648761 C229.992637,396.605576 230.138386,396.559692 230.278737,396.511109 C230.419088,396.462526 230.564837,396.411244 230.715984,396.357263 C231.460923,396.378856 232.025026,396.627169 232.408291,397.102202 C232.791557,397.577236 232.98319,398.144038 232.98319,398.802607 C232.98319,399.515158 232.861733,400.07926 232.618818,400.494915 C232.375903,400.91057 232.076308,401.207466 231.720032,401.385603 C231.363757,401.563741 231.007482,401.65281 230.651206,401.65281 C230.273339,401.65281 229.941355,401.585333 229.655255,401.450381 C229.369155,401.315428 229.226105,401.150785 229.226105,400.956453 C229.226105,400.88088 229.247698,400.816103 229.290883,400.762121 C229.334067,400.70814 229.38265,400.654159 229.436632,400.600178 C229.501409,400.524605 229.566186,400.435536 229.630964,400.332972 C229.695741,400.230408 229.72813,400.092756 229.72813,399.920016 C229.72813,399.714888 229.652556,399.53675 229.501409,399.385603 C229.350262,399.234456 229.134337,399.158883 228.853636,399.158883 C228.616119,399.158883 228.408291,399.239854 228.230154,399.401798 C228.052016,399.563741 227.962947,399.801258 227.962947,400.114348 C227.962947,400.546197 228.092502,400.918667 228.351611,401.231757 C228.610721,401.544848 228.9562,401.785063 229.388049,401.952405 C229.819897,402.119746 230.289533,402.203417 230.796955,402.203417 Z M244.222057,402.057668 L244.222057,401.733781 L243.396146,401.555644 C242.996686,401.48007 242.740275,401.377506 242.626915,401.247951 C242.513555,401.118397 242.456874,400.886278 242.456874,400.551595 L242.456874,400.551595 L242.456874,399.369409 L243.801004,399.369409 L244.335417,396.859287 L243.995336,396.859287 L243.752421,397.539449 C243.676848,397.733781 243.58508,397.871433 243.477117,397.952405 C243.369155,398.033377 243.21261,398.073862 243.007482,398.073862 L243.007482,398.073862 L242.456874,398.073862 L242.456874,390.948356 L242.100599,390.948356 L236.076308,398.786413 L236.076308,399.369409 L240.626915,399.369409 L240.626915,400.551595 C240.626915,400.886278 240.570235,401.118397 240.456874,401.247951 C240.343514,401.377506 240.087104,401.48007 239.687644,401.555644 L239.687644,401.555644 L238.861733,401.733781 L238.861733,402.057668 L244.222057,402.057668 Z M240.626915,398.073862 L237.323271,398.073862 L240.626915,393.76617 L240.626915,398.073862 Z M247.946753,402.219611 C248.832043,402.219611 249.582381,402.05227 250.197765,401.717587 C250.81315,401.382904 251.280086,400.93756 251.598575,400.381555 C251.917063,399.825549 252.076308,399.212864 252.076308,398.543498 C252.076308,397.776966 251.890073,397.129193 251.517603,396.600178 C251.145134,396.071163 250.64041,395.669004 250.003433,395.3937 C249.366456,395.118397 248.653906,394.980745 247.865781,394.980745 C247.72543,394.980745 247.58508,394.986143 247.444729,394.996939 C247.304378,395.007735 247.164027,395.018532 247.023676,395.029328 L247.023676,395.029328 L247.29898,392.648761 L251.347563,392.648761 L251.801004,390.252 L251.428534,390.252 L251.315174,390.575887 C251.174823,390.921366 250.937306,391.094105 250.602623,391.094105 L250.602623,391.094105 L246.829344,391.094105 L246.246348,396.341069 L246.392097,396.42204 C246.672799,396.389652 246.931908,396.373457 247.169425,396.373457 C248.01153,396.373457 248.713285,396.581285 249.274688,396.996939 C249.836092,397.412594 250.116794,398.036076 250.116794,398.867385 C250.116794,399.774267 249.895471,400.459827 249.452826,400.924065 C249.010181,401.388302 248.427185,401.620421 247.703838,401.620421 C247.347563,401.620421 247.029074,401.563741 246.748372,401.450381 C246.467671,401.33702 246.32732,401.172378 246.32732,400.956453 C246.32732,400.891676 246.346213,400.834996 246.384,400.786413 C246.421787,400.73783 246.467671,400.691946 246.521652,400.648761 C246.597225,400.573188 246.667401,400.484119 246.732178,400.381555 C246.796955,400.278991 246.829344,400.130543 246.829344,399.936211 C246.829344,399.741879 246.751072,399.563741 246.594526,399.401798 C246.437981,399.239854 246.219358,399.158883 245.938656,399.158883 C245.711935,399.158883 245.509506,399.237155 245.331368,399.3937 C245.153231,399.550246 245.064162,399.790462 245.064162,400.114348 C245.064162,400.556993 245.196416,400.934861 245.460923,401.247951 C245.72543,401.561042 246.076308,401.801258 246.513555,401.968599 C246.950802,402.135941 247.428534,402.219611 247.946753,402.219611 Z M257.128939,402.203417 C257.75512,402.203417 258.340815,402.068464 258.886024,401.798559 C259.431233,401.528653 259.873879,401.129193 260.21396,400.600178 C260.55404,400.071163 260.724081,399.417992 260.724081,398.640664 C260.724081,398.07926 260.605323,397.542148 260.367806,397.029328 C260.130289,396.516507 259.779412,396.098154 259.315174,395.774267 C258.850937,395.450381 258.267941,395.288437 257.566186,395.288437 C257.145134,395.288437 256.764567,395.36671 256.424486,395.523255 C256.084405,395.6798 255.801004,395.882229 255.574283,396.130543 C255.682246,395.320826 255.884675,394.573188 256.181571,393.887628 C256.478467,393.202067 256.907617,392.629868 257.46902,392.171028 C258.030424,391.712189 258.764567,391.412594 259.671449,391.272243 L259.671449,391.272243 L259.655255,390.996939 C258.446078,390.996939 257.374553,391.28034 256.44068,391.847142 C255.506807,392.413943 254.775363,393.207466 254.246348,394.227709 C253.717333,395.247951 253.452826,396.438235 253.452826,397.798559 C253.452826,398.8242 253.61207,399.660907 253.930559,400.30868 C254.249047,400.956453 254.686294,401.434186 255.2423,401.741879 C255.798305,402.049571 256.427185,402.203417 257.128939,402.203417 Z M257.145134,401.685198 C256.691692,401.685198 256.29763,401.385603 255.962947,400.786413 C255.628265,400.187223 255.460923,399.239854 255.460923,397.944308 L255.460923,397.944308 L255.460923,397.782364 C255.568885,397.264146 255.763217,396.837695 256.043919,396.503012 C256.324621,396.168329 256.713285,396.000988 257.209911,396.000988 C257.760518,396.000988 258.15458,396.243903 258.392097,396.729733 C258.629614,397.215563 258.748372,397.857938 258.748372,398.656858 C258.748372,400.675752 258.21396,401.685198 257.145134,401.685198 Z M265.015579,402.057668 L268.659304,392.503012 L268.659304,391.142688 L262.100599,391.142688 L261.549992,393.976696 L261.873879,393.976696 L262.149182,393.312729 C262.21396,393.139989 262.308426,393.013134 262.432583,392.932162 C262.55674,392.85119 262.688993,392.810704 262.829344,392.810704 L262.829344,392.810704 L267.622866,392.810704 L262.92651,402.057668 L265.015579,402.057668 Z M273.679547,402.252 C274.402893,402.252 275.047968,402.119746 275.614769,401.855239 C276.181571,401.590731 276.626915,401.22366 276.950802,400.754024 C277.274688,400.284389 277.436632,399.741879 277.436632,399.126494 C277.436632,398.619072 277.323271,398.173727 277.096551,397.790462 C276.86983,397.407196 276.575633,397.067115 276.21396,396.770219 C275.852286,396.473323 275.466321,396.200718 275.056065,395.952405 C275.617468,395.714888 276.0979,395.380205 276.49736,394.948356 C276.896821,394.516507 277.096551,394.009085 277.096551,393.426089 C277.096551,392.929463 276.958899,392.500313 276.683595,392.13864 C276.408291,391.776966 276.035822,391.498964 275.566186,391.304632 C275.096551,391.1103 274.586429,391.013134 274.035822,391.013134 C273.247698,391.013134 272.591827,391.139989 272.068211,391.3937 C271.544594,391.647412 271.15593,391.982094 270.902219,392.397749 C270.648507,392.813404 270.521652,393.264146 270.521652,393.749976 C270.521652,394.397749 270.702489,394.932162 271.064162,395.353215 C271.425835,395.774267 271.860383,396.152135 272.367806,396.486818 C271.957549,396.670354 271.579682,396.913269 271.234202,397.215563 C270.888723,397.517857 270.61342,397.863336 270.408291,398.252 C270.203163,398.640664 270.100599,399.056318 270.100599,399.498964 C270.100599,400.08196 270.265242,400.578586 270.594526,400.988842 C270.923811,401.399099 271.361058,401.712189 271.906267,401.928113 C272.451476,402.144038 273.04257,402.252 273.679547,402.252 Z M274.505457,395.628518 L274.489263,395.628518 C274.111395,395.401798 273.744324,395.169679 273.388049,394.932162 C273.031773,394.694645 272.742974,394.435536 272.521652,394.154834 C272.300329,393.874132 272.189668,393.550246 272.189668,393.183174 C272.189668,392.805306 272.27064,392.500313 272.432583,392.268194 C272.594526,392.036076 272.796955,391.866035 273.03987,391.758073 C273.282785,391.650111 273.528399,391.59613 273.776713,391.59613 C274.273339,391.59613 274.667401,391.747277 274.958899,392.049571 C275.250397,392.351865 275.396146,392.799908 275.396146,393.3937 C275.396146,393.771568 275.32597,394.160232 275.185619,394.559692 C275.045269,394.959152 274.818548,395.315428 274.505457,395.628518 L274.505457,395.628518 Z M273.95485,401.685198 C273.404243,401.685198 272.942704,401.463876 272.570235,401.021231 C272.197765,400.578586 272.01153,399.952405 272.01153,399.142688 C272.01153,398.743228 272.081706,398.33837 272.222057,397.928113 C272.362408,397.517857 272.610721,397.161582 272.966996,396.859287 L272.966996,396.859287 L273.128939,396.956453 C273.18292,396.988842 273.236901,397.015833 273.290883,397.037425 C273.679547,397.264146 274.052016,397.496265 274.408291,397.733781 C274.764567,397.971298 275.058764,398.246602 275.290883,398.559692 C275.523001,398.872783 275.639061,399.245252 275.639061,399.677101 C275.639061,400.260097 275.501409,400.740529 275.226105,401.118397 C274.950802,401.496265 274.52705,401.685198 273.95485,401.685198 Z M279.801004,402.187223 C281.010181,402.187223 282.081706,401.903822 283.015579,401.33702 C283.949452,400.770219 284.680896,399.976696 285.209911,398.956453 C285.738926,397.936211 286.003433,396.745927 286.003433,395.385603 C286.003433,394.359962 285.84149,393.523255 285.517603,392.875482 C285.193717,392.227709 284.75647,391.749976 284.205862,391.442283 C283.655255,391.134591 283.029074,390.980745 282.32732,390.980745 C281.701139,390.980745 281.112745,391.115698 280.562138,391.385603 C280.01153,391.655509 279.568885,392.054969 279.234202,392.583984 C278.89952,393.112999 278.732178,393.76617 278.732178,394.543498 C278.732178,395.104901 278.848238,395.642013 279.080356,396.154834 C279.312475,396.667655 279.663352,397.086008 280.132988,397.409895 C280.602623,397.733781 281.188318,397.895725 281.890073,397.895725 C282.311126,397.895725 282.691692,397.817452 283.031773,397.660907 C283.371854,397.504362 283.655255,397.301933 283.881976,397.053619 C283.774013,397.863336 283.571584,398.610974 283.274688,399.296534 C282.977792,399.982094 282.545943,400.554294 281.979142,401.013134 C281.41234,401.471973 280.675498,401.771568 279.768615,401.911919 L279.768615,401.911919 L279.801004,402.187223 Z M282.246348,397.183174 C281.695741,397.183174 281.301679,396.940259 281.064162,396.454429 C280.826645,395.968599 280.707887,395.326224 280.707887,394.527304 C280.707887,392.50841 281.2423,391.498964 282.311126,391.498964 C282.764567,391.498964 283.15593,391.798559 283.485215,392.397749 C283.814499,392.996939 283.979142,393.944308 283.979142,395.239854 L283.979142,395.239854 L283.979142,395.401798 C283.881976,395.920016 283.693042,396.346467 283.41234,396.68115 C283.131638,397.015833 282.742974,397.183174 282.246348,397.183174 Z M291.493312,402.187223 C292.18427,402.187223 292.78346,402.038775 293.290883,401.741879 C293.798305,401.444982 294.21396,401.034726 294.537846,400.511109 C294.861733,399.987493 295.101949,399.385603 295.258494,398.705441 C295.415039,398.025279 295.493312,397.296534 295.493312,396.519206 C295.493312,395.482769 295.352961,394.548896 295.072259,393.717587 C294.791557,392.886278 294.357009,392.225009 293.768615,391.733781 C293.180221,391.242553 292.421787,390.996939 291.493312,390.996939 C290.564837,390.996939 289.806402,391.242553 289.218008,391.733781 C288.629614,392.225009 288.195066,392.886278 287.914364,393.717587 C287.633663,394.548896 287.493312,395.482769 287.493312,396.519206 C287.493312,397.296534 287.571584,398.025279 287.72813,398.705441 C287.884675,399.385603 288.124891,399.987493 288.448777,400.511109 C288.772664,401.034726 289.185619,401.444982 289.687644,401.741879 C290.189668,402.038775 290.791557,402.187223 291.493312,402.187223 Z M291.493312,401.701393 C291.061463,401.701393 290.715984,401.563741 290.456874,401.288437 C290.197765,401.013134 290.000734,400.635266 289.865781,400.154834 C289.730829,399.674402 289.64176,399.123795 289.598575,398.503012 C289.55539,397.882229 289.533798,397.220961 289.533798,396.519206 C289.533798,395.828248 289.55539,395.180475 289.598575,394.575887 C289.64176,393.971298 289.730829,393.436885 289.865781,392.972648 C290.000734,392.50841 290.197765,392.146737 290.456874,391.887628 C290.715984,391.628518 291.061463,391.498964 291.493312,391.498964 C291.914364,391.498964 292.254445,391.628518 292.513555,391.887628 C292.772664,392.146737 292.969695,392.50841 293.104648,392.972648 C293.239601,393.436885 293.331368,393.971298 293.379951,394.575887 C293.428534,395.180475 293.452826,395.828248 293.452826,396.519206 C293.452826,397.220961 293.431233,397.882229 293.388049,398.503012 C293.344864,399.123795 293.255795,399.674402 293.120842,400.154834 C292.985889,400.635266 292.788858,401.013134 292.529749,401.288437 C292.27064,401.563741 291.925161,401.701393 291.493312,401.701393 Z" id="ibarrarealnovasemibold1234567890"></path>
            </g>
        </g>
    </g>
</svg>