<?xml version="1.0" encoding="UTF-8"?>
<svg width="241px" height="13px" viewBox="0 0 241 13" version="1.1" xmlns="http://www.w3.org/2000/svg" xmlns:xlink="http://www.w3.org/1999/xlink">
    <title>ibarrarealnovaitalic1234567890</title>
    <g id="页面-1" stroke="none" stroke-width="1" fill="none" fill-rule="evenodd">
        <g id="弃-增加英文字体分类" transform="translate(-748.000000, -434.000000)" fill="#FFFFFF" fill-rule="nonzero">
            <g id="编组-4" transform="translate(720.000000, 10.000000)">
                <path d="M32.8397127,426.759867 C33.1049061,426.759867 33.3314254,426.665945 33.5192707,426.478099 C33.707116,426.290254 33.8010387,426.074785 33.8010387,425.831691 C33.8010387,425.566497 33.707116,425.339978 33.5192707,425.152133 C33.3314254,424.964287 33.1049061,424.870365 32.8397127,424.870365 C32.5966188,424.870365 32.3811492,424.964287 32.1933039,425.152133 C32.0054586,425.339978 31.9115359,425.566497 31.9115359,425.831691 C31.9115359,426.074785 32.0054586,426.290254 32.1933039,426.478099 C32.3811492,426.665945 32.5966188,426.759867 32.8397127,426.759867 Z M29.6076685,436.373127 C29.9502099,436.373127 30.386674,436.157657 30.9170608,435.726718 C31.4474475,435.295779 32.066232,434.544398 32.7734144,433.472575 L32.7734144,433.472575 L32.508221,433.306829 C32.0441326,434.014011 31.6104309,434.563735 31.207116,434.956 C30.8038011,435.348265 30.508221,435.544398 30.3203757,435.544398 C30.2430276,435.544398 30.1822541,435.489149 30.1380552,435.378652 C30.0938564,435.268155 30.1214807,435.091359 30.2209282,434.848265 L30.2209282,434.848265 L31.9944088,430.389702 C32.1712044,429.947713 32.1739669,429.616221 32.0026961,429.395227 C31.8314254,429.174232 31.6131934,429.063735 31.348,429.063735 C30.9391602,429.063735 30.5054586,429.301304 30.046895,429.776442 C29.5883315,430.25158 29.0220331,430.975337 28.348,431.947713 L28.348,431.947713 L28.6131934,432.096884 C28.8562873,431.743293 29.1159558,431.397989 29.3921989,431.060972 C29.668442,430.723956 29.9253481,430.44495 30.1629171,430.223956 C30.4004862,430.002961 30.5855691,429.892464 30.7181657,429.892464 C30.8065635,429.892464 30.8700994,429.947713 30.9087735,430.05821 C30.9474475,430.168707 30.9115359,430.362077 30.8010387,430.63832 L30.8010387,430.63832 L28.9612597,435.279204 C28.8507624,435.577547 28.8618122,435.834453 28.9944088,436.049923 C29.1270055,436.265392 29.3314254,436.373127 29.6076685,436.373127 Z M35.2098785,436.389702 C35.629768,436.389702 36.0883315,436.257105 36.5855691,435.991912 C37.0828066,435.726718 37.5772818,435.370365 38.0689945,434.922851 C38.5607072,434.475337 39.008221,433.986387 39.4115359,433.456 C39.8148508,432.925613 40.1380552,432.386939 40.3811492,431.839978 C40.6242431,431.293017 40.7457901,430.793017 40.7457901,430.339978 C40.7457901,429.85379 40.6408177,429.519536 40.4308729,429.337215 C40.2209282,429.154895 39.9723094,429.063735 39.6850166,429.063735 C39.3535249,429.063735 39.0054586,429.146608 38.6408177,429.312354 C38.2761768,429.478099 37.9253481,429.693569 37.5883315,429.958762 C37.2513149,430.223956 36.9446851,430.511249 36.668442,430.820641 L36.668442,430.820641 L36.5855691,430.820641 L38.4584972,425.897989 C38.546895,425.676994 38.6435801,425.450475 38.7485525,425.218431 C38.8535249,424.986387 38.9667845,424.765392 39.0883315,424.555448 L39.0883315,424.555448 L38.8894365,424.456 C38.5137459,424.610696 38.1187182,424.74053 37.7043536,424.845503 C37.289989,424.950475 36.8562873,425.03611 36.4032486,425.102409 L36.4032486,425.102409 L36.3369503,425.284729 L36.9999337,425.351028 C37.2761768,425.373127 37.4391602,425.425613 37.488884,425.508486 C37.5386077,425.591359 37.5413702,425.688044 37.4971713,425.798541 L37.4971713,425.798541 L34.2485525,434.152133 C34.1159558,434.494674 34.0496575,434.815116 34.0496575,435.113459 C34.0496575,435.500199 34.1573923,435.809591 34.3728619,436.041635 C34.5883315,436.27368 34.867337,436.389702 35.2098785,436.389702 Z M35.8894365,435.594122 C35.3700994,435.594122 35.1104309,435.312354 35.1104309,434.748818 C35.1104309,434.373127 35.1933039,433.96705 35.3590497,433.530586 C35.5247956,433.094122 35.7457901,432.663182 36.0220331,432.237768 C36.2982762,431.812354 36.5993812,431.425613 36.9253481,431.077547 C37.2513149,430.729481 37.5717569,430.450475 37.886674,430.24053 C38.2015912,430.030586 38.4861215,429.925613 38.7402652,429.925613 C38.9612597,429.925613 39.1435801,429.994674 39.2872265,430.132796 C39.4308729,430.270917 39.5026961,430.516773 39.5026961,430.870365 C39.5026961,431.577547 39.3452376,432.237768 39.0303204,432.851028 C38.7154033,433.464287 38.348,433.986387 37.9281105,434.417326 C37.5855691,434.781967 37.2319779,435.06926 36.867337,435.279204 C36.5026961,435.489149 36.1767293,435.594122 35.8894365,435.594122 Z M41.8397127,436.389702 C42.2375028,436.389702 42.6435801,436.281967 43.0579448,436.066497 C43.4723094,435.851028 43.8618122,435.577547 44.226453,435.246055 C44.5910939,434.914564 44.906011,434.572022 45.1712044,434.218431 L45.1712044,434.218431 L45.2706519,434.218431 L44.9225856,435.179757 C44.7789392,435.588597 44.7734144,435.889702 44.906011,436.083072 C45.0386077,436.276442 45.2098785,436.373127 45.4198232,436.373127 C45.7402652,436.373127 46.149105,436.157657 46.6463425,435.726718 C47.1435801,435.295779 47.7347403,434.544398 48.4198232,433.472575 L48.4198232,433.472575 L48.1546298,433.306829 C47.6905414,434.014011 47.2568398,434.563735 46.8535249,434.956 C46.4502099,435.348265 46.1546298,435.544398 45.9667845,435.544398 C45.8894365,435.544398 45.828663,435.489149 45.7844641,435.378652 C45.7402652,435.268155 45.7678895,435.091359 45.867337,434.848265 L45.867337,434.848265 L48.3038011,428.815116 L48.1380552,428.815116 L47.2430276,429.461525 L47.2098785,429.461525 C47.1214807,429.339978 47.0054586,429.243293 46.8618122,429.17147 C46.7181657,429.099646 46.5358453,429.063735 46.3148508,429.063735 C45.8507624,429.063735 45.3231381,429.235006 44.7319779,429.577547 C44.1408177,429.920088 43.5855691,430.367602 43.066232,430.920088 C42.6573923,431.362077 42.2789392,431.826166 41.9308729,432.312354 C41.5828066,432.798541 41.3038011,433.279204 41.0938564,433.754343 C40.8839116,434.229481 40.7789392,434.676994 40.7789392,435.096884 C40.7789392,435.594122 40.886674,435.933901 41.1021436,436.116221 C41.3176133,436.298541 41.5634696,436.389702 41.8397127,436.389702 Z M42.7347403,435.527823 C42.5247956,435.527823 42.3535249,435.453238 42.2209282,435.304066 C42.0883315,435.154895 42.0220331,434.909039 42.0220331,434.566497 C42.0220331,433.925613 42.1656796,433.295779 42.4529724,432.676994 C42.7402652,432.05821 43.1104309,431.505724 43.5634696,431.019536 C43.9281105,430.621746 44.2955138,430.320641 44.6656796,430.116221 C45.0358453,429.911801 45.3645746,429.809591 45.6518674,429.809591 C46.1601547,429.809591 46.4142983,430.085834 46.4142983,430.63832 C46.4142983,430.947713 46.3341878,431.315116 46.1739669,431.74053 C46.0137459,432.165945 45.8010387,432.599646 45.5358453,433.041635 C45.2706519,433.483624 44.9750718,433.892464 44.649105,434.268155 C44.3231381,434.643845 43.9944088,434.947713 43.6629171,435.179757 C43.3314254,435.411801 43.0220331,435.527823 42.7347403,435.527823 Z M49.5137459,436.406276 L50.6905414,436.257105 C51.0109834,435.472575 51.3535249,434.707381 51.7181657,433.961525 C52.0828066,433.215669 52.4529724,432.541635 52.828663,431.939425 C53.2043536,431.337215 53.5689945,430.856552 53.9225856,430.497436 C54.2761768,430.13832 54.5910939,429.958762 54.867337,429.958762 C55.0220331,429.958762 55.1159558,430.085834 55.149105,430.339978 C55.1712044,430.483624 55.2347403,430.599646 55.3397127,430.688044 C55.4446851,430.776442 55.5855691,430.820641 55.7623646,430.820641 C55.9723094,430.820641 56.1546298,430.74053 56.309326,430.580309 C56.4640221,430.420088 56.5413702,430.201856 56.5413702,429.925613 C56.5413702,429.67147 56.4612597,429.464287 56.3010387,429.304066 C56.1408177,429.143845 55.9115359,429.063735 55.6131934,429.063735 C55.2154033,429.063735 54.8314254,429.212906 54.4612597,429.511249 C54.0910939,429.809591 53.7402652,430.185282 53.4087735,430.63832 C53.0772818,431.091359 52.7789392,431.549923 52.5137459,432.014011 C52.2485525,432.478099 52.027558,432.87589 51.8507624,433.207381 L51.8507624,433.207381 L51.8010387,433.207381 L52.9612597,430.389702 C53.1270055,429.991912 53.1435801,429.67147 53.0109834,429.428376 C52.8783867,429.185282 52.6518674,429.063735 52.3314254,429.063735 C51.9225856,429.063735 51.4916464,429.301304 51.0386077,429.776442 C50.5855691,430.25158 50.027558,430.975337 49.3645746,431.947713 L49.3645746,431.947713 L49.629768,432.096884 C49.8728619,431.743293 50.1325304,431.397989 50.4087735,431.060972 C50.6850166,430.723956 50.9419227,430.44495 51.1794917,430.223956 C51.4170608,430.002961 51.6021436,429.892464 51.7347403,429.892464 C51.8231381,429.892464 51.886674,429.947713 51.9253481,430.05821 C51.9640221,430.168707 51.9281105,430.362077 51.8176133,430.63832 L51.8176133,430.63832 L49.5137459,436.406276 Z M56.5413702,436.406276 L57.7181657,436.257105 C58.0386077,435.472575 58.3811492,434.707381 58.7457901,433.961525 C59.1104309,433.215669 59.4805967,432.541635 59.8562873,431.939425 C60.2319779,431.337215 60.5966188,430.856552 60.9502099,430.497436 C61.3038011,430.13832 61.6187182,429.958762 61.8949613,429.958762 C62.0496575,429.958762 62.1435801,430.085834 62.1767293,430.339978 C62.1988287,430.483624 62.2623646,430.599646 62.367337,430.688044 C62.4723094,430.776442 62.6131934,430.820641 62.789989,430.820641 C62.9999337,430.820641 63.1822541,430.74053 63.3369503,430.580309 C63.4916464,430.420088 63.5689945,430.201856 63.5689945,429.925613 C63.5689945,429.67147 63.488884,429.464287 63.328663,429.304066 C63.168442,429.143845 62.9391602,429.063735 62.6408177,429.063735 C62.2430276,429.063735 61.8590497,429.212906 61.488884,429.511249 C61.1187182,429.809591 60.7678895,430.185282 60.4363978,430.63832 C60.1049061,431.091359 59.8065635,431.549923 59.5413702,432.014011 C59.2761768,432.478099 59.0551823,432.87589 58.8783867,433.207381 L58.8783867,433.207381 L58.828663,433.207381 L59.988884,430.389702 C60.1546298,429.991912 60.1712044,429.67147 60.0386077,429.428376 C59.906011,429.185282 59.6794917,429.063735 59.3590497,429.063735 C58.9502099,429.063735 58.5192707,429.301304 58.066232,429.776442 C57.6131934,430.25158 57.0551823,430.975337 56.3921989,431.947713 L56.3921989,431.947713 L56.6573923,432.096884 C56.9004862,431.743293 57.1601547,431.397989 57.4363978,431.060972 C57.7126409,430.723956 57.969547,430.44495 58.207116,430.223956 C58.4446851,430.002961 58.629768,429.892464 58.7623646,429.892464 C58.8507624,429.892464 58.9142983,429.947713 58.9529724,430.05821 C58.9916464,430.168707 58.9557348,430.362077 58.8452376,430.63832 L58.8452376,430.63832 L56.5413702,436.406276 Z M64.0165083,436.389702 C64.4142983,436.389702 64.8203757,436.281967 65.2347403,436.066497 C65.649105,435.851028 66.0386077,435.577547 66.4032486,435.246055 C66.7678895,434.914564 67.0828066,434.572022 67.348,434.218431 L67.348,434.218431 L67.4474475,434.218431 L67.0993812,435.179757 C66.9557348,435.588597 66.9502099,435.889702 67.0828066,436.083072 C67.2154033,436.276442 67.386674,436.373127 67.5966188,436.373127 C67.9170608,436.373127 68.3259006,436.157657 68.8231381,435.726718 C69.3203757,435.295779 69.9115359,434.544398 70.5966188,433.472575 L70.5966188,433.472575 L70.3314254,433.306829 C69.867337,434.014011 69.4336354,434.563735 69.0303204,434.956 C68.6270055,435.348265 68.3314254,435.544398 68.1435801,435.544398 C68.066232,435.544398 68.0054586,435.489149 67.9612597,435.378652 C67.9170608,435.268155 67.9446851,435.091359 68.0441326,434.848265 L68.0441326,434.848265 L70.4805967,428.815116 L70.3148508,428.815116 L69.4198232,429.461525 L69.386674,429.461525 C69.2982762,429.339978 69.1822541,429.243293 69.0386077,429.17147 C68.8949613,429.099646 68.7126409,429.063735 68.4916464,429.063735 C68.027558,429.063735 67.4999337,429.235006 66.9087735,429.577547 C66.3176133,429.920088 65.7623646,430.367602 65.2430276,430.920088 C64.8341878,431.362077 64.4557348,431.826166 64.1076685,432.312354 C63.7596022,432.798541 63.4805967,433.279204 63.2706519,433.754343 C63.0607072,434.229481 62.9557348,434.676994 62.9557348,435.096884 C62.9557348,435.594122 63.0634696,435.933901 63.2789392,436.116221 C63.4944088,436.298541 63.7402652,436.389702 64.0165083,436.389702 Z M64.9115359,435.527823 C64.7015912,435.527823 64.5303204,435.453238 64.3977238,435.304066 C64.2651271,435.154895 64.1988287,434.909039 64.1988287,434.566497 C64.1988287,433.925613 64.3424751,433.295779 64.629768,432.676994 C64.9170608,432.05821 65.2872265,431.505724 65.7402652,431.019536 C66.1049061,430.621746 66.4723094,430.320641 66.8424751,430.116221 C67.2126409,429.911801 67.5413702,429.809591 67.828663,429.809591 C68.3369503,429.809591 68.5910939,430.085834 68.5910939,430.63832 C68.5910939,430.947713 68.5109834,431.315116 68.3507624,431.74053 C68.1905414,432.165945 67.9778343,432.599646 67.7126409,433.041635 C67.4474475,433.483624 67.1518674,433.892464 66.8259006,434.268155 C66.4999337,434.643845 66.1712044,434.947713 65.8397127,435.179757 C65.508221,435.411801 65.1988287,435.527823 64.9115359,435.527823 Z M75.3369503,436.406276 L76.5137459,436.257105 C76.8341878,435.472575 77.1767293,434.707381 77.5413702,433.961525 C77.906011,433.215669 78.2761768,432.541635 78.6518674,431.939425 C79.027558,431.337215 79.3921989,430.856552 79.7457901,430.497436 C80.0993812,430.13832 80.4142983,429.958762 80.6905414,429.958762 C80.8452376,429.958762 80.9391602,430.085834 80.9723094,430.339978 C80.9944088,430.483624 81.0579448,430.599646 81.1629171,430.688044 C81.2678895,430.776442 81.4087735,430.820641 81.5855691,430.820641 C81.7955138,430.820641 81.9778343,430.74053 82.1325304,430.580309 C82.2872265,430.420088 82.3645746,430.201856 82.3645746,429.925613 C82.3645746,429.67147 82.2844641,429.464287 82.1242431,429.304066 C81.9640221,429.143845 81.7347403,429.063735 81.4363978,429.063735 C81.0386077,429.063735 80.6546298,429.212906 80.2844641,429.511249 C79.9142983,429.809591 79.5634696,430.185282 79.2319779,430.63832 C78.9004862,431.091359 78.6021436,431.549923 78.3369503,432.014011 C78.0717569,432.478099 77.8507624,432.87589 77.6739669,433.207381 L77.6739669,433.207381 L77.6242431,433.207381 L78.7844641,430.389702 C78.9502099,429.991912 78.9667845,429.67147 78.8341878,429.428376 C78.7015912,429.185282 78.4750718,429.063735 78.1546298,429.063735 C77.7457901,429.063735 77.3148508,429.301304 76.8618122,429.776442 C76.4087735,430.25158 75.8507624,430.975337 75.187779,431.947713 L75.187779,431.947713 L75.4529724,432.096884 C75.6960663,431.743293 75.9557348,431.397989 76.2319779,431.060972 C76.508221,430.723956 76.7651271,430.44495 77.0026961,430.223956 C77.2402652,430.002961 77.4253481,429.892464 77.5579448,429.892464 C77.6463425,429.892464 77.7098785,429.947713 77.7485525,430.05821 C77.7872265,430.168707 77.7513149,430.362077 77.6408177,430.63832 L77.6408177,430.63832 L75.3369503,436.406276 Z M83.508221,436.389702 C83.8839116,436.389702 84.2927514,436.257105 84.7347403,435.991912 C85.1767293,435.726718 85.6049061,435.37589 86.0192707,434.939425 C86.4336354,434.502961 86.7844641,434.025061 87.0717569,433.505724 L87.0717569,433.505724 L86.7568398,433.323403 C86.5247956,433.754343 86.2540773,434.132796 85.9446851,434.458762 C85.6352928,434.784729 85.328663,435.038873 85.0247956,435.221193 C84.7209282,435.403514 84.4529724,435.494674 84.2209282,435.494674 C83.8231381,435.494674 83.5689945,435.35379 83.4584972,435.072022 C83.348,434.790254 83.2927514,434.428376 83.2927514,433.986387 C83.2927514,433.588597 83.3314254,433.212906 83.4087735,432.859315 C84.469547,432.726718 85.3341878,432.502961 86.0026961,432.188044 C86.6712044,431.873127 87.1629171,431.519536 87.4778343,431.127271 C87.7927514,430.735006 87.9502099,430.362077 87.9502099,430.008486 C87.9502099,429.743293 87.8618122,429.519536 87.6850166,429.337215 C87.508221,429.154895 87.2430276,429.063735 86.8894365,429.063735 C86.469547,429.063735 86.0579448,429.152133 85.6546298,429.328928 C85.2513149,429.505724 84.8728619,429.737768 84.5192707,430.025061 C84.0551823,430.400751 83.6435801,430.85379 83.2844641,431.384177 C82.9253481,431.914564 82.6463425,432.46705 82.4474475,433.041635 C82.2485525,433.616221 82.149105,434.174232 82.149105,434.715669 C82.149105,435.190807 82.2568398,435.588597 82.4723094,435.909039 C82.687779,436.229481 83.0330829,436.389702 83.508221,436.389702 Z M83.4916464,432.478099 C83.6794917,431.859315 83.9419227,431.348265 84.2789392,430.94495 C84.6159558,430.541635 84.969547,430.243293 85.3397127,430.049923 C85.7098785,429.856552 86.0220331,429.759867 86.2761768,429.759867 C86.6629171,429.759867 86.8562873,429.942188 86.8562873,430.306829 C86.8562873,430.538873 86.7375028,430.809591 86.4999337,431.118983 C86.2623646,431.428376 85.8949613,431.710144 85.3977238,431.964287 C84.9004862,432.218431 84.2651271,432.389702 83.4916464,432.478099 Z M88.9944088,436.389702 C89.3921989,436.389702 89.7982762,436.281967 90.2126409,436.066497 C90.6270055,435.851028 91.0165083,435.577547 91.3811492,435.246055 C91.7457901,434.914564 92.0607072,434.572022 92.3259006,434.218431 L92.3259006,434.218431 L92.4253481,434.218431 L92.0772818,435.179757 C91.9336354,435.588597 91.9281105,435.889702 92.0607072,436.083072 C92.1933039,436.276442 92.3645746,436.373127 92.5745193,436.373127 C92.8949613,436.373127 93.3038011,436.157657 93.8010387,435.726718 C94.2982762,435.295779 94.8894365,434.544398 95.5745193,433.472575 L95.5745193,433.472575 L95.309326,433.306829 C94.8452376,434.014011 94.4115359,434.563735 94.008221,434.956 C93.6049061,435.348265 93.309326,435.544398 93.1214807,435.544398 C93.0441326,435.544398 92.9833591,435.489149 92.9391602,435.378652 C92.8949613,435.268155 92.9225856,435.091359 93.0220331,434.848265 L93.0220331,434.848265 L95.4584972,428.815116 L95.2927514,428.815116 L94.3977238,429.461525 L94.3645746,429.461525 C94.2761768,429.339978 94.1601547,429.243293 94.0165083,429.17147 C93.8728619,429.099646 93.6905414,429.063735 93.469547,429.063735 C93.0054586,429.063735 92.4778343,429.235006 91.886674,429.577547 C91.2955138,429.920088 90.7402652,430.367602 90.2209282,430.920088 C89.8120884,431.362077 89.4336354,431.826166 89.0855691,432.312354 C88.7375028,432.798541 88.4584972,433.279204 88.2485525,433.754343 C88.0386077,434.229481 87.9336354,434.676994 87.9336354,435.096884 C87.9336354,435.594122 88.0413702,435.933901 88.2568398,436.116221 C88.4723094,436.298541 88.7181657,436.389702 88.9944088,436.389702 Z M89.8894365,435.527823 C89.6794917,435.527823 89.508221,435.453238 89.3756243,435.304066 C89.2430276,435.154895 89.1767293,434.909039 89.1767293,434.566497 C89.1767293,433.925613 89.3203757,433.295779 89.6076685,432.676994 C89.8949613,432.05821 90.2651271,431.505724 90.7181657,431.019536 C91.0828066,430.621746 91.4502099,430.320641 91.8203757,430.116221 C92.1905414,429.911801 92.5192707,429.809591 92.8065635,429.809591 C93.3148508,429.809591 93.5689945,430.085834 93.5689945,430.63832 C93.5689945,430.947713 93.488884,431.315116 93.328663,431.74053 C93.168442,432.165945 92.9557348,432.599646 92.6905414,433.041635 C92.4253481,433.483624 92.129768,433.892464 91.8038011,434.268155 C91.4778343,434.643845 91.149105,434.947713 90.8176133,435.179757 C90.4861215,435.411801 90.1767293,435.527823 89.8894365,435.527823 Z M97.348,436.373127 C97.6905414,436.373127 98.1270055,436.157657 98.6573923,435.726718 C99.187779,435.295779 99.8065635,434.544398 100.513746,433.472575 L100.513746,433.472575 L100.248552,433.306829 C99.7844641,434.014011 99.3507624,434.563735 98.9474475,434.956 C98.5441326,435.348265 98.2485525,435.544398 98.0607072,435.544398 C97.9833591,435.544398 97.9253481,435.489149 97.886674,435.378652 C97.848,435.268155 97.8728619,435.091359 97.9612597,434.848265 L97.9612597,434.848265 L101.425348,425.897989 C101.513746,425.676994 101.610431,425.450475 101.715403,425.218431 C101.820376,424.986387 101.933635,424.765392 102.055182,424.555448 L102.055182,424.555448 L101.856287,424.456 C101.480597,424.610696 101.071757,424.74053 100.629768,424.845503 C100.187779,424.950475 99.7402652,425.03611 99.2872265,425.102409 L99.2872265,425.102409 L99.2209282,425.284729 L99.8839116,425.351028 C100.127006,425.373127 100.284464,425.414564 100.356287,425.475337 C100.42811,425.53611 100.436398,425.643845 100.381149,425.798541 L100.381149,425.798541 L96.7015912,435.279204 C96.5910939,435.577547 96.6021436,435.834453 96.7347403,436.049923 C96.867337,436.265392 97.0717569,436.373127 97.348,436.373127 Z M105.254077,436.406276 L106.414298,436.257105 C106.74579,435.373127 107.138055,434.549923 107.591094,433.787492 C108.044133,433.025061 108.510983,432.35379 108.991646,431.77368 C109.472309,431.193569 109.917061,430.74053 110.325901,430.414564 C110.73474,430.088597 111.049657,429.925613 111.270652,429.925613 C111.458497,429.925613 111.571757,430.000199 111.610431,430.14937 C111.649105,430.298541 111.613193,430.500199 111.502696,430.754343 L111.502696,430.754343 L109.696066,435.030586 C109.519271,435.461525 109.494409,435.793017 109.621481,436.025061 C109.748552,436.257105 109.955735,436.373127 110.243028,436.373127 C110.585569,436.373127 111.022033,436.157657 111.55242,435.726718 C112.082807,435.295779 112.701591,434.544398 113.408773,433.472575 L113.408773,433.472575 L113.14358,433.306829 C112.679492,434.014011 112.248552,434.563735 111.850762,434.956 C111.452972,435.348265 111.160155,435.544398 110.972309,435.544398 C110.861812,435.544398 110.792751,435.489149 110.765127,435.378652 C110.737503,435.268155 110.762365,435.107934 110.839713,434.897989 L110.839713,434.897989 L112.712641,430.422851 C112.867337,430.03611 112.883912,429.712906 112.762365,429.453238 C112.640818,429.193569 112.403249,429.063735 112.049657,429.063735 C111.718166,429.063735 111.375624,429.163182 111.022033,429.362077 C110.668442,429.560972 110.323138,429.820641 109.986122,430.141083 C109.649105,430.461525 109.328663,430.806829 109.024796,431.176994 C108.720928,431.54716 108.45021,431.911801 108.212641,432.270917 C107.975072,432.630033 107.778939,432.942188 107.624243,433.207381 L107.624243,433.207381 L107.54137,433.207381 L108.701591,430.389702 C108.867337,429.991912 108.883912,429.67147 108.751315,429.428376 C108.618718,429.185282 108.392199,429.063735 108.071757,429.063735 C107.662917,429.063735 107.231978,429.301304 106.778939,429.776442 C106.325901,430.25158 105.76789,430.975337 105.104906,431.947713 L105.104906,431.947713 L105.370099,432.096884 C105.613193,431.743293 105.872862,431.397989 106.149105,431.060972 C106.425348,430.723956 106.682254,430.44495 106.919823,430.223956 C107.157392,430.002961 107.342475,429.892464 107.475072,429.892464 C107.56347,429.892464 107.627006,429.947713 107.66568,430.05821 C107.704354,430.168707 107.668442,430.362077 107.557945,430.63832 L107.557945,430.63832 L105.254077,436.406276 Z M116.425348,436.373127 C117.010983,436.373127 117.54137,436.210144 118.016508,435.884177 C118.491646,435.55821 118.906011,435.13832 119.259602,434.624508 C119.613193,434.110696 119.883912,433.56926 120.071757,433.000199 C120.259602,432.431138 120.353525,431.903514 120.353525,431.417326 C120.353525,430.732243 120.185017,430.168707 119.848,429.726718 C119.510983,429.284729 119.027558,429.063735 118.397724,429.063735 C117.823138,429.063735 117.295514,429.226718 116.814851,429.552685 C116.334188,429.878652 115.917061,430.298541 115.56347,430.812354 C115.209878,431.326166 114.93916,431.867602 114.751315,432.436663 C114.56347,433.005724 114.469547,433.533348 114.469547,434.019536 C114.469547,434.704619 114.638055,435.268155 114.975072,435.710144 C115.312088,436.152133 115.795514,436.373127 116.425348,436.373127 Z M116.309326,436.041635 C116.033083,436.041635 115.817613,435.925613 115.662917,435.693569 C115.508221,435.461525 115.430873,435.146608 115.430873,434.748818 C115.430873,434.384177 115.488884,433.969812 115.604906,433.505724 C115.720928,433.041635 115.878387,432.572022 116.077282,432.096884 C116.276177,431.621746 116.508221,431.185282 116.773414,430.787492 C117.038608,430.389702 117.317613,430.066497 117.610431,429.817878 C117.903249,429.56926 118.204354,429.44495 118.513746,429.44495 C119.099381,429.44495 119.392199,429.859315 119.392199,430.688044 C119.392199,431.052685 119.334188,431.46705 119.218166,431.931138 C119.102144,432.395227 118.944685,432.867602 118.74579,433.348265 C118.546895,433.828928 118.314851,434.27368 118.049657,434.682519 C117.784464,435.091359 117.505459,435.420088 117.212641,435.668707 C116.919823,435.917326 116.618718,436.041635 116.309326,436.041635 Z M124.348,436.389702 C124.889436,436.389702 125.403249,436.257105 125.889436,435.991912 C126.375624,435.726718 126.814851,435.370365 127.207116,434.922851 C127.599381,434.475337 127.941923,433.978099 128.23474,433.431138 C128.527558,432.884177 128.751315,432.326166 128.906011,431.757105 C129.060707,431.188044 129.138055,430.654895 129.138055,430.157657 C129.138055,429.715669 129.055182,429.378652 128.889436,429.146608 C128.723691,428.914564 128.508221,428.798541 128.243028,428.798541 C128.055182,428.798541 127.870099,428.867602 127.687779,429.005724 C127.505459,429.143845 127.414298,429.351028 127.414298,429.627271 C127.414298,429.815116 127.46126,429.961525 127.555182,430.066497 C127.649105,430.17147 127.751315,430.268155 127.861812,430.356552 C127.983359,430.46705 128.102144,430.594122 128.218166,430.737768 C128.334188,430.881414 128.392199,431.102409 128.392199,431.400751 C128.392199,431.997436 128.284464,432.54716 128.068994,433.049923 C127.853525,433.552685 127.574519,433.989149 127.231978,434.359315 C126.889436,434.729481 126.527558,435.019536 126.146343,435.229481 C125.765127,435.439425 125.408773,435.544398 125.077282,435.544398 C124.73474,435.544398 124.45021,435.417326 124.223691,435.163182 C123.997171,434.909039 123.883912,434.511249 123.883912,433.969812 C123.883912,433.450475 123.944685,433.000199 124.066232,432.618983 C124.187779,432.237768 124.353525,431.886939 124.56347,431.566497 C124.773414,431.246055 125.019271,430.928376 125.301039,430.613459 C125.582807,430.298541 125.878387,429.942188 126.187779,429.544398 C126.287227,429.422851 126.370099,429.337215 126.436398,429.287492 C126.502696,429.237768 126.535845,429.190807 126.535845,429.146608 C126.535845,429.03611 126.480597,428.980862 126.370099,428.980862 C126.292751,428.980862 126.23474,429.002961 126.196066,429.04716 C126.157392,429.091359 126.099381,429.141083 126.022033,429.196331 C125.911536,429.27368 125.795514,429.328928 125.673967,429.362077 C125.55242,429.395227 125.419823,429.411801 125.276177,429.411801 C125.077282,429.411801 124.875624,429.386939 124.671204,429.337215 C124.466785,429.287492 124.287227,429.24053 124.13253,429.196331 C124.022033,429.163182 123.903249,429.132796 123.776177,429.105171 C123.649105,429.077547 123.519271,429.063735 123.386674,429.063735 C123.055182,429.063735 122.74579,429.141083 122.458497,429.295779 C122.171204,429.450475 121.93916,429.66042 121.762365,429.925613 C121.585569,430.190807 121.497171,430.494674 121.497171,430.837215 C121.497171,431.102409 121.566232,431.34274 121.704354,431.55821 C121.842475,431.77368 122.027558,431.881414 122.259602,431.881414 C122.414298,431.881414 122.546895,431.831691 122.657392,431.732243 C122.76789,431.632796 122.823138,431.500199 122.823138,431.334453 C122.823138,431.179757 122.784464,431.063735 122.707116,430.986387 C122.629768,430.909039 122.513746,430.848265 122.35905,430.804066 C122.259602,430.759867 122.168442,430.715669 122.085569,430.67147 C122.002696,430.627271 121.96126,430.549923 121.96126,430.439425 C121.96126,430.317878 122.038608,430.212906 122.193304,430.124508 C122.348,430.03611 122.557945,429.991912 122.823138,429.991912 C123.066232,429.991912 123.364575,430.03611 123.718166,430.124508 C123.861812,430.168707 124.002696,430.210144 124.140818,430.248818 C124.278939,430.287492 124.430873,430.306829 124.596619,430.306829 C124.707116,430.306829 124.834188,430.290254 124.977834,430.257105 L124.977834,430.257105 L125.010983,430.306829 C124.834188,430.549923 124.624243,430.812354 124.381149,431.094122 C124.138055,431.37589 123.897724,431.696331 123.660155,432.055448 C123.422586,432.414564 123.223691,432.815116 123.06347,433.257105 C122.903249,433.699094 122.823138,434.196331 122.823138,434.748818 C122.823138,435.257105 122.952972,435.657657 123.212641,435.950475 C123.472309,436.243293 123.850762,436.389702 124.348,436.389702 Z M130.480597,436.389702 C130.878387,436.389702 131.284464,436.281967 131.698829,436.066497 C132.113193,435.851028 132.502696,435.577547 132.867337,435.246055 C133.231978,434.914564 133.546895,434.572022 133.812088,434.218431 L133.812088,434.218431 L133.911536,434.218431 L133.56347,435.179757 C133.419823,435.588597 133.414298,435.889702 133.546895,436.083072 C133.679492,436.276442 133.850762,436.373127 134.060707,436.373127 C134.381149,436.373127 134.789989,436.157657 135.287227,435.726718 C135.784464,435.295779 136.375624,434.544398 137.060707,433.472575 L137.060707,433.472575 L136.795514,433.306829 C136.331425,434.014011 135.897724,434.563735 135.494409,434.956 C135.091094,435.348265 134.795514,435.544398 134.607669,435.544398 C134.53032,435.544398 134.469547,435.489149 134.425348,435.378652 C134.381149,435.268155 134.408773,435.091359 134.508221,434.848265 L134.508221,434.848265 L136.944685,428.815116 L136.778939,428.815116 L135.883912,429.461525 L135.850762,429.461525 C135.762365,429.339978 135.646343,429.243293 135.502696,429.17147 C135.35905,429.099646 135.176729,429.063735 134.955735,429.063735 C134.491646,429.063735 133.964022,429.235006 133.372862,429.577547 C132.781702,429.920088 132.226453,430.367602 131.707116,430.920088 C131.298276,431.362077 130.919823,431.826166 130.571757,432.312354 C130.223691,432.798541 129.944685,433.279204 129.73474,433.754343 C129.524796,434.229481 129.419823,434.676994 129.419823,435.096884 C129.419823,435.594122 129.527558,435.933901 129.743028,436.116221 C129.958497,436.298541 130.204354,436.389702 130.480597,436.389702 Z M131.375624,435.527823 C131.16568,435.527823 130.994409,435.453238 130.861812,435.304066 C130.729215,435.154895 130.662917,434.909039 130.662917,434.566497 C130.662917,433.925613 130.806564,433.295779 131.093856,432.676994 C131.381149,432.05821 131.751315,431.505724 132.204354,431.019536 C132.568994,430.621746 132.936398,430.320641 133.306564,430.116221 C133.676729,429.911801 134.005459,429.809591 134.292751,429.809591 C134.801039,429.809591 135.055182,430.085834 135.055182,430.63832 C135.055182,430.947713 134.975072,431.315116 134.814851,431.74053 C134.65463,432.165945 134.441923,432.599646 134.176729,433.041635 C133.911536,433.483624 133.615956,433.892464 133.289989,434.268155 C132.964022,434.643845 132.635293,434.947713 132.303801,435.179757 C131.972309,435.411801 131.662917,435.527823 131.375624,435.527823 Z M146.14358,426.759867 C146.408773,426.759867 146.635293,426.665945 146.823138,426.478099 C147.010983,426.290254 147.104906,426.074785 147.104906,425.831691 C147.104906,425.566497 147.010983,425.339978 146.823138,425.152133 C146.635293,424.964287 146.408773,424.870365 146.14358,424.870365 C145.900486,424.870365 145.685017,424.964287 145.497171,425.152133 C145.309326,425.339978 145.215403,425.566497 145.215403,425.831691 C145.215403,426.074785 145.309326,426.290254 145.497171,426.478099 C145.685017,426.665945 145.900486,426.759867 146.14358,426.759867 Z M142.911536,436.373127 C143.254077,436.373127 143.690541,436.157657 144.220928,435.726718 C144.751315,435.295779 145.370099,434.544398 146.077282,433.472575 L146.077282,433.472575 L145.812088,433.306829 C145.348,434.014011 144.914298,434.563735 144.510983,434.956 C144.107669,435.348265 143.812088,435.544398 143.624243,435.544398 C143.546895,435.544398 143.486122,435.489149 143.441923,435.378652 C143.397724,435.268155 143.425348,435.091359 143.524796,434.848265 L143.524796,434.848265 L145.298276,430.389702 C145.475072,429.947713 145.477834,429.616221 145.306564,429.395227 C145.135293,429.174232 144.917061,429.063735 144.651867,429.063735 C144.243028,429.063735 143.809326,429.301304 143.350762,429.776442 C142.892199,430.25158 142.325901,430.975337 141.651867,431.947713 L141.651867,431.947713 L141.917061,432.096884 C142.160155,431.743293 142.419823,431.397989 142.696066,431.060972 C142.972309,430.723956 143.229215,430.44495 143.466785,430.223956 C143.704354,430.002961 143.889436,429.892464 144.022033,429.892464 C144.110431,429.892464 144.173967,429.947713 144.212641,430.05821 C144.251315,430.168707 144.215403,430.362077 144.104906,430.63832 L144.104906,430.63832 L142.265127,435.279204 C142.15463,435.577547 142.16568,435.834453 142.298276,436.049923 C142.430873,436.265392 142.635293,436.373127 142.911536,436.373127 Z M147.602144,436.389702 C148.022033,436.389702 148.464022,436.174232 148.92811,435.743293 C149.392199,435.312354 149.977834,434.560972 150.685017,433.489149 L150.685017,433.489149 L150.419823,433.323403 C149.977834,434.008486 149.566232,434.552685 149.185017,434.956 C148.803801,435.359315 148.524796,435.560972 148.348,435.560972 C148.248552,435.560972 148.176729,435.511249 148.13253,435.411801 C148.088331,435.312354 148.104906,435.157657 148.182254,434.947713 L148.182254,434.947713 L150.303801,429.66042 L151.662917,429.66042 L151.845238,429.196331 L150.486122,429.196331 L151.082807,427.721193 L149.93916,427.870365 L149.408773,429.196331 L148.13253,429.196331 L147.95021,429.66042 L149.193304,429.66042 L146.955735,435.295779 C146.845238,435.594122 146.856287,435.851028 146.988884,436.066497 C147.121481,436.281967 147.325901,436.389702 147.602144,436.389702 Z M152.574519,436.389702 C152.972309,436.389702 153.378387,436.281967 153.792751,436.066497 C154.207116,435.851028 154.596619,435.577547 154.96126,435.246055 C155.325901,434.914564 155.640818,434.572022 155.906011,434.218431 L155.906011,434.218431 L156.005459,434.218431 L155.657392,435.179757 C155.513746,435.588597 155.508221,435.889702 155.640818,436.083072 C155.773414,436.276442 155.944685,436.373127 156.15463,436.373127 C156.475072,436.373127 156.883912,436.157657 157.381149,435.726718 C157.878387,435.295779 158.469547,434.544398 159.15463,433.472575 L159.15463,433.472575 L158.889436,433.306829 C158.425348,434.014011 157.991646,434.563735 157.588331,434.956 C157.185017,435.348265 156.889436,435.544398 156.701591,435.544398 C156.624243,435.544398 156.56347,435.489149 156.519271,435.378652 C156.475072,435.268155 156.502696,435.091359 156.602144,434.848265 L156.602144,434.848265 L159.038608,428.815116 L158.872862,428.815116 L157.977834,429.461525 L157.944685,429.461525 C157.856287,429.339978 157.740265,429.243293 157.596619,429.17147 C157.452972,429.099646 157.270652,429.063735 157.049657,429.063735 C156.585569,429.063735 156.057945,429.235006 155.466785,429.577547 C154.875624,429.920088 154.320376,430.367602 153.801039,430.920088 C153.392199,431.362077 153.013746,431.826166 152.66568,432.312354 C152.317613,432.798541 152.038608,433.279204 151.828663,433.754343 C151.618718,434.229481 151.513746,434.676994 151.513746,435.096884 C151.513746,435.594122 151.621481,435.933901 151.83695,436.116221 C152.05242,436.298541 152.298276,436.389702 152.574519,436.389702 Z M153.469547,435.527823 C153.259602,435.527823 153.088331,435.453238 152.955735,435.304066 C152.823138,435.154895 152.75684,434.909039 152.75684,434.566497 C152.75684,433.925613 152.900486,433.295779 153.187779,432.676994 C153.475072,432.05821 153.845238,431.505724 154.298276,431.019536 C154.662917,430.621746 155.03032,430.320641 155.400486,430.116221 C155.770652,429.911801 156.099381,429.809591 156.386674,429.809591 C156.894961,429.809591 157.149105,430.085834 157.149105,430.63832 C157.149105,430.947713 157.068994,431.315116 156.908773,431.74053 C156.748552,432.165945 156.535845,432.599646 156.270652,433.041635 C156.005459,433.483624 155.709878,433.892464 155.383912,434.268155 C155.057945,434.643845 154.729215,434.947713 154.397724,435.179757 C154.066232,435.411801 153.75684,435.527823 153.469547,435.527823 Z M160.92811,436.373127 C161.270652,436.373127 161.707116,436.157657 162.237503,435.726718 C162.76789,435.295779 163.386674,434.544398 164.093856,433.472575 L164.093856,433.472575 L163.828663,433.306829 C163.364575,434.014011 162.930873,434.563735 162.527558,434.956 C162.124243,435.348265 161.828663,435.544398 161.640818,435.544398 C161.56347,435.544398 161.505459,435.489149 161.466785,435.378652 C161.42811,435.268155 161.452972,435.091359 161.54137,434.848265 L161.54137,434.848265 L165.005459,425.897989 C165.093856,425.676994 165.190541,425.450475 165.295514,425.218431 C165.400486,424.986387 165.513746,424.765392 165.635293,424.555448 L165.635293,424.555448 L165.436398,424.456 C165.060707,424.610696 164.651867,424.74053 164.209878,424.845503 C163.76789,424.950475 163.320376,425.03611 162.867337,425.102409 L162.867337,425.102409 L162.801039,425.284729 L163.464022,425.351028 C163.707116,425.373127 163.864575,425.414564 163.936398,425.475337 C164.008221,425.53611 164.016508,425.643845 163.96126,425.798541 L163.96126,425.798541 L160.281702,435.279204 C160.171204,435.577547 160.182254,435.834453 160.314851,436.049923 C160.447448,436.265392 160.651867,436.373127 160.92811,436.373127 Z M169.53032,426.759867 C169.795514,426.759867 170.022033,426.665945 170.209878,426.478099 C170.397724,426.290254 170.491646,426.074785 170.491646,425.831691 C170.491646,425.566497 170.397724,425.339978 170.209878,425.152133 C170.022033,424.964287 169.795514,424.870365 169.53032,424.870365 C169.287227,424.870365 169.071757,424.964287 168.883912,425.152133 C168.696066,425.339978 168.602144,425.566497 168.602144,425.831691 C168.602144,426.074785 168.696066,426.290254 168.883912,426.478099 C169.071757,426.665945 169.287227,426.759867 169.53032,426.759867 Z M166.298276,436.373127 C166.640818,436.373127 167.077282,436.157657 167.607669,435.726718 C168.138055,435.295779 168.75684,434.544398 169.464022,433.472575 L169.464022,433.472575 L169.198829,433.306829 C168.73474,434.014011 168.301039,434.563735 167.897724,434.956 C167.494409,435.348265 167.198829,435.544398 167.010983,435.544398 C166.933635,435.544398 166.872862,435.489149 166.828663,435.378652 C166.784464,435.268155 166.812088,435.091359 166.911536,434.848265 L166.911536,434.848265 L168.685017,430.389702 C168.861812,429.947713 168.864575,429.616221 168.693304,429.395227 C168.522033,429.174232 168.303801,429.063735 168.038608,429.063735 C167.629768,429.063735 167.196066,429.301304 166.737503,429.776442 C166.278939,430.25158 165.712641,430.975337 165.038608,431.947713 L165.038608,431.947713 L165.303801,432.096884 C165.546895,431.743293 165.806564,431.397989 166.082807,431.060972 C166.35905,430.723956 166.615956,430.44495 166.853525,430.223956 C167.091094,430.002961 167.276177,429.892464 167.408773,429.892464 C167.497171,429.892464 167.560707,429.947713 167.599381,430.05821 C167.638055,430.168707 167.602144,430.362077 167.491646,430.63832 L167.491646,430.63832 L165.651867,435.279204 C165.54137,435.577547 165.55242,435.834453 165.685017,436.049923 C165.817613,436.265392 166.022033,436.373127 166.298276,436.373127 Z M171.55242,436.389702 C171.972309,436.389702 172.406011,436.248818 172.853525,435.96705 C173.301039,435.685282 173.723691,435.323403 174.121481,434.881414 C174.519271,434.439425 174.856287,433.980862 175.13253,433.505724 L175.13253,433.505724 L174.834188,433.323403 C174.447448,434.008486 174.013746,434.541635 173.533083,434.922851 C173.05242,435.304066 172.618718,435.494674 172.231978,435.494674 C171.955735,435.494674 171.737503,435.381414 171.577282,435.154895 C171.417061,434.928376 171.33695,434.500199 171.33695,433.870365 C171.33695,433.27368 171.447448,432.723956 171.668442,432.221193 C171.889436,431.718431 172.168442,431.279204 172.505459,430.903514 C172.842475,430.527823 173.190541,430.237768 173.549657,430.033348 C173.908773,429.828928 174.226453,429.726718 174.502696,429.726718 C174.701591,429.726718 174.828663,429.781967 174.883912,429.892464 C174.93916,430.002961 174.972309,430.124508 174.983359,430.257105 C175.005459,430.400751 175.046895,430.527823 175.107669,430.63832 C175.168442,430.748818 175.320376,430.804066 175.56347,430.804066 C175.92811,430.804066 176.110431,430.572022 176.110431,430.107934 C176.110431,429.820641 176.005459,429.574785 175.795514,429.370365 C175.585569,429.165945 175.270652,429.063735 174.850762,429.063735 C174.53032,429.063735 174.162917,429.16042 173.748552,429.35379 C173.334188,429.54716 172.933635,429.820641 172.546895,430.174232 C172.171204,430.516773 171.803801,430.925613 171.444685,431.400751 C171.085569,431.87589 170.789989,432.400751 170.557945,432.975337 C170.325901,433.549923 170.209878,434.163182 170.209878,434.815116 C170.209878,435.323403 170.339713,435.712906 170.599381,435.983624 C170.85905,436.254343 171.176729,436.389702 171.55242,436.389702 Z M188.027558,436.257105 L188.14358,435.958762 L187.480597,435.826166 C187.060707,435.737768 186.770652,435.663182 186.610431,435.602409 C186.45021,435.541635 186.381149,435.436663 186.403249,435.287492 C186.425348,435.13832 186.497171,434.903514 186.618718,434.583072 L186.618718,434.583072 L190.53032,424.903514 L187.066232,425.500199 L186.95021,425.781967 L188.35905,425.732243 C188.535845,425.721193 188.640818,425.746055 188.673967,425.806829 C188.707116,425.867602 188.696066,425.969812 188.640818,426.113459 L188.640818,426.113459 L185.209878,434.583072 C185.110431,434.826166 185.024796,435.016773 184.952972,435.154895 C184.881149,435.293017 184.789989,435.400751 184.679492,435.478099 C184.568994,435.555448 184.411536,435.616221 184.207116,435.66042 C184.002696,435.704619 183.718166,435.759867 183.353525,435.826166 L183.353525,435.826166 L182.591094,435.958762 L182.475072,436.257105 L188.027558,436.257105 Z M195.883912,436.257105 L197.491646,433.439425 L197.193304,433.439425 L196.778939,434.002961 C196.580044,434.268155 196.417061,434.46705 196.289989,434.599646 C196.162917,434.732243 196.035845,434.820641 195.908773,434.86484 C195.781702,434.909039 195.613193,434.931138 195.403249,434.931138 L195.403249,434.931138 L191.872862,434.931138 L195.436398,432.179757 C196.176729,431.605171 196.853525,431.038873 197.466785,430.480862 C198.080044,429.922851 198.571757,429.356552 198.941923,428.781967 C199.312088,428.207381 199.497171,427.616221 199.497171,427.008486 C199.497171,426.389702 199.270652,425.895227 198.817613,425.525061 C198.364575,425.154895 197.679492,424.969812 196.762365,424.969812 C196.15463,424.969812 195.56347,425.060972 194.988884,425.243293 C194.414298,425.425613 193.93916,425.696331 193.56347,426.055448 C193.187779,426.414564 192.999934,426.86484 192.999934,427.406276 C192.999934,427.67147 193.071757,427.85379 193.215403,427.953238 C193.35905,428.052685 193.519271,428.102409 193.696066,428.102409 C193.917061,428.102409 194.118718,428.038873 194.301039,427.911801 C194.483359,427.784729 194.574519,427.616221 194.574519,427.406276 C194.574519,427.218431 194.53032,427.06926 194.441923,426.958762 C194.353525,426.848265 194.309326,426.699094 194.309326,426.511249 C194.309326,426.323403 194.406011,426.154895 194.599381,426.005724 C194.792751,425.856552 195.044133,425.735006 195.353525,425.641083 C195.662917,425.54716 195.983359,425.500199 196.314851,425.500199 C196.933635,425.500199 197.353525,425.635558 197.574519,425.906276 C197.795514,426.176994 197.906011,426.533348 197.906011,426.975337 C197.906011,427.925613 197.585569,428.845503 196.944685,429.735006 C196.303801,430.624508 195.309326,431.594122 193.96126,432.643845 L193.96126,432.643845 L189.535845,436.05821 L189.452972,436.257105 L195.883912,436.257105 Z M201.104906,436.422851 C201.778939,436.422851 202.43916,436.320641 203.085569,436.116221 C203.731978,435.911801 204.320376,435.616221 204.850762,435.229481 C205.381149,434.84274 205.803801,434.367602 206.118718,433.804066 C206.433635,433.24053 206.591094,432.594122 206.591094,431.86484 C206.591094,431.323403 206.422586,430.839978 206.085569,430.414564 C205.748552,429.989149 205.281702,429.743293 204.685017,429.676994 L204.685017,429.676994 L204.685017,429.66042 C205.016508,429.527823 205.364575,429.373127 205.729215,429.196331 C206.093856,429.019536 206.430873,428.812354 206.740265,428.574785 C207.049657,428.337215 207.301039,428.066497 207.494409,427.76263 C207.687779,427.458762 207.784464,427.118983 207.784464,426.743293 C207.784464,426.257105 207.568994,425.845503 207.138055,425.508486 C206.707116,425.17147 206.093856,425.002961 205.298276,425.002961 C204.76789,425.002961 204.248552,425.085834 203.740265,425.25158 C203.231978,425.417326 202.812088,425.663182 202.480597,425.989149 C202.149105,426.315116 201.983359,426.721193 201.983359,427.207381 C201.983359,427.450475 202.055182,427.627271 202.198829,427.737768 C202.342475,427.848265 202.502696,427.903514 202.679492,427.903514 C202.900486,427.903514 203.102144,427.839978 203.284464,427.712906 C203.466785,427.585834 203.557945,427.417326 203.557945,427.207381 C203.557945,427.019536 203.513746,426.862077 203.425348,426.735006 C203.33695,426.607934 203.292751,426.46705 203.292751,426.312354 C203.292751,426.080309 203.464022,425.881414 203.806564,425.715669 C204.149105,425.549923 204.524796,425.46705 204.933635,425.46705 C205.419823,425.46705 205.76789,425.563735 205.977834,425.757105 C206.187779,425.950475 206.292751,426.223956 206.292751,426.577547 C206.292751,427.030586 206.182254,427.439425 205.96126,427.804066 C205.740265,428.168707 205.455735,428.489149 205.107669,428.765392 C204.759602,429.041635 204.386674,429.284729 203.988884,429.494674 C203.591094,429.704619 203.215403,429.881414 202.861812,430.025061 L202.861812,430.025061 L202.016508,430.373127 L202.13253,430.67147 L203.127006,430.373127 C203.75684,430.395227 204.215403,430.583072 204.502696,430.936663 C204.789989,431.290254 204.933635,431.682519 204.933635,432.113459 C204.933635,432.84274 204.75684,433.491912 204.403249,434.060972 C204.049657,434.630033 203.571757,435.077547 202.969547,435.403514 C202.367337,435.729481 201.696066,435.892464 200.955735,435.892464 C200.602144,435.892464 200.298276,435.828928 200.044133,435.701856 C199.789989,435.574785 199.662917,435.411801 199.662917,435.212906 C199.662917,435.113459 199.707116,435.022298 199.795514,434.939425 C199.883912,434.856552 199.969547,434.757105 200.05242,434.641083 C200.135293,434.525061 200.176729,434.367602 200.176729,434.168707 C200.176729,434.04716 200.124243,433.909039 200.019271,433.754343 C199.914298,433.599646 199.718166,433.522298 199.430873,433.522298 C199.176729,433.522298 198.980597,433.632796 198.842475,433.85379 C198.704354,434.074785 198.635293,434.306829 198.635293,434.549923 C198.635293,435.124508 198.861812,435.580309 199.314851,435.917326 C199.76789,436.254343 200.364575,436.422851 201.104906,436.422851 Z M214.464022,436.257105 L214.580044,435.958762 L213.801039,435.809591 C213.381149,435.721193 213.127006,435.621746 213.038608,435.511249 C212.95021,435.400751 212.977834,435.174232 213.121481,434.831691 L213.121481,434.831691 L213.751315,433.290254 L215.209878,433.290254 L216.585569,430.903514 L216.287227,430.903514 L215.773414,431.616221 C215.629768,431.826166 215.497171,431.964287 215.375624,432.030586 C215.254077,432.096884 215.077282,432.130033 214.845238,432.130033 L214.845238,432.130033 L214.215403,432.130033 L217.13253,424.903514 L217.016508,424.903514 L207.801039,432.991912 L207.685017,433.290254 L212.325901,433.290254 L211.696066,434.831691 C211.607669,435.063735 211.513746,435.24053 211.414298,435.362077 C211.314851,435.483624 211.179492,435.574785 211.008221,435.635558 C210.83695,435.696331 210.585569,435.754343 210.254077,435.809591 L210.254077,435.809591 L209.342475,435.958762 L209.226453,436.257105 L214.464022,436.257105 Z M212.789989,432.130033 L209.342475,432.130033 L214.679492,427.439425 L212.789989,432.130033 Z M218.458497,436.422851 C219.298276,436.422851 220.060707,436.284729 220.74579,436.008486 C221.430873,435.732243 222.022033,435.367602 222.519271,434.914564 C223.016508,434.461525 223.397724,433.958762 223.662917,433.406276 C223.92811,432.85379 224.060707,432.301304 224.060707,431.748818 C224.060707,431.306829 223.95021,430.900751 223.729215,430.530586 C223.508221,430.16042 223.168442,429.86484 222.709878,429.643845 C222.251315,429.422851 221.651867,429.312354 220.911536,429.312354 C220.657392,429.312354 220.381149,429.339978 220.082807,429.395227 L220.082807,429.395227 L221.508221,426.627271 L225.486122,426.627271 L226.629768,424.67147 L226.364575,424.67147 L226.298276,424.754343 C226.15463,424.931138 226.016508,425.066497 225.883912,425.16042 C225.751315,425.254343 225.580044,425.301304 225.370099,425.301304 L225.370099,425.301304 L221.657392,425.301304 L218.988884,430.439425 L219.038608,430.489149 C219.215403,430.46705 219.386674,430.450475 219.55242,430.439425 C219.718166,430.428376 219.878387,430.422851 220.033083,430.422851 C220.850762,430.422851 221.43916,430.574785 221.798276,430.878652 C222.157392,431.182519 222.33695,431.643845 222.33695,432.26263 C222.33695,432.903514 222.168442,433.497436 221.831425,434.044398 C221.494409,434.591359 221.03032,435.030586 220.43916,435.362077 C219.848,435.693569 219.16568,435.859315 218.392199,435.859315 C218.049657,435.859315 217.751315,435.798541 217.497171,435.676994 C217.243028,435.555448 217.115956,435.400751 217.115956,435.212906 C217.115956,435.124508 217.160155,435.038873 217.248552,434.956 C217.33695,434.873127 217.422586,434.770917 217.505459,434.64937 C217.588331,434.527823 217.629768,434.367602 217.629768,434.168707 C217.629768,434.04716 217.577282,433.909039 217.472309,433.754343 C217.367337,433.599646 217.171204,433.522298 216.883912,433.522298 C216.629768,433.522298 216.433635,433.632796 216.295514,433.85379 C216.157392,434.074785 216.088331,434.306829 216.088331,434.549923 C216.088331,435.124508 216.298276,435.580309 216.718166,435.917326 C217.138055,436.254343 217.718166,436.422851 218.458497,436.422851 Z M227.75684,436.406276 C228.508221,436.406276 229.193304,436.257105 229.812088,435.958762 C230.430873,435.66042 230.96126,435.265392 231.403249,434.77368 C231.845238,434.281967 232.185017,433.748818 232.422586,433.174232 C232.660155,432.599646 232.778939,432.041635 232.778939,431.500199 C232.778939,430.914564 232.613193,430.428376 232.281702,430.041635 C231.95021,429.654895 231.425348,429.461525 230.707116,429.461525 C230.309326,429.461525 229.889436,429.522298 229.447448,429.643845 C229.005459,429.765392 228.613193,429.936663 228.270652,430.157657 C228.977834,428.87589 229.83695,427.798541 230.848,426.925613 C231.85905,426.052685 233.082807,425.44495 234.519271,425.102409 L234.519271,425.102409 L234.585569,424.936663 C233.712641,424.936663 232.853525,425.102409 232.008221,425.433901 C231.162917,425.765392 230.356287,426.237768 229.588331,426.851028 C228.820376,427.464287 228.129768,428.188044 227.516508,429.022298 C226.903249,429.856552 226.392199,430.781967 225.983359,431.798541 C225.817613,432.218431 225.673967,432.63832 225.55242,433.05821 C225.430873,433.478099 225.370099,433.881414 225.370099,434.268155 C225.370099,434.87589 225.546895,435.384177 225.900486,435.793017 C226.254077,436.201856 226.872862,436.406276 227.75684,436.406276 Z M227.75684,436.041635 C227.447448,436.041635 227.196066,435.917326 227.002696,435.668707 C226.809326,435.420088 226.712641,435.06926 226.712641,434.616221 C226.712641,434.295779 226.765127,433.933901 226.870099,433.530586 C226.975072,433.127271 227.14358,432.643845 227.375624,432.080309 C227.53032,431.737768 227.76789,431.406276 228.088331,431.085834 C228.408773,430.765392 228.759602,430.502961 229.140818,430.298541 C229.522033,430.094122 229.878387,429.991912 230.209878,429.991912 C230.497171,429.991912 230.759602,430.096884 230.997171,430.306829 C231.23474,430.516773 231.353525,430.859315 231.353525,431.334453 C231.353525,431.820641 231.259602,432.337215 231.071757,432.884177 C230.883912,433.431138 230.624243,433.94495 230.292751,434.425613 C229.96126,434.906276 229.577282,435.295779 229.140818,435.594122 C228.704354,435.892464 228.243028,436.041635 227.75684,436.041635 Z M235.248552,436.257105 L243.171204,426.063735 L243.568994,425.085834 L237.055182,425.085834 L235.712641,427.522298 L235.977834,427.522298 L236.54137,426.826166 C236.773414,426.549923 237.010983,426.411801 237.254077,426.411801 L237.254077,426.411801 L242.209878,426.411801 L233.574519,436.257105 L235.248552,436.257105 Z M244.281702,436.456 C244.878387,436.456 245.464022,436.370365 246.038608,436.199094 C246.613193,436.027823 247.129768,435.779204 247.588331,435.453238 C248.046895,435.127271 248.414298,434.732243 248.690541,434.268155 C248.966785,433.804066 249.104906,433.27368 249.104906,432.676994 C249.104906,432.268155 249.022033,431.911801 248.856287,431.607934 C248.690541,431.304066 248.480597,431.033348 248.226453,430.795779 C247.972309,430.55821 247.718166,430.328928 247.464022,430.107934 C247.861812,429.986387 248.270652,429.828928 248.690541,429.635558 C249.110431,429.442188 249.499934,429.210144 249.85905,428.939425 C250.218166,428.668707 250.510983,428.35379 250.737503,427.994674 C250.964022,427.635558 251.077282,427.229481 251.077282,426.776442 C251.077282,426.212906 250.867337,425.770917 250.447448,425.450475 C250.027558,425.130033 249.508221,424.969812 248.889436,424.969812 C248.314851,424.969812 247.765127,425.055448 247.240265,425.226718 C246.715403,425.397989 246.24579,425.641083 245.831425,425.956 C245.417061,426.270917 245.088331,426.643845 244.845238,427.074785 C244.602144,427.505724 244.480597,427.975337 244.480597,428.483624 C244.480597,428.859315 244.588331,429.201856 244.803801,429.511249 C245.019271,429.820641 245.270652,430.102409 245.557945,430.356552 C245.104906,430.500199 244.640818,430.693569 244.16568,430.936663 C243.690541,431.179757 243.248552,431.464287 242.839713,431.790254 C242.430873,432.116221 242.102144,432.483624 241.853525,432.892464 C241.604906,433.301304 241.480597,433.743293 241.480597,434.218431 C241.480597,434.715669 241.610431,435.130033 241.870099,435.461525 C242.129768,435.793017 242.472309,436.041635 242.897724,436.207381 C243.323138,436.373127 243.784464,436.456 244.281702,436.456 Z M247.066232,429.793017 C246.73474,429.516773 246.45021,429.243293 246.212641,428.972575 C245.975072,428.701856 245.856287,428.345503 245.856287,427.903514 C245.856287,427.461525 245.986122,427.055448 246.24579,426.685282 C246.505459,426.315116 246.831425,426.019536 247.223691,425.798541 C247.615956,425.577547 248.016508,425.46705 248.425348,425.46705 C248.812088,425.46705 249.124243,425.572022 249.361812,425.781967 C249.599381,425.991912 249.718166,426.284729 249.718166,426.66042 C249.718166,427.135558 249.577282,427.574785 249.295514,427.978099 C249.013746,428.381414 248.668442,428.737768 248.259602,429.04716 C247.850762,429.356552 247.452972,429.605171 247.066232,429.793017 Z M244.629768,435.892464 C244.14358,435.892464 243.748552,435.75158 243.444685,435.469812 C243.140818,435.188044 242.988884,434.776442 242.988884,434.235006 C242.988884,433.63832 243.13253,433.113459 243.419823,432.66042 C243.707116,432.207381 244.077282,431.817878 244.53032,431.491912 C244.983359,431.165945 245.458497,430.903514 245.955735,430.704619 C245.999934,430.737768 246.04137,430.770917 246.080044,430.804066 C246.118718,430.837215 246.160155,430.870365 246.204354,430.903514 C246.568994,431.190807 246.886674,431.491912 247.157392,431.806829 C247.42811,432.121746 247.56347,432.505724 247.56347,432.958762 C247.56347,433.555448 247.411536,434.074785 247.107669,434.516773 C246.803801,434.958762 246.425348,435.298541 245.972309,435.53611 C245.519271,435.77368 245.071757,435.892464 244.629768,435.892464 Z M250.513746,436.406276 C251.386674,436.406276 252.24579,436.24053 253.091094,435.909039 C253.936398,435.577547 254.743028,435.105171 255.510983,434.491912 C256.278939,433.878652 256.969547,433.152133 257.582807,432.312354 C258.196066,431.472575 258.707116,430.549923 259.115956,429.544398 C259.281702,429.124508 259.425348,428.701856 259.546895,428.276442 C259.668442,427.851028 259.729215,427.450475 259.729215,427.074785 C259.729215,426.46705 259.55242,425.958762 259.198829,425.549923 C258.845238,425.141083 258.226453,424.936663 257.342475,424.936663 C256.591094,424.936663 255.906011,425.085834 255.287227,425.384177 C254.668442,425.682519 254.138055,426.077547 253.696066,426.56926 C253.254077,427.060972 252.914298,427.591359 252.676729,428.16042 C252.43916,428.729481 252.320376,429.290254 252.320376,429.84274 C252.320376,430.428376 252.486122,430.914564 252.817613,431.301304 C253.149105,431.688044 253.673967,431.881414 254.392199,431.881414 C254.789989,431.881414 255.209878,431.820641 255.651867,431.699094 C256.093856,431.577547 256.486122,431.406276 256.828663,431.185282 C256.121481,432.46705 255.262365,433.544398 254.251315,434.417326 C253.240265,435.290254 252.016508,435.897989 250.580044,436.24053 L250.580044,436.24053 L250.513746,436.406276 Z M254.889436,431.351028 C254.602144,431.351028 254.339713,431.246055 254.102144,431.03611 C253.864575,430.826166 253.74579,430.483624 253.74579,430.008486 C253.74579,429.522298 253.839713,429.005724 254.027558,428.458762 C254.215403,427.911801 254.475072,427.397989 254.806564,426.917326 C255.138055,426.436663 255.522033,426.04716 255.958497,425.748818 C256.394961,425.450475 256.856287,425.301304 257.342475,425.301304 C257.651867,425.301304 257.903249,425.425613 258.096619,425.674232 C258.289989,425.922851 258.386674,426.27368 258.386674,426.726718 C258.386674,427.04716 258.334188,427.409039 258.229215,427.812354 C258.124243,428.215669 257.955735,428.699094 257.723691,429.26263 C257.568994,429.605171 257.331425,429.936663 257.010983,430.257105 C256.690541,430.577547 256.339713,430.839978 255.958497,431.044398 C255.577282,431.248818 255.220928,431.351028 254.889436,431.351028 Z M262.513746,436.389702 C263.497171,436.389702 264.328663,436.154895 265.008221,435.685282 C265.687779,435.215669 266.278939,434.54716 266.781702,433.679757 C267.284464,432.812354 267.751315,431.781967 268.182254,430.588597 C268.314851,430.201856 268.433635,429.76263 268.538608,429.270917 C268.64358,428.779204 268.696066,428.284729 268.696066,427.787492 C268.696066,427.290254 268.624243,426.823403 268.480597,426.386939 C268.33695,425.950475 268.085569,425.599646 267.726453,425.334453 C267.367337,425.06926 266.872862,424.936663 266.243028,424.936663 C264.93916,424.936663 263.83695,425.384177 262.936398,426.279204 C262.035845,427.174232 261.231978,428.610696 260.524796,430.588597 C260.381149,430.975337 260.259602,431.422851 260.160155,431.931138 C260.060707,432.439425 260.010983,432.942188 260.010983,433.439425 C260.010983,433.947713 260.088331,434.428376 260.243028,434.881414 C260.397724,435.334453 260.657392,435.699094 261.022033,435.975337 C261.386674,436.25158 261.883912,436.389702 262.513746,436.389702 Z M262.546895,436.008486 C262.049657,436.008486 261.696066,435.86484 261.486122,435.577547 C261.276177,435.290254 261.171204,434.909039 261.171204,434.433901 C261.171204,433.936663 261.254077,433.356552 261.419823,432.693569 C261.585569,432.030586 261.795514,431.328928 262.049657,430.588597 C262.370099,429.616221 262.715403,428.735006 263.085569,427.94495 C263.455735,427.154895 263.886674,426.522298 264.378387,426.04716 C264.870099,425.572022 265.447448,425.334453 266.110431,425.334453 C266.618718,425.334453 266.975072,425.475337 267.179492,425.757105 C267.383912,426.038873 267.486122,426.422851 267.486122,426.909039 C267.486122,427.384177 267.408773,427.936663 267.254077,428.566497 C267.099381,429.196331 266.900486,429.870365 266.657392,430.588597 C266.414298,431.317878 266.157392,432.008486 265.886674,432.66042 C265.615956,433.312354 265.317613,433.889702 264.991646,434.392464 C264.66568,434.895227 264.303801,435.290254 263.906011,435.577547 C263.508221,435.86484 263.055182,436.008486 262.546895,436.008486 Z" id="ibarrarealnovaitalic1234567890"></path>
            </g>
        </g>
    </g>
</svg>