<?xml version="1.0" encoding="UTF-8"?>
<svg width="172px" height="13px" viewBox="0 0 172 13" version="1.1" xmlns="http://www.w3.org/2000/svg" xmlns:xlink="http://www.w3.org/1999/xlink">
    <title>notoserifregular1234567890</title>
    <g id="页面-1" stroke="none" stroke-width="1" fill="none" fill-rule="evenodd">
        <g id="弃-增加英文字体分类" transform="translate(-749.000000, -132.000000)" fill="#FFFFFF" fill-rule="nonzero">
            <g id="编组-4" transform="translate(720.000000, 10.000000)">
                <path d="M32.5320396,131.908515 L32.5320396,131.409505 L32.4726337,131.409505 C32.2112475,131.409505 31.9874851,131.36396 31.8013465,131.272871 C31.6152079,131.181782 31.5221386,130.96198 31.5221386,130.613465 L31.5221386,130.613465 L31.5221386,128.106535 C31.5221386,127.765941 31.5676832,127.449109 31.6587723,127.15604 C31.7498614,126.86297 31.9003564,126.627327 32.1102574,126.449109 C32.3201584,126.270891 32.6033267,126.181782 32.9597624,126.181782 C33.4429307,126.181782 33.7815446,126.324356 33.975604,126.609505 C34.1696634,126.894653 34.2666931,127.294653 34.2666931,127.809505 L34.2666931,127.809505 L34.2666931,131.908515 L36.3340198,131.908515 L36.3340198,131.409505 L36.2746139,131.409505 C36.0053069,131.409505 35.7894653,131.36 35.6270891,131.26099 C35.4647129,131.16198 35.3835248,130.926337 35.3835248,130.554059 L35.3835248,130.554059 L35.3835248,127.750099 C35.3835248,126.934257 35.2072871,126.342178 34.8548119,125.973861 C34.5023366,125.605545 34.0132277,125.421386 33.3874851,125.421386 C33.0072871,125.421386 32.6647129,125.490693 32.3597624,125.629307 C32.0548119,125.767921 31.7795644,126.05901 31.5340198,126.502574 L31.5340198,126.502574 L31.4746139,126.502574 L31.3201584,125.540198 L29.3954059,125.540198 L29.3954059,126.039208 L29.4548119,126.039208 C29.716198,126.039208 29.9399604,126.086733 30.126099,126.181782 C30.3122376,126.276832 30.4053069,126.498614 30.4053069,126.847129 L30.4053069,126.847129 L30.4053069,130.554059 C30.4053069,130.926337 30.3102574,131.16198 30.1201584,131.26099 C29.9300594,131.36 29.7003564,131.409505 29.4310495,131.409505 L29.4310495,131.409505 L29.336,131.409505 L29.336,131.908515 L32.5320396,131.908515 Z M40.0765941,132.027327 C40.9954059,132.027327 41.6904554,131.754059 42.1617426,131.207525 C42.6330297,130.66099 42.8686733,129.829307 42.8686733,128.712475 C42.8686733,127.603564 42.6231287,126.777822 42.1320396,126.235248 C41.6409505,125.692673 40.9676832,125.421386 40.1122376,125.421386 C39.1934257,125.421386 38.4983762,125.692673 38.0270891,126.235248 C37.555802,126.777822 37.3201584,127.603564 37.3201584,128.712475 C37.3201584,129.829307 37.565703,130.66099 38.0567921,131.207525 C38.5478812,131.754059 39.2211485,132.027327 40.0765941,132.027327 Z M40.1003564,131.409505 C39.506297,131.409505 39.086495,131.181782 38.8409505,130.726337 C38.5954059,130.270891 38.4726337,129.599604 38.4726337,128.712475 C38.4726337,127.825347 38.5934257,127.16 38.8350099,126.716436 C39.0765941,126.272871 39.4944158,126.051089 40.0884752,126.051089 C40.6825347,126.051089 41.1023366,126.272871 41.3478812,126.716436 C41.5934257,127.16 41.716198,127.825347 41.716198,128.712475 C41.716198,129.599604 41.5954059,130.270891 41.3538218,130.726337 C41.1122376,131.181782 40.6944158,131.409505 40.1003564,131.409505 Z M46.3736238,132.027327 C46.5637228,132.027327 46.7617426,132.007525 46.9676832,131.967921 C47.1736238,131.928317 47.3280792,131.884752 47.4310495,131.837228 L47.4310495,131.837228 L47.4310495,131.314455 C47.3043168,131.338218 47.1815446,131.35802 47.0627327,131.373861 C46.9439208,131.389703 46.8132277,131.397624 46.6706535,131.397624 C46.4013465,131.397624 46.1835248,131.302574 46.0171881,131.112475 C45.8508515,130.922376 45.7676832,130.625347 45.7676832,130.221386 L45.7676832,130.221386 L45.7676832,126.217426 L47.3241188,126.217426 L47.3241188,125.540198 L45.7676832,125.540198 L45.7676832,124.078812 L45.2211485,124.078812 C45.165703,124.379802 45.0944158,124.633267 45.0072871,124.839208 C44.9201584,125.045149 44.8092673,125.219406 44.6746139,125.36198 C44.5478812,125.496634 44.3973861,125.593663 44.2231287,125.653069 C44.0488713,125.712475 43.8904554,125.742178 43.7478812,125.742178 L43.7478812,125.742178 L43.7478812,126.217426 L44.6508515,126.217426 L44.6508515,130.185743 C44.6508515,130.866931 44.7874851,131.344158 45.0607525,131.617426 C45.3340198,131.890693 45.7716436,132.027327 46.3736238,132.027327 Z M51.1142178,132.027327 C52.0330297,132.027327 52.7280792,131.754059 53.1993663,131.207525 C53.6706535,130.66099 53.906297,129.829307 53.906297,128.712475 C53.906297,127.603564 53.6607525,126.777822 53.1696634,126.235248 C52.6785743,125.692673 52.0053069,125.421386 51.1498614,125.421386 C50.2310495,125.421386 49.536,125.692673 49.0647129,126.235248 C48.5934257,126.777822 48.3577822,127.603564 48.3577822,128.712475 C48.3577822,129.829307 48.6033267,130.66099 49.0944158,131.207525 C49.585505,131.754059 50.2587723,132.027327 51.1142178,132.027327 Z M51.1379802,131.409505 C50.5439208,131.409505 50.1241188,131.181782 49.8785743,130.726337 C49.6330297,130.270891 49.5102574,129.599604 49.5102574,128.712475 C49.5102574,127.825347 49.6310495,127.16 49.8726337,126.716436 C50.1142178,126.272871 50.5320396,126.051089 51.126099,126.051089 C51.7201584,126.051089 52.1399604,126.272871 52.385505,126.716436 C52.6310495,127.16 52.7538218,127.825347 52.7538218,128.712475 C52.7538218,129.599604 52.6330297,130.270891 52.3914455,130.726337 C52.1498614,131.181782 51.7320396,131.409505 51.1379802,131.409505 Z M60.1439208,132.027327 C60.8488713,132.027327 61.4152079,131.870891 61.8429307,131.55802 C62.2706535,131.245149 62.4845149,130.779802 62.4845149,130.16198 C62.4845149,129.829307 62.4231287,129.548119 62.3003564,129.318416 C62.1775842,129.088713 61.985505,128.886733 61.7241188,128.712475 C61.4627327,128.538218 61.1221386,128.36396 60.7023366,128.189703 C60.1716436,127.975842 59.7934257,127.787723 59.5676832,127.625347 C59.3419406,127.46297 59.2290693,127.231287 59.2290693,126.930297 C59.2290693,126.653069 59.316198,126.425347 59.4904554,126.247129 C59.6647129,126.068911 59.9538218,125.979802 60.3577822,125.979802 C60.706297,125.979802 60.9637228,126.090693 61.1300594,126.312475 C61.296396,126.534257 61.3795644,126.843168 61.3795644,127.239208 C61.6567921,127.239208 61.8686733,127.173861 62.0152079,127.043168 C62.1617426,126.912475 62.2350099,126.740198 62.2350099,126.526337 C62.2350099,126.225347 62.0884752,125.967921 61.7954059,125.754059 C61.5023366,125.540198 61.0706535,125.433267 60.5003564,125.433267 C59.8270891,125.433267 59.286495,125.577822 58.8785743,125.866931 C58.4706535,126.15604 58.2666931,126.569901 58.2666931,127.108515 C58.2666931,127.449109 58.3320396,127.732277 58.4627327,127.95802 C58.5934257,128.183762 58.7914455,128.381782 59.0567921,128.552079 C59.3221386,128.722376 59.6567921,128.898614 60.0607525,129.080792 C60.4488713,129.247129 60.7478812,129.391683 60.9577822,129.514455 C61.1676832,129.637228 61.3142178,129.76198 61.3973861,129.888713 C61.4805545,130.015446 61.5221386,130.177822 61.5221386,130.375842 C61.5221386,130.692673 61.4092673,130.952079 61.1835248,131.154059 C60.9577822,131.35604 60.6350099,131.45703 60.2152079,131.45703 C59.7320396,131.45703 59.3973861,131.308515 59.2112475,131.011485 C59.0251089,130.714455 58.9320396,130.36 58.9320396,129.948119 C58.8369901,129.948119 58.7320396,129.971881 58.6171881,130.019406 C58.5023366,130.066931 58.4013465,130.150099 58.3142178,130.268911 C58.2270891,130.387723 58.1835248,130.554059 58.1835248,130.767921 C58.1835248,131.179802 58.3617426,131.492673 58.7181782,131.706535 C59.0746139,131.920396 59.5498614,132.027327 60.1439208,132.027327 Z M66.4171881,132.027327 C66.8924356,132.027327 67.2845149,131.96198 67.5934257,131.831287 C67.9023366,131.700594 68.1320396,131.544158 68.2825347,131.36198 C68.4330297,131.179802 68.5082772,131.009505 68.5082772,130.851089 C68.5082772,130.748119 68.4845149,130.66099 68.4369901,130.589703 C68.3894653,130.518416 68.3379802,130.470891 68.2825347,130.447129 C68.1399604,130.66099 67.9241188,130.853069 67.6350099,131.023366 C67.345901,131.193663 66.9954059,131.278812 66.5835248,131.278812 C66.0132277,131.278812 65.5795644,131.082772 65.2825347,130.690693 C64.985505,130.298614 64.8290693,129.670891 64.8132277,128.807525 L64.8132277,128.807525 L68.7696634,128.807525 L68.7696634,128.26099 C68.7696634,127.318416 68.5498614,126.609505 68.1102574,126.134257 C67.6706535,125.65901 67.0666931,125.421386 66.2983762,125.421386 C65.4587723,125.421386 64.8092673,125.702574 64.3498614,126.26495 C63.8904554,126.827327 63.6607525,127.66297 63.6607525,128.771881 C63.6607525,129.801584 63.9043168,130.601584 64.3914455,131.171881 C64.8785743,131.742178 65.5538218,132.027327 66.4171881,132.027327 Z M67.5696634,128.165941 L64.8369901,128.165941 C64.8765941,127.484752 65.0171881,126.96396 65.2587723,126.603564 C65.5003564,126.243168 65.8389703,126.06297 66.2746139,126.06297 C66.7498614,126.06297 67.0845149,126.25505 67.2785743,126.639208 C67.4726337,127.023366 67.5696634,127.532277 67.5696634,128.165941 L67.5696634,128.165941 Z M73.1894653,131.908515 L73.1894653,131.409505 L72.8567921,131.409505 C72.5954059,131.409505 72.3676832,131.36396 72.1736238,131.272871 C71.9795644,131.181782 71.8825347,130.96198 71.8825347,130.613465 L71.8825347,130.613465 L71.8825347,128.748119 C71.8825347,128.518416 71.9023366,128.25901 71.9419406,127.969901 C71.9815446,127.680792 72.0449109,127.401584 72.1320396,127.132277 C72.2191683,126.86297 72.3379802,126.641188 72.4884752,126.466931 C72.6389703,126.292673 72.8251089,126.205545 73.0468911,126.205545 C73.2765941,126.205545 73.4389703,126.278812 73.5340198,126.425347 C73.6290693,126.571881 73.6765941,126.807525 73.6765941,127.132277 C74.0726337,127.132277 74.355802,127.053069 74.526099,126.894653 C74.696396,126.736238 74.7815446,126.534257 74.7815446,126.288713 C74.7815446,126.011485 74.6765941,125.797624 74.4666931,125.647129 C74.2567921,125.496634 73.9340198,125.421386 73.4983762,125.421386 C73.1498614,125.421386 72.8765941,125.478812 72.6785743,125.593663 C72.4805545,125.708515 72.3221386,125.86495 72.2033267,126.06297 C72.0845149,126.26099 71.9736238,126.478812 71.8706535,126.716436 L71.8706535,126.716436 L71.8112475,126.716436 L71.585505,125.540198 L69.755802,125.540198 L69.755802,126.039208 L69.7914455,126.039208 C70.0528317,126.039208 70.2805545,126.086733 70.4746139,126.181782 C70.6686733,126.276832 70.765703,126.498614 70.765703,126.847129 L70.765703,126.847129 L70.765703,130.554059 C70.765703,130.926337 70.6706535,131.16198 70.4805545,131.26099 C70.2904554,131.36 70.0607525,131.409505 69.7914455,131.409505 L69.7914455,131.409505 L69.755802,131.409505 L69.755802,131.908515 L73.1894653,131.908515 Z M76.8726337,124.352079 C77.0548119,124.352079 77.2132277,124.296634 77.3478812,124.185743 C77.4825347,124.074851 77.5498614,123.884752 77.5498614,123.615446 C77.5498614,123.338218 77.4825347,123.146139 77.3478812,123.039208 C77.2132277,122.932277 77.0548119,122.878812 76.8726337,122.878812 C76.6825347,122.878812 76.5221386,122.932277 76.3914455,123.039208 C76.2607525,123.146139 76.1954059,123.338218 76.1954059,123.615446 C76.1954059,123.884752 76.2607525,124.074851 76.3914455,124.185743 C76.5221386,124.296634 76.6825347,124.352079 76.8726337,124.352079 Z M78.6072871,131.908515 L78.6072871,131.409505 L78.4528317,131.409505 C78.1835248,131.409505 77.9538218,131.36 77.7637228,131.26099 C77.5736238,131.16198 77.4785743,130.926337 77.4785743,130.554059 L77.4785743,130.554059 L77.4785743,125.540198 L75.3518416,125.540198 L75.3518416,126.039208 L75.3874851,126.039208 C75.6488713,126.039208 75.8765941,126.086733 76.0706535,126.181782 C76.2647129,126.276832 76.3617426,126.498614 76.3617426,126.847129 L76.3617426,126.847129 L76.3617426,130.613465 C76.3617426,130.96198 76.2647129,131.181782 76.0706535,131.272871 C75.8765941,131.36396 75.6488713,131.409505 75.3874851,131.409505 L75.3874851,131.409505 L75.2330297,131.409505 L75.2330297,131.908515 L78.6072871,131.908515 Z M82.7538218,131.908515 L82.7538218,131.409505 L82.3023366,131.409505 C82.0330297,131.409505 81.8033267,131.36 81.6132277,131.26099 C81.4231287,131.16198 81.3280792,130.926337 81.3280792,130.554059 L81.3280792,130.554059 L81.3280792,126.098614 L83.0033267,126.098614 L83.0033267,125.540198 L81.3280792,125.540198 L81.3280792,124.839208 C81.3280792,124.340198 81.3914455,123.96 81.5181782,123.698614 C81.6449109,123.437228 81.8785743,123.306535 82.2191683,123.306535 C82.5201584,123.306535 82.726099,123.405545 82.8369901,123.603564 C82.9478812,123.801584 83.0033267,124.019406 83.0033267,124.25703 C83.2884752,124.25703 83.5221386,124.199604 83.7043168,124.084752 C83.886495,123.969901 83.9775842,123.805545 83.9775842,123.591683 C83.9775842,123.346139 83.8548119,123.146139 83.6092673,122.991683 C83.3637228,122.837228 82.9320396,122.76 82.3142178,122.76 C81.6647129,122.76 81.1518416,122.948119 80.775604,123.324356 C80.3993663,123.700594 80.2112475,124.241188 80.2112475,124.946139 L80.2112475,124.946139 L80.2112475,125.540198 L79.1300594,125.540198 L79.1300594,126.098614 L80.2112475,126.098614 L80.2112475,130.554059 C80.2112475,130.926337 80.116198,131.16198 79.926099,131.26099 C79.736,131.36 79.506297,131.409505 79.2369901,131.409505 L79.2369901,131.409505 L79.0825347,131.409505 L79.0825347,131.908515 L82.7538218,131.908515 Z M90.0607525,131.908515 L90.0607525,131.409505 L89.7280792,131.409505 C89.4666931,131.409505 89.2389703,131.36396 89.0449109,131.272871 C88.8508515,131.181782 88.7538218,130.96198 88.7538218,130.613465 L88.7538218,130.613465 L88.7538218,128.748119 C88.7538218,128.518416 88.7736238,128.25901 88.8132277,127.969901 C88.8528317,127.680792 88.916198,127.401584 89.0033267,127.132277 C89.0904554,126.86297 89.2092673,126.641188 89.3597624,126.466931 C89.5102574,126.292673 89.696396,126.205545 89.9181782,126.205545 C90.1478812,126.205545 90.3102574,126.278812 90.4053069,126.425347 C90.5003564,126.571881 90.5478812,126.807525 90.5478812,127.132277 C90.9439208,127.132277 91.2270891,127.053069 91.3973861,126.894653 C91.5676832,126.736238 91.6528317,126.534257 91.6528317,126.288713 C91.6528317,126.011485 91.5478812,125.797624 91.3379802,125.647129 C91.1280792,125.496634 90.8053069,125.421386 90.3696634,125.421386 C90.0211485,125.421386 89.7478812,125.478812 89.5498614,125.593663 C89.3518416,125.708515 89.1934257,125.86495 89.0746139,126.06297 C88.955802,126.26099 88.8449109,126.478812 88.7419406,126.716436 L88.7419406,126.716436 L88.6825347,126.716436 L88.4567921,125.540198 L86.6270891,125.540198 L86.6270891,126.039208 L86.6627327,126.039208 C86.9241188,126.039208 87.1518416,126.086733 87.345901,126.181782 C87.5399604,126.276832 87.6369901,126.498614 87.6369901,126.847129 L87.6369901,126.847129 L87.6369901,130.554059 C87.6369901,130.926337 87.5419406,131.16198 87.3518416,131.26099 C87.1617426,131.36 86.9320396,131.409505 86.6627327,131.409505 L86.6627327,131.409505 L86.6270891,131.409505 L86.6270891,131.908515 L90.0607525,131.908515 Z M95.2409505,132.027327 C95.716198,132.027327 96.1082772,131.96198 96.4171881,131.831287 C96.726099,131.700594 96.955802,131.544158 97.106297,131.36198 C97.2567921,131.179802 97.3320396,131.009505 97.3320396,130.851089 C97.3320396,130.748119 97.3082772,130.66099 97.2607525,130.589703 C97.2132277,130.518416 97.1617426,130.470891 97.106297,130.447129 C96.9637228,130.66099 96.7478812,130.853069 96.4587723,131.023366 C96.1696634,131.193663 95.8191683,131.278812 95.4072871,131.278812 C94.8369901,131.278812 94.4033267,131.082772 94.106297,130.690693 C93.8092673,130.298614 93.6528317,129.670891 93.6369901,128.807525 L93.6369901,128.807525 L97.5934257,128.807525 L97.5934257,128.26099 C97.5934257,127.318416 97.3736238,126.609505 96.9340198,126.134257 C96.4944158,125.65901 95.8904554,125.421386 95.1221386,125.421386 C94.2825347,125.421386 93.6330297,125.702574 93.1736238,126.26495 C92.7142178,126.827327 92.4845149,127.66297 92.4845149,128.771881 C92.4845149,129.801584 92.7280792,130.601584 93.2152079,131.171881 C93.7023366,131.742178 94.3775842,132.027327 95.2409505,132.027327 Z M96.3934257,128.165941 L93.6607525,128.165941 C93.7003564,127.484752 93.8409505,126.96396 94.0825347,126.603564 C94.3241188,126.243168 94.6627327,126.06297 95.0983762,126.06297 C95.5736238,126.06297 95.9082772,126.25505 96.1023366,126.639208 C96.296396,127.023366 96.3934257,127.532277 96.3934257,128.165941 L96.3934257,128.165941 Z M100.93204,134.76 C102.009267,134.76 102.803327,134.56 103.314218,134.16 C103.825109,133.76 104.080554,133.219406 104.080554,132.538218 C104.080554,132.023366 103.930059,131.599604 103.629069,131.266931 C103.328079,130.934257 102.825109,130.767921 102.120158,130.767921 L102.120158,130.767921 L100.777584,130.767921 C100.468673,130.767921 100.268673,130.728317 100.177584,130.649109 C100.086495,130.569901 100.04095,130.45901 100.04095,130.316436 C100.04095,130.134257 100.096396,129.983762 100.207287,129.86495 C100.318178,129.746139 100.448871,129.647129 100.599366,129.567921 C100.678574,129.583762 100.779564,129.597624 100.902337,129.609505 C101.025109,129.621386 101.13402,129.627327 101.229069,129.627327 C101.949861,129.627327 102.486495,129.433267 102.83897,129.045149 C103.191446,128.65703 103.367683,128.169901 103.367683,127.583762 C103.367683,127.243168 103.324119,126.96 103.23699,126.734257 C103.149861,126.508515 103.03897,126.312475 102.904317,126.146139 C103.062733,126.051089 103.23303,126.003564 103.415208,126.003564 C103.573624,126.003564 103.678574,126.049109 103.730059,126.140198 C103.781545,126.231287 103.807287,126.320396 103.807287,126.407525 C104.029069,126.407525 104.189465,126.346139 104.288475,126.223366 C104.387485,126.100594 104.43699,125.95604 104.43699,125.789703 C104.43699,125.623366 104.379564,125.478812 104.264713,125.35604 C104.149861,125.233267 103.973624,125.171881 103.736,125.171881 C103.474614,125.171881 103.244911,125.247129 103.046891,125.397624 C102.848871,125.548119 102.694416,125.686733 102.583525,125.813465 C102.472634,125.710495 102.290455,125.619406 102.03699,125.540198 C101.783525,125.46099 101.514218,125.421386 101.229069,125.421386 C100.484515,125.421386 99.926099,125.617426 99.5538218,126.009505 C99.1815446,126.401584 98.9954059,126.938218 98.9954059,127.619406 C98.9954059,128.015446 99.0884752,128.377822 99.2746139,128.706535 C99.4607525,129.035248 99.7241188,129.270891 100.064713,129.413465 C99.7954059,129.571881 99.5993663,129.738218 99.4765941,129.912475 C99.3538218,130.086733 99.2924356,130.292673 99.2924356,130.530297 C99.2924356,130.783762 99.3617426,130.991683 99.5003564,131.154059 C99.6389703,131.316436 99.7874851,131.433267 99.945901,131.504554 C99.5577822,131.575842 99.2132277,131.730297 98.9122376,131.967921 C98.6112475,132.205545 98.4607525,132.55802 98.4607525,133.025347 C98.4607525,133.571881 98.6666931,133.997624 99.0785743,134.302574 C99.4904554,134.607525 100.108277,134.76 100.93204,134.76 Z M101.193426,129.05703 C100.813228,129.05703 100.53798,128.938218 100.367683,128.700594 C100.197386,128.46297 100.112238,128.090693 100.112238,127.583762 C100.112238,127.053069 100.195406,126.65703 100.361743,126.395644 C100.528079,126.134257 100.801347,126.003564 101.181545,126.003564 C101.569663,126.003564 101.844911,126.130297 102.007287,126.383762 C102.169663,126.637228 102.250851,127.033267 102.250851,127.571881 C102.250851,128.086733 102.171644,128.46297 102.013228,128.700594 C101.854812,128.938218 101.581545,129.05703 101.193426,129.05703 Z M100.955802,134.177822 C100.551842,134.177822 100.23897,134.124356 100.017188,134.017426 C99.7954059,133.910495 99.6409505,133.76396 99.5538218,133.577822 C99.4666931,133.391683 99.4231287,133.183762 99.4231287,132.954059 C99.4231287,132.637228 99.486495,132.399604 99.6132277,132.241188 C99.7399604,132.082772 99.9023366,131.973861 100.100356,131.914455 C100.298376,131.85505 100.508277,131.825347 100.730059,131.825347 L100.730059,131.825347 L101.894416,131.825347 C102.290455,131.825347 102.591446,131.886733 102.797386,132.009505 C103.003327,132.132277 103.106297,132.375842 103.106297,132.740198 C103.106297,133.017426 103.044911,133.26495 102.922139,133.482772 C102.799366,133.700594 102.583525,133.870891 102.274614,133.993663 C101.965703,134.116436 101.526099,134.177822 100.955802,134.177822 Z M107.823129,132.027327 C108.211248,132.027327 108.567683,131.95802 108.892436,131.819406 C109.217188,131.680792 109.502337,131.389703 109.747881,130.946139 L109.747881,130.946139 L109.807287,130.946139 L109.961743,131.908515 L111.850851,131.908515 L111.850851,131.409505 L111.815208,131.409505 C111.553822,131.409505 111.326099,131.36396 111.13204,131.272871 C110.93798,131.181782 110.84095,130.96198 110.84095,130.613465 L110.84095,130.613465 L110.84095,125.540198 L108.714218,125.540198 L108.714218,126.039208 L108.749861,126.039208 C109.019168,126.039208 109.248871,126.088713 109.43897,126.187723 C109.629069,126.286733 109.724119,126.522376 109.724119,126.894653 L109.724119,126.894653 L109.724119,129.342178 C109.724119,129.920396 109.605307,130.385743 109.367683,130.738218 C109.130059,131.090693 108.749861,131.266931 108.227089,131.266931 C107.743921,131.266931 107.415208,131.124356 107.24095,130.839208 C107.066693,130.554059 106.979564,130.154059 106.979564,129.639208 L106.979564,129.639208 L106.979564,125.540198 L104.852832,125.540198 L104.852832,126.039208 L104.888475,126.039208 C105.149861,126.039208 105.377584,126.086733 105.571644,126.181782 C105.765703,126.276832 105.862733,126.498614 105.862733,126.847129 L105.862733,126.847129 L105.862733,129.698614 C105.862733,130.514455 106.03303,131.106535 106.373624,131.474851 C106.714218,131.843168 107.197386,132.027327 107.823129,132.027327 Z M115.652832,131.908515 L115.652832,131.409505 L115.498376,131.409505 C115.229069,131.409505 114.999366,131.36 114.809267,131.26099 C114.619168,131.16198 114.524119,130.926337 114.524119,130.554059 L114.524119,130.554059 L114.524119,122.878812 L112.278574,122.878812 L112.278574,123.377822 L112.43303,123.377822 C112.694416,123.377822 112.922139,123.425347 113.116198,123.520396 C113.310257,123.615446 113.407287,123.837228 113.407287,124.185743 L113.407287,124.185743 L113.407287,130.554059 C113.407287,130.926337 113.312238,131.16198 113.122139,131.26099 C112.93204,131.36 112.702337,131.409505 112.43303,131.409505 L112.43303,131.409505 L112.278574,131.409505 L112.278574,131.908515 L115.652832,131.908515 Z M118.242931,132.027327 C118.575604,132.027327 118.846891,131.977822 119.056792,131.878812 C119.266693,131.779802 119.450851,131.645149 119.609267,131.474851 C119.767683,131.304554 119.930059,131.108515 120.096396,130.886733 L120.096396,130.886733 L120.191446,130.886733 L120.381545,131.908515 L121.985505,131.908515 L121.985505,131.409505 L121.949861,131.409505 C121.680554,131.409505 121.490455,131.350099 121.379564,131.231287 C121.268673,131.112475 121.213228,130.886733 121.213228,130.554059 L121.213228,130.554059 L121.213228,127.476832 C121.213228,126.724356 121.03303,126.193663 120.672634,125.884752 C120.312238,125.575842 119.767683,125.421386 119.03897,125.421386 C118.650851,125.421386 118.294416,125.45901 117.969663,125.534257 C117.644911,125.609505 117.385505,125.730297 117.191446,125.896634 C116.997386,126.06297 116.900356,126.284752 116.900356,126.56198 C116.900356,126.831287 116.985505,127.023366 117.155802,127.138218 C117.326099,127.253069 117.577584,127.310495 117.910257,127.310495 C117.910257,127.05703 117.936,126.833267 117.987485,126.639208 C118.03897,126.445149 118.143921,126.292673 118.302337,126.181782 C118.460752,126.070891 118.690455,126.015446 118.991446,126.015446 C119.316198,126.015446 119.557782,126.078812 119.716198,126.205545 C119.874614,126.332277 119.977584,126.504554 120.025109,126.722376 C120.072634,126.940198 120.096396,127.191683 120.096396,127.476832 L120.096396,127.476832 L120.096396,128.189703 L119.110257,128.225347 C118.199366,128.25703 117.520158,128.423366 117.072634,128.724356 C116.625109,129.025347 116.401347,129.492673 116.401347,130.126337 C116.401347,130.775842 116.575604,131.25505 116.924119,131.56396 C117.272634,131.872871 117.712238,132.027327 118.242931,132.027327 Z M118.516198,131.290693 C117.874614,131.290693 117.553822,130.922376 117.553822,130.185743 C117.553822,129.718416 117.682535,129.36396 117.93996,129.122376 C118.197386,128.880792 118.662733,128.744158 119.336,128.712475 L119.336,128.712475 L120.096396,128.676832 L120.096396,129.639208 C120.096396,130.146139 119.953822,130.548119 119.668673,130.845149 C119.383525,131.142178 118.999366,131.290693 118.516198,131.290693 Z M126.322139,131.908515 L126.322139,131.409505 L125.989465,131.409505 C125.728079,131.409505 125.500356,131.36396 125.306297,131.272871 C125.112238,131.181782 125.015208,130.96198 125.015208,130.613465 L125.015208,130.613465 L125.015208,128.748119 C125.015208,128.518416 125.03501,128.25901 125.074614,127.969901 C125.114218,127.680792 125.177584,127.401584 125.264713,127.132277 C125.351842,126.86297 125.470653,126.641188 125.621149,126.466931 C125.771644,126.292673 125.957782,126.205545 126.179564,126.205545 C126.409267,126.205545 126.571644,126.278812 126.666693,126.425347 C126.761743,126.571881 126.809267,126.807525 126.809267,127.132277 C127.205307,127.132277 127.488475,127.053069 127.658772,126.894653 C127.829069,126.736238 127.914218,126.534257 127.914218,126.288713 C127.914218,126.011485 127.809267,125.797624 127.599366,125.647129 C127.389465,125.496634 127.066693,125.421386 126.63105,125.421386 C126.282535,125.421386 126.009267,125.478812 125.811248,125.593663 C125.613228,125.708515 125.454812,125.86495 125.336,126.06297 C125.217188,126.26099 125.106297,126.478812 125.003327,126.716436 L125.003327,126.716436 L124.943921,126.716436 L124.718178,125.540198 L122.888475,125.540198 L122.888475,126.039208 L122.924119,126.039208 C123.185505,126.039208 123.413228,126.086733 123.607287,126.181782 C123.801347,126.276832 123.898376,126.498614 123.898376,126.847129 L123.898376,126.847129 L123.898376,130.554059 C123.898376,130.926337 123.803327,131.16198 123.613228,131.26099 C123.423129,131.36 123.193426,131.409505 122.924119,131.409505 L122.924119,131.409505 L122.888475,131.409505 L122.888475,131.908515 L126.322139,131.908515 Z M139.93798,131.908515 L139.93798,131.409505 L139.355802,131.409505 C139.086495,131.409505 138.856792,131.36 138.666693,131.26099 C138.476594,131.16198 138.381545,130.926337 138.381545,130.554059 L138.381545,130.554059 L138.381545,123.377822 L137.621149,123.377822 L136.789465,123.995644 C136.401347,124.288713 136.074614,124.498614 135.809267,124.625347 C135.543921,124.752079 135.292436,124.847129 135.054812,124.910495 C135.054812,125.100594 135.110257,125.25505 135.221149,125.373861 C135.33204,125.492673 135.474614,125.552079 135.648871,125.552079 C135.886495,125.552079 136.126099,125.437228 136.367683,125.207525 C136.609267,124.977822 136.880554,124.680792 137.181545,124.316436 L137.181545,124.316436 L137.181545,130.554059 C137.181545,130.926337 137.086495,131.16198 136.896396,131.26099 C136.706297,131.36 136.476594,131.409505 136.207287,131.409505 L136.207287,131.409505 L135.411248,131.409505 L135.411248,131.908515 L139.93798,131.908515 Z M146.745901,131.908515 L146.805307,129.853069 L146.306297,129.853069 L146.258772,130.066931 C146.203327,130.296634 146.112238,130.502574 145.985505,130.684752 C145.858772,130.866931 145.617188,130.95802 145.260752,130.95802 L145.260752,130.95802 L142.516198,130.95802 L144.524119,128.736238 C145.149861,128.047129 145.63699,127.439208 145.985505,126.912475 C146.33402,126.385743 146.508277,125.845149 146.508277,125.290693 C146.508277,124.688713 146.294416,124.207525 145.866693,123.847129 C145.43897,123.486733 144.848871,123.306535 144.096396,123.306535 C143.328079,123.306535 142.747881,123.45703 142.355802,123.75802 C141.963723,124.05901 141.767683,124.439208 141.767683,124.898614 C141.767683,125.199604 141.866693,125.403564 142.064713,125.510495 C142.262733,125.617426 142.504317,125.670891 142.789465,125.670891 C142.789465,125.354059 142.823129,125.06297 142.890455,124.797624 C142.957782,124.532277 143.086495,124.316436 143.276594,124.150099 C143.466693,123.983762 143.73996,123.900594 144.096396,123.900594 C144.516198,123.900594 144.823129,124.039208 145.017188,124.316436 C145.211248,124.593663 145.308277,124.95802 145.308277,125.409505 C145.308277,125.773861 145.254812,126.118416 145.147881,126.443168 C145.04095,126.767921 144.864713,127.110495 144.619168,127.470891 C144.373624,127.831287 144.04095,128.25703 143.621149,128.748119 L143.621149,128.748119 L141.63699,131.041188 L141.63699,131.908515 L146.745901,131.908515 Z M150.488475,132.027327 C150.829069,132.027327 151.175604,131.983762 151.528079,131.896634 C151.880554,131.809505 152.207287,131.668911 152.508277,131.474851 C152.809267,131.280792 153.050851,131.019406 153.23303,130.690693 C153.415208,130.36198 153.506297,129.96 153.506297,129.484752 C153.506297,129.088713 153.43501,128.76198 153.292436,128.504554 C153.149861,128.247129 152.965703,128.039208 152.73996,127.880792 C152.514218,127.722376 152.274614,127.605545 152.021149,127.530297 C151.767683,127.45505 151.530059,127.405545 151.308277,127.381782 C151.672634,127.294653 151.997386,127.146139 152.282535,126.936238 C152.567683,126.726337 152.793426,126.472871 152.959762,126.175842 C153.126099,125.878812 153.209267,125.552079 153.209267,125.195644 C153.209267,124.593663 152.981545,124.128317 152.526099,123.799604 C152.070653,123.470891 151.466693,123.306535 150.714218,123.306535 C149.945901,123.306535 149.365703,123.45703 148.973624,123.75802 C148.581545,124.05901 148.385505,124.439208 148.385505,124.898614 C148.385505,125.199604 148.484515,125.403564 148.682535,125.510495 C148.880554,125.617426 149.122139,125.670891 149.407287,125.670891 C149.407287,125.354059 149.44095,125.06297 149.508277,124.797624 C149.575604,124.532277 149.704317,124.316436 149.894416,124.150099 C150.084515,123.983762 150.357782,123.900594 150.714218,123.900594 C151.173624,123.900594 151.500356,124.029307 151.694416,124.286733 C151.888475,124.544158 151.985505,124.906535 151.985505,125.373861 C151.985505,125.746139 151.902337,126.070891 151.736,126.348119 C151.569663,126.625347 151.345901,126.839208 151.064713,126.989703 C150.783525,127.140198 150.468673,127.215446 150.120158,127.215446 L150.120158,127.215446 L149.73996,127.215446 L149.73996,127.821386 L150.120158,127.821386 C150.785505,127.821386 151.310257,127.971881 151.694416,128.272871 C152.078574,128.573861 152.270653,128.973861 152.270653,129.472871 C152.270653,129.948119 152.187485,130.324356 152.021149,130.601584 C151.854812,130.878812 151.63897,131.078812 151.373624,131.201584 C151.108277,131.324356 150.817188,131.385743 150.500356,131.385743 C150.017188,131.385743 149.644911,131.249109 149.383525,130.975842 C149.122139,130.702574 148.991446,130.36 148.991446,129.948119 C148.769663,129.948119 148.589465,130.015446 148.450851,130.150099 C148.312238,130.284752 148.242931,130.470891 148.242931,130.708515 C148.242931,131.05703 148.421149,131.36396 148.777584,131.629307 C149.13402,131.894653 149.704317,132.027327 150.488475,132.027327 Z M160.326099,131.908515 L160.326099,131.409505 L160.171644,131.409505 C159.902337,131.409505 159.672634,131.36 159.482535,131.26099 C159.292436,131.16198 159.197386,130.926337 159.197386,130.554059 L159.197386,130.554059 L159.197386,129.579802 L160.670653,129.579802 L160.670653,128.914455 L159.197386,128.914455 L159.197386,123.425347 L158.068673,123.425347 L154.397386,129.092673 L154.397386,129.579802 L158.056792,129.579802 L158.056792,130.554059 C158.056792,130.926337 157.961743,131.16198 157.771644,131.26099 C157.581545,131.36 157.351842,131.409505 157.082535,131.409505 L157.082535,131.409505 L156.749861,131.409505 L156.749861,131.908515 L160.326099,131.908515 Z M158.056792,128.914455 L155.252832,128.914455 L157.070653,126.086733 C157.141941,125.975842 157.229069,125.835248 157.33204,125.66495 C157.43501,125.494653 157.541941,125.316436 157.652832,125.130297 C157.763723,124.944158 157.862733,124.771881 157.949861,124.613465 C158.03699,124.45505 158.100356,124.336238 158.13996,124.25703 C158.124119,124.502574 158.108277,124.771881 158.092436,125.06495 C158.076594,125.35802 158.066693,125.649109 158.062733,125.938218 C158.058772,126.227327 158.056792,126.486733 158.056792,126.716436 L158.056792,128.914455 Z M163.736,132.027327 C164.345901,132.027327 164.864713,131.914455 165.292436,131.688713 C165.720158,131.46297 166.046891,131.146139 166.272634,130.738218 C166.498376,130.330297 166.611248,129.85703 166.611248,129.318416 C166.611248,128.75604 166.492436,128.290693 166.254812,127.922376 C166.017188,127.554059 165.694416,127.276832 165.286495,127.090693 C164.878574,126.904554 164.417188,126.811485 163.902337,126.811485 C163.553822,126.811485 163.264713,126.833267 163.03501,126.876832 C162.805307,126.920396 162.63105,126.96198 162.512238,127.001584 L162.512238,127.001584 L162.73798,124.375842 L165.042931,124.375842 C165.296396,124.375842 165.460752,124.415446 165.536,124.494653 C165.611248,124.573861 165.660752,124.696634 165.684515,124.86297 L165.684515,124.86297 L165.73204,125.219406 L166.23105,125.219406 L166.171644,123.425347 L162.203327,123.425347 L161.823129,127.643168 L162.108277,127.726337 C162.258772,127.66297 162.43699,127.603564 162.642931,127.548119 C162.848871,127.492673 163.157782,127.46495 163.569663,127.46495 C164.116198,127.46495 164.553822,127.617426 164.882535,127.922376 C165.211248,128.227327 165.375604,128.692673 165.375604,129.318416 C165.375604,129.817426 165.302337,130.213465 165.155802,130.506535 C165.009267,130.799604 164.807287,131.009505 164.549861,131.136238 C164.292436,131.26297 164.001347,131.326337 163.676594,131.326337 C163.193426,131.326337 162.83303,131.211485 162.595406,130.981782 C162.357782,130.752079 162.23897,130.466931 162.23897,130.126337 C161.985505,130.126337 161.797386,130.187723 161.674614,130.310495 C161.551842,130.433267 161.490455,130.605545 161.490455,130.827327 C161.490455,131.001584 161.555802,131.181782 161.686495,131.367921 C161.817188,131.554059 162.044911,131.710495 162.369663,131.837228 C162.694416,131.96396 163.149861,132.027327 163.736,132.027327 Z M170.959762,132.027327 C171.498376,132.027327 171.957782,131.906535 172.33798,131.66495 C172.718178,131.423366 173.009267,131.088713 173.211248,130.66099 C173.413228,130.233267 173.514218,129.742178 173.514218,129.187723 C173.514218,128.427327 173.298376,127.831287 172.866693,127.399604 C172.43501,126.967921 171.854812,126.752079 171.126099,126.752079 C170.73798,126.752079 170.407287,126.815446 170.13402,126.942178 C169.860752,127.068911 169.625109,127.211485 169.427089,127.369901 C169.466693,126.221386 169.64095,125.352079 169.949861,124.76198 C170.258772,124.171881 170.710257,123.876832 171.304317,123.876832 C171.684515,123.876832 171.953822,124.011485 172.112238,124.280792 C172.270653,124.550099 172.349861,124.878812 172.349861,125.266931 C172.959762,125.266931 173.264713,125.029307 173.264713,124.554059 C173.264713,124.229307 173.102337,123.940198 172.777584,123.686733 C172.452832,123.433267 171.961743,123.306535 171.304317,123.306535 C170.781545,123.306535 170.324119,123.423366 169.93204,123.65703 C169.53996,123.890693 169.217188,124.211485 168.963723,124.619406 C168.710257,125.027327 168.520158,125.490693 168.393426,126.009505 C168.266693,126.528317 168.203327,127.068911 168.203327,127.631287 C168.203327,128.676832 168.324119,129.522376 168.565703,130.167921 C168.807287,130.813465 169.136,131.284752 169.551842,131.581782 C169.967683,131.878812 170.43699,132.027327 170.959762,132.027327 Z M170.995406,131.373861 C170.520158,131.373861 170.141941,131.116436 169.860752,130.601584 C169.579564,130.086733 169.43105,129.235248 169.415208,128.047129 C169.573624,127.880792 169.781545,127.724356 170.03897,127.577822 C170.296396,127.431287 170.579564,127.35802 170.888475,127.35802 C171.347881,127.35802 171.698376,127.512475 171.93996,127.821386 C172.181545,128.130297 172.302337,128.625347 172.302337,129.306535 C172.302337,130.027327 172.189465,130.552079 171.963723,130.880792 C171.73798,131.209505 171.415208,131.373861 170.995406,131.373861 Z M177.268673,131.908515 L180.191446,123.769901 L180.191446,123.425347 L174.880554,123.425347 L174.821149,125.575842 L175.320158,125.575842 L175.367683,124.981782 C175.407287,124.577822 175.63699,124.375842 176.056792,124.375842 L176.056792,124.375842 L179.181545,124.375842 L176.377584,131.908515 L177.268673,131.908515 Z M184.005307,132.027327 C184.876594,132.027327 185.569663,131.817426 186.084515,131.397624 C186.599366,130.977822 186.856792,130.391683 186.856792,129.639208 C186.856792,129.124356 186.674614,128.684752 186.310257,128.320396 C185.945901,127.95604 185.470653,127.635248 184.884515,127.35802 C185.367683,127.120396 185.755802,126.85703 186.048871,126.567921 C186.341941,126.278812 186.488475,125.872871 186.488475,125.350099 C186.488475,124.75604 186.284515,124.266931 185.876594,123.882772 C185.468673,123.498614 184.892436,123.306535 184.147881,123.306535 C183.53798,123.306535 183.044911,123.407525 182.668673,123.609505 C182.292436,123.811485 182.017188,124.074851 181.842931,124.399604 C181.668673,124.724356 181.581545,125.068911 181.581545,125.433267 C181.581545,125.932277 181.724119,126.35604 182.009267,126.704554 C182.294416,127.053069 182.662733,127.354059 183.114218,127.607525 C182.773624,127.773861 182.466693,127.952079 182.193426,128.142178 C181.920158,128.332277 181.704317,128.55802 181.545901,128.819406 C181.387485,129.080792 181.308277,129.401584 181.308277,129.781782 C181.308277,130.193663 181.409267,130.569901 181.611248,130.910495 C181.813228,131.251089 182.114218,131.522376 182.514218,131.724356 C182.914218,131.926337 183.411248,132.027327 184.005307,132.027327 Z M184.302337,127.084752 C183.771644,126.839208 183.371644,126.585743 183.102337,126.324356 C182.83303,126.06297 182.698376,125.718416 182.698376,125.290693 C182.698376,124.878812 182.817188,124.538218 183.054812,124.268911 C183.292436,123.999604 183.63303,123.86495 184.076594,123.86495 C184.409267,123.86495 184.674614,123.936238 184.872634,124.078812 C185.070653,124.221386 185.213228,124.403564 185.300356,124.625347 C185.387485,124.847129 185.43105,125.080792 185.43105,125.326337 C185.43105,125.738218 185.353822,126.078812 185.199366,126.348119 C185.044911,126.617426 184.745901,126.86297 184.302337,127.084752 Z M184.064713,131.480792 C183.53402,131.480792 183.13402,131.328317 182.864713,131.023366 C182.595406,130.718416 182.460752,130.320396 182.460752,129.829307 C182.460752,129.385743 182.571644,129.001584 182.793426,128.676832 C183.015208,128.352079 183.312238,128.090693 183.684515,127.892673 C184.452832,128.225347 184.993426,128.542178 185.306297,128.843168 C185.619168,129.144158 185.775604,129.496634 185.775604,129.900594 C185.775604,130.36 185.619168,130.738218 185.306297,131.035248 C184.993426,131.332277 184.579564,131.480792 184.064713,131.480792 Z M190.100356,132.039208 C190.678574,132.039208 191.171644,131.910495 191.579564,131.653069 C191.987485,131.395644 192.320158,131.045149 192.577584,130.601584 C192.83501,130.15802 193.023129,129.653069 193.141941,129.086733 C193.260752,128.520396 193.320158,127.924356 193.320158,127.298614 C193.320158,126.36396 193.201347,125.603564 192.963723,125.017426 C192.726099,124.431287 192.399366,123.999604 191.983525,123.722376 C191.567683,123.445149 191.090455,123.306535 190.551842,123.306535 C190.021149,123.306535 189.565703,123.431287 189.185505,123.680792 C188.805307,123.930297 188.514218,124.274851 188.312238,124.714455 C188.110257,125.154059 188.009267,125.65901 188.009267,126.229307 C188.009267,127.029307 188.227089,127.631287 188.662733,128.035248 C189.098376,128.439208 189.660752,128.641188 190.349861,128.641188 C190.769663,128.641188 191.122139,128.55802 191.407287,128.391683 C191.692436,128.225347 191.922139,128.039208 192.096396,127.833267 C192.056792,129.029307 191.880554,129.920396 191.567683,130.506535 C191.254812,131.092673 190.769663,131.385743 190.112238,131.385743 C189.73996,131.385743 189.444911,131.290693 189.227089,131.100594 C189.009267,130.910495 188.844911,130.692673 188.73402,130.447129 C188.646891,130.478812 188.565703,130.544158 188.490455,130.643168 C188.415208,130.742178 188.377584,130.866931 188.377584,131.017426 C188.377584,131.183762 188.427089,131.344158 188.526099,131.498614 C188.625109,131.653069 188.801347,131.781782 189.054812,131.884752 C189.308277,131.987723 189.656792,132.039208 190.100356,132.039208 Z M190.611248,127.940198 C190.151842,127.940198 189.807287,127.797624 189.577584,127.512475 C189.347881,127.227327 189.23303,126.76 189.23303,126.110495 C189.23303,125.413465 189.349861,124.880792 189.583525,124.512475 C189.817188,124.144158 190.13996,123.96 190.551842,123.96 C191.011248,123.96 191.381545,124.197624 191.662733,124.672871 C191.943921,125.148119 192.092436,125.916436 192.108277,126.977822 C192.005307,127.231287 191.827089,127.45505 191.573624,127.649109 C191.320158,127.843168 190.999366,127.940198 190.611248,127.940198 Z M197.371644,132.027327 C197.997386,132.027327 198.514218,131.845149 198.922139,131.480792 C199.330059,131.116436 199.63699,130.607525 199.842931,129.954059 C200.048871,129.300594 200.151842,128.534257 200.151842,127.65505 C200.151842,126.775842 200.050851,126.009505 199.848871,125.35604 C199.646891,124.702574 199.33996,124.197624 198.928079,123.841188 C198.516198,123.484752 198.001347,123.306535 197.383525,123.306535 C196.726099,123.306535 196.191446,123.484752 195.779564,123.841188 C195.367683,124.197624 195.064713,124.700594 194.870653,125.350099 C194.676594,125.999604 194.579564,126.76396 194.579564,127.643168 C194.579564,128.522376 194.676594,129.290693 194.870653,129.948119 C195.064713,130.605545 195.367683,131.116436 195.779564,131.480792 C196.191446,131.845149 196.722139,132.027327 197.371644,132.027327 Z M197.371644,131.385743 C196.793426,131.385743 196.389465,131.05703 196.159762,130.399604 C195.930059,129.742178 195.815208,128.827327 195.815208,127.65505 C195.815208,126.474851 195.93204,125.56198 196.165703,124.916436 C196.399366,124.270891 196.805307,123.948119 197.383525,123.948119 C197.953822,123.948119 198.351842,124.270891 198.577584,124.916436 C198.803327,125.56198 198.916198,126.474851 198.916198,127.65505 C198.916198,128.827327 198.803327,129.742178 198.577584,130.399604 C198.351842,131.05703 197.949861,131.385743 197.371644,131.385743 Z" id="notoserifregular1234567890"></path>
            </g>
        </g>
    </g>
</svg>