<?xml version="1.0" encoding="UTF-8"?>
<svg width="156px" height="13px" viewBox="0 0 156 13" version="1.1" xmlns="http://www.w3.org/2000/svg" xmlns:xlink="http://www.w3.org/1999/xlink">
    <title>notoserifitalic1234567890</title>
    <g id="页面-1" stroke="none" stroke-width="1" fill="none" fill-rule="evenodd">
        <g id="弃-增加英文字体分类" transform="translate(-751.000000, -168.000000)" fill="#FFFFFF" fill-rule="nonzero">
            <g id="编组-4" transform="translate(720.000000, 10.000000)">
                <path d="M35.9705743,168.027327 C36.2794851,168.027327 36.5507723,167.954059 36.7844356,167.807525 C37.018099,167.66099 37.2299802,167.508515 37.4200792,167.350099 L37.4200792,167.350099 L37.2062178,167.005545 C36.9289901,167.187723 36.6755248,167.278812 36.4458218,167.278812 C36.1685941,167.278812 36.0299802,167.088713 36.0299802,166.708515 C36.0299802,166.526337 36.0438416,166.328317 36.0715644,166.114455 C36.0992871,165.900594 36.1369109,165.682772 36.1844356,165.46099 L36.1844356,165.46099 L36.4933465,164.05901 C36.5329505,163.853069 36.578495,163.633267 36.6299802,163.399604 C36.6814653,163.165941 36.7072079,162.950099 36.7072079,162.752079 C36.7072079,162.403564 36.6121584,162.096634 36.4220594,161.831287 C36.2319604,161.565941 35.9032475,161.433267 35.4359208,161.433267 C34.9923564,161.433267 34.6022574,161.569901 34.2656238,161.843168 C33.9289901,162.116436 33.598297,162.514455 33.2735446,163.037228 L33.2735446,163.037228 L33.1547327,163.037228 L33.4755248,161.540198 L31.277505,161.540198 L31.1705743,162.039208 L31.2656238,162.039208 C31.4953267,162.039208 31.6913663,162.072871 31.8537426,162.140198 C32.0161188,162.207525 32.0973069,162.36 32.0973069,162.597624 C32.0973069,162.629307 32.0913663,162.698614 32.0794851,162.805545 C32.067604,162.912475 32.0497822,163.021386 32.0260198,163.132277 L32.0260198,163.132277 L31.028,167.908515 L32.1329505,167.908515 L32.7745347,164.866931 C32.8220594,164.629307 32.9190891,164.35802 33.0656238,164.053069 C33.2121584,163.748119 33.3903762,163.453069 33.6002772,163.167921 C33.8101782,162.882772 34.037901,162.649109 34.2834455,162.466931 C34.5289901,162.284752 34.7745347,162.193663 35.0200792,162.193663 C35.2497822,162.193663 35.398297,162.270891 35.4656238,162.425347 C35.5329505,162.579802 35.5666139,162.736238 35.5666139,162.894653 C35.5666139,163.029307 35.5507723,163.187723 35.5190891,163.369901 C35.4874059,163.552079 35.4517624,163.726337 35.4121584,163.892673 C35.3725545,164.05901 35.3408713,164.197624 35.3171089,164.308515 L35.3171089,164.308515 L35.1151287,165.235248 C34.9646337,165.940198 34.8893861,166.474851 34.8893861,166.839208 C34.8893861,167.179802 34.9824554,167.46297 35.1685941,167.688713 C35.3547327,167.914455 35.6220594,168.027327 35.9705743,168.027327 Z M40.4141386,168.027327 C40.9052277,168.027327 41.3408713,167.938218 41.7210693,167.76 C42.1012673,167.581782 42.4299802,167.346139 42.7072079,167.053069 C42.9844356,166.76 43.2141386,166.431287 43.3963168,166.066931 C43.578495,165.702574 43.7131485,165.332277 43.8002772,164.95604 C43.8874059,164.579802 43.9309703,164.221386 43.9309703,163.880792 C43.9309703,163.294653 43.8299802,162.821386 43.628,162.46099 C43.4260198,162.100594 43.1547327,161.837228 42.8141386,161.670891 C42.4735446,161.504554 42.0933465,161.421386 41.6735446,161.421386 C41.0715644,161.421386 40.5487921,161.552079 40.1052277,161.813465 C39.6616634,162.074851 39.2933465,162.415446 39.0002772,162.835248 C38.7072079,163.25505 38.4893861,163.704554 38.3468119,164.183762 C38.2042376,164.66297 38.1329505,165.124356 38.1329505,165.567921 C38.1329505,166.391683 38.3448317,167.007525 38.7685941,167.415446 C39.1923564,167.823366 39.7408713,168.027327 40.4141386,168.027327 Z M40.5448317,167.421386 C40.188396,167.421386 39.9032475,167.298614 39.6893861,167.053069 C39.4755248,166.807525 39.3685941,166.383762 39.3685941,165.781782 C39.3685941,165.496634 39.3943366,165.185743 39.4458218,164.849109 C39.4973069,164.512475 39.5765149,164.177822 39.6834455,163.845149 C39.7903762,163.512475 39.9289901,163.209505 40.0992871,162.936238 C40.2695842,162.66297 40.4735446,162.443168 40.7111683,162.276832 C40.9487921,162.110495 41.2220594,162.027327 41.5309703,162.027327 C41.8953267,162.027327 42.1804752,162.154059 42.3864158,162.407525 C42.5923564,162.66099 42.6953267,163.084752 42.6953267,163.678812 C42.6953267,164.035248 42.6557228,164.427327 42.5765149,164.85505 C42.4973069,165.282772 42.3725545,165.692673 42.2022574,166.084752 C42.0319604,166.476832 41.8101782,166.797624 41.5369109,167.047129 C41.2636436,167.296634 40.9329505,167.421386 40.5448317,167.421386 Z M46.6161188,168.027327 C46.9171089,168.027327 47.2002772,167.973861 47.4656238,167.866931 C47.7309703,167.76 47.9824554,167.623366 48.2200792,167.45703 L48.2200792,167.45703 L48.018099,167.017426 C47.8913663,167.088713 47.7388911,167.150099 47.5606733,167.201584 C47.3824554,167.253069 47.2101782,167.278812 47.0438416,167.278812 C46.8458218,167.278812 46.6913663,167.227327 46.5804752,167.124356 C46.4695842,167.021386 46.4141386,166.85505 46.4141386,166.625347 C46.4141386,166.498614 46.428,166.346139 46.4557228,166.167921 C46.4834455,165.989703 46.5171089,165.801584 46.5567129,165.603564 L46.5567129,165.603564 L47.2814653,162.217426 L48.7190891,162.217426 L48.8616634,161.540198 L47.4240396,161.540198 L47.7329505,160.078812 L47.1864158,160.078812 C46.9487921,160.688713 46.6715644,161.118416 46.3547327,161.367921 C46.037901,161.617426 45.7091881,161.742178 45.3685941,161.742178 L45.3685941,161.742178 L45.2616634,162.217426 L46.1646337,162.217426 L45.4398812,165.639208 C45.408198,165.789703 45.3804752,165.95802 45.3567129,166.144158 C45.3329505,166.330297 45.3210693,166.494653 45.3210693,166.637228 C45.3210693,167.56396 45.7527525,168.027327 46.6161188,168.027327 Z M51.6062178,168.027327 C52.0973069,168.027327 52.5329505,167.938218 52.9131485,167.76 C53.2933465,167.581782 53.6220594,167.346139 53.8992871,167.053069 C54.1765149,166.76 54.4062178,166.431287 54.588396,166.066931 C54.7705743,165.702574 54.9052277,165.332277 54.9923564,164.95604 C55.0794851,164.579802 55.1230495,164.221386 55.1230495,163.880792 C55.1230495,163.294653 55.0220594,162.821386 54.8200792,162.46099 C54.618099,162.100594 54.3468119,161.837228 54.0062178,161.670891 C53.6656238,161.504554 53.2854257,161.421386 52.8656238,161.421386 C52.2636436,161.421386 51.7408713,161.552079 51.2973069,161.813465 C50.8537426,162.074851 50.4854257,162.415446 50.1923564,162.835248 C49.8992871,163.25505 49.6814653,163.704554 49.5388911,164.183762 C49.3963168,164.66297 49.3250297,165.124356 49.3250297,165.567921 C49.3250297,166.391683 49.5369109,167.007525 49.9606733,167.415446 C50.3844356,167.823366 50.9329505,168.027327 51.6062178,168.027327 Z M51.7369109,167.421386 C51.3804752,167.421386 51.0953267,167.298614 50.8814653,167.053069 C50.667604,166.807525 50.5606733,166.383762 50.5606733,165.781782 C50.5606733,165.496634 50.5864158,165.185743 50.637901,164.849109 C50.6893861,164.512475 50.7685941,164.177822 50.8755248,163.845149 C50.9824554,163.512475 51.1210693,163.209505 51.2913663,162.936238 C51.4616634,162.66297 51.6656238,162.443168 51.9032475,162.276832 C52.1408713,162.110495 52.4141386,162.027327 52.7230495,162.027327 C53.0874059,162.027327 53.3725545,162.154059 53.578495,162.407525 C53.7844356,162.66099 53.8874059,163.084752 53.8874059,163.678812 C53.8874059,164.035248 53.847802,164.427327 53.7685941,164.85505 C53.6893861,165.282772 53.5646337,165.692673 53.3943366,166.084752 C53.2240396,166.476832 53.0022574,166.797624 52.7289901,167.047129 C52.4557228,167.296634 52.1250297,167.421386 51.7369109,167.421386 Z M60.9804752,168.027327 C61.7408713,168.027327 62.3408713,167.845149 62.7804752,167.480792 C63.2200792,167.116436 63.4398812,166.645149 63.4398812,166.066931 C63.4398812,165.607525 63.3111683,165.235248 63.0537426,164.950099 C62.7963168,164.66495 62.4497822,164.423366 62.0141386,164.225347 C61.6022574,164.035248 61.2973069,163.851089 61.0992871,163.672871 C60.9012673,163.494653 60.8022574,163.270891 60.8022574,163.001584 C60.8022574,162.700594 60.9052277,162.45505 61.1111683,162.26495 C61.3171089,162.074851 61.598297,161.979802 61.9547327,161.979802 C62.2240396,161.979802 62.4359208,162.045149 62.5903762,162.175842 C62.7448317,162.306535 62.8557228,162.472871 62.9230495,162.674851 C62.9903762,162.876832 63.0240396,163.084752 63.0240396,163.298614 C63.3012673,163.298614 63.5190891,163.237228 63.677505,163.114455 C63.8359208,162.991683 63.9151287,162.807525 63.9151287,162.56198 C63.9151287,162.379802 63.8497822,162.201584 63.7190891,162.027327 C63.588396,161.853069 63.388396,161.710495 63.1190891,161.599604 C62.8497822,161.488713 62.4973069,161.433267 62.0616634,161.433267 C61.3646337,161.433267 60.808198,161.599604 60.3923564,161.932277 C59.9765149,162.26495 59.7685941,162.688713 59.7685941,163.203564 C59.7685941,163.678812 59.8992871,164.053069 60.1606733,164.326337 C60.4220594,164.599604 60.7705743,164.839208 61.2062178,165.045149 C61.6418614,165.243168 61.9507723,165.441188 62.1329505,165.639208 C62.3151287,165.837228 62.4062178,166.074851 62.4062178,166.352079 C62.4062178,166.716436 62.2913663,166.991683 62.0616634,167.177822 C61.8319604,167.36396 61.5190891,167.45703 61.1230495,167.45703 C60.798297,167.45703 60.5349307,167.385743 60.3329505,167.243168 C60.1309703,167.100594 59.9864158,166.910495 59.8992871,166.672871 C59.8121584,166.435248 59.7685941,166.177822 59.7685941,165.900594 C59.6735446,165.900594 59.5685941,165.920396 59.4537426,165.96 C59.3388911,165.999604 59.237901,166.076832 59.1507723,166.191683 C59.0636436,166.306535 59.0200792,166.470891 59.0200792,166.684752 C59.0200792,167.096634 59.198297,167.423366 59.5547327,167.66495 C59.9111683,167.906535 60.3864158,168.027327 60.9804752,168.027327 Z M67.0636436,168.027327 C67.5388911,168.027327 67.9270099,167.954059 68.228,167.807525 C68.5289901,167.66099 68.7527525,167.486733 68.8992871,167.284752 C69.0458218,167.082772 69.1190891,166.894653 69.1190891,166.720396 C69.1190891,166.577822 69.0794851,166.478812 69.0002772,166.423366 C68.8339406,166.629307 68.6022574,166.823366 68.3052277,167.005545 C68.008198,167.187723 67.6695842,167.278812 67.2893861,167.278812 C66.8616634,167.278812 66.5369109,167.136238 66.3151287,166.851089 C66.0933465,166.565941 65.9824554,166.169901 65.9824554,165.66297 C65.9824554,165.583762 65.9844356,165.502574 65.988396,165.419406 C65.9923564,165.336238 65.998297,165.251089 66.0062178,165.16396 L66.0062178,165.16396 L66.4220594,165.16396 C67.0874059,165.16396 67.6794851,165.053069 68.198297,164.831287 C68.7171089,164.609505 69.1250297,164.316436 69.4220594,163.952079 C69.7190891,163.587723 69.867604,163.199604 69.867604,162.787723 C69.867604,162.36 69.7289901,162.025347 69.4517624,161.783762 C69.1745347,161.542178 68.7864158,161.421386 68.2874059,161.421386 C67.7091881,161.421386 67.2002772,161.552079 66.7606733,161.813465 C66.3210693,162.074851 65.9507723,162.415446 65.6497822,162.835248 C65.3487921,163.25505 65.1230495,163.704554 64.9725545,164.183762 C64.8220594,164.66297 64.7468119,165.124356 64.7468119,165.567921 C64.7468119,166.122376 64.8517624,166.579802 65.0616634,166.940198 C65.2715644,167.300594 65.5527525,167.571881 65.9052277,167.754059 C66.257703,167.936238 66.6438416,168.027327 67.0636436,168.027327 Z M66.2319604,164.617426 L66.1131485,164.617426 C66.1765149,164.308515 66.2656238,163.999604 66.3804752,163.690693 C66.4953267,163.381782 66.6319604,163.098614 66.7903762,162.841188 C66.9487921,162.583762 67.1270099,162.377822 67.3250297,162.223366 C67.5230495,162.068911 67.7329505,161.991683 67.9547327,161.991683 C68.4141386,161.991683 68.6438416,162.25703 68.6438416,162.787723 C68.6438416,163.152079 68.5388911,163.470891 68.3289901,163.744158 C68.1190891,164.017426 67.8339406,164.231287 67.4735446,164.385743 C67.1131485,164.540198 66.6992871,164.617426 66.2319604,164.617426 L66.2319604,164.617426 Z M71.7210693,167.908515 L72.1725545,165.746139 C72.2596832,165.350099 72.378495,164.944158 72.5289901,164.528317 C72.6794851,164.112475 72.847802,163.728317 73.0339406,163.375842 C73.2200792,163.023366 73.418099,162.740198 73.628,162.526337 C73.837901,162.312475 74.0458218,162.205545 74.2517624,162.205545 C74.4418614,162.205545 74.5685941,162.290693 74.6319604,162.46099 C74.6953267,162.631287 74.7270099,162.85901 74.7270099,163.144158 C75.0755248,163.144158 75.3270099,163.06297 75.4814653,162.900594 C75.6359208,162.738218 75.7131485,162.518416 75.7131485,162.241188 C75.7131485,162.003564 75.6339406,161.807525 75.4755248,161.653069 C75.3171089,161.498614 75.0715644,161.421386 74.7388911,161.421386 C74.3824554,161.421386 74.0814653,161.506535 73.8359208,161.676832 C73.5903762,161.847129 73.3804752,162.070891 73.2062178,162.348119 C73.0319604,162.625347 72.8695842,162.926337 72.7190891,163.251089 L72.7190891,163.251089 L72.6002772,163.251089 L72.8497822,161.540198 L70.7468119,161.540198 L70.6398812,162.039208 L70.7349307,162.039208 C70.9646337,162.039208 71.1804752,162.072871 71.3824554,162.140198 C71.5844356,162.207525 71.6854257,162.36 71.6854257,162.597624 C71.6854257,162.629307 71.6794851,162.698614 71.667604,162.805545 C71.6557228,162.912475 71.637901,163.021386 71.6141386,163.132277 L71.6141386,163.132277 L70.6161188,167.908515 L71.7210693,167.908515 Z M78.3151287,160.352079 C78.4893861,160.352079 78.6517624,160.290693 78.8022574,160.167921 C78.9527525,160.045149 79.028,159.829307 79.028,159.520396 C79.028,159.298614 78.9646337,159.134257 78.837901,159.027327 C78.7111683,158.920396 78.5527525,158.866931 78.3626535,158.866931 C78.1487921,158.866931 77.9765149,158.942178 77.8458218,159.092673 C77.7151287,159.243168 77.6497822,159.445149 77.6497822,159.698614 C77.6497822,159.920396 77.7111683,160.084752 77.8339406,160.191683 C77.9567129,160.298614 78.1171089,160.352079 78.3151287,160.352079 Z M77.4953267,168.027327 C77.7963168,168.027327 78.0953267,167.946139 78.3923564,167.783762 C78.6893861,167.621386 78.9250297,167.46495 79.0992871,167.314455 L79.0992871,167.314455 L78.8854257,166.969901 C78.7349307,167.05703 78.588396,167.130297 78.4458218,167.189703 C78.3032475,167.249109 78.1646337,167.278812 78.0299802,167.278812 C77.7685941,167.278812 77.637901,167.076832 77.637901,166.672871 C77.637901,166.56198 77.647802,166.419406 77.667604,166.245149 C77.6874059,166.070891 77.7131485,165.900594 77.7448317,165.734257 C77.7765149,165.567921 77.8002772,165.441188 77.8161188,165.354059 L77.8161188,165.354059 L78.6240396,161.540198 L76.4973069,161.540198 L76.3903762,162.039208 L76.5448317,162.039208 C76.7666139,162.039208 76.9428515,162.068911 77.0735446,162.128317 C77.2042376,162.187723 77.2695842,162.324356 77.2695842,162.538218 C77.2695842,162.625347 77.257703,162.728317 77.2339406,162.847129 L77.2339406,162.847129 L76.7705743,165.033267 C76.7388911,165.183762 76.7032475,165.375842 76.6636436,165.609505 C76.6240396,165.843168 76.588396,166.074851 76.5567129,166.304554 C76.5250297,166.534257 76.5091881,166.732277 76.5091881,166.898614 C76.5091881,167.207525 76.5943366,167.472871 76.7646337,167.694653 C76.9349307,167.916436 77.178495,168.027327 77.4953267,168.027327 Z M78.2913663,170.76 C78.7190891,170.76 79.0992871,170.676832 79.4319604,170.510495 C79.7646337,170.344158 80.0497822,170.06099 80.2874059,169.66099 C80.5250297,169.26099 80.7190891,168.708515 80.8695842,168.003564 L80.8695842,168.003564 L82.1052277,162.217426 L83.4359208,162.217426 L83.5666139,161.540198 L82.247802,161.540198 L82.4022574,160.779802 C82.4973069,160.280792 82.6240396,159.910495 82.7824554,159.668911 C82.9408713,159.427327 83.1666139,159.306535 83.4596832,159.306535 C83.7131485,159.306535 83.877505,159.415446 83.9527525,159.633267 C84.028,159.851089 84.0656238,160.110495 84.0656238,160.411485 C84.3824554,160.411485 84.6260198,160.348119 84.7963168,160.221386 C84.9666139,160.094653 85.0517624,159.900594 85.0517624,159.639208 C85.0517624,159.377822 84.9230495,159.165941 84.6656238,159.003564 C84.408198,158.841188 84.0260198,158.76 83.5190891,158.76 C82.8695842,158.76 82.3646337,158.944158 82.0042376,159.312475 C81.6438416,159.680792 81.3963168,160.205545 81.2616634,160.886733 L81.2616634,160.886733 L81.1309703,161.540198 L79.9903762,161.789703 L79.9190891,162.217426 L81.0002772,162.217426 L79.7527525,168.015446 C79.578495,168.807525 79.3824554,169.369901 79.1646337,169.702574 C78.9468119,170.035248 78.6438416,170.201584 78.2557228,170.201584 C78.1685941,170.201584 78.0715644,170.191683 77.9646337,170.171881 C77.857703,170.152079 77.7725545,170.134257 77.7091881,170.118416 L77.7091881,170.118416 L77.6022574,170.66495 C77.6814653,170.688713 77.7864158,170.710495 77.9171089,170.730297 C78.047802,170.750099 78.1725545,170.76 78.2913663,170.76 Z M88.7943366,160.352079 C88.9685941,160.352079 89.1309703,160.290693 89.2814653,160.167921 C89.4319604,160.045149 89.5072079,159.829307 89.5072079,159.520396 C89.5072079,159.298614 89.4438416,159.134257 89.3171089,159.027327 C89.1903762,158.920396 89.0319604,158.866931 88.8418614,158.866931 C88.628,158.866931 88.4557228,158.942178 88.3250297,159.092673 C88.1943366,159.243168 88.1289901,159.445149 88.1289901,159.698614 C88.1289901,159.920396 88.1903762,160.084752 88.3131485,160.191683 C88.4359208,160.298614 88.5963168,160.352079 88.7943366,160.352079 Z M87.9745347,168.027327 C88.2755248,168.027327 88.5745347,167.946139 88.8715644,167.783762 C89.1685941,167.621386 89.4042376,167.46495 89.578495,167.314455 L89.578495,167.314455 L89.3646337,166.969901 C89.2141386,167.05703 89.067604,167.130297 88.9250297,167.189703 C88.7824554,167.249109 88.6438416,167.278812 88.5091881,167.278812 C88.247802,167.278812 88.1171089,167.076832 88.1171089,166.672871 C88.1171089,166.56198 88.1270099,166.419406 88.1468119,166.245149 C88.1666139,166.070891 88.1923564,165.900594 88.2240396,165.734257 C88.2557228,165.567921 88.2794851,165.441188 88.2953267,165.354059 L88.2953267,165.354059 L89.1032475,161.540198 L86.9765149,161.540198 L86.8695842,162.039208 L87.0240396,162.039208 C87.2458218,162.039208 87.4220594,162.068911 87.5527525,162.128317 C87.6834455,162.187723 87.7487921,162.324356 87.7487921,162.538218 C87.7487921,162.625347 87.7369109,162.728317 87.7131485,162.847129 L87.7131485,162.847129 L87.2497822,165.033267 C87.218099,165.183762 87.1824554,165.375842 87.1428515,165.609505 C87.1032475,165.843168 87.067604,166.074851 87.0359208,166.304554 C87.0042376,166.534257 86.988396,166.732277 86.988396,166.898614 C86.988396,167.207525 87.0735446,167.472871 87.2438416,167.694653 C87.4141386,167.916436 87.657703,168.027327 87.9745347,168.027327 Z M91.9190891,168.027327 C92.2200792,168.027327 92.5032475,167.973861 92.7685941,167.866931 C93.0339406,167.76 93.2854257,167.623366 93.5230495,167.45703 L93.5230495,167.45703 L93.3210693,167.017426 C93.1943366,167.088713 93.0418614,167.150099 92.8636436,167.201584 C92.6854257,167.253069 92.5131485,167.278812 92.3468119,167.278812 C92.1487921,167.278812 91.9943366,167.227327 91.8834455,167.124356 C91.7725545,167.021386 91.7171089,166.85505 91.7171089,166.625347 C91.7171089,166.498614 91.7309703,166.346139 91.7586931,166.167921 C91.7864158,165.989703 91.8200792,165.801584 91.8596832,165.603564 L91.8596832,165.603564 L92.5844356,162.217426 L94.0220594,162.217426 L94.1646337,161.540198 L92.7270099,161.540198 L93.0359208,160.078812 L92.4893861,160.078812 C92.2517624,160.688713 91.9745347,161.118416 91.657703,161.367921 C91.3408713,161.617426 91.0121584,161.742178 90.6715644,161.742178 L90.6715644,161.742178 L90.5646337,162.217426 L91.467604,162.217426 L90.7428515,165.639208 C90.7111683,165.789703 90.6834455,165.95802 90.6596832,166.144158 C90.6359208,166.330297 90.6240396,166.494653 90.6240396,166.637228 C90.6240396,167.56396 91.0557228,168.027327 91.9190891,168.027327 Z M99.2616634,168.027327 C99.4596832,168.027327 99.6656238,167.989703 99.8794851,167.914455 C100.093347,167.839208 100.295327,167.746139 100.485426,167.635248 C100.675525,167.524356 100.82602,167.417426 100.936911,167.314455 L100.936911,167.314455 L100.72305,166.969901 C100.572554,167.05703 100.42602,167.130297 100.283446,167.189703 C100.140871,167.249109 100.002257,167.278812 99.867604,167.278812 C99.6062178,167.278812 99.4755248,167.076832 99.4755248,166.672871 C99.4755248,166.56198 99.4854257,166.419406 99.5052277,166.245149 C99.5250297,166.070891 99.5507723,165.900594 99.5824554,165.734257 C99.6141386,165.567921 99.637901,165.441188 99.6537426,165.354059 L99.6537426,165.354059 L100.461663,161.552079 L100.081465,161.552079 L99.5586931,161.849109 C99.4002772,161.722376 99.2002772,161.619406 98.9586931,161.540198 C98.7171089,161.46099 98.4537426,161.421386 98.1685941,161.421386 C97.7171089,161.421386 97.3052277,161.514455 96.9329505,161.700594 C96.5606733,161.886733 96.2319604,162.136238 95.9468119,162.449109 C95.6616634,162.76198 95.4200792,163.110495 95.2220594,163.494653 C95.0240396,163.878812 94.8755248,164.274851 94.7765149,164.682772 C94.677505,165.090693 94.628,165.480792 94.628,165.853069 C94.628,166.26495 94.6814653,166.635248 94.788396,166.96396 C94.8953267,167.292673 95.0636436,167.552079 95.2933465,167.742178 C95.5230495,167.932277 95.8121584,168.027327 96.1606733,168.027327 C96.628,168.027327 97.047802,167.86099 97.4200792,167.528317 C97.7923564,167.195644 98.1131485,166.724356 98.3824554,166.114455 L98.3824554,166.114455 L98.4537426,166.114455 C98.4141386,166.312475 98.3844356,166.476832 98.3646337,166.607525 C98.3448317,166.738218 98.3349307,166.882772 98.3349307,167.041188 C98.3349307,167.350099 98.418099,167.591683 98.5844356,167.765941 C98.7507723,167.940198 98.9765149,168.027327 99.2616634,168.027327 Z M96.588396,167.278812 C96.3745347,167.278812 96.1963168,167.171881 96.0537426,166.95802 C95.9111683,166.744158 95.8398812,166.391683 95.8398812,165.900594 C95.8398812,165.615446 95.8715644,165.296634 95.9349307,164.944158 C95.998297,164.591683 96.0953267,164.241188 96.2260198,163.892673 C96.3567129,163.544158 96.5171089,163.223366 96.7072079,162.930297 C96.8973069,162.637228 97.1190891,162.401584 97.3725545,162.223366 C97.6260198,162.045149 97.9111683,161.95604 98.228,161.95604 C98.4101782,161.95604 98.5844356,161.991683 98.7507723,162.06297 C98.9171089,162.134257 99.0438416,162.241188 99.1309703,162.383762 L99.1309703,162.383762 L98.6913663,164.486733 C98.6200792,164.827327 98.5091881,165.16396 98.3586931,165.496634 C98.208198,165.829307 98.0359208,166.130297 97.8418614,166.399604 C97.647802,166.668911 97.4418614,166.882772 97.2240396,167.041188 C97.0062178,167.199604 96.7943366,167.278812 96.588396,167.278812 Z M102.849782,168.027327 C103.150772,168.027327 103.447802,167.946139 103.740871,167.783762 C104.033941,167.621386 104.267604,167.46495 104.441861,167.314455 L104.441861,167.314455 L104.228,166.969901 C104.077505,167.05703 103.93097,167.130297 103.788396,167.189703 C103.645822,167.249109 103.507208,167.278812 103.372554,167.278812 C103.111168,167.278812 102.980475,167.076832 102.980475,166.672871 C102.980475,166.56198 102.992356,166.419406 103.016119,166.245149 C103.039881,166.070891 103.067604,165.900594 103.099287,165.734257 C103.13097,165.567921 103.154733,165.441188 103.170574,165.354059 L103.170574,165.354059 L104.548792,158.878812 L102.303248,158.878812 L102.196317,159.377822 L102.338891,159.377822 C102.568594,159.377822 102.764634,159.411485 102.92701,159.478812 C103.089386,159.546139 103.170574,159.698614 103.170574,159.936238 C103.170574,159.967921 103.164634,160.037228 103.152752,160.144158 C103.140871,160.251089 103.12305,160.36 103.099287,160.470891 L103.099287,160.470891 L102.12503,165.033267 C102.093347,165.183762 102.057703,165.375842 102.018099,165.609505 C101.978495,165.843168 101.942851,166.074851 101.911168,166.304554 C101.879485,166.534257 101.863644,166.732277 101.863644,166.898614 C101.863644,167.207525 101.948792,167.472871 102.119089,167.694653 C102.289386,167.916436 102.53295,168.027327 102.849782,168.027327 Z M107.269584,160.352079 C107.443842,160.352079 107.606218,160.290693 107.756713,160.167921 C107.907208,160.045149 107.982455,159.829307 107.982455,159.520396 C107.982455,159.298614 107.919089,159.134257 107.792356,159.027327 C107.665624,158.920396 107.507208,158.866931 107.317109,158.866931 C107.103248,158.866931 106.93097,158.942178 106.800277,159.092673 C106.669584,159.243168 106.604238,159.445149 106.604238,159.698614 C106.604238,159.920396 106.665624,160.084752 106.788396,160.191683 C106.911168,160.298614 107.071564,160.352079 107.269584,160.352079 Z M106.449782,168.027327 C106.750772,168.027327 107.049782,167.946139 107.346812,167.783762 C107.643842,167.621386 107.879485,167.46495 108.053743,167.314455 L108.053743,167.314455 L107.839881,166.969901 C107.689386,167.05703 107.542851,167.130297 107.400277,167.189703 C107.257703,167.249109 107.119089,167.278812 106.984436,167.278812 C106.72305,167.278812 106.592356,167.076832 106.592356,166.672871 C106.592356,166.56198 106.602257,166.419406 106.622059,166.245149 C106.641861,166.070891 106.667604,165.900594 106.699287,165.734257 C106.73097,165.567921 106.754733,165.441188 106.770574,165.354059 L106.770574,165.354059 L107.578495,161.540198 L105.451762,161.540198 L105.344832,162.039208 L105.499287,162.039208 C105.721069,162.039208 105.897307,162.068911 106.028,162.128317 C106.158693,162.187723 106.22404,162.324356 106.22404,162.538218 C106.22404,162.625347 106.212158,162.728317 106.188396,162.847129 L106.188396,162.847129 L105.72503,165.033267 C105.693347,165.183762 105.657703,165.375842 105.618099,165.609505 C105.578495,165.843168 105.542851,166.074851 105.511168,166.304554 C105.479485,166.534257 105.463644,166.732277 105.463644,166.898614 C105.463644,167.207525 105.548792,167.472871 105.719089,167.694653 C105.889386,167.916436 106.13295,168.027327 106.449782,168.027327 Z M111.047802,168.027327 C111.52305,168.027327 111.911168,167.954059 112.212158,167.807525 C112.513149,167.66099 112.736911,167.486733 112.883446,167.284752 C113.02998,167.082772 113.103248,166.894653 113.103248,166.720396 C113.103248,166.577822 113.063644,166.478812 112.984436,166.423366 C112.818099,166.629307 112.596317,166.823366 112.319089,167.005545 C112.041861,167.187723 111.693347,167.278812 111.273545,167.278812 C110.845822,167.278812 110.521069,167.136238 110.299287,166.851089 C110.077505,166.565941 109.966614,166.169901 109.966614,165.66297 C109.966614,165.409505 109.998297,165.120396 110.061663,164.795644 C110.12503,164.470891 110.214139,164.144158 110.32899,163.815446 C110.443842,163.486733 110.586416,163.185743 110.756713,162.912475 C110.92701,162.639208 111.119089,162.417426 111.33295,162.247129 C111.546812,162.076832 111.780475,161.991683 112.033941,161.991683 C112.350772,161.991683 112.582455,162.130297 112.72899,162.407525 C112.875525,162.684752 112.948792,163.013465 112.948792,163.393663 C113.289386,163.393663 113.550772,163.310495 113.73295,163.144158 C113.915129,162.977822 114.006218,162.783762 114.006218,162.56198 C114.006218,162.268911 113.865624,162.005545 113.584436,161.771881 C113.303248,161.538218 112.865624,161.421386 112.271564,161.421386 C111.693347,161.421386 111.184436,161.552079 110.744832,161.813465 C110.305228,162.074851 109.934931,162.415446 109.633941,162.835248 C109.33295,163.25505 109.107208,163.704554 108.956713,164.183762 C108.806218,164.66297 108.73097,165.124356 108.73097,165.567921 C108.73097,166.122376 108.835921,166.579802 109.045822,166.940198 C109.255723,167.300594 109.536911,167.571881 109.889386,167.754059 C110.241861,167.936238 110.628,168.027327 111.047802,168.027327 Z M125.055723,167.908515 L125.162653,167.409505 L124.521069,167.409505 C124.275525,167.409505 124.071564,167.379802 123.909188,167.320396 C123.746812,167.26099 123.665624,167.132277 123.665624,166.934257 C123.665624,166.839208 123.681465,166.728317 123.713149,166.601584 L123.713149,166.601584 L125.245822,159.377822 L124.485426,159.377822 L123.52305,159.995644 C123.071564,160.288713 122.703248,160.496634 122.418099,160.619406 C122.13295,160.742178 121.851762,160.839208 121.574535,160.910495 C121.574535,161.092673 121.612158,161.245149 121.687406,161.367921 C121.762653,161.490693 121.883446,161.552079 122.049782,161.552079 C122.303248,161.552079 122.566614,161.443168 122.839881,161.225347 C123.113149,161.007525 123.447802,160.704554 123.843842,160.316436 L123.843842,160.316436 L123.891366,160.316436 C123.812158,160.625347 123.734931,160.936238 123.659683,161.249109 C123.584436,161.56198 123.515129,161.872871 123.451762,162.181782 L123.451762,162.181782 L122.52503,166.554059 C122.445822,166.926337 122.299287,167.16198 122.085426,167.26099 C121.871564,167.36 121.62998,167.409505 121.360673,167.409505 L121.360673,167.409505 L120.73097,167.409505 L120.635921,167.908515 L125.055723,167.908515 Z M131.768594,167.908515 L132.243842,165.876832 L131.744832,165.876832 L131.661663,166.066931 C131.558693,166.288713 131.428,166.492673 131.269584,166.678812 C131.111168,166.86495 130.849782,166.95802 130.485426,166.95802 L130.485426,166.95802 L127.72899,166.95802 L130.402257,164.55802 C130.940871,164.074851 131.392356,163.637228 131.756713,163.245149 C132.121069,162.853069 132.398297,162.478812 132.588396,162.122376 C132.778495,161.765941 132.873545,161.405545 132.873545,161.041188 C132.873545,160.502574 132.685426,160.078812 132.309188,159.769901 C131.93295,159.46099 131.372554,159.306535 130.628,159.306535 C130.081465,159.306535 129.614139,159.385743 129.22602,159.544158 C128.837901,159.702574 128.542851,159.904554 128.340871,160.150099 C128.138891,160.395644 128.037901,160.65703 128.037901,160.934257 C128.037901,161.203564 128.117109,161.397624 128.275525,161.516436 C128.433941,161.635248 128.635921,161.694653 128.881465,161.694653 C128.936911,161.377822 129.03196,161.082772 129.166614,160.809505 C129.301267,160.536238 129.483446,160.316436 129.713149,160.150099 C129.942851,159.983762 130.228,159.900594 130.568594,159.900594 C130.917109,159.900594 131.186416,160.011485 131.376515,160.233267 C131.566614,160.45505 131.661663,160.744158 131.661663,161.100594 C131.661663,161.441188 131.606218,161.773861 131.495327,162.098614 C131.384436,162.423366 131.186416,162.771881 130.901267,163.144158 C130.616119,163.516436 130.204238,163.944158 129.665624,164.427327 L129.665624,164.427327 L126.873545,166.946139 L126.62404,167.908515 L131.768594,167.908515 Z M135.736911,168.027327 C136.109188,168.027327 136.485426,167.979802 136.865624,167.884752 C137.245822,167.789703 137.598297,167.635248 137.92305,167.421386 C138.247802,167.207525 138.509188,166.920396 138.707208,166.56 C138.905228,166.199604 139.004238,165.75802 139.004238,165.235248 C139.004238,164.720396 138.843842,164.306535 138.52305,163.993663 C138.202257,163.680792 137.768594,163.496634 137.222059,163.441188 C137.752752,163.346139 138.194337,163.175842 138.546812,162.930297 C138.899287,162.684752 139.164634,162.393663 139.342851,162.05703 C139.521069,161.720396 139.610178,161.369901 139.610178,161.005545 C139.610178,160.466931 139.410178,160.049109 139.010178,159.752079 C138.610178,159.45505 138.081465,159.306535 137.42404,159.306535 C136.940871,159.306535 136.501267,159.371881 136.105228,159.502574 C135.709188,159.633267 135.394337,159.819406 135.160673,160.06099 C134.92701,160.302574 134.810178,160.585743 134.810178,160.910495 C134.810178,161.203564 134.895327,161.403564 135.065624,161.510495 C135.235921,161.617426 135.443842,161.670891 135.689386,161.670891 C135.760673,161.354059 135.857703,161.06297 135.980475,160.797624 C136.103248,160.532277 136.277505,160.316436 136.503248,160.150099 C136.72899,159.983762 137.020079,159.900594 137.376515,159.900594 C137.72503,159.900594 137.980475,160.001584 138.142851,160.203564 C138.305228,160.405545 138.386416,160.66495 138.386416,160.981782 C138.386416,161.425347 138.285426,161.815446 138.083446,162.152079 C137.881465,162.488713 137.606218,162.750099 137.257703,162.936238 C136.909188,163.122376 136.513149,163.215446 136.069584,163.215446 L136.069584,163.215446 L135.689386,163.215446 L135.570574,163.821386 L136.081465,163.821386 C136.612158,163.821386 137.02404,163.95604 137.317109,164.225347 C137.610178,164.494653 137.756713,164.874851 137.756713,165.365941 C137.756713,165.809505 137.669584,166.179802 137.495327,166.476832 C137.321069,166.773861 137.087406,166.997624 136.794337,167.148119 C136.501267,167.298614 136.176515,167.373861 135.820079,167.373861 C135.463644,167.373861 135.176515,167.300594 134.958693,167.154059 C134.740871,167.007525 134.582455,166.821386 134.483446,166.595644 C134.384436,166.369901 134.334931,166.138218 134.334931,165.900594 C134.089386,165.900594 133.877505,165.977822 133.699287,166.132277 C133.521069,166.286733 133.43196,166.502574 133.43196,166.779802 C133.43196,166.993663 133.505228,167.195644 133.651762,167.385743 C133.798297,167.575842 134.041861,167.730297 134.382455,167.849109 C134.72305,167.967921 135.174535,168.027327 135.736911,168.027327 Z M145.515129,167.908515 L145.622059,167.409505 L145.348792,167.409505 C145.103248,167.409505 144.899287,167.379802 144.736911,167.320396 C144.574535,167.26099 144.493347,167.132277 144.493347,166.934257 C144.493347,166.839208 144.509188,166.728317 144.540871,166.601584 L144.540871,166.601584 L144.754733,165.579802 L146.216119,165.579802 L146.358693,164.914455 L144.897307,164.914455 L146.061663,159.425347 L144.921069,159.425347 L140.049782,165.092673 L139.942851,165.579802 L143.614139,165.579802 L143.412158,166.554059 C143.33295,166.926337 143.186416,167.16198 142.972554,167.26099 C142.758693,167.36 142.517109,167.409505 142.247802,167.409505 L142.247802,167.409505 L141.72503,167.409505 L141.62998,167.908515 L145.515129,167.908515 Z M143.744832,164.914455 L141.047802,164.914455 L143.744832,161.754059 C143.83196,161.65901 143.940871,161.530297 144.071564,161.367921 C144.202257,161.205545 144.33295,161.035248 144.463644,160.85703 C144.594337,160.678812 144.703248,160.522376 144.790376,160.387723 C144.679485,160.752079 144.572554,161.140198 144.469584,161.552079 C144.366614,161.96396 144.279485,162.344158 144.208198,162.692673 L144.208198,162.692673 L143.744832,164.914455 Z M148.92503,168.027327 C149.62998,168.027327 150.233941,167.894653 150.736911,167.629307 C151.239881,167.36396 151.62602,167.005545 151.895327,166.554059 C152.164634,166.102574 152.299287,165.591683 152.299287,165.021386 C152.299287,164.316436 152.073545,163.775842 151.622059,163.399604 C151.170574,163.023366 150.564634,162.835248 149.804238,162.835248 C149.534931,162.835248 149.311168,162.85703 149.13295,162.900594 C148.954733,162.944158 148.798297,162.985743 148.663644,163.025347 L148.663644,163.025347 L149.447802,160.375842 L151.752752,160.375842 C151.966614,160.375842 152.111168,160.401584 152.186416,160.453069 C152.261663,160.504554 152.299287,160.573861 152.299287,160.66099 C152.299287,160.708515 152.295327,160.787723 152.287406,160.898614 C152.279485,161.009505 152.271564,161.116436 152.263644,161.219406 L152.263644,161.219406 L152.762653,161.219406 L153.083446,159.425347 L149.115129,159.425347 L147.843842,163.666931 L148.247802,163.750099 C148.414139,163.686733 148.596317,163.627327 148.794337,163.571881 C148.992356,163.516436 149.241861,163.488713 149.542851,163.488713 C149.978495,163.488713 150.340871,163.623366 150.62998,163.892673 C150.919089,164.16198 151.063644,164.565941 151.063644,165.104554 C151.063644,165.85703 150.877505,166.423366 150.505228,166.803564 C150.13295,167.183762 149.641861,167.373861 149.03196,167.373861 C148.691366,167.373861 148.428,167.310495 148.241861,167.183762 C148.055723,167.05703 147.92701,166.894653 147.855723,166.696634 C147.784436,166.498614 147.744832,166.300594 147.736911,166.102574 C147.428,166.102574 147.202257,166.169901 147.059683,166.304554 C146.917109,166.439208 146.845822,166.617426 146.845822,166.839208 C146.845822,167.16396 147.000277,167.443168 147.309188,167.676832 C147.618099,167.910495 148.156713,168.027327 148.92503,168.027327 Z M156.338891,168.027327 C156.996317,168.027327 157.538891,167.874851 157.966614,167.569901 C158.394337,167.26495 158.713149,166.868911 158.92305,166.381782 C159.13295,165.894653 159.237901,165.377822 159.237901,164.831287 C159.237901,164.451089 159.166614,164.104554 159.02404,163.791683 C158.881465,163.478812 158.661663,163.227327 158.364634,163.037228 C158.067604,162.847129 157.689386,162.752079 157.22998,162.752079 C156.849782,162.752079 156.509188,162.823366 156.208198,162.965941 C155.907208,163.108515 155.665624,163.243168 155.483446,163.369901 C155.768594,162.221386 156.134931,161.352079 156.582455,160.76198 C157.02998,160.171881 157.550772,159.876832 158.144832,159.876832 C158.390376,159.876832 158.568594,159.944158 158.679485,160.078812 C158.790376,160.213465 158.863644,160.385743 158.899287,160.595644 C158.934931,160.805545 158.952752,161.029307 158.952752,161.266931 C159.277505,161.266931 159.53097,161.187723 159.713149,161.029307 C159.895327,160.870891 159.986416,160.653069 159.986416,160.375842 C159.986416,160.090693 159.833941,159.841188 159.52899,159.627327 C159.22404,159.413465 158.770574,159.306535 158.168594,159.306535 C157.542851,159.306535 156.978495,159.468911 156.475525,159.793663 C155.972554,160.118416 155.544832,160.56 155.192356,161.118416 C154.839881,161.676832 154.570574,162.304554 154.384436,163.001584 C154.198297,163.698614 154.105228,164.415446 154.105228,165.152079 C154.105228,165.793663 154.206218,166.326337 154.408198,166.750099 C154.610178,167.173861 154.879485,167.492673 155.216119,167.706535 C155.552752,167.920396 155.92701,168.027327 156.338891,168.027327 Z M156.410178,167.373861 C156.037901,167.373861 155.740871,167.231287 155.519089,166.946139 C155.297307,166.66099 155.186416,166.209505 155.186416,165.591683 C155.186416,165.36198 155.200277,165.122376 155.228,164.872871 C155.255723,164.623366 155.297307,164.348119 155.352752,164.047129 C155.550772,163.880792 155.796317,163.724356 156.089386,163.577822 C156.382455,163.431287 156.683446,163.35802 156.992356,163.35802 C157.340871,163.35802 157.606218,163.490693 157.788396,163.75604 C157.970574,164.021386 158.061663,164.403564 158.061663,164.902574 C158.061663,165.369901 157.992356,165.789703 157.853743,166.16198 C157.715129,166.534257 157.52305,166.829307 157.277505,167.047129 C157.03196,167.26495 156.742851,167.373861 156.410178,167.373861 Z M162.208198,167.908515 L166.853743,159.769901 L166.92503,159.425347 L161.614139,159.425347 L161.103248,161.575842 L161.602257,161.575842 L161.768594,160.981782 C161.879485,160.577822 162.152752,160.375842 162.588396,160.375842 L162.588396,160.375842 L165.713149,160.375842 L161.317109,167.908515 L162.208198,167.908515 Z M169.43196,168.027327 C169.986416,168.027327 170.491366,167.938218 170.946812,167.76 C171.402257,167.581782 171.766614,167.306535 172.039881,166.934257 C172.313149,166.56198 172.449782,166.086733 172.449782,165.508515 C172.449782,165.025347 172.309188,164.615446 172.028,164.278812 C171.746812,163.942178 171.384436,163.643168 170.940871,163.381782 C171.574535,163.120396 172.077505,162.815446 172.449782,162.466931 C172.822059,162.118416 173.008198,161.643168 173.008198,161.041188 C173.008198,160.542178 172.820079,160.128317 172.443842,159.799604 C172.067604,159.470891 171.52701,159.306535 170.822059,159.306535 C170.148792,159.306535 169.604238,159.407525 169.188396,159.609505 C168.772554,159.811485 168.467604,160.086733 168.273545,160.435248 C168.079485,160.783762 167.982455,161.171881 167.982455,161.599604 C167.982455,161.971881 168.085426,162.330297 168.291366,162.674851 C168.497307,163.019406 168.782455,163.318416 169.146812,163.571881 C168.687406,163.738218 168.281465,163.924356 167.92899,164.130297 C167.576515,164.336238 167.299287,164.585743 167.097307,164.878812 C166.895327,165.171881 166.794337,165.540198 166.794337,165.983762 C166.794337,166.577822 167.02404,167.066931 167.483446,167.451089 C167.942851,167.835248 168.592356,168.027327 169.43196,168.027327 Z M170.370574,163.096634 C169.950772,162.866931 169.637901,162.623366 169.43196,162.365941 C169.22602,162.108515 169.12305,161.809505 169.12305,161.468911 C169.12305,160.985743 169.269584,160.603564 169.562653,160.322376 C169.855723,160.041188 170.243842,159.900594 170.72701,159.900594 C171.146812,159.900594 171.455723,160.017426 171.653743,160.251089 C171.851762,160.484752 171.950772,160.775842 171.950772,161.124356 C171.950772,161.536238 171.835921,161.904554 171.606218,162.229307 C171.376515,162.554059 170.964634,162.843168 170.370574,163.096634 Z M169.467604,167.445149 C168.984436,167.445149 168.608198,167.314455 168.338891,167.053069 C168.069584,166.791683 167.934931,166.443168 167.934931,166.007525 C167.934931,165.468911 168.093347,165.029307 168.410178,164.688713 C168.72701,164.348119 169.154733,164.078812 169.693347,163.880792 C170.23196,164.150099 170.637901,164.429307 170.911168,164.718416 C171.184436,165.007525 171.321069,165.365941 171.321069,165.793663 C171.321069,166.15802 171.235921,166.46297 171.065624,166.708515 C170.895327,166.954059 170.671564,167.138218 170.394337,167.26099 C170.117109,167.383762 169.808198,167.445149 169.467604,167.445149 Z M175.396317,168.027327 C175.903248,168.027327 176.356713,167.922376 176.756713,167.712475 C177.156713,167.502574 177.507208,167.219406 177.808198,166.86297 C178.109188,166.506535 178.368594,166.106535 178.586416,165.66297 C178.804238,165.219406 178.978495,164.75802 179.109188,164.278812 C179.239881,163.799604 179.336911,163.332277 179.400277,162.876832 C179.463644,162.421386 179.495327,162.011485 179.495327,161.647129 C179.495327,160.894653 179.299287,160.316436 178.907208,159.912475 C178.515129,159.508515 177.986416,159.306535 177.321069,159.306535 C176.758693,159.306535 176.237901,159.449109 175.758693,159.734257 C175.279485,160.019406 174.897307,160.413465 174.612158,160.916436 C174.32701,161.419406 174.184436,162.003564 174.184436,162.668911 C174.184436,163.247129 174.358693,163.720396 174.707208,164.088713 C175.055723,164.45703 175.550772,164.641188 176.192356,164.641188 C176.612158,164.641188 176.970574,164.55802 177.267604,164.391683 C177.564634,164.225347 177.812158,164.039208 178.010178,163.833267 C177.693347,164.989703 177.344832,165.880792 176.964634,166.506535 C176.584436,167.132277 176.093347,167.445149 175.491366,167.445149 C175.245822,167.445149 175.045822,167.385743 174.891366,167.266931 C174.736911,167.148119 174.62404,166.997624 174.552752,166.815446 C174.481465,166.633267 174.441861,166.451089 174.433941,166.268911 C174.212158,166.268911 174.039881,166.334257 173.917109,166.46495 C173.794337,166.595644 173.73295,166.76 173.73295,166.95802 C173.73295,167.132277 173.782455,167.300594 173.881465,167.46297 C173.980475,167.625347 174.150772,167.76 174.392356,167.866931 C174.633941,167.973861 174.968594,168.027327 175.396317,168.027327 Z M176.489386,163.987723 C176.148792,163.987723 175.877505,163.878812 175.675525,163.66099 C175.473545,163.443168 175.372554,163.124356 175.372554,162.704554 C175.372554,162.371881 175.420079,162.041188 175.515129,161.712475 C175.610178,161.383762 175.742851,161.088713 175.913149,160.827327 C176.083446,160.565941 176.285426,160.35604 176.519089,160.197624 C176.752752,160.039208 177.008198,159.96 177.285426,159.96 C177.610178,159.96 177.875525,160.084752 178.081465,160.334257 C178.287406,160.583762 178.390376,160.997624 178.390376,161.575842 C178.390376,161.750099 178.372554,161.975842 178.336911,162.253069 C178.301267,162.530297 178.255723,162.771881 178.200277,162.977822 C178.02602,163.223366 177.794337,163.451089 177.505228,163.66099 C177.216119,163.870891 176.877505,163.979802 176.489386,163.987723 Z M182.72701,168.039208 C183.218099,168.039208 183.655723,167.910495 184.039881,167.653069 C184.42404,167.395644 184.754733,167.049109 185.03196,166.613465 C185.309188,166.177822 185.538891,165.696634 185.721069,165.169901 C185.903248,164.643168 186.037901,164.106535 186.12503,163.56 C186.212158,163.013465 186.255723,162.498614 186.255723,162.015446 C186.255723,161.381782 186.154733,160.86495 185.952752,160.46495 C185.750772,160.06495 185.479485,159.769901 185.138891,159.579802 C184.798297,159.389703 184.418099,159.294653 183.998297,159.294653 C183.507208,159.294653 183.069584,159.417426 182.685426,159.66297 C182.301267,159.908515 181.968594,160.237228 181.687406,160.649109 C181.406218,161.06099 181.172554,161.522376 180.986416,162.033267 C180.800277,162.544158 180.661663,163.070891 180.570574,163.613465 C180.479485,164.15604 180.433941,164.672871 180.433941,165.16396 C180.433941,166.098614 180.645822,166.811485 181.069584,167.302574 C181.493347,167.793663 182.045822,168.039208 182.72701,168.039208 Z M182.822059,167.385743 C182.441861,167.385743 182.140871,167.237228 181.919089,166.940198 C181.697307,166.643168 181.586416,166.165941 181.586416,165.508515 C181.586416,165.088713 181.614139,164.631287 181.669584,164.136238 C181.72503,163.641188 181.808198,163.146139 181.919089,162.651089 C182.02998,162.15604 182.176515,161.704554 182.358693,161.296634 C182.540871,160.888713 182.756713,160.56 183.006218,160.310495 C183.255723,160.06099 183.546812,159.936238 183.879485,159.936238 C184.275525,159.936238 184.578495,160.082772 184.788396,160.375842 C184.998297,160.668911 185.103248,161.140198 185.103248,161.789703 C185.103248,162.209505 185.077505,162.668911 185.02602,163.167921 C184.974535,163.666931 184.893347,164.16396 184.782455,164.65901 C184.671564,165.154059 184.52701,165.607525 184.348792,166.019406 C184.170574,166.431287 183.954733,166.76198 183.701267,167.011485 C183.447802,167.26099 183.154733,167.385743 182.822059,167.385743 Z" id="notoserifitalic1234567890"></path>
            </g>
        </g>
    </g>
</svg>