<?xml version="1.0" encoding="UTF-8"?>
<svg width="181px" height="13px" viewBox="0 0 181 13" version="1.1" xmlns="http://www.w3.org/2000/svg" xmlns:xlink="http://www.w3.org/1999/xlink">
    <title>orbitronlight1234567890</title>
    <g id="页面-1" stroke="none" stroke-width="1" fill="none" fill-rule="evenodd">
        <g id="弃-增加英文字体分类" transform="translate(-748.000000, -199.000000)" fill="#FFFFFF" fill-rule="nonzero">
            <g id="编组-4" transform="translate(720.000000, 10.000000)">
                <path d="M34.2457386,199.009032 C34.6523858,199.009032 34.9984268,198.866315 35.2838618,198.58088 C35.5692968,198.295445 35.7120143,197.953314 35.7120143,197.554487 L35.7120143,197.554487 L35.7120143,193.495836 C35.7120143,193.097009 35.5692968,192.754878 35.2838618,192.469443 C34.9984268,192.184008 34.6523858,192.041291 34.2457386,192.041291 L34.2457386,192.041291 L30.0639205,192.041291 C29.6650935,192.041291 29.3229625,192.184008 29.0375275,192.469443 C28.7520925,192.754878 28.609375,193.097009 28.609375,193.495836 L28.609375,193.495836 L28.609375,197.554487 C28.609375,197.953314 28.7520925,198.295445 29.0375275,198.58088 C29.3229625,198.866315 29.6650935,199.009032 30.0639205,199.009032 L30.0639205,199.009032 L34.2457386,199.009032 Z M34.2457386,198.023695 L30.0639205,198.023695 C29.9348882,198.023695 29.8244288,197.977752 29.7325422,197.885865 C29.6406555,197.793979 29.5947122,197.683519 29.5947122,197.554487 L29.5947122,197.554487 L29.5947122,193.495836 C29.5947122,193.366804 29.6406555,193.256344 29.7325422,193.164458 C29.8244288,193.072571 29.9348882,193.026628 30.0639205,193.026628 L30.0639205,193.026628 L34.2457386,193.026628 C34.3747709,193.026628 34.4852303,193.072571 34.5771169,193.164458 C34.6690035,193.256344 34.7149468,193.366804 34.7149468,193.495836 L34.7149468,193.495836 L34.7149468,197.554487 C34.7149468,197.683519 34.6690035,197.793979 34.5771169,197.885865 C34.4852303,197.977752 34.3747709,198.023695 34.2457386,198.023695 L34.2457386,198.023695 Z M37.9172929,199.009032 L37.9172929,193.495836 C37.9172929,193.366804 37.9632362,193.256344 38.0551228,193.164458 C38.1470094,193.072571 38.2574688,193.026628 38.3865011,193.026628 L38.3865011,193.026628 L42.3043897,193.026628 L42.3043897,192.041291 L38.3865011,192.041291 C37.9876741,192.041291 37.6455431,192.184008 37.3601081,192.469443 C37.0746731,192.754878 36.9319556,193.097009 36.9319556,193.495836 L36.9319556,193.495836 L36.9319556,199.009032 L37.9172929,199.009032 Z M48.7501375,199.009032 C49.1528745,199.009032 49.495983,198.866315 49.779463,198.58088 C50.0629429,198.295445 50.2046829,197.953314 50.2046829,197.554487 L50.2046829,197.554487 L50.2046829,193.495836 C50.2046829,193.097009 50.0619654,192.754878 49.7765304,192.469443 C49.4910954,192.184008 49.1489644,192.041291 48.7501375,192.041291 L48.7501375,192.041291 L44.093246,192.041291 L44.093246,189.759766 L43.1079087,189.759766 L43.1079087,199.009032 L48.7501375,199.009032 Z M48.7501375,198.023695 L44.5683193,198.023695 C44.4431971,198.023695 44.3327377,197.977752 44.236941,197.885865 C44.1411443,197.793979 44.093246,197.683519 44.093246,197.554487 L44.093246,197.554487 L44.093246,193.495836 C44.093246,193.366804 44.1401668,193.256344 44.2340084,193.164458 C44.3278501,193.072571 44.439287,193.026628 44.5683193,193.026628 L44.5683193,193.026628 L48.7501375,193.026628 C48.8791697,193.026628 48.9896292,193.072571 49.0815158,193.164458 C49.1734024,193.256344 49.2193457,193.366804 49.2193457,193.495836 L49.2193457,193.495836 L49.2193457,197.554487 C49.2193457,197.683519 49.1734024,197.793979 49.0815158,197.885865 C48.9896292,197.977752 48.8791697,198.023695 48.7501375,198.023695 L48.7501375,198.023695 Z M52.0756507,190.745103 L52.0756507,189.759766 L51.0903134,189.759766 L51.0903134,190.745103 L52.0756507,190.745103 Z M52.0756507,199.009032 L52.0756507,192.041291 L51.0903134,192.041291 L51.0903134,199.009032 L52.0756507,199.009032 Z M57.6005773,199.009032 L57.6005773,198.023695 L55.0492577,198.023695 C54.9241355,198.023695 54.8146536,197.977752 54.720812,197.885865 C54.6269703,197.793979 54.5800495,197.683519 54.5800495,197.554487 L54.5800495,197.554487 L54.5800495,193.026628 L57.6005773,193.026628 L57.6005773,192.041291 L54.5800495,192.041291 L54.5800495,189.759766 L53.6005773,189.759766 L53.6005773,197.554487 C53.6005773,197.953314 53.7403623,198.295445 54.0199322,198.58088 C54.2995021,198.866315 54.6426106,199.009032 55.0492577,199.009032 L55.0492577,199.009032 L57.6005773,199.009032 Z M59.4891404,199.009032 L59.4891404,193.495836 C59.4891404,193.366804 59.5350837,193.256344 59.6269703,193.164458 C59.7188569,193.072571 59.8293163,193.026628 59.9583486,193.026628 L59.9583486,193.026628 L63.8762372,193.026628 L63.8762372,192.041291 L59.9583486,192.041291 C59.5595216,192.041291 59.2173906,192.184008 58.9319556,192.469443 C58.6465207,192.754878 58.5038032,193.097009 58.5038032,193.495836 L58.5038032,193.495836 L58.5038032,199.009032 L59.4891404,199.009032 Z M70.2750641,199.009032 C70.6817113,199.009032 71.0277523,198.866315 71.3131873,198.58088 C71.5986223,198.295445 71.7413398,197.953314 71.7413398,197.554487 L71.7413398,197.554487 L71.7413398,193.495836 C71.7413398,193.097009 71.5986223,192.754878 71.3131873,192.469443 C71.0277523,192.184008 70.6817113,192.041291 70.2750641,192.041291 L70.2750641,192.041291 L66.093246,192.041291 C65.694419,192.041291 65.352288,192.184008 65.066853,192.469443 C64.781418,192.754878 64.6387005,193.097009 64.6387005,193.495836 L64.6387005,193.495836 L64.6387005,197.554487 C64.6387005,197.953314 64.781418,198.295445 65.066853,198.58088 C65.352288,198.866315 65.694419,199.009032 66.093246,199.009032 L66.093246,199.009032 L70.2750641,199.009032 Z M70.2750641,198.023695 L66.093246,198.023695 C65.9642137,198.023695 65.8537543,197.977752 65.7618677,197.885865 C65.6699811,197.793979 65.6240378,197.683519 65.6240378,197.554487 L65.6240378,197.554487 L65.6240378,193.495836 C65.6240378,193.366804 65.6699811,193.256344 65.7618677,193.164458 C65.8537543,193.072571 65.9642137,193.026628 66.093246,193.026628 L66.093246,193.026628 L70.2750641,193.026628 C70.4040964,193.026628 70.5145558,193.072571 70.6064424,193.164458 C70.6983291,193.256344 70.7442724,193.366804 70.7442724,193.495836 L70.7442724,193.495836 L70.7442724,197.554487 C70.7442724,197.683519 70.6983291,197.793979 70.6064424,197.885865 C70.5145558,197.977752 70.4040964,198.023695 70.2750641,198.023695 L70.2750641,198.023695 Z M73.9759439,199.009032 L73.9759439,193.495836 C73.9759439,193.366804 74.0228647,193.256344 74.1167064,193.164458 C74.210548,193.072571 74.321985,193.026628 74.4510172,193.026628 L74.4510172,193.026628 L78.6328354,193.026628 C78.7618677,193.026628 78.8723271,193.072571 78.9642137,193.164458 C79.0561003,193.256344 79.1020436,193.366804 79.1020436,193.495836 L79.1020436,193.495836 L79.1020436,199.009032 L80.0873809,199.009032 L80.0873809,193.495836 C80.0873809,193.097009 79.9446634,192.754878 79.6592284,192.469443 C79.3737934,192.184008 79.0316624,192.041291 78.6328354,192.041291 L78.6328354,192.041291 L72.9906067,192.041291 L72.9906067,199.009032 L73.9759439,199.009032 Z M87.2193457,199.009032 L87.2193457,198.023695 L86.04046,198.023695 C85.9153379,198.023695 85.8058559,197.977752 85.7120143,197.885865 C85.6181727,197.793979 85.5712518,197.683519 85.5712518,197.554487 L85.5712518,197.554487 L85.5712518,189.759766 L84.5859146,189.759766 L84.5859146,197.554487 C84.5859146,197.953314 84.7286321,198.295445 85.0140671,198.58088 C85.2995021,198.866315 85.6416331,199.009032 86.04046,199.009032 L86.04046,199.009032 L87.2193457,199.009032 Z M89.1958853,190.745103 L89.1958853,189.759766 L88.210548,189.759766 L88.210548,190.745103 L89.1958853,190.745103 Z M89.1958853,199.009032 L89.1958853,192.041291 L88.210548,192.041291 L88.210548,199.009032 L89.1958853,199.009032 Z M96.2046829,201.759766 C96.6152401,201.759766 96.9603036,201.617048 97.2398735,201.331613 C97.5194434,201.046178 97.6592284,200.700137 97.6592284,200.29349 L97.6592284,200.29349 L97.6592284,193.495836 C97.6592284,193.097009 97.5184659,192.754878 97.236941,192.469443 C96.9554161,192.184008 96.61133,192.041291 96.2046829,192.041291 L96.2046829,192.041291 L92.0287298,192.041291 C91.6259928,192.041291 91.2828843,192.184008 90.9994043,192.469443 C90.7159244,192.754878 90.5741844,193.097009 90.5741844,193.495836 L90.5741844,193.495836 L90.5741844,197.554487 C90.5741844,197.953314 90.7169019,198.295445 91.0023369,198.58088 C91.2877719,198.866315 91.6299029,199.009032 92.0287298,199.009032 L92.0287298,199.009032 L96.6738911,199.009032 L96.6738911,200.29349 C96.6738911,200.422522 96.6279478,200.532982 96.5360612,200.624868 C96.4441746,200.716755 96.3337152,200.762698 96.2046829,200.762698 L96.2046829,200.762698 L91.8586419,200.762698 L91.8586419,201.759766 L96.2046829,201.759766 Z M96.2046829,198.023695 L92.0287298,198.023695 C91.8996976,198.023695 91.7892381,197.977752 91.6973515,197.885865 C91.6054649,197.793979 91.5595216,197.683519 91.5595216,197.554487 L91.5595216,197.554487 L91.5595216,193.495836 C91.5595216,193.366804 91.6054649,193.256344 91.6973515,193.164458 C91.7892381,193.072571 91.8996976,193.026628 92.0287298,193.026628 L92.0287298,193.026628 L96.2046829,193.026628 C96.3337152,193.026628 96.4441746,193.072571 96.5360612,193.164458 C96.6279478,193.256344 96.6738911,193.366804 96.6738911,193.495836 L96.6738911,193.495836 L96.6738911,197.554487 C96.6738911,197.683519 96.6279478,197.793979 96.5360612,197.885865 C96.4441746,197.977752 96.3337152,198.023695 96.2046829,198.023695 L96.2046829,198.023695 Z M99.9172929,199.009032 L99.9172929,193.495836 C99.9172929,193.366804 99.9642137,193.256344 100.058055,193.164458 C100.151897,193.072571 100.263334,193.026628 100.392366,193.026628 L100.392366,193.026628 L104.574184,193.026628 C104.703217,193.026628 104.813676,193.072571 104.905563,193.164458 C104.997449,193.256344 105.043393,193.366804 105.043393,193.495836 L105.043393,193.495836 L105.043393,199.009032 L106.02873,199.009032 L106.02873,193.495836 C106.02873,193.097009 105.886012,192.754878 105.600577,192.469443 C105.315142,192.184008 104.973011,192.041291 104.574184,192.041291 L104.574184,192.041291 L99.9172929,192.041291 L99.9172929,189.759766 L98.9319556,189.759766 L98.9319556,199.009032 L99.9172929,199.009032 Z M110.943686,199.009032 L110.943686,198.023695 L108.392366,198.023695 C108.267244,198.023695 108.157762,197.977752 108.06392,197.885865 C107.970079,197.793979 107.923158,197.683519 107.923158,197.554487 L107.923158,197.554487 L107.923158,193.026628 L110.943686,193.026628 L110.943686,192.041291 L107.923158,192.041291 L107.923158,189.759766 L106.943686,189.759766 L106.943686,197.554487 C106.943686,197.953314 107.083471,198.295445 107.363041,198.58088 C107.642611,198.866315 107.985719,199.009032 108.392366,199.009032 L108.392366,199.009032 L110.943686,199.009032 Z M121.383569,199.009032 L121.383569,190.358006 L120.04046,190.358006 L117.770665,193.061818 L119.055123,193.061818 L119.723745,192.27003 C120.0561,191.879023 120.278974,191.611183 120.392366,191.46651 L120.392366,191.46651 L120.392366,199.009032 L121.383569,199.009032 Z M131.870372,199.009032 L131.870372,198.023695 L124.59178,198.023695 C124.462747,198.023695 124.352288,197.977752 124.260401,197.885865 C124.168515,197.793979 124.122571,197.683519 124.122571,197.554487 L124.122571,197.554487 L124.122571,195.765631 C124.122571,195.636598 124.168515,195.526139 124.260401,195.434252 C124.352288,195.342366 124.462747,195.296423 124.59178,195.296423 L124.59178,195.296423 L130.415827,195.296423 C130.814654,195.296423 131.156785,195.153705 131.44222,194.86827 C131.727655,194.582835 131.870372,194.240704 131.870372,193.841877 L131.870372,193.841877 L131.870372,191.812552 C131.870372,191.405904 131.727655,191.059863 131.44222,190.774428 C131.156785,190.488993 130.814654,190.346276 130.415827,190.346276 L130.415827,190.346276 L124.59178,190.346276 C124.181223,190.346276 123.836159,190.488993 123.556589,190.774428 C123.277019,191.059863 123.137234,191.405904 123.137234,191.812552 L123.137234,191.812552 L123.137234,192.152728 L124.122571,192.152728 L124.122571,191.812552 C124.122571,191.683519 124.168515,191.57306 124.260401,191.481173 C124.352288,191.389287 124.462747,191.343343 124.59178,191.343343 L124.59178,191.343343 L130.415827,191.343343 C130.544859,191.343343 130.655318,191.389287 130.747205,191.481173 C130.839092,191.57306 130.885035,191.683519 130.885035,191.812552 L130.885035,191.812552 L130.885035,193.841877 C130.885035,193.970909 130.839092,194.081369 130.747205,194.173255 C130.655318,194.265142 130.544859,194.311085 130.415827,194.311085 L130.415827,194.311085 L124.59178,194.311085 C124.181223,194.311085 123.836159,194.451848 123.556589,194.733373 C123.277019,195.014898 123.137234,195.358984 123.137234,195.765631 L123.137234,195.765631 L123.137234,199.009032 L131.870372,199.009032 Z M140.345445,199.009032 C140.744272,199.009032 141.085426,198.866315 141.368906,198.58088 C141.652386,198.295445 141.794196,197.953314 141.794196,197.554487 L141.794196,197.554487 L141.794196,195.548622 C141.798036,195.126335 141.639678,194.766608 141.319052,194.469443 L141.319052,194.469443 L141.266266,194.252434 C141.364018,194.041291 141.412894,193.832102 141.412894,193.624868 L141.412894,193.624868 L141.412894,191.812552 C141.412894,191.405904 141.272132,191.059863 140.990607,190.774428 C140.709082,190.488993 140.364996,190.346276 139.958349,190.346276 L139.958349,190.346276 L134.515533,190.346276 C134.108886,190.346276 133.763823,190.488993 133.480343,190.774428 C133.196863,191.059863 133.055123,191.405904 133.055123,191.812552 L133.055123,191.812552 L133.055123,192.123402 L134.05219,192.123402 L134.05219,191.812552 C134.05219,191.683519 134.097156,191.57306 134.187088,191.481173 C134.277019,191.389287 134.386501,191.343343 134.515533,191.343343 L134.515533,191.343343 L139.958349,191.343343 C140.087381,191.343343 140.19784,191.389287 140.289727,191.481173 C140.381614,191.57306 140.427557,191.683519 140.427557,191.812552 L140.427557,191.812552 L140.427557,193.624868 C140.427557,193.753901 140.381614,193.86436 140.289727,193.956247 C140.19784,194.048133 140.087381,194.094076 139.958349,194.094076 L139.958349,194.094076 L134.709082,194.094076 L134.709082,195.079414 L140.345445,195.079414 C140.470568,195.079414 140.580049,195.125357 140.673891,195.217244 C140.767733,195.30913 140.814654,195.41959 140.814654,195.548622 L140.814654,195.548622 L140.814654,197.554487 C140.814654,197.683519 140.76871,197.793979 140.676824,197.885865 C140.584937,197.977752 140.474478,198.023695 140.345445,198.023695 L140.345445,198.023695 L134.515533,198.023695 C134.390411,198.023695 134.281907,197.977752 134.19002,197.885865 C134.098134,197.793979 134.05219,197.683519 134.05219,197.554487 L134.05219,197.554487 L134.05219,197.360939 L133.055123,197.360939 L133.055123,197.554487 C133.055123,197.953314 133.196863,198.295445 133.480343,198.58088 C133.763823,198.866315 134.108886,199.009032 134.515533,199.009032 L134.515533,199.009032 L140.345445,199.009032 Z M149.418759,199.009032 L149.418759,196.774428 L150.767733,196.774428 L150.767733,195.789091 L149.418759,195.789091 L149.418759,190.346276 L148.31612,190.346276 L142.404096,195.671789 L142.404096,196.774428 L148.433422,196.774428 L148.433422,199.009032 L149.418759,199.009032 Z M148.433422,195.789091 L143.665093,195.789091 L148.433422,191.923988 L148.433422,195.789091 Z M159.066853,199.009032 C159.46568,199.009032 159.807811,198.866315 160.093246,198.58088 C160.378681,198.295445 160.521398,197.953314 160.521398,197.554487 L160.521398,197.554487 L160.521398,195.513431 C160.521398,195.106784 160.378681,194.762698 160.093246,194.481173 C159.807811,194.199648 159.46568,194.058886 159.066853,194.058886 L159.066853,194.058886 L153.242806,194.058886 C153.113774,194.058886 153.003314,194.010988 152.911428,193.915191 C152.819541,193.819394 152.773598,193.70698 152.773598,193.577947 L152.773598,193.577947 L152.773598,191.812552 C152.773598,191.683519 152.819541,191.57306 152.911428,191.481173 C153.003314,191.389287 153.113774,191.343343 153.242806,191.343343 L153.242806,191.343343 L160.521398,191.343343 L160.521398,190.346276 L151.788261,190.346276 L151.788261,195.044223 L159.066853,195.044223 C159.195885,195.044223 159.306345,195.090166 159.398231,195.182053 C159.490118,195.27394 159.536061,195.384399 159.536061,195.513431 L159.536061,195.513431 L159.536061,197.554487 C159.536061,197.683519 159.490118,197.793979 159.398231,197.885865 C159.306345,197.977752 159.195885,198.023695 159.066853,198.023695 L159.066853,198.023695 L153.242806,198.023695 C153.113774,198.023695 153.003314,197.977752 152.911428,197.885865 C152.819541,197.793979 152.773598,197.683519 152.773598,197.554487 L152.773598,197.554487 L152.773598,197.208446 L151.788261,197.208446 L151.788261,197.554487 C151.788261,197.953314 151.929023,198.295445 152.210548,198.58088 C152.492073,198.866315 152.836159,199.009032 153.242806,199.009032 L153.242806,199.009032 L159.066853,199.009032 Z M169.031662,199.009032 C169.430489,199.009032 169.77262,198.866315 170.058055,198.58088 C170.34349,198.295445 170.486208,197.953314 170.486208,197.554487 L170.486208,197.554487 L170.486208,195.478241 C170.486208,195.067684 170.34349,194.72262 170.058055,194.44305 C169.77262,194.16348 169.430489,194.023695 169.031662,194.023695 L169.031662,194.023695 L163.207615,194.023695 C163.078583,194.023695 162.968124,193.975797 162.876237,193.88 C162.784351,193.784204 162.738407,193.671789 162.738407,193.542757 L162.738407,193.542757 L162.738407,191.812552 C162.738407,191.683519 162.784351,191.57306 162.876237,191.481173 C162.968124,191.389287 163.078583,191.343343 163.207615,191.343343 L163.207615,191.343343 L168.973011,191.343343 L168.973011,190.346276 L163.207615,190.346276 C162.797058,190.346276 162.451995,190.488993 162.172425,190.774428 C161.892855,191.059863 161.75307,191.405904 161.75307,191.812552 L161.75307,191.812552 L161.75307,197.554487 C161.75307,197.953314 161.893832,198.295445 162.175357,198.58088 C162.456882,198.866315 162.800968,199.009032 163.207615,199.009032 L163.207615,199.009032 L169.031662,199.009032 Z M169.031662,198.023695 L163.207615,198.023695 C163.078583,198.023695 162.968124,197.977752 162.876237,197.885865 C162.784351,197.793979 162.738407,197.683519 162.738407,197.554487 L162.738407,197.554487 L162.738407,195.009032 L169.031662,195.009032 C169.160695,195.009032 169.271154,195.054976 169.363041,195.146862 C169.454927,195.238749 169.500871,195.349208 169.500871,195.478241 L169.500871,195.478241 L169.500871,197.554487 C169.500871,197.683519 169.454927,197.793979 169.363041,197.885865 C169.271154,197.977752 169.160695,198.023695 169.031662,198.023695 L169.031662,198.023695 Z M178.169492,199.009032 L178.169492,191.812552 C178.169492,191.405904 178.026775,191.059863 177.74134,190.774428 C177.455905,190.488993 177.113774,190.346276 176.714947,190.346276 L176.714947,190.346276 L170.949551,190.346276 L170.949551,191.343343 L176.714947,191.343343 C176.843979,191.343343 176.954439,191.389287 177.046325,191.481173 C177.138212,191.57306 177.184155,191.683519 177.184155,191.812552 L177.184155,191.812552 L177.184155,199.009032 L178.169492,199.009032 Z M186.802923,199.009032 C187.20175,199.009032 187.543881,198.866315 187.829316,198.58088 C188.114751,198.295445 188.257469,197.953314 188.257469,197.554487 L188.257469,197.554487 L188.257469,195.513431 C188.253559,195.184986 188.132347,194.86436 187.893832,194.551554 C188.136257,194.223109 188.257469,193.898573 188.257469,193.577947 L188.257469,193.577947 L188.257469,191.572082 C188.159717,191.243637 187.973011,190.957224 187.697352,190.712845 C187.421692,190.468466 187.123549,190.346276 186.802923,190.346276 L186.802923,190.346276 L180.978876,190.346276 C180.568319,190.346276 180.223256,190.488993 179.943686,190.774428 C179.664116,191.059863 179.524331,191.405904 179.524331,191.812552 L179.524331,191.812552 L179.524331,193.577947 C179.524331,193.898573 179.643588,194.223109 179.882102,194.551554 C179.643588,194.86436 179.524331,195.184986 179.524331,195.513431 L179.524331,195.513431 L179.524331,197.554487 C179.524331,197.953314 179.665093,198.295445 179.946618,198.58088 C180.228143,198.866315 180.572229,199.009032 180.978876,199.009032 L180.978876,199.009032 L186.802923,199.009032 Z M186.802923,194.193783 L180.978876,194.193783 C180.849844,194.193783 180.739385,194.14784 180.647498,194.055953 C180.555612,193.964067 180.509668,193.853607 180.509668,193.724575 L180.509668,193.724575 L180.509668,191.824282 C180.509668,191.69916 180.555612,191.589678 180.647498,191.495836 C180.739385,191.401994 180.849844,191.355074 180.978876,191.355074 L180.978876,191.355074 L186.802923,191.355074 C186.931956,191.355074 187.042415,191.401017 187.134302,191.492903 C187.226188,191.58479 187.272132,191.695249 187.272132,191.824282 L187.272132,191.824282 L187.272132,193.724575 C187.272132,193.853607 187.226188,193.964067 187.134302,194.055953 C187.042415,194.14784 186.931956,194.193783 186.802923,194.193783 L186.802923,194.193783 Z M186.802923,198.023695 L180.978876,198.023695 C180.849844,198.023695 180.739385,197.977752 180.647498,197.885865 C180.555612,197.793979 180.509668,197.683519 180.509668,197.554487 L180.509668,197.554487 L180.509668,195.513431 C180.509668,195.384399 180.555612,195.27394 180.647498,195.182053 C180.739385,195.090166 180.849844,195.044223 180.978876,195.044223 L180.978876,195.044223 L186.802923,195.044223 C186.931956,195.044223 187.042415,195.090166 187.134302,195.182053 C187.226188,195.27394 187.272132,195.384399 187.272132,195.513431 L187.272132,195.513431 L187.272132,197.554487 C187.272132,197.683519 187.226188,197.793979 187.134302,197.885865 C187.042415,197.977752 186.931956,198.023695 186.802923,198.023695 L186.802923,198.023695 Z M196.761868,199.009032 C197.160695,199.009032 197.501848,198.866315 197.785328,198.58088 C198.068808,198.295445 198.210548,197.953314 198.210548,197.554487 L198.210548,197.554487 L198.210548,191.812552 C198.210548,191.405904 198.068808,191.059863 197.785328,190.774428 C197.501848,190.488993 197.160695,190.346276 196.761868,190.346276 L196.761868,190.346276 L190.931956,190.346276 C190.525309,190.346276 190.179267,190.488993 189.893832,190.774428 C189.608397,191.059863 189.46568,191.405904 189.46568,191.812552 L189.46568,191.812552 L189.46568,193.894663 C189.46568,194.29349 189.608397,194.634643 189.893832,194.918123 C190.179267,195.201603 190.525309,195.343343 190.931956,195.343343 L190.931956,195.343343 L196.761868,195.343343 C196.88699,195.343343 196.995494,195.389287 197.087381,195.481173 C197.179267,195.57306 197.225211,195.683519 197.225211,195.812552 L197.225211,195.812552 L197.225211,197.554487 C197.225211,197.683519 197.180245,197.793979 197.090313,197.885865 C197.000382,197.977752 196.8909,198.023695 196.761868,198.023695 L196.761868,198.023695 L189.553657,198.023695 C189.647498,198.31304 189.822474,198.549599 190.078583,198.733373 C190.334693,198.917146 190.61915,199.009032 190.931956,199.009032 L190.931956,199.009032 L196.761868,199.009032 Z M197.225211,194.358006 L190.931956,194.358006 C190.806833,194.358006 190.697352,194.31304 190.60351,194.223109 C190.509668,194.133177 190.462747,194.023695 190.462747,193.894663 L190.462747,193.894663 L190.462747,191.812552 C190.462747,191.683519 190.508691,191.57306 190.600577,191.481173 C190.692464,191.389287 190.802923,191.343343 190.931956,191.343343 L190.931956,191.343343 L196.761868,191.343343 C196.88699,191.343343 196.995494,191.389287 197.087381,191.481173 C197.179267,191.57306 197.225211,191.683519 197.225211,191.812552 L197.225211,191.812552 L197.225211,194.358006 Z M206.761868,199.009032 C207.160695,199.009032 207.502826,198.866315 207.788261,198.58088 C208.073696,198.295445 208.216413,197.953314 208.216413,197.554487 L208.216413,197.554487 L208.216413,191.824282 C208.216413,191.417635 208.073696,191.071594 207.788261,190.786159 C207.502826,190.500724 207.160695,190.358006 206.761868,190.358006 L206.761868,190.358006 L200.937821,190.358006 C200.527264,190.358006 200.1822,190.500724 199.90263,190.786159 C199.62306,191.071594 199.483275,191.417635 199.483275,191.824282 L199.483275,191.824282 L199.483275,197.554487 C199.483275,197.953314 199.624038,198.295445 199.905563,198.58088 C200.187088,198.866315 200.531174,199.009032 200.937821,199.009032 L200.937821,199.009032 L206.761868,199.009032 Z M200.468613,196.833079 L200.468613,191.824282 C200.468613,191.69916 200.514556,191.589678 200.606442,191.495836 C200.698329,191.401994 200.808788,191.355074 200.937821,191.355074 L200.937821,191.355074 L207.096179,191.355074 L200.468613,196.833079 Z M206.761868,198.023695 L200.585915,198.023695 L207.231076,192.545689 L207.231076,197.554487 C207.231076,197.683519 207.185133,197.793979 207.093246,197.885865 C207.001359,197.977752 206.8909,198.023695 206.761868,198.023695 L206.761868,198.023695 Z" id="orbitronlight1234567890"></path>
            </g>
        </g>
    </g>
</svg>