<?xml version="1.0" encoding="UTF-8"?>
<svg width="249px" height="13px" viewBox="0 0 249 13" version="1.1" xmlns="http://www.w3.org/2000/svg" xmlns:xlink="http://www.w3.org/1999/xlink">
    <title>orbitronblack1234567890</title>
    <g id="页面-1" stroke="none" stroke-width="1" fill="none" fill-rule="evenodd">
        <g id="弃-增加英文字体分类" transform="translate(-748.000000, -230.000000)" fill="#FFFFFF" fill-rule="nonzero">
            <g id="编组-4" transform="translate(720.000000, 10.000000)">
                <path d="M35.509945,232.748047 C36.1331242,232.748047 36.6651065,232.525121 37.1058918,232.079269 C37.5466771,231.633417 37.7670697,231.103968 37.7670697,230.490922 L37.7670697,230.490922 L37.7670697,225.976673 C37.7670697,225.363626 37.5466771,224.834177 37.1058918,224.388326 C36.6651065,223.942474 36.1331242,223.719548 35.509945,223.719548 L35.509945,223.719548 L30.8664998,223.719548 C30.25852,223.719548 29.7303376,223.942474 29.2819526,224.388326 C28.8335675,224.834177 28.609375,225.363626 28.609375,225.976673 L28.609375,225.976673 L28.609375,230.490922 C28.609375,231.103968 28.8323009,231.633417 29.2781527,232.079269 C29.7240045,232.525121 30.2534535,232.748047 30.8664998,232.748047 L30.8664998,232.748047 L35.509945,232.748047 Z M35.3807493,230.369326 L30.9956955,230.369326 L30.9956955,226.105868 L35.3807493,226.105868 L35.3807493,230.369326 Z M41.779736,232.748047 L41.779736,226.105868 L46.6511736,226.105868 L46.6511736,223.719548 L41.6733395,223.719548 C41.0501603,223.719548 40.5143782,223.942474 40.0659931,224.388326 C39.6176081,224.834177 39.3934155,225.363626 39.3934155,225.976673 L39.3934155,225.976673 L39.3934155,232.748047 L41.779736,232.748047 Z M54.5093117,232.748047 C55.1324909,232.748047 55.6644732,232.525121 56.1052585,232.079269 C56.5460438,231.633417 56.7664364,231.103968 56.7664364,230.490922 L56.7664364,230.490922 L56.7664364,225.976673 C56.7664364,225.363626 56.5460438,224.834177 56.1052585,224.388326 C55.6644732,223.942474 55.1324909,223.719548 54.5093117,223.719548 L54.5093117,223.719548 L49.9950621,223.719548 L49.9950621,220.763246 L47.6163414,220.763246 L47.6163414,232.748047 L54.5093117,232.748047 Z M54.380116,230.369326 L49.9950621,230.369326 L49.9950621,226.105868 L54.380116,226.105868 L54.380116,230.369326 Z M60.3459171,223.157167 L60.3459171,220.763246 L57.9595967,220.763246 L57.9595967,223.157167 L60.3459171,223.157167 Z M60.3459171,232.748047 L60.3459171,223.719548 L57.9595967,223.719548 L57.9595967,232.748047 L60.3459171,232.748047 Z M67.2616866,232.748047 L67.2616866,230.369326 L63.9177981,230.369326 L63.9177981,226.105868 L67.2616866,226.105868 L67.2616866,223.719548 L63.9177981,223.719548 L63.9177981,221.044437 L61.5390773,221.044437 L61.5390773,230.490922 C61.5390773,231.103968 61.75947,231.633417 62.2002553,232.079269 C62.6410406,232.525121 63.1780894,232.748047 63.8114016,232.748047 L63.8114016,232.748047 L67.2616866,232.748047 Z M70.9171647,232.748047 L70.9171647,226.105868 L75.7886024,226.105868 L75.7886024,223.719548 L70.8107683,223.719548 C70.1875891,223.719548 69.6518069,223.942474 69.2034219,224.388326 C68.7550368,224.834177 68.5308443,225.363626 68.5308443,225.976673 L68.5308443,225.976673 L68.5308443,232.748047 L70.9171647,232.748047 Z M83.6011419,232.748047 C84.2243212,232.748047 84.7563034,232.525121 85.1970887,232.079269 C85.6378741,231.633417 85.8582667,231.103968 85.8582667,230.490922 L85.8582667,230.490922 L85.8582667,225.976673 C85.8582667,225.363626 85.6378741,224.834177 85.1970887,224.388326 C84.7563034,223.942474 84.2243212,223.719548 83.6011419,223.719548 L83.6011419,223.719548 L78.9576967,223.719548 C78.349717,223.719548 77.8215346,223.942474 77.3731495,224.388326 C76.9247645,224.834177 76.700572,225.363626 76.700572,225.976673 L76.700572,225.976673 L76.700572,230.490922 C76.700572,231.103968 76.9234979,231.633417 77.3693497,232.079269 C77.8152015,232.525121 78.3446505,232.748047 78.9576967,232.748047 L78.9576967,232.748047 L83.6011419,232.748047 Z M83.4719462,230.369326 L79.0868924,230.369326 L79.0868924,226.105868 L83.4719462,226.105868 L83.4719462,230.369326 Z M89.9013319,232.748047 L89.9013319,226.105868 L94.2863858,226.105868 L94.2863858,232.748047 L96.6727062,232.748047 L96.6727062,225.976673 C96.6727062,225.363626 96.4523136,224.834177 96.0115283,224.388326 C95.570743,223.942474 95.0387607,223.719548 94.4155815,223.719548 L94.4155815,223.719548 L87.5226112,223.719548 L87.5226112,232.748047 L89.9013319,232.748047 Z M110.253454,232.748047 C110.876633,232.748047 111.408615,232.525121 111.8494,232.079269 C112.290186,231.633417 112.510578,231.103968 112.510578,230.490922 L112.510578,230.490922 L112.510578,225.976673 C112.510578,225.363626 112.290186,224.834177 111.8494,224.388326 C111.408615,223.942474 110.876633,223.719548 110.253454,223.719548 L110.253454,223.719548 L105.739204,223.719548 L105.739204,220.763246 L103.360483,220.763246 L103.360483,232.748047 L110.253454,232.748047 Z M110.124258,230.369326 L105.739204,230.369326 L105.739204,226.105868 L110.124258,226.105868 L110.124258,230.369326 Z M117.929198,232.748047 L117.929198,230.369326 L116.105258,230.369326 L116.105258,220.748047 L113.703739,220.748047 L113.703739,230.490922 C113.703739,231.103968 113.926664,231.633417 114.372516,232.079269 C114.818368,232.525121 115.347817,232.748047 115.960863,232.748047 L115.960863,232.748047 L117.929198,232.748047 Z M128.105258,232.748047 L128.105258,225.976673 C128.105258,225.363626 127.884866,224.834177 127.444081,224.388326 C127.003295,223.942474 126.471313,223.719548 125.848134,223.719548 L125.848134,223.719548 L118.947564,223.719548 L118.947564,226.105868 L125.718938,226.105868 L125.718938,227.033037 L118.947564,227.033037 L118.947564,230.490922 C118.947564,231.103968 119.167956,231.633417 119.608742,232.079269 C120.049527,232.525121 120.581509,232.748047 121.204688,232.748047 L121.204688,232.748047 L128.105258,232.748047 Z M125.718938,230.369326 L121.333884,230.369326 L121.333884,229.122968 L125.718938,229.122968 L125.718938,230.369326 Z M138.889299,232.748047 L138.889299,230.369326 L132.117925,230.369326 L132.117925,226.105868 L138.8741,226.105868 L138.8741,223.719548 L131.988729,223.719548 C131.380749,223.719548 130.852567,223.942474 130.404182,224.388326 C129.955797,224.834177 129.731604,225.363626 129.731604,225.976673 L129.731604,225.976673 L129.731604,230.490922 C129.731604,231.103968 129.95453,231.633417 130.400382,232.079269 C130.846234,232.525121 131.375683,232.748047 131.988729,232.748047 L131.988729,232.748047 L138.889299,232.748047 Z M142.977963,232.748047 L142.977963,229.434557 L144.193922,229.434557 L147.25662,232.748047 L149.65814,232.748047 L149.65814,231.942474 L146.291452,228.233797 L149.65814,224.532721 L149.65814,223.719548 L147.25662,223.719548 L144.193922,227.033037 L142.977963,227.033037 L142.977963,220.763246 L140.599242,220.763246 L140.599242,232.748047 L142.977963,232.748047 Z M165.898799,232.748047 L165.898799,221.538421 L163.421281,221.538421 L159.841801,225.809478 L163.003295,225.809478 L163.497279,225.201498 L163.482079,225.201498 L163.512478,225.171099 L163.512478,232.748047 L165.898799,232.748047 Z M177.800002,232.748047 L177.800002,230.369326 L169.17429,230.369326 L169.17429,228.545387 L175.527678,228.545387 C176.150857,228.545387 176.685372,228.322461 177.131224,227.876609 C177.577076,227.430757 177.800002,226.896242 177.800002,226.273063 L177.800002,226.273063 L177.800002,223.795545 C177.800002,223.177433 177.577076,222.646717 177.131224,222.203398 C176.685372,221.76008 176.150857,221.538421 175.527678,221.538421 L175.527678,221.538421 L169.067893,221.538421 C168.444714,221.538421 167.910198,221.758813 167.464347,222.199598 C167.018495,222.640384 166.795569,223.172366 166.795569,223.795545 L166.795569,223.795545 L166.795569,224.829111 L169.17429,224.829111 L169.17429,223.924741 L175.413682,223.924741 L175.413682,226.151467 L169.067893,226.151467 C168.444714,226.151467 167.910198,226.371859 167.464347,226.812645 C167.018495,227.25343 166.795569,227.785412 166.795569,228.408592 L166.795569,228.408592 L166.795569,232.748047 L177.800002,232.748047 Z M188.394049,232.748047 C189.012162,232.748047 189.541611,232.525121 189.982396,232.079269 C190.423181,231.633417 190.643574,231.103968 190.643574,230.490922 L190.643574,230.490922 L190.643574,228.172999 C190.64864,227.646084 190.478913,227.174899 190.134391,226.759446 C190.195189,226.536521 190.225588,226.295862 190.225588,226.037471 L190.225588,226.037471 L190.225588,223.795545 C190.225588,223.177433 190.005195,222.646717 189.56441,222.203398 C189.123625,221.76008 188.591642,221.538421 187.968463,221.538421 L187.968463,221.538421 L181.919065,221.538421 C181.295885,221.538421 180.76137,221.758813 180.315518,222.199598 C179.869666,222.640384 179.64674,223.172366 179.64674,223.795545 L179.64674,223.795545 L179.64674,224.791112 L182.025461,224.791112 L182.025461,223.924741 L187.846867,223.924741 L187.846867,225.915875 L181.478279,225.915875 L181.478279,228.294595 L188.264853,228.294595 L188.264853,230.369326 L182.025461,230.369326 L182.025461,229.616951 L179.64674,229.616951 L179.64674,230.490922 C179.64674,231.103968 179.869666,231.633417 180.315518,232.079269 C180.76137,232.525121 181.295885,232.748047 181.919065,232.748047 L181.919065,232.748047 L188.394049,232.748047 Z M200.850034,232.748047 L200.850034,229.95894 L202.347184,229.95894 L202.347184,227.56502 L200.850034,227.56502 L200.850034,221.538421 L198.722105,221.538421 L191.760737,227.831011 L191.760737,229.95894 L198.471313,229.95894 L198.471313,232.748047 L200.850034,232.748047 Z M198.471313,227.56502 L195.636607,227.56502 L198.471313,225.262296 L198.471313,227.56502 Z M212.65244,232.748047 C213.275619,232.748047 213.810135,232.525121 214.255987,232.079269 C214.701839,231.633417 214.924764,231.103968 214.924764,230.490922 L214.924764,230.490922 L214.924764,228.127401 C214.924764,227.504222 214.701839,226.972239 214.255987,226.531454 C213.810135,226.090669 213.275619,225.870276 212.65244,225.870276 L212.65244,225.870276 L206.299052,225.870276 L206.299052,223.924741 L214.924764,223.924741 L214.924764,221.538421 L203.920331,221.538421 L203.920331,228.264196 L212.538444,228.264196 L212.538444,230.369326 L206.299052,230.369326 L206.299052,229.616951 L203.920331,229.616951 L203.920331,230.490922 C203.920331,231.103968 204.143257,231.633417 204.589109,232.079269 C205.034961,232.525121 205.569476,232.748047 206.192656,232.748047 L206.192656,232.748047 L212.65244,232.748047 Z M225.56441,232.748047 C226.187589,232.748047 226.722105,232.525121 227.167956,232.079269 C227.613808,231.633417 227.836734,231.103968 227.836734,230.490922 L227.836734,230.490922 L227.836734,228.127401 C227.836734,227.504222 227.613808,226.972239 227.167956,226.531454 C226.722105,226.090669 226.187589,225.870276 225.56441,225.870276 L225.56441,225.870276 L219.211022,225.870276 L219.211022,223.924741 L226.134391,223.924741 L226.134391,221.538421 L219.104625,221.538421 C218.481446,221.538421 217.94693,221.758813 217.501079,222.199598 C217.055227,222.640384 216.832301,223.172366 216.832301,223.795545 L216.832301,223.795545 L216.832301,230.490922 C216.832301,231.103968 217.055227,231.633417 217.501079,232.079269 C217.94693,232.525121 218.481446,232.748047 219.104625,232.748047 L219.104625,232.748047 L225.56441,232.748047 Z M225.450414,230.369326 L219.211022,230.369326 L219.211022,228.264196 L225.450414,228.264196 L225.450414,230.369326 Z M238.058393,232.748047 L238.058393,223.780346 C238.058393,223.157167 237.838001,222.625184 237.397215,222.184399 C236.95643,221.743614 236.424448,221.523221 235.801269,221.523221 L235.801269,221.523221 L228.748704,221.523221 L228.748704,223.909541 L235.679673,223.909541 L235.679673,232.748047 L238.058393,232.748047 Z M248.591642,232.748047 C249.214821,232.748047 249.749337,232.525121 250.195189,232.079269 C250.641041,231.633417 250.863967,231.103968 250.863967,230.490922 L250.863967,230.490922 L250.863967,228.127401 C250.863967,227.737281 250.775303,227.382626 250.597975,227.063436 C250.775303,226.734114 250.863967,226.376926 250.863967,225.991872 L250.863967,225.991872 L250.863967,223.392759 C250.767703,222.865843 250.505512,222.425058 250.077393,222.070403 C249.649274,221.715748 249.154024,221.538421 248.591642,221.538421 L248.591642,221.538421 L242.131858,221.538421 C241.508678,221.538421 240.974163,221.758813 240.528311,222.199598 C240.082459,222.640384 239.859533,223.172366 239.859533,223.795545 L239.859533,223.795545 L239.859533,225.991872 C239.859533,226.331327 239.948197,226.688516 240.125524,227.063436 C239.948197,227.438357 239.859533,227.793012 239.859533,228.127401 L239.859533,228.127401 L239.859533,230.490922 C239.859533,231.103968 240.082459,231.633417 240.528311,232.079269 C240.974163,232.525121 241.508678,232.748047 242.131858,232.748047 L242.131858,232.748047 L248.591642,232.748047 Z M248.477646,226.022271 L242.238254,226.022271 L242.238254,223.93994 L248.477646,223.93994 L248.477646,226.022271 Z M248.477646,230.369326 L242.238254,230.369326 L242.238254,228.264196 L248.477646,228.264196 L248.477646,230.369326 Z M261.541611,232.748047 C262.159723,232.748047 262.690439,232.525121 263.133758,232.079269 C263.577076,231.633417 263.798735,231.103968 263.798735,230.490922 L263.798735,230.490922 L263.798735,223.795545 C263.798735,223.177433 263.578343,222.646717 263.137557,222.203398 C262.696772,221.76008 262.16479,221.538421 261.541611,221.538421 L261.541611,221.538421 L255.066626,221.538421 C254.443447,221.538421 253.908932,221.758813 253.46308,222.199598 C253.017228,222.640384 252.794302,223.172366 252.794302,223.795545 L252.794302,223.795545 L252.794302,226.105868 C252.794302,226.723981 253.017228,227.25723 253.46308,227.705615 C253.908932,228.154 254.443447,228.378193 255.066626,228.378193 L255.066626,228.378193 L261.412415,228.378193 L261.412415,230.369326 L252.741104,230.369326 C252.857633,231.04317 253.136291,231.608085 253.577076,232.06407 C254.017861,232.520054 254.514378,232.748047 255.066626,232.748047 L255.066626,232.748047 L261.541611,232.748047 Z M261.412415,225.976673 L255.188222,225.976673 L255.188222,223.924741 L261.412415,223.924741 L261.412415,225.976673 Z M274.45358,232.748047 C275.06156,232.748047 275.592276,232.502322 276.045727,232.010871 C276.499179,231.519421 276.725904,230.962106 276.725904,230.338927 L276.725904,230.338927 L276.725904,223.863943 C276.725904,223.240764 276.502979,222.697382 276.057127,222.233797 C275.611275,221.770213 275.076759,221.538421 274.45358,221.538421 L274.45358,221.538421 L267.993796,221.538421 C267.370616,221.538421 266.836101,221.770213 266.390249,222.233797 C265.944397,222.697382 265.721471,223.240764 265.721471,223.863943 L265.721471,223.863943 L265.721471,230.338927 C265.721471,230.962106 265.94693,231.519421 266.397849,232.010871 C266.848767,232.502322 267.380749,232.748047 267.993796,232.748047 L267.993796,232.748047 L274.45358,232.748047 Z M268.100192,228.1578 L268.100192,223.985539 L273.062827,223.985539 L268.100192,228.1578 Z M274.339584,230.209731 L269.376949,230.209731 L274.339584,226.037471 L274.339584,230.209731 Z" id="orbitronblack1234567890"></path>
            </g>
        </g>
    </g>
</svg>