<?xml version="1.0" encoding="UTF-8"?>
<svg width="190px" height="13px" viewBox="0 0 190 13" version="1.1" xmlns="http://www.w3.org/2000/svg" xmlns:xlink="http://www.w3.org/1999/xlink">
    <title>playfairdisplayregular1234567890</title>
    <g id="页面-1" stroke="none" stroke-width="1" fill="none" fill-rule="evenodd">
        <g id="弃-增加英文字体分类" transform="translate(-748.000000, -469.000000)" fill="#FFFFFF" fill-rule="nonzero">
            <g id="编组-4" transform="translate(720.000000, 10.000000)">
                <path d="M30.3133827,462.777185 C29.9759342,462.892412 29.5479506,462.950025 29.0294321,462.950025 C28.7742881,462.950025 28.519144,462.937679 28.264,462.912988 L28.264,462.912988 L28.264,463.172247 C28.609679,463.172247 28.8524774,463.258667 28.9923951,463.431506 C29.1323128,463.604346 29.2022716,463.880066 29.2022716,464.258667 L29.2022716,464.258667 L29.2022716,470.480889 C29.2022716,470.768955 29.1426008,470.968543 29.0232593,471.079654 C28.9039177,471.190765 28.6919835,471.246321 28.3874568,471.246321 L28.3874568,471.246321 L28.3874568,471.50558 C29.0788148,471.472658 29.5232593,471.456198 29.7207901,471.456198 L29.7979506,471.456568 C30.0535062,471.45879 30.5257284,471.471012 31.2146173,471.493235 L31.2146173,471.493235 L31.4985679,471.50558 L31.4985679,471.246321 C31.1035062,471.246321 30.8072099,471.182535 30.609679,471.054963 C30.4121481,470.927391 30.3133827,470.694881 30.3133827,470.357432 L30.3133827,470.357432 L30.3133827,468.777185 C30.4533004,468.974716 30.6508313,469.13521 30.9059753,469.258667 C31.1611193,469.382123 31.44507,469.443852 31.7578272,469.443852 C32.391572,469.443852 32.9203786,469.271012 33.3442469,468.925333 C33.7681152,468.579654 34.0808724,468.131095 34.2825185,467.579654 C34.4841646,467.028214 34.5849877,466.435621 34.5849877,465.801877 C34.5849877,465.159901 34.4862222,464.608461 34.2886914,464.147556 C34.0911605,463.68665 33.8174979,463.336856 33.4677037,463.098173 C33.1179095,462.85949 32.7249053,462.740148 32.2886914,462.740148 C31.8442469,462.740148 31.4491852,462.857432 31.1035062,463.092 C30.7578272,463.326568 30.4944527,463.657844 30.3133827,464.085827 L30.3133827,464.085827 L30.3133827,462.777185 Z M31.6220247,469.159901 C31.3092675,469.159901 31.0417778,469.087885 30.8195556,468.943852 C30.5973333,468.799819 30.4286091,468.608461 30.3133827,468.369778 L30.3133827,468.369778 L30.3133827,464.666074 C30.44507,464.164016 30.6590617,463.779243 30.955358,463.511753 C31.2516543,463.244263 31.5849877,463.110519 31.955358,463.110519 C32.9100905,463.110519 33.3874568,464.065251 33.3874568,465.974716 C33.3874568,468.098173 32.7989794,469.159901 31.6220247,469.159901 Z M38.4244938,469.271012 L38.4244938,469.011753 C38.0788148,469.011753 37.8360165,468.947967 37.6960988,468.820395 C37.5561811,468.692823 37.4862222,468.460313 37.4862222,468.122864 L37.4862222,468.122864 L37.4862222,459.592 C37.1487737,459.707226 36.7207901,459.76484 36.2022716,459.76484 C35.9471276,459.76484 35.6919835,459.752494 35.4368395,459.727802 L35.4368395,459.727802 L35.4368395,459.987062 C35.7825185,459.987062 36.0253169,460.073481 36.1652346,460.246321 C36.3051523,460.41916 36.3751111,460.694881 36.3751111,461.073481 L36.3751111,461.073481 L36.3751111,468.122864 C36.3751111,468.460313 36.3051523,468.692823 36.1652346,468.820395 C36.0253169,468.947967 35.7825185,469.011753 35.4368395,469.011753 L35.4368395,469.011753 L35.4368395,469.271012 C36.1940412,469.238091 36.6919835,469.22163 36.9306667,469.22163 C37.1693498,469.22163 37.6672922,469.238091 38.4244938,469.271012 L38.4244938,469.271012 Z M43.7084444,469.357432 C43.9388971,469.357432 44.1302551,469.322453 44.2825185,469.252494 C44.4347819,469.182535 44.6179095,469.065251 44.8319012,468.900642 L44.8319012,468.900642 L44.6960988,468.690765 C44.5973333,468.77307 44.5047407,468.836856 44.418321,468.882123 C44.3319012,468.927391 44.2393086,468.950025 44.1405432,468.950025 C44.0006255,468.950025 43.9018601,468.904757 43.8442469,468.814222 C43.7866337,468.723687 43.7578272,468.575539 43.7578272,468.369778 L43.7578272,468.369778 L43.7578272,464.937679 C43.7578272,464.501465 43.7228477,464.149613 43.6528889,463.882123 C43.58293,463.614634 43.44507,463.386239 43.2393086,463.196938 C42.9100905,462.892412 42.4244938,462.740148 41.7825185,462.740148 C41.4203786,462.740148 41.0870453,462.785416 40.7825185,462.875951 C40.4779918,462.966486 40.226963,463.081712 40.0294321,463.22163 C39.8401317,463.353317 39.6981564,463.485004 39.6035062,463.616691 C39.508856,463.748379 39.4615309,463.912988 39.4615309,464.110519 C39.4615309,464.31628 39.519144,464.491177 39.6343704,464.63521 C39.7495967,464.779243 39.9224362,464.851259 40.1528889,464.851259 C40.3586502,464.851259 40.5273745,464.791588 40.6590617,464.672247 C40.790749,464.552905 40.8565926,464.390354 40.8565926,464.184593 C40.8565926,463.987062 40.801037,463.822453 40.6899259,463.690765 C40.5788148,463.559078 40.4409547,463.472658 40.2763457,463.431506 C40.5150288,463.13521 40.9224362,462.987062 41.4985679,462.987062 C41.8607078,462.987062 42.1426008,463.075539 42.3442469,463.252494 C42.545893,463.429449 42.646716,463.756609 42.646716,464.233975 L42.646716,464.233975 L42.646716,464.999407 C42.646716,465.22163 42.5356049,465.398584 42.3133827,465.530272 C42.0911605,465.661959 41.7495967,465.805992 41.2886914,465.96237 C40.8360165,466.118749 40.4718189,466.266897 40.1960988,466.406815 C39.9203786,466.546733 39.6816955,466.736033 39.4800494,466.974716 C39.2784033,467.213399 39.1775802,467.517926 39.1775802,467.888296 C39.1775802,468.349202 39.3030947,468.709284 39.5541235,468.968543 C39.8051523,469.227802 40.1899259,469.357432 40.7084444,469.357432 C41.1117366,469.357432 41.4738765,469.277185 41.7948642,469.116691 C42.1158519,468.956198 42.3998025,468.670189 42.646716,468.258667 C42.646716,468.596115 42.7249053,468.863605 42.881284,469.061136 C43.0376626,469.258667 43.3133827,469.357432 43.7084444,469.357432 Z M41.2516543,468.863605 C40.955358,468.863605 40.7166749,468.768955 40.5356049,468.579654 C40.354535,468.390354 40.264,468.110519 40.264,467.740148 C40.264,467.41916 40.3339588,467.155786 40.4738765,466.950025 C40.6137942,466.744263 40.7804609,466.581712 40.9738765,466.46237 C41.1672922,466.343029 41.4203786,466.217514 41.7331358,466.085827 C42.0047407,465.96237 42.2063868,465.863605 42.3380741,465.789531 C42.4697613,465.715457 42.572642,465.620807 42.646716,465.50558 L42.646716,465.50558 L42.646716,467.925333 C42.2598848,468.550848 41.7948642,468.863605 41.2516543,468.863605 Z M46.2022716,471.592 C46.3751111,471.592 46.5479506,471.567309 46.7207901,471.517926 C46.8936296,471.468543 47.0417778,471.386239 47.1652346,471.271012 C47.3627654,471.098173 47.5397202,470.810107 47.6960988,470.406815 L47.6960988,470.406815 L48.1158519,469.332741 L50.1405432,464.024099 C50.2557695,463.727802 50.3771687,463.513811 50.5047407,463.382123 C50.6323128,463.250436 50.7784033,463.176362 50.9430123,463.159901 L50.9430123,463.159901 L50.9430123,462.912988 C50.6796379,462.937679 50.3668807,462.950025 50.0047407,462.950025 C49.7495967,462.950025 49.4039177,462.937679 48.9677037,462.912988 L48.9677037,462.912988 L48.9677037,463.159901 C49.2886914,463.184593 49.5232593,463.242206 49.6714074,463.332741 C49.8195556,463.423276 49.8936296,463.563193 49.8936296,463.752494 C49.8936296,463.884181 49.8483621,464.073481 49.7578272,464.320395 L49.7578272,464.320395 L48.3874568,467.888296 L46.9059753,464.209284 C46.8072099,463.978831 46.7578272,463.777185 46.7578272,463.604346 C46.7578272,463.415045 46.8257284,463.295704 46.9615309,463.246321 C47.0973333,463.196938 47.3133827,463.172247 47.609679,463.172247 L47.609679,463.172247 L47.609679,462.912988 C46.9512428,462.96237 46.4162634,462.987062 46.0047407,462.987062 C45.5520658,462.987062 45.1487737,462.96237 44.7948642,462.912988 L44.7948642,462.912988 L44.7948642,463.172247 C44.9347819,463.172247 45.0746996,463.217514 45.2146173,463.308049 C45.354535,463.398584 45.4944527,463.58377 45.6343704,463.863605 L45.6343704,463.863605 L47.8689383,469.258667 L47.4368395,470.382123 C47.1899259,471.024099 46.8401317,471.345086 46.3874568,471.345086 C46.354535,471.345086 46.3298436,471.340971 46.3133827,471.332741 C46.5356049,471.209284 46.646716,471.024099 46.646716,470.777185 C46.646716,470.596115 46.5870453,470.45414 46.4677037,470.351259 C46.3483621,470.248379 46.1981564,470.196938 46.0170864,470.196938 C45.8113251,470.196938 45.6508313,470.256609 45.5356049,470.375951 C45.4203786,470.495292 45.3627654,470.653728 45.3627654,470.851259 C45.3627654,471.081712 45.4409547,471.262782 45.5973333,471.394469 C45.7537119,471.526156 45.955358,471.592 46.2022716,471.592 Z M54.7948642,469.271012 L54.7948642,469.011753 C54.3586502,469.011753 54.0314897,468.937679 53.8133827,468.789531 C53.5952757,468.641383 53.4862222,468.378008 53.4862222,467.999407 L53.4862222,467.999407 L53.4862222,463.172247 L54.8072099,463.172247 L54.8072099,462.925333 L53.4862222,462.925333 L53.4862222,462.604346 C53.4862222,461.847144 53.5006255,461.308049 53.5294321,460.987062 C53.5582387,460.666074 53.6179095,460.423276 53.7084444,460.258667 C53.7825185,460.118749 53.8895144,460.007638 54.0294321,459.925333 C54.1693498,459.843029 54.3298436,459.801877 54.5109136,459.801877 C54.6755226,459.801877 54.8113251,459.826568 54.918321,459.875951 C55.0253169,459.925333 55.0911605,459.991177 55.1158519,460.073481 C54.9594733,460.106403 54.8339588,460.176362 54.7393086,460.283358 C54.6446584,460.390354 54.5973333,460.530272 54.5973333,460.703111 C54.5973333,460.908872 54.663177,461.071424 54.7948642,461.190765 C54.9265514,461.310107 55.0870453,461.369778 55.2763457,461.369778 C55.4656461,461.369778 55.6220247,461.308049 55.7454815,461.184593 C55.8689383,461.061136 55.9306667,460.904757 55.9306667,460.715457 C55.9306667,460.41093 55.8030947,460.155786 55.5479506,459.950025 C55.2598848,459.727802 54.9018601,459.616691 54.4738765,459.616691 C54.1693498,459.616691 53.8895144,459.672247 53.6343704,459.783358 C53.3792263,459.894469 53.1693498,460.044675 53.0047407,460.233975 C52.7660576,460.513811 52.6014486,460.851259 52.5109136,461.246321 C52.4203786,461.641383 52.3751111,462.201053 52.3751111,462.925333 L52.3751111,462.925333 L51.3874568,462.925333 L51.3874568,463.172247 L52.3751111,463.172247 L52.3751111,468.122864 C52.3751111,468.460313 52.3051523,468.692823 52.1652346,468.820395 C52.0253169,468.947967 51.7825185,469.011753 51.4368395,469.011753 L51.4368395,469.011753 L51.4368395,469.271012 C52.1940412,469.238091 52.6796379,469.22163 52.8936296,469.22163 C53.1240823,469.22163 53.6590617,469.233975 54.4985679,469.258667 L54.4985679,469.258667 L54.7948642,469.271012 Z M60.1775802,469.357432 C60.4080329,469.357432 60.5993909,469.322453 60.7516543,469.252494 C60.9039177,469.182535 61.0870453,469.065251 61.301037,468.900642 L61.301037,468.900642 L61.1652346,468.690765 C61.0664691,468.77307 60.9738765,468.836856 60.8874568,468.882123 C60.801037,468.927391 60.7084444,468.950025 60.609679,468.950025 C60.4697613,468.950025 60.3709959,468.904757 60.3133827,468.814222 C60.2557695,468.723687 60.226963,468.575539 60.226963,468.369778 L60.226963,468.369778 L60.226963,464.937679 C60.226963,464.501465 60.1919835,464.149613 60.1220247,463.882123 C60.0520658,463.614634 59.9142058,463.386239 59.7084444,463.196938 C59.3792263,462.892412 58.8936296,462.740148 58.2516543,462.740148 C57.8895144,462.740148 57.5561811,462.785416 57.2516543,462.875951 C56.9471276,462.966486 56.6960988,463.081712 56.4985679,463.22163 C56.3092675,463.353317 56.1672922,463.485004 56.072642,463.616691 C55.9779918,463.748379 55.9306667,463.912988 55.9306667,464.110519 C55.9306667,464.31628 55.9882798,464.491177 56.1035062,464.63521 C56.2187325,464.779243 56.391572,464.851259 56.6220247,464.851259 C56.827786,464.851259 56.9965103,464.791588 57.1281975,464.672247 C57.2598848,464.552905 57.3257284,464.390354 57.3257284,464.184593 C57.3257284,463.987062 57.2701728,463.822453 57.1590617,463.690765 C57.0479506,463.559078 56.9100905,463.472658 56.7454815,463.431506 C56.9841646,463.13521 57.391572,462.987062 57.9677037,462.987062 C58.3298436,462.987062 58.6117366,463.075539 58.8133827,463.252494 C59.0150288,463.429449 59.1158519,463.756609 59.1158519,464.233975 L59.1158519,464.233975 L59.1158519,464.999407 C59.1158519,465.22163 59.0047407,465.398584 58.7825185,465.530272 C58.5602963,465.661959 58.2187325,465.805992 57.7578272,465.96237 C57.3051523,466.118749 56.9409547,466.266897 56.6652346,466.406815 C56.3895144,466.546733 56.1508313,466.736033 55.9491852,466.974716 C55.7475391,467.213399 55.646716,467.517926 55.646716,467.888296 C55.646716,468.349202 55.7722305,468.709284 56.0232593,468.968543 C56.2742881,469.227802 56.6590617,469.357432 57.1775802,469.357432 C57.5808724,469.357432 57.9430123,469.277185 58.264,469.116691 C58.5849877,468.956198 58.8689383,468.670189 59.1158519,468.258667 C59.1158519,468.596115 59.1940412,468.863605 59.3504198,469.061136 C59.5067984,469.258667 59.7825185,469.357432 60.1775802,469.357432 Z M57.7207901,468.863605 C57.4244938,468.863605 57.1858107,468.768955 57.0047407,468.579654 C56.8236708,468.390354 56.7331358,468.110519 56.7331358,467.740148 C56.7331358,467.41916 56.8030947,467.155786 56.9430123,466.950025 C57.08293,466.744263 57.2495967,466.581712 57.4430123,466.46237 C57.636428,466.343029 57.8895144,466.217514 58.2022716,466.085827 C58.4738765,465.96237 58.6755226,465.863605 58.8072099,465.789531 C58.9388971,465.715457 59.0417778,465.620807 59.1158519,465.50558 L59.1158519,465.50558 L59.1158519,467.925333 C58.7290206,468.550848 58.264,468.863605 57.7207901,468.863605 Z M63.0788148,461.406815 C63.2928066,461.406815 63.4779918,461.328626 63.6343704,461.172247 C63.790749,461.015868 63.8689383,460.830683 63.8689383,460.616691 C63.8689383,460.4027 63.790749,460.217514 63.6343704,460.061136 C63.4779918,459.904757 63.2928066,459.826568 63.0788148,459.826568 C62.864823,459.826568 62.6796379,459.904757 62.5232593,460.061136 C62.3668807,460.217514 62.2886914,460.4027 62.2886914,460.616691 C62.2886914,460.830683 62.3668807,461.015868 62.5232593,461.172247 C62.6796379,461.328626 62.864823,461.406815 63.0788148,461.406815 Z M64.6590617,469.271012 L64.6590617,469.011753 C64.3133827,469.011753 64.0705844,468.947967 63.9306667,468.820395 C63.790749,468.692823 63.7207901,468.460313 63.7207901,468.122864 L63.7207901,468.122864 L63.7207901,462.777185 C63.3833416,462.892412 62.955358,462.950025 62.4368395,462.950025 C62.1899259,462.950025 61.9347819,462.937679 61.6714074,462.912988 L61.6714074,462.912988 L61.6714074,463.172247 C62.0170864,463.172247 62.2598848,463.258667 62.3998025,463.431506 C62.5397202,463.604346 62.609679,463.880066 62.609679,464.258667 L62.609679,464.258667 L62.609679,468.122864 C62.609679,468.460313 62.5397202,468.692823 62.3998025,468.820395 C62.2598848,468.947967 62.0170864,469.011753 61.6714074,469.011753 L61.6714074,469.011753 L61.6714074,469.271012 C62.4286091,469.238091 62.9265514,469.22163 63.1652346,469.22163 C63.4039177,469.22163 63.9018601,469.238091 64.6590617,469.271012 L64.6590617,469.271012 Z M68.646716,469.271012 L68.646716,469.011753 C68.2105021,469.011753 67.8833416,468.937679 67.6652346,468.789531 C67.4471276,468.641383 67.3380741,468.378008 67.3380741,467.999407 L67.3380741,467.999407 L67.3380741,465.382123 C67.3380741,465.061136 67.4121481,464.719572 67.5602963,464.357432 C67.7084444,463.995292 67.9142058,463.688708 68.1775802,463.437679 C68.4409547,463.18665 68.7331358,463.061136 69.0541235,463.061136 C69.1693498,463.061136 69.2557695,463.102288 69.3133827,463.184593 C69.0335473,463.357432 68.8936296,463.579654 68.8936296,463.851259 C68.8936296,464.04879 68.9574156,464.205169 69.0849877,464.320395 C69.2125597,464.435621 69.3668807,464.493235 69.5479506,464.493235 C69.7619424,464.493235 69.9327243,464.417103 70.0602963,464.26484 C70.1878683,464.112576 70.2516543,463.929449 70.2516543,463.715457 C70.2516543,463.443852 70.146716,463.213399 69.9368395,463.024099 C69.726963,462.834798 69.4574156,462.740148 69.1281975,462.740148 C68.7331358,462.740148 68.3730535,462.900642 68.0479506,463.22163 C67.7228477,463.542617 67.4862222,463.908872 67.3380741,464.320395 L67.3380741,464.320395 L67.3380741,462.777185 C67.0006255,462.892412 66.572642,462.950025 66.0541235,462.950025 C65.8072099,462.950025 65.5520658,462.937679 65.2886914,462.912988 L65.2886914,462.912988 L65.2886914,463.172247 C65.6343704,463.172247 65.8771687,463.258667 66.0170864,463.431506 C66.1570041,463.604346 66.226963,463.880066 66.226963,464.258667 L66.226963,464.258667 L66.226963,468.122864 C66.226963,468.460313 66.1570041,468.692823 66.0170864,468.820395 C65.8771687,468.947967 65.6343704,469.011753 65.2886914,469.011753 L65.2886914,469.011753 L65.2886914,469.271012 C66.045893,469.238091 66.5314897,469.22163 66.7454815,469.22163 C66.9759342,469.22163 67.5109136,469.233975 68.3504198,469.258667 L68.3504198,469.258667 L68.646716,469.271012 Z M73.5356049,469.443852 C73.9635885,469.443852 74.3257284,469.347144 74.6220247,469.153728 C74.918321,468.960313 75.1405432,468.67842 75.2886914,468.308049 L75.2886914,468.308049 L75.2886914,469.406815 C75.6261399,469.291588 76.0541235,469.233975 76.572642,469.233975 C76.827786,469.233975 77.08293,469.246321 77.3380741,469.271012 L77.3380741,469.271012 L77.3380741,469.011753 C76.9923951,469.011753 76.7495967,468.925333 76.609679,468.752494 C76.4697613,468.579654 76.3998025,468.303934 76.3998025,467.925333 L76.3998025,467.925333 L76.3998025,459.592 C76.0623539,459.707226 75.6343704,459.76484 75.1158519,459.76484 C74.8689383,459.76484 74.6137942,459.752494 74.3504198,459.727802 L74.3504198,459.727802 L74.3504198,459.987062 C74.6960988,459.987062 74.9388971,460.073481 75.0788148,460.246321 C75.2187325,460.41916 75.2886914,460.694881 75.2886914,461.073481 L75.2886914,461.073481 L75.2886914,463.468543 C75.1323128,463.22163 74.9244938,463.038502 74.6652346,462.91916 C74.4059753,462.799819 74.1199671,462.740148 73.8072099,462.740148 C73.2969218,462.740148 72.8298436,462.86772 72.4059753,463.122864 C71.982107,463.378008 71.6446584,463.758667 71.3936296,464.26484 C71.1426008,464.771012 71.0170864,465.382123 71.0170864,466.098173 C71.008856,467.192823 71.2290206,468.024099 71.6775802,468.592 C72.1261399,469.159901 72.7454815,469.443852 73.5356049,469.443852 Z M73.8936296,469.073481 C73.3421893,469.073481 72.9224362,468.82451 72.6343704,468.326568 C72.3463045,467.828626 72.2063868,467.085827 72.2146173,466.098173 C72.2063868,465.094058 72.3586502,464.330683 72.6714074,463.808049 C72.9841646,463.285416 73.3956872,463.024099 73.9059753,463.024099 C74.6055638,463.024099 75.0664691,463.340971 75.2886914,463.974716 L75.2886914,463.974716 L75.2886914,467.653728 C75.1899259,468.106403 75.0129712,468.456198 74.7578272,468.703111 C74.5026831,468.950025 74.2146173,469.073481 73.8936296,469.073481 Z M79.3627654,461.406815 C79.5767572,461.406815 79.7619424,461.328626 79.918321,461.172247 C80.0746996,461.015868 80.1528889,460.830683 80.1528889,460.616691 C80.1528889,460.4027 80.0746996,460.217514 79.918321,460.061136 C79.7619424,459.904757 79.5767572,459.826568 79.3627654,459.826568 C79.1487737,459.826568 78.9635885,459.904757 78.8072099,460.061136 C78.6508313,460.217514 78.572642,460.4027 78.572642,460.616691 C78.572642,460.830683 78.6508313,461.015868 78.8072099,461.172247 C78.9635885,461.328626 79.1487737,461.406815 79.3627654,461.406815 Z M80.9430123,469.271012 L80.9430123,469.011753 C80.5973333,469.011753 80.354535,468.947967 80.2146173,468.820395 C80.0746996,468.692823 80.0047407,468.460313 80.0047407,468.122864 L80.0047407,468.122864 L80.0047407,462.777185 C79.6672922,462.892412 79.2393086,462.950025 78.7207901,462.950025 C78.4738765,462.950025 78.2187325,462.937679 77.955358,462.912988 L77.955358,462.912988 L77.955358,463.172247 C78.301037,463.172247 78.5438354,463.258667 78.6837531,463.431506 C78.8236708,463.604346 78.8936296,463.880066 78.8936296,464.258667 L78.8936296,464.258667 L78.8936296,468.122864 C78.8936296,468.460313 78.8236708,468.692823 78.6837531,468.820395 C78.5438354,468.947967 78.301037,469.011753 77.955358,469.011753 L77.955358,469.011753 L77.955358,469.271012 C78.7125597,469.238091 79.2105021,469.22163 79.4491852,469.22163 C79.6878683,469.22163 80.1858107,469.238091 80.9430123,469.271012 L80.9430123,469.271012 Z M84.0417778,469.443852 C84.6343704,469.443852 85.1343704,469.291588 85.5417778,468.987062 C85.9491852,468.682535 86.1528889,468.258667 86.1528889,467.715457 C86.1528889,467.394469 86.0808724,467.110519 85.9368395,466.863605 C85.7928066,466.616691 85.6055638,466.398584 85.3751111,466.209284 C85.1446584,466.019984 84.8401317,465.801877 84.4615309,465.554963 C84.3874568,465.50558 84.322642,465.463399 84.2670864,465.42842 L84.1281975,465.345086 C83.6919835,465.073481 83.3751111,464.840971 83.1775802,464.647556 C82.9800494,464.45414 82.881284,464.213399 82.881284,463.925333 C82.881284,463.629037 82.9759342,463.396527 83.1652346,463.227802 C83.354535,463.059078 83.5973333,462.974716 83.8936296,462.974716 C84.4039177,462.974716 84.7886914,463.151671 85.0479506,463.50558 C85.3072099,463.85949 85.482107,464.308049 85.572642,464.851259 L85.572642,464.851259 L85.8565926,464.851259 C85.8565926,463.855374 85.8730535,463.155786 85.9059753,462.752494 L85.9059753,462.752494 L85.6220247,462.752494 C85.5891029,463.114634 85.4985679,463.295704 85.3504198,463.295704 C85.2928066,463.295704 85.2187325,463.262782 85.1281975,463.196938 C84.9882798,463.073481 84.8030947,462.966486 84.572642,462.875951 C84.3421893,462.785416 84.0788148,462.740148 83.7825185,462.740148 C83.2557695,462.740148 82.8195556,462.875951 82.4738765,463.147556 C82.1281975,463.41916 81.955358,463.814222 81.955358,464.332741 C81.955358,464.653728 82.0294321,464.933564 82.1775802,465.172247 C82.3257284,465.41093 82.508856,465.612576 82.726963,465.777185 C82.94507,465.941794 83.2557695,466.151671 83.6590617,466.406815 C84.1528889,466.719572 84.508856,466.987062 84.726963,467.209284 C84.94507,467.431506 85.0541235,467.703111 85.0541235,468.024099 C85.0541235,468.427391 84.9430123,468.723687 84.7207901,468.912988 C84.4985679,469.102288 84.2434239,469.196938 83.955358,469.196938 C83.3792263,469.196938 82.9718189,469.00558 82.7331358,468.622864 C82.4944527,468.240148 82.3298436,467.661959 82.2393086,466.888296 L82.2393086,466.888296 L81.955358,466.888296 C81.955358,468.065251 81.9388971,468.888296 81.9059753,469.357432 L81.9059753,469.357432 L82.1899259,469.357432 C82.2146173,469.209284 82.2495967,469.094058 82.2948642,469.011753 C82.3401317,468.929449 82.391572,468.888296 82.4491852,468.888296 C82.4903374,468.888296 82.5273745,468.904757 82.5602963,468.937679 C82.7166749,469.069366 82.8853992,469.180477 83.0664691,469.271012 C83.3463045,469.386239 83.6714074,469.443852 84.0417778,469.443852 Z M89.0541235,462.777185 C88.7166749,462.892412 88.2886914,462.950025 87.7701728,462.950025 C87.5150288,462.950025 87.2598848,462.937679 87.0047407,462.912988 L87.0047407,462.912988 L87.0047407,463.172247 C87.3504198,463.172247 87.5932181,463.258667 87.7331358,463.431506 C87.8730535,463.604346 87.9430123,463.880066 87.9430123,464.258667 L87.9430123,464.258667 L87.9430123,470.480889 C87.9430123,470.768955 87.8833416,470.968543 87.764,471.079654 C87.6446584,471.190765 87.4327243,471.246321 87.1281975,471.246321 L87.1281975,471.246321 L87.1281975,471.50558 C87.8195556,471.472658 88.264,471.456198 88.4615309,471.456198 L88.5386914,471.456568 C88.7942469,471.45879 89.2664691,471.471012 89.955358,471.493235 L89.955358,471.493235 L90.2393086,471.50558 L90.2393086,471.246321 C89.8442469,471.246321 89.5479506,471.182535 89.3504198,471.054963 C89.1528889,470.927391 89.0541235,470.694881 89.0541235,470.357432 L89.0541235,470.357432 L89.0541235,468.777185 C89.1940412,468.974716 89.391572,469.13521 89.646716,469.258667 C89.9018601,469.382123 90.1858107,469.443852 90.4985679,469.443852 C91.1323128,469.443852 91.6611193,469.271012 92.0849877,468.925333 C92.508856,468.579654 92.8216132,468.131095 93.0232593,467.579654 C93.2249053,467.028214 93.3257284,466.435621 93.3257284,465.801877 C93.3257284,465.159901 93.226963,464.608461 93.0294321,464.147556 C92.8319012,463.68665 92.5582387,463.336856 92.2084444,463.098173 C91.8586502,462.85949 91.4656461,462.740148 91.0294321,462.740148 C90.5849877,462.740148 90.1899259,462.857432 89.8442469,463.092 C89.4985679,463.326568 89.2351934,463.657844 89.0541235,464.085827 L89.0541235,464.085827 L89.0541235,462.777185 Z M90.3627654,469.159901 C90.0500082,469.159901 89.7825185,469.087885 89.5602963,468.943852 C89.3380741,468.799819 89.1693498,468.608461 89.0541235,468.369778 L89.0541235,468.369778 L89.0541235,464.666074 C89.1858107,464.164016 89.3998025,463.779243 89.6960988,463.511753 C89.9923951,463.244263 90.3257284,463.110519 90.6960988,463.110519 C91.6508313,463.110519 92.1281975,464.065251 92.1281975,465.974716 C92.1281975,468.098173 91.5397202,469.159901 90.3627654,469.159901 Z M97.1652346,469.271012 L97.1652346,469.011753 C96.8195556,469.011753 96.5767572,468.947967 96.4368395,468.820395 C96.2969218,468.692823 96.226963,468.460313 96.226963,468.122864 L96.226963,468.122864 L96.226963,459.592 C95.8895144,459.707226 95.4615309,459.76484 94.9430123,459.76484 C94.6878683,459.76484 94.4327243,459.752494 94.1775802,459.727802 L94.1775802,459.727802 L94.1775802,459.987062 C94.5232593,459.987062 94.7660576,460.073481 94.9059753,460.246321 C95.045893,460.41916 95.1158519,460.694881 95.1158519,461.073481 L95.1158519,461.073481 L95.1158519,468.122864 C95.1158519,468.460313 95.045893,468.692823 94.9059753,468.820395 C94.7660576,468.947967 94.5232593,469.011753 94.1775802,469.011753 L94.1775802,469.011753 L94.1775802,469.271012 C94.9347819,469.238091 95.4327243,469.22163 95.6714074,469.22163 C95.9100905,469.22163 96.4080329,469.238091 97.1652346,469.271012 L97.1652346,469.271012 Z M102.449185,469.357432 C102.679638,469.357432 102.870996,469.322453 103.023259,469.252494 C103.175523,469.182535 103.35865,469.065251 103.572642,468.900642 L103.572642,468.900642 L103.43684,468.690765 C103.338074,468.77307 103.245481,468.836856 103.159062,468.882123 C103.072642,468.927391 102.980049,468.950025 102.881284,468.950025 C102.741366,468.950025 102.642601,468.904757 102.584988,468.814222 C102.527374,468.723687 102.498568,468.575539 102.498568,468.369778 L102.498568,468.369778 L102.498568,464.937679 C102.498568,464.501465 102.463588,464.149613 102.39363,463.882123 C102.323671,463.614634 102.185811,463.386239 101.980049,463.196938 C101.650831,462.892412 101.165235,462.740148 100.523259,462.740148 C100.161119,462.740148 99.827786,462.785416 99.5232593,462.875951 C99.2187325,462.966486 98.9677037,463.081712 98.7701728,463.22163 C98.5808724,463.353317 98.4388971,463.485004 98.3442469,463.616691 C98.2495967,463.748379 98.2022716,463.912988 98.2022716,464.110519 C98.2022716,464.31628 98.2598848,464.491177 98.3751111,464.63521 C98.4903374,464.779243 98.663177,464.851259 98.8936296,464.851259 C99.0993909,464.851259 99.2681152,464.791588 99.3998025,464.672247 C99.5314897,464.552905 99.5973333,464.390354 99.5973333,464.184593 C99.5973333,463.987062 99.5417778,463.822453 99.4306667,463.690765 C99.3195556,463.559078 99.1816955,463.472658 99.0170864,463.431506 C99.2557695,463.13521 99.663177,462.987062 100.239309,462.987062 C100.601449,462.987062 100.883342,463.075539 101.084988,463.252494 C101.286634,463.429449 101.387457,463.756609 101.387457,464.233975 L101.387457,464.233975 L101.387457,464.999407 C101.387457,465.22163 101.276346,465.398584 101.054123,465.530272 C100.831901,465.661959 100.490337,465.805992 100.029432,465.96237 C99.5767572,466.118749 99.2125597,466.266897 98.9368395,466.406815 C98.6611193,466.546733 98.4224362,466.736033 98.2207901,466.974716 C98.019144,467.213399 97.918321,467.517926 97.918321,467.888296 C97.918321,468.349202 98.0438354,468.709284 98.2948642,468.968543 C98.545893,469.227802 98.9306667,469.357432 99.4491852,469.357432 C99.8524774,469.357432 100.214617,469.277185 100.535605,469.116691 C100.856593,468.956198 101.140543,468.670189 101.387457,468.258667 C101.387457,468.596115 101.465646,468.863605 101.622025,469.061136 C101.778403,469.258667 102.054123,469.357432 102.449185,469.357432 Z M99.9923951,468.863605 C99.6960988,468.863605 99.4574156,468.768955 99.2763457,468.579654 C99.0952757,468.390354 99.0047407,468.110519 99.0047407,467.740148 C99.0047407,467.41916 99.0746996,467.155786 99.2146173,466.950025 C99.354535,466.744263 99.5212016,466.581712 99.7146173,466.46237 C99.9080329,466.343029 100.161119,466.217514 100.473877,466.085827 C100.745481,465.96237 100.947128,465.863605 101.078815,465.789531 C101.210502,465.715457 101.313383,465.620807 101.387457,465.50558 L101.387457,465.50558 L101.387457,467.925333 C101.000626,468.550848 100.535605,468.863605 99.9923951,468.863605 Z M104.943012,471.592 C105.115852,471.592 105.288691,471.567309 105.461531,471.517926 C105.63437,471.468543 105.782519,471.386239 105.905975,471.271012 C106.103506,471.098173 106.280461,470.810107 106.43684,470.406815 L106.43684,470.406815 L106.856593,469.332741 L108.881284,464.024099 C108.99651,463.727802 109.117909,463.513811 109.245481,463.382123 C109.373053,463.250436 109.519144,463.176362 109.683753,463.159901 L109.683753,463.159901 L109.683753,462.912988 C109.420379,462.937679 109.107621,462.950025 108.745481,462.950025 C108.490337,462.950025 108.144658,462.937679 107.708444,462.912988 L107.708444,462.912988 L107.708444,463.159901 C108.029432,463.184593 108.264,463.242206 108.412148,463.332741 C108.560296,463.423276 108.63437,463.563193 108.63437,463.752494 C108.63437,463.884181 108.589103,464.073481 108.498568,464.320395 L108.498568,464.320395 L107.128198,467.888296 L105.646716,464.209284 C105.547951,463.978831 105.498568,463.777185 105.498568,463.604346 C105.498568,463.415045 105.566469,463.295704 105.702272,463.246321 C105.838074,463.196938 106.054123,463.172247 106.35042,463.172247 L106.35042,463.172247 L106.35042,462.912988 C105.691984,462.96237 105.157004,462.987062 104.745481,462.987062 C104.292807,462.987062 103.889514,462.96237 103.535605,462.912988 L103.535605,462.912988 L103.535605,463.172247 C103.675523,463.172247 103.81544,463.217514 103.955358,463.308049 C104.095276,463.398584 104.235193,463.58377 104.375111,463.863605 L104.375111,463.863605 L106.609679,469.258667 L106.17758,470.382123 C105.930667,471.024099 105.580872,471.345086 105.128198,471.345086 C105.095276,471.345086 105.070584,471.340971 105.054123,471.332741 C105.276346,471.209284 105.387457,471.024099 105.387457,470.777185 C105.387457,470.596115 105.327786,470.45414 105.208444,470.351259 C105.089103,470.248379 104.938897,470.196938 104.757827,470.196938 C104.552066,470.196938 104.391572,470.256609 104.276346,470.375951 C104.161119,470.495292 104.103506,470.653728 104.103506,470.851259 C104.103506,471.081712 104.181695,471.262782 104.338074,471.394469 C104.494453,471.526156 104.696099,471.592 104.943012,471.592 Z M116.597333,469.271012 L116.597333,469.011753 C116.161119,469.011753 115.833959,468.937679 115.615852,468.789531 C115.397745,468.641383 115.288691,468.378008 115.288691,467.999407 L115.288691,467.999407 L115.288691,465.382123 C115.288691,465.061136 115.362765,464.719572 115.510914,464.357432 C115.659062,463.995292 115.864823,463.688708 116.128198,463.437679 C116.391572,463.18665 116.683753,463.061136 117.004741,463.061136 C117.119967,463.061136 117.206387,463.102288 117.264,463.184593 C116.984165,463.357432 116.844247,463.579654 116.844247,463.851259 C116.844247,464.04879 116.908033,464.205169 117.035605,464.320395 C117.163177,464.435621 117.317498,464.493235 117.498568,464.493235 C117.71256,464.493235 117.883342,464.417103 118.010914,464.26484 C118.138486,464.112576 118.202272,463.929449 118.202272,463.715457 C118.202272,463.443852 118.097333,463.213399 117.887457,463.024099 C117.67758,462.834798 117.408033,462.740148 117.078815,462.740148 C116.683753,462.740148 116.323671,462.900642 115.998568,463.22163 C115.673465,463.542617 115.43684,463.908872 115.288691,464.320395 L115.288691,464.320395 L115.288691,462.777185 C114.951243,462.892412 114.523259,462.950025 114.004741,462.950025 C113.757827,462.950025 113.502683,462.937679 113.239309,462.912988 L113.239309,462.912988 L113.239309,463.172247 C113.584988,463.172247 113.827786,463.258667 113.967704,463.431506 C114.107621,463.604346 114.17758,463.880066 114.17758,464.258667 L114.17758,464.258667 L114.17758,468.122864 C114.17758,468.460313 114.107621,468.692823 113.967704,468.820395 C113.827786,468.947967 113.584988,469.011753 113.239309,469.011753 L113.239309,469.011753 L113.239309,469.271012 C113.99651,469.238091 114.482107,469.22163 114.696099,469.22163 C114.926551,469.22163 115.461531,469.233975 116.301037,469.258667 L116.301037,469.258667 L116.597333,469.271012 Z M121.782519,469.443852 C122.35865,469.443852 122.85042,469.2813 123.257827,468.956198 C123.665235,468.631095 123.943012,468.242206 124.09116,467.789531 L124.09116,467.789531 L123.844247,467.690765 C123.638486,468.13521 123.383342,468.452082 123.078815,468.641383 C122.774288,468.830683 122.424494,468.925333 122.029432,468.925333 C121.708444,468.925333 121.40186,468.81628 121.109679,468.598173 C120.817498,468.380066 120.58293,468.069366 120.405975,467.666074 C120.229021,467.262782 120.140543,466.789531 120.140543,466.246321 C120.140543,465.950025 120.152889,465.68665 120.17758,465.456198 L120.17758,465.456198 L124.041778,465.456198 C124.041778,464.542617 123.842189,463.861547 123.443012,463.412988 C123.043835,462.964428 122.473877,462.740148 121.733136,462.740148 C121.173465,462.740148 120.683753,462.882123 120.264,463.166074 C119.844247,463.450025 119.519144,463.855374 119.288691,464.382123 C119.058239,464.908872 118.943012,465.530272 118.943012,466.246321 C118.943012,466.880066 119.056181,467.437679 119.282519,467.91916 C119.508856,468.400642 119.836016,468.775128 120.264,469.042617 C120.691984,469.310107 121.198156,469.443852 121.782519,469.443852 Z M122.856593,465.22163 L120.165235,465.22163 C120.231078,464.480889 120.403918,463.921218 120.683753,463.542617 C120.963588,463.164016 121.296922,462.974716 121.683753,462.974716 C122.078815,462.974716 122.377169,463.188708 122.578815,463.616691 C122.780461,464.044675 122.873053,464.579654 122.856593,465.22163 L122.856593,465.22163 Z M127.251654,471.592 C127.951243,471.592 128.547951,471.489119 129.041778,471.283358 C129.535605,471.077597 129.910091,470.805992 130.165235,470.468543 C130.420379,470.131095 130.547951,469.76484 130.547951,469.369778 C130.547951,468.884181 130.364823,468.519984 129.998568,468.277185 C129.632313,468.034387 129.16935,467.912988 128.609679,467.912988 L128.609679,467.912988 L127.066469,467.912988 C126.671407,467.912988 126.473877,467.7813 126.473877,467.517926 C126.473877,467.353317 126.543835,467.205169 126.683753,467.073481 C126.823671,466.941794 127.029432,466.797761 127.301037,466.641383 L127.301037,466.641383 L127.313383,466.641383 C127.963588,466.641383 128.486222,466.478831 128.881284,466.153728 C129.276346,465.828626 129.473877,465.340971 129.473877,464.690765 C129.473877,464.246321 129.379226,463.880066 129.189926,463.592 C129.288691,463.427391 129.399802,463.289531 129.523259,463.17842 C129.646716,463.067309 129.81544,462.966486 130.029432,462.875951 C129.947128,463.089942 129.905975,463.279243 129.905975,463.443852 C129.905975,463.633152 129.957416,463.777185 130.060296,463.875951 C130.163177,463.974716 130.288691,464.024099 130.43684,464.024099 C130.593218,464.024099 130.735193,463.966486 130.862765,463.851259 C130.990337,463.736033 131.054123,463.563193 131.054123,463.332741 C131.054123,463.102288 130.98828,462.925333 130.856593,462.801877 C130.724905,462.67842 130.552066,462.616691 130.338074,462.616691 C130.099391,462.616691 129.860708,462.688708 129.622025,462.832741 C129.383342,462.976774 129.185811,463.159901 129.029432,463.382123 C128.659062,462.95414 128.087045,462.740148 127.313383,462.740148 C126.663177,462.740148 126.140543,462.9027 125.745481,463.227802 C125.35042,463.552905 125.152889,464.04056 125.152889,464.690765 C125.152889,465.275128 125.31544,465.727802 125.640543,466.04879 C125.965646,466.369778 126.399802,466.559078 126.943012,466.616691 C126.515029,466.838914 126.208444,467.065251 126.023259,467.295704 C125.838074,467.526156 125.745481,467.768955 125.745481,468.024099 C125.745481,468.394469 125.891572,468.641383 126.183753,468.76484 C126.475934,468.888296 126.864823,468.950025 127.35042,468.950025 L127.35042,468.950025 L128.264,468.950025 C128.798979,468.950025 129.171407,469.032329 129.381284,469.196938 C129.59116,469.361547 129.696099,469.592 129.696099,469.888296 C129.696099,470.398584 129.469761,470.775128 129.017086,471.017926 C128.564412,471.260724 128.021202,471.382123 127.387457,471.382123 C126.811325,471.382123 126.352477,471.2813 126.010914,471.079654 C125.66935,470.878008 125.498568,470.587885 125.498568,470.209284 C125.498568,469.995292 125.552066,469.801877 125.659062,469.629037 C125.766058,469.456198 125.910091,469.340971 126.09116,469.283358 L126.09116,469.283358 L126.017086,469.085827 C125.613794,469.201053 125.298979,469.361547 125.072642,469.567309 C124.846305,469.77307 124.733136,470.015868 124.733136,470.295704 C124.733136,470.723687 124.973877,471.046733 125.455358,471.26484 C125.93684,471.482947 126.535605,471.592 127.251654,471.592 Z M127.313383,466.41916 C126.984165,466.41916 126.735193,466.289531 126.566469,466.030272 C126.397745,465.771012 126.313383,465.32451 126.313383,464.690765 C126.313383,464.057021 126.397745,463.610519 126.566469,463.351259 C126.735193,463.092 126.984165,462.96237 127.313383,462.96237 C127.642601,462.96237 127.891572,463.092 128.060296,463.351259 C128.229021,463.610519 128.313383,464.057021 128.313383,464.690765 C128.313383,465.32451 128.229021,465.771012 128.060296,466.030272 C127.891572,466.289531 127.642601,466.41916 127.313383,466.41916 Z M133.967704,469.443852 C134.395687,469.443852 134.790749,469.32451 135.152889,469.085827 C135.515029,468.847144 135.794864,468.472658 135.992395,467.96237 L135.992395,467.96237 L135.992395,469.41916 C136.329844,469.303934 136.757827,469.246321 137.276346,469.246321 C137.53149,469.246321 137.786634,469.258667 138.041778,469.283358 L138.041778,469.283358 L138.041778,469.024099 C137.696099,469.024099 137.4533,468.937679 137.313383,468.76484 C137.173465,468.592 137.103506,468.31628 137.103506,467.937679 L137.103506,467.937679 L137.103506,462.777185 C136.766058,462.892412 136.338074,462.950025 135.819556,462.950025 C135.564412,462.950025 135.309267,462.937679 135.054123,462.912988 L135.054123,462.912988 L135.054123,463.172247 C135.399802,463.172247 135.642601,463.258667 135.782519,463.431506 C135.922436,463.604346 135.992395,463.880066 135.992395,464.258667 L135.992395,464.258667 L135.992395,466.814222 C135.992395,467.225745 135.920379,467.602288 135.776346,467.943852 C135.632313,468.285416 135.432724,468.554963 135.17758,468.752494 C134.922436,468.950025 134.638486,469.04879 134.325728,469.04879 C134.045893,469.04879 133.838074,468.987062 133.702272,468.863605 C133.566469,468.740148 133.480049,468.581712 133.443012,468.388296 C133.405975,468.194881 133.387457,467.941794 133.387457,467.629037 L133.387457,467.629037 L133.387457,462.777185 C133.050008,462.892412 132.622025,462.950025 132.103506,462.950025 C131.848362,462.950025 131.593218,462.937679 131.338074,462.912988 L131.338074,462.912988 L131.338074,463.172247 C131.683753,463.172247 131.926551,463.258667 132.066469,463.431506 C132.206387,463.604346 132.276346,463.880066 132.276346,464.258667 L132.276346,464.258667 L132.276346,467.357432 C132.276346,467.760724 132.30721,468.089942 132.368938,468.345086 C132.430667,468.60023 132.535605,468.810107 132.683753,468.974716 C132.980049,469.287473 133.408033,469.443852 133.967704,469.443852 Z M141.572642,469.271012 L141.572642,469.011753 C141.226963,469.011753 140.984165,468.947967 140.844247,468.820395 C140.704329,468.692823 140.63437,468.460313 140.63437,468.122864 L140.63437,468.122864 L140.63437,459.592 C140.296922,459.707226 139.868938,459.76484 139.35042,459.76484 C139.095276,459.76484 138.840132,459.752494 138.584988,459.727802 L138.584988,459.727802 L138.584988,459.987062 C138.930667,459.987062 139.173465,460.073481 139.313383,460.246321 C139.4533,460.41916 139.523259,460.694881 139.523259,461.073481 L139.523259,461.073481 L139.523259,468.122864 C139.523259,468.460313 139.4533,468.692823 139.313383,468.820395 C139.173465,468.947967 138.930667,469.011753 138.584988,469.011753 L138.584988,469.011753 L138.584988,469.271012 C139.342189,469.238091 139.840132,469.22163 140.078815,469.22163 C140.317498,469.22163 140.81544,469.238091 141.572642,469.271012 L141.572642,469.271012 Z M146.856593,469.357432 C147.087045,469.357432 147.278403,469.322453 147.430667,469.252494 C147.58293,469.182535 147.766058,469.065251 147.980049,468.900642 L147.980049,468.900642 L147.844247,468.690765 C147.745481,468.77307 147.652889,468.836856 147.566469,468.882123 C147.480049,468.927391 147.387457,468.950025 147.288691,468.950025 C147.148774,468.950025 147.050008,468.904757 146.992395,468.814222 C146.934782,468.723687 146.905975,468.575539 146.905975,468.369778 L146.905975,468.369778 L146.905975,464.937679 C146.905975,464.501465 146.870996,464.149613 146.801037,463.882123 C146.731078,463.614634 146.593218,463.386239 146.387457,463.196938 C146.058239,462.892412 145.572642,462.740148 144.930667,462.740148 C144.568527,462.740148 144.235193,462.785416 143.930667,462.875951 C143.62614,462.966486 143.375111,463.081712 143.17758,463.22163 C142.98828,463.353317 142.846305,463.485004 142.751654,463.616691 C142.657004,463.748379 142.609679,463.912988 142.609679,464.110519 C142.609679,464.31628 142.667292,464.491177 142.782519,464.63521 C142.897745,464.779243 143.070584,464.851259 143.301037,464.851259 C143.506798,464.851259 143.675523,464.791588 143.80721,464.672247 C143.938897,464.552905 144.004741,464.390354 144.004741,464.184593 C144.004741,463.987062 143.949185,463.822453 143.838074,463.690765 C143.726963,463.559078 143.589103,463.472658 143.424494,463.431506 C143.663177,463.13521 144.070584,462.987062 144.646716,462.987062 C145.008856,462.987062 145.290749,463.075539 145.492395,463.252494 C145.694041,463.429449 145.794864,463.756609 145.794864,464.233975 L145.794864,464.233975 L145.794864,464.999407 C145.794864,465.22163 145.683753,465.398584 145.461531,465.530272 C145.239309,465.661959 144.897745,465.805992 144.43684,465.96237 C143.984165,466.118749 143.619967,466.266897 143.344247,466.406815 C143.068527,466.546733 142.829844,466.736033 142.628198,466.974716 C142.426551,467.213399 142.325728,467.517926 142.325728,467.888296 C142.325728,468.349202 142.451243,468.709284 142.702272,468.968543 C142.9533,469.227802 143.338074,469.357432 143.856593,469.357432 C144.259885,469.357432 144.622025,469.277185 144.943012,469.116691 C145.264,468.956198 145.547951,468.670189 145.794864,468.258667 C145.794864,468.596115 145.873053,468.863605 146.029432,469.061136 C146.185811,469.258667 146.461531,469.357432 146.856593,469.357432 Z M144.399802,468.863605 C144.103506,468.863605 143.864823,468.768955 143.683753,468.579654 C143.502683,468.390354 143.412148,468.110519 143.412148,467.740148 C143.412148,467.41916 143.482107,467.155786 143.622025,466.950025 C143.761942,466.744263 143.928609,466.581712 144.122025,466.46237 C144.31544,466.343029 144.568527,466.217514 144.881284,466.085827 C145.152889,465.96237 145.354535,465.863605 145.486222,465.789531 C145.617909,465.715457 145.72079,465.620807 145.794864,465.50558 L145.794864,465.50558 L145.794864,467.925333 C145.408033,468.550848 144.943012,468.863605 144.399802,468.863605 Z M151.708444,469.271012 L151.708444,469.011753 C151.27223,469.011753 150.94507,468.937679 150.726963,468.789531 C150.508856,468.641383 150.399802,468.378008 150.399802,467.999407 L150.399802,467.999407 L150.399802,465.382123 C150.399802,465.061136 150.473877,464.719572 150.622025,464.357432 C150.770173,463.995292 150.975934,463.688708 151.239309,463.437679 C151.502683,463.18665 151.794864,463.061136 152.115852,463.061136 C152.231078,463.061136 152.317498,463.102288 152.375111,463.184593 C152.095276,463.357432 151.955358,463.579654 151.955358,463.851259 C151.955358,464.04879 152.019144,464.205169 152.146716,464.320395 C152.274288,464.435621 152.428609,464.493235 152.609679,464.493235 C152.823671,464.493235 152.994453,464.417103 153.122025,464.26484 C153.249597,464.112576 153.313383,463.929449 153.313383,463.715457 C153.313383,463.443852 153.208444,463.213399 152.998568,463.024099 C152.788691,462.834798 152.519144,462.740148 152.189926,462.740148 C151.794864,462.740148 151.434782,462.900642 151.109679,463.22163 C150.784576,463.542617 150.547951,463.908872 150.399802,464.320395 L150.399802,464.320395 L150.399802,462.777185 C150.062354,462.892412 149.63437,462.950025 149.115852,462.950025 C148.868938,462.950025 148.613794,462.937679 148.35042,462.912988 L148.35042,462.912988 L148.35042,463.172247 C148.696099,463.172247 148.938897,463.258667 149.078815,463.431506 C149.218733,463.604346 149.288691,463.880066 149.288691,464.258667 L149.288691,464.258667 L149.288691,468.122864 C149.288691,468.460313 149.218733,468.692823 149.078815,468.820395 C148.938897,468.947967 148.696099,469.011753 148.35042,469.011753 L148.35042,469.011753 L148.35042,469.271012 C149.107621,469.238091 149.593218,469.22163 149.80721,469.22163 C150.037663,469.22163 150.572642,469.233975 151.412148,469.258667 L151.412148,469.258667 L151.708444,469.271012 Z M163.943012,469.271012 L163.943012,469.011753 C163.506798,469.011753 163.200214,468.939737 163.023259,468.795704 C162.846305,468.651671 162.757827,468.386239 162.757827,467.999407 L162.757827,467.999407 L162.757827,462.777185 C162.44507,462.999407 162.093218,463.155786 161.702272,463.246321 C161.311325,463.336856 160.81544,463.390354 160.214617,463.406815 L160.214617,463.406815 L160.214617,463.67842 C160.617909,463.67842 160.916263,463.709284 161.109679,463.771012 C161.303095,463.832741 161.440955,463.956198 161.523259,464.141383 C161.605564,464.326568 161.646716,464.616691 161.646716,465.011753 L161.646716,465.011753 L161.646716,467.999407 C161.646716,468.378008 161.537663,468.641383 161.319556,468.789531 C161.101449,468.937679 160.774288,469.011753 160.338074,469.011753 L160.338074,469.011753 L160.338074,469.271012 L160.63437,469.258667 C161.473877,469.233975 162.008856,469.22163 162.239309,469.22163 C162.486222,469.22163 163.054123,469.238091 163.943012,469.271012 L163.943012,469.271012 Z M169.560296,469.332741 C169.527374,468.995292 169.510914,468.447967 169.510914,467.690765 L169.510914,467.690765 L169.301037,467.690765 C169.276346,467.863605 169.243424,467.993235 169.202272,468.079654 C169.161119,468.166074 169.084988,468.227802 168.973877,468.26484 C168.862765,468.301877 168.696099,468.320395 168.473877,468.320395 L168.473877,468.320395 L165.967704,468.320395 C166.099391,468.139325 166.247539,467.968543 166.412148,467.808049 C166.576757,467.647556 166.827786,467.41093 167.165235,467.098173 C167.576757,466.727802 167.908033,466.41093 168.159062,466.147556 C168.410091,465.884181 168.624082,465.594058 168.801037,465.277185 C168.977992,464.960313 169.066469,464.633152 169.066469,464.295704 C169.066469,463.801877 168.90186,463.41916 168.572642,463.147556 C168.243424,462.875951 167.790749,462.740148 167.214617,462.740148 C166.597333,462.740148 166.09116,462.886239 165.696099,463.17842 C165.301037,463.470601 164.99651,463.838914 164.782519,464.283358 L164.782519,464.283358 L164.980049,464.394469 C165.408033,463.620807 165.959473,463.233975 166.63437,463.233975 C167.457416,463.233975 167.868938,463.67842 167.868938,464.567309 C167.868938,465.069366 167.75577,465.542617 167.529432,465.987062 C167.303095,466.431506 167.033547,466.828626 166.72079,467.17842 C166.408033,467.528214 166.017086,467.921218 165.547951,468.357432 C165.210502,468.67842 164.971819,468.912988 164.831901,469.061136 L164.831901,469.061136 L164.831901,469.271012 L167.72079,469.271012 C168.766058,469.271012 169.379226,469.291588 169.560296,469.332741 Z M170.572642,471.13521 C171.296922,471.13521 172.010914,471.00558 172.714617,470.746321 C173.418321,470.487062 173.998568,470.122864 174.455358,469.653728 C174.912148,469.184593 175.140543,468.653728 175.140543,468.061136 C175.140543,467.468543 174.918321,467.011753 174.473877,466.690765 C174.029432,466.369778 173.490337,466.201053 172.856593,466.184593 C173.366881,466.003523 173.801037,465.731918 174.159062,465.369778 C174.517086,465.007638 174.696099,464.60023 174.696099,464.147556 C174.696099,463.719572 174.529432,463.378008 174.196099,463.122864 C173.862765,462.86772 173.43684,462.740148 172.918321,462.740148 C171.889514,462.740148 171.136428,463.254551 170.659062,464.283358 L170.659062,464.283358 L170.868938,464.382123 C171.058239,464.019984 171.292807,463.746321 171.572642,463.561136 C171.852477,463.375951 172.165235,463.283358 172.510914,463.283358 C172.848362,463.283358 173.111737,463.373893 173.301037,463.554963 C173.490337,463.736033 173.584988,464.015868 173.584988,464.394469 C173.584988,464.723687 173.506798,465.04056 173.35042,465.345086 C173.194041,465.649613 172.955358,465.925333 172.63437,466.172247 C172.568527,466.164016 172.492395,466.153728 172.405975,466.141383 C172.319556,466.129037 172.251654,466.122864 172.202272,466.122864 C172.111737,466.122864 172.035605,466.14344 171.973877,466.184593 C171.912148,466.225745 171.881284,466.283358 171.881284,466.357432 C171.881284,466.464428 171.947128,466.517926 172.078815,466.517926 C172.161119,466.517926 172.270173,466.491177 172.405975,466.437679 C172.541778,466.384181 172.62614,466.349202 172.659062,466.332741 C173.054123,466.365663 173.370996,466.54056 173.609679,466.857432 C173.848362,467.174305 173.967704,467.575539 173.967704,468.061136 C173.967704,468.645498 173.80721,469.149613 173.486222,469.573481 C173.165235,469.99735 172.745481,470.322453 172.226963,470.54879 C171.708444,470.775128 171.157004,470.896527 170.572642,470.912988 L170.572642,470.912988 L170.572642,471.13521 Z M180.103506,471.011753 L180.103506,468.604346 C180.819556,468.620807 181.231078,468.641383 181.338074,468.666074 C181.305152,468.345086 181.288691,467.838914 181.288691,467.147556 L181.288691,467.147556 L181.078815,467.147556 C181.054123,467.320395 181.021202,467.450025 180.980049,467.536444 C180.938897,467.622864 180.862765,467.684593 180.751654,467.72163 C180.640543,467.758667 180.473877,467.777185 180.251654,467.777185 L180.251654,467.777185 L180.103506,467.777185 L180.103506,462.740148 L179.905975,462.740148 L175.89363,468.345086 L175.89363,468.604346 L179.115852,468.604346 L179.115852,471.011753 L180.103506,471.011753 Z M179.115852,467.777185 L176.622025,467.777185 L179.115852,464.246321 L179.115852,467.777185 Z M182.338074,471.098173 C182.99651,471.098173 183.640543,470.966486 184.270173,470.703111 C184.899802,470.439737 185.414206,470.067309 185.813383,469.585827 C186.21256,469.104346 186.412148,468.559078 186.412148,467.950025 C186.412148,467.382123 186.226963,466.923276 185.856593,466.573481 C185.486222,466.223687 184.943012,466.04879 184.226963,466.04879 C183.922436,466.04879 183.663177,466.081712 183.449185,466.147556 C183.235193,466.213399 183.012971,466.303934 182.782519,466.41916 L182.782519,466.41916 L182.930667,464.036444 L184.239309,464.036444 C185.210502,464.036444 185.782519,464.057021 185.955358,464.098173 C185.922436,463.736033 185.905975,463.13521 185.905975,462.295704 L185.905975,462.295704 L185.671407,462.295704 C185.646716,462.468543 185.613794,462.598173 185.572642,462.684593 C185.53149,462.771012 185.455358,462.832741 185.344247,462.869778 C185.233136,462.906815 185.066469,462.925333 184.844247,462.925333 L184.844247,462.925333 L183.449185,462.925333 C183.16935,462.925333 182.947128,462.908872 182.782519,462.875951 L182.782519,462.875951 L182.547951,466.554963 L182.671407,466.629037 C182.868938,466.554963 183.037663,466.501465 183.17758,466.468543 C183.317498,466.435621 183.486222,466.41916 183.683753,466.41916 C184.17758,466.41916 184.560296,466.565251 184.831901,466.857432 C185.103506,467.149613 185.239309,467.554963 185.239309,468.073481 C185.239309,468.666074 185.101449,469.172247 184.825728,469.592 C184.550008,470.011753 184.191984,470.328626 183.751654,470.542617 C183.311325,470.756609 182.840132,470.86772 182.338074,470.875951 L182.338074,470.875951 L182.338074,471.098173 Z M190.103506,469.443852 C190.605564,469.443852 191.062354,469.330683 191.473877,469.104346 C191.885399,468.878008 192.21256,468.546733 192.455358,468.110519 C192.698156,467.674305 192.819556,467.155786 192.819556,466.554963 C192.819556,466.003523 192.716675,465.524099 192.510914,465.116691 C192.305152,464.709284 192.033547,464.398584 191.696099,464.184593 C191.35865,463.970601 190.992395,463.863605 190.597333,463.863605 C190.268115,463.863605 189.938897,463.943852 189.609679,464.104346 C189.280461,464.26484 189.021202,464.517926 188.831901,464.863605 C188.914206,463.908872 189.107621,463.139325 189.412148,462.554963 C189.716675,461.970601 190.068527,461.538502 190.467704,461.258667 C190.866881,460.978831 191.317498,460.756609 191.819556,460.592 L191.819556,460.592 L191.770173,460.345086 C191.128198,460.468543 190.490337,460.742206 189.856593,461.166074 C189.222848,461.589942 188.685811,462.203111 188.245481,463.00558 C187.805152,463.808049 187.584988,464.785416 187.584988,465.937679 C187.584988,467.04056 187.80721,467.900642 188.251654,468.517926 C188.696099,469.13521 189.313383,469.443852 190.103506,469.443852 Z M190.226963,469.196938 C189.823671,469.196938 189.482107,468.945909 189.202272,468.443852 C188.922436,467.941794 188.782519,467.098173 188.782519,465.912988 C188.782519,465.624922 188.786634,465.415045 188.794864,465.283358 C188.934782,464.912988 189.146716,464.64344 189.430667,464.474716 C189.714617,464.305992 190.000626,464.22163 190.288691,464.22163 C190.683753,464.22163 191.004741,464.415045 191.251654,464.801877 C191.498568,465.188708 191.622025,465.801877 191.622025,466.641383 C191.622025,467.50558 191.490337,468.147556 191.226963,468.567309 C190.963588,468.987062 190.630255,469.196938 190.226963,469.196938 Z M195.535605,471.098173 C195.708444,471.098173 195.848362,471.04056 195.955358,470.925333 C196.062354,470.810107 196.115852,470.657844 196.115852,470.468543 C196.115852,470.394469 196.107621,470.266897 196.09116,470.085827 C196.0747,469.855374 196.066469,469.657844 196.066469,469.493235 C196.066469,468.843029 196.136428,468.227802 196.276346,467.647556 C196.416263,467.067309 196.584988,466.552905 196.782519,466.104346 C196.980049,465.655786 197.239309,465.122864 197.560296,464.50558 C197.864823,463.912988 198.078815,463.472658 198.202272,463.184593 L198.202272,463.184593 L198.202272,462.925333 L195.229739,462.924968 C194.332668,462.922046 193.796764,462.901592 193.622025,462.863605 C193.654947,463.201053 193.671407,463.777185 193.671407,464.592 L193.671407,464.592 L193.881284,464.592 C193.905975,464.41916 193.938897,464.289531 193.980049,464.203111 C194.021202,464.116691 194.097333,464.054963 194.208444,464.017926 C194.319556,463.980889 194.486222,463.96237 194.708444,463.96237 L194.708444,463.96237 L197.63437,463.96237 L197.054123,464.937679 C196.609679,465.670189 196.249597,466.297761 195.973877,466.820395 C195.698156,467.343029 195.463588,467.912988 195.270173,468.530272 C195.076757,469.147556 194.980049,469.77307 194.980049,470.406815 C194.980049,470.604346 195.027374,470.768955 195.122025,470.900642 C195.216675,471.032329 195.354535,471.098173 195.535605,471.098173 Z M201.424494,469.443852 C201.934782,469.443852 202.391572,469.345086 202.794864,469.147556 C203.198156,468.950025 203.515029,468.672247 203.745481,468.314222 C203.975934,467.956198 204.09116,467.546733 204.09116,467.085827 C204.09116,466.674305 203.998568,466.308049 203.813383,465.987062 C203.628198,465.666074 203.408033,465.392412 203.152889,465.166074 C202.897745,464.939737 202.53972,464.657844 202.078815,464.320395 C202.580872,463.991177 202.967704,463.641383 203.239309,463.271012 C203.510914,462.900642 203.646716,462.493235 203.646716,462.04879 C203.646716,461.513811 203.4533,461.098173 203.066469,460.801877 C202.679638,460.50558 202.194041,460.357432 201.609679,460.357432 C201.189926,460.357432 200.80721,460.437679 200.461531,460.598173 C200.115852,460.758667 199.844247,460.985004 199.646716,461.277185 C199.449185,461.569366 199.35042,461.904757 199.35042,462.283358 C199.35042,462.768955 199.486222,463.196938 199.757827,463.567309 C200.029432,463.937679 200.416263,464.328626 200.918321,464.740148 C200.325728,465.036444 199.848362,465.406815 199.486222,465.851259 C199.124082,466.295704 198.943012,466.801877 198.943012,467.369778 C198.943012,468.036444 199.181695,468.54879 199.659062,468.906815 C200.136428,469.26484 200.724905,469.443852 201.424494,469.443852 Z M201.89363,464.184593 C201.375111,463.797761 200.982107,463.437679 200.714617,463.104346 C200.447128,462.771012 200.313383,462.369778 200.313383,461.900642 C200.313383,461.49735 200.422436,461.176362 200.640543,460.937679 C200.85865,460.698996 201.136428,460.579654 201.473877,460.579654 C201.852477,460.579654 202.144658,460.727802 202.35042,461.024099 C202.556181,461.320395 202.659062,461.715457 202.659062,462.209284 C202.659062,463.04056 202.403918,463.698996 201.89363,464.184593 Z M201.498568,469.22163 C200.99651,469.22163 200.62614,469.028214 200.387457,468.641383 C200.148774,468.254551 200.029432,467.768955 200.029432,467.184593 C200.029432,466.172247 200.387457,465.406815 201.103506,464.888296 C201.556181,465.250436 201.903918,465.542617 202.146716,465.76484 C202.389514,465.987062 202.599391,466.252494 202.776346,466.561136 C202.9533,466.869778 203.041778,467.217514 203.041778,467.604346 C203.041778,468.106403 202.89363,468.501465 202.597333,468.789531 C202.301037,469.077597 201.934782,469.22163 201.498568,469.22163 Z M206.226963,471.098173 C206.860708,470.991177 207.49651,470.742206 208.13437,470.351259 C208.77223,469.960313 209.311325,469.398584 209.751654,468.666074 C210.191984,467.933564 210.412148,467.044675 210.412148,465.999407 C210.412148,464.970601 210.189926,464.170189 209.745481,463.598173 C209.301037,463.026156 208.683753,462.740148 207.89363,462.740148 C207.391572,462.740148 206.934782,462.853317 206.523259,463.079654 C206.111737,463.305992 205.784576,463.637267 205.541778,464.073481 C205.298979,464.509695 205.17758,465.028214 205.17758,465.629037 C205.17758,466.180477 205.280461,466.659901 205.486222,467.067309 C205.691984,467.474716 205.963588,467.785416 206.301037,467.999407 C206.638486,468.213399 207.004741,468.320395 207.399802,468.320395 C207.71256,468.320395 208.029432,468.248379 208.35042,468.104346 C208.671407,467.960313 208.926551,467.727802 209.115852,467.406815 C208.943012,468.501465 208.597333,469.295704 208.078815,469.789531 C207.560296,470.283358 206.926551,470.637267 206.17758,470.851259 L206.17758,470.851259 L206.226963,471.098173 Z M207.708444,467.96237 C207.313383,467.96237 206.992395,467.768955 206.745481,467.382123 C206.498568,466.995292 206.375111,466.382123 206.375111,465.542617 C206.375111,464.67842 206.506798,464.036444 206.770173,463.616691 C207.033547,463.196938 207.366881,462.987062 207.770173,462.987062 C208.173465,462.987062 208.515029,463.219572 208.794864,463.684593 C209.0747,464.149613 209.214617,464.929449 209.214617,466.024099 C209.214617,466.394469 209.198156,466.711342 209.165235,466.974716 C209.025317,467.320395 208.817498,467.571424 208.541778,467.727802 C208.266058,467.884181 207.98828,467.96237 207.708444,467.96237 Z M214.63437,469.443852 C215.243424,469.443852 215.784576,469.293646 216.257827,468.993235 C216.731078,468.692823 217.099391,468.2813 217.362765,467.758667 C217.62614,467.236033 217.757827,466.645498 217.757827,465.987062 C217.757827,465.345086 217.630255,464.777185 217.375111,464.283358 C217.119967,463.789531 216.766058,463.408872 216.313383,463.141383 C215.860708,462.873893 215.346305,462.740148 214.770173,462.740148 C214.152889,462.740148 213.607621,462.890354 213.13437,463.190765 C212.661119,463.491177 212.294864,463.9027 212.035605,464.425333 C211.776346,464.947967 211.646716,465.534387 211.646716,466.184593 C211.646716,466.834798 211.776346,467.406815 212.035605,467.900642 C212.294864,468.394469 212.650831,468.775128 213.103506,469.042617 C213.556181,469.310107 214.066469,469.443852 214.63437,469.443852 Z M214.745481,469.22163 C214.185811,469.22163 213.729021,468.970601 213.375111,468.468543 C213.021202,467.966486 212.844247,467.192823 212.844247,466.147556 C212.844247,465.489119 212.920379,464.91916 213.072642,464.437679 C213.224905,463.956198 213.438897,463.589942 213.714617,463.338914 C213.990337,463.087885 214.305152,462.96237 214.659062,462.96237 C215.218733,462.96237 215.675523,463.213399 216.029432,463.715457 C216.383342,464.217514 216.560296,464.987062 216.560296,466.024099 C216.560296,466.682535 216.484165,467.252494 216.331901,467.733975 C216.179638,468.215457 215.965646,468.58377 215.689926,468.838914 C215.414206,469.094058 215.099391,469.22163 214.745481,469.22163 Z" id="playfairdisplayregular1234567890"></path>
            </g>
        </g>
    </g>
</svg>