<?xml version="1.0" encoding="UTF-8"?>
<svg width="176px" height="13px" viewBox="0 0 176 13" version="1.1" xmlns="http://www.w3.org/2000/svg" xmlns:xlink="http://www.w3.org/1999/xlink">
    <title>playfairdisplayitalic1234567890</title>
    <g id="页面-1" stroke="none" stroke-width="1" fill="none" fill-rule="evenodd">
        <g id="弃-增加英文字体分类" transform="translate(-747.000000, -539.000000)" fill="#FFFFFF" fill-rule="nonzero">
            <g id="编组-4" transform="translate(720.000000, 10.000000)">
                <path d="M30.1628444,541.374547 L30.2360895,541.118189 C29.9024171,541.118189 29.646059,541.073428 29.4670153,540.983906 C29.2879715,540.894385 29.1984496,540.743825 29.1984496,540.532228 C29.1984496,540.434568 29.2147263,540.336907 29.2472798,540.239247 L29.2472798,540.239247 L29.7111658,538.627854 C29.7925493,538.847589 29.922763,539.020529 30.1018067,539.146673 C30.2808505,539.272818 30.4802401,539.33589 30.6999756,539.33589 C31.4080122,539.33589 32.0346653,539.069359 32.5799349,538.536297 C33.1252045,538.003235 33.5443296,537.352167 33.8373103,536.583093 C34.1302909,535.814018 34.2767813,535.099878 34.2767813,534.440671 C34.2767813,533.870987 34.1648789,533.441689 33.9410743,533.152777 C33.7172696,532.863866 33.4059776,532.71941 33.0071984,532.71941 C32.5840041,532.71941 32.1831902,532.922869 31.8047569,533.329786 C31.4263235,533.736704 31.0458555,534.391841 30.663353,535.295198 L30.663353,535.295198 L31.9329359,530.851658 C31.6318169,530.949318 31.2615219,531.006287 30.8220509,531.022564 L30.8220509,531.022564 L30.7732208,531.193469 C30.5209318,531.803845 30.2666083,532.318596 30.0102503,532.737721 C29.7538922,533.156846 29.4975341,533.512899 29.241176,533.80588 C28.9848179,534.098861 28.6653876,534.432533 28.282885,534.806897 L28.282885,534.806897 L28.4171679,534.965595 C28.8973306,534.509847 29.300179,534.074446 29.6257131,533.65939 C29.9512472,533.244334 30.2360895,532.764171 30.4802401,532.218901 L30.4802401,532.218901 L28.1974323,540.361322 C28.1160488,540.654303 28.0102503,540.853693 27.8800366,540.959491 C27.749823,541.06529 27.5382258,541.118189 27.2452452,541.118189 L27.2452452,541.118189 L27.172,541.374547 C27.8556216,541.341994 28.3073001,541.325717 28.5270356,541.325717 L28.6067613,541.326169 C28.8438787,541.328581 29.2771204,541.340638 29.9064863,541.36234 L29.9064863,541.36234 L30.1628444,541.374547 Z M30.6877681,539.055117 C30.4843093,539.055117 30.3093347,538.998149 30.1628444,538.884212 C30.016354,538.770275 29.8942787,538.583093 29.7966185,538.322665 L29.7966185,538.322665 L30.1140142,537.21178 C30.3500264,536.47119 30.6226612,535.787569 30.9319186,535.160916 C31.241176,534.534262 31.5483988,534.035788 31.853587,533.665493 C32.1587752,533.295198 32.4253062,533.110051 32.6531801,533.110051 C32.8322238,533.110051 32.9726104,533.199573 33.0743398,533.378616 C33.1760692,533.55766 33.2269339,533.822157 33.2269339,534.172106 C33.2269339,534.798759 33.1068932,535.498657 32.8668118,536.271801 C32.6267304,537.044944 32.3113693,537.702116 31.9207284,538.243316 C31.5300875,538.784517 31.1191007,539.055117 30.6877681,539.055117 Z M35.7294771,539.33589 C36.421237,539.33589 36.9095381,538.916765 37.1943805,538.078515 L37.1943805,538.078515 L37.4995687,537.187365 L37.2676256,537.187365 L37.1089278,537.639044 C36.9461607,538.094791 36.7935666,538.416256 36.6511455,538.603438 C36.5087243,538.790621 36.3561302,538.884212 36.1933632,538.884212 C36.0061811,538.884212 35.91259,538.774344 35.91259,538.554608 C35.91259,538.440671 35.9370051,538.29825 35.9858352,538.127345 L35.9858352,538.127345 L38.5372085,529.46 C38.2116745,529.622767 37.8759674,529.744842 37.5300875,529.826226 C37.1842075,529.907609 36.7956012,529.95237 36.3642686,529.960509 L36.3642686,529.960509 L36.2788159,530.216867 C36.5799349,530.216867 36.7935666,530.253489 36.9197111,530.326734 C37.0458555,530.39998 37.1089278,530.517986 37.1089278,530.680753 C37.1089278,530.762136 37.0885819,530.876073 37.0478901,531.022564 L37.0478901,531.022564 L35.0580631,537.626836 C34.9441261,538.033754 34.8871577,538.338942 34.8871577,538.542401 C34.8871577,539.071394 35.1679308,539.33589 35.7294771,539.33589 Z M42.1994669,539.33589 C42.4680326,539.33589 42.7284598,539.236195 42.9807487,539.036806 C43.2330376,538.837416 43.4405656,538.513917 43.6033327,538.066307 L43.6033327,538.066307 L43.9085209,537.175158 L43.6765778,537.175158 L43.5300875,537.626836 C43.2615219,538.456948 42.9481953,538.872004 42.5901078,538.872004 C42.4110641,538.872004 42.3215422,538.770275 42.3215422,538.566816 C42.3215422,538.485432 42.3337497,538.397945 42.3581648,538.304354 C42.3825799,538.210763 42.3988566,538.147691 42.4069949,538.115137 L42.4069949,538.115137 L43.9329359,532.71941 C43.6318169,532.81707 43.2574527,532.874039 42.8098433,532.890315 L42.8098433,532.890315 L42.6145229,533.647182 C42.5901078,533.354201 42.5087243,533.126328 42.3703723,532.963561 C42.2320203,532.800793 42.0529766,532.71941 41.8332411,532.71941 C41.2554181,532.71941 40.6857335,533.004252 40.1241872,533.573937 C39.5626409,534.143622 39.1068932,534.835381 38.756944,535.649217 C38.4069949,536.463052 38.2320203,537.199573 38.2320203,537.858779 C38.2320203,538.306389 38.3296806,538.664476 38.525001,538.933042 C38.7203215,539.201607 39.0051638,539.33589 39.379528,539.33589 C39.818999,539.33589 40.2401587,539.130397 40.6430071,538.71941 C41.0458555,538.308423 41.4426002,537.647182 41.8332411,536.735687 L41.8332411,536.735687 L41.6135056,537.614629 C41.5972289,537.671597 41.5606063,537.80588 41.5036378,538.017477 C41.4466694,538.229074 41.4181851,538.420326 41.4181851,538.591231 C41.4181851,538.753998 41.4548077,538.896419 41.5280529,539.018494 C41.5931597,539.116155 41.6826816,539.193469 41.7966185,539.250437 C41.9105554,539.307406 42.0448383,539.33589 42.1994669,539.33589 Z M39.7335463,538.945249 C39.5951943,538.945249 39.4893957,538.872004 39.4161506,538.725514 C39.3429054,538.579023 39.3062828,538.338942 39.3062828,538.00527 C39.3062828,537.305371 39.438531,536.558678 39.7030275,535.765188 C39.9675239,534.971699 40.2950926,534.304354 40.6857335,533.763154 C41.0763744,533.221953 41.4466694,532.951353 41.7966185,532.951353 C42.0082157,532.951353 42.1730173,533.046979 42.2910234,533.23823 C42.4090295,533.429481 42.4680326,533.691943 42.4680326,534.025615 C42.4680326,534.139552 42.4639634,534.229074 42.455825,534.294181 L42.455825,534.294181 L42.2360895,535.160916 C42.0407691,535.820122 41.7905148,536.440671 41.4853266,537.022564 C41.1801384,537.604456 40.8688464,538.070376 40.5514507,538.420326 C40.2340549,538.770275 39.9614201,538.945249 39.7335463,538.945249 Z M44.2259166,541.46 C44.5026205,541.46 44.8566389,541.358271 45.2879715,541.154812 C46.1343601,540.747894 46.9359878,540.072411 47.6928545,539.128362 C48.3357843,538.322665 48.8973306,537.41117 49.3774934,536.393876 C49.8576562,535.376582 50.0977375,534.481363 50.0977375,533.70822 C50.0977375,533.049013 49.8861404,532.71941 49.4629461,532.71941 C49.2839023,532.71941 49.1353774,532.776378 49.0173713,532.890315 C48.8993652,533.004252 48.8403622,533.154812 48.8403622,533.341994 C48.8403622,533.578006 48.9339532,533.791638 49.1211353,533.982889 C49.3083174,534.17414 49.5239837,534.334873 49.7681343,534.465086 C49.6379207,535.132431 49.4100468,535.80588 49.0845127,536.485432 C48.7589786,537.164985 48.3724069,537.814018 47.9247976,538.432533 L47.9247976,538.432533 L47.3022136,533.842503 C47.2452452,533.419308 47.1496195,533.126328 47.0153367,532.963561 C46.8810539,532.800793 46.6836989,532.71941 46.4232716,532.71941 C45.7722035,532.71941 45.3042482,533.134466 45.0194059,533.964578 L45.0194059,533.964578 L44.7142177,534.855727 L44.9461607,534.855727 L45.1048586,534.404049 C45.2594873,533.972716 45.3917355,533.677701 45.5016033,533.519003 C45.611471,533.360305 45.7193042,533.280956 45.8251027,533.280956 C45.9309013,533.280956 46.0122848,533.329786 46.0692533,533.427447 C46.1262218,533.525107 46.1750519,533.700081 46.2157436,533.95237 L46.2157436,533.95237 L47.1191007,539.421343 C46.5331394,540.056134 45.922763,540.544435 45.2879715,540.886246 C45.1007894,540.739756 44.9278494,540.623784 44.7691516,540.538332 C44.6104537,540.452879 44.4456521,540.410153 44.2747467,540.410153 C44.095703,540.410153 43.9410743,540.458983 43.8108606,540.556643 C43.680647,540.654303 43.6155402,540.788586 43.6155402,540.959491 C43.6155402,541.11412 43.6745432,541.236195 43.7925493,541.325717 C43.9105554,541.415239 44.0550112,541.46 44.2259166,541.46 Z M50.0733225,541.46 C50.3663032,541.36234 50.732529,541.305371 51.172,541.289095 L51.172,541.289095 L53.3571475,533.134466 L54.7976358,533.134466 L54.870881,532.890315 L53.4303927,532.890315 L53.4303927,532.878108 L53.5646755,532.353184 C53.7355809,531.693978 53.878002,531.195504 53.991939,530.857762 C54.1058759,530.52002 54.248297,530.273835 54.4192024,530.119207 C54.6470763,529.907609 54.8830885,529.801811 55.1272391,529.801811 C55.2818678,529.801811 55.414116,529.83233 55.5239837,529.893367 C55.6338515,529.954405 55.6887854,530.021546 55.6887854,530.094791 C55.4771882,530.159898 55.3083174,530.263662 55.1821729,530.406083 C55.0560285,530.548505 54.9929563,530.717375 54.9929563,530.912696 C54.9848179,531.042909 55.0255097,531.144639 55.1150315,531.217884 C55.2045534,531.291129 55.3266287,531.327752 55.4812574,531.327752 C55.7091312,531.327752 55.9024171,531.240264 56.061115,531.06529 C56.2198128,530.890315 56.2991617,530.69703 56.2991617,530.485432 C56.2991617,530.233143 56.1953978,530.025615 55.9878698,529.862848 C55.7803418,529.700081 55.4975341,529.618698 55.1394466,529.618698 C54.8546043,529.618698 54.5758657,529.673632 54.3032309,529.783499 C54.0305961,529.893367 53.8006877,530.041892 53.6135056,530.229074 C53.34494,530.489502 53.1150315,530.829278 52.9237803,531.248403 C52.732529,531.667528 52.5473815,532.210763 52.3683377,532.878108 L52.3683377,532.878108 L52.3683377,532.890315 L51.2696602,532.890315 L51.1964151,533.134466 L52.2950926,533.134466 L50.0733225,541.46 Z M58.3744415,539.33589 C58.6430071,539.33589 58.9034344,539.236195 59.1557233,539.036806 C59.4080122,538.837416 59.6155402,538.513917 59.7783072,538.066307 L59.7783072,538.066307 L60.0834954,537.175158 L59.8515524,537.175158 L59.7050621,537.626836 C59.4364964,538.456948 59.1231699,538.872004 58.7650824,538.872004 C58.5860387,538.872004 58.4965168,538.770275 58.4965168,538.566816 C58.4965168,538.485432 58.5087243,538.397945 58.5331394,538.304354 C58.5575544,538.210763 58.5738311,538.147691 58.5819695,538.115137 L58.5819695,538.115137 L60.1079105,532.71941 C59.8067915,532.81707 59.4324273,532.874039 58.9848179,532.890315 L58.9848179,532.890315 L58.7894975,533.647182 C58.7650824,533.354201 58.6836989,533.126328 58.5453469,532.963561 C58.4069949,532.800793 58.2279512,532.71941 58.0082157,532.71941 C57.4303927,532.71941 56.860708,533.004252 56.2991617,533.573937 C55.7376155,534.143622 55.2818678,534.835381 54.9319186,535.649217 C54.5819695,536.463052 54.4069949,537.199573 54.4069949,537.858779 C54.4069949,538.306389 54.5046551,538.664476 54.6999756,538.933042 C54.895296,539.201607 55.1801384,539.33589 55.5545025,539.33589 C55.9939736,539.33589 56.4151333,539.130397 56.8179817,538.71941 C57.2208301,538.308423 57.6175748,537.647182 58.0082157,536.735687 L58.0082157,536.735687 L57.7884802,537.614629 C57.7722035,537.671597 57.7355809,537.80588 57.6786124,538.017477 C57.6216439,538.229074 57.5931597,538.420326 57.5931597,538.591231 C57.5931597,538.753998 57.6297823,538.896419 57.7030275,539.018494 C57.7681343,539.116155 57.8576562,539.193469 57.9715931,539.250437 C58.08553,539.307406 58.2198128,539.33589 58.3744415,539.33589 Z M55.9085209,538.945249 C55.7701689,538.945249 55.6643703,538.872004 55.5911251,538.725514 C55.51788,538.579023 55.4812574,538.338942 55.4812574,538.00527 C55.4812574,537.305371 55.6135056,536.558678 55.878002,535.765188 C56.1424985,534.971699 56.4700671,534.304354 56.860708,533.763154 C57.2513489,533.221953 57.6216439,532.951353 57.9715931,532.951353 C58.1831902,532.951353 58.3479919,533.046979 58.465998,533.23823 C58.5840041,533.429481 58.6430071,533.691943 58.6430071,534.025615 C58.6430071,534.139552 58.6389379,534.229074 58.6307996,534.294181 L58.6307996,534.294181 L58.4110641,535.160916 C58.2157436,535.820122 57.9654893,536.440671 57.6603011,537.022564 C57.3551129,537.604456 57.043821,538.070376 56.7264252,538.420326 C56.4090295,538.770275 56.1363947,538.945249 55.9085209,538.945249 Z M63.587056,531.449827 C63.8230682,531.449827 64.0346653,531.356236 64.2218474,531.169054 C64.4090295,530.981872 64.5026205,530.766205 64.5026205,530.522055 C64.5026205,530.343011 64.4456521,530.192452 64.3317152,530.070376 C64.2177782,529.948301 64.0672187,529.887263 63.8800366,529.887263 C63.6440244,529.887263 63.4344619,529.982889 63.2513489,530.17414 C63.068236,530.365392 62.9766796,530.583093 62.9766796,530.827243 C62.9766796,531.006287 63.033648,531.154812 63.1475849,531.272818 C63.2615219,531.390824 63.4080122,531.449827 63.587056,531.449827 Z M61.9390397,539.33589 C62.248297,539.33589 62.535174,539.23823 62.7996704,539.042909 C63.0641668,538.847589 63.2777986,538.526124 63.4405656,538.078515 L63.4405656,538.078515 L63.7579613,537.187365 L63.5260183,537.187365 L63.3551129,537.639044 C63.1842075,538.094791 63.0255097,538.416256 62.8790193,538.603438 C62.732529,538.790621 62.5738311,538.884212 62.4029257,538.884212 C62.2076053,538.884212 62.1099451,538.782482 62.1099451,538.579023 C62.1099451,538.473225 62.1424985,538.322665 62.2076053,538.127345 L62.2076053,538.127345 L63.5138108,534.428464 C63.6440244,534.070376 63.7091312,533.75705 63.7091312,533.488484 C63.7091312,532.975768 63.4405656,532.71941 62.9034344,532.71941 C62.6023154,532.71941 62.3154385,532.813001 62.0428037,533.000183 C61.7701689,533.187365 61.552468,533.512899 61.3897009,533.976785 L61.3897009,533.976785 L61.0723052,534.867935 L61.3042482,534.867935 L61.4751536,534.416256 C61.6379207,533.976785 61.7925493,533.65939 61.9390397,533.464069 C62.08553,533.268749 62.2523662,533.171089 62.4395483,533.171089 C62.6185921,533.171089 62.7081139,533.272818 62.7081139,533.476277 C62.7081139,533.582075 62.6755605,533.732635 62.6104537,533.927955 L62.6104537,533.927955 L61.3042482,537.626836 C61.1577579,538.033754 61.0845127,538.355219 61.0845127,538.591231 C61.0845127,539.08767 61.369355,539.33589 61.9390397,539.33589 Z M65.8454486,539.164985 L66.0895992,538.20059 C66.5453469,536.646165 67.0316134,535.394893 67.5483988,534.446775 C68.0651841,533.498657 68.5433123,533.024598 68.9827833,533.024598 C69.0397518,533.024598 69.0845127,533.040875 69.1170661,533.073428 C68.9461607,533.146673 68.8118779,533.248403 68.7142177,533.378616 C68.6165575,533.50883 68.5677274,533.667528 68.5677274,533.85471 C68.5677274,533.993062 68.6124883,534.100895 68.7020102,534.17821 C68.791532,534.255524 68.9095381,534.294181 69.0560285,534.294181 C69.2839023,534.294181 69.483292,534.208728 69.6541974,534.037823 C69.8251027,533.866918 69.9105554,533.65939 69.9105554,533.415239 C69.9105554,533.21178 69.8454486,533.044944 69.715235,532.91473 C69.5850214,532.784517 69.4100468,532.71941 69.1903113,532.71941 C68.7101485,532.71941 68.2767813,532.965595 67.8902096,533.457965 C67.5036378,533.950336 67.0906165,534.786551 66.6511455,535.966612 L66.6511455,535.966612 L67.0417864,534.428464 C67.1557233,533.988993 67.2126918,533.65532 67.2126918,533.427447 C67.2126918,532.955422 66.9807487,532.71941 66.5168627,532.71941 C65.8251027,532.71941 65.3327325,533.138535 65.0397518,533.976785 L65.0397518,533.976785 L64.7345636,534.867935 L64.9665066,534.867935 L65.1252045,534.416256 C65.2798332,533.968647 65.4324273,533.649217 65.5829868,533.457965 C65.7335463,533.266714 65.8983479,533.171089 66.0773917,533.171089 C66.248297,533.171089 66.3337497,533.26468 66.3337497,533.451862 C66.3337497,533.590214 66.3052655,533.748911 66.248297,533.927955 L66.248297,533.927955 L64.7833937,539.164985 L65.8454486,539.164985 Z M73.8657945,539.33589 C74.1506368,539.33589 74.4232716,539.23823 74.6836989,539.042909 C74.9441261,538.847589 75.1435158,538.526124 75.2818678,538.078515 L75.2818678,538.078515 L75.5626409,537.187365 L75.3306979,537.187365 L75.1842075,537.639044 C75.0295788,538.094791 74.8830885,538.416256 74.7447365,538.603438 C74.6063845,538.790621 74.455825,538.884212 74.293058,538.884212 C74.0977375,538.884212 74.0000773,538.770275 74.0000773,538.542401 C74.0000773,538.461017 74.0244924,538.322665 74.0733225,538.127345 L74.0733225,538.127345 L76.465998,529.46 C76.1486022,529.622767 75.8169644,529.744842 75.4710844,529.826226 C75.1252045,529.907609 74.7365982,529.95237 74.3052655,529.960509 L74.3052655,529.960509 L74.2320203,530.216867 C74.5331394,530.216867 74.7467711,530.255524 74.8729156,530.332838 C74.99906,530.410153 75.0621322,530.530193 75.0621322,530.69296 C75.0621322,530.806897 75.0458555,530.916765 75.0133021,531.022564 L75.0133021,531.022564 L74.4029257,533.305371 C74.3459573,533.126328 74.248297,532.983906 74.1099451,532.878108 C73.9715931,532.772309 73.8210336,532.71941 73.6582665,532.71941 C72.9502299,532.71941 72.293058,532.99001 71.6867508,533.531211 C71.0804435,534.072411 70.6002808,534.737721 70.2462625,535.527141 C69.8922442,536.316562 69.715235,537.049013 69.715235,537.724496 C69.715235,538.261628 69.8271373,538.664476 70.050942,538.933042 C70.2747467,539.201607 70.5860387,539.33589 70.9848179,539.33589 C71.4324273,539.33589 71.8556216,539.152777 72.2544008,538.786551 C72.6531801,538.420326 73.043821,537.826226 73.4263235,537.004252 L73.4263235,537.004252 L73.2554181,537.626836 C73.1496195,538.033754 73.0967202,538.35115 73.0967202,538.579023 C73.0967202,538.823174 73.1618271,539.010356 73.2920407,539.14057 C73.4222543,539.270783 73.6135056,539.33589 73.8657945,539.33589 Z M71.3388362,538.945249 C70.9807487,538.945249 70.801705,538.591231 70.801705,537.883194 C70.801705,537.223988 70.9359878,536.507813 71.2045534,535.734669 C71.473119,534.961526 71.8271373,534.312492 72.2666083,533.787569 C72.7060793,533.262645 73.1740346,533.000183 73.6704741,533.000183 C73.8169644,533.000183 73.9492126,533.051048 74.0672187,533.152777 C74.1852248,533.254507 74.2686429,533.41117 74.317473,533.622767 L74.317473,533.622767 L73.8902096,535.221953 C73.6867508,535.873021 73.4303927,536.485432 73.1211353,537.059186 C72.8118779,537.63294 72.4985514,538.090722 72.1811556,538.432533 C71.8637599,538.774344 71.5829868,538.945249 71.3388362,538.945249 Z M79.0906165,531.449827 C79.3266287,531.449827 79.5382258,531.356236 79.7254079,531.169054 C79.91259,530.981872 80.0061811,530.766205 80.0061811,530.522055 C80.0061811,530.343011 79.9492126,530.192452 79.8352757,530.070376 C79.7213388,529.948301 79.5707792,529.887263 79.3835972,529.887263 C79.1475849,529.887263 78.9380224,529.982889 78.7549095,530.17414 C78.5717965,530.365392 78.4802401,530.583093 78.4802401,530.827243 C78.4802401,531.006287 78.5372085,531.154812 78.6511455,531.272818 C78.7650824,531.390824 78.9115727,531.449827 79.0906165,531.449827 Z M77.4426002,539.33589 C77.7518576,539.33589 78.0387345,539.23823 78.3032309,539.042909 C78.5677274,538.847589 78.7813591,538.526124 78.9441261,538.078515 L78.9441261,538.078515 L79.2615219,537.187365 L79.0295788,537.187365 L78.8586734,537.639044 C78.6877681,538.094791 78.5290702,538.416256 78.3825799,538.603438 C78.2360895,538.790621 78.0773917,538.884212 77.9064863,538.884212 C77.7111658,538.884212 77.6135056,538.782482 77.6135056,538.579023 C77.6135056,538.473225 77.646059,538.322665 77.7111658,538.127345 L77.7111658,538.127345 L79.0173713,534.428464 C79.1475849,534.070376 79.2126918,533.75705 79.2126918,533.488484 C79.2126918,532.975768 78.9441261,532.71941 78.4069949,532.71941 C78.1058759,532.71941 77.818999,532.813001 77.5463642,533.000183 C77.2737294,533.187365 77.0560285,533.512899 76.8932614,533.976785 L76.8932614,533.976785 L76.5758657,534.867935 L76.8078087,534.867935 L76.9787141,534.416256 C77.1414812,533.976785 77.2961099,533.65939 77.4426002,533.464069 C77.5890905,533.268749 77.7559268,533.171089 77.9431089,533.171089 C78.1221526,533.171089 78.2116745,533.272818 78.2116745,533.476277 C78.2116745,533.582075 78.1791211,533.732635 78.1140142,533.927955 L78.1140142,533.927955 L76.8078087,537.626836 C76.6613184,538.033754 76.5880732,538.355219 76.5880732,538.591231 C76.5880732,539.08767 76.8729156,539.33589 77.4426002,539.33589 Z M81.3123866,539.33589 C81.6867508,539.33589 82.0346653,539.254507 82.3561302,539.09174 C82.6775951,538.928973 82.9339532,538.701099 83.1252045,538.408118 C83.3164557,538.115137 83.4120814,537.785534 83.4120814,537.419308 C83.4120814,537.134466 83.3530783,536.857762 83.2350722,536.589196 C83.1170661,536.320631 82.9359878,535.999166 82.6918372,535.624802 L82.6918372,535.624802 L82.4721017,535.307406 C82.2767813,535.014425 82.1424985,534.792655 82.0692533,534.642096 C81.9960081,534.491536 81.9593856,534.310458 81.9593856,534.098861 C81.9593856,533.740773 82.0590804,533.457965 82.25847,533.250437 C82.4578596,533.042909 82.7121831,532.939145 83.0214405,532.939145 C83.2737294,532.939145 83.4771882,532.987976 83.6318169,533.085636 C83.403943,533.370478 83.2900061,533.643113 83.2900061,533.90354 C83.2900061,534.050031 83.3368016,534.172106 83.4303927,534.269766 C83.5239837,534.367426 83.6399552,534.416256 83.7783072,534.416256 C83.9654893,534.416256 84.1058759,534.34708 84.1994669,534.208728 C84.293058,534.070376 84.3398535,533.927955 84.3398535,533.781465 C84.3398535,533.390824 84.1974323,533.116155 83.91259,532.957457 C83.6277477,532.798759 83.2737294,532.71941 82.8505351,532.71941 C82.5087243,532.71941 82.1933632,532.792655 81.9044517,532.939145 C81.6155402,533.085636 81.3856317,533.291129 81.2147263,533.555626 C81.043821,533.820122 80.9583683,534.119207 80.9583683,534.452879 C80.9583683,534.778413 81.0214405,535.061221 81.1475849,535.301302 C81.2737294,535.541384 81.4751536,535.848606 81.7518576,536.22297 C81.9797314,536.540366 82.1424985,536.823174 82.2401587,537.071394 C82.3378189,537.319613 82.386649,537.573937 82.386649,537.834364 C82.386649,538.233143 82.2727121,538.542401 82.0448383,538.762136 C81.8169644,538.981872 81.5199145,539.09174 81.1536887,539.09174 C81.0153367,539.09174 80.9075036,539.083601 80.8301892,539.067325 C80.7528749,539.051048 80.6735259,539.022564 80.5921424,538.981872 C80.6491109,538.69703 80.6775951,538.485432 80.6775951,538.34708 C80.6775951,538.127345 80.6328342,537.944232 80.5433123,537.797742 C80.4537904,537.651251 80.3195076,537.578006 80.1404639,537.578006 C79.9776968,537.578006 79.8576562,537.634975 79.7803418,537.748911 C79.7030275,537.862848 79.6643703,537.988993 79.6643703,538.127345 C79.6643703,538.534262 79.8230682,538.837416 80.1404639,539.036806 C80.4578596,539.236195 80.8485005,539.33589 81.3123866,539.33589 Z M86.6714914,541.374547 L86.7447365,541.118189 C86.4110641,541.118189 86.154706,541.073428 85.9756623,540.983906 C85.7966185,540.894385 85.7070966,540.743825 85.7070966,540.532228 C85.7070966,540.434568 85.7233733,540.336907 85.7559268,540.239247 L85.7559268,540.239247 L86.2198128,538.627854 C86.3011963,538.847589 86.43141,539.020529 86.6104537,539.146673 C86.7894975,539.272818 86.9888871,539.33589 87.2086226,539.33589 C87.9166592,539.33589 88.5433123,539.069359 89.0885819,538.536297 C89.6338515,538.003235 90.0529766,537.352167 90.3459573,536.583093 C90.6389379,535.814018 90.7854283,535.099878 90.7854283,534.440671 C90.7854283,533.870987 90.6735259,533.441689 90.4497213,533.152777 C90.2259166,532.863866 89.9146246,532.71941 89.5158454,532.71941 C89.0926511,532.71941 88.6918372,532.922869 88.3134039,533.329786 C87.9349705,533.736704 87.5545025,534.391841 87.172,535.295198 L87.172,535.295198 L88.4415829,530.851658 C88.1404639,530.949318 87.7701689,531.006287 87.3306979,531.022564 L87.3306979,531.022564 L87.2818678,531.193469 C87.0295788,531.803845 86.7752553,532.318596 86.5188973,532.737721 C86.2625392,533.156846 86.0061811,533.512899 85.749823,533.80588 C85.4934649,534.098861 85.1740346,534.432533 84.791532,534.806897 L84.791532,534.806897 L84.9258149,534.965595 C85.4059776,534.509847 85.808826,534.074446 86.1343601,533.65939 C86.4598942,533.244334 86.7447365,532.764171 86.9888871,532.218901 L86.9888871,532.218901 L84.7060793,540.361322 C84.6246958,540.654303 84.5188973,540.853693 84.3886836,540.959491 C84.25847,541.06529 84.0468728,541.118189 83.7538922,541.118189 L83.7538922,541.118189 L83.680647,541.374547 C84.3642686,541.341994 84.8159471,541.325717 85.0356826,541.325717 L85.1154083,541.326169 C85.3525257,541.328581 85.7857674,541.340638 86.4151333,541.36234 L86.4151333,541.36234 L86.6714914,541.374547 Z M87.1964151,539.055117 C86.9929563,539.055117 86.8179817,538.998149 86.6714914,538.884212 C86.525001,538.770275 86.4029257,538.583093 86.3052655,538.322665 L86.3052655,538.322665 L86.6226612,537.21178 C86.8586734,536.47119 87.1313082,535.787569 87.4405656,535.160916 C87.749823,534.534262 88.0570458,534.035788 88.362234,533.665493 C88.6674222,533.295198 88.9339532,533.110051 89.1618271,533.110051 C89.3408708,533.110051 89.4812574,533.199573 89.5829868,533.378616 C89.6847162,533.55766 89.7355809,533.822157 89.7355809,534.172106 C89.7355809,534.798759 89.6155402,535.498657 89.3754588,536.271801 C89.1353774,537.044944 88.8200163,537.702116 88.4293754,538.243316 C88.0387345,538.784517 87.6277477,539.055117 87.1964151,539.055117 Z M92.2381241,539.33589 C92.929884,539.33589 93.4181851,538.916765 93.7030275,538.078515 L93.7030275,538.078515 L94.0082157,537.187365 L93.7762726,537.187365 L93.6175748,537.639044 C93.4548077,538.094791 93.3022136,538.416256 93.1597925,538.603438 C93.0173713,538.790621 92.8647772,538.884212 92.7020102,538.884212 C92.5148281,538.884212 92.421237,538.774344 92.421237,538.554608 C92.421237,538.440671 92.4456521,538.29825 92.4944822,538.127345 L92.4944822,538.127345 L95.0458555,529.46 C94.7203215,529.622767 94.3846144,529.744842 94.0387345,529.826226 C93.6928545,529.907609 93.3042482,529.95237 92.8729156,529.960509 L92.8729156,529.960509 L92.7874629,530.216867 C93.0885819,530.216867 93.3022136,530.253489 93.4283581,530.326734 C93.5545025,530.39998 93.6175748,530.517986 93.6175748,530.680753 C93.6175748,530.762136 93.5972289,530.876073 93.5565371,531.022564 L93.5565371,531.022564 L91.5667101,537.626836 C91.4527731,538.033754 91.3958047,538.338942 91.3958047,538.542401 C91.3958047,539.071394 91.6765778,539.33589 92.2381241,539.33589 Z M98.7081139,539.33589 C98.9766796,539.33589 99.2371068,539.236195 99.4893957,539.036806 C99.7416846,538.837416 99.9492126,538.513917 100.11198,538.066307 L100.11198,538.066307 L100.417168,537.175158 L100.185225,537.175158 L100.038734,537.626836 C99.7701689,538.456948 99.4568423,538.872004 99.0987548,538.872004 C98.9197111,538.872004 98.8301892,538.770275 98.8301892,538.566816 C98.8301892,538.485432 98.8423967,538.397945 98.8668118,538.304354 C98.8912269,538.210763 98.9075036,538.147691 98.9156419,538.115137 L98.9156419,538.115137 L100.441583,532.71941 C100.140464,532.81707 99.7660997,532.874039 99.3184903,532.890315 L99.3184903,532.890315 L99.1231699,533.647182 C99.0987548,533.354201 99.0173713,533.126328 98.8790193,532.963561 C98.7406673,532.800793 98.5616236,532.71941 98.3418881,532.71941 C97.7640651,532.71941 97.1943805,533.004252 96.6328342,533.573937 C96.0712879,534.143622 95.6155402,534.835381 95.265591,535.649217 C94.9156419,536.463052 94.7406673,537.199573 94.7406673,537.858779 C94.7406673,538.306389 94.8383276,538.664476 95.033648,538.933042 C95.2289685,539.201607 95.5138108,539.33589 95.888175,539.33589 C96.327646,539.33589 96.7488057,539.130397 97.1516541,538.71941 C97.5545025,538.308423 97.9512472,537.647182 98.3418881,536.735687 L98.3418881,536.735687 L98.1221526,537.614629 C98.1058759,537.671597 98.0692533,537.80588 98.0122848,538.017477 C97.9553164,538.229074 97.9268321,538.420326 97.9268321,538.591231 C97.9268321,538.753998 97.9634547,538.896419 98.0366999,539.018494 C98.1018067,539.116155 98.1913286,539.193469 98.3052655,539.250437 C98.4192024,539.307406 98.5534852,539.33589 98.7081139,539.33589 Z M96.2421933,538.945249 C96.1038413,538.945249 95.9980427,538.872004 95.9247976,538.725514 C95.8515524,538.579023 95.8149298,538.338942 95.8149298,538.00527 C95.8149298,537.305371 95.947178,536.558678 96.2116745,535.765188 C96.4761709,534.971699 96.8037396,534.304354 97.1943805,533.763154 C97.5850214,533.221953 97.9553164,532.951353 98.3052655,532.951353 C98.5168627,532.951353 98.6816643,533.046979 98.7996704,533.23823 C98.9176765,533.429481 98.9766796,533.691943 98.9766796,534.025615 C98.9766796,534.139552 98.9726104,534.229074 98.964472,534.294181 L98.964472,534.294181 L98.7447365,535.160916 C98.5494161,535.820122 98.2991617,536.440671 97.9939736,537.022564 C97.6887854,537.604456 97.3774934,538.070376 97.0600977,538.420326 C96.7427019,538.770275 96.4700671,538.945249 96.2421933,538.945249 Z M100.734564,541.46 C101.011268,541.46 101.365286,541.358271 101.796619,541.154812 C102.643007,540.747894 103.444635,540.072411 104.201502,539.128362 C104.844431,538.322665 105.405978,537.41117 105.88614,536.393876 C106.366303,535.376582 106.606385,534.481363 106.606385,533.70822 C106.606385,533.049013 106.394787,532.71941 105.971593,532.71941 C105.792549,532.71941 105.644024,532.776378 105.526018,532.890315 C105.408012,533.004252 105.349009,533.154812 105.349009,533.341994 C105.349009,533.578006 105.4426,533.791638 105.629782,533.982889 C105.816964,534.17414 106.032631,534.334873 106.276781,534.465086 C106.146568,535.132431 105.918694,535.80588 105.59316,536.485432 C105.267626,537.164985 104.881054,537.814018 104.433445,538.432533 L104.433445,538.432533 L103.810861,533.842503 C103.753892,533.419308 103.658267,533.126328 103.523984,532.963561 C103.389701,532.800793 103.192346,532.71941 102.931919,532.71941 C102.28085,532.71941 101.812895,533.134466 101.528053,533.964578 L101.528053,533.964578 L101.222865,534.855727 L101.454808,534.855727 L101.613506,534.404049 C101.768134,533.972716 101.900383,533.677701 102.01025,533.519003 C102.120118,533.360305 102.227951,533.280956 102.33375,533.280956 C102.439548,533.280956 102.520932,533.329786 102.5779,533.427447 C102.634869,533.525107 102.683699,533.700081 102.724391,533.95237 L102.724391,533.95237 L103.627748,539.421343 C103.041786,540.056134 102.43141,540.544435 101.796619,540.886246 C101.609436,540.739756 101.436496,540.623784 101.277799,540.538332 C101.119101,540.452879 100.954299,540.410153 100.783394,540.410153 C100.60435,540.410153 100.449721,540.458983 100.319508,540.556643 C100.189294,540.654303 100.124187,540.788586 100.124187,540.959491 C100.124187,541.11412 100.18319,541.236195 100.301196,541.325717 C100.419202,541.415239 100.563658,541.46 100.734564,541.46 Z M112.881054,531.449827 C113.117066,531.449827 113.328663,531.356236 113.515845,531.169054 C113.703027,530.981872 113.796619,530.766205 113.796619,530.522055 C113.796619,530.343011 113.73965,530.192452 113.625713,530.070376 C113.511776,529.948301 113.361217,529.887263 113.174035,529.887263 C112.938022,529.887263 112.72846,529.982889 112.545347,530.17414 C112.362234,530.365392 112.270678,530.583093 112.270678,530.827243 C112.270678,531.006287 112.327646,531.154812 112.441583,531.272818 C112.55552,531.390824 112.70201,531.449827 112.881054,531.449827 Z M111.233038,539.33589 C111.542295,539.33589 111.829172,539.23823 112.093668,539.042909 C112.358165,538.847589 112.571797,538.526124 112.734564,538.078515 L112.734564,538.078515 L113.051959,537.187365 L112.820016,537.187365 L112.649111,537.639044 C112.478205,538.094791 112.319508,538.416256 112.173017,538.603438 C112.026527,538.790621 111.867829,538.884212 111.696924,538.884212 C111.501603,538.884212 111.403943,538.782482 111.403943,538.579023 C111.403943,538.473225 111.436496,538.322665 111.501603,538.127345 L111.501603,538.127345 L112.807809,534.428464 C112.938022,534.070376 113.003129,533.75705 113.003129,533.488484 C113.003129,532.975768 112.734564,532.71941 112.197432,532.71941 C111.896313,532.71941 111.609436,532.813001 111.336802,533.000183 C111.064167,533.187365 110.846466,533.512899 110.683699,533.976785 L110.683699,533.976785 L110.366303,534.867935 L110.598246,534.867935 L110.769152,534.416256 C110.931919,533.976785 111.086547,533.65939 111.233038,533.464069 C111.379528,533.268749 111.546364,533.171089 111.733546,533.171089 C111.91259,533.171089 112.002112,533.272818 112.002112,533.476277 C112.002112,533.582075 111.969558,533.732635 111.904452,533.927955 L111.904452,533.927955 L110.598246,537.626836 C110.451756,538.033754 110.378511,538.355219 110.378511,538.591231 C110.378511,539.08767 110.663353,539.33589 111.233038,539.33589 Z M115.188277,539.33589 C115.587056,539.33589 115.922763,539.232126 116.195398,539.024598 C116.468033,538.81707 116.689803,538.461017 116.860708,537.956439 L116.860708,537.956439 L117.117066,537.187365 L116.885123,537.187365 L116.714218,537.663459 C116.543312,538.127345 116.370372,538.446775 116.195398,538.62175 C116.020423,538.796724 115.831207,538.884212 115.627748,538.884212 C115.473119,538.884212 115.346975,538.84352 115.249314,538.762136 C115.151654,538.680753 115.102824,538.558678 115.102824,538.39591 C115.102824,538.314527 115.115032,538.225005 115.139447,538.127345 L115.139447,538.127345 L116.55552,533.134466 L118.203536,533.134466 L118.240159,532.890315 L116.628765,532.890315 L117.202519,530.863866 C116.909538,530.961526 116.543312,531.018494 116.103841,531.034771 L116.103841,531.034771 L115.56671,532.890315 L114.468033,532.890315 L114.406995,533.134466 L115.505672,533.134466 L114.211674,537.626836 C114.138429,537.879125 114.101807,538.111068 114.101807,538.322665 C114.101807,538.640061 114.191329,538.888281 114.370372,539.067325 C114.549416,539.246368 114.822051,539.33589 115.188277,539.33589 Z M121.841379,539.33589 C122.109945,539.33589 122.370372,539.236195 122.622661,539.036806 C122.87495,538.837416 123.082478,538.513917 123.245245,538.066307 L123.245245,538.066307 L123.550433,537.175158 L123.31849,537.175158 L123.172,537.626836 C122.903434,538.456948 122.590108,538.872004 122.23202,538.872004 C122.052977,538.872004 121.963455,538.770275 121.963455,538.566816 C121.963455,538.485432 121.975662,538.397945 122.000077,538.304354 C122.024492,538.210763 122.040769,538.147691 122.048907,538.115137 L122.048907,538.115137 L123.574848,532.71941 C123.273729,532.81707 122.899365,532.874039 122.451756,532.890315 L122.451756,532.890315 L122.256435,533.647182 C122.23202,533.354201 122.150637,533.126328 122.012285,532.963561 C121.873933,532.800793 121.694889,532.71941 121.475154,532.71941 C120.897331,532.71941 120.327646,533.004252 119.7661,533.573937 C119.204553,534.143622 118.748806,534.835381 118.398857,535.649217 C118.048907,536.463052 117.873933,537.199573 117.873933,537.858779 C117.873933,538.306389 117.971593,538.664476 118.166914,538.933042 C118.362234,539.201607 118.647076,539.33589 119.02144,539.33589 C119.460911,539.33589 119.882071,539.130397 120.28492,538.71941 C120.687768,538.308423 121.084513,537.647182 121.475154,536.735687 L121.475154,536.735687 L121.255418,537.614629 C121.239141,537.671597 121.202519,537.80588 121.14555,538.017477 C121.088582,538.229074 121.060098,538.420326 121.060098,538.591231 C121.060098,538.753998 121.09672,538.896419 121.169965,539.018494 C121.235072,539.116155 121.324594,539.193469 121.438531,539.250437 C121.552468,539.307406 121.686751,539.33589 121.841379,539.33589 Z M119.375459,538.945249 C119.237107,538.945249 119.131308,538.872004 119.058063,538.725514 C118.984818,538.579023 118.948195,538.338942 118.948195,538.00527 C118.948195,537.305371 119.080444,536.558678 119.34494,535.765188 C119.609436,534.971699 119.937005,534.304354 120.327646,533.763154 C120.718287,533.221953 121.088582,532.951353 121.438531,532.951353 C121.650128,532.951353 121.81493,533.046979 121.932936,533.23823 C122.050942,533.429481 122.109945,533.691943 122.109945,534.025615 C122.109945,534.139552 122.105876,534.229074 122.097738,534.294181 L122.097738,534.294181 L121.878002,535.160916 C121.682682,535.820122 121.432427,536.440671 121.127239,537.022564 C120.822051,537.604456 120.510759,538.070376 120.193363,538.420326 C119.875967,538.770275 119.603333,538.945249 119.375459,538.945249 Z M125.137412,539.33589 C125.829172,539.33589 126.317473,538.916765 126.602315,538.078515 L126.602315,538.078515 L126.907504,537.187365 L126.675561,537.187365 L126.516863,537.639044 C126.354096,538.094791 126.201502,538.416256 126.05908,538.603438 C125.916659,538.790621 125.764065,538.884212 125.601298,538.884212 C125.414116,538.884212 125.320525,538.774344 125.320525,538.554608 C125.320525,538.440671 125.34494,538.29825 125.39377,538.127345 L125.39377,538.127345 L127.945143,529.46 C127.619609,529.622767 127.283902,529.744842 126.938022,529.826226 C126.592142,529.907609 126.203536,529.95237 125.772203,529.960509 L125.772203,529.960509 L125.686751,530.216867 C125.98787,530.216867 126.201502,530.253489 126.327646,530.326734 C126.45379,530.39998 126.516863,530.517986 126.516863,530.680753 C126.516863,530.762136 126.496517,530.876073 126.455825,531.022564 L126.455825,531.022564 L124.465998,537.626836 C124.352061,538.033754 124.295093,538.338942 124.295093,538.542401 C124.295093,539.071394 124.575866,539.33589 125.137412,539.33589 Z M130.435479,531.449827 C130.671491,531.449827 130.883089,531.356236 131.070271,531.169054 C131.257453,530.981872 131.351044,530.766205 131.351044,530.522055 C131.351044,530.343011 131.294075,530.192452 131.180138,530.070376 C131.066201,529.948301 130.915642,529.887263 130.72846,529.887263 C130.492448,529.887263 130.282885,529.982889 130.099772,530.17414 C129.916659,530.365392 129.825103,530.583093 129.825103,530.827243 C129.825103,531.006287 129.882071,531.154812 129.996008,531.272818 C130.109945,531.390824 130.256435,531.449827 130.435479,531.449827 Z M128.787463,539.33589 C129.09672,539.33589 129.383597,539.23823 129.648094,539.042909 C129.91259,538.847589 130.126222,538.526124 130.288989,538.078515 L130.288989,538.078515 L130.606385,537.187365 L130.374442,537.187365 L130.203536,537.639044 C130.032631,538.094791 129.873933,538.416256 129.727443,538.603438 C129.580952,538.790621 129.422254,538.884212 129.251349,538.884212 C129.056028,538.884212 128.958368,538.782482 128.958368,538.579023 C128.958368,538.473225 128.990922,538.322665 129.056028,538.127345 L129.056028,538.127345 L130.362234,534.428464 C130.492448,534.070376 130.557554,533.75705 130.557554,533.488484 C130.557554,532.975768 130.288989,532.71941 129.751858,532.71941 C129.450739,532.71941 129.163862,532.813001 128.891227,533.000183 C128.618592,533.187365 128.400891,533.512899 128.238124,533.976785 L128.238124,533.976785 L127.920728,534.867935 L128.152671,534.867935 L128.323577,534.416256 C128.486344,533.976785 128.640973,533.65939 128.787463,533.464069 C128.933953,533.268749 129.100789,533.171089 129.287972,533.171089 C129.467015,533.171089 129.556537,533.272818 129.556537,533.476277 C129.556537,533.582075 129.523984,533.732635 129.458877,533.927955 L129.458877,533.927955 L128.152671,537.626836 C128.006181,538.033754 127.932936,538.355219 127.932936,538.591231 C127.932936,539.08767 128.217778,539.33589 128.787463,539.33589 Z M133.04789,539.33589 C133.536191,539.33589 134.002112,539.175158 134.445652,538.853693 C134.889192,538.532228 135.241176,538.147691 135.501603,537.700081 L135.501603,537.700081 L135.257453,537.602421 C134.704045,538.416256 134.093668,538.823174 133.426323,538.823174 C133.157758,538.823174 132.948195,538.727548 132.797636,538.536297 C132.647076,538.345046 132.571797,538.050031 132.571797,537.651251 C132.571797,536.853693 132.699976,536.092757 132.956334,535.368444 C133.212692,534.64413 133.542295,534.062238 133.945143,533.622767 C134.347992,533.183296 134.752875,532.963561 135.159792,532.963561 C135.542295,532.963561 135.818999,533.089705 135.989904,533.341994 C135.737615,533.390824 135.521949,533.498657 135.342905,533.665493 C135.163862,533.83233 135.07434,534.029685 135.07434,534.257558 C135.07434,534.39591 135.117066,534.509847 135.202519,534.599369 C135.287972,534.688891 135.412081,534.733652 135.574848,534.733652 C135.827137,534.733652 136.034665,534.633957 136.197432,534.434568 C136.360199,534.235178 136.441583,534.009339 136.441583,533.75705 C136.441583,533.439654 136.315438,533.187365 136.06315,533.000183 C135.810861,532.813001 135.497534,532.71941 135.12317,532.71941 C134.406995,532.71941 133.768134,532.979837 133.206588,533.500692 C132.645042,534.021546 132.20964,534.660407 131.900383,535.417274 C131.591125,536.17414 131.436496,536.882177 131.436496,537.541384 C131.436496,538.127345 131.580952,538.57292 131.869864,538.878108 C132.158775,539.183296 132.551451,539.33589 133.04789,539.33589 Z M144.608419,539.164985 L146.500586,532.743825 L146.256435,532.743825 C145.792549,533.118189 145.355113,533.431516 144.944126,533.683805 C144.533139,533.936094 143.989904,534.163967 143.314421,534.367426 L143.314421,534.367426 L143.277799,534.623784 C144.026527,534.39591 144.636903,534.147691 145.108928,533.879125 L145.108928,533.879125 L143.546364,539.164985 L144.608419,539.164985 Z M150.297127,539.23823 C150.801705,539.23823 151.182173,539.11412 151.438531,538.8659 C151.694889,538.617681 151.823068,538.318596 151.823068,537.968647 C151.823068,537.537314 151.599263,537.215849 151.151654,537.004252 L151.151654,537.004252 L150.992956,537.16295 C151.351044,537.325717 151.530087,537.55766 151.530087,537.858779 C151.530087,538.24942 151.249314,538.444741 150.687768,538.444741 C150.435479,538.444741 149.991939,538.387772 149.357148,538.273835 C148.738633,538.159898 148.319508,538.10293 148.099772,538.10293 C148.254401,537.972716 148.559589,537.748911 149.015337,537.431516 C149.633851,537.000183 150.158775,536.613611 150.590108,536.271801 C151.02144,535.92999 151.397839,535.553591 151.719304,535.142604 C152.040769,534.731617 152.201502,534.326734 152.201502,533.927955 C152.201502,533.545453 152.052977,533.248403 151.755927,533.036806 C151.458877,532.825209 151.058063,532.71941 150.553485,532.71941 C150.065184,532.71941 149.607402,532.829278 149.180138,533.049013 C148.752875,533.268749 148.411064,533.553591 148.154706,533.90354 C147.898348,534.253489 147.770169,534.607508 147.770169,534.965595 C147.770169,535.274852 147.859691,535.490519 148.038734,535.612594 C148.217778,535.734669 148.433445,535.795707 148.685733,535.795707 C148.905469,535.795707 149.133343,535.748911 149.369355,535.65532 C149.605367,535.561729 149.829172,535.413204 150.040769,535.209746 L150.040769,535.209746 L149.894279,535.03884 C149.69082,535.217884 149.505672,535.346063 149.338836,535.423377 C149.172,535.500692 148.982783,535.539349 148.771186,535.539349 C148.518897,535.539349 148.337819,535.492553 148.227951,535.398962 C148.118083,535.305371 148.06315,535.156846 148.06315,534.953388 C148.06315,534.64413 148.173017,534.336907 148.392753,534.031719 C148.612488,533.726531 148.887158,533.476277 149.216761,533.280956 C149.546364,533.085636 149.857656,532.987976 150.150637,532.987976 C150.451756,532.987976 150.683699,533.083601 150.846466,533.274852 C151.009233,533.466104 151.090616,533.728566 151.090616,534.062238 C151.090616,534.583093 150.903434,535.099878 150.52907,535.612594 C150.154706,536.12531 149.721339,536.583093 149.228968,536.985941 C148.736598,537.388789 148.140464,537.838433 147.440566,538.334873 C147.342905,538.408118 147.208623,538.503744 147.037717,538.62175 C146.866812,538.739756 146.736598,538.835381 146.647076,538.908627 L146.647076,538.908627 L146.586039,539.164985 C146.838328,539.059186 147.060098,538.983906 147.251349,538.939145 C147.4426,538.894385 147.656232,538.872004 147.892244,538.872004 C148.11198,538.872004 148.321542,538.888281 148.520932,538.920834 C148.720321,538.953388 148.946161,539.002218 149.19845,539.067325 C149.434462,539.124293 149.633851,539.167019 149.796619,539.195504 C149.959386,539.223988 150.126222,539.23823 150.297127,539.23823 Z M152.006181,541.008321 C152.811878,540.992045 153.66437,540.84352 154.563658,540.562747 C155.462946,540.281974 156.219813,539.877091 156.834258,539.348098 C157.448704,538.819105 157.755927,538.204659 157.755927,537.504761 C157.755927,537.073428 157.572814,536.737721 157.206588,536.49764 C156.840362,536.257558 156.372407,536.129379 155.802722,536.113103 C156.193363,536.015443 156.584004,535.858779 156.974645,535.643113 C157.365286,535.427447 157.688785,535.169054 157.945143,534.867935 C158.201502,534.566816 158.329681,534.241282 158.329681,533.891333 C158.329681,533.50883 158.181156,533.21178 157.884106,533.000183 C157.587056,532.788586 157.186242,532.682787 156.681664,532.682787 C156.20964,532.682787 155.770169,532.776378 155.363251,532.963561 C154.956334,533.150743 154.6308,533.390824 154.386649,533.683805 C154.142498,533.976785 154.020423,534.269766 154.020423,534.562747 C154.020423,534.872004 154.109945,535.08767 154.288989,535.209746 C154.468033,535.331821 154.683699,535.392859 154.935988,535.392859 C155.26966,535.392859 155.595194,535.307406 155.91259,535.136501 L155.91259,535.136501 L155.778307,534.953388 C155.542295,535.075463 155.290006,535.136501 155.02144,535.136501 C154.769152,535.136501 154.588073,535.089705 154.478205,534.996114 C154.368338,534.902523 154.313404,534.753998 154.313404,534.550539 C154.313404,534.29825 154.417168,534.047996 154.624696,533.799776 C154.832224,533.551556 155.090616,533.348098 155.399874,533.1894 C155.709131,533.030702 156.002112,532.951353 156.278816,532.951353 C156.588073,532.951353 156.832224,533.049013 157.011268,533.244334 C157.190311,533.439654 157.279833,533.70822 157.279833,534.050031 C157.279833,534.489502 157.106893,534.894385 156.761013,535.26468 C156.415133,535.634975 155.989904,535.917782 155.485327,536.113103 L155.485327,536.113103 L155.253384,536.100895 C154.895296,536.100895 154.699976,536.17821 154.667422,536.332838 C154.62673,536.454914 154.695906,536.515951 154.87495,536.515951 C154.964472,536.515951 155.072305,536.495605 155.19845,536.454914 C155.324594,536.414222 155.452773,536.365392 155.582987,536.308423 C155.908521,536.3247 156.162844,536.432533 156.345957,536.631923 C156.52907,536.831312 156.620627,537.093774 156.620627,537.419308 C156.620627,538.086653 156.386649,538.668545 155.918694,539.164985 C155.450739,539.661424 154.866812,540.045961 154.166914,540.318596 C153.467015,540.591231 152.767117,540.747894 152.067219,540.788586 L152.067219,540.788586 L152.006181,541.008321 Z M161.808826,540.886246 L162.38258,538.749929 L164.006181,538.749929 L164.201502,538.0541 L162.565693,538.0541 L163.993974,532.707202 L163.676578,532.707202 L158.354096,538.493571 L158.28085,538.749929 L161.320525,538.749929 L160.746771,540.886246 L161.808826,540.886246 Z M161.503638,538.0541 L159.07434,538.0541 L162.504655,534.306389 L161.503638,538.0541 Z M164.201502,540.971699 C164.974645,540.947284 165.792549,540.79469 166.655215,540.513917 C167.51788,540.233143 168.246262,539.826226 168.840362,539.293164 C169.434462,538.760102 169.731512,538.119207 169.731512,537.370478 C169.731512,536.947284 169.576883,536.609542 169.267626,536.357253 C168.958368,536.104964 168.490413,535.97882 167.86376,535.97882 C167.530087,535.97882 167.226934,536.013408 166.954299,536.082584 C166.681664,536.15176 166.415133,536.255524 166.154706,536.393876 L166.154706,536.393876 L167.521949,533.598352 C167.578918,533.590214 167.648094,533.594283 167.729477,533.61056 C167.810861,533.626836 167.902417,533.657355 168.004146,533.702116 C168.105876,533.746877 168.168948,533.777396 168.193363,533.793672 C168.470067,533.948301 168.697941,534.025615 168.876985,534.025615 C169.576883,534.025615 170.13436,533.578006 170.549416,532.682787 L170.549416,532.682787 L170.402926,532.597335 C170.191329,532.963561 169.853587,533.146673 169.389701,533.146673 C169.080444,533.146673 168.763048,533.089705 168.437514,532.975768 C168.152671,532.878108 167.888175,532.833347 167.644024,532.841485 L167.644024,532.841485 L165.812895,536.613611 L165.93497,536.674649 C166.415133,536.454914 166.866812,536.345046 167.290006,536.345046 C167.721339,536.345046 168.042804,536.438637 168.254401,536.625819 C168.465998,536.813001 168.571797,537.069359 168.571797,537.394893 C168.571797,538.078515 168.352061,538.674649 167.91259,539.183296 C167.473119,539.691943 166.919711,540.078515 166.252366,540.343011 C165.585021,540.607508 164.921746,540.743825 164.262539,540.751963 L164.262539,540.751963 L164.201502,540.971699 Z M173.027544,539.33589 C173.646059,539.33589 174.227951,539.16295 174.773221,538.81707 C175.31849,538.47119 175.753892,538.013408 176.079426,537.443723 C176.40496,536.874039 176.567727,536.27587 176.567727,535.649217 C176.567727,535.071394 176.427341,534.62175 176.146568,534.300285 C175.865795,533.97882 175.493465,533.818087 175.029579,533.818087 C174.614523,533.818087 174.221847,533.954405 173.851552,534.22704 C173.481257,534.499674 173.19438,534.953388 172.990922,535.588179 L172.990922,535.588179 L173.186242,535.661424 C173.373424,535.132431 173.59316,534.751963 173.845449,534.52002 C174.097738,534.288077 174.358165,534.172106 174.62673,534.172106 C175.155723,534.172106 175.42022,534.583093 175.42022,535.405066 C175.42022,535.909644 175.328663,536.450844 175.14555,537.028667 C174.962437,537.60649 174.704045,538.094791 174.370372,538.493571 C174.0367,538.89235 173.654197,539.09174 173.222865,539.09174 C172.929884,539.09174 172.710149,538.973733 172.563658,538.737721 C172.417168,538.501709 172.343923,538.086653 172.343923,537.492553 C172.343923,536.393876 172.588073,535.350132 173.076374,534.361322 C173.564675,533.372513 174.189294,532.544435 174.95023,531.877091 C175.711166,531.209746 176.482275,530.782482 177.263556,530.5953 L177.263556,530.5953 L177.190311,530.35115 C176.400891,530.49764 175.538226,530.886246 174.602315,531.516968 C173.666405,532.147691 172.870881,532.955422 172.215744,533.940163 C171.560606,534.924903 171.233038,535.995097 171.233038,537.150743 C171.233038,537.875056 171.379528,538.420326 171.672509,538.786551 C171.965489,539.152777 172.417168,539.33589 173.027544,539.33589 Z M178.581969,540.971699 C178.769152,540.971699 178.929884,540.912696 179.064167,540.79469 C179.19845,540.676684 179.290006,540.528159 179.338836,540.349115 L179.338836,540.349115 L179.399874,540.031719 C179.464981,539.714323 179.513811,539.498657 179.546364,539.38472 C179.725408,538.717375 179.977697,538.086653 180.303231,537.492553 C180.628765,536.898454 180.97261,536.367426 181.334767,535.899471 C181.696924,535.431516 182.146568,534.888281 182.683699,534.269766 C183.261522,533.61056 183.644024,533.150743 183.831207,532.890315 L183.831207,532.890315 L183.513811,532.890315 C183.36732,533.093774 183.202519,533.234161 183.019406,533.311475 C182.836293,533.388789 182.618592,533.427447 182.366303,533.427447 C182.130291,533.427447 181.91259,533.403032 181.7132,533.354201 C181.513811,533.305371 181.271695,533.228057 180.986852,533.122258 C180.669457,533.01646 180.411064,532.939145 180.211674,532.890315 C180.012285,532.841485 179.790515,532.81707 179.546364,532.81707 C179.163862,532.81707 178.844431,532.888281 178.588073,533.030702 C178.331715,533.173123 178.140464,533.358271 178.014319,533.586144 C177.888175,533.814018 177.825103,534.050031 177.825103,534.294181 C177.825103,535.197538 178.463963,535.771292 179.741685,536.015443 L179.741685,536.015443 L179.81493,535.83233 C179.237107,535.693978 178.809843,535.510865 178.533139,535.282991 C178.256435,535.055117 178.118083,534.770275 178.118083,534.428464 C178.118083,534.159898 178.213709,533.956439 178.40496,533.818087 C178.596212,533.679736 178.850535,533.61056 179.167931,533.61056 C179.403943,533.61056 179.705062,533.663459 180.071288,533.769257 C180.291023,533.834364 180.492448,533.883194 180.675561,533.915748 C180.858673,533.948301 181.064167,533.964578 181.292041,533.964578 C181.967524,533.964578 182.561624,533.793672 183.07434,533.451862 C182.854604,533.728566 182.488378,534.15176 181.975662,534.721445 C181.292041,535.48645 180.712183,536.159898 180.23609,536.74179 C179.759996,537.323683 179.328663,537.92999 178.942092,538.560712 C178.55552,539.191434 178.317473,539.767223 178.227951,540.288077 C178.211674,540.418291 178.203536,540.507813 178.203536,540.556643 C178.203536,540.833347 178.329681,540.971699 178.581969,540.971699 Z M185.454808,539.33589 C186.065184,539.33589 186.622661,539.232126 187.127239,539.024598 C187.631817,538.81707 188.030596,538.522055 188.323577,538.139552 C188.616557,537.75705 188.763048,537.31351 188.763048,536.808932 C188.763048,536.467121 188.695906,536.153795 188.561624,535.868952 C188.427341,535.58411 188.266608,535.333856 188.079426,535.118189 C187.892244,534.902523 187.635886,534.640061 187.310352,534.330804 C188.921746,533.468138 189.727443,532.57292 189.727443,531.645148 C189.727443,531.213815 189.568745,530.890315 189.251349,530.674649 C188.933953,530.458983 188.518897,530.35115 188.006181,530.35115 C187.51788,530.35115 187.049925,530.444741 186.602315,530.631923 C186.154706,530.819105 185.790515,531.083601 185.509742,531.425412 C185.228968,531.767223 185.088582,532.157864 185.088582,532.597335 C185.088582,532.996114 185.184208,533.348098 185.375459,533.653286 C185.56671,533.958474 185.845449,534.290112 186.211674,534.648199 C185.405978,534.998149 184.718287,535.43762 184.148602,535.966612 C183.578918,536.495605 183.294075,537.093774 183.294075,537.761119 C183.294075,538.290112 183.489396,538.684822 183.880037,538.945249 C184.270678,539.205677 184.795601,539.33589 185.454808,539.33589 Z M187.176069,534.196521 C186.82612,533.862848 186.559589,533.553591 186.376476,533.268749 C186.193363,532.983906 186.101807,532.67058 186.101807,532.328769 C186.101807,531.995097 186.177086,531.693978 186.327646,531.425412 C186.478205,531.156846 186.683699,530.947284 186.944126,530.796724 C187.204553,530.646165 187.485327,530.570885 187.786446,530.570885 C188.421237,530.570885 188.738633,530.916765 188.738633,531.608525 C188.738633,532.104964 188.588073,532.587162 188.286954,533.055117 C187.985835,533.523072 187.61554,533.90354 187.176069,534.196521 Z M185.564675,539.116155 C185.133343,539.116155 184.82612,539.006287 184.643007,538.786551 C184.459894,538.566816 184.368338,538.261628 184.368338,537.870987 C184.368338,537.26061 184.553485,536.674649 184.92378,536.113103 C185.294075,535.551556 185.772203,535.108016 186.358165,534.782482 C186.651145,535.067325 186.885123,535.30944 187.060098,535.50883 C187.235072,535.70822 187.381563,535.938128 187.499569,536.198555 C187.617575,536.458983 187.676578,536.747894 187.676578,537.06529 C187.676578,537.480346 187.578918,537.844537 187.383597,538.157864 C187.188277,538.47119 186.927849,538.709237 186.602315,538.872004 C186.276781,539.034771 185.930901,539.116155 185.564675,539.116155 Z M189.666405,541.46 C190.439548,541.321648 191.285937,540.949318 192.205571,540.343011 C193.125204,539.736704 193.904452,538.957457 194.543312,538.00527 C195.182173,537.053082 195.501603,536.019512 195.501603,534.904557 C195.501603,534.180244 195.355113,533.634975 195.062132,533.268749 C194.769152,532.902523 194.317473,532.71941 193.707097,532.71941 C193.088582,532.71941 192.50669,532.89235 191.96142,533.23823 C191.416151,533.58411 190.980749,534.041892 190.655215,534.611577 C190.329681,535.181261 190.166914,535.77943 190.166914,536.406083 C190.166914,536.983906 190.3073,537.43355 190.588073,537.755015 C190.868846,538.07648 191.241176,538.237213 191.705062,538.237213 C192.120118,538.237213 192.512793,538.100895 192.883089,537.82826 C193.253384,537.555626 193.54026,537.101913 193.743719,536.467121 L193.743719,536.467121 L193.548399,536.393876 C193.361217,536.922869 193.141481,537.303337 192.889192,537.53528 C192.636903,537.767223 192.376476,537.883194 192.10791,537.883194 C191.578918,537.883194 191.314421,537.472208 191.314421,536.650234 C191.314421,536.145656 191.405978,535.604456 191.589091,535.026633 C191.772203,534.44881 192.030596,533.960509 192.364269,533.561729 C192.697941,533.16295 193.080444,532.963561 193.511776,532.963561 C193.804757,532.963561 194.024492,533.081567 194.170983,533.317579 C194.317473,533.553591 194.390718,533.968647 194.390718,534.562747 C194.390718,535.620732 194.152671,536.627854 193.676578,537.58411 C193.200484,538.540366 192.592142,539.339959 191.851552,539.982889 C191.110962,540.625819 190.358165,541.036806 189.59316,541.215849 L189.59316,541.215849 L189.666405,541.46 Z M198.455825,539.33589 C199.139447,539.33589 199.780342,539.118189 200.378511,538.682787 C200.97668,538.247386 201.452773,537.683805 201.806791,536.992045 C202.16081,536.300285 202.337819,535.592248 202.337819,534.867935 C202.337819,534.184313 202.173017,533.653286 201.843414,533.274852 C201.513811,532.896419 201.039752,532.707202 200.421237,532.707202 C199.737615,532.707202 199.090616,532.922869 198.48024,533.354201 C197.869864,533.785534 197.379528,534.34708 197.009233,535.03884 C196.638938,535.7306 196.45379,536.438637 196.45379,537.16295 C196.45379,537.862848 196.6308,538.39998 196.984818,538.774344 C197.338836,539.148708 197.829172,539.33589 198.455825,539.33589 Z M198.687768,539.116155 C197.947178,539.116155 197.576883,538.501709 197.576883,537.272818 C197.576883,536.540366 197.700993,535.838433 197.949213,535.167019 C198.197432,534.495605 198.522966,533.954405 198.925815,533.543418 C199.328663,533.132431 199.749823,532.926938 200.189294,532.926938 C200.514828,532.926938 200.767117,533.063255 200.946161,533.33589 C201.125204,533.608525 201.214726,534.058169 201.214726,534.684822 C201.214726,535.400997 201.100789,536.10293 200.872916,536.790621 C200.645042,537.478311 200.337819,538.037823 199.951247,538.469156 C199.564675,538.900488 199.143516,539.116155 198.687768,539.116155 Z" id="playfairdisplayitalic1234567890"></path>
            </g>
        </g>
    </g>
</svg>