<?xml version="1.0" encoding="UTF-8"?>
<svg width="186px" height="13px" viewBox="0 0 186 13" version="1.1" xmlns="http://www.w3.org/2000/svg" xmlns:xlink="http://www.w3.org/1999/xlink">
    <title>playfairdisplaybold1234567890</title>
    <g id="页面-1" stroke="none" stroke-width="1" fill="none" fill-rule="evenodd">
        <g id="弃-增加英文字体分类" transform="translate(-748.000000, -504.000000)" fill="#FFFFFF" fill-rule="nonzero">
            <g id="编组-4" transform="translate(720.000000, 10.000000)">
                <path d="M31.9228012,506.517491 L31.9228012,506.257965 C31.5438105,506.257965 31.2636869,506.187934 31.0824305,506.047872 C30.901174,505.907811 30.8105458,505.656523 30.8105458,505.29401 L30.8105458,505.29401 L30.8105458,504.058171 C30.9670855,504.189994 31.1545211,504.288861 31.3728527,504.354772 C31.5911843,504.420684 31.8239341,504.45364 32.071102,504.45364 C32.9526674,504.45364 33.6509166,504.138501 34.1658496,503.508222 C34.6807827,502.877944 34.9382492,501.973722 34.9382492,500.795555 C34.9382492,500.128202 34.8435015,499.563835 34.6540062,499.102455 C34.4645108,498.641075 34.2029248,498.29504 33.8692482,498.06435 C33.5355716,497.83366 33.1545211,497.718315 32.7260968,497.718315 C32.2811946,497.718315 31.893965,497.819242 31.5644078,498.021096 C31.2348507,498.22295 30.9835633,498.513372 30.8105458,498.892363 L30.8105458,498.892363 L30.8105458,497.75539 C30.324449,497.870735 29.7230072,497.928408 29.0062204,497.928408 C28.7590525,497.928408 28.5036457,497.916049 28.24,497.891333 L28.24,497.891333 L28.24,498.150859 C28.5283625,498.150859 28.732276,498.237368 28.8517405,498.410385 C28.9712049,498.583403 29.0309372,498.859407 29.0309372,499.238398 L29.0309372,499.238398 L29.0309372,505.417594 C29.0309372,505.738912 28.9753244,505.959304 28.8640989,506.078768 C28.7528733,506.198233 28.5613182,506.257965 28.2894336,506.257965 L28.2894336,506.257965 L28.2894336,506.517491 C29.0803708,506.484536 29.5994233,506.468058 29.8465911,506.468058 L29.9222735,506.468364 C30.2021248,506.470407 30.7577418,506.482663 31.5891246,506.505133 L31.5891246,506.505133 L31.9228012,506.517491 Z M31.5891246,504.119963 C31.2678064,504.119963 31.0082801,504.008737 30.8105458,503.786286 L30.8105458,503.786286 L30.8105458,499.324906 C30.8846962,498.98711 31.0309372,498.723464 31.2492688,498.533969 C31.4676004,498.344474 31.716828,498.249726 31.9969516,498.249726 C32.3429866,498.249726 32.6086921,498.463938 32.794068,498.892363 C32.9794439,499.320787 33.0721318,500.037574 33.0721318,501.042723 C33.0721318,502.047872 32.9567868,502.812033 32.7260968,503.335205 C32.4954068,503.858377 32.1164161,504.119963 31.5891246,504.119963 Z M39.0165191,504.280622 L39.0165191,504.021096 C38.7199176,504.021096 38.5139444,503.957244 38.3985994,503.829541 C38.2832544,503.701837 38.2255819,503.469088 38.2255819,503.131291 L38.2255819,503.131291 L38.2255819,494.604 C37.7394851,494.719345 37.1380433,494.777018 36.4212564,494.777018 C36.1740886,494.777018 35.9186818,494.764659 35.655036,494.739942 L35.655036,494.739942 L35.655036,494.999469 C35.9433986,494.999469 36.147312,495.085977 36.2667765,495.258995 C36.386241,495.432012 36.4459732,495.708016 36.4459732,496.087007 L36.4459732,496.087007 L36.4459732,503.131291 C36.4459732,503.469088 36.386241,503.701837 36.2667765,503.829541 C36.147312,503.957244 35.9433986,504.021096 35.655036,504.021096 L35.655036,504.021096 L35.655036,504.280622 C36.5118847,504.247666 37.0803708,504.231188 37.3604943,504.231188 C37.6076622,504.231188 38.1596704,504.247666 39.0165191,504.280622 L39.0165191,504.280622 Z M44.2317611,504.367131 C44.7672915,504.367131 45.2204325,504.214711 45.5911843,503.90987 L45.5911843,503.90987 L45.4676004,503.699778 C45.2945829,503.839839 45.1462822,503.90987 45.0226982,503.90987 C44.9155922,503.90987 44.8435015,503.868676 44.8064264,503.786286 C44.7693512,503.703897 44.7508136,503.563835 44.7508136,503.366101 L44.7508136,503.366101 L44.7508136,500.004618 C44.7508136,499.551477 44.7199176,499.193083 44.6581256,498.929438 C44.5963337,498.665792 44.4748095,498.443341 44.293553,498.262084 C44.0958187,498.06435 43.8486509,497.924288 43.5520494,497.841899 C43.255448,497.75951 42.9052935,497.718315 42.501586,497.718315 C42.1143563,497.718315 41.7580227,497.75539 41.432585,497.829541 C41.1071473,497.903691 40.8332029,498.006678 40.6107518,498.138501 C40.3800618,498.278562 40.209104,498.428923 40.0978785,498.589582 C39.9866529,498.750241 39.9310402,498.945916 39.9310402,499.176606 C39.9310402,499.44849 40.00931,499.675061 40.1658496,499.856317 C40.3223893,500.037574 40.5448404,500.128202 40.8332029,500.128202 C41.1050875,500.128202 41.3357775,500.045813 41.5252729,499.881034 C41.7147683,499.716255 41.809516,499.493804 41.809516,499.213681 C41.809516,498.99123 41.7456643,498.797615 41.6179609,498.632836 C41.4902575,498.468058 41.3110608,498.344474 41.0803708,498.262084 C41.286344,498.06435 41.5870649,497.965483 41.9825335,497.965483 C42.3203296,497.965483 42.5695572,498.06229 42.7302163,498.255905 C42.8908754,498.44952 42.9712049,498.719345 42.9712049,499.06538 L42.9712049,499.06538 L42.9712049,500.029335 C42.9712049,500.251786 42.8661586,500.426863 42.6560659,500.554566 C42.4459732,500.68227 42.1143563,500.824391 41.6612152,500.980931 C41.2327909,501.129232 40.8805767,501.269294 40.6045726,501.401116 C40.3285685,501.532939 40.093759,501.720375 39.9001442,501.963423 C39.7065294,502.206472 39.6097219,502.513372 39.6097219,502.884124 C39.6097219,503.329026 39.7394851,503.687419 39.9990113,503.959304 C40.2585376,504.231188 40.6519464,504.367131 41.1792379,504.367131 C41.978414,504.367131 42.5839753,504.033454 42.9959217,503.366101 C43.0041607,503.670941 43.0989083,503.91399 43.2801648,504.095246 C43.4614212,504.276503 43.77862,504.367131 44.2317611,504.367131 Z M42.1308342,503.576194 C41.9001442,503.576194 41.7147683,503.495864 41.5747065,503.335205 C41.4346447,503.174546 41.3646138,502.925318 41.3646138,502.587522 C41.3646138,502.200292 41.4470031,501.903691 41.6117817,501.697718 C41.7765602,501.491745 42.0196087,501.285771 42.3409269,501.079798 C42.6622451,500.882064 42.8723378,500.700807 42.9712049,500.536029 L42.9712049,500.536029 L42.9712049,503.069499 C42.732276,503.407296 42.4521524,503.576194 42.1308342,503.576194 Z M47.309001,506.604 C47.7868589,506.604 48.1452523,506.501013 48.3841813,506.29504 C48.5819156,506.138501 48.763172,505.846019 48.9279506,505.417594 L48.9279506,505.417594 L51.140103,499.201322 C51.2636869,498.863526 51.3934501,498.614299 51.5293924,498.45364 C51.6653347,498.29298 51.8198146,498.187934 51.9928321,498.138501 L51.9928321,498.138501 L51.9928321,497.891333 C51.7703811,497.916049 51.4531823,497.928408 51.0412358,497.928408 C50.6292894,497.928408 50.2297013,497.916049 49.8424717,497.891333 L49.8424717,497.891333 L49.8424717,498.138501 C50.4521524,498.196173 50.7569928,498.52573 50.7569928,499.127172 C50.7569928,499.399057 50.6910814,499.728614 50.5592585,500.115843 L50.5592585,500.115843 L49.7065294,502.488655 L48.1988054,498.842929 C48.1411329,498.702867 48.1122966,498.587522 48.1122966,498.496894 C48.1122966,498.340354 48.1761483,498.243547 48.3038517,498.206472 C48.4315551,498.169396 48.6272297,498.150859 48.8908754,498.150859 L48.8908754,498.150859 L48.8908754,497.891333 C48.2317611,497.940766 47.6591555,497.965483 47.1730587,497.965483 C46.5880947,497.965483 46.0237281,497.940766 45.4799588,497.891333 L45.4799588,497.891333 L45.4799588,498.150859 C45.6117817,498.150859 45.7394851,498.196173 45.863069,498.286801 C45.9866529,498.377429 46.1143563,498.562805 46.2461792,498.842929 L46.2461792,498.842929 L48.8661586,504.799675 L48.6684243,505.392877 C48.4294954,506.043753 48.0546241,506.369191 47.5438105,506.369191 C47.4119876,506.369191 47.31724,506.365071 47.2595675,506.356832 C47.4573018,506.282682 47.6097219,506.173516 47.716828,506.029335 C47.8239341,505.885153 47.8774871,505.726554 47.8774871,505.553537 C47.8774871,505.306369 47.7930381,505.114814 47.6241401,504.978871 C47.455242,504.842929 47.2307312,504.774958 46.9506076,504.774958 C46.6540062,504.774958 46.4150772,504.851168 46.2338208,505.003588 C46.0525644,505.156008 45.9619361,505.359922 45.9619361,505.615329 C45.9619361,505.936647 46.0999382,506.181755 46.3759423,506.350653 C46.6519464,506.519551 46.962966,506.604 47.309001,506.604 Z M56.0958187,504.280622 L56.0958187,504.021096 C55.7085891,504.021096 55.4181668,503.946945 55.224552,503.798645 C55.0309372,503.650344 54.9341298,503.386698 54.9341298,503.007708 L54.9341298,503.007708 L54.9341298,498.150859 L56.2564779,498.150859 L56.2564779,497.903691 L54.9341298,497.903691 L54.9341298,496.779077 C54.9341298,496.301219 54.9506076,495.942826 54.9835633,495.703897 C55.0165191,495.464968 55.078311,495.283712 55.1689392,495.160128 C55.3007621,494.945916 55.5232132,494.838809 55.8362925,494.838809 C55.9516375,494.838809 56.0484449,494.855287 56.1267147,494.888243 C56.2049846,494.921199 56.2564779,494.962393 56.2811946,495.011827 C56.0422657,495.077738 55.8610093,495.193083 55.7374253,495.357862 C55.6138414,495.522641 55.5520494,495.712136 55.5520494,495.926348 C55.5520494,496.198233 55.6385582,496.412445 55.8115757,496.568985 C55.9845932,496.725524 56.2111637,496.803794 56.4912873,496.803794 C56.7466941,496.803794 56.9567868,496.719345 57.1215654,496.550447 C57.286344,496.381549 57.3687333,496.181755 57.3687333,495.951065 C57.3687333,495.753331 57.3295984,495.574134 57.2513285,495.413475 C57.1730587,495.252816 57.0721318,495.123053 56.9485479,495.024185 C56.5777961,494.752301 56.1370134,494.616358 55.6261998,494.616358 C55.2884037,494.616358 54.9670855,494.674031 54.6622451,494.789376 C54.3574047,494.904721 54.1143563,495.053022 53.9330999,495.234278 C53.6447374,495.514402 53.4428836,495.850138 53.3275386,496.241487 C53.2121936,496.632836 53.1545211,497.186904 53.1545211,497.903691 L53.1545211,497.903691 L52.3141504,497.903691 L52.3141504,498.150859 L53.1545211,498.150859 L53.1545211,503.131291 C53.1545211,503.469088 53.0968486,503.701837 52.9815036,503.829541 C52.8661586,503.957244 52.6601854,504.021096 52.3635839,504.021096 L52.3635839,504.021096 L52.3635839,504.280622 C53.1874768,504.247666 53.7230072,504.231188 53.9701751,504.231188 C54.2420597,504.231188 54.8352626,504.243547 55.7497837,504.268264 L55.7497837,504.268264 L56.0958187,504.280622 Z M61.3975695,504.367131 C61.9330999,504.367131 62.386241,504.214711 62.7569928,503.90987 L62.7569928,503.90987 L62.6334089,503.699778 C62.4603913,503.839839 62.3120906,503.90987 62.1885067,503.90987 C62.0814006,503.90987 62.00931,503.868676 61.9722348,503.786286 C61.9351596,503.703897 61.916622,503.563835 61.916622,503.366101 L61.916622,503.366101 L61.916622,500.004618 C61.916622,499.551477 61.8857261,499.193083 61.8239341,498.929438 C61.7621421,498.665792 61.6406179,498.443341 61.4593615,498.262084 C61.2616272,498.06435 61.0144593,497.924288 60.7178579,497.841899 C60.4212564,497.75951 60.071102,497.718315 59.6673944,497.718315 C59.2801648,497.718315 58.9238311,497.75539 58.5983934,497.829541 C58.2729557,497.903691 57.9990113,498.006678 57.7765602,498.138501 C57.5458702,498.278562 57.3749125,498.428923 57.2636869,498.589582 C57.1524614,498.750241 57.0968486,498.945916 57.0968486,499.176606 C57.0968486,499.44849 57.1751184,499.675061 57.3316581,499.856317 C57.4881977,500.037574 57.7106488,500.128202 57.9990113,500.128202 C58.270896,500.128202 58.501586,500.045813 58.6910814,499.881034 C58.8805767,499.716255 58.9753244,499.493804 58.9753244,499.213681 C58.9753244,498.99123 58.9114727,498.797615 58.7837693,498.632836 C58.6560659,498.468058 58.4768692,498.344474 58.2461792,498.262084 C58.4521524,498.06435 58.7528733,497.965483 59.1483419,497.965483 C59.486138,497.965483 59.7353656,498.06229 59.8960247,498.255905 C60.0566838,498.44952 60.1370134,498.719345 60.1370134,499.06538 L60.1370134,499.06538 L60.1370134,500.029335 C60.1370134,500.251786 60.031967,500.426863 59.8218744,500.554566 C59.6117817,500.68227 59.2801648,500.824391 58.8270237,500.980931 C58.3985994,501.129232 58.0463852,501.269294 57.7703811,501.401116 C57.4943769,501.532939 57.2595675,501.720375 57.0659526,501.963423 C56.8723378,502.206472 56.7755304,502.513372 56.7755304,502.884124 C56.7755304,503.329026 56.9052935,503.687419 57.1648198,503.959304 C57.424346,504.231188 57.8177549,504.367131 58.3450463,504.367131 C59.1442225,504.367131 59.7497837,504.033454 60.1617302,503.366101 C60.1699691,503.670941 60.2647168,503.91399 60.4459732,504.095246 C60.6272297,504.276503 60.9444284,504.367131 61.3975695,504.367131 Z M59.2966426,503.576194 C59.0659526,503.576194 58.8805767,503.495864 58.7405149,503.335205 C58.6004531,503.174546 58.5304222,502.925318 58.5304222,502.587522 C58.5304222,502.200292 58.6128115,501.903691 58.7775901,501.697718 C58.9423687,501.491745 59.1854171,501.285771 59.5067353,501.079798 C59.8280536,500.882064 60.0381462,500.700807 60.1370134,500.536029 L60.1370134,500.536029 L60.1370134,503.069499 C59.8980844,503.407296 59.6179609,503.576194 59.2966426,503.576194 Z M64.7219773,496.60606 C65.0680124,496.60606 65.3419567,496.521611 65.5438105,496.352713 C65.7456643,496.183815 65.8465911,495.951065 65.8465911,495.654463 C65.8465911,495.357862 65.7456643,495.125112 65.5438105,494.956214 C65.3419567,494.787316 65.0680124,494.702867 64.7219773,494.702867 C64.3759423,494.702867 64.1019979,494.787316 63.9001442,494.956214 C63.6982904,495.125112 63.5973635,495.357862 63.5973635,495.654463 C63.5973635,495.951065 63.6982904,496.183815 63.9001442,496.352713 C64.1019979,496.521611 64.3759423,496.60606 64.7219773,496.60606 Z M66.4768692,504.280622 L66.4768692,504.021096 C66.1885067,504.021096 65.9845932,503.957244 65.8651287,503.829541 C65.7456643,503.701837 65.685932,503.469088 65.685932,503.131291 L65.685932,503.131291 L65.685932,497.75539 C65.2163131,497.870735 64.6148713,497.928408 63.8816066,497.928408 C63.6344387,497.928408 63.3790319,497.916049 63.1153862,497.891333 L63.1153862,497.891333 L63.1153862,498.150859 C63.4119876,498.150859 63.6179609,498.237368 63.7333059,498.410385 C63.8486509,498.583403 63.9063234,498.859407 63.9063234,499.238398 L63.9063234,499.238398 L63.9063234,503.131291 C63.9063234,503.469088 63.8486509,503.701837 63.7333059,503.829541 C63.6179609,503.957244 63.4119876,504.021096 63.1153862,504.021096 L63.1153862,504.021096 L63.1153862,504.280622 C64.0051905,504.247666 64.5777961,504.231188 64.8332029,504.231188 C65.1050875,504.231188 65.6529763,504.247666 66.4768692,504.280622 L66.4768692,504.280622 Z M70.7405149,504.280622 L70.7405149,504.021096 C70.3368074,504.021096 70.0422657,503.946945 69.8568898,503.798645 C69.6715139,503.650344 69.578826,503.386698 69.578826,503.007708 L69.578826,503.007708 L69.578826,499.732733 C69.578826,499.386698 69.6879918,499.048902 69.9063234,498.719345 C70.124655,498.389788 70.3903605,498.200292 70.7034398,498.150859 C70.7528733,498.134381 70.8187848,498.126142 70.901174,498.126142 C70.9670855,498.126142 71.0165191,498.130262 71.0494748,498.138501 C70.6869619,498.385668 70.5057055,498.706987 70.5057055,499.102455 C70.5057055,499.341384 70.5880947,499.532939 70.7528733,499.67712 C70.9176519,499.821302 71.140103,499.893392 71.4202266,499.893392 C71.7085891,499.893392 71.9413388,499.796585 72.1184758,499.60297 C72.2956128,499.409355 72.3841813,499.160128 72.3841813,498.855287 C72.3841813,498.542208 72.2894336,498.274443 72.0999382,498.051992 C71.9104428,497.829541 71.6303193,497.718315 71.2595675,497.718315 C70.8888157,497.718315 70.555139,497.827481 70.2585376,498.045813 C69.9619361,498.264144 69.7353656,498.550447 69.578826,498.904721 L69.578826,498.904721 L69.578826,497.75539 C69.109207,497.870735 68.5077652,497.928408 67.7745005,497.928408 C67.5273326,497.928408 67.2719258,497.916049 67.0082801,497.891333 L67.0082801,497.891333 L67.0082801,498.150859 C67.3048816,498.150859 67.5108548,498.237368 67.6261998,498.410385 C67.7415448,498.583403 67.7992173,498.859407 67.7992173,499.238398 L67.7992173,499.238398 L67.7992173,503.131291 C67.7992173,503.469088 67.7415448,503.701837 67.6261998,503.829541 C67.5108548,503.957244 67.3048816,504.021096 67.0082801,504.021096 L67.0082801,504.021096 L67.0082801,504.280622 C67.1071473,504.280622 67.1895366,504.276503 67.255448,504.268264 C68.0463852,504.243547 68.5530793,504.231188 68.7755304,504.231188 C69.055654,504.231188 69.6159011,504.243547 70.4562719,504.268264 C70.5304222,504.276503 70.6251699,504.280622 70.7405149,504.280622 L70.7405149,504.280622 Z M78.3532853,504.45364 C79.1442225,504.45364 79.6797528,504.082888 79.9598764,503.341384 L79.9598764,503.341384 L79.9598764,504.404206 C80.4294954,504.288861 81.0309372,504.231188 81.7642019,504.231188 C82.0196087,504.231188 82.2750154,504.243547 82.5304222,504.268264 L82.5304222,504.268264 L82.5304222,504.008737 C82.2338208,504.008737 82.0278476,503.922229 81.9125026,503.749211 C81.7971576,503.576194 81.7394851,503.300189 81.7394851,502.921199 L81.7394851,502.921199 L81.7394851,494.604 C81.2533883,494.719345 80.6519464,494.777018 79.9351596,494.777018 C79.6879918,494.777018 79.432585,494.764659 79.1689392,494.739942 L79.1689392,494.739942 L79.1689392,494.999469 C79.4573018,494.999469 79.6612152,495.085977 79.7806797,495.258995 C79.9001442,495.432012 79.9598764,495.708016 79.9598764,496.087007 L79.9598764,496.087007 L79.9598764,498.187934 C79.6467971,497.874855 79.1895366,497.718315 78.5880947,497.718315 C78.0525644,497.718315 77.5767662,497.843959 77.1607003,498.095246 C76.7446344,498.346533 76.4191967,498.721405 76.1843872,499.21986 C75.9495778,499.718315 75.832173,500.330056 75.832173,501.055081 C75.8239341,502.192054 76.0484449,503.042723 76.5057055,503.60709 C76.962966,504.171456 77.578826,504.45364 78.3532853,504.45364 Z M78.8599794,503.922229 C78.4809887,503.922229 78.1905664,503.699778 77.9887127,503.254875 C77.7868589,502.809973 77.6900515,502.084947 77.6982904,501.079798 C77.6900515,500.082888 77.8053965,499.333145 78.0443254,498.830571 C78.2832544,498.327996 78.6210505,498.076709 79.0577137,498.076709 C79.4531823,498.076709 79.7539032,498.21677 79.9598764,498.496894 L79.9598764,498.496894 L79.9598764,502.822332 C79.9186818,503.160128 79.7930381,503.427893 79.5829454,503.625627 C79.3728527,503.823361 79.1318641,503.922229 78.8599794,503.922229 Z M84.6560659,496.60606 C85.0021009,496.60606 85.2760453,496.521611 85.4778991,496.352713 C85.6797528,496.183815 85.7806797,495.951065 85.7806797,495.654463 C85.7806797,495.357862 85.6797528,495.125112 85.4778991,494.956214 C85.2760453,494.787316 85.0021009,494.702867 84.6560659,494.702867 C84.3100309,494.702867 84.0360865,494.787316 83.8342327,494.956214 C83.632379,495.125112 83.5314521,495.357862 83.5314521,495.654463 C83.5314521,495.951065 83.632379,496.183815 83.8342327,496.352713 C84.0360865,496.521611 84.3100309,496.60606 84.6560659,496.60606 Z M86.4109578,504.280622 L86.4109578,504.021096 C86.1225953,504.021096 85.9186818,503.957244 85.7992173,503.829541 C85.6797528,503.701837 85.6200206,503.469088 85.6200206,503.131291 L85.6200206,503.131291 L85.6200206,497.75539 C85.1504016,497.870735 84.5489598,497.928408 83.8156952,497.928408 C83.5685273,497.928408 83.3131205,497.916049 83.0494748,497.891333 L83.0494748,497.891333 L83.0494748,498.150859 C83.3460762,498.150859 83.5520494,498.237368 83.6673944,498.410385 C83.7827394,498.583403 83.8404119,498.859407 83.8404119,499.238398 L83.8404119,499.238398 L83.8404119,503.131291 C83.8404119,503.469088 83.7827394,503.701837 83.6673944,503.829541 C83.5520494,503.957244 83.3460762,504.021096 83.0494748,504.021096 L83.0494748,504.021096 L83.0494748,504.280622 C83.9392791,504.247666 84.5118847,504.231188 84.7672915,504.231188 C85.0391761,504.231188 85.5870649,504.247666 86.4109578,504.280622 L86.4109578,504.280622 Z M89.5623481,504.45364 C89.9907724,504.45364 90.3821215,504.379489 90.7363955,504.231188 C91.0906694,504.082888 91.3728527,503.868676 91.5829454,503.588552 C91.7930381,503.308428 91.8980844,502.98711 91.8980844,502.624597 C91.8980844,502.179695 91.77862,501.808943 91.539691,501.512342 C91.3007621,501.21574 90.9300103,500.877944 90.4274356,500.498954 L90.4274356,500.498954 L90.0690422,500.239427 C89.6653347,499.951065 89.3687333,499.705957 89.1792379,499.504103 C88.9897425,499.302249 88.8949949,499.061261 88.8949949,498.781137 C88.8949949,498.533969 88.9753244,498.340354 89.1359835,498.200292 C89.2966426,498.060231 89.5005561,497.9902 89.747724,497.9902 C90.2255819,497.9902 90.5901545,498.173516 90.8414418,498.540148 C91.0927291,498.906781 91.255448,499.361981 91.3295984,499.905751 L91.3295984,499.905751 L91.5891246,499.905751 C91.5891246,498.875885 91.6056025,498.150859 91.6385582,497.730674 L91.6385582,497.730674 L91.3790319,497.730674 C91.3625541,497.878974 91.3275386,497.99226 91.2739856,498.070529 C91.2204325,498.148799 91.1565808,498.187934 91.0824305,498.187934 C91.0165191,498.187934 90.9423687,498.159098 90.8599794,498.101425 C90.7199176,498.002558 90.5180639,497.91399 90.2544181,497.83572 C89.9907724,497.75745 89.7024099,497.718315 89.3893306,497.718315 C88.7961277,497.718315 88.293553,497.870735 87.8816066,498.175576 C87.4696601,498.480416 87.2636869,498.896482 87.2636869,499.423773 C87.2636869,499.728614 87.3316581,500.004618 87.4676004,500.251786 C87.6035427,500.498954 87.7683213,500.713166 87.9619361,500.894422 C88.155551,501.075679 88.4377343,501.314608 88.8084861,501.611209 C89.1215654,501.858377 89.3563749,502.051992 89.5129145,502.192054 C89.6694542,502.332115 89.7992173,502.492774 89.9022039,502.674031 C90.0051905,502.855287 90.0566838,503.061261 90.0566838,503.291951 C90.0566838,503.588552 89.9722348,503.808943 89.8033368,503.953125 C89.6344387,504.097306 89.4305252,504.169396 89.1915963,504.169396 C88.2441195,504.169396 87.6879918,503.411415 87.5232132,501.895452 L87.5232132,501.895452 L87.2636869,501.895452 C87.2636869,503.073619 87.2472091,503.897512 87.2142533,504.367131 L87.2142533,504.367131 L87.4737796,504.367131 C87.5067353,504.210591 87.5541092,504.093186 87.6159011,504.014917 C87.6776931,503.936647 87.7497837,503.90987 87.832173,503.934587 C87.947518,503.975782 88.1370134,504.06229 88.4006591,504.194113 C88.7219773,504.367131 89.109207,504.45364 89.5623481,504.45364 Z M96.2853141,506.517491 L96.2853141,506.257965 C95.9063234,506.257965 95.6261998,506.187934 95.4449434,506.047872 C95.2636869,505.907811 95.1730587,505.656523 95.1730587,505.29401 L95.1730587,505.29401 L95.1730587,504.058171 C95.3295984,504.189994 95.517034,504.288861 95.7353656,504.354772 C95.9536972,504.420684 96.186447,504.45364 96.4336148,504.45364 C97.3151802,504.45364 98.0134295,504.138501 98.5283625,503.508222 C99.0432956,502.877944 99.3007621,501.973722 99.3007621,500.795555 C99.3007621,500.128202 99.2060144,499.563835 99.0165191,499.102455 C98.8270237,498.641075 98.5654377,498.29504 98.2317611,498.06435 C97.8980844,497.83366 97.517034,497.718315 97.0886097,497.718315 C96.6437075,497.718315 96.2564779,497.819242 95.9269207,498.021096 C95.5973635,498.22295 95.3460762,498.513372 95.1730587,498.892363 L95.1730587,498.892363 L95.1730587,497.75539 C94.6869619,497.870735 94.0855201,497.928408 93.3687333,497.928408 C93.1215654,497.928408 92.8661586,497.916049 92.6025129,497.891333 L92.6025129,497.891333 L92.6025129,498.150859 C92.8908754,498.150859 93.0947889,498.237368 93.2142533,498.410385 C93.3337178,498.583403 93.3934501,498.859407 93.3934501,499.238398 L93.3934501,499.238398 L93.3934501,505.417594 C93.3934501,505.738912 93.3378373,505.959304 93.2266117,506.078768 C93.1153862,506.198233 92.9238311,506.257965 92.6519464,506.257965 L92.6519464,506.257965 L92.6519464,506.517491 C93.4428836,506.484536 93.9619361,506.468058 94.209104,506.468058 L94.2847864,506.468364 C94.5646376,506.470407 95.1202547,506.482663 95.9516375,506.505133 L95.9516375,506.505133 L96.2853141,506.517491 Z M95.9516375,504.119963 C95.6303193,504.119963 95.370793,504.008737 95.1730587,503.786286 L95.1730587,503.786286 L95.1730587,499.324906 C95.2472091,498.98711 95.3934501,498.723464 95.6117817,498.533969 C95.8301133,498.344474 96.0793409,498.249726 96.3594645,498.249726 C96.7054995,498.249726 96.9712049,498.463938 97.1565808,498.892363 C97.3419567,499.320787 97.4346447,500.037574 97.4346447,501.042723 C97.4346447,502.047872 97.3192997,502.812033 97.0886097,503.335205 C96.8579197,503.858377 96.4789289,504.119963 95.9516375,504.119963 Z M103.379032,504.280622 L103.379032,504.021096 C103.08243,504.021096 102.876457,503.957244 102.761112,503.829541 C102.645767,503.701837 102.588095,503.469088 102.588095,503.131291 L102.588095,503.131291 L102.588095,494.604 C102.101998,494.719345 101.500556,494.777018 100.783769,494.777018 C100.536601,494.777018 100.281195,494.764659 100.017549,494.739942 L100.017549,494.739942 L100.017549,494.999469 C100.305911,494.999469 100.509825,495.085977 100.629289,495.258995 C100.748754,495.432012 100.808486,495.708016 100.808486,496.087007 L100.808486,496.087007 L100.808486,503.131291 C100.808486,503.469088 100.748754,503.701837 100.629289,503.829541 C100.509825,503.957244 100.305911,504.021096 100.017549,504.021096 L100.017549,504.021096 L100.017549,504.280622 C100.874398,504.247666 101.442884,504.231188 101.723007,504.231188 C101.970175,504.231188 102.522183,504.247666 103.379032,504.280622 L103.379032,504.280622 Z M108.594274,504.367131 C109.129804,504.367131 109.582945,504.214711 109.953697,503.90987 L109.953697,503.90987 L109.830113,503.699778 C109.657096,503.839839 109.508795,503.90987 109.385211,503.90987 C109.278105,503.90987 109.206014,503.868676 109.168939,503.786286 C109.131864,503.703897 109.113326,503.563835 109.113326,503.366101 L109.113326,503.366101 L109.113326,500.004618 C109.113326,499.551477 109.08243,499.193083 109.020639,498.929438 C108.958847,498.665792 108.837322,498.443341 108.656066,498.262084 C108.458332,498.06435 108.211164,497.924288 107.914562,497.841899 C107.617961,497.75951 107.267806,497.718315 106.864099,497.718315 C106.476869,497.718315 106.120536,497.75539 105.795098,497.829541 C105.46966,497.903691 105.195716,498.006678 104.973265,498.138501 C104.742575,498.278562 104.571617,498.428923 104.460391,498.589582 C104.349166,498.750241 104.293553,498.945916 104.293553,499.176606 C104.293553,499.44849 104.371823,499.675061 104.528363,499.856317 C104.684902,500.037574 104.907353,500.128202 105.195716,500.128202 C105.4676,500.128202 105.69829,500.045813 105.887786,499.881034 C106.077281,499.716255 106.172029,499.493804 106.172029,499.213681 C106.172029,498.99123 106.108177,498.797615 105.980474,498.632836 C105.85277,498.468058 105.673574,498.344474 105.442884,498.262084 C105.648857,498.06435 105.949578,497.965483 106.345046,497.965483 C106.682842,497.965483 106.93207,498.06229 107.092729,498.255905 C107.253388,498.44952 107.333718,498.719345 107.333718,499.06538 L107.333718,499.06538 L107.333718,500.029335 C107.333718,500.251786 107.228671,500.426863 107.018579,500.554566 C106.808486,500.68227 106.476869,500.824391 106.023728,500.980931 C105.595304,501.129232 105.24309,501.269294 104.967085,501.401116 C104.691081,501.532939 104.456272,501.720375 104.262657,501.963423 C104.069042,502.206472 103.972235,502.513372 103.972235,502.884124 C103.972235,503.329026 104.101998,503.687419 104.361524,503.959304 C104.62105,504.231188 105.014459,504.367131 105.541751,504.367131 C106.340927,504.367131 106.946488,504.033454 107.358435,503.366101 C107.366674,503.670941 107.461421,503.91399 107.642678,504.095246 C107.823934,504.276503 108.141133,504.367131 108.594274,504.367131 Z M106.493347,503.576194 C106.262657,503.576194 106.077281,503.495864 105.937219,503.335205 C105.797158,503.174546 105.727127,502.925318 105.727127,502.587522 C105.727127,502.200292 105.809516,501.903691 105.974295,501.697718 C106.139073,501.491745 106.382122,501.285771 106.70344,501.079798 C107.024758,500.882064 107.234851,500.700807 107.333718,500.536029 L107.333718,500.536029 L107.333718,503.069499 C107.094789,503.407296 106.814665,503.576194 106.493347,503.576194 Z M111.671514,506.604 C112.149372,506.604 112.507765,506.501013 112.746694,506.29504 C112.944428,506.138501 113.125685,505.846019 113.290463,505.417594 L113.290463,505.417594 L115.502616,499.201322 C115.6262,498.863526 115.755963,498.614299 115.891905,498.45364 C116.027848,498.29298 116.182327,498.187934 116.355345,498.138501 L116.355345,498.138501 L116.355345,497.891333 C116.132894,497.916049 115.815695,497.928408 115.403749,497.928408 C114.991802,497.928408 114.592214,497.916049 114.204985,497.891333 L114.204985,497.891333 L114.204985,498.138501 C114.814665,498.196173 115.119506,498.52573 115.119506,499.127172 C115.119506,499.399057 115.053594,499.728614 114.921771,500.115843 L114.921771,500.115843 L114.069042,502.488655 L112.561318,498.842929 C112.503646,498.702867 112.474809,498.587522 112.474809,498.496894 C112.474809,498.340354 112.538661,498.243547 112.666365,498.206472 C112.794068,498.169396 112.989743,498.150859 113.253388,498.150859 L113.253388,498.150859 L113.253388,497.891333 C112.594274,497.940766 112.021668,497.965483 111.535572,497.965483 C110.950608,497.965483 110.386241,497.940766 109.842472,497.891333 L109.842472,497.891333 L109.842472,498.150859 C109.974295,498.150859 110.101998,498.196173 110.225582,498.286801 C110.349166,498.377429 110.476869,498.562805 110.608692,498.842929 L110.608692,498.842929 L113.228671,504.799675 L113.030937,505.392877 C112.792008,506.043753 112.417137,506.369191 111.906323,506.369191 C111.774501,506.369191 111.679753,506.365071 111.62208,506.356832 C111.819815,506.282682 111.972235,506.173516 112.079341,506.029335 C112.186447,505.885153 112.24,505.726554 112.24,505.553537 C112.24,505.306369 112.155551,505.114814 111.986653,504.978871 C111.817755,504.842929 111.593244,504.774958 111.31312,504.774958 C111.016519,504.774958 110.77759,504.851168 110.596334,505.003588 C110.415077,505.156008 110.324449,505.359922 110.324449,505.615329 C110.324449,505.936647 110.462451,506.181755 110.738455,506.350653 C111.014459,506.519551 111.325479,506.604 111.671514,506.604 Z M120.272956,504.478356 C120.445973,504.330056 120.680783,504.210591 120.977384,504.119963 C121.273986,504.029335 121.570587,503.996379 121.867188,504.021096 C122.221462,504.309458 122.682842,504.45364 123.251329,504.45364 C124.08346,504.45364 124.763172,504.167337 125.290463,503.594731 C125.817755,503.022126 126.081401,502.130262 126.081401,500.919139 C126.081401,499.881034 125.875427,499.088037 125.463481,498.540148 C125.051535,497.99226 124.511885,497.718315 123.844531,497.718315 C123.416107,497.718315 123.037116,497.819242 122.707559,498.021096 C122.378002,498.22295 122.126715,498.513372 121.953697,498.892363 L121.953697,498.892363 L121.953697,494.616358 C121.4676,494.731703 120.866159,494.789376 120.149372,494.789376 C119.893965,494.789376 119.638558,494.777018 119.383151,494.752301 L119.383151,494.752301 L119.383151,495.011827 C119.671514,495.011827 119.875427,495.098336 119.994892,495.271353 C120.114356,495.444371 120.174089,495.720375 120.174089,496.099366 L120.174089,496.099366 L120.174089,503.675061 C120.174089,503.930468 120.145252,504.161158 120.08758,504.367131 L120.08758,504.367131 L120.272956,504.478356 Z M122.868218,504.194113 C122.530422,504.194113 122.225582,504.082888 121.953697,503.860437 L121.953697,503.860437 L121.953697,499.324906 C122.027848,498.995349 122.174089,498.733763 122.39242,498.540148 C122.610752,498.346533 122.85174,498.249726 123.115386,498.249726 C123.46966,498.249726 123.741545,498.470117 123.93104,498.9109 C124.120536,499.351683 124.215283,500.078768 124.215283,501.092157 C124.215283,502.138501 124.104058,502.917079 123.881607,503.427893 C123.659156,503.938706 123.321359,504.194113 122.868218,504.194113 Z M130.036087,504.45364 C130.983563,504.45364 131.725067,504.185874 132.260597,503.650344 C132.796128,503.114814 133.063893,502.262084 133.063893,501.092157 C133.063893,499.922229 132.796128,499.06744 132.260597,498.52779 C131.725067,497.98814 130.983563,497.718315 130.036087,497.718315 C129.096849,497.718315 128.357405,497.98814 127.817755,498.52779 C127.278105,499.06744 127.00828,499.922229 127.00828,501.092157 C127.00828,502.262084 127.278105,503.114814 127.817755,503.650344 C128.357405,504.185874 129.096849,504.45364 130.036087,504.45364 Z M130.036087,504.206472 C129.681813,504.206472 129.399629,503.951065 129.189537,503.440251 C128.979444,502.929438 128.874398,502.146739 128.874398,501.092157 C128.874398,500.037574 128.979444,499.252816 129.189537,498.737883 C129.399629,498.22295 129.681813,497.965483 130.036087,497.965483 C130.39036,497.965483 130.672544,498.22089 130.882636,498.731703 C131.092729,499.242517 131.197775,500.029335 131.197775,501.092157 C131.197775,502.154978 131.094789,502.939736 130.888816,503.44643 C130.682842,503.953125 130.398599,504.206472 130.036087,504.206472 Z M137.142163,504.280622 L137.142163,504.021096 C136.845561,504.021096 136.639588,503.957244 136.524243,503.829541 C136.408898,503.701837 136.351226,503.469088 136.351226,503.131291 L136.351226,503.131291 L136.351226,494.604 C135.865129,494.719345 135.263687,494.777018 134.5469,494.777018 C134.299732,494.777018 134.044325,494.764659 133.78068,494.739942 L133.78068,494.739942 L133.78068,494.999469 C134.069042,494.999469 134.272956,495.085977 134.39242,495.258995 C134.511885,495.432012 134.571617,495.708016 134.571617,496.087007 L134.571617,496.087007 L134.571617,503.131291 C134.571617,503.469088 134.511885,503.701837 134.39242,503.829541 C134.272956,503.957244 134.069042,504.021096 133.78068,504.021096 L133.78068,504.021096 L133.78068,504.280622 C134.637528,504.247666 135.206014,504.231188 135.486138,504.231188 C135.733306,504.231188 136.285314,504.247666 137.142163,504.280622 L137.142163,504.280622 Z M140.367703,504.45364 C141.158641,504.45364 141.694171,504.082888 141.974295,503.341384 L141.974295,503.341384 L141.974295,504.404206 C142.443913,504.288861 143.045355,504.231188 143.77862,504.231188 C144.034027,504.231188 144.289434,504.243547 144.54484,504.268264 L144.54484,504.268264 L144.54484,504.008737 C144.248239,504.008737 144.042266,503.922229 143.926921,503.749211 C143.811576,503.576194 143.753903,503.300189 143.753903,502.921199 L143.753903,502.921199 L143.753903,494.604 C143.267806,494.719345 142.666365,494.777018 141.949578,494.777018 C141.70241,494.777018 141.447003,494.764659 141.183357,494.739942 L141.183357,494.739942 L141.183357,494.999469 C141.47172,494.999469 141.675633,495.085977 141.795098,495.258995 C141.914562,495.432012 141.974295,495.708016 141.974295,496.087007 L141.974295,496.087007 L141.974295,498.187934 C141.661215,497.874855 141.203955,497.718315 140.602513,497.718315 C140.066982,497.718315 139.591184,497.843959 139.175118,498.095246 C138.759053,498.346533 138.433615,498.721405 138.198805,499.21986 C137.963996,499.718315 137.846591,500.330056 137.846591,501.055081 C137.838352,502.192054 138.062863,503.042723 138.520124,503.60709 C138.977384,504.171456 139.593244,504.45364 140.367703,504.45364 Z M140.874398,503.922229 C140.495407,503.922229 140.204985,503.699778 140.003131,503.254875 C139.801277,502.809973 139.70447,502.084947 139.712709,501.079798 C139.70447,500.082888 139.819815,499.333145 140.058744,498.830571 C140.297673,498.327996 140.635469,498.076709 141.072132,498.076709 C141.4676,498.076709 141.768321,498.21677 141.974295,498.496894 L141.974295,498.496894 L141.974295,502.822332 C141.9331,503.160128 141.807456,503.427893 141.597364,503.625627 C141.387271,503.823361 141.146282,503.922229 140.874398,503.922229 Z M154.901174,504.280622 L154.901174,504.021096 C154.571617,504.021096 154.340927,503.953125 154.209104,503.817182 C154.077281,503.68124 154.01137,503.436132 154.01137,503.081858 L154.01137,503.081858 L154.01137,497.75539 C153.657096,497.969602 153.249269,498.124082 152.787889,498.21883 C152.326509,498.313578 151.737425,498.369191 151.020639,498.385668 L151.020639,498.385668 L151.020639,498.657553 C151.358435,498.657553 151.609722,498.688449 151.774501,498.750241 C151.939279,498.812033 152.056684,498.935617 152.126715,499.120993 C152.196746,499.306369 152.231761,499.596791 152.231761,499.99226 L152.231761,499.99226 L152.231761,503.007708 C152.231761,503.386698 152.134954,503.650344 151.941339,503.798645 C151.747724,503.946945 151.457302,504.021096 151.070072,504.021096 L151.070072,504.021096 L151.070072,504.280622 L151.416107,504.268264 C152.330628,504.243547 152.923831,504.231188 153.195716,504.231188 C153.442884,504.231188 154.01137,504.247666 154.901174,504.280622 L154.901174,504.280622 Z M161.216313,504.342414 C161.183357,503.922229 161.16688,503.226039 161.16688,502.253846 L161.16688,502.253846 L160.907353,502.253846 C160.882636,502.410385 160.849681,502.52573 160.808486,502.599881 C160.767291,502.674031 160.691081,502.727584 160.579856,502.76054 C160.46863,502.793495 160.301792,502.809973 160.079341,502.809973 L160.079341,502.809973 L157.409928,502.809973 C157.648857,502.562805 158.064923,502.233248 158.658126,501.821302 C159.119506,501.491745 159.482019,501.21574 159.745664,500.993289 C160.00931,500.770838 160.23794,500.515432 160.431555,500.227069 C160.62517,499.938706 160.721977,499.625627 160.721977,499.287831 C160.721977,498.793495 160.536601,498.408325 160.16585,498.132321 C159.795098,497.856317 159.292523,497.718315 158.658126,497.718315 C157.339897,497.718315 156.375942,498.233248 155.766262,499.263114 L155.766262,499.263114 L155.976354,499.386698 C156.198805,499.073619 156.443913,498.83675 156.711679,498.676091 C156.979444,498.515432 157.286344,498.435102 157.632379,498.435102 C158.01137,498.435102 158.297673,498.536029 158.491287,498.737883 C158.684902,498.939736 158.78171,499.258995 158.78171,499.695658 C158.78171,500.181755 158.664305,500.649314 158.429495,501.098336 C158.194686,501.547357 157.918682,501.942826 157.601483,502.284742 C157.284284,502.626657 156.886756,503.015946 156.408898,503.45261 C156.095819,503.732733 155.885726,503.930468 155.77862,504.045813 L155.77862,504.045813 L155.77862,504.280622 L159.374912,504.280622 C160.421256,504.280622 161.035057,504.301219 161.216313,504.342414 Z M162.081401,506.146739 C162.913532,506.146739 163.735366,506.019036 164.5469,505.763629 C165.358435,505.508222 166.023728,505.14365 166.542781,504.669911 C167.061833,504.196173 167.321359,503.658583 167.321359,503.057141 C167.321359,502.439221 167.045355,501.963423 166.493347,501.629747 C165.941339,501.29607 165.232791,501.14571 164.367703,501.178665 C165.133924,501.030365 165.743605,500.770838 166.196746,500.400087 C166.649887,500.029335 166.876457,499.609149 166.876457,499.13953 C166.876457,498.702867 166.678723,498.356832 166.283254,498.101425 C165.887786,497.846019 165.381092,497.718315 164.763172,497.718315 C164.104058,497.718315 163.570587,497.858377 163.16276,498.138501 C162.754933,498.418624 162.423316,498.793495 162.167909,499.263114 L162.167909,499.263114 L162.39036,499.37434 C162.579856,499.061261 162.812606,498.822332 163.08861,498.657553 C163.364614,498.492774 163.667394,498.410385 163.996952,498.410385 C164.351226,498.410385 164.62311,498.498954 164.812606,498.676091 C165.002101,498.853228 165.096849,499.127172 165.096849,499.497924 C165.096849,500.157038 164.77965,500.709046 164.145252,501.153949 C164.079341,501.14571 164.003131,501.135411 163.916622,501.123053 C163.830113,501.110694 163.762142,501.104515 163.712709,501.104515 C163.597364,501.104515 163.502616,501.127172 163.428465,501.172486 C163.354315,501.2178 163.31724,501.285771 163.31724,501.3764 C163.31724,501.491745 163.39551,501.549417 163.552049,501.549417 C163.634439,501.549417 163.731246,501.53088 163.842472,501.493804 C163.953697,501.456729 164.066982,501.409355 164.182327,501.351683 C164.577796,501.384639 164.892935,501.557656 165.127745,501.870735 C165.362554,502.183815 165.479959,502.583403 165.479959,503.069499 C165.479959,503.646225 165.311061,504.14468 164.973265,504.564865 C164.635469,504.98505 164.204985,505.308428 163.681813,505.534999 C163.158641,505.76157 162.62517,505.883094 162.081401,505.899572 L162.081401,505.899572 L162.081401,506.146739 Z M172.660185,506.023156 L172.660185,503.83572 C173.385211,503.852198 173.797158,503.872795 173.896025,503.897512 C173.863069,503.510282 173.846591,502.880004 173.846591,502.006678 L173.846591,502.006678 L173.587065,502.006678 C173.562348,502.163217 173.529392,502.278562 173.488198,502.352713 C173.447003,502.426863 173.370793,502.480416 173.259567,502.513372 C173.148342,502.546327 172.981504,502.562805 172.759053,502.562805 L172.759053,502.562805 L172.660185,502.562805 L172.660185,497.718315 L172.462451,497.718315 L167.85277,503.576194 L167.85277,503.83572 L171.226612,503.83572 L171.226612,506.023156 L172.660185,506.023156 Z M171.226612,502.562805 L168.989743,502.562805 L171.226612,499.6833 L171.226612,502.562805 Z M174.649887,506.109664 C175.449063,506.109664 176.225582,505.981961 176.979444,505.726554 C177.733306,505.471147 178.349166,505.106575 178.827024,504.632836 C179.304882,504.159098 179.543811,503.617388 179.543811,503.007708 C179.543811,502.430982 179.339897,501.961364 178.93207,501.598851 C178.524243,501.236338 177.924861,501.055081 177.133924,501.055081 C176.367703,501.055081 175.745664,501.21986 175.267806,501.549417 L175.267806,501.549417 L175.465541,499.436132 L177.368733,499.436132 C178.340927,499.436132 178.913532,499.456729 179.08655,499.497924 C179.053594,499.077738 179.037116,498.385668 179.037116,497.421714 L179.037116,497.421714 L178.77759,497.421714 C178.752873,497.60297 178.693141,497.728614 178.598393,497.798645 C178.503646,497.868676 178.336807,497.903691 178.097878,497.903691 L178.097878,497.903691 L176.058744,497.903691 C175.77862,497.903691 175.556169,497.887213 175.39139,497.854257 L175.39139,497.854257 L174.995922,501.722435 L175.168939,501.83366 C175.341957,501.710076 175.514974,501.619448 175.687992,501.561775 C175.861009,501.504103 176.058744,501.475267 176.281195,501.475267 C176.742575,501.475267 177.094789,501.613269 177.337837,501.889273 C177.580886,502.165277 177.70241,502.562805 177.70241,503.081858 C177.70241,503.658583 177.558229,504.159098 177.269866,504.583403 C176.981504,505.007708 176.602513,505.329026 176.132894,505.547357 C175.663275,505.765689 175.168939,505.878974 174.649887,505.887213 L174.649887,505.887213 L174.649887,506.109664 Z M183.436704,504.45364 C183.996952,504.45364 184.511885,504.338295 184.981504,504.107605 C185.451123,503.876915 185.823934,503.539118 186.099938,503.094216 C186.375942,502.649314 186.513944,502.122023 186.513944,501.512342 C186.513944,500.976812 186.404779,500.505133 186.186447,500.097306 C185.968115,499.689479 185.675633,499.378459 185.309001,499.164247 C184.942369,498.950035 184.536601,498.842929 184.091699,498.842929 C183.753903,498.842929 183.442884,498.90884 183.158641,499.040663 C182.874398,499.172486 182.645767,499.378459 182.47275,499.658583 C182.571617,498.744062 182.771411,498.010797 183.072132,497.458789 C183.372853,496.906781 183.723007,496.498954 184.122595,496.235308 C184.522183,495.971662 184.985623,495.75745 185.512915,495.592671 L185.512915,495.592671 L185.463481,495.345504 C184.713738,495.469088 183.961936,495.745092 183.208074,496.173516 C182.454212,496.60194 181.819815,497.21574 181.304882,498.014917 C180.789949,498.814093 180.532482,499.786286 180.532482,500.931497 C180.532482,502.043753 180.789949,502.90884 181.304882,503.52676 C181.819815,504.14468 182.530422,504.45364 183.436704,504.45364 Z M183.560288,504.206472 C183.23897,504.206472 182.965026,503.955184 182.738455,503.45261 C182.511885,502.950035 182.398599,502.134381 182.398599,501.005648 C182.398599,500.791436 182.406838,500.503073 182.423316,500.14056 C182.5469,499.827481 182.719918,499.592671 182.942369,499.436132 C183.16482,499.279592 183.383151,499.201322 183.597364,499.201322 C183.910443,499.201322 184.16379,499.394937 184.357405,499.782167 C184.55102,500.169396 184.647827,500.783197 184.647827,501.623567 C184.647827,502.496894 184.54484,503.14571 184.338867,503.570014 C184.132894,503.994319 183.873368,504.206472 183.560288,504.206472 Z M189.479959,506.109664 C189.768321,506.109664 189.990772,506.023156 190.147312,505.850138 C190.303852,505.67712 190.382122,505.462908 190.382122,505.207502 C190.382122,505.034484 190.369763,504.840869 190.345046,504.626657 L190.345046,504.626657 L190.32033,504.206472 C190.32033,503.588552 190.39654,502.995349 190.54896,502.426863 C190.70138,501.858377 190.880577,501.351683 191.08655,500.906781 C191.292523,500.461878 191.560288,499.942826 191.889846,499.349623 C192.194686,498.789376 192.39654,498.393907 192.495407,498.163217 L192.495407,498.163217 L192.495407,497.903691 L188.776554,497.903325 C187.872125,497.9004 187.336253,497.879925 187.168939,497.841899 C187.201895,498.262084 187.218373,498.966513 187.218373,499.955184 L187.218373,499.955184 L187.477899,499.955184 C187.502616,499.798645 187.535572,499.6833 187.576766,499.609149 C187.617961,499.534999 187.694171,499.481446 187.805396,499.44849 C187.916622,499.415535 188.08346,499.399057 188.305911,499.399057 L188.305911,499.399057 L191.593244,499.399057 C191.46966,499.572074 191.350196,499.732733 191.234851,499.881034 C191.119506,500.029335 191.0124,500.173516 190.913532,500.313578 C190.419197,500.964453 190.017549,501.518521 189.708589,501.975782 C189.399629,502.433042 189.133924,502.927378 188.911473,503.458789 C188.689022,503.9902 188.577796,504.511312 188.577796,505.022126 C188.577796,505.351683 188.654006,505.615329 188.806426,505.813063 C188.958847,506.010797 189.183357,506.109664 189.479959,506.109664 Z M195.906323,504.45364 C196.483048,504.45364 197.002101,504.354772 197.463481,504.157038 C197.924861,503.959304 198.285314,503.6833 198.54484,503.329026 C198.804367,502.974752 198.93413,502.571044 198.93413,502.117903 C198.93413,501.722435 198.835263,501.353743 198.637528,501.011827 C198.439794,500.669911 198.211164,500.37331 197.951637,500.122023 C197.692111,499.870735 197.306941,499.52676 196.796128,499.090097 C197.356375,498.793495 197.77862,498.486595 198.062863,498.169396 C198.347106,497.852198 198.489228,497.491745 198.489228,497.088037 C198.489228,496.568985 198.262657,496.150859 197.809516,495.83366 C197.356375,495.516461 196.77553,495.357862 196.066982,495.357862 C195.589125,495.357862 195.152461,495.434072 194.756993,495.586492 C194.361524,495.738912 194.044325,495.967543 193.805396,496.272383 C193.566468,496.577223 193.447003,496.943856 193.447003,497.37228 C193.447003,497.866616 193.587065,498.309458 193.867188,498.700807 C194.147312,499.092157 194.542781,499.506163 195.053594,499.942826 C194.435675,500.214711 193.945458,500.548387 193.582945,500.943856 C193.220433,501.339324 193.039176,501.804824 193.039176,502.340354 C193.039176,502.785256 193.168939,503.168367 193.428465,503.489685 C193.687992,503.811003 194.036087,504.051992 194.47275,504.212651 C194.909413,504.37331 195.387271,504.45364 195.906323,504.45364 Z M196.598393,498.929438 C196.104058,498.501013 195.727127,498.109664 195.4676,497.75539 C195.208074,497.401116 195.078311,497.018006 195.078311,496.60606 C195.078311,496.29298 195.158641,496.043753 195.3193,495.858377 C195.479959,495.673001 195.696231,495.580313 195.968115,495.580313 C196.305911,495.580313 196.571617,495.722435 196.765232,496.006678 C196.958847,496.290921 197.055654,496.68433 197.055654,497.186904 C197.055654,497.491745 197.018579,497.802764 196.944428,498.119963 C196.870278,498.437162 196.754933,498.706987 196.598393,498.929438 Z M195.968115,504.231188 C195.47378,504.231188 195.117446,504.035514 194.899114,503.644165 C194.680783,503.252816 194.571617,502.744062 194.571617,502.117903 C194.571617,501.244577 194.794068,500.573104 195.23897,500.103485 C195.70035,500.490715 196.054624,500.803794 196.301792,501.042723 C196.54896,501.281652 196.763172,501.557656 196.944428,501.870735 C197.125685,502.183815 197.216313,502.52573 197.216313,502.896482 C197.216313,503.300189 197.105088,503.623567 196.882636,503.866616 C196.660185,504.109664 196.355345,504.231188 195.968115,504.231188 Z M200.923831,506.159098 C201.657096,506.051992 202.39448,505.804824 203.135984,505.417594 C203.877487,505.030365 204.503646,504.476297 205.014459,503.75539 C205.525273,503.034484 205.78068,502.159098 205.78068,501.129232 C205.78068,500.049932 205.523213,499.211621 205.00828,498.614299 C204.493347,498.016976 203.782739,497.718315 202.876457,497.718315 C202.31621,497.718315 201.801277,497.83366 201.331658,498.06435 C200.862039,498.29504 200.489228,498.630777 200.213223,499.071559 C199.937219,499.512342 199.799217,500.037574 199.799217,500.647254 C199.799217,501.191024 199.908383,501.664762 200.126715,502.06847 C200.345046,502.472177 200.637528,502.783197 201.004161,503.001528 C201.370793,503.21986 201.77656,503.329026 202.221462,503.329026 C202.542781,503.329026 202.843502,503.267234 203.123625,503.14365 C203.403749,503.020066 203.630319,502.830571 203.803337,502.575164 C203.679753,503.308428 203.47172,503.899572 203.179238,504.348593 C202.886756,504.797615 202.553079,505.133351 202.178208,505.355802 C201.803337,505.578253 201.368733,505.763629 200.874398,505.91193 L200.874398,505.91193 L200.923831,506.159098 Z M202.715798,502.970632 C202.402719,502.970632 202.149372,502.774958 201.955757,502.383609 C201.762142,501.99226 201.665335,501.380519 201.665335,500.548387 C201.665335,499.675061 201.768321,499.026245 201.974295,498.60194 C202.180268,498.177635 202.435675,497.965483 202.740515,497.965483 C203.061833,497.965483 203.337837,498.208531 203.568527,498.694628 C203.799217,499.180725 203.914562,499.971662 203.914562,501.06744 C203.914562,501.471147 203.898084,501.808943 203.865129,502.080828 C203.741545,502.385668 203.570587,502.610179 203.352255,502.75436 C203.133924,502.898542 202.921771,502.970632 202.715798,502.970632 Z M210.192626,504.45364 C210.876457,504.45364 211.484078,504.303279 212.015489,504.002558 C212.5469,503.701837 212.958847,503.287831 213.251329,502.76054 C213.543811,502.233248 213.690051,501.640045 213.690051,500.980931 C213.690051,500.338295 213.54793,499.769808 213.263687,499.275473 C212.979444,498.781137 212.581916,498.398027 212.071102,498.126142 C211.560288,497.854257 210.979444,497.718315 210.328568,497.718315 C209.636498,497.718315 209.026818,497.868676 208.499526,498.169396 C207.972235,498.470117 207.562348,498.884124 207.269866,499.411415 C206.977384,499.938706 206.831143,500.52779 206.831143,501.178665 C206.831143,501.829541 206.975324,502.402146 207.263687,502.896482 C207.552049,503.390818 207.951637,503.773928 208.462451,504.045813 C208.973265,504.317697 209.54999,504.45364 210.192626,504.45364 Z M210.303852,504.231188 C209.834233,504.231188 209.449063,503.977841 209.148342,503.471147 C208.847621,502.964453 208.697261,502.187934 208.697261,501.14159 C208.697261,500.482476 208.761112,499.91193 208.888816,499.429953 C209.016519,498.947975 209.195716,498.579283 209.426406,498.323876 C209.657096,498.06847 209.920742,497.940766 210.217343,497.940766 C210.686962,497.940766 211.072132,498.192054 211.372853,498.694628 C211.673574,499.197203 211.823934,499.971662 211.823934,501.018006 C211.823934,501.67712 211.758023,502.247666 211.6262,502.729644 C211.494377,503.211621 211.31518,503.582373 211.08861,503.841899 C210.862039,504.101425 210.600453,504.231188 210.303852,504.231188 Z" id="playfairdisplaybold1234567890"></path>
            </g>
        </g>
    </g>
</svg>