<?xml version="1.0" encoding="UTF-8"?>
<svg width="187px" height="13px" viewBox="0 0 187 13" version="1.1" xmlns="http://www.w3.org/2000/svg" xmlns:xlink="http://www.w3.org/1999/xlink">
    <title>solwayextrabold1234567890</title>
    <g id="页面-1" stroke="none" stroke-width="1" fill="none" fill-rule="evenodd">
        <g id="弃-增加英文字体分类" transform="translate(-748.000000, -97.000000)" fill="#FFFFFF" fill-rule="nonzero">
            <g id="编组-4" transform="translate(720.000000, 10.000000)">
                <path d="M31.0514286,96.3036735 C31.557551,96.3036735 32.0106122,96.22 32.4106122,96.0526531 C32.8106122,95.8853061 33.1228571,95.6485714 33.3473469,95.342449 C33.5718367,95.0363265 33.6840816,94.6914286 33.6840816,94.3077551 C33.6840816,93.9567347 33.6146939,93.6608163 33.4759184,93.42 C33.3371429,93.1791837 33.1126531,92.9710204 32.802449,92.7955102 C32.4922449,92.62 32.0636735,92.4546939 31.5167347,92.2995918 C31.124898,92.1853061 30.8616327,92.0832653 30.7269388,91.9934694 C30.5922449,91.9036735 30.524898,91.7853061 30.524898,91.6383673 C30.524898,91.4832653 30.5820408,91.3608163 30.6963265,91.2710204 C30.8106122,91.1812245 30.9697959,91.1363265 31.1738776,91.1363265 C31.3371429,91.1363265 31.4718367,91.164898 31.5779592,91.2220408 C31.5942857,91.4995918 31.6983673,91.7302041 31.8902041,91.9138776 C32.0820408,92.097551 32.3167347,92.1893878 32.5942857,92.1893878 C32.8963265,92.1893878 33.1412245,92.1016327 33.3289796,91.9261224 C33.5167347,91.7506122 33.6106122,91.52 33.6106122,91.2342857 C33.6106122,90.842449 33.3922449,90.5281633 32.9555102,90.2914286 C32.5187755,90.0546939 31.9371429,89.9363265 31.2106122,89.9363265 C30.6963265,89.9363265 30.2391837,90.0159184 29.8391837,90.175102 C29.4391837,90.3342857 29.1289796,90.5628571 28.9085714,90.8608163 C28.6881633,91.1587755 28.5779592,91.4995918 28.5779592,91.8832653 C28.5779592,92.242449 28.6555102,92.5485714 28.8106122,92.8016327 C28.9657143,93.0546939 29.2167347,93.275102 29.5636735,93.4628571 C29.9106122,93.6506122 30.3820408,93.8302041 30.9779592,94.0016327 C31.2881633,94.0914286 31.4942857,94.1771429 31.5963265,94.2587755 C31.6983673,94.3404082 31.7493878,94.4628571 31.7493878,94.6261224 C31.7493878,94.7812245 31.6840816,94.8995918 31.5534694,94.9812245 C31.4228571,95.0628571 31.2391837,95.1036735 31.002449,95.1036735 C30.7902041,95.1036735 30.6269388,95.075102 30.5126531,95.0179592 C30.5126531,94.7322449 30.4146939,94.4934694 30.2187755,94.3016327 C30.0228571,94.1097959 29.7820408,94.0138776 29.4963265,94.0138776 C29.1942857,94.0138776 28.9493878,94.1016327 28.7616327,94.2771429 C28.5738776,94.4526531 28.48,94.6791837 28.48,94.9567347 C28.48,95.364898 28.7106122,95.6914286 29.1718367,95.9363265 C29.6330612,96.1812245 30.2595918,96.3036735 31.0514286,96.3036735 Z M37.7371429,96.3036735 C38.724898,96.3036735 39.5004082,96.0138776 40.0636735,95.4342857 C40.6269388,94.8546939 40.9085714,94.0546939 40.9085714,93.0342857 C40.9085714,92.0546939 40.6432653,91.2934694 40.1126531,90.7506122 C39.5820408,90.2077551 38.8310204,89.9363265 37.8595918,89.9363265 C36.8636735,89.9363265 36.0840816,90.2240816 35.5208163,90.7995918 C34.957551,91.375102 34.6759184,92.1730612 34.6759184,93.1934694 C34.6759184,94.1812245 34.9432653,94.9465306 35.4779592,95.4893878 C36.0126531,96.0322449 36.7657143,96.3036735 37.7371429,96.3036735 Z M37.7493878,94.7118367 C37.3902041,94.7118367 37.1167347,94.5812245 36.9289796,94.32 C36.7412245,94.0587755 36.6473469,93.675102 36.6473469,93.1689796 C36.6473469,92.6302041 36.7493878,92.2220408 36.9534694,91.9444898 C37.157551,91.6669388 37.4514286,91.5281633 37.835102,91.5281633 C38.2106122,91.5281633 38.4881633,91.6526531 38.6677551,91.9016327 C38.8473469,92.1506122 38.9371429,92.5363265 38.9371429,93.0587755 C38.9371429,93.6302041 38.8412245,94.0485714 38.6493878,94.3138776 C38.457551,94.5791837 38.157551,94.7118367 37.7493878,94.7118367 Z M44.5942857,96.1812245 C44.7657143,96.1812245 44.9044898,96.1383673 45.0106122,96.0526531 C45.1167347,95.9669388 45.1697959,95.8302041 45.1697959,95.642449 L45.1697959,95.642449 L45.1697959,95.1036735 C45.1697959,94.9159184 45.1167347,94.7771429 45.0106122,94.6873469 C44.9044898,94.597551 44.7657143,94.5526531 44.5942857,94.5526531 L44.5942857,94.5526531 L44.4106122,94.5526531 L44.4106122,87.7322449 C44.4106122,87.5526531 44.3514286,87.4057143 44.2330612,87.2914286 C44.1146939,87.1771429 43.9697959,87.12 43.7983673,87.12 L43.7983673,87.12 L42.2922449,87.12 C42.1126531,87.12 41.9697959,87.1628571 41.8636735,87.2485714 C41.757551,87.3342857 41.7044898,87.4710204 41.7044898,87.6587755 L41.7044898,87.6587755 L41.7044898,88.197551 C41.7044898,88.3853061 41.757551,88.5240816 41.8636735,88.6138776 C41.9697959,88.7036735 42.1126531,88.7485714 42.2922449,88.7485714 L42.2922449,88.7485714 L42.4759184,88.7485714 L42.4759184,94.5526531 L42.2922449,94.5526531 C42.1126531,94.5526531 41.9697959,94.597551 41.8636735,94.6873469 C41.757551,94.7771429 41.7044898,94.9159184 41.7044898,95.1036735 L41.7044898,95.1036735 L41.7044898,95.642449 C41.7044898,95.8302041 41.757551,95.9669388 41.8636735,96.0526531 C41.9697959,96.1383673 42.1126531,96.1812245 42.2922449,96.1812245 L42.2922449,96.1812245 L44.5942857,96.1812245 Z M49.1493878,96.1812245 C49.2718367,96.1812245 49.3820408,96.1444898 49.48,96.0710204 C49.5779592,95.997551 49.6473469,95.8995918 49.6881633,95.7771429 L49.6881633,95.7771429 L50.6922449,93.0097959 L51.6963265,95.7771429 C51.7371429,95.8995918 51.8065306,95.997551 51.9044898,96.0710204 C52.002449,96.1444898 52.1126531,96.1812245 52.235102,96.1812245 L52.235102,96.1812245 L52.9820408,96.1812245 C53.1044898,96.1812245 53.2126531,96.142449 53.3065306,96.064898 C53.4004082,95.9873469 53.4677551,95.8914286 53.5085714,95.7771429 L53.5085714,95.7771429 L54.9044898,91.6873469 L55.0881633,91.6873469 C55.2595918,91.6873469 55.3983673,91.642449 55.5044898,91.5526531 C55.6106122,91.4628571 55.6636735,91.3240816 55.6636735,91.1363265 L55.6636735,91.1363265 L55.6636735,90.597551 C55.6636735,90.4097959 55.6106122,90.2730612 55.5044898,90.1873469 C55.3983673,90.1016327 55.2595918,90.0587755 55.0881633,90.0587755 L55.0881633,90.0587755 L53.0922449,90.0587755 C52.9126531,90.0587755 52.7697959,90.1016327 52.6636735,90.1873469 C52.557551,90.2730612 52.5044898,90.4097959 52.5044898,90.597551 L52.5044898,90.597551 L52.5044898,91.1363265 C52.5044898,91.3240816 52.557551,91.4628571 52.6636735,91.5526531 C52.7697959,91.642449 52.9126531,91.6873469 53.0922449,91.6873469 L53.0922449,91.6873469 L53.2759184,91.6873469 L52.5657143,93.842449 L51.7085714,91.5036735 C51.6677551,91.3893878 51.6004082,91.2934694 51.5065306,91.2159184 C51.4126531,91.1383673 51.3044898,91.0995918 51.1820408,91.0995918 L51.1820408,91.0995918 L50.5820408,91.0995918 C50.4514286,91.0995918 50.3391837,91.1363265 50.2453061,91.2097959 C50.1514286,91.2832653 50.0840816,91.3812245 50.0432653,91.5036735 L50.0432653,91.5036735 L49.1861224,93.8669388 L48.4759184,91.6873469 L48.6595918,91.6873469 C48.8310204,91.6873469 48.9697959,91.642449 49.0759184,91.5526531 C49.1820408,91.4628571 49.235102,91.3240816 49.235102,91.1363265 L49.235102,91.1363265 L49.235102,90.597551 C49.235102,90.4097959 49.1820408,90.2730612 49.0759184,90.1873469 C48.9697959,90.1016327 48.8310204,90.0587755 48.6595918,90.0587755 L48.6595918,90.0587755 L46.2963265,90.0587755 C46.124898,90.0587755 45.9840816,90.1016327 45.8738776,90.1873469 C45.7636735,90.2730612 45.7085714,90.4097959 45.7085714,90.597551 L45.7085714,90.597551 L45.7085714,91.1363265 C45.7085714,91.3240816 45.7636735,91.4628571 45.8738776,91.5526531 C45.9840816,91.642449 46.124898,91.6873469 46.2963265,91.6873469 L46.2963265,91.6873469 L46.48,91.6873469 L47.8636735,95.7771429 C47.9044898,95.8995918 47.9738776,95.997551 48.0718367,96.0710204 C48.1697959,96.1444898 48.28,96.1812245 48.402449,96.1812245 L48.402449,96.1812245 L49.1493878,96.1812245 Z M58.2106122,96.3036735 C58.5616327,96.3036735 58.8963265,96.1873469 59.2146939,95.9546939 C59.5330612,95.7220408 59.7738776,95.4179592 59.9371429,95.042449 L59.9371429,95.042449 L59.9371429,95.5689796 C59.9371429,95.7485714 59.9942857,95.8955102 60.1085714,96.0097959 C60.2228571,96.1240816 60.3657143,96.1812245 60.5371429,96.1812245 L60.5371429,96.1812245 L62.0555102,96.1812245 C62.2269388,96.1812245 62.3677551,96.1383673 62.4779592,96.0526531 C62.5881633,95.9669388 62.6432653,95.8302041 62.6432653,95.642449 L62.6432653,95.642449 L62.6432653,95.1036735 C62.6432653,94.9159184 62.5881633,94.7771429 62.4779592,94.6873469 C62.3677551,94.597551 62.2269388,94.5526531 62.0555102,94.5526531 L62.0555102,94.5526531 L61.8718367,94.5526531 L61.8718367,92.6302041 C61.8718367,91.7730612 61.6310204,91.1097959 61.1493878,90.6404082 C60.6677551,90.1710204 59.9534694,89.9363265 59.0065306,89.9363265 C58.2963265,89.9363265 57.7208163,90.0628571 57.28,90.3159184 C56.8391837,90.5689796 56.6187755,90.9159184 56.6187755,91.3567347 C56.6187755,91.6342857 56.7126531,91.8608163 56.9004082,92.0363265 C57.0881633,92.2118367 57.3330612,92.2995918 57.635102,92.2995918 C57.8881633,92.2995918 58.1065306,92.2240816 58.2902041,92.0730612 C58.4738776,91.9220408 58.5861224,91.7281633 58.6269388,91.4914286 C58.7412245,91.4342857 58.8759184,91.4057143 59.0310204,91.4057143 C59.3085714,91.4057143 59.5289796,91.4873469 59.6922449,91.6506122 C59.8555102,91.8138776 59.9371429,92.0383673 59.9371429,92.3240816 L59.9371429,92.3240816 L59.9371429,92.7404082 C59.5208163,92.675102 59.1493878,92.642449 58.8228571,92.642449 C57.9738776,92.642449 57.3493878,92.7893878 56.9493878,93.0832653 C56.5493878,93.3771429 56.3493878,93.842449 56.3493878,94.4791837 C56.3493878,95.0261224 56.5208163,95.4669388 56.8636735,95.8016327 C57.2065306,96.1363265 57.6555102,96.3036735 58.2106122,96.3036735 Z M58.835102,94.92 C58.68,94.92 58.5493878,94.8669388 58.4432653,94.7608163 C58.3371429,94.6546939 58.2840816,94.52 58.2840816,94.3567347 C58.2840816,94.0955102 58.3473469,93.9097959 58.4738776,93.7995918 C58.6004082,93.6893878 58.8146939,93.6342857 59.1167347,93.6342857 C59.3616327,93.6342857 59.6310204,93.6506122 59.924898,93.6832653 C59.8922449,94.0261224 59.7718367,94.3179592 59.5636735,94.5587755 C59.3555102,94.7995918 59.1126531,94.92 58.835102,94.92 Z M64.6514286,99.12 C65.0106122,99.12 65.324898,99.042449 65.5942857,98.8873469 C65.8636735,98.7322449 66.1269388,98.4730612 66.3840816,98.1097959 C66.6412245,97.7465306 66.9167347,97.2383673 67.2106122,96.5853061 L67.2106122,96.5853061 L69.4636735,91.6873469 L69.6473469,91.6873469 C69.8269388,91.6873469 69.9697959,91.642449 70.0759184,91.5526531 C70.1820408,91.4628571 70.235102,91.3240816 70.235102,91.1363265 L70.235102,91.1363265 L70.235102,90.597551 C70.235102,90.4097959 70.1820408,90.2730612 70.0759184,90.1873469 C69.9697959,90.1016327 69.8269388,90.0587755 69.6473469,90.0587755 L69.6473469,90.0587755 L67.7616327,90.0587755 C67.5820408,90.0587755 67.4391837,90.1016327 67.3330612,90.1873469 C67.2269388,90.2730612 67.1738776,90.4097959 67.1738776,90.597551 L67.1738776,90.597551 L67.1738776,91.1363265 C67.1738776,91.4873469 67.3616327,91.6710204 67.7371429,91.6873469 L67.7371429,91.6873469 L66.8432653,93.7812245 L65.9371429,91.675102 C66.2228571,91.6342857 66.3657143,91.4546939 66.3657143,91.1363265 L66.3657143,91.1363265 L66.3657143,90.597551 C66.3657143,90.4097959 66.3126531,90.2730612 66.2065306,90.1873469 C66.1004082,90.1016327 65.9616327,90.0587755 65.7902041,90.0587755 L65.7902041,90.0587755 L63.7085714,90.0587755 C63.5289796,90.0587755 63.3861224,90.1016327 63.28,90.1873469 C63.1738776,90.2730612 63.1208163,90.4097959 63.1208163,90.597551 L63.1208163,90.597551 L63.1208163,91.1363265 C63.1208163,91.3240816 63.1738776,91.4628571 63.28,91.5526531 C63.3861224,91.642449 63.5289796,91.6873469 63.7085714,91.6873469 L63.7085714,91.6873469 L63.8922449,91.6873469 L65.8391837,95.8995918 L65.5453061,96.5363265 C65.3412245,96.9689796 65.1779592,97.2669388 65.0555102,97.4302041 C64.9657143,97.2995918 64.8473469,97.1955102 64.7004082,97.1179592 C64.5534694,97.0404082 64.3902041,97.0016327 64.2106122,97.0016327 C63.9167347,97.0016327 63.6759184,97.0893878 63.4881633,97.264898 C63.3004082,97.4404082 63.2065306,97.6669388 63.2065306,97.9444898 C63.2065306,98.2873469 63.3432653,98.5689796 63.6167347,98.7893878 C63.8902041,99.0097959 64.235102,99.12 64.6514286,99.12 Z M77.5820408,96.3036735 C78.08,96.3036735 78.5085714,96.2138776 78.8677551,96.0342857 C79.2269388,95.8546939 79.5085714,95.6261224 79.7126531,95.3485714 C79.8595918,95.1608163 79.9330612,94.9485714 79.9330612,94.7118367 C79.9330612,94.4995918 79.8616327,94.3383673 79.7187755,94.2281633 C79.5759184,94.1179592 79.402449,94.0628571 79.1983673,94.0628571 C79.0106122,94.0628571 78.8228571,94.1485714 78.635102,94.32 C78.48,94.4587755 78.3371429,94.5587755 78.2065306,94.62 C78.0759184,94.6812245 77.9004082,94.7118367 77.68,94.7118367 C77.3289796,94.7118367 77.0432653,94.6077551 76.8228571,94.3995918 C76.602449,94.1914286 76.4595918,93.9036735 76.3942857,93.5363265 L76.3942857,93.5363265 L80.1412245,93.5363265 C80.1738776,93.3240816 80.1902041,93.0832653 80.1902041,92.8138776 C80.1902041,92.1853061 80.0657143,91.6546939 79.8167347,91.2220408 C79.5677551,90.7893878 79.235102,90.4669388 78.8187755,90.2546939 C78.402449,90.042449 77.9453061,89.9363265 77.4473469,89.9363265 C76.8432653,89.9363265 76.3106122,90.0628571 75.8493878,90.3159184 C75.3881633,90.5689796 75.0289796,90.9322449 74.7718367,91.4057143 C74.5146939,91.8791837 74.3861224,92.442449 74.3861224,93.0955102 C74.3861224,93.7322449 74.5126531,94.2934694 74.7657143,94.7791837 C75.0187755,95.264898 75.3861224,95.6404082 75.8677551,95.9057143 C76.3493878,96.1710204 76.9208163,96.3036735 77.5820408,96.3036735 Z M78.2065306,92.3730612 L76.4065306,92.3730612 C76.5289796,91.7118367 76.8555102,91.3812245 77.3861224,91.3812245 C77.6391837,91.3812245 77.8412245,91.4485714 77.9922449,91.5832653 C78.1432653,91.7179592 78.2187755,91.9118367 78.2187755,92.164898 C78.2187755,92.2546939 78.2146939,92.3240816 78.2065306,92.3730612 L78.2065306,92.3730612 Z M83.3861224,96.1812245 C83.557551,96.1812245 83.6983673,96.1383673 83.8085714,96.0526531 C83.9187755,95.9669388 83.9738776,95.8302041 83.9738776,95.642449 L83.9738776,95.642449 L83.9738776,95.1036735 C83.9738776,94.842449 83.8636735,94.6710204 83.6432653,94.5893878 L83.6432653,94.5893878 L84.3657143,93.7322449 L84.7697959,94.1730612 C84.8922449,94.3036735 85.0432653,94.3995918 85.2228571,94.4608163 C85.402449,94.5220408 85.5697959,94.5526531 85.724898,94.5526531 L85.724898,94.5526531 L85.0514286,94.5526531 C84.88,94.5526531 84.7412245,94.597551 84.635102,94.6873469 C84.5289796,94.7771429 84.4759184,94.9159184 84.4759184,95.1036735 L84.4759184,95.1036735 L84.4759184,95.642449 C84.4759184,95.8302041 84.5289796,95.9669388 84.635102,96.0526531 C84.7412245,96.1383673 84.88,96.1812245 85.0514286,96.1812245 L85.0514286,96.1812245 L87.6473469,96.1812245 C87.8187755,96.1812245 87.957551,96.1383673 88.0636735,96.0526531 C88.1697959,95.9669388 88.2228571,95.8302041 88.2228571,95.642449 L88.2228571,95.642449 L88.2228571,95.1036735 C88.2228571,94.9159184 88.1697959,94.7771429 88.0636735,94.6873469 C87.957551,94.597551 87.8187755,94.5526531 87.6473469,94.5526531 L87.6473469,94.5526531 L87.3289796,94.5526531 L85.957551,93.0955102 L87.1208163,91.6873469 L87.5983673,91.6873469 C87.7697959,91.6873469 87.9085714,91.642449 88.0146939,91.5526531 C88.1208163,91.4628571 88.1738776,91.3240816 88.1738776,91.1363265 L88.1738776,91.1363265 L88.1738776,90.597551 C88.1738776,90.4097959 88.1208163,90.2730612 88.0146939,90.1873469 C87.9085714,90.1016327 87.7697959,90.0587755 87.5983673,90.0587755 L87.5983673,90.0587755 L85.8473469,90.0587755 C85.6677551,90.0587755 85.524898,90.1016327 85.4187755,90.1873469 C85.3126531,90.2730612 85.2595918,90.4097959 85.2595918,90.597551 L85.2595918,90.597551 L85.2595918,91.1363265 C85.2595918,91.4138776 85.3779592,91.5893878 85.6146939,91.6628571 L85.6146939,91.6628571 L84.9902041,92.4097959 L84.6718367,92.0669388 C84.5493878,91.9363265 84.3983673,91.8404082 84.2187755,91.7791837 C84.0391837,91.7179592 83.8718367,91.6873469 83.7167347,91.6873469 L83.7167347,91.6873469 L84.2187755,91.6873469 C84.3902041,91.6873469 84.5289796,91.642449 84.635102,91.5526531 C84.7412245,91.4628571 84.7942857,91.3240816 84.7942857,91.1363265 L84.7942857,91.1363265 L84.7942857,90.597551 C84.7942857,90.4097959 84.7412245,90.2730612 84.635102,90.1873469 C84.5289796,90.1016327 84.3902041,90.0587755 84.2187755,90.0587755 L84.2187755,90.0587755 L81.7942857,90.0587755 C81.6146939,90.0587755 81.4718367,90.1016327 81.3657143,90.1873469 C81.2595918,90.2730612 81.2065306,90.4097959 81.2065306,90.597551 L81.2065306,90.597551 L81.2065306,91.1363265 C81.2065306,91.3240816 81.2595918,91.4628571 81.3657143,91.5526531 C81.4718367,91.642449 81.6146939,91.6873469 81.7942857,91.6873469 L81.7942857,91.6873469 L82.1126531,91.6873469 L83.3493878,93.0097959 L82.0759184,94.5526531 L81.7208163,94.5526531 C81.5412245,94.5526531 81.3983673,94.597551 81.2922449,94.6873469 C81.1861224,94.7771429 81.1330612,94.9159184 81.1330612,95.1036735 L81.1330612,95.1036735 L81.1330612,95.642449 C81.1330612,95.8302041 81.1861224,95.9669388 81.2922449,96.0526531 C81.3983673,96.1383673 81.5412245,96.1812245 81.7208163,96.1812245 L81.7208163,96.1812245 L83.3861224,96.1812245 Z M92.3371429,96.3036735 C93.0881633,96.3036735 93.7004082,95.9771429 94.1738776,95.3240816 C94.3126531,95.1363265 94.3820408,94.9281633 94.3820408,94.6995918 C94.3820408,94.5036735 94.3044898,94.3383673 94.1493878,94.2036735 C93.9942857,94.0689796 93.8106122,94.0016327 93.5983673,94.0016327 C93.4759184,94.0016327 93.3759184,94.0261224 93.2983673,94.075102 C93.2208163,94.1240816 93.1412245,94.2016327 93.0595918,94.3077551 C92.9616327,94.4546939 92.8677551,94.5587755 92.7779592,94.62 C92.6881633,94.6812245 92.5738776,94.7118367 92.435102,94.7118367 C92.2555102,94.7118367 92.1146939,94.642449 92.0126531,94.5036735 C91.9106122,94.364898 91.8595918,94.1771429 91.8595918,93.9404082 L91.8595918,93.9404082 L91.8595918,91.6506122 L93.0963265,91.6506122 C93.2759184,91.6506122 93.4228571,91.5934694 93.5371429,91.4791837 C93.6514286,91.364898 93.7085714,91.2179592 93.7085714,91.0383673 L93.7085714,91.0383673 L93.7085714,90.6587755 C93.7085714,90.4873469 93.6514286,90.3444898 93.5371429,90.2302041 C93.4228571,90.1159184 93.2759184,90.0587755 93.0963265,90.0587755 L93.0963265,90.0587755 L91.8595918,90.0587755 L91.8595918,88.9812245 C91.8595918,88.8016327 91.802449,88.6546939 91.6881633,88.5404082 C91.5738776,88.4261224 91.4310204,88.3689796 91.2595918,88.3689796 L91.2595918,88.3689796 L90.5371429,88.3689796 C90.357551,88.3689796 90.2106122,88.4261224 90.0963265,88.5404082 C89.9820408,88.6546939 89.924898,88.8016327 89.924898,88.9812245 L89.924898,88.9812245 L89.924898,90.0587755 L89.4963265,90.0587755 C89.324898,90.0587755 89.1820408,90.1159184 89.0677551,90.2302041 C88.9534694,90.3444898 88.8963265,90.4873469 88.8963265,90.6587755 L88.8963265,90.6587755 L88.8963265,91.0383673 C88.8963265,91.2179592 88.9534694,91.364898 89.0677551,91.4791837 C89.1820408,91.5934694 89.324898,91.6506122 89.4963265,91.6506122 L89.4963265,91.6506122 L89.924898,91.6506122 L89.924898,93.6342857 C89.924898,95.4138776 90.7289796,96.3036735 92.3371429,96.3036735 Z M98.2514286,96.1812245 C98.4228571,96.1812245 98.5616327,96.1383673 98.6677551,96.0526531 C98.7738776,95.9669388 98.8269388,95.8302041 98.8269388,95.642449 L98.8269388,95.642449 L98.8269388,95.1036735 C98.8269388,94.9159184 98.7738776,94.7771429 98.6677551,94.6873469 C98.5616327,94.597551 98.4228571,94.5526531 98.2514286,94.5526531 L98.2514286,94.5526531 L97.8473469,94.5526531 L97.8473469,92.9608163 C97.8473469,92.6587755 97.9228571,92.3791837 98.0738776,92.1220408 C98.224898,91.864898 98.4187755,91.6914286 98.6555102,91.6016327 C98.7208163,91.8465306 98.8453061,92.042449 99.0289796,92.1893878 C99.2126531,92.3363265 99.4310204,92.4097959 99.6840816,92.4097959 C100.043265,92.4097959 100.33102,92.297551 100.547347,92.0730612 C100.763673,91.8485714 100.871837,91.5608163 100.871837,91.2097959 C100.871837,90.8261224 100.761633,90.5179592 100.541224,90.2853061 C100.320816,90.0526531 100.002449,89.9363265 99.5861224,89.9363265 C99.2106122,89.9363265 98.8616327,90.0710204 98.5391837,90.3404082 C98.2167347,90.6097959 97.9861224,90.9689796 97.8473469,91.4179592 L97.8473469,91.4179592 L97.8473469,90.6710204 C97.8473469,90.4914286 97.7902041,90.3444898 97.6759184,90.2302041 C97.5616327,90.1159184 97.4187755,90.0587755 97.2473469,90.0587755 L97.2473469,90.0587755 L95.7289796,90.0587755 C95.557551,90.0587755 95.4187755,90.1016327 95.3126531,90.1873469 C95.2065306,90.2730612 95.1534694,90.4097959 95.1534694,90.597551 L95.1534694,90.597551 L95.1534694,91.1363265 C95.1534694,91.3240816 95.2065306,91.4628571 95.3126531,91.5526531 C95.4187755,91.642449 95.557551,91.6873469 95.7289796,91.6873469 L95.7289796,91.6873469 L95.9126531,91.6873469 L95.9126531,94.5526531 L95.7289796,94.5526531 C95.557551,94.5526531 95.4187755,94.597551 95.3126531,94.6873469 C95.2065306,94.7771429 95.1534694,94.9159184 95.1534694,95.1036735 L95.1534694,95.1036735 L95.1534694,95.642449 C95.1534694,95.8302041 95.2065306,95.9669388 95.3126531,96.0526531 C95.4187755,96.1383673 95.557551,96.1812245 95.7289796,96.1812245 L95.7289796,96.1812245 L98.2514286,96.1812245 Z M103.443265,96.3036735 C103.794286,96.3036735 104.12898,96.1873469 104.447347,95.9546939 C104.765714,95.7220408 105.006531,95.4179592 105.169796,95.042449 L105.169796,95.042449 L105.169796,95.5689796 C105.169796,95.7485714 105.226939,95.8955102 105.341224,96.0097959 C105.45551,96.1240816 105.598367,96.1812245 105.769796,96.1812245 L105.769796,96.1812245 L107.288163,96.1812245 C107.459592,96.1812245 107.600408,96.1383673 107.710612,96.0526531 C107.820816,95.9669388 107.875918,95.8302041 107.875918,95.642449 L107.875918,95.642449 L107.875918,95.1036735 C107.875918,94.9159184 107.820816,94.7771429 107.710612,94.6873469 C107.600408,94.597551 107.459592,94.5526531 107.288163,94.5526531 L107.288163,94.5526531 L107.10449,94.5526531 L107.10449,92.6302041 C107.10449,91.7730612 106.863673,91.1097959 106.382041,90.6404082 C105.900408,90.1710204 105.186122,89.9363265 104.239184,89.9363265 C103.52898,89.9363265 102.953469,90.0628571 102.512653,90.3159184 C102.071837,90.5689796 101.851429,90.9159184 101.851429,91.3567347 C101.851429,91.6342857 101.945306,91.8608163 102.133061,92.0363265 C102.320816,92.2118367 102.565714,92.2995918 102.867755,92.2995918 C103.120816,92.2995918 103.339184,92.2240816 103.522857,92.0730612 C103.706531,91.9220408 103.818776,91.7281633 103.859592,91.4914286 C103.973878,91.4342857 104.108571,91.4057143 104.263673,91.4057143 C104.541224,91.4057143 104.761633,91.4873469 104.924898,91.6506122 C105.088163,91.8138776 105.169796,92.0383673 105.169796,92.3240816 L105.169796,92.3240816 L105.169796,92.7404082 C104.753469,92.675102 104.382041,92.642449 104.05551,92.642449 C103.206531,92.642449 102.582041,92.7893878 102.182041,93.0832653 C101.782041,93.3771429 101.582041,93.842449 101.582041,94.4791837 C101.582041,95.0261224 101.753469,95.4669388 102.096327,95.8016327 C102.439184,96.1363265 102.888163,96.3036735 103.443265,96.3036735 Z M104.067755,94.92 C103.912653,94.92 103.782041,94.8669388 103.675918,94.7608163 C103.569796,94.6546939 103.516735,94.52 103.516735,94.3567347 C103.516735,94.0955102 103.58,93.9097959 103.706531,93.7995918 C103.833061,93.6893878 104.047347,93.6342857 104.349388,93.6342857 C104.594286,93.6342857 104.863673,93.6506122 105.157551,93.6832653 C105.124898,94.0261224 105.00449,94.3179592 104.796327,94.5587755 C104.588163,94.7995918 104.345306,94.92 104.067755,94.92 Z M112.43102,96.3036735 C113.30449,96.3036735 113.982041,96.0138776 114.463673,95.4342857 C114.945306,94.8546939 115.186122,94.0342857 115.186122,92.9730612 C115.186122,92.0342857 114.973878,91.2934694 114.549388,90.7506122 C114.124898,90.2077551 113.549388,89.9363265 112.822857,89.9363265 C112.406531,89.9363265 112.02898,90.0485714 111.690204,90.2730612 C111.351429,90.497551 111.10449,90.7934694 110.949388,91.1608163 L110.949388,91.1608163 L110.949388,87.7322449 C110.949388,87.5526531 110.892245,87.4057143 110.777959,87.2914286 C110.663673,87.1771429 110.520816,87.12 110.349388,87.12 L110.349388,87.12 L108.83102,87.12 C108.659592,87.12 108.520816,87.1628571 108.414694,87.2485714 C108.308571,87.3342857 108.25551,87.4710204 108.25551,87.6587755 L108.25551,87.6587755 L108.25551,88.197551 C108.25551,88.3853061 108.308571,88.5240816 108.414694,88.6138776 C108.520816,88.7036735 108.659592,88.7485714 108.83102,88.7485714 L108.83102,88.7485714 L109.014694,88.7485714 L109.014694,95.642449 C109.014694,95.8220408 109.073878,95.9689796 109.192245,96.0832653 C109.310612,96.197551 109.45551,96.2546939 109.626939,96.2546939 L109.626939,96.2546939 L109.871837,96.2546939 C110.116735,96.2546939 110.292245,96.12 110.398367,95.8506122 L110.398367,95.8506122 L110.618776,95.2383673 C111.059592,95.9485714 111.663673,96.3036735 112.43102,96.3036735 Z M112.112653,94.7118367 C111.892245,94.7118367 111.68,94.6710204 111.475918,94.5893878 C111.271837,94.5077551 111.096327,94.3934694 110.949388,94.2465306 L110.949388,94.2465306 L110.949388,93.1812245 C110.949388,92.7159184 111.067755,92.3240816 111.30449,92.0057143 C111.541224,91.6873469 111.835102,91.5281633 112.186122,91.5281633 C112.512653,91.5281633 112.765714,91.6608163 112.945306,91.9261224 C113.124898,92.1914286 113.214694,92.5608163 113.214694,93.0342857 C113.214694,93.564898 113.118776,93.9771429 112.926939,94.2710204 C112.735102,94.564898 112.463673,94.7118367 112.112653,94.7118367 Z M119.239184,96.3036735 C120.226939,96.3036735 121.002449,96.0138776 121.565714,95.4342857 C122.12898,94.8546939 122.410612,94.0546939 122.410612,93.0342857 C122.410612,92.0546939 122.145306,91.2934694 121.614694,90.7506122 C121.084082,90.2077551 120.333061,89.9363265 119.361633,89.9363265 C118.365714,89.9363265 117.586122,90.2240816 117.022857,90.7995918 C116.459592,91.375102 116.177959,92.1730612 116.177959,93.1934694 C116.177959,94.1812245 116.445306,94.9465306 116.98,95.4893878 C117.514694,96.0322449 118.267755,96.3036735 119.239184,96.3036735 Z M119.251429,94.7118367 C118.892245,94.7118367 118.618776,94.5812245 118.43102,94.32 C118.243265,94.0587755 118.149388,93.675102 118.149388,93.1689796 C118.149388,92.6302041 118.251429,92.2220408 118.45551,91.9444898 C118.659592,91.6669388 118.953469,91.5281633 119.337143,91.5281633 C119.712653,91.5281633 119.990204,91.6526531 120.169796,91.9016327 C120.349388,92.1506122 120.439184,92.5363265 120.439184,93.0587755 C120.439184,93.6302041 120.343265,94.0485714 120.151429,94.3138776 C119.959592,94.5791837 119.659592,94.7118367 119.251429,94.7118367 Z M126.096327,96.1812245 C126.267755,96.1812245 126.406531,96.1383673 126.512653,96.0526531 C126.618776,95.9669388 126.671837,95.8302041 126.671837,95.642449 L126.671837,95.642449 L126.671837,95.1036735 C126.671837,94.9159184 126.618776,94.7771429 126.512653,94.6873469 C126.406531,94.597551 126.267755,94.5526531 126.096327,94.5526531 L126.096327,94.5526531 L125.912653,94.5526531 L125.912653,87.7322449 C125.912653,87.5526531 125.853469,87.4057143 125.735102,87.2914286 C125.616735,87.1771429 125.471837,87.12 125.300408,87.12 L125.300408,87.12 L123.794286,87.12 C123.614694,87.12 123.471837,87.1628571 123.365714,87.2485714 C123.259592,87.3342857 123.206531,87.4710204 123.206531,87.6587755 L123.206531,87.6587755 L123.206531,88.197551 C123.206531,88.3853061 123.259592,88.5240816 123.365714,88.6138776 C123.471837,88.7036735 123.614694,88.7485714 123.794286,88.7485714 L123.794286,88.7485714 L123.977959,88.7485714 L123.977959,94.5526531 L123.794286,94.5526531 C123.614694,94.5526531 123.471837,94.597551 123.365714,94.6873469 C123.259592,94.7771429 123.206531,94.9159184 123.206531,95.1036735 L123.206531,95.1036735 L123.206531,95.642449 C123.206531,95.8302041 123.259592,95.9669388 123.365714,96.0526531 C123.471837,96.1383673 123.614694,96.1812245 123.794286,96.1812245 L123.794286,96.1812245 L126.096327,96.1812245 Z M129.892245,96.3036735 C130.300408,96.3036735 130.673878,96.1914286 131.012653,95.9669388 C131.351429,95.742449 131.598367,95.4465306 131.753469,95.0791837 L131.753469,95.0791837 L131.753469,95.5689796 C131.753469,95.7485714 131.810612,95.8955102 131.924898,96.0097959 C132.039184,96.1240816 132.186122,96.1812245 132.365714,96.1812245 L132.365714,96.1812245 L133.871837,96.1812245 C134.051429,96.1812245 134.194286,96.1383673 134.300408,96.0526531 C134.406531,95.9669388 134.459592,95.8302041 134.459592,95.642449 L134.459592,95.642449 L134.459592,95.1036735 C134.459592,94.9159184 134.406531,94.7771429 134.300408,94.6873469 C134.194286,94.597551 134.051429,94.5526531 133.871837,94.5526531 L133.871837,94.5526531 L133.688163,94.5526531 L133.688163,87.7322449 C133.688163,87.5526531 133.63102,87.4057143 133.516735,87.2914286 C133.402449,87.1771429 133.259592,87.12 133.088163,87.12 L133.088163,87.12 L131.569796,87.12 C131.390204,87.12 131.247347,87.1628571 131.141224,87.2485714 C131.035102,87.3342857 130.982041,87.4710204 130.982041,87.6587755 L130.982041,87.6587755 L130.982041,88.197551 C130.982041,88.3853061 131.035102,88.5240816 131.141224,88.6138776 C131.247347,88.7036735 131.390204,88.7485714 131.569796,88.7485714 L131.569796,88.7485714 L131.753469,88.7485714 L131.753469,90.5730612 C131.377959,90.1485714 130.888163,89.9363265 130.284082,89.9363265 C129.402449,89.9363265 128.720816,90.2261224 128.239184,90.8057143 C127.757551,91.3853061 127.516735,92.2057143 127.516735,93.2669388 C127.516735,94.2057143 127.73102,94.9465306 128.159592,95.4893878 C128.588163,96.0322449 129.165714,96.3036735 129.892245,96.3036735 Z M130.52898,94.7118367 C130.202449,94.7118367 129.947347,94.5812245 129.763673,94.32 C129.58,94.0587755 129.488163,93.6873469 129.488163,93.2057143 C129.488163,92.675102 129.586122,92.2628571 129.782041,91.9689796 C129.977959,91.675102 130.251429,91.5281633 130.602449,91.5281633 C130.822857,91.5281633 131.035102,91.5689796 131.239184,91.6506122 C131.443265,91.7322449 131.614694,91.8465306 131.753469,91.9934694 L131.753469,91.9934694 L131.753469,93.0587755 C131.753469,93.5240816 131.635102,93.9159184 131.398367,94.2342857 C131.161633,94.5526531 130.871837,94.7118367 130.52898,94.7118367 Z M145.786122,96.1812245 C145.957551,96.1812245 146.096327,96.1383673 146.202449,96.0526531 C146.308571,95.9669388 146.361633,95.8302041 146.361633,95.642449 L146.361633,95.642449 L146.361633,95.1036735 C146.361633,94.9159184 146.308571,94.7771429 146.202449,94.6873469 C146.096327,94.597551 145.957551,94.5526531 145.786122,94.5526531 L145.786122,94.5526531 L145.602449,94.5526531 L145.602449,88.2220408 C145.602449,88.042449 145.543265,87.8955102 145.424898,87.7812245 C145.306531,87.6669388 145.161633,87.6097959 144.990204,87.6097959 L144.990204,87.6097959 L144.243265,87.6097959 C144.071837,87.6097959 143.92898,87.6669388 143.814694,87.7812245 C143.700408,87.8955102 143.643265,88.042449 143.643265,88.2220408 L143.643265,88.2220408 L143.643265,88.4546939 C143.643265,88.642449 143.588163,88.7812245 143.477959,88.8710204 C143.367755,88.9608163 143.226939,89.0057143 143.05551,89.0057143 L143.05551,89.0057143 L142.675918,89.0057143 C142.50449,89.0057143 142.361633,89.0628571 142.247347,89.1771429 C142.133061,89.2914286 142.075918,89.4342857 142.075918,89.6057143 L142.075918,89.6057143 L142.075918,90.0342857 C142.075918,90.197551 142.133061,90.3383673 142.247347,90.4567347 C142.361633,90.575102 142.50449,90.6342857 142.675918,90.6342857 L142.675918,90.6342857 L143.643265,90.6342857 L143.643265,94.5526531 L143.459592,94.5526531 C143.28,94.5526531 143.137143,94.597551 143.03102,94.6873469 C142.924898,94.7771429 142.871837,94.9159184 142.871837,95.1036735 L142.871837,95.1036735 L142.871837,95.642449 C142.871837,95.8302041 142.924898,95.9669388 143.03102,96.0526531 C143.137143,96.1383673 143.28,96.1812245 143.459592,96.1812245 L143.459592,96.1812245 L145.786122,96.1812245 Z M152.924898,96.1812245 C153.12898,96.1812245 153.300408,96.1159184 153.439184,95.9853061 C153.577959,95.8546939 153.647347,95.6873469 153.647347,95.4832653 L153.647347,95.4832653 L153.647347,94.3567347 C153.647347,94.1853061 153.602449,94.0465306 153.512653,93.9404082 C153.422857,93.8342857 153.284082,93.7812245 153.096327,93.7812245 L153.096327,93.7812245 L152.557551,93.7812245 C152.369796,93.7812245 152.233061,93.8342857 152.147347,93.9404082 C152.061633,94.0465306 152.018776,94.1853061 152.018776,94.3567347 L152.018776,94.3567347 L152.018776,94.5404082 L149.447347,94.564898 C149.496327,94.3363265 149.602449,94.1404082 149.765714,93.9771429 C149.92898,93.8138776 150.222857,93.597551 150.647347,93.3281633 C151.414694,92.8302041 151.988163,92.4138776 152.367755,92.0791837 C152.747347,91.7444898 153.012653,91.4138776 153.163673,91.0873469 C153.314694,90.7608163 153.390204,90.364898 153.390204,89.8995918 C153.390204,89.4342857 153.261633,89.0179592 153.00449,88.6506122 C152.747347,88.2832653 152.390204,87.997551 151.933061,87.7934694 C151.475918,87.5893878 150.961633,87.4873469 150.390204,87.4873469 C149.835102,87.4873469 149.333061,87.5832653 148.884082,87.775102 C148.435102,87.9669388 148.084082,88.2302041 147.83102,88.564898 C147.577959,88.8995918 147.451429,89.2710204 147.451429,89.6791837 C147.451429,90.0383673 147.559592,90.3322449 147.775918,90.5608163 C147.992245,90.7893878 148.271837,90.9036735 148.614694,90.9036735 C148.965714,90.9036735 149.245306,90.8077551 149.453469,90.6159184 C149.661633,90.4240816 149.765714,90.1730612 149.765714,89.8628571 C149.765714,89.6914286 149.733061,89.5281633 149.667755,89.3730612 C149.814694,89.2016327 150.075918,89.1159184 150.451429,89.1159184 C150.72898,89.1159184 150.953469,89.1893878 151.124898,89.3363265 C151.296327,89.4832653 151.382041,89.675102 151.382041,89.9118367 C151.382041,90.1159184 151.335102,90.297551 151.241224,90.4567347 C151.147347,90.6159184 150.98,90.7934694 150.739184,90.9893878 C150.498367,91.1853061 150.137143,91.4383673 149.65551,91.7485714 C149.051429,92.1322449 148.594286,92.4730612 148.284082,92.7710204 C147.973878,93.0689796 147.757551,93.3873469 147.635102,93.7261224 C147.512653,94.064898 147.451429,94.4914286 147.451429,95.0057143 L147.451429,95.0057143 L147.451429,95.5689796 C147.451429,95.7485714 147.508571,95.8955102 147.622857,96.0097959 C147.737143,96.1240816 147.88,96.1812245 148.051429,96.1812245 L148.051429,96.1812245 L148.749388,96.1689796 L148.749388,96.1812245 L152.924898,96.1812245 Z M158.006531,96.3036735 C158.659592,96.3036735 159.233061,96.1914286 159.726939,95.9669388 C160.220816,95.742449 160.602449,95.4281633 160.871837,95.0240816 C161.141224,94.62 161.275918,94.1567347 161.275918,93.6342857 C161.275918,93.1363265 161.163673,92.7057143 160.939184,92.342449 C160.714694,91.9791837 160.394286,91.7077551 159.977959,91.5281633 C160.296327,91.3404082 160.541224,91.097551 160.712653,90.7995918 C160.884082,90.5016327 160.969796,90.164898 160.969796,89.7893878 C160.969796,89.3322449 160.845306,88.9302041 160.596327,88.5832653 C160.347347,88.2363265 159.990204,87.9669388 159.524898,87.775102 C159.059592,87.5832653 158.512653,87.4873469 157.884082,87.4873469 C157.312653,87.4873469 156.798367,87.5812245 156.341224,87.7689796 C155.884082,87.9567347 155.524898,88.2179592 155.263673,88.5526531 C155.002449,88.8873469 154.871837,89.2628571 154.871837,89.6791837 C154.871837,90.0383673 154.977959,90.3322449 155.190204,90.5608163 C155.402449,90.7893878 155.68,90.9036735 156.022857,90.9036735 C156.373878,90.9036735 156.65551,90.8077551 156.867755,90.6159184 C157.08,90.4240816 157.186122,90.1730612 157.186122,89.8628571 C157.186122,89.675102 157.149388,89.5077551 157.075918,89.3608163 C157.23102,89.197551 157.500408,89.1159184 157.884082,89.1159184 C158.218776,89.1159184 158.482041,89.2057143 158.673878,89.3853061 C158.865714,89.564898 158.961633,89.7934694 158.961633,90.0710204 C158.961633,90.397551 158.886122,90.6322449 158.735102,90.775102 C158.584082,90.9179592 158.345306,90.9893878 158.018776,90.9893878 L158.018776,90.9893878 L157.675918,90.9893878 C157.50449,90.9893878 157.361633,91.0465306 157.247347,91.1608163 C157.133061,91.275102 157.075918,91.4179592 157.075918,91.5893878 L157.075918,91.5893878 L157.075918,92.0179592 C157.075918,92.1812245 157.133061,92.3220408 157.247347,92.4404082 C157.361633,92.5587755 157.50449,92.6179592 157.675918,92.6179592 L157.675918,92.6179592 L158.067755,92.6179592 C158.484082,92.6179592 158.790204,92.6914286 158.986122,92.8383673 C159.182041,92.9853061 159.28,93.2179592 159.28,93.5363265 C159.28,93.9036735 159.173878,94.1853061 158.961633,94.3812245 C158.749388,94.5771429 158.443265,94.675102 158.043265,94.675102 C157.561633,94.675102 157.226939,94.5689796 157.039184,94.3567347 C157.088163,94.2342857 157.112653,94.0914286 157.112653,93.9281633 C157.112653,93.6179592 157.008571,93.3669388 156.800408,93.175102 C156.592245,92.9832653 156.312653,92.8873469 155.961633,92.8873469 C155.618776,92.8873469 155.339184,93.0016327 155.122857,93.2302041 C154.906531,93.4587755 154.798367,93.7526531 154.798367,94.1118367 C154.798367,94.5444898 154.937143,94.9261224 155.214694,95.2567347 C155.492245,95.5873469 155.873878,95.8444898 156.359592,96.0281633 C156.845306,96.2118367 157.394286,96.3036735 158.006531,96.3036735 Z M167.998367,96.1812245 C168.169796,96.1812245 168.308571,96.1383673 168.414694,96.0526531 C168.520816,95.9669388 168.573878,95.8302041 168.573878,95.642449 L168.573878,95.642449 L168.573878,95.1036735 C168.573878,94.9159184 168.520816,94.7771429 168.414694,94.6873469 C168.308571,94.597551 168.169796,94.5526531 167.998367,94.5526531 L167.998367,94.5526531 L167.814694,94.5526531 L167.814694,93.8546939 L168.586122,93.8546939 C168.757551,93.8546939 168.900408,93.797551 169.014694,93.6832653 C169.12898,93.5689796 169.186122,93.4261224 169.186122,93.2546939 L169.186122,93.2546939 L169.186122,92.8261224 C169.186122,92.6546939 169.12898,92.5118367 169.014694,92.397551 C168.900408,92.2832653 168.757551,92.2261224 168.586122,92.2261224 L168.586122,92.2261224 L167.814694,92.2261224 L167.814694,88.2220408 C167.814694,88.042449 167.75551,87.8955102 167.637143,87.7812245 C167.518776,87.6669388 167.373878,87.6097959 167.202449,87.6097959 L167.202449,87.6097959 L165.953469,87.6097959 C165.782041,87.6097959 165.635102,87.6465306 165.512653,87.72 C165.390204,87.7934694 165.271837,87.9159184 165.157551,88.0873469 L165.157551,88.0873469 L162.512653,91.9934694 C162.406531,92.1485714 162.33102,92.2873469 162.286122,92.4097959 C162.241224,92.5322449 162.218776,92.6955102 162.218776,92.8995918 L162.218776,92.8995918 L162.218776,93.2546939 C162.218776,93.4261224 162.275918,93.5689796 162.390204,93.6832653 C162.50449,93.797551 162.647347,93.8546939 162.818776,93.8546939 L162.818776,93.8546939 L165.85551,93.8546939 L165.85551,94.5526531 L165.671837,94.5526531 C165.492245,94.5526531 165.349388,94.597551 165.243265,94.6873469 C165.137143,94.7771429 165.084082,94.9159184 165.084082,95.1036735 L165.084082,95.1036735 L165.084082,95.642449 C165.084082,95.8302041 165.137143,95.9669388 165.243265,96.0526531 C165.349388,96.1383673 165.492245,96.1812245 165.671837,96.1812245 L165.671837,96.1812245 L167.998367,96.1812245 Z M165.85551,92.2261224 L164.006531,92.2261224 L165.85551,89.5077551 L165.85551,92.2261224 Z M173.03102,96.3036735 C173.692245,96.3036735 174.271837,96.1812245 174.769796,95.9363265 C175.267755,95.6914286 175.653469,95.342449 175.926939,94.8893878 C176.200408,94.4363265 176.337143,93.9118367 176.337143,93.3159184 C176.337143,92.4342857 176.086122,91.7444898 175.584082,91.2465306 C175.082041,90.7485714 174.353469,90.4995918 173.398367,90.4995918 C173.08,90.4995918 172.777959,90.5444898 172.492245,90.6342857 L172.492245,90.6342857 L172.577959,89.2261224 L175.394286,89.2506122 C175.606531,89.2506122 175.78,89.1853061 175.914694,89.0546939 C176.049388,88.9240816 176.116735,88.7567347 176.116735,88.5526531 L176.116735,88.5526531 L176.116735,88.2955102 C176.116735,88.0995918 176.047347,87.9363265 175.908571,87.8057143 C175.769796,87.675102 175.598367,87.6097959 175.394286,87.6097959 L175.394286,87.6097959 L171.598367,87.6097959 C171.051429,87.6097959 170.757551,87.8955102 170.716735,88.4669388 C170.586122,90.5240816 170.520816,91.6995918 170.520816,91.9934694 C170.520816,92.1812245 170.573878,92.32 170.68,92.4097959 C170.786122,92.4995918 170.961633,92.5444898 171.206531,92.5444898 C171.361633,92.5444898 171.573878,92.4914286 171.843265,92.3853061 C172.202449,92.2138776 172.561633,92.1281633 172.920816,92.1281633 C173.377959,92.1281633 173.72898,92.2383673 173.973878,92.4587755 C174.218776,92.6791837 174.341224,92.9893878 174.341224,93.3893878 C174.341224,93.7812245 174.224898,94.0934694 173.992245,94.3261224 C173.759592,94.5587755 173.443265,94.675102 173.043265,94.675102 C172.773878,94.675102 172.573878,94.6383673 172.443265,94.564898 C172.467755,94.4669388 172.48,94.364898 172.48,94.2587755 C172.48,93.9485714 172.375918,93.697551 172.167755,93.5057143 C171.959592,93.3138776 171.68,93.2179592 171.32898,93.2179592 C170.986122,93.2179592 170.706531,93.3322449 170.490204,93.5608163 C170.273878,93.7893878 170.165714,94.0832653 170.165714,94.442449 C170.165714,94.7934694 170.288163,95.1118367 170.533061,95.397551 C170.777959,95.6832653 171.118776,95.9057143 171.55551,96.064898 C171.992245,96.2240816 172.484082,96.3036735 173.03102,96.3036735 Z M180.92898,96.3036735 C181.524898,96.3036735 182.053469,96.1832653 182.514694,95.942449 C182.975918,95.7016327 183.333061,95.364898 183.586122,94.9322449 C183.839184,94.4995918 183.965714,93.997551 183.965714,93.4261224 C183.965714,92.8955102 183.861633,92.4281633 183.653469,92.0240816 C183.445306,91.62 183.147347,91.3077551 182.759592,91.0873469 C182.371837,90.8669388 181.924898,90.7567347 181.418776,90.7567347 C181.018776,90.7567347 180.671837,90.82 180.377959,90.9465306 C180.084082,91.0730612 179.826939,91.2791837 179.606531,91.564898 C179.63102,90.6832653 179.765714,90.0546939 180.010612,89.6791837 C180.25551,89.3036735 180.651429,89.1159184 181.198367,89.1159184 C181.28,89.1159184 181.337143,89.12 181.369796,89.1281633 L181.369796,89.1281633 L181.369796,89.2138776 C181.369796,89.5240816 181.473878,89.775102 181.682041,89.9669388 C181.890204,90.1587755 182.169796,90.2546939 182.520816,90.2546939 C182.863673,90.2546939 183.143265,90.1404082 183.359592,89.9118367 C183.575918,89.6832653 183.684082,89.3893878 183.684082,89.0302041 C183.684082,88.564898 183.463673,88.1914286 183.022857,87.9097959 C182.582041,87.6281633 181.998367,87.4873469 181.271837,87.4873469 C178.822857,87.4873469 177.598367,89.1077551 177.598367,92.3485714 C177.598367,93.6465306 177.88,94.6302041 178.443265,95.2995918 C179.006531,95.9689796 179.835102,96.3036735 180.92898,96.3036735 Z M180.794286,94.675102 C180.443265,94.675102 180.157551,94.5710204 179.937143,94.3628571 C179.716735,94.1546939 179.606531,93.8710204 179.606531,93.5118367 C179.606531,93.1526531 179.712653,92.875102 179.924898,92.6791837 C180.137143,92.4832653 180.426939,92.3853061 180.794286,92.3853061 C181.161633,92.3853061 181.447347,92.4832653 181.651429,92.6791837 C181.85551,92.875102 181.957551,93.1567347 181.957551,93.5240816 C181.957551,93.8914286 181.853469,94.175102 181.645306,94.375102 C181.437143,94.575102 181.153469,94.675102 180.794286,94.675102 Z M187.45551,96.1812245 C187.733061,96.1812245 187.941224,96.0342857 188.08,95.7404082 L188.08,95.7404082 L190.969796,89.4465306 C191.035102,89.3077551 191.082041,89.1873469 191.110612,89.0853061 C191.139184,88.9832653 191.153469,88.8710204 191.153469,88.7485714 L191.153469,88.7485714 L191.153469,88.2220408 C191.153469,88.042449 191.094286,87.8955102 190.975918,87.7812245 C190.857551,87.6669388 190.712653,87.6097959 190.541224,87.6097959 L190.541224,87.6097959 L185.667755,87.6097959 C185.45551,87.6097959 185.282041,87.675102 185.147347,87.8057143 C185.012653,87.9363265 184.945306,88.1036735 184.945306,88.3077551 L184.945306,88.3077551 L184.945306,89.4342857 C184.945306,89.6057143 184.988163,89.7444898 185.073878,89.8506122 C185.159592,89.9567347 185.296327,90.0097959 185.484082,90.0097959 L185.484082,90.0097959 L186.022857,90.0097959 C186.210612,90.0097959 186.349388,89.9567347 186.439184,89.8506122 C186.52898,89.7444898 186.573878,89.6057143 186.573878,89.4342857 L186.573878,89.4342857 L186.573878,89.2506122 L188.949388,89.2383673 L186.206531,95.1281633 C186.108571,95.3240816 186.059592,95.4914286 186.059592,95.6302041 C186.059592,95.8016327 186.114694,95.9363265 186.224898,96.0342857 C186.335102,96.1322449 186.508571,96.1812245 186.745306,96.1812245 L186.745306,96.1812245 L187.45551,96.1812245 Z M195.451429,96.3036735 C196.10449,96.3036735 196.682041,96.1934694 197.184082,95.9730612 C197.686122,95.7526531 198.075918,95.4465306 198.353469,95.0546939 C198.63102,94.6628571 198.769796,94.2138776 198.769796,93.7077551 C198.769796,93.2097959 198.651429,92.7791837 198.414694,92.4159184 C198.177959,92.0526531 197.835102,91.7812245 197.386122,91.6016327 C197.769796,91.4138776 198.051429,91.1771429 198.23102,90.8914286 C198.410612,90.6057143 198.500408,90.2506122 198.500408,89.8261224 C198.500408,89.3853061 198.369796,88.9853061 198.108571,88.6261224 C197.847347,88.2669388 197.486122,87.9873469 197.024898,87.7873469 C196.563673,87.5873469 196.039184,87.4873469 195.451429,87.4873469 C194.863673,87.4873469 194.339184,87.5873469 193.877959,87.7873469 C193.416735,87.9873469 193.05551,88.2669388 192.794286,88.6261224 C192.533061,88.9853061 192.402449,89.3853061 192.402449,89.8261224 C192.402449,90.2506122 192.492245,90.6057143 192.671837,90.8914286 C192.851429,91.1771429 193.133061,91.4138776 193.516735,91.6016327 C193.067755,91.7812245 192.724898,92.0526531 192.488163,92.4159184 C192.251429,92.7791837 192.133061,93.2097959 192.133061,93.7077551 C192.133061,94.2138776 192.271837,94.6628571 192.549388,95.0546939 C192.826939,95.4465306 193.216735,95.7526531 193.718776,95.9730612 C194.220816,96.1934694 194.798367,96.3036735 195.451429,96.3036735 Z M195.451429,90.9893878 C195.116735,90.9893878 194.859592,90.9097959 194.68,90.7506122 C194.500408,90.5914286 194.410612,90.364898 194.410612,90.0710204 C194.410612,89.7853061 194.502449,89.5546939 194.686122,89.3791837 C194.869796,89.2036735 195.124898,89.1159184 195.451429,89.1159184 C195.769796,89.1159184 196.022857,89.2036735 196.210612,89.3791837 C196.398367,89.5546939 196.492245,89.7853061 196.492245,90.0710204 C196.492245,90.3730612 196.40449,90.6016327 196.22898,90.7567347 C196.053469,90.9118367 195.794286,90.9893878 195.451429,90.9893878 Z M195.451429,94.675102 C195.035102,94.675102 194.710612,94.5832653 194.477959,94.3995918 C194.245306,94.2159184 194.12898,93.9608163 194.12898,93.6342857 C194.12898,93.2995918 194.241224,93.0465306 194.465714,92.875102 C194.690204,92.7036735 195.018776,92.6179592 195.451429,92.6179592 C195.875918,92.6179592 196.200408,92.7036735 196.424898,92.875102 C196.649388,93.0465306 196.761633,93.2995918 196.761633,93.6342857 C196.761633,93.9608163 196.647347,94.2159184 196.418776,94.3995918 C196.190204,94.5832653 195.867755,94.675102 195.451429,94.675102 Z M202.639184,96.3036735 C205.088163,96.3036735 206.312653,94.6832653 206.312653,91.442449 C206.312653,90.1444898 206.03102,89.1608163 205.467755,88.4914286 C204.90449,87.8220408 204.075918,87.4873469 202.982041,87.4873469 C202.377959,87.4873469 201.847347,87.6077551 201.390204,87.8485714 C200.933061,88.0893878 200.577959,88.4261224 200.324898,88.8587755 C200.071837,89.2914286 199.945306,89.7934694 199.945306,90.364898 C199.945306,90.8955102 200.049388,91.3628571 200.257551,91.7669388 C200.465714,92.1710204 200.763673,92.4832653 201.151429,92.7036735 C201.539184,92.9240816 201.986122,93.0342857 202.492245,93.0342857 C202.892245,93.0342857 203.237143,92.9710204 203.526939,92.8444898 C203.816735,92.7179592 204.071837,92.5118367 204.292245,92.2261224 C204.275918,93.1077551 204.145306,93.7363265 203.900408,94.1118367 C203.65551,94.4873469 203.259592,94.675102 202.712653,94.675102 C202.63102,94.675102 202.573878,94.6710204 202.541224,94.6628571 L202.541224,94.6628571 L202.541224,94.5771429 C202.541224,94.2669388 202.435102,94.0159184 202.222857,93.8240816 C202.010612,93.6322449 201.733061,93.5363265 201.390204,93.5363265 C201.047347,93.5363265 200.767755,93.6506122 200.551429,93.8791837 C200.335102,94.1077551 200.226939,94.4016327 200.226939,94.7608163 C200.226939,95.2261224 200.447347,95.5995918 200.888163,95.8812245 C201.32898,96.1628571 201.912653,96.3036735 202.639184,96.3036735 Z M203.116735,91.4057143 C202.749388,91.4057143 202.461633,91.3077551 202.253469,91.1118367 C202.045306,90.9159184 201.941224,90.6342857 201.941224,90.2669388 C201.941224,89.9077551 202.047347,89.6261224 202.259592,89.4220408 C202.471837,89.2179592 202.757551,89.1159184 203.116735,89.1159184 C203.467755,89.1159184 203.753469,89.22 203.973878,89.4281633 C204.194286,89.6363265 204.30449,89.92 204.30449,90.2791837 C204.30449,90.6383673 204.198367,90.9159184 203.986122,91.1118367 C203.773878,91.3077551 203.484082,91.4057143 203.116735,91.4057143 Z M211.112653,96.3036735 C211.85551,96.3036735 212.490204,96.1240816 213.016735,95.764898 C213.543265,95.4057143 213.945306,94.8873469 214.222857,94.2097959 C214.500408,93.5322449 214.639184,92.7240816 214.639184,91.7853061 C214.639184,90.9036735 214.498367,90.1404082 214.216735,89.4955102 C213.935102,88.8506122 213.53102,88.3546939 213.00449,88.0077551 C212.477959,87.6608163 211.847347,87.4873469 211.112653,87.4873469 C210.369796,87.4873469 209.735102,87.6669388 209.208571,88.0261224 C208.682041,88.3853061 208.28,88.9036735 208.002449,89.5812245 C207.724898,90.2587755 207.586122,91.0669388 207.586122,92.0057143 C207.586122,92.8873469 207.726939,93.6506122 208.008571,94.2955102 C208.290204,94.9404082 208.694286,95.4363265 209.220816,95.7832653 C209.747347,96.1302041 210.377959,96.3036735 211.112653,96.3036735 Z M211.112653,94.675102 C210.590204,94.675102 210.20449,94.4526531 209.95551,94.0077551 C209.706531,93.5628571 209.582041,92.8873469 209.582041,91.9812245 C209.582041,91.0016327 209.70449,90.2791837 209.949388,89.8138776 C210.194286,89.3485714 210.582041,89.1159184 211.112653,89.1159184 C211.635102,89.1159184 212.018776,89.3383673 212.263673,89.7832653 C212.508571,90.2281633 212.63102,90.9036735 212.63102,91.8097959 C212.63102,92.797551 212.510612,93.5220408 212.269796,93.9832653 C212.02898,94.4444898 211.643265,94.675102 211.112653,94.675102 Z" id="solwayextrabold1234567890"></path>
            </g>
        </g>
    </g>
</svg>