<?xml version="1.0" encoding="UTF-8"?>
<svg width="148px" height="13px" viewBox="0 0 148 13" version="1.1" xmlns="http://www.w3.org/2000/svg" xmlns:xlink="http://www.w3.org/1999/xlink">
    <title>solwaylight1234567890</title>
    <g id="页面-1" stroke="none" stroke-width="1" fill="none" fill-rule="evenodd">
        <g id="弃-增加英文字体分类" transform="translate(-748.000000, -61.000000)" fill="#FFFFFF" fill-rule="nonzero">
            <g id="编组-4" transform="translate(720.000000, 10.000000)">
                <path d="M31.1454694,60.3036735 C31.6189388,60.3036735 32.0332245,60.2281633 32.3883265,60.0771429 C32.7434286,59.9261224 33.0189388,59.72 33.2148571,59.4587755 C33.4107755,59.197551 33.5087347,58.8995918 33.5087347,58.564898 C33.5087347,58.1240816 33.3515918,57.7669388 33.0373061,57.4934694 C32.7230204,57.22 32.1862857,56.9771429 31.427102,56.764898 C30.9046531,56.6179592 30.5128163,56.4914286 30.2515918,56.3853061 C29.9903673,56.2791837 29.8087347,56.1710204 29.7066939,56.0608163 C29.6046531,55.9506122 29.5536327,55.8138776 29.5536327,55.6506122 C29.5536327,55.3404082 29.6985306,55.0893878 29.9883265,54.897551 C30.2781224,54.7057143 30.6556735,54.6097959 31.1209796,54.6097959 C31.9373061,54.6097959 32.4311837,54.7853061 32.6026122,55.1363265 C32.5128163,55.1771429 32.4393469,55.242449 32.3822041,55.3322449 C32.3250612,55.4220408 32.2964898,55.5240816 32.2964898,55.6383673 C32.2964898,55.7853061 32.3454694,55.9097959 32.4434286,56.0118367 C32.5413878,56.1138776 32.6638367,56.164898 32.8107755,56.164898 C32.9985306,56.164898 33.1434286,56.1036735 33.2454694,55.9812245 C33.3475102,55.8587755 33.3985306,55.6873469 33.3985306,55.4669388 C33.3985306,54.9771429 33.2005714,54.5995918 32.8046531,54.3342857 C32.4087347,54.0689796 31.8475102,53.9363265 31.1209796,53.9363265 C30.6801633,53.9363265 30.2842449,54.0077551 29.9332245,54.1506122 C29.5822041,54.2934694 29.3087347,54.4914286 29.1128163,54.7444898 C28.916898,54.997551 28.8189388,55.2832653 28.8189388,55.6016327 C28.8189388,55.9118367 28.8903673,56.1689796 29.0332245,56.3730612 C29.1760816,56.5771429 29.4148571,56.7628571 29.749551,56.9302041 C30.0842449,57.097551 30.5617959,57.2669388 31.1822041,57.4383673 C31.6311837,57.5608163 31.9658776,57.675102 32.1862857,57.7812245 C32.4066939,57.8873469 32.5597551,58.0016327 32.6454694,58.1240816 C32.7311837,58.2465306 32.7740408,58.4097959 32.7740408,58.6138776 C32.7740408,58.9240816 32.6332245,59.1710204 32.3515918,59.3546939 C32.0699592,59.5383673 31.6679184,59.6302041 31.1454694,59.6302041 C30.2393469,59.6302041 29.6883265,59.4057143 29.4924082,58.9567347 C29.6801633,58.8506122 29.7740408,58.6873469 29.7740408,58.4669388 C29.7740408,58.32 29.7250612,58.1955102 29.627102,58.0934694 C29.5291429,57.9914286 29.4066939,57.9404082 29.2597551,57.9404082 C29.072,57.9404082 28.927102,58.0016327 28.8250612,58.1240816 C28.7230204,58.2465306 28.672,58.4179592 28.672,58.6383673 C28.672,59.1363265 28.8964898,59.5383673 29.3454694,59.8444898 C29.794449,60.1506122 30.394449,60.3036735 31.1454694,60.3036735 Z M37.7699592,60.3036735 C38.3250612,60.3036735 38.816898,60.1669388 39.2454694,59.8934694 C39.6740408,59.62 40.0087347,59.2383673 40.249551,58.7485714 C40.4903673,58.2587755 40.6107755,57.6995918 40.6107755,57.0710204 C40.6107755,56.4587755 40.4924082,55.9159184 40.2556735,55.442449 C40.0189388,54.9689796 39.6842449,54.5995918 39.2515918,54.3342857 C38.8189388,54.0689796 38.3250612,53.9363265 37.7699592,53.9363265 C37.2148571,53.9363265 36.7230204,54.0730612 36.294449,54.3465306 C35.8658776,54.62 35.5311837,55.0016327 35.2903673,55.4914286 C35.049551,55.9812245 34.9291429,56.5404082 34.9291429,57.1689796 C34.9291429,57.7812245 35.0475102,58.3240816 35.2842449,58.797551 C35.5209796,59.2710204 35.8556735,59.6404082 36.2883265,59.9057143 C36.7209796,60.1710204 37.2148571,60.3036735 37.7699592,60.3036735 Z M37.7699592,59.6302041 C37.1005714,59.6302041 36.5822041,59.4138776 36.2148571,58.9812245 C35.8475102,58.5485714 35.6638367,57.9444898 35.6638367,57.1689796 C35.6638367,56.3771429 35.8515918,55.7526531 36.227102,55.2955102 C36.6026122,54.8383673 37.116898,54.6097959 37.7699592,54.6097959 C38.4393469,54.6097959 38.9577143,54.8261224 39.3250612,55.2587755 C39.6924082,55.6914286 39.8760816,56.2955102 39.8760816,57.0710204 C39.8760816,57.8628571 39.6883265,58.4873469 39.3128163,58.9444898 C38.9373061,59.4016327 38.4230204,59.6302041 37.7699592,59.6302041 Z M43.6230204,60.1812245 C43.8352653,60.1812245 43.9413878,60.1036735 43.9413878,59.9485714 L43.9413878,59.9485714 L43.9413878,59.7404082 C43.9413878,59.5853061 43.8352653,59.5077551 43.6230204,59.5077551 L43.6230204,59.5077551 L43.2434286,59.5077551 L43.2434286,51.4995918 C43.2434286,51.3934694 43.2066939,51.3036735 43.1332245,51.2302041 C43.0597551,51.1567347 42.9699592,51.12 42.8638367,51.12 L42.8638367,51.12 L42.1413878,51.12 C41.9291429,51.12 41.8230204,51.197551 41.8230204,51.3526531 L41.8230204,51.3526531 L41.8230204,51.5608163 C41.8230204,51.7159184 41.9291429,51.7934694 42.1413878,51.7934694 L42.1413878,51.7934694 L42.5209796,51.7934694 L42.5209796,59.5077551 L42.1413878,59.5077551 C41.9291429,59.5077551 41.8230204,59.5853061 41.8230204,59.7404082 L41.8230204,59.7404082 L41.8230204,59.9485714 C41.8230204,60.1036735 41.9291429,60.1812245 42.1413878,60.1812245 L42.1413878,60.1812245 L43.6230204,60.1812245 Z M47.5291429,60.1812245 C47.6842449,60.1812245 47.7903673,60.1118367 47.8475102,59.9730612 L47.8475102,59.9730612 L49.2679184,56.164898 L50.6883265,59.9730612 C50.7454694,60.1118367 50.8515918,60.1812245 51.0066939,60.1812245 L51.0066939,60.1812245 L51.1536327,60.1812245 C51.3250612,60.1812245 51.4311837,60.1118367 51.472,59.9730612 L51.472,59.9730612 L53.0515918,54.7322449 L53.4311837,54.7322449 C53.6434286,54.7322449 53.749551,54.6546939 53.749551,54.4995918 L53.749551,54.4995918 L53.749551,54.2914286 C53.749551,54.1363265 53.6434286,54.0587755 53.4311837,54.0587755 L53.4311837,54.0587755 L51.949551,54.0587755 C51.7373061,54.0587755 51.6311837,54.1363265 51.6311837,54.2914286 L51.6311837,54.2914286 L51.6311837,54.4995918 C51.6311837,54.6546939 51.7373061,54.7322449 51.949551,54.7322449 L51.949551,54.7322449 L52.3291429,54.7322449 L51.0556735,58.9567347 L49.6842449,55.2832653 C49.6515918,55.2016327 49.6107755,55.1404082 49.5617959,55.0995918 C49.5128163,55.0587755 49.4434286,55.0383673 49.3536327,55.0383673 L49.3536327,55.0383673 L49.1822041,55.0383673 C49.0924082,55.0383673 49.0230204,55.0587755 48.9740408,55.0995918 C48.9250612,55.1404082 48.8842449,55.2016327 48.8515918,55.2832653 L48.8515918,55.2832653 L47.4801633,58.9567347 L46.2066939,54.7322449 L46.5862857,54.7322449 C46.7985306,54.7322449 46.9046531,54.6546939 46.9046531,54.4995918 L46.9046531,54.4995918 L46.9046531,54.2914286 C46.9046531,54.1363265 46.7985306,54.0587755 46.5862857,54.0587755 L46.5862857,54.0587755 L45.1046531,54.0587755 C44.8924082,54.0587755 44.7862857,54.1363265 44.7862857,54.2914286 L44.7862857,54.2914286 L44.7862857,54.4995918 C44.7862857,54.6546939 44.8924082,54.7322449 45.1046531,54.7322449 L45.1046531,54.7322449 L45.4842449,54.7322449 L47.0638367,59.9730612 C47.1046531,60.1118367 47.2107755,60.1812245 47.3822041,60.1812245 L47.3822041,60.1812245 L47.5291429,60.1812245 Z M56.6760816,60.3036735 C57.1250612,60.3036735 57.5536327,60.1710204 57.9617959,59.9057143 C58.3699592,59.6404082 58.6515918,59.3118367 58.8066939,58.92 L58.8066939,58.92 L58.8066939,59.8016327 C58.8066939,59.9077551 58.8413878,59.997551 58.9107755,60.0710204 C58.9801633,60.1444898 59.0679184,60.1812245 59.1740408,60.1812245 L59.1740408,60.1812245 L59.9087347,60.1812245 C60.1209796,60.1812245 60.227102,60.1036735 60.227102,59.9485714 L60.227102,59.9485714 L60.227102,59.7404082 C60.227102,59.5853061 60.1209796,59.5077551 59.9087347,59.5077551 L59.9087347,59.5077551 L59.5291429,59.5077551 L59.5291429,56.3240816 C59.5291429,55.564898 59.3250612,54.9771429 58.916898,54.5608163 C58.5087347,54.1444898 57.9291429,53.9363265 57.1781224,53.9363265 C56.5577143,53.9363265 56.0475102,54.0628571 55.6475102,54.3159184 C55.2475102,54.5689796 55.0475102,54.8873469 55.0475102,55.2710204 C55.0475102,55.4914286 55.0985306,55.6628571 55.2005714,55.7853061 C55.3026122,55.9077551 55.4475102,55.9689796 55.6352653,55.9689796 C55.7822041,55.9689796 55.9046531,55.9179592 56.0026122,55.8159184 C56.1005714,55.7138776 56.149551,55.5893878 56.149551,55.442449 C56.149551,55.2546939 56.0760816,55.1077551 55.9291429,55.0016327 C56.0189388,54.8791837 56.1658776,54.7832653 56.3699592,54.7138776 C56.5740408,54.6444898 56.8189388,54.6097959 57.1046531,54.6097959 C57.6924082,54.6097959 58.1230204,54.7506122 58.3964898,55.0322449 C58.6699592,55.3138776 58.8066939,55.7567347 58.8066939,56.3608163 L58.8066939,56.3608163 L58.8066939,56.9608163 C58.1373061,56.8138776 57.4964898,56.7404082 56.8842449,56.7404082 C56.2148571,56.7404082 55.6903673,56.897551 55.3107755,57.2118367 C54.9311837,57.5261224 54.7413878,57.9567347 54.7413878,58.5036735 C54.7413878,59.042449 54.9189388,59.4771429 55.2740408,59.8077551 C55.6291429,60.1383673 56.0964898,60.3036735 56.6760816,60.3036735 Z M56.7617959,59.6302041 C56.3454694,59.6302041 56.0209796,59.5302041 55.7883265,59.3302041 C55.5556735,59.1302041 55.4393469,58.8506122 55.4393469,58.4914286 C55.4393469,58.1404082 55.5699592,57.8730612 55.8311837,57.6893878 C56.0924082,57.5057143 56.4760816,57.4138776 56.9822041,57.4138776 C57.7740408,57.4138776 58.3822041,57.4465306 58.8066939,57.5118367 L58.8066939,57.5118367 L58.8066939,57.5240816 C58.8066939,57.8995918 58.7148571,58.2485714 58.5311837,58.5710204 C58.3475102,58.8934694 58.0985306,59.1506122 57.7842449,59.342449 C57.4699592,59.5342857 57.1291429,59.6302041 56.7617959,59.6302041 Z M62.2107755,63.12 C62.6189388,63.12 62.9515918,62.9995918 63.2087347,62.7587755 C63.4658776,62.5179592 63.7128163,62.0873469 63.949551,61.4669388 L63.949551,61.4669388 L66.5577143,54.7322449 L66.9373061,54.7322449 C67.149551,54.7322449 67.2556735,54.6546939 67.2556735,54.4995918 L67.2556735,54.4995918 L67.2556735,54.2914286 C67.2556735,54.1363265 67.149551,54.0587755 66.9373061,54.0587755 L66.9373061,54.0587755 L65.4556735,54.0587755 C65.2434286,54.0587755 65.1373061,54.1363265 65.1373061,54.2914286 L65.1373061,54.2914286 L65.1373061,54.4995918 C65.1373061,54.6546939 65.2434286,54.7322449 65.4556735,54.7322449 L65.4556735,54.7322449 L65.8107755,54.7322449 L64.1454694,59.0914286 L62.4556735,54.7322449 L62.8107755,54.7322449 C63.0230204,54.7322449 63.1291429,54.6546939 63.1291429,54.4995918 L63.1291429,54.4995918 L63.1291429,54.2914286 C63.1291429,54.1363265 63.0230204,54.0587755 62.8107755,54.0587755 L62.8107755,54.0587755 L61.3291429,54.0587755 C61.116898,54.0587755 61.0107755,54.1363265 61.0107755,54.2914286 L61.0107755,54.2914286 L61.0107755,54.4995918 C61.0107755,54.6546939 61.116898,54.7322449 61.3291429,54.7322449 L61.3291429,54.7322449 L61.7087347,54.7322449 L63.7658776,60.0220408 L63.2393469,61.3934694 C63.0924082,61.7771429 62.9475102,62.0485714 62.8046531,62.2077551 C62.6617959,62.3669388 62.4924082,62.4465306 62.2964898,62.4465306 C62.2148571,62.4465306 62.1536327,62.4342857 62.1128163,62.4097959 C62.1862857,62.2955102 62.2230204,62.1893878 62.2230204,62.0914286 C62.2230204,61.9444898 62.1740408,61.82 62.0760816,61.7179592 C61.9781224,61.6159184 61.8556735,61.564898 61.7087347,61.564898 C61.5291429,61.564898 61.3862857,61.6220408 61.2801633,61.7363265 C61.1740408,61.8506122 61.1209796,61.997551 61.1209796,62.1771429 C61.1209796,62.4465306 61.2230204,62.6710204 61.427102,62.8506122 C61.6311837,63.0302041 61.8924082,63.12 62.2107755,63.12 Z M73.2066939,60.1812245 C73.4189388,60.1812245 73.5250612,60.1036735 73.5250612,59.9485714 L73.5250612,59.9485714 L73.5250612,59.7404082 C73.5250612,59.5853061 73.4189388,59.5077551 73.2066939,59.5077551 L73.2066939,59.5077551 L72.827102,59.5077551 L72.827102,51.4995918 C72.827102,51.3934694 72.7903673,51.3036735 72.716898,51.2302041 C72.6434286,51.1567347 72.5536327,51.12 72.4475102,51.12 L72.4475102,51.12 L71.7250612,51.12 C71.5128163,51.12 71.4066939,51.197551 71.4066939,51.3526531 L71.4066939,51.3526531 L71.4066939,51.5608163 C71.4066939,51.7159184 71.5128163,51.7934694 71.7250612,51.7934694 L71.7250612,51.7934694 L72.1046531,51.7934694 L72.1046531,59.5077551 L71.7250612,59.5077551 C71.5128163,59.5077551 71.4066939,59.5853061 71.4066939,59.7404082 L71.4066939,59.7404082 L71.4066939,59.9485714 C71.4066939,60.1036735 71.5128163,60.1812245 71.7250612,60.1812245 L71.7250612,60.1812245 L73.2066939,60.1812245 Z M75.5209796,52.7363265 C75.7005714,52.7363265 75.849551,52.6771429 75.9679184,52.5587755 C76.0862857,52.4404082 76.1454694,52.2914286 76.1454694,52.1118367 C76.1454694,51.9322449 76.0862857,51.7832653 75.9679184,51.664898 C75.849551,51.5465306 75.7005714,51.4873469 75.5209796,51.4873469 C75.3413878,51.4873469 75.1924082,51.5465306 75.0740408,51.664898 C74.9556735,51.7832653 74.8964898,51.9322449 74.8964898,52.1118367 C74.8964898,52.2914286 74.9556735,52.4404082 75.0740408,52.5587755 C75.1924082,52.6771429 75.3413878,52.7363265 75.5209796,52.7363265 Z M76.4515918,60.1812245 C76.6638367,60.1812245 76.7699592,60.1036735 76.7699592,59.9485714 L76.7699592,59.9485714 L76.7699592,59.7404082 C76.7699592,59.5853061 76.6638367,59.5077551 76.4515918,59.5077551 L76.4515918,59.5077551 L76.072,59.5077551 L76.072,54.4383673 C76.072,54.3322449 76.0352653,54.242449 75.9617959,54.1689796 C75.8883265,54.0955102 75.7985306,54.0587755 75.6924082,54.0587755 L75.6924082,54.0587755 L74.9699592,54.0587755 C74.7577143,54.0587755 74.6515918,54.1363265 74.6515918,54.2914286 L74.6515918,54.2914286 L74.6515918,54.4995918 C74.6515918,54.6546939 74.7577143,54.7322449 74.9699592,54.7322449 L74.9699592,54.7322449 L75.349551,54.7322449 L75.349551,59.5077551 L74.9699592,59.5077551 C74.7577143,59.5077551 74.6515918,59.5853061 74.6515918,59.7404082 L74.6515918,59.7404082 L74.6515918,59.9485714 C74.6515918,60.1036735 74.7577143,60.1812245 74.9699592,60.1812245 L74.9699592,60.1812245 L76.4515918,60.1812245 Z M80.6026122,63.12 C82.3822041,63.12 83.272,62.0587755 83.272,59.9363265 L83.272,59.9363265 L83.272,54.7322449 L83.6515918,54.7322449 C83.8638367,54.7322449 83.9699592,54.6546939 83.9699592,54.4995918 L83.9699592,54.4995918 L83.9699592,54.2914286 C83.9699592,54.1363265 83.8638367,54.0587755 83.6515918,54.0587755 L83.6515918,54.0587755 L82.9046531,54.0587755 C82.6679184,54.0587755 82.549551,54.1853061 82.549551,54.4383673 L82.549551,54.4383673 L82.549551,54.9771429 C82.3373061,54.6587755 82.0617959,54.4057143 81.7230204,54.2179592 C81.3842449,54.0302041 81.0311837,53.9363265 80.6638367,53.9363265 C80.1250612,53.9363265 79.6556735,54.0669388 79.2556735,54.3281633 C78.8556735,54.5893878 78.5475102,54.9628571 78.3311837,55.4485714 C78.1148571,55.9342857 78.0066939,56.5036735 78.0066939,57.1567347 C78.0066939,57.7853061 78.1087347,58.3383673 78.3128163,58.8159184 C78.516898,59.2934694 78.8066939,59.6608163 79.1822041,59.9179592 C79.5577143,60.175102 79.994449,60.3036735 80.4924082,60.3036735 C80.9332245,60.3036735 81.3475102,60.1730612 81.7352653,59.9118367 C82.1230204,59.6506122 82.394449,59.3240816 82.549551,58.9322449 L82.549551,58.9322449 L82.549551,59.9363265 C82.549551,60.8342857 82.394449,61.4771429 82.0842449,61.864898 C81.7740408,62.2526531 81.2556735,62.4465306 80.5291429,62.4465306 C80.2515918,62.4465306 79.9985306,62.3995918 79.7699592,62.3057143 C79.5413878,62.2118367 79.3781224,62.0914286 79.2801633,61.9444898 C79.427102,61.8383673 79.5005714,61.6873469 79.5005714,61.4914286 C79.5005714,61.3444898 79.4515918,61.22 79.3536327,61.1179592 C79.2556735,61.0159184 79.1332245,60.964898 78.9862857,60.964898 C78.7985306,60.964898 78.6536327,61.0261224 78.5515918,61.1485714 C78.449551,61.2710204 78.3985306,61.442449 78.3985306,61.6628571 C78.3985306,61.9240816 78.4985306,62.1669388 78.6985306,62.3914286 C78.8985306,62.6159184 79.1679184,62.7934694 79.5066939,62.9240816 C79.8454694,63.0546939 80.2107755,63.12 80.6026122,63.12 Z M80.5781224,59.6302041 C79.9985306,59.6302041 79.5475102,59.4240816 79.2250612,59.0118367 C78.9026122,58.5995918 78.7413878,58.0179592 78.7413878,57.2669388 C78.7413878,56.4016327 78.9066939,55.742449 79.2373061,55.2893878 C79.5679184,54.8363265 80.0475102,54.6097959 80.6760816,54.6097959 C81.027102,54.6097959 81.3617959,54.7016327 81.6801633,54.8853061 C81.9985306,55.0689796 82.2883265,55.3404082 82.549551,55.6995918 L82.549551,55.6995918 L82.549551,57.5240816 C82.549551,57.9077551 82.4617959,58.2608163 82.2862857,58.5832653 C82.1107755,58.9057143 81.872,59.1608163 81.5699592,59.3485714 C81.2679184,59.5363265 80.9373061,59.6302041 80.5781224,59.6302041 Z M86.7985306,60.1812245 C87.0107755,60.1812245 87.116898,60.1036735 87.116898,59.9485714 L87.116898,59.9485714 L87.116898,59.7404082 C87.116898,59.5853061 87.0107755,59.5077551 86.7985306,59.5077551 L86.7985306,59.5077551 L86.4189388,59.5077551 L86.4189388,56.9853061 C86.4189388,56.6016327 86.5209796,56.2240816 86.7250612,55.8526531 C86.9291429,55.4812245 87.1924082,55.1812245 87.5148571,54.9526531 C87.8373061,54.7240816 88.1699592,54.6097959 88.5128163,54.6097959 C89.0189388,54.6097959 89.3801633,54.7791837 89.5964898,55.1179592 C89.8128163,55.4567347 89.9209796,56.0220408 89.9209796,56.8138776 L89.9209796,56.8138776 L89.9209796,59.5077551 L89.5413878,59.5077551 C89.3291429,59.5077551 89.2230204,59.5853061 89.2230204,59.7404082 L89.2230204,59.7404082 L89.2230204,59.9485714 C89.2230204,60.1036735 89.3291429,60.1812245 89.5413878,60.1812245 L89.5413878,60.1812245 L91.0230204,60.1812245 C91.2352653,60.1812245 91.3413878,60.1036735 91.3413878,59.9485714 L91.3413878,59.9485714 L91.3413878,59.7404082 C91.3413878,59.5853061 91.2352653,59.5077551 91.0230204,59.5077551 L91.0230204,59.5077551 L90.6434286,59.5077551 L90.6434286,56.8138776 C90.6434286,55.842449 90.4781224,55.12 90.1475102,54.6465306 C89.816898,54.1730612 89.3128163,53.9363265 88.6352653,53.9363265 C88.194449,53.9363265 87.7617959,54.0873469 87.3373061,54.3893878 C86.9128163,54.6914286 86.6066939,55.0669388 86.4189388,55.5159184 L86.4189388,55.5159184 L86.4189388,51.4995918 C86.4189388,51.3934694 86.3822041,51.3036735 86.3087347,51.2302041 C86.2352653,51.1567347 86.1454694,51.12 86.0393469,51.12 L86.0393469,51.12 L85.316898,51.12 C85.1046531,51.12 84.9985306,51.197551 84.9985306,51.3526531 L84.9985306,51.3526531 L84.9985306,51.5608163 C84.9985306,51.7159184 85.1046531,51.7934694 85.316898,51.7934694 L85.316898,51.7934694 L85.6964898,51.7934694 L85.6964898,59.5077551 L85.316898,59.5077551 C85.1046531,59.5077551 84.9985306,59.5853061 84.9985306,59.7404082 L84.9985306,59.7404082 L84.9985306,59.9485714 C84.9985306,60.1036735 85.1046531,60.1812245 85.316898,60.1812245 L85.316898,60.1812245 L86.7985306,60.1812245 Z M95.3087347,60.3036735 C95.8066939,60.3036735 96.1801633,60.164898 96.4291429,59.8873469 C96.6781224,59.6097959 96.8760816,59.275102 97.0230204,58.8832653 C97.0801633,58.7363265 97.1087347,58.6179592 97.1087347,58.5281633 C97.1087347,58.4465306 97.072,58.3791837 96.9985306,58.3261224 C96.9250612,58.2730612 96.8393469,58.2465306 96.7413878,58.2465306 C96.6679184,58.2465306 96.6107755,58.2669388 96.5699592,58.3077551 C96.5291429,58.3485714 96.4842449,58.4261224 96.4352653,58.5404082 C96.3209796,58.8179592 96.2230204,59.0281633 96.1413878,59.1710204 C96.0597551,59.3138776 95.9536327,59.4261224 95.8230204,59.5077551 C95.6924082,59.5893878 95.5209796,59.6302041 95.3087347,59.6302041 C94.5332245,59.6302041 94.1454694,59.0628571 94.1454694,57.9281633 L94.1454694,57.9281633 L94.1454694,54.7322449 L95.9087347,54.7322449 C96.1617959,54.7322449 96.2883265,54.6220408 96.2883265,54.4016327 L96.2883265,54.4016327 L96.2883265,54.3771429 C96.2883265,54.2628571 96.2577143,54.1812245 96.1964898,54.1322449 C96.1352653,54.0832653 96.0393469,54.0587755 95.9087347,54.0587755 L95.9087347,54.0587755 L94.1454694,54.0587755 L94.1454694,52.9077551 C94.1454694,52.6546939 94.0311837,52.5281633 93.8026122,52.5281633 L93.8026122,52.5281633 L93.7781224,52.5281633 C93.5413878,52.5281633 93.4230204,52.6546939 93.4230204,52.9077551 L93.4230204,52.9077551 L93.4230204,54.0587755 L92.5046531,54.0587755 C92.3740408,54.0587755 92.2781224,54.0832653 92.216898,54.1322449 C92.1556735,54.1812245 92.1250612,54.2628571 92.1250612,54.3771429 L92.1250612,54.3771429 L92.1250612,54.4016327 C92.1250612,54.6220408 92.2515918,54.7322449 92.5046531,54.7322449 L92.5046531,54.7322449 L93.4230204,54.7322449 L93.4230204,58.0995918 C93.4230204,58.8097959 93.5862857,59.3546939 93.9128163,59.7342857 C94.2393469,60.1138776 94.7046531,60.3036735 95.3087347,60.3036735 Z M107.272,60.1812245 C107.484245,60.1812245 107.590367,60.1036735 107.590367,59.9485714 L107.590367,59.9485714 L107.590367,59.7404082 C107.590367,59.5853061 107.484245,59.5077551 107.272,59.5077551 L107.272,59.5077551 L106.892408,59.5077551 L106.892408,51.9893878 C106.892408,51.8832653 106.859755,51.7934694 106.794449,51.72 C106.729143,51.6465306 106.643429,51.6097959 106.537306,51.6097959 L106.537306,51.6097959 L106.525061,51.6097959 C106.418939,51.6097959 106.333224,51.6465306 106.267918,51.72 C106.202612,51.7934694 106.169959,51.8832653 106.169959,51.9893878 L106.169959,51.9893878 L106.169959,52.797551 C106.169959,52.9036735 106.137306,52.9934694 106.072,53.0669388 C106.006694,53.1404082 105.92098,53.1771429 105.814857,53.1771429 L105.814857,53.1771429 L104.957714,53.1771429 C104.892408,53.1771429 104.835265,53.2016327 104.786286,53.2506122 C104.737306,53.2995918 104.712816,53.3567347 104.712816,53.4220408 L104.712816,53.4220408 L104.712816,53.6057143 C104.712816,53.6710204 104.737306,53.7281633 104.786286,53.7771429 C104.835265,53.8261224 104.892408,53.8506122 104.957714,53.8506122 L104.957714,53.8506122 L106.169959,53.8506122 L106.169959,59.5077551 L105.790367,59.5077551 C105.578122,59.5077551 105.472,59.5853061 105.472,59.7404082 L105.472,59.7404082 L105.472,59.9485714 C105.472,60.1036735 105.578122,60.1812245 105.790367,60.1812245 L105.790367,60.1812245 L107.272,60.1812245 Z M114.52098,60.1812245 C114.627102,60.1812245 114.716898,60.1444898 114.790367,60.0710204 C114.863837,59.997551 114.900571,59.9077551 114.900571,59.8016327 L114.900571,59.8016327 L114.900571,59.1281633 C114.900571,58.9159184 114.82302,58.8097959 114.667918,58.8097959 L114.667918,58.8097959 L114.459755,58.8097959 C114.304653,58.8097959 114.227102,58.9159184 114.227102,59.1281633 L114.227102,59.1281633 L114.227102,59.5077551 L109.831184,59.5077551 C109.84751,59.1322449 109.906694,58.8322449 110.008735,58.6077551 C110.110776,58.3832653 110.302612,58.1546939 110.584245,57.9220408 C110.865878,57.6893878 111.325061,57.3689796 111.961796,56.9608163 C112.688327,56.4873469 113.239347,56.0914286 113.614857,55.7730612 C113.990367,55.4546939 114.251592,55.1465306 114.398531,54.8485714 C114.545469,54.5506122 114.618939,54.2016327 114.618939,53.8016327 C114.618939,53.3608163 114.502612,52.964898 114.269959,52.6138776 C114.037306,52.2628571 113.712816,51.9873469 113.29649,51.7873469 C112.880163,51.5873469 112.406694,51.4873469 111.876082,51.4873469 C111.345469,51.4873469 110.876082,51.5791837 110.467918,51.7628571 C110.059755,51.9465306 109.743429,52.2057143 109.518939,52.5404082 C109.294449,52.875102 109.182204,53.2587755 109.182204,53.6914286 C109.182204,53.9118367 109.233224,54.0832653 109.335265,54.2057143 C109.437306,54.3281633 109.582204,54.3893878 109.769959,54.3893878 C109.916898,54.3893878 110.039347,54.3383673 110.137306,54.2363265 C110.235265,54.1342857 110.284245,54.0097959 110.284245,53.8628571 C110.284245,53.7404082 110.253633,53.6342857 110.192408,53.5444898 C110.131184,53.4546939 110.051592,53.3893878 109.953633,53.3485714 C110.027102,52.964898 110.235265,52.6710204 110.578122,52.4669388 C110.92098,52.2628571 111.374041,52.1608163 111.937306,52.1608163 C112.541388,52.1608163 113.016898,52.3097959 113.363837,52.6077551 C113.710776,52.9057143 113.884245,53.3118367 113.884245,53.8261224 C113.884245,54.1444898 113.827102,54.4159184 113.712816,54.6404082 C113.598531,54.864898 113.384245,55.1036735 113.069959,55.3567347 C112.755673,55.6097959 112.267918,55.9485714 111.606694,56.3730612 C110.937306,56.797551 110.427102,57.1669388 110.076082,57.4812245 C109.725061,57.7955102 109.476082,58.1077551 109.329143,58.4179592 C109.182204,58.7281633 109.108735,59.0955102 109.108735,59.52 L109.108735,59.52 L109.108735,59.8016327 C109.108735,60.0546939 109.227102,60.1812245 109.463837,60.1812245 L109.463837,60.1812245 L114.52098,60.1812245 Z M119.394449,60.3036735 C120.031184,60.3036735 120.576082,60.1893878 121.029143,59.9608163 C121.482204,59.7322449 121.825061,59.4240816 122.057714,59.0363265 C122.290367,58.6485714 122.406694,58.2138776 122.406694,57.7322449 C122.406694,57.2179592 122.290367,56.7832653 122.057714,56.4281633 C121.825061,56.0730612 121.488327,55.8057143 121.04751,55.6261224 C121.414857,55.4138776 121.684245,55.1567347 121.855673,54.8546939 C122.027102,54.5526531 122.112816,54.1934694 122.112816,53.7771429 C122.112816,53.4016327 122.016898,53.0383673 121.825061,52.6873469 C121.633224,52.3363265 121.329143,52.0485714 120.912816,51.8240816 C120.49649,51.5995918 119.965878,51.4873469 119.32098,51.4873469 C118.782204,51.4873469 118.304653,51.5832653 117.888327,51.775102 C117.472,51.9669388 117.14751,52.2322449 116.914857,52.5710204 C116.682204,52.9097959 116.565878,53.2832653 116.565878,53.6914286 C116.565878,53.9118367 116.616898,54.0832653 116.718939,54.2057143 C116.82098,54.3281633 116.965878,54.3893878 117.153633,54.3893878 C117.300571,54.3893878 117.42302,54.3383673 117.52098,54.2363265 C117.618939,54.1342857 117.667918,54.0097959 117.667918,53.8628571 C117.667918,53.7485714 117.637306,53.6444898 117.576082,53.5506122 C117.514857,53.4567347 117.435265,53.3893878 117.337306,53.3485714 C117.427102,52.9893878 117.645469,52.7016327 117.992408,52.4853061 C118.339347,52.2689796 118.774041,52.1608163 119.29649,52.1608163 C120.04751,52.1608163 120.582204,52.3322449 120.900571,52.675102 C121.218939,53.0179592 121.378122,53.4097959 121.378122,53.8506122 C121.378122,54.4220408 121.19649,54.8138776 120.833224,55.0261224 C120.469959,55.2383673 119.912816,55.3444898 119.161796,55.3444898 L119.161796,55.3444898 L118.659755,55.3444898 C118.594449,55.3444898 118.537306,55.3689796 118.488327,55.4179592 C118.439347,55.4669388 118.414857,55.5240816 118.414857,55.5893878 L118.414857,55.5893878 L118.414857,55.7730612 C118.414857,55.8383673 118.439347,55.8955102 118.488327,55.9444898 C118.537306,55.9934694 118.594449,56.0179592 118.659755,56.0179592 L118.659755,56.0179592 L119.394449,56.0179592 C120.912816,56.0179592 121.672,56.5812245 121.672,57.7077551 C121.672,58.2791837 121.478122,58.742449 121.090367,59.097551 C120.702612,59.4526531 120.157714,59.6302041 119.455673,59.6302041 C118.867918,59.6302041 118.369959,59.5302041 117.961796,59.3302041 C117.553633,59.1302041 117.300571,58.8342857 117.202612,58.442449 C117.300571,58.4016327 117.380163,58.3342857 117.441388,58.2404082 C117.502612,58.1465306 117.533224,58.042449 117.533224,57.9281633 C117.533224,57.7812245 117.484245,57.6567347 117.386286,57.5546939 C117.288327,57.4526531 117.165878,57.4016327 117.018939,57.4016327 C116.831184,57.4016327 116.686286,57.4628571 116.584245,57.5853061 C116.482204,57.7077551 116.431184,57.8791837 116.431184,58.0995918 C116.431184,58.5485714 116.565878,58.9383673 116.835265,59.2689796 C117.104653,59.5995918 117.465878,59.8546939 117.918939,60.0342857 C118.372,60.2138776 118.863837,60.3036735 119.394449,60.3036735 Z M129.202612,60.1812245 C129.414857,60.1812245 129.52098,60.1036735 129.52098,59.9485714 L129.52098,59.9485714 L129.52098,59.7404082 C129.52098,59.5853061 129.414857,59.5077551 129.202612,59.5077551 L129.202612,59.5077551 L128.82302,59.5077551 L128.82302,57.7934694 L130.072,57.7934694 C130.137306,57.7934694 130.194449,57.7689796 130.243429,57.72 C130.292408,57.6710204 130.316898,57.6138776 130.316898,57.5485714 L130.316898,57.5485714 L130.316898,57.364898 C130.316898,57.2995918 130.292408,57.242449 130.243429,57.1934694 C130.194449,57.1444898 130.137306,57.12 130.072,57.12 L130.072,57.12 L128.82302,57.12 L128.82302,51.9893878 C128.82302,51.7363265 128.704653,51.6097959 128.467918,51.6097959 L128.467918,51.6097959 L128.32098,51.6097959 C128.182204,51.6097959 128.067918,51.6669388 127.978122,51.7812245 L127.978122,51.7812245 L123.961796,56.9608163 C123.912816,57.0179592 123.880163,57.0730612 123.863837,57.1261224 C123.84751,57.1791837 123.839347,57.2506122 123.839347,57.3404082 L123.839347,57.3404082 L123.839347,57.5485714 C123.839347,57.6138776 123.863837,57.6710204 123.912816,57.72 C123.961796,57.7689796 124.018939,57.7934694 124.084245,57.7934694 L124.084245,57.7934694 L128.100571,57.7934694 L128.100571,59.5077551 L127.72098,59.5077551 C127.508735,59.5077551 127.402612,59.5853061 127.402612,59.7404082 L127.402612,59.7404082 L127.402612,59.9485714 C127.402612,60.1036735 127.508735,60.1812245 127.72098,60.1812245 L127.72098,60.1812245 L129.202612,60.1812245 Z M128.100571,57.12 L124.684245,57.12 L128.100571,52.7240816 L128.100571,57.12 Z M134.553633,60.3036735 C135.141388,60.3036735 135.661796,60.1812245 136.114857,59.9363265 C136.567918,59.6914286 136.918939,59.3506122 137.167918,58.9138776 C137.416898,58.4771429 137.541388,57.9771429 137.541388,57.4138776 C137.541388,56.8587755 137.425061,56.3669388 137.192408,55.9383673 C136.959755,55.5097959 136.631184,55.1771429 136.206694,54.9404082 C135.782204,54.7036735 135.29649,54.5853061 134.749551,54.5853061 C134.063837,54.5853061 133.443429,54.7689796 132.888327,55.1363265 L132.888327,55.1363265 L133.035265,52.2832653 L136.929143,52.2832653 C136.994449,52.2832653 137.051592,52.2587755 137.100571,52.2097959 C137.149551,52.1608163 137.174041,52.1036735 137.174041,52.0383673 L137.174041,52.0383673 L137.174041,51.8546939 C137.174041,51.7893878 137.149551,51.7322449 137.100571,51.6832653 C137.051592,51.6342857 136.994449,51.6097959 136.929143,51.6097959 L136.929143,51.6097959 L132.729143,51.6097959 C132.631184,51.6097959 132.549551,51.6404082 132.484245,51.7016327 C132.418939,51.7628571 132.382204,51.8383673 132.374041,51.9281633 C132.218939,54.5077551 132.141388,55.8506122 132.141388,55.9567347 C132.141388,56.0302041 132.155673,56.0832653 132.184245,56.1159184 C132.212816,56.1485714 132.263837,56.164898 132.337306,56.164898 C132.386286,56.164898 132.441388,56.1465306 132.502612,56.1097959 C132.563837,56.0730612 132.643429,56.0179592 132.741388,55.9444898 C133.035265,55.7240816 133.316898,55.5546939 133.586286,55.4363265 C133.855673,55.3179592 134.194449,55.2587755 134.602612,55.2587755 C135.29649,55.2587755 135.837306,55.4485714 136.225061,55.8281633 C136.612816,56.2077551 136.806694,56.7322449 136.806694,57.4016327 C136.806694,58.0955102 136.604653,58.6404082 136.200571,59.0363265 C135.79649,59.4322449 135.243429,59.6302041 134.541388,59.6302041 C133.986286,59.6302041 133.52098,59.5220408 133.145469,59.3057143 C132.769959,59.0893878 132.533224,58.797551 132.435265,58.4302041 C132.541388,58.397551 132.62302,58.3342857 132.680163,58.2404082 C132.737306,58.1465306 132.765878,58.042449 132.765878,57.9281633 C132.765878,57.7812245 132.716898,57.6567347 132.618939,57.5546939 C132.52098,57.4526531 132.398531,57.4016327 132.251592,57.4016327 C132.063837,57.4016327 131.918939,57.4628571 131.816898,57.5853061 C131.714857,57.7077551 131.663837,57.8791837 131.663837,58.0995918 C131.663837,58.5159184 131.790367,58.8914286 132.043429,59.2261224 C132.29649,59.5608163 132.641388,59.8240816 133.078122,60.0159184 C133.514857,60.2077551 134.006694,60.3036735 134.553633,60.3036735 Z M142.353633,60.3036735 C142.908735,60.3036735 143.404653,60.1812245 143.841388,59.9363265 C144.278122,59.6914286 144.616898,59.3526531 144.857714,58.92 C145.098531,58.4873469 145.218939,57.9934694 145.218939,57.4383673 C145.218939,56.8832653 145.094449,56.3893878 144.845469,55.9567347 C144.59649,55.5240816 144.251592,55.1853061 143.810776,54.9404082 C143.369959,54.6955102 142.867918,54.5730612 142.304653,54.5730612 C141.82302,54.5730612 141.384245,54.6791837 140.988327,54.8914286 C140.592408,55.1036735 140.280163,55.4016327 140.051592,55.7853061 C140.116898,54.9118367 140.24751,54.2118367 140.443429,53.6853061 C140.639347,53.1587755 140.908735,52.7730612 141.251592,52.5281633 C141.594449,52.2832653 142.035265,52.1608163 142.574041,52.1608163 C143.014857,52.1608163 143.382204,52.2220408 143.676082,52.3444898 C143.969959,52.4669388 144.165878,52.6383673 144.263837,52.8587755 C144.174041,52.8995918 144.100571,52.964898 144.043429,53.0546939 C143.986286,53.1444898 143.957714,53.2465306 143.957714,53.3608163 C143.957714,53.5077551 144.006694,53.6322449 144.104653,53.7342857 C144.202612,53.8363265 144.325061,53.8873469 144.472,53.8873469 C144.659755,53.8873469 144.804653,53.8261224 144.906694,53.7036735 C145.008735,53.5812245 145.059755,53.4097959 145.059755,53.1893878 C145.059755,52.8628571 144.955673,52.5689796 144.74751,52.3077551 C144.539347,52.0465306 144.251592,51.8444898 143.884245,51.7016327 C143.516898,51.5587755 143.100571,51.4873469 142.635265,51.4873469 C141.516898,51.4873469 140.676082,51.9240816 140.112816,52.797551 C139.549551,53.6710204 139.267918,54.9689796 139.267918,56.6914286 C139.267918,57.8669388 139.531184,58.7628571 140.057714,59.3791837 C140.584245,59.9955102 141.349551,60.3036735 142.353633,60.3036735 Z M142.341388,59.6302041 C141.614857,59.6302041 141.043429,59.4138776 140.627102,58.9812245 C140.210776,58.5485714 140.002612,57.9526531 140.002612,57.1934694 C140.002612,56.842449 140.104653,56.5179592 140.308735,56.22 C140.512816,55.9220408 140.790367,55.6853061 141.141388,55.5097959 C141.492408,55.3342857 141.876082,55.2465306 142.292408,55.2465306 C142.961796,55.2465306 143.494449,55.4444898 143.890367,55.8404082 C144.286286,56.2363265 144.484245,56.7689796 144.484245,57.4383673 C144.484245,58.1159184 144.292408,58.6506122 143.908735,59.042449 C143.525061,59.4342857 143.002612,59.6302041 142.341388,59.6302041 Z M148.390367,60.1812245 C148.52098,60.1812245 148.62302,60.1077551 148.69649,59.9608163 L148.69649,59.9608163 L152.32098,52.4791837 C152.361796,52.3812245 152.390367,52.3036735 152.406694,52.2465306 C152.42302,52.1893878 152.431184,52.1159184 152.431184,52.0261224 L152.431184,52.0261224 L152.431184,51.9893878 C152.431184,51.7363265 152.312816,51.6097959 152.076082,51.6097959 L152.076082,51.6097959 L147.067918,51.6097959 C146.961796,51.6097959 146.872,51.6465306 146.798531,51.72 C146.725061,51.7934694 146.688327,51.8832653 146.688327,51.9893878 L146.688327,51.9893878 L146.688327,52.6628571 C146.688327,52.875102 146.765878,52.9812245 146.92098,52.9812245 L146.92098,52.9812245 L147.129143,52.9812245 C147.284245,52.9812245 147.361796,52.875102 147.361796,52.6628571 L147.361796,52.6628571 L147.361796,52.2832653 L151.659755,52.2832653 L148.035265,59.7526531 C147.986286,59.8587755 147.961796,59.9404082 147.961796,59.997551 C147.961796,60.12 148.043429,60.1812245 148.206694,60.1812245 L148.206694,60.1812245 L148.390367,60.1812245 Z M156.888327,60.3036735 C157.876082,60.3036735 158.625061,60.0771429 159.135265,59.6240816 C159.645469,59.1710204 159.900571,58.5812245 159.900571,57.8546939 C159.900571,57.3485714 159.784245,56.9057143 159.551592,56.5261224 C159.318939,56.1465306 158.982204,55.8546939 158.541388,55.6506122 C158.892408,55.4710204 159.157714,55.2240816 159.337306,54.9097959 C159.516898,54.5955102 159.606694,54.2342857 159.606694,53.8261224 C159.606694,53.4261224 159.514857,53.0485714 159.331184,52.6934694 C159.14751,52.3383673 158.851592,52.0485714 158.443429,51.8240816 C158.035265,51.5995918 157.516898,51.4873469 156.888327,51.4873469 C156.259755,51.4873469 155.741388,51.5995918 155.333224,51.8240816 C154.925061,52.0485714 154.629143,52.3383673 154.445469,52.6934694 C154.261796,53.0485714 154.169959,53.4261224 154.169959,53.8261224 C154.169959,54.2342857 154.259755,54.5955102 154.439347,54.9097959 C154.618939,55.2240816 154.884245,55.4710204 155.235265,55.6506122 C154.794449,55.8546939 154.457714,56.1465306 154.225061,56.5261224 C153.992408,56.9057143 153.876082,57.3485714 153.876082,57.8546939 C153.876082,58.5812245 154.131184,59.1710204 154.641388,59.6240816 C155.151592,60.0771429 155.900571,60.3036735 156.888327,60.3036735 Z M156.888327,55.3444898 C156.251592,55.3444898 155.761796,55.2240816 155.418939,54.9832653 C155.076082,54.742449 154.904653,54.3771429 154.904653,53.8873469 C154.904653,53.4138776 155.053633,53.0077551 155.351592,52.6689796 C155.649551,52.3302041 156.161796,52.1608163 156.888327,52.1608163 C157.614857,52.1608163 158.127102,52.3302041 158.425061,52.6689796 C158.72302,53.0077551 158.872,53.4138776 158.872,53.8873469 C158.872,54.3853061 158.698531,54.7526531 158.351592,54.9893878 C158.004653,55.2261224 157.516898,55.3444898 156.888327,55.3444898 Z M156.888327,59.6302041 C156.12098,59.6302041 155.549551,59.4710204 155.174041,59.1526531 C154.798531,58.8342857 154.610776,58.3934694 154.610776,57.8302041 C154.610776,57.2669388 154.806694,56.8240816 155.198531,56.5016327 C155.590367,56.1791837 156.153633,56.0179592 156.888327,56.0179592 C157.62302,56.0179592 158.186286,56.1791837 158.578122,56.5016327 C158.969959,56.8240816 159.165878,57.2669388 159.165878,57.8302041 C159.165878,58.3934694 158.978122,58.8342857 158.602612,59.1526531 C158.227102,59.4710204 157.655673,59.6302041 156.888327,59.6302041 Z M164.235265,60.3036735 C165.353633,60.3036735 166.194449,59.8669388 166.757714,58.9934694 C167.32098,58.12 167.602612,56.8220408 167.602612,55.0995918 C167.602612,53.9240816 167.339347,53.0281633 166.812816,52.4118367 C166.286286,51.7955102 165.52098,51.4873469 164.516898,51.4873469 C163.961796,51.4873469 163.465878,51.6097959 163.029143,51.8546939 C162.592408,52.0995918 162.253633,52.4383673 162.012816,52.8710204 C161.772,53.3036735 161.651592,53.797551 161.651592,54.3526531 C161.651592,54.9077551 161.776082,55.4016327 162.025061,55.8342857 C162.274041,56.2669388 162.618939,56.6057143 163.059755,56.8506122 C163.500571,57.0955102 164.002612,57.2179592 164.565878,57.2179592 C165.04751,57.2179592 165.486286,57.1118367 165.882204,56.8995918 C166.278122,56.6873469 166.590367,56.3893878 166.818939,56.0057143 C166.753633,56.8791837 166.62302,57.5791837 166.427102,58.1057143 C166.231184,58.6322449 165.961796,59.0179592 165.618939,59.2628571 C165.276082,59.5077551 164.835265,59.6302041 164.29649,59.6302041 C163.855673,59.6302041 163.488327,59.5689796 163.194449,59.4465306 C162.900571,59.3240816 162.704653,59.1526531 162.606694,58.9322449 C162.69649,58.8914286 162.769959,58.8261224 162.827102,58.7363265 C162.884245,58.6465306 162.912816,58.5444898 162.912816,58.4302041 C162.912816,58.2832653 162.863837,58.1587755 162.765878,58.0567347 C162.667918,57.9546939 162.545469,57.9036735 162.398531,57.9036735 C162.210776,57.9036735 162.065878,57.964898 161.963837,58.0873469 C161.861796,58.2097959 161.810776,58.3812245 161.810776,58.6016327 C161.810776,58.9281633 161.914857,59.2220408 162.12302,59.4832653 C162.331184,59.7444898 162.618939,59.9465306 162.986286,60.0893878 C163.353633,60.2322449 163.769959,60.3036735 164.235265,60.3036735 Z M164.578122,56.5444898 C163.908735,56.5444898 163.376082,56.3465306 162.980163,55.9506122 C162.584245,55.5546939 162.386286,55.0220408 162.386286,54.3526531 C162.386286,53.675102 162.578122,53.1404082 162.961796,52.7485714 C163.345469,52.3567347 163.867918,52.1608163 164.529143,52.1608163 C165.255673,52.1608163 165.827102,52.3771429 166.243429,52.8097959 C166.659755,53.242449 166.867918,53.8383673 166.867918,54.597551 C166.867918,54.9485714 166.765878,55.2730612 166.561796,55.5710204 C166.357714,55.8689796 166.080163,56.1057143 165.729143,56.2812245 C165.378122,56.4567347 164.994449,56.5444898 164.578122,56.5444898 Z M172.672,60.3036735 C173.341388,60.3036735 173.916898,60.1179592 174.398531,59.7465306 C174.880163,59.375102 175.249551,58.8506122 175.506694,58.1730612 C175.763837,57.4955102 175.892408,56.6995918 175.892408,55.7853061 C175.892408,54.92 175.763837,54.164898 175.506694,53.52 C175.249551,52.875102 174.878122,52.375102 174.392408,52.02 C173.906694,51.664898 173.333224,51.4873469 172.672,51.4873469 C172.002612,51.4873469 171.427102,51.6730612 170.945469,52.0444898 C170.463837,52.4159184 170.094449,52.9404082 169.837306,53.6179592 C169.580163,54.2955102 169.451592,55.0914286 169.451592,56.0057143 C169.451592,56.8710204 169.580163,57.6261224 169.837306,58.2710204 C170.094449,58.9159184 170.465878,59.4159184 170.951592,59.7710204 C171.437306,60.1261224 172.010776,60.3036735 172.672,60.3036735 Z M172.672,59.6302041 C171.863837,59.6302041 171.24751,59.3118367 170.82302,58.675102 C170.398531,58.0383673 170.186286,57.1485714 170.186286,56.0057143 C170.186286,54.7812245 170.398531,53.8342857 170.82302,53.164898 C171.24751,52.4955102 171.863837,52.1608163 172.672,52.1608163 C173.480163,52.1608163 174.09649,52.4791837 174.52098,53.1159184 C174.945469,53.7526531 175.157714,54.642449 175.157714,55.7853061 C175.157714,57.0097959 174.945469,57.9567347 174.52098,58.6261224 C174.09649,59.2955102 173.480163,59.6302041 172.672,59.6302041 Z" id="solwaylight1234567890"></path>
            </g>
        </g>
    </g>
</svg>