<?xml version="1.0" encoding="UTF-8"?>
<svg width="22px" height="22px" viewBox="0 0 22 22" version="1.1" xmlns="http://www.w3.org/2000/svg" xmlns:xlink="http://www.w3.org/1999/xlink">
    <title>旋转</title>
    <g id="页面-1" stroke="none" stroke-width="1" fill="none" fill-rule="evenodd">
        <g id="编辑图片" transform="translate(-365.000000, -479.000000)">
            <g id="旋转" transform="translate(365.000000, 479.000000)">
                <circle id="椭圆形" stroke="#CED4DB" fill="#FFFFFF" cx="11" cy="11" r="10.5"></circle>
                <path d="M10.9474362,15.670831 C10.8264283,15.6690958 10.7055308,15.6630843 10.5849961,15.6528092 C10.5359365,15.6490151 10.4868769,15.641427 10.4378173,15.6357359 C10.3437031,15.6234051 10.2495888,15.6120229 10.1574769,15.5949496 C10.1004076,15.5845159 10.0453408,15.5712366 9.9902739,15.5579574 C9.90046132,15.5391684 9.81130736,15.5176576 9.72294929,15.4934581 C9.67989701,15.4811274 9.63884717,15.4668996 9.59679611,15.4536203 C9.49530041,15.4225001 9.39510487,15.3876954 9.29643138,15.3492833 C9.27440463,15.3407467 9.2533791,15.330313 9.23135235,15.3208278 C9.11672189,15.2739794 9.00415825,15.2227168 8.89394264,15.1671678 L8.87792319,15.1595797 C8.50797122,14.9673605 8.16854187,14.7265867 7.86969891,14.4443969 L7.85468069,14.4292206 C7.76232632,14.341562 7.67445258,14.249767 7.59136093,14.1541503 L7.5382965,14.089651 C6.90957951,13.3478541 6.56696409,12.4249694 6.56711721,11.4736375 L7.73353357,11.4736375 L5.86626617,8.82063177 L4,11.4736375 L5.16741757,11.4736375 C5.16741757,12.636521 5.54988199,13.7140378 6.19967103,14.6046965 C6.20768076,14.6179757 6.21268683,14.631255 6.22169778,14.6426372 C6.28978044,14.7346435 6.36387042,14.8190616 6.43595794,14.9044282 L6.51605521,15.0030741 C6.6231853,15.125433 6.73632268,15.2402037 6.85246371,15.3530774 C6.86347707,15.3625626 6.87348924,15.3748933 6.88450261,15.385327 C7.27497675,15.7552492 7.71551168,16.0663632 8.19609526,16.314875 C8.34704947,16.3927187 8.50137131,16.4645526 8.65865694,16.5301886 L8.76578703,16.576666 C8.88893656,16.624092 9.01508975,16.6667753 9.14224415,16.7075616 C9.20231709,16.7265319 9.26239005,16.7464508 9.3234642,16.7644727 C9.43560037,16.7957738 9.54873775,16.8213838 9.66387756,16.8469938 C9.73996995,16.8640671 9.81506113,16.8820889 9.89215476,16.8963167 C9.92519487,16.9029563 9.95523135,16.911493 9.98727025,16.9162356 C10.0954016,16.935206 10.2045341,16.9446911 10.3126654,16.9570219 L10.4288064,16.9721982 C11.8156349,17.1048766 13.2064932,16.7597209 14.3465637,15.9999669 C14.6394563,15.7822462 14.7015543,15.3855744 14.4879692,15.0966925 C14.274384,14.8078106 13.8596605,14.7275434 13.5435886,14.9139134 C12.7726525,15.4261133 11.8705571,15.6822133 10.9474362,15.670831 L10.9474362,15.670831 Z M15.8063363,7.40069985 C15.7963241,7.38552355 15.7903168,7.37034727 15.7793034,7.35611949 C15.6992062,7.24703988 15.6121004,7.14649695 15.5239934,7.04500549 L15.493957,7.00706475 C14.9092474,6.33299374 14.1625045,5.80151991 13.3163127,5.45718583 L13.2462276,5.42778175 C13.1110524,5.37616882 12.9741478,5.32871802 12.8357291,5.28550401 C12.7856683,5.2693792 12.73761,5.25230587 12.6855467,5.2380781 C12.5648379,5.2041518 12.4429538,5.17409824 12.320103,5.14796885 C12.2520203,5.13374107 12.1829364,5.11761627 12.1148538,5.10433701 C12.0808124,5.09769738 12.0477723,5.08821219 12.0147322,5.08252109 C11.9226203,5.06734479 11.8295073,5.06070516 11.7373954,5.04932294 C11.6733176,5.0417348 11.6112422,5.03224962 11.5471644,5.02655851 C11.3926744,5.01333975 11.2377055,5.005746 11.0826003,5.00379407 C11.0545663,5.00379407 11.0275334,5 10.9994994,5 L10.9854824,5.00189703 C9.79346221,5.00154244 8.63042788,5.35004347 7.65543874,5.9997383 C7.43514815,6.12963142 7.30863649,6.36419906 7.32660988,6.60942607 C7.34458326,6.85465308 7.50410016,7.0704056 7.74122591,7.17020961 C7.97835165,7.27001363 8.25427824,7.23753521 8.45841378,7.08579178 C9.32087711,6.51096212 10.3725966,6.2487434 11.4220124,6.34689601 C11.4620611,6.35069007 11.5021097,6.35638119 11.5401559,6.36112378 C11.6452836,6.37345452 11.7504112,6.3876823 11.8535364,6.40665266 C11.8985911,6.41518933 11.9436459,6.42562302 11.9876993,6.43510821 C12.0888221,6.45692414 12.1899449,6.48063709 12.2880641,6.50814412 L12.3821784,6.5384967 C12.4943145,6.57359189 12.6054495,6.61058409 12.714582,6.65326742 L12.7476221,6.6674952 C13.3994136,6.93308033 13.972109,7.34284024 14.4186512,7.85504013 L14.4266609,7.8645253 C15.0780976,8.61380518 15.4341798,9.55440113 15.433884,10.5251192 L14.2654652,10.5251192 L16.1327326,13.1781249 L18,10.5241707 L16.8335836,10.5241707 C16.8342642,9.40800197 16.4759367,8.31813259 15.8063363,7.39975133 L15.8063363,7.40069985 Z" id="形状" fill="#000000" fill-rule="nonzero"></path>
            </g>
        </g>
    </g>
</svg>