<?xml version="1.0" encoding="UTF-8"?>
<svg width="60px" height="94px" viewBox="0 0 60 94" version="1.1" xmlns="http://www.w3.org/2000/svg" xmlns:xlink="http://www.w3.org/1999/xlink">
    <!-- Generator: Sketch 53.1 (72631) - https://sketchapp.com -->
    <title>0</title>
    <desc>Created with Sketch.</desc>
    <g id="Page-1" stroke="none" stroke-width="1" fill="none" fill-rule="evenodd">
        <g id="Artboard" transform="translate(-910.000000, -415.000000)" fill="#F04819" fill-rule="nonzero">
            <path d="M945.859375,485.5625 L945.859375,438.6875 L934.140625,438.6875 L934.140625,485.5625 L945.859375,485.5625 Z M920.078125,509 C917.864572,509 915.748708,508.121103 913.730469,506.363281 C911.712229,504.60546 910.703125,502.619803 910.703125,500.40625 L910.703125,423.84375 C910.703125,421.630197 911.712229,419.64454 913.730469,417.886719 C915.748708,416.128897 917.864572,415.25 920.078125,415.25 L959.921875,415.25 C962.135428,415.25 964.251292,416.128897 966.269531,417.886719 C968.287771,419.64454 969.296875,421.630197 969.296875,423.84375 L969.296875,500.40625 C969.296875,502.619803 968.287771,504.60546 966.269531,506.363281 C964.251292,508.121103 962.135428,509 959.921875,509 L920.078125,509 Z" id="0"></path>
        </g>
    </g>
</svg>