<?xml version="1.0" encoding="UTF-8"?>
<svg width="60px" height="94px" viewBox="0 0 60 94" version="1.1" xmlns="http://www.w3.org/2000/svg" xmlns:xlink="http://www.w3.org/1999/xlink">
    <!-- Generator: Sketch 53.1 (72631) - https://sketchapp.com -->
    <title>2</title>
    <desc>Created with Sketch.</desc>
    <g id="Page-1" stroke="none" stroke-width="1" fill="none" fill-rule="evenodd">
        <g id="Artboard" transform="translate(-242.000000, -415.000000)" fill="#F04819" fill-rule="nonzero">
            <path d="M242.703125,509 L242.703125,480.875 L277.859375,444.9375 L277.859375,438.6875 L266.140625,438.6875 L266.140625,443.375 L242.703125,443.375 L242.703125,434.78125 C242.703125,432.567697 243.256505,430.289074 244.363281,427.945312 C245.470058,425.601551 246.902335,423.485687 248.660156,421.597656 C250.417978,419.709626 252.436187,418.179693 254.714844,417.007812 C256.993501,415.835932 259.239572,415.25 261.453125,415.25 L282.546875,415.25 C284.760428,415.25 287.006499,415.835932 289.285156,417.007812 C291.563813,418.179693 293.582022,419.709626 295.339844,421.597656 C297.097665,423.485687 298.529942,425.601551 299.636719,427.945312 C300.743495,430.289074 301.296875,432.567697 301.296875,434.78125 L301.296875,450.40625 L266.921875,485.5625 L277.859375,485.5625 L277.859375,480.875 L301.296875,480.875 L301.296875,509 L242.703125,509 Z" id="2"></path>
        </g>
    </g>
</svg>