<?xml version="1.0" encoding="UTF-8"?>
<svg width="60px" height="94px" viewBox="0 0 60 94" version="1.1" xmlns="http://www.w3.org/2000/svg" xmlns:xlink="http://www.w3.org/1999/xlink">
    <!-- Generator: Sketch 53.1 (72631) - https://sketchapp.com -->
    <title>3</title>
    <desc>Created with Sketch.</desc>
    <g id="Page-1" stroke="none" stroke-width="1" fill="none" fill-rule="evenodd">
        <g id="Artboard" transform="translate(-322.000000, -415.000000)" fill="#F04819" fill-rule="nonzero">
            <path d="M341.453125,509 C339.239572,509 336.993501,508.414068 334.714844,507.242188 C332.436187,506.070307 330.417978,504.540374 328.660156,502.652344 C326.902335,500.764313 325.470058,498.648449 324.363281,496.304688 C323.256505,493.960926 322.703125,491.682303 322.703125,489.46875 L322.703125,476.1875 L346.140625,476.1875 L346.140625,485.5625 L357.859375,485.5625 L357.859375,469.15625 L337.546875,469.15625 L357.078125,438.6875 L346.140625,438.6875 L346.140625,443.375 L322.703125,443.375 L322.703125,415.25 L381.296875,415.25 L381.296875,439.46875 L371.140625,455.09375 C373.09376,455.875004 374.786451,456.981764 376.21875,458.414062 C377.52084,459.585943 378.692703,461.148428 379.734375,463.101562 C380.776047,465.054697 381.296875,467.33332 381.296875,469.9375 L381.296875,489.46875 C381.296875,491.682303 380.743495,493.960926 379.636719,496.304688 C378.529942,498.648449 377.097665,500.764313 375.339844,502.652344 C373.582022,504.540374 371.563813,506.070307 369.285156,507.242188 C367.006499,508.414068 364.760428,509 362.546875,509 L341.453125,509 Z" id="3"></path>
        </g>
    </g>
</svg>