<?xml version="1.0" encoding="UTF-8"?>
<svg width="60px" height="94px" viewBox="0 0 60 94" version="1.1" xmlns="http://www.w3.org/2000/svg" xmlns:xlink="http://www.w3.org/1999/xlink">
    <!-- Generator: Sketch 53.1 (72631) - https://sketchapp.com -->
    <title>5</title>
    <desc>Created with Sketch.</desc>
    <g id="Page-1" stroke="none" stroke-width="1" fill="none" fill-rule="evenodd">
        <g id="Artboard" transform="translate(-500.000000, -415.000000)" fill="#F04819" fill-rule="nonzero">
            <path d="M519.453125,509 C517.239572,509 514.993501,508.414068 512.714844,507.242188 C510.436187,506.070307 508.417978,504.540374 506.660156,502.652344 C504.902335,500.764313 503.470058,498.648449 502.363281,496.304688 C501.256505,493.960926 500.703125,491.682303 500.703125,489.46875 L500.703125,480.875 L524.140625,480.875 L524.140625,485.5625 L535.859375,485.5625 L535.859375,473.84375 L519.453125,473.84375 C517.239572,473.84375 514.993501,473.257818 512.714844,472.085938 C510.436187,470.914057 508.417978,469.384124 506.660156,467.496094 C504.902335,465.608063 503.470058,463.492199 502.363281,461.148438 C501.256505,458.804676 500.703125,456.526053 500.703125,454.3125 L500.703125,415.25 L559.296875,415.25 L559.296875,438.6875 L524.140625,438.6875 L524.140625,450.40625 L540.546875,450.40625 C542.760428,450.40625 545.006499,450.992182 547.285156,452.164062 C549.563813,453.335943 551.582022,454.865876 553.339844,456.753906 C555.097665,458.641937 556.529942,460.757801 557.636719,463.101562 C558.743495,465.445324 559.296875,467.723947 559.296875,469.9375 L559.296875,489.46875 C559.296875,491.682303 558.743495,493.960926 557.636719,496.304688 C556.529942,498.648449 555.097665,500.764313 553.339844,502.652344 C551.582022,504.540374 549.563813,506.070307 547.285156,507.242188 C545.006499,508.414068 542.760428,509 540.546875,509 L519.453125,509 Z" id="5"></path>
        </g>
    </g>
</svg>