<?xml version="1.0" encoding="UTF-8"?>
<svg width="60px" height="94px" viewBox="0 0 60 94" version="1.1" xmlns="http://www.w3.org/2000/svg" xmlns:xlink="http://www.w3.org/1999/xlink">
    <!-- Generator: Sketch 53.1 (72631) - https://sketchapp.com -->
    <title>6</title>
    <desc>Created with Sketch.</desc>
    <g id="Page-1" stroke="none" stroke-width="1" fill="none" fill-rule="evenodd">
        <g id="Artboard" transform="translate(-580.000000, -415.000000)" fill="#F04819" fill-rule="nonzero">
            <path d="M615.859375,485.5625 L615.859375,473.84375 L604.140625,473.84375 L604.140625,485.5625 L615.859375,485.5625 Z M599.453125,509 C597.239572,509 594.993501,508.414068 592.714844,507.242188 C590.436187,506.070307 588.417978,504.540374 586.660156,502.652344 C584.902335,500.764313 583.470058,498.648449 582.363281,496.304688 C581.256505,493.960926 580.703125,491.682303 580.703125,489.46875 L580.703125,434.78125 C580.703125,432.567697 581.256505,430.289074 582.363281,427.945312 C583.470058,425.601551 584.902335,423.485687 586.660156,421.597656 C588.417978,419.709626 590.436187,418.179693 592.714844,417.007812 C594.993501,415.835932 597.239572,415.25 599.453125,415.25 L620.546875,415.25 C622.760428,415.25 625.006499,415.835932 627.285156,417.007812 C629.563813,418.179693 631.582022,419.709626 633.339844,421.597656 C635.097665,423.485687 636.529942,425.601551 637.636719,427.945312 C638.743495,430.289074 639.296875,432.567697 639.296875,434.78125 L639.296875,443.375 L615.859375,443.375 L615.859375,438.6875 L604.140625,438.6875 L604.140625,450.40625 L620.546875,450.40625 C622.760428,450.40625 625.006499,450.992182 627.285156,452.164062 C629.563813,453.335943 631.582022,454.865876 633.339844,456.753906 C635.097665,458.641937 636.529942,460.757801 637.636719,463.101562 C638.743495,465.445324 639.296875,467.723947 639.296875,469.9375 L639.296875,489.46875 C639.296875,491.682303 638.743495,493.960926 637.636719,496.304688 C636.529942,498.648449 635.097665,500.764313 633.339844,502.652344 C631.582022,504.540374 629.563813,506.070307 627.285156,507.242188 C625.006499,508.414068 622.760428,509 620.546875,509 L599.453125,509 Z" id="6"></path>
        </g>
    </g>
</svg>