<?xml version="1.0" encoding="UTF-8"?>
<svg width="60px" height="94px" viewBox="0 0 60 94" version="1.1" xmlns="http://www.w3.org/2000/svg" xmlns:xlink="http://www.w3.org/1999/xlink">
    <!-- Generator: Sketch 53.1 (72631) - https://sketchapp.com -->
    <title>8</title>
    <desc>Created with Sketch.</desc>
    <g id="Page-1" stroke="none" stroke-width="1" fill="none" fill-rule="evenodd">
        <g id="Artboard" transform="translate(-760.000000, -415.000000)" fill="#F04819" fill-rule="nonzero">
            <path d="M795.859375,485.5625 L795.859375,473.84375 L784.140625,473.84375 L784.140625,485.5625 L795.859375,485.5625 Z M795.859375,450.40625 L795.859375,438.6875 L784.140625,438.6875 L784.140625,450.40625 L795.859375,450.40625 Z M779.453125,509 C777.239572,509 774.993501,508.414068 772.714844,507.242188 C770.436187,506.070307 768.417978,504.540374 766.660156,502.652344 C764.902335,500.764313 763.470058,498.648449 762.363281,496.304688 C761.256505,493.960926 760.703125,491.682303 760.703125,489.46875 L760.703125,469.9375 C760.703125,468.244783 760.865884,466.910161 761.191406,465.933594 C761.516929,464.957026 761.874998,464.143232 762.265625,463.492188 C762.786461,462.841143 763.307289,462.385418 763.828125,462.125 C763.307289,461.864582 762.786461,461.408857 762.265625,460.757812 C761.874998,460.106768 761.516929,459.292974 761.191406,458.316406 C760.865884,457.339839 760.703125,456.005217 760.703125,454.3125 L760.703125,434.78125 C760.703125,432.567697 761.256505,430.289074 762.363281,427.945312 C763.470058,425.601551 764.902335,423.485687 766.660156,421.597656 C768.417978,419.709626 770.436187,418.179693 772.714844,417.007812 C774.993501,415.835932 777.239572,415.25 779.453125,415.25 L800.546875,415.25 C802.760428,415.25 805.006499,415.835932 807.285156,417.007812 C809.563813,418.179693 811.582022,419.709626 813.339844,421.597656 C815.097665,423.485687 816.529942,425.601551 817.636719,427.945312 C818.743495,430.289074 819.296875,432.567697 819.296875,434.78125 L819.296875,454.3125 C819.296875,456.005217 819.134116,457.339839 818.808594,458.316406 C818.483071,459.292974 818.125002,460.106768 817.734375,460.757812 C817.213539,461.408857 816.692711,461.864582 816.171875,462.125 C816.692711,462.385418 817.213539,462.841143 817.734375,463.492188 C818.125002,464.143232 818.483071,464.957026 818.808594,465.933594 C819.134116,466.910161 819.296875,468.244783 819.296875,469.9375 L819.296875,489.46875 C819.296875,491.682303 818.743495,493.960926 817.636719,496.304688 C816.529942,498.648449 815.097665,500.764313 813.339844,502.652344 C811.582022,504.540374 809.563813,506.070307 807.285156,507.242188 C805.006499,508.414068 802.760428,509 800.546875,509 L779.453125,509 Z" id="8"></path>
        </g>
    </g>
</svg>