<?xml version="1.0" encoding="UTF-8"?>
<svg width="60px" height="94px" viewBox="0 0 60 94" version="1.1" xmlns="http://www.w3.org/2000/svg" xmlns:xlink="http://www.w3.org/1999/xlink">
    <!-- Generator: Sketch 53.1 (72631) - https://sketchapp.com -->
    <title>9</title>
    <desc>Created with Sketch.</desc>
    <g id="Page-1" stroke="none" stroke-width="1" fill="none" fill-rule="evenodd">
        <g id="Artboard" transform="translate(-840.000000, -415.000000)" fill="#F04819" fill-rule="nonzero">
            <path d="M875.859375,450.40625 L875.859375,438.6875 L864.140625,438.6875 L864.140625,450.40625 L875.859375,450.40625 Z M859.453125,509 C857.239572,509 854.993501,508.414068 852.714844,507.242188 C850.436187,506.070307 848.417978,504.540374 846.660156,502.652344 C844.902335,500.764313 843.470058,498.648449 842.363281,496.304688 C841.256505,493.960926 840.703125,491.682303 840.703125,489.46875 L840.703125,480.875 L864.140625,480.875 L864.140625,485.5625 L875.859375,485.5625 L875.859375,473.84375 L859.453125,473.84375 C857.239572,473.84375 854.993501,473.257818 852.714844,472.085938 C850.436187,470.914057 848.417978,469.384124 846.660156,467.496094 C844.902335,465.608063 843.470058,463.492199 842.363281,461.148438 C841.256505,458.804676 840.703125,456.526053 840.703125,454.3125 L840.703125,434.78125 C840.703125,432.567697 841.256505,430.289074 842.363281,427.945312 C843.470058,425.601551 844.902335,423.485687 846.660156,421.597656 C848.417978,419.709626 850.436187,418.179693 852.714844,417.007812 C854.993501,415.835932 857.239572,415.25 859.453125,415.25 L880.546875,415.25 C882.760428,415.25 885.006499,415.835932 887.285156,417.007812 C889.563813,418.179693 891.582022,419.709626 893.339844,421.597656 C895.097665,423.485687 896.529942,425.601551 897.636719,427.945312 C898.743495,430.289074 899.296875,432.567697 899.296875,434.78125 L899.296875,489.46875 C899.296875,491.682303 898.743495,493.960926 897.636719,496.304688 C896.529942,498.648449 895.097665,500.764313 893.339844,502.652344 C891.582022,504.540374 889.563813,506.070307 887.285156,507.242188 C885.006499,508.414068 882.760428,509 880.546875,509 L859.453125,509 Z" id="9"></path>
        </g>
    </g>
</svg>