<?xml version="1.0" encoding="UTF-8"?>
<svg width="14px" height="15px" viewBox="0 0 14 15" version="1.1" xmlns="http://www.w3.org/2000/svg" xmlns:xlink="http://www.w3.org/1999/xlink">
    <title>顶部编辑</title>
    <g id="控件" stroke="none" stroke-width="1" fill="none" fill-rule="evenodd" opacity="0.400000006">
        <g id="顶部栏" transform="translate(-169.000000, -18.000000)" fill="#FFFFFF" fill-rule="nonzero">
            <g id="顶部编辑">
                <path d="M182.754217,21.2001642 C182.754217,21.2001642 183.320944,20.7584733 182.733263,20.1696092 L180.993037,18.347146 C180.993037,18.347146 180.473685,17.6375299 179.86507,18.2474241 L178.707038,19.4974435 L181.62718,22.3532238 L182.754217,21.2001452 L182.754217,21.2001642 Z M180.969331,23.1209397 L177.877913,20.1860676 L170.858643,27.2729144 L174.023856,30.0029708 L180.969331,23.1209588 L180.969331,23.1209397 Z M170.479649,31.8492072 L169.297019,30.7523805 L169.001025,32.0636236 L169,32.0636236 L169,33 L182.994771,33 L182.994771,32.0636236 L169.030975,32.0636236 L170.479668,31.8492072 L170.479649,31.8492072 Z M173.116418,30.7706105 L170.001294,28.1516864 L169.605863,29.9105637 L171.414418,31.4445477 L173.116418,30.7706295 L173.116418,30.7706105 Z"></path>
            </g>
        </g>
    </g>
</svg>