<?xml version="1.0" encoding="UTF-8"?>
<svg width="18px" height="18px" viewBox="0 0 18 18" version="1.1" xmlns="http://www.w3.org/2000/svg" xmlns:xlink="http://www.w3.org/1999/xlink">
    <title>顶部重做</title>
    <g id="顶部重做" stroke="none" stroke-width="1" fill="none" fill-rule="evenodd">
        <g fill="#D8D8D8" id="Path">
            <path d="M2.68188604,5.99863281 C3.67399174,4.89863281 4.98892547,4.290625 6.38653469,4.290625 L13.9454352,4.290625 L12.0675209,2.60410156 C11.8155575,2.37851563 11.7801252,1.97246094 11.9868138,1.69746094 C12.1935025,1.42246094 12.5655422,1.38378906 12.8175055,1.609375 L15.9453943,4.41738281 C16.0910606,4.53554688 16.1855469,4.72246094 16.1855469,4.93515625 C16.1855469,5.14570313 16.0930291,5.33261719 15.9493312,5.45078125 L12.8234109,8.2953125 C12.7171139,8.39199219 12.5832583,8.44570313 12.4454659,8.44570313 C12.2683042,8.44570313 12.1029532,8.35976563 11.9887823,8.21367188 C11.7801252,7.93867188 11.8155575,7.53261719 12.0655524,7.30703125 L13.9611829,5.58398438 L6.38653469,5.58398438 C5.30978505,5.58398438 4.29208933,6.05449219 3.52242003,6.90527344 C1.92796446,8.67558594 1.92796446,11.5136719 3.52242003,13.2839844 C4.29208933,14.1369141 5.30781659,14.6052734 6.38653469,14.6052734 L12.8824648,14.6052734 C13.2092298,14.6052734 13.4730039,14.8931641 13.4730039,15.2498047 C13.4730039,15.6064453 13.2092298,15.8943359 12.8824648,15.8943359 L6.38653469,15.8943359 C4.98892547,15.8943359 3.67399174,15.2884766 2.68188604,14.1863281 C0.634683819,11.9132812 0.634683819,8.26953125 2.68188604,5.99863281 Z"></path>
        </g>
    </g>
</svg>