<?xml version="1.0" encoding="UTF-8"?>
<svg width="18px" height="18px" viewBox="0 0 18 18" version="1.1" xmlns="http://www.w3.org/2000/svg" xmlns:xlink="http://www.w3.org/1999/xlink">
    <title>顶部撤销</title>
    <g id="顶部撤销" stroke="none" stroke-width="1" fill="none" fill-rule="evenodd">
        <g fill="#D8D8D8" id="Path">
            <path d="M14.318114,5.99863281 C13.3260083,4.89863281 12.0110745,4.290625 10.6134653,4.290625 L3.05456479,4.290625 L4.93247914,2.60410156 C5.18444249,2.37851563 5.21987484,1.97246094 5.01318615,1.69746094 C4.80649746,1.42246094 4.43445783,1.38378906 4.18249448,1.609375 L1.05460569,4.41738281 C0.908939382,4.53554688 0.814453125,4.72246094 0.814453125,4.93515625 C0.814453125,5.14570313 0.906970918,5.33261719 1.05066877,5.45078125 L4.17658909,8.2953125 C4.28288613,8.39199219 4.41674166,8.44570313 4.55453411,8.44570313 C4.73169584,8.44570313 4.89704679,8.35976563 5.01121769,8.21367188 C5.21987484,7.93867188 5.18444249,7.53261719 4.9344476,7.30703125 L3.03881708,5.58398438 L10.6134653,5.58398438 C11.6902149,5.58398438 12.7079107,6.05449219 13.47758,6.90527344 C15.0720355,8.67558594 15.0720355,11.5136719 13.47758,13.2839844 C12.7079107,14.1369141 11.6921834,14.6052734 10.6134653,14.6052734 L4.11753518,14.6052734 C3.79077021,14.6052734 3.52699607,14.8931641 3.52699607,15.2498047 C3.52699607,15.6064453 3.79077021,15.8943359 4.11753518,15.8943359 L10.6134653,15.8943359 C12.0110745,15.8943359 13.3260083,15.2884766 14.318114,14.1863281 C16.3653162,11.9132813 16.3653162,8.26953125 14.318114,5.99863281 Z"></path>
        </g>
    </g>
</svg>