<?xml version="1.0" encoding="UTF-8"?>
<svg width="26px" height="8px" viewBox="0 0 26 8" version="1.1" xmlns="http://www.w3.org/2000/svg" xmlns:xlink="http://www.w3.org/1999/xlink">
    <title>NEW</title>
    <defs>
        <linearGradient x1="100%" y1="45.2662722%" x2="50%" y2="54.7337278%" id="linearGradient-1">
            <stop stop-color="#FF5B84" offset="0%"></stop>
            <stop stop-color="#EC021F" offset="100%"></stop>
        </linearGradient>
    </defs>
    <g id="页面-1" stroke="none" stroke-width="1" fill="none" fill-rule="evenodd">
        <g id="图表模板" transform="translate(-783.000000, -896.000000)" fill="url(#linearGradient-1)" fill-rule="nonzero">
            <path d="M784.714771,904 L785.587607,897.913545 L785.656198,897.913545 L787.526996,904 L789.916243,904 L791.063494,896 L789.360155,896 L788.540218,901.717579 L788.471627,901.717579 L786.79943,896 L784.147251,896 L783,904 L784.714771,904 Z M796.683873,904 L796.902083,902.478386 L793.632586,902.478386 L793.897081,900.634006 L796.777897,900.634006 L796.98784,899.170029 L794.107025,899.170029 L794.343418,897.521614 L797.45287,897.521614 L797.671079,896 L792.823993,896 L791.676742,904 L796.683873,904 Z M801.325187,904 L803.298618,898.927954 L803.367209,898.927954 L803.863048,904 L806.035092,904 L809,896 L807.205206,896 L805.191122,901.913545 L805.122531,901.913545 L804.716633,896.772334 L802.704635,896.772334 L800.755581,901.913545 L800.68699,901.913545 L800.391849,896 L798.574192,896 L799.153144,904 L801.325187,904 Z" id="NEW"></path>
        </g>
    </g>
</svg>