<?xml version="1.0" encoding="UTF-8"?>
<svg width="32px" height="32px" viewBox="0 0 32 32" version="1.1" xmlns="http://www.w3.org/2000/svg" xmlns:xlink="http://www.w3.org/1999/xlink">
    <!-- Generator: Sketch 63.1 (92452) - https://sketch.com -->
    <title>customerservice-fill</title>
    <desc>Created with Sketch.</desc>
    <g id="customerservice-fill" stroke="none" stroke-width="1" fill="none" fill-rule="evenodd">
        <g fill-rule="nonzero">
            <rect id="矩形" fill="#000000" opacity="0" x="0" y="0" width="31.8577778" height="31.8577778"></rect>
            <path d="M15.9288889,5.26222222 C10.0372222,5.26222222 5.26222222,10.0372222 5.26222222,15.9288889 L5.26222222,25.9288889 C5.26222222,26.2983333 5.55944444,26.5955556 5.92888889,26.5955556 L11.04,26.5955556 C12.0205556,26.5955556 12.8177778,25.7983333 12.8177778,24.8177778 L12.8177778,19.04 C12.8177778,18.0594444 12.0205556,17.2622222 11.04,17.2622222 L7.26222222,17.2622222 L7.26222222,15.9288889 C7.26222222,11.1427778 11.1427778,7.26222222 15.9288889,7.26222222 C20.715,7.26222222 24.5955556,11.1427778 24.5955556,15.9288889 L24.5955556,17.2622222 L20.8177778,17.2622222 C19.8372222,17.2622222 19.04,18.0594444 19.04,19.04 L19.04,24.8177778 C19.04,25.7983333 19.8372222,26.5955556 20.8177778,26.5955556 L25.9288889,26.5955556 C26.2983333,26.5955556 26.5955556,26.2983333 26.5955556,25.9288889 L26.5955556,15.9288889 C26.5955556,10.0372222 21.8205556,5.26222222 15.9288889,5.26222222 Z" id="路径" fill="#000000"></path>
        </g>
    </g>
</svg>