<?xml version="1.0" encoding="UTF-8"?>
<svg width="32px" height="32px" viewBox="0 0 32 32" version="1.1" xmlns="http://www.w3.org/2000/svg" xmlns:xlink="http://www.w3.org/1999/xlink">
    <!-- Generator: Sketch 63.1 (92452) - https://sketch.com -->
    <title>phone-fill</title>
    <desc>Created with Sketch.</desc>
    <g id="phone-fill" stroke="none" stroke-width="1" fill="none" fill-rule="evenodd">
        <g fill-rule="nonzero">
            <rect id="矩形" fill="#000000" opacity="0" x="0" y="0" width="31.8577778" height="31.8577778"></rect>
            <path d="M25.6012682,8.63309601 L22.8440279,5.87840345 C22.4479173,5.48228695 21.917181,5.26222222 21.360555,5.26222222 C20.7987511,5.26222222 20.2706037,5.48228695 19.8744931,5.87840345 L16.9075472,8.84539374 C16.5114366,9.24151025 16.2913752,9.77225458 16.2913752,10.3288889 C16.2913752,10.8907012 16.5114366,11.4188565 16.9075472,11.814973 L19.077094,13.9845523 C18.5670693,15.1081769 17.8654617,16.1178857 16.9929828,16.9903776 C16.1230929,17.8654585 15.1108104,18.5670766 13.9872026,19.0822869 L11.8176558,16.9127077 C11.4215452,16.5165912 10.8908088,16.2965264 10.3341829,16.2965264 C9.77237897,16.2965264 9.24423154,16.5165912 8.84812096,16.9127077 L5.87858613,19.877109 C5.48247556,20.2732255 5.26241413,20.8039698 5.26241413,21.3631931 C5.26241413,21.9250054 5.48247556,22.4531607 5.87858613,22.8492772 L8.63064849,25.6013808 C9.26235424,26.235685 10.1348331,26.5955556 11.0306126,26.5955556 C11.2196065,26.5955556 11.4008336,26.5800216 11.5794717,26.5489536 C15.069387,25.9741963 18.5308239,24.1178857 21.3243096,21.3269471 C24.1152063,18.5385976 25.9689002,15.079698 26.5514158,11.5793743 C26.7274649,10.5101187 26.3727777,9.40979504 25.6012682,8.63309601 Z" id="路径" fill="#323B47"></path>
        </g>
    </g>
</svg>