<?xml version="1.0" encoding="UTF-8"?>
<svg width="16px" height="19px" viewBox="0 0 16 19" version="1.1" xmlns="http://www.w3.org/2000/svg" xmlns:xlink="http://www.w3.org/1999/xlink">
    <!-- Generator: Sketch 63.1 (92452) - https://sketch.com -->
    <title>location</title>
    <desc>Created with Sketch.</desc>
    <g id="页面-1" stroke="none" stroke-width="1" fill="none" fill-rule="evenodd">
        <g id="首页" transform="translate(-238.000000, -4051.000000)">
            <g id="首页底部" transform="translate(236.000000, 3980.000000)">
                <g id="内容">
                    <g id="底部内容" transform="translate(0.000000, 71.000000)">
                        <g id="文字">
                            <g>
                                <g id="地址1">
                                    <g id="location">
                                        <g id="编组" transform="translate(2.000000, 0.000000)">
                                            <path d="M8,1.1875 C9.76810993,1.1875 11.4638027,1.81305624 12.7140452,2.92655349 C13.9642877,4.04005073 14.6666667,5.55027709 14.6666667,7.125 C14.6666667,9.393125 10.9066667,14.1075 8,17.195 C5.09333333,14.119375 1.33333333,9.393125 1.33333333,7.125 C1.33333333,3.8458093 4.31810167,1.1875 8,1.1875 M8,0 C3.581722,0 0,3.18997116 0,7.125 C0,11.055625 8,19 8,19 C8,19 16,11.055625 16,7.125 C16,3.18997116 12.418278,0 8,0 Z" id="形状结合" fill="#999999" fill-rule="nonzero"></path>
                                            <circle id="椭圆形" stroke="#666666" cx="8" cy="7" r="2.5"></circle>
                                        </g>
                                    </g>
                                </g>
                            </g>
                        </g>
                    </g>
                </g>
            </g>
        </g>
    </g>
</svg>