<?xml version="1.0" encoding="UTF-8"?>
<svg width="32px" height="32px" viewBox="0 0 32 32" version="1.1" xmlns="http://www.w3.org/2000/svg" xmlns:xlink="http://www.w3.org/1999/xlink">
    <!-- Generator: Sketch 63.1 (92452) - https://sketch.com -->
    <title>mail-fill</title>
    <desc>Created with Sketch.</desc>
    <g id="mail-fill" stroke="none" stroke-width="1" fill="none" fill-rule="evenodd">
        <g fill-rule="nonzero">
            <rect id="矩形" fill="#000000" opacity="0" x="0" y="0" width="31.8577778" height="31.8577778"></rect>
            <path d="M27.4387302,6.82666667 L4.98793651,6.82666667 C4.51031746,6.82666667 4.12444444,7.20222222 4.12444444,7.66707071 L4.12444444,24.4751515 C4.12444444,24.94 4.51031746,25.3155556 4.98793651,25.3155556 L27.4387302,25.3155556 C27.9163492,25.3155556 28.3022222,24.94 28.3022222,24.4751515 L28.3022222,7.66707071 C28.3022222,7.20222222 27.9163492,6.82666667 27.4387302,6.82666667 Z M25.3796037,9.9850573 L16.5840547,15.9597697 C16.3666054,16.1082249 16.0627338,16.1082249 15.8452844,15.9597697 L7.04694764,9.9850573 C6.99676702,9.95098562 6.96888889,9.8998781 6.96888889,9.84633689 C6.96888889,9.74898924 7.05809889,9.67111111 7.1696114,9.67111111 L25.2569399,9.67111111 C25.3182718,9.67111111 25.3768159,9.69544803 25.4158452,9.73925447 C25.4827527,9.8146989 25.4688137,9.92421502 25.3796037,9.9850573 Z" id="形状" fill="#000000"></path>
        </g>
    </g>
</svg>