<?xml version="1.0" encoding="UTF-8"?>
<svg width="32px" height="32px" viewBox="0 0 32 32" version="1.1" xmlns="http://www.w3.org/2000/svg" xmlns:xlink="http://www.w3.org/1999/xlink">
    <!-- Generator: Sketch 63.1 (92452) - https://sketch.com -->
    <title>wechat-fill</title>
    <desc>Created with Sketch.</desc>
    <g id="wechat-fill" stroke="none" stroke-width="1" fill="none" fill-rule="evenodd">
        <g fill-rule="nonzero">
            <rect id="矩形" fill="#000000" opacity="0" x="0" y="0" width="31.8577778" height="31.8577778"></rect>
            <path d="M21.4697778,11.7413333 C21.6533333,11.7413333 21.8368889,11.7475556 22.0173333,11.7568889 C21.2582222,7.75288889 17.0924444,4.69155556 12.0648889,4.69155556 C6.50222222,4.69155556 1.99111111,8.44355556 1.99111111,13.0728889 C1.99111111,15.596 3.34755556,17.8702222 5.47244444,19.4071111 C5.64355556,19.5284444 5.75555556,19.7275556 5.75555556,19.9546667 C5.75555556,20.0293333 5.74,20.0977778 5.72133333,20.1693333 C5.55022222,20.8008889 5.27955556,21.812 5.26711111,21.8586667 C5.24533333,21.9395556 5.21422222,22.0204444 5.21422222,22.1044444 C5.21422222,22.288 5.36355556,22.4404444 5.55022222,22.4404444 C5.62177778,22.4404444 5.68088889,22.4124444 5.74311111,22.3782222 L7.94888889,21.1057778 C8.11377778,21.0093333 8.29111111,20.9502222 8.484,20.9502222 C8.58355556,20.9502222 8.68311111,20.9657778 8.77955556,20.9937778 C9.80933333,21.2893333 10.92,21.4542222 12.068,21.4542222 C12.2546667,21.4542222 12.4382222,21.4511111 12.6217778,21.4417778 C12.4008889,20.7884444 12.2826667,20.1008889 12.2826667,19.3884444 C12.2826667,15.1635556 16.3955556,11.7413333 21.4697778,11.7413333 L21.4697778,11.7413333 Z M15.4248889,9.05022222 C16.1653333,9.05022222 16.7688889,9.65066667 16.7688889,10.3911111 C16.7688889,11.1315556 16.1684444,11.732 15.4248889,11.732 C14.6844444,11.732 14.0808889,11.1315556 14.0808889,10.3911111 C14.0808889,9.65066667 14.6844444,9.05022222 15.4248889,9.05022222 Z M8.708,11.732 C7.96755556,11.732 7.364,11.1315556 7.364,10.3911111 C7.364,9.65066667 7.96444444,9.05022222 8.708,9.05022222 C9.45155556,9.05022222 10.052,9.65066667 10.052,10.3911111 C10.052,11.1315556 9.44844444,11.732 8.708,11.732 Z M26.964,24.6617778 C28.7342222,23.38 29.8635556,21.4884444 29.8635556,19.3822222 C29.8635556,15.5244444 26.1053333,12.3977778 21.4666667,12.3977778 C16.8311111,12.3977778 13.0697778,15.5244444 13.0697778,19.3822222 C13.0697778,23.24 16.828,26.3666667 21.4666667,26.3666667 C22.4248889,26.3666667 23.352,26.2297778 24.2075556,25.984 C24.2884444,25.9591111 24.3693333,25.9466667 24.4533333,25.9466667 C24.6151111,25.9466667 24.7613333,25.9964444 24.8982222,26.0742222 L26.7368889,27.132 C26.7897778,27.1631111 26.8395556,27.1848889 26.8986667,27.1848889 C26.9733333,27.1848889 27.0448889,27.1568889 27.0977778,27.104 C27.1506667,27.0511111 27.1786667,26.9795556 27.1786667,26.9048889 C27.1786667,26.8364444 27.1506667,26.768 27.1351111,26.6995556 C27.1257778,26.6622222 26.8986667,25.8191111 26.7555556,25.2902222 C26.74,25.2311111 26.7275556,25.172 26.7275556,25.1128889 C26.7306667,24.9293333 26.824,24.7644444 26.964,24.6617778 Z M18.6728889,18.2684444 C18.0537778,18.2684444 17.5528889,17.7675556 17.5528889,17.1515556 C17.5528889,16.5355556 18.0537778,16.0346667 18.6728889,16.0346667 C19.292,16.0346667 19.7928889,16.5355556 19.7928889,17.1515556 C19.7928889,17.7675556 19.2888889,18.2684444 18.6728889,18.2684444 Z M24.2697778,18.2684444 C23.6506667,18.2684444 23.1497778,17.7675556 23.1497778,17.1515556 C23.1497778,16.5355556 23.6506667,16.0346667 24.2697778,16.0346667 C24.8888889,16.0346667 25.3897778,16.5355556 25.3897778,17.1515556 C25.3866667,17.7675556 24.8857778,18.2684444 24.2697778,18.2684444 Z" id="形状" fill="#323B47"></path>
        </g>
    </g>
</svg>