<?xml version="1.0" encoding="UTF-8"?>
<svg width="32px" height="32px" viewBox="0 0 32 32" version="1.1" xmlns="http://www.w3.org/2000/svg" xmlns:xlink="http://www.w3.org/1999/xlink">
    <!-- Generator: Sketch 63.1 (92452) - https://sketch.com -->
    <title>weibo</title>
    <desc>Created with Sketch.</desc>
    <g id="weibo" stroke="none" stroke-width="1" fill="none" fill-rule="evenodd">
        <g fill-rule="nonzero">
            <rect id="矩形" fill="#000000" opacity="0" x="0" y="0" width="31.8577778" height="31.8577778"></rect>
            <path d="M14.2271111,16.8933333 C12.1084444,16.3426667 9.716,17.3973333 8.79511111,19.264 C7.85866667,21.168 8.764,23.2804444 10.9044444,23.9711111 C13.1195556,24.6866667 15.7328889,23.5915556 16.6413333,21.5351111 C17.5342222,19.5253333 16.4173333,17.4595556 14.2271111,16.8933333 L14.2271111,16.8933333 Z M12.6093333,21.7528889 C12.18,22.4404444 11.256,22.7391111 10.5622222,22.4248889 C9.87777778,22.1137778 9.67555556,21.3142222 10.108,20.6453333 C10.5342222,19.9795556 11.424,19.6808889 12.1115556,19.9702222 C12.8084444,20.2657778 13.0324444,21.0591111 12.6093333,21.7528889 L12.6093333,21.7528889 Z M14.0248889,19.9328889 C13.8693333,20.2004444 13.524,20.328 13.2564444,20.216 C12.992,20.1071111 12.908,19.8084444 13.0573333,19.5471111 C13.2128889,19.2857778 13.5426667,19.1613333 13.8071111,19.264 C14.0777778,19.3635556 14.1742222,19.6653333 14.0248889,19.9328889 L14.0248889,19.9328889 Z M24.4315556,13.7977778 C24.8982222,13.9471111 25.396,13.692 25.5484444,13.2284444 C25.9155556,12.0897778 25.6853333,10.7893333 24.8266667,9.83733333 C23.968,8.88533333 22.6986667,8.52133333 21.5288889,8.77022222 C21.0497778,8.87288889 20.7448889,9.34266667 20.8475556,9.82177778 C20.9502222,10.2977778 21.42,10.6057778 21.8991111,10.5 C22.4715556,10.3786667 23.0906667,10.556 23.5137778,11.0195556 C23.9337778,11.4862222 24.0488889,12.1208889 23.8653333,12.6777778 C23.7128889,13.1475556 23.9648889,13.6453333 24.4315556,13.7977778 L24.4315556,13.7977778 Z M27.5364444,7.38888889 C25.7724444,5.432 23.1684444,4.68533333 20.7635556,5.19555556 C20.2066667,5.31377778 19.852,5.86133333 19.9733333,6.41822222 C20.0915556,6.97511111 20.6391111,7.32977778 21.196,7.21155556 C22.9071111,6.84755556 24.7551111,7.37955556 26.012,8.77022222 C27.2657778,10.1608889 27.6048889,12.0586667 27.0697778,13.72 C26.8955556,14.2613333 27.1911111,14.84 27.7324444,15.0173333 C28.2737778,15.1915556 28.8524444,14.896 29.0266667,14.3577778 L29.0266667,14.3546667 C29.7764444,12.0088889 29.3035556,9.34266667 27.5364444,7.38888889 L27.5364444,7.38888889 Z M22.68,15.5244444 C22.3004444,15.4124444 22.0422222,15.3346667 22.2413333,14.8368889 C22.6706667,13.7573333 22.7142222,12.824 22.2506667,12.1613333 C21.3795556,10.9137778 18.9902222,10.9822222 16.2524444,12.1271111 C16.2524444,12.1271111 15.3937778,12.5035556 15.6115556,11.8222222 C16.0315556,10.4688889 15.9693333,9.33644444 15.3128889,8.68 C13.8288889,7.19288889 9.88088889,8.736 6.49288889,12.1208889 C3.96044444,14.6564444 2.48888889,17.3444444 2.48888889,19.6684444 C2.48888889,24.1142222 8.18844444,26.8177778 13.7666667,26.8177778 C21.0777778,26.8177778 25.9404444,22.5711111 25.9404444,19.1955556 C25.9404444,17.1577778 24.2231111,16.0035556 22.68,15.5244444 Z M13.7822222,25.2248889 C9.33333333,25.6635556 5.49111111,23.6537778 5.20177778,20.7293333 C4.91244444,17.808 8.288,15.0826667 12.7368889,14.644 C17.1857778,14.2022222 21.028,16.2151111 21.3173333,19.1364444 C21.6035556,22.0577778 18.2311111,24.7831111 13.7822222,25.2248889 Z" id="形状" fill="#323B47"></path>
        </g>
    </g>
</svg>