<?xml version="1.0" encoding="UTF-8"?>
<svg width="32px" height="32px" viewBox="0 0 32 32" version="1.1" xmlns="http://www.w3.org/2000/svg" xmlns:xlink="http://www.w3.org/1999/xlink">
    <!-- Generator: Sketch 63.1 (92452) - https://sketch.com -->
    <title>zhihu</title>
    <desc>Created with Sketch.</desc>
    <g id="zhihu" stroke="none" stroke-width="1" fill="none" fill-rule="evenodd">
        <g fill-rule="nonzero">
            <rect id="矩形" fill="#000000" opacity="0" x="0" y="0" width="31.8577778" height="31.8577778"></rect>
            <path d="M17.5684444,7.15866667 L17.5684444,24.9822222 L19.4351111,24.9822222 L20.2191111,27.2035556 L23.5293333,24.9822222 L27.6204444,24.9822222 L27.6204444,7.15866667 L17.5684444,7.15866667 Z M25.2746667,22.6208889 L23.4111111,22.6208889 L21.0746667,24.1888889 L20.5208889,22.6208889 L19.9608889,22.6208889 L19.9608889,9.59155556 L25.2715556,9.59155556 L25.2715556,22.6208889 L25.2746667,22.6208889 Z M16.3675556,15.148 L12.236,15.148 C12.3013333,13.7511111 12.3697778,11.9031111 12.4413333,9.76888889 L16.5137778,9.76888889 L16.5106667,9.51688889 C16.5106667,9.49822222 16.5044444,9.05955556 16.4391111,8.61155556 C16.3737778,8.14488889 16.2337778,7.52577778 15.7857778,7.52577778 L8.95377778,7.52577778 C9.09066667,6.88488889 9.44222222,5.35733333 9.86844444,4.60755556 L10.0675556,4.25911111 L9.66622222,4.23733333 C9.64133333,4.23733333 9.05644444,4.20933333 8.37822222,4.56711111 C7.26755556,5.15822222 6.76977778,6.32177778 6.552,7.19288889 C5.97955556,9.46711111 5.16444444,11.0475556 4.81911111,11.7226667 C4.71644444,11.9217778 4.65422222,12.04 4.62622222,12.1208889 C4.57022222,12.2733333 4.60133333,12.4257778 4.71333333,12.5253333 C5.04,12.8208889 5.90177778,12.4351111 5.91111111,12.432 C5.92977778,12.4226667 5.95155556,12.4133333 5.97955556,12.4008889 C6.412,12.2048889 7.69377778,11.6231111 8.15111111,9.772 L9.91511111,9.772 C9.93688889,10.7737778 10.0115556,14.0777778 10.0053333,15.1511111 L5.61866667,15.1511111 L5.55333333,15.1977778 C4.83466667,15.7235556 4.60444444,17.164 4.59511111,17.2262222 L4.55155556,17.5124444 L9.74711111,17.5124444 C9.36444444,19.9484444 8.92266667,21.0404444 8.68933333,21.476 C8.57422222,21.6937778 8.46222222,21.9115556 8.35644444,22.1231111 C7.69377778,23.436 7.00622222,24.7924444 4.42711111,26.9017778 C4.31511111,26.9888889 4.20933333,27.1506667 4.27777778,27.328 C4.35244444,27.524 4.56711111,27.6111111 5.04311111,27.6111111 C5.21111111,27.6111111 5.41022222,27.6017778 5.64666667,27.58 C7.19911111,27.4431111 8.78266667,27.02 9.84977778,24.8546667 C10.3786667,23.7626667 10.836,22.624 11.2155556,21.4666667 L15.4622222,26.4444444 L15.6177778,26.0711111 C15.6426667,26.012 16.2088889,24.6306667 15.7764444,23.0875556 L15.7608889,23.0315556 L12.3977778,19.2048889 L11.7133333,19.7213333 C11.9124444,18.9093333 12.0431111,18.1688889 12.1022222,17.5093333 L17.0395556,17.5093333 L17.0395556,17.2604444 C17.0395556,16.0128889 16.464,15.2724444 16.4422222,15.2413333 L16.3675556,15.148 Z" id="形状" fill="#000000"></path>
        </g>
    </g>
</svg>