<?xml version="1.0" encoding="UTF-8"?>
<svg width="44px" height="34px" viewBox="0 0 44 34" version="1.1" xmlns="http://www.w3.org/2000/svg" xmlns:xlink="http://www.w3.org/1999/xlink">
    <!-- Generator: Sketch 49.3 (51167) - http://www.bohemiancoding.com/sketch -->
    <title>10</title>
    <desc>Created with Sketch.</desc>
    <defs></defs>
    <g id="10" stroke="none" stroke-width="1" fill="none" fill-rule="evenodd">
        <g id="Page-1">
            <g transform="translate(5.000000, 4.000000)">
                <path d="M26.0004457,23.0754997 C25.9717842,21.4633019 27.3294793,20.0414827 28.9365295,20.0007692 C30.4776583,19.9617759 31.9729286,21.4114065 31.9995838,22.9705621 C32.0273855,24.5781725 30.6585123,25.9779146 29.0371314,25.999705 C27.3638731,26.0223554 26.029967,24.7381594 26.0004457,23.0754997 Z" id="Combined-Shape" fill="#62B7FA"></path>
                <path d="M2.57229639,7.72407365 C3.14063933,7.43866126 3.24349809,7.21998298 3.06590816,6.60255463 C2.49811675,4.63114093 3.18641561,2.76231025 4.78472499,1.63858514 C6.3259519,0.555396862 8.12997881,0.583800221 9.88712639,1.84512995 C10.3614349,2.18569449 10.5202731,2.06105063 10.8757287,1.75247433 C13.6818702,-0.682768962 16.0798858,-0.587355739 18.684722,2.08476605 C19.0454171,2.454837 19.2605105,2.46614319 19.7155157,2.28910478 C22.7742541,1.09864556 24.9660007,2.00810456 26.1175776,4.95653863 C26.2993039,5.42147128 26.5461098,5.53039678 26.9705056,5.66717412 C29.791814,6.57635736 30.9309817,9.91747476 29.23395,12.3860851 C28.8368545,12.9635281 28.7097288,13.4852675 28.7447504,14.1592268 C28.9579135,18.2614439 26.5703768,20.5160639 22.4400321,20.0651951 C21.7564211,19.9904639 21.4238537,20.2601579 21.0513009,20.6848295 C18.9243581,23.1098696 15.1406447,23.8141626 12.7051256,21.4936358 C12.2484658,21.0584853 11.8866677,21.3097034 11.4608931,21.4525475 C8.52183485,22.4375649 6.14119219,21.1919535 5.35196488,18.1754066 C5.19616005,17.5800391 4.95100873,17.5166141 4.44498773,17.4482254 C1.64767056,17.0701574 0.0132365166,15.1296289 0,11.3131 C0.0126849951,10.2552817 0.737108519,8.64539036 2.57229639,7.72407365 Z" id="Fill-1" fill="#ffffff"></path>
            </g>
        </g>
    </g>
</svg>