<?xml version="1.0" encoding="UTF-8"?>
<svg width="44px" height="34px" viewBox="0 0 44 34" version="1.1" xmlns="http://www.w3.org/2000/svg" xmlns:xlink="http://www.w3.org/1999/xlink">
    <!-- Generator: Sketch 49.3 (51167) - http://www.bohemiancoding.com/sketch -->
    <title>5</title>
    <desc>Created with Sketch.</desc>
    <defs></defs>
    <g id="5" stroke="none" stroke-width="1" fill="none" fill-rule="evenodd">
        <g id="Group-10">
            <g transform="translate(4.000000, 4.000000)">
                <path d="M1,0 L24,0 C24.5522847,-1.01453063e-16 25,0.44771525 25,1 C25,1.55228475 24.5522847,2 24,2 L1,2 C0.44771525,2 6.76353751e-17,1.55228475 0,1 C-6.76353751e-17,0.44771525 0.44771525,1.01453063e-16 1,0 Z M1,6 L13,6 C13.5522847,6 14,6.44771525 14,7 C14,7.55228475 13.5522847,8 13,8 L1,8 C0.44771525,8 6.76353751e-17,7.55228475 0,7 C-6.76353751e-17,6.44771525 0.44771525,6 1,6 Z M1,12 L13,12 C13.5522847,12 14,12.4477153 14,13 C14,13.5522847 13.5522847,14 13,14 L1,14 C0.44771525,14 6.76353751e-17,13.5522847 0,13 C-6.76353751e-17,12.4477153 0.44771525,12 1,12 Z M1,18 L18,18 C18.5522847,18 19,18.4477153 19,19 C19,19.5522847 18.5522847,20 18,20 L1,20 C0.44771525,20 6.76353751e-17,19.5522847 0,19 C-6.76353751e-17,18.4477153 0.44771525,18 1,18 Z" id="Combined-Shape" fill="#ffffff"></path>
                <circle id="Oval-4" stroke="#60B6FA" stroke-width="3" cx="21" cy="10" r="8.5"></circle>
                <path d="M27,16 L37,26" id="Path-7" stroke="#60B6FA" stroke-width="3"></path>
            </g>
        </g>
    </g>
</svg>