<?xml version="1.0" encoding="UTF-8"?>
<svg width="11px" height="11px" viewBox="0 0 11 11" version="1.1" xmlns="http://www.w3.org/2000/svg" xmlns:xlink="http://www.w3.org/1999/xlink">
    <!-- Generator: Sketch 61 (89581) - https://sketch.com -->
    <title>形状结合</title>
    <desc>Created with Sketch.</desc>
    <g id="页面-1" stroke="none" stroke-width="1" fill="none" fill-rule="evenodd">
        <g id="映射-图表编辑区" transform="translate(-115.000000, -479.000000)" fill="#BFBFBF">
            <g id="编组-6" transform="translate(16.000000, 439.000000)">
                <g id="滑块控件" transform="translate(20.000000, 35.000000)">
                    <path d="M84.5,5 C87.5375661,5 90,7.46243388 90,10.5 C90,13.5375661 87.5375661,16 84.5,16 C81.4624339,16 79,13.5375661 79,10.5 C79,7.46243388 81.4624339,5 84.5,5 Z M84.5885484,13.008 C84.3046774,13.008 84.0724194,13.1007152 83.878871,13.2861457 C83.6853226,13.4715762 83.595,13.7099868 83.595,14.0013775 C83.595,14.2927682 83.6853226,14.5311788 83.878871,14.7166093 C84.0724194,14.9020397 84.3046774,15.008 84.5885484,15.008 C84.8724194,15.008 85.1046774,14.9152848 85.2982258,14.7298543 C85.4917742,14.5444238 85.595,14.2927682 85.595,14.0013775 C85.595,13.7099868 85.4917742,13.4715762 85.311129,13.2861457 C85.1175806,13.1007152 84.8724194,13.008 84.5885484,13.008 Z M84.64,7 C83.826,7 83.188,7.19886364 82.715,7.59659091 C82.231,7.99431818 82,8.54356061 82,9.24431818 L83.254,9.24431818 C83.254,8.84659091 83.342,8.53409091 83.529,8.31628788 C83.738,8.05113636 84.079,7.9280303 84.563,7.9280303 C84.937,7.9280303 85.234,8.01325758 85.443,8.19318182 C85.641,8.37310606 85.751,8.61931818 85.751,8.93181818 C85.751,9.16856061 85.652,9.39583333 85.454,9.60416667 L85.322,9.73674242 C84.607,10.2859848 84.178,10.6837121 84.035,10.9393939 C83.881,11.1950758 83.815,11.5075758 83.815,11.8674242 L83.815,12 L85.08,12 L85.08,11.8674242 C85.08,11.6401515 85.135,11.4412879 85.245,11.2518939 C85.344,11.0814394 85.487,10.9204545 85.685,10.7784091 C86.213,10.3806818 86.532,10.125 86.631,10.030303 C86.895,9.72727273 87.038,9.33901515 87.038,8.8655303 C87.038,8.28787879 86.818,7.83333333 86.378,7.50189394 C85.938,7.16098485 85.355,7 84.64,7 Z" id="形状结合"></path>
                </g>
            </g>
        </g>
    </g>
</svg>