<?xml version="1.0" encoding="UTF-8"?>
<svg width="12px" height="18px" viewBox="0 0 12 18" version="1.1" xmlns="http://www.w3.org/2000/svg" xmlns:xlink="http://www.w3.org/1999/xlink">
    <!-- Generator: Sketch 52.2 (67145) - http://www.bohemiancoding.com/sketch -->
    <title>1</title>
    <desc>Created with Sketch.</desc>
    <g id="Symbols" stroke="none" stroke-width="1" fill="none" fill-rule="evenodd">
        <g id="对编辑区域的操作hover" transform="translate(-15.000000, -12.000000)" fill="#FFFFFF" fill-rule="nonzero">
            <g id="字体变形">
                <g transform="translate(6.000000, 6.000000)">
                    <g id="1">
                        <path d="M9,6 L9.21600061,8.26350644 L9.97020979,18.8268295 L10.0782101,20.6583347 L11.5865933,19.6890389 C11.5865933,19.6890389 12.5568031,19.1490374 13.6350132,18.3948282 L16.3296244,23.0298414 L16.8687294,24.0000512 L17.8380251,23.4609462 L19.6704268,22.3836501 L20.6406366,21.8436486 L20.1015316,20.8743353 L17.4069204,16.2393221 L17.406941,16.2393108 C18.1271065,15.8467006 18.8459115,15.4515994 19.5633436,15.0540145 L21.071762,14.191805 L19.6704475,13.2216128 L10.8324047,7.29330298 L9,6 Z M10.2932966,8.15548855 L19.0233215,14.083816 C19.0233215,14.083816 17.622921,14.8380251 15.8985196,15.8082349 L19.1313218,21.3054576 L17.2998166,22.3836501 L14.0661179,16.7784096 C12.4488028,17.640619 11.0475058,18.6108113 11.0475058,18.6108113 L10.2932966,8.15548855 Z" id="Shape"></path>
                    </g>
                </g>
            </g>
        </g>
    </g>
</svg>