<?xml version="1.0" encoding="UTF-8"?>
<svg width="31px" height="31px" viewBox="0 0 31 31" version="1.1" xmlns="http://www.w3.org/2000/svg" xmlns:xlink="http://www.w3.org/1999/xlink">
    <!-- Generator: Sketch 52.4 (67378) - http://www.bohemiancoding.com/sketch -->
    <title>空白表格图标</title>
    <desc>Created with Sketch.</desc>
    <g id="Page-1" stroke="none" stroke-width="1" fill="none" fill-rule="evenodd">
        <g id="个人中心做图表-创建项目" transform="translate(-595.000000, -172.000000)" fill="#ffffff" fill-rule="nonzero">
            <g id="由数据开始" transform="translate(333.000000, 105.000000)">
                <g id="Group-7" transform="translate(246.000000, 50.000000)">
                    <g id="Group-6">
                        <g id="空白表格图标" transform="translate(16.000000, 17.000000)">
                            <path d="M0,0 L0,31 L31,31 L31,0 L0,0 Z M1.93750639,7.74999149 L9.68749787,7.74999149 L9.68749787,13.5625106 L1.93750639,13.5625106 L1.93750639,7.74999149 Z M19.3750298,13.5625106 L11.6250043,13.5625106 L11.6250043,7.74999149 L19.3750298,7.74999149 L19.3750298,13.5625106 Z M19.3750298,15.500017 L19.3750298,21.3125362 L11.6250043,21.3125362 L11.6250043,15.500017 L19.3750298,15.500017 Z M1.93750639,15.500017 L9.68749787,15.500017 L9.68749787,21.3125362 L1.93750639,21.3125362 L1.93750639,15.500017 Z M1.93750639,29.0625277 L1.93750639,23.2500426 L9.68749787,23.2500426 L9.68749787,29.0625277 L1.93750639,29.0625277 Z M11.6250043,29.0625277 L11.6250043,23.2500426 L19.3750298,23.2500426 L19.3750298,29.0625277 L11.6250043,29.0625277 Z M29.0625277,29.0625277 L21.3125362,29.0625277 L21.3125362,23.2500426 L29.0625277,23.2500426 L29.0625277,29.0625277 Z M29.0625277,21.3125362 L21.3125362,21.3125362 L21.3125362,15.500017 L29.0625277,15.500017 L29.0625277,21.3125362 Z M29.0625277,13.5625106 L21.3125362,13.5625106 L21.3125362,7.74999149 L29.0625277,7.74999149 L29.0625277,13.5625106 Z M1.93750639,5.81251916 L1.93750639,1.93750639 L29.0625277,1.93750639 L29.0625277,5.81251916 L1.93750639,5.81251916 Z" id="Shape"></path>
                        </g>
                    </g>
                </g>
            </g>
        </g>
    </g>
</svg>