<?xml version="1.0" encoding="UTF-8"?>
<svg width="117px" height="21px" viewBox="0 0 117 21" version="1.1" xmlns="http://www.w3.org/2000/svg" xmlns:xlink="http://www.w3.org/1999/xlink">
    <!-- Generator: Sketch 64 (93537) - https://sketch.com -->
    <title>右上角</title>
    <desc>Created with Sketch.</desc>
    <defs>
        <linearGradient x1="71.0881407%" y1="93.3640259%" x2="0%" y2="-5.55111512e-14%" id="linearGradient-1">
            <stop stop-color="#BFBFBF" offset="0%"></stop>
            <stop stop-color="#CBCBCB" offset="67.3096511%"></stop>
            <stop stop-color="#E3E3E3" offset="100%"></stop>
        </linearGradient>
        <linearGradient x1="50%" y1="100%" x2="32.4891787%" y2="-8.67079395%" id="linearGradient-2">
            <stop stop-color="#CECECE" offset="0%"></stop>
            <stop stop-color="#E7E7E7" offset="100%"></stop>
        </linearGradient>
    </defs>
    <g id="页面-1" stroke="none" stroke-width="1" fill="none" fill-rule="evenodd">
        <g id="画板" transform="translate(-3709.000000, -1534.000000)" fill-rule="nonzero">
            <g id="右上角" transform="translate(3709.000000, 1534.000000)">
                <path d="M25.328125,17.140625 C26.5,17.140625 27.4921875,16.5859375 28,15.65625 L28.1328125,15.65625 L28.1328125,17 L29.7421875,17 L29.7421875,5.171875 L28.0625,5.171875 L28.0625,9.84375 L27.9375,9.84375 C27.4765625,8.90625 26.4921875,8.3515625 25.328125,8.3515625 C23.1796875,8.3515625 21.796875,10.0546875 21.796875,12.7421875 C21.796875,15.4375 23.1640625,17.140625 25.328125,17.140625 Z M25.8046875,15.6328125 C24.3828125,15.6328125 23.53125,14.546875 23.53125,12.7421875 C23.53125,10.953125 24.390625,9.859375 25.8046875,9.859375 C27.2109375,9.859375 28.09375,10.9765625 28.09375,12.75 C28.09375,14.53125 27.21875,15.6328125 25.8046875,15.6328125 Z M32.3015625,20.0859375 C34.0359375,20.0859375 34.840625,19.421875 35.5671875,17.3515625 L38.7390625,8.4921875 L36.9578125,8.4921875 L34.8328125,15.25 L34.7,15.25 L32.5671875,8.4921875 L30.7390625,8.4921875 L33.8171875,17.03125 L33.6921875,17.4453125 C33.403125,18.3046875 32.95,18.6328125 32.153125,18.6328125 C31.996875,18.6328125 31.7390625,18.625 31.60625,18.6015625 L31.60625,20.046875 C31.7625,20.0703125 32.1609375,20.0859375 32.3015625,20.0859375 Z M42.9,17.1640625 C45.0015625,17.1640625 46.3140625,15.9765625 46.5328125,14.265625 L44.9,14.265625 C44.68125,15.1796875 43.9546875,15.6640625 42.8921875,15.6640625 C41.49375,15.6640625 40.6265625,14.5625 40.6265625,12.71875 C40.6265625,10.90625 41.4859375,9.828125 42.8921875,9.828125 C44.0171875,9.828125 44.7046875,10.4453125 44.9,11.2734375 L46.5328125,11.2734375 C46.3140625,9.5703125 45.025,8.328125 42.8921875,8.328125 C40.415625,8.328125 38.9078125,9.9921875 38.9078125,12.71875 C38.9078125,15.4921875 40.4234375,17.1640625 42.9,17.1640625 Z M49.4046875,17 L49.4046875,12.03125 C49.4046875,10.7421875 50.1703125,9.875 51.5453125,9.875 C52.7328125,9.875 53.365625,10.5625 53.365625,11.921875 L53.365625,17 L55.0453125,17 L55.0453125,11.5078125 C55.0453125,9.484375 53.928125,8.3359375 52.115625,8.3359375 C50.834375,8.3359375 49.9359375,8.90625 49.521875,9.859375 L49.3890625,9.859375 L49.3890625,5.171875 L47.725,5.171875 L47.725,17 L49.4046875,17 Z M58.95625,17.140625 C60.0734375,17.140625 61.003125,16.65625 61.5109375,15.8046875 L61.64375,15.8046875 L61.64375,17 L63.2609375,17 L63.2609375,11.1875 C63.2609375,9.390625 62.0578125,8.328125 59.925,8.328125 C57.9953125,8.328125 56.6203125,9.265625 56.4484375,10.7265625 L58.0734375,10.7265625 C58.2609375,10.125 58.909375,9.78125 59.846875,9.78125 C60.9953125,9.78125 61.5890625,10.2890625 61.5890625,11.1875 L61.5890625,11.921875 L59.284375,12.0546875 C57.2609375,12.1796875 56.1203125,13.0625 56.1203125,14.59375 C56.1203125,16.1484375 57.315625,17.140625 58.95625,17.140625 Z M59.3859375,15.7265625 C58.471875,15.7265625 57.8078125,15.28125 57.8078125,14.515625 C57.8078125,13.765625 58.3390625,13.3671875 59.5109375,13.2890625 L61.5890625,13.15625 L61.5890625,13.8671875 C61.5890625,14.921875 60.6515625,15.7265625 59.3859375,15.7265625 Z M66.53125,17 L66.53125,11.9765625 C66.53125,10.78125 67.4296875,9.9765625 68.703125,9.9765625 C69,9.9765625 69.5,10.03125 69.640625,10.078125 L69.640625,8.421875 C69.4609375,8.375 69.140625,8.3515625 68.890625,8.3515625 C67.78125,8.3515625 66.8359375,8.9609375 66.59375,9.796875 L66.46875,9.796875 L66.46875,8.4921875 L64.8515625,8.4921875 L64.8515625,17 L66.53125,17 Z M74.090625,17.046875 C74.41875,17.046875 74.73125,17.0078125 75.0046875,16.9609375 L75.0046875,15.5625 C74.7703125,15.5859375 74.621875,15.6015625 74.3640625,15.6015625 C73.528125,15.6015625 73.1609375,15.2109375 73.1609375,14.3203125 L73.1609375,9.9453125 L75.0046875,9.9453125 L75.0046875,8.53125 L73.1609375,8.53125 L73.1609375,6.375 L71.48125,6.375 L71.48125,8.53125 L70.1296875,8.53125 L70.1296875,9.9453125 L71.48125,9.9453125 L71.48125,14.75 C71.48125,16.390625 72.2234375,17.046875 74.090625,17.046875 Z M79.134375,17.1640625 C81.165625,17.1640625 82.6578125,16.09375 82.6578125,14.4921875 C82.6578125,13.2421875 81.9,12.546875 80.2828125,12.171875 L78.86875,11.84375 C77.946875,11.6328125 77.5171875,11.3125 77.5171875,10.8046875 C77.5171875,10.140625 78.228125,9.6953125 79.165625,9.6953125 C80.11875,9.6953125 80.728125,10.09375 80.884375,10.71875 L82.49375,10.71875 C82.3296875,9.21875 81.0796875,8.328125 79.165625,8.328125 C77.24375,8.328125 75.8609375,9.390625 75.8609375,10.8984375 C75.8609375,12.1640625 76.6109375,12.890625 78.228125,13.2734375 L79.7125,13.6171875 C80.5640625,13.8203125 80.9625,14.1484375 80.9625,14.65625 C80.9625,15.3359375 80.2203125,15.8046875 79.1734375,15.8046875 C78.1578125,15.8046875 77.5328125,15.3984375 77.321875,14.7421875 L75.6421875,14.7421875 C75.790625,16.25 77.1109375,17.1640625 79.134375,17.1640625 Z M85.1859375,17.1328125 C85.85,17.1328125 86.334375,16.625 86.334375,15.96875 C86.334375,15.3125 85.85,14.8046875 85.1859375,14.8046875 C84.5296875,14.8046875 84.0375,15.3125 84.0375,15.96875 C84.0375,16.625 84.5296875,17.1328125 85.1859375,17.1328125 Z M91.378125,17.1640625 C93.4796875,17.1640625 94.7921875,15.9765625 95.0109375,14.265625 L93.378125,14.265625 C93.159375,15.1796875 92.4328125,15.6640625 91.3703125,15.6640625 C89.971875,15.6640625 89.1046875,14.5625 89.1046875,12.71875 C89.1046875,10.90625 89.9640625,9.828125 91.3703125,9.828125 C92.4953125,9.828125 93.1828125,10.4453125 93.378125,11.2734375 L95.0109375,11.2734375 C94.7921875,9.5703125 93.503125,8.328125 91.3703125,8.328125 C88.89375,8.328125 87.3859375,9.9921875 87.3859375,12.71875 C87.3859375,15.4921875 88.9015625,17.1640625 91.378125,17.1640625 Z M99.71875,17.1640625 C102.203125,17.1640625 103.726563,15.5 103.726563,12.7421875 C103.726563,10 102.195313,8.328125 99.71875,8.328125 C97.234375,8.328125 95.703125,10 95.703125,12.7421875 C95.703125,15.5 97.2265625,17.1640625 99.71875,17.1640625 Z M99.71875,15.671875 C98.2578125,15.671875 97.4375,14.6015625 97.4375,12.7421875 C97.4375,10.8984375 98.2578125,9.8203125 99.71875,9.8203125 C101.171875,9.8203125 102,10.8984375 102,12.7421875 C102,14.59375 101.171875,15.671875 99.71875,15.671875 Z M106.621875,17 L106.621875,11.796875 C106.621875,10.703125 107.395313,9.8671875 108.41875,9.8671875 C109.41875,9.8671875 110.059375,10.453125 110.059375,11.4140625 L110.059375,17 L111.707813,17 L111.707813,11.6484375 C111.707813,10.6484375 112.41875,9.8671875 113.504688,9.8671875 C114.60625,9.8671875 115.153125,10.4296875 115.153125,11.578125 L115.153125,17 L116.832813,17 L116.832813,11.140625 C116.832813,9.3671875 115.832813,8.328125 114.114063,8.328125 C112.934375,8.328125 111.957813,8.9296875 111.528125,9.859375 L111.395313,9.859375 C111.020313,8.9296875 110.215625,8.328125 109.051563,8.328125 C107.91875,8.328125 107.059375,8.8984375 106.684375,9.859375 L106.559375,9.859375 L106.559375,8.4921875 L104.942188,8.4921875 L104.942188,17 L106.621875,17 Z" id="dycharts.com" fill="#D8D8D8"></path>
                <g id="Group">
                    <path d="M0.413295556,4 C0.413295556,4 0.587005382,6.55611929 2.71638757,8.41605875 C3.75712172,9.32508377 6.15410619,10.5161518 9.50450072,10.9881183 C9.50450072,10.9881183 16.5227413,12.3570001 16.9708563,14.539451 C17.1608698,15.5957686 16.4547118,16.9440146 13.8763935,18.4439399 C9.98340498,20.5639891 4.23414931,21.1111464 1.71441851,16.2243569 C-0.864779468,10.6547329 0.162348783,5.13422697 0.413295556,4 Z" id="SVGID_1_" fill="url(#linearGradient-1)"></path>
                    <path d="M6.81775239,0 C5.53139825,2.10121325 3.98406608,5.17359116 3.70217126,7.7653481 C3.52486038,9.39556243 3.85006259,10.4090641 4.00424596,10.9700291 C4.6029536,13.3688039 4.06966053,15.5477753 3.3331515,16.9569233 C3.13537731,17.3695886 3.02835591,17.9575554 3.76458152,18.5161149 C4.46809984,18.9615553 7.23795877,19.2634468 8.85903821,18.6677222 C10.5095372,18.0612329 12.1165587,16.824079 12.9488088,15.105402 C15.0197976,11.2491885 12.8862285,8.300514 11.5492546,6.63427715 C11.5492546,6.63427715 10.2695326,5.06841022 9.31835728,3.8480347 C8.78495083,3.19950912 7.38562336,1.91153877 6.81775239,0 Z" id="Path" fill="url(#linearGradient-2)"></path>
                </g>
            </g>
        </g>
    </g>
</svg>