<?xml version="1.0" encoding="UTF-8"?>
<svg width="20px" height="20px" viewBox="0 0 20 20" version="1.1" xmlns="http://www.w3.org/2000/svg" xmlns:xlink="http://www.w3.org/1999/xlink">
    <title>插入图片</title>
    <g id="控件" stroke="none" stroke-width="1" fill="none" fill-rule="evenodd">
        <g id="左一块" transform="translate(-15.000000, -331.000000)" fill="#666666">
            <g id="Group-&lt;v32&gt;">
                <g transform="translate(13.000000, 16.000000)">
                    <g id="视频" transform="translate(0.000000, 315.000000)">
                        <g id="插入图片" transform="translate(2.000000, 0.000000)">
                            <rect id="Rectangle-30" fill-opacity="0" opacity="0.100000001" x="0" y="0" width="20" height="20"></rect>
                            <path d="M8.86258776,5 L6.20862588,2 L3.19358074,2 L5.85656971,5 L8.86258776,5 Z M16.6890672,5 L14.0260782,2 L11.0110331,2 L13.6740221,5 L16.6890672,5 Z M12.780341,5 L10.1173521,2 L7.10230692,2 L9.76529589,5 L12.780341,5 Z M17.8264794,2 L14.9287864,2 L17.5917753,5 L19,5 L19,3.12721893 C18.9909729,2.48816568 18.4854564,2 17.8264794,2 L17.8264794,2 Z M2.29087262,2 L2.17352056,2 C1.50551655,2 1,2.48816568 1,3.12721893 L1,5 L4.95386158,5 L2.29087262,2 Z M1.00902708,16.928536 C1.00902708,17.5359801 1.51454363,18 2.18254764,18 L17.8264794,18 C18.4944835,18 19,17.5359801 19,16.928536 L19,6 L1,6 L1.00902708,16.928536 Z M7,8.9688172 C7,8.31075269 7.67271754,8 8.30971062,8 C8.51280986,8 8.75283624,8.03655914 8.94670369,8.15537634 L13.5072048,10.7053763 C14.31037,11.1258065 14.31037,12.2134409 13.5072048,12.633871 L8.94670369,15.183871 C8.74360445,15.3026882 8.549737,15.3392473 8.30971062,15.3392473 C7.67271754,15.3392473 7,15.0284946 7,14.3704301 L7,8.9688172 Z" id="形状" fill-rule="nonzero"></path>
                        </g>
                    </g>
                </g>
            </g>
        </g>
    </g>
</svg>