<?xml version="1.0" encoding="UTF-8"?>
<svg width="16px" height="16px" viewBox="0 0 16 16" version="1.1" xmlns="http://www.w3.org/2000/svg" xmlns:xlink="http://www.w3.org/1999/xlink">
    <!-- Generator: Sketch 52.6 (67491) - http://www.bohemiancoding.com/sketch -->
    <title>插入形状</title>
    <desc>Created with Sketch.</desc>
    <g id="Page-1" stroke="none" stroke-width="1" fill="none" fill-rule="evenodd">
        <g id="图表3" transform="translate(-17.000000, -217.000000)">
            <g id="左一块" transform="translate(0.000000, 37.000000)">
                <g id="Group-&lt;v40&gt;">
                    <g transform="translate(13.000000, 20.000000)">
                        <g id="Group-5" transform="translate(0.000000, 158.000000)">
                            <g id="插入形状" transform="translate(2.000000, 0.000000)">
                                <rect id="Rectangle-30" fill-opacity="0" fill="#FFFFFF" opacity="0.100000001" x="0" y="0" width="20" height="20"></rect>
                                <path d="M11,11 L18,11 L18,18 L11,18 L11,11 Z M14.5,2 L18,9 L11,9 L14.5,2 Z M5.5,9 C3.56700338,9 2,7.43299662 2,5.5 C2,3.56700338 3.56700338,2 5.5,2 C7.43299662,2 9,3.56700338 9,5.5 C9,7.43299662 7.43299662,9 5.5,9 Z M2,11.684962 L2.68496204,11 L9,17.315038 L8.31503796,18 L2,11.684962 Z" fill="#666666"></path>
                            </g>
                        </g>
                    </g>
                </g>
            </g>
        </g>
    </g>
</svg>