<?xml version="1.0" encoding="UTF-8"?>
<svg width="20px" height="20px" viewBox="0 0 20 20" version="1.1" xmlns="http://www.w3.org/2000/svg" xmlns:xlink="http://www.w3.org/1999/xlink">
    <title>插入图片</title>
    <g id="控件" stroke="none" stroke-width="1" fill="none" fill-rule="evenodd">
        <g id="左一块" transform="translate(-15.000000, -268.000000)" fill="#666666">
            <g id="Group-&lt;v32&gt;">
                <g transform="translate(13.000000, 16.000000)">
                    <g id="音乐" transform="translate(0.000000, 252.000000)">
                        <g id="插入图片" transform="translate(2.000000, 0.000000)">
                            <rect id="Rectangle-30" fill-opacity="0" opacity="0.100000001" x="0" y="0" width="20" height="20"></rect>
                            <path d="M17.9411765,0 L6.47058823,1.9 L5.94117647,1.9 C5.5882353,1.9 5.41176471,2.07272728 5.41176471,2.41818182 L5.41176471,13.4727273 C5.05882354,13.3 4.52941176,13.1272727 4,13.1272727 C2.41176471,13.1272727 1,14.5090909 1,16.0636364 C1,17.6181818 2.41176471,19 4,19 C5.58823528,19 7,17.6181818 7,16.0636364 L7,15.7181818 L7,6.9090909 L17.5882353,5.0090909 L17.5882353,10.5363636 C17.0588235,10.3636364 16.7058823,10.1909091 16,10.1909091 C14.4117647,10.1909091 13,11.5727273 13,13.1272727 C13,14.6818182 14.4117647,16.0636364 16,16.0636364 C17.5882353,16.0636364 19,14.6818182 19,13.1272727 L19,12.7818182 L19,0.518181815 C19,0.345454536 18.8235294,0 18.6470588,0 L17.9411765,0 Z" id="路径" fill-rule="nonzero"></path>
                        </g>
                    </g>
                </g>
            </g>
        </g>
    </g>
</svg>