<?xml version="1.0" encoding="UTF-8"?>
<svg width="90px" height="92px" viewBox="0 0 90 92" version="1.1" xmlns="http://www.w3.org/2000/svg" xmlns:xlink="http://www.w3.org/1999/xlink">
    <!-- Generator: Sketch 52.4 (67378) - http://www.bohemiancoding.com/sketch -->
    <title>数据图表</title>
    <desc>Created with Sketch.</desc>
    <defs>
        <linearGradient x1="50%" y1="0%" x2="50%" y2="100%" id="linearGradient-1">
            <stop stop-color="#ADDAFF" offset="0%"></stop>
            <stop stop-color="#75B3FF" offset="100%"></stop>
        </linearGradient>
    </defs>
    <g id="Page-1" stroke="none" stroke-width="1" fill="none" fill-rule="evenodd">
        <g id="数据首页" transform="translate(-419.000000, -616.000000)">
            <g id="数据图表" transform="translate(419.000000, 616.000000)">
                <path d="M75.343584,90.9182635 L4.74225773,90.9182635 C2.56805884,90.9182635 0.800944009,88.3163174 0.800944009,85.1149701 L0.800944009,8.41886228 C0.800944009,5.21751497 2.56805884,2.61556886 4.74225773,2.61556886 L75.343584,2.61556886 C77.5177828,2.61556886 79.2848977,5.21751497 79.2848977,8.41886228 L79.2848977,85.1013473 C79.2848977,88.3163174 77.5177828,90.9182635 75.343584,90.9182635 Z" id="Path" fill="#E5F0FF"></path>
                <path d="M75.343584,5.61556886 L4.74225773,5.61556886 C2.56805884,5.61556886 0.800944009,5.46823779 0.800944009,5.28696658 L0.800944009,0.944171146 C0.800944009,0.762899933 2.56805884,0.615568862 4.74225773,0.615568862 L75.343584,0.615568862 C77.5177828,0.615568862 79.2848977,0.762899933 79.2848977,0.944171146 L79.2848977,5.28619521 C79.2848977,5.46823779 77.5177828,5.61556886 75.343584,5.61556886 Z" id="Path" fill="#B1DCFF"></path>
                <rect id="Rectangle" fill="#8FCEFF" fill-rule="nonzero" opacity="0.600000024" x="7.77214436" y="11.0327767" width="66.1357113" height="24.230393" rx="2"></rect>
                <text id="EXCEL" font-family="Arial-Black, Arial Black" font-size="14" font-weight="700" fill="#FFFFFF">
                    <tspan x="15.0703125" y="29">EXCEL</tspan>
                </text>
                <g id="Group-2" transform="translate(8.000000, 35.000000)">
                    <path d="M78.0799064,56.1513473 L17.5711647,56.1513473 C15.5988861,56.1513473 14,53.7217654 14,50.7247961 L14,14.4265512 C14,11.4295819 15.5988861,9 17.5711647,9 L78.0799064,9 C80.052185,9 81.6510711,11.4295819 81.6510711,14.4265512 L81.6510711,50.7102477 C81.6606453,53.7217654 80.0617592,56.1513473 78.0799064,56.1513473 Z" id="Path" fill="#C7E6FF"></path>
                    <path d="M24,34 L33,34 L33,50 L24,50 L24,34 Z M50,25 L59,25 L59,50 L50,50 L50,25 Z M37,29 L46,29 L46,50 L37,50 L37,29 Z M64,22 L73,22 L73,50 L64,50 L64,22 Z" id="Combined-Shape" fill="url(#linearGradient-1)" fill-rule="nonzero"></path>
                    <path d="M22.9265092,9.177123 C8.34131262,11.4669661 2.08129464,22.9339321 0,34.4008982 C5.21130363,26.3775721 12.5039019,22.7031728 22.9265092,22.7031728 L22.9265092,32.1110551 L37.5117057,16.0644029 L22.9265092,0 L22.9265092,9.177123" id="Path" fill="#75B3FF"></path>
                </g>
            </g>
        </g>
    </g>
</svg>