<?xml version="1.0" encoding="UTF-8"?>
<svg width="34px" height="30px" viewBox="0 0 34 30" version="1.1" xmlns="http://www.w3.org/2000/svg" xmlns:xlink="http://www.w3.org/1999/xlink">
    <!-- Generator: Sketch 52.4 (67378) - http://www.bohemiancoding.com/sketch -->
    <title>数据集图标</title>
    <desc>Created with Sketch.</desc>
    <g id="Page-1" stroke="none" stroke-width="1" fill="none" fill-rule="evenodd">
        <g id="个人中心做图表-创建项目" transform="translate(-348.000000, -172.000000)" fill="#ffffff">
            <g id="由数据开始" transform="translate(333.000000, 105.000000)">
                <g id="Group-7" transform="translate(0.000000, 50.000000)">
                    <g id="Group-6">
                        <path d="M20.5398799,27.3500829 C19.6421216,27.3500829 18.8968128,26.6203513 18.879874,25.7209148 C18.879874,24.8045078 19.608244,24.0578058 20.5229411,24.0578058 C20.743146,24.0578058 20.946412,24.0917468 21.149678,24.1765993 L26.6717386,19.2551541 C26.6547998,19.1703016 26.6547998,19.0854491 26.6547998,19.0175671 C26.6547998,18.1181306 27.3831697,17.3714286 28.2978669,17.3714286 C29.212564,17.3714286 29.9578728,18.1011601 29.9578728,19.0175671 C29.9578728,19.1533311 29.940934,19.2721246 29.9070563,19.3909181 L35.1919731,26.3488233 C35.3613615,26.2979118 35.5307499,26.2639708 35.7170771,26.2639708 C36.0897314,26.2639708 36.445447,26.3827643 36.7334072,26.6203513 L41.8658745,22.9886642 C41.8658745,22.9038117 41.8489357,22.8189592 41.8489357,22.7341067 C41.8489357,21.8346702 42.5942445,21.0879682 43.4920028,21.0879682 C44.3897611,21.0879682 45.1350699,21.8176997 45.1350699,22.7341067 C45.1350699,23.6335433 44.4066999,24.3802453 43.4920028,24.3802453 C43.2209814,24.3802453 42.94996,24.3123633 42.6958775,24.1765993 L37.3093276,27.9440504 C37.2923888,28.8434869 36.5640189,29.5732184 35.6662605,29.5732184 C34.7685022,29.5732184 34.0231934,28.8434869 34.0231934,27.9270799 C34.0231934,27.7404044 34.0570711,27.5706994 34.1248265,27.3840239 L28.9415426,20.5449122 C28.4672552,20.7655287 27.9082736,20.7146172 27.4848027,20.4770302 L22.1151917,25.2627113 C22.1660082,25.4154458 22.182947,25.5512098 22.182947,25.7039443 C22.182947,26.6033808 21.4545771,27.3500829 20.5398799,27.3500829 Z M48.2178719,45.0842559 C48.3872603,45.2539609 48.4719544,45.4915479 48.4550156,45.7291349 C48.4550156,46.2212794 48.0484835,46.6285714 47.5403184,46.6285714 L16.4575543,46.6285714 C15.9493892,46.6285714 15.5428571,46.2212794 15.5428571,45.7121644 C15.5428571,45.2030494 15.9493892,44.7957574 16.4575543,44.7957574 L17.7618447,44.7957574 L17.7618447,31.626649 C17.7618447,30.913888 18.3377651,30.336891 19.0491962,30.336891 L22.7588013,30.336891 C23.4702324,30.336891 24.0461528,30.913888 24.0461528,31.626649 L24.0461528,44.7957574 L25.1810549,44.7957574 L25.1810549,25.6869738 C25.1810549,24.9742128 25.7569753,24.3972158 26.4684064,24.3972158 L30.1610727,24.3972158 C30.8725038,24.3972158 31.4484242,24.9742128 31.4484242,25.6869738 L31.4484242,44.8127279 L32.5833262,44.8127279 L32.5833262,34.5964866 C32.5833262,33.8837256 33.1592466,33.3067285 33.8706778,33.3067285 L37.563344,33.3067285 C38.2747751,33.3067285 38.8506956,33.8837256 38.8506956,34.5964866 L38.8506956,44.8127279 L39.9855976,44.8127279 L39.9855976,29.0301624 C39.9855976,28.3174014 40.561518,27.7404044 41.2729491,27.7404044 L44.9656154,27.7404044 C45.6770465,27.7404044 46.2529669,28.3174014 46.2529669,29.0301624 L46.2529669,44.8127279 L47.5741961,44.8127279 C47.8113398,44.8127279 48.0484835,44.9145509 48.2178719,45.0842559 Z M19.6081778,44.8127279 L22.2167585,44.8127279 L22.2167585,32.3224395 C22.2167585,32.237587 22.1490032,32.169705 22.064309,32.169705 L19.7606273,32.169705 C19.6759331,32.169705 19.6081778,32.237587 19.6081778,32.3224395 L19.6081778,44.8127279 Z M27.0104492,44.8127279 L29.6190299,44.8127279 L29.6190299,26.3997348 C29.6190299,26.3148823 29.5512746,26.2470003 29.4665804,26.2470003 L27.1628987,26.2470003 C27.0782045,26.2470003 27.0104492,26.3148823 27.0104492,26.3997348 L27.0104492,44.8127279 Z M37.0213013,35.2922771 C37.0213013,35.2074246 36.9535459,35.1395426 36.8519129,35.1395426 L34.5482312,35.1395426 C34.463537,35.1395426 34.3957817,35.2074246 34.3957817,35.2922771 L34.3957817,44.8127279 L37.0213013,44.8127279 L37.0213013,35.2922771 Z M41.8149919,44.8127279 L41.8149919,44.7957574 L44.4235726,44.7957574 L44.4235726,29.7259529 C44.4235726,29.6411004 44.3558173,29.5732184 44.2711231,29.5732184 L41.9674414,29.5732184 C41.8827472,29.5732184 41.8149919,29.6411004 41.8149919,29.7259529 L41.8149919,44.8127279 Z" id="数据集图标"></path>
                    </g>
                </g>
            </g>
        </g>
    </g>
</svg>