<?xml version="1.0" encoding="UTF-8"?>
<svg width="91px" height="96px" viewBox="0 0 91 96" version="1.1" xmlns="http://www.w3.org/2000/svg" xmlns:xlink="http://www.w3.org/1999/xlink">
    <!-- Generator: Sketch 52.4 (67378) - http://www.bohemiancoding.com/sketch -->
    <title>数据报告</title>
    <desc>Created with Sketch.</desc>
    <defs>
        <path d="M22.32,-2.27373675e-13 L73.44,-2.26485497e-13 C75.8258701,-2.35400088e-13 77.76,1.93412988 77.76,4.32 L77.76,89.0850711 C77.76,91.4709412 75.8258701,93.4050711 73.44,93.4050711 L4.32,93.4050711 C1.93412988,93.4050711 6.82078063e-15,91.4709412 -8.8817842e-16,89.0850711 L8.8817842e-16,23.1395963 L22.32,-2.27373675e-13 Z" id="path-1"></path>
        <polygon id="path-3" points="24.32 7 24.32 30.1395963 2 30.1395963"></polygon>
        <filter x="-15.7%" y="-10.8%" width="131.4%" height="130.3%" filterUnits="objectBoundingBox" id="filter-4">
            <feOffset dx="0" dy="1" in="SourceAlpha" result="shadowOffsetOuter1"></feOffset>
            <feGaussianBlur stdDeviation="1" in="shadowOffsetOuter1" result="shadowBlurOuter1"></feGaussianBlur>
            <feColorMatrix values="0 0 0 0 0.129411765   0 0 0 0 0.335310102   0 0 0 0 0.647058824  0 0 0 0.133831522 0" type="matrix" in="shadowBlurOuter1"></feColorMatrix>
        </filter>
        <linearGradient x1="50%" y1="0%" x2="50%" y2="100%" id="linearGradient-5">
            <stop stop-color="#ADDAFF" offset="0%"></stop>
            <stop stop-color="#75B3FF" offset="100%"></stop>
        </linearGradient>
    </defs>
    <g id="Page-1" stroke="none" stroke-width="1" fill="none" fill-rule="evenodd">
        <g id="数据首页" transform="translate(-419.000000, -803.000000)">
            <g id="数据报告" transform="translate(419.000000, 797.000000)">
                <g id="Group">
                    <g id="Rectangle" transform="translate(2.000000, 8.000000)">
                        <mask id="mask-2" fill="white">
                            <use xlink:href="#path-1"></use>
                        </mask>
                        <use id="Mask" fill="#E5F0FF" fill-rule="nonzero" xlink:href="#path-1"></use>
                        <rect fill="#8FCEFF" fill-rule="nonzero" opacity="0.600000024" mask="url(#mask-2)" x="8.77214436" y="11.0327767" width="60.1357113" height="24.230393" rx="2"></rect>
                    </g>
                    <path d="M13.446984,50.7872041 L39.8147684,50.7872041 C40.9193379,50.7872041 41.8147684,51.6826346 41.8147684,52.7872041 L41.8147684,53.8489908 C41.8147684,54.9535603 40.9193379,55.8489908 39.8147684,55.8489908 L13.446984,55.8489908 C12.3424145,55.8489908 11.446984,54.9535603 11.446984,53.8489908 L11.446984,52.7872041 C11.446984,51.6826346 12.3424145,50.7872041 13.446984,50.7872041 Z M13.446984,63.0801147 L39.8147684,63.0801147 C40.9193379,63.0801147 41.8147684,63.9755452 41.8147684,65.0801147 L41.8147684,66.1419014 C41.8147684,67.2464709 40.9193379,68.1419014 39.8147684,68.1419014 L13.446984,68.1419014 C12.3424145,68.1419014 11.446984,67.2464709 11.446984,66.1419014 L11.446984,65.0801147 C11.446984,63.9755452 12.3424145,63.0801147 13.446984,63.0801147 Z M13.446984,75.3730252 L39.8147684,75.3730252 C40.9193379,75.3730252 41.8147684,76.2684557 41.8147684,77.3730252 L41.8147684,78.4348119 C41.8147684,79.5393814 40.9193379,80.4348119 39.8147684,80.4348119 L13.446984,80.4348119 C12.3424145,80.4348119 11.446984,79.5393814 11.446984,78.4348119 L11.446984,77.3730252 C11.446984,76.2684557 12.3424145,75.3730252 13.446984,75.3730252 Z M13.446984,87.6659358 L39.8147684,87.6659358 C40.9193379,87.6659358 41.8147684,88.5613663 41.8147684,89.6659358 L41.8147684,90.7277225 C41.8147684,91.832292 40.9193379,92.7277225 39.8147684,92.7277225 L13.446984,92.7277225 C12.3424145,92.7277225 11.446984,91.832292 11.446984,90.7277225 L11.446984,89.6659358 C11.446984,88.5613663 12.3424145,87.6659358 13.446984,87.6659358 Z" id="Combined-Shape" fill="#8ECEFF" fill-rule="nonzero" opacity="0.600000024"></path>
                    <g id="Path-2" fill-rule="nonzero">
                        <use fill="black" fill-opacity="1" filter="url(#filter-4)" xlink:href="#path-3"></use>
                        <use fill="#F0F6FD" xlink:href="#path-3"></use>
                    </g>
                </g>
                <g id="Group-3" transform="translate(45.000000, 55.000000)" fill-rule="nonzero">
                    <path d="M22,21.9293111 C22,10.610957 22,3.30118662 22,0 C9.8497355,0 0,9.81808701 0,21.9293111 C0,27.7663053 2.28784716,33.0706611 6.01844758,37 C7.68356855,35.9132378 13.0107527,30.8896748 22,21.9293111 Z" id="Oval" fill="#75B3FF"></path>
                    <path d="M46,22 C46,9.8497355 36.1502645,0 24,0 C24,2.3655914 24,9.69892473 24,22 C35.3548387,22 42.688172,22 46,22 Z" id="Oval" fill="#C7E6FF"></path>
                    <path d="M24.0218296,46 C17.7041921,46 12.0091368,43.3317605 8,39.0596736 C10.1735409,37.062902 15.5141508,32.0430108 24.0218296,24 C33.0021573,24 40.3282141,24 46,24 C46,36.1502645 36.160038,46 24.0218296,46 Z M28.8279883,30.906015 C29.6234072,30.906015 30.2682216,30.2394916 30.2682216,29.4172932 C30.2682216,28.5950949 29.6234072,27.9285714 28.8279883,27.9285714 C28.0325695,27.9285714 27.3877551,28.5950949 27.3877551,29.4172932 C27.3877551,30.2394916 28.0325695,30.906015 28.8279883,30.906015 Z M36.0291545,37.3571429 C36.8245734,37.3571429 37.4693878,36.6906194 37.4693878,35.8684211 C37.4693878,35.0462227 36.8245734,34.3796992 36.0291545,34.3796992 C35.2337357,34.3796992 34.5889213,35.0462227 34.5889213,35.8684211 C34.5889213,36.6906194 35.2337357,37.3571429 36.0291545,37.3571429 Z M35.1219488,27.9285714 L27.3877551,37.3571429 L29.7351941,37.3571429 L37.4693878,27.9285714 L35.1219488,27.9285714 Z" id="Combined-Shape" fill="url(#linearGradient-5)"></path>
                </g>
                <text id="PDF" font-family="Arial-Black, Arial Black" font-size="14" font-weight="700" fill="#FFFFFF">
                    <tspan x="27.3310547" y="35">PDF</tspan>
                </text>
            </g>
        </g>
    </g>
</svg>