<?xml version="1.0" encoding="UTF-8"?>
<svg width="18px" height="18px" viewBox="0 0 18 18" version="1.1" xmlns="http://www.w3.org/2000/svg" xmlns:xlink="http://www.w3.org/1999/xlink">
    <title>形状</title>
    <g id="页面-1" stroke="none" stroke-width="1" fill="none" fill-rule="evenodd">
        <g id="音乐链接弹窗等" transform="translate(-433.000000, -383.000000)" fill="#CCCCCC" fill-rule="nonzero">
            <g id="弹窗" transform="translate(64.000000, 300.000000)">
                <g id="编组-2" transform="translate(32.000000, 32.000000)">
                    <path d="M346,51 C341.029911,51 337,55.0299107 337,60 C337,64.9700893 341.029911,69 346,69 C350.970089,69 355,64.9700893 355,60 C355,55.0299107 350.970089,51 346,51 Z M349.322768,63.4191964 L347.996875,63.4131696 L346,61.0325893 L344.005134,63.4111607 L342.677232,63.4171875 C342.588839,63.4171875 342.516518,63.346875 342.516518,63.2564732 C342.516518,63.2183036 342.53058,63.1821429 342.554688,63.1520089 L345.168304,60.0381696 L342.554688,56.9263393 C342.53058,56.8962054 342.516518,56.8600446 342.516518,56.821875 C342.516518,56.7334821 342.588839,56.6611607 342.677232,56.6611607 L344.005134,56.6671875 L346,59.0477679 L347.994866,56.6691964 L349.320759,56.6631696 C349.409152,56.6631696 349.481473,56.7334821 349.481473,56.8238839 C349.481473,56.8620536 349.467411,56.8982143 349.443304,56.9283482 L346.833705,60.0401786 L349.445312,63.1540179 C349.46942,63.1841518 349.483482,63.2203125 349.483482,63.2584821 C349.483482,63.346875 349.411161,63.4191964 349.322768,63.4191964 Z" id="形状"></path>
                </g>
            </g>
        </g>
    </g>
</svg>