<?xml version="1.0" encoding="UTF-8"?>
<svg width="14px" height="14px" viewBox="0 0 14 14" version="1.1" xmlns="http://www.w3.org/2000/svg" xmlns:xlink="http://www.w3.org/1999/xlink">
    <!-- Generator: Sketch 52.4 (67378) - http://www.bohemiancoding.com/sketch -->
    <title>删除</title>
    <desc>Created with Sketch.</desc>
    <g id="Page-1" stroke="none" stroke-width="1" fill="none" fill-rule="evenodd">
        <g id="Artboard" transform="translate(-254.000000, -182.000000)" fill="#ffffff">
            <g id="删除" transform="translate(253.000000, 181.000000)">
                <rect id="Rectangle" opacity="0" x="0" y="0" width="16" height="16"></rect>
                <path d="M10.32025,5.6691875 L11.0963437,5.6691875 L11.0963437,11.877625 L10.32025,11.877625 L10.32025,5.6691875 Z M8.380125,11.877625 L8.380125,5.6691875 L7.6040625,5.6691875 L7.6040625,11.877625 L7.99207813,11.877625 L8.380125,11.877625 Z M4.887875,5.6691875 L5.66396875,5.6691875 L5.66396875,11.877625 L4.887875,11.877625 L4.887875,5.6691875 Z M11.0963437,3.34104687 L11.0963437,1.7889375 C11.0963437,1.36226562 10.7472969,1.01289062 10.32025,1.01289062 L5.66395312,1.01289062 C5.23690625,1.01289062 4.887875,1.36226562 4.887875,1.7889375 L4.887875,3.34104687 L1.007625,3.34104687 L1.007625,4.11710937 L2.55976562,4.11710937 L2.55976562,14.2057969 C2.55976562,14.6325 2.90873437,14.9818594 3.33579687,14.9818594 L12.6484219,14.9818594 C13.0754844,14.9818594 13.4245156,14.6324844 13.4245156,14.2057969 L13.4245156,4.11709375 L14.9765937,4.11709375 L14.9765937,3.34103125 L11.0963438,3.34103125 L11.0963437,3.34104687 Z M5.66395312,1.7889375 L10.32025,1.7889375 L10.32025,3.34104687 L5.66395312,3.34104687 L5.66395312,1.7889375 Z M12.6484063,14.2057812 L3.33578125,14.2057812 L3.33578125,4.11709375 L12.6484063,4.11709375 L12.6484063,14.2057812 Z" id="Shape" fill-rule="nonzero"></path>
            </g>
        </g>
    </g>
</svg>