<?xml version="1.0" encoding="UTF-8"?>
<svg width="20px" height="20px" viewBox="0 0 20 20" version="1.1" xmlns="http://www.w3.org/2000/svg" xmlns:xlink="http://www.w3.org/1999/xlink">
    <!-- Generator: Sketch 64 (93537) - https://sketch.com -->
    <title>形状</title>
    <desc>Created with Sketch.</desc>
    <g id="页面-1" stroke="none" stroke-width="1" fill="none" fill-rule="evenodd">
        <g id="我的收藏" transform="translate(-368.000000, -152.000000)" fill="#ed1c24" fill-rule="nonzero">
            <g id="编组" transform="translate(270.000000, 146.000000)">
                <path d="M117.411426,9.34307899 L113.138516,9.34307899 L113.138516,7.43788344 C113.138516,6.64465107 112.493865,6 111.700633,6 L104.288344,6 C103.495111,6 102.85046,6.64465107 102.85046,7.43788344 L102.85046,9.34307899 L98.4792945,9.34307899 C98.2156825,9.34307899 98,9.5587615 98,9.82237347 C98,10.0859854 98.2156825,10.3016679 98.4792945,10.3016679 L100.255081,10.3016679 L101.604294,24.5593367 C101.645035,25.0554064 102.062021,25.438842 102.560487,25.438842 L113.330234,25.438842 C113.8287,25.438842 114.24329,25.0554064 114.286426,24.5593367 L115.63564,10.3016679 L117.411426,10.3016679 C117.675038,10.3016679 117.890721,10.0859854 117.890721,9.82237347 C117.890721,9.55636503 117.675038,9.34307899 117.411426,9.34307899 Z M105.582439,20.4654266 C105.582439,20.638655 105.366756,20.7803873 105.103144,20.7803873 C104.839532,20.7803873 104.62385,20.638655 104.62385,20.4654266 L104.62385,13.0953479 C104.62385,12.9221196 104.839532,12.7803873 105.103144,12.7803873 C105.366756,12.7803873 105.582439,12.9221196 105.582439,13.0953479 L105.582439,20.4654266 Z M108.678681,20.4654266 C108.678681,20.638655 108.462998,20.7803873 108.199387,20.7803873 C107.935775,20.7803873 107.720092,20.638655 107.720092,20.4654266 L107.720092,13.0953479 C107.720092,12.9221196 107.935775,12.7803873 108.199387,12.7803873 C108.462998,12.7803873 108.678681,12.9221196 108.678681,13.0953479 L108.678681,20.4654266 Z M111.772527,20.4654266 C111.772527,20.638655 111.556844,20.7803873 111.293232,20.7803873 C111.02962,20.7803873 110.813938,20.638655 110.813938,20.4654266 L110.813938,13.0953479 C110.813938,12.9221196 111.02962,12.7803873 111.293232,12.7803873 C111.556844,12.7803873 111.772527,12.9221196 111.772527,13.0953479 L111.772527,20.4654266 Z M112.179927,9.34307899 L103.809049,9.34307899 L103.809049,7.43788344 C103.809049,7.17427147 104.024732,6.95858896 104.288344,6.95858896 L111.703029,6.95858896 C111.966641,6.95858896 112.182324,7.17427147 112.182324,7.43788344 L112.182324,9.34307899 L112.179927,9.34307899 Z" id="形状"></path>
            </g>
        </g>
    </g>
</svg>