<svg xmlns="http://www.w3.org/2000/svg" xmlns:xlink="http://www.w3.org/1999/xlink" viewBox="0 0 368.42 181.23"><defs><style>.cls-1{fill:url(#未命名的渐变_135);}.cls-2{fill:url(#未命名的渐变_135-2);}.cls-3{fill:url(#未命名的渐变_283);}.cls-4{fill:url(#未命名的渐变_283-2);}.cls-5{fill:url(#未命名的渐变_289);}.cls-6{opacity:0.1;}.cls-7{fill:#fff;}</style><linearGradient id="未命名的渐变_135" y1="135.92" x2="83.74" y2="135.92" gradientUnits="userSpaceOnUse"><stop offset="0" stop-color="#023fff"/><stop offset="0.27" stop-color="#0245ff"/><stop offset="0.63" stop-color="#0256ff"/><stop offset="1" stop-color="#026eff"/></linearGradient><linearGradient id="未命名的渐变_135-2" y1="45.28" x2="83.7" y2="45.28" xlink:href="#未命名的渐变_135"/><linearGradient id="未命名的渐变_283" x1="39.89" y1="136.23" x2="3.67" y2="176.87" gradientUnits="userSpaceOnUse"><stop offset="0" stop-opacity="0.3"/><stop offset="0.14" stop-opacity="0.14"/><stop offset="1" stop-opacity="0"/></linearGradient><linearGradient id="未命名的渐变_283-2" x1="40.92" y1="46.29" x2="0.28" y2="6.97" xlink:href="#未命名的渐变_283"/><linearGradient id="未命名的渐变_289" y1="90.61" x2="148.16" y2="90.61" gradientUnits="userSpaceOnUse"><stop offset="0" stop-color="#05c8d6"/><stop offset="0.03" stop-color="#07c6d7"/><stop offset="0.68" stop-color="#359fee"/><stop offset="1" stop-color="#4690f7"/></linearGradient></defs><title>Asset 5</title><g id="Layer_2" data-name="Layer 2"><g id="图层_1" data-name="图层 1"><path class="cls-1" d="M83.74,177.4a90.64,90.64,0,0,1-26.16,3.83H12.11C3.45,181.23,0,173.32,0,169.06V90.62a.75.75,0,0,0,0,.17A6.62,6.62,0,0,0,1.51,95l.91.93Z"/><path class="cls-2" d="M2.12,85.58a6.64,6.64,0,0,0-2.12,5V12.17C0,7.91,3.45,0,12.11,0H49.75c1.72,0,3.42,0,5.08,0l2.66.05q5,.12,9.52.38A90.25,90.25,0,0,1,83.7,3.82Z"/><path class="cls-3" d="M83.74,177.4a90.64,90.64,0,0,1-26.16,3.83H12.11C3.45,181.23,0,173.32,0,169.06V90.62a.75.75,0,0,0,0,.17A6.62,6.62,0,0,0,1.51,95l.91.93Z"/><path class="cls-4" d="M2.12,85.58a6.64,6.64,0,0,0-2.12,5V12.17C0,7.91,3.45,0,12.11,0H49.75c1.72,0,3.42,0,5.08,0l2.66.05q5,.12,9.52.38A90.25,90.25,0,0,1,83.7,3.82Z"/><path class="cls-5" d="M148.16,88.8a134.54,134.54,0,0,1-1.25,16.95,90.71,90.71,0,0,1-62.09,71.3l-1.09.34L2.43,95.93,1.51,95A6.62,6.62,0,0,1,0,90.79a.75.75,0,0,1,0-.17v-.07a6.64,6.64,0,0,1,2.12-5L83.7,3.82l1.26.4A90.62,90.62,0,0,1,148.16,88.8Z"/><g class="cls-6"><path class="cls-7" d="M118.6,89.16a107.69,107.69,0,0,1-1,13.57A72.61,72.61,0,0,1,67.9,159.8l-.87.28L1.94,94.87l-.73-.74A5.3,5.3,0,0,1,0,90.76a.6.6,0,0,1,0-.14v-.05a5.32,5.32,0,0,1,1.7-4L67,21.13l1,.32A72.54,72.54,0,0,1,118.6,89.16Z"/></g><g class="cls-6"><path class="cls-7" d="M88.95,89.53A80.77,80.77,0,0,1,88.2,99.7a54.45,54.45,0,0,1-37.27,42.8l-.65.21L1.46,93.81l-.55-.56A4,4,0,0,1,0,90.72a.45.45,0,0,1,0-.1v0a4,4,0,0,1,1.27-3l49-49.09.76.24A54.41,54.41,0,0,1,88.95,89.53Z"/></g><g class="cls-6"><path class="cls-7" d="M59.3,89.89a53.85,53.85,0,0,1-.5,6.78A36.3,36.3,0,0,1,34,125.21l-.43.14L1,92.74.6,92.37A2.65,2.65,0,0,1,0,90.68a.3.3,0,0,1,0-.07v0a2.66,2.66,0,0,1,.85-2L33.5,55.87,34,56A36.27,36.27,0,0,1,59.3,89.89Z"/></g><g class="cls-6"><path class="cls-7" d="M29.59,90.25a26.87,26.87,0,0,1-.25,3.38,18.11,18.11,0,0,1-12.4,14.24l-.22.07L.48,91.67.3,91.49a1.32,1.32,0,0,1-.3-.84.15.15,0,0,1,0,0H0a1.33,1.33,0,0,1,.42-1L16.71,73.28l.25.08A18.1,18.1,0,0,1,29.59,90.25Z"/></g><rect class="cls-7" x="206.95" y="117.88" width="4.89" height="25.84"/><path class="cls-7" d="M207,125.09a9.85,9.85,0,0,0-4.54-1.4l-.59,0-.59,0a10,10,0,1,0,5.73,1.4Zm-5.14,13.73A5.13,5.13,0,1,1,207,133.7,5.12,5.12,0,0,1,201.81,138.83Z"/><rect class="cls-7" x="270.16" y="117.88" width="4.89" height="25.84"/><path class="cls-7" d="M270.16,125.09a9.85,9.85,0,0,0-4.54-1.4l-.59,0-.59,0a10,10,0,1,0,5.72,1.4ZM265,138.83a5.13,5.13,0,1,1,5.13-5.13A5.14,5.14,0,0,1,265,138.83Z"/><path class="cls-7" d="M307.53,133.7v10h-4.9V132.31h4.81A9.79,9.79,0,0,1,307.53,133.7Z"/><path class="cls-7" d="M307.43,132.31a10,10,0,0,0-9.32-8.62l-.61,0-.59,0a10,10,0,1,0,10.62,10A9.83,9.83,0,0,0,307.43,132.31Zm-9.93,6.51a5.13,5.13,0,1,1,5.12-5.13A5.14,5.14,0,0,1,297.5,138.83Z"/><path class="cls-7" d="M368.42,133.7v10h-4.89V132.31h4.8A9.79,9.79,0,0,1,368.42,133.7Z"/><path class="cls-7" d="M368.32,132.31a10,10,0,0,0-9.32-8.62l-.61,0-.59,0a10,10,0,1,0,10.62,10A9.84,9.84,0,0,0,368.32,132.31Zm-9.92,6.51a5.13,5.13,0,1,1,5.13-5.13A5.14,5.14,0,0,1,358.4,138.83Z"/><rect class="cls-7" x="319.71" y="123.69" width="16.24" height="4.89"/><path class="cls-7" d="M336,138.83v4.9h-.54a10,10,0,0,1-10-8.93,3.84,3.84,0,0,1-.05-.51c0-.18,0-.39,0-.57V117.87h4.89V133.7a5.15,5.15,0,0,0,3.63,4.9,5,5,0,0,0,1.5.23Z"/><path class="cls-7" d="M242.84,123.69V134a9.28,9.28,0,0,1-4.05,7.67,9.91,9.91,0,0,1-.85.52,9.13,9.13,0,0,1-4.39,1.11,9.31,9.31,0,0,1-9.3-9.3V123.69h4.91V134a4.39,4.39,0,1,0,8.78,0V123.69Z"/><path class="cls-7" d="M242.84,134v15.35h-4.89V141l.24-.16a8.23,8.23,0,0,0,3.58-6.78Z"/><path class="cls-7" d="M260.57,110.74h0v-.09A.16.16,0,0,0,260.57,110.74Z"/><path class="cls-7" d="M307,50v7.76c0,.1,0,.22,0,.37a2.66,2.66,0,0,1,0,.31A10.21,10.21,0,0,1,296.79,68V61.91A4.09,4.09,0,0,0,300.9,58V50Z"/><path class="cls-7" d="M307,57.78v.37h0C307,58,307,57.88,307,57.78Z"/><rect class="cls-7" x="310.79" y="30.74" width="6.12" height="37.73"/><path class="cls-7" d="M326.78,57.72h0s0-.09,0-.13Z"/><path class="cls-7" d="M330.9,61.91V68a10.19,10.19,0,0,1-10.21-9.57,2.79,2.79,0,0,1,0-.31c0-.15,0-.27,0-.37V50h6.12v7.7l0-.12s0,.09,0,.13v0l0,.23A4.08,4.08,0,0,0,330.9,61.91Z"/><path class="cls-7" d="M320.66,57.78c0,.1,0,.22,0,.37h0Z"/><path class="cls-7" d="M326.78,57.72h0s0-.09,0-.13Z"/><rect class="cls-7" x="294.28" y="48.11" width="39.13" height="6.12"/><path class="cls-7" d="M345.22,55.63l-.23,0-5.19.92,4.79.85.63.11a6.68,6.68,0,0,0,0-1.92Zm-6,.87v.19s0-.06,0-.09S339.18,56.53,339.18,56.49Z"/><path class="cls-7" d="M307,44.56a4.83,4.83,0,0,1-.07.93h-6V44.34a4.1,4.1,0,0,0-4.11-3.9V34.31A10.22,10.22,0,0,1,307,43.89C307,44.18,307,44.41,307,44.56Z"/><path class="cls-7" d="M320.66,44.56a4.83,4.83,0,0,0,.07.93h6V44.34a4.1,4.1,0,0,1,4.11-3.9V34.31a10.22,10.22,0,0,0-10.22,9.58C320.66,44.18,320.66,44.41,320.66,44.56Z"/><path class="cls-7" d="M329.1,101.28c-5.59-4.11-21.71-9.11-27.46-10.68l-4.3-1.18L300,85.83c5.13-7,9.54-14,9.83-15.68l6.09.54c-.25,3-4.66,9.88-8.44,15.23,6.71,2,19.61,6.28,25.25,10.43Z"/><path class="cls-7" d="M331.87,73.59v3.07a2.74,2.74,0,0,1-.12.83.16.16,0,0,1,0,.07c-3.25,10.41-14.94,28-38.07,28V99.49c18.53,0,27.28-13,30.58-19.77H293.73V73.59Z"/><path class="cls-7" d="M368.42,105.6c-10.75,0-20-14.48-23.42-20.7-3.67-6.6-5.35-15.72-5.78-31.45l6.12-.17c.4,14.48,1.89,23,5,28.65,5.93,10.67,13,17.56,18.07,17.56Z"/><path class="cls-7" d="M332.32,105.6V99.49C344.45,99.49,357.2,70,357.2,57V47.84h6.12V57C363.32,71.11,349.9,105.6,332.32,105.6Z"/><rect class="cls-7" x="343.23" y="44.79" width="25.19" height="6.12"/><path class="cls-7" d="M336.38,73.76l-3.58-4.9c4.74-3.37,8.06-20.92,8.06-29.14V31.27H347v8.45C347,43.84,345,67.61,336.38,73.76Z"/><path class="cls-7" d="M215.44,99.49v6.12A11.39,11.39,0,0,1,204,94.88a1.23,1.23,0,0,1,0-.29V58.73h6.12V94.44A5.29,5.29,0,0,0,215.44,99.49Z"/><path class="cls-7" d="M239.94,55.67v6.12a10.2,10.2,0,0,1-10.21-9.58,2.83,2.83,0,0,1,0-.29c0-.15,0-.27,0-.37V43.78h6.12v7.68l0-.12a.61.61,0,0,1,0,.15v0l0,.22A4.09,4.09,0,0,0,239.94,55.67Z"/><path class="cls-7" d="M229.7,51.54c0,.1,0,.22,0,.37h0Z"/><path class="cls-7" d="M235.82,51.47v0a.61.61,0,0,0,0-.15Z"/><path class="cls-7" d="M256.86,43.78v7.76c0,.1,0,.22,0,.37a2.83,2.83,0,0,1,0,.29,10.2,10.2,0,0,1-10.21,9.58V55.67a4.09,4.09,0,0,0,4.1-3.9l0-.22v0a.62.62,0,0,1,0-.16l0,.12V43.78Z"/><path class="cls-7" d="M250.77,51.35a.62.62,0,0,0,0,.16v0Z"/><path class="cls-7" d="M250.75,51.47l0-.12a.62.62,0,0,0,0,.16Z"/><path class="cls-7" d="M256.86,51.54v.37h0C256.86,51.76,256.86,51.64,256.86,51.54Z"/><rect class="cls-7" x="198.72" y="55.66" width="16.72" height="6.12"/><rect class="cls-7" x="231.04" y="66.86" width="24.47" height="6.12"/><polygon class="cls-7" points="255.52 78.06 255.52 84.18 237.16 84.18 237.16 97.05 231.04 97.05 231.04 78.06 255.52 78.06"/><rect class="cls-7" x="201.37" y="40.72" width="14.08" height="6.12"/><rect class="cls-7" x="198.72" y="70.57" width="16.72" height="6.12"/><path class="cls-7" d="M235.82,51.47v0a.61.61,0,0,0,0-.15Z"/><rect class="cls-7" x="240.22" y="34.15" width="6.12" height="9.63"/><rect class="cls-7" x="240.22" y="61.78" width="6.12" height="16.28"/><rect class="cls-7" x="221.18" y="40.72" width="44.2" height="6.12"/><path class="cls-7" d="M249.44,86.71l0,.17v0Z"/><path class="cls-7" d="M255.52,84.18v2.74c0,.1,0,.22,0,.37a2.79,2.79,0,0,1,0,.31A10.06,10.06,0,0,1,246.06,97a6,6,0,0,1-.67,0h-8.22V90.93h8.22a4,4,0,0,0,4-3.79v-3Z"/><path class="cls-7" d="M255.52,86.92v.37h0C255.52,87.14,255.52,87,255.52,86.92Z"/><path class="cls-7" d="M194.49,65l-4-4.63c5.13-4.43,10.92-23.24,11.07-26.27l6.11.29C207.52,37.78,201.66,58.86,194.49,65Z"/><path class="cls-7" d="M265.38,55.67v38.5a5.8,5.8,0,0,1,0,.73,11.4,11.4,0,0,1-11.4,10.71V99.49a5.28,5.28,0,0,0,5.3-5l0-.28V61.78h-32v43.73h-6.12V55.67Z"/></g></g></svg>