<?xml version="1.0" encoding="UTF-8"?>
<svg width="12px" height="9px" viewBox="0 0 12 9" version="1.1" xmlns="http://www.w3.org/2000/svg" xmlns:xlink="http://www.w3.org/1999/xlink">
    <title>编组 2</title>
    <g id="控件" stroke="none" stroke-width="1" fill="none" fill-rule="evenodd">
        <g id="顶部栏登录前" transform="translate(-647.000000, -24.000000)">
            <g id="编组-5" transform="translate(584.000000, 18.000000)">
                <g id="编组-2" transform="translate(63.000000, 6.000000)">
                    <path d="M1.8369702e-16,3 L3,3 L3,1 C3,0.44771525 3.44771525,1.01453063e-16 4,0 L11,0 C11.5522847,-1.01453063e-16 12,0.44771525 12,1 L12,8 C12,8.55228475 11.5522847,9 11,9 L4,9 C3.44771525,9 3,8.55228475 3,8 L3,6 L1.8369702e-16,3 Z" id="形状结合" fill="#FF4C2A"></path>
                    <path d="M6,7 L5,7 L5,2 L6,2 L6,4 L9,4 L9,2 L10,2 L10,7 L9,7 L9,5 L6,5 L6,7 Z" id="形状结合" fill="#FFFFFF"></path>
                </g>
            </g>
        </g>
    </g>
</svg>