<svg xmlns="http://www.w3.org/2000/svg" xmlns:xlink="http://www.w3.org/1999/xlink" viewBox="0 0 408.88 205.32"><defs><style>.cls-1{fill:url(#未命名的渐变_135);}.cls-2{fill:url(#未命名的渐变_135-2);}.cls-3{fill:url(#未命名的渐变_283);}.cls-4{fill:url(#未命名的渐变_283-2);}.cls-5{fill:url(#未命名的渐变_289);}.cls-6{opacity:0.1;}.cls-7{fill:#fff;}.cls-8{fill:url(#未命名的渐变_292);}.cls-9{fill:url(#未命名的渐变_292-2);}.cls-10{fill:url(#未命名的渐变_292-3);}.cls-11{fill:url(#未命名的渐变_292-4);}.cls-12{fill:url(#未命名的渐变_292-5);}.cls-13{fill:url(#未命名的渐变_292-6);}.cls-14{fill:url(#未命名的渐变_292-7);}.cls-15{fill:url(#未命名的渐变_292-8);}.cls-16{fill:url(#未命名的渐变_292-9);}.cls-17{fill:url(#未命名的渐变_292-10);}.cls-18{fill:url(#未命名的渐变_292-11);}.cls-19{fill:url(#未命名的渐变_292-12);}.cls-20{fill:url(#未命名的渐变_292-13);}.cls-21{fill:url(#未命名的渐变_292-14);}.cls-22{fill:url(#未命名的渐变_292-15);}.cls-23{fill:url(#未命名的渐变_292-16);}.cls-24{fill:url(#未命名的渐变_292-17);}.cls-25{fill:url(#未命名的渐变_292-18);}.cls-26{fill:url(#未命名的渐变_292-19);}.cls-27{fill:url(#未命名的渐变_292-21);}.cls-28{fill:url(#未命名的渐变_292-22);}.cls-29{fill:url(#未命名的渐变_292-23);}.cls-30{fill:url(#未命名的渐变_292-24);}.cls-31{fill:url(#未命名的渐变_292-25);}.cls-32{fill:url(#未命名的渐变_292-26);}.cls-33{fill:url(#未命名的渐变_292-27);}.cls-34{fill:url(#未命名的渐变_292-28);}.cls-35{fill:url(#未命名的渐变_292-29);}.cls-36{fill:url(#未命名的渐变_292-30);}.cls-37{fill:url(#未命名的渐变_292-31);}.cls-38{fill:url(#未命名的渐变_292-32);}.cls-39{fill:url(#未命名的渐变_292-33);}.cls-40{fill:url(#未命名的渐变_292-34);}.cls-41{fill:url(#未命名的渐变_292-35);}.cls-42{fill:url(#未命名的渐变_292-36);}.cls-43{fill:url(#未命名的渐变_292-38);}.cls-44{fill:url(#未命名的渐变_292-39);}.cls-45{fill:url(#未命名的渐变_292-40);}.cls-46{fill:url(#未命名的渐变_292-41);}.cls-47{fill:url(#未命名的渐变_292-42);}.cls-48{fill:url(#未命名的渐变_292-43);}.cls-49{fill:url(#未命名的渐变_292-45);}.cls-50{fill:url(#未命名的渐变_292-46);}.cls-51{fill:url(#未命名的渐变_292-47);}.cls-52{fill:url(#未命名的渐变_292-48);}.cls-53{fill:url(#未命名的渐变_292-49);}.cls-54{fill:url(#未命名的渐变_292-50);}.cls-55{fill:url(#未命名的渐变_292-51);}.cls-56{fill:url(#未命名的渐变_292-52);}</style><linearGradient id="未命名的渐变_135" y1="153.99" x2="94.88" y2="153.99" gradientUnits="userSpaceOnUse"><stop offset="0" stop-color="#023fff"/><stop offset="0.27" stop-color="#0245ff"/><stop offset="0.63" stop-color="#0256ff"/><stop offset="1" stop-color="#026eff"/></linearGradient><linearGradient id="未命名的渐变_135-2" y1="51.3" x2="94.83" y2="51.3" xlink:href="#未命名的渐变_135"/><linearGradient id="未命名的渐变_283" x1="45.19" y1="154.34" x2="4.15" y2="200.39" gradientUnits="userSpaceOnUse"><stop offset="0" stop-opacity="0.3"/><stop offset="0.14" stop-opacity="0.14"/><stop offset="1" stop-opacity="0"/></linearGradient><linearGradient id="未命名的渐变_283-2" x1="46.36" y1="52.44" x2="0.32" y2="7.9" xlink:href="#未命名的渐变_283"/><linearGradient id="未命名的渐变_289" y1="102.65" x2="167.86" y2="102.65" gradientUnits="userSpaceOnUse"><stop offset="0" stop-color="#05c8d6"/><stop offset="0.03" stop-color="#07c6d7"/><stop offset="0.68" stop-color="#359fee"/><stop offset="1" stop-color="#4690f7"/></linearGradient><linearGradient id="未命名的渐变_292" x1="196.93" y1="159.8" x2="404.44" y2="146.77" gradientUnits="userSpaceOnUse"><stop offset="0" stop-color="#0256ff"/><stop offset="0.42" stop-color="#025cff"/><stop offset="0.97" stop-color="#026dff"/><stop offset="1" stop-color="#026eff"/></linearGradient><linearGradient id="未命名的渐变_292-2" x1="197.11" y1="162.56" x2="404.61" y2="149.52" xlink:href="#未命名的渐变_292"/><linearGradient id="未命名的渐变_292-3" x1="197.22" y1="164.32" x2="404.72" y2="151.29" xlink:href="#未命名的渐变_292"/><linearGradient id="未命名的渐变_292-4" x1="197.39" y1="167.07" x2="404.9" y2="154.04" xlink:href="#未命名的渐变_292"/><linearGradient id="未命名的渐变_292-5" x1="197.88" y1="174.85" x2="405.39" y2="161.81" xlink:href="#未命名的渐变_292"/><linearGradient id="未命名的渐变_292-6" x1="197.54" y1="169.39" x2="405.04" y2="156.36" xlink:href="#未命名的渐变_292"/><linearGradient id="未命名的渐变_292-7" x1="198.15" y1="179.2" x2="405.66" y2="166.16" xlink:href="#未命名的渐变_292"/><linearGradient id="未命名的渐变_292-8" x1="197.81" y1="173.74" x2="405.32" y2="160.71" xlink:href="#未命名的渐变_292"/><linearGradient id="未命名的渐变_292-9" x1="197.21" y1="164.15" x2="404.71" y2="151.12" xlink:href="#未命名的渐变_292"/><linearGradient id="未命名的渐变_292-10" x1="197.48" y1="168.47" x2="404.98" y2="155.43" xlink:href="#未命名的渐变_292"/><linearGradient id="未命名的渐变_292-11" x1="197.16" y1="163.4" x2="404.67" y2="150.37" xlink:href="#未命名的渐变_292"/><linearGradient id="未命名的渐变_292-12" x1="197.86" y1="174.56" x2="405.37" y2="161.52" xlink:href="#未命名的渐变_292"/><linearGradient id="未命名的渐变_292-13" x1="285.72" y1="134.95" x2="285.73" y2="134.95" xlink:href="#未命名的渐变_292"/><linearGradient id="未命名的渐变_292-14" x1="327.09" y1="75.94" x2="338.78" y2="75.94" xlink:href="#未命名的渐变_292"/><linearGradient id="未命名的渐变_292-15" x1="338.77" y1="74.73" x2="338.78" y2="74.73" xlink:href="#未命名的渐变_292"/><linearGradient id="未命名的渐变_292-16" x1="343.08" y1="65.18" x2="350.06" y2="65.18" xlink:href="#未命名的渐变_292"/><linearGradient id="未命名的渐变_292-17" x1="361.31" y1="74.39" x2="361.34" y2="74.39" xlink:href="#未命名的渐变_292"/><linearGradient id="未命名的渐变_292-18" x1="354.35" y1="75.94" x2="366.04" y2="75.94" xlink:href="#未命名的渐变_292"/><linearGradient id="未命名的渐变_292-19" x1="354.35" y1="74.73" x2="354.36" y2="74.73" xlink:href="#未命名的渐变_292"/><linearGradient id="未命名的渐变_292-21" x1="324.23" y1="66.97" x2="368.91" y2="66.97" xlink:href="#未命名的渐变_292"/><linearGradient id="未命名的渐变_292-22" x1="-3491.88" y1="73.16" x2="-3484.9" y2="73.16" gradientTransform="matrix(-1, 0, 0, 1, -3109.41, 0)" xlink:href="#未命名的渐变_292"/><linearGradient id="未命名的渐变_292-23" x1="327.09" y1="54.1" x2="338.78" y2="54.1" xlink:href="#未命名的渐变_292"/><linearGradient id="未命名的渐变_292-24" x1="-3530.21" y1="54.1" x2="-3518.51" y2="54.1" gradientTransform="matrix(-1, 0, 0, 1, -3164.16, 0)" xlink:href="#未命名的渐变_292"/><linearGradient id="未命名的渐变_292-25" x1="327.72" y1="106.41" x2="368.12" y2="106.41" xlink:href="#未命名的渐变_292"/><linearGradient id="未命名的渐变_292-26" x1="367.15" y1="110.85" x2="323.53" y2="110.85" xlink:href="#未命名的渐变_292"/><linearGradient id="未命名的渐变_292-27" x1="375.55" y1="99.25" x2="408.88" y2="99.25" xlink:href="#未命名的渐变_292"/><linearGradient id="未命名的渐变_292-28" x1="367.66" y1="96.15" x2="403.06" y2="96.15" xlink:href="#未命名的渐变_292"/><linearGradient id="未命名的渐变_292-29" x1="380.12" y1="63.17" x2="408.88" y2="63.17" xlink:href="#未命名的渐变_292"/><linearGradient id="未命名的渐变_292-30" x1="368.21" y1="68.5" x2="384.4" y2="68.5" xlink:href="#未命名的渐变_292"/><linearGradient id="未命名的渐变_292-31" x1="221.16" y1="102.36" x2="234.2" y2="102.36" xlink:href="#未命名的渐变_292"/><linearGradient id="未命名的渐变_292-32" x1="250.48" y1="68.81" x2="262.18" y2="68.81" xlink:href="#未命名的渐变_292"/><linearGradient id="未命名的渐变_292-33" x1="250.48" y1="67.6" x2="250.5" y2="67.6" xlink:href="#未命名的渐变_292"/><linearGradient id="未命名的渐变_292-34" x1="257.44" y1="67.25" x2="257.47" y2="67.25" xlink:href="#未命名的渐变_292"/><linearGradient id="未命名的渐变_292-35" x1="269.81" y1="68.81" x2="281.5" y2="68.81" xlink:href="#未命名的渐变_292"/><linearGradient id="未命名的渐变_292-36" x1="274.51" y1="67.26" x2="274.54" y2="67.26" xlink:href="#未命名的渐变_292"/><linearGradient id="未命名的渐变_292-38" x1="281.49" y1="67.6" x2="281.5" y2="67.6" xlink:href="#未命名的渐变_292"/><linearGradient id="未命名的渐变_292-39" x1="215.11" y1="75.59" x2="234.2" y2="75.59" xlink:href="#未命名的渐变_292"/><linearGradient id="未命名的渐变_292-40" x1="252.02" y1="88.38" x2="279.96" y2="88.38" xlink:href="#未命名的渐变_292"/><linearGradient id="未命名的渐变_292-41" x1="252.02" y1="108.51" x2="279.96" y2="108.51" xlink:href="#未命名的渐变_292"/><linearGradient id="未命名的渐变_292-42" x1="218.13" y1="58.53" x2="234.2" y2="58.53" xlink:href="#未命名的渐变_292"/><linearGradient id="未命名的渐变_292-43" x1="215.11" y1="92.61" x2="234.2" y2="92.61" xlink:href="#未命名的渐变_292"/><linearGradient id="未命名的渐变_292-45" x1="262.5" y1="53.03" x2="269.48" y2="53.03" xlink:href="#未命名的渐变_292"/><linearGradient id="未命名的渐变_292-46" x1="262.5" y1="88.38" x2="269.48" y2="88.38" xlink:href="#未命名的渐变_292"/><linearGradient id="未命名的渐变_292-47" x1="240.75" y1="58.53" x2="291.23" y2="58.53" xlink:href="#未命名的渐变_292"/><linearGradient id="未命名的渐变_292-48" x1="272.98" y1="107.65" x2="273.02" y2="107.65" xlink:href="#未命名的渐变_292"/><linearGradient id="未命名的渐变_292-49" x1="259" y1="112.01" x2="279.96" y2="112.01" xlink:href="#未命名的渐变_292"/><linearGradient id="未命名的渐变_292-50" x1="279.95" y1="108" x2="279.96" y2="108" xlink:href="#未命名的渐变_292"/><linearGradient id="未命名的渐变_292-51" x1="205.72" y1="65.18" x2="225.34" y2="65.18" xlink:href="#未命名的渐变_292"/><linearGradient id="未命名的渐变_292-52" x1="240.76" y1="100.61" x2="291.23" y2="100.61" xlink:href="#未命名的渐变_292"/></defs><title>Asset 5</title><g id="Layer_2" data-name="Layer 2"><g id="图层_1" data-name="图层 1"><path class="cls-1" d="M94.88,201a102.69,102.69,0,0,1-29.64,4.34H13.72c-9.82,0-13.72-9-13.72-13.78V102.67a.86.86,0,0,0,0,.2,7.49,7.49,0,0,0,1.7,4.77l1,1.05Z"/><path class="cls-2" d="M2.4,97A7.52,7.52,0,0,0,0,102.59V13.78C0,9,3.9,0,13.72,0H56.36c2,0,3.87,0,5.75,0,1,0,2,0,3,.06q5.65.14,10.78.44A102.24,102.24,0,0,1,94.83,4.32Z"/><path class="cls-3" d="M94.88,201a102.69,102.69,0,0,1-29.64,4.34H13.72c-9.82,0-13.72-9-13.72-13.78V102.67a.86.86,0,0,0,0,.2,7.49,7.49,0,0,0,1.7,4.77l1,1.05Z"/><path class="cls-4" d="M2.4,97A7.52,7.52,0,0,0,0,102.59V13.78C0,9,3.9,0,13.72,0H56.36c2,0,3.87,0,5.75,0,1,0,2,0,3,.06q5.65.14,10.78.44A102.24,102.24,0,0,1,94.83,4.32Z"/><path class="cls-5" d="M167.86,100.61a152.43,152.43,0,0,1-1.41,19.2,102.76,102.76,0,0,1-70.34,80.78l-1.23.39L2.75,108.69l-1-1.05A7.49,7.49,0,0,1,0,102.86a.86.86,0,0,1,0-.2v-.08A7.52,7.52,0,0,1,2.4,97L94.83,4.32l1.43.45A102.67,102.67,0,0,1,167.86,100.61Z"/><g class="cls-6"><path class="cls-7" d="M134.37,101a122,122,0,0,1-1.13,15.37,82.26,82.26,0,0,1-56.31,64.66l-1,.31L2.2,107.48l-.83-.84A6,6,0,0,1,0,102.82a.68.68,0,0,1,0-.16v-.06A6,6,0,0,1,1.92,98.1l74-74.15,1.14.36A82.18,82.18,0,0,1,134.37,101Z"/></g><g class="cls-6"><path class="cls-7" d="M100.78,101.43A91.51,91.51,0,0,1,99.93,113,61.69,61.69,0,0,1,57.7,161.45l-.74.23L1.65,106.28,1,105.65a4.5,4.5,0,0,1-1-2.87.51.51,0,0,1,0-.12v0a4.52,4.52,0,0,1,1.44-3.38L56.93,43.62l.86.27A61.64,61.64,0,0,1,100.78,101.43Z"/></g><g class="cls-6"><path class="cls-7" d="M67.18,101.84a61,61,0,0,1-.56,7.69,41.13,41.13,0,0,1-28.15,32.33L38,142,1.1,105.07l-.41-.42A3,3,0,0,1,0,102.74a.34.34,0,0,1,0-.08v0a3,3,0,0,1,1-2.25L38,63.3l.57.18A41.09,41.09,0,0,1,67.18,101.84Z"/></g><g class="cls-6"><path class="cls-7" d="M33.52,102.25a30.44,30.44,0,0,1-.28,3.83,20.52,20.52,0,0,1-14,16.13l-.25.08L.55,103.86l-.21-.21a1.5,1.5,0,0,1-.34-1,.17.17,0,0,1,0,0H0a1.5,1.5,0,0,1,.48-1.12L18.94,83l.28.09A20.5,20.5,0,0,1,33.52,102.25Z"/></g><rect class="cls-8" x="224.5" y="143.14" width="5.59" height="29.51"/><path class="cls-9" d="M218.64,149.75a11.45,11.45,0,1,0,11.45,11.45A11.46,11.46,0,0,0,218.64,149.75Zm0,17.31a5.85,5.85,0,1,1,5.86-5.86A5.85,5.85,0,0,1,218.64,167.06Z"/><rect class="cls-10" x="296.69" y="143.14" width="5.59" height="29.51"/><path class="cls-11" d="M290.83,149.75a11.45,11.45,0,1,0,11.45,11.45A11.47,11.47,0,0,0,290.83,149.75Zm0,17.31a5.85,5.85,0,1,1,5.86-5.86A5.86,5.86,0,0,1,290.83,167.06Z"/><path class="cls-12" d="M339.35,161.2v11.45h-5.6v-13h5.49A11.18,11.18,0,0,1,339.35,161.2Z"/><path class="cls-13" d="M339.24,159.62a11.41,11.41,0,1,0,.11,1.58A11.18,11.18,0,0,0,339.24,159.62Zm-11.34,7.44a5.85,5.85,0,1,1,5.85-5.86A5.87,5.87,0,0,1,327.9,167.06Z"/><path class="cls-14" d="M408.88,161.2v11.45H403.3v-13h5.48A11.18,11.18,0,0,1,408.88,161.2Z"/><path class="cls-15" d="M408.77,159.62a11.43,11.43,0,1,0,.11,1.58A11.18,11.18,0,0,0,408.77,159.62Zm-11.34,7.44a5.85,5.85,0,1,1,5.86-5.86A5.86,5.86,0,0,1,397.44,167.06Z"/><rect class="cls-16" x="353.27" y="150.98" width="18.54" height="5.59"/><path class="cls-17" d="M371.81,167.06v5.6h-.62a11.47,11.47,0,0,1-11.36-10.2,4.39,4.39,0,0,1-.06-.58c0-.21,0-.44,0-.65v-18.1h5.59V161.2a5.88,5.88,0,0,0,4.14,5.6,5.72,5.72,0,0,0,1.71.26Z"/><path class="cls-18" d="M265.49,147.83v13.75a10.61,10.61,0,0,1-4.63,8.76,10.4,10.4,0,0,1-6,1.86,10.63,10.63,0,0,1-10.62-10.62V148h5.6v13.59a5,5,0,1,0,10,0V147.83Z"/><path class="cls-19" d="M265.49,161.58v17.53H259.9v-9.6l.27-.19a9.4,9.4,0,0,0,4.08-7.75Z"/><path class="cls-20" d="M285.73,135h0v-.1A.18.18,0,0,0,285.73,135Z"/><path class="cls-21" d="M338.78,65.66v8.86c0,.11,0,.25,0,.42a3,3,0,0,1,0,.35,11.65,11.65,0,0,1-11.67,10.93v-7a4.68,4.68,0,0,0,4.69-4.44V65.66Z"/><path class="cls-22" d="M338.78,74.52v.42h0C338.78,74.77,338.78,74.63,338.78,74.52Z"/><rect class="cls-23" x="343.08" y="43.64" width="6.99" height="43.08"/><path class="cls-24" d="M361.34,74.45h0c0-.06,0-.1,0-.15Z"/><path class="cls-25" d="M366,79.23v7a11.64,11.64,0,0,1-11.65-10.93,3.19,3.19,0,0,1,0-.35c0-.17,0-.31,0-.42V65.66h7v8.79l0-.14c0,.06,0,.1,0,.15v.06l0,.27A4.66,4.66,0,0,0,366,79.23Z"/><path class="cls-26" d="M354.35,74.52c0,.11,0,.25,0,.42h0Z"/><path class="cls-24" d="M361.34,74.45h0c0-.06,0-.1,0-.15Z"/><rect class="cls-27" x="324.23" y="63.48" width="44.68" height="6.99"/><path class="cls-28" d="M382.39,74.26l-6.19-1.11,6.19-1.1a7.5,7.5,0,0,1,0,2.2Zm-6.9-1V73a.73.73,0,0,1,0,.22Z"/><path class="cls-29" d="M338.78,59.41a5.52,5.52,0,0,1-.08,1.06h-6.9V59.16a4.68,4.68,0,0,0-4.69-4.46v-7a11.67,11.67,0,0,1,11.67,10.94C338.78,59,338.78,59.25,338.78,59.41Z"/><path class="cls-30" d="M354.35,59.41a5.52,5.52,0,0,0,.08,1.06h6.9V59.16A4.68,4.68,0,0,1,366,54.71v-7a11.67,11.67,0,0,0-11.67,10.94C354.35,59,354.35,59.25,354.35,59.41Z"/><path class="cls-31" d="M364,124.18c-6.38-4.7-24.79-10.4-31.35-12.2l-4.91-1.35,3-4.09c5.86-7.95,10.9-16,11.22-17.91l7,.62c-.29,3.48-5.32,11.28-9.64,17.39,7.67,2.32,22.39,7.17,28.83,11.91Z"/><path class="cls-32" d="M367.15,92.57v3.51a3.13,3.13,0,0,1-.14,1,.18.18,0,0,1,0,.08c-3.72,11.89-17.06,32-43.47,32v-7c21.15,0,31.14-14.84,34.92-22.58H323.6v-7Z"/><path class="cls-33" d="M408.88,129.12c-12.27,0-22.79-16.53-26.74-23.64-4.19-7.54-6.1-17.94-6.59-35.91l7-.19c.45,16.54,2.16,26.32,5.72,32.71,6.77,12.18,14.87,20,20.64,20Z"/><path class="cls-34" d="M367.66,129.12v-7c13.85,0,28.41-33.65,28.41-48.49V63.17h7V73.64C403.06,89.73,387.74,129.12,367.66,129.12Z"/><rect class="cls-35" x="380.12" y="59.68" width="28.77" height="6.99"/><path class="cls-36" d="M372.3,92.76l-4.08-5.6c5.41-3.85,9.2-23.89,9.2-33.28V44.24h7v9.65C384.4,58.59,382.17,85.74,372.3,92.76Z"/><path class="cls-37" d="M234.2,122.14v7a13,13,0,0,1-13-12.24,1.4,1.4,0,0,1,0-.34v-41h7v40.79A6,6,0,0,0,234.2,122.14Z"/><path class="cls-38" d="M262.18,72.1v7a11.65,11.65,0,0,1-11.65-10.94,3.24,3.24,0,0,1,0-.34c0-.17,0-.31,0-.42V58.53h7v8.77l0-.14a.7.7,0,0,1,0,.17v.06l0,.25A4.67,4.67,0,0,0,262.18,72.1Z"/><path class="cls-39" d="M250.48,67.39c0,.11,0,.25,0,.42h0Z"/><path class="cls-40" d="M257.47,67.31v0a.7.7,0,0,0,0-.17Z"/><path class="cls-41" d="M281.5,58.53v8.86c0,.11,0,.25,0,.42a3.24,3.24,0,0,1,0,.34,11.65,11.65,0,0,1-11.65,10.94v-7a4.67,4.67,0,0,0,4.68-4.46l0-.25v0a.71.71,0,0,1,0-.18l0,.14V58.53Z"/><path class="cls-42" d="M274.54,67.17a.71.71,0,0,0,0,.18v0Z"/><path class="cls-42" d="M274.51,67.31l0-.14a.71.71,0,0,0,0,.18Z"/><path class="cls-43" d="M281.5,67.39v.42h0C281.5,67.64,281.5,67.5,281.5,67.39Z"/><rect class="cls-44" x="215.11" y="72.1" width="19.1" height="6.99"/><rect class="cls-45" x="252.02" y="84.89" width="27.95" height="6.99"/><polygon class="cls-46" points="279.96 97.67 279.96 104.66 259 104.66 259 119.36 252.02 119.36 252.02 97.67 279.96 97.67"/><rect class="cls-47" x="218.13" y="55.04" width="16.07" height="6.99"/><rect class="cls-48" x="215.11" y="89.12" width="19.1" height="6.99"/><path class="cls-40" d="M257.47,67.31v0a.7.7,0,0,0,0-.17Z"/><rect class="cls-49" x="262.5" y="47.54" width="6.99" height="11"/><rect class="cls-50" x="262.5" y="79.09" width="6.99" height="18.59"/><rect class="cls-51" x="240.75" y="55.04" width="50.48" height="6.99"/><path class="cls-52" d="M273,107.55l0,.2v0Z"/><path class="cls-53" d="M280,104.66v3.13c0,.11,0,.25,0,.42a3.19,3.19,0,0,1,0,.35,11.49,11.49,0,0,1-10.76,10.76,6.89,6.89,0,0,1-.77,0H259v-7h9.39A4.56,4.56,0,0,0,273,108v-3.38Z"/><path class="cls-54" d="M280,107.79v.42h0C280,108,280,107.9,280,107.79Z"/><path class="cls-55" d="M210.28,82.81l-4.57-5.29c5.85-5.06,12.47-26.54,12.64-30l7,.33C225.15,51.67,218.46,75.75,210.28,82.81Z"/><path class="cls-56" d="M291.23,72.1v44a6.62,6.62,0,0,1,0,.84,13,13,0,0,1-13,12.23v-7a6,6,0,0,0,6.05-5.76l0-.32v-37h-36.5V129h-7V72.1Z"/></g></g></svg>