<?xml version="1.0" encoding="UTF-8"?>
<svg width="78px" height="78px" viewBox="0 0 78 78" version="1.1" xmlns="http://www.w3.org/2000/svg" xmlns:xlink="http://www.w3.org/1999/xlink">
    <!-- Generator: Sketch 52.5 (67469) - http://www.bohemiancoding.com/sketch -->
    <title>EXCEL</title>
    <desc>Created with Sketch.</desc>
    <g id="Page-1" stroke="none" stroke-width="1" fill="none" fill-rule="evenodd">
        <g id="数据首页" transform="translate(-430.000000, -804.000000)">
            <g id="数据搜索结果" transform="translate(364.000000, 509.000000)">
                <g id="数据列表" transform="translate(50.000000, 41.000000)">
                    <g id="间距-&lt;v25&gt;" transform="translate(1.000000, 45.000000)">
                        <g id="Group-2">
                            <g id="Group-10-[25v]" transform="translate(0.000000, 190.000000)">
                                <g id="EXCEL" transform="translate(15.000000, 19.000000)">
                                    <g id="图标">
                                        <rect id="Rectangle-6" fill="#03AD20" x="0" y="0" width="77.7974026" height="77.7974026" rx="6.48311688"></rect>
                                        <path d="M20.9383624,45.0314276 L20.9383624,48.2217431 L9.11688312,48.2217431 L9.11688312,30.3782341 L20.9383624,30.3782341 L20.9383624,33.5685496 L12.8512835,33.5685496 L12.8512835,37.7357447 L20.4808365,37.7357447 L20.4808365,40.6911145 L12.8512835,40.6911145 L12.8512835,45.0314276 L20.9383624,45.0314276 Z M29.2908558,43.77014 L29.0682757,43.77014 L26.533335,48.2217431 L22.7123757,48.2217431 L26.9908609,41.4825107 L22.6876446,34.5825259 L26.817743,34.5825259 L29.229028,39.0588601 L29.4516081,39.0588601 L31.8628931,34.5825259 L35.7951425,34.5825259 L31.5166574,41.3217583 L35.8322392,48.2217431 L31.8257965,48.2217431 L29.2908558,43.77014 Z M48.9331092,39.3927303 L45.5696758,39.3927303 C45.4460195,38.7249865 45.1513099,38.1994553 44.685538,37.8161209 C44.2197661,37.4327865 43.6117986,37.2411222 42.8616173,37.2411222 C41.8888547,37.2411222 41.1407455,37.5955981 40.6172674,38.3045607 C40.0937892,39.0135232 39.8320541,40.035733 39.8320541,41.3712206 C39.8320541,42.7231957 40.0937892,43.7598318 40.6172674,44.48116 C41.1407455,45.2024881 41.8888547,45.5631468 42.8616173,45.5631468 C43.6035548,45.5631468 44.2074005,45.3859088 44.6731724,45.0314276 C45.1389443,44.6769463 45.4377758,44.1658414 45.5696758,43.4980976 L48.9331092,43.4980976 C48.7847217,45.039679 48.1746933,46.2617967 47.1030058,47.1644874 C46.0313182,48.0671781 44.6175361,48.5185166 42.8616173,48.5185166 C40.7347296,48.5185166 39.0921869,47.8981837 37.93394,46.6574992 C36.775693,45.4168148 36.1965782,43.6547395 36.1965782,41.3712206 C36.1965782,39.1041892 36.7736321,37.3565402 37.9277572,36.1282214 C39.0818823,34.8999025 40.7264859,34.2857523 42.8616173,34.2857523 C44.6422674,34.2857523 46.0622321,34.7432736 47.1215541,35.65833 C48.1808761,36.5733863 48.7847217,37.8181739 48.9331092,39.3927303 Z M56.8280768,37.0432731 C55.995458,37.0432731 55.309176,37.311191 54.7692103,37.8470348 C54.2292447,38.3828786 53.9262914,39.0918305 53.8603414,39.9739118 L59.6721565,39.9739118 C59.6309378,39.0670993 59.3568372,38.3519646 58.8498465,37.8284865 C58.3428558,37.3050083 57.6689393,37.0432731 56.8280768,37.0432731 Z M59.7463499,44.338956 L63.0974178,44.338956 C62.825374,45.6332248 62.1349702,46.6533737 61.0261858,47.3994331 C59.9174013,48.1454925 58.5304111,48.5185166 56.8651735,48.5185166 C54.7877483,48.5185166 53.1678756,47.8981837 52.0055068,46.6574992 C50.8431379,45.4168148 50.2619622,43.687714 50.2619622,41.4701451 C50.2619622,39.2525762 50.8472597,37.5008054 52.0178723,36.2147803 C53.1884849,34.9287552 54.7877485,34.2857523 56.8157112,34.2857523 C58.8271864,34.2857523 60.3955364,34.8916589 61.5208084,36.1034903 C62.6460803,37.3153216 63.2087079,39.0052651 63.2087079,41.1733716 L63.2087079,42.2739068 L53.8479758,42.2739068 L53.8479758,42.4593902 C53.8727071,43.4733715 54.1632949,44.2750643 54.7197481,44.8644924 C55.2762013,45.4539206 56.0243104,45.7486303 56.964098,45.7486303 C57.6730605,45.7486303 58.2666017,45.6270368 58.7447392,45.3838461 C59.2228767,45.1406555 59.5567436,44.7923623 59.7463499,44.338956 Z M65.4649781,48.2217431 L65.4649781,29.3766234 L69.0633573,29.3766234 L69.0633573,48.2217431 L65.4649781,48.2217431 Z" id="Excel" fill-opacity="0.97" fill="#FFFFFF"></path>
                                    </g>
                                </g>
                            </g>
                        </g>
                    </g>
                </g>
            </g>
        </g>
    </g>
</svg>