<?xml version="1.0" encoding="UTF-8"?>
<svg width="20px" height="15px" viewBox="0 0 20 15" version="1.1" xmlns="http://www.w3.org/2000/svg" xmlns:xlink="http://www.w3.org/1999/xlink">
    <!-- Generator: Sketch 52.1 (67048) - http://www.bohemiancoding.com/sketch -->
    <title>Aa</title>
    <desc>Created with Sketch.</desc>
    <defs>
        <linearGradient x1="100%" y1="100%" x2="0%" y2="0%" id="linearGradient-1">
            <stop stop-color="#6971FA" offset="0%"></stop>
            <stop stop-color="#1BA5F9" offset="100%"></stop>
        </linearGradient>
    </defs>
    <g id="Symbols" stroke="none" stroke-width="1" fill="none" fill-rule="evenodd">
        <g id="左一块" transform="translate(-15.000000, -91.000000)" fill="url(#linearGradient-1)">
            <g id="Group-2">
                <g transform="translate(13.000000, 89.000000)">
                    <g id="插入文字" transform="translate(2.000000, 0.000000)">
                        <path d="M4,2 L7,2 L11.25,17 L9,17 L7.5,13 L3.5,13 L2,17 L0,17 L4,2 Z M4,12 L7,12 L5.5,4 L4,12 Z M17.0121335,8.25 C18.9762386,8.25 20,9.95183486 20,10.9633028 L20,17 L18.75,17 L18.75,15.75 C18.3961072,16.1674312 18.1799798,16.4059633 17.6668352,16.6307339 C17.082912,16.8715596 16.392821,17 15.5965622,17 C14.6410516,17 13.8978766,16.7752294 13.3493428,16.3417431 C12.7831143,15.8922018 12.5,15.3302752 12.5,14.6399083 C12.5,13.7087156 12.8892821,12.9862385 13.7032356,12.4885321 C14.4464105,12.0068807 15.4903943,11.75 16.8351871,11.7178899 L18.75,11.6697248 L18.75,11.3486239 C18.75,10.2568807 17.5,9.72706422 16.8705763,9.72706422 C15,9.72706422 14.8710819,10.5298165 14.7649141,10.9633028 L12.7654196,10.8188073 C12.9600607,9.90366972 13.75,8.25 17.0121335,8.25 Z M18.8273403,13.25 L16.3162917,13.25 C15.0607674,13.25 13.8052431,13.40125 13.8052431,14.48625 C13.8052431,14.80125 13.8052431,15.75 16.1656288,15.7225 C16.9388068,15.713492 17.5893933,15.495 18.1167135,15.0575 C18.4682603,14.7541667 18.7051359,14.1516667 18.8273403,13.25 Z" id="Aa"></path>
                    </g>
                </g>
            </g>
        </g>
    </g>
</svg>