<?xml version="1.0" encoding="UTF-8"?>
<svg width="12px" height="12px" viewBox="0 0 12 12" version="1.1" xmlns="http://www.w3.org/2000/svg" xmlns:xlink="http://www.w3.org/1999/xlink">
    <title>感叹号</title>
    <g id="页面-1" stroke="none" stroke-width="1" fill="none" fill-rule="evenodd">
        <g id="导出gif" transform="translate(-1055.000000, -325.000000)" fill="#C3C4C7" fill-rule="nonzero">
            <g id="编组-2" transform="translate(1055.000000, 321.000000)">
                <g id="温馨提示">
                    <path d="M6,4 C2.68660714,4 0,6.68660714 0,10 C0,13.3133929 2.68660714,16 6,16 C9.31339286,16 12,13.3133929 12,10 C12,6.68660714 9.31339286,4 6,4 Z M5,6.13888889 C5,6.0625 5.1125,6 5.25,6 L6.75,6 C6.8875,6 7,6.0625 7,6.13888889 L7,10.8611111 C7,10.9375 6.8875,11 6.75,11 L5.25,11 C5.1125,11 5,10.9375 5,10.8611111 L5,6.13888889 Z M6,14 C5.44791667,14 5,13.5520833 5,13 C5,12.4479167 5.44791667,12 6,12 C6.55208333,12 7,12.4479167 7,13 C7,13.5520833 6.55208333,14 6,14 Z" id="感叹号"></path>
                </g>
            </g>
        </g>
    </g>
</svg>