<?xml version="1.0" encoding="UTF-8"?>
<svg width="18px" height="15px" viewBox="0 0 18 15" version="1.1" xmlns="http://www.w3.org/2000/svg" xmlns:xlink="http://www.w3.org/1999/xlink">
    <!-- Generator: Sketch 52.1 (67048) - http://www.bohemiancoding.com/sketch -->
    <title>插入图片</title>
    <desc>Created with Sketch.</desc>
    <defs>
        <linearGradient x1="100%" y1="100%" x2="0%" y2="0%" id="linearGradient-1">
            <stop stop-color="#6971FA" offset="0%"></stop>
            <stop stop-color="#1BA5F9" offset="100%"></stop>
        </linearGradient>
    </defs>
    <g id="Symbols" stroke="none" stroke-width="1" fill="none" fill-rule="evenodd">
        <g id="左一块" transform="translate(-16.000000, -229.000000)">
            <g id="Group-5">
                <g transform="translate(13.000000, 227.000000)">
                    <g id="插入图片" transform="translate(2.000000, 0.000000)">
                        <rect id="Rectangle-30" fill-opacity="0" fill="#FFFFFF" opacity="0.100000001" x="0" y="0" width="20" height="20"></rect>
                        <path d="M3,2 L17,2 C18.1045695,2 19,2.8954305 19,4 L19,15 C19,16.1045695 18.1045695,17 17,17 L3,17 C1.8954305,17 1,16.1045695 1,15 L1,4 C1,2.8954305 1.8954305,2 3,2 Z M4.5,8 C5.32842712,8 6,7.32842712 6,6.5 C6,5.67157288 5.32842712,5 4.5,5 C3.67157288,5 3,5.67157288 3,6.5 C3,7.32842712 3.67157288,8 4.5,8 Z M5,15 L17,15 C15.5454545,9.66666667 14.4545455,7 13.7272727,7 C13,7 12.2727273,8.9047619 11.5454545,12.7142857 C10.0909091,10.4285714 9,9.28571429 8.27272727,9.28571429 C7.54545455,9.28571429 6.45454545,11.1904762 5,15 Z" fill="url(#linearGradient-1)"></path>
                    </g>
                </g>
            </g>
        </g>
    </g>
</svg>