<?xml version="1.0" encoding="UTF-8"?>
<svg width="13px" height="14px" viewBox="0 0 13 14" version="1.1" xmlns="http://www.w3.org/2000/svg" xmlns:xlink="http://www.w3.org/1999/xlink">
    <title>编辑页面中锁定元素</title>
    <g id="页面-1" stroke="none" stroke-width="1" fill="none" fill-rule="evenodd">
        <g id="多个元素锁定统一说明" transform="translate(-551.000000, -310.000000)" fill="#FFFFFF">
            <g id="演示4" transform="translate(410.000000, 303.000000)">
                <g id="锁" transform="translate(133.000000, 0.000000)">
                    <path d="M14.5,7 C16.4329966,7 18,8.56700338 18,10.5 L18,11.5 C18,11.6700898 17.9878671,11.8373459 17.9644196,12.0009499 L20,12 C20.5522847,12 21,12.4477153 21,13 L21,20 C21,20.5522847 20.5522847,21 20,21 L9,21 C8.44771525,21 8,20.5522847 8,20 L8,13 C8,12.4477153 8.44771525,12 9,12 L11.0355804,12.0009499 C11.0121329,11.8373459 11,11.6700898 11,11.5 L11,10.5 C11,8.56700338 12.5670034,7 14.5,7 Z M16,15 L13,15 L13,18 L16,18 L16,15 Z M14.5,8 C13.1745166,8 12.0899613,9.03153594 12.0053177,10.3356243 L12,10.5 L12,11.5 C12,11.6713864 12.017246,11.8387448 12.0500973,12.0004345 L16.9499027,12.0004345 C16.9721678,11.8908486 16.9872646,11.7786587 16.9946823,11.6643757 L17,11.5 L17,10.5 C17,9.11928813 15.8807119,8 14.5,8 Z" id="编辑页面中锁定元素"></path>
                </g>
            </g>
        </g>
    </g>
</svg>