<?xml version="1.0" encoding="UTF-8"?>
<svg width="1083px" height="322px" viewBox="0 0 1083 322" version="1.1" xmlns="http://www.w3.org/2000/svg" xmlns:xlink="http://www.w3.org/1999/xlink">
    <!-- Generator: Sketch 64 (93537) - https://sketch.com -->
    <title>logo新</title>
    <desc>Created with Sketch.</desc>
    <defs>
        <linearGradient x1="49.9995646%" y1="101.115474%" x2="49.9995646%" y2="13.921669%" id="linearGradient-1">
            <stop stop-color="#BF479A" offset="0%"></stop>
            <stop stop-color="#B2489A" offset="4.52%"></stop>
            <stop stop-color="#91499A" offset="17.34%"></stop>
            <stop stop-color="#75499B" offset="30.16%"></stop>
            <stop stop-color="#5D4A9B" offset="42.76%"></stop>
            <stop stop-color="#494A9B" offset="55.08%"></stop>
            <stop stop-color="#3B4A9B" offset="66.98%"></stop>
            <stop stop-color="#364A9B" offset="78.02%"></stop>
        </linearGradient>
        <linearGradient x1="50.0004538%" y1="101.116013%" x2="50.0004538%" y2="3.81045427%" id="linearGradient-2">
            <stop stop-color="#BF479A" offset="0%"></stop>
            <stop stop-color="#B4489A" offset="12.95%"></stop>
            <stop stop-color="#99499A" offset="37.8%"></stop>
            <stop stop-color="#6C499B" offset="71.7%"></stop>
            <stop stop-color="#364A9B" offset="100%"></stop>
        </linearGradient>
    </defs>
    <g id="页面-1" stroke="none" stroke-width="1" fill="none" fill-rule="evenodd">
        <g id="logo新">
            <g>
                <g id="编组-3" fill-rule="nonzero">
                    <path d="M7.01289453,63.6656188 C7.01289453,63.6656188 9.96077879,104.829449 46.0851868,134.777901 C63.7409222,149.418665 104.407519,168.597671 161.246042,176.19824 C161.246042,176.19824 280.309787,198.242259 287.914303,233.387985 C291.138428,250.400474 279.157468,272.109057 235.416706,296.264344 C169.367523,330.403765 71.8308322,339.211901 29.0845369,260.518781 C-14.6720107,170.831276 2.75483945,81.929084 7.01289453,63.6656188 Z" id="路径" fill="url(#linearGradient-1)"></path>
                    <path d="M127.501252,0 C104.924484,34.7629353 77.7660639,85.5951944 72.8174067,128.471718 C69.7037778,155.444661 75.4140705,172.208534 78.1172843,181.490226 C88.6262747,221.174194 79.2656569,257.227569 66.337586,280.538348 C62.8648442,287.365443 60.9864065,297.093066 73.910531,306.335296 C86.2584962,313.703033 134.876882,318.699046 163.329687,308.845141 C192.299458,298.809706 220.507593,278.344207 235.11284,249.911133 C271.462188,186.111341 234.01577,137.331156 210.547138,109.76232 C210.547138,109.76232 188.084812,83.8548772 171.391974,63.6656188 C162.027409,52.9356357 137.465654,31.6256288 127.501252,0 Z" id="路径" fill="url(#linearGradient-2)"></path>
                </g>
                <path d="M494.136,187.810588 C513.861882,185.923765 516.434824,178.376471 516.434824,163.968 L516.434824,86.6082353 C519.522353,85.9221176 521.580706,84.7214118 522.609882,83.3491765 L503.055529,68.5976471 L493.964471,78.8894118 L479.384471,78.8894118 C487.960941,74.6011765 495.508235,69.4552941 500.825647,64.824 C504.427765,65.3385882 506.486118,64.1378824 507.343765,62.2510588 L485.388,54.0176471 L520.723059,54.0176471 C523.124471,54.0176471 525.011294,53.16 525.525882,51.2731765 C518.321647,44.0689412 505.628471,33.0910588 505.628471,33.0910588 L494.479059,49.2148235 L472.523294,49.2148235 C484.701882,45.0981176 487.446353,23.8284706 450.910588,24.6861176 L449.709882,25.5437647 C454.169647,30.5181176 458.286353,38.9230588 458.972471,46.8134118 C460.516235,47.8425882 462.231529,48.7002353 463.775294,49.2148235 L421.064471,49.2148235 L422.436706,54.0176471 L440.275765,54.0176471 L439.075059,54.7037647 C442.848706,60.1927059 447.136941,68.9407059 448.166118,76.6595294 C449.538353,77.6887059 450.910588,78.3748235 452.282824,78.8894118 L445.421647,78.8894118 L423.294353,69.9698824 L423.294353,110.107765 C417.633882,104.104235 408.714353,95.6992941 408.714353,95.6992941 L400.995529,107.534824 L400.995529,84.8929412 L415.747059,84.8929412 C418.148471,84.8929412 419.863765,84.0352941 420.206824,82.1484706 C414.374824,75.8018824 403.911529,66.3677647 403.911529,66.3677647 L394.820471,80.0901176 L371.664,80.0901176 C376.809882,72.5428235 381.784235,63.9663529 385.900941,55.7329412 L417.119294,55.7329412 C419.520706,55.7329412 421.236,54.8752941 421.750588,52.9884706 C415.232471,47.1564706 405.283765,39.7807059 405.283765,39.7807059 L396.192706,50.9301176 L388.302353,50.9301176 C390.703765,45.7842353 392.590588,40.6383529 394.134353,36.0070588 C398.251059,35.4924706 399.794824,33.9487059 400.309412,31.5472941 L369.434118,25.0291765 C368.919529,41.6675294 364.974353,74.6011765 360,92.0971765 L361.715294,92.9548235 C364.288235,89.8672941 367.032706,86.6082353 369.605647,83.0061176 L370.120235,84.8929412 L379.554353,84.8929412 L379.554353,109.078588 L360.343059,109.078588 L361.715294,113.881412 L379.554353,113.881412 L379.554353,154.019294 C379.554353,157.792941 378.353647,159.336706 371.492471,165.168706 L392.247529,184.551529 C393.962824,182.664706 395.678118,179.405647 396.364235,175.117412 C407.856706,160.365882 416.776235,146.986588 421.064471,140.125412 L420.378353,138.581647 C413.860235,142.355294 407.170588,145.957412 400.995529,149.216471 L400.995529,113.881412 L419.520706,113.881412 C421.064471,113.881412 422.436706,113.538353 423.294353,112.680706 L423.294353,187.296 L426.553412,187.296 C435.644471,187.296 444.220941,182.321647 444.220941,180.091765 L444.220941,99.816 L445.593176,104.618824 L460.516235,104.618824 L460.516235,117.826588 L450.224471,113.538353 L450.224471,161.566588 L452.282824,161.566588 C458.286353,161.566588 464.632941,158.307529 464.632941,157.106824 L464.632941,151.789412 L473.895529,151.789412 L473.895529,159.679765 L476.468471,159.679765 C484.358824,159.679765 488.818588,154.533882 488.818588,153.161647 L488.818588,127.260706 C491.563059,126.917647 493.792941,125.545412 494.993647,124.344706 L481.785882,112.509176 L477.326118,117.312 L477.326118,104.618824 L491.734588,104.618824 C493.621412,104.618824 494.993647,104.104235 495.679765,102.732 L495.679765,161.738118 C495.679765,163.624941 495.165176,164.654118 493.278353,164.654118 C491.22,164.654118 484.701882,164.139529 484.701882,164.139529 L484.701882,166.540941 C489.333176,167.570118 491.22,169.8 492.420706,172.887529 C493.621412,175.803529 493.964471,181.120941 494.136,187.810588 Z M474.238588,78.8894118 L460.001647,78.8894118 C469.778824,75.2872941 471.837176,57.7912941 442.162588,54.0176471 L481.614353,54.0176471 C480.242118,61.7364706 477.497647,71.6851765 474.238588,78.8894118 Z M444.220941,83.6922353 L495.679765,83.6922353 L495.679765,101.531294 C491.048471,97.0715294 484.015765,91.5825882 484.015765,91.5825882 L477.497647,99.816 L477.326118,99.816 L477.326118,90.7249412 C481.271294,90.0388235 482.472,88.4950588 482.815059,86.4367059 L460.516235,84.3783529 L460.516235,99.816 L444.220941,99.816 L444.220941,83.6922353 Z M473.895529,146.986588 L464.632941,146.986588 L464.632941,124.516235 L473.895529,124.516235 L473.895529,146.986588 Z M548.568,187.467529 C570.180706,183.522353 587.505176,176.661176 600.884471,167.055529 C605.172706,169.628471 608.774824,172.372941 611.519294,175.288941 C624.555529,179.577176 636.048,162.252706 617.351294,151.617882 C623.011765,144.928235 627.471529,137.209412 630.902118,128.804471 C634.847294,128.289882 636.391059,127.775294 637.591765,126.06 L618.380471,109.421647 L606.716471,120.571059 L592.308,120.571059 L595.567059,113.881412 C600.884471,114.396 602.428235,112.852235 603.285882,111.136941 L584.760706,104.618824 L585.103765,104.618824 C593.508706,104.618824 603.457412,100.673647 603.457412,99.1298824 L603.457412,74.9442353 C607.745647,81.2908235 612.033882,89.0096471 613.749176,96.3854118 C632.960471,108.735529 649.084235,73.572 603.457412,69.6268235 L603.457412,67.0538824 L636.734118,67.0538824 C639.135529,67.0538824 640.850824,66.1962353 641.193882,64.3094118 C635.018824,58.1343529 624.384,49.0432941 624.384,49.0432941 L614.949882,62.2510588 L603.457412,62.2510588 L603.457412,31.7188235 C607.574118,31.0327059 608.774824,29.4889412 609.117882,27.4305882 L581.158588,24.8576471 L581.158588,62.2510588 L548.053412,62.2510588 L549.425647,67.0538824 L573.268235,67.0538824 C567.779294,81.1192941 558.688235,95.1847059 546.681176,105.133412 L548.224941,107.363294 C560.746588,102.045882 572.067529,95.5277647 581.158588,87.6374118 L581.158588,103.246588 L577.556471,102.045882 C576.012706,106.334118 573.096706,113.195294 569.666118,120.571059 L549.082588,120.571059 L550.626353,125.373882 L567.436235,125.373882 C563.491059,133.435765 559.202824,141.497647 555.943765,146.986588 L554.743059,148.701882 C564.863294,150.588706 576.870353,154.705412 587.848235,159.851294 C577.728,170.486118 564.520235,179.062588 547.538824,185.237647 L548.568,187.467529 Z M690.594353,187.982118 C693.681882,176.832706 700.2,170.143059 711.864,167.570118 L712.378588,165.854824 C698.656235,159.679765 687.163765,151.617882 677.729647,141.669176 C691.623529,121.257176 697.627059,96.3854118 700.2,69.1122353 L708.261882,69.1122353 C710.834824,69.1122353 712.721647,68.2545882 713.236235,66.3677647 C705.174353,59.1635294 691.795059,48.3571765 691.795059,48.3571765 L679.788,64.3094118 L664.007294,64.3094118 C667.266353,55.7329412 669.839294,46.4703529 672.240706,36.6931765 C676.185882,36.5216471 678.244235,34.8063529 678.930353,32.5764706 L646.168235,25.3722353 C644.796,56.7621176 638.449412,91.2395294 630.044471,114.739059 L632.102824,115.939765 C637.591765,110.793882 642.394588,104.961882 646.854353,98.6152941 C649.084235,113.366824 652.000235,127.089176 656.46,139.267765 C646.339765,157.621412 630.730588,173.573647 607.574118,186.266824 L608.431765,187.810588 C632.960471,180.777882 650.971059,170.486118 664.350353,157.449882 C671.04,169.628471 679.444941,179.920235 690.594353,187.982118 Z M609.289412,59.3350588 C615.979059,54.8752941 623.526353,48.0141176 629.701412,41.496 C633.303529,41.496 635.533412,39.9522353 636.219529,37.8938824 L612.033882,30.3465882 C610.490118,40.2952941 608.603294,51.4447059 606.888,58.1343529 L609.289412,59.3350588 Z M554.571529,31.0327059 L553.027765,31.8903529 C556.286824,38.0654118 559.717412,47.4995294 559.717412,55.9044706 C575.326588,69.7983529 595.395529,40.1237647 554.571529,31.0327059 Z M663.664235,123.144 C658.346824,114.052941 654.058588,103.761176 650.799529,92.4402353 C655.087765,85.236 658.861412,77.5171765 662.292,69.1122353 L673.441412,69.1122353 C672.755294,88.3235294 670.010824,106.505647 663.664235,123.144 Z M598.654588,145.614353 C593.165647,144.756706 586.819059,144.242118 579.443294,144.070588 C582.873882,138.238588 586.476,131.548941 589.735059,125.373882 L607.402588,125.373882 C605.344235,132.578118 602.428235,139.439294 598.654588,145.614353 Z M748.456941,187.810588 C758.920235,187.810588 768.697412,181.807059 768.697412,178.719529 L768.697412,173.402118 L859.779529,173.402118 L859.779529,186.952941 L863.724706,186.952941 C872.987294,186.952941 884.479765,181.120941 884.651294,179.405647 L884.651294,47.8425882 C888.253412,46.9849412 890.311765,45.6127059 891.512471,44.0689412 L869.556706,26.4014118 L858.064235,39.0945882 L770.584235,39.0945882 L744.340235,28.6312941 L744.340235,187.810588 L748.456941,187.810588 Z M768.697412,120.228 L768.697412,43.8974118 L788.937882,43.8974118 C786.536471,58.8204706 779.503765,81.1192941 770.755765,95.3562353 L772.128,97.2430588 C779.675294,92.2687059 787.051059,85.5790588 793.397647,78.7178824 C796.828235,85.5790588 800.944941,91.5825882 805.576235,96.9 C795.284471,106.334118 782.762824,114.396 768.697412,120.228 Z M859.779529,99.4729412 C850.345412,98.4437647 840.911294,96.7284706 831.820235,94.1555294 C839.539059,87.6374118 845.885647,80.2616471 850.86,72.0282353 C854.976706,71.6851765 856.520471,71.1705882 857.721176,69.2837647 L838.852941,52.9884706 L827.017412,63.9663529 L805.061647,63.9663529 C807.12,61.0503529 808.663765,58.3058824 810.036,55.5614118 C813.295059,55.9044706 814.838824,55.3898824 815.524941,53.6745882 L792.368471,43.8974118 L859.779529,43.8974118 L859.779529,99.4729412 Z M814.495765,87.8089412 C807.463059,84.3783529 801.288,80.2616471 796.485176,75.2872941 C798.372,73.0574118 800.087294,70.9990588 801.631059,68.7691765 L827.017412,68.7691765 C823.758353,75.4588235 819.641647,81.8054118 814.495765,87.8089412 Z M859.779529,168.599294 L768.697412,168.599294 L768.697412,121.085647 L769.383529,122.629412 C786.879529,119.027294 802.317176,113.195294 815.353412,105.648 C823.929882,112.337647 834.050118,117.312 845.542588,121.428706 C847.600941,111.651529 852.403765,104.961882 859.779529,102.217412 L859.779529,168.599294 Z M798.028941,114.224471 L797.171294,116.454353 C808.149176,122.286353 815.868,130.862824 818.612471,136.008706 C836.108471,143.384471 846.057176,107.534824 798.028941,114.224471 Z M785.678824,140.468471 L785.335765,142.526824 C805.576235,148.873412 822.900706,159.508235 830.276471,165.854824 C851.717647,171.000706 857.206588,128.118353 785.678824,140.468471 Z M965.498824,190.212 C966.871059,189.354353 968.414824,187.982118 969.615529,186.266824 C992.085882,172.544471 1009.75341,159.508235 1019.016,152.304 L1018.50141,150.588706 C1007.18047,153.504706 995.516471,156.249176 985.396235,158.650588 L985.396235,123.830118 C994.830353,117.312 1002.89224,110.107765 1009.06729,102.217412 C1017.30071,144.242118 1033.42447,169.628471 1062.58447,183.007765 C1063.61365,171.343765 1070.47482,161.909647 1081.96729,155.563059 L1082.31035,152.990118 C1064.98588,150.588706 1049.20518,145.614353 1036.34047,135.665647 C1049.89129,131.720471 1063.44212,126.403059 1073.21929,121.428706 C1077.16447,122.114824 1078.87976,121.085647 1079.73741,119.541882 L1052.97882,101.702824 C1048.51906,109.421647 1039.428,121.257176 1030.68,130.691294 C1022.78965,123.144 1016.44306,113.023765 1011.98329,99.816 L1075.44918,99.816 C1078.02212,99.816 1079.90894,98.9583529 1080.42353,97.0715294 C1072.36165,89.5242353 1058.81082,78.3748235 1058.81082,78.3748235 L1046.80376,95.0131765 L1012.84094,95.0131765 L1012.84094,74.6011765 L1062.92753,74.6011765 C1065.32894,74.6011765 1067.21576,73.7435294 1067.73035,71.8567059 C1060.18306,64.6524706 1046.97529,53.8461176 1046.97529,53.8461176 L1035.48282,69.7983529 L1012.84094,69.7983529 L1012.84094,50.7585882 L1068.588,50.7585882 C1070.98941,50.7585882 1072.87624,49.9009412 1073.39082,48.0141176 C1065.672,40.6383529 1052.29271,29.6604706 1052.29271,29.6604706 L1040.62871,45.9557647 L1012.84094,45.9557647 L1012.84094,31.3757647 C1017.64376,30.6896471 1018.84447,28.9743529 1019.18753,26.5729412 L987.454588,24 L987.454588,45.9557647 L929.477647,45.9557647 L930.849882,50.7585882 L987.454588,50.7585882 L987.454588,69.7983529 L938.054118,69.7983529 L939.426353,74.6011765 L987.454588,74.6011765 L987.454588,95.0131765 L921.244235,95.0131765 L922.616471,99.816 L974.932941,99.816 C963.097412,117.826588 942.342353,137.724 917.299059,149.902588 L918.156706,151.617882 C933.251294,148.015765 947.488235,143.212941 960.352941,137.552471 L960.352941,155.22 C960.352941,158.822118 958.980706,160.880471 950.232706,165.683294 L965.498824,190.212 Z" id="镝数图表" fill="#364A9B" fill-rule="nonzero"></path>
                <path d="M388.835341,297 C396.987952,297 403.277108,294.021563 407.46988,288.293801 L407.46988,295.396226 L419,295.396226 L419,212 L406.654618,212 L406.654618,244.991914 C401.763052,238.004043 395.590361,234.567385 388.253012,234.567385 C379.634538,234.567385 372.763052,237.660377 367.871486,243.846361 C363.212851,249.574124 361,256.791105 361,265.497305 C361,274.54717 363.329317,281.993261 367.987952,287.721024 C372.995984,293.907008 379.983936,297 388.835341,297 Z M390.846154,287 C384.846154,287 380.346154,284.809651 377.576923,280.544236 C375.153846,276.855228 374,271.782842 374,265.211796 C374,258.640751 375.269231,253.568365 377.807692,250.10992 C380.692308,245.959786 385.192308,244 391.192308,244 C395.692308,244 399.384615,245.729223 402.384615,249.418231 C405.384615,253.337802 407,258.525469 407,264.981233 L407,266.018767 C407,272.013405 405.730769,276.855228 403.192308,280.659517 C400.192308,284.809651 396.153846,287 390.846154,287 Z M452.428291,318 L485,236 L471.554028,236 L455.789784,279.236364 L439.330059,236 L426,236 L449.762279,293.916084 L439.330059,318 L452.428291,318 Z M518.026694,297 C525.75154,297 532.071869,295.066055 536.753593,291.311927 C541.435318,287.444037 544.595483,281.52844 546,273.678899 L533.710472,273.678899 C532.540041,282.552294 527.390144,287.102752 518.143737,287.102752 C512.759754,287.102752 508.780287,285.168807 506.088296,281.52844 C503.162218,277.774312 501.7577,272.541284 501.7577,265.943119 C501.7577,259.344954 503.162218,254.111927 506.205339,250.47156 C509.131417,246.717431 513.110883,244.897248 518.26078,244.897248 C522.474333,244.897248 525.868583,245.807339 528.443532,247.741284 C531.01848,249.561468 532.657084,252.519266 533.476386,256.500917 L545.765914,256.500917 C544.595483,249.220183 541.552361,243.759633 536.870637,240.119266 C532.188912,236.706422 525.985626,235 518.26078,235 C508.897331,235 501.640657,238.07156 496.373717,244.214679 C491.457906,249.902752 489,257.183486 489,266.056881 C489,275.157798 491.457906,282.438532 496.49076,288.126606 C501.640657,294.042202 508.780287,297 518.026694,297 Z M567.429204,295 L567.429204,261.936813 C567.429204,256.806319 568.719027,252.587912 571.415929,249.281593 C573.995575,245.975275 577.396018,244.379121 581.617257,244.379121 C586.307522,244.379121 589.942478,245.747253 592.287611,248.597527 C594.39823,251.333791 595.570796,255.210165 595.570796,260.45467 L595.570796,295 L608,295 L608,258.402473 C608,250.649725 606.24115,244.721154 602.723451,240.730769 C598.971239,236.512363 593.460177,234.460165 586.190265,234.460165 C582.320796,234.460165 578.920354,235.144231 575.871681,236.740385 C572.471239,238.336538 569.65708,240.958791 567.429204,244.379121 L567.429204,212 L555,212 L555,295 L567.429204,295 Z M638.566239,297 C643.972222,297 648.673077,295.976147 652.668803,294.155963 C656.194444,292.449541 659.132479,290.06055 661.482906,287.102752 L661.482906,295.407339 L673,295.407339 L673,257.866055 C673,250.699083 671.119658,245.238532 667.476496,241.484404 C663.245726,237.161468 656.66453,235 647.732906,235 C640.211538,235 634.100427,236.251376 629.634615,238.981651 C624.463675,241.93945 621.173077,246.717431 619.880342,253.088073 L632.220085,254.111927 C632.925214,250.812844 634.688034,248.423853 637.508547,246.831193 C639.858974,245.466055 643.032051,244.783486 646.910256,244.783486 C656.076923,244.783486 660.660256,248.878899 660.660256,257.069725 L660.660256,259.458716 L647.027778,259.8 C638.096154,260.027523 631.044872,261.733945 626.108974,265.146789 C620.702991,268.673394 618,273.792661 618,280.390826 C618,285.282569 619.880342,289.26422 623.758547,292.33578 C627.284188,295.407339 632.220085,297 638.566239,297 Z M641.629921,288 C638.440945,288 635.84252,287.186047 633.952756,285.674419 C631.944882,284.162791 631,282.302326 631,279.976744 C631,272.534884 636.669291,268.581395 648.125984,268.348837 L661,268 L661,271.488372 C661,276.139535 658.992126,280.093023 655.212598,283.232558 C651.433071,286.372093 646.944882,288 641.629921,288 Z M698.429967,295 L698.429967,263.52354 C698.429967,258.354049 699.954397,254.103578 703.120521,250.887006 C706.052117,247.900188 709.452769,246.40678 713.205212,246.40678 C716.019544,246.40678 718.95114,246.751412 722,247.670433 L722,235.493409 C719.889251,234.45951 717.192182,234 714.143322,234 C710.390879,234 707.107492,235.033898 704.29316,237.33145 C701.947883,238.939736 699.954397,241.352166 698.429967,244.568738 L698.429967,235.608286 L686,235.608286 L686,295 L698.429967,295 Z M759.496875,295 L759.496875,284.964912 L751.634375,284.964912 C750.13125,284.964912 749.090625,284.508772 748.396875,283.824561 C747.703125,283.026316 747.35625,281.885965 747.35625,280.289474 L747.35625,246.078947 L761,246.078947 L761,236.04386 L747.35625,236.04386 L747.35625,217 L735.1,222.017544 L735.1,236.04386 L724,236.04386 L724,246.078947 L735.1,246.078947 L735.1,280.289474 C735.1,284.964912 736.140625,288.5 738.453125,291.008772 C740.765625,293.631579 744.58125,295 749.66875,295 L759.496875,295 Z M793,297 C810.96087,297 820,290.743119 820,278.343119 C820,273.110092 817.534783,269.014679 812.721739,266.056881 C809.434783,264.009174 804.269565,262.075229 797.343478,260.482569 C791.23913,259.00367 787.247826,257.866055 785.134783,256.955963 C781.847826,255.477064 780.204348,253.770642 780.204348,251.722936 C780.204348,249.447706 781.26087,247.627523 783.491304,246.489908 C785.369565,245.352294 788.186957,244.897248 791.943478,244.897248 C796.169565,244.897248 799.456522,245.579817 801.569565,246.944954 C803.565217,248.19633 804.973913,250.357798 805.913043,253.543119 L818.004348,253.543119 C816.595652,241.143119 807.908696,235 792.178261,235 C784.9,235 778.913043,236.478899 774.334783,239.550459 C769.756522,242.508257 767.526087,246.717431 767.526087,252.06422 C767.526087,257.069725 769.873913,261.051376 774.569565,263.895413 C777.386957,265.715596 782.434783,267.422018 789.595652,269.014679 C795.817391,270.379817 799.926087,271.517431 801.804348,272.427523 C805.326087,274.020183 807.204348,276.295413 807.204348,279.13945 C807.204348,284.372477 802.273913,287.102752 792.647826,287.102752 C787.952174,287.102752 784.665217,286.306422 782.552174,284.827523 C780.43913,283.234862 778.913043,280.390826 778.208696,276.409174 L766,276.409174 C767.408696,290.06055 776.330435,297 793,297 Z M838.442953,296 C840.724832,296 842.778523,295.195946 844.489933,293.702703 C846.087248,291.97973 847,289.912162 847,287.614865 C847,285.087838 846.087248,283.02027 844.489933,281.412162 C842.778523,279.804054 840.724832,279 838.442953,279 C835.932886,279 833.993289,279.804054 832.510067,281.412162 C830.798658,283.02027 830,285.087838 830,287.614865 C830,289.912162 830.798658,291.97973 832.510067,293.702703 C833.993289,295.195946 835.932886,296 838.442953,296 Z M886.026694,297 C893.75154,297 900.071869,295.066055 904.753593,291.311927 C909.435318,287.444037 912.595483,281.52844 914,273.678899 L901.710472,273.678899 C900.540041,282.552294 895.390144,287.102752 886.143737,287.102752 C880.759754,287.102752 876.780287,285.168807 874.088296,281.52844 C871.162218,277.774312 869.7577,272.541284 869.7577,265.943119 C869.7577,259.344954 871.162218,254.111927 874.205339,250.47156 C877.131417,246.717431 881.110883,244.897248 886.26078,244.897248 C890.474333,244.897248 893.868583,245.807339 896.443532,247.741284 C899.01848,249.561468 900.657084,252.519266 901.476386,256.500917 L913.765914,256.500917 C912.595483,249.220183 909.552361,243.759633 904.870637,240.119266 C900.188912,236.706422 893.985626,235 886.26078,235 C876.897331,235 869.640657,238.07156 864.373717,244.214679 C859.457906,249.902752 857,257.183486 857,266.056881 C857,275.157798 859.457906,282.438532 864.49076,288.126606 C869.640657,294.042202 876.780287,297 886.026694,297 Z M952,297 C961.069767,297 968.395349,293.92844 973.976744,288.012844 C979.325581,282.324771 982,274.930275 982,266.056881 C982,257.069725 979.209302,249.675229 973.860465,243.873394 C968.395349,237.957798 961.069767,235 952,235 C942.930233,235 935.604651,237.957798 930.139535,243.873394 C924.674419,249.675229 922,257.069725 922,266.056881 C922,274.930275 924.674419,282.324771 930.023256,288.012844 C935.604651,293.92844 942.930233,297 952,297 Z M951.383333,287 C945.666667,287 941.233333,284.735849 938.083333,280.433962 C935.283333,276.698113 934,271.943396 934,266.056604 C934,260.169811 935.283333,255.301887 938.083333,251.566038 C941.233333,247.150943 945.666667,245 951.383333,245 C957.1,245 961.533333,247.150943 964.8,251.566038 C967.6,255.301887 969,260.169811 969,266.056604 C969,271.830189 967.6,276.584906 964.8,280.433962 C961.533333,284.735849 957.1,287 951.383333,287 Z M1005.32232,295 L1005.32232,259.27307 C1005.32232,255.137476 1006.48481,251.576271 1009.04227,248.704331 C1011.36724,245.717514 1014.62219,244.224105 1018.57464,244.224105 C1026.71202,244.224105 1030.89696,248.819209 1030.89696,258.239171 L1030.89696,295 L1043.21929,295 L1043.21929,258.468927 C1043.21929,254.103578 1044.38177,250.542373 1046.70674,248.015066 C1049.0317,245.487759 1051.82166,244.224105 1055.30911,244.224105 C1059.95905,244.224105 1063.4465,245.258004 1065.53897,247.555556 C1067.63144,249.73823 1068.67768,253.299435 1068.67768,258.124294 L1068.67768,295 L1081,295 L1081,256.056497 C1081,249.393597 1078.90753,244.109228 1074.95509,240.088512 C1070.88639,235.952919 1065.77147,234 1059.6103,234 C1055.54161,234 1052.17041,234.689266 1049.38045,236.182674 C1046.35799,237.676083 1043.45178,240.318267 1040.77807,243.99435 C1037.05812,237.33145 1030.66446,234 1021.82959,234 C1015.78468,234 1010.20476,236.642185 1005.32232,242.156309 L1005.32232,235.608286 L993,235.608286 L993,295 L1005.32232,295 Z" id="dycharts.com" fill="#364A9B" fill-rule="nonzero"></path>
            </g>
        </g>
    </g>
</svg>