<svg xmlns="http://www.w3.org/2000/svg" xmlns:xlink="http://www.w3.org/1999/xlink" viewBox="0 0 167.86 205.32"><defs><style>.cls-1{fill:url(#未命名的渐变_135);}.cls-2{fill:url(#未命名的渐变_135-2);}.cls-3{fill:url(#未命名的渐变_283);}.cls-4{fill:url(#未命名的渐变_283-2);}.cls-5{fill:url(#未命名的渐变_289);}.cls-6{opacity:0.1;}.cls-7{fill:#fff;}</style><linearGradient id="未命名的渐变_135" y1="153.99" x2="94.88" y2="153.99" gradientUnits="userSpaceOnUse"><stop offset="0" stop-color="#023fff"/><stop offset="0.27" stop-color="#0245ff"/><stop offset="0.63" stop-color="#0256ff"/><stop offset="1" stop-color="#026eff"/></linearGradient><linearGradient id="未命名的渐变_135-2" y1="51.3" x2="94.83" y2="51.3" xlink:href="#未命名的渐变_135"/><linearGradient id="未命名的渐变_283" x1="45.19" y1="154.34" x2="4.15" y2="200.39" gradientUnits="userSpaceOnUse"><stop offset="0" stop-opacity="0.3"/><stop offset="0.14" stop-opacity="0.14"/><stop offset="1" stop-opacity="0"/></linearGradient><linearGradient id="未命名的渐变_283-2" x1="46.36" y1="52.44" x2="0.32" y2="7.9" xlink:href="#未命名的渐变_283"/><linearGradient id="未命名的渐变_289" y1="102.65" x2="167.86" y2="102.65" gradientUnits="userSpaceOnUse"><stop offset="0" stop-color="#05c8d6"/><stop offset="0.03" stop-color="#07c6d7"/><stop offset="0.68" stop-color="#359fee"/><stop offset="1" stop-color="#4690f7"/></linearGradient></defs><title>Asset 6</title><g id="Layer_2" data-name="Layer 2"><g id="图层_1" data-name="图层 1"><path class="cls-1" d="M94.88,201a102.69,102.69,0,0,1-29.64,4.34H13.72c-9.82,0-13.72-9-13.72-13.78V102.67a.86.86,0,0,0,0,.2,7.49,7.49,0,0,0,1.7,4.77l1,1.05Z"/><path class="cls-2" d="M2.4,97A7.52,7.52,0,0,0,0,102.59V13.78C0,9,3.9,0,13.72,0H56.36c2,0,3.87,0,5.75,0,1,0,2,0,3,.06q5.65.14,10.78.44A102.24,102.24,0,0,1,94.83,4.32Z"/><path class="cls-3" d="M94.88,201a102.69,102.69,0,0,1-29.64,4.34H13.72c-9.82,0-13.72-9-13.72-13.78V102.67a.86.86,0,0,0,0,.2,7.49,7.49,0,0,0,1.7,4.77l1,1.05Z"/><path class="cls-4" d="M2.4,97A7.52,7.52,0,0,0,0,102.59V13.78C0,9,3.9,0,13.72,0H56.36c2,0,3.87,0,5.75,0,1,0,2,0,3,.06q5.65.14,10.78.44A102.24,102.24,0,0,1,94.83,4.32Z"/><path class="cls-5" d="M167.86,100.61a152.43,152.43,0,0,1-1.41,19.2,102.76,102.76,0,0,1-70.34,80.78l-1.23.39L2.75,108.69l-1-1.05A7.49,7.49,0,0,1,0,102.86a.86.86,0,0,1,0-.2v-.08A7.52,7.52,0,0,1,2.4,97L94.83,4.32l1.43.45A102.67,102.67,0,0,1,167.86,100.61Z"/><g class="cls-6"><path class="cls-7" d="M134.37,101a122,122,0,0,1-1.13,15.37,82.26,82.26,0,0,1-56.31,64.66l-1,.31L2.2,107.48l-.83-.84A6,6,0,0,1,0,102.82a.68.68,0,0,1,0-.16v-.06A6,6,0,0,1,1.92,98.1l74-74.15,1.14.36A82.18,82.18,0,0,1,134.37,101Z"/></g><g class="cls-6"><path class="cls-7" d="M100.78,101.43A91.51,91.51,0,0,1,99.93,113,61.69,61.69,0,0,1,57.7,161.45l-.74.23L1.65,106.28,1,105.65a4.5,4.5,0,0,1-1-2.87.51.51,0,0,1,0-.12v0a4.52,4.52,0,0,1,1.44-3.38L56.93,43.62l.86.27A61.64,61.64,0,0,1,100.78,101.43Z"/></g><g class="cls-6"><path class="cls-7" d="M67.18,101.84a61,61,0,0,1-.56,7.69,41.13,41.13,0,0,1-28.15,32.33L38,142,1.1,105.07l-.41-.42A3,3,0,0,1,0,102.74a.34.34,0,0,1,0-.08v0a3,3,0,0,1,1-2.25L38,63.3l.57.18A41.09,41.09,0,0,1,67.18,101.84Z"/></g><g class="cls-6"><path class="cls-7" d="M33.52,102.25a30.44,30.44,0,0,1-.28,3.83,20.52,20.52,0,0,1-14,16.13l-.25.08L.55,103.86l-.21-.21a1.5,1.5,0,0,1-.34-1,.17.17,0,0,1,0,0H0a1.5,1.5,0,0,1,.48-1.12L18.94,83l.28.09A20.5,20.5,0,0,1,33.52,102.25Z"/></g></g></g></svg>