<?xml version="1.0" encoding="UTF-8"?>
<svg width="17px" height="18px" viewBox="0 0 17 18" version="1.1" xmlns="http://www.w3.org/2000/svg" xmlns:xlink="http://www.w3.org/1999/xlink">
    <!-- Generator: Sketch 52.2 (67145) - http://www.bohemiancoding.com/sketch -->
    <title>高度</title>
    <desc>Created with Sketch.</desc>
    <g id="Symbols" stroke="none" stroke-width="1" fill="none" fill-rule="evenodd">
        <g id="对编辑区域的操作hover" transform="translate(-272.000000, -12.000000)" fill="#FFFFFF" fill-rule="nonzero">
            <g id="高度">
                <g transform="translate(266.000000, 6.000000)">
                    <g id="Group" transform="translate(6.000000, 6.000000)">
                        <path d="M15.671875,0 L1.328125,0 C0.595996094,0 0,0.631054687 0,1.40625 L0,16.59375 C0,17.3689453 0.595996094,18 1.328125,18 L15.671875,18 C16.4040039,18 17,17.3689453 17,16.59375 L17,1.40625 C17,0.631054687 16.4040039,0 15.671875,0 Z M16.203125,16.59375 C16.203125,16.903125 15.9640625,17.15625 15.671875,17.15625 L1.328125,17.15625 C1.0359375,17.15625 0.796875,16.903125 0.796875,16.59375 L0.796875,1.40625 C0.796875,1.096875 1.0359375,0.84375 1.328125,0.84375 L15.671875,0.84375 C15.9640625,0.84375 16.203125,1.096875 16.203125,1.40625 L16.203125,16.59375 Z" id="Shape"></path>
                        <path d="M8.5,2 L11,6 L6,6 L8.5,2 Z M8.5,16 L6,12 L11,12 L8.5,16 Z" id="Combined-Shape"></path>
                    </g>
                </g>
            </g>
        </g>
    </g>
</svg>