<?xml version="1.0" encoding="UTF-8"?>
<svg width="25px" height="25px" viewBox="0 0 25 25" version="1.1" xmlns="http://www.w3.org/2000/svg" xmlns:xlink="http://www.w3.org/1999/xlink">
    <!-- Generator: Sketch 54.1 (76490) - https://sketchapp.com -->
    <title>数据管理</title>
    <desc>Created with Sketch.</desc>
    <g id="数据管理" stroke="none" stroke-width="1" fill="none" fill-rule="evenodd">
        <g fill="#0079FA" fill-rule="nonzero" id="Combined-Shape">
            <path d="M20.9870679,14 C20.7270615,19.0142824 16.5789879,23 11.5,23 C6.25329488,23 2,18.7467051 2,13.5 C2,8.42101214 5.98571764,4.27293852 11,4.01293206 L11,2 C17.627417,2 23,7.372583 23,14 L20.9870679,14 Z M11,5.82551729 C6.98570517,6.08312937 3.80952381,9.42064623 3.80952381,13.5 C3.80952381,17.7473327 7.25266728,21.1904762 11.5,21.1904762 C15.5793538,21.1904762 18.9168706,18.0142948 19.1744827,14 L11,14 L11,5.82551729 Z M12.8461538,4.01357805 L12.8461538,12.1538462 L17.9376952,12.1538462 L20.9864219,12.1538462 C20.2282222,8.02613822 16.9738618,4.77177779 12.8461538,4.01357805 Z"></path>
        </g>
    </g>
</svg>
