<?xml version="1.0" encoding="UTF-8"?>
<svg width="25px" height="25px" viewBox="0 0 25 25" version="1.1" xmlns="http://www.w3.org/2000/svg" xmlns:xlink="http://www.w3.org/1999/xlink">
    <!-- Generator: Sketch 54.1 (76490) - https://sketchapp.com -->
    <title>项目管理</title>
    <desc>Created with Sketch.</desc>
    <g id="项目管理" stroke="none" stroke-width="1" fill="none" fill-rule="evenodd">
        <g fill="#C3C4C7" fill-rule="nonzero" id="Combined-Shape">
            <path d="M9.49293226,21 L17.9090909,21 C19.1642835,21 20.1818182,19.8807119 20.1818182,18.5 C20.1818182,17.1192881 19.1642835,16 17.9090909,16 L9.49293226,16 C9.92805834,16.715049 10.1818182,17.5749267 10.1818182,18.5 C10.1818182,19.4250733 9.92805834,20.284951 9.49293226,21 Z M6.09090909,14 L17.9090909,14 C20.1684376,14 22,16.0147186 22,18.5 C22,20.9852814 20.1684376,23 17.9090909,23 L6.09090909,23 C3.83156239,23 2,20.9852814 2,18.5 C2,16.0147186 3.83156239,14 6.09090909,14 Z M6.09090909,21 C7.3461017,21 8.36363636,19.8807119 8.36363636,18.5 C8.36363636,17.1192881 7.3461017,16 6.09090909,16 C4.83571648,16 3.81818182,17.1192881 3.81818182,18.5 C3.81818182,19.8807119 4.83571648,21 6.09090909,21 Z M14.5070677,10 C14.0719417,9.28495098 13.8181818,8.42507332 13.8181818,7.5 C13.8181818,6.57492668 14.0719417,5.71504902 14.5070677,5 L6.09090909,5 C4.83571648,5 3.81818182,6.11928813 3.81818182,7.5 C3.81818182,8.88071187 4.83571648,10 6.09090909,10 L14.5070677,10 Z M17.9090909,3 C20.1684376,3 22,5.01471863 22,7.5 C22,9.98528137 20.1684376,12 17.9090909,12 L6.09090909,12 C3.83156239,12 2,9.98528137 2,7.5 C2,5.01471863 3.83156239,3 6.09090909,3 L17.9090909,3 Z M17.9090909,10 C19.1642835,10 20.1818182,8.88071187 20.1818182,7.5 C20.1818182,6.11928813 19.1642835,5 17.9090909,5 C16.6538983,5 15.6363636,6.11928813 15.6363636,7.5 C15.6363636,8.88071187 16.6538983,10 17.9090909,10 Z"></path>
        </g>
    </g>
</svg>
