<?xml version="1.0" encoding="UTF-8"?>
<svg width="25px" height="25px" viewBox="0 0 25 25" version="1.1" xmlns="http://www.w3.org/2000/svg" xmlns:xlink="http://www.w3.org/1999/xlink">
    <!-- Generator: Sketch 54.1 (76490) - https://sketchapp.com -->
    <title>我的喜欢</title>
    <desc>Created with Sketch.</desc>
    <g id="我的喜欢" stroke="none" stroke-width="1" fill="none" fill-rule="evenodd">
        <g fill="#0079FA" fill-rule="nonzero" id="Path">
            <path d="M12.4922192,20.9999994 L12.4992771,20.9999992 C12.5879209,21.0001524 12.6699889,20.9670993 12.7261152,20.9123876 L20.5378536,13.3058477 C21.4759909,12.39145 22,11.1583873 22,9.87609509 C22,8.59380283 21.4759909,7.36074018 20.5379774,6.44646307 C18.703027,4.65825522 15.7589294,4.50927169 13.740231,6.10552331 L12.4996188,7.08651635 L11.2590889,6.10541937 C9.16227325,4.4471124 6.08595238,4.68080694 4.2830114,6.63037036 C2.50603815,8.55185426 2.58353314,11.4747638 4.46160828,13.3058348 L12.2663219,20.9131641 C12.3215888,20.9671005 12.4036117,21.000159 12.4922192,20.9999994 Z M12.4958203,22.9999962 C11.8858156,23.0010945 11.3005124,22.7651943 10.8694423,22.3445017 L3.06562129,14.738043 C0.411592779,12.1504391 0.301292927,7.99021554 2.81466041,5.27245087 C5.32802788,2.55468619 9.58471216,2.23132464 12.4997256,4.53671914 C15.3059188,2.31776939 19.3784695,2.52385732 21.93383,5.01412387 C23.2567754,6.30359215 24,8.05249798 24,9.87609509 C24,11.6996922 23.2567754,13.448598 21.93383,14.7380663 L14.1213838,22.3452957 C13.6903538,22.7654647 13.1054168,23.0010498 12.4958203,22.9999962 Z"></path>
        </g>
    </g>
</svg>
