<?xml version="1.0" encoding="UTF-8"?>
<svg width="15px" height="17px" viewBox="0 0 15 17" version="1.1" xmlns="http://www.w3.org/2000/svg" xmlns:xlink="http://www.w3.org/1999/xlink">
    <!-- Generator: Sketch 52.2 (67145) - http://www.bohemiancoding.com/sketch -->
    <title>2</title>
    <desc>Created with Sketch.</desc>
    <g id="Symbols" stroke="none" stroke-width="1" fill="none" fill-rule="evenodd">
        <g id="对编辑区域的操作hover" transform="translate(-43.000000, -12.000000)" fill="#FFFFFF" fill-rule="nonzero">
            <g id="字体变形">
                <g transform="translate(6.000000, 6.000000)">
                    <g id="2" transform="translate(30.000000, 0.000000)">
                        <path d="M20.3321509,9.40017067 C20.0287534,9.40017067 19.7436932,9.48347485 19.4986414,9.62883215 L19.4986414,8.550128 C19.4986414,7.61253094 18.7509834,6.85004267 17.8316225,6.85004267 C17.4882166,6.85004267 17.169816,6.956298 16.9039265,7.13820713 C16.6755449,6.47602389 16.0570809,6 15.3310942,6 C14.6051075,6 13.98581,6.47602389 13.7582619,7.13820713 C13.4932059,6.956298 13.1739718,6.85004267 12.8305659,6.85004267 C11.911205,6.85004267 11.163547,7.61253094 11.163547,8.550128 L11.163547,14.8174992 L10.0416433,12.8343431 C9.8240973,12.4305728 9.46902228,12.1432584 9.04226545,12.0242524 C8.62634423,11.9086466 8.19375283,11.9698497 7.82367464,12.195961 C7.06768157,12.6583842 6.77928731,13.7039367 7.18187237,14.5267714 C7.20687765,14.578624 7.73865668,15.6896297 9.39900749,19.0744996 C10.1808393,20.6683296 11.0385141,21.8082335 11.9487161,22.4610729 C12.6630337,22.9736487 13.1564713,23 13.2481574,23 L17.4157046,23 C18.1250211,23 18.7843271,22.7645382 19.3761123,22.3012649 C19.9320631,21.865193 20.414665,21.2344614 20.8097485,20.4277676 C21.5882463,18.8398879 22,16.6433842 22,14.0745453 L22,11.099396 C22,10.1617989 21.252342,9.39931067 20.3329811,9.39931067 L20.3321509,9.40017067 Z M21.1656603,14.0754053 C21.1656603,16.512471 20.7847465,18.577228 20.0637608,20.0478018 C19.5936615,21.0066499 18.751817,22.1508107 17.4148613,22.1508107 L13.2556492,22.1508107 C13.2231423,22.1482606 12.8722348,22.1083086 12.3429563,21.7045383 C11.8153449,21.3016181 11.0051737,20.4532755 10.1441519,18.6953872 C8.45463478,15.249311 7.93535188,14.1638131 7.93035408,14.1536026 C7.92952057,14.1519025 7.92952057,14.1510525 7.92868706,14.1502025 C7.71947619,13.722631 7.86784087,13.1624529 8.25292224,12.9269911 C8.4262922,12.8207357 8.62883499,12.7926843 8.8238762,12.846237 C9.03142006,12.9040399 9.20562353,13.0468471 9.31314625,13.2474571 C9.31481327,13.2500073 9.31648029,13.2534074 9.3181473,13.2559576 L10.6192555,15.555323 C10.8851451,16.0508979 11.1843749,16.2591583 11.5086101,16.1750041 C11.8336788,16.0908499 11.9978802,15.7593332 11.9978802,15.1915047 L11.9978802,8.55011472 C11.9978802,8.08174121 12.3721259,7.70007205 12.8313896,7.70007205 C13.2906533,7.70007205 13.6648991,8.08174121 13.6648991,8.55011472 L13.6648991,14.0753921 C13.6648991,14.3100038 13.8516052,14.5004134 14.0816538,14.5004134 C14.3117024,14.5004134 14.4984085,14.3100038 14.4984085,14.0753921 L14.4984085,7.70007205 C14.4984085,7.23169854 14.8726542,6.85002939 15.3319179,6.85002939 C15.7911816,6.85002939 16.1654274,7.23169854 16.1654274,7.70007205 L16.1654274,14.0753921 C16.1654274,14.3100038 16.3521335,14.5004134 16.5821821,14.5004134 C16.8122307,14.5004134 16.9989368,14.3100038 16.9989368,14.0753921 L16.9989368,8.55011472 C16.9989368,8.08174121 17.3731826,7.70007205 17.8324463,7.70007205 C18.29171,7.70007205 18.6659557,8.08174121 18.6659557,8.55011472 L18.6659557,14.9254347 C18.6659557,15.1600465 18.8526618,15.3504561 19.0827104,15.3504561 C19.312759,15.3504561 19.4994652,15.1600465 19.4994652,14.9254347 L19.4994652,11.1002427 C19.4994652,10.6318692 19.8737109,10.2502001 20.3329746,10.2502001 C20.7922383,10.2502001 21.166484,10.6318692 21.166484,11.1002427 L21.166484,14.0753921 L21.1656603,14.0754053 Z" id="Shape"></path>
                    </g>
                </g>
            </g>
        </g>
    </g>
</svg>