<?xml version="1.0" encoding="UTF-8"?>
<svg width="78px" height="78px" viewBox="0 0 78 78" version="1.1" xmlns="http://www.w3.org/2000/svg" xmlns:xlink="http://www.w3.org/1999/xlink">
    <!-- Generator: Sketch 52.6 (67491) - http://www.bohemiancoding.com/sketch -->
    <title>PDF</title>
    <desc>Created with Sketch.</desc>
    <g id="PDF" stroke="none" stroke-width="1" fill="none" fill-rule="evenodd">
        <g id="图标">
            <rect id="Rectangle-6" fill="#D93838" x="0" y="0" width="78" height="78" rx="6.4"></rect>
            <path d="M15,30.0126953 L22.6425781,30.0126953 C24.5299574,30.0126953 26.0597272,30.594558 27.2319336,31.7583008 C28.40414,32.9220436 28.9902344,34.4518134 28.9902344,36.3476562 C28.9902344,38.2265719 28.3850972,39.7457624 27.1748047,40.9052734 C25.9645122,42.0647844 24.3903092,42.6445312 22.4521484,42.6445312 L18.8339844,42.6445312 L18.8339844,48.3320312 L15,48.3320312 L15,30.0126953 Z M18.8339844,33.1611328 L18.8339844,39.5341797 L21.6142578,39.5341797 C22.7229873,39.5341797 23.5799123,39.2612332 24.1850586,38.715332 C24.7902048,38.1694309 25.0927734,37.3844452 25.0927734,36.3603516 C25.0927734,35.3277943 24.7923207,34.5364611 24.1914062,33.9863281 C23.5904918,33.4361952 22.7356826,33.1611328 21.6269531,33.1611328 L18.8339844,33.1611328 Z M32.5195312,30 L39.7304688,30 C42.4557428,30 44.5694912,30.7892174 46.0717773,32.3676758 C47.5740635,33.9461342 48.3251953,36.1699075 48.3251953,39.0390625 C48.3251953,42.0097805 47.5782952,44.3012615 46.0844727,45.9135742 C44.5906501,47.525887 42.47267,48.3320312 39.7304688,48.3320312 L32.5195312,48.3320312 L32.5195312,30 Z M36.3535156,33.2753906 L36.3535156,45.0566406 L39.1210938,45.0566406 C40.8222741,45.0566406 42.1298782,44.5467173 43.0439453,43.5268555 C43.9580124,42.5069936 44.4150391,41.0322362 44.4150391,39.1025391 C44.4150391,37.2574778 43.9495489,35.8250377 43.0185547,34.8051758 C42.0875604,33.7853139 40.7884198,33.2753906 39.1210938,33.2753906 L36.3535156,33.2753906 Z M55.7773438,48.3320312 L51.9433594,48.3320312 L51.9433594,30.0126953 L63.9404297,30.0126953 L63.9404297,33.2880859 L55.7773438,33.2880859 L55.7773438,38.0615234 L63.2294922,38.0615234 L63.2294922,41.1972656 L55.7773438,41.1972656 L55.7773438,48.3320312 Z" id="PDF" fill-opacity="0.97" fill="#FFFFFF"></path>
        </g>
    </g>
</svg>