<?xml version="1.0" encoding="UTF-8"?>
<svg width="866px" height="1024px" viewBox="0 0 866 1024" version="1.1" xmlns="http://www.w3.org/2000/svg" xmlns:xlink="http://www.w3.org/1999/xlink">
    <!-- Generator: Sketch 49.1 (51147) - http://www.bohemiancoding.com/sketch -->
    <title>QQ</title>
    <desc>Created with Sketch.</desc>
    <defs></defs>
    <g id="控件库" stroke="none" stroke-width="1" fill="none" fill-rule="evenodd">
        <g id="QQ" fill-rule="nonzero">
            <g id="Shape">
                <path d="M426.2,933.8 C426.2,983.6 353.4,1023.9 263.7,1023.9 C174,1023.9 101.3,983.5 101.3,933.8 C101.3,884 174.1,843.8 263.8,843.8 C353.6,843.8 426.3,884.2 426.3,933.9 L426.2,933.8 Z M601.6,843.8 C511.8,843.8 439.1,884.2 439.1,933.9 C439.1,983.7 511.9,1024 601.6,1024 C691.4,1024 764.1,983.6 764.1,933.9 C764.1,884.1 691.3,843.8 601.6,843.8 Z" fill="#FFC615"></path>
                <path d="M791.9,501.4 C791.9,501.4 779.7,489.2 766.5,476.9 L766.5,333.5 C766.5,214.4 703,104.3 599.8,44.7 C496.6,-14.9 369.5,-14.9 266.3,44.7 C163.1,104.3 99.6,214.4 99.6,333.5 L99.6,476.9 C86.3,489.1 74,501.4 74,501.4 C52.4,534.4 0.6,618.7 0.6,698.3 C0.6,777.9 22.4,791.5 30.6,792.1 C38.8,792.7 66.2,785.1 99.4,733.8 C144.5,883.7 276.6,992.3 432.6,992.3 C588.6,992.3 721.2,883.7 766.1,733.8 C799.6,785.4 827.9,793.1 835.4,792.4 C843,791.7 865.4,778.1 865.4,698.6 C865.4,619.1 813.7,534.7 792,502.1 L791.9,501.4 Z" fill="#37464F"></path>
                <path d="M187.7,558.8 C185.1,578.2 183.9,597.7 184,617.3 C184,799.4 297.5,947.5 437.4,947.5 C577.3,947.5 690.8,799.9 690.8,617.3 C690.8,597.8 689.5,578.2 686.9,558.8 L187.7,558.8 Z M345.3,153 C308.6,153 278,193.8 278,244.2 C278,294.6 308.1,335.4 345.3,335.4 C382.5,335.4 412.6,294.6 412.6,244.2 C412.6,193.8 382.5,153 345.3,153 Z M356.5,281.3 C342.9,281.3 332,264.5 332,243.9 C332,223.2 343,206.5 356.5,206.5 C370,206.5 381,223.3 381,243.9 C380.9,264.5 369.9,281.3 356.5,281.3 Z M522.8,153 C486.1,153 455.5,193.8 455.5,244.2 C455.5,294.6 485.6,335.4 522.8,335.4 C560,335.4 590.1,294.6 590.1,244.2 C590,193.8 559.9,153 522.8,153 Z M534.1,247.6 C534.1,248.6 533.3,249.4 532.3,249.4 C531.5,249.4 530.8,248.9 530.6,248.1 C528,238.5 519.8,231.4 509.9,230.2 C500.1,231.6 492.2,238.7 489.7,248.3 C489.4,249 488.8,249.4 488.1,249.4 C487.1,249.4 486.3,248.6 486.3,247.6 L486.3,244.5 C486.3,223.8 497.3,207.1 510.8,207.1 C524.3,207.1 535.3,223.9 535.3,244.5 L535.3,247.7 L534.1,247.6 Z" fill="#FFFFFF"></path>
                <path d="M169,540.5 C162.9,571.1 149.9,708.4 156,739 C162.1,769.6 187.8,764.4 224.7,764.8 C261.6,765.2 302.2,774.9 302.8,730.1 C303.4,685.2 303.5,596.8 313.7,564.2 C323.9,531.5 169,540.5 169,540.5 Z" fill="#FF392E"></path>
                <path d="M160.9,606 L304.5,652.5 C304.5,622.9 307.7,593.3 313.9,564.3 C324,531.7 169.1,540.5 169.1,540.5 C166.9,551.6 163.7,577.2 160.9,606 Z" fill="#DD2C00"></path>
                <path d="M433.6,462.2 C545.5,462.2 636.5,421.5 636.5,396.3 C636.5,377.2 545.8,357.5 433.9,357.5 C322,357.5 231.3,375.2 231.3,396.3 C231.3,420.1 322,462.2 433.9,462.2 L433.6,462.2 Z" fill="#FFC615"></path>
                <path d="M435.7,486.8 C435.7,486.8 564.2,488.1 666.8,444.6 C769.4,401.1 768.4,395.7 779.7,395.7 C791,395.7 804.2,411.8 809.8,440.9 C815.4,470 822,493 797.6,507.3 C773.1,521.6 616.6,613.8 439.7,613.8 L430.9,613.8 C254,613.8 96.9,521.5 73,507.3 C49,493.1 55.6,470.6 60.8,440.9 C65.9,411.2 79.6,395.7 90.9,395.7 C102.1,395.7 101,400.6 203.8,444.6 C306.5,488.6 434.9,486.8 434.9,486.8 L435.7,486.8 Z" fill="#FF392E"></path>
            </g>
        </g>
    </g>
</svg>