<?xml version="1.0" encoding="UTF-8"?>
<svg width="14px" height="14px" viewBox="0 0 14 14" version="1.1" xmlns="http://www.w3.org/2000/svg" xmlns:xlink="http://www.w3.org/1999/xlink">
    <title>恢复</title>
    <g id="页面-1" stroke="none" stroke-width="1" fill="none" fill-rule="evenodd">
        <g id="恢复样例数据" transform="translate(-1164.000000, -110.000000)" fill="#FFFFFF" fill-rule="nonzero">
            <g id="数据打开" transform="translate(736.000000, 89.000000)">
                <g id="恢复数据" transform="translate(428.000000, 18.000000)">
                    <path d="M13.9233967,7.82496829 L13.459383,4.64825918 C13.4110664,4.31744267 13.1368369,4.21036258 12.8504194,4.41059363 L11.9075924,5.06874438 C10.8425084,3.99203389 9.45594964,3.29119144 7.95738201,3.0720926 C4.15473324,2.52276307 0.618478811,5.17277746 0.0713257078,8.97412039 C0.0370685398,9.21223778 0.202329899,9.43304099 0.440447289,9.46729816 C0.678564678,9.50155533 0.899367888,9.33629398 0.933625066,9.09817659 C1.41243844,5.77172948 4.51384326,3.4581903 7.83332581,3.93395668 C9.09485068,4.11677017 10.2675779,4.68966377 11.1871959,5.572369 L10.2082402,6.25576627 C9.92138742,6.45599731 9.95446907,6.73109737 10.2809327,6.86777682 L13.4175956,8.17841962 C13.7440593,8.31509907 13.9717133,8.1557848 13.9233967,7.82496829 L13.9233967,7.82496829 Z M13.4902882,10.4645358 C13.3759928,10.4479945 13.2598088,10.477551 13.1673122,10.5466989 C13.0748157,10.6158468 13.013589,10.7189177 12.9971104,10.8332221 C12.5187323,14.1596693 9.41863337,16.4762554 6.09740969,15.997442 C4.71400427,15.7984691 3.44160947,15.128294 2.49499196,14.1000352 L3.72249534,13.2429593 C4.00934808,13.0427282 3.97626643,12.7676282 3.64936748,12.6309487 L0.512704575,11.3203059 C0.185805623,11.1836265 -0.041848373,11.3429408 0.00646825094,11.6737573 L0.470481948,14.8504664 C0.518798572,15.1812829 0.793028048,15.288363 1.0794455,15.0881319 L1.77807774,14.6006129 C3.09528707,16.0844781 4.98512471,16.9328925 6.96928532,16.9311309 C10.3740837,16.9311309 13.3597028,14.4238872 13.8585392,10.9577136 C13.8753272,10.8434469 13.8459223,10.7271986 13.7768225,10.6346571 C13.7077227,10.5421156 13.6046165,10.4808994 13.4902882,10.4645358 L13.4902882,10.4645358 Z" id="恢复"></path>
                </g>
            </g>
        </g>
    </g>
</svg>