<?xml version="1.0" encoding="UTF-8"?>
<svg width="15px" height="15px" viewBox="0 0 15 15" version="1.1" xmlns="http://www.w3.org/2000/svg" xmlns:xlink="http://www.w3.org/1999/xlink">
    <!-- Generator: Sketch 54.1 (76490) - https://sketchapp.com -->
    <title>自动保存</title>
    <desc>Created with Sketch.</desc>
    <g id="Symbols" stroke="none" stroke-width="1" fill="none" fill-rule="evenodd">
        <g id="顶层导航栏" transform="translate(-1136.000000, -12.000000)" fill="#129cff">
            <g id="导出三连" transform="translate(991.000000, 9.000000)">
                <g id="编组" transform="translate(144.000000, 0.000000)">
                    <g id="编组-2">
                        <g id="自动保存" transform="translate(0.000000, 2.000000)">
                            <g transform="translate(1.700000, 1.416667)">
                                <path d="M5.1,13.6 L5.1,12.4666667 L12.4666667,12.4666667 L12.4666667,1.13333333 L1.13333333,1.13333333 L1.13333333,8.5 L0,8.5 L0,1.13333333 C0,0.507410617 0.507410617,0 1.13333333,0 L12.4666667,2.01320442e-15 C13.0925894,2.01320442e-15 13.6,0.507410617 13.6,1.13333333 L13.6,12.4666667 C13.6,13.0925894 13.0925894,13.6 12.4666667,13.6 L5.1,13.6 Z M2.25353264,11.9354783 L6.10326225,7.82910003 L6.93007108,8.60423331 L2.2798007,13.5645217 L0.165972824,11.4506938 L0.967360509,10.6493062 L2.25353264,11.9354783 Z" id="Combined-Shape" fill-rule="nonzero"></path>
                                <path d="M3.68333333,1.13333333 L3.68333333,4.25 L9.91666667,4.25 L9.91666667,1.13333333 L3.68333333,1.13333333 Z M11.05,1.13333333 L11.05,4.25 C11.05,4.87592272 10.5425894,5.38333333 9.91666667,5.38333333 L3.68333333,5.38333333 C3.05741062,5.38333333 2.55,4.87592272 2.55,4.25 L2.55,1.13333333 L11.05,1.13333333 Z" id="Rectangle" fill-rule="nonzero"></path>
                            </g>
                        </g>
                    </g>
                </g>
            </g>
        </g>
    </g>
</svg>
