<?xml version="1.0" encoding="UTF-8"?>
<svg width="16px" height="16px" viewBox="0 0 16 16" version="1.1" xmlns="http://www.w3.org/2000/svg" xmlns:xlink="http://www.w3.org/1999/xlink">
    <!-- Generator: Sketch 55.1 (78136) - https://sketchapp.com -->
    <title>插入图片</title>
    <desc>Created with Sketch.</desc>
    <g id="Symbols" stroke="none" stroke-width="1" fill="none" fill-rule="evenodd">
        <g id="左一块" transform="translate(-17.000000, -302.000000)">
            <g id="Group-&lt;v32&gt;">
                <g transform="translate(13.000000, 16.000000)">
                    <g id="Group-5" transform="translate(0.000000, 284.000000)">
                        <g id="插入图片" transform="translate(2.000000, 0.000000)">
                            <rect id="Rectangle-30" fill-opacity="0" fill="#FFFFFF" opacity="0.100000001" x="0" y="0" width="20" height="20"></rect>
                            <path d="M3,2 L8,2 C8.55228475,2 9,2.44771525 9,3 L9,10 C9,10.5522847 8.55228475,11 8,11 L3,11 C2.44771525,11 2,10.5522847 2,10 L2,3 C2,2.44771525 2.44771525,2 3,2 Z M3,13 L8,13 C8.55228475,13 9,13.4477153 9,14 L9,17 C9,17.5522847 8.55228475,18 8,18 L3,18 C2.44771525,18 2,17.5522847 2,17 L2,14 C2,13.4477153 2.44771525,13 3,13 Z M12,9 L17,9 C17.5522847,9 18,9.44771525 18,10 L18,17 C18,17.5522847 17.5522847,18 17,18 L12,18 C11.4477153,18 11,17.5522847 11,17 L11,10 C11,9.44771525 11.4477153,9 12,9 Z M12,2 L17,2 C17.5522847,2 18,2.44771525 18,3 L18,6 C18,6.55228475 17.5522847,7 17,7 L12,7 C11.4477153,7 11,6.55228475 11,6 L11,3 C11,2.44771525 11.4477153,2 12,2 Z" id="形状结合" fill="#D8D8D8"></path>
                        </g>
                    </g>
                </g>
            </g>
        </g>
    </g>
</svg>