<?xml version="1.0" encoding="UTF-8"?>
<svg width="16px" height="16px" viewBox="0 0 16 16" version="1.1" xmlns="http://www.w3.org/2000/svg" xmlns:xlink="http://www.w3.org/1999/xlink">
    <!-- Generator: Sketch 52.5 (67469) - http://www.bohemiancoding.com/sketch -->
    <title>system-serchb</title>
    <desc>Created with Sketch.</desc>
    <g id="Page-1" stroke="none" stroke-width="1" fill="none" fill-rule="evenodd">
        <g id="数据详情页" transform="translate(-1094.000000, -117.000000)" fill="#FFFFFF" fill-rule="nonzero">
            <g id="搜索条" transform="translate(140.000000, 100.000000)">
                <g id="system-serchb" transform="translate(944.000000, 7.000000)">
                    <path d="M22.4362049,21.5369231 L26,25.0965181 L25.095452,26 L21.530637,22.4393663 C20.3116271,23.4520131 18.7448172,24.0609995 17.0356954,24.0609995 C13.1499789,24.0609995 10,20.9133347 10,17.0304998 C10,13.1476648 13.1499789,10 17.0356954,10 C20.921392,10 24.0713709,13.1476648 24.0713709,17.0304998 C24.0713709,18.7452977 23.4570062,20.3167131 22.4362049,21.5369231 Z M17.0356954,22.7827214 C20.2149126,22.7827214 22.7921645,20.2073684 22.7921645,17.0304998 C22.7921645,13.8536311 20.2149126,11.2782781 17.0356954,11.2782781 C13.8564783,11.2782781 11.2792264,13.8536311 11.2792264,17.0304998 C11.2792264,20.2073684 13.8564783,22.7827214 17.0356954,22.7827214 Z" id="Shape"></path>
                </g>
            </g>
        </g>
    </g>
</svg>