<?xml version="1.0" encoding="UTF-8"?>
<svg width="12px" height="14px" viewBox="0 0 12 14" version="1.1" xmlns="http://www.w3.org/2000/svg" xmlns:xlink="http://www.w3.org/1999/xlink">
    <!-- Generator: Sketch 54.1 (76490) - https://sketchapp.com -->
    <title>分享</title>
    <desc>Created with Sketch.</desc>
    <g id="Symbols" stroke="none" stroke-width="1" fill="none" fill-rule="evenodd">
        <g id="顶层导航栏" transform="translate(-1065.000000, -13.000000)" fill="#FFFFFF" fill-rule="nonzero">
            <g id="导出三连" transform="translate(991.000000, 9.000000)">
                <g id="分享" transform="translate(72.000000, 0.000000)">
                    <g transform="translate(0.000000, 3.000000)" id="Shape">
                        <path d="M11.8640588,5.31237624 C13.040098,5.31237624 13.9971961,4.3460396 13.9971961,3.15851485 C13.9971961,1.97039604 13.0401176,1.00431683 11.8640588,1.00431683 C10.6879804,1.00431683 9.73088235,1.97037624 9.73088235,3.15853465 C9.73088235,3.43762376 9.78784314,3.7030099 9.88396078,3.94794059 L5.647,6.4299802 C5.26033333,6.03639604 4.72572549,5.79168317 4.13447059,5.79168317 C2.95862745,5.79168317 2.00176471,6.75827723 2.00176471,7.94594059 C2.00176471,9.13390099 2.95862745,10.1004158 4.13447059,10.1004158 C4.73435294,10.1004158 5.27584314,9.8470495 5.66339216,9.44255446 L9.86456863,12.1170693 C9.78352941,12.3445941 9.73088235,12.5864158 9.73088235,12.8419406 C9.73088235,14.0299208 10.6879804,14.996 11.8640588,14.996 C13.040098,14.996 13.9971961,14.0299208 13.9971961,12.8419406 C13.9971961,11.6542772 13.0401176,10.6877228 11.8640588,10.6877228 C11.2522941,10.6877228 10.7047843,10.9522178 10.3155098,11.3699802 L6.12466667,8.70245545 C6.21305882,8.46580198 6.26737255,8.21245545 6.26737255,7.94510891 C6.26737255,7.66926733 6.21133333,7.4080396 6.11733333,7.16556436 L10.3585882,4.68132673 C10.7435882,5.07144554 11.276,5.31237624 11.8640588,5.31237624 Z M11.8640588,11.5628317 C12.5619804,11.5628317 13.1314706,12.1369109 13.1314706,12.8426337 C13.1314706,13.5481782 12.5619804,14.1220198 11.8640588,14.1220198 C11.1656275,14.1220198 10.5965294,13.548198 10.5965294,12.8426337 C10.5965294,12.6073465 10.6646863,12.389802 10.7741765,12.2000396 C10.7776667,12.1956832 10.7819608,12.1921188 10.7854118,12.1869505 C10.7905882,12.1793069 10.7905882,12.1704554 10.7949216,12.1629901 C11.0190784,11.8038416 11.413098,11.5628317 11.8640588,11.5628317 L11.8640588,11.5628317 Z M4.13445098,9.22639604 C3.43562745,9.22639604 2.86764706,8.65239604 2.86764706,7.9459604 C2.86764706,7.24130693 3.43564706,6.66663366 4.13445098,6.66663366 C4.5472549,6.66663366 4.91196078,6.87059406 5.14347059,7.18081188 C5.14907843,7.19475248 5.14907843,7.20908911 5.15768627,7.22283168 C5.1775098,7.25829703 5.20296078,7.28964356 5.23096078,7.31708911 C5.33615686,7.50362376 5.40166667,7.71655446 5.40166667,7.9459604 C5.40166667,8.19675248 5.32711765,8.42972277 5.20296078,8.62780198 C5.20164706,8.62887129 5.20080392,8.62948515 5.19994118,8.63063366 C5.19821569,8.63318812 5.19864706,8.63582178 5.19647059,8.63867327 C4.97058824,8.99134653 4.57980392,9.22639604 4.13445098,9.22639604 L4.13445098,9.22639604 Z M11.8640588,1.8790099 C12.5619804,1.8790099 13.1314706,2.45326733 13.1314706,3.1590099 C13.1314706,3.86433663 12.5619804,4.43813861 11.8640588,4.43813861 C11.1656275,4.43813861 10.5965294,3.86433663 10.5965294,3.1589901 C10.5965294,2.45281188 11.1647647,1.8790099 11.8640588,1.8790099 Z"></path>
                    </g>
                </g>
            </g>
        </g>
    </g>
</svg>