<?xml version="1.0" encoding="UTF-8"?>
<svg width="15px" height="14px" viewBox="0 0 15 14" version="1.1" xmlns="http://www.w3.org/2000/svg" xmlns:xlink="http://www.w3.org/1999/xlink">
    <title>上传</title>
    <g id="页面-1" stroke="none" stroke-width="1" fill="none" fill-rule="evenodd">
        <g id="图表-数据" transform="translate(-762.000000, -96.000000)" fill="#FFFFFF" fill-rule="nonzero">
            <g id="上传数据按钮" transform="translate(750.000000, 87.000000)">
                <path d="M26.3937419,17.6216777 C26.7285724,17.6216777 27,17.8830588 27,18.205496 L27,23 L12,23 L12,18.205496 C12,17.8830588 12.2714276,17.6216777 12.6062581,17.6216777 C12.9410887,17.6216777 13.2125163,17.8830588 13.2125163,18.205496 L13.2125163,21.8323634 L25.7874837,21.8323634 L25.7874837,18.205496 C25.7874837,17.8830588 26.0589113,17.6216777 26.3937419,17.6216777 Z M19.4925293,9 L24.2876793,14.3322007 C24.5068709,14.5759354 24.4793742,14.9446449 24.2262516,15.1557234 C24.1162252,15.2477382 23.9753668,15.2983508 23.8296415,15.2982318 C23.659811,15.2982318 23.4909778,15.2299249 23.3710756,15.0965883 L20.096,11.455 L20.0964798,18.8301062 C20.0964798,19.1202997 19.8766234,19.3610377 19.5885607,19.4062834 L19.4902216,19.4139245 C19.1553911,19.4139245 18.8839635,19.1525434 18.8839635,18.8301062 L18.8839635,18.8301062 L18.883,11.443 L15.5633898,15.0987917 C15.342927,15.3414718 14.9599283,15.3661052 14.7079205,15.1538213 C14.4559126,14.9415375 14.4303325,14.5726961 14.6507757,14.3300161 L19.4925293,9 Z" id="上传"></path>
            </g>
        </g>
    </g>
</svg>