<?xml version="1.0" encoding="UTF-8"?>
<svg width="17px" height="18px" viewBox="0 0 17 18" version="1.1" xmlns="http://www.w3.org/2000/svg" xmlns:xlink="http://www.w3.org/1999/xlink">
    <!-- Generator: Sketch 52.2 (67145) - http://www.bohemiancoding.com/sketch -->
    <title>宽度</title>
    <desc>Created with Sketch.</desc>
    <g id="Symbols" stroke="none" stroke-width="1" fill="none" fill-rule="evenodd">
        <g id="对编辑区域的操作hover" transform="translate(-242.000000, -12.000000)" fill="#129CFF" fill-rule="nonzero">
            <g id="宽度">
                <g transform="translate(236.000000, 6.000000)">
                    <path d="M21.671875,6 L7.328125,6 C6.59599609,6 6,6.63105542 6,7.40625164 L6,22.5937693 C6,23.3689655 6.59599609,24.0000209 7.328125,24.0000209 L21.671875,24.0000209 C22.4040039,24.0000209 23,23.3689655 23,22.5937693 L23,7.40625164 C23,6.63105542 22.4040039,6 21.671875,6 Z M22.203125,22.5937693 C22.203125,22.9031447 21.9640625,23.15627 21.671875,23.15627 L7.328125,23.15627 C7.0359375,23.15627 6.796875,22.9031447 6.796875,22.5937693 L6.796875,7.40625164 C6.796875,7.09687628 7.0359375,6.84375098 7.328125,6.84375098 L21.671875,6.84375098 C21.9640625,6.84375098 22.203125,7.09687628 22.203125,7.40625164 L22.203125,22.5937693 Z" id="Shape"></path>
                    <path d="M8,15.5 L12,13 L12,18 L8,15.5 Z M21,15.5 L17,18 L17,13 L21,15.5 Z" id="Combined-Shape"></path>
                </g>
            </g>
        </g>
    </g>
</svg>