<?xml version="1.0" encoding="UTF-8"?>
<svg width="45px" height="33px" viewBox="0 0 45 33" version="1.1" xmlns="http://www.w3.org/2000/svg" xmlns:xlink="http://www.w3.org/1999/xlink">
    <!-- Generator: Sketch 53 (72520) - https://sketchapp.com -->
    <title>Shape</title>
    <desc>Created with Sketch.</desc>
    <g id="Page-1" stroke="none" stroke-width="1" fill="none" fill-rule="evenodd">
        <g id="图表-图片-移出画布等" transform="translate(-104.000000, -264.000000)" fill="#C3C4C7" fill-rule="nonzero">
            <g id="左2" transform="translate(50.000000, 75.000000)">
                <g id="添加图表" transform="translate(16.000000, 168.000000)">
                    <g id="上传-正常">
                        <g id="云端上传" transform="translate(36.000000, 21.000000)">
                            <path d="M47,24.006136 C47,26.4922448 46.1225,28.6071246 44.361875,30.3676496 C42.60125,32.1281745 40.480625,33 38,33 L12.501875,33 C9.61625,33 7.14125,31.9763082 5.0825,29.9176751 C3.029375,27.8646668 2,25.3954321 2,22.4987217 C2,20.468212 2.545625,18.5951935 3.6425,16.8740412 C4.739375,15.152889 6.2075,13.8648372 8.046875,13.0042611 C8.01875,12.5374126 7.99625,12.1999318 7.99625,11.9974433 C7.99625,8.68450656 9.171875,5.85529231 11.511875,3.51542526 C13.851875,1.17555821 16.68125,0 19.994375,0 C22.43,0 24.663125,0.68058633 26.6825,2.04175899 C28.701875,3.40293165 30.175625,5.20845407 31.098125,7.45270155 C32.20625,6.47963184 33.505625,6.001534 34.985,6.001534 C36.63875,6.001534 38.05625,6.58650077 39.22625,7.76205897 C40.401875,8.93761718 40.986875,10.349412 40.986875,12.003068 C40.986875,13.1898756 40.66625,14.2698142 40.025,15.2372592 C42.055625,15.7209818 43.720625,16.7784217 45.025625,18.409579 C46.341875,20.046361 47,21.9081302 47,24.006136 Z M32.00375,17.2508948 C32.00375,17.0315323 31.93625,16.8515425 31.79,16.7109255 L23.538125,8.46514403 C23.3975,8.32452702 23.2175,8.25140617 22.998125,8.25140617 C22.77875,8.25140617 22.59875,8.31890234 22.458125,8.46514403 L14.234375,16.6884268 C14.076875,16.8740412 13.998125,17.0652804 13.998125,17.2508948 C13.998125,17.4702574 14.065625,17.6502471 14.211875,17.7908642 C14.3525,17.9314812 14.5325,18.004602 14.751875,18.004602 L20,18.004602 L20,26.2560082 C20,26.4584967 20.073125,26.6328618 20.219375,26.7847281 C20.365625,26.9309698 20.545625,27.0040907 20.748125,27.0040907 L25.248125,27.0040907 C25.450625,27.0040907 25.625,26.9309698 25.776875,26.7847281 C25.923125,26.6384864 25.99625,26.4584967 25.99625,26.2560082 L25.99625,17.9989773 L31.244375,17.9989773 C31.446875,17.9989773 31.62125,17.9258565 31.773125,17.7796148 C31.925,17.6333731 32.00375,17.4533833 32.00375,17.2508948 L32.00375,17.2508948 Z" id="Shape"></path>
                        </g>
                    </g>
                </g>
            </g>
        </g>
    </g>
</svg>