<?xml version="1.0" encoding="UTF-8"?>
<svg width="33px" height="14px" viewBox="0 0 33 14" version="1.1" xmlns="http://www.w3.org/2000/svg" xmlns:xlink="http://www.w3.org/1999/xlink">
    <!-- Generator: Sketch 51.2 (57519) - http://www.bohemiancoding.com/sketch -->
    <title>Group</title>
    <desc>Created with Sketch.</desc>
    <defs></defs>
    <g id="控件库" stroke="none" stroke-width="1" fill="none" fill-rule="evenodd">
        <g id="个人中心导航栏" transform="translate(-1148.000000, -36.000000)">
            <g id="Group">
                <g transform="translate(1148.000000, 36.000000)">
                    <rect id="Rectangle" fill="#F5222D" fill-rule="nonzero" x="0" y="0" width="33" height="14" rx="7"></rect>
                    <path d="M9.40087742,9.75411645 C9.46442187,9.74097471 9.50825305,9.72783316 9.53237228,9.71469142 C9.5564915,9.70154968 9.57185584,9.68512274 9.57846575,9.66541013 C9.58287236,9.65226839 9.57917281,9.58491797 9.56736699,9.46335685 C9.55556116,9.34179573 9.54164009,9.18245449 9.52560335,8.98532835 C9.50956661,8.78820221 9.48755896,8.56479594 9.45957974,8.31510283 C9.43160052,8.06540972 9.40528394,7.80586419 9.3806292,7.53645847 C9.35597446,7.26705275 9.32857576,7.00093645 9.29843228,6.7381016 C9.2682888,6.47526675 9.24139212,6.23214815 9.21774142,6.00873853 C9.19409072,5.78532891 9.17530989,5.59149111 9.16139837,5.42721933 C9.14748685,5.26294754 9.13840601,5.14795902 9.13415558,5.08225031 C9.12561566,4.9705455 9.11371241,4.89826699 9.09844545,4.86541264 C9.08317849,4.83255828 9.05036367,4.81284596 9,4.80627509 L9.03965929,4.688 L11.0601921,4.688 L11.0205328,4.80627509 C10.9394791,4.81284596 10.8825063,4.82598751 10.8496129,4.84570012 C10.8167195,4.86541274 10.7947649,4.89169583 10.7837484,4.92455018 C10.7771385,4.9442628 10.7781523,4.98533013 10.7867898,5.04775341 C10.7954273,5.11017668 10.8132334,5.24323483 10.8402086,5.44693184 C10.8671837,5.65062885 10.9060227,5.94631363 10.9567267,6.33399503 C11.0074306,6.72167644 11.0748285,7.25062365 11.1589224,7.92085252 C11.6727388,7.27033626 12.0811516,6.75288791 12.384173,6.36849194 C12.6871944,5.98409596 12.9204917,5.69005388 13.0840718,5.48635687 C13.2476519,5.28265986 13.3552511,5.14303094 13.4068726,5.06746592 C13.4584941,4.9919009 13.488711,4.94097741 13.4975242,4.91469393 C13.5085407,4.88183957 13.5069468,4.85719917 13.4927425,4.84077199 C13.4785381,4.82434482 13.4429692,4.81284596 13.3860347,4.80627509 L13.425694,4.688 L15.1209703,4.688 L15.081311,4.80627509 C15.0374792,4.81941683 15.0018614,4.83255838 14.9744568,4.84570012 C14.9470521,4.85884187 14.9190678,4.88841034 14.8905029,4.93440644 C14.8641413,4.97383167 14.7927692,5.06910787 14.6763845,5.22023791 C14.5599998,5.37136796 14.4167146,5.55863498 14.2465246,5.7820446 C14.0763345,6.00545423 13.8880287,6.2535009 13.6816013,6.52619206 C13.4751738,6.79888322 13.2638117,7.07649837 13.0475085,7.35904583 C12.8312052,7.6415933 12.6203939,7.91756575 12.4150681,8.18697148 C12.2097424,8.4563772 12.027476,8.69621041 11.8682634,8.90647829 C11.7090509,9.11674617 11.5800284,9.29087165 11.481192,9.42885995 C11.3823556,9.56684824 11.3307349,9.64241213 11.3263283,9.65555387 C11.3064986,9.71469171 11.3425792,9.74426019 11.4345714,9.74426019 L11.3916072,9.87239154 L9.36121813,9.87239154 L9.40087742,9.75411645 Z M14.5754127,9.75411645 C14.7046659,9.74097471 14.7890331,9.7196197 14.8285169,9.69005077 C14.8680007,9.66048185 14.8954537,9.62269991 14.9108769,9.57670381 L16.4509794,4.98368773 C16.4664026,4.93769163 16.4642871,4.89990969 16.4446331,4.87034077 C16.424979,4.84077185 16.3549331,4.81941683 16.2344931,4.80627509 L16.2741524,4.688 L18.3045415,4.688 L18.2648822,4.80627509 C18.1356291,4.81941683 18.0512618,4.84077185 18.011778,4.87034077 C17.9722943,4.89990969 17.9448412,4.93769163 17.9294181,4.98368773 L16.3893155,9.57670381 C16.3738924,9.62269991 16.3760078,9.66048185 16.3956618,9.69005077 C16.4153159,9.7196197 16.4853618,9.74097471 16.6058018,9.75411645 L16.5661425,9.87239154 L14.5357534,9.87239154 L14.5754127,9.75411645 Z M22.5021612,6.92537049 C22.7781378,6.92537049 22.995612,6.87937508 23.1545903,6.78738289 C23.3135685,6.69539069 23.4283088,6.54426292 23.4988146,6.33399503 C23.5627104,6.14343977 23.5449141,6.00545354 23.4454251,5.92003221 C23.3459361,5.83461088 23.1582061,5.79190086 22.8822295,5.79190086 L21.3840783,5.79190086 L21.0040101,6.92537049 L22.5021612,6.92537049 Z M20.1149809,9.57670381 C20.0995578,9.62269991 20.1016732,9.66048185 20.1213273,9.69005077 C20.1409813,9.7196197 20.2110272,9.74097471 20.3314672,9.75411645 L20.2918079,9.87239154 L18.2614188,9.87239154 L18.3010781,9.75411645 C18.4303313,9.74097471 18.5146985,9.7196197 18.5541823,9.69005077 C18.5936661,9.66048185 18.6211191,9.62269991 18.6365423,9.57670381 L20.1766448,4.98368773 C20.192068,4.93769163 20.1899525,4.89990969 20.1702985,4.87034077 C20.1506444,4.84077185 20.0805985,4.81941683 19.9601585,4.80627509 L19.9998178,4.688 L23.5283581,4.688 C23.837189,4.688 24.095004,4.73235272 24.3018108,4.82105948 C24.5086175,4.90976624 24.665531,5.02968284 24.7725559,5.18081288 C24.8795808,5.33194292 24.9389172,5.5077111 24.9505668,5.70812267 C24.9622165,5.90853425 24.9316872,6.11715628 24.8589781,6.33399503 C24.7862691,6.55083379 24.6768905,6.75945582 24.5308393,6.9598674 C24.384788,7.16027897 24.2081274,7.33440445 24.0008521,7.48224905 C23.7935769,7.63009366 23.5567948,7.74836757 23.2904988,7.83707433 C23.0242028,7.92578109 22.7366437,7.97013381 22.4278127,7.97013381 L20.6536863,7.97013381 L20.1149809,9.57670381 Z" id="VIP" fill="#FFFFFF"></path>
                </g>
            </g>
        </g>
    </g>
</svg>