<?xml version="1.0" encoding="UTF-8"?>
<svg width="1188px" height="1024px" viewBox="0 0 1188 1024" version="1.1" xmlns="http://www.w3.org/2000/svg" xmlns:xlink="http://www.w3.org/1999/xlink">
    <!-- Generator: Sketch 49.1 (51147) - http://www.bohemiancoding.com/sketch -->
    <title>Shape</title>
    <desc>Created with Sketch.</desc>
    <defs></defs>
    <g id="控件库" stroke="none" stroke-width="1" fill="none" fill-rule="evenodd">
        <g id="微信" fill="#64AA14" fill-rule="nonzero">
            <path d="M951.425526,596.43868 C923.055682,596.43868 899.949867,572.767146 899.949867,543.392844 C899.949867,514.178753 923.054324,490.507219 951.425526,490.507219 C979.798086,490.507219 1002.90119,514.178753 1002.90119,543.392844 C1002.90119,572.767146 979.798086,596.43868 951.425526,596.43868 M686.641207,596.43868 C658.268645,596.43868 635.165546,572.767146 635.165546,543.392844 C635.165546,514.178753 658.268645,490.507219 686.641207,490.507219 C715.011052,490.507219 738.11415,514.178753 738.11415,543.392844 C738.112795,572.767146 715.011052,596.43868 686.641207,596.43868 M1187.84,671.795618 C1187.84,500.408687 1037.87754,360.085203 847.814506,347.987708 C838.922121,347.494638 830.012088,347.152112 821.103415,347.152112 C618.50471,347.152112 454.350541,492.523698 454.350541,671.795618 C454.350541,698.827491 458.152643,725.007194 465.241033,750.022586 C504.664259,891.543527 649.019263,996.458461 821.102057,996.458461 C879.664749,996.458461 934.926221,984.359585 983.91918,962.705912 L1066.24603,1019.94906 C1066.24603,1019.94906 1088.1899,1035.55468 1086.04791,1005.50638 L1062.78328,915.871107 C1139.50674,856.447118 1187.84,769.154279 1187.84,671.795618 M259.517573,306.694078 C231.131439,306.694078 208.041914,283.039117 208.041914,253.827791 C208.041914,224.450726 231.131439,200.780573 259.517573,200.780573 C288.050307,200.780573 310.993232,224.452106 310.993232,253.827791 C310.993232,283.039117 288.050307,306.694078 259.517573,306.694078 M583.689888,200.780573 C612.078737,200.780573 635.165546,224.452106 635.165546,253.827791 C635.165546,283.039117 612.078737,306.694078 583.689888,306.694078 C555.157154,306.694078 532.214229,283.039117 532.214229,253.827791 C532.214229,224.450726 555.157154,200.780573 583.689888,200.780573 M821.103415,320.12024 C829.014393,320.12024 836.763841,320.464146 844.529578,320.808053 C814.335373,139.338723 637.808423,0 424.49569,0 C190.063033,0 0,168.388456 0,375.856558 C0,491.523746 59.063575,594.915271 151.782745,663.912014 L120.429315,784.269588 C120.429315,784.269588 109.715287,824.219358 150.300455,806.268549 L267.265663,725.009957 C315.938273,742.303338 368.896223,751.877472 424.494332,751.877472 C429.279199,751.877472 433.887603,751.533566 438.510936,751.533566 C431.745612,725.845551 428.118614,699.157586 428.118614,671.798381 C428.119972,477.918036 604.471818,320.12024 821.103415,320.12024" id="Shape"></path>
        </g>
    </g>
</svg>