<?xml version="1.0" encoding="UTF-8"?>
<svg width="1016px" height="812px" viewBox="0 0 1016 812" version="1.1" xmlns="http://www.w3.org/2000/svg" xmlns:xlink="http://www.w3.org/1999/xlink">
    <!-- Generator: Sketch 49.1 (51147) - http://www.bohemiancoding.com/sketch -->
    <title>新浪微博</title>
    <desc>Created with Sketch.</desc>
    <defs></defs>
    <g id="控件库" stroke="none" stroke-width="1" fill="none" fill-rule="evenodd">
        <g id="新浪微博" fill="#E63C53" fill-rule="nonzero">
            <g id="Shape">
                <path d="M751.2,395.68 C712.8,388 730.72,367.52 730.72,367.52 C730.72,367.52 769.12,303.52 723.04,257.44 C666.72,201.12 525.92,265.12 525.92,265.12 C472.16,280.48 487.52,257.44 495.2,216.48 C495.2,167.84 479.84,85.92 336.48,134.56 C195.68,183.2 75.36,352.16 75.36,352.16 C-9.12,464.8 1.12,551.84 1.12,551.84 C21.6,746.4 226.4,797.6 385.12,810.4 C551.52,823.2 779.36,751.52 845.92,605.6 C915.04,462.24 792.16,403.36 751.2,395.68 Z M397.92,756.64 C231.52,764.32 98.4,682.4 98.4,569.76 C98.4,459.68 231.52,370.08 397.92,362.4 C564.32,354.72 697.44,423.84 697.44,533.92 C700,644 564.32,748.96 397.92,756.64 Z"></path>
                <path d="M364.64,434.08 C198.24,454.56 216.16,610.72 216.16,610.72 C216.16,610.72 213.6,659.36 262.24,684.96 C359.52,738.72 459.36,705.44 510.56,638.88 C561.76,574.88 533.6,416.16 364.64,434.08 Z M323.68,654.24 C292.96,656.8 267.36,638.88 267.36,613.28 C267.36,587.68 290.4,559.52 321.12,556.96 C356.96,554.4 380,574.88 380,600.48 C380,628.64 354.4,651.68 323.68,654.24 Z M420.96,572.32 C410.72,580 397.92,580 392.8,569.76 C387.68,559.52 390.24,546.72 400.48,539.04 C413.28,528.8 426.08,531.36 431.2,541.6 C436.32,549.28 431.2,562.08 420.96,572.32 Z M833.12,329.12 C848.48,329.12 858.72,318.88 861.28,303.52 C881.76,119.2 710.24,152.48 710.24,152.48 C694.88,152.48 682.08,165.28 682.08,180.64 C682.08,196 694.88,208.8 710.24,208.8 C833.12,180.64 804.96,303.52 804.96,303.52 C804.96,316.32 817.76,329.12 833.12,329.12 Z"></path>
                <path d="M812.64,6.56 C753.76,-6.24 692.32,4 676.96,9.12 L674.4,11.68 C653.92,16.8 641.12,39.84 646.24,62.88 C651.36,80.8 666.72,91.04 684.64,91.04 C684.64,91.04 705.12,88.48 720.48,83.36 C735.84,78.24 856.16,78.24 917.6,180.64 C950.88,254.88 932.96,306.08 930.4,313.76 C930.4,313.76 922.72,334.24 922.72,352.16 C922.72,375.2 940.64,388 961.12,388 C979.04,388 994.4,385.44 999.52,354.72 C1063.52,134.56 920.16,32.16 812.64,6.56 Z"></path>
            </g>
        </g>
    </g>
</svg>