<?xml version="1.0" encoding="UTF-8"?>
<svg width="844px" height="808px" viewBox="0 0 844 808" version="1.1" xmlns="http://www.w3.org/2000/svg" xmlns:xlink="http://www.w3.org/1999/xlink">
    <!-- Generator: Sketch 49.1 (51147) - http://www.bohemiancoding.com/sketch -->
    <title>QQ空间</title>
    <desc>Created with Sketch.</desc>
    <defs></defs>
    <g id="控件库" stroke="none" stroke-width="1" fill="none" fill-rule="evenodd">
        <g id="QQ空间" fill-rule="nonzero">
            <g id="Shape">
                <path d="M403.67,16.68 C407.15,9.3 412.95,0.83 422,0.7 C430.66,1.22 436.24,9.17 439.62,16.35 C476.15,97.81 512.62,179.3 549.18,260.74 C552.96,269.46 563.04,271.85 571.62,272.52 C654.44,280.9 737.27,289.11 820.09,297.33 C828.36,298.07 838.84,299.78 842.53,308.35 C845.11,316.81 838.73,324.53 832.93,329.93 C771.33,388 709.51,445.85 647.95,503.95 C633.47,516.62 643.88,536.46 645.01,552.31 C558.37,551.18 471.79,546.07 385.38,539.52 C381.57,538.67 375.23,539.15 373.48,535.36 C381.18,528.63 389.87,523.15 398.12,517.12 C480.13,460.58 562.03,403.83 643.39,346.37 C645.71,344.1 641.83,342.87 640.01,342.86 C479.02,312.78 311.69,316.38 151.99,352.4 C265.27,356.96 379.57,357.11 491.96,374.9 C494.1,375.08 498.56,375.89 495.56,378.48 C405.47,442.39 315.81,506.96 225.45,570.48 C223.62,572.1 226.19,573.55 227.89,573.35 C330.64,585 434.48,588.8 537.63,580.51 C594.08,575.75 650.55,568.09 705.25,552.98 C690.76,568.34 668.98,573.34 650.35,581.3 C662.53,649.35 675.18,717.34 687.5,785.37 C688.44,792.63 688.21,801.91 681.21,806.23 C674.49,809.74 666.59,806.86 660.4,803.52 C588.71,761.91 517.03,720.29 445.35,678.67 C433.31,670.03 416.67,667.76 403.61,675.53 C329.91,718.13 256.38,761.05 182.69,803.69 C176.38,807.1 167.97,809.93 161.41,805.62 C154.83,800.69 155.07,791.3 156.33,783.99 C172.77,696.33 189.55,608.73 205.91,521.06 C207.81,512.44 200.74,506.12 194.94,501.07 C134.85,445.48 74.71,389.94 14.61,334.37 C7.71,328.15 -0.95,320.57 0.4,310.28 C2.04,302.28 10.82,299.05 17.99,297.96 C101.73,288.33 185.54,279.21 269.27,269.45 C279.85,268.82 287.31,260.41 291.5,251.4 C328.94,173.18 366.28,94.92 403.67,16.68 Z" fill="#FFC028"></path>
                <path d="M151.99,352.4 C311.69,316.38 479.02,312.78 640.01,342.86 C641.83,342.87 645.71,344.1 643.39,346.37 C562.03,403.83 480.13,460.58 398.12,517.12 C389.87,523.15 381.18,528.63 373.48,535.36 C375.23,539.15 381.57,538.67 385.38,539.52 C471.79,546.07 558.37,551.18 645.01,552.31 C665.65,552.5 686.3,552.39 706.93,552.32 C706.51,552.48 705.67,552.81 705.25,552.98 C650.55,568.09 594.08,575.75 537.63,580.51 C434.48,588.8 330.64,585 227.89,573.35 C226.19,573.55 223.62,572.1 225.45,570.48 C315.81,506.96 405.47,442.39 495.56,378.48 C498.56,375.89 494.1,375.08 491.96,374.9 C379.57,357.11 265.27,356.96 151.99,352.4 Z" fill="#FFFFFF"></path>
            </g>
        </g>
    </g>
</svg>