<?xml version="1.0" encoding="UTF-8"?>
<svg width="42px" height="42px" viewBox="0 0 42 42" version="1.1" xmlns="http://www.w3.org/2000/svg" xmlns:xlink="http://www.w3.org/1999/xlink">
    <title>关闭按钮</title>
    <g id="页面-1" stroke="none" stroke-width="1" fill="none" fill-rule="evenodd">
        <g id="活动弹窗" transform="translate(-858.000000, -184.000000)" fill-rule="nonzero">
            <g id="关闭按钮" transform="translate(859.000000, 185.000000)">
                <path d="M20,0 C8.9575,0 0,8.9575 0,20 C0,31.0425 8.9575,40 20,40 C31.0425,40 40,31.0425 40,20 C40,8.9575 31.0425,0 20,0 Z" id="路径" stroke="#FFFFFF" stroke-width="2" fill="#000000" opacity="0.400000006"></path>
                <path d="M28.03375,28.03375 C27.62375,28.445 26.87125,28.445 26.46125,28.03375 L20.17125,21.74375 L13.88,28.035 C13.47,28.445 12.7175,28.445 12.3075,28.035 C11.8975,27.62375 11.8975,26.8725 12.3075,26.46125 L18.59875,20.17125 L12.3075,13.88125 C11.8975,13.47 11.8975,12.71875 12.3075,12.3075 C12.7175,11.8975 13.47,11.8975 13.88,12.3075 L20.17125,18.565 L26.4275,12.3075 C26.8725,11.8975 27.59,11.8975 28,12.3075 C28.41,12.71875 28.41,13.47 28,13.88125 L21.745,20.17125 L28.035,26.46125 C28.44625,26.8725 28.44625,27.62375 28.035,28.035 L28.03375,28.03375 Z" id="路径" fill="#FFFFFF" opacity="0.800000012"></path>
            </g>
        </g>
    </g>
</svg>