<?xml version="1.0" encoding="UTF-8"?>
<svg width="750px" height="345px" viewBox="0 0 750 345" version="1.1" xmlns="http://www.w3.org/2000/svg" xmlns:xlink="http://www.w3.org/1999/xlink">
    <!-- Generator: Sketch 61 (89581) - https://sketch.com -->
    <title>最上方部分</title>
    <desc>Created with Sketch.</desc>
    <defs>
        <linearGradient x1="100%" y1="50.5032919%" x2="0%" y2="50%" id="linearGradient-1">
            <stop stop-color="#00BFFE" offset="0%"></stop>
            <stop stop-color="#4F86FE" offset="100%"></stop>
        </linearGradient>
        <rect id="path-2" x="0" y="0" width="750" height="345"></rect>
        <path d="M101.194,47.898 L101.194,43.992 L89.896,43.992 L89.896,34.038 L99.178,34.038 L99.178,30.216 L89.896,30.216 L89.896,21.228 L100.312,21.228 L100.312,17.322 L89.896,17.322 L90.022,17.28 C89.35,15.18 88.426,12.87 87.208,10.35 L83.512,11.4 C84.478,13.29 85.318,15.264 86.074,17.322 L75.322,17.322 L75.322,21.228 L85.906,21.228 L85.906,30.216 L76.498,30.216 L76.498,34.038 L85.906,34.038 L85.906,43.992 L74.272,43.992 L74.272,47.898 L101.194,47.898 Z M71.29,20.052 L74.146,17.196 C72.13,15.138 69.694,13.08 66.838,10.98 L63.94,13.752 C67.132,15.978 69.568,18.078 71.29,20.052 Z M69.904,29.964 L72.76,27.108 C70.87,25.008 68.56,22.908 65.83,20.85 L62.974,23.58 C65.914,25.89 68.224,28.032 69.904,29.964 Z M67.636,48.99 C69.946,44.328 72.046,39.372 73.894,34.122 L70.324,32.652 C68.392,37.608 66.166,42.48 63.646,47.226 L67.636,48.99 Z M108.964,49.41 C111.862,44.958 113.332,39.12 113.416,31.896 L113.416,30.804 L118.456,30.804 L118.456,43.446 C118.456,44.622 118.036,45.252 117.238,45.252 C116.104,45.252 114.886,45.168 113.626,45.084 L114.634,48.864 L118.456,48.864 C120.976,48.864 122.236,47.478 122.236,44.79 L122.236,30.804 L126.142,30.804 L126.142,32.232 C126.058,38.112 125.092,42.942 123.16,46.722 L126.058,49.368 C128.578,44.916 129.88,39.12 129.964,31.98 L129.964,30.804 L135.004,30.804 L135.004,43.404 C135.004,44.622 134.458,45.252 133.366,45.252 C132.274,45.252 131.098,45.168 129.838,45.084 L130.888,48.864 L134.542,48.864 C137.44,48.864 138.91,47.52 138.91,44.832 L138.91,30.804 L143.194,30.804 L143.194,26.982 L138.91,26.982 L138.91,11.946 L126.142,11.946 L126.142,26.982 L122.236,26.982 L122.236,11.946 L109.51,11.946 L109.51,26.982 L104.806,26.982 L104.806,30.804 L109.51,30.804 L109.51,32.19 C109.426,38.07 108.292,42.9 106.024,46.68 L108.964,49.41 Z M135.004,26.982 L129.964,26.982 L129.964,15.558 L135.004,15.558 L135.004,26.982 Z M118.456,26.982 L113.416,26.982 L113.416,15.558 L118.456,15.558 L118.456,26.982 Z M163.564,49.368 C167.26,47.73 170.536,45.336 173.35,42.186 C173.896,43.194 174.484,44.118 175.156,44.958 C177.172,47.436 179.104,48.696 180.952,48.696 C182.968,48.696 184.522,45.756 185.572,39.96 L181.96,38.028 C181.414,42.144 180.868,44.202 180.322,44.202 C179.65,44.202 178.642,43.236 177.382,41.388 C176.92,40.674 176.458,39.834 175.996,38.826 C178.6,35.046 180.7,30.426 182.38,25.05 L178.726,23.496 C177.55,27.486 176.08,31.014 174.316,34.122 C174.106,33.45 173.896,32.736 173.728,32.022 C173.014,29.292 172.51,25.428 172.216,20.472 L184.732,20.472 L184.732,16.65 L179.692,16.65 L181.624,14.718 C180.28,13.206 178.642,11.736 176.71,10.266 L174.19,12.702 C175.954,14.046 177.382,15.39 178.516,16.65 L172.048,16.65 C171.964,14.718 171.88,12.66 171.88,10.476 L167.848,10.476 C167.848,12.618 167.848,14.676 167.932,16.65 L150.628,16.65 L150.628,30.636 C150.502,37.482 149.116,42.816 146.512,46.638 L149.536,49.326 C152.728,44.622 154.45,38.406 154.618,30.636 L154.618,30.384 L160.96,30.384 C160.876,34.752 160.75,37.524 160.498,38.616 C160.246,39.54 159.784,40.002 159.028,40.044 C157.852,40.044 156.466,39.96 154.786,39.876 L156.004,43.488 C157.306,43.614 158.482,43.698 159.49,43.698 C161.674,43.656 163.102,42.774 163.774,41.01 C164.446,38.994 164.824,34.206 164.908,26.604 L154.618,26.604 L154.618,20.472 L168.142,20.472 C168.436,25.596 169.024,29.838 169.948,33.24 C170.41,35.004 170.914,36.642 171.502,38.154 C168.73,41.598 165.328,44.202 161.296,46.008 L163.564,49.368 Z M205.816,49.662 C212.2,43.95 215.476,35.004 215.644,22.824 L215.644,22.698 L222.28,22.698 C222.196,33.87 222.07,40.422 221.818,42.396 C221.44,44.286 220.054,45.252 217.618,45.252 C216.442,45.252 215.014,45.168 213.334,45.042 L214.3,48.78 C216.19,48.906 217.534,48.99 218.29,48.99 C222.574,48.99 225.01,47.394 225.556,44.244 C225.976,41.01 226.186,32.526 226.186,18.834 L215.644,18.834 L215.644,10.686 L211.612,10.686 L211.612,18.834 L205.27,18.834 L205.27,22.698 L211.612,22.698 L211.612,22.824 C211.528,33.828 208.504,41.808 202.54,46.764 L205.816,49.662 Z M189.562,43.152 C195.022,41.976 200.146,40.506 204.976,38.784 L204.976,34.794 C202.918,35.55 200.86,36.222 198.76,36.852 L198.76,18.75 L204.472,18.75 L204.472,14.928 L189.058,14.928 L189.058,18.75 L194.77,18.75 L194.77,37.902 C192.712,38.364 190.654,38.784 188.554,39.12 L189.562,43.152 Z M233.914,52.644 C236.014,52.056 237.694,50.964 238.954,49.368 C240.214,47.772 240.844,45.924 240.844,43.782 C240.844,42.354 240.466,41.22 239.794,40.296 C239.038,39.414 238.156,38.994 237.064,38.994 C236.056,38.994 235.258,39.246 234.67,39.834 C234.04,40.422 233.746,41.178 233.746,42.144 C233.746,43.026 234.04,43.782 234.628,44.37 C235.216,44.958 235.93,45.252 236.812,45.252 C237.232,45.252 237.568,45.21 237.82,45.126 C237.82,46.134 237.484,47.1 236.77,48.066 C236.014,48.99 235.048,49.62 233.914,50.04 L233.914,52.644 Z M274.528,36.516 C280.366,33.87 284.692,30.552 287.506,26.562 L296.284,26.562 C299.098,30.636 303.634,33.912 309.934,36.432 L311.656,32.904 C306.826,31.35 303.13,29.25 300.568,26.562 L310.144,26.562 L310.144,22.698 L300.484,22.698 L300.484,18.414 L308.38,18.414 L308.38,14.844 L300.484,14.844 L300.484,10.644 L296.62,10.644 L296.62,14.844 L286.624,14.844 L286.624,10.686 L282.718,10.686 L282.718,14.844 L275.578,14.844 L275.578,18.414 L282.718,18.414 L282.718,22.698 L273.856,22.698 L273.856,26.562 L283.264,26.562 C280.744,29.166 277.132,31.35 272.428,33.114 L274.528,36.516 Z M296.62,22.698 L286.624,22.698 L286.624,18.414 L296.62,18.414 L296.62,22.698 Z M287.632,49.116 C290.11,49.116 291.37,47.688 291.37,44.916 L291.37,30.216 L287.38,30.216 L287.38,43.866 C287.38,44.958 287.002,45.546 286.246,45.546 C285.07,45.546 283.81,45.462 282.508,45.294 L283.432,49.116 L287.632,49.116 Z M305.356,46.932 L308.968,45.294 C307.414,41.304 305.608,37.566 303.508,34.038 L300.022,35.172 C301.954,38.574 303.718,42.48 305.356,46.932 Z M297.544,47.436 L301.198,45.798 C299.938,41.934 298.468,38.322 296.746,34.962 L293.26,36.096 C294.814,39.372 296.242,43.152 297.544,47.436 Z M278.476,46.764 C280.45,44.076 282.172,40.926 283.642,37.23 L280.156,35.55 C278.77,38.994 277.132,41.934 275.2,44.412 L278.476,46.764 Z M349.918,21.27 L349.918,18.12 L335.932,18.12 L335.932,16.146 L351.178,16.146 L351.178,12.912 L335.932,12.912 L335.932,10.518 L332.068,10.518 L332.068,12.912 L316.864,12.912 L316.864,16.146 L332.068,16.146 L332.068,18.12 L318.082,18.12 L318.082,21.27 L349.918,21.27 Z M352.858,36.726 L352.858,33.45 L342.694,33.45 L344.038,31.056 L347.44,31.056 L347.44,22.992 L320.56,22.992 L320.56,31.056 L324.508,31.056 L325.558,33.45 L315.142,33.45 L315.142,36.726 L352.858,36.726 Z M343.618,28.158 L324.34,28.158 L324.34,25.848 L343.618,25.848 L343.618,28.158 Z M338.452,33.45 L329.758,33.45 L328.708,31.056 L339.796,31.056 L338.452,33.45 Z M323.794,49.368 L323.794,47.814 L344.248,47.814 L344.248,49.368 L348.07,49.368 L348.07,38.616 L319.93,38.616 L319.93,49.368 L323.794,49.368 Z M344.248,44.58 L323.794,44.58 L323.794,41.85 L344.248,41.85 L344.248,44.58 Z M370.918,19.842 L370.918,17.112 L381.082,17.112 L381.082,19.842 L385.114,19.842 L385.114,17.112 L394.606,17.112 L394.606,13.458 L385.114,13.458 L385.114,10.35 L381.082,10.35 L381.082,13.458 L370.918,13.458 L370.918,10.35 L366.886,10.35 L366.886,13.458 L357.394,13.458 L357.394,17.112 L366.886,17.112 L366.886,19.842 L370.918,19.842 Z M390.49,27.192 L393.472,25.092 C392.464,23.622 390.994,21.942 389.062,20.052 L386.122,21.858 C387.97,23.79 389.398,25.554 390.49,27.192 Z M365.416,49.116 C367.096,49.116 368.314,48.696 369.154,47.856 C370.33,46.386 370.918,43.782 370.918,40.086 C370.918,35.004 369.91,30.72 367.894,27.192 C369.238,25.932 370.624,24.42 372.01,22.614 L368.692,20.556 C367.726,21.816 366.718,22.992 365.626,24.042 C364.534,22.782 363.19,21.69 361.678,20.724 L358.738,23.202 C360.25,24.042 361.594,25.134 362.77,26.436 C360.922,27.78 358.99,28.872 356.89,29.67 L358.948,33.03 C361.3,31.812 363.316,30.636 364.912,29.544 C365.416,30.552 365.878,31.644 366.256,32.862 C364.114,35.13 361.174,37.104 357.436,38.784 L359.62,42.06 C362.392,40.674 364.828,38.952 367.012,36.936 C367.096,37.818 367.138,38.784 367.138,39.792 C367.096,42.354 366.886,43.992 366.466,44.706 C366.046,45.294 365.374,45.63 364.45,45.63 C363.022,45.63 361.636,45.546 360.334,45.378 L361.426,49.032 C362.434,49.074 363.736,49.116 365.416,49.116 Z M374.152,49.326 C378.394,45.84 381.418,41.472 383.266,36.18 C384.862,41.304 387.928,45.63 392.38,49.158 L395.068,46.176 C390.07,42.648 386.71,37.734 385.03,31.392 L394.018,31.392 L394.018,27.612 L384.694,27.612 C384.736,25.05 384.778,22.824 384.778,20.934 L380.83,20.934 C380.83,22.53 380.788,24.756 380.704,27.612 L372.388,27.612 L372.388,31.392 L380.452,31.392 C379.612,37.02 376.63,42.06 371.548,46.428 L374.152,49.326 Z M399.646,24.378 C405.064,20.682 408.928,16.566 411.196,12.03 L407.878,10.476 C405.862,14.256 402.712,17.616 398.428,20.514 L399.646,24.378 Z M434.002,25.848 L434.002,11.862 L413.548,11.862 L413.548,25.848 L434.002,25.848 Z M430.18,17.364 L417.37,17.364 L417.37,15.054 L430.18,15.054 L430.18,17.364 Z M430.18,22.698 L417.37,22.698 L417.37,20.346 L430.18,20.346 L430.18,22.698 Z M407.878,49.368 L407.878,28.494 C409.306,26.646 410.524,24.756 411.448,22.782 L408.004,21.186 C405.988,25.302 402.88,28.956 398.638,32.148 L399.772,35.928 C401.284,34.836 402.67,33.744 404.014,32.568 L404.014,49.368 L407.878,49.368 Z M427.45,49.074 C430.18,49.074 431.566,47.772 431.566,45.168 L431.566,37.86 L437.32,37.86 L437.32,34.374 L431.566,34.374 L431.566,31.728 L436.354,31.728 L436.354,28.242 L411.868,28.242 L411.868,31.728 L427.618,31.728 L427.618,34.374 L410.356,34.374 L410.356,37.86 L427.618,37.86 L427.618,44.202 C427.618,45.126 427.072,45.588 426.064,45.588 C424.804,45.588 423.46,45.462 422.032,45.294 L422.872,49.074 L427.45,49.074 Z M419.134,46.722 L422.158,44.622 C420.94,42.858 419.176,40.8 416.866,38.532 L414.01,40.59 C416.152,42.774 417.874,44.832 419.134,46.722 Z M449.836,45 L460.462,18.708 L460.462,15.012 L440.302,15.012 L440.302,19.17 L455.842,19.17 L444.964,45 L449.836,45 Z M466.384,49.578 C473.104,45.924 477.892,41.598 480.706,36.6 C481.63,35.004 482.386,33.03 483.058,30.678 C486.166,38.784 491.794,45.084 499.984,49.536 L502.462,46.302 C494.524,42.228 489.106,36.432 486.166,28.914 L501.076,28.914 L501.076,25.092 L484.276,25.092 C484.696,22.488 485.032,19.59 485.242,16.398 L499.858,16.398 L499.858,12.576 L466.426,12.576 L466.426,16.398 L481.21,16.398 C481.042,19.548 480.706,22.446 480.244,25.092 L465.334,25.092 L465.334,28.914 L479.404,28.914 C478.732,31.35 477.934,33.366 476.968,35.004 C474.364,39.372 469.996,43.11 463.864,46.302 L466.384,49.578 Z M507.46,28.116 C510.064,26.688 512.5,25.176 514.768,23.58 L514.768,26.898 L535.642,26.898 L535.642,23.748 C537.826,25.344 540.136,26.772 542.656,28.074 L544.84,24.21 C537.952,20.85 531.904,16.272 526.612,10.476 L523.672,10.476 C518.8,15.978 512.668,20.556 505.318,24.252 L507.46,28.116 Z M534.802,23.118 L515.398,23.118 C519.178,20.388 522.412,17.364 525.142,14.046 C527.956,17.406 531.19,20.43 534.802,23.118 Z M538.036,49.284 L541.354,46.932 C539.254,43.866 536.314,40.254 532.492,36.096 L529.384,38.07 C530.896,39.75 532.282,41.388 533.542,43.026 C527.914,43.698 522.118,44.202 516.07,44.538 C518.548,41.934 520.732,38.91 522.622,35.424 L542.194,35.424 L542.194,31.56 L508.174,31.56 L508.174,35.424 L518.002,35.424 C516.406,38.364 514.474,41.136 512.206,43.782 C511.786,44.244 511.114,44.622 510.148,44.874 L511.24,48.318 C521.068,47.73 529.258,46.932 535.768,45.924 C536.566,47.058 537.322,48.192 538.036,49.284 Z M579.154,23.034 L579.154,11.82 L555.172,11.82 L555.172,23.034 L579.154,23.034 Z M575.29,19.59 L559.036,19.59 L559.036,15.348 L575.29,15.348 L575.29,19.59 Z M556.642,42.144 L556.642,29.25 L577.684,29.25 L577.684,41.514 L581.632,41.514 L581.632,25.596 L552.694,25.596 L552.694,42.144 L556.642,42.144 Z M550.3,49.494 C558.406,48.738 563.53,47.016 565.63,44.412 C567.646,42.312 568.948,38.112 569.536,31.812 L565.504,31.434 C565.168,36.474 564.076,40.002 562.186,42.06 C560.002,44.244 555.508,45.504 548.746,45.84 L550.3,49.494 Z M583.228,49.536 L585.412,46.218 C580.876,44.16 575.92,42.396 570.46,40.926 L568.486,43.908 C573.526,45.252 578.44,47.142 583.228,49.536 Z" id="path-4"></path>
        <filter x="-1.3%" y="-11.8%" width="102.7%" height="133.0%" filterUnits="objectBoundingBox" id="filter-5">
            <feOffset dx="0" dy="2" in="SourceAlpha" result="shadowOffsetOuter1"></feOffset>
            <feGaussianBlur stdDeviation="2" in="shadowOffsetOuter1" result="shadowBlurOuter1"></feGaussianBlur>
            <feColorMatrix values="0 0 0 0 0.0658468495   0 0 0 0 0.375190631   0 0 0 0 0.51392663  0 0 0 1 0" type="matrix" in="shadowBlurOuter1"></feColorMatrix>
        </filter>
        <path d="M21,9 C9.408,9 0,18.408 0,30 C0,41.592 9.408,51 21,51 C32.592,51 42,41.592 42,30 C42,18.408 32.592,9 21,9 Z M18.674378,40.137931 L9.4137931,30.362069 L11.5089481,28.3394768 L17.1239633,33.1009958 C17.1239633,33.1009958 29.1920559,21.2182669 31.1195984,20.5862069 L32.5862069,22.229563 C32.5443038,22.229563 24.9179398,29.5614596 18.674378,40.137931 Z" id="path-6"></path>
        <filter x="-16.7%" y="-11.9%" width="133.3%" height="133.3%" filterUnits="objectBoundingBox" id="filter-7">
            <feOffset dx="0" dy="2" in="SourceAlpha" result="shadowOffsetOuter1"></feOffset>
            <feGaussianBlur stdDeviation="2" in="shadowOffsetOuter1" result="shadowBlurOuter1"></feGaussianBlur>
            <feColorMatrix values="0 0 0 0 0.0666666667   0 0 0 0 0.376470588   0 0 0 0 0.51372549  0 0 0 1 0" type="matrix" in="shadowBlurOuter1"></feColorMatrix>
        </filter>
        <rect id="path-8" x="0" y="0" width="9.072" height="49.248"></rect>
        <linearGradient x1="37.5547644%" y1="0%" x2="62.4452356%" y2="76.2153486%" id="linearGradient-10">
            <stop stop-color="#4FFEEC" offset="0%"></stop>
            <stop stop-color="#248AEE" offset="100%"></stop>
        </linearGradient>
        <rect id="path-11" x="0" y="0" width="9.072" height="49.248"></rect>
        <linearGradient x1="44.7637285%" y1="0%" x2="55.2362715%" y2="76.2153486%" id="linearGradient-13">
            <stop stop-color="#4FFEEC" offset="0%"></stop>
            <stop stop-color="#248AEE" offset="100%"></stop>
        </linearGradient>
        <rect id="path-14" x="0" y="0" width="9.072" height="49.248"></rect>
        <linearGradient x1="46.7548865%" y1="0%" x2="53.2451135%" y2="76.2153486%" id="linearGradient-16">
            <stop stop-color="#4FFEEC" offset="0%"></stop>
            <stop stop-color="#248AEE" offset="100%"></stop>
        </linearGradient>
        <rect id="path-17" x="0" y="0" width="9.072" height="49.248"></rect>
        <linearGradient x1="43.4173961%" y1="0%" x2="56.5826039%" y2="76.2153486%" id="linearGradient-19">
            <stop stop-color="#4FFEEC" offset="0%"></stop>
            <stop stop-color="#248AEE" offset="100%"></stop>
        </linearGradient>
        <rect id="path-20" x="0" y="0" width="9.072" height="49.248"></rect>
        <polygon id="path-22" points="0 0 162.432 0 162.432 61.344 0 61.344"></polygon>
        <linearGradient x1="47.3012121%" y1="0%" x2="47.301212%" y2="103.768301%" id="linearGradient-24">
            <stop stop-color="#38C1ED" stop-opacity="0.323539402" offset="0%"></stop>
            <stop stop-color="#00BCFC" stop-opacity="0" offset="100%"></stop>
        </linearGradient>
        <linearGradient x1="50%" y1="100%" x2="50%" y2="3.061617e-15%" id="linearGradient-25">
            <stop stop-color="#FAD961" offset="0%"></stop>
            <stop stop-color="#F76B1C" offset="100%"></stop>
        </linearGradient>
        <path d="M3.13225655,118.368 L48.7077435,118.368 C50.8052973,118.368 52.175585,119.95047 51.7683666,121.902545 L45.1323596,153.713455 C44.7251413,155.66553 43.2133754,157.248 41.7557362,157.248 L10.0842638,157.248 C8.62662456,157.248 7.11485873,155.66553 6.70764035,153.713455 L0.0716334089,121.902545 C-0.335584973,119.95047 1.03470268,118.368 3.13225655,118.368 Z" id="path-26"></path>
        <filter x="-17.4%" y="-23.1%" width="134.7%" height="146.3%" filterUnits="objectBoundingBox" id="filter-27">
            <feGaussianBlur stdDeviation="5.5" in="SourceAlpha" result="shadowBlurInner1"></feGaussianBlur>
            <feOffset dx="0" dy="7" in="shadowBlurInner1" result="shadowOffsetInner1"></feOffset>
            <feComposite in="shadowOffsetInner1" in2="SourceAlpha" operator="arithmetic" k2="-1" k3="1" result="shadowInnerInner1"></feComposite>
            <feColorMatrix values="0 0 0 0 0.836973852   0 0 0 0 0.411981948   0 0 0 0 0  0 0 0 1 0" type="matrix" in="shadowInnerInner1"></feColorMatrix>
        </filter>
        <linearGradient x1="50%" y1="0%" x2="50%" y2="98.2997652%" id="linearGradient-28">
            <stop stop-color="#FFE8E8" offset="0%"></stop>
            <stop stop-color="#FFE5E5" stop-opacity="0.118772645" offset="100%"></stop>
        </linearGradient>
    </defs>
    <g id="Page-1" stroke="none" stroke-width="1" fill="none" fill-rule="evenodd">
        <g id="注册成功-新" transform="translate(0.000000, -238.000000)">
            <g id="切图一" transform="translate(0.000000, 238.000000)">
                <g id="最上方部分">
                    <mask id="mask-3" fill="white">
                        <use xlink:href="#path-2"></use>
                    </mask>
                    <use id="最上方插画背景-" fill="url(#linearGradient-1)" xlink:href="#path-2"></use>
                    <g id="注册成功" mask="url(#mask-3)">
                        <g transform="translate(81.000000, 56.000000)" id="二">
                            <g>
                                <g id="注册成功，恭喜获得7天会员" fill-rule="nonzero">
                                    <use fill="black" fill-opacity="1" filter="url(#filter-5)" xlink:href="#path-4"></use>
                                    <use fill="#FFFFFF" xlink:href="#path-4"></use>
                                </g>
                                <g id="Shape" fill-rule="nonzero">
                                    <use fill="black" fill-opacity="1" filter="url(#filter-7)" xlink:href="#path-6"></use>
                                    <use fill="#FFFFFF" xlink:href="#path-6"></use>
                                </g>
                            </g>
                        </g>
                    </g>
                    <g id="插画" mask="url(#mask-3)">
                        <g transform="translate(43.000000, 26.000000)">
                            <g id="装饰建筑" stroke-width="1" fill="none" transform="translate(331.640000, 263.464000) scale(-1, 1) translate(-331.640000, -263.464000) translate(100.140000, 136.464000)">
                                <rect id="Rectangle-11" fill="#2397DA" x="0" y="76.896" width="76.032" height="176.256"></rect>
                                <rect id="Rectangle-11" fill="#33B1EE" x="386.208" y="113.184" width="76.032" height="84.672"></rect>
                                <path d="M444.96,153.792 L444.96,157.248 L406.944,157.248 L406.944,153.792 L444.96,153.792 Z M444.96,145.152 L444.96,148.608 L406.944,148.608 L406.944,145.152 L444.96,145.152 Z M444.96,136.512 L444.96,139.968 L406.944,139.968 L406.944,136.512 L444.96,136.512 Z M444.96,127.872 L444.96,131.328 L406.944,131.328 L406.944,127.872 L444.96,127.872 Z" id="Combined-Shape" fill="#2CCDDB"></path>
                                <path d="M356.27289,151.90118 C356.123227,152.018694 355.976044,152.151053 355.828655,152.298255 L356.010773,152.298255 L355.982039,152.337221 C352.570586,153.099828 356.047775,158.362421 357.852416,155.579386 C358.633807,155.075517 359.935505,154.097672 360.325373,153.322694 C361.388933,152.329386 361.60826,149.899102 359.543776,149.899102 C358.255514,149.899102 356.962292,150.860866 356.27289,151.90118 L356.27289,151.90118 Z M365.006484,189.108156 C372.112386,185.639826 379.397926,182.520535 386.635508,179.303522 C386.635508,178.822124 386.155721,178.471436 386.154477,177.900975 C385.93391,177.607601 385.594066,176.761908 385.451018,176.373079 C385.143836,175.900959 384.9396,175.272977 384.542083,174.876932 C384.238415,174.574075 383.658574,173.544894 383.604827,173.168023 C383.388601,172.801047 383.16762,172.615292 383.117181,172.15616 C382.896821,171.868971 382.786847,171.524674 382.786847,171.180171 L382.786847,171.68672 C382.444937,171.348402 382.332896,170.648056 381.984991,170.385401 L381.984991,170.407255 C381.353884,169.782572 381.100035,169.030066 380.800709,168.216947 C380.057974,167.074788 380.168568,164.773151 381.994707,164.773151 C382.647727,164.773151 383.0285,165.014572 383.422709,165.378661 C384.181155,165.697599 385.432,166.681423 385.916132,167.428981 C386.134632,167.569174 386.309515,167.755754 386.434165,167.96893 C387.350542,168.60722 388.265679,169.694951 388.729552,170.620636 C389.203348,171.565701 390.111043,172.412012 390.429181,173.416041 L390.444892,173.44078 C391.820801,174.255548 391.625867,175.665311 392.368601,176.73923 C396.687337,174.764984 400.919664,172.648691 404.837988,169.902148 C413.187708,163.945395 418.393053,158.107806 418.714704,147.700754 C418.879251,142.467438 417.636054,137.322566 416.205985,132.327783 C414.723203,127.215898 413.747498,122.583762 415.927537,117.527542 C415.705523,117.192316 415.472552,116.85173 415.311933,116.480218 C414.866664,116.036755 414.802169,115.491653 414.369716,115.060972 C414.22088,114.912739 414.107186,114.742446 414.02884,114.560607 C413.468636,113.981693 412.957218,113.169193 412.223165,112.803249 C411.828749,112.606772 411.496141,112.214026 411.256556,111.854267 C410.822036,111.52337 410.441677,111.115162 409.978217,110.884256 C409.613981,110.70283 409.311554,110.356471 409.07817,110.031347 C408.195488,109.510984 406.883454,108.316871 406.842524,107.269342 C406.317256,106.190063 406.099376,104.659281 406.779062,103.613195 C407.500091,101.65235 410.716404,102.284868 411.891177,103.562066 C412.672362,104.118714 413.305743,104.852458 414.168994,105.298189 C414.509664,105.353854 414.814158,105.515488 415.047749,105.748249 L414.938809,105.6396 C415.387798,105.788864 415.694567,106.063271 416.002162,106.373551 C416.414563,106.556214 416.708308,106.81454 417.143241,106.959062 C417.56577,107.099461 417.891557,107.397577 418.076155,107.76579 C418.426334,108.465104 419.362556,108.611895 419.619712,109.45532 L419.689583,109.490162 L419.689583,109.41821 C419.984775,109.712409 420.433558,109.711996 420.766166,110.014235 C422.267552,107.89052 423.654625,105.707635 424.412863,103.174061 C426.458123,96.3149198 423.493799,88.683893 420.363067,82.6574559 C419.220335,80.4671487 417.986647,78.315807 416.687636,76.2143573 C414.646511,72.9031259 412.44518,69.5968424 411.955053,65.6547431 L411.956087,65.6588664 C411.624512,61.1904254 413.630082,58.0179436 416.087743,54.3446847 C417.771867,51.8616219 419.21372,49.4333993 419.983121,46.5095536 C421.52275,40.6905194 420.739499,34.3970974 419.332789,28.6310478 C417.447528,23.2189853 414.34181,18.2792489 411.522601,13.3197206 C411.215419,14.1614962 410.890666,15.0139924 410.513614,15.8273171 L410.534286,15.7990724 C405.458346,26.8963675 395.935093,35.5235882 386.110653,42.4818955 L386.171634,42.4487027 C378.585528,47.7317054 369.934414,51.4049643 362.815695,57.3709949 C360.172403,59.5856296 357.76084,62.1723939 356.05315,65.181386 C356.310926,65.1438638 356.591234,64.7057612 356.903377,64.5913391 C358.0058,63.8792418 359.188016,63.1922969 360.436174,62.7768725 L360.327234,62.8855219 C360.670178,62.5434926 362.047948,62.0944631 362.59058,62.0944631 C363.054247,62.0944631 363.478017,61.8701546 363.930727,61.7959348 C364.314395,61.5963662 364.822092,61.546474 365.242141,61.3928804 C366.428491,60.625943 368.694111,61.3151558 368.694111,62.9036645 C368.694111,63.83471 368.335457,64.5808246 367.555306,65.1857155 C366.323479,66.1406763 364.440492,67.5659015 363.012283,67.9524627 C362.63027,68.2862454 361.081751,68.8921671 360.608989,68.9694794 C360.435554,69.0595739 360.24372,69.119362 360.040724,69.1414218 C359.784188,69.3366609 359.285999,69.5795244 358.976751,69.6925034 C357.354848,70.7402388 355.887776,72.149177 354.153212,72.9886847 C353.809442,73.499564 353.382777,74.1042488 352.889964,74.5976039 C352.189192,79.0802703 352.295445,83.6338579 352.306608,88.155902 C352.322112,90.9063621 352.319838,93.6458953 351.918186,96.3742956 L351.925215,96.3489372 C351.401187,99.426995 350.374422,102.281157 348.557378,104.843387 C347.136198,108.182657 344.777555,110.990225 342.620668,113.869127 C336.934912,121.438922 331.867448,130.385082 331.155721,140.021485 C331.74073,139.761303 332.263725,139.693475 332.862171,139.548746 C333.124908,139.333303 333.45731,139.199089 333.820718,139.184657 C334.454306,138.866955 335.144122,138.534616 335.828769,138.422874 C336.608713,138.028272 338.048705,137.527495 338.908441,137.448533 C339.186062,137.302774 339.65469,137.147325 339.963526,137.11372 C340.343885,136.824263 340.746984,136.784473 341.202175,136.784473 C341.557108,136.607376 341.842171,136.470482 342.158035,136.389047 C343.576322,135.235136 346.155118,134.031127 348.013092,133.7895 C348.228491,133.669305 348.474485,133.596941 348.736396,133.586839 C349.099804,133.410979 349.400991,133.265839 349.82042,133.265839 C351.181239,132.81351 355.865037,131.286851 355.865037,134.07504 C355.865037,134.731678 355.905554,135.341105 355.392482,135.852603 C354.205718,137.036202 352.915597,138.024355 351.341859,138.58224 C350.881086,138.911899 350.210082,139.344642 349.662488,139.477 C349.27448,139.795114 348.557792,140.002311 348.057743,140.002311 C347.376817,140.342073 346.696304,140.597306 346.020339,140.938305 C345.815689,141.045511 345.585406,141.110247 345.340859,141.120555 C344.653111,141.472687 343.272034,142.048921 342.447853,142.080258 C341.981085,142.306216 341.500054,142.446202 341.016336,142.623093 C340.780472,142.775656 340.502024,142.86843 340.202697,142.879976 C338.984513,143.470435 337.625968,143.761541 336.365613,144.222528 C335.841792,144.561259 334.635597,145.120175 334.036944,145.120175 C333.200153,145.610644 332.164914,145.941952 331.26094,146.29161 C332.519847,158.27748 339.634225,168.136543 344.665101,178.753883 C345.530832,180.579689 346.389742,182.429204 347.00762,184.343867 C348.386217,188.640778 348.740737,193.14468 349.75179,197.523645 C354.65078,194.428887 359.774472,191.661316 365.006484,189.10795 L365.006484,189.108156 Z" id="Fill-1" fill="#38BFED" transform="translate(378.121860, 105.421683) scale(1, -1) translate(-378.121860, -105.421683) "></path>
                            </g>
                            <g id="主要内容" stroke-width="1" fill="none" transform="translate(149.284000, 114.000000)">
                                <g id="图表" transform="translate(44.928000, 66.528000)">
                                    <path d="M6.912,0 L311.04,0 C314.857392,1.86934851e-16 317.952,3.09460781 317.952,6.912 L317.952,216 C317.952,219.817392 314.857392,222.912 311.04,222.912 L6.912,222.912 C3.09460781,222.912 7.57292307e-15,219.817392 0,216 L0,6.912 C1.30886113e-15,3.09460781 3.09460781,6.91849251e-15 6.912,0 Z" id="Rectangle-9" fill="#FFFFFF"></path>
                                    <path d="M20.2176,12.096 C22.3171657,12.096 24.0192,13.8367169 24.0192,15.984 C24.0192,18.1312831 22.3171657,19.872 20.2176,19.872 C18.1180343,19.872 16.416,18.1312831 16.416,15.984 C16.416,13.8367169 18.1180343,12.096 20.2176,12.096 Z M35.424,12.096 C37.5235657,12.096 39.2256,13.8367169 39.2256,15.984 C39.2256,18.1312831 37.5235657,19.872 35.424,19.872 C33.3244343,19.872 31.6224,18.1312831 31.6224,15.984 C31.6224,13.8367169 33.3244343,12.096 35.424,12.096 Z M50.6304,12.096 C52.7299657,12.096 54.432,13.8367169 54.432,15.984 C54.432,18.1312831 52.7299657,19.872 50.6304,19.872 C48.5308343,19.872 46.8288,18.1312831 46.8288,15.984 C46.8288,13.8367169 48.5308343,12.096 50.6304,12.096 Z" id="Combined-Shape" fill="#40D7EC"></path>
                                    <path d="M17.28,28.512 L118.368,28.512 L118.368,28.512 L118.368,213.408 L17.28,213.408 C13.4626078,213.408 10.368,210.313392 10.368,206.496 L10.368,35.424 C10.368,31.6066078 13.4626078,28.512 17.28,28.512 Z" id="Rectangle" fill="#EDF5FA"></path>
                                    <g id="柱状图" transform="translate(27.648000, 41.472000)">
                                        <g id="1">
                                            <mask id="mask-9" fill="white">
                                                <use xlink:href="#path-8"></use>
                                            </mask>
                                            <use id="Mask" fill="#D1E8F7" xlink:href="#path-8"></use>
                                            <polygon id="Rectangle-2" fill="url(#linearGradient-10)" mask="url(#mask-9)" points="0 31.0641231 9.072 31.0641231 9.072 49.248 0 49.248"></polygon>
                                        </g>
                                        <g id="1" transform="translate(14.364000, 0.000000)">
                                            <mask id="mask-12" fill="white">
                                                <use xlink:href="#path-11"></use>
                                            </mask>
                                            <use id="Mask" fill="#D1E8F7" xlink:href="#path-11"></use>
                                            <rect id="Rectangle-2" fill="url(#linearGradient-13)" mask="url(#mask-12)" x="0" y="21.2145231" width="9.072" height="28.0334769"></rect>
                                        </g>
                                        <g id="2" transform="translate(28.728000, 0.000000)">
                                            <mask id="mask-15" fill="white">
                                                <use xlink:href="#path-14"></use>
                                            </mask>
                                            <use id="Mask" fill="#D1E8F7" xlink:href="#path-14"></use>
                                            <polygon id="Rectangle-2" fill="url(#linearGradient-16)" mask="url(#mask-15)" points="0 13.6379077 9.072 13.6379077 9.072 49.248 0 49.248"></polygon>
                                        </g>
                                        <g id="3" transform="translate(43.092000, 0.000000)">
                                            <mask id="mask-18" fill="white">
                                                <use xlink:href="#path-17"></use>
                                            </mask>
                                            <use id="Mask" fill="#D1E8F7" xlink:href="#path-17"></use>
                                            <rect id="Rectangle-2" fill="url(#linearGradient-19)" mask="url(#mask-18)" x="0" y="24.2451692" width="9.072" height="25.0028308"></rect>
                                        </g>
                                        <g id="4" transform="translate(57.456000, 0.000000)">
                                            <mask id="mask-21" fill="white">
                                                <use xlink:href="#path-20"></use>
                                            </mask>
                                            <use id="Mask" fill="#D1E8F7" xlink:href="#path-20"></use>
                                            <polygon id="Rectangle-2" fill="url(#linearGradient-16)" mask="url(#mask-21)" points="0 13.6379077 9.072 13.6379077 9.072 49.248 0 49.248"></polygon>
                                        </g>
                                    </g>
                                    <path d="M118.368,28.512 L304.992,28.512 C305.946348,28.512 306.72,29.285652 306.72,30.24 L306.72,211.68 C306.72,212.634348 305.946348,213.408 304.992,213.408 L118.368,213.408 L118.368,213.408 L118.368,28.512 Z" id="Rectangle" fill="#FBFBFB"></path>
                                    <g id="条条" transform="translate(27.648000, 108.864000)">
                                        <path d="M2.67698361,0 L42.7498205,0 C44.2282777,-2.04794502e-15 45.4268041,1.19852639 45.4268041,2.67698361 C45.4268041,4.15544083 44.2282777,5.35396721 42.7498205,5.35396721 L2.67698361,5.35396721 C1.19852639,5.35396721 1.8105879e-16,4.15544083 0,2.67698361 C-1.8105879e-16,1.19852639 1.19852639,7.15677395e-16 2.67698361,0 Z" id="Rectangle-5" fill="#BEE2FA"></path>
                                        <path d="M2.67698361,10.7079344 L70.7630164,10.7079344 C72.2414736,10.7079344 73.44,11.9064608 73.44,13.384918 C73.44,14.8633753 72.2414736,16.0619016 70.7630164,16.0619016 L2.67698361,16.0619016 C1.19852639,16.0619016 1.8105879e-16,14.8633753 0,13.384918 C-1.8105879e-16,11.9064608 1.19852639,10.7079344 2.67698361,10.7079344 Z" id="Rectangle-6" fill="#D1E8F7"></path>
                                    </g>
                                    <g id="折线图" transform="translate(144.288000, 111.456000)">
                                        <mask id="mask-23" fill="white">
                                            <use xlink:href="#path-22"></use>
                                        </mask>
                                        <use id="Mask" fill="#F7F9FF" xlink:href="#path-22"></use>
                                        <polygon id="Path-5" stroke="#3CCAED" stroke-width="3.456" fill="url(#linearGradient-24)" mask="url(#mask-23)" points="-4.55416822 23.4773333 41.3598674 11.36 81.8079464 23.4773333 169.263252 11.36 169.263252 66.6453333 -4.55416822 66.6453333"></polygon>
                                    </g>
                                    <g id="Group" transform="translate(143.424000, 28.512000)">
                                        <path d="M1.3824,0 L162.2901,0 C163.053578,-1.40248714e-16 163.6725,0.618921562 163.6725,1.3824 L163.6725,74.4978395 C163.6725,75.261318 163.053578,75.8802395 162.2901,75.8802395 L1.3824,75.8802395 C0.618921562,75.8802395 4.09030203e-15,75.261318 0,74.4978395 L0,1.3824 C-3.15543747e-16,0.618921562 0.618921562,4.1370516e-15 1.3824,0 Z" id="Rectangle-3" fill="#EDF4FB"></path>
                                        <path d="M18.8145584,7.96742515 L86.4779416,7.96742515 C87.9447041,7.96742515 89.13375,9.15647106 89.13375,10.6232335 C89.13375,12.089996 87.9447041,13.2790419 86.4779416,13.2790419 L18.8145584,13.2790419 C17.3477959,13.2790419 16.15875,12.089996 16.15875,10.6232335 C16.15875,9.15647106 17.3477959,7.96742515 18.8145584,7.96742515 Z" id="Rectangle-5" fill="#BEE2FA"></path>
                                        <path d="M18.92355,18.5906587 L146.3127,18.5906587 C147.839657,18.5906587 149.0775,19.8285018 149.0775,21.3554587 L149.0775,43.1427449 C149.0775,44.6697018 147.839657,45.9075449 146.3127,45.9075449 L18.92355,45.9075449 C17.3965931,45.9075449 16.15875,44.6697018 16.15875,43.1427449 L16.15875,21.3554587 C16.15875,19.8285018 17.3965931,18.5906587 18.92355,18.5906587 Z" id="Rectangle-6" fill="#D1E8F7"></path>
                                        <path d="M18.8145584,52.3573653 L86.4779416,52.3573653 C87.9447041,52.3573653 89.13375,53.5464112 89.13375,55.0131737 C89.13375,56.4799361 87.9447041,57.668982 86.4779416,57.668982 L18.8145584,57.668982 C17.3477959,57.668982 16.15875,56.4799361 16.15875,55.0131737 C16.15875,53.5464112 17.3477959,52.3573653 18.8145584,52.3573653 Z" id="Rectangle-5" fill="#BEE2FA"></path>
                                        <path d="M18.8145584,63.36 L146.421692,63.36 C147.888454,63.36 149.0775,64.5490459 149.0775,66.0158084 C149.0775,67.4825709 147.888454,68.6716168 146.421692,68.6716168 L18.8145584,68.6716168 C17.3477959,68.6716168 16.15875,67.4825709 16.15875,66.0158084 C16.15875,64.5490459 17.3477959,63.36 18.8145584,63.36 Z" id="Rectangle-6" fill="#D1E8F7"></path>
                                    </g>
                                </g>
                                <g id="人3" transform="translate(314.692000, 54.500000) scale(-1, 1) translate(-314.692000, -54.500000) translate(281.192000, 0.000000)">
                                    <path d="M33.2564211,53.568 C17.7953684,61.0763818 9.72126316,65.5131528 9.03410526,66.8783132 C8.00336842,68.9260537 6.97263158,78.652821 10.0648421,90.4273288 C12.1263158,98.2770006 10.752,102.201837 5.94189474,102.201837 C1.13178947,103.225707 -0.757894737,104.420222 0.272842105,105.785382 C1.81894737,107.833123 19.3414737,107.321188 19.3414737,105.785382 C19.3414737,104.249577 16.7646316,102.201837 17.7953684,97.0824854 C18.4825263,93.6695845 19.3414737,85.9905577 20.3722105,74.0454049 L46.656,57.663481 L33.2564211,53.568 Z" id="大腿内" fill="#203749"></path>
                                    <path d="M39.7395418,56.3619735 C25.8537548,60.8353122 18.3954191,64.7924965 17.3645349,68.2335263 C15.8182085,73.395071 35.9204515,89.912014 42.105757,101.783567 C46.7340356,99.1186287 33.858683,106.945111 35.4050093,108.493575 C36.9513357,110.042038 51.3837153,106.428957 52.4145996,103.33203 C52.7307389,102.382302 51.3837153,100.751258 47.7756204,97.1381765 C46.4011081,93.6971467 42.4493851,85.6107267 35.9204515,72.8789165 C51.7273434,74.5994314 60.4898596,72.018659 62.208,65.1365995 C53.9609259,58.2545399 46.4714399,55.3296646 39.7395418,56.3619735 Z" id="大腿外" fill="#28455C"></path>
                                    <polygon id="手左" fill="#FFE3CA" points="34.1263273 33.696 24.192 48.5410909 29.376 51.84 40.608 34.9789384"></polygon>
                                    <path d="M45.7809005,20.5242811 C42.4068224,21.0507843 40.3146806,21.7030654 39.5044752,22.4811245 C36.7875522,25.0902491 34.5633938,28.7821961 32.832,33.5569655 L38.3368455,35.8377931 C38.0355842,39.2037889 37.7010959,41.991467 37.3333807,44.2008276 C36.7528551,47.6888266 32.9015896,50.7562862 33.5822301,53.3241379 C34.3964315,56.3958745 44.7111073,60.5091618 64.5262574,65.664 C67.862495,49.2693333 67.0284356,36.832 62.0240792,28.352 C60.4909883,25.7541414 57.6722953,23.1449017 53.568,20.5242811 L45.7809005,20.5242811 Z" id="Path-17" fill="#FFFFFF"></path>
                                    <g id="电脑" transform="translate(29.796000, 51.880000) scale(-1, 1) translate(-29.796000, -51.880000) translate(4.296000, 38.880000)">
                                        <path d="M12.096,25.92 C11.52,25.92 7.488,25.056 0,23.328 L14.688,19.872 C13.536,23.904 12.672,25.92 12.096,25.92 Z" id="Path-40" fill="#C3C1C1"></path>
                                        <path d="M18.144,6.912 C14.112,19.584 12.096,25.92 12.096,25.92 C12.096,25.92 21.888,23.904 41.472,19.872 L50.112,0 L18.144,6.912 Z" id="Path-11" fill="#D8D8D8"></path>
                                    </g>
                                    <path d="M53.568,35.424 L59.616,31.968 C62.496,45.216 62.496,52.704 59.616,54.432 C56.736,56.16 51.264,57.888 43.2,59.616 L38.88,57.024 L53.568,48.384 L53.568,35.424 Z" id="Path-2" fill="#FFE3CA"></path>
                                    <path d="M46.656,18.144 L46.656,20.9353846 C46.656,22.5304615 47.4861176,23.328 49.1463529,23.328 C50.8065882,23.328 51.9924706,22.7963077 52.704,21.7329231 L52.704,18.5427692 L46.656,18.144 Z" id="脖子" fill="#F6D6BA"></path>
                                    <g id="头部" transform="translate(40.608000, 0.000000)">
                                        <path d="M8.64,19.872 C11.0477289,19.872 12.9578631,18.7003583 13.9225397,16.974 C14.6662657,15.6430487 14.7352381,14.046516 14.7352381,12.006 C14.7352381,7.31875933 15.9542857,6.21 8.64,6.21 C1.32571429,6.21 2.5447619,8.14675933 2.5447619,12.834 C2.5447619,14.8744647 2.95111111,16.974 3.76380952,17.802 C4.75022514,18.806988 6.23222446,19.872 8.64,19.872 Z" id="脸" fill="#FFE3CA"></path>
                                        <path d="M14.8373832,1.69973062 C10.5981308,-0.274908829 11.3782303,1.76171574 8.05457944,1.69973062 C4.73092862,1.63774551 4.50952157,-0.52510126 2.96747664,0.120019062 C1.35421626,0.794932632 0,2.86503096 0,4.46422586 C0,6.99202712 2.27070371,8.71018779 4.66317757,8.01857687 C5.39396947,7.80732121 7.23097881,7.28075069 10.1742056,6.43886531 C10.6448077,7.3414671 11.2100414,7.86803762 11.8699065,8.01857687 C13.3589747,8.3582875 13.7396942,6.65923144 13.9895327,6.8337932 C15.12,7.62364898 15.5439252,9.07171792 15.2613084,11.178 C18.0874766,6.70215057 17.9461682,3.54272745 14.8373832,1.69973062 Z" id="头发" fill="#632A09"></path>
                                    </g>
                                </g>
                                <g id="人" transform="translate(0.000000, 92.448000)">
                                    <polygon id="手臂2" fill="#FFE3CA" points="17.4324706 25.92 15.1962353 40.0075932 12.96 56.804339 17.9915294 57.888 22.464 28.6291525"></polygon>
                                    <path d="M15.7247445,52.704 C20.3396656,52.704 27.3530696,53.2504615 36.7649567,54.3433846 L36.7649567,54.3433846 L21.6591633,79.4806154 L43.7783607,104.617846 L43.674,104.683 L44.064,104.617846 L32.734655,116.64 C31.09656,116.395579 30.3772365,115.849118 30.5766845,115.000615 C30.7491005,114.267114 31.7131841,111.989718 33.4689351,108.168427 C18.8964116,91.5001246 11.0033975,81.9380989 9.79032566,79.4806154 C8.6437039,77.1577488 11.1898261,74.9539598 13.0272814,61.4473846 C13.1471419,60.5663261 12.7874802,59.1090953 11.9482961,57.0756923 C12.3079579,54.1612308 13.566774,52.704 15.7247445,52.704 Z" id="腿子2" fill="#203749"></path>
                                    <path d="M21.5322353,53.568 L38.88,54.1083289 C38.5185882,64.9149076 37.7957647,73.9203898 36.7115294,81.1247756 C33.7744071,94.8251539 29.9795836,106.8925 25.3270588,117.326814 L25.683,116.518 L25.978286,116.786485 C25.8178783,116.835144 25.658951,116.883266 25.5015041,116.930852 L25.3270588,117.326814 L24.8098542,117.139301 C17.2590068,119.408351 13.3115429,120.371404 12.9674624,120.028459 C12.4253448,119.48813 10.7989919,118.407472 11.3411095,117.326814 C11.7025213,116.606376 14.5938154,114.62517 20.0149919,111.383196 L19.8767413,111.466491 C21.2674288,101.777265 23.0842013,91.6633598 25.3270588,81.1247756 C25.3270588,73.5601706 24.0621176,64.3745787 21.5322353,53.568 L21.5322353,53.568 Z" id="腿子1" fill="#00345E"></path>
                                    <path d="M24.9529805,19.872 C21.351233,20.2500758 18.6499223,21.9514168 16.8490485,24.9760231 C16.3773554,25.7682418 18.5291434,27.6851816 18.4698349,29.2304833 C18.3805359,31.5572008 18.3601206,35.1088299 17.9295728,39.1394656 C17.6794192,41.4813146 16.5988949,46.2120617 14.688,53.3317068 C24.0525436,56.0144204 32.336563,56.7886634 39.5400581,55.6544361 C40.1671535,54.9961734 38.4299897,51.9685358 38.999796,47.9474499 C39.9027069,41.5756658 42.9038294,32.9898603 42.2413688,29.5129325 C41.1608445,23.8417957 39.5400581,22.7075684 35.217961,21.573341 C32.336563,20.8171895 28.9149028,20.2500758 24.9529805,19.872 Z" id="衣服" fill="#000000"></path>
                                    <path d="M26.784,16.416 L26.784,20.1378462 C26.784,22.2646154 27.6141176,23.328 29.2743529,23.328 C30.9345882,23.328 32.1204706,22.6190769 32.832,21.2012308 L32.832,16.9476923 L26.784,16.416 Z" id="脖子" fill="#F6D6BA"></path>
                                    <g id="头" transform="translate(22.464000, 0.000000)">
                                        <path d="M8.18526316,19.008 C10.4206494,19.008 12.1940581,17.8224653 13.0896842,16.0756364 C13.7801751,14.728903 13.8442105,13.1134391 13.8442105,11.0487273 C13.8442105,6.30590667 14.976,5.184 8.18526316,5.184 C1.39452632,5.184 2.52631579,7.14372485 2.52631579,11.8865455 C2.52631579,13.9512054 2.90357895,16.0756364 3.65810526,16.9134545 C4.57391429,17.9303594 5.94983366,19.008 8.18526316,19.008 Z" id="脸" fill="#FFE3CA"></path>
                                        <path d="M13.3536449,1.83932203 C9.53831776,-0.297485882 10.2404072,1.90639771 7.2491215,1.83932203 C4.25783576,1.77224635 4.05856941,-0.568225518 2.67072897,0.1298757 C1.21879463,0.860216955 0,3.10032336 0,4.8308531 C0,7.56625157 2.04363334,9.42551722 4.19685981,8.67710734 C4.85457252,8.44850218 6.50788093,7.87868674 9.15678505,6.96766101 C9.58032697,7.94438952 10.0890372,8.51420496 10.6829159,8.67710734 C12.0230772,9.04471691 12.3657248,7.20612484 12.5905794,7.3950226 C13.608,8.24974576 13.9895327,9.81673823 13.7351776,12.096 C16.278729,7.25256874 16.1515514,3.83367608 13.3536449,1.83932203 Z" id="头发" fill="#632A09"></path>
                                    </g>
                                    <polygon id="手机" fill="#A2A2A2" points="1.728 34.56 0 40.5415385 10.368 43.2 12.096 37.2184615"></polygon>
                                    <path d="M11.3825168,43.6667982 C9.22077166,43.4512246 7.93011978,43.0519329 7.5105612,42.4689231 C6.78792813,41.4055385 6.4266116,40.8738462 6.4266116,40.8738462 C5.8846368,40.3421538 4.32,40.7303721 4.32,39.7387245 C4.32,38.7470769 9.02610223,40.0111801 10.4935152,39.4230177 C11.9271989,38.8483745 9.67846041,37.152 10.4935152,37.0974065 C11.30857,37.042813 12.1927947,38.359257 12.3883344,38.2153846 L26.6345292,38.2153846 L32.0542772,30.24 C33.8608599,32.7212308 35.8481008,34.1390769 38.016,34.4935385 C37.6546835,35.9113846 34.9448095,39.1015385 29.886378,44.064 C23.2794471,43.3908989 19.0726903,43.0543483 17.2661076,43.0543483 C14.7405653,43.0543483 12.150753,43.782746 11.3825168,43.6667982 Z" id="手臂" fill="#FFE3CA"></path>
                                </g>
                                <g id="线条" transform="translate(1.728000, 18.144000)">
                                    <path d="M323.136,32.832 L31.968,32.832 C27.1962598,32.832 23.328,36.7002598 23.328,41.472 L23.328,63.072 C23.328,67.8437402 19.4597402,71.712 14.688,71.712 L12.096,71.712 C7.32425976,71.712 3.456,75.5802598 3.456,80.352 L3.456,125.28 L3.456,125.28" id="Path-41" stroke="#089FEB" stroke-width="1.728"></path>
                                    <circle id="Oval-6" fill="#0075DD" cx="323.568" cy="33.264" r="3.024"></circle>
                                    <circle id="Oval-6" fill="#0075DD" cx="3.024" cy="125.712" r="3.024"></circle>
                                    <g id="Group-2" transform="translate(152.928000, 0.000000)">
                                        <path d="M21.6,33.696 L21.6,120.96 C21.6,125.73174 17.7317402,129.6 12.96,129.6 L8.64,129.6 L8.64,129.6" id="Path-42" stroke="#089FEB" stroke-width="0.864"></path>
                                        <circle id="Oval-6" fill="#0075DD" cx="8.208" cy="129.168" r="3.024"></circle>
                                        <circle id="Oval-6" fill="#0075DD" cx="21.168" cy="33.264" r="3.024"></circle>
                                        <path d="M3.456,0 L38.016,0 C39.9246961,9.34674253e-17 41.472,1.5473039 41.472,3.456 L41.472,16.416 C41.472,18.3246961 39.9246961,19.872 38.016,19.872 L25.5891064,19.872 L25.5891064,19.872 L21.1771915,24.192 L16.7652766,19.872 L3.456,19.872 C1.5473039,19.872 1.12192628e-15,18.3246961 0,16.416 L0,3.456 C2.10341353e-16,1.5473039 1.5473039,7.94710994e-16 3.456,0 Z" id="Rectangle-16" fill="#FFFFFF"></path>
                                        <g id="锁-1" transform="translate(15.552000, 2.592000)" fill="#3BC9ED" fill-rule="nonzero">
                                            <path d="M10.3254353,6.15826679 L9.28597689,6.15826679 L9.28597689,3.71303538 C9.28597689,1.66526323 7.64073235,0 5.61654699,0 C3.59219834,0 1.94507608,1.66526323 1.94507608,3.7131834 L1.94507608,6.1582339 L0.906727932,6.1582339 C0.405996363,6.1582339 0,6.56862054 0,7.07518951 L0,13.769926 C0,14.2772844 0.405996363,14.688 0.906727932,14.688 L10.326366,14.688 C10.8270976,14.688 11.232,14.2773173 11.232,13.769926 L11.232,7.07518951 C11.232,6.56858765 10.8261669,6.1582339 10.3252721,6.1582339 L10.3254353,6.15826679 Z M6.12557319,10.5970609 L6.12557319,12.0588742 C6.12531195,12.12509 6.07227852,12.1787238 6.00667251,12.1793488 L5.22728685,12.1793488 C5.16133796,12.1789869 5.10797797,12.1252873 5.10753711,12.0589235 L5.10753711,10.5970773 C4.74141379,10.4076403 4.48783955,10.0279767 4.48783955,9.58296903 C4.48783955,8.9532446 4.99311031,8.44113298 5.61561629,8.44113298 C6.2390693,8.44113298 6.7445059,8.95322815 6.7445059,9.58280456 C6.74543404,10.0279767 6.4918598,10.4076567 6.12558952,10.5969129 L6.12557319,10.5970609 Z M7.87774998,6.15826679 L3.35506642,6.15826679 L3.35506642,3.77367563 C3.35506642,2.51233535 4.37060432,1.4851352 5.61734706,1.4851352 C6.86425308,1.4851352 7.87791326,2.51231891 7.87791326,3.77367563 L7.87791326,6.15826679 L7.87774998,6.15826679 Z" id="Shape"></path>
                                        </g>
                                    </g>
                                </g>
                            </g>
                            <g id="花花草草" stroke-width="1" fill="none" transform="translate(475.012000, 177.072000)">
                                <path d="M25.8875692,0.243257275 C25.2798613,0.400996013 24.6315638,0.696219099 23.9595572,1.11992458 C23.43815,1.44644991 22.9211052,1.88140783 22.3314161,2.48515233 C21.6979129,3.13636168 21.1914897,3.88659248 20.7791436,4.53555134 C20.3140689,5.26777824 19.9278975,6.04746998 19.6122839,6.71443274 C19.2701163,7.44215866 18.9436915,8.25315264 18.6163183,9.19058312 C16.4388882,15.4408016 16.65151,22.3172694 17.2080065,28.8177013 C17.3409663,30.3969299 17.5023769,32.0013232 17.659425,33.5537506 C17.8354402,35.315678 18.0201804,37.1383685 18.1641411,38.9342578 C18.3851086,41.646914 18.6011445,45.2182336 18.3215686,48.7713447 C18.0503382,51.7094589 17.4710811,54.6273186 16.9088944,57.4482028 C16.7165674,58.4169355 16.5170329,59.4196302 16.3334307,60.4065714 C15.9169119,62.6462159 15.6549754,64.5253733 15.5106353,66.3188075 C15.3543459,68.2317222 15.3427759,70.2618668 15.474408,72.5238116 C15.6236796,75.0676812 15.9415692,77.6453082 16.2495959,80.137212 C16.4515962,81.7708615 16.6602349,83.4585228 16.8195591,85.1212241 C16.9145846,86.1194178 16.9893152,87.1401163 17.0429922,88.1516083 C17.0923069,89.1070427 17.110705,90.1232402 17.1038768,91.4502097 C17.0898411,93.622135 17.0240251,95.8077679 16.9637095,97.6621699 C16.9367761,98.3876453 16.9117395,99.1110748 16.8848061,99.8363457 C16.7548811,103.470679 16.6213522,107.228994 16.6966519,110.937593 C16.7433111,113.210995 16.8848061,115.464142 17.1171538,117.636068 C17.314033,119.499472 17.6049892,121.414637 17.9820564,123.347806 C19.9910581,123.435779 22.0000598,123.5303 24.0083028,123.548304 C24.6727225,123.555055 25.3348661,123.552 25.9985271,123.539506 C26.1337629,123.165516 26.2545837,122.795823 26.3657313,122.446588 C26.8827761,120.828896 27.2353756,119.123231 27.5756465,117.474033 L27.7101237,116.822823 C27.7818196,116.48034 27.8537051,116.142358 27.9318498,115.804375 C28.0227025,115.416882 28.1353674,115.051894 28.2609301,114.648443 C28.8343073,112.819001 29.4277898,110.926341 29.9751821,109.029179 C30.7589052,106.309567 31.3300064,103.867379 31.7231957,101.560015 C32.1816319,98.8608615 32.3982369,96.0737346 32.3701655,93.2729002 C32.3483533,91.0424622 32.172907,88.7758118 32.0022026,86.5834275 C31.9542157,85.9639295 31.9060391,85.3464775 31.8599489,84.7269796 C31.6808989,82.2168673 31.5229024,79.2584987 31.7391281,76.3518914 C31.8328258,75.3156441 31.9754589,74.301697 32.1638028,73.3327597 C32.3809768,72.2015827 32.6645359,71.111119 32.911109,70.1896466 C33.4833482,68.0737788 34.1733735,66.0370873 34.7721668,64.3246707 L34.7704598,64.3314222 C35.0906255,63.4234526 35.41724,62.5177336 35.7440442,61.6118099 C36.6656585,59.0544374 37.6214138,56.4095004 38.4157585,53.7463549 C39.0001367,51.779224 39.4409335,49.9317781 39.7677377,48.104382 C40.0958696,46.2589819 40.3065948,44.1997856 40.4120522,41.8069032 C40.569859,38.1815719 40.3754456,34.4774736 40.18805,30.8973566 C40.1588406,30.3294153 40.1273551,29.7594281 40.1002321,29.1914868 C39.9938263,27.0893266 39.9281999,25.2216263 39.9016459,23.4822038 L39.8877999,22.6822577 C39.8673153,21.3528331 39.8470205,19.9783988 39.7878429,18.626674 C39.6723329,15.9385686 39.3773936,12.4327177 38.1175947,9.13861731 C37.5170944,7.57268696 36.7151628,6.135239 35.7317155,4.86003076 C34.6337065,3.43833622 33.359872,2.25989896 31.9464391,1.35643039 C30.6513614,0.531524307 29.2161163,0.063218249 27.7954759,0.00450097566 C27.7285218,0.00225048783 27.6615678,0 27.5925273,0 C27.0724477,0 26.4971737,0.0812221517 25.8875692,0.243257275 Z M4.10340521,71.032352 C3.55392655,71.2461483 3.05603857,71.5708323 2.53557966,72.0550964 C2.12702701,72.4360426 1.74123495,72.9452666 1.35639125,73.6167303 C1.02579363,74.1957195 0.753994213,74.8739347 0.499834253,75.7481469 C0.280194526,76.5051292 0.138130489,77.3480392 0.0533472785,78.3957436 C-0.0234697243,79.3374704 -0.0172105611,80.3356641 0.0713660816,81.3674104 C0.164305171,82.4535777 0.358149559,83.607055 0.70069649,85.1099717 C0.993928802,86.3986829 1.37858283,87.7980771 1.91250842,89.5080387 C2.39104989,91.0469632 2.91985435,92.5971401 3.4319677,94.0955558 C3.89514578,95.4517816 4.3740666,96.8554723 4.81467375,98.24566 C5.31844155,99.8363457 5.72395946,101.283 6.05322938,102.661935 C6.40146646,104.119638 6.67724898,105.586342 6.98508601,107.339268 C7.05773023,107.758472 7.12828807,108.175221 7.1982769,108.594426 C7.35361795,109.540654 7.50383786,110.489337 7.65329909,111.435565 C8.27049052,115.342411 8.90721812,119.366488 9.96444768,123.260037 C11.408797,123.192522 12.8590262,123.187817 14.308876,123.219323 C14.8357837,123.23078 15.3607947,123.246534 15.8877714,123.264538 C15.8890302,122.725853 15.871201,122.137862 15.8321287,121.432641 C15.7261022,119.53998 15.4840813,117.64507 15.2642519,116.041086 C15.1730198,115.389876 15.0757183,114.740917 14.9782271,114.091959 C14.8697349,113.370984 14.7578287,112.622799 14.6590097,111.886276 C14.5579148,111.147298 14.4998753,110.390111 14.4408874,109.655633 C14.4264724,109.457386 14.4101606,109.259138 14.3936592,109.060686 C14.2847877,107.711212 14.1783819,106.27581 14.0522503,104.405654 C13.9466032,102.837474 13.8474049,101.267247 13.7501034,99.6990659 C13.6509051,98.1286346 13.5515172,96.5579987 13.4460598,94.9875674 C13.1983487,91.3084289 12.9481718,88.3386034 12.6653714,85.6462016 C12.4999778,84.0915237 12.3103062,82.5593506 12.1041331,81.0858949 C11.8962531,79.6214411 11.6627673,78.4495507 11.369535,77.3975499 C10.8117108,75.4034131 9.99991628,73.7787655 8.9561534,72.569026 C8.51687394,72.059802 7.99584603,71.629345 7.44978145,71.3228695 C6.90466524,71.0165985 6.32540814,70.8431064 5.67938663,70.7866396 C5.59175834,70.7776377 5.50337137,70.7755918 5.41555342,70.7755918 C4.98386083,70.7755918 4.53054568,70.8633608 4.10321553,71.032352 L4.10340521,71.032352 Z M9.96311998,114.445899 L9.96046458,114.436897 L9.95894721,114.418688 L9.9549641,114.38043 C9.96084392,114.42544 9.96805145,114.468404 9.97487962,114.511163 C9.97165521,114.49541 9.96937915,114.479656 9.96653407,114.463903 L9.96482703,114.465949 L9.96311998,114.445899 Z M48.0304022,14.7670874 C47.5803114,14.8955698 47.1180817,15.138827 46.6884755,15.4678074 C46.1983641,15.8485491 45.762878,16.3375187 45.3602052,16.9662232 C44.7196842,17.9574608 44.3006996,19.1156436 44.112735,20.3998538 C43.9511348,21.5128223 43.9232531,22.7250169 44.0177095,24.3339111 C44.0969923,25.6631311 44.2561268,27.0105595 44.4091917,28.3129782 C44.5728783,29.7166688 44.7447208,31.1698702 44.8175547,32.6028172 C44.8562477,33.4027633 44.8524543,34.1327397 44.8033294,34.8289588 C44.7485143,35.3809421 44.6540578,35.9329254 44.5607394,36.4646543 L44.5049759,36.7891337 C44.3684123,37.5913303 44.2157267,38.4610416 44.0207443,39.5199984 C43.7322538,41.1084336 43.423658,42.7193738 43.1234079,44.2763022 L43.0376763,44.729264 C42.362066,48.2576197 41.7149065,51.7139598 41.2020345,55.2333136 C41.1517715,55.5892999 41.1015085,55.9475366 41.0535216,56.3057734 C40.9875159,56.7924925 40.9216998,57.2792117 40.8473485,57.7636803 C40.7253897,58.5636264 40.5677726,59.4173797 40.3684277,60.3683131 C40.0695053,61.8012601 39.6842822,63.3287275 39.1533914,65.1718771 C38.6739015,66.839284 38.1447177,68.5177387 37.629949,70.1401358 C37.1654432,71.6068401 36.6859534,73.1232597 36.2457256,74.6284269 C35.9394059,75.6781772 35.7273531,76.5726438 35.583013,77.4448101 C35.4436043,78.278309 35.3512342,79.1907795 35.2964191,80.3152051 C35.1983589,82.2686285 35.3341638,84.2740178 35.481918,86.1621771 C35.5080927,86.4954538 35.5361641,86.8289352 35.5623387,87.1626212 C35.6935915,88.8028176 35.8293964,90.4994809 35.8701758,92.1713887 C35.916266,94.0773473 35.8580368,96.0377268 35.6850563,98.1576864 C35.302868,102.472485 34.446311,106.893262 33.0673984,111.665319 C32.7908572,112.622799 32.4788474,113.58519 32.1784075,114.515459 C31.7831319,115.739111 31.3728722,117.003271 31.0360154,118.273979 C30.5527321,120.105671 30.3249365,121.748118 30.3393516,123.284792 C31.1968569,123.208276 32.0517069,123.120302 32.9065568,123.030282 C34.8468974,122.823033 36.7868587,122.599826 38.7332688,122.435335 C39.816673,120.828896 40.825726,119.030961 41.8131564,116.958057 C42.2541429,116.03638 42.6551087,115.110407 43.0111223,114.206938 C43.257316,113.582735 43.5704639,112.751282 43.8045186,111.883821 C43.9970353,111.169598 44.1062862,110.419367 44.1965699,109.714351 C44.3464104,108.564965 44.4035016,107.402486 44.4366941,106.517021 C44.4655242,105.789295 44.4793702,105.052567 44.4922679,104.33814 C44.5157872,103.117148 44.5394961,101.852987 44.6335733,100.618288 C44.7158907,99.7103184 44.8348148,98.8856169 44.994708,98.0969232 C45.1373411,97.3917021 45.3452211,96.6437218 45.6509718,95.7425037 C46.3451699,93.8048337 47.2618528,91.9459308 48.1497056,90.1479956 C48.3040983,89.8325181 48.4603877,89.5170406 48.6145907,89.2015632 C49.2319718,87.9376074 49.7034954,86.9011554 50.0985814,85.9344686 C50.5873652,84.742733 51.0110915,83.4538172 51.3616047,82.1088439 C52.3697093,78.2287983 52.6179894,74.1124514 52.8592517,70.1288834 C52.9373964,68.8129618 53.0199036,67.4520304 53.1289648,66.1226059 C53.2126099,65.1493722 53.303273,64.2976648 53.3990571,63.5181777 C53.4957897,62.7542394 53.6374743,61.9319929 53.8360605,61.0080654 C54.1543295,59.5346096 54.5996784,58.0069376 55.2787028,56.0557646 L55.2559422,56.1075259 C55.6762545,54.9335896 56.1210344,53.7553569 56.5550031,52.6129274 C57.2133532,50.8735049 57.8946537,49.0778202 58.4748591,47.2686326 C59.4484435,44.2425448 60.0754979,41.1646958 60.3342099,38.1275602 C60.48,36.4646543 60.5147773,34.9099764 60.4461162,33.3712565 C60.3793518,31.8773417 60.1809553,30.2889065 59.8594619,28.6530065 C59.5647122,27.1523403 59.1250534,25.6383757 58.546555,24.1536675 C57.9540209,22.6214945 57.2393383,21.1795456 56.4237503,19.8703754 C55.7378978,18.7709098 54.9308451,17.7772171 54.0268702,16.9165078 C53.6164208,16.5290148 53.1498286,16.1527741 52.6426467,15.7990383 C52.2016602,15.4903123 51.7024446,15.2265961 51.0733038,14.9653349 C50.4976505,14.726374 49.8679407,14.6003467 49.2496113,14.6003467 C48.829868,14.6003467 48.4184703,14.6566089 48.0302125,14.7670874 L48.0304022,14.7670874 Z" id="Fill-1" fill="#00D4A3"></path>
                                <path d="M26.4952747,3.44815175 C26.493346,3.4504038 26.493346,3.45265584 26.4912244,3.45490788 C26.493346,3.45265584 26.4931531,3.4504038 26.4952747,3.44815175 L26.4952747,3.44815175 Z M24.2583408,10.4896724 C24.2567978,10.5029799 24.2571835,10.5144449 24.2554477,10.5257051 C24.2571835,10.5142401 24.2567978,10.5031847 24.2583408,10.4896724 Z M23.1630185,40.8580472 C23.1614755,40.8738115 23.1618612,40.8873237 23.1605111,40.903088 C23.1620541,40.8873237 23.1612826,40.8738115 23.1628256,40.8580472 L23.1630185,40.8580472 Z M22.1280652,84.7343737 C22.1307654,84.7476812 22.1334656,84.7613982 22.135973,84.7749104 C22.1334656,84.7613982 22.1307654,84.7476812 22.1280652,84.7343737 L22.1280652,84.7343737 Z M22.1024132,116.162437 C22.1004845,116.169193 22.1006773,116.175949 22.1008702,116.180658 C22.1006773,116.175949 22.1004845,116.169193 22.1022203,116.162437 L22.1024132,116.162437 Z M22.013499,121.368748 C22.0117632,121.377551 22.0121489,121.388811 22.0125346,121.39782 C22.0123418,121.388811 22.0117632,121.379803 22.013499,121.368748 Z M28.1587991,4.27567477 C28.1632352,4.28693497 28.168057,4.29819518 28.1726859,4.30720335 C28.168057,4.29819518 28.1632352,4.28693497 28.1586062,4.27567477 L28.1587991,4.27567477 Z M30.2748021,20.8025909 C30.2775023,20.8161032 30.2800097,20.8273634 30.2827099,20.8408756 C30.2800097,20.8273634 30.2771166,20.8138511 30.2746092,20.8003389 C30.2746092,20.8003389 30.2746092,20.8003389 30.2746092,20.8025909 L30.2748021,20.8025909 Z M27.7863625,2.64355862 C28.0058513,2.64662959 28.2249543,2.65850399 28.4452146,2.67938656 C29.0217102,2.74919986 29.5839332,2.8845271 30.1341981,3.09642376 C30.642224,3.30832043 31.1205475,3.57897491 31.5757264,3.90593044 C32.1086328,4.30945539 32.5848347,4.77849429 33.0203406,5.29707811 C33.660484,6.08836372 34.1831682,6.96563638 34.6331395,7.88549311 C35.5849647,9.89881852 36.1842193,12.0634402 36.6243541,14.2368653 C36.6218467,14.2278571 36.6193394,14.2165969 36.6166392,14.2053367 C37.2770342,17.5399965 37.5696216,20.9287053 37.7050181,24.3063586 C37.7590223,25.6141807 37.7812026,26.9240501 37.792775,28.2318722 C37.8143767,30.8651233 37.7740664,33.4942798 37.6423345,36.1164755 C37.6417559,36.1027585 37.641563,36.091703 37.6429131,36.077986 C37.3132942,42.3439853 36.4775782,48.5985197 34.6252317,54.5078775 C34.6288963,54.4988694 34.6306322,54.4900659 34.6346825,54.4831051 C34.6288963,54.4988694 34.623303,54.5170904 34.6177097,54.5351068 C34.6159739,54.5418629 34.6138523,54.546367 34.6099948,54.5531231 C34.6119235,54.548619 34.6138523,54.546367 34.6159739,54.5418629 C34.354246,55.3534169 34.0749668,56.1561674 33.8155534,56.9679261 C33.5368528,57.8357812 33.2778252,58.7105971 33.0294056,59.5901218 C32.5381596,61.3237845 32.1157691,63.0824245 31.7429467,64.8545767 C31.0227612,68.2975392 30.5386515,71.8037636 30.2213764,75.3323037 C29.9068016,78.8248112 29.7737196,82.3420911 29.7299376,85.861623 C29.7079501,87.6923283 29.7133506,89.523443 29.7314806,91.3541483 C29.7411242,92.2514846 29.7567469,93.1490257 29.7725624,94.0461572 C29.7881851,94.9909912 29.8167302,95.9380771 29.8113297,96.8849583 C29.8076652,97.6696926 29.7781557,98.45197 29.7382311,99.2322001 C29.7413171,99.2049709 29.7422814,99.1779464 29.7434387,99.1509219 C29.5976271,101.793181 29.2786162,104.410873 28.8355883,107.003792 C28.6180283,108.268825 28.3661369,109.526898 28.086472,110.775962 C27.9520399,111.378076 27.8110502,111.975686 27.6528948,112.568587 C27.4887604,113.172749 27.3053388,113.770359 27.1153595,114.365512 C27.1250031,114.340739 27.1323322,114.315762 27.1398543,114.29099 C26.6092623,115.95054 26.0335382,117.592074 25.5633154,119.273939 C25.3359188,120.089997 25.1449751,120.919773 25.0012852,121.76306 C24.8994486,122.351252 24.8331005,122.947224 24.7999264,123.547905 L24.9031132,123.548724 C25.0468031,123.550362 25.1906859,123.552 25.334183,123.552 C25.3656212,123.134553 25.4103675,122.72202 25.4699651,122.311125 C25.5413279,121.821613 25.6400786,121.339267 25.7457726,120.861219 C25.976448,119.808288 26.2844652,118.782585 26.6077193,117.763229 C26.6001973,117.788001 26.5926753,117.810726 26.5851533,117.835499 C27.048047,116.390097 27.5475865,114.958413 27.9867569,113.504208 C28.2035455,112.784988 28.3900531,112.05676 28.5615167,111.323822 C28.7549677,110.50326 28.9289386,109.677989 29.0923015,108.850466 C29.4057191,107.281202 29.6610822,105.696174 29.8713131,104.102343 C30.0850157,102.483125 30.2402779,100.848552 30.3257204,99.211727 C30.365645,98.4294496 30.3907184,97.6469674 30.3986262,96.8622332 C30.4063411,96.0684908 30.3818463,95.2729058 30.3681523,94.4769114 C30.3336282,92.7633123 30.3116407,91.0497132 30.3025757,89.3383661 C30.2877245,86.0939928 30.3365213,82.8516667 30.5023915,79.6185535 C30.4993056,79.645578 30.4983412,79.6748546 30.4973768,79.7018791 C30.5970919,77.7966517 30.737503,75.8959284 30.9290252,74.004418 C31.1205475,72.107994 31.373789,70.2207829 31.6810347,68.3472888 C32.3155849,64.4735721 33.2334646,60.6700782 34.4121077,56.9654694 C34.4045857,56.9902418 34.3970637,57.015219 34.3897345,57.0377394 C34.6420116,56.255462 34.9093328,55.4774839 35.1592954,54.6907024 C35.4337528,53.8224379 35.6819796,52.9431179 35.9151623,52.0592939 C36.3666765,50.3344345 36.731784,48.5802987 37.0369081,46.8149026 C37.6515924,43.2863625 38.0004986,39.6945605 38.1810271,36.0962071 C38.3258743,33.2236253 38.3600127,30.3467443 38.3239456,27.4629023 C38.3027296,25.7177746 38.2475681,23.9703949 38.1414883,22.2230151 C38.0126495,20.1306635 37.8031901,18.040564 37.475307,15.9662287 C37.1503171,13.9031536 36.6978384,11.8468347 36.0191205,9.86728993 C35.70551,8.95644137 35.3332663,8.07036527 34.8987248,7.21581776 C34.4896424,6.41286247 34.0057256,5.65331018 33.4440812,4.96111441 C33.1933471,4.65217522 32.9264117,4.36125236 32.643275,4.08855056 C32.342587,3.7976277 32.0154754,3.5406902 31.6762129,3.30176903 C31.0154321,2.83273014 30.2711375,2.50352257 29.5085201,2.29612999 C28.8982718,2.12927416 28.2691221,2.06621699 27.6467229,2.06376021 C27.5890541,2.06376021 27.5315781,2.06478387 27.4741021,2.06601226 C27.5038045,1.97285962 27.4820099,1.86558053 27.406211,1.79331046 C27.3597288,1.75052167 27.2993597,1.728 27.2397622,1.728 C27.1761143,1.728 27.1155523,1.75277371 27.0731204,1.80457067 L27.0731204,1.80457067 C26.7342436,2.23962421 26.414847,2.68614269 26.1112658,3.15047277 C25.8215715,3.5947392 25.5584935,4.06152606 25.3125812,4.53711635 C24.84448,5.4459176 24.4938379,6.41982333 24.2315315,7.4209583 C23.7364281,9.32168161 23.6965035,11.3395111 23.8398077,13.3215127 C23.9142564,14.345168 24.0475312,15.3665714 24.191414,16.3834706 C24.3387685,17.4316937 24.5009742,18.4756175 24.6460143,19.5217933 C24.7968405,20.6019545 24.9222075,21.6819109 25.0030211,22.7663714 C25.0857633,23.8938255 25.1025432,25.0210748 25.0531679,26.1417727 C25.0543251,26.1190475 25.0556752,26.0987791 25.0568325,26.0762587 C24.9933774,27.2667699 24.8466015,28.4415169 24.6525719,29.6095076 C24.4485129,30.8380988 24.1819633,32.0511305 23.9175352,33.2621148 C23.6531072,34.4659335 23.3882934,35.669957 23.1643686,36.8852406 C22.9429511,38.1027764 22.781324,39.3338243 22.7030178,40.5761325 C22.6318479,41.7328631 22.6565356,42.8963498 22.7765022,44.0553324 C22.8083261,44.3573108 22.8482507,44.6594938 22.8839321,44.9616769 C22.9271355,45.3359253 22.9682173,45.7124257 23.0091063,46.0889262 C23.0789261,46.7473413 23.1400666,47.4080085 23.1971569,48.068471 C23.4089308,50.5711037 23.4847296,53.0806972 23.3605198,55.5767785 C23.361677,55.5540533 23.3630271,55.5315329 23.3641844,55.5090125 C23.3018866,56.6770033 23.1948424,57.838238 23.042859,58.9947638 C22.8843179,60.1942832 22.6656006,61.3802903 22.4083088,62.5572893 C22.2837132,63.1389303 22.1417591,63.7138151 21.9934403,64.2889047 C21.8213981,64.956328 21.6277542,65.6190425 21.4576408,66.2864658 C21.1409443,67.5130097 20.8888601,68.762074 20.6965663,70.0226032 C20.5197023,71.1903893 20.4176729,72.3741444 20.3754338,73.5624036 C20.3308803,74.7979556 20.3864275,76.0402638 20.5117946,77.2780679 C20.6367759,78.5046118 20.8634009,79.7243995 21.1488521,80.9261709 C21.2975567,81.5463014 21.4778924,82.1572189 21.6497417,82.7703885 C21.8389495,83.4425206 21.9986478,84.1209994 22.1413734,84.8019349 C22.1413734,84.7996829 22.1390589,84.7951788 22.1390589,84.7929268 C22.2488033,85.3452912 22.3462039,85.8999077 22.4243172,86.456981 C22.51381,87.0816155 22.5736004,87.7082973 22.6185397,88.3351839 C22.7007033,89.5007179 22.6893239,90.6642046 22.633198,91.8231872 C22.6343552,91.8006668 22.6355125,91.7779416 22.6345481,91.7554212 C22.5249966,93.7284146 22.2570968,95.6809349 21.9527442,97.622195 C21.8806099,98.0867298 21.8127189,98.5510598 21.7596789,99.0178467 C21.6971883,99.5564942 21.6557207,100.097803 21.625054,100.639112 C21.5648778,101.653555 21.5602489,102.674958 21.5832007,103.693904 C21.6275614,105.745924 21.8100186,107.797534 21.9542872,109.849349 C22.0298932,110.909037 22.090648,111.970977 22.123822,113.033122 C22.1593105,114.092605 22.1496669,115.150246 22.099713,116.203178 C22.0597884,116.881862 21.998455,117.558088 21.9159056,118.232268 C21.8678804,118.613477 21.8069327,118.992229 21.7461779,119.370982 C21.6912092,119.73397 21.6422197,120.096958 21.597859,120.462199 C21.5266891,121.0508 21.4979511,121.643702 21.5035444,122.241107 C21.5091377,122.652412 21.552534,123.06126 21.6225467,123.466832 C21.7909243,123.472974 21.9594947,123.479116 22.1280652,123.484848 C22.1172644,123.424453 22.1070421,123.364057 22.0975914,123.303252 C22.0611385,123.086646 22.0414655,122.870246 22.0217925,122.651388 C21.9855325,122.236808 21.993826,121.819566 22.0107988,121.406828 C22.0628743,120.610833 22.1793693,119.828556 22.3018432,119.044026 C22.4449545,118.133178 22.5321329,117.211069 22.5851728,116.284252 C22.6833448,114.59563 22.6299192,112.893086 22.5342545,111.192999 C22.4347323,109.450328 22.2798558,107.704996 22.173776,105.960073 C22.0657674,104.21474 22.021021,102.465313 22.1085851,100.726737 C22.1639395,99.8025809 22.2576755,98.8870235 22.3984723,97.976175 C22.5377262,97.0720826 22.6765943,96.1679901 22.7940536,95.2571416 C23.0156639,93.575071 23.1578109,91.8749842 23.1657187,90.1636371 C23.1678403,89.3406182 23.1275299,88.517804 23.0553957,87.6970371 C22.9819113,86.8449463 22.8555799,85.9946982 22.6995461,85.1514109 C22.5411979,84.2991154 22.3365603,83.4535761 22.1085851,82.6172496 C21.9810964,82.1527148 21.8431927,81.6928888 21.7220688,81.228354 C21.5862867,80.7165263 21.4715276,80.2001945 21.365062,79.6816107 C21.3675694,79.6906189 21.3700767,79.699627 21.3704625,79.7086352 C21.3679551,79.6975797 21.365062,79.6838628 21.3625547,79.6723978 C21.3621689,79.6613423 21.3596616,79.6523342 21.3569614,79.6408692 C21.3594687,79.645578 21.3596616,79.6523342 21.3598545,79.6590903 C21.2647684,79.1562708 21.1779758,78.6511992 21.1062273,78.1461276 C21.0203991,77.5575258 20.9621516,76.9691287 20.9164409,76.3805268 C20.8259837,75.2172449 20.8267552,74.0515061 20.8851955,72.8949803 C20.885967,72.9172959 20.8826882,72.9402258 20.8836525,72.9625415 C20.9204912,72.3088352 20.9785458,71.6594282 21.053766,71.0100212 C21.1328437,70.3516061 21.2354518,69.6999471 21.3529111,69.0484928 C21.4722991,68.3855736 21.6148318,67.7271584 21.7683582,67.0712 C21.9413647,66.3224985 22.1488954,65.5852619 22.3498685,64.8478206 C22.7151688,63.5086746 23.0137352,62.1492602 23.2586832,60.7736721 C23.4878156,59.479567 23.6459709,58.1696976 23.7551367,56.8528673 C23.9661391,54.2914768 23.9293005,51.7053138 23.7568725,49.1261117 C23.6633294,47.7302552 23.5206039,46.3348082 23.3612913,44.9436606 C23.325417,44.6414775 23.2874211,44.3392944 23.2536685,44.0371113 C23.2114294,43.6786272 23.1855845,43.315639 23.166683,42.9549029 C23.1246368,42.2469428 23.133509,41.5389828 23.1639828,40.8355268 C23.1641757,40.8400309 23.1643686,40.8445349 23.1624398,40.849039 C23.2004357,40.1726075 23.2640836,39.5029322 23.3468258,38.8332568 C23.4334255,38.1523213 23.5477989,37.4760945 23.6708515,36.8019151 C23.9165709,35.4490521 24.224781,34.1144103 24.5156325,32.7750596 C24.8082199,31.4242439 25.0815201,30.0693336 25.2776713,28.6962023 C25.4726653,27.3478434 25.5627367,25.9794209 25.5527074,24.6062896 C25.5361203,22.1959906 25.1669626,19.7924478 24.8134275,17.4024172 C24.6431212,16.2639077 24.4814941,15.1229414 24.3705925,13.9799278 C24.2540976,12.8074329 24.2054937,11.630434 24.2591122,10.4601911 C24.2593051,10.4601911 24.2593051,10.4624432 24.2593051,10.4624432 C24.294215,9.86954197 24.3570914,9.2833969 24.4519846,8.69725183 C24.5584502,8.0343326 24.7206559,7.38717767 24.9197002,6.75128294 C25.1046648,6.18765829 25.3241536,5.64204997 25.5718017,5.10749713 C25.8431732,4.52585614 26.1621841,3.9734917 26.5012538,3.43914359 C26.689883,3.15415793 26.884877,2.87470001 27.0866215,2.60076983 C27.1381184,2.66034657 27.1882652,2.71992331 27.2366762,2.78093318 C27.2231751,2.76271211 27.2075525,2.74469577 27.1919298,2.72667944 C27.3689867,2.94983631 27.5335068,3.17995404 27.6899263,3.42112725 C27.8623542,3.68482088 28.0099016,3.96673557 28.1470339,4.25315435 C28.3084681,4.60938642 28.4463718,4.97032731 28.5678814,5.3398669 C28.6872695,5.70735918 28.7748335,6.08160759 28.8541041,6.45831277 C29.0057018,7.24959838 29.0896013,8.04784485 29.1331904,8.84588659 C29.1829515,9.74097086 29.1729221,10.6340078 29.1545993,11.524588 C29.118725,13.2269269 29.0147668,14.9290611 29.1447628,16.6359041 C29.2249977,17.7068523 29.3839245,18.7755485 29.5700464,19.8374886 C29.7472961,20.8408756 29.9669778,21.8375065 30.1949529,22.8318854 C30.6680689,24.8789914 31.2065686,26.9105379 31.6293449,28.9691088 C31.8598274,30.1256347 32.047878,31.2870741 32.1684232,32.4571122 C32.2920544,33.6521275 32.3223354,34.8491901 32.261002,36.037654 C32.2627378,36.023937 32.2619663,36.0081727 32.2633164,35.9924084 C32.2258992,36.5785535 32.1690018,37.1558951 32.0868382,37.7352841 C32.0457564,38.028459 31.991945,38.3193818 31.9402552,38.612352 C31.8768002,38.9730882 31.8108378,39.3338243 31.7406323,39.6925132 C31.4999275,40.9595938 31.222577,42.2199183 30.9324969,43.4757387 C30.3828106,45.8522571 29.7748769,48.2107591 29.227505,50.5893247 C28.674347,52.9904108 28.1989166,55.4144267 27.888392,57.8740659 C27.7265721,59.1503594 27.6243497,60.4332043 27.5608947,61.7230101 C27.4916535,63.0803772 27.4330203,64.4397915 27.3637791,65.7971586 C27.3647435,65.7701341 27.3659007,65.7453616 27.3668651,65.7205891 C27.2812297,67.3484059 27.1718711,68.9694666 27.0048436,70.5839759 C26.8360803,72.2027845 26.590168,73.8105376 26.2539914,75.3908568 C26.0813706,76.2001588 25.8742256,77.000862 25.6477935,77.7921476 C25.5419065,78.1573878 25.4290762,78.515872 25.3253108,78.8811122 C25.2082373,79.2870939 25.1040862,79.6975797 25.0064928,80.1099081 C24.8454443,80.7908437 24.7210416,81.4807874 24.6309702,82.179944 C24.5499638,82.7884048 24.5115822,83.4042359 24.4924878,84.0196575 C24.451406,85.3432439 24.5785089,86.6733817 24.7540228,87.9900073 C24.853545,88.7522211 24.9781405,89.5076787 25.1027361,90.2651837 C25.1600192,90.618959 25.219231,90.9731438 25.2718852,91.3271238 C25.3359188,91.7421137 25.3849084,92.1568989 25.4296548,92.571684 C25.6049758,94.1454518 25.6616803,95.7259757 25.6715168,97.2997435 C25.6813533,98.9253083 25.6207913,100.546369 25.5390134,102.165382 C25.5382419,102.145114 25.5393992,102.126893 25.5407493,102.106829 C25.4531852,103.788695 25.3353402,105.466261 25.2240528,107.143623 C25.1692771,107.928357 25.1189374,108.715344 25.0728409,109.502125 C25.0282873,110.27089 24.9941489,111.042112 24.9559602,111.813334 C24.9210503,112.356486 24.8602955,112.893086 24.7783247,113.427434 C24.694811,113.975499 24.5788947,114.514351 24.4587352,115.050952 C24.2145587,116.130908 23.9100132,117.197557 23.6228262,118.263796 C23.3414254,119.321437 23.0795047,120.385629 22.8970474,121.472137 C22.7853743,122.140993 22.7161331,122.820291 22.6974245,123.503479 C22.876603,123.509006 23.0557814,123.514125 23.2349599,123.518629 C23.2365028,123.46417 23.2382387,123.409507 23.2403603,123.355049 C23.2721842,122.83626 23.3294673,122.322385 23.4058448,121.808305 C23.4876227,121.266996 23.5994887,120.735105 23.7179123,120.205261 C23.9578456,119.125305 24.2645127,118.06316 24.5497709,116.999172 C24.8373437,115.934776 25.102929,114.861371 25.2936797,113.770359 C25.3883801,113.231302 25.4527995,112.683646 25.4938813,112.135581 C25.5120113,111.903416 25.521462,111.671046 25.5309128,111.439086 C25.5446067,111.098413 25.5621581,110.755898 25.5779737,110.417478 C25.8271648,105.750223 26.2916015,101.100985 26.2059662,96.4069113 C26.1862932,95.2614409 26.1220667,94.1161753 26.0154082,92.9729569 C25.9627541,92.4162931 25.8929343,91.8616767 25.8128922,91.3089027 C25.7297642,90.7362699 25.6275419,90.1658891 25.5339987,89.5953036 C25.3660069,88.5583407 25.2165308,87.516669 25.1183587,86.4727453 C25.0250085,85.4965875 24.9972349,84.5200202 25.0421742,83.5483666 C25.042367,83.5506186 25.042367,83.5506186 25.042367,83.5530754 C25.0905851,82.7613803 25.1877928,81.9813549 25.3278182,81.2058336 C25.4886737,80.3152534 25.7181919,79.4424848 25.9714333,78.5811812 C26.0998863,78.1438756 26.2306538,77.7088221 26.3525492,77.2690597 C26.48891,76.7617361 26.6102267,76.2521604 26.7269145,75.7382854 C26.9369525,74.8047117 27.1037871,73.8553737 27.2472842,72.9039884 C27.5325425,71.0145253 27.6891548,69.1027465 27.8077714,67.1883062 C27.9256164,65.3078513 27.9964006,63.4228923 28.0907152,61.54039 C28.0907152,61.5424373 28.090908,61.5448941 28.0911009,61.5471461 C28.1838725,59.7817501 28.3750091,58.0298662 28.6429088,56.2914947 C28.9090727,54.5531231 29.2628007,52.8327679 29.6466167,51.1236728 C30.0126885,49.495856 30.4134773,47.8813468 30.8075156,46.2625382 C31.2252772,44.546687 31.6343596,42.8287885 31.9940666,41.0971731 C32.1734379,40.2424208 32.3375723,39.3833692 32.4887843,38.5200183 C32.6315098,37.7060075 32.7333465,36.8807366 32.7755855,36.0489142 C32.8211034,35.1966187 32.8155101,34.3443233 32.7696065,33.4897757 C32.7194596,32.5811792 32.6099081,31.6748347 32.4727759,30.7727896 C32.2274422,29.153981 31.8598274,27.5554408 31.4775543,25.9614046 C31.0675076,24.2590657 30.6381737,22.5589788 30.2827099,20.8408756 C30.2852172,20.8498838 30.2877245,20.858892 30.2879174,20.8679001 C30.2850243,20.8453797 30.2798168,20.8228593 30.2746092,20.8025909 C30.2746092,20.8003389 30.2744164,20.7958348 30.2742235,20.7935828 C30.2744164,20.7956301 30.2744164,20.7980868 30.2746092,20.8003389 C29.9260888,19.046203 29.6531744,17.2717988 29.6070779,15.4904337 C29.5874049,14.750945 29.6057278,14.0137084 29.6240507,13.2764718 C29.6452666,12.4489488 29.6745832,11.6214258 29.6851912,10.7918555 C29.6936776,10.0181767 29.6786335,9.2471595 29.6298368,8.47389022 C29.5808472,7.69816417 29.4745746,6.92714694 29.3154548,6.16063379 C29.1619284,5.42319245 28.9256597,4.6929167 28.6022127,4.01198114 C28.4305563,3.65554433 28.2399984,3.31528129 28.0245599,2.98361694 C27.9495326,2.86692023 27.8694905,2.75370394 27.7863625,2.64355862 L27.7863625,2.64355862 Z M30.0823155,3.07615539 C30.0975524,3.08065947 30.1125964,3.0874156 30.1255189,3.09417172 C30.1125964,3.0874156 30.0973595,3.08065947 30.0823155,3.07615539 L30.0823155,3.07615539 Z M31.5408165,3.87890594 C31.5452525,3.88320529 31.5516173,3.88791411 31.558175,3.89241819 C31.5516173,3.88770938 31.5452525,3.88341002 31.5408165,3.87890594 Z M33.0292127,5.30813358 C33.0338416,5.3128424 33.0382777,5.31959853 33.0448354,5.32410261 C33.0382777,5.31959853 33.0336488,5.3128424 33.0292127,5.30833832 L33.0292127,5.30813358 Z M34.6159739,54.5418629 C34.615781,54.5394061 34.615781,54.5371541 34.6177097,54.5351068 C34.6196384,54.5258939 34.623303,54.5170904 34.6252317,54.5078775 C34.6213743,54.5193425 34.6175168,54.5303979 34.6159739,54.5418629 L34.6159739,54.5418629 Z M37.6429131,36.077986 C37.644649,36.0644738 37.6440704,36.0534183 37.6456134,36.0397013 C37.6440704,36.0509615 37.6444561,36.0644738 37.6429131,36.077986 L37.6429131,36.077986 Z M36.6326476,14.2819061 C36.6299474,14.2661418 36.6272471,14.2526296 36.6243541,14.2368653 C36.6272471,14.2526296 36.6297545,14.2685986 36.6326476,14.2819061 L36.6326476,14.2819061 Z M50.4994009,17.7948867 C50.5082731,17.8061469 50.5192668,17.8174071 50.5283318,17.8286673 C50.5194597,17.8174071 50.5080802,17.8061469 50.4994009,17.7948867 L50.4994009,17.7948867 Z M56.0844067,29.1267518 C56.0865283,29.1357599 56.0869141,29.1449728 56.0896143,29.156233 C56.0869141,29.1449728 56.0865283,29.1359647 56.0842139,29.1267518 L56.0844067,29.1267518 Z M55.38428,40.6754271 C55.3802296,40.6844352 55.3765651,40.6956954 55.3748292,40.7069557 C55.3767579,40.6956954 55.3802296,40.6844352 55.38428,40.6754271 L55.38428,40.6754271 Z M37.7989469,120.065225 C37.8026115,120.051918 37.8085905,120.038201 37.8122551,120.027145 C37.8085905,120.038201 37.8026115,120.051918 37.7989469,120.065225 L37.7989469,120.065225 Z M50.9503366,37.2054401 C50.9518796,37.1941798 50.9513009,37.1829196 50.9530368,37.1716594 C50.9513009,37.1829196 50.9518796,37.1941798 50.9501437,37.2054401 L50.9503366,37.2054401 Z M4.53366716,74.6018232 C4.53058121,74.6108314 4.5271095,74.6220916 4.52383067,74.6333518 C4.5271095,74.6220916 4.53019546,74.6108314 4.53366716,74.6018232 Z M9.92927228,106.212506 C9.9256077,106.192238 9.92175026,106.174221 9.91808568,106.156205 C9.92175026,106.174221 9.92522196,106.192238 9.92927228,106.212506 L9.92927228,106.212506 Z M3.98378798,77.7741313 C3.98378798,77.7784306 3.98340224,77.7831394 3.98320936,77.7898956 C3.98378798,77.7784306 3.9843666,77.7673751 3.98494521,77.758367 C3.98455947,77.7628711 3.98417373,77.7698319 3.98378798,77.7741313 L3.98378798,77.7741313 Z M4.96010802,73.5061025 C5.79447398,76.5588476 6.52121715,79.6377983 7.19202732,82.7275997 C7.53630453,84.3105804 7.86476621,85.8978604 8.18512725,87.4873925 C8.18705598,87.4961959 8.18840609,87.502952 8.19014194,87.5119602 C8.19207066,87.5436935 8.19843545,87.5752221 8.20904343,87.6067507 C8.369899,88.4027451 8.52709,89.1964875 8.68447387,89.9922772 C9.13560239,92.2787139 9.57419421,94.5649458 10.021851,96.8511777 C10.1273522,97.3853211 10.233432,97.922126 10.3398976,98.4585214 C10.3418263,98.4834986 10.3466481,98.5082711 10.3545559,98.5330435 C10.4673862,99.0989202 10.5807952,99.6650016 10.6951685,100.230878 C10.9329802,101.407673 11.1821713,102.582419 11.4190186,103.757166 C11.4178614,103.75041 11.4167042,103.745906 11.415354,103.73915 C12.0566547,106.938483 12.5874396,110.158288 12.9247734,113.395905 C13.2630715,116.644988 13.3926818,119.907582 13.2894951,123.154208 L13.2877592,123.200886 C13.46038,123.200681 13.6330008,123.201296 13.8056216,123.202319 C13.946997,120.194206 13.8455462,117.163776 13.5653026,114.149111 C13.265386,110.895525 12.7475236,107.657908 12.1145165,104.444858 C11.8016774,102.855326 11.4556644,101.270298 11.131253,99.683018 C11.0542969,99.3065175 10.9783052,98.9300171 10.9021206,98.5510598 C10.8899697,98.4925068 10.8837977,98.4271975 10.8648962,98.3684397 C10.7873615,97.9829311 10.7094411,97.5949657 10.6326779,97.2096618 C10.0000564,94.0416532 9.38595076,90.8718019 8.74252846,87.7060453 C8.72825591,87.636232 8.7135976,87.5639619 8.69874643,87.4918966 C8.69701058,87.4671241 8.69218877,87.4443989 8.68466675,87.4218785 C7.7160616,82.6708892 6.67725091,77.9266559 5.39175643,73.2450704 C5.66139203,73.3717989 5.91945529,73.5222763 6.1645961,73.6999828 C6.44773276,73.9186356 6.70618177,74.166565 6.94071459,74.4417235 C7.25316787,74.8249801 7.51219549,75.2487734 7.73245576,75.6973392 C8.16834736,76.6196527 8.43875445,77.6117795 8.64146333,78.6106624 C8.63625578,78.58589 8.63104822,78.5588655 8.62584067,78.5338883 C8.91727085,79.9880931 9.06366099,81.4627711 9.25460466,82.9284409 C9.34178298,83.5958642 9.441498,84.2608307 9.58152336,84.9214979 C9.66908742,85.334031 9.7873182,85.7400127 9.89031206,86.1502938 C10.0376666,86.7321395 10.1688198,87.3182846 10.2891722,87.9066817 C10.5958393,89.4354087 10.8174496,90.9751911 10.9904562,92.5196823 C11.1623055,94.0484093 11.286901,95.579593 11.4221046,97.10832 C11.5598155,98.6524017 11.7008052,100.201602 11.9120004,101.739337 C12.059355,102.81008 12.2757578,103.874273 12.5043116,104.931913 C13.0511048,107.457066 13.6960701,109.959904 14.2064104,112.491813 C14.20101,112.464789 14.1977311,112.440016 14.1925236,112.415244 C14.4627378,113.763602 14.6991994,115.120765 14.855426,116.484888 C15.003552,117.758929 15.0756863,119.044026 15.0137742,120.320115 C15.0149315,120.293091 15.0158958,120.268318 15.0191747,120.243341 C14.9655561,121.25287 14.8226377,122.255848 14.5358364,123.210509 C14.7038283,123.212965 14.872013,123.216036 15.0400049,123.219721 L15.0824368,123.22054 C15.1536067,122.982848 15.2164831,122.742289 15.2714517,122.498249 C15.3860179,121.977413 15.4595023,121.443065 15.5075275,120.908512 C15.6105214,119.751986 15.5835193,118.581744 15.4907476,117.418462 C15.390454,116.169193 15.2031749,114.924632 14.9821432,113.686828 C14.7553252,112.415244 14.4824108,111.152462 14.1986955,109.892138 C13.7413951,107.867347 13.2354908,105.854022 12.8237082,103.822476 C12.825637,103.833941 12.8275657,103.845201 12.8296873,103.856256 C12.7274649,103.344429 12.6318002,102.830554 12.5482865,102.316474 C12.4458712,101.682831 12.3704581,101.047141 12.2977452,100.408994 C12.1177953,98.8419827 11.9847133,97.270467 11.846231,95.7009985 C11.7110274,94.1747284 11.5683019,92.6482534 11.3677146,91.1285347 C11.1574837,89.5277424 10.8733826,87.936163 10.4972815,86.3644425 C10.3532058,85.7625331 10.1757632,85.1651279 10.0534821,84.5562576 C10.0571467,84.574274 10.0602326,84.592495 10.0637043,84.6105114 C9.89050493,83.7264826 9.78423224,82.8336504 9.67525934,81.9430702 C9.55413548,80.9554475 9.43262587,79.9655727 9.25672625,78.9849109 C8.92826457,77.1542056 8.40442316,75.2217489 7.12490773,73.8328533 C6.86086542,73.5466393 6.55940588,73.3007572 6.24193792,73.0843565 C5.96805913,72.8986654 5.67412161,72.7510543 5.37227632,72.6300582 C5.36108972,72.564749 5.32868716,72.5014871 5.28394076,72.459722 C5.23552979,72.4126338 5.17168903,72.3854046 5.10688391,72.3854046 L5.09762603,72.3854046 C5.03725698,72.3874519 4.95779355,72.4169332 4.92288365,72.4732342 C4.84110575,72.599758 4.75643478,72.7236203 4.68410763,72.8589476 C4.61467357,72.9850619 4.55565462,73.1205939 4.49451407,73.2534644 C4.36316797,73.5396784 4.24821603,73.8353101 4.14329345,74.1329891 C3.94289903,74.7056219 3.79245857,75.2985231 3.68194269,75.9006372 C3.456,77.1359845 3.41925049,78.4167821 3.4855986,79.6838628 C3.55599702,81.0049924 3.75465558,82.3218227 4.01329746,83.6226839 C4.27232508,84.928254 4.59943665,86.2225639 4.95374323,87.5076608 C5.28934119,88.7229445 5.65271277,89.9314721 6.0074051,91.1422516 C6.41995914,92.5514156 6.81746914,93.9650837 7.21613637,95.3810039 C8.08811244,98.4742857 8.92652872,101.576985 9.61450454,104.715513 C9.71961999,105.19356 9.82029938,105.673654 9.91808568,106.156205 C9.91673557,106.149449 9.91577121,106.144945 9.91461398,106.138189 C10.1915787,107.517872 10.433055,108.906972 10.6274703,110.300372 C10.8245859,111.713835 10.9792696,113.132212 11.1389679,114.550384 C11.4601004,117.386728 11.7943483,120.23679 12.490039,123.019085 C12.5133766,123.112238 12.5899469,123.177956 12.6751965,123.203957 L12.8366307,123.202729 C12.9006643,123.181641 12.9533185,123.132711 12.9834066,123.06863 C13.0161949,122.996565 13.0133018,122.926547 12.9932431,122.849977 C12.8601611,122.315629 12.7400016,121.778824 12.630643,121.240177 C12.6358505,121.264949 12.6410581,121.291974 12.6460728,121.314494 C12.0281096,118.241276 11.7530736,115.120765 11.3785154,112.016018 C11.1941294,110.48074 10.9715547,108.947509 10.6913111,107.423286 C10.4054742,105.86303 10.0681404,104.311783 9.70168286,102.767292 C8.96143863,99.6492373 8.09061978,96.5623022 7.21150743,93.4780285 C6.84582138,92.1974356 6.47589213,90.916638 6.09882661,89.6405492 C5.73044035,88.3937369 5.36919036,87.1446726 5.04863645,85.8841434 C4.85499257,85.1266384 4.67793571,84.3644246 4.52248057,83.5979115 C4.52286631,83.6001635 4.52325206,83.6001635 4.5236378,83.6026203 C4.14097898,81.685928 3.89448806,79.7311556 3.98320936,77.7898956 C3.98263075,77.7966517 3.98205213,77.8056599 3.98166638,77.812416 C3.98243787,77.7989037 3.98301649,77.7876435 3.98378798,77.7741313 C3.98455947,77.7628711 3.98494521,77.7516109 3.98552383,77.7403506 C3.98533096,77.74465 3.98513809,77.7516109 3.98494521,77.758367 C4.04473566,76.700931 4.2092558,75.6592592 4.51515142,74.6603763 C4.61814527,74.3379249 4.73637605,74.0224343 4.86868651,73.7110383 C4.89781024,73.6426581 4.92866982,73.5740732 4.96010802,73.5061025 L4.96010802,73.5061025 Z M11.403396,103.67814 C11.4070605,103.698613 11.410918,103.71663 11.4145826,103.734646 C11.410918,103.71663 11.4070605,103.698613 11.4032031,103.67814 L11.403396,103.67814 Z M34.6063302,122.961146 L35.1824401,122.899522 C35.1263142,121.47357 35.1415511,120.048642 35.2121424,118.629241 C35.2111781,118.656266 35.2100208,118.685542 35.2090565,118.712567 C35.5620129,112.031782 37.0556167,105.5588 37.9798612,98.981814 C38.460885,95.5546158 38.9116277,92.1206615 39.3924586,88.6912112 C39.6300774,86.9845729 39.8865977,85.27773 40.1583549,83.5778478 C40.4229758,81.9115416 40.7157561,80.2542435 40.9932994,78.5901893 C42.1011584,71.9276259 43.0971515,65.238038 44.2715514,58.5912389 C44.858655,55.2745954 45.4932052,51.9692122 46.2074116,48.6840973 C46.3769465,47.9016151 46.5528461,47.1215897 46.7329889,46.3436117 C46.9295259,45.493773 47.1368637,44.6502809 47.3204782,43.7981902 C47.6647554,42.2084534 47.9340053,40.600905 48.1583159,38.9843484 C48.5438678,36.1817847 48.7560274,33.3499444 48.9450423,30.5181042 C49.0333779,29.2035259 49.1255709,27.8889477 49.1664598,26.5700701 C49.2092775,25.2352235 49.2220071,23.8983295 49.2902839,22.567987 C49.3572106,21.3739954 49.466955,20.1789801 49.6999449,19.0161076 C49.9572366,21.8774291 50.3017067,24.7340418 50.5852291,27.5937255 C50.7420344,29.1787535 50.8712589,30.7637815 50.9474435,32.3533135 C51.0255568,33.9856344 51.031343,35.6204121 50.9499508,37.2459768 C50.9495651,37.2324646 50.9487936,37.2189523 50.9501437,37.2054401 C50.8668228,38.6821653 50.7086675,40.1478351 50.4602478,41.5952838 C50.1965913,43.1285148 49.8187543,44.6324693 49.3570178,46.1001864 C49.3589465,46.0956823 49.3608752,46.0911782 49.3628039,46.0866742 C49.2424516,46.4631746 49.1155415,46.8376277 48.9841954,47.2094194 C48.8532351,47.5816205 48.7155242,47.9513648 48.5862997,48.3233612 C48.3452092,49.0155569 48.127842,49.7190129 47.9232044,50.4247209 C47.4830696,51.9556999 47.1355136,53.5204595 46.8460121,55.0987314 C46.283982,58.1559806 45.977122,61.2719876 45.7044004,64.3857425 C45.4312931,67.4972454 45.1967603,70.6155044 44.8000218,73.708991 C44.5955771,75.291767 44.3421427,76.8677868 44.0240962,78.4278376 C43.7083641,79.9860458 43.3127828,81.5215289 42.8396668,83.0275307 C42.8398597,83.0275307 42.8396668,83.0275307 42.8396668,83.0252787 C42.7210503,83.397275 42.5962619,83.7670193 42.469159,84.1345116 C42.3397416,84.4999566 42.2058882,84.8584407 42.0743492,85.2214289 C41.8133928,85.9517047 41.5742311,86.6936501 41.3437486,87.4376428 C40.885098,88.9325891 40.499739,90.4566073 40.1618266,91.9922951 C39.4834944,95.0630565 39.0265797,98.1948278 38.6462353,101.335607 C38.2649266,104.489899 37.966553,107.657908 37.623433,110.818751 C37.2779986,113.975499 36.8810672,117.125287 36.3128651,120.23679 C36.2006134,120.858967 36.077368,121.479098 35.9498793,122.096772 C35.898961,122.342858 35.8470783,122.588945 35.7932669,122.834418 L36.3535612,122.775046 C36.4058296,122.530392 36.4571337,122.285534 36.5084377,122.04047 C36.6608069,121.300777 36.8017967,120.554532 36.9323713,119.808288 C37.2101075,118.252741 37.4384684,116.683477 37.6454205,115.111757 C38.0614462,111.964221 38.3659917,108.79437 38.6985037,105.63066 C39.0314015,102.476369 39.39188,99.3245339 39.9022203,96.2017707 C40.407546,93.1105362 41.080092,90.0553344 42.0093512,87.094923 C42.2386765,86.3759075 42.4832386,85.6609865 42.7430378,84.9530265 C43.0198096,84.2000256 43.2751727,83.4378118 43.5087411,82.6667945 C43.9766496,81.1382723 44.3454216,79.573308 44.6540174,77.9927841 C45.2646514,74.8769818 45.596199,71.6956656 45.8789499,68.5163967 C46.1622795,65.3416319 46.3941121,62.1603157 46.7906577,59.003772 C46.9906664,57.420996 47.2379288,55.8472282 47.5453674,54.2894295 C47.8583993,52.7109529 48.248773,51.1552014 48.7209246,49.6287265 C48.7417548,49.5679214 48.7604635,49.5071163 48.7791721,49.4440591 C48.7718429,49.4688315 48.7639352,49.4890999 48.7585347,49.5116203 C48.856321,49.2026811 48.9581577,48.895994 49.0625016,48.5895116 C49.1897974,48.2173105 49.3292441,47.8475661 49.4627118,47.4778218 C49.6889511,46.8396751 49.8960961,46.1949769 50.0880041,45.5433179 C50.4779921,44.2377478 50.7796445,42.9008539 51.0105128,41.5479909 C51.4506476,38.9843484 51.5798721,36.3553966 51.5247106,33.730949 C51.4705134,31.0772247 51.2122573,28.4255478 50.9310493,25.7808318 C50.6365332,23.0079541 50.3155935,20.2393757 50.1013123,17.4621987 L50.1362222,17.3631088 C50.2733545,17.5232085 50.4093295,17.6843319 50.5439544,17.8466836 C50.5397113,17.8444316 50.5373968,17.8399275 50.5327679,17.8352187 C51.2512175,18.7147434 51.9237635,19.630096 52.5451984,20.5859854 C53.1801343,21.5555918 53.7448646,22.5747431 54.2467186,23.623171 C54.6521364,24.4867266 55.0091432,25.3705507 55.3185105,26.2746431 C55.642729,27.2282805 55.8973205,28.204643 56.0975221,29.1922657 C56.2603063,30.0490653 56.3764155,30.9103689 56.4483569,31.7784287 C56.52377,32.7253099 56.5309063,33.6723959 56.489053,34.614773 C56.4335058,35.6339243 56.313732,36.6440674 56.1360965,37.6404936 C55.9482388,38.6958823 55.6807248,39.7285458 55.3634497,40.7407363 C55.1356674,41.4441923 54.8816545,42.1386401 54.6492433,42.839844 C54.394266,43.6043099 54.1541398,44.3753271 53.9248146,45.1510531 C53.4582563,46.7111039 53.0476309,48.2895805 52.6649721,49.8768606 C51.9037048,53.0424125 51.2884419,56.2530052 50.7030742,59.4660547 C50.1157777,62.6836083 49.5608839,65.9099654 48.9326985,69.1162588 C48.2993056,72.3426158 47.5796987,75.5442004 46.6878568,78.6872319 C46.4745399,79.4404375 46.2483006,80.1844302 46.0372982,80.9374311 C45.809323,81.7446858 45.5963919,82.5562398 45.3900184,83.3727073 C44.9957873,84.9350101 44.6445667,86.51103 44.3147549,88.0915539 C43.6547455,91.2480976 43.1066022,94.4341226 42.5713813,97.622195 C41.5042184,103.980528 40.4912526,110.365681 38.8267639,116.559205 C38.5158536,117.722897 38.1748552,118.879423 37.8122551,120.027145 C37.8161126,120.01568 37.8178484,120.00442 37.821513,119.99316 C37.6072318,120.667339 37.3821497,121.337014 37.1505099,122.002186 C37.0650675,122.241107 36.9790464,122.480233 36.8918681,122.71854 C37.0986273,122.697248 37.3051936,122.675956 37.5121457,122.655278 L37.5167746,122.64238 C37.646192,122.279596 37.7711733,121.914356 37.8963475,121.548911 C38.1499747,120.797958 38.3904865,120.040453 38.622512,119.280696 C39.0884917,117.751969 39.5045175,116.203178 39.8883335,114.642718 C40.6542298,111.529168 41.2669854,108.370167 41.8305585,105.200316 C42.961755,98.8419827 43.8713412,92.4273486 45.2791168,86.1390336 C45.6303374,84.5607617 46.0201325,82.9937501 46.4444518,81.4402507 C46.6514039,80.6872498 46.8734,79.943257 47.0911529,79.1945555 C47.3291575,78.3760406 47.5521179,77.5507697 47.766592,76.7257034 C48.5874569,73.5624036 49.2428373,70.349354 49.8469136,67.122997 C50.4511828,63.9099475 50.9977832,60.6858425 51.6020524,57.472793 C52.2067073,54.2599482 52.8711527,51.0651197 53.6927891,47.9173794 C54.0559678,46.5241845 54.4555994,45.144297 54.889948,43.7801738 C54.882426,43.8004422 54.8747111,43.8229626 54.8671891,43.843231 C55.0687407,43.2210533 55.2745356,42.6009228 55.4911313,41.9830445 C55.7002049,41.3856392 55.8984777,40.7859819 56.0751489,40.1771116 C56.4155686,39.0023647 56.662831,37.7938372 56.8267726,36.5695453 C56.9793346,35.4265317 57.0375821,34.2652971 57.0213808,33.1018104 C57.0047938,31.8775185 56.8732548,30.6487226 56.6555019,29.4358957 C56.4541431,28.3106937 56.1617486,27.1992087 55.7981841,26.1124961 C55.4297978,25.0053105 54.967097,23.9343622 54.450199,22.8904384 C53.3446544,20.6576413 51.9019689,18.6189293 50.2853126,16.7593569 C50.263518,16.6866774 50.2160714,16.6223918 50.1433585,16.581855 C50.1327505,16.5755084 50.1217568,16.5699806 50.1103773,16.5652718 C50.0718028,16.5362 50.0243562,16.523302 49.9774882,16.523302 C49.905354,16.523302 49.8299409,16.5548305 49.7855802,16.6111316 L49.7855802,16.6109269 C49.7410267,16.6629286 49.7203893,16.7329466 49.7255969,16.8050119 L49.7259826,16.8093113 C49.4438103,17.5637453 49.2389799,18.3464322 49.0895038,19.1475449 C48.9068536,20.1171513 48.8158178,21.1092781 48.7527486,22.1012001 C48.6304675,23.974899 48.6487903,25.859858 48.5562116,27.7356041 C48.5172514,28.4865577 48.4630542,29.2328025 48.4154148,29.981504 C48.3592889,30.8337995 48.3008486,31.6858902 48.2362363,32.5381857 C48.1176198,34.1367259 47.9731584,35.7332189 47.7903153,37.325003 C47.6038077,38.9280473 47.3656103,40.5198315 47.0741802,42.1003554 C46.9281758,42.8848848 46.7628841,43.667367 46.5865987,44.4430931 C46.3923763,45.2906797 46.1869672,46.1341718 45.9923589,46.9795064 C44.4981765,53.5407279 43.3716089,60.2032914 42.2936451,66.8681068 C41.755724,70.2007193 41.2328469,73.5353791 40.6862466,76.8632827 C40.416611,78.515872 40.1323171,80.1664139 39.8563167,81.8167511 C39.5714442,83.5100818 39.3101021,85.2056646 39.0574393,86.9034994 C38.546906,90.3304929 38.0853624,93.7644473 37.6108963,97.1959449 C37.4998018,98.0009474 37.3885145,98.803698 37.2708623,99.6064485 C37.1462667,100.449736 37.0133777,101.292818 36.8760525,102.136106 C36.6083456,103.77764 36.3232803,105.414464 36.0468941,107.055794 C35.5591198,109.950896 35.1031695,112.855006 34.8229259,115.792692 C34.5949508,118.164502 34.4906068,120.563336 34.6063302,122.961146 L34.6063302,122.961146 Z M21.3625547,79.6723978 C21.3646763,79.6748546 21.3648692,79.6793587 21.365062,79.6816107 C21.3646763,79.6748546 21.3623618,79.6658464 21.3598545,79.6590903 C21.3621689,79.6635944 21.3623618,79.6680985 21.3625547,79.6723978 L21.3625547,79.6723978 Z" id="Fill-4" fill="#00FFC9"></path>
                                <g id="Rectangle-4">
                                    <use fill="url(#linearGradient-25)" fill-rule="evenodd" xlink:href="#path-26"></use>
                                    <use fill="black" fill-opacity="1" filter="url(#filter-27)" xlink:href="#path-26"></use>
                                </g>
                            </g>
                            <path d="M44.7317643,148.388453 C102.725661,148.388453 99.9616412,122.337512 79.275932,119.754187 C76.6902183,113.295875 68.9330774,110.71255 65.0545069,110.71255 C65.0545069,101.670914 37.9045135,91.3376148 31.4402293,115.8792 C14.6330906,109.420888 9.46166327,119.754187 9.46166327,124.920836 C-0.881191361,119.879355 -13.2621322,148.388453 44.7317643,148.388453 Z" id="Path-24" fill="url(#linearGradient-28)"></path>
                            <path d="M604.731764,48.3884528 C662.725661,48.3884528 659.961641,22.3375115 639.275932,19.7541868 C636.690218,13.295875 628.933077,10.7125502 625.054507,10.7125502 C625.054507,1.67091368 597.904513,-8.66238523 591.440229,15.8791997 C574.633091,9.42088787 569.461663,19.7541868 569.461663,24.9208362 C559.118809,19.8793549 546.737868,48.3884528 604.731764,48.3884528 Z" id="Path-24" fill="url(#linearGradient-28)"></path>
                        </g>
                    </g>
                </g>
            </g>
        </g>
    </g>
</svg>