<?xml version="1.0" encoding="UTF-8"?>
<svg width="79px" height="79px" viewBox="0 0 79 79" version="1.1" xmlns="http://www.w3.org/2000/svg" xmlns:xlink="http://www.w3.org/1999/xlink">
    <!-- Generator: Sketch 57.1 (83088) - https://sketch.com -->
    <title>Combined Shape</title>
    <desc>Created with Sketch.</desc>
    <defs>
        <linearGradient x1="-1.11022302e-14%" y1="50%" x2="100%" y2="50%" id="linearGradient-1">
            <stop stop-color="#8FBFFF" offset="0%"></stop>
            <stop stop-color="#F0FCFF" offset="100%"></stop>
        </linearGradient>
    </defs>
    <g id="Page-1" stroke="none" stroke-width="1" fill="none" fill-rule="evenodd">
        <g id="注册成功-新" transform="translate(-46.000000, -1368.000000)" fill="url(#linearGradient-1)">
            <g id="装饰" transform="translate(-24.000000, 623.000000)">
                <path d="M75,814 C77.7614237,814 80,816.238576 80,819 C80,821.761424 77.7614237,824 75,824 C72.2385763,824 70,821.761424 70,819 C70,816.238576 72.2385763,814 75,814 Z M98,814 C100.761424,814 103,816.238576 103,819 C103,821.761424 100.761424,824 98,824 C95.2385763,824 93,821.761424 93,819 C93,816.238576 95.2385763,814 98,814 Z M121,814 C123.761424,814 126,816.238576 126,819 C126,821.761424 123.761424,824 121,824 C118.238576,824 116,821.761424 116,819 C116,816.238576 118.238576,814 121,814 Z M144,814 C146.761424,814 149,816.238576 149,819 C149,821.761424 146.761424,824 144,824 C141.238576,824 139,821.761424 139,819 C139,816.238576 141.238576,814 144,814 Z M75,791 C77.7614237,791 80,793.238576 80,796 C80,798.761424 77.7614237,801 75,801 C72.2385763,801 70,798.761424 70,796 C70,793.238576 72.2385763,791 75,791 Z M98,791 C100.761424,791 103,793.238576 103,796 C103,798.761424 100.761424,801 98,801 C95.2385763,801 93,798.761424 93,796 C93,793.238576 95.2385763,791 98,791 Z M121,791 C123.761424,791 126,793.238576 126,796 C126,798.761424 123.761424,801 121,801 C118.238576,801 116,798.761424 116,796 C116,793.238576 118.238576,791 121,791 Z M144,791 C146.761424,791 149,793.238576 149,796 C149,798.761424 146.761424,801 144,801 C141.238576,801 139,798.761424 139,796 C139,793.238576 141.238576,791 144,791 Z M75,768 C77.7614237,768 80,770.238576 80,773 C80,775.761424 77.7614237,778 75,778 C72.2385763,778 70,775.761424 70,773 C70,770.238576 72.2385763,768 75,768 Z M98,768 C100.761424,768 103,770.238576 103,773 C103,775.761424 100.761424,778 98,778 C95.2385763,778 93,775.761424 93,773 C93,770.238576 95.2385763,768 98,768 Z M121,768 C123.761424,768 126,770.238576 126,773 C126,775.761424 123.761424,778 121,778 C118.238576,778 116,775.761424 116,773 C116,770.238576 118.238576,768 121,768 Z M144,768 C146.761424,768 149,770.238576 149,773 C149,775.761424 146.761424,778 144,778 C141.238576,778 139,775.761424 139,773 C139,770.238576 141.238576,768 144,768 Z M75,745 C77.7614237,745 80,747.238576 80,750 C80,752.761424 77.7614237,755 75,755 C72.2385763,755 70,752.761424 70,750 C70,747.238576 72.2385763,745 75,745 Z M98,745 C100.761424,745 103,747.238576 103,750 C103,752.761424 100.761424,755 98,755 C95.2385763,755 93,752.761424 93,750 C93,747.238576 95.2385763,745 98,745 Z M121,745 C123.761424,745 126,747.238576 126,750 C126,752.761424 123.761424,755 121,755 C118.238576,755 116,752.761424 116,750 C116,747.238576 118.238576,745 121,745 Z M144,745 C146.761424,745 149,747.238576 149,750 C149,752.761424 146.761424,755 144,755 C141.238576,755 139,752.761424 139,750 C139,747.238576 141.238576,745 144,745 Z" id="Combined-Shape"></path>
            </g>
        </g>
    </g>
</svg>