<?xml version="1.0" encoding="UTF-8"?>
<svg width="348px" height="196px" viewBox="0 0 348 196" version="1.1" xmlns="http://www.w3.org/2000/svg" xmlns:xlink="http://www.w3.org/1999/xlink">
    <!-- Generator: Sketch 57.1 (83088) - https://sketch.com -->
    <title>Group</title>
    <desc>Created with Sketch.</desc>
    <defs>
        <linearGradient x1="88.7880513%" y1="29.3979931%" x2="13.0914383%" y2="66.1256235%" id="linearGradient-1">
            <stop stop-color="#7981FF" offset="0%"></stop>
            <stop stop-color="#2CAFFF" offset="100%"></stop>
        </linearGradient>
    </defs>
    <g id="Page-1" stroke="none" stroke-width="1" fill="none" fill-rule="evenodd">
        <g id="注册成功-新" transform="translate(-201.000000, -635.000000)">
            <g id="第一部分" transform="translate(87.000000, 635.000000)">
                <g id="Group" transform="translate(114.000000, 0.000000)">
                    <g id="1" transform="translate(140.000000, 0.000000)">
                        <polygon id="Polygon" fill="url(#linearGradient-1)" points="36.5 0 68.1099272 17 68.1099272 51 36.5 68 4.89007276 51 4.89007276 17"></polygon>
                        <path d="M36.744,18.012 L40.44,18.012 L40.44,48 L35.526,48 L35.526,23.934 C33.72,25.572 31.452,26.79 28.68,27.588 L28.68,22.716 C30.024,22.38 31.452,21.792 32.964,20.952 C34.476,20.028 35.736,19.062 36.744,18.012 Z" fill="#FFFFFF" fill-rule="nonzero"></path>
                    </g>
                    <rect id="Rectangle" fill="#FFFFFF" x="0" y="166" width="348" height="30"></rect>
                    <rect id="Rectangle" fill="#FFFFFF" x="8" y="106" width="332" height="30"></rect>
                    <path d="M74.044,94.66 L75.88,97.828 C72.64,98.656 68.932,99.304 64.756,99.736 L64.756,104.596 L75.772,104.596 L75.772,108.268 L64.756,108.268 L64.756,113.02 L78.472,113.02 L78.472,116.656 L64.756,116.656 L64.756,123.784 C64.756,126.232 63.424,127.456 60.832,127.456 L55.252,127.456 L54.388,123.82 C56.188,123.964 57.88,124.036 59.536,124.036 C60.472,124.036 60.976,123.64 60.976,122.884 L60.976,116.656 L45.964,116.656 L45.964,113.02 L60.976,113.02 L60.976,108.268 L48.952,108.268 L48.952,104.596 L60.976,104.596 L60.976,100.06 C57.376,100.276 53.524,100.42 49.384,100.42 L48.196,97.036 C58.384,97.036 66.988,96.244 74.044,94.66 Z M82.944,101.068 L87.876,101.068 L87.876,94.444 L91.62,94.444 L91.62,101.068 L95.652,101.068 L95.652,104.704 L91.62,104.704 L91.62,106.036 C93.204,107.584 94.824,109.312 96.444,111.184 L94.248,114.496 C93.24,112.696 92.376,111.148 91.62,109.888 L91.62,127.6 L87.876,127.6 L87.876,111.292 C86.76,114.244 85.392,116.98 83.772,119.5 L82.152,115.396 C84.672,112.3 86.508,108.736 87.696,104.704 L82.944,104.704 L82.944,101.068 Z M93.42,125.296 C94.86,123.136 95.904,120.832 96.48,118.456 C96.948,116.404 97.2,113.344 97.2,109.276 L97.2,95.56 L109.872,95.56 L109.872,122.884 C109.872,123.208 109.98,123.388 110.232,123.388 L111.312,123.388 C111.6,123.388 111.816,123.316 111.96,123.172 C112.104,123.028 112.176,122.812 112.248,122.56 C112.392,122.056 112.464,119.86 112.464,116.044 L115.92,117.124 C115.92,119.86 115.812,121.948 115.668,123.316 C115.524,124.684 115.164,125.62 114.588,126.196 C114.012,126.664 113.076,126.916 111.816,126.916 L110.196,126.916 C107.424,126.916 106.056,125.692 106.056,123.316 L106.056,99.088 L100.944,99.088 L100.944,109.276 C100.944,113.344 100.62,116.8 99.972,119.68 C99.36,122.56 98.208,125.368 96.516,128.032 L93.42,125.296 Z M125.468,109.492 L146.276,109.492 L146.276,118.852 L125.468,118.852 L125.468,109.492 Z M142.496,115.54 L142.496,112.768 L129.248,112.768 L129.248,115.54 L142.496,115.54 Z M129.5,119.068 C130.652,120.256 131.696,121.66 132.632,123.244 L139.436,123.244 C140.444,121.876 141.308,120.436 142.064,118.96 L145.556,120.22 C144.908,121.3 144.224,122.308 143.504,123.244 L151.352,123.244 L151.352,126.808 L120.176,126.808 L120.176,123.244 L128.636,123.244 C127.88,122.236 126.98,121.3 125.972,120.4 L129.5,119.068 Z M123.848,99.232 C125.504,100.456 126.98,101.644 128.204,102.796 C129.464,101.572 130.472,100.276 131.264,98.908 L123.092,98.908 L123.092,95.452 L135.512,95.452 L135.512,98.26 C134.684,100.348 133.568,102.22 132.164,103.876 L141.092,103.876 C138.932,101.5 137.204,98.944 135.944,96.136 L139.076,94.408 C139.652,95.74 140.336,97 141.128,98.188 C142.388,97.18 143.468,96.1 144.368,94.948 L146.996,97.288 C145.916,98.584 144.62,99.808 143.144,100.888 C143.72,101.608 144.368,102.256 145.088,102.904 C146.6,101.752 147.86,100.456 148.94,99.052 L151.568,101.356 C150.488,102.724 149.192,103.984 147.752,105.1 C149.336,106.252 151.064,107.332 153.008,108.304 L150.524,111.184 C147.716,109.6 145.268,107.872 143.18,105.964 L143.18,107.296 L129.968,107.296 L129.968,106.144 C127.664,108.16 124.82,109.852 121.436,111.256 L119.132,108.304 C121.652,107.332 123.776,106.216 125.576,104.956 C124.388,103.876 122.984,102.76 121.328,101.608 L123.848,99.232 Z M160.648,95.488 L182.104,95.488 L182.104,107.116 L188.188,107.116 L188.188,110.536 L182.608,110.536 L185.452,112.876 C183.58,115.18 181.456,117.016 179.08,118.312 C181.744,120.256 184.84,121.948 188.368,123.46 L186.46,126.772 C181.42,124.396 177.352,121.552 174.256,118.204 L174.256,123.964 C174.256,126.484 173.14,127.78 170.944,127.78 L166.732,127.78 L165.904,124.252 C167.2,124.396 168.46,124.504 169.684,124.504 C170.224,124.504 170.512,124 170.512,123.064 L170.512,118.348 C166.984,121.444 162.808,124.216 158.02,126.7 L156.508,123.208 C161.908,120.76 166.552,117.88 170.512,114.496 L170.512,110.536 L157.048,110.536 L157.048,107.116 L178.288,107.116 L178.288,104.632 L161.872,104.632 L161.872,101.392 L178.288,101.392 L178.288,98.872 L160.648,98.872 L160.648,95.488 Z M161.548,111.076 C163.636,112.516 165.4,113.956 166.84,115.396 L164.392,117.844 C163.132,116.476 161.368,115.036 159.064,113.452 L161.548,111.076 Z M182.536,110.536 L174.256,110.536 L174.256,114.064 C174.94,114.82 175.696,115.54 176.524,116.26 C178.828,114.892 180.844,112.984 182.536,110.536 Z M207.312,127.348 L202.128,127.348 L201.228,123.424 C202.884,123.604 204.432,123.712 205.872,123.712 C207.276,123.712 207.996,122.992 207.996,121.552 L207.996,94.984 L211.92,94.984 L211.92,122.56 C211.92,125.728 210.372,127.348 207.312,127.348 Z M198.276,103.336 L202.056,104.812 C200.436,111.868 198.312,117.304 195.648,121.048 L192.336,118.132 C195.036,114.424 197.016,109.492 198.276,103.336 Z M220.488,102.4 C222.972,108.7 224.916,114.208 226.284,118.888 L222.864,121.264 C221.424,116.26 219.48,110.68 217.032,104.56 L220.488,102.4 Z M244.58,95.56 L260.744,95.56 L260.744,106.648 L244.58,106.648 L244.58,95.56 Z M257.108,103.336 L257.108,98.872 L248.252,98.872 L248.252,103.336 L257.108,103.336 Z M243.608,109.24 L261.788,109.24 L261.788,112.624 L254.372,112.624 L254.372,116.008 L260.672,116.008 L260.672,119.356 L254.372,119.356 L254.372,123.028 L262.652,123.028 L262.652,126.556 L242.24,126.556 L242.24,123.028 L250.556,123.028 L250.556,119.356 L244.436,119.356 L244.436,116.008 L250.556,116.008 L250.556,112.624 L243.608,112.624 L243.608,109.24 Z M230.144,103.912 L235.004,103.912 L235.004,99.88 C233.672,100.06 232.304,100.204 230.936,100.348 L230.18,96.82 C234.608,96.46 238.568,95.776 242.06,94.696 L243.392,98.224 C241.844,98.656 240.224,99.016 238.568,99.304 L238.568,103.912 L242.492,103.912 L242.492,107.476 L238.568,107.476 L238.568,108.88 C240.152,110.32 241.772,111.868 243.392,113.596 L241.268,116.8 C240.224,115.072 239.324,113.632 238.568,112.48 L238.568,127.6 L235.004,127.6 L235.004,113.056 C233.888,115.936 232.52,118.564 230.864,120.976 L229.208,116.764 C231.62,114.028 233.42,110.932 234.572,107.476 L230.144,107.476 L230.144,103.912 Z M285.052,94.192 C285.484,95.056 285.88,95.992 286.312,97.036 L299.02,97.036 L299.02,100.492 L272.884,100.492 L272.884,108.556 C272.74,116.548 271.48,122.956 269.068,127.78 L266.224,125.224 C268.096,121.228 269.068,115.684 269.14,108.556 L269.14,97.036 L282.46,97.036 C282.1,96.244 281.668,95.524 281.236,94.84 L285.052,94.192 Z M281.452,106.504 C283.108,107.332 284.584,108.16 285.952,108.988 C287.68,108.016 289.3,106.9 290.848,105.676 L275.908,105.676 L275.908,102.508 L295.6,102.508 L295.6,105.172 C293.476,107.368 291.208,109.24 288.76,110.824 C289.084,111.04 289.408,111.292 289.732,111.544 L289.3,111.976 L298.516,111.976 L298.516,114.892 C297.004,117.7 295.384,120.04 293.62,121.84 L290.812,119.608 C292.108,118.456 293.332,117.088 294.448,115.432 L287.716,115.432 L287.716,124.036 C287.716,126.556 286.456,127.816 283.972,127.816 L278.608,127.816 L277.816,124.288 C279.544,124.432 281.164,124.54 282.712,124.54 C283.54,124.54 283.972,124.072 283.972,123.136 L283.972,115.432 L273.82,115.432 L273.82,111.976 L285.16,111.976 C283.504,110.896 281.524,109.816 279.22,108.664 L281.452,106.504 Z M32.748,161.728 L54.996,161.728 L54.996,175.516 L32.748,175.516 L32.748,161.728 Z M51.324,172.204 L51.324,170.26 L36.42,170.26 L36.42,172.204 L51.324,172.204 Z M36.42,167.092 L51.324,167.092 L51.324,165.04 L36.42,165.04 L36.42,167.092 Z M28.932,151.288 L42.036,151.288 L42.036,148.372 L45.708,148.372 L45.708,151.288 L58.812,151.288 L58.812,154.744 L48.984,154.744 C51.648,156.76 55.428,158.38 60.396,159.604 L58.776,162.988 C52.764,160.936 48.408,158.272 45.708,154.996 L45.708,160.684 L42.036,160.684 L42.036,154.996 C39.192,158.2 34.908,160.864 29.184,162.988 L27.132,159.676 C32.244,158.308 36.132,156.688 38.832,154.744 L28.932,154.744 L28.932,151.288 Z M28.212,177.388 L59.424,177.388 L59.424,180.808 L28.212,180.808 L28.212,177.388 Z M91.796,181.528 L89.636,181.528 L88.952,178.828 C88.376,179.188 87.548,179.404 86.504,179.404 L84.2,179.404 C82.256,179.404 81.284,178.252 81.284,176.02 L81.284,171.088 L79.34,171.088 C78.836,175.264 76.388,178.288 71.996,180.196 L70.052,177.1 C73.616,175.876 75.632,173.896 76.136,171.088 L72.86,171.088 L72.86,160.684 L76.784,160.684 C75.956,159.136 75.056,157.768 74.12,156.544 L77.252,155.032 C78.188,156.328 79.052,157.804 79.916,159.388 L77.324,160.684 L81.356,160.684 C82.292,158.776 83.12,156.76 83.84,154.636 L87.368,155.896 C86.648,157.66 85.82,159.244 84.956,160.684 L88.124,160.684 L88.124,171.088 L84.56,171.088 L84.56,175.3 C84.56,175.84 84.776,176.128 85.244,176.128 L85.892,176.128 C86.288,176.128 86.576,175.948 86.792,175.66 C87.044,175.372 87.224,174.472 87.332,172.96 L90.5,173.968 C90.32,175.948 90.032,177.316 89.636,178.108 L91.04,178.18 C91.652,178.18 91.976,177.676 91.976,176.668 L91.976,153.196 L78.584,153.196 L78.584,149.74 L95.648,149.74 L95.648,177.748 C95.648,180.268 94.352,181.528 91.796,181.528 Z M84.704,168.064 L84.704,163.708 L76.244,163.708 L76.244,168.064 L84.704,168.064 Z M65.444,154.42 L69.116,154.42 L69.116,181.78 L65.444,181.78 L65.444,154.42 Z M71.96,148.084 C73.4,149.812 74.66,151.684 75.74,153.772 L72.392,155.5 C71.24,153.268 69.944,151.324 68.54,149.596 L71.96,148.084 Z M115.276,154.348 C114.808,155.068 114.34,155.788 113.872,156.436 L131.62,156.436 C131.512,159.532 131.404,162.268 131.332,164.716 L134.104,164.716 L134.104,168.172 L131.188,168.172 C131.08,170.188 130.972,171.916 130.9,173.32 L133.528,173.32 L133.528,176.56 L130.648,176.56 C130.576,177.424 130.468,178 130.396,178.252 C130.036,179.44 129.352,180.304 128.38,180.844 C127.372,181.384 125.896,181.672 123.952,181.672 C122.944,181.672 121.756,181.708 120.46,181.708 L119.344,178.36 C120.856,178.432 122.224,178.504 123.448,178.504 C124.276,178.504 124.996,178.396 125.608,178.252 C126.22,178.036 126.688,177.568 127.012,176.884 C127.012,176.812 127.048,176.704 127.084,176.56 L110.056,176.56 C110.632,173.716 111.136,170.908 111.496,168.172 L108.328,168.172 L108.328,164.716 L111.892,164.716 C112.108,162.556 112.288,160.396 112.396,158.308 C111.892,158.884 111.352,159.46 110.848,159.964 L108.472,157.084 C110.704,154.96 112.648,151.936 114.304,148.048 L118.048,148.876 L117.148,150.892 L133.024,150.892 L133.024,154.348 L115.276,154.348 Z M115.096,168.172 C114.844,170.008 114.556,171.736 114.232,173.32 L121.612,173.32 C120.604,172.24 119.236,171.124 117.58,169.936 L119.416,168.172 L115.096,168.172 Z M122.296,173.32 L127.372,173.32 C127.444,171.952 127.516,170.224 127.624,168.172 L120.64,168.172 C122.08,169.18 123.34,170.224 124.348,171.268 L122.296,173.32 Z M127.768,164.716 C127.804,163.132 127.876,161.476 127.948,159.676 L120.496,159.676 C122.152,160.72 123.592,161.764 124.78,162.772 L122.8,164.716 L127.768,164.716 Z M120.208,159.676 L115.816,159.676 C115.744,161.44 115.6,163.132 115.456,164.716 L121.9,164.716 C120.892,163.78 119.56,162.844 117.976,161.836 L120.208,159.676 Z M104.044,148.732 C106.168,150.244 107.968,151.756 109.408,153.304 L106.744,155.968 C105.484,154.528 103.684,152.98 101.38,151.324 L104.044,148.732 Z M103.468,157.48 C105.592,159.028 107.392,160.576 108.868,162.16 L106.204,164.824 C104.944,163.384 103.144,161.8 100.804,160.072 L103.468,157.48 Z M106.132,168.28 L109.408,169.576 C107.968,173.752 106.312,177.64 104.512,181.312 L101.02,179.764 C102.964,176.02 104.692,172.168 106.132,168.28 Z M141.312,163.564 L167.16,163.564 L167.16,172.996 L156.036,172.996 L156.036,174.4 L167.844,174.4 L167.844,176.812 L156.036,176.812 L156.036,178.324 L170.436,178.324 L170.436,181.132 L137.964,181.132 L137.964,178.324 L152.292,178.324 L152.292,176.812 L140.628,176.812 L140.628,174.4 L152.292,174.4 L152.292,172.996 L141.312,172.996 L141.312,163.564 Z M163.596,170.836 L163.596,169.288 L156.036,169.288 L156.036,170.836 L163.596,170.836 Z M152.292,170.836 L152.292,169.288 L144.876,169.288 L144.876,170.836 L152.292,170.836 Z M144.876,167.272 L152.292,167.272 L152.292,165.76 L144.876,165.76 L144.876,167.272 Z M156.036,165.76 L156.036,167.272 L163.596,167.272 L163.596,165.76 L156.036,165.76 Z M142.104,148.948 L166.404,148.948 L166.404,158.2 L142.104,158.2 L142.104,148.948 Z M162.804,156.112 L162.804,154.636 L145.704,154.636 L145.704,156.112 L162.804,156.112 Z M145.704,152.548 L162.804,152.548 L162.804,151.072 L145.704,151.072 L145.704,152.548 Z M137.964,159.568 L170.436,159.568 L170.436,162.232 L137.964,162.232 L137.964,159.568 Z M188.048,150.316 L205.76,150.316 L205.76,154.024 L188.048,154.024 L188.048,150.316 Z M187.184,159.244 L207.308,159.244 L207.308,162.952 L201.764,162.952 L201.764,178.036 C201.764,180.412 200.432,181.6 197.768,181.6 L192.548,181.6 L191.72,177.928 C193.376,178.072 194.96,178.18 196.472,178.18 C197.444,178.18 197.948,177.82 197.948,177.1 L197.948,162.952 L187.184,162.952 L187.184,159.244 Z M181.784,148.624 L185.204,150.244 C183.296,154.168 180.02,157.732 175.376,160.936 L174.224,157.156 C177.608,154.744 180.128,151.9 181.784,148.624 Z M183.476,156.904 L186.86,158.488 C185.924,160.36 184.736,162.16 183.296,163.888 L183.296,181.744 L179.588,181.744 L179.588,167.596 C178.364,168.604 177.032,169.612 175.664,170.584 L174.512,166.876 C178.544,164.068 181.532,160.72 183.476,156.904 Z M222.004,148.66 L225.784,148.66 L225.784,176.848 L229.744,176.848 L229.744,148.66 L233.524,148.66 L233.524,176.848 L243.892,176.848 L243.892,180.52 L211.708,180.52 L211.708,176.848 L222.004,176.848 L222.004,148.66 Z M239.896,155.464 L243.208,156.4 C241.84,162.556 240.112,167.956 238.024,172.564 L234.64,171.376 C236.656,167.2 238.384,161.872 239.896,155.464 Z M215.56,155.356 C217.36,160.144 218.98,165.652 220.384,171.844 L216.964,172.672 C215.74,167.056 214.228,161.656 212.356,156.436 L215.56,155.356 Z M270.72,157.156 C270.576,157.66 270.468,158.128 270.324,158.632 C271.116,162.196 272.088,165.328 273.276,168.028 C274.356,164.86 274.968,161.224 275.112,157.156 L270.72,157.156 Z M271.548,171.88 C270.396,169.504 269.388,166.84 268.524,163.888 C267.984,165.076 267.408,166.192 266.832,167.2 L264.492,164.284 C266.472,160.324 267.804,155.032 268.488,148.408 L272.16,149.056 C271.944,150.64 271.728,152.116 271.476,153.52 L280.476,153.52 L280.476,157.156 L278.496,157.156 C278.28,162.952 277.236,167.884 275.328,171.988 C277.056,174.868 279.108,177.136 281.484,178.756 L279.396,181.816 C277.164,180.16 275.184,178 273.492,175.336 C271.8,177.856 269.712,180.016 267.264,181.78 L265.32,178.612 C267.912,176.884 270,174.652 271.548,171.88 Z M254.52,165.112 L258.048,165.544 C257.832,166.084 257.652,166.624 257.472,167.128 L264.708,167.128 L264.708,170.152 C264.096,172.24 263.016,174.112 261.432,175.696 C262.836,176.308 264.204,176.956 265.536,177.676 L263.52,180.628 C262.152,179.8 260.496,178.936 258.552,178.036 C256.176,179.548 253.224,180.736 249.66,181.672 L247.932,178.54 C250.524,177.964 252.756,177.208 254.664,176.344 C253.224,175.732 251.676,175.12 250.092,174.508 C250.956,173.068 251.712,171.664 252.36,170.332 L248.796,170.332 L248.796,167.128 L253.8,167.128 C254.052,166.408 254.304,165.76 254.52,165.112 Z M258.048,174.292 C259.524,173.14 260.64,171.808 261.396,170.332 L256.068,170.332 C255.6,171.268 255.096,172.168 254.592,173.032 C255.744,173.392 256.896,173.824 258.048,174.292 Z M252.324,148.948 C253.08,150.28 253.764,151.72 254.34,153.268 L251.676,154.456 C250.956,152.728 250.2,151.216 249.408,149.884 L252.324,148.948 Z M262.44,148.912 L265.068,150.172 C264.348,151.684 263.448,153.16 262.332,154.6 L259.704,153.268 C260.856,151.792 261.792,150.352 262.44,148.912 Z M248.868,154.996 L255.564,154.996 L255.564,148.48 L259.02,148.48 L259.02,154.996 L265.14,154.996 L265.14,158.272 L259.02,158.272 L259.02,158.344 C260.892,159.1 262.8,159.964 264.744,160.936 L262.8,163.888 C261.288,162.7 260.028,161.764 259.02,161.08 L259.02,164.86 L255.564,164.86 L255.564,159.208 C254.34,161.656 252.468,163.78 249.876,165.652 L248.004,162.628 C250.344,161.296 252.072,159.856 253.152,158.272 L248.868,158.272 L248.868,154.996 Z M289.34,181.42 L286.28,181.42 L285.488,177.892 C286.388,178.036 287.252,178.144 288.08,178.144 C288.836,178.144 289.232,177.676 289.232,176.776 L289.232,169.504 C288.008,169.936 286.82,170.368 285.596,170.764 L284.624,167.056 C286.172,166.696 287.72,166.264 289.232,165.76 L289.232,158.56 L285.344,158.56 L285.344,154.924 L289.232,154.924 L289.232,148.552 L292.904,148.552 L292.904,154.924 L295.964,154.924 L295.964,158.56 L292.904,158.56 L292.904,164.284 C293.912,163.816 294.884,163.348 295.82,162.844 L295.82,166.516 C294.812,167.02 293.84,167.488 292.904,167.956 L292.904,177.712 C292.904,180.16 291.716,181.42 289.34,181.42 Z M300.716,165.904 C300.284,171.916 298.916,177.208 296.648,181.816 L293.696,179.188 C296.036,174.616 297.224,168.712 297.26,161.512 L297.26,149.56 L316.988,149.56 L316.988,159.1 L310.508,159.1 L310.508,162.484 L317.78,162.484 L317.78,165.904 L310.508,165.904 L310.508,169.36 L316.196,169.36 L316.196,181.744 L312.74,181.744 L312.74,180.268 L304.64,180.268 L304.64,181.744 L301.184,181.744 L301.184,169.36 L306.836,169.36 L306.836,165.904 L300.716,165.904 Z M306.836,159.1 L300.896,159.1 L300.896,161.512 C300.896,161.836 300.86,162.16 300.86,162.484 L306.836,162.484 L306.836,159.1 Z M304.64,176.956 L312.74,176.956 L312.74,172.672 L304.64,172.672 L304.64,176.956 Z M313.316,152.98 L300.896,152.98 L300.896,155.788 L313.316,155.788 L313.316,152.98 Z" id="手机登录小程序查阅海量行业数据" fill="#113987" fill-rule="nonzero"></path>
                </g>
            </g>
        </g>
    </g>
</svg>