<?xml version="1.0" encoding="UTF-8"?>
<svg width="552px" height="196px" viewBox="0 0 552 196" version="1.1" xmlns="http://www.w3.org/2000/svg" xmlns:xlink="http://www.w3.org/1999/xlink">
    <!-- Generator: Sketch 57.1 (83088) - https://sketch.com -->
    <title>2</title>
    <desc>Created with Sketch.</desc>
    <defs>
        <linearGradient x1="88.7880513%" y1="29.3979931%" x2="13.0914383%" y2="66.1256235%" id="linearGradient-1">
            <stop stop-color="#7981FF" offset="0%"></stop>
            <stop stop-color="#2CAFFF" offset="100%"></stop>
        </linearGradient>
    </defs>
    <g id="Page-1" stroke="none" stroke-width="1" fill="none" fill-rule="evenodd">
        <g id="注册成功-新" transform="translate(-99.000000, -1486.000000)">
            <g id="第二部分" transform="translate(61.000000, 1486.000000)">
                <g id="2" transform="translate(36.000000, 0.000000)">
                    <g id="Group">
                        <g id="Group-3" transform="translate(244.000000, 0.000000)">
                            <polygon id="Polygon" fill="url(#linearGradient-1)" points="36.5 0 68.1099272 17 68.1099272 51 36.5 68 4.89007276 51 4.89007276 17"></polygon>
                            <path d="M37.062,17.424 C39.96,17.424 42.354,18.264 44.244,19.944 C46.092,21.624 47.016,23.766 47.016,26.454 C47.016,29.058 46.008,31.41 44.076,33.552 C42.9,34.812 40.8,36.408 37.86,38.382 C34.794,40.398 32.946,42.162 32.274,43.674 L47.058,43.674 L47.058,48 L26.142,48 C26.142,44.934 27.108,42.288 29.124,40.02 C30.216,38.76 32.526,36.912 36.012,34.518 C37.944,33.174 39.288,32.04 40.128,31.158 C41.43,29.688 42.102,28.092 42.102,26.412 C42.102,24.774 41.64,23.556 40.8,22.758 C39.918,21.96 38.616,21.582 36.894,21.582 C35.046,21.582 33.66,22.212 32.736,23.472 C31.812,24.648 31.308,26.454 31.224,28.806 L26.31,28.806 C26.352,25.446 27.318,22.758 29.25,20.7 C31.224,18.516 33.828,17.424 37.062,17.424 Z" id="2" fill="#FFFFFF" fill-rule="nonzero"></path>
                        </g>
                        <rect id="Rectangle" fill="#FFFFFF" x="104" y="166" width="348" height="30"></rect>
                        <rect id="Rectangle" fill="#FFFFFF" x="2" y="106" width="552" height="30"></rect>
                        <path d="M6.21999991,109.888 C5.31999991,111.076 4.38399991,112.228 3.37599991,113.38 L2.22399991,109.636 C5.67999991,105.244 8.27199991,100.132 9.92799991,94.228 L13.3119999,95.812 C12.4479999,98.692 11.2959999,101.428 9.92799991,104.056 L9.92799991,127.78 L6.21999991,127.78 L6.21999991,109.888 Z M12.3039999,100.06 L21.1959999,100.06 L21.1959999,94.372 L24.9039999,94.372 L24.9039999,100.06 L34.2999999,100.06 L34.2999999,103.66 L27.6759999,103.66 C29.2599999,109.132 31.9599999,114.028 35.7399999,118.348 L33.2919999,121.444 C29.3319999,116.332 26.5239999,110.608 24.9039999,104.308 L24.9039999,117.16 L29.8719999,117.16 L29.8719999,120.76 L24.9039999,120.76 L24.9039999,127.78 L21.1959999,127.78 L21.1959999,120.76 L16.3719999,120.76 L16.3719999,117.16 L21.1959999,117.16 L21.1959999,104.344 C19.3959999,111.436 16.4439999,117.268 12.4119999,121.876 L10.4679999,118.636 C14.0679999,114.712 16.6959999,109.708 18.3879999,103.66 L12.3039999,103.66 L12.3039999,100.06 Z M56.8439999,105.964 C55.7279999,107.152 54.5399999,108.196 53.3159999,109.132 L51.3359999,106.108 C55.2959999,103.12 58.3199999,99.232 60.4439999,94.444 L63.7559999,94.444 C65.5199999,98.836 68.5799999,102.688 72.8999999,106 L70.8479999,109.132 C69.4799999,108.052 68.2559999,106.972 67.1759999,105.82 L67.1759999,107.908 L56.8439999,107.908 L56.8439999,105.964 Z M66.0599999,104.524 C64.4039999,102.544 63.1079999,100.42 62.0999999,98.116 C60.9119999,100.528 59.5799999,102.652 58.1039999,104.524 L66.0599999,104.524 Z M52.3799999,123.028 L63.9359999,123.028 C65.1599999,119.284 66.2759999,114.784 67.2479999,109.492 L70.8479999,110.428 C69.9119999,115.108 68.7959999,119.32 67.4639999,123.028 L72.3959999,123.028 L72.3959999,126.628 L52.3799999,126.628 L52.3799999,123.028 Z M56.5559999,110.536 C57.6359999,113.488 58.6079999,116.872 59.4719999,120.688 L56.2679999,121.444 C55.4759999,118.024 54.5039999,114.748 53.3519999,111.652 L56.5559999,110.536 Z M62.0999999,109.42 C62.9639999,112.228 63.7559999,115.504 64.4399999,119.176 L61.2359999,119.932 C60.6239999,116.656 59.8319999,113.488 58.8959999,110.464 L62.0999999,109.42 Z M47.9879999,99.124 L39.6719999,99.124 L39.6719999,95.74 L51.6959999,95.74 L50.0039999,110.572 L52.0199999,110.572 C52.0199999,119.104 51.6239999,124.036 50.8679999,125.332 C50.1119999,126.628 48.4919999,127.312 46.0439999,127.312 C45.2519999,127.312 44.4599999,127.24 43.6319999,127.168 L42.6239999,123.856 C43.8839999,124.036 44.7479999,124.144 45.2519999,124.144 C46.7999999,124.144 47.7359999,123.64 48.0599999,122.668 C48.3839999,121.66 48.5639999,118.744 48.5639999,113.884 L39.5279999,113.884 L41.2199999,101.032 L44.6399999,101.212 L43.2719999,110.572 L46.4759999,110.572 L47.9879999,99.124 Z M47.1959999,116.08 L47.1959999,119.428 C44.8559999,120.292 42.1919999,121.012 39.2399999,121.552 L38.7719999,118.024 C41.9759999,117.52 44.7839999,116.872 47.1959999,116.08 Z M97.5679999,94.228 L109.52,94.228 L109.52,97.576 L101.312,97.576 L101.312,116.296 L97.5679999,116.296 L97.5679999,94.228 Z M135.52,103.156 C135.376,103.66 135.268,104.128 135.124,104.632 C135.916,108.196 136.888,111.328 138.076,114.028 C139.156,110.86 139.768,107.224 139.912,103.156 L135.52,103.156 Z M136.348,117.88 C135.196,115.504 134.188,112.84 133.324,109.888 C132.784,111.076 132.208,112.192 131.632,113.2 L129.292,110.284 C131.272,106.324 132.604,101.032 133.288,94.408 L136.96,95.056 C136.744,96.64 136.528,98.116 136.276,99.52 L145.276,99.52 L145.276,103.156 L143.296,103.156 C143.08,108.952 142.036,113.884 140.128,117.988 C141.856,120.868 143.908,123.136 146.284,124.756 L144.196,127.816 C141.964,126.16 139.984,124 138.292,121.336 C136.6,123.856 134.512,126.016 132.064,127.78 L130.12,124.612 C132.712,122.884 134.8,120.652 136.348,117.88 Z M119.32,111.112 L122.848,111.544 C122.632,112.084 122.452,112.624 122.272,113.128 L129.508,113.128 L129.508,116.152 C128.896,118.24 127.816,120.112 126.232,121.696 C127.636,122.308 129.004,122.956 130.336,123.676 L128.32,126.628 C126.952,125.8 125.296,124.936 123.352,124.036 C120.976,125.548 118.024,126.736 114.46,127.672 L112.732,124.54 C115.324,123.964 117.556,123.208 119.464,122.344 C118.024,121.732 116.476,121.12 114.892,120.508 C115.756,119.068 116.512,117.664 117.16,116.332 L113.596,116.332 L113.596,113.128 L118.6,113.128 C118.852,112.408 119.104,111.76 119.32,111.112 Z M122.848,120.292 C124.324,119.14 125.44,117.808 126.196,116.332 L120.868,116.332 C120.4,117.268 119.896,118.168 119.392,119.032 C120.544,119.392 121.696,119.824 122.848,120.292 Z M117.124,94.948 C117.88,96.28 118.564,97.72 119.14,99.268 L116.476,100.456 C115.756,98.728 115,97.216 114.208,95.884 L117.124,94.948 Z M127.24,94.912 L129.868,96.172 C129.148,97.684 128.248,99.16 127.132,100.6 L124.504,99.268 C125.656,97.792 126.592,96.352 127.24,94.912 Z M113.668,100.996 L120.364,100.996 L120.364,94.48 L123.82,94.48 L123.82,100.996 L129.94,100.996 L129.94,104.272 L123.82,104.272 L123.82,104.344 C125.692,105.1 127.6,105.964 129.544,106.936 L127.6,109.888 C126.088,108.7 124.828,107.764 123.82,107.08 L123.82,110.86 L120.364,110.86 L120.364,105.208 C119.14,107.656 117.268,109.78 114.676,111.652 L112.804,108.628 C115.144,107.296 116.872,105.856 117.952,104.272 L113.668,104.272 L113.668,100.996 Z M154.14,127.42 L151.08,127.42 L150.288,123.892 C151.188,124.036 152.052,124.144 152.88,124.144 C153.636,124.144 154.032,123.676 154.032,122.776 L154.032,115.504 C152.808,115.936 151.62,116.368 150.396,116.764 L149.424,113.056 C150.972,112.696 152.52,112.264 154.032,111.76 L154.032,104.56 L150.144,104.56 L150.144,100.924 L154.032,100.924 L154.032,94.552 L157.704,94.552 L157.704,100.924 L160.764,100.924 L160.764,104.56 L157.704,104.56 L157.704,110.284 C158.712,109.816 159.684,109.348 160.62,108.844 L160.62,112.516 C159.612,113.02 158.64,113.488 157.704,113.956 L157.704,123.712 C157.704,126.16 156.516,127.42 154.14,127.42 Z M165.516,111.904 C165.084,117.916 163.716,123.208 161.448,127.816 L158.496,125.188 C160.836,120.616 162.024,114.712 162.06,107.512 L162.06,95.56 L181.788,95.56 L181.788,105.1 L175.308,105.1 L175.308,108.484 L182.58,108.484 L182.58,111.904 L175.308,111.904 L175.308,115.36 L180.996,115.36 L180.996,127.744 L177.54,127.744 L177.54,126.268 L169.44,126.268 L169.44,127.744 L165.984,127.744 L165.984,115.36 L171.636,115.36 L171.636,111.904 L165.516,111.904 Z M171.636,105.1 L165.696,105.1 L165.696,107.512 C165.696,107.836 165.66,108.16 165.66,108.484 L171.636,108.484 L171.636,105.1 Z M169.44,122.956 L177.54,122.956 L177.54,118.672 L169.44,118.672 L169.44,122.956 Z M178.116,98.98 L165.696,98.98 L165.696,101.788 L178.116,101.788 L178.116,98.98 Z M186.836,96.352 L219.272,96.352 L219.272,99.988 L214.808,99.988 L214.808,123.46 C214.808,126.124 213.512,127.492 210.992,127.492 L204.908,127.492 L204.044,123.856 C205.988,124 207.896,124.072 209.696,124.072 C210.56,124.072 211.028,123.532 211.028,122.524 L211.028,99.988 L186.836,99.988 L186.836,96.352 Z M205.556,104.308 L205.556,118.42 L194.288,118.42 L194.288,121.3 L190.688,121.3 L190.688,104.308 L205.556,104.308 Z M194.288,115.036 L201.992,115.036 L201.992,107.656 L194.288,107.656 L194.288,115.036 Z M228.1,114.1 C226.948,115.252 225.688,116.368 224.356,117.52 L223.168,113.56 C227.632,109.816 230.656,106.144 232.276,102.58 L223.996,102.58 L223.996,98.98 L228.892,98.98 C228.352,97.648 227.776,96.352 227.128,95.128 L230.692,94.12 C231.412,95.884 232.024,97.504 232.456,98.98 L236.056,98.98 L236.056,102.148 C235.156,104.668 233.788,107.188 231.952,109.672 C233.788,110.824 235.48,112.084 237.064,113.524 L234.94,116.764 C233.86,115.576 232.816,114.568 231.808,113.704 L231.808,127.744 L228.1,127.744 L228.1,114.1 Z M254.02,95.56 L254.02,115.972 L250.204,115.972 L250.204,99.16 L241.528,99.16 L241.528,115.972 L237.784,115.972 L237.784,95.56 L254.02,95.56 Z M252.796,127.168 L249.196,127.168 C246.928,127.168 245.812,125.944 245.812,123.496 L245.812,118.6 C245.452,119.5 245.092,120.328 244.696,121.084 C242.932,124.108 240.124,126.412 236.236,128.068 L234.184,124.756 C237.964,123.1 240.52,121.012 241.852,118.528 C243.148,115.828 243.868,112.336 244.012,108.088 L244.012,101.32 L247.612,101.32 L247.612,108.088 C247.504,111.004 247.18,113.596 246.64,115.864 L249.484,115.864 L249.484,122.704 C249.484,123.388 249.736,123.748 250.312,123.748 L252.112,123.748 C252.436,123.748 252.688,123.568 252.868,123.208 C253.048,122.776 253.192,121.624 253.264,119.68 L256.756,120.796 C256.504,123.892 256.072,125.764 255.496,126.34 C254.884,126.88 253.984,127.168 252.796,127.168 Z M270.444,94.084 L273.972,95.74 C272.784,98.656 271.2,101.428 269.256,104.056 L269.256,127.816 L265.512,127.816 L265.512,108.448 C264.108,109.852 262.596,111.22 261.012,112.552 L259.788,108.628 C264.576,104.524 268.14,99.664 270.444,94.084 Z M287.76,127.168 L281.064,127.168 C278.04,127.168 276.528,125.656 276.528,122.668 L276.528,112.912 C275.304,113.56 274.044,114.172 272.784,114.784 L271.092,111.22 C273,110.356 274.8,109.456 276.528,108.52 L276.528,94.696 L280.272,94.696 L280.272,106.216 C283.692,103.912 286.716,101.32 289.344,98.44 L291.972,101.428 C288.516,104.956 284.628,108.052 280.272,110.752 L280.272,122.128 C280.272,123.1 280.812,123.604 281.928,123.604 L287.112,123.604 C287.904,123.604 288.48,123.316 288.84,122.812 C289.2,122.272 289.416,120.4 289.488,117.196 L292.944,118.384 C292.692,122.524 292.224,125.044 291.54,125.908 C290.856,126.736 289.596,127.168 287.76,127.168 Z M303.14,94.3 L306.848,94.588 L306.416,98.908 L327.332,98.908 L327.332,102.508 L306.056,102.508 L305.552,107.296 L325.388,107.296 C325.388,117.448 324.668,123.316 323.3,124.936 C321.932,126.448 318.98,127.24 314.48,127.24 C313.292,127.24 312.068,127.168 310.808,127.06 L309.764,123.64 C311.636,123.82 312.968,123.928 313.688,123.928 C317.432,123.928 319.7,123.316 320.42,122.092 C321.212,120.796 321.608,117.016 321.608,110.788 L301.376,110.788 L303.14,94.3 Z M297.092,115.468 L317.36,115.468 L317.36,119.068 L297.092,119.068 L297.092,115.468 Z M337.168,109.24 C336.304,110.392 335.404,111.472 334.468,112.552 L333.208,108.52 C336.448,104.416 338.896,99.592 340.48,94.048 L344.008,95.704 C343.216,98.404 342.172,100.96 340.876,103.408 L340.876,127.816 L337.168,127.816 L337.168,109.24 Z M343.18,98.62 L353.512,98.62 C353.044,97.468 352.54,96.388 352,95.308 L355.6,94.336 C356.32,95.884 356.86,97.324 357.22,98.62 L366.904,98.62 L366.904,102.148 L343.18,102.148 L343.18,98.62 Z M346.42,104.056 L363.88,104.056 L363.88,107.404 L346.42,107.404 L346.42,104.056 Z M346.42,109.132 L363.88,109.132 L363.88,112.516 L346.42,112.516 L346.42,109.132 Z M364.672,114.496 L364.672,127.744 L361.036,127.744 L361.036,125.944 L349.264,125.944 L349.264,127.744 L345.592,127.744 L345.592,114.496 L364.672,114.496 Z M349.264,122.38 L361.036,122.38 L361.036,117.988 L349.264,117.988 L349.264,122.38 Z M375.516,96.784 L383.472,96.784 C383.904,95.92 384.228,95.02 384.444,94.084 L388.404,94.624 C388.188,95.38 387.9,96.1 387.54,96.784 L398.772,96.784 L398.772,115.18 L375.516,115.18 L375.516,96.784 Z M395.136,112.012 L395.136,109.924 L379.152,109.924 L379.152,112.012 L395.136,112.012 Z M379.152,106.972 L395.136,106.972 L395.136,104.956 L379.152,104.956 L379.152,106.972 Z M379.152,102.004 L395.136,102.004 L395.136,99.988 L379.152,99.988 L379.152,102.004 Z M373.536,117.16 L377.064,117.88 C376.236,121.228 375.084,124.144 373.608,126.592 L370.44,124.54 C371.916,122.236 372.96,119.752 373.536,117.16 Z M391.716,127.204 L382.572,127.204 C380.052,127.204 378.792,125.98 378.792,123.604 L378.792,117.124 L382.608,117.124 L382.608,122.776 C382.608,123.496 382.932,123.892 383.652,123.892 L390.996,123.892 C391.572,123.892 392.004,123.676 392.292,123.316 C392.652,122.92 392.868,121.696 392.976,119.68 L396.576,120.868 C396.252,123.964 395.712,125.8 394.956,126.376 C394.236,126.916 393.156,127.204 391.716,127.204 Z M387.432,115.648 C389.088,117.448 390.42,118.996 391.356,120.328 L388.512,122.272 C387.576,120.832 386.28,119.176 384.66,117.376 L387.432,115.648 Z M398.88,116.368 C400.968,119.176 402.552,121.624 403.704,123.712 L400.68,125.8 C399.528,123.532 397.944,121.012 395.928,118.204 L398.88,116.368 Z M419.768,99.34 L423.116,99.772 C422.9,100.276 422.684,100.78 422.432,101.248 L431.612,101.248 L431.612,103.732 C430.748,105.424 429.38,106.936 427.58,108.268 C429.776,109.204 432.224,109.96 434.96,110.572 L433.016,113.38 C429.74,112.516 426.896,111.436 424.484,110.14 C421.784,111.508 418.472,112.624 414.512,113.488 L412.892,110.5 C416.24,109.96 419.084,109.24 421.46,108.304 C420.452,107.584 419.516,106.828 418.724,106.036 C417.752,106.9 416.672,107.692 415.52,108.412 L413.468,105.676 C416.564,103.948 418.688,101.824 419.768,99.34 Z M424.556,106.792 C425.924,105.928 427.04,104.956 427.868,103.912 L420.704,103.912 C420.668,103.948 420.632,103.984 420.632,104.02 C421.784,105.028 423.08,105.964 424.556,106.792 Z M417.68,116.512 C422.396,117.34 426.932,118.492 431.288,120.004 L430.064,123.064 C425.6,121.444 420.992,120.184 416.204,119.284 L417.68,116.512 Z M421.28,111.688 C424.196,112.516 426.86,113.488 429.272,114.64 L427.544,117.304 C424.952,115.936 422.324,114.892 419.624,114.136 L421.28,111.688 Z M438.992,95.668 L438.992,127.744 L435.32,127.744 L435.32,126.556 L412.28,126.556 L412.28,127.744 L408.608,127.744 L408.608,95.668 L438.992,95.668 Z M412.28,123.244 L435.32,123.244 L435.32,98.98 L412.28,98.98 L412.28,123.244 Z M448.684,102.148 C448.108,103.444 447.424,104.488 446.668,105.352 L443.608,103.192 C445.264,101.356 446.344,98.8 446.812,95.524 L450.34,96.1 C450.196,97.036 450.016,97.9 449.8,98.692 L452.68,98.692 L452.68,94.516 L456.424,94.516 L456.424,98.692 L462.724,98.692 L462.724,102.148 L456.424,102.148 L456.424,105.676 L463.768,105.676 L463.768,109.168 L456.424,109.168 L456.424,111.904 L463.336,111.904 L463.336,121.552 C463.336,124 462.04,125.26 459.484,125.26 L457.756,125.26 L456.82,121.768 L458.332,121.948 C459.268,121.948 459.772,121.552 459.772,120.76 L459.772,115.36 L456.424,115.36 L456.424,127.744 L452.68,127.744 L452.68,115.36 L449.368,115.36 L449.368,125.512 L445.732,125.512 L445.732,111.904 L452.68,111.904 L452.68,109.168 L444.4,109.168 L444.4,105.676 L452.68,105.676 L452.68,102.148 L448.684,102.148 Z M465.316,97.792 L468.952,97.792 L468.952,119.752 L465.316,119.752 L465.316,97.792 Z M472.372,127.42 L467.008,127.42 L466.18,123.856 C467.908,124 469.528,124.072 471.076,124.072 C471.94,124.072 472.372,123.604 472.372,122.668 L472.372,94.552 L476.116,94.552 L476.116,123.64 C476.116,126.16 474.856,127.42 472.372,127.42 Z M497.328,102.796 C495.672,106.252 493.836,109.204 491.82,111.652 L489.12,108.412 C492,105.028 494.52,100.276 496.68,94.084 L500.496,94.948 C499.992,96.388 499.488,97.756 498.984,99.088 L513.492,99.088 L513.492,102.796 L502.188,102.796 L502.188,107.584 L512.124,107.584 L512.124,111.256 L502.188,111.256 L502.188,116.188 L512.124,116.188 L512.124,119.824 L502.188,119.824 L502.188,127.852 L498.372,127.852 L498.372,102.796 L497.328,102.796 Z M484.728,109.024 C483.756,110.176 482.748,111.292 481.668,112.372 L480.408,108.34 C484.044,104.344 486.744,99.628 488.508,94.228 L492.072,95.884 C491.172,98.584 489.984,101.176 488.544,103.624 L488.544,127.852 L484.728,127.852 L484.728,109.024 Z M525.488,105.784 L529.232,105.784 L529.232,127.852 L517.28,127.852 L517.28,124.504 L525.488,124.504 L525.488,105.784 Z M128.914,155.68 L124.126,155.68 L124.126,152.044 L137.482,152.044 L137.482,155.68 L132.694,155.68 L132.694,170.764 C134.422,170.26 136.15,169.684 137.878,169.036 L137.878,172.816 C133.738,174.256 129.346,175.516 124.666,176.524 L123.694,172.708 C125.422,172.42 127.186,172.096 128.914,171.736 L128.914,155.68 Z M143.35,148.516 L147.166,148.516 L147.166,155.392 L156.13,155.392 C156.13,167.38 155.95,174.796 155.59,177.604 C155.122,180.196 153.034,181.492 149.326,181.492 C148.678,181.492 147.49,181.42 145.834,181.312 L144.934,177.784 C146.374,177.892 147.634,177.964 148.678,177.964 C150.622,177.964 151.774,177.208 152.062,175.768 C152.278,174.148 152.386,168.568 152.458,159.064 L147.166,159.064 L147.166,159.28 C147.022,169.648 144.25,177.244 138.814,182.068 L135.718,179.368 C140.722,175.192 143.278,168.496 143.35,159.28 L143.35,159.064 L138.058,159.064 L138.058,155.392 L143.35,155.392 L143.35,148.516 Z M166.326,169.72 L166.326,172.06 L173.382,172.06 L173.382,169.72 L166.326,169.72 Z M173.382,166.624 L173.382,164.14 L166.326,164.14 L166.326,166.624 L173.382,166.624 Z M166.326,175.156 L166.326,181.816 L162.69,181.816 L162.69,160.9 L177.018,160.9 L177.018,177.604 C177.018,180.232 175.794,181.564 173.346,181.564 L170.574,181.564 L169.638,178.072 L172.158,178.252 C172.95,178.252 173.382,177.748 173.382,176.812 L173.382,175.156 L166.326,175.156 Z M189.186,164.5 L183.318,164.5 C180.69,164.5 179.394,163.024 179.394,160.108 L179.394,148.588 L183.102,148.588 L183.102,152.692 C186.702,152.116 189.654,151.54 191.958,150.928 L193.182,154.24 C190.23,154.888 186.882,155.5 183.102,156.076 L183.102,159.352 C183.102,160.504 183.498,161.116 184.362,161.116 L188.466,161.116 C188.97,161.116 189.33,160.936 189.582,160.576 C189.834,160.18 190.014,159.028 190.086,157.084 L193.578,158.236 C193.29,161.26 192.822,163.096 192.174,163.672 C191.526,164.212 190.518,164.5 189.186,164.5 Z M183.102,172.852 L183.102,176.956 C183.102,177.568 183.498,177.892 184.326,177.892 L188.466,177.892 C188.97,177.892 189.366,177.712 189.582,177.352 C189.87,176.956 190.05,175.804 190.158,173.86 L193.578,174.94 C193.29,178 192.786,179.8 192.138,180.376 C191.49,180.916 190.518,181.204 189.186,181.204 L183.282,181.204 C180.69,181.204 179.394,180.052 179.394,177.784 L179.394,165.688 L183.102,165.688 L183.102,169.468 C186.414,169.108 189.366,168.532 191.958,167.74 L193.182,171.088 C190.05,171.916 186.702,172.492 183.102,172.852 Z M174.462,150.928 C176.55,153.772 178.134,156.22 179.286,158.308 L176.19,160.504 C175.83,159.784 175.434,159.028 175.038,158.272 C171.294,158.848 166.83,159.316 161.682,159.604 L160.674,156.472 C161.322,156.256 161.898,155.968 162.366,155.536 C164.526,153.016 166.11,150.604 167.19,148.372 L170.79,149.452 C169.35,152.26 167.73,154.528 165.894,156.292 C168.27,156.148 170.79,155.896 173.454,155.608 C172.878,154.672 172.23,153.736 171.582,152.764 L174.462,150.928 Z M203.018,172.564 C203.99,172.564 204.818,172.96 205.466,173.752 C206.078,174.544 206.402,175.588 206.402,176.848 C206.402,178.756 205.826,180.412 204.746,181.852 C203.63,183.256 202.118,184.228 200.246,184.768 L200.246,182.392 C201.218,182.032 202.046,181.456 202.73,180.664 C203.378,179.8 203.666,178.972 203.666,178.108 C203.45,178.18 203.162,178.252 202.766,178.252 C201.974,178.252 201.326,177.964 200.786,177.424 C200.246,176.884 199.994,176.2 199.994,175.408 C199.994,174.544 200.282,173.86 200.858,173.356 C201.398,172.816 202.118,172.564 203.018,172.564 Z M254.362,148.444 L257.998,148.444 L257.998,150.424 L266.53,150.424 L266.53,153.448 L257.998,153.448 L257.998,154.96 L265.27,154.96 L265.27,157.912 L257.998,157.912 L257.998,159.46 L267.394,159.46 L267.394,162.556 L245.074,162.556 L245.074,159.46 L254.362,159.46 L254.362,157.912 L247.594,157.912 L247.594,154.96 L254.362,154.96 L254.362,153.448 L246.082,153.448 L246.082,150.424 L254.362,150.424 L254.362,148.444 Z M251.086,171.628 L251.086,173.392 L261.382,173.392 L261.382,171.628 L251.086,171.628 Z M261.382,168.82 L261.382,167.02 L251.086,167.02 L251.086,168.82 L261.382,168.82 Z M251.086,176.236 L251.086,181.744 L247.558,181.744 L247.558,163.996 L264.982,163.996 L264.982,178.036 C264.982,180.34 263.794,181.528 261.454,181.528 L258.466,181.528 L257.566,178.252 L260.41,178.396 C261.058,178.396 261.382,178 261.382,177.244 L261.382,176.236 L251.086,176.236 Z M239.242,148.696 C241.51,150.424 243.454,152.188 245.074,153.916 L242.482,156.508 C241.114,154.852 239.134,153.124 236.578,151.252 L239.242,148.696 Z M234.13,159.064 L242.554,159.064 L242.554,173.752 C243.418,172.924 244.282,172.024 245.182,171.088 L246.19,175.048 C244.03,177.172 241.762,179.08 239.386,180.772 L237.982,177.388 C238.594,176.848 238.918,176.164 238.918,175.372 L238.918,162.664 L234.13,162.664 L234.13,159.064 Z M282.558,153.556 L291.63,153.556 C290.91,152.008 290.082,150.532 289.182,149.092 L292.818,148.084 C293.934,150.064 294.834,151.9 295.482,153.556 L304.446,153.556 L304.446,157.192 L292.746,157.192 C292.674,158.524 292.602,160.252 292.53,162.34 L302.358,162.34 C302.214,171.124 301.854,176.56 301.278,178.72 C300.594,180.52 299.082,181.456 296.706,181.492 C295.518,181.492 294.15,181.42 292.638,181.312 L291.522,177.928 C293.394,178.036 294.978,178.108 296.274,178.108 C297.282,178.072 297.93,177.532 298.218,176.488 C298.434,175.192 298.542,171.664 298.614,165.904 L292.206,165.904 C291.846,168.64 291.162,171.124 290.226,173.428 C288.894,176.524 287.022,179.368 284.646,181.96 L281.874,179.332 C284.61,176.164 286.446,173.212 287.31,170.548 C288.174,167.884 288.642,164.896 288.786,161.548 C288.858,159.712 288.894,158.272 288.93,157.192 L282.558,157.192 L282.558,153.556 Z M275.826,148.876 C278.13,150.64 280.11,152.368 281.694,154.096 L279.102,156.724 C277.734,155.032 275.754,153.232 273.234,151.36 L275.826,148.876 Z M271.038,159.136 L279.354,159.136 L279.354,173.932 C280.326,173.032 281.334,172.06 282.414,171.016 L283.458,174.94 C281.154,177.1 278.742,179.044 276.186,180.772 L274.746,177.388 C275.358,176.812 275.682,176.128 275.682,175.3 L275.682,162.736 L271.038,162.736 L271.038,159.136 Z M334.694,181.528 L331.13,181.528 L330.122,178 L333.974,178.108 C335.162,178.108 335.774,177.46 335.774,176.2 L335.774,153.808 L322.31,153.808 L322.31,150.172 L339.59,150.172 L339.59,177.208 C339.59,180.088 337.934,181.528 334.694,181.528 Z M309.278,154.384 L313.094,154.384 L313.094,181.816 L309.278,181.816 L309.278,154.384 Z M317.306,159.208 L331.418,159.208 L331.418,173.86 L317.306,173.86 L317.306,159.208 Z M327.638,170.224 L327.638,162.772 L321.086,162.772 L321.086,170.224 L327.638,170.224 Z M315.83,148.048 C317.45,149.992 318.89,152.152 320.15,154.456 L316.766,156.22 C315.434,153.7 313.958,151.504 312.374,149.596 L315.83,148.048 Z M345.754,152.296 L356.41,152.296 C362.602,152.296 365.734,154.924 365.734,160.18 C365.734,165.472 362.602,168.136 356.338,168.136 L349.966,168.136 L349.966,178 L345.754,178 L345.754,152.296 Z M349.966,155.896 L349.966,164.536 L356.086,164.536 C357.958,164.536 359.326,164.176 360.19,163.528 C361.054,162.844 361.486,161.728 361.486,160.18 C361.486,158.632 361.018,157.552 360.154,156.904 C359.29,156.22 357.922,155.896 356.086,155.896 L349.966,155.896 Z M381.294,151.792 C384.318,151.792 386.838,152.584 388.782,154.168 C390.654,155.68 391.77,157.768 392.166,160.36 L388.062,160.36 C387.63,158.668 386.838,157.444 385.65,156.652 C384.498,155.86 383.022,155.5 381.222,155.5 C378.522,155.5 376.506,156.4 375.138,158.272 C373.878,159.928 373.266,162.232 373.266,165.184 C373.266,168.208 373.878,170.548 375.102,172.168 C376.434,173.896 378.522,174.796 381.33,174.796 C383.166,174.796 384.678,174.328 385.83,173.464 C387.054,172.492 387.918,171.016 388.422,169.072 L392.526,169.072 C391.95,172.096 390.618,174.436 388.494,176.128 C386.514,177.712 384.138,178.504 381.366,178.504 C377.082,178.504 373.878,177.136 371.79,174.472 C369.954,172.168 369.054,169.072 369.054,165.184 C369.054,161.368 369.99,158.236 371.898,155.86 C374.058,153.124 377.19,151.792 381.294,151.792 Z M396.17,154.06 L400.418,154.06 C399.986,152.404 399.482,150.892 398.942,149.488 L402.686,148.876 C403.118,150.388 403.55,152.116 403.982,154.06 L407.834,154.06 L407.834,157.588 L396.17,157.588 L396.17,154.06 Z M399.986,159.064 C400.562,163.096 401.066,167.776 401.534,173.032 L398.546,173.752 C398.114,169 397.538,164.464 396.89,160.072 L399.986,159.064 Z M407.654,173.068 L407.654,176.668 C404.342,177.82 400.778,178.828 396.998,179.656 L396.026,175.984 C398.114,175.66 400.166,175.228 402.182,174.724 C402.83,169.684 403.334,164.392 403.658,158.776 L407.006,159.244 C406.61,164.5 406.034,169.36 405.314,173.824 L407.654,173.068 Z M424.034,154.996 L424.034,149.92 L427.598,149.92 L427.598,158.272 L409.67,158.272 L409.67,149.92 L413.27,149.92 L413.27,154.996 L416.762,154.996 L416.762,148.516 L420.434,148.516 L420.434,154.996 L424.034,154.996 Z M408.518,160.324 L429.002,160.324 L429.002,163.78 L420.002,163.78 C419.786,164.644 419.57,165.472 419.282,166.264 L428.282,166.264 L428.282,178.468 C428.282,180.556 427.382,181.6 425.582,181.6 L423.962,181.6 L423.062,178.288 L424.502,178.396 C424.79,178.396 424.97,178.18 424.97,177.784 L424.97,169.576 L422.774,169.576 L422.774,180.952 L419.678,180.952 L419.678,169.576 L417.77,169.576 L417.77,180.988 L414.674,180.988 L414.674,169.576 L412.586,169.576 L412.586,181.6 L409.202,181.6 L409.202,166.264 L415.61,166.264 C415.898,165.436 416.114,164.608 416.294,163.78 L408.518,163.78 L408.518,160.324 Z" id="体验「数据可视化与信息图制作」功能，请访问PC端" fill="#113987" fill-rule="nonzero"></path>
                    </g>
                </g>
            </g>
        </g>
    </g>
</svg>