<?xml version="1.0" encoding="UTF-8"?>
<svg width="281px" height="189px" viewBox="0 0 281 189" version="1.1" xmlns="http://www.w3.org/2000/svg" xmlns:xlink="http://www.w3.org/1999/xlink">
    <title>编组</title>
    <g id="页面-1" stroke="none" stroke-width="1" fill="none" fill-rule="evenodd">
        <g id="拖拽上传1" transform="translate(-500.000000, -328.000000)">
            <g id="编组" transform="translate(500.000000, 328.000000)">
                <g id="文件拖拽上传2" transform="translate(83.000000, 0.000000)">
                    <rect id="矩形" fill="#476579" transform="translate(78.500000, 42.000000) rotate(16.000000) translate(-78.500000, -42.000000) " x="51.5" y="7" width="54" height="70" rx="4"></rect>
                    <rect id="矩形" fill="#72C99B" transform="translate(36.423887, 41.883490) rotate(-16.000000) translate(-36.423887, -41.883490) " x="9.42388695" y="6.88349032" width="54" height="70" rx="4"></rect>
                    <path d="M75,84.7015495 C74.3615199,88.721157 73.3615199,91.721157 72,93.7015495 C70.6384801,95.681942 67.9718135,98.0152754 64,100.701549 L64,100.701549 L49,100.701549 C45,99.7015495 30,84.7015495 30,79.7015495 C30,74.7015495 30.6888126,72.1808746 32.4169312,71 C34.1450498,69.8191254 33.9085439,73.7374191 35.4169312,76 C36.4225227,77.5083873 37.2835457,77.7422371 38,76.7015495 L38,76.7015495 L38,59.2015495 C38,57.2685529 39.5670034,55.7015495 41.5,55.7015495 C43.4329966,55.7015495 45,57.2685529 45,59.2015495 L44.9994651,65.9587431 C45.3218499,65.8617971 45.6553615,65.7760659 46,65.7015495 C46.478559,65.5980773 47.0111594,65.4957789 47.5939606,65.3987016 L47.9995117,65.3332986 L47.9995117,65.3332986 L48,55.2015495 C48,53.2685529 49.5670034,51.7015495 51.5,51.7015495 C53.4329966,51.7015495 55,53.2685529 55,55.2015495 L54.9998431,64.7509692 C55.9570066,64.7328011 56.9587251,64.7370533 57.9999905,64.7690033 L58,57.2015495 C58,55.2685529 59.5670034,53.7015495 61.5,53.7015495 C63.4329966,53.7015495 65,55.2685529 65,57.2015495 L64.9998923,65.3802771 C65.6579086,65.4751189 66.3248973,65.5819083 67,65.7015495 C67.3109927,65.7566634 67.6443036,65.8304061 67.9999326,65.9227776 L68,63.2015495 C68,61.2685529 69.5670034,59.7015495 71.5,59.7015495 C73.4329966,59.7015495 75,61.2685529 75,63.2015495 Z" id="形状结合" fill="#FFFFFF"></path>
                    <path d="M20.535,44 L20.535,42.605 L14.22,42.605 L14.22,39.2 L19.92,39.2 L19.92,37.805 L14.22,37.805 L14.22,34.685 L20.28,34.685 L20.28,33.29 L12.585,33.29 L12.585,44 L20.535,44 Z M23.22,44 L26.085,39.755 L28.95,44 L30.945,44 L27.06,38.465 L30.69,33.29 L28.695,33.29 L26.085,37.16 L23.475,33.29 L21.48,33.29 L25.08,38.465 L21.225,44 L23.22,44 Z M36.735,44.21 C37.89,44.21 38.88,43.88 39.705,43.22 C40.59,42.515 41.145,41.54 41.385,40.295 L39.795,40.295 C39.585,41.135 39.21,41.765 38.67,42.185 C38.16,42.575 37.5,42.77 36.72,42.77 C35.52,42.77 34.635,42.395 34.065,41.645 C33.525,40.94 33.255,39.95 33.255,38.66 C33.255,37.415 33.525,36.425 34.08,35.705 C34.665,34.91 35.535,34.52 36.69,34.52 C37.47,34.52 38.1,34.685 38.61,35.03 C39.12,35.375 39.465,35.915 39.645,36.635 L41.235,36.635 C41.07,35.555 40.59,34.685 39.81,34.055 C39,33.395 37.965,33.08 36.72,33.08 C35.01,33.08 33.72,33.635 32.82,34.775 C32.01,35.78 31.62,37.07 31.62,38.66 C31.62,40.28 31.995,41.57 32.775,42.53 C33.66,43.64 34.98,44.21 36.735,44.21 Z M50.985,44 L50.985,42.605 L44.67,42.605 L44.67,39.2 L50.37,39.2 L50.37,37.805 L44.67,37.805 L44.67,34.685 L50.73,34.685 L50.73,33.29 L43.035,33.29 L43.035,44 L50.985,44 Z M60.165,44 L60.165,42.605 L54.27,42.605 L54.27,33.29 L52.65,33.29 L52.65,44 L60.165,44 Z" id="EXCEL" fill="#FFFFFF" fill-rule="nonzero" transform="translate(36.375000, 38.645000) rotate(-16.000000) translate(-36.375000, -38.645000) "></path>
                    <path d="M69.975,44.21 C71.13,44.21 72.12,43.88 72.945,43.22 C73.83,42.515 74.385,41.54 74.625,40.295 L73.035,40.295 C72.825,41.135 72.45,41.765 71.91,42.185 C71.4,42.575 70.74,42.77 69.96,42.77 C68.76,42.77 67.875,42.395 67.305,41.645 C66.765,40.94 66.495,39.95 66.495,38.66 C66.495,37.415 66.765,36.425 67.32,35.705 C67.905,34.91 68.775,34.52 69.93,34.52 C70.71,34.52 71.34,34.685 71.85,35.03 C72.36,35.375 72.705,35.915 72.885,36.635 L74.475,36.635 C74.31,35.555 73.83,34.685 73.05,34.055 C72.24,33.395 71.205,33.08 69.96,33.08 C68.25,33.08 66.96,33.635 66.06,34.775 C65.25,35.78 64.86,37.07 64.86,38.66 C64.86,40.28 65.235,41.57 66.015,42.53 C66.9,43.64 68.22,44.21 69.975,44.21 Z M80.19,44.21 C81.54,44.21 82.59,43.94 83.34,43.4 C84.09,42.845 84.465,42.095 84.465,41.135 C84.465,40.145 84,39.38 83.085,38.825 C82.665,38.57 81.72,38.225 80.28,37.775 C79.275,37.475 78.66,37.25 78.42,37.115 C77.88,36.83 77.625,36.455 77.625,35.975 C77.625,35.435 77.85,35.045 78.315,34.805 C78.69,34.595 79.23,34.49 79.935,34.49 C80.745,34.49 81.345,34.64 81.765,34.955 C82.185,35.255 82.455,35.765 82.605,36.455 L84.225,36.455 C84.12,35.285 83.7,34.43 82.95,33.875 C82.245,33.335 81.27,33.08 80.025,33.08 C78.885,33.08 77.94,33.335 77.19,33.845 C76.395,34.385 76.005,35.12 76.005,36.065 C76.005,36.995 76.41,37.715 77.235,38.21 C77.565,38.39 78.375,38.675 79.695,39.095 C80.88,39.455 81.585,39.695 81.825,39.815 C82.5,40.16 82.845,40.625 82.845,41.225 C82.845,41.705 82.605,42.08 82.125,42.35 C81.645,42.62 81,42.77 80.19,42.77 C79.29,42.77 78.63,42.605 78.195,42.275 C77.715,41.915 77.415,41.3 77.295,40.46 L75.675,40.46 C75.765,41.81 76.245,42.8 77.13,43.43 C77.865,43.94 78.885,44.21 80.19,44.21 Z M90.825,44 L94.665,33.29 L92.895,33.29 L89.865,42.17 L89.82,42.17 L86.775,33.29 L85.005,33.29 L88.845,44 L90.825,44 Z" id="CSV" fill="#FFFFFF" fill-rule="nonzero" transform="translate(79.762500, 38.645000) rotate(16.000000) translate(-79.762500, -38.645000) "></path>
                </g>
                <path d="M88.82,143.1 C89.66,142.1 90.44,140.9 91.14,139.54 L99.7,139.54 L99.7,137.72 L91.98,137.72 C92.22,137.16 92.44,136.56 92.66,135.92 L90.94,135.54 C90.02,138.14 88.9,140.16 87.58,141.64 L88.82,143.1 Z M84.24,153.88 C85.52,153.88 86.16,153.2 86.16,151.88 L86.16,146.5 C86.8,146.22 87.44,145.94 88.08,145.64 L88.08,143.74 C87.44,144.06 86.8,144.36 86.16,144.64 L86.16,141.1 L87.94,141.1 L87.94,139.28 L86.16,139.28 L86.16,135.66 L84.32,135.66 L84.32,139.28 L82.04,139.28 L82.04,141.1 L84.32,141.1 L84.32,145.32 C83.44,145.6 82.56,145.82 81.68,146.02 L82.16,147.94 C82.88,147.72 83.6,147.48 84.32,147.22 L84.32,151.42 C84.32,151.94 84.08,152.22 83.6,152.22 C83.12,152.22 82.64,152.16 82.12,152.08 L82.52,153.88 L84.24,153.88 Z M96.96,153.72 C98.08,153.72 98.86,153.52 99.3,153.12 C99.72,152.72 100,151.54 100.16,149.62 L98.5,149.08 C98.42,150.54 98.24,151.4 98,151.66 C97.72,151.9 97.26,152.02 96.66,152.02 L92.42,152.02 C91.92,152.02 91.68,151.68 91.68,151.02 L91.68,145.5 L93.5,144.92 L93.5,150.5 L95.18,150.5 L95.18,144.38 L97.4,143.68 C97.38,145.56 97.34,146.66 97.3,146.98 C97.24,147.3 97.06,147.48 96.78,147.48 C96.42,147.48 96.02,147.46 95.56,147.46 L96.06,149.12 L96.46,149.12 C97.86,149.12 98.64,148.72 98.84,147.96 C99.02,147.2 99.12,145.02 99.12,141.38 L95.18,142.66 L95.18,140.28 L93.5,140.28 L93.5,143.22 L91.68,143.8 L91.68,141.68 L89.98,141.68 L89.98,144.36 L88.62,144.8 L88.62,146.48 L89.98,146.04 L89.98,151.24 C89.98,152.88 90.64,153.72 92,153.72 L96.96,153.72 Z M104.38,153.84 C105.66,153.84 106.32,153.16 106.32,151.84 L106.32,146.36 C107.04,146.04 107.76,145.68 108.46,145.32 L108.46,143.48 C107.76,143.86 107.04,144.2 106.32,144.52 L106.32,140.94 L108.32,140.94 L108.32,139.12 L106.32,139.12 L106.32,135.62 L104.5,135.62 L104.5,139.12 L102.1,139.12 L102.1,140.94 L104.5,140.94 L104.5,145.22 C103.58,145.54 102.66,145.82 101.72,146.04 L102.2,147.92 C102.96,147.68 103.74,147.4 104.5,147.12 L104.5,151.38 C104.5,151.9 104.24,152.16 103.74,152.16 C103.26,152.16 102.74,152.12 102.22,152.06 L102.62,153.84 L104.38,153.84 Z M117.52,153.96 C118.7,153.96 119.6,152.72 120.22,150.26 L118.66,149.28 C118.3,151.12 117.84,152.06 117.32,152.06 C117,152.06 116.64,151.76 116.24,151.16 C116.08,150.9 115.94,150.62 115.82,150.3 C117.12,149.6 118.26,148.8 119.24,147.88 L117.8,146.84 C117.08,147.44 116.26,148.02 115.34,148.54 C115.32,148.54 115.32,148.52 115.32,148.48 C115.2,147.84 115.1,147.16 115.06,146.4 L119.12,146.4 L119.12,137.48 L114.98,137.48 L114.98,135.64 L113.18,135.64 L113.18,137.48 L109.18,137.48 L109.18,146.4 L113.24,146.4 C113.32,147.48 113.46,148.46 113.68,149.36 C111.92,150.12 109.84,150.72 107.42,151.2 L108.22,152.92 C110.5,152.44 112.52,151.8 114.28,151.04 C114.56,151.68 114.92,152.24 115.32,152.72 C116.02,153.52 116.76,153.94 117.52,153.96 Z M113.18,141.14 L110.96,141.14 L110.96,139.2 L113.18,139.2 L113.18,141.14 Z M117.34,141.14 L114.98,141.14 L114.98,139.2 L117.34,139.2 L117.34,141.14 Z M117.34,144.72 L114.98,144.72 L114.98,142.76 L117.34,142.76 L117.34,144.72 Z M113.18,144.72 L110.96,144.72 L110.96,142.76 L113.18,142.76 L113.18,144.72 Z M139.98,153.34 L139.98,151.5 L131.04,151.5 L131.04,143.46 L138.44,143.46 L138.44,141.62 L131.04,141.62 L131.04,135.6 L129.08,135.6 L129.08,151.5 L122.06,151.5 L122.06,153.34 L139.98,153.34 Z M146,154.1 L146,140.74 C146.8,139.36 147.46,137.92 147.96,136.42 L146.16,135.58 C145.18,138.62 143.66,141.26 141.62,143.54 L142.24,145.56 C142.92,144.88 143.54,144.18 144.12,143.46 L144.12,154.1 L146,154.1 Z M156.84,154.22 L157.92,152.58 C157.14,152.08 156.32,151.6 155.48,151.16 C157.16,149.86 158.38,148.58 159.18,147.3 L159.18,145.66 L151.22,145.66 C151.5,145 151.76,144.3 152.04,143.54 L160.26,143.54 L160.26,141.72 L152.64,141.72 C152.82,141.12 153,140.5 153.2,139.84 L159.44,139.84 L159.44,138 L153.68,138 C153.84,137.28 154.02,136.54 154.18,135.76 L152.32,135.58 L151.78,138 L147.94,138 L147.94,139.84 L151.32,139.84 C151.16,140.48 150.98,141.1 150.8,141.72 L147.06,141.72 L147.06,143.54 L150.22,143.54 C149.76,144.88 149.28,146.18 148.76,147.42 L157.16,147.42 C156.34,148.4 155.22,149.36 153.82,150.32 C152.7,149.8 151.54,149.3 150.34,148.86 L149.32,150.36 C151.88,151.3 154.4,152.58 156.84,154.22 Z M179.2,154.18 L180.26,152.58 C177.18,151.46 174.58,150.04 172.5,148.34 C174.38,146.28 175.8,143.74 176.76,140.7 L179.82,140.7 L179.82,138.82 L172.24,138.82 C171.62,137.5 170.94,136.36 170.22,135.4 L168.32,136.1 C169.08,136.96 169.72,137.86 170.24,138.82 L162.18,138.82 L162.18,140.7 L165.24,140.7 C166.1,143.66 167.64,146.26 169.84,148.46 C167.72,150.28 165.06,151.6 161.82,152.44 L162.84,154.12 C166.14,153.16 168.92,151.68 171.18,149.68 C173.3,151.48 175.98,152.98 179.2,154.18 Z M171.16,147.16 C169.26,145.32 167.9,143.16 167.06,140.7 L174.8,140.7 C174,143.22 172.78,145.38 171.16,147.16 Z M185.84,154.06 L185.84,140.74 C186.64,139.34 187.3,137.84 187.8,136.26 L186.02,135.44 C185.06,138.52 183.58,141.22 181.58,143.54 L182.2,145.56 C182.82,144.9 183.42,144.22 183.98,143.5 L183.98,154.06 L185.84,154.06 Z M194.98,153.98 L194.98,147.68 L200.14,147.68 L200.14,145.84 L194.98,145.84 L194.98,141.54 L199.4,141.54 L199.4,139.68 L194.98,139.68 L194.98,135.68 L193.08,135.68 L193.08,139.68 L190.68,139.68 C190.9,138.88 191.08,138.02 191.24,137.12 L189.38,136.88 C188.98,139.44 188.18,141.62 187.02,143.4 L188.24,144.98 C188.96,143.94 189.56,142.8 190.06,141.54 L193.08,141.54 L193.08,145.84 L187.4,145.84 L187.4,147.68 L193.08,147.68 L193.08,153.98 L194.98,153.98 Z" id="拖拽上传文件" fill="#FFFFFF" fill-rule="nonzero"></path>
                <path d="M1.884,185.648 C4.428,184.96 6.604,184.048 8.428,182.896 C9.228,183.408 10.124,183.872 11.1,184.288 C12.332,184.8 13.644,185.248 15.02,185.616 L15.692,184.608 C14.396,184.288 13.18,183.92 12.044,183.488 C11.084,183.104 10.204,182.672 9.404,182.224 C11.1,180.944 12.396,179.408 13.292,177.616 L13.292,176.592 L8.988,176.592 L8.988,174.144 L15.276,174.144 L15.276,173.024 L8.988,173.024 L8.988,170.928 L7.804,170.928 L7.804,173.024 L1.58,173.024 L1.58,174.144 L7.804,174.144 L7.804,176.592 L2.796,176.592 L2.796,177.664 L4.028,177.664 C4.284,178.528 4.7,179.344 5.276,180.08 C5.9,180.88 6.636,181.6 7.468,182.224 C5.74,183.248 3.66,184.048 1.228,184.624 L1.884,185.648 Z M8.412,181.6 C7.708,181.12 7.068,180.56 6.508,179.92 C5.9,179.264 5.452,178.512 5.164,177.664 L11.996,177.664 C11.164,179.2 9.964,180.512 8.412,181.6 Z M31.516,176.64 L31.516,175.552 L27.628,175.552 L27.628,173.68 L30.908,173.68 L30.908,172.64 L27.628,172.64 L27.628,170.976 L26.492,170.976 L26.492,172.64 L23.356,172.64 L23.356,173.68 L26.492,173.68 L26.492,175.552 L22.78,175.552 L22.78,176.64 L31.516,176.64 Z M19.1,185.456 C20.012,185.456 20.476,184.976 20.476,184.016 L20.476,179.472 C21.052,179.232 21.612,178.976 22.156,178.688 L22.156,177.504 C21.612,177.792 21.052,178.064 20.476,178.32 L20.476,175.104 L22.14,175.104 L22.14,174 L20.476,174 L20.476,171.136 L19.34,171.136 L19.34,174 L17.372,174 L17.372,175.104 L19.34,175.104 L19.34,178.768 C18.636,179.024 17.932,179.232 17.196,179.408 L17.484,180.56 C18.092,180.368 18.716,180.16 19.34,179.936 L19.34,183.728 C19.34,184.192 19.116,184.432 18.7,184.432 C18.3,184.432 17.884,184.4 17.452,184.352 L17.692,185.456 L19.1,185.456 Z M28.156,185.488 C29.084,185.488 29.564,185.008 29.564,184.064 L29.564,179.76 L31.532,179.76 L31.532,178.688 L29.564,178.688 L29.564,177.456 L28.412,177.456 L28.412,178.688 L22.524,178.688 L22.524,179.76 L28.412,179.76 L28.412,183.776 C28.412,184.208 28.188,184.432 27.74,184.432 C27.116,184.432 26.46,184.4 25.772,184.368 L26.028,185.488 L28.156,185.488 Z M25.196,183.728 L26.108,183.088 C25.66,182.352 25.02,181.488 24.188,180.512 L23.26,181.072 C24.076,182.048 24.716,182.928 25.196,183.728 Z M47.564,184.96 L47.564,183.84 L40.268,183.84 L40.268,176.992 L46.204,176.992 L46.204,175.872 L40.268,175.872 L40.268,170.928 L39.084,170.928 L39.084,183.84 L33.324,183.84 L33.324,184.96 L47.564,184.96 Z M52.252,185.632 L52.252,174.928 C52.892,173.824 53.404,172.656 53.82,171.424 L52.732,170.912 C51.948,173.376 50.7,175.568 49.004,177.472 L49.372,178.704 C49.996,178.064 50.572,177.376 51.1,176.672 L51.1,185.632 L52.252,185.632 Z M61.196,185.728 L61.852,184.736 C61.148,184.272 60.428,183.84 59.676,183.44 C61.148,182.32 62.22,181.2 62.892,180.08 L62.892,179.088 L56.316,179.088 C56.572,178.464 56.844,177.792 57.1,177.056 L63.788,177.056 L63.788,175.952 L57.468,175.952 C57.66,175.36 57.836,174.736 58.012,174.096 L63.132,174.096 L63.132,172.976 L58.3,172.976 C58.444,172.352 58.588,171.696 58.748,171.024 L57.628,170.912 L57.148,172.976 L54.028,172.976 L54.028,174.096 L56.876,174.096 C56.716,174.704 56.54,175.328 56.348,175.952 L53.324,175.952 L53.324,177.056 L55.996,177.056 C55.628,178.128 55.228,179.168 54.812,180.16 L61.66,180.16 C60.924,181.12 59.932,182.032 58.668,182.912 C57.74,182.464 56.78,182.048 55.788,181.664 L55.18,182.56 C57.228,183.328 59.244,184.384 61.196,185.728 Z M73.948,184 L73.948,182.864 L66.892,182.864 L66.892,178.672 L73.292,178.672 L73.292,177.536 L66.892,177.536 L66.892,173.712 L73.676,173.712 L73.676,172.576 L65.58,172.576 L65.58,184 L73.948,184 Z M76.316,184 L79.708,179.104 L83.116,184 L84.732,184 L80.492,178.064 L84.428,172.576 L82.812,172.576 L79.708,177.024 L76.62,172.576 L75.004,172.576 L78.908,178.064 L74.7,184 L76.316,184 Z M90.844,184.224 C92.06,184.224 93.116,183.872 93.996,183.184 C94.94,182.448 95.532,181.408 95.788,180.08 L94.524,180.08 C94.3,181.072 93.836,181.824 93.164,182.336 C92.524,182.816 91.756,183.056 90.844,183.056 C89.5,183.056 88.492,182.608 87.788,181.728 C87.116,180.896 86.796,179.76 86.796,178.336 C86.796,176.912 87.132,175.776 87.804,174.912 C88.524,173.984 89.548,173.52 90.876,173.52 C91.772,173.52 92.524,173.728 93.148,174.16 C93.788,174.608 94.204,175.248 94.364,176.08 L95.628,176.08 C95.468,174.944 94.956,174.032 94.092,173.36 C93.228,172.688 92.156,172.352 90.892,172.352 C89.132,172.352 87.756,172.944 86.796,174.16 C85.916,175.248 85.484,176.64 85.484,178.336 C85.484,180.032 85.9,181.408 86.764,182.464 C87.708,183.632 89.068,184.224 90.844,184.224 Z M105.98,184 L105.98,182.864 L98.924,182.864 L98.924,178.672 L105.324,178.672 L105.324,177.536 L98.924,177.536 L98.924,173.712 L105.708,173.712 L105.708,172.576 L97.612,172.576 L97.612,184 L105.98,184 Z M115.708,184 L115.708,182.864 L109.1,182.864 L109.1,172.576 L107.804,172.576 L107.804,184 L115.708,184 Z M121.244,185.68 L122.044,185.008 C121.66,184.464 121.196,183.904 120.668,183.36 C120.06,182.72 119.436,182.192 118.828,181.76 L118.108,182.432 C118.7,182.88 119.292,183.408 119.884,184.048 C120.396,184.592 120.86,185.136 121.244,185.68 Z M138.092,184.224 C139.308,184.224 140.364,183.872 141.244,183.184 C142.188,182.448 142.78,181.408 143.036,180.08 L141.772,180.08 C141.548,181.072 141.084,181.824 140.412,182.336 C139.772,182.816 139.004,183.056 138.092,183.056 C136.748,183.056 135.74,182.608 135.036,181.728 C134.364,180.896 134.044,179.76 134.044,178.336 C134.044,176.912 134.38,175.776 135.052,174.912 C135.772,173.984 136.796,173.52 138.124,173.52 C139.02,173.52 139.772,173.728 140.396,174.16 C141.036,174.608 141.452,175.248 141.612,176.08 L142.876,176.08 C142.716,174.944 142.204,174.032 141.34,173.36 C140.476,172.688 139.404,172.352 138.14,172.352 C136.38,172.352 135.004,172.944 134.044,174.16 C133.164,175.248 132.732,176.64 132.732,178.336 C132.732,180.032 133.148,181.408 134.012,182.464 C134.956,183.632 136.316,184.224 138.092,184.224 Z M148.876,184.224 C150.236,184.224 151.308,183.936 152.108,183.376 C152.908,182.8 153.308,182 153.308,181.008 C153.308,179.968 152.828,179.168 151.884,178.592 C151.404,178.304 150.412,177.936 148.908,177.488 C147.804,177.168 147.1,176.928 146.812,176.768 C146.156,176.416 145.836,175.952 145.836,175.376 C145.836,174.72 146.108,174.24 146.652,173.92 C147.132,173.632 147.788,173.504 148.636,173.504 C149.564,173.504 150.284,173.696 150.796,174.112 C151.292,174.512 151.612,175.12 151.756,175.952 L153.052,175.952 C152.94,174.752 152.508,173.84 151.74,173.232 C151.004,172.64 149.98,172.352 148.7,172.352 C147.516,172.352 146.54,172.608 145.788,173.12 C144.94,173.664 144.524,174.448 144.524,175.44 C144.524,176.4 144.956,177.136 145.836,177.648 C146.204,177.84 147.084,178.16 148.46,178.576 C149.74,178.944 150.556,179.216 150.876,179.408 C151.628,179.808 152.012,180.368 152.012,181.088 C152.012,181.696 151.724,182.176 151.148,182.528 C150.572,182.88 149.804,183.056 148.876,183.056 C147.852,183.056 147.084,182.832 146.556,182.416 C145.98,181.952 145.628,181.216 145.516,180.224 L144.22,180.224 C144.316,181.632 144.812,182.672 145.708,183.36 C146.476,183.936 147.532,184.224 148.876,184.224 Z M159.74,184 L163.964,172.576 L162.524,172.576 L158.956,182.576 L158.908,182.576 L155.34,172.576 L153.9,172.576 L158.124,184 L159.74,184 Z M178.748,185.664 L179.372,184.704 C176.812,183.76 174.684,182.576 172.988,181.136 C174.556,179.44 175.74,177.312 176.524,174.784 L179.02,174.784 L179.02,173.632 L172.908,173.632 C172.396,172.528 171.852,171.584 171.244,170.816 L170.092,171.232 C170.732,171.984 171.26,172.784 171.692,173.632 L165.068,173.632 L165.068,174.784 L167.532,174.784 C168.252,177.248 169.532,179.392 171.388,181.216 C169.66,182.784 167.452,183.92 164.764,184.64 L165.372,185.648 C168.092,184.864 170.364,183.632 172.188,181.952 C173.916,183.44 176.092,184.672 178.748,185.664 Z M172.188,180.416 C170.524,178.816 169.356,176.944 168.668,174.784 L175.324,174.784 C174.652,176.992 173.612,178.864 172.188,180.416 Z M183.74,185.616 L183.74,174.928 C184.38,173.792 184.908,172.592 185.324,171.328 L184.236,170.832 C183.468,173.328 182.252,175.552 180.556,177.472 L180.924,178.704 C181.532,178.064 182.092,177.392 182.604,176.688 L182.604,185.616 L183.74,185.616 Z M191.036,185.536 L191.036,180.384 L195.308,180.384 L195.308,179.28 L191.036,179.28 L191.036,175.424 L194.716,175.424 L194.716,174.304 L191.036,174.304 L191.036,170.976 L189.884,170.976 L189.884,174.304 L187.532,174.304 C187.756,173.6 187.932,172.832 188.06,172.032 L186.924,171.888 C186.572,174.016 185.916,175.824 184.94,177.296 L185.676,178.256 C186.268,177.424 186.764,176.48 187.164,175.424 L189.884,175.424 L189.884,179.28 L185.18,179.28 L185.18,180.384 L189.884,180.384 L189.884,185.536 L191.036,185.536 Z M197.948,186.576 C198.62,186.4 199.18,186.048 199.596,185.536 C200.012,184.992 200.22,184.368 200.22,183.664 C200.22,183.2 200.108,182.832 199.9,182.544 C199.676,182.24 199.372,182.096 199.02,182.096 C198.7,182.096 198.46,182.176 198.268,182.368 C198.076,182.544 197.98,182.784 197.98,183.088 C197.98,183.36 198.076,183.6 198.268,183.792 C198.46,183.984 198.684,184.08 198.956,184.08 C199.116,184.08 199.244,184.048 199.308,184.016 C199.308,184.4 199.196,184.752 198.956,185.088 C198.7,185.408 198.364,185.648 197.948,185.792 L197.948,186.576 Z M225.148,176.112 L225.148,171.504 L215.036,171.504 L215.036,176.112 L225.148,176.112 Z M224.044,173.392 L216.14,173.392 L216.14,172.368 L224.044,172.368 L224.044,173.392 Z M224.044,175.28 L216.14,175.28 L216.14,174.208 L224.044,174.208 L224.044,175.28 Z M219.932,185.632 L219.932,184.08 C220.252,184.016 220.572,183.968 220.86,183.92 L220.86,183.008 C220.572,183.056 220.252,183.104 219.932,183.152 L219.932,178.096 L227.116,178.096 L227.116,177.168 L213.004,177.168 L213.004,178.096 L214.54,178.096 L214.54,183.632 L213.052,183.696 L213.196,184.688 C215.42,184.56 217.292,184.4 218.812,184.224 L218.812,185.632 L219.932,185.632 Z M218.812,179.296 L215.58,179.296 L215.58,178.096 L218.812,178.096 L218.812,179.296 Z M226.54,185.616 L227.132,184.656 C226.14,184.24 225.308,183.776 224.604,183.248 C225.372,182.352 225.916,181.296 226.22,180.064 L226.22,179.168 L220.764,179.168 L220.764,180.112 L221.276,180.112 C221.596,181.28 222.188,182.32 223.084,183.248 C222.396,183.824 221.564,184.304 220.604,184.72 L221.196,185.616 C222.236,185.168 223.132,184.624 223.868,183.984 C224.588,184.576 225.484,185.12 226.54,185.616 Z M223.788,182.56 C223.052,181.84 222.556,181.024 222.268,180.112 L225.18,180.112 C224.892,181.008 224.428,181.824 223.788,182.56 Z M218.812,181.36 L215.58,181.36 L215.58,180.16 L218.812,180.16 L218.812,181.36 Z M215.58,183.584 L215.58,182.208 L218.812,182.208 L218.812,183.296 C217.852,183.408 216.764,183.504 215.58,183.584 Z M229.42,185.648 C232.828,183.872 235.036,181.04 236.028,177.152 C237.228,180.768 239.436,183.552 242.652,185.536 L243.372,184.608 C240.092,182.656 237.884,179.872 236.764,176.256 L243.068,176.256 L243.068,175.136 L236.428,175.136 C236.556,174.144 236.636,173.104 236.636,171.984 L236.636,170.944 L235.452,170.944 L235.452,172.24 C235.436,173.248 235.372,174.208 235.244,175.136 L229.02,175.136 L229.02,176.256 L235.052,176.256 C234.22,180.192 232.108,183.008 228.7,184.688 L229.42,185.648 Z M245.516,185.536 C247.692,184.464 249.244,182.976 250.188,181.072 C250.844,179.696 251.292,178.016 251.548,176 L257.084,176 C257.084,178.048 257.02,179.952 256.892,181.696 C256.764,183.424 256.236,184.336 255.34,184.4 C254.668,184.4 253.932,184.368 253.116,184.304 L253.42,185.424 C253.964,185.456 254.62,185.488 255.404,185.488 C256.476,185.488 257.228,184.864 257.644,183.616 C258.044,182.368 258.252,179.456 258.252,174.88 L251.66,174.88 C251.708,174.224 251.74,173.536 251.756,172.832 L251.756,170.928 L250.62,170.928 L250.62,172.832 C250.604,173.536 250.572,174.208 250.524,174.88 L245.42,174.88 L245.42,176 L250.396,176 C250.188,177.6 249.836,178.992 249.34,180.176 C248.508,181.984 247.004,183.424 244.86,184.512 L245.516,185.536 Z M248.252,174.496 L249.148,173.872 C248.636,173.136 247.916,172.288 246.988,171.328 L246.108,171.952 C246.972,172.848 247.692,173.696 248.252,174.496 Z M254.268,182.08 L255.276,181.376 C254.652,180.448 253.772,179.344 252.62,178.08 L251.692,178.656 C252.78,179.904 253.628,181.056 254.268,182.08 Z M264.748,184 L264.748,172.576 L263.724,172.576 C263.34,173.008 262.892,173.392 262.348,173.744 C261.804,174.064 261.26,174.288 260.748,174.432 L260.748,175.744 C261.82,175.424 262.716,174.912 263.436,174.176 L263.436,184 L264.748,184 Z M268.924,184 L268.924,174.912 L268.972,174.912 L272.924,184 L274.108,184 L278.06,174.912 L278.108,174.912 L278.108,184 L279.42,184 L279.42,172.576 L277.788,172.576 L273.548,182.32 L273.5,182.32 L269.244,172.576 L267.612,172.576 L267.612,184 L268.924,184 Z" id="支持上传EXCEL、CSV文件，最大为1M" fill="#FFFFFF" fill-rule="nonzero"></path>
            </g>
        </g>
    </g>
</svg>