<?xml version="1.0" encoding="UTF-8"?>
<svg width="72px" height="55px" viewBox="0 0 72 55" version="1.1" xmlns="http://www.w3.org/2000/svg" xmlns:xlink="http://www.w3.org/1999/xlink">
    <title>二维码失效</title>
    <g id="页面-1" stroke="none" stroke-width="1" fill="none" fill-rule="evenodd">
        <g id="我的上传-手机扫码上传/批量删除" transform="translate(-384.000000, -375.000000)" fill-rule="nonzero">
            <g id="二维码失效" transform="translate(331.000000, 334.000000)">
                <g transform="translate(53.636000, 41.000000)">
                    <path d="M9.624,45.38 L9.624,44.528 L1.104,44.528 L1.104,45.38 L9.624,45.38 Z M10.716,52.952 L10.716,52.076 L-9.9475983e-14,52.076 L-9.9475983e-14,52.952 L10.716,52.952 Z M12.444,51.2 C13.524,51.02 14.652,50.684 15.828,50.204 L15.828,49.412 C15.036,49.76 14.256,50.024 13.464,50.216 C14.124,49.328 14.952,47.852 15.96,45.788 L15.204,45.5 C14.976,45.992 14.76,46.46 14.544,46.916 C14.04,47.024 13.536,47.108 13.044,47.18 C13.62,46.256 14.196,45.02 14.76,43.484 L13.932,43.16 C13.488,44.576 12.972,45.836 12.372,46.94 C12.264,47.096 12.144,47.204 12.012,47.264 L12.228,48.056 C12.876,47.948 13.512,47.828 14.136,47.708 C13.536,48.86 13.02,49.688 12.6,50.168 C12.492,50.264 12.36,50.348 12.204,50.408 L12.444,51.2 Z M17.784,54.176 L17.784,53.552 L22.896,53.552 L22.896,52.748 L20.748,52.748 L20.748,50.924 L22.452,50.924 L22.452,50.132 L20.748,50.132 L20.748,48.5 L22.452,48.5 L22.452,47.696 L20.748,47.696 L20.748,46.064 L22.656,46.064 L22.656,45.248 L20.484,45.248 L20.808,45.128 C20.652,44.528 20.436,43.88 20.172,43.16 L19.332,43.388 C19.596,43.988 19.824,44.612 20.016,45.248 L17.832,45.248 C18.072,44.648 18.264,44.036 18.432,43.388 L17.604,43.22 C17.208,44.9 16.536,46.436 15.588,47.852 L15.852,48.728 C16.248,48.2 16.608,47.66 16.944,47.084 L16.944,54.176 L17.784,54.176 Z M19.908,47.696 L17.784,47.696 L17.784,46.064 L19.908,46.064 L19.908,47.696 Z M19.908,50.132 L17.784,50.132 L17.784,48.5 L19.908,48.5 L19.908,50.132 Z M19.908,52.748 L17.784,52.748 L17.784,50.924 L19.908,50.924 L19.908,52.748 Z M12.048,53.744 C13.56,53.456 14.916,53.084 16.104,52.628 L16.104,51.8 C14.916,52.256 13.524,52.616 11.94,52.88 L12.048,53.744 Z M31.98,54.128 C33.036,54.128 33.72,53.9 34.056,53.468 C34.368,53.012 34.536,51.344 34.536,48.44 L33.264,48.44 L33.924,43.7 L28.764,43.7 L28.764,44.516 L32.988,44.516 L32.388,48.44 L29.844,48.44 L30.372,45.416 L29.52,45.356 L28.872,49.244 L33.72,49.244 C33.72,51.164 33.624,52.328 33.432,52.736 C33.252,53.12 32.7,53.324 31.776,53.324 C31.56,53.324 31.188,53.3 30.66,53.252 L30.9,54.092 C31.284,54.116 31.644,54.128 31.98,54.128 Z M25.812,53.804 L25.812,52.892 L27.108,52.892 L27.108,53.576 L27.9,53.576 L27.9,47.408 L25.692,47.408 C26.004,46.568 26.232,45.668 26.4,44.708 L28.212,44.708 L28.212,43.868 L24.12,43.868 L24.12,44.708 L25.584,44.708 C25.296,46.496 24.696,48.092 23.784,49.484 L24.216,50.18 C24.504,49.772 24.768,49.352 25.008,48.92 L25.008,53.804 L25.812,53.804 Z M27.108,52.112 L25.812,52.112 L25.812,48.2 L27.108,48.2 L27.108,52.112 Z M32.892,51.584 L32.892,50.768 L28.5,50.768 L28.5,51.584 L32.892,51.584 Z M44.94,53.816 C45.444,53.792 45.84,53.66 46.104,53.408 C46.392,53.096 46.596,52.208 46.716,50.72 L45.876,50.456 C45.804,51.776 45.648,52.544 45.408,52.76 C45.228,52.904 44.988,52.976 44.7,52.976 L38.676,52.976 C38.124,52.976 37.848,52.7 37.848,52.172 L37.848,48.632 L45.384,48.632 L45.384,43.832 L36.504,43.832 L36.504,44.672 L44.508,44.672 L44.508,47.804 L37.848,47.804 L37.848,46.028 L36.984,46.028 L36.984,52.328 C36.984,53.312 37.464,53.816 38.436,53.816 L44.94,53.816 Z M48.372,54.176 C50.268,53.564 51.624,52.712 52.452,51.62 C52.872,51.044 53.196,50.36 53.424,49.568 C54.072,51.512 55.704,53.036 58.32,54.164 L58.8,53.408 C56.292,52.448 54.744,51.104 54.156,49.376 L58.62,49.376 L58.62,48.548 L53.664,48.548 C53.748,48.044 53.796,47.504 53.82,46.928 L53.82,46.148 L57.84,46.148 L57.84,45.308 L53.82,45.308 L53.82,43.208 L52.932,43.208 L52.932,45.308 L50.508,45.308 C50.736,44.828 50.952,44.312 51.144,43.76 L50.34,43.448 C49.8,45.056 48.996,46.34 47.916,47.3 L48.648,47.936 C49.164,47.456 49.632,46.856 50.064,46.148 L52.932,46.148 L52.932,46.928 C52.908,47.504 52.86,48.044 52.764,48.548 L48.12,48.548 L48.12,49.376 L52.584,49.376 C52.404,49.988 52.152,50.54 51.84,51.02 C51.096,52.016 49.776,52.82 47.904,53.444 L48.372,54.176 Z M65.568,45.296 L65.568,44.468 L63.312,44.468 C63.132,43.964 62.952,43.52 62.772,43.112 L61.872,43.256 C62.088,43.628 62.292,44.036 62.472,44.468 L60.012,44.468 L60.012,45.296 L65.568,45.296 Z M65.04,54.224 C66.24,53.54 67.224,52.676 67.98,51.644 C68.652,52.724 69.468,53.576 70.428,54.188 L70.932,53.432 C69.972,52.844 69.144,51.992 68.46,50.888 C69.24,49.52 69.66,47.888 69.732,45.98 L70.752,45.98 L70.752,45.14 L67.38,45.14 C67.512,44.564 67.632,43.952 67.728,43.28 L66.864,43.136 C66.576,45.38 66,47.156 65.16,48.476 L65.712,49.136 C65.952,48.776 66.192,48.392 66.408,47.96 C66.708,49.016 67.08,49.976 67.524,50.84 C66.816,51.908 65.82,52.772 64.548,53.444 L65.04,54.224 Z M64.74,48.08 L65.304,47.504 C64.668,46.736 64.116,46.16 63.636,45.776 L63.108,46.292 C63.648,46.796 64.188,47.384 64.74,48.08 Z M60.528,49.088 C61.212,48.272 61.812,47.324 62.328,46.22 L61.584,45.848 C61.092,46.916 60.504,47.828 59.832,48.584 L60.528,49.088 Z M67.992,50.024 C67.536,49.112 67.164,48.044 66.876,46.82 C66.972,46.556 67.056,46.268 67.152,45.98 L68.94,45.98 C68.892,47.504 68.568,48.848 67.992,50.024 Z M60.312,54.104 C61.464,53.444 62.4,52.544 63.144,51.416 C63.552,51.848 63.984,52.316 64.416,52.832 L65.028,52.148 C64.572,51.62 64.092,51.116 63.588,50.624 C63.912,50 64.188,49.304 64.404,48.56 L63.66,48.248 C63.468,48.872 63.228,49.46 62.952,50.012 C62.496,49.592 62.028,49.184 61.536,48.8 L60.996,49.412 C61.5,49.82 62.016,50.276 62.52,50.78 C61.812,51.872 60.9,52.724 59.784,53.336 L60.312,54.104 Z" id="二维码已失效" fill="#FF6363"></path>
                    <path d="M36.004,29.28 C27.952,29.28 21.364,22.692 21.364,14.64 C21.364,6.588 27.952,-1.27897692e-13 36.004,-1.27897692e-13 C44.056,-1.27897692e-13 50.644,6.588 50.644,14.64 C50.644,22.692 44.056,29.28 36.004,29.28 Z M36.004,2.196 C29.1721627,2.196 23.56,7.80816268 23.56,14.64 C23.56,21.4718373 29.1721627,27.084 36.004,27.084 C42.8358373,27.084 48.448,21.4718373 48.448,14.64 C48.448,7.80816268 42.8358373,2.196 36.004,2.196 Z M31.612,13.4198373 C31.612,14.1518373 30.88,14.64 30.3918373,14.64 C29.6598373,14.64 29.1721627,14.1518373 29.1721627,13.4198373 L29.1721627,11.2238373 C29.1721627,10.4918373 29.6598373,10.0041627 30.3918373,10.0041627 C31.1238373,10.0041627 31.612,10.492 31.612,11.224 L31.612,13.42 L31.612,13.4198373 Z M42.8358373,13.4198373 C42.8358373,14.1518373 42.3481627,14.64 41.6161627,14.64 C40.8841627,14.64 40.396,14.1518373 40.396,13.4198373 L40.396,11.2238373 C40.396,10.4918373 40.8841627,10.0041627 41.6161627,10.0041627 C42.3481627,10.0041627 42.836,10.492 42.836,11.224 L42.836,13.42 L42.8358373,13.4198373 Z M31.1238373,21.4718373 C30.88,21.4718373 30.6361627,21.4718373 30.3918373,21.228 C29.9041627,20.7398373 29.9041627,20.0078373 30.3918373,19.5201627 C31.612,18.0561627 33.808,17.08 36.004,17.08 C38.2,17.08 40.396,18.0563253 41.86,19.5203253 C42.3481627,20.008 42.3481627,20.74 41.86,21.2281627 C41.3718373,21.7163253 40.6398373,21.7163253 40.1521627,21.2281627 C37.9561627,18.7883253 34.0518373,19.0321627 31.8558373,21.2281627 C31.612,21.472 31.3681627,21.472 31.1238373,21.472 L31.1238373,21.4718373 Z" fill="#F45858"></path>
                </g>
            </g>
        </g>
    </g>
</svg>