<?xml version="1.0" encoding="UTF-8"?>
<svg width="84px" height="75px" viewBox="0 0 84 75" version="1.1" xmlns="http://www.w3.org/2000/svg" xmlns:xlink="http://www.w3.org/1999/xlink">
    <title>二维码已连接成功</title>
    <g id="页面-1" stroke="none" stroke-width="1" fill="none" fill-rule="evenodd">
        <g id="我的上传-手机扫码上传/批量删除" transform="translate(-378.000000, -549.000000)" fill-rule="nonzero">
            <g id="二维码已连接成功" transform="translate(378.504000, 549.000000)">
                <path d="M21.072,53.816 C21.576,53.792 21.972,53.66 22.236,53.408 C22.524,53.096 22.728,52.208 22.848,50.72 L22.008,50.456 C21.936,51.776 21.78,52.544 21.54,52.76 C21.36,52.904 21.12,52.976 20.832,52.976 L14.808,52.976 C14.256,52.976 13.98,52.7 13.98,52.172 L13.98,48.632 L21.516,48.632 L21.516,43.832 L12.636,43.832 L12.636,44.672 L20.64,44.672 L20.64,47.804 L13.98,47.804 L13.98,46.028 L13.116,46.028 L13.116,52.328 C13.116,53.312 13.596,53.816 14.568,53.816 L21.072,53.816 Z M31.632,52.652 L31.632,50.42 L34.776,50.42 L34.776,49.604 L31.632,49.604 L31.632,48.176 L34.248,48.176 L34.248,47.384 L31.632,47.384 L31.632,45.956 L30.804,45.956 L30.804,47.384 L28.872,47.384 C29.304,46.76 29.712,46.04 30.072,45.236 L34.62,45.236 L34.62,44.432 L30.408,44.432 C30.552,44.072 30.684,43.7 30.816,43.304 L29.988,43.112 C29.844,43.568 29.676,44.012 29.508,44.432 L27.576,44.432 L27.576,45.236 L29.16,45.236 C28.764,46.088 28.32,46.808 27.84,47.384 L28.032,48.176 L30.804,48.176 L30.804,49.604 L27.48,49.604 L27.48,50.42 L30.804,50.42 L30.804,52.652 L31.632,52.652 Z M26.448,45.86 L27.072,45.248 C26.52,44.624 25.836,44.012 25.032,43.388 L24.444,43.952 C25.296,44.636 25.968,45.272 26.448,45.86 Z M24.9,54.224 C25.56,53.12 26.028,52.568 26.316,52.568 C26.46,52.568 26.616,52.664 26.772,52.868 C27.144,53.3 27.564,53.6 28.032,53.744 C28.512,53.876 29.124,53.948 29.892,53.96 C30.648,53.972 31.356,53.984 32.004,53.984 L34.752,53.984 L34.956,53.12 C34.644,53.144 34.188,53.156 33.612,53.168 C33.024,53.18 32.448,53.192 31.884,53.192 C30.96,53.192 30.18,53.18 29.556,53.168 C28.86,53.144 28.32,53.048 27.96,52.88 C27.624,52.724 27.324,52.472 27.036,52.124 C26.94,52.016 26.844,51.92 26.748,51.848 L26.748,47.36 L24.228,47.36 L24.228,48.152 L25.944,48.152 L25.944,51.8 C25.452,52.016 24.888,52.628 24.252,53.636 L24.9,54.224 Z M46.512,45.056 L46.512,44.264 L43.824,44.264 C43.692,43.844 43.56,43.46 43.428,43.124 L42.528,43.268 C42.672,43.568 42.816,43.904 42.948,44.264 L40.308,44.264 L40.308,45.056 L46.512,45.056 Z M37.44,54.092 C38.148,54.092 38.508,53.744 38.508,53.048 L38.508,49.496 C38.844,49.34 39.18,49.172 39.516,48.992 L39.516,48.116 C39.18,48.296 38.844,48.464 38.508,48.632 L38.508,46.328 L39.504,46.328 L39.504,45.5 L38.508,45.5 L38.508,43.232 L37.62,43.232 L37.62,45.5 L36.156,45.5 L36.156,46.328 L37.62,46.328 L37.62,49.004 C37.068,49.22 36.504,49.4 35.94,49.544 L36.156,50.408 C36.648,50.252 37.14,50.072 37.62,49.88 L37.62,52.832 C37.62,53.144 37.452,53.3 37.14,53.3 C36.852,53.3 36.54,53.276 36.216,53.252 L36.396,54.092 L37.44,54.092 Z M46.728,47.828 L46.728,47 L44.784,47 C45.06,46.52 45.312,45.98 45.54,45.38 L44.724,45.092 C44.484,45.764 44.208,46.4 43.872,47 L42.696,47 C42.432,46.352 42.156,45.764 41.844,45.224 L41.136,45.56 C41.388,45.992 41.628,46.472 41.868,47 L40.032,47 L40.032,47.828 L46.728,47.828 Z M40.092,54.248 C41.82,53.912 43.08,53.444 43.872,52.868 C44.832,53.324 45.66,53.768 46.38,54.212 L46.848,53.516 C46.092,53.084 45.3,52.676 44.484,52.292 C45.048,51.68 45.42,50.924 45.6,50.036 L46.92,50.036 L46.92,49.196 L42.804,49.196 C42.948,48.896 43.08,48.584 43.2,48.26 L42.372,48.164 C42.24,48.5 42.096,48.836 41.928,49.196 L39.876,49.196 L39.876,50.036 L41.484,50.036 C41.232,50.492 40.944,50.96 40.62,51.452 C41.46,51.788 42.24,52.112 42.972,52.448 C42.228,52.88 41.148,53.216 39.756,53.468 L40.092,54.248 Z M43.692,51.932 C43.044,51.644 42.372,51.368 41.676,51.104 C41.916,50.768 42.144,50.408 42.36,50.036 L44.784,50.036 C44.592,50.804 44.232,51.428 43.692,51.932 Z M53.028,54.104 C53.772,54.104 54.156,53.732 54.156,53.012 L54.156,50.36 L58.884,50.36 L58.884,49.532 L54.156,49.532 L54.156,47.564 L57.984,47.564 L57.984,46.724 L54.156,46.724 L54.156,44.696 C55.596,44.552 56.856,44.324 57.948,44.036 L57.528,43.304 C55.236,43.856 52.356,44.144 48.876,44.144 L49.14,44.924 C50.628,44.924 52.008,44.864 53.28,44.768 L53.28,46.724 L49.116,46.724 L49.116,47.564 L53.28,47.564 L53.28,49.532 L48.12,49.532 L48.12,50.36 L53.28,50.36 L53.28,52.796 C53.28,53.132 53.088,53.312 52.728,53.312 C52.176,53.312 51.588,53.288 50.976,53.264 L51.168,54.104 L53.028,54.104 Z M62.844,54.14 L62.844,47.816 C63.18,48.284 63.576,48.896 64.032,49.652 L64.536,48.908 C63.96,48.2 63.396,47.564 62.844,46.988 L62.844,46.376 L64.332,46.376 L64.332,45.548 L62.844,45.548 L62.844,43.208 L61.98,43.208 L61.98,45.548 L60.192,45.548 L60.192,46.376 L61.944,46.376 C61.548,47.876 60.888,49.208 59.964,50.372 L60.336,51.308 C61.008,50.324 61.56,49.244 61.98,48.044 L61.98,54.14 L62.844,54.14 Z M64.476,54.248 C65.04,53.384 65.424,52.496 65.628,51.56 C65.844,50.672 65.952,49.568 65.952,48.248 L65.952,44.516 L68.088,44.516 L68.088,52.868 C68.088,53.564 68.472,53.912 69.24,53.912 L69.732,53.912 C70.116,53.912 70.404,53.84 70.596,53.708 C70.788,53.54 70.908,53.252 70.956,52.82 C71.004,52.364 71.04,51.716 71.04,50.852 L70.248,50.6 C70.248,51.752 70.212,52.436 70.164,52.676 C70.14,52.844 70.08,52.952 69.984,53.024 C69.9,53.072 69.792,53.096 69.648,53.096 L69.24,53.096 C69.048,53.096 68.964,52.988 68.964,52.784 L68.964,43.7 L65.088,43.7 L65.088,48.248 C65.088,49.484 65.004,50.468 64.848,51.2 C64.644,52.052 64.284,52.856 63.768,53.612 L64.476,54.248 Z" id="已连接手机" fill="#01C587"></path>
                <path d="M10.968,67.72 L10.968,67 L7.692,67 L7.692,66.184 L10.236,66.184 L10.236,65.488 L7.692,65.488 L7.692,64.684 L10.668,64.684 L10.668,63.976 L7.692,63.976 L7.692,63.196 L6.864,63.196 L6.864,63.976 L3.96,63.976 L3.96,64.684 L6.864,64.684 L6.864,65.488 L4.44,65.488 L4.44,66.184 L6.864,66.184 L6.864,67 L3.624,67 L3.624,67.72 L10.968,67.72 Z M2.892,65.752 L3.48,65.152 C2.928,64.54 2.256,63.928 1.452,63.328 L0.84,63.916 C1.704,64.564 2.388,65.176 2.892,65.752 Z M1.776,73.78 C2.52,73.24 3.24,72.616 3.912,71.92 L3.684,71.008 C3.276,71.428 2.904,71.8 2.544,72.136 L2.544,66.868 L2.84217094e-13,66.868 L2.84217094e-13,67.696 L1.716,67.696 L1.716,72.46 C1.716,72.664 1.62,72.844 1.44,73.012 L1.776,73.78 Z M5.364,74.2 L5.364,72.292 L9.24,72.292 L9.24,72.976 C9.24,73.252 9.084,73.396 8.796,73.396 L7.836,73.36 L8.04,74.128 L9.048,74.128 C9.72,74.128 10.068,73.804 10.068,73.156 L10.068,68.476 L4.536,68.476 L4.536,74.2 L5.364,74.2 Z M9.24,70.072 L5.364,70.072 L5.364,69.184 L9.24,69.184 L9.24,70.072 Z M9.24,71.62 L5.364,71.62 L5.364,70.744 L9.24,70.744 L9.24,71.62 Z M14.724,74.236 L14.724,68.332 C15.372,67.516 15.936,66.628 16.404,65.68 L22.824,65.68 L22.824,64.828 L16.788,64.828 C17.004,64.312 17.184,63.772 17.352,63.22 L16.452,63.112 C16.284,63.7 16.068,64.276 15.828,64.828 L12.336,64.828 L12.336,65.68 L15.42,65.68 C14.58,67.276 13.416,68.692 11.916,69.928 L12.456,70.636 C12.96,70.216 13.428,69.772 13.872,69.316 L13.872,74.236 L14.724,74.236 Z M22.836,73.792 L22.836,72.94 L19.428,72.94 L19.428,69.628 L22.296,69.628 L22.296,68.788 L19.428,68.788 L19.428,66.556 L18.552,66.556 L18.552,68.788 L15.804,68.788 L15.804,69.628 L18.552,69.628 L18.552,72.94 L15.312,72.94 L15.312,73.792 L22.836,73.792 Z M29.028,74.104 C29.772,74.104 30.156,73.732 30.156,73.012 L30.156,70.36 L34.884,70.36 L34.884,69.532 L30.156,69.532 L30.156,67.564 L33.984,67.564 L33.984,66.724 L30.156,66.724 L30.156,64.696 C31.596,64.552 32.856,64.324 33.948,64.036 L33.528,63.304 C31.236,63.856 28.356,64.144 24.876,64.144 L25.14,64.924 C26.628,64.924 28.008,64.864 29.28,64.768 L29.28,66.724 L25.116,66.724 L25.116,67.564 L29.28,67.564 L29.28,69.532 L24.12,69.532 L24.12,70.36 L29.28,70.36 L29.28,72.796 C29.28,73.132 29.088,73.312 28.728,73.312 C28.176,73.312 27.588,73.288 26.976,73.264 L27.168,74.104 L29.028,74.104 Z M38.844,74.14 L38.844,67.816 C39.18,68.284 39.576,68.896 40.032,69.652 L40.536,68.908 C39.96,68.2 39.396,67.564 38.844,66.988 L38.844,66.376 L40.332,66.376 L40.332,65.548 L38.844,65.548 L38.844,63.208 L37.98,63.208 L37.98,65.548 L36.192,65.548 L36.192,66.376 L37.944,66.376 C37.548,67.876 36.888,69.208 35.964,70.372 L36.336,71.308 C37.008,70.324 37.56,69.244 37.98,68.044 L37.98,74.14 L38.844,74.14 Z M40.476,74.248 C41.04,73.384 41.424,72.496 41.628,71.56 C41.844,70.672 41.952,69.568 41.952,68.248 L41.952,64.516 L44.088,64.516 L44.088,72.868 C44.088,73.564 44.472,73.912 45.24,73.912 L45.732,73.912 C46.116,73.912 46.404,73.84 46.596,73.708 C46.788,73.54 46.908,73.252 46.956,72.82 C47.004,72.364 47.04,71.716 47.04,70.852 L46.248,70.6 C46.248,71.752 46.212,72.436 46.164,72.676 C46.14,72.844 46.08,72.952 45.984,73.024 C45.9,73.072 45.792,73.096 45.648,73.096 L45.24,73.096 C45.048,73.096 44.964,72.988 44.964,72.784 L44.964,63.7 L41.088,63.7 L41.088,68.248 C41.088,69.484 41.004,70.468 40.848,71.2 C40.644,72.052 40.284,72.856 39.768,73.612 L40.476,74.248 Z M58.848,73.72 L58.848,72.88 L53.376,72.88 L53.376,67.744 L57.828,67.744 L57.828,66.904 L53.376,66.904 L53.376,63.196 L52.488,63.196 L52.488,72.88 L48.168,72.88 L48.168,73.72 L58.848,73.72 Z M61.368,74.092 C62.028,74.092 62.364,73.756 62.364,73.108 L62.364,69.58 C62.748,69.412 63.132,69.22 63.516,69.016 L63.516,68.164 C63.132,68.368 62.748,68.56 62.364,68.74 L62.364,66.328 L63.624,66.328 L63.624,65.5 L62.364,65.5 L62.364,63.244 L61.5,63.244 L61.5,65.5 L60.156,65.5 L60.156,66.328 L61.5,66.328 L61.5,69.088 C61.032,69.256 60.552,69.4 60.048,69.52 L60.252,70.384 C60.672,70.252 61.092,70.108 61.5,69.94 L61.5,72.892 C61.5,73.18 61.356,73.324 61.068,73.324 C60.804,73.324 60.516,73.3 60.228,73.264 L60.408,74.092 L61.368,74.092 Z M69.444,66.076 L69.444,63.628 L64.848,63.628 L64.848,66.076 L69.444,66.076 Z M68.652,65.392 L65.628,65.392 L65.628,64.312 L68.652,64.312 L68.652,65.392 Z M66.792,69.172 L66.792,66.796 L63.864,66.796 L63.864,69.172 L66.792,69.172 Z M70.452,69.172 L70.452,66.796 L67.5,66.796 L67.5,69.172 L70.452,69.172 Z M66.084,68.548 L64.584,68.548 L64.584,67.42 L66.084,67.42 L66.084,68.548 Z M69.744,68.548 L68.208,68.548 L68.208,67.42 L69.744,67.42 L69.744,68.548 Z M67.56,74.164 L67.56,70.948 L67.776,70.948 C68.304,71.98 69.216,72.916 70.488,73.756 L71.052,73.06 C69.876,72.436 69.024,71.74 68.496,70.948 L70.704,70.948 L70.704,70.168 L67.56,70.168 L67.56,69.448 L66.732,69.448 L66.732,70.168 L63.588,70.168 L63.588,70.948 L65.748,70.948 C65.208,71.788 64.368,72.496 63.228,73.048 L63.672,73.792 C64.968,73.036 65.904,72.088 66.492,70.948 L66.732,70.948 L66.732,74.164 L67.56,74.164 Z M78.828,74.212 L78.828,71.416 L82.404,71.416 L82.404,70.588 L78.828,70.588 L78.828,68.56 L82.332,68.56 L82.332,67.72 L78.828,67.72 L78.828,65.74 L82.86,65.74 L82.86,64.888 L77.676,64.888 C77.868,64.396 78.06,63.868 78.252,63.316 L77.388,63.124 C76.716,65.152 75.84,66.796 74.784,68.044 L75.396,68.776 C76.116,67.912 76.752,66.904 77.304,65.74 L77.952,65.74 L77.952,74.212 L78.828,74.212 Z M74.352,74.212 L74.352,66.172 C74.832,65.356 75.24,64.48 75.564,63.544 L74.748,63.16 C74.16,64.984 73.212,66.592 71.916,67.996 L72.204,68.908 C72.66,68.452 73.08,67.972 73.464,67.468 L73.464,74.212 L74.352,74.212 Z" id="请在手机上操作" fill="#01C587"></path>
                <path d="M41.996,0 C33.9886339,0 27.496,6.49263393 27.496,14.5 C27.496,22.5073661 33.9886339,29 41.996,29 C50.0033661,29 56.496,22.5073661 56.496,14.5 C56.496,6.49263393 50.0033661,0 41.996,0 Z M48.2588348,9.76484375 L41.4425402,19.2157366 C41.0314911,19.7886161 40.1802634,19.7886161 39.7692143,19.2157366 L35.7331652,13.6228795 C35.6101741,13.4513393 35.7331652,13.2118304 35.9435446,13.2118304 L37.4615134,13.2118304 C37.7916473,13.2118304 38.1055982,13.3704241 38.2997946,13.6422991 L40.6042589,16.840067 L45.6922054,9.78426339 C45.8864018,9.515625 46.1971161,9.35379464 46.5304866,9.35379464 L48.0484554,9.35379464 C48.2588348,9.35379464 48.3818259,9.59330357 48.2588348,9.76484375 Z" id="形状" fill="#00B37A"></path>
            </g>
        </g>
    </g>
</svg>