<?xml version="1.0" encoding="UTF-8"?>
<svg width="305px" height="241px" viewBox="0 0 305 241" version="1.1" xmlns="http://www.w3.org/2000/svg" xmlns:xlink="http://www.w3.org/1999/xlink">
    <title>编组</title>
    <g id="页面-1" stroke="none" stroke-width="1" fill="none" fill-rule="evenodd">
        <g id="拖拽上传2" transform="translate(-488.000000, -298.000000)">
            <g id="编组" transform="translate(488.000000, 298.000000)">
                <g id="拖拽上传文件5个" transform="translate(74.000000, 0.000000)">
                    <g id="2" transform="translate(104.000000, 41.000000) rotate(14.000000) translate(-104.000000, -41.000000) translate(77.000000, 6.000000)">
                        <rect id="矩形" fill="#72C99B" x="0" y="-9.09494702e-13" width="54" height="70" rx="4"></rect>
                        <path d="M11.8659159,21.0560025 L11.8659159,19.6610025 L5.5509159,19.6610025 L5.5509159,16.2560025 L11.2509159,16.2560025 L11.2509159,14.8610025 L5.5509159,14.8610025 L5.5509159,11.7410025 L11.6109159,11.7410025 L11.6109159,10.3460025 L3.9159159,10.3460025 L3.9159159,21.0560025 L11.8659159,21.0560025 Z M14.5509159,21.0560025 L17.4159159,16.8110025 L20.2809159,21.0560025 L22.2759159,21.0560025 L18.3909159,15.5210025 L22.0209159,10.3460025 L20.0259159,10.3460025 L17.4159159,14.2160025 L14.8059159,10.3460025 L12.8109159,10.3460025 L16.4109159,15.5210025 L12.5559159,21.0560025 L14.5509159,21.0560025 Z M28.0659159,21.2660025 C29.2209159,21.2660025 30.2109159,20.9360025 31.0359159,20.2760025 C31.9209159,19.5710025 32.4759159,18.5960025 32.7159159,17.3510025 L31.1259159,17.3510025 C30.9159159,18.1910025 30.5409159,18.8210025 30.0009159,19.2410025 C29.4909159,19.6310025 28.8309159,19.8260025 28.0509159,19.8260025 C26.8509159,19.8260025 25.9659159,19.4510025 25.3959159,18.7010025 C24.8559159,17.9960025 24.5859159,17.0060025 24.5859159,15.7160025 C24.5859159,14.4710025 24.8559159,13.4810025 25.4109159,12.7610025 C25.9959159,11.9660025 26.8659159,11.5760025 28.0209159,11.5760025 C28.8009159,11.5760025 29.4309159,11.7410025 29.9409159,12.0860025 C30.4509159,12.4310025 30.7959159,12.9710025 30.9759159,13.6910025 L32.5659159,13.6910025 C32.4009159,12.6110025 31.9209159,11.7410025 31.1409159,11.1110025 C30.3309159,10.4510025 29.2959159,10.1360025 28.0509159,10.1360025 C26.3409159,10.1360025 25.0509159,10.6910025 24.1509159,11.8310025 C23.3409159,12.8360025 22.9509159,14.1260025 22.9509159,15.7160025 C22.9509159,17.3360025 23.3259159,18.6260025 24.1059159,19.5860025 C24.9909159,20.6960025 26.3109159,21.2660025 28.0659159,21.2660025 Z M42.3159159,21.0560025 L42.3159159,19.6610025 L36.0009159,19.6610025 L36.0009159,16.2560025 L41.7009159,16.2560025 L41.7009159,14.8610025 L36.0009159,14.8610025 L36.0009159,11.7410025 L42.0609159,11.7410025 L42.0609159,10.3460025 L34.3659159,10.3460025 L34.3659159,21.0560025 L42.3159159,21.0560025 Z M51.4959159,21.0560025 L51.4959159,19.6610025 L45.6009159,19.6610025 L45.6009159,10.3460025 L43.9809159,10.3460025 L43.9809159,21.0560025 L51.4959159,21.0560025 Z" id="EXCEL" fill="#FFFFFF" fill-rule="nonzero"></path>
                    </g>
                    <g id="编组-4" transform="translate(57.000000, 41.000000) rotate(-14.000000) translate(-57.000000, -41.000000) translate(30.000000, 6.000000)">
                        <rect id="矩形" fill="#476579" x="-9.09494702e-13" y="1.8189894e-12" width="54" height="70" rx="4"></rect>
                        <path d="M17.5452886,20.6775801 C18.7002886,20.6775801 19.6902886,20.3475801 20.5152886,19.6875801 C21.4002886,18.9825801 21.9552886,18.0075801 22.1952886,16.7625801 L20.6052886,16.7625801 C20.3952886,17.6025801 20.0202886,18.2325801 19.4802886,18.6525801 C18.9702886,19.0425801 18.3102886,19.2375801 17.5302886,19.2375801 C16.3302886,19.2375801 15.4452886,18.8625801 14.8752886,18.1125801 C14.3352886,17.4075801 14.0652886,16.4175801 14.0652886,15.1275801 C14.0652886,13.8825801 14.3352886,12.8925801 14.8902886,12.1725801 C15.4752886,11.3775801 16.3452886,10.9875801 17.5002886,10.9875801 C18.2802886,10.9875801 18.9102886,11.1525801 19.4202886,11.4975801 C19.9302886,11.8425801 20.2752886,12.3825801 20.4552886,13.1025801 L22.0452886,13.1025801 C21.8802886,12.0225801 21.4002886,11.1525801 20.6202886,10.5225801 C19.8102886,9.8625801 18.7752886,9.5475801 17.5302886,9.5475801 C15.8202886,9.5475801 14.5302886,10.1025801 13.6302886,11.2425801 C12.8202886,12.2475801 12.4302886,13.5375801 12.4302886,15.1275801 C12.4302886,16.7475801 12.8052886,18.0375801 13.5852886,18.9975801 C14.4702886,20.1075801 15.7902886,20.6775801 17.5452886,20.6775801 Z M27.7602886,20.6775801 C29.1102886,20.6775801 30.1602886,20.4075801 30.9102886,19.8675801 C31.6602886,19.3125801 32.0352886,18.5625801 32.0352886,17.6025801 C32.0352886,16.6125801 31.5702886,15.8475801 30.6552886,15.2925801 C30.2352886,15.0375801 29.2902886,14.6925801 27.8502886,14.2425801 C26.8452886,13.9425801 26.2302886,13.7175801 25.9902886,13.5825801 C25.4502886,13.2975801 25.1952886,12.9225801 25.1952886,12.4425801 C25.1952886,11.9025801 25.4202886,11.5125801 25.8852886,11.2725801 C26.2602886,11.0625801 26.8002886,10.9575801 27.5052886,10.9575801 C28.3152886,10.9575801 28.9152886,11.1075801 29.3352886,11.4225801 C29.7552886,11.7225801 30.0252886,12.2325801 30.1752886,12.9225801 L31.7952886,12.9225801 C31.6902886,11.7525801 31.2702886,10.8975801 30.5202886,10.3425801 C29.8152886,9.8025801 28.8402886,9.5475801 27.5952886,9.5475801 C26.4552886,9.5475801 25.5102886,9.8025801 24.7602886,10.3125801 C23.9652886,10.8525801 23.5752886,11.5875801 23.5752886,12.5325801 C23.5752886,13.4625801 23.9802886,14.1825801 24.8052886,14.6775801 C25.1352886,14.8575801 25.9452886,15.1425801 27.2652886,15.5625801 C28.4502886,15.9225801 29.1552886,16.1625801 29.3952886,16.2825801 C30.0702886,16.6275801 30.4152886,17.0925801 30.4152886,17.6925801 C30.4152886,18.1725801 30.1752886,18.5475801 29.6952886,18.8175801 C29.2152886,19.0875801 28.5702886,19.2375801 27.7602886,19.2375801 C26.8602886,19.2375801 26.2002886,19.0725801 25.7652886,18.7425801 C25.2852886,18.3825801 24.9852886,17.7675801 24.8652886,16.9275801 L23.2452886,16.9275801 C23.3352886,18.2775801 23.8152886,19.2675801 24.7002886,19.8975801 C25.4352886,20.4075801 26.4552886,20.6775801 27.7602886,20.6775801 Z M38.3952886,20.4675801 L42.2352886,9.7575801 L40.4652886,9.7575801 L37.4352886,18.6375801 L37.3902886,18.6375801 L34.3452886,9.7575801 L32.5752886,9.7575801 L36.4152886,20.4675801 L38.3952886,20.4675801 Z" id="CSV" fill="#FFFFFF" fill-rule="nonzero"></path>
                    </g>
                    <g id="编组-5" transform="translate(43.500000, 80.000000) rotate(2.000000) translate(-43.500000, -80.000000) translate(2.500000, 36.000000)">
                        <rect id="矩形" fill="#46CEC2" transform="translate(41.000000, 44.000000) rotate(-29.000000) translate(-41.000000, -44.000000) " x="14" y="9" width="54" height="70" rx="4"></rect>
                        <path d="M18.3048303,33.2075048 L18.3048303,29.0375048 L21.0798303,29.0375048 C23.6448303,29.0375048 24.9348303,27.9425048 24.9348303,25.7525048 C24.9348303,23.5775048 23.6598303,22.4975048 21.1098303,22.4975048 L16.6698303,22.4975048 L16.6698303,33.2075048 L18.3048303,33.2075048 Z M20.9748303,27.6425048 L18.3048303,27.6425048 L18.3048303,23.8925048 L20.9748303,23.8925048 C21.7698303,23.8925048 22.3548303,24.0425048 22.7298303,24.3425048 C23.1048303,24.6125048 23.2998303,25.0925048 23.2998303,25.7525048 C23.2998303,26.4125048 23.1048303,26.8925048 22.7448303,27.1925048 C22.3698303,27.4925048 21.7848303,27.6425048 20.9748303,27.6425048 Z M28.0848303,33.2075048 L28.0848303,25.1525048 L28.1448303,25.1525048 L33.6798303,33.2075048 L35.2698303,33.2075048 L35.2698303,22.4975048 L33.6348303,22.4975048 L33.6348303,30.4625048 L33.5748303,30.4625048 L28.0998303,22.4975048 L26.4498303,22.4975048 L26.4498303,33.2075048 L28.0848303,33.2075048 Z M42.2298303,33.4175048 C43.1598303,33.4175048 44.0148303,33.2975048 44.7948303,33.0575048 C45.5298303,32.8175048 46.1748303,32.4875048 46.7298303,32.0525048 L46.7298303,27.5525048 L42.1398303,27.5525048 L42.1398303,28.9475048 L45.0948303,28.9475048 L45.0948303,31.2725048 C44.7348303,31.4975048 44.3448303,31.6775048 43.8948303,31.7975048 C43.4298303,31.9175048 42.9348303,31.9925048 42.4098303,31.9925048 C41.0748303,31.9925048 40.0848303,31.6175048 39.4548303,30.8675048 C38.8548303,30.1775048 38.5698303,29.1875048 38.5698303,27.8975048 C38.5698303,26.5775048 38.8848303,25.5425048 39.5448303,24.7925048 C40.1598303,24.0725048 40.9848303,23.7275048 42.0198303,23.7275048 C42.8598303,23.7275048 43.5498303,23.9075048 44.0598303,24.2825048 C44.5698303,24.6425048 44.8998303,25.1825048 45.0498303,25.9025048 L46.6998303,25.9025048 C46.5048303,24.7025048 46.0248303,23.8175048 45.2598303,23.2175048 C44.4648303,22.5875048 43.3848303,22.2875048 42.0198303,22.2875048 C40.4448303,22.2875048 39.1848303,22.8275048 38.2548303,23.9375048 C37.3698303,24.9725048 36.9348303,26.2925048 36.9348303,27.8975048 C36.9348303,29.4875048 37.3698303,30.7925048 38.2548303,31.7975048 C39.1998303,32.8775048 40.5198303,33.4175048 42.2298303,33.4175048 Z" id="PNG" fill="#FFFFFF" fill-rule="nonzero" transform="translate(31.699830, 27.852505) rotate(-29.000000) translate(-31.699830, -27.852505) "></path>
                    </g>
                    <g id="编组-6" transform="translate(112.500000, 80.000000) rotate(-2.000000) translate(-112.500000, -80.000000) translate(71.500000, 36.000000)">
                        <rect id="矩形" fill="#7D6AFF" transform="translate(41.000000, 44.000000) rotate(29.000000) translate(-41.000000, -44.000000) " x="14" y="9" width="54" height="70" rx="4"></rect>
                        <path d="M42.598977,32.464957 C43.528977,32.464957 44.383977,32.344957 45.163977,32.104957 C45.898977,31.864957 46.543977,31.534957 47.098977,31.099957 L47.098977,26.599957 L42.508977,26.599957 L42.508977,27.994957 L45.463977,27.994957 L45.463977,30.319957 C45.103977,30.544957 44.713977,30.724957 44.263977,30.844957 C43.798977,30.964957 43.303977,31.039957 42.778977,31.039957 C41.443977,31.039957 40.453977,30.664957 39.823977,29.914957 C39.223977,29.224957 38.938977,28.234957 38.938977,26.944957 C38.938977,25.624957 39.253977,24.589957 39.913977,23.839957 C40.528977,23.119957 41.353977,22.774957 42.388977,22.774957 C43.228977,22.774957 43.918977,22.954957 44.428977,23.329957 C44.938977,23.689957 45.268977,24.229957 45.418977,24.949957 L47.068977,24.949957 C46.873977,23.749957 46.393977,22.864957 45.628977,22.264957 C44.833977,21.634957 43.753977,21.334957 42.388977,21.334957 C40.813977,21.334957 39.553977,21.874957 38.623977,22.984957 C37.738977,24.019957 37.303977,25.339957 37.303977,26.944957 C37.303977,28.534957 37.738977,29.839957 38.623977,30.844957 C39.568977,31.924957 40.888977,32.464957 42.598977,32.464957 Z M50.713977,32.254957 L50.713977,21.544957 L49.093977,21.544957 L49.093977,32.254957 L50.713977,32.254957 Z M54.478977,32.254957 L54.478977,27.454957 L59.803977,27.454957 L59.803977,26.059957 L54.478977,26.059957 L54.478977,22.939957 L60.118977,22.939957 L60.118977,21.544957 L52.843977,21.544957 L52.843977,32.254957 L54.478977,32.254957 Z" id="GIF" fill="#FFFFFF" fill-rule="nonzero" transform="translate(48.711477, 26.899957) rotate(29.000000) translate(-48.711477, -26.899957) "></path>
                    </g>
                    <g id="1" transform="translate(50.500000, 37.000000)">
                        <rect id="矩形" fill="#F5A623" x="0" y="0" width="54" height="70" rx="4"></rect>
                        <path d="M16.0355688,21.21 C17.2655688,21.21 18.1655688,20.88 18.7355688,20.25 C19.2305688,19.65 19.4855688,18.75 19.4855688,17.55 L19.4855688,10.29 L17.8505688,10.29 L17.8505688,17.49 C17.8505688,18.285 17.7005688,18.855 17.4305688,19.215 C17.1455688,19.575 16.6955688,19.77 16.0655688,19.77 C14.9555688,19.77 14.4005688,19.125 14.4005688,17.85 L14.4005688,17.505 L12.7655688,17.505 L12.7655688,17.865 C12.7655688,18.915 13.0505688,19.725 13.6205688,20.325 C14.1605688,20.91 14.9705688,21.21 16.0355688,21.21 Z M23.2205688,21 L23.2205688,16.83 L25.9955688,16.83 C28.5605688,16.83 29.8505688,15.735 29.8505688,13.545 C29.8505688,11.37 28.5755688,10.29 26.0255688,10.29 L21.5855688,10.29 L21.5855688,21 L23.2205688,21 Z M25.8905688,15.435 L23.2205688,15.435 L23.2205688,11.685 L25.8905688,11.685 C26.6855688,11.685 27.2705688,11.835 27.6455688,12.135 C28.0205688,12.405 28.2155688,12.885 28.2155688,13.545 C28.2155688,14.205 28.0205688,14.685 27.6605688,14.985 C27.2855688,15.285 26.7005688,15.435 25.8905688,15.435 Z M36.2105688,21.21 C37.1405688,21.21 37.9955688,21.09 38.7755688,20.85 C39.5105688,20.61 40.1555688,20.28 40.7105688,19.845 L40.7105688,15.345 L36.1205688,15.345 L36.1205688,16.74 L39.0755688,16.74 L39.0755688,19.065 C38.7155688,19.29 38.3255688,19.47 37.8755688,19.59 C37.4105688,19.71 36.9155688,19.785 36.3905688,19.785 C35.0555688,19.785 34.0655688,19.41 33.4355688,18.66 C32.8355688,17.97 32.5505688,16.98 32.5505688,15.69 C32.5505688,14.37 32.8655688,13.335 33.5255688,12.585 C34.1405688,11.865 34.9655688,11.52 36.0005688,11.52 C36.8405688,11.52 37.5305688,11.7 38.0405688,12.075 C38.5505688,12.435 38.8805688,12.975 39.0305688,13.695 L40.6805688,13.695 C40.4855688,12.495 40.0055688,11.61 39.2405688,11.01 C38.4455688,10.38 37.3655688,10.08 36.0005688,10.08 C34.4255688,10.08 33.1655688,10.62 32.2355688,11.73 C31.3505688,12.765 30.9155688,14.085 30.9155688,15.69 C30.9155688,17.28 31.3505688,18.585 32.2355688,19.59 C33.1805688,20.67 34.5005688,21.21 36.2105688,21.21 Z" id="JPG" fill="#FFFFFF" fill-rule="nonzero"></path>
                    </g>
                    <path d="M98,114.701549 C97.3615199,118.721157 96.3615199,121.721157 95,123.701549 C93.6384801,125.681942 90.9718135,128.015275 87,130.701549 L87,130.701549 L72,130.701549 C68,129.701549 53,114.701549 53,109.701549 C53,104.701549 53.6888126,102.180875 55.4169312,101 C57.1450498,99.8191254 56.9085439,103.737419 58.4169312,106 C59.4225227,107.508387 60.2835457,107.742237 61,106.701549 L61,106.701549 L61,89.2015495 C61,87.2685529 62.5670034,85.7015495 64.5,85.7015495 C66.4329966,85.7015495 68,87.2685529 68,89.2015495 L67.9994651,95.9587431 C68.3218499,95.8617971 68.6553615,95.7760659 69,95.7015495 C69.478559,95.5980773 70.0111594,95.4957789 70.5939606,95.3987016 L70.9995117,95.3332986 L70.9995117,95.3332986 L71,85.2015495 C71,83.2685529 72.5670034,81.7015495 74.5,81.7015495 C76.4329966,81.7015495 78,83.2685529 78,85.2015495 L77.9998431,94.7509692 C78.9570066,94.7328011 79.9587251,94.7370533 80.9999905,94.7690033 L81,87.2015495 C81,85.2685529 82.5670034,83.7015495 84.5,83.7015495 C86.4329966,83.7015495 88,85.2685529 88,87.2015495 L87.9998923,95.3802771 C88.6579086,95.4751189 89.3248973,95.5819083 90,95.7015495 C90.3109927,95.7566634 90.6443036,95.8304061 90.9999326,95.9227776 L91,93.2015495 C91,91.2685529 92.5670034,89.7015495 94.5,89.7015495 C96.4329966,89.7015495 98,91.2685529 98,93.2015495 Z" id="形状结合" fill="#FFFFFF"></path>
                </g>
                <path d="M100.32,173.1 C101.16,172.1 101.94,170.9 102.64,169.54 L111.2,169.54 L111.2,167.72 L103.48,167.72 C103.72,167.16 103.94,166.56 104.16,165.92 L102.44,165.54 C101.52,168.14 100.4,170.16 99.08,171.64 L100.32,173.1 Z M95.74,183.88 C97.02,183.88 97.66,183.2 97.66,181.88 L97.66,176.5 C98.3,176.22 98.94,175.94 99.58,175.64 L99.58,173.74 C98.94,174.06 98.3,174.36 97.66,174.64 L97.66,171.1 L99.44,171.1 L99.44,169.28 L97.66,169.28 L97.66,165.66 L95.82,165.66 L95.82,169.28 L93.54,169.28 L93.54,171.1 L95.82,171.1 L95.82,175.32 C94.94,175.6 94.06,175.82 93.18,176.02 L93.66,177.94 C94.38,177.72 95.1,177.48 95.82,177.22 L95.82,181.42 C95.82,181.94 95.58,182.22 95.1,182.22 C94.62,182.22 94.14,182.16 93.62,182.08 L94.02,183.88 L95.74,183.88 Z M108.46,183.72 C109.58,183.72 110.36,183.52 110.8,183.12 C111.22,182.72 111.5,181.54 111.66,179.62 L110,179.08 C109.92,180.54 109.74,181.4 109.5,181.66 C109.22,181.9 108.76,182.02 108.16,182.02 L103.92,182.02 C103.42,182.02 103.18,181.68 103.18,181.02 L103.18,175.5 L105,174.92 L105,180.5 L106.68,180.5 L106.68,174.38 L108.9,173.68 C108.88,175.56 108.84,176.66 108.8,176.98 C108.74,177.3 108.56,177.48 108.28,177.48 C107.92,177.48 107.52,177.46 107.06,177.46 L107.56,179.12 L107.96,179.12 C109.36,179.12 110.14,178.72 110.34,177.96 C110.52,177.2 110.62,175.02 110.62,171.38 L106.68,172.66 L106.68,170.28 L105,170.28 L105,173.22 L103.18,173.8 L103.18,171.68 L101.48,171.68 L101.48,174.36 L100.12,174.8 L100.12,176.48 L101.48,176.04 L101.48,181.24 C101.48,182.88 102.14,183.72 103.5,183.72 L108.46,183.72 Z M115.88,183.84 C117.16,183.84 117.82,183.16 117.82,181.84 L117.82,176.36 C118.54,176.04 119.26,175.68 119.96,175.32 L119.96,173.48 C119.26,173.86 118.54,174.2 117.82,174.52 L117.82,170.94 L119.82,170.94 L119.82,169.12 L117.82,169.12 L117.82,165.62 L116,165.62 L116,169.12 L113.6,169.12 L113.6,170.94 L116,170.94 L116,175.22 C115.08,175.54 114.16,175.82 113.22,176.04 L113.7,177.92 C114.46,177.68 115.24,177.4 116,177.12 L116,181.38 C116,181.9 115.74,182.16 115.24,182.16 C114.76,182.16 114.24,182.12 113.72,182.06 L114.12,183.84 L115.88,183.84 Z M129.02,183.96 C130.2,183.96 131.1,182.72 131.72,180.26 L130.16,179.28 C129.8,181.12 129.34,182.06 128.82,182.06 C128.5,182.06 128.14,181.76 127.74,181.16 C127.58,180.9 127.44,180.62 127.32,180.3 C128.62,179.6 129.76,178.8 130.74,177.88 L129.3,176.84 C128.58,177.44 127.76,178.02 126.84,178.54 C126.82,178.54 126.82,178.52 126.82,178.48 C126.7,177.84 126.6,177.16 126.56,176.4 L130.62,176.4 L130.62,167.48 L126.48,167.48 L126.48,165.64 L124.68,165.64 L124.68,167.48 L120.68,167.48 L120.68,176.4 L124.74,176.4 C124.82,177.48 124.96,178.46 125.18,179.36 C123.42,180.12 121.34,180.72 118.92,181.2 L119.72,182.92 C122,182.44 124.02,181.8 125.78,181.04 C126.06,181.68 126.42,182.24 126.82,182.72 C127.52,183.52 128.26,183.94 129.02,183.96 Z M124.68,171.14 L122.46,171.14 L122.46,169.2 L124.68,169.2 L124.68,171.14 Z M128.84,171.14 L126.48,171.14 L126.48,169.2 L128.84,169.2 L128.84,171.14 Z M128.84,174.72 L126.48,174.72 L126.48,172.76 L128.84,172.76 L128.84,174.72 Z M124.68,174.72 L122.46,174.72 L122.46,172.76 L124.68,172.76 L124.68,174.72 Z M151.48,183.34 L151.48,181.5 L142.54,181.5 L142.54,173.46 L149.94,173.46 L149.94,171.62 L142.54,171.62 L142.54,165.6 L140.58,165.6 L140.58,181.5 L133.56,181.5 L133.56,183.34 L151.48,183.34 Z M157.5,184.1 L157.5,170.74 C158.3,169.36 158.96,167.92 159.46,166.42 L157.66,165.58 C156.68,168.62 155.16,171.26 153.12,173.54 L153.74,175.56 C154.42,174.88 155.04,174.18 155.62,173.46 L155.62,184.1 L157.5,184.1 Z M168.34,184.22 L169.42,182.58 C168.64,182.08 167.82,181.6 166.98,181.16 C168.66,179.86 169.88,178.58 170.68,177.3 L170.68,175.66 L162.72,175.66 C163,175 163.26,174.3 163.54,173.54 L171.76,173.54 L171.76,171.72 L164.14,171.72 C164.32,171.12 164.5,170.5 164.7,169.84 L170.94,169.84 L170.94,168 L165.18,168 C165.34,167.28 165.52,166.54 165.68,165.76 L163.82,165.58 L163.28,168 L159.44,168 L159.44,169.84 L162.82,169.84 C162.66,170.48 162.48,171.1 162.3,171.72 L158.56,171.72 L158.56,173.54 L161.72,173.54 C161.26,174.88 160.78,176.18 160.26,177.42 L168.66,177.42 C167.84,178.4 166.72,179.36 165.32,180.32 C164.2,179.8 163.04,179.3 161.84,178.86 L160.82,180.36 C163.38,181.3 165.9,182.58 168.34,184.22 Z M190.7,184.18 L191.76,182.58 C188.68,181.46 186.08,180.04 184,178.34 C185.88,176.28 187.3,173.74 188.26,170.7 L191.32,170.7 L191.32,168.82 L183.74,168.82 C183.12,167.5 182.44,166.36 181.72,165.4 L179.82,166.1 C180.58,166.96 181.22,167.86 181.74,168.82 L173.68,168.82 L173.68,170.7 L176.74,170.7 C177.6,173.66 179.14,176.26 181.34,178.46 C179.22,180.28 176.56,181.6 173.32,182.44 L174.34,184.12 C177.64,183.16 180.42,181.68 182.68,179.68 C184.8,181.48 187.48,182.98 190.7,184.18 Z M182.66,177.16 C180.76,175.32 179.4,173.16 178.56,170.7 L186.3,170.7 C185.5,173.22 184.28,175.38 182.66,177.16 Z M197.34,184.06 L197.34,170.74 C198.14,169.34 198.8,167.84 199.3,166.26 L197.52,165.44 C196.56,168.52 195.08,171.22 193.08,173.54 L193.7,175.56 C194.32,174.9 194.92,174.22 195.48,173.5 L195.48,184.06 L197.34,184.06 Z M206.48,183.98 L206.48,177.68 L211.64,177.68 L211.64,175.84 L206.48,175.84 L206.48,171.54 L210.9,171.54 L210.9,169.68 L206.48,169.68 L206.48,165.68 L204.58,165.68 L204.58,169.68 L202.18,169.68 C202.4,168.88 202.58,168.02 202.74,167.12 L200.88,166.88 C200.48,169.44 199.68,171.62 198.52,173.4 L199.74,174.98 C200.46,173.94 201.06,172.8 201.56,171.54 L204.58,171.54 L204.58,175.84 L198.9,175.84 L198.9,177.68 L204.58,177.68 L204.58,183.98 L206.48,183.98 Z" id="拖拽上传文件" fill="#FFFFFF" fill-rule="nonzero"></path>
                <path d="M1.476,215.648 C4.02,214.96 6.196,214.048 8.02,212.896 C8.82,213.408 9.716,213.872 10.692,214.288 C11.924,214.8 13.236,215.248 14.612,215.616 L15.284,214.608 C13.988,214.288 12.772,213.92 11.636,213.488 C10.676,213.104 9.796,212.672 8.996,212.224 C10.692,210.944 11.988,209.408 12.884,207.616 L12.884,206.592 L8.58,206.592 L8.58,204.144 L14.868,204.144 L14.868,203.024 L8.58,203.024 L8.58,200.928 L7.396,200.928 L7.396,203.024 L1.172,203.024 L1.172,204.144 L7.396,204.144 L7.396,206.592 L2.388,206.592 L2.388,207.664 L3.62,207.664 C3.876,208.528 4.292,209.344 4.868,210.08 C5.492,210.88 6.228,211.6 7.06,212.224 C5.332,213.248 3.252,214.048 0.82,214.624 L1.476,215.648 Z M8.004,211.6 C7.3,211.12 6.66,210.56 6.1,209.92 C5.492,209.264 5.044,208.512 4.756,207.664 L11.588,207.664 C10.756,209.2 9.556,210.512 8.004,211.6 Z M31.108,206.64 L31.108,205.552 L27.22,205.552 L27.22,203.68 L30.5,203.68 L30.5,202.64 L27.22,202.64 L27.22,200.976 L26.084,200.976 L26.084,202.64 L22.948,202.64 L22.948,203.68 L26.084,203.68 L26.084,205.552 L22.372,205.552 L22.372,206.64 L31.108,206.64 Z M18.692,215.456 C19.604,215.456 20.068,214.976 20.068,214.016 L20.068,209.472 C20.644,209.232 21.204,208.976 21.748,208.688 L21.748,207.504 C21.204,207.792 20.644,208.064 20.068,208.32 L20.068,205.104 L21.732,205.104 L21.732,204 L20.068,204 L20.068,201.136 L18.932,201.136 L18.932,204 L16.964,204 L16.964,205.104 L18.932,205.104 L18.932,208.768 C18.228,209.024 17.524,209.232 16.788,209.408 L17.076,210.56 C17.684,210.368 18.308,210.16 18.932,209.936 L18.932,213.728 C18.932,214.192 18.708,214.432 18.292,214.432 C17.892,214.432 17.476,214.4 17.044,214.352 L17.284,215.456 L18.692,215.456 Z M27.748,215.488 C28.676,215.488 29.156,215.008 29.156,214.064 L29.156,209.76 L31.124,209.76 L31.124,208.688 L29.156,208.688 L29.156,207.456 L28.004,207.456 L28.004,208.688 L22.116,208.688 L22.116,209.76 L28.004,209.76 L28.004,213.776 C28.004,214.208 27.78,214.432 27.332,214.432 C26.708,214.432 26.052,214.4 25.364,214.368 L25.62,215.488 L27.748,215.488 Z M24.788,213.728 L25.7,213.088 C25.252,212.352 24.612,211.488 23.78,210.512 L22.852,211.072 C23.668,212.048 24.308,212.928 24.788,213.728 Z M47.156,214.96 L47.156,213.84 L39.86,213.84 L39.86,206.992 L45.796,206.992 L45.796,205.872 L39.86,205.872 L39.86,200.928 L38.676,200.928 L38.676,213.84 L32.916,213.84 L32.916,214.96 L47.156,214.96 Z M51.844,215.632 L51.844,204.928 C52.484,203.824 52.996,202.656 53.412,201.424 L52.324,200.912 C51.54,203.376 50.292,205.568 48.596,207.472 L48.964,208.704 C49.588,208.064 50.164,207.376 50.692,206.672 L50.692,215.632 L51.844,215.632 Z M60.788,215.728 L61.444,214.736 C60.74,214.272 60.02,213.84 59.268,213.44 C60.74,212.32 61.812,211.2 62.484,210.08 L62.484,209.088 L55.908,209.088 C56.164,208.464 56.436,207.792 56.692,207.056 L63.38,207.056 L63.38,205.952 L57.06,205.952 C57.252,205.36 57.428,204.736 57.604,204.096 L62.724,204.096 L62.724,202.976 L57.892,202.976 C58.036,202.352 58.18,201.696 58.34,201.024 L57.22,200.912 L56.74,202.976 L53.62,202.976 L53.62,204.096 L56.468,204.096 C56.308,204.704 56.132,205.328 55.94,205.952 L52.916,205.952 L52.916,207.056 L55.588,207.056 C55.22,208.128 54.82,209.168 54.404,210.16 L61.252,210.16 C60.516,211.12 59.524,212.032 58.26,212.912 C57.332,212.464 56.372,212.048 55.38,211.664 L54.772,212.56 C56.82,213.328 58.836,214.384 60.788,215.728 Z M68.724,214.224 C69.844,214.224 70.804,213.872 71.572,213.184 C72.388,212.448 72.804,211.504 72.804,210.352 C72.804,209.12 72.452,208.16 71.78,207.456 C71.108,206.768 70.228,206.432 69.14,206.432 C68.612,206.432 68.132,206.512 67.684,206.704 C67.188,206.896 66.772,207.184 66.452,207.568 L66.388,207.568 L66.772,203.744 L72.34,203.744 L72.34,202.576 L65.7,202.576 L65.092,208.88 L66.34,208.88 C66.564,208.432 66.916,208.08 67.364,207.856 C67.796,207.616 68.276,207.504 68.82,207.504 C69.652,207.504 70.308,207.744 70.772,208.256 C71.252,208.752 71.508,209.456 71.508,210.368 C71.508,211.168 71.236,211.824 70.724,212.336 C70.196,212.848 69.54,213.104 68.74,213.104 C68.036,213.104 67.444,212.928 66.996,212.592 C66.484,212.208 66.196,211.648 66.132,210.928 L64.836,210.928 C64.916,211.968 65.348,212.8 66.148,213.408 C66.852,213.952 67.716,214.224 68.724,214.224 Z M76.084,214 L76.084,204.912 L76.132,204.912 L80.084,214 L81.268,214 L85.22,204.912 L85.268,204.912 L85.268,214 L86.58,214 L86.58,202.576 L84.948,202.576 L80.708,212.32 L80.66,212.32 L76.404,202.576 L74.772,202.576 L74.772,214 L76.084,214 Z M94.18,215.44 C96.516,214.096 98.212,212.448 99.268,210.512 C100.484,212.192 101.46,213.776 102.212,215.28 L103.092,214.4 C102.196,212.736 101.092,211.072 99.78,209.408 C99.876,209.168 99.956,208.928 100.036,208.688 C100.708,206.576 101.044,204.016 101.044,200.976 L99.844,200.976 C99.828,204.064 99.492,206.608 98.82,208.608 C97.94,210.976 96.132,212.928 93.412,214.496 L94.18,215.44 Z M89.796,213.776 C91.668,213.088 93.428,212.272 95.06,211.328 L94.74,210.208 C93.508,210.944 92.276,211.568 91.028,212.08 L91.028,201.392 L89.844,201.392 L89.844,211.808 C89.844,212.176 89.7,212.464 89.412,212.688 L89.796,213.776 Z M96.132,207.744 L97.108,207.072 C96.34,205.824 95.22,204.352 93.764,202.672 L92.804,203.264 C94.212,204.912 95.316,206.4 96.132,207.744 Z M106.58,215.584 L106.58,204.624 L111.14,204.624 C111.028,205.36 110.884,206.032 110.708,206.656 C110.132,208.432 108.948,209.904 107.156,211.088 L107.924,212.032 C109.78,210.816 111.028,209.312 111.684,207.488 C113.188,209.024 114.42,210.48 115.348,211.856 L116.212,210.976 C115.076,209.456 113.684,207.904 112.02,206.336 C112.148,205.808 112.244,205.232 112.324,204.624 L116.9,204.624 L116.9,213.552 C116.9,214.064 116.644,214.336 116.132,214.336 L113.684,214.272 L114.004,215.424 L116.516,215.424 C117.54,215.424 118.068,214.88 118.068,213.808 L118.068,203.504 L112.452,203.504 C112.516,202.704 112.564,201.824 112.564,200.88 L111.396,200.88 C111.396,201.808 111.348,202.688 111.268,203.504 L105.412,203.504 L105.412,215.584 L106.58,215.584 Z M123.332,214.224 C124.596,214.224 125.524,213.872 126.1,213.168 C126.612,212.528 126.868,211.6 126.868,210.352 L126.868,202.576 L125.556,202.576 L125.556,210.304 C125.556,211.248 125.38,211.936 125.044,212.368 C124.692,212.816 124.132,213.056 123.364,213.056 C121.972,213.056 121.284,212.272 121.284,210.736 L121.284,210.352 L119.972,210.352 L119.972,210.752 C119.972,211.872 120.26,212.736 120.868,213.344 C121.444,213.92 122.26,214.224 123.332,214.224 Z M134.276,214.224 C135.22,214.224 136.1,214.096 136.932,213.84 C137.716,213.584 138.388,213.248 138.932,212.8 L138.932,208.128 L134.052,208.128 L134.052,209.264 L137.636,209.264 L137.636,212.176 C137.236,212.432 136.756,212.656 136.196,212.816 C135.62,212.976 135.028,213.072 134.404,213.072 C132.916,213.072 131.796,212.624 131.044,211.744 C130.34,210.912 129.988,209.776 129.988,208.336 C129.988,206.864 130.34,205.696 131.076,204.832 C131.812,203.952 132.788,203.52 134.036,203.52 C135.044,203.52 135.86,203.76 136.484,204.256 C137.076,204.72 137.46,205.376 137.636,206.24 L138.948,206.24 C138.74,204.992 138.244,204.048 137.444,203.392 C136.596,202.688 135.46,202.352 134.036,202.352 C132.356,202.352 131.028,202.944 130.052,204.144 C129.124,205.248 128.676,206.64 128.676,208.336 C128.676,210.032 129.14,211.424 130.068,212.496 C131.06,213.648 132.468,214.224 134.276,214.224 Z M142.436,214 L142.436,209.328 L145.78,209.328 C148.404,209.328 149.732,208.192 149.732,205.936 C149.732,203.696 148.42,202.576 145.796,202.576 L141.124,202.576 L141.124,214 L142.436,214 Z M145.716,208.192 L142.436,208.192 L142.436,203.712 L145.716,203.712 C146.628,203.712 147.3,203.888 147.748,204.272 C148.196,204.608 148.42,205.168 148.42,205.936 C148.42,206.704 148.196,207.264 147.764,207.632 C147.316,208 146.644,208.192 145.716,208.192 Z M155.428,215.68 L156.228,215.008 C155.844,214.464 155.38,213.904 154.852,213.36 C154.244,212.72 153.62,212.192 153.012,211.76 L152.292,212.432 C152.884,212.88 153.476,213.408 154.068,214.048 C154.58,214.592 155.044,215.136 155.428,215.68 Z M168.708,214 L168.708,209.328 L172.052,209.328 C174.676,209.328 176.004,208.192 176.004,205.936 C176.004,203.696 174.692,202.576 172.068,202.576 L167.396,202.576 L167.396,214 L168.708,214 Z M171.988,208.192 L168.708,208.192 L168.708,203.712 L171.988,203.712 C172.9,203.712 173.572,203.888 174.02,204.272 C174.468,204.608 174.692,205.168 174.692,205.936 C174.692,206.704 174.468,207.264 174.036,207.632 C173.588,208 172.916,208.192 171.988,208.192 Z M178.98,214 L178.98,204.608 L179.028,204.608 L185.524,214 L186.868,214 L186.868,202.576 L185.556,202.576 L185.556,211.872 L185.508,211.872 L179.044,202.576 L177.668,202.576 L177.668,214 L178.98,214 Z M194.292,214.224 C195.236,214.224 196.116,214.096 196.948,213.84 C197.732,213.584 198.404,213.248 198.948,212.8 L198.948,208.128 L194.068,208.128 L194.068,209.264 L197.652,209.264 L197.652,212.176 C197.252,212.432 196.772,212.656 196.212,212.816 C195.636,212.976 195.044,213.072 194.42,213.072 C192.932,213.072 191.812,212.624 191.06,211.744 C190.356,210.912 190.004,209.776 190.004,208.336 C190.004,206.864 190.356,205.696 191.092,204.832 C191.828,203.952 192.804,203.52 194.052,203.52 C195.06,203.52 195.876,203.76 196.5,204.256 C197.092,204.72 197.476,205.376 197.652,206.24 L198.964,206.24 C198.756,204.992 198.26,204.048 197.46,203.392 C196.612,202.688 195.476,202.352 194.052,202.352 C192.372,202.352 191.044,202.944 190.068,204.144 C189.14,205.248 188.692,206.64 188.692,208.336 C188.692,210.032 189.156,211.424 190.084,212.496 C191.076,213.648 192.484,214.224 194.292,214.224 Z M205.172,215.68 L205.972,215.008 C205.588,214.464 205.124,213.904 204.596,213.36 C203.988,212.72 203.364,212.192 202.756,211.76 L202.036,212.432 C202.628,212.88 203.22,213.408 203.812,214.048 C204.324,214.592 204.788,215.136 205.172,215.68 Z M222.26,214.224 C223.204,214.224 224.084,214.096 224.916,213.84 C225.7,213.584 226.372,213.248 226.916,212.8 L226.916,208.128 L222.036,208.128 L222.036,209.264 L225.62,209.264 L225.62,212.176 C225.22,212.432 224.74,212.656 224.18,212.816 C223.604,212.976 223.012,213.072 222.388,213.072 C220.9,213.072 219.78,212.624 219.028,211.744 C218.324,210.912 217.972,209.776 217.972,208.336 C217.972,206.864 218.324,205.696 219.06,204.832 C219.796,203.952 220.772,203.52 222.02,203.52 C223.028,203.52 223.844,203.76 224.468,204.256 C225.06,204.72 225.444,205.376 225.62,206.24 L226.932,206.24 C226.724,204.992 226.228,204.048 225.428,203.392 C224.58,202.688 223.444,202.352 222.02,202.352 C220.34,202.352 219.012,202.944 218.036,204.144 C217.108,205.248 216.66,206.64 216.66,208.336 C216.66,210.032 217.124,211.424 218.052,212.496 C219.044,213.648 220.452,214.224 222.26,214.224 Z M230.5,214 L230.5,202.576 L229.204,202.576 L229.204,214 L230.5,214 Z M234.212,214 L234.212,208.688 L240.212,208.688 L240.212,207.552 L234.212,207.552 L234.212,203.712 L240.548,203.712 L240.548,202.576 L232.9,202.576 L232.9,214 L234.212,214 Z M245.14,215.536 L245.14,207.328 C245.524,207.888 246.004,208.624 246.564,209.552 L246.804,209.184 L247.236,209.76 C248.98,209.088 250.468,208.288 251.684,207.344 C252.804,208.224 254.18,209.008 255.844,209.712 L256.356,208.64 C254.852,208.08 253.556,207.424 252.484,206.672 C253.572,205.664 254.42,204.528 254.996,203.248 L254.996,202.352 L250.484,202.352 C250.676,201.968 250.852,201.568 251.012,201.152 L249.908,200.912 C249.172,202.688 248.228,204.128 247.06,205.232 L247.796,206.112 C248.26,205.648 248.708,205.136 249.124,204.592 C249.572,205.296 250.148,205.968 250.836,206.624 C249.812,207.376 248.58,208.032 247.172,208.608 L247.188,208.592 C246.5,207.648 245.812,206.8 245.14,206.032 L245.14,205.168 L246.884,205.168 L246.884,204.064 L245.14,204.064 L245.14,200.944 L244.004,200.944 L244.004,204.064 L241.876,204.064 L241.876,205.168 L243.988,205.168 C243.492,207.136 242.676,208.88 241.556,210.416 L242.052,211.664 C242.852,210.416 243.508,209.024 244.004,207.504 L244.004,215.536 L245.14,215.536 Z M251.62,206 C250.836,205.328 250.196,204.576 249.7,203.76 C249.764,203.664 249.812,203.552 249.876,203.456 L253.732,203.456 C253.204,204.384 252.5,205.232 251.62,206 Z M249.316,215.568 L249.316,214.864 L253.844,214.864 L253.844,215.568 L254.964,215.568 L254.964,209.6 L248.196,209.6 L248.196,215.568 L249.316,215.568 Z M253.844,213.792 L249.316,213.792 L249.316,210.672 L253.844,210.672 L253.844,213.792 Z M270.212,215.552 C271.028,215.536 271.684,214.368 272.164,212.064 L271.124,211.52 C270.788,213.312 270.452,214.224 270.132,214.272 C269.604,214.272 268.996,213.376 268.324,211.616 C267.7,209.824 267.284,207.6 267.092,204.912 L271.972,204.912 L271.972,203.792 L267.028,203.792 C266.98,202.896 266.964,201.952 266.964,200.96 L265.78,200.96 C265.78,201.936 265.796,202.88 265.844,203.792 L258.02,203.792 L258.02,204.912 L265.908,204.912 C266.036,206.928 266.276,208.688 266.644,210.208 C267.604,213.696 268.788,215.488 270.212,215.552 Z M269.924,203.632 L270.884,203.152 C270.404,202.384 269.908,201.68 269.38,201.04 L268.42,201.504 C268.964,202.128 269.46,202.832 269.924,203.632 Z M258.212,214.56 C260.868,214.176 263.364,213.712 265.668,213.152 L265.668,212.032 C264.548,212.32 263.412,212.592 262.228,212.816 L262.228,208.656 L265.044,208.656 L265.044,207.568 L258.26,207.568 L258.26,208.656 L261.076,208.656 L261.076,213.024 C260.052,213.184 258.996,213.344 257.94,213.472 L258.212,214.56 Z M275.572,215.6 L275.572,214.944 L286.388,214.944 L286.388,215.6 L287.508,215.6 L287.508,201.632 L274.452,201.632 L274.452,215.6 L275.572,215.6 Z M286.388,213.92 L275.572,213.92 L275.572,202.656 L286.388,202.656 L286.388,213.92 Z M276.724,209.216 C278.548,208.816 280.068,208.288 281.3,207.632 C282.42,208.256 283.748,208.768 285.3,209.184 L285.908,208.32 C284.532,208 283.316,207.568 282.244,207.056 C283.156,206.416 283.828,205.664 284.276,204.816 L284.276,204.016 L280.052,204.016 C280.212,203.728 280.34,203.44 280.468,203.136 L279.444,203.008 C278.932,204.224 277.94,205.264 276.484,206.128 L277.124,206.96 C277.732,206.576 278.276,206.16 278.756,205.712 C279.204,206.192 279.748,206.64 280.372,207.056 C279.252,207.584 277.86,208 276.212,208.288 L276.724,209.216 Z M281.3,206.56 C280.564,206.112 279.908,205.616 279.348,205.072 C279.38,205.008 279.428,204.944 279.492,204.88 L283.124,204.88 C282.692,205.52 282.084,206.08 281.3,206.56 Z M282.692,210.96 L283.236,210.128 C282.196,209.552 281.044,209.04 279.796,208.624 L279.268,209.392 C280.452,209.776 281.588,210.288 282.692,210.96 Z M283.876,213.504 L284.26,212.576 C282.308,211.84 280.26,211.264 278.132,210.864 L277.684,211.728 C279.828,212.144 281.892,212.736 283.876,213.504 Z M301.3,215.632 L301.3,208.928 L293.86,208.928 C293.892,208.4 293.924,207.84 293.94,207.248 L293.94,206.288 L303.364,206.288 L303.364,205.184 L299.764,205.184 L299.764,200.928 L298.628,200.928 L298.628,205.184 L293.94,205.184 L293.94,201.376 L292.772,201.376 L292.772,207.248 C292.74,210.704 291.892,213.232 290.212,214.816 L291.092,215.584 C292.452,214.304 293.332,212.448 293.716,210.048 L300.148,210.048 L300.148,215.632 L301.3,215.632 Z M65.132,236 L65.132,224.576 L64.108,224.576 C63.724,225.008 63.276,225.392 62.732,225.744 C62.188,226.064 61.644,226.288 61.132,226.432 L61.132,227.744 C62.204,227.424 63.1,226.912 63.82,226.176 L63.82,236 L65.132,236 Z M69.308,236 L69.308,226.912 L69.356,226.912 L73.308,236 L74.492,236 L78.444,226.912 L78.492,226.912 L78.492,236 L79.804,236 L79.804,224.576 L78.172,224.576 L73.932,234.32 L73.884,234.32 L69.628,224.576 L67.996,224.576 L67.996,236 L69.308,236 Z M87.404,237.44 C89.74,236.096 91.436,234.448 92.492,232.512 C93.708,234.192 94.684,235.776 95.436,237.28 L96.316,236.4 C95.42,234.736 94.316,233.072 93.004,231.408 C93.1,231.168 93.18,230.928 93.26,230.688 C93.932,228.576 94.268,226.016 94.268,222.976 L93.068,222.976 C93.052,226.064 92.716,228.608 92.044,230.608 C91.164,232.976 89.356,234.928 86.636,236.496 L87.404,237.44 Z M83.02,235.776 C84.892,235.088 86.652,234.272 88.284,233.328 L87.964,232.208 C86.732,232.944 85.5,233.568 84.252,234.08 L84.252,223.392 L83.068,223.392 L83.068,233.808 C83.068,234.176 82.924,234.464 82.636,234.688 L83.02,235.776 Z M89.356,229.744 L90.332,229.072 C89.564,227.824 88.444,226.352 86.988,224.672 L86.028,225.264 C87.436,226.912 88.54,228.4 89.356,229.744 Z M99.804,237.584 L99.804,226.624 L104.364,226.624 C104.252,227.36 104.108,228.032 103.932,228.656 C103.356,230.432 102.172,231.904 100.38,233.088 L101.148,234.032 C103.004,232.816 104.252,231.312 104.908,229.488 C106.412,231.024 107.644,232.48 108.572,233.856 L109.436,232.976 C108.3,231.456 106.908,229.904 105.244,228.336 C105.372,227.808 105.468,227.232 105.548,226.624 L110.124,226.624 L110.124,235.552 C110.124,236.064 109.868,236.336 109.356,236.336 L106.908,236.272 L107.228,237.424 L109.74,237.424 C110.764,237.424 111.292,236.88 111.292,235.808 L111.292,225.504 L105.676,225.504 C105.74,224.704 105.788,223.824 105.788,222.88 L104.62,222.88 C104.62,223.808 104.572,224.688 104.492,225.504 L98.636,225.504 L98.636,237.584 L99.804,237.584 Z M122.476,236 L122.476,234.864 L115.42,234.864 L115.42,230.672 L121.82,230.672 L121.82,229.536 L115.42,229.536 L115.42,225.712 L122.204,225.712 L122.204,224.576 L114.108,224.576 L114.108,236 L122.476,236 Z M124.844,236 L128.236,231.104 L131.644,236 L133.26,236 L129.02,230.064 L132.956,224.576 L131.34,224.576 L128.236,229.024 L125.148,224.576 L123.532,224.576 L127.436,230.064 L123.228,236 L124.844,236 Z M139.372,236.224 C140.588,236.224 141.644,235.872 142.524,235.184 C143.468,234.448 144.06,233.408 144.316,232.08 L143.052,232.08 C142.828,233.072 142.364,233.824 141.692,234.336 C141.052,234.816 140.284,235.056 139.372,235.056 C138.028,235.056 137.02,234.608 136.316,233.728 C135.644,232.896 135.324,231.76 135.324,230.336 C135.324,228.912 135.66,227.776 136.332,226.912 C137.052,225.984 138.076,225.52 139.404,225.52 C140.3,225.52 141.052,225.728 141.676,226.16 C142.316,226.608 142.732,227.248 142.892,228.08 L144.156,228.08 C143.996,226.944 143.484,226.032 142.62,225.36 C141.756,224.688 140.684,224.352 139.42,224.352 C137.66,224.352 136.284,224.944 135.324,226.16 C134.444,227.248 134.012,228.64 134.012,230.336 C134.012,232.032 134.428,233.408 135.292,234.464 C136.236,235.632 137.596,236.224 139.372,236.224 Z M154.508,236 L154.508,234.864 L147.452,234.864 L147.452,230.672 L153.852,230.672 L153.852,229.536 L147.452,229.536 L147.452,225.712 L154.236,225.712 L154.236,224.576 L146.14,224.576 L146.14,236 L154.508,236 Z M164.236,236 L164.236,234.864 L157.628,234.864 L157.628,224.576 L156.332,224.576 L156.332,236 L164.236,236 Z M169.772,237.68 L170.572,237.008 C170.188,236.464 169.724,235.904 169.196,235.36 C168.588,234.72 167.964,234.192 167.356,233.76 L166.636,234.432 C167.228,234.88 167.82,235.408 168.412,236.048 C168.924,236.592 169.388,237.136 169.772,237.68 Z M186.62,236.224 C187.836,236.224 188.892,235.872 189.772,235.184 C190.716,234.448 191.308,233.408 191.564,232.08 L190.3,232.08 C190.076,233.072 189.612,233.824 188.94,234.336 C188.3,234.816 187.532,235.056 186.62,235.056 C185.276,235.056 184.268,234.608 183.564,233.728 C182.892,232.896 182.572,231.76 182.572,230.336 C182.572,228.912 182.908,227.776 183.58,226.912 C184.3,225.984 185.324,225.52 186.652,225.52 C187.548,225.52 188.3,225.728 188.924,226.16 C189.564,226.608 189.98,227.248 190.14,228.08 L191.404,228.08 C191.244,226.944 190.732,226.032 189.868,225.36 C189.004,224.688 187.932,224.352 186.668,224.352 C184.908,224.352 183.532,224.944 182.572,226.16 C181.692,227.248 181.26,228.64 181.26,230.336 C181.26,232.032 181.676,233.408 182.54,234.464 C183.484,235.632 184.844,236.224 186.62,236.224 Z M197.404,236.224 C198.764,236.224 199.836,235.936 200.636,235.376 C201.436,234.8 201.836,234 201.836,233.008 C201.836,231.968 201.356,231.168 200.412,230.592 C199.932,230.304 198.94,229.936 197.436,229.488 C196.332,229.168 195.628,228.928 195.34,228.768 C194.684,228.416 194.364,227.952 194.364,227.376 C194.364,226.72 194.636,226.24 195.18,225.92 C195.66,225.632 196.316,225.504 197.164,225.504 C198.092,225.504 198.812,225.696 199.324,226.112 C199.82,226.512 200.14,227.12 200.284,227.952 L201.58,227.952 C201.468,226.752 201.036,225.84 200.268,225.232 C199.532,224.64 198.508,224.352 197.228,224.352 C196.044,224.352 195.068,224.608 194.316,225.12 C193.468,225.664 193.052,226.448 193.052,227.44 C193.052,228.4 193.484,229.136 194.364,229.648 C194.732,229.84 195.612,230.16 196.988,230.576 C198.268,230.944 199.084,231.216 199.404,231.408 C200.156,231.808 200.54,232.368 200.54,233.088 C200.54,233.696 200.252,234.176 199.676,234.528 C199.1,234.88 198.332,235.056 197.404,235.056 C196.38,235.056 195.612,234.832 195.084,234.416 C194.508,233.952 194.156,233.216 194.044,232.224 L192.748,232.224 C192.844,233.632 193.34,234.672 194.236,235.36 C195.004,235.936 196.06,236.224 197.404,236.224 Z M208.268,236 L212.492,224.576 L211.052,224.576 L207.484,234.576 L207.436,234.576 L203.868,224.576 L202.428,224.576 L206.652,236 L208.268,236 Z M227.276,237.664 L227.9,236.704 C225.34,235.76 223.212,234.576 221.516,233.136 C223.084,231.44 224.268,229.312 225.052,226.784 L227.548,226.784 L227.548,225.632 L221.436,225.632 C220.924,224.528 220.38,223.584 219.772,222.816 L218.62,223.232 C219.26,223.984 219.788,224.784 220.22,225.632 L213.596,225.632 L213.596,226.784 L216.06,226.784 C216.78,229.248 218.06,231.392 219.916,233.216 C218.188,234.784 215.98,235.92 213.292,236.64 L213.9,237.648 C216.62,236.864 218.892,235.632 220.716,233.952 C222.444,235.44 224.62,236.672 227.276,237.664 Z M220.716,232.416 C219.052,230.816 217.884,228.944 217.196,226.784 L223.852,226.784 C223.18,228.992 222.14,230.864 220.716,232.416 Z M232.268,237.616 L232.268,226.928 C232.908,225.792 233.436,224.592 233.852,223.328 L232.764,222.832 C231.996,225.328 230.78,227.552 229.084,229.472 L229.452,230.704 C230.06,230.064 230.62,229.392 231.132,228.688 L231.132,237.616 L232.268,237.616 Z M239.564,237.536 L239.564,232.384 L243.836,232.384 L243.836,231.28 L239.564,231.28 L239.564,227.424 L243.244,227.424 L243.244,226.304 L239.564,226.304 L239.564,222.976 L238.412,222.976 L238.412,226.304 L236.06,226.304 C236.284,225.6 236.46,224.832 236.588,224.032 L235.452,223.888 C235.1,226.016 234.444,227.824 233.468,229.296 L234.204,230.256 C234.796,229.424 235.292,228.48 235.692,227.424 L238.412,227.424 L238.412,231.28 L233.708,231.28 L233.708,232.384 L238.412,232.384 L238.412,237.536 L239.564,237.536 Z" id="支持上传5M以内JGP、PNG、GIF格式图片1M以内EXCEL、CSV文件" fill="#FFFFFF" fill-rule="nonzero"></path>
            </g>
        </g>
    </g>
</svg>