<?xml version="1.0" encoding="UTF-8"?>
<svg width="13px" height="20px" viewBox="0 0 13 20" version="1.1" xmlns="http://www.w3.org/2000/svg" xmlns:xlink="http://www.w3.org/1999/xlink">
    <title>手机</title>
    <g id="页面-1" stroke="none" stroke-width="1" fill="none" fill-rule="evenodd">
        <g id="我的上传-手机扫码上传/批量删除" transform="translate(-66.000000, -191.000000)" fill="#0E7DCC" fill-rule="nonzero">
            <g id="添加图表" transform="translate(51.000000, 128.000000)">
                <g id="搜索图表" transform="translate(15.000000, 20.000000)">
                    <path d="M11,43 C12.1045695,43 13,43.8954305 13,45 L13,61 C13,62.1045695 12.1045695,63 11,63 L2,63 C0.8954305,63 1.3527075e-16,62.1045695 0,61 L0,45 C-1.3527075e-16,43.8954305 0.8954305,43 2,43 L11,43 Z M6.5,59 C5.67157288,59 5,59.6715729 5,60.5 C5,61.3284271 5.67157288,62 6.5,62 C7.32842712,62 8,61.3284271 8,60.5 C8,59.6715729 7.32842712,59 6.5,59 Z M12,46 L1,46 L1,58 L12,58 L12,46 Z M8.49089303,43.9564451 L4.49150225,44.0262548 C4.21540194,44.0310741 3.99548526,44.2588045 4.00030461,44.5349048 C4.00512396,44.8110051 4.23285434,45.0309218 4.50895466,45.0261025 L4.50895466,45.0261025 L8.50834544,44.9562928 C8.78444576,44.9514735 9.00436243,44.7237431 8.99954309,44.4476428 C8.99472374,44.1715425 8.76699335,43.9516258 8.49089303,43.9564451 L8.49089303,43.9564451 Z" id="手机"></path>
                </g>
            </g>
        </g>
    </g>
</svg>