<?xml version="1.0" encoding="UTF-8"?>
<svg width="22px" height="23px" viewBox="0 0 22 23" version="1.1" xmlns="http://www.w3.org/2000/svg" xmlns:xlink="http://www.w3.org/1999/xlink">
    <!-- Generator: Sketch 63.1 (92452) - https://sketch.com -->
    <title>提模板需求</title>
    <desc>Created with Sketch.</desc>
    <defs>
        <linearGradient x1="100%" y1="50%" x2="0%" y2="50%" id="linearGradient-1">
            <stop stop-color="#7981FF" offset="0%"></stop>
            <stop stop-color="#2CAFFF" offset="100%"></stop>
        </linearGradient>
    </defs>
    <g id="控件" stroke="none" stroke-width="1" fill="none" fill-rule="evenodd">
        <g id="侧边栏内容部分" transform="translate(-44.000000, -504.000000)" fill="url(#linearGradient-1)" fill-rule="nonzero">
            <g id="内容部分">
                <g id="按钮" transform="translate(20.000000, 495.670143)">
                    <path d="M45.1436138,15.7375 C44.5899944,14.4189732 43.7927825,13.2354911 42.7790439,12.2189732 C41.7653052,11.2049107 40.58179,10.4069196 39.2604851,9.85446429 C37.9096537,9.28727679 36.4776249,9 34.998846,9 L34.9496354,9 C33.4610143,9.00736607 32.0216039,9.30200893 30.6658515,9.88147321 C29.3568492,10.4412946 28.1831761,11.2368304 27.1792796,12.2508929 C26.1753831,13.2649554 25.3880133,14.4435268 24.8417755,15.7571429 C24.278314,17.1174107 23.9928924,18.5636161 24.0001344,20.0515625 C24.0076556,21.7555804 24.4161037,23.4473214 25.1788682,24.9598214 L25.1788682,28.6919643 C25.1788682,29.315625 25.6857375,29.8214286 26.3082518,29.8214286 L30.0433373,29.8214286 C31.5565636,30.5850446 33.2469482,30.9926339 34.9520959,31 L35.003767,31 C36.4751644,31 37.8998116,30.7151786 39.2432613,30.1578125 C40.5571847,29.6102679 41.7382394,28.8245536 42.7495175,27.8203125 C43.7632561,26.8160714 44.560468,25.6424107 45.1190085,24.3337054 C45.6972332,22.9783482 45.9924969,21.5370536 45.99994,20.0491071 C46.0047995,18.5537946 45.7144569,17.1026786 45.1436138,15.7375 Z M29,22 C27.8977035,22 27,21.1041667 27,20 C27,18.8958333 27.8977035,18 29,18 C30.1022965,18 31,18.8958333 31,20 C31,21.1041667 30.1064718,22 29,22 Z M34.998846,22 C33.8965495,22 32.998846,21.1041667 32.998846,20 C32.998846,18.8958333 33.8965495,18 34.998846,18 C36.1011424,18 36.998846,18.8958333 36.998846,20 C36.998846,21.1041667 36.1011424,22 34.998846,22 Z M40.9100651,22 C39.8077687,22 38.9100651,21.1041667 38.9100651,20 C38.9100651,18.8958333 39.8077687,18 40.9100651,18 C42.0123616,18 42.9100651,18.8958333 42.9100651,20 C42.9100651,21.1041667 42.0123616,22 40.9100651,22 Z" id="提模板需求"></path>
                </g>
            </g>
        </g>
    </g>
</svg>