<?xml version="1.0" encoding="UTF-8"?>
<svg width="1760px" height="235px" viewBox="0 0 1760 235" version="1.1" xmlns="http://www.w3.org/2000/svg" xmlns:xlink="http://www.w3.org/1999/xlink">
    <title>画板</title>
    <defs>
        <rect id="path-1" x="0" y="0" width="325" height="235"></rect>
        <linearGradient x1="-9.86202063%" y1="50%" x2="100%" y2="50%" id="linearGradient-3">
            <stop stop-color="#FA6B52" offset="0%"></stop>
            <stop stop-color="#FF7257" offset="100%"></stop>
        </linearGradient>
        <rect id="path-4" x="1435" y="0" width="325" height="235"></rect>
        <linearGradient x1="-9.86202063%" y1="50%" x2="105.479928%" y2="50.0130813%" id="linearGradient-6">
            <stop stop-color="#FF8D3B" offset="0%"></stop>
            <stop stop-color="#DE4336" offset="30.0919467%"></stop>
            <stop stop-color="#E54D3D" offset="74.1193087%"></stop>
            <stop stop-color="#FF7257" offset="100%"></stop>
        </linearGradient>
        <rect id="path-7" x="325" y="0" width="1110" height="235"></rect>
        <linearGradient x1="30.0028121%" y1="42.6772941%" x2="69.9971879%" y2="55.9037447%" id="linearGradient-9">
            <stop stop-color="#C61403" offset="0.0491695804%"></stop>
            <stop stop-color="#E41333" offset="47.6754286%"></stop>
            <stop stop-color="#F35446" offset="100%"></stop>
        </linearGradient>
        <linearGradient x1="25.8034026%" y1="42.6772941%" x2="74.1965974%" y2="55.9037447%" id="linearGradient-10">
            <stop stop-color="#A52014" offset="0.0491695804%"></stop>
            <stop stop-color="#C51F38" offset="47.6754286%"></stop>
            <stop stop-color="#CA1F62" offset="100%"></stop>
        </linearGradient>
        <polygon id="path-11" points="0 8.4 64.288 16 128.576 8 65.464 0"></polygon>
        <filter x="-1.6%" y="-12.5%" width="103.1%" height="125.0%" filterUnits="objectBoundingBox" id="filter-13">
            <feGaussianBlur stdDeviation="1.5" in="SourceAlpha" result="shadowBlurInner1"></feGaussianBlur>
            <feOffset dx="0" dy="1" in="shadowBlurInner1" result="shadowOffsetInner1"></feOffset>
            <feComposite in="shadowOffsetInner1" in2="SourceAlpha" operator="arithmetic" k2="-1" k3="1" result="shadowInnerInner1"></feComposite>
            <feColorMatrix values="0 0 0 0 1   0 0 0 0 1   0 0 0 0 1  0 0 0 0.4 0" type="matrix" in="shadowInnerInner1"></feColorMatrix>
        </filter>
        <filter x="-9.2%" y="-233.3%" width="118.3%" height="566.7%" filterUnits="objectBoundingBox" id="filter-14">
            <feGaussianBlur stdDeviation="2.8" in="SourceGraphic"></feGaussianBlur>
        </filter>
        <polygon id="path-15" points="0 0.149625529 33.0347938 0.149625529 33.0347938 25.1947951 0 25.1947951"></polygon>
        <polygon id="path-17" points="0 59.2 110.4 59.2 110.4 0 0 0"></polygon>
        <polygon id="path-19" points="0.000241326246 0.2176525 19.0429758 0.2176525 19.0429758 29.5775961 0.000241326246 29.5775961"></polygon>
        <linearGradient x1="30.3152634%" y1="42.6772941%" x2="69.6847366%" y2="55.9037447%" id="linearGradient-21">
            <stop stop-color="#A52014" offset="0.0491695804%"></stop>
            <stop stop-color="#C51F38" offset="47.6754286%"></stop>
            <stop stop-color="#CA1F62" offset="100%"></stop>
        </linearGradient>
        <polygon id="path-22" points="0 8.4 64.288 16 128.576 8 65.464 0"></polygon>
        <filter x="-1.6%" y="-12.5%" width="103.1%" height="125.0%" filterUnits="objectBoundingBox" id="filter-24">
            <feGaussianBlur stdDeviation="1.5" in="SourceAlpha" result="shadowBlurInner1"></feGaussianBlur>
            <feOffset dx="0" dy="1" in="shadowBlurInner1" result="shadowOffsetInner1"></feOffset>
            <feComposite in="shadowOffsetInner1" in2="SourceAlpha" operator="arithmetic" k2="-1" k3="1" result="shadowInnerInner1"></feComposite>
            <feColorMatrix values="0 0 0 0 1   0 0 0 0 1   0 0 0 0 1  0 0 0 0.4 0" type="matrix" in="shadowInnerInner1"></feColorMatrix>
        </filter>
        <filter x="-9.2%" y="-233.3%" width="118.3%" height="566.7%" filterUnits="objectBoundingBox" id="filter-25">
            <feGaussianBlur stdDeviation="2.8" in="SourceGraphic"></feGaussianBlur>
        </filter>
    </defs>
    <g id="画板" stroke="none" stroke-width="1" fill="none" fill-rule="evenodd">
        <mask id="mask-2" fill="white">
            <use xlink:href="#path-1"></use>
        </mask>
        <use id="蒙版" fill="#F5783A" xlink:href="#path-1"></use>
        <mask id="mask-5" fill="white">
            <use xlink:href="#path-4"></use>
        </mask>
        <use id="蒙版" fill="url(#linearGradient-3)" xlink:href="#path-4"></use>
        <mask id="mask-8" fill="white">
            <use xlink:href="#path-7"></use>
        </mask>
        <use id="蒙版" fill="url(#linearGradient-6)" xlink:href="#path-7"></use>
        <g id="编组-8" mask="url(#mask-8)">
            <g transform="translate(409.000000, -64.000000)">
                <g id="编组-19" transform="translate(805.000000, 102.000000)">
                    <g id="编组-2" transform="translate(0.354987, 117.200000)">
                        <polygon id="矩形" fill="url(#linearGradient-9)" points="0 9.2 64 16.44127 64 110.4 0 103.15873"></polygon>
                        <polygon id="矩形" fill="url(#linearGradient-10)" points="64.8 16.1015176 128.8 8.4 128.8 92.6984824 64.8 100.4"></polygon>
                        <g id="矩形" transform="translate(0.000000, 0.400000)">
                            <mask id="mask-12" fill="white">
                                <use xlink:href="#path-11"></use>
                            </mask>
                            <g id="蒙版">
                                <use fill="#FF586C" fill-rule="evenodd" xlink:href="#path-11"></use>
                                <use fill="black" fill-opacity="1" filter="url(#filter-13)" xlink:href="#path-11"></use>
                            </g>
                            <rect fill="#CB172F" opacity="0.5" filter="url(#filter-14)" mask="url(#mask-12)" x="18.424" y="5.2" width="91.728" height="3.6" rx="1.8"></rect>
                        </g>
                    </g>
                    <g id="编组-12" transform="translate(1.754987, 0.000000)">
                        <g id="编组-10" transform="translate(63.500000, 38.500000) scale(-1, 1) translate(-63.500000, -38.500000) ">
                            <path d="M6.65454545,0 L7.88880527,0.0705490409 C8.17753536,0.0871526794 37.1470609,1.71678286 65.9006523,2.29767855 L66.399591,2.30775838 C95.3192227,2.88038084 124.620829,2.50824626 124.912831,2.5044173 L126.145455,2.48895989 L126.145455,71.357194 L124.912831,71.3417365 C124.620829,71.3379076 95.3192227,70.965773 66.399591,71.5383955 L65.9006523,71.5484753 C37.1486968,72.1293379 8.17753536,73.7590012 7.88880527,73.7756048 L6.65454545,73.8461538 L6.65454545,0 Z" id="Fill-1" fill="#FF9599"></path>
                            <path d="M1.4838596,1.53846154 L2.73895526,1.61261413 C3.03256107,1.63006143 32.4964966,3.34209293 61.7507399,3.98866588 L62.258366,3.99988535 C91.6814824,4.63844229 121.483339,4.32488881 121.780273,4.32166054 L123.033713,4.30874883 L123.758778,73.7681742 L122.489532,73.7552625 C122.188856,73.7520343 92.0221045,73.4384808 62.2583612,74.0770377 L61.7448603,74.0882572 C32.1537452,74.7347934 2.32702464,76.4468617 2.02971602,76.4643089 L0.758778047,76.5384615 L1.4838596,1.53846154 Z" id="Fill-1" fill="#FFC295" opacity="0.5"></path>
                        </g>
                        <g id="编组" transform="translate(8.400000, 8.000000)">
                            <path d="M35.6535703,12.3012987 L38.6013986,9.62768594 C34.615418,5.13347923 28.829287,2.30649351 22.3888112,2.30649351 L22.3888112,6.31312565 C27.6563341,6.31312565 32.3902711,8.62413441 35.6535703,12.3012987" id="Fill-1" fill="#FD8589"></path>
                            <path d="M22.3888112,6.15064935 L22.3888112,10.8478589 C26.2659498,10.8478589 29.7485206,12.5967994 32.1474191,15.3766234 L35.5132867,12.2387334 C32.284499,8.50021665 27.6006266,6.15064935 22.3888112,6.15064935" id="Fill-3" fill="#EC4D26"></path>
                            <path d="M38.2918639,9.22597403 L35.2658737,11.9078719 C38.1717468,15.1082954 39.9389096,19.3381727 39.9389096,23.9783119 C39.9389096,30.6336733 36.3008027,36.4476178 30.8811189,39.5844127 L32.93368,43.0545455 C39.5574177,39.2197353 44.0055944,32.112326 44.0055944,23.9783119 C44.0055944,18.3077693 41.8444474,13.1377083 38.2918639,9.22597403" id="Fill-5" fill="#C8563F"></path>
                            <path d="M35.3930896,23.6025602 C35.3930896,28.5496932 32.6511532,32.8747544 28.565035,35.208236 L30.9641075,39.2103896 C36.4577206,36.0724884 40.1454545,30.2582538 40.1454545,23.6025602 C40.1454545,18.9631391 38.354186,14.732101 35.4086743,11.5324675 L31.8689952,14.627631 C34.0605962,17.0076492 35.3930896,20.1531483 35.3930896,23.6025602" id="Fill-7" fill="#FFA396"></path>
                            <path d="M21.6167832,6.30326717 L21.6167832,2.30649351 C10.6767883,2.30649351 1.61120049,10.3765386 0,20.9162348 L3.93211881,21.5272727 C5.25097195,12.9056879 12.6668183,6.30326717 21.6167832,6.30326717" id="Fill-9" fill="#C8563F"></path>
                            <path d="M21.6167832,10.8218901 L21.6167832,6.15064935 C12.6303908,6.15064935 5.18436091,12.8416274 3.86013986,21.5810595 L8.41327054,22.2961039 C9.39770572,15.7975273 14.9333839,10.8218901 21.6167832,10.8218901" id="Fill-11" fill="#ED5C61"></path>
                            <g transform="translate(0.000000, 20.758442)">
                                <mask id="mask-16" fill="white">
                                    <use xlink:href="#path-15"></use>
                                </mask>
                                <g id="Clip-14"></g>
                                <path d="M21.9542195,21.2438816 C12.0352041,21.2438816 3.99298872,13.2888404 3.99298872,3.47504 C3.99298872,2.5507951 4.06470154,1.6414875 4.20246564,0.753652245 L0.255429744,0.149625529 C0.0874707692,1.23351273 -0.000283076923,2.34354019 -0.000283076923,3.47504 C-0.000283076923,15.4706185 9.82909128,25.1947951 21.9542195,25.1947951 C25.9946708,25.1947951 29.78224,24.1137086 33.0347938,22.2278756 L31.0192862,18.8165717 C28.3593067,20.3607142 25.2605579,21.2438816 21.9542195,21.2438816" id="Fill-13" fill="#ED5C61" mask="url(#mask-16)"></path>
                            </g>
                            <path d="M21.8178361,37.6709407 C14.4432466,37.6709407 8.46489507,31.6761805 8.46489507,24.2834626 C8.46489507,23.5873213 8.51772569,22.9025301 8.62055674,22.2338183 L4.06957556,21.5272727 C3.93183857,22.4258247 3.86013986,23.3470769 3.86013986,24.2834626 C3.86013986,34.2261763 11.9007726,42.2857143 21.8178361,42.2857143 C25.1235239,42.2857143 28.2216628,41.3909457 30.8811189,39.8274653 L28.5584581,35.8416781 C26.5791964,37.0050664 24.2754037,37.6709407 21.8178361,37.6709407" id="Fill-15" fill="#FD8589"></path>
                            <mask id="mask-18" fill="white">
                                <use xlink:href="#path-17"></use>
                            </mask>
                            <g id="Clip-18"></g>
                            <polygon id="Fill-17" fill="#C8563F" mask="url(#mask-18)" points="3.86013986 56.8935065 11.5804196 56.8935065 11.5804196 54.587013 3.86013986 54.587013"></polygon>
                            <polygon id="Fill-19" fill="#EC4D26" mask="url(#mask-18)" points="13.1244755 56.8935065 20.8447552 56.8935065 20.8447552 54.587013 13.1244755 54.587013"></polygon>
                            <polygon id="Fill-20" fill="#FD8589" mask="url(#mask-18)" points="21.6167832 56.8935065 29.3370629 56.8935065 29.3370629 54.587013 21.6167832 54.587013"></polygon>
                            <polygon id="Fill-21" fill="#ED5C61" mask="url(#mask-18)" points="30.8811189 56.8935065 38.6013986 56.8935065 38.6013986 54.587013 30.8811189 54.587013"></polygon>
                            <polygon id="Fill-22" fill="#FD8589" mask="url(#mask-18)" points="108.855944 10.7636364 103.451834 16.256672 98.0477246 23.925661 92.6436149 21.624588 87.2395052 26.9915633 81.8353955 37.728336 76.4682224 32.3782943 71.0271761 35.1243417 65.6230664 40.2533074 60.2189567 37.728336 54.8138999 43.096252 49.4097902 48.464168 49.4097902 59.2 108.855944 59.2"></polygon>
                            <g mask="url(#mask-18)" fill="#FFFFFF">
                                <g transform="translate(49.409790, -0.768831)">
                                    <path d="M0.692848783,59.8034236 C0.674082565,59.8034236 0.660946212,59.7884728 0.660946212,59.7707188 L0.660946212,0.996284547 C0.660946212,0.978530462 0.674082565,0.963579652 0.692848783,0.963579652 C0.711615002,0.963579652 0.725689665,0.978530462 0.725689665,0.996284547 L0.725689665,59.7707188 C0.725689665,59.7884728 0.711615002,59.8034236 0.692848783,59.8034236" id="Fill-23"></path>
                                    <path d="M6.04685089,59.8034236 C6.02902298,59.8034236 6.01401001,59.7884728 6.01401001,59.7707188 L6.01401001,0.996284547 C6.01401001,0.978530462 6.02902298,0.963579652 6.04685089,0.963579652 C6.06561711,0.963579652 6.07969177,0.978530462 6.07969177,0.996284547 L6.07969177,59.7707188 C6.07969177,59.7884728 6.06561711,59.8034236 6.04685089,59.8034236" id="Fill-24"></path>
                                    <path d="M11.4009468,59.8034236 C11.3821806,59.8034236 11.3681059,59.7884728 11.3681059,59.7707188 L11.3681059,0.996284547 C11.3681059,0.978530462 11.3821806,0.963579652 11.4009468,0.963579652 C11.4197131,0.963579652 11.4337877,0.978530462 11.4337877,0.996284547 L11.4337877,59.7707188 C11.4337877,59.7884728 11.4197131,59.8034236 11.4009468,59.8034236" id="Fill-25"></path>
                                    <path d="M16.7549489,59.8034236 C16.7361827,59.8034236 16.7221081,59.7884728 16.7221081,59.7707188 L16.7221081,0.996284547 C16.7221081,0.978530462 16.7361827,0.963579652 16.7549489,0.963579652 C16.7737152,0.963579652 16.7877898,0.978530462 16.7877898,0.996284547 L16.7877898,59.7707188 C16.7877898,59.7884728 16.7737152,59.8034236 16.7549489,59.8034236" id="Fill-26"></path>
                                    <path d="M22.1090449,59.8034236 C22.0902787,59.8034236 22.076204,59.7884728 22.076204,59.7707188 L22.076204,0.996284547 C22.076204,0.978530462 22.0902787,0.963579652 22.1090449,0.963579652 C22.1278111,0.963579652 22.1418858,0.978530462 22.1418858,0.996284547 L22.1418858,59.7707188 C22.1418858,59.7884728 22.1278111,59.8034236 22.1090449,59.8034236" id="Fill-27"></path>
                                    <path d="M27.463047,59.8034236 C27.4442808,59.8034236 27.4302061,59.7884728 27.4302061,59.7707188 L27.4302061,0.996284547 C27.4302061,0.978530462 27.4442808,0.963579652 27.463047,0.963579652 C27.4818132,0.963579652 27.4958879,0.978530462 27.4958879,0.996284547 L27.4958879,59.7707188 C27.4958879,59.7884728 27.4818132,59.8034236 27.463047,59.8034236" id="Fill-28"></path>
                                    <path d="M32.8171429,59.8034236 C32.7983767,59.8034236 32.784302,59.7884728 32.784302,59.7707188 L32.784302,0.996284547 C32.784302,0.978530462 32.7983767,0.963579652 32.8171429,0.963579652 C32.8359091,0.963579652 32.8499838,0.978530462 32.8499838,0.996284547 L32.8499838,59.7707188 C32.8499838,59.7884728 32.8359091,59.8034236 32.8171429,59.8034236" id="Fill-29"></path>
                                    <path d="M38.1712389,59.8034236 C38.1524726,59.8034236 38.138398,59.7884728 38.138398,59.7707188 L38.138398,0.996284547 C38.138398,0.978530462 38.1524726,0.963579652 38.1712389,0.963579652 C38.1900051,0.963579652 38.2040798,0.978530462 38.2040798,0.996284547 L38.2040798,59.7707188 C38.2040798,59.7884728 38.1900051,59.8034236 38.1712389,59.8034236" id="Fill-30"></path>
                                    <path d="M43.525241,59.8034236 C43.5064748,59.8034236 43.4924001,59.7884728 43.4924001,59.7707188 L43.4924001,0.996284547 C43.4924001,0.978530462 43.5064748,0.963579652 43.525241,0.963579652 C43.5440072,0.963579652 43.5580819,0.978530462 43.5580819,0.996284547 L43.5580819,59.7707188 C43.5580819,59.7884728 43.5440072,59.8034236 43.525241,59.8034236" id="Fill-31"></path>
                                    <path d="M48.8793369,59.8034236 C48.8605707,59.8034236 48.846496,59.7884728 48.846496,59.7707188 L48.846496,0.996284547 C48.846496,0.978530462 48.8605707,0.963579652 48.8793369,0.963579652 C48.8981031,0.963579652 48.9121778,0.978530462 48.9121778,0.996284547 L48.9121778,59.7707188 C48.9121778,59.7884728 48.8981031,59.8034236 48.8793369,59.8034236" id="Fill-32"></path>
                                    <path d="M54.233339,59.8034236 C54.2145728,59.8034236 54.2004981,59.7884728 54.2004981,59.7707188 L54.2004981,0.996284547 C54.2004981,0.978530462 54.2145728,0.963579652 54.233339,0.963579652 C54.2521052,0.963579652 54.2661799,0.978530462 54.2661799,0.996284547 L54.2661799,59.7707188 C54.2661799,59.7884728 54.2521052,59.8034236 54.233339,59.8034236" id="Fill-33"></path>
                                    <path d="M59.587435,59.8034236 C59.5686687,59.8034236 59.5545941,59.7884728 59.5545941,59.7707188 L59.5545941,0.996284547 C59.5545941,0.978530462 59.5686687,0.963579652 59.587435,0.963579652 C59.6062012,0.963579652 59.6202758,0.978530462 59.6202758,0.996284547 L59.6202758,59.7707188 C59.6202758,59.7884728 59.6062012,59.8034236 59.587435,59.8034236" id="Fill-34"></path>
                                    <path d="M59.587435,17.1482978 L0.692473459,17.1482978 C0.674645551,17.1482978 0.660570888,17.133347 0.660570888,17.1155929 C0.660570888,17.0978388 0.674645551,17.082888 0.692473459,17.082888 L59.587435,17.082888 C59.6062012,17.082888 59.6202758,17.0978388 59.6202758,17.1155929 C59.6202758,17.133347 59.6062012,17.1482978 59.587435,17.1482978" id="Fill-35"></path>
                                    <path d="M59.587435,22.4802236 L0.692473459,22.4802236 C0.674645551,22.4802236 0.660570888,22.4652728 0.660570888,22.4475187 C0.660570888,22.4297646 0.674645551,22.4148138 0.692473459,22.4148138 L59.587435,22.4148138 C59.6062012,22.4148138 59.6202758,22.4297646 59.6202758,22.4475187 C59.6202758,22.4652728 59.6062012,22.4802236 59.587435,22.4802236" id="Fill-36"></path>
                                    <path d="M59.587435,27.8121494 L0.692473459,27.8121494 C0.674645551,27.8121494 0.660570888,27.7971985 0.660570888,27.7794445 C0.660570888,27.7616904 0.674645551,27.7467396 0.692473459,27.7467396 L59.587435,27.7467396 C59.6062012,27.7467396 59.6202758,27.7616904 59.6202758,27.7794445 C59.6202758,27.7971985 59.6062012,27.8121494 59.587435,27.8121494" id="Fill-37"></path>
                                    <path d="M59.587435,33.1439817 L0.692473459,33.1439817 C0.674645551,33.1439817 0.660570888,33.1290309 0.660570888,33.1112768 C0.660570888,33.0935227 0.674645551,33.0785719 0.692473459,33.0785719 L59.587435,33.0785719 C59.6062012,33.0785719 59.6202758,33.0935227 59.6202758,33.1112768 C59.6202758,33.1290309 59.6062012,33.1439817 59.587435,33.1439817" id="Fill-38"></path>
                                    <path d="M59.587435,38.4759075 L0.692473459,38.4759075 C0.674645551,38.4759075 0.660570888,38.4609566 0.660570888,38.4432026 C0.660570888,38.4254485 0.674645551,38.4104977 0.692473459,38.4104977 L59.587435,38.4104977 C59.6062012,38.4104977 59.6202758,38.4254485 59.6202758,38.4432026 C59.6202758,38.4609566 59.6062012,38.4759075 59.587435,38.4759075" id="Fill-39"></path>
                                    <path d="M59.587435,43.8077398 L0.692473459,43.8077398 C0.674645551,43.8077398 0.660570888,43.792789 0.660570888,43.7750349 C0.660570888,43.7572808 0.674645551,43.7432644 0.692473459,43.7432644 L59.587435,43.7432644 C59.6062012,43.7432644 59.6202758,43.7572808 59.6202758,43.7750349 C59.6202758,43.792789 59.6062012,43.8077398 59.587435,43.8077398" id="Fill-40"></path>
                                    <path d="M59.587435,49.1396656 L0.692473459,49.1396656 C0.674645551,49.1396656 0.660570888,49.1247147 0.660570888,49.1069607 C0.660570888,49.0882721 0.674645551,49.0742558 0.692473459,49.0742558 L59.587435,49.0742558 C59.6062012,49.0742558 59.6202758,49.0882721 59.6202758,49.1069607 C59.6202758,49.1247147 59.6062012,49.1396656 59.587435,49.1396656" id="Fill-41"></path>
                                    <path d="M59.587435,54.4714979 L0.692473459,54.4714979 C0.674645551,54.4714979 0.660570888,54.4565471 0.660570888,54.438793 C0.660570888,54.4210389 0.674645551,54.4060881 0.692473459,54.4060881 L59.587435,54.4060881 C59.6062012,54.4060881 59.6202758,54.4210389 59.6202758,54.438793 C59.6202758,54.4565471 59.6062012,54.4714979 59.587435,54.4714979" id="Fill-42"></path>
                                    <path d="M59.587435,59.8034236 L0.692473459,59.8034236 C0.674645551,59.8034236 0.660570888,59.7884728 0.660570888,59.7707188 C0.660570888,59.7520302 0.674645551,59.7380139 0.692473459,59.7380139 L59.587435,59.7380139 C59.6062012,59.7380139 59.6202758,59.7520302 59.6202758,59.7707188 C59.6202758,59.7884728 59.6062012,59.8034236 59.587435,59.8034236" id="Fill-43"></path>
                                    <path d="M59.587435,1.02908289 L0.692473459,1.02908289 C0.674645551,1.02908289 0.660570888,1.01413208 0.660570888,0.99637799 C0.660570888,0.978623904 0.674645551,0.963673095 0.692473459,0.963673095 L59.587435,0.963673095 C59.6062012,0.963673095 59.6202758,0.978623904 59.6202758,0.99637799 C59.6202758,1.01413208 59.6062012,1.02908289 59.587435,1.02908289" id="Fill-44"></path>
                                    <path d="M59.587435,6.36091521 L0.692473459,6.36091521 C0.674645551,6.36091521 0.660570888,6.3459644 0.660570888,6.32821032 C0.660570888,6.31045623 0.674645551,6.29550542 0.692473459,6.29550542 L59.587435,6.29550542 C59.6062012,6.29550542 59.6202758,6.31045623 59.6202758,6.32821032 C59.6202758,6.3459644 59.6062012,6.36091521 59.587435,6.36091521" id="Fill-45"></path>
                                    <path d="M59.587435,11.692841 L0.692473459,11.692841 C0.674645551,11.692841 0.660570888,11.6778902 0.660570888,11.6601361 C0.660570888,11.642382 0.674645551,11.6274312 0.692473459,11.6274312 L59.587435,11.6274312 C59.6062012,11.6274312 59.6202758,11.642382 59.6202758,11.6601361 C59.6202758,11.6778902 59.6062012,11.692841 59.587435,11.692841" id="Fill-46"></path>
                                </g>
                            </g>
                            <polygon id="Fill-47" fill="#C8563F" mask="url(#mask-18)" points="49.597663 48.4363636 49.4097902 48.2502123 60.2497657 37.5095609 65.6385987 40.0202653 70.9736189 34.969858 76.464413 32.1691691 81.7890482 37.4450159 87.1032985 26.9148371 87.1184039 26.8998702 92.5695464 21.4986752 97.9394977 23.7801983 103.278294 16.2256346 108.665239 10.7636364 108.855944 10.9479168 103.475608 16.4014962 98.0339061 24.1066647 92.6299678 21.8120455 87.3223261 27.0710546 81.8626868 37.8912179 76.4124883 32.4918937 71.1303369 35.1868786 65.6905233 40.336442 60.3054667 37.826673"></polygon>
                            <path d="M49.7958042,49.2051948 C49.1568476,49.2051948 48.6377622,48.6882589 48.6377622,48.0519481 C48.6377622,47.4156372 49.1568476,46.8987013 49.7958042,46.8987013 C50.4347608,46.8987013 50.9538462,47.4156372 50.9538462,48.0519481 C50.9538462,48.6882589 50.4347608,49.2051948 49.7958042,49.2051948" id="Fill-48" fill="#FFFFFF" mask="url(#mask-18)"></path>
                            <path d="M49.7953309,46.8987013 C49.1554974,46.8987013 48.6377622,47.4145034 48.6377622,48.0519481 C48.6377622,48.6884497 49.1554974,49.2051948 49.7953309,49.2051948 C50.4351645,49.2051948 50.9538462,48.6884497 50.9538462,48.0519481 C50.9538462,47.4145034 50.4351645,46.8987013 49.7953309,46.8987013 M49.7953309,47.1646176 C50.2865641,47.1646176 50.6859868,47.562549 50.6859868,48.0519481 C50.6859868,48.5404042 50.2865641,48.9392785 49.7953309,48.9392785 C49.3040978,48.9392785 48.9056216,48.5404042 48.9056216,48.0519481 C48.9056216,47.562549 49.3040978,47.1646176 49.7953309,47.1646176" id="Fill-49" fill="#C8563F" mask="url(#mask-18)"></path>
                            <path d="M55.2,43.8233766 C54.5610434,43.8233766 54.041958,43.3064407 54.041958,42.6701299 C54.041958,42.033819 54.5610434,41.5168831 55.2,41.5168831 C55.8389566,41.5168831 56.358042,42.033819 56.358042,42.6701299 C56.358042,43.3064407 55.8389566,43.8233766 55.2,43.8233766" id="Fill-50" fill="#FFFFFF" mask="url(#mask-18)"></path>
                            <path d="M55.1995268,41.5168831 C54.5596932,41.5168831 54.041958,42.0324744 54.041958,42.6696586 C54.041958,43.3068427 54.5596932,43.8233766 55.1995268,43.8233766 C55.8393603,43.8233766 56.358042,43.3068427 56.358042,42.6696586 C56.358042,42.0324744 55.8393603,41.5168831 55.1995268,41.5168831 M55.1995268,41.7826907 C55.6907599,41.7826907 56.0901826,42.1814021 56.0901826,42.6696586 C56.0901826,43.1588577 55.6907599,43.557569 55.1995268,43.557569 C54.7082936,43.557569 54.3098174,43.1588577 54.3098174,42.6696586 C54.3098174,42.1814021 54.7082936,41.7826907 55.1995268,41.7826907" id="Fill-51" fill="#C8563F" mask="url(#mask-18)"></path>
                            <path d="M60.6041958,39.2103896 C59.9652392,39.2103896 59.4461538,38.6934537 59.4461538,38.0571429 C59.4461538,37.420832 59.9652392,36.9038961 60.6041958,36.9038961 C61.2431524,36.9038961 61.7622378,37.420832 61.7622378,38.0571429 C61.7622378,38.6934537 61.2431524,39.2103896 60.6041958,39.2103896" id="Fill-52" fill="#FFFFFF" mask="url(#mask-18)"></path>
                            <path d="M60.6037226,36.9038961 C59.963889,36.9038961 59.4461538,37.4196982 59.4461538,38.0571429 C59.4461538,38.6936445 59.963889,39.2103896 60.6037226,39.2103896 C61.2435561,39.2103896 61.7622378,38.6936445 61.7622378,38.0571429 C61.7622378,37.4196982 61.2435561,36.9038961 60.6037226,36.9038961 M60.6037226,37.1698124 C61.0949557,37.1698124 61.4943784,37.5677438 61.4943784,38.0571429 C61.4943784,38.5465419 61.0949557,38.9444734 60.6037226,38.9444734 C60.1124894,38.9444734 59.7140132,38.5465419 59.7140132,38.0571429 C59.7140132,37.5677438 60.1124894,37.1698124 60.6037226,37.1698124" id="Fill-53" fill="#C8563F" mask="url(#mask-18)"></path>
                            <path d="M66.0083916,41.5168831 C65.369435,41.5168831 64.8503497,40.9999472 64.8503497,40.3636364 C64.8503497,39.7273255 65.369435,39.2103896 66.0083916,39.2103896 C66.6473482,39.2103896 67.1664336,39.7273255 67.1664336,40.3636364 C67.1664336,40.9999472 66.6473482,41.5168831 66.0083916,41.5168831" id="Fill-54" fill="#FFFFFF" mask="url(#mask-18)"></path>
                            <path d="M66.0079184,39.2103896 C65.3680848,39.2103896 64.8503497,39.7261917 64.8503497,40.3636364 C64.8503497,41.000138 65.3680848,41.5168831 66.0079184,41.5168831 C66.6477519,41.5168831 67.1664336,41.000138 67.1664336,40.3636364 C67.1664336,39.7261917 66.6477519,39.2103896 66.0079184,39.2103896 M66.0079184,39.4763059 C66.4991515,39.4763059 66.8985742,39.8742373 66.8985742,40.3636364 C66.8985742,40.8530354 66.4991515,41.2509669 66.0079184,41.2509669 C65.5166852,41.2509669 65.118209,40.8530354 65.118209,40.3636364 C65.118209,39.8742373 65.5166852,39.4763059 66.0079184,39.4763059" id="Fill-55" fill="#C8563F" mask="url(#mask-18)"></path>
                            <path d="M71.4125874,36.1350649 C70.7736308,36.1350649 70.2545455,35.618129 70.2545455,34.9818182 C70.2545455,34.3455074 70.7736308,33.8285714 71.4125874,33.8285714 C72.051544,33.8285714 72.5706294,34.3455074 72.5706294,34.9818182 C72.5706294,35.618129 72.051544,36.1350649 71.4125874,36.1350649" id="Fill-56" fill="#FFFFFF" mask="url(#mask-18)"></path>
                            <path d="M71.4121142,33.8285714 C70.7722806,33.8285714 70.2545455,34.3443735 70.2545455,34.9818182 C70.2545455,35.6183199 70.7722806,36.1350649 71.4121142,36.1350649 C72.0519477,36.1350649 72.5706294,35.6183199 72.5706294,34.9818182 C72.5706294,34.3443735 72.0519477,33.8285714 71.4121142,33.8285714 M71.4121142,34.0944877 C71.9033473,34.0944877 72.3027701,34.4924191 72.3027701,34.9818182 C72.3027701,35.4712173 71.9033473,35.8691487 71.4121142,35.8691487 C70.920881,35.8691487 70.5224048,35.4712173 70.5224048,34.9818182 C70.5224048,34.4924191 70.920881,34.0944877 71.4121142,34.0944877" id="Fill-57" fill="#C8563F" mask="url(#mask-18)"></path>
                            <path d="M76.8167832,33.8285714 C76.1778266,33.8285714 75.6587413,33.3116355 75.6587413,32.6753247 C75.6587413,32.0400797 76.1778266,31.5220779 76.8167832,31.5220779 C77.4557398,31.5220779 77.9748252,32.0400797 77.9748252,32.6753247 C77.9748252,33.3116355 77.4557398,33.8285714 76.8167832,33.8285714" id="Fill-58" fill="#FFFFFF" mask="url(#mask-18)"></path>
                            <path d="M76.81631,31.5220779 C76.1764764,31.5220779 75.6587413,32.03788 75.6587413,32.6753247 C75.6587413,33.3118264 76.1764764,33.8285714 76.81631,33.8285714 C77.4561435,33.8285714 77.9748252,33.3118264 77.9748252,32.6753247 C77.9748252,32.03788 77.4561435,31.5220779 76.81631,31.5220779 M76.81631,31.7879942 C77.3075431,31.7879942 77.7069659,32.1859256 77.7069659,32.6753247 C77.7069659,33.1647237 77.3075431,33.5626552 76.81631,33.5626552 C76.3250768,33.5626552 75.9266006,33.1647237 75.9266006,32.6753247 C75.9266006,32.1859256 76.3250768,31.7879942 76.81631,31.7879942" id="Fill-59" fill="#C8563F" mask="url(#mask-18)"></path>
                            <path d="M82.220979,39.2103896 C81.5820224,39.2103896 81.0629371,38.6934537 81.0629371,38.0571429 C81.0629371,37.420832 81.5820224,36.9038961 82.220979,36.9038961 C82.8599356,36.9038961 83.379021,37.420832 83.379021,38.0571429 C83.379021,38.6934537 82.8599356,39.2103896 82.220979,39.2103896" id="Fill-60" fill="#FFFFFF" mask="url(#mask-18)"></path>
                            <path d="M82.2205058,36.9038961 C81.5806722,36.9038961 81.0629371,37.4196982 81.0629371,38.0571429 C81.0629371,38.6936445 81.5806722,39.2103896 82.2205058,39.2103896 C82.8603393,39.2103896 83.379021,38.6936445 83.379021,38.0571429 C83.379021,37.4196982 82.8603393,36.9038961 82.2205058,36.9038961 M82.2205058,37.1698124 C82.7117389,37.1698124 83.1111617,37.5677438 83.1111617,38.0571429 C83.1111617,38.5465419 82.7117389,38.9444734 82.2205058,38.9444734 C81.7292726,38.9444734 81.3307964,38.5465419 81.3307964,38.0571429 C81.3307964,37.5677438 81.7292726,37.1698124 82.2205058,37.1698124" id="Fill-61" fill="#C8563F" mask="url(#mask-18)"></path>
                            <path d="M87.6251748,28.4467532 C86.9862182,28.4467532 86.4671329,27.9298173 86.4671329,27.2935065 C86.4671329,26.6582615 86.9862182,26.1402597 87.6251748,26.1402597 C88.2641314,26.1402597 88.7832168,26.6582615 88.7832168,27.2935065 C88.7832168,27.9298173 88.2641314,28.4467532 87.6251748,28.4467532" id="Fill-62" fill="#FFFFFF" mask="url(#mask-18)"></path>
                            <path d="M87.6251748,26.1402597 C86.9850797,26.1402597 86.4671329,26.6560618 86.4671329,27.2935065 C86.4671329,27.9300082 86.9850797,28.4467532 87.6251748,28.4467532 C88.26527,28.4467532 88.7832168,27.9300082 88.7832168,27.2935065 C88.7832168,26.6560618 88.26527,26.1402597 87.6251748,26.1402597 M87.6251748,26.406176 C88.1166088,26.406176 88.5161948,26.8041074 88.5161948,27.2935065 C88.5161948,27.7829056 88.1166088,28.180837 87.6251748,28.180837 C87.1337408,28.180837 86.7341548,27.7829056 86.7341548,27.2935065 C86.7341548,26.8041074 87.1337408,26.406176 87.6251748,26.406176" id="Fill-63" fill="#C8563F" mask="url(#mask-18)"></path>
                            <path d="M93.0293706,23.0649351 C92.390414,23.0649351 91.8713287,22.5469333 91.8713287,21.9116883 C91.8713287,21.2753775 92.390414,20.7584416 93.0293706,20.7584416 C93.6683272,20.7584416 94.1874126,21.2753775 94.1874126,21.9116883 C94.1874126,22.5469333 93.6683272,23.0649351 93.0293706,23.0649351" id="Fill-64" fill="#FFFFFF" mask="url(#mask-18)"></path>
                            <path d="M93.0293706,20.7584416 C92.3892755,20.7584416 91.8713287,21.2742437 91.8713287,21.9116883 C91.8713287,22.54819 92.3892755,23.0649351 93.0293706,23.0649351 C93.6694658,23.0649351 94.1874126,22.54819 94.1874126,21.9116883 C94.1874126,21.2742437 93.6694658,20.7584416 93.0293706,20.7584416 M93.0293706,21.0243578 C93.5208046,21.0243578 93.9203906,21.4222892 93.9203906,21.9116883 C93.9203906,22.4010874 93.5208046,22.7990188 93.0293706,22.7990188 C92.5379366,22.7990188 92.1383506,22.4010874 92.1383506,21.9116883 C92.1383506,21.4222892 92.5379366,21.0243578 93.0293706,21.0243578" id="Fill-65" fill="#C8563F" mask="url(#mask-18)"></path>
                            <path d="M98.4335664,25.3714286 C97.7946098,25.3714286 97.2755245,24.8544926 97.2755245,24.2181818 C97.2755245,23.581871 97.7946098,23.0649351 98.4335664,23.0649351 C99.072523,23.0649351 99.5916084,23.581871 99.5916084,24.2181818 C99.5916084,24.8544926 99.072523,25.3714286 98.4335664,25.3714286" id="Fill-66" fill="#FFFFFF" mask="url(#mask-18)"></path>
                            <path d="M98.4335664,23.0649351 C97.7934713,23.0649351 97.2755245,23.5816801 97.2755245,24.2181818 C97.2755245,24.8556265 97.7934713,25.3714286 98.4335664,25.3714286 C99.0736616,25.3714286 99.5916084,24.8556265 99.5916084,24.2181818 C99.5916084,23.5816801 99.0736616,23.0649351 98.4335664,23.0649351 M98.4335664,23.3308513 C98.9250004,23.3308513 99.3245865,23.7297257 99.3245865,24.2181818 C99.3245865,24.7075809 98.9250004,25.1055123 98.4335664,25.1055123 C97.9421324,25.1055123 97.5425464,24.7075809 97.5425464,24.2181818 C97.5425464,23.7297257 97.9421324,23.3308513 98.4335664,23.3308513" id="Fill-67" fill="#C8563F" mask="url(#mask-18)"></path>
                            <path d="M103.837762,17.6831169 C103.198806,17.6831169 102.67972,17.1651151 102.67972,16.5298701 C102.67972,15.8935593 103.198806,15.3766234 103.837762,15.3766234 C104.476719,15.3766234 104.995804,15.8935593 104.995804,16.5298701 C104.995804,17.1651151 104.476719,17.6831169 103.837762,17.6831169" id="Fill-68" fill="#FFFFFF" mask="url(#mask-18)"></path>
                            <path d="M103.837762,15.3766234 C103.197667,15.3766234 102.67972,15.8924255 102.67972,16.5298701 C102.67972,17.1663718 103.197667,17.6831169 103.837762,17.6831169 C104.477857,17.6831169 104.995804,17.1663718 104.995804,16.5298701 C104.995804,15.8924255 104.477857,15.3766234 103.837762,15.3766234 M103.837762,15.6425396 C104.329196,15.6425396 104.728782,16.0404711 104.728782,16.5298701 C104.728782,17.0192692 104.329196,17.4172006 103.837762,17.4172006 C103.346328,17.4172006 102.946742,17.0192692 102.946742,16.5298701 C102.946742,16.0404711 103.346328,15.6425396 103.837762,15.6425396" id="Fill-69" fill="#C8563F" mask="url(#mask-18)"></path>
                            <path d="M109.241958,11.5324675 C108.603001,11.5324675 108.083916,11.0155316 108.083916,10.3792208 C108.083916,9.74290996 108.603001,9.22597403 109.241958,9.22597403 C109.880915,9.22597403 110.4,9.74290996 110.4,10.3792208 C110.4,11.0155316 109.880915,11.5324675 109.241958,11.5324675" id="Fill-70" fill="#FFFFFF" mask="url(#mask-18)"></path>
                            <path d="M109.241958,9.22597403 C108.601863,9.22597403 108.083916,9.7427191 108.083916,10.3792208 C108.083916,11.0166654 108.601863,11.5324675 109.241958,11.5324675 C109.882053,11.5324675 110.4,11.0166654 110.4,10.3792208 C110.4,9.7427191 109.882053,9.22597403 109.241958,9.22597403 M109.241958,9.49189028 C109.733392,9.49189028 110.132978,9.89076467 110.132978,10.3792208 C110.132978,10.8686199 109.733392,11.2665513 109.241958,11.2665513 C108.750524,11.2665513 108.350938,10.8686199 108.350938,10.3792208 C108.350938,9.89076467 108.750524,9.49189028 109.241958,9.49189028" id="Fill-71" fill="#C8563F" mask="url(#mask-18)"></path>
                        </g>
                    </g>
                    <g id="人右" transform="translate(69.354987, 83.600000) scale(-1, 1) translate(-69.354987, -83.600000) translate(49.354987, 39.600000)">
                        <path d="M28,15.156591 C28,15.156591 23.3207908,25.9950196 20.0243197,27.8831578 C19.6468537,28.0987815 18.2758503,27.9499439 18.2758503,27.9499439 L9.6,17.0084739 L15.466369,15.7509872 L19.5031037,21.4688307 L25.7792092,14.4 L28,15.156591 Z" id="Fill-1" fill="#FFD3B3"></path>
                        <path d="M17.5671196,18.6125929 L31.4039881,24.6754292 C32.0667364,24.9861981 32.8545138,24.695326 33.1619162,24.0273623 L39.0768273,15.7161887 C39.3842297,15.0472776 39.0965688,14.2542484 38.4328804,13.9444269 L24.6270342,8.12414196 C23.9642859,7.81432051 23.1765084,8.10424517 22.869106,8.77315632 L16.9231727,16.8408311 C16.6157703,17.5087948 16.9034312,18.3027715 17.5671196,18.6125929" id="Fill-3" fill="#294287"></path>
                        <path d="M32.2330247,22.8569876 L37.4888491,15.780514 C37.7106795,15.4832852 37.5871161,15.0654826 37.2368575,14.9252804 L24.0972965,9.64432994 C23.8394672,9.5405803 23.5427204,9.62376695 23.3831581,9.8434171 L17.6,17.4124678 L31.1754384,23.1364573 C31.5305616,23.286941 32.0073025,23.160759 32.2330247,22.8569876" id="Fill-5" fill="#9DAFE0"></path>
                        <path d="M22.6727091,12.791051 L30.5477494,15.9636032 C30.7362168,16.0388929 30.9556123,15.9947576 31.0889892,15.8554284 C31.2890547,15.6451364 31.2088352,15.3223427 30.9275838,15.2089754 L23.0525435,12.0364232 C22.8582771,11.9585373 22.6311496,12.0087304 22.4997056,12.1567137 C22.3131712,12.367871 22.3982232,12.68028 22.6727091,12.791051" id="Fill-7" fill="#DCE3F7"></path>
                        <path d="M21.8727171,14.3910569 L29.7479868,17.5636329 C29.9354932,17.6389231 30.1548951,17.5947875 30.2892424,17.4545918 C30.4893137,17.2451637 30.4081254,16.9223675 30.1278323,16.8089994 L22.251596,13.6364235 C22.0582904,13.558537 21.8311564,13.6087305 21.6997085,13.7567148 C21.5131687,13.9678737 21.5982231,14.280285 21.8727171,14.3910569" id="Fill-9" fill="#DCE3F7"></path>
                        <path d="M24.2718043,11.1907431 L32.1482549,14.3635997 C32.3357664,14.4388966 32.5551742,14.3947571 32.6885587,14.2554145 C32.889602,14.0451024 32.8084114,13.7222776 32.5271441,13.6088995 L24.6516602,10.4360429 C24.4583493,10.359015 24.2312091,10.4083474 24.0997577,10.5563448 C23.9132127,10.7675224 23.9982695,11.0808269 24.2718043,11.1907431" id="Fill-11" fill="#DCE3F7"></path>
                        <path d="M31.2,21.6 C31.2,21.6 30.2359267,18.4737707 28.661813,17.8934133 C28.2782774,17.7516108 27.623507,17.8924742 27.0648584,18.068084 C26.4985962,18.246511 25.8933143,17.9732359 25.6591958,17.4332594 C25.3489412,16.7176731 24.8807043,15.8677971 24.3705924,15.7363245 C23.4664763,15.5034303 21.8038544,16.7805921 21.3137283,16.652876 C20.8255056,16.5251598 20.6285034,14.4 20.6285034,14.4 L19.2,16.1983566 L31.2,21.6 Z" id="Fill-13" fill="#DCE3F7"></path>
                        <path d="M32.9550311,15.0094032 C32.6297426,15.5859102 32.8329011,16.3174049 33.4094956,16.6449924 C33.98609,16.9702316 34.7176955,16.7671038 35.0441583,16.1905968 C35.3706212,15.6140898 35.1674626,14.8825951 34.5908682,14.5550076 C34.0130995,14.2297684 33.2814939,14.4328962 32.9550311,15.0094032" id="Fill-15" fill="#DCE3F7"></path>
                        <path d="M32.3699078,16.1566075 L32.6622861,16.0059586 C32.693314,15.9899958 32.7326956,16.0079539 32.7338889,16.0378842 C32.7386625,16.2404121 32.8150388,16.8370216 33.51436,17.2081566 C34.260223,17.5194312 34.9153891,17.2620311 35.121844,17.1632613 C35.1516785,17.1482962 35.1886733,17.1662543 35.1898667,17.1961845 L35.1994137,17.4076916 C35.2137343,17.7159731 34.9643177,17.9903336 34.6039167,18.0621662 L32.92841,18.3973849 C32.7828176,18.4143454 32.643192,18.3475012 32.5859097,18.234764 L32.0429215,16.9228217 C31.9235834,16.6344937 32.0596288,16.3162354 32.3699078,16.1566075" id="Fill-17" fill="#DCE3F7"></path>
                        <path d="M9.44829195,80.5619124 L9.44829195,80.5619124 C9.48815161,80.1904443 9.52076406,79.8836212 9.52438767,79.8286246 C9.60229519,78.6881691 9.94291412,76.5413724 9.99455049,75.890097 C10.3170514,71.7335128 12.6687714,58.8652762 9.76988695,56.9191689 C8.7643364,56.244737 6.57749043,58.6530087 6.57749043,58.6530087 C6.18432922,63.3238592 6.53400716,69.7275847 6.76591792,73.7230385 L7.39098988,82.1577783 C7.71620848,82.6054699 8.52608433,82.3729404 9.29791232,81.9435811 C9.68473222,81.7120165 10.5498681,81.1186323 10.3895235,80.5117401 C10.3895235,80.5117401 10.2300849,80.2753513 9.44829195,80.5619124" id="Fill-19" fill="#FFD3B3"></path>
                        <path d="M10.5912576,81.448103 C10.7375948,82.4228702 8.26886698,83.9419748 7.3661374,82.9349506 C7.3661374,82.9349506 6.95848372,83.6798864 7.42030117,84.5467941 C7.59799636,84.8784367 8.34393608,84.9983925 9.50228067,84.1828945 C10.006859,83.8270591 11.2079645,82.9682156 11.803766,81.8815569 C12.4470796,80.7112315 11.4559775,80.3695085 9.60110581,81.4642315 C9.60110581,81.4642315 10.5522977,81.1900468 10.5912576,81.448103" id="Fill-21" fill="#80407C"></path>
                        <path d="M12.88332,84.6566283 C12.88332,84.6566283 12.2825141,61.5885001 14.3075888,59.7504905 C15.3353073,58.8165465 18.3365765,59.1153315 18.3908607,60.3114353 C18.5978765,64.869352 15.2193784,84.1853191 15.2193784,84.1853191 C15.2230587,84.1862829 16.2296156,83.9568932 16.2296156,83.9568932 C16.2296156,83.9568932 17.0631993,83.7920795 17.1874087,84.0792986 C17.347501,84.4503703 14.428118,86.3934365 13.0176502,85.2368495 C12.9044816,85.1443225 12.818915,85.0180618 12.88332,84.6566283" id="Fill-23" fill="#FFD3B3"></path>
                        <path d="M15.4127034,85.395653 C14.1006628,85.8702492 13.2529766,85.8402237 13.1972193,84.8571316 C13.1972193,84.8571316 12.653585,84.9239625 12.8382812,86.4756015 C12.9114628,87.0867651 13.6528615,87.3967055 14.7871754,87.0644881 C15.3325521,86.9046751 17.5166727,85.8886519 18.1300037,85.2852367 C18.8766297,84.5520341 18.0646631,83.4827398 15.8195579,84.2856791 C15.8195579,84.2856791 17.2500828,83.9621788 17.2012951,84.3379815 C17.1603483,84.6488904 16.262132,85.0886183 15.4127034,85.395653" id="Fill-25" fill="#80407C"></path>
                        <path d="M18.6446089,35.2 C18.6446089,35.2 20.0789689,36.5925576 21.0085408,44.0094403 C21.9390652,51.426323 21.2409338,57.6811135 21.6,61.9330039 C21.6,61.9330039 19.0312956,65.6350977 8.26883379,63.1302519 C5.04961955,62.3802629 3.47620477,60.8617306 3.2,60.6703272 C3.2,60.6703272 3.48191935,59.6849902 3.48287178,55.8354376 C3.48572908,50.897034 2.49139189,41.8883779 5.08962162,37.7067989 C6.524934,35.3962862 6.71827734,36.5925576 7.43450489,36.7331805 C17.2616802,38.6706519 18.6446089,35.2 18.6446089,35.2" id="Fill-27" fill="#294287"></path>
                        <path d="M16.2598947,11.2 C16.2598947,11.2 16.0642305,13.0430962 16.8,14.9813808 L12.0003665,15.2 C12.0003665,15.2 11.8750332,11.9845188 16.2598947,11.2" id="Fill-29" fill="#FFC194"></path>
                        <path d="M17.6455095,4.50613234 C17.6455095,4.50613234 18.2987336,7.11256906 18.3986177,9.88521334 C18.4304391,10.7625248 17.9080367,11.7352168 17.3299466,12.1847327 C16.5892135,12.7589043 15.6973284,13.1470367 14.6118627,12.342441 C12.4418152,10.7332496 12.8263246,7.54697518 12.8263246,7.54697518 C12.8263246,7.54697518 13.2072983,2.40020702 17.6455095,4.50613234" id="Fill-31" fill="#FFD3B3"></path>
                        <path d="M20.6759966,37.6291103 C19.7583587,39.0027273 17.701247,39.6396394 15.2805983,39.9155369 C11.7898606,40.3107942 5.52666408,39.2571008 5.04585699,38.039043 C4.65984316,37.0606833 5.3419638,36.5206288 6.03287968,34.7889321 C6.21464822,34.3310598 6.40130301,33.7861134 6.56645829,33.1325692 C6.5899123,33.0298414 6.6172753,32.9192868 6.64170656,32.8087321 C7.42546121,29.3903434 3.39821316,17.480771 3.20960387,15.6522167 C3.02392634,13.8217057 5.59213985,12 5.59213985,12 L10.2458053,13.5937479 C10.2458053,13.5937479 9.79138393,15.1601018 12.1680564,15.7569012 C14.5447289,16.3517439 15.8923569,15.1493398 15.8923569,15.1493398 L17.896697,16.1658555 C19.6723606,17.0639897 20.5763171,19.1341988 19.9264457,21.0136278 C19.6508611,21.8119693 19.052784,22.7140169 18.7566772,24.0123002 C18.6403844,24.5190905 18.5719769,25.0865391 18.5846812,25.7302998 C18.6882697,30.0859571 19.2755971,32.6883939 19.6440204,33.6765372 C19.7749719,34.0346168 21.2261885,36.8063098 20.6759966,37.6291103" id="Fill-33" fill="#FF6161"></path>
                        <path d="M19.8812022,37.6786063 C19.0020864,39.0235469 17.0313315,39.6471625 14.7123007,39.9173002 C11.3681029,40.3043059 5.36783313,39.27261 4.90721014,38.079981 C4.53740104,37.1220461 5.1908865,36.593266 5.85279799,34.8977213 C7.54923875,37.1795222 13.4212456,37.0482851 15.4659623,34.9245434 C17.66422,32.6484901 14.481053,23.2779709 14.481053,23.2779709 C15.1897758,23.1860091 16.8468951,22.9331143 18.0424552,24.3460683 C17.9310443,24.8422786 17.8655085,25.3978808 17.8776795,26.028202 C17.9769194,30.2929282 18.5395909,32.841035 18.892548,33.8085493 C19.0180022,34.1591535 20.4082972,36.872983 19.8812022,37.6786063" id="Fill-35" fill="#FC4646"></path>
                        <path d="M34.3785213,20.0717426 C34.3785213,20.0717426 34.436408,21.5092011 34.36212,22.2158846 C34.2608183,23.1835592 33.0886121,24.0107001 32.4373865,24.9482603 C31.2960534,26.5925039 27.1745188,31.2 27.1745188,31.2 L25.6,28.1454008 L30.3814432,23.8952617 C30.3814432,23.8952617 30.4007387,22.6696075 30.5879058,21.3696713 C30.7808615,20.0335978 31.2825465,20.2815393 31.367447,20.5666219 C31.4639248,20.8888454 31.3307854,21.7200016 31.3307854,21.7200016 C31.3307854,21.7200016 31.7475698,21.3716789 32.1190096,20.5937248 L32.7904955,18.6262537 C32.8445231,18.4666476 32.9892399,18.3763046 33.1378159,18.4054151 C33.5584594,18.4897353 34.0726864,19.0739537 34.3785213,20.0717426" id="Fill-37" fill="#FFD3B3"></path>
                        <path d="M17.333576,15.3466274 C17.333576,15.3466274 18.443217,15.3939226 19.617587,17.1592897 C20.5311914,18.5366428 21.3412294,20.9100915 22.631187,25.4243735 L23.2248449,27.339348 C23.2997457,27.5816154 23.5679089,27.6897188 23.7805901,27.5642417 L26.0553542,26.2100536 C27.5348755,27.0565418 28,29.1211236 28,29.1211236 C28,29.1211236 24.5758328,32.8265606 22.359325,33.5610846 C20.1150761,34.3042954 14.1304123,24.1869757 13.6541914,21.6002159 C13.1761211,19.0115256 15.9816634,14.3109582 17.333576,15.3466274" id="Fill-39" fill="#FF6161"></path>
                        <g id="编组">
                            <mask id="mask-20" fill="white">
                                <use xlink:href="#path-19"></use>
                            </mask>
                            <g id="Clip-42"></g>
                            <path d="M14.91984,0.373343875 C16.24848,0.609357625 17.3352,1.55535513 17.80944,2.83352013 C18.22416,3.95434263 18.62448,4.83720888 17.78448,6.68841138 C17.2488,7.87236513 15.91344,9.30107388 15.91344,9.30107388 C15.91344,9.30107388 14.92464,8.47065513 14.46096,9.16024263 C14.09232,9.70899888 14.2536,10.5753539 15.24144,10.6627664 L15.20496,10.8521601 C14.97936,12.0322289 15.32304,13.2385214 16.09968,14.1485826 C16.86672,15.0489314 18.53424,16.4426751 18.9,18.3939164 C19.18608,19.9265489 19.25232,22.0254201 17.02032,23.5454264 C15.7032,24.5632964 14.09232,23.3200964 14.09232,23.3200964 C14.89488,25.1130239 13.96368,27.5586314 12.15216,28.5308526 C7.78992,30.8725364 4.38192,28.7639526 2.40624,27.2653139 C0.45072,25.7822151 0.21552,22.3896389 1.87152,20.7841626 C-0.98544,18.3317564 -0.66192,13.6250789 3.47088,11.6320739 C4.09872,11.3300151 4.95216,10.4665739 4.9944,9.76533138 C5.0616,8.63868138 5.01168,6.73503138 6.84432,3.70278888 C8.8152,0.442302625 12.14832,-0.119079875 14.91984,0.373343875" id="Fill-41" fill="#294287" mask="url(#mask-20)"></path>
                        </g>
                    </g>
                </g>
                <g id="编组-20" transform="translate(0.000000, 0.381107)">
                    <g id="编组-5" transform="translate(7.000000, 158.000000)">
                        <g id="编组-2" transform="translate(0.000000, 63.000000)">
                            <polygon id="矩形" fill="url(#linearGradient-9)" points="0 9.2 64 16.44127 64 110.4 0 103.15873"></polygon>
                            <polygon id="矩形" fill="url(#linearGradient-21)" points="64.8 16.1015176 128.8 8.4 128.8 102.698482 64.8 110.4"></polygon>
                            <g id="矩形" transform="translate(0.000000, 0.400000)">
                                <mask id="mask-23" fill="white">
                                    <use xlink:href="#path-22"></use>
                                </mask>
                                <g id="蒙版">
                                    <use fill="#FF586C" fill-rule="evenodd" xlink:href="#path-22"></use>
                                    <use fill="black" fill-opacity="1" filter="url(#filter-24)" xlink:href="#path-22"></use>
                                </g>
                                <rect fill="#CB172F" opacity="0.5" filter="url(#filter-25)" mask="url(#mask-23)" x="18.424" y="5.2" width="91.728" height="3.6" rx="1.8"></rect>
                            </g>
                        </g>
                        <g id="Humaaan" transform="translate(22.000000, 0.000000)">
                            <g id="Head/Front" transform="translate(16.400000, 0.000000)">
                                <g id="Head" transform="translate(10.800000, 6.235127)" fill="#E1BDAF">
                                    <path d="M7.62866828,1.83713665 C8.78763042,4.00960024 8.64991559,9.52023429 7.15206028,9.90851413 C6.55473057,10.0633562 5.2822553,9.68406663 3.98715847,8.89904735 L4.8,14.6827195 L0,14.6827195 L1.65173612,6.9362592 C0.730548626,5.84853541 0.107154054,4.51562943 0.211355267,3.02211679 C0.511666044,-1.28222793 6.46970613,-0.335326937 7.62866828,1.83713665 Z"></path>
                                </g>
                                <path d="M12.0836277,14.1411726 C11.4811804,11.445775 9.76490654,9.60841277 10.0270227,8.40368531 C10.2017669,7.60053367 10.6675123,7.10108186 11.4242592,6.90532989 C11.8156415,5.31303275 13.0779297,4.63576672 15.2111239,4.87353178 C18.4109151,5.23017939 20.3638895,6.56654637 19.5204964,9.50713691 C18.7452197,9.50713691 17.8092952,9.22517012 16.515106,9.70827005 C16.104465,9.86155572 15.8107625,10.336908 15.6339985,11.1343269 L15.0491596,11.1343269 C14.4815487,10.1880087 13.9218808,9.84026255 13.3701557,10.0910885 C12.8184307,10.3419145 12.6930146,10.9511718 12.9939075,11.9188604 L12.7058152,14.1411726 L12.0836277,14.1411726 Z" id="Hair" fill="#191847"></path>
                            </g>
                            <g id="Bottom/Skinny-Jeans-1" transform="translate(0.000000, 37.611898)">
                                <g id="编组" transform="translate(2.000000, 8.447592)">
                                    <g id="Seat-Stuff" transform="translate(11.000000, 0.000000)">
                                        <polygon fill="#BF372B" points="5.5245283 0 20.9754386 0 23 24.9405099 0 24.9405099"></polygon>
                                        <polygon fill="#AC2C21" points="5.5245283 0 10.2765602 0 13.1207547 24.9405099 0 24.9405099"></polygon>
                                    </g>
                                </g>
                                <path d="M59.8317927,32.3824363 C55.888619,27.5399898 53.2205734,23.9500166 51.827656,21.6125165 C49.4426432,17.610149 47.4906242,14.048781 46.8746157,12.6883545 C45.4056643,9.44424293 50.2563792,7.92517249 51.3542061,9.43833371 C53.0158108,11.7285633 56.5644087,18.9352711 62,31.058457 L59.8317927,32.3824363 Z" id="LegLower" fill="#E1BDAF"></path>
                                <path d="M51.7515134,30.9745042 L44.4130394,12.3971988 C42.8434859,9.01067982 50.4231515,6.78463861 51.5766548,8.36065666 C54.1954644,11.9387055 60.4197691,26.0535893 61.2,27.1196096 L51.7515134,30.9745042 Z" id="LegLower" fill="#2F3676"></path>
                                <g id="Lower-Leg" transform="translate(40.529407, 20.968501) rotate(39.000000) translate(-40.529407, -20.968501) translate(37.029407, 9.403345)" fill="#E1BDAF">
                                    <path d="M0.96209236,21.7133353 C0.760765074,19.1789339 0.38672393,10.4053643 0.760967298,6.34440391 C0.868509833,5.17744676 0.981813113,4.04918641 1.09599557,2.99077811 C1.43538624,-0.155185867 7.23580556,-0.0557399486 6.77517955,2.93308349 C5.62803873,10.3764351 3.60894009,20.8078614 3.46422371,21.7091954 C3.26139753,22.9724534 1.08862028,23.3061276 0.96209236,21.7133353 Z" id="LegLower"></path>
                                </g>
                                <g id="编组" transform="translate(31.800000, 24.135977)" fill="#E4E4E4">
                                    <g id="Right-Shoe" transform="translate(6.100000, 4.022663) rotate(30.000000) translate(-6.100000, -4.022663) ">
                                        <path d="M0.535772614,5.10877629 C0.311924205,5.70965451 0.2,6.15923392 0.2,6.45751453 C0.2,6.82021515 0.260082841,7.34948557 0.380248523,8.04532578 C0.798636234,8.04532578 4.55875705,8.04532578 11.660611,8.04532578 C11.9537476,7.07073659 11.7845321,6.54458724 11.1529646,6.46687775 C10.521397,6.38916825 9.99674311,6.3190028 9.57900287,6.25638138 L4.33659191,3.90604712 C4.23580098,3.86085945 4.11746194,3.90593479 4.07227426,4.00672572 C4.07138962,4.0086989 4.07053704,4.01068631 4.06971686,4.01268714 L3.73264262,4.83497832 L3.73264262,4.83497832 C3.14797624,5.10931531 2.67287411,5.2464838 2.30733623,5.2464838 C2.01057071,5.2464838 1.60082081,5.12604214 1.07808653,4.88515884 L1.07811919,4.88508798 C0.87744394,4.792614 0.63979954,4.88032846 0.547325564,5.08100371 C0.543127807,5.09011314 0.539274101,5.09937722 0.535772614,5.10877629 Z" id="shoe"></path>
                                    </g>
                                </g>
                                <g id="Right-Shoe" transform="translate(57.600000, 26.549575)" fill="#E4E4E4">
                                    <path d="M0.535772614,5.10877629 C0.311924205,5.70965451 0.2,6.15923392 0.2,6.45751453 C0.2,6.82021515 0.260082841,7.34948557 0.380248523,8.04532578 C0.798636234,8.04532578 4.55875705,8.04532578 11.660611,8.04532578 C11.9537476,7.07073659 11.7845321,6.54458724 11.1529646,6.46687775 C10.521397,6.38916825 9.99674311,6.3190028 9.57900287,6.25638138 L4.33659191,3.90604712 C4.23580098,3.86085945 4.11746194,3.90593479 4.07227426,4.00672572 C4.07138962,4.0086989 4.07053704,4.01068631 4.06971686,4.01268714 L3.73264262,4.83497832 L3.73264262,4.83497832 C3.14797624,5.10931531 2.67287411,5.2464838 2.30733623,5.2464838 C2.01057071,5.2464838 1.60082081,5.12604214 1.07808653,4.88515884 L1.07811919,4.88508798 C0.87744394,4.792614 0.63979954,4.88032846 0.547325564,5.08100371 C0.543127807,5.09011314 0.539274101,5.09937722 0.535772614,5.10877629 Z" id="shoe"></path>
                                </g>
                                <path d="M41.7724181,13.3250813 C35.6730544,12.3257881 31.5876179,11.6424752 29.5161085,11.2751428 C23.6114902,10.2281004 21.8896533,7.03268688 22.9076952,0.0607882004 L33.786854,0.0607882004 C35.2265359,0.478896732 41.2420851,3.06476236 51.8335017,7.81838509 C53.7391064,8.7697135 53.3842201,11.5747093 53.0359095,12.4988313 C53.021704,12.5365205 49.8092195,18.0724194 43.398456,29.106528 L34.4988454,23.404957 L41.7891317,13.9969335 C41.9816612,13.6069564 41.97609,13.3830057 41.7724181,13.3250813 Z" id="Leg-and-Butt" fill="#5C63AB"></path>
                            </g>
                            <g id="Body/Long-Sleeve-1" transform="translate(4.400000, 16.492918)">
                                <path d="M13.6615856,18.7093833 L17.841064,18.7259123 C15.2604289,27.1038455 13.8672695,31.5491244 13.6615856,32.0617489 C13.1987969,33.2151542 14.17812,34.9717704 14.5969175,35.9157628 C13.2329082,36.5295745 13.3782448,34.2563795 11.6575838,35.0614276 C11.4409576,35.1627808 11.2314817,35.2754846 11.0265433,35.3915249 L10.7222121,35.567086 C9.56615088,36.2419822 8.51691829,36.8947076 7.07780704,36.0017008 C6.85472105,35.86327 6.61025514,35.342053 7.20091568,34.9347496 C8.67246647,33.9200081 10.7930603,32.1440276 11.0795859,31.5594499 C11.4703148,30.7622737 12.3309814,26.4789182 13.6615856,18.7093833 L13.6615856,18.7093833 Z M38.1562409,18.546786 L44.5358951,23.2580481 C46.2661887,23.727589 47.7117931,24.3117773 48.8727082,25.0106128 C49.1469365,25.2619095 49.4783672,25.7708272 48.3410761,25.6828735 C47.2037849,25.5949198 46.003592,25.5538437 45.8466679,25.9439539 C45.6897438,26.3340641 46.3779708,26.8005932 46.0607589,27.326954 C45.8492843,27.6778612 44.8501933,26.7979744 43.063486,24.6872934 L36.7459548,22.0527302 L38.1562409,18.546786 Z" id="Skin" fill="#E1BDAF"></path>
                                <path d="M24.5405252,1.92231426 L26.237369,1.47440588 C33.1154691,6.46843116 36.6743694,16.9072363 45.0041377,21.8732799 L43.3239179,24.3891602 C29.5829853,23.8858451 25.0753865,11.1675845 24.5405252,1.92231426 Z" id="Coat-Back" fill="#E87613" transform="translate(34.772331, 12.931783) rotate(5.000000) translate(-34.772331, -12.931783) "></path>
                                <path d="M18,22.9291785 C24.9343512,22.9291785 30.0351146,22.9291785 33.3022901,22.9291785 C34.0015268,22.9291785 33.869769,21.9137854 33.7686901,21.4014124 C32.6021175,15.4880096 28.0482609,9.11364759 28.0482609,0.696067567 L23.63436,0 C19.983497,5.90494868 18.7209653,13.1751361 18,22.9291785 Z" id="Shirt" fill="#DDE3E9"></path>
                                <path d="M23.3020063,-7.54951657e-15 C23.4490536,-7.43849426e-15 23.583928,0.00912392096 23.7066295,0.0273717629 L25.0943175,0.107553926 C29.0587972,13.61977 30.152177,22.6349102 28.374457,27.1529745 L28.374457,27.1529745 L16.3301053,27.1535782 C15.6165988,28.826715 14.9338298,30.2344457 14.2817985,31.3767705 L14.2817985,31.3767705 L11,31.3767705 C10.6911229,21.3331596 13.0656712,12.8086876 18.123645,5.80335464 C17.4821857,5.61921319 16.9743521,5.18694231 16.6,4.50763316 C14.9867114,1.58011723 15.5693454,-0.0316971325 17.2934393,-0.561509614 C19.0175332,-1.09132209 20.5550638,-1.02140518e-14 23.3020063,-7.54951657e-15 Z" id="Coat-Front" fill="#FF9B21"></path>
                                <path d="M20.8,27.1529745 L16.3300305,27.1537538 C17.1626361,25.2013515 18.0370976,22.8875427 18.9534148,20.2123273 C19.3317271,23.4002519 19.9474102,25.7137086 20.8,27.1529745 Z" id="Shade" fill-opacity="0.1" fill="#000000"></path>
                            </g>
                        </g>
                    </g>
                    <path d="M43,146.677472 L43,132.877029 L21.3359684,133.146856 L21.3359684,132.60077 L25.3201581,129.103939 C29.1936759,125.748157 32.2648221,122.821035 34.5335968,120.314884 C36.8023715,117.816852 38.5177866,115.536597 39.6798419,113.470622 C40.8418972,111.408104 41.5889328,109.406969 41.9209486,107.465323 C42.2529644,105.524608 42.4189723,103.389138 42.4189723,101.058216 C42.4189723,95.3803296 40.5652174,91.0143463 36.8577075,87.9482774 C33.1501976,84.8662235 27.8932806,83.2405371 21.0869565,83.0832073 C18.0434783,83.0128566 15.055336,83.1875731 12.1225296,83.6088742 C9.18972332,84.0321984 6.53359684,84.7088652 4.1541502,85.6398192 L4.1541502,99.9192804 C6.81027668,98.8451092 9.2312253,98.1086934 11.416996,97.7079306 C13.6027668,97.3084871 15.6640316,97.1219371 17.6007905,97.1472909 C20.9209486,97.1907547 23.1482213,97.7804441 24.2826087,98.9150017 C25.416996,100.04775 25.9841897,101.883437 25.9841897,104.423422 C25.9841897,105.874842 25.486166,107.459436 24.4901186,109.179041 C23.4940711,110.901093 21.958498,112.867043 19.8833992,115.079952 C17.8083004,117.299392 15.2075099,119.877225 12.0810277,122.818257 C8.95454545,125.77223 5.26086957,129.204644 1,133.123154 L1,147.618893 L43,146.677472 Z M74.5442561,146.918899 C78.1437539,146.835696 81.4039548,146.309643 84.3248588,145.34367 C87.2457627,144.381607 89.7093534,142.710508 91.7156309,140.332705 C93.7219083,137.961917 95.2708726,134.770445 96.3625235,130.757942 C97.4541745,126.751988 98,121.678557 98,115.532736 C98,109.386916 97.4541745,104.327779 96.3625235,100.35045 C95.2708726,96.3666178 93.7219083,93.2038402 91.7156309,90.8617981 C89.7093534,88.5128277 87.2457627,86.8561784 84.3248588,85.8941146 C81.4039548,84.9281424 78.1437539,84.4020889 74.5442561,84.3188856 C70.9447583,84.2356824 67.6845574,84.6156048 64.7636535,85.4615844 C61.8427495,86.3114725 59.3644068,87.8985028 57.3286252,90.2250163 C55.2928437,92.55856 53.7291274,95.7667994 52.6374765,99.8493391 C51.5458255,103.938382 51,109.166792 51,115.529693 C51,121.892594 51.5458255,127.135936 52.6374765,131.254806 C53.7291274,135.367126 55.2928437,138.605124 57.3286252,140.968374 C59.3644068,143.324506 61.8427495,144.926313 64.7636535,145.776201 C67.6845574,146.62218 70.9447583,147.002103 74.5442561,146.918899 Z M74,133.647352 C72.6748971,133.664987 71.5658436,133.440488 70.6728395,132.973382 C69.7798354,132.505646 69.0596708,131.630697 68.5123457,130.348229 C67.9650206,129.064725 67.5761317,127.283844 67.345679,125.005786 C67.1152263,122.726956 67,119.786768 67,116.185801 C67,112.584835 67.1152263,109.629548 67.345679,107.320529 C67.5761317,105.012291 67.9650206,103.201121 68.5123457,101.887228 C69.0596708,100.574397 69.7798354,99.6839618 70.6728395,99.2156001 C71.5658436,98.7478682 72.6748971,98.522592 74,98.5392993 C75.382716,98.556733 76.5205761,98.8094654 77.4135802,99.2970242 C78.3065844,99.7839531 79.0123457,100.684529 79.5308642,101.99847 C80.0493827,103.311406 80.4238683,105.112412 80.654321,107.401658 C80.8847737,109.690121 81,112.61603 81,116.179973 C81,119.743915 80.8847737,122.655069 80.654321,124.914015 C80.4238683,127.173732 80.0493827,128.945309 79.5308642,130.228905 C79.0123457,131.513483 78.3065844,132.399682 77.4135802,132.887236 C76.5205761,133.37542 75.382716,133.62895 74,133.647352 Z M144,144.413579 L144,131.619065 L122.335968,131.888893 L122.335968,131.381998 L126.320158,128.133383 C130.193676,125.017108 133.264822,122.300099 135.533597,119.974667 C137.802372,117.657354 139.517787,115.542576 140.679842,113.626837 C141.841897,111.714555 142.588933,109.859302 142.920949,108.059183 C143.252964,106.259995 143.418972,104.280204 143.418972,102.119115 C143.418972,96.8549215 141.565217,92.8046517 137.857708,89.9563164 C134.150198,87.0919959 128.893281,85.5751764 122.086957,85.4178465 C119.043478,85.3474958 116.055336,85.5047936 113.12253,85.8912573 C110.189723,86.2797443 107.533597,86.904155 105.15415,87.7654343 L105.15415,101.032435 C107.810277,100.036647 110.231225,99.354665 112.416996,98.9843849 C114.602767,98.6154241 116.664032,98.4441154 118.600791,98.4694693 C121.920949,98.5129331 124.148221,99.0623417 125.282609,100.116338 C126.416996,101.168525 126.98419,102.872484 126.98419,105.229572 C126.98419,106.57648 126.486166,108.046764 125.490119,109.64226 C124.494071,111.240205 122.958498,113.064628 120.883399,115.118591 C118.8083,117.179086 116.20751,119.572934 113.081028,122.304942 C109.954545,125.049891 106.26087,128.24062 102,131.884786 L102,145.355 L144,144.413579 Z M183,144.411919 L183,87.6983821 L170.306407,87.413858 L152,90.5211733 L152,103.921742 L166.506964,101.322202 L166.506964,144.793159 L183,144.411919 Z" id="2021" stroke="#FF8080" fill-rule="nonzero"></path>
                </g>
            </g>
        </g>
        <g id="编组-11" mask="url(#mask-8)">
            <g transform="translate(628.000000, 51.000000)"></g>
        </g>
    </g>
</svg>