<?xml version="1.0" encoding="UTF-8"?>
<svg width="116px" height="36px" viewBox="0 0 116 36" version="1.1" xmlns="http://www.w3.org/2000/svg" xmlns:xlink="http://www.w3.org/1999/xlink">
    <title>按钮</title>
    <defs>
        <linearGradient x1="50%" y1="0%" x2="50%" y2="100%" id="linearGradient-1">
            <stop stop-color="#F5A623" offset="0%"></stop>
            <stop stop-color="#FF9100" offset="100%"></stop>
        </linearGradient>
    </defs>
    <g id="控件" stroke="none" stroke-width="1" fill="none" fill-rule="evenodd">
        <g id="顶部栏登录前" transform="translate(-1024.000000, -10.000000)">
            <g id="按钮" transform="translate(1024.000000, 10.000000)">
                <rect id="矩形" fill="url(#linearGradient-1)" x="0" y="0" width="116" height="36" rx="4"></rect>
                <path d="M17.414,24.498 C18.254,23.756 18.954,22.888 19.542,21.88 C19.892,22.244 20.214,22.58 20.494,22.916 L21.474,21.768 C21.124,21.39 20.704,20.97 20.2,20.522 C20.858,18.898 21.222,17.008 21.306,14.824 L21.306,14.026 L19.122,14.026 C19.22,13.284 19.332,12.486 19.444,11.618 L18.03,11.478 C17.918,12.346 17.806,13.2 17.68,14.026 L16.588,14.026 L16.588,15.412 L17.456,15.412 C17.218,16.77 16.952,18.044 16.644,19.22 C17.316,19.808 17.946,20.354 18.52,20.886 C17.988,21.838 17.302,22.65 16.476,23.336 L17.414,24.498 Z M26.066,24.386 L26.066,20.424 L26.178,20.424 C26.682,21.698 27.494,22.86 28.614,23.91 L29.622,22.65 C28.558,21.992 27.774,21.25 27.256,20.424 L29.454,20.424 L29.454,19.108 L26.066,19.108 L26.066,18.156 L28.026,18.156 L28.026,13.956 L29.146,13.956 L29.146,12.668 L28.026,12.668 L28.026,11.534 L26.64,11.534 L26.64,12.668 L24.008,12.668 L24.008,11.534 L22.622,11.534 L22.622,12.668 L21.46,12.668 L21.46,13.956 L22.622,13.956 L22.622,18.156 L24.61,18.156 L24.61,19.108 L21.236,19.108 L21.236,20.424 L23.49,20.424 C22.902,21.278 22.062,21.992 20.97,22.58 L21.782,23.896 C23.056,22.986 23.994,21.824 24.596,20.424 L24.61,20.424 L24.61,24.386 L26.066,24.386 Z M26.64,14.838 L24.008,14.838 L24.008,13.956 L26.64,13.956 L26.64,14.838 Z M19.122,19.584 C18.828,19.332 18.506,19.08 18.17,18.8 C18.422,17.89 18.66,16.756 18.898,15.412 L19.962,15.412 C19.878,16.966 19.598,18.352 19.122,19.584 Z M26.64,16.924 L24.008,16.924 L24.008,16.042 L26.64,16.042 L26.64,16.924 Z M33.472,24.47 L33.472,15.244 C34.004,14.222 34.452,13.158 34.788,12.038 L33.472,11.422 C32.828,13.718 31.82,15.706 30.476,17.414 L30.924,18.87 C31.316,18.422 31.68,17.974 32.03,17.512 L32.03,24.47 L33.472,24.47 Z M39.296,24.47 L39.296,21.74 L41.228,21.74 L41.228,20.34 L39.296,20.34 L39.296,15.342 C39.926,17.792 41.018,20.018 42.558,22.006 L43.51,20.802 C42.04,19.122 40.99,17.218 40.374,15.09 L42.95,15.09 L42.95,13.69 L39.296,13.69 L39.296,11.478 L37.854,11.478 L37.854,13.69 L34.396,13.69 L34.396,15.09 L36.762,15.09 C36.104,17.442 35.082,19.388 33.682,20.914 L34.438,22.174 C36.006,20.382 37.154,18.114 37.854,15.356 L37.854,20.34 L35.978,20.34 L35.978,21.74 L37.854,21.74 L37.854,24.47 L39.296,24.47 Z M45.148,17.54 C45.904,17.12 46.618,16.672 47.29,16.21 L47.29,17.19 L54.71,17.19 L54.71,16.224 C55.354,16.686 56.054,17.12 56.796,17.512 L57.594,16.098 C55.298,14.978 53.282,13.424 51.532,11.464 L50.468,11.464 C48.844,13.312 46.814,14.866 44.364,16.112 L45.148,17.54 Z M54.094,15.776 L47.892,15.776 C49.082,14.88 50.118,13.886 51,12.794 C51.91,13.9 52.946,14.894 54.094,15.776 Z M47.794,24.442 L47.794,23.728 L54.206,23.728 L54.206,24.442 L55.62,24.442 L55.62,18.562 L46.38,18.562 L46.38,24.442 L47.794,24.442 Z M54.206,22.342 L47.794,22.342 L47.794,19.934 L54.206,19.934 L54.206,22.342 Z M66.862,24.498 L66.862,21.376 L70.726,21.376 L70.726,19.962 L66.862,19.962 L66.862,18.044 L70.726,18.044 L70.726,16.616 L66.862,16.616 L66.862,14.754 L71.258,14.754 L71.258,13.312 L65.616,13.312 C65.812,12.794 66.008,12.262 66.204,11.702 L64.72,11.366 C63.88,13.774 62.9,15.622 61.78,16.938 L62.83,18.198 C63.614,17.246 64.328,16.098 64.972,14.754 L65.378,14.754 L65.378,24.498 L66.862,24.498 Z M61.556,24.498 L61.556,15.076 C62.116,14.124 62.578,13.116 62.928,12.066 L61.542,11.422 C60.856,13.522 59.806,15.356 58.392,16.91 L58.882,18.478 C59.302,18.058 59.694,17.624 60.072,17.176 L60.072,24.498 L61.556,24.498 Z M75.29,14.838 L76.312,13.83 C75.668,13.102 74.87,12.36 73.946,11.618 L72.952,12.556 C73.96,13.368 74.744,14.138 75.29,14.838 Z M78.412,22.3 L78.412,20.018 L80.232,20.018 L80.232,22.286 L81.576,22.286 L81.576,20.018 L83.452,20.018 L83.452,20.606 C83.452,20.9 83.298,21.054 82.99,21.054 L82.024,21.012 L82.346,22.216 L83.396,22.216 C84.348,22.216 84.824,21.768 84.824,20.9 L84.824,14.698 L81.996,14.698 L81.968,14.67 C82.892,14.18 83.746,13.592 84.544,12.92 L84.544,11.898 L76.802,11.898 L76.802,13.102 L79.448,13.102 L78.706,13.83 C79.238,14.124 79.714,14.418 80.148,14.698 L77.04,14.698 L77.04,22.3 L78.412,22.3 Z M81.086,13.998 C80.694,13.704 80.246,13.41 79.77,13.102 L82.57,13.102 C82.108,13.424 81.618,13.718 81.086,13.998 Z M83.452,16.784 L81.576,16.784 L81.576,15.902 L83.452,15.902 L83.452,16.784 Z M80.232,16.784 L78.412,16.784 L78.412,15.902 L80.232,15.902 L80.232,16.784 Z M73.736,24.526 C74.436,23.266 74.912,22.65 75.192,22.65 C75.346,22.65 75.514,22.762 75.71,23 C76.13,23.476 76.62,23.798 77.18,23.966 C77.768,24.106 78.51,24.19 79.42,24.204 C80.316,24.218 81.156,24.232 81.926,24.232 L85.132,24.232 L85.482,22.79 C85.104,22.818 84.558,22.846 83.844,22.874 C83.116,22.874 82.416,22.888 81.716,22.888 C80.624,22.888 79.686,22.874 78.874,22.86 C78.048,22.832 77.432,22.72 77.026,22.51 C76.69,22.328 76.368,22.048 76.046,21.684 L75.892,21.53 L75.892,16.21 L72.686,16.21 L72.686,17.554 L74.534,17.554 L74.534,21.39 C73.974,21.698 73.358,22.412 72.658,23.532 L73.736,24.526 Z M80.232,18.842 L78.412,18.842 L78.412,17.96 L80.232,17.96 L80.232,18.842 Z M83.452,18.842 L81.576,18.842 L81.576,17.96 L83.452,17.96 L83.452,18.842 Z M98.334,22.048 L98.334,15.02 L95.184,15.02 L95.436,14.264 L99.216,14.264 L99.216,12.906 L97.242,12.906 C97.466,12.612 97.676,12.29 97.872,11.94 L96.458,11.436 C96.206,11.94 95.926,12.43 95.604,12.906 L94.12,12.906 C93.868,12.346 93.588,11.87 93.294,11.45 L91.936,11.954 C92.16,12.248 92.384,12.57 92.58,12.906 L90.634,12.906 L90.634,14.264 L93.854,14.264 C93.798,14.516 93.714,14.768 93.616,15.02 L91.446,15.02 L91.446,22.048 L98.334,22.048 Z M89.29,14.838 L90.312,13.83 C89.668,13.102 88.87,12.36 87.946,11.618 L86.952,12.556 C87.96,13.368 88.744,14.138 89.29,14.838 Z M87.736,24.526 C88.464,23.266 88.968,22.65 89.248,22.65 C89.416,22.65 89.584,22.762 89.78,23 C90.172,23.476 90.662,23.798 91.222,23.966 C91.81,24.106 92.552,24.19 93.448,24.204 C94.344,24.218 95.17,24.232 95.926,24.232 L99.132,24.232 L99.482,22.79 C99.104,22.818 98.558,22.846 97.844,22.874 C97.116,22.874 96.416,22.888 95.716,22.888 C94.638,22.888 93.7,22.874 92.902,22.86 C92.09,22.832 91.474,22.72 91.068,22.51 C90.746,22.328 90.424,22.048 90.102,21.684 L89.962,21.544 L89.962,16.21 L86.686,16.21 L86.686,17.554 L88.604,17.554 L88.604,21.39 C88.016,21.698 87.372,22.412 86.672,23.532 L87.736,24.526 Z M96.962,17.022 L92.804,17.022 L92.804,16.308 L96.962,16.308 L96.962,17.022 Z M96.962,18.842 L92.804,18.842 L92.804,18.17 L96.962,18.17 L96.962,18.842 Z M96.962,20.76 L92.804,20.76 L92.804,19.99 L96.962,19.99 L96.962,20.76 Z" id="媒体合作通道" fill="#FFFFFF" fill-rule="nonzero"></path>
            </g>
        </g>
    </g>
</svg>