<?xml version="1.0" encoding="UTF-8"?>
<svg width="316px" height="125px" viewBox="0 0 316 125" version="1.1" xmlns="http://www.w3.org/2000/svg" xmlns:xlink="http://www.w3.org/1999/xlink">
    <title>提交成功图片</title>
    <defs>
        <linearGradient x1="50%" y1="0%" x2="50%" y2="100%" id="linearGradient-1">
            <stop stop-color="#EEF8FF" offset="0%"></stop>
            <stop stop-color="#EEF8FF" offset="22.4653677%"></stop>
            <stop stop-color="#F6FAFD" offset="48.6908784%"></stop>
            <stop stop-color="#FDFEFE" offset="100%"></stop>
        </linearGradient>
        <linearGradient x1="50%" y1="0%" x2="50%" y2="100%" id="linearGradient-2">
            <stop stop-color="#F3F7FA" offset="0%"></stop>
            <stop stop-color="#DCEAF3" offset="27.5220938%"></stop>
            <stop stop-color="#E9F2F7" offset="67.0007849%"></stop>
            <stop stop-color="#DFEDF3" offset="100%"></stop>
        </linearGradient>
        <rect id="path-3" x="0" y="0" width="86" height="108" rx="10"></rect>
        <filter x="-11.0%" y="-8.8%" width="122.1%" height="117.6%" filterUnits="objectBoundingBox" id="filter-4">
            <feGaussianBlur stdDeviation="5.5" in="SourceAlpha" result="shadowBlurInner1"></feGaussianBlur>
            <feOffset dx="-8" dy="-2" in="shadowBlurInner1" result="shadowOffsetInner1"></feOffset>
            <feComposite in="shadowOffsetInner1" in2="SourceAlpha" operator="arithmetic" k2="-1" k3="1" result="shadowInnerInner1"></feComposite>
            <feColorMatrix values="0 0 0 0 0.793730023   0 0 0 0 0.878783869   0 0 0 0 0.926036005  0 0 0 1 0" type="matrix" in="shadowInnerInner1" result="shadowMatrixInner1"></feColorMatrix>
            <feGaussianBlur stdDeviation="1.5" in="SourceAlpha" result="shadowBlurInner2"></feGaussianBlur>
            <feOffset dx="0" dy="1" in="shadowBlurInner2" result="shadowOffsetInner2"></feOffset>
            <feComposite in="shadowOffsetInner2" in2="SourceAlpha" operator="arithmetic" k2="-1" k3="1" result="shadowInnerInner2"></feComposite>
            <feColorMatrix values="0 0 0 0 1   0 0 0 0 1   0 0 0 0 1  0 0 0 0.5 0" type="matrix" in="shadowInnerInner2" result="shadowMatrixInner2"></feColorMatrix>
            <feMerge>
                <feMergeNode in="shadowMatrixInner1"></feMergeNode>
                <feMergeNode in="shadowMatrixInner2"></feMergeNode>
            </feMerge>
        </filter>
    </defs>
    <g id="页面-1" stroke="none" stroke-width="1" fill="none" fill-rule="evenodd">
        <g id="预览页1" transform="translate(-482.000000, -188.000000)">
            <g id="提交成功" transform="translate(482.000000, 168.000000)">
                <g id="提交成功图片" transform="translate(0.000000, 20.000000)">
                    <g id="未登录" transform="translate(0.000000, 89.000000)">
                        <path d="M0,36 C33.3333333,12 85,0 155,0 C225,0 278.666667,12 316,36 L0,36 Z" id="路径-2" fill="url(#linearGradient-1)"></path>
                        <path d="M205.5,23 C217.374122,23 227,22 227,19.5 C227,17 217.374122,16 205.5,16 C193.625878,16 184,17 184,19.5 C184,22 193.625878,23 205.5,23 Z" id="椭圆形" fill="#E9F2FB"></path>
                    </g>
                    <g id="编组-7" transform="translate(115.000000, 0.000000)">
                        <g id="矩形" fill-rule="nonzero">
                            <use fill="url(#linearGradient-2)" xlink:href="#path-3"></use>
                            <use fill="black" fill-opacity="1" filter="url(#filter-4)" xlink:href="#path-3"></use>
                        </g>
                        <rect id="矩形" fill="#FFFFFF" x="7" y="10" width="72" height="88" rx="8"></rect>
                        <rect id="矩形" fill="#EFF6FD" x="12" y="16" width="62" height="34"></rect>
                        <rect id="矩形" fill="#EFF6FD" x="12" y="53" width="48" height="21"></rect>
                        <rect id="矩形" fill="#EFF6FD" x="12" y="79" width="62" height="14"></rect>
                        <path d="M43.5,22 C37.1493304,22 32,27.1493304 32,33.5 C32,39.8506696 37.1493304,45 43.5,45 C49.8506696,45 55,39.8506696 55,33.5 C55,27.1493304 49.8506696,22 43.5,22 Z M48.4670759,29.7445312 L43.0610491,37.240067 C42.7350446,37.6944196 42.059933,37.6944196 41.7339286,37.240067 L38.5329241,32.8043527 C38.4353795,32.6683036 38.5329241,32.4783482 38.6997768,32.4783482 L39.903683,32.4783482 C40.1655134,32.4783482 40.4145089,32.6041295 40.5685268,32.8197545 L42.3962054,35.3559152 L46.4314732,29.759933 C46.5854911,29.546875 46.8319196,29.4185268 47.096317,29.4185268 L48.3002232,29.4185268 C48.4670759,29.4185268 48.5646205,29.6084821 48.4670759,29.7445312 Z" id="形状" fill="#C4E3F7" fill-rule="nonzero"></path>
                    </g>
                    <g id="Humaaan" transform="translate(205.500000, 68.500000) scale(-1, 1) translate(-205.500000, -68.500000) translate(178.000000, 29.000000)">
                        <g id="Head/Front/Chongo" transform="translate(23.492135, 11.236967) rotate(-8.000000) translate(-23.492135, -11.236967) translate(11.025468, 1.744450)">
                            <g id="Head" stroke-width="1" transform="translate(9.900000, 5.659001)" fill="#E6C09F">
                                <path d="M6.99294592,1.66738498 C8.05532789,3.63911265 7.92908929,8.64056339 6.55605526,8.99296612 C6.00853865,9.13349166 4.84221915,8.7893024 3.65512699,8.07691327 L4.4,13.3260343 L0,13.3260343 L1.51468206,6.29603834 C0.669936047,5.30869401 0.0982022815,4.09870068 0.193742328,2.7428728 C0.469027207,-1.1637499 5.93056395,-0.304342684 6.99294592,1.66738498 Z"></path>
                            </g>
                            <path d="M15.1549741,5.17889422 C14.5537431,4.99634581 13.680967,4.93443779 13.3138161,4.97631804 C13.5226683,4.47806669 13.6055439,3.92295474 13.5379802,3.38245525 C13.4723113,2.85725986 13.2366245,2.41007122 13.0186497,1.94147155 C12.9181744,1.72547778 12.8043099,1.51066124 12.6345447,1.34545057 C12.4616076,1.17713494 12.2426924,1.06603309 12.0131389,1.01302794 C11.778224,0.958771971 11.5325865,0.963289622 11.2973068,1.01252761 C11.1932245,1.03430652 11.0998368,1.08169035 10.9977615,1.10803106 C10.8932302,1.13501924 10.8425224,1.06987383 10.7666501,1.00440467 C10.5838044,0.846654748 10.3157534,0.768780441 10.0844314,0.740909327 C9.82489946,0.709653653 9.55559928,0.748634953 9.30808115,0.833587404 C9.06715938,0.916288387 8.83571112,1.05058183 8.66152493,1.24622411 C8.5839685,1.3333103 8.51356983,1.43243376 8.46781631,1.54187276 C8.44905175,1.5867844 8.44595006,1.61338998 8.40094038,1.62984189 C8.3593131,1.64507241 8.31062629,1.64551387 8.2676657,1.66000862 C7.85226302,1.80009996 7.49709779,2.1196907 7.30371197,2.53003179 C7.19088603,2.76942318 7.13744142,3.1909068 7.15207974,3.66332069 C7.16671806,4.13573458 7.59511699,5.36839722 7.99579715,5.81801392 C8.35344654,6.21933442 8.8791489,6.48416887 9.3864937,6.6000974 C9.04974217,6.98336201 8.82557798,7.46229194 8.65981269,7.94937424 C8.47975994,8.47846923 8.36832345,9.02822475 8.32717335,9.5883694 C8.28808637,10.1205694 8.28446539,10.6833775 8.40976828,11.2042171 C8.52698712,11.6912847 8.77766309,12.0908541 9.1961394,12.3443429 C9.38782701,12.4604627 9.59406873,12.5476961 9.80150341,12.6274245 C10.0059346,12.7059905 10.2109834,12.7823785 10.4251267,12.8264661 C10.8304103,12.9098734 11.297391,12.8955552 11.6095816,12.5743458 C11.7220987,12.4585497 11.8458438,12.3130431 11.9279334,12.1715832 C11.9574487,12.1207118 11.9752448,12.0874401 11.9393859,12.0377165 C11.8964253,11.9781629 11.8269389,11.9325302 11.7717539,11.885941 C11.4570511,11.620312 11.2622478,11.2656984 11.2131399,10.8442765 C11.1633163,10.4166889 11.2786685,9.86478493 11.6961764,9.67817796 C12.2115491,9.44782188 12.7791174,9.71222958 13.2371859,9.95869911 C13.431863,9.27454713 13.8315887,8.65854253 14.4582857,8.34472026 C15.15162,7.997538 15.947212,7.95690857 16.6597178,7.65902316 C16.8453845,7.58139901 17.0344897,7.49328273 17.1711889,7.33512078 C17.2283106,7.26901886 17.2953269,7.18327177 17.3181334,7.09584712 C17.3480978,6.98100753 17.2737132,6.88472416 17.2162547,6.7951952 C16.9115867,6.32048861 15.7562051,5.36144264 15.1549741,5.17889422 Z" id="hair" fill="#191847"></path>
                        </g>
                        <g id="Bottom/Standing/Jogging" transform="translate(0.000000, 35.000000)">
                            <polygon id="Leg" fill="#E6C09F" points="23.8333333 0 37.4561757 22.870226 47.6693881 42.2050743 49.8692235 42.2050743 32.7568428 9.37140904e-14"></polygon>
                            <g id="Accessories/Shoe/Flat-Sneaker" transform="translate(45.833333, 36.635983)" fill="#2A2A4C">
                                <path d="M0.183333333,5.91066743 C0.183333333,5.91066743 0.183333333,5.91066743 0.183333333,5.91066743 C0.183333333,6.24265318 0.238409271,6.72710295 0.348561146,7.36401674 C0.732083215,7.36401674 4.17886063,7.36401674 10.6888934,7.36401674 C10.957602,6.47195949 10.8024878,5.99036649 10.2235509,5.91923774 C9.64461392,5.84810898 9.16368118,5.7838854 8.78075263,5.72656701 L4.71762944,3.90762753 C4.2277757,3.68833456 3.6528987,3.90766742 3.43360574,4.39752116 C3.42945398,4.40679532 3.42544793,4.41613401 3.42158907,4.42553382 L3.42158907,4.42553382 L3.42158907,4.42553382 C2.88564489,4.67663889 2.4501346,4.80219143 2.11505821,4.80219143 C1.99718738,4.80219143 1.85987224,4.78149427 1.70311278,4.74009995 L1.70310899,4.74011428 C1.05663034,4.56940341 0.394167341,4.95508942 0.223456478,5.60156807 C0.196819453,5.70244196 0.183333333,5.80633588 0.183333333,5.91066743 Z" id="shoe"></path>
                            </g>
                            <path d="M44.8328937,39.1089838 L49.0752374,37.8202808 C47.216551,32.2405627 44.938467,26.1002874 42.2409852,19.3994551 C39.5435035,12.6986228 36.6465084,6.23213773 33.55,5.2324486e-15 L21.5680801,5.2324486e-15 C25.0107315,7.88336807 28.6604038,15.0464199 32.5170967,21.4891555 C36.3737897,27.9318911 40.4790554,33.8051672 44.8328937,39.1089838 Z" id="Pant" fill="#4C4B6F"></path>
                            <path d="M22.9380485,5.2324486e-15 C21.652308,8.03675443 19.1724667,18.3046385 18.9384365,18.6215085 C18.7824164,18.8327551 13.1656527,20.7227479 2.08814546,24.2914869 L2.56333645,26.239453 C15.7732379,24.3255153 22.7337294,22.8406036 23.4448109,21.784718 C24.5114332,20.2008897 29.8372224,7.68861099 31.9,5.2324486e-15 L22.9380485,5.2324486e-15 Z" id="Leg" fill="#E6C09F"></path>
                            <path d="M5.98207643,22.6076192 L6.8190736,25.7449595 C16.6993102,26.6151435 22.7531494,25.9863809 24.9805912,23.8586716 C27.208033,21.7309624 29.7466591,13.7780718 32.5964696,-2.09297944e-14 L21.1709934,-2.09297944e-14 C19.3654206,11.2823869 18.3559879,17.1603914 18.1426952,17.6340135 C17.9294026,18.1076356 13.875863,19.7655042 5.98207643,22.6076192 Z" id="Pant" fill="#5C5A80"></path>
                            <g id="Accessories/Shoe/Flat-Sneaker" transform="translate(4.491667, 28.351464) rotate(80.000000) translate(-4.491667, -28.351464) translate(-1.100000, 24.669456)" fill="#2A2A4C">
                                <path d="M0.183333333,5.91066743 C0.183333333,5.91066743 0.183333333,5.91066743 0.183333333,5.91066743 C0.183333333,6.24265318 0.238409271,6.72710295 0.348561146,7.36401674 C0.732083215,7.36401674 4.17886063,7.36401674 10.6888934,7.36401674 C10.957602,6.47195949 10.8024878,5.99036649 10.2235509,5.91923774 C9.64461392,5.84810898 9.16368118,5.7838854 8.78075263,5.72656701 L4.71762944,3.90762753 C4.2277757,3.68833456 3.6528987,3.90766742 3.43360574,4.39752116 C3.42945398,4.40679532 3.42544793,4.41613401 3.42158907,4.42553382 L3.42158907,4.42553382 L3.42158907,4.42553382 C2.88564489,4.67663889 2.4501346,4.80219143 2.11505821,4.80219143 C1.99718738,4.80219143 1.85987224,4.78149427 1.70311278,4.74009995 L1.70310899,4.74011428 C1.05663034,4.56940341 0.394167341,4.95508942 0.223456478,5.60156807 C0.196819453,5.70244196 0.183333333,5.80633588 0.183333333,5.91066743 Z" id="shoe"></path>
                            </g>
                        </g>
                        <g id="Body/Pointing-Forward" transform="translate(26.633771, 33.562293) rotate(-8.000000) translate(-26.633771, -33.562293) translate(3.167104, 16.494016)">
                            <path d="M43.7353365,8.47166719 C44.529682,8.3088336 46.4684525,6.87307357 46.8025123,7.16458711 C47.2967322,7.5958626 46.8560554,8.92012828 46.3368333,9.57887954 C45.366408,10.8100848 44.5629376,11.2311199 42.5770359,11.7824678 C41.5387039,12.070741 40.4160834,12.6485597 39.2091744,13.5159241 L39.05,10.7228647 L41.8451959,9.1939061 C42.2374014,7.70790799 42.7062354,6.9602521 43.2516977,6.95093842 C43.6707262,6.75680339 42.940991,8.63450078 43.7353365,8.47166719 Z M38.9243803,2.10688381 C38.4111349,3.01394352 37.912247,3.99101793 38.1737253,4.2704634 C38.4352036,4.54990886 39.0872232,4.15953586 39.3991629,4.62383688 C39.6071227,4.93337089 38.4931987,5.42234748 36.0573911,6.09076666 L31.4335619,10.3062531 L29.0836406,7.79485981 L35.4471005,4.32453943 C36.505305,3.07329791 37.5479311,2.10153355 38.5749789,1.40924636 C38.8888116,1.27878727 39.4376257,1.19982411 38.9243803,2.10688381 Z" id="Skin" fill="#E6C09F"></path>
                            <path d="M26.1901056,6.34061447 C28.3952252,6.66613322 31.4041966,6.66812389 34.8501157,5.18445602 L35.6476209,8.11083984 C33.1488413,9.90368846 29.8329685,11.1767218 27.188331,10.6817076 C25.1042109,10.2916091 24.4336463,7.60085588 26.1901056,6.34061447 Z" id="Sleeve" fill="#E39600" transform="translate(30.414944, 7.986907) rotate(-9.000000) translate(-30.414944, -7.986907) "></path>
                            <path d="M26.1330208,-2.63373048e-14 C26.4136839,3.59040585 27.8262947,7.54732965 28.9856443,11.4564986 C31.3513849,12.0446757 35.3196227,11.3517809 40.8899211,9.37813657 C42.2714735,12.2240843 42.9101305,14.2530267 42.8058922,15.4649639 C38.0266941,17.9507439 33.9306644,19.0587121 30.5562839,19.1314036 C30.665818,21.1246966 30.4221471,23.0214922 29.6035544,24.7546543 C27.9206914,28.3176888 18.0665939,25.0179215 14.7533444,25.6673963 C12.6784901,18.9578939 16.6902836,16.2311793 16.6935116,11.9380486 C16.6970465,7.23661298 20.4883085,-2.63373048e-14 21.0461168,-2.63373048e-14 L21.0461168,-2.63373048e-14 Z" id="Clothes" fill="#FEA803"></path>
                        </g>
                    </g>
                </g>
            </g>
        </g>
    </g>
</svg>