<?xml version="1.0" encoding="UTF-8"?>
<svg width="14px" height="14px" viewBox="0 0 14 14" version="1.1" xmlns="http://www.w3.org/2000/svg" xmlns:xlink="http://www.w3.org/1999/xlink">
    <!-- Generator: Sketch 52.6 (67491) - http://www.bohemiancoding.com/sketch -->
    <title>技术支持</title>
    <desc>Created with Sketch.</desc>
    <g id="Page-1" stroke="none" stroke-width="1" fill="none" fill-rule="evenodd">
        <g id="选场景-帮助按钮" transform="translate(-1152.000000, -1943.000000)">
            <g id="Group" transform="translate(919.000000, 1881.000000)">
                <g id="更多打开1" transform="translate(215.000000, 19.000000)">
                    <g id="技术支持" transform="translate(17.000000, 42.000000)">
                        <rect id="Rectangle" fill="#000000" opacity="0" x="0" y="0" width="16" height="16"></rect>
                        <path d="M14.19375,8.609375 C14.25,8.128125 13.1203125,6.4203125 12.56875,4.953125 C12.0171875,3.4859375 11.0015625,1.5 7.490625,1.5 C3.9796875,1.5 1.803125,4.5453125 1.803125,6.578125 C1.803125,9.325 3.6390625,11.0359375 3.63125,11.65625 C3.63125,11.665625 3.63125,14.296875 3.63125,14.296875 C3.63125,14.296875 3.7078125,14.5 3.8984375,14.5 C4.1578125,14.5 4.240625,14.296875 4.240625,14.296875 L4.240625,11.65625 C4.240625,10.8671875 2.4234375,8.7953125 2.4125,6.578125 C2.4,4.1875 4.996875,2.225 7.2875,2.1140625 L7.2875,5.9796875 C6.3296875,6.09375 5.6625,7.0046875 5.6625,7.9984375 C5.6625,9.0609375 6.471875,9.8453125 7.5390625,9.8453125 C7.9703125,9.8453125 8.3671875,9.7015625 8.6890625,9.4640625 L9.68125,10.16875 C9.6765625,10.196875 9.6734375,10.2234375 9.6734375,10.2515625 C9.6734375,10.5875 9.946875,10.859375 10.2828125,10.859375 C10.6203125,10.859375 10.8921875,10.5875 10.8921875,10.2515625 C10.8921875,9.915625 10.61875,9.64375 10.2828125,9.64375 C10.2015625,9.64375 10.1265625,9.6609375 10.05625,9.6875 L9.121875,9.0234375 C9.3421875,8.7109375 9.471875,8.33125 9.471875,7.9203125 C9.471875,6.9953125 8.78125,6.203125 7.9,6.0109375 L7.9,2.1265625 C10.8984375,2.296875 11.703125,4.325 11.9609375,5.15625 C12.2328125,6.0359375 13.590625,8.1625 13.5859375,8.40625 C13.58125,8.653125 12.1640625,9.21875 12.1640625,9.21875 L12.1640625,10.84375 C12.1640625,10.84375 12.1625,11.2421875 11.7578125,11.65625 C11.3796875,12.04375 10.5390625,12.0625 10.5390625,12.0625 L9.7265625,12.0625 L9.7265625,14.296875 C9.7265625,14.296875 9.8046875,14.5 10.00625,14.5 C10.3,14.5 10.3359375,14.296875 10.3359375,14.296875 L10.3359375,12.671875 C10.3359375,12.671875 11.1796875,12.7609375 11.9609375,12.265625 C12.7921875,11.7375 12.7734375,10.84375 12.7734375,10.84375 L12.7734375,9.625 C13.175,9.4953125 14.1390625,9.090625 14.19375,8.609375 Z M8.859375,7.921875 C8.859375,8.6484375 8.2671875,9.2390625 7.5390625,9.2390625 C6.809375,9.2390625 6.21875,8.65 6.21875,7.921875 C6.21875,7.19375 6.809375,6.6046875 7.5390625,6.6046875 C8.26875,6.60625 8.859375,7.1953125 8.859375,7.921875 Z" id="Shape" fill="#ffffff" fill-rule="nonzero"></path>
                    </g>
                </g>
            </g>
        </g>
    </g>
</svg>