<?xml version="1.0" encoding="UTF-8"?>
<svg width="41px" height="35px" viewBox="0 0 41 35" version="1.1" xmlns="http://www.w3.org/2000/svg" xmlns:xlink="http://www.w3.org/1999/xlink">
    <!-- Generator: Sketch 55.2 (78181) - https://sketchapp.com -->
    <title>编组</title>
    <desc>Created with Sketch.</desc>
    <defs>
        <linearGradient x1="43.606733%" y1="0%" x2="58.1482818%" y2="100%" id="linearGradient-1">
            <stop stop-color="#FFE972" offset="0%"></stop>
            <stop stop-color="#FBC730" offset="100%"></stop>
        </linearGradient>
        <linearGradient x1="38.2227636%" y1="0%" x2="56.9399156%" y2="80.3058754%" id="linearGradient-2">
            <stop stop-color="#FFC32D" offset="0%"></stop>
            <stop stop-color="#EAA502" offset="100%"></stop>
        </linearGradient>
        <linearGradient x1="90.9425785%" y1="50%" x2="9.05742153%" y2="69.1010009%" id="linearGradient-3">
            <stop stop-color="#FFC657" offset="0%"></stop>
            <stop stop-color="#F0B543" offset="100%"></stop>
        </linearGradient>
        <path d="M12.9666473,5.6403199 C12.6321108,5.07833548 12.4394071,4.4182533 12.4394071,3.71212121 C12.4394071,1.66197328 14.0637899,-1.42108547e-13 16.0675676,-1.42108547e-13 C18.0713452,-1.42108547e-13 19.695728,1.66197328 19.695728,3.71212121 C19.695728,4.4182533 19.5030244,5.07833548 19.1684878,5.6403199 L31.8500714,28.7070816 C28.233959,32.1090192 23.5648594,34.3574627 18.400132,34.8821549 L13.7350032,34.8821549 C8.57027575,34.3574627 3.90117617,32.1090192 0.285063741,28.7070816 L12.9666473,5.6403199 Z" id="path-4"></path>
    </defs>
    <g id="Page-1" stroke="none" stroke-width="1" fill="none" fill-rule="evenodd">
        <g id="订单确认3" transform="translate(-434.000000, -449.000000)">
            <g id="高级会员" transform="translate(391.000000, 408.000000)">
                <g id="编组-2">
                    <g id="编组" transform="translate(43.000000, 41.000000)">
                        <path d="M6.05226286,8.50792676 L13.2972973,15.2932551 L13.2972973,28.2258065 L5.11434511,28.2258065 L3.38986935,10.9648984 C3.28428119,10.9764722 3.17710167,10.9824047 3.06860707,10.9824047 C1.37386218,10.9824047 0,9.53487958 0,7.74926686 C0,5.96365414 1.37386218,4.51612903 3.06860707,4.51612903 C4.76335196,4.51612903 6.13721414,5.96365414 6.13721414,7.74926686 C6.13721414,8.01055121 6.10779734,8.26459652 6.05226286,8.50792676 Z" id="形状结合" fill="url(#linearGradient-1)"></path>
                        <path d="M33.7549656,8.50792676 L41,15.2932551 L41,28.2258065 L32.8170478,28.2258065 L31.0925721,10.9648984 C30.9869839,10.9764722 30.8798044,10.9824047 30.7713098,10.9824047 C29.0765649,10.9824047 27.7027027,9.53487958 27.7027027,7.74926686 C27.7027027,5.96365414 29.0765649,4.51612903 30.7713098,4.51612903 C32.4660547,4.51612903 33.8399168,5.96365414 33.8399168,7.74926686 C33.8399168,8.01055121 33.8105,8.26459652 33.7549656,8.50792676 Z" id="形状结合" fill="url(#linearGradient-2)" transform="translate(34.351351, 16.370968) scale(-1, 1) translate(-34.351351, -16.370968) "></path>
                        <g id="矩形" transform="translate(4.432432, 0.000000)">
                            <mask id="mask-5" fill="white">
                                <use xlink:href="#path-4"></use>
                            </mask>
                            <use id="蒙版" fill="url(#linearGradient-3)" xlink:href="#path-4"></use>
                            <rect fill="#FFE390" mask="url(#mask-5)" x="0" y="0" width="16.5858762" height="36.0606061"></rect>
                        </g>
                    </g>
                </g>
            </g>
        </g>
    </g>
</svg>