<?xml version="1.0" encoding="UTF-8"?>
<svg width="29px" height="8px" viewBox="0 0 29 8" version="1.1" xmlns="http://www.w3.org/2000/svg" xmlns:xlink="http://www.w3.org/1999/xlink">
    <!-- Generator: Sketch 56.2 (81672) - https://sketch.com -->
    <title>NEW</title>
    <desc>Created with Sketch.</desc>
    <g id="Page-1" stroke="none" stroke-width="1" fill="none" fill-rule="evenodd">
        <g id="数据首页3" transform="translate(-798.000000, -634.000000)" fill="#E63962" fill-rule="nonzero">
            <path d="M798.821777,634.125977 L801.09375,634.125977 L804.058594,638.481934 L804.058594,634.125977 L806.352051,634.125977 L806.352051,642 L804.058594,642 L801.109863,637.67627 L801.109863,642 L798.821777,642 L798.821777,634.125977 Z M807.963379,634.125977 L814.483887,634.125977 L814.483887,635.807129 L810.401855,635.807129 L810.401855,637.058594 L814.188477,637.058594 L814.188477,638.664551 L810.401855,638.664551 L810.401855,640.216797 L814.602051,640.216797 L814.602051,642 L807.963379,642 L807.963379,634.125977 Z M815.101562,634.125977 L817.411133,634.125977 L818.243652,638.524902 L819.45752,634.125977 L821.761719,634.125977 L822.980957,638.524902 L823.813477,634.125977 L826.112305,634.125977 L824.377441,642 L821.992676,642 L820.612305,637.04248 L819.237305,642 L816.852539,642 L815.101562,634.125977 Z" id="NEW"></path>
        </g>
    </g>
</svg>