<?xml version="1.0" encoding="UTF-8"?>
<svg width="21px" height="28px" viewBox="0 0 21 28" version="1.1" xmlns="http://www.w3.org/2000/svg" xmlns:xlink="http://www.w3.org/1999/xlink">
    <!-- Generator: Sketch 61 (89581) - https://sketch.com -->
    <title>形状</title>
    <desc>Created with Sketch.</desc>
    <g id="Page-1" stroke="none" stroke-width="1" fill="none" fill-rule="evenodd">
        <g id="品牌设置-删除" transform="translate(-630.000000, -382.000000)" fill="#FFFFFF" fill-rule="nonzero">
            <g id="弹窗" transform="translate(376.000000, 226.000000)">
                <g id="中间内容" transform="translate(85.000000, 40.000000)">
                    <g id="编组-2" transform="translate(0.000000, 85.000000)">
                        <g id="自定义1" transform="translate(136.000000, 0.000000)">
                            <path d="M51.3750815,34.500037 L35.6250074,34.500037 C34.1749505,34.500037 33,35.6749443 33,37.1250574 L33,38.0000741 L54,38.0000741 L54,37.1250574 C54,35.6749443 52.8250791,34.500037 51.3750222,34.500037 M46.7898674,32.7500333 L47.1760949,35.5117528 L39.8240236,35.5117528 L40.2102511,32.7500333 L46.7898674,32.7500333 M47.0000494,31 L40.0001284,31 C39.2780484,31 38.6064026,31.5844903 38.5055935,32.3005827 L37.993725,35.9620628 C37.8937456,36.677207 38.403036,37.2617565 39.1251161,37.2617565 L47.8750914,37.2617565 C48.5971418,37.2617565 49.1064322,36.6772663 49.0056231,35.9612035 L48.4937546,32.2996937 C48.393716,31.5844606 47.7220998,31 47.0000494,31 M51.8126025,39.7500185 L35.1875457,39.7500185 C34.2253847,39.7500185 33.5084311,40.5344161 33.5956093,41.4931769 L35.029487,57.2568416 C35.1157762,58.2156024 35.9754094,59 36.9375407,59 L50.0626074,59 C51.0247684,59 51.8844016,58.2155432 51.9706612,57.2568416 L53.4045092,41.4931473 C53.4916282,40.5344457 52.7747338,39.7500185 51.8126025,39.7500185 M40.0000691,55.5000519 L37.3750025,55.5000519 L36.5000494,43.2500556 L40.0000691,43.2500556 L40.0000691,55.5000519 L40.0000691,55.5000519 Z M45.250084,55.5000519 L41.7500642,55.5000519 L41.7500642,43.2500556 L45.250084,43.2500556 L45.250084,55.5000519 L45.250084,55.5000519 Z M49.6250568,55.5000519 L47.0000198,55.5000519 L47.0000198,43.2500556 L50.5000198,43.2500556 L49.6250864,55.5000519 L49.6250568,55.5000519 Z" id="形状"></path>
                        </g>
                    </g>
                </g>
            </g>
        </g>
    </g>
</svg>