<?xml version="1.0" encoding="UTF-8"?>
<svg width="12px" height="12px" viewBox="0 0 12 12" version="1.1" xmlns="http://www.w3.org/2000/svg" xmlns:xlink="http://www.w3.org/1999/xlink">
    <!-- Generator: Sketch 52.6 (67491) - http://www.bohemiancoding.com/sketch -->
    <title>意见反馈</title>
    <desc>Created with Sketch.</desc>
    <g id="Page-1" stroke="none" stroke-width="1" fill="none" fill-rule="evenodd">
        <g id="选场景-帮助按钮" transform="translate(-1153.000000, -1974.000000)">
            <g id="Group" transform="translate(919.000000, 1881.000000)">
                <g id="更多打开1" transform="translate(215.000000, 19.000000)">
                    <g id="意见反馈" transform="translate(17.000000, 72.000000)">
                        <rect id="Rectangle" fill="#000000" opacity="0" x="0" y="0" width="16" height="16"></rect>
                        <path d="M12.601476,13.4810715 L3.41510194,13.4810715 C2.96451773,13.4732876 2.60483332,13.1030242 2.61011039,12.6524037 L2.61011039,3.10851871 C2.60483332,2.65789817 2.96451773,2.2876348 3.41510194,2.27985094 L10.4753513,2.27985094 C10.6714886,2.27985505 10.8304871,2.43885693 10.8304871,2.63499427 C10.8304871,2.8311316 10.6714886,2.99013348 10.4753513,2.9901376 L3.41510194,2.9901376 C3.35737902,2.9986655 3.31604607,3.05033169 3.32039705,3.10851871 L3.32039705,12.6524037 C3.31604607,12.7105907 3.35737902,12.7622569 3.41510194,12.7707848 L12.601476,12.7707848 C12.6591989,12.7622569 12.7005319,12.7105907 12.6961809,12.6524037 L12.6961809,5.03102792 C12.696216,4.83491253 12.8552088,4.67594824 13.0513242,4.67594824 C13.2474396,4.67594824 13.4064324,4.83491253 13.4064675,5.03102792 L13.4064675,12.6524037 C13.4117446,13.1030242 13.0520602,13.4732876 12.601476,13.4810715 Z" id="Path" fill="#ffffff"></path>
                        <path d="M8.44156382,6.98431622 L5.08664319,6.98431622 C4.89050586,6.9843121 4.73150732,6.82531022 4.73150732,6.62917289 C4.73150732,6.43303555 4.89050586,6.27403367 5.08664319,6.27402956 L8.44156382,6.27402956 C8.56844609,6.2740269 8.68569127,6.34171625 8.74913317,6.45159907 C8.81257507,6.56148189 8.81257507,6.69686388 8.74913317,6.8067467 C8.68569127,6.91662952 8.56844609,6.98431888 8.44156382,6.98431622 Z M10.828127,9.20514582 L5.08664319,9.20514582 C4.89050706,9.20514 4.7315104,9.04613862 4.7315104,8.85000249 C4.7315104,8.65386636 4.89050706,8.49486498 5.08664319,8.49485916 L10.828127,8.49485916 C11.0242631,8.49486498 11.1832598,8.65386636 11.1832598,8.85000249 C11.1832598,9.04613862 11.0242631,9.20514 10.828127,9.20514582 Z M9.51646429,6.747554 C9.37291931,6.74742774 9.2435647,6.66090137 9.18864949,6.52827596 C9.13373428,6.39565056 9.16405779,6.24300746 9.26549634,6.14144271 L13.4088352,1.9981039 C13.5487662,1.86771477 13.7668242,1.87156216 13.9020685,2.00680645 C14.0373128,2.14205075 14.0411602,2.36010872 13.910771,2.50003981 L9.76743224,6.64337862 C9.70089384,6.70999995 9.61062242,6.7474711 9.51646429,6.747554 Z" id="Shape" fill="#ffffff" fill-rule="nonzero"></path>
                    </g>
                </g>
            </g>
        </g>
    </g>
</svg>