<?xml version="1.0" encoding="UTF-8"?>
<svg width="60px" height="25px" viewBox="0 0 60 25" version="1.1" xmlns="http://www.w3.org/2000/svg" xmlns:xlink="http://www.w3.org/1999/xlink">
    <!-- Generator: Sketch 61 (89581) - https://sketch.com -->
    <title>限时免费</title>
    <desc>Created with Sketch.</desc>
    <g id="Page-1" stroke="none" stroke-width="1" fill="none" fill-rule="evenodd">
        <g id="品牌设置-删除" transform="translate(-761.000000, -351.000000)">
            <g id="弹窗" transform="translate(376.000000, 226.000000)">
                <g id="中间内容" transform="translate(85.000000, 40.000000)">
                    <g id="编组-2" transform="translate(0.000000, 85.000000)">
                        <g id="自定义1" transform="translate(272.000000, 0.000000)">
                            <g id="限时免费" transform="translate(28.000000, 0.000000)">
                                <path d="M0,0 L50,0 C55.5228475,-1.01453063e-15 60,4.4771525 60,10 L60,25 L60,25 L10,25 C4.4771525,25 6.76353751e-16,20.5228475 0,15 L0,0 L0,0 Z" id="矩形" fill="#E63962"></path>
                                <path d="M16.98,18.152 L17.616,17.144 C16.788,16.664 16.116,16.088 15.612,15.428 C16.248,15.092 16.824,14.624 17.328,14.024 L16.596,13.292 C16.116,13.868 15.612,14.312 15.084,14.624 C14.796,14.096 14.58,13.532 14.46,12.92 L16.608,12.92 L16.608,7.556 L11.196,7.556 L11.196,16.724 C11.196,16.88 11.088,16.988 10.896,17.06 L11.172,18.056 C12.504,17.708 13.608,17.348 14.484,16.988 L14.22,15.932 C13.596,16.22 12.96,16.46 12.312,16.652 L12.312,12.92 L13.44,12.92 C13.824,15.128 15.012,16.868 16.98,18.152 Z M8.004,18.248 L8.004,8.636 L9.648,8.636 C9.336,9.596 8.916,10.688 8.376,11.888 C9.192,12.896 9.6,13.796 9.6,14.612 C9.6,14.816 9.54,14.96 9.432,15.044 C9.312,15.116 9.096,15.164 8.76,15.188 C8.592,15.188 8.388,15.164 8.148,15.128 L8.52,16.28 C9.408,16.268 10.02,16.112 10.38,15.812 C10.62,15.572 10.74,15.164 10.74,14.612 C10.692,13.784 10.284,12.824 9.528,11.72 C10.008,10.58 10.428,9.5 10.788,8.468 L10.788,7.568 L6.888,7.568 L6.888,18.248 L8.004,18.248 Z M15.492,9.752 L12.312,9.752 L12.312,8.636 L15.492,8.636 L15.492,9.752 Z M15.492,11.876 L12.312,11.876 L12.312,10.784 L15.492,10.784 L15.492,11.876 Z M26.94,18.116 C27.744,18.116 28.152,17.708 28.152,16.892 L28.152,10.364 L29.496,10.364 L29.496,9.272 L28.152,9.272 L28.152,7.256 L26.988,7.256 L26.988,9.272 L22.992,9.272 L22.992,10.364 L26.988,10.364 L26.988,16.604 C26.988,16.916 26.844,17.072 26.556,17.072 C25.92,17.072 25.26,17.048 24.564,17.012 L24.816,18.116 L26.94,18.116 Z M19.98,17.264 L19.98,16.232 L21.42,16.232 L21.42,16.976 L22.524,16.976 L22.524,7.988 L18.864,7.988 L18.864,17.264 L19.98,17.264 Z M21.42,11.504 L19.98,11.504 L19.98,9.02 L21.42,9.02 L21.42,11.504 Z M25.056,15.2 L26.004,14.54 C25.62,13.7 25.056,12.728 24.324,11.612 L23.376,12.2 C24.072,13.304 24.636,14.312 25.056,15.2 Z M21.42,15.176 L19.98,15.176 L19.98,12.572 L21.42,12.572 L21.42,15.176 Z M31.332,18.272 C33.684,17.36 35.16,16.208 35.784,14.84 C35.88,14.648 35.964,14.444 36.036,14.228 L36.456,14.228 L36.456,16.652 C36.456,17.588 36.864,18.056 37.692,18.056 L40.08,18.056 C40.512,18.056 40.824,17.948 41.028,17.732 C41.244,17.492 41.388,16.784 41.484,15.584 L40.404,15.236 C40.38,16.064 40.32,16.556 40.224,16.724 C40.152,16.868 40.032,16.952 39.864,16.952 L38.04,16.952 C37.74,16.952 37.596,16.772 37.596,16.412 L37.596,14.228 L40.308,14.228 L40.308,10.376 L37.56,10.376 C37.98,9.992 38.4,9.524 38.832,8.984 L38.832,8.12 L34.824,8.12 C35.004,7.868 35.184,7.616 35.352,7.352 L34.2,7.1 C33.192,8.588 31.992,9.74 30.576,10.58 L31.296,11.456 C31.524,11.312 31.752,11.156 31.968,11 L31.968,14.228 L34.824,14.228 C34.776,14.324 34.716,14.432 34.668,14.552 C34.02,15.668 32.676,16.616 30.612,17.384 L31.332,18.272 Z M36.132,10.376 L32.748,10.376 C33.18,10.004 33.588,9.596 33.996,9.152 L37.356,9.152 C36.948,9.608 36.54,10.016 36.132,10.376 Z M39.216,13.16 L36.348,13.16 C36.456,12.632 36.528,12.056 36.552,11.432 L39.216,11.432 L39.216,13.16 Z M35.172,13.16 L33.072,13.16 L33.072,11.432 L35.412,11.432 C35.376,12.056 35.292,12.632 35.172,13.16 Z M45.396,16.316 L45.396,13.988 L50.916,13.988 L50.916,16.316 L52.044,16.316 L52.044,12.98 L45.192,12.98 C45.636,12.764 45.996,12.536 46.272,12.272 C46.488,12.056 46.668,11.792 46.824,11.504 L48.756,11.504 L48.756,12.752 L49.86,12.752 L49.86,11.504 L51.948,11.504 C51.948,11.696 51.912,11.828 51.852,11.924 C51.78,12.008 51.588,12.056 51.276,12.056 C51.072,12.056 50.856,12.044 50.64,12.02 L50.844,12.8 C51.024,12.812 51.216,12.824 51.408,12.824 C52.104,12.812 52.548,12.68 52.74,12.416 C52.932,12.164 53.028,11.576 53.028,10.64 L49.86,10.64 L49.86,10.052 L52.404,10.052 L52.404,7.664 L49.86,7.664 L49.86,7.136 L48.756,7.136 L48.756,7.664 L47.208,7.664 L47.208,7.136 L46.104,7.136 L46.104,7.664 L43.44,7.664 L43.44,8.588 L46.104,8.588 L46.104,9.176 L43.8,9.176 L43.332,11.504 L45.516,11.504 C45.492,11.528 45.456,11.576 45.408,11.624 C44.976,12.032 44.16,12.368 42.948,12.632 L43.524,13.52 C43.788,13.46 44.04,13.388 44.28,13.316 L44.28,16.316 L45.396,16.316 Z M48.756,9.176 L47.208,9.176 L47.208,8.588 L48.756,8.588 L48.756,9.176 Z M51.348,9.176 L49.86,9.176 L49.86,8.588 L51.348,8.588 L51.348,9.176 Z M45.984,10.64 L44.556,10.64 L44.724,10.052 L46.092,10.052 C46.068,10.256 46.032,10.448 45.984,10.64 Z M48.756,10.64 L47.124,10.64 C47.16,10.448 47.184,10.256 47.196,10.052 L48.756,10.052 L48.756,10.64 Z M43.356,18.272 C45.588,18.104 47.004,17.72 47.604,17.144 C48.168,16.688 48.528,15.776 48.684,14.396 L47.556,14.288 C47.46,15.32 47.16,16.052 46.632,16.484 C46.032,16.916 44.784,17.168 42.9,17.252 L43.356,18.272 Z M52.5,18.332 L53.124,17.384 C51.852,16.868 50.436,16.436 48.888,16.076 L48.312,16.94 C49.752,17.276 51.144,17.732 52.5,18.332 Z" fill="#FFFFFF" fill-rule="nonzero"></path>
                            </g>
                        </g>
                    </g>
                </g>
            </g>
        </g>
    </g>
</svg>