<?xml version="1.0" encoding="UTF-8"?>
<svg width="14px" height="14px" viewBox="0 0 14 14" version="1.1" xmlns="http://www.w3.org/2000/svg" xmlns:xlink="http://www.w3.org/1999/xlink">
    <!-- Generator: Sketch 52.6 (67491) - http://www.bohemiancoding.com/sketch -->
    <title>帮助</title>
    <desc>Created with Sketch.</desc>
    <g id="Page-1" stroke="none" stroke-width="1" fill="none" fill-rule="evenodd">
        <g id="选场景-帮助按钮" transform="translate(-1152.000000, -2003.000000)">
            <g id="Group" transform="translate(919.000000, 1881.000000)">
                <g id="更多打开1" transform="translate(215.000000, 19.000000)">
                    <g id="帮助" transform="translate(17.000000, 102.000000)">
                        <rect id="Rectangle" fill="#000000" opacity="0" x="0" y="0" width="16" height="16"></rect>
                        <path d="M8,1 C4.134375,1 1,4.134375 1,8 C1,11.865625 4.134375,15 8,15 C11.865625,15 15,11.865625 15,8 C15,4.134375 11.865625,1 8,1 Z M8,14.125 C4.6234375,14.125 1.875,11.3765625 1.875,8 C1.875,4.6234375 4.6234375,1.875 8,1.875 C11.3765625,1.875 14.125,4.6234375 14.125,8 C14.125,11.3765625 11.3765625,14.125 8,14.125 Z M8,5.8125 C7.7578125,5.8125 7.5625,6.0078125 7.5625,6.25 L7.5625,11.9375 C7.5625,12.1796875 7.7578125,12.375 8,12.375 C8.2421875,12.375 8.4375,12.1796875 8.4375,11.9375 L8.4375,6.25 C8.4375,6.0078125 8.2421875,5.8125 8,5.8125 Z M7.5625,4.5 C7.5625,4.74162458 7.75837542,4.9375 8,4.9375 C8.24162458,4.9375 8.4375,4.74162458 8.4375,4.5 C8.4375,4.25837542 8.24162458,4.0625 8,4.0625 C7.75837542,4.0625 7.5625,4.25837542 7.5625,4.5 Z" id="Shape" fill="#ffffff" fill-rule="nonzero"></path>
                    </g>
                </g>
            </g>
        </g>
    </g>
</svg>