<?xml version="1.0" encoding="UTF-8"?>
<svg width="24px" height="20px" viewBox="0 0 24 20" version="1.1" xmlns="http://www.w3.org/2000/svg" xmlns:xlink="http://www.w3.org/1999/xlink">
    <!-- Generator: Sketch 63.1 (92452) - https://sketch.com -->
    <title>顶部</title>
    <desc>Created with Sketch.</desc>
    <defs>
        <linearGradient x1="134.732731%" y1="50%" x2="-37.4356107%" y2="50%" id="linearGradient-1">
            <stop stop-color="#7981FF" offset="0%"></stop>
            <stop stop-color="#2CAFFF" offset="100%"></stop>
        </linearGradient>
    </defs>
    <g id="顶部" stroke="none" stroke-width="1" fill="none" fill-rule="evenodd">
        <g fill="url(#linearGradient-1)" fill-rule="nonzero" id="形状结合">
            <path d="M12,0 C17.5228475,0 22,4.4771525 22,10 C22,15.5228475 17.5228475,20 12,20 C6.4771525,20 2,15.5228475 2,10 C2,4.4771525 6.4771525,0 12,0 Z M12.5051428,5.23180379 C12.0808659,4.87823971 11.4503012,4.93556378 11.0967371,5.35984067 L11.0967371,5.35984067 L8.23177872,8.79779074 C8.08201622,8.97750574 8,9.20403863 8,9.43797514 C8,9.99025989 8.44771525,10.4379751 9,10.4379751 L9,10.4379751 L10.864,10.437 L10.8649584,14.4379751 C10.8649584,14.9902599 11.3126736,15.4379751 11.8649584,15.4379751 C12.4172431,15.4379751 12.8649584,14.9902599 12.8649584,14.4379751 L12.8649584,14.4379751 L12.864,10.437 L14.7299168,10.4379751 C14.9638533,10.4379751 15.1903862,10.3559589 15.3701012,10.2061964 C15.7943781,9.85263234 15.8517021,9.22206764 15.4981381,8.79779074 L15.4981381,8.79779074 L12.6331797,5.35984067 C12.5944604,5.31337761 12.5516059,5.27052302 12.5051428,5.23180379 Z"></path>
        </g>
    </g>
</svg>