<?xml version="1.0" encoding="UTF-8"?>
<svg width="24px" height="20px" viewBox="0 0 24 20" version="1.1" xmlns="http://www.w3.org/2000/svg" xmlns:xlink="http://www.w3.org/1999/xlink">
    <!-- Generator: Sketch 63.1 (92452) - https://sketch.com -->
    <title>会员</title>
    <desc>Created with Sketch.</desc>
    <g id="会员" stroke="none" stroke-width="1" fill="none" fill-rule="evenodd">
        <g fill="#ffffff" fill-rule="nonzero" id="形状结合">
            <g transform="translate(1.000000, 0.000000)">
                <path d="M15.3616366,0 C16.0764401,0.0167718838 16.7488921,0.355683299 17.2040639,0.928571426 L17.2040639,0.928571426 L21.5076442,6.47142857 C22.2219767,7.44927918 22.1522288,8.82013624 21.3426507,9.71428572 L21.3426507,9.71428572 L12.8179869,19.2285714 C12.3846978,19.6976977 11.7933432,19.9741861 11.168052,20 L11.168052,20 L11.0855553,20 C10.4965509,19.9933223 9.92986672,19.7649139 9.49061818,19.3571429 L9.49061818,19.3571429 L9.36687306,19.2285714 L0.63596746,9.67142857 C-0.168136091,8.78447042 -0.215184785,7.41572702 0.525971809,6.47142857 L0.525971809,6.47142857 L4.82955203,0.928571426 C5.27489527,0.342834507 5.95354805,0.000797908666 6.67197936,0 L6.67197936,0 Z M16.4439376,6.02653743 C16.1830342,5.95103946 15.9059657,6.03931602 15.7200836,6.25716393 L15.7200836,6.25716393 L10.9972618,11.5000211 L6.27443994,6.25716393 C5.98019314,5.93216305 5.5063718,5.93216305 5.21212501,6.25716393 C4.92929166,6.58383432 4.92929166,7.10192212 5.21212501,7.42859251 L5.21212501,7.42859251 L10.4725038,13.2714497 C10.6116559,13.4268581 10.8004125,13.5142144 10.9972618,13.5143068 C11.194111,13.5142144 11.3828677,13.4268581 11.5220197,13.2714497 L11.5220197,13.2714497 L16.7695996,7.42859251 C16.9647757,7.2211182 17.0438651,6.91186522 16.9762244,6.62065505 C16.9085836,6.32944489 16.704841,6.1020354 16.4439376,6.02653743 Z"></path>
            </g>
        </g>
    </g>
</svg>