<?xml version="1.0" encoding="UTF-8"?>
<svg width="24px" height="20px" viewBox="0 0 24 20" version="1.1" xmlns="http://www.w3.org/2000/svg" xmlns:xlink="http://www.w3.org/1999/xlink">
    <!-- Generator: Sketch 63.1 (92452) - https://sketch.com -->
    <title>小程序</title>
    <desc>Created with Sketch.</desc>
    <g id="小程序" stroke="none" stroke-width="1" fill="none" fill-rule="evenodd">
        <g fill="#ffffff" fill-rule="nonzero" id="形状">
            <path d="M12,0 C6.47715709,0 2,4.47715709 2,10 C2,15.5228429 6.47715709,20 12,20 C17.5228429,20 22,15.5228429 22,10 C22,4.47715709 17.5228429,0 12,0 Z M15.5050302,10.8261007 C15.5050302,10.8261007 14.118416,10.9377757 14.4400301,9.76825161 C14.3940948,9.42427132 16.1294343,8.62657388 15.8997131,7.52581913 C15.5322082,6.21871185 13.3959037,5.83710558 12.8424521,7.47995063 L12.8424521,12.6772141 C12.8645732,13.4071224 11.4194595,15.8025316 8.42753714,14.7927787 C8.42753714,14.7927787 6.4302193,13.9408588 6.54080269,11.7953762 C6.62928722,10.8221577 7.54948629,9.63077979 8.5823628,9.23946072 C9.73090187,8.91844809 10.1527628,10.057163 9.64742967,10.5616718 C9.27990252,10.7451013 7.01697513,11.6894041 8.5823628,13.2061609 C9.4322777,14.0546501 10.8561614,13.5183964 11.1998521,12.7001818 C11.2457874,12.1268813 11.2449186,7.96158096 11.2449186,7.3882582 C11.2449186,6.81498 12.9499612,3.75123638 16.060509,5.49129858 C16.060509,5.4912763 19.5604377,7.53241314 15.5050302,10.8261007 L15.5050302,10.8261007 Z"></path>
        </g>
    </g>
</svg>