<?xml version="1.0" encoding="UTF-8"?>
<svg width="24px" height="24px" viewBox="0 0 24 24" version="1.1" xmlns="http://www.w3.org/2000/svg" xmlns:xlink="http://www.w3.org/1999/xlink">
    <!-- Generator: Sketch 55.2 (78181) - https://sketchapp.com -->
    <title>1</title>
    <desc>Created with Sketch.</desc>
    <g id="Page-1" stroke="none" stroke-width="1" fill="none" fill-rule="evenodd">
        <g id="控件状态" transform="translate(-107.000000, -1820.000000)" fill="#FAAD14">
            <g id="Alert/Large/Error" transform="translate(83.000000, 1804.000000)">
                <path d="M36,40 C29.371875,40 24,34.628125 24,28 C24,21.371875 29.371875,16 36,16 C42.628125,16 48,21.371875 48,28 C48,34.628125 42.628125,40 36,40 L36,40 L36,40 Z M36,25 C35.4820312,25 35.0625,25.4195312 35.0625,25.9375 L35.0625,34.5859375 C35.0625,35.1039063 35.4820312,35.5234375 36,35.5234375 C36.5179688,35.5234375 36.9375,35.1039063 36.9375,34.5859375 L36.9375,25.9375 C36.9375,25.4195312 36.5179688,25 36,25 L36,25 Z M34.9453125,22.4453125 C34.9453125,23.0278003 35.4175122,23.5 36,23.5 C36.5824878,23.5 37.0546875,23.0278003 37.0546875,22.4453125 C37.0546875,21.8628247 36.5824878,21.390625 36,21.390625 C35.4175122,21.390625 34.9453125,21.8628247 34.9453125,22.4453125 L34.9453125,22.4453125 Z" id="1" transform="translate(36.000000, 28.000000) scale(1, -1) translate(-36.000000, -28.000000) "></path>
            </g>
        </g>
    </g>
</svg>