<?xml version="1.0" encoding="UTF-8"?>
<svg width="22px" height="20px" viewBox="0 0 22 20" version="1.1" xmlns="http://www.w3.org/2000/svg" xmlns:xlink="http://www.w3.org/1999/xlink">
    <!-- Generator: Sketch 63.1 (92452) - https://sketch.com -->
    <title>客服</title>
    <desc>Created with Sketch.</desc>
    <g id="页面-1" stroke="none" stroke-width="1" fill="none" fill-rule="evenodd">
        <g id="首页" transform="translate(-1239.000000, -729.000000)" fill="#ffffff">
            <g id="浮动导航" transform="translate(1220.000000, 590.000000)">
                <g id="A&lt;v-1&gt;" transform="translate(0.000000, 4.000000)">
                    <g id="图标格子" transform="translate(0.000000, 122.000000)">
                        <g id="客服" transform="translate(18.000000, 13.000000)">
                            <g id="形状结合">
                                <g fill-rule="nonzero">
                                    <path d="M11.5533494,0.0179244 C15.9753456,0.0179244 19.6409606,3.25621936 20.3075203,7.49087571 C21.5029722,7.68926901 22.100813,8.48561553 22.100813,9.87980285 L22.100813,13.1475075 C22.100813,14.7731563 21.2879887,15.5859807 19.6623399,15.5859807 L19.6618376,15.5859807 C18.0361889,15.5859807 17.2233645,14.7731563 17.2233645,13.1475075 L17.2233645,9.87980285 C17.2233645,8.57847103 17.7442226,7.79799728 18.7859387,7.53838158 C18.1560989,4.11647927 15.1573482,1.52470492 11.5533494,1.52470492 C7.94935068,1.52470492 4.9506,4.11647927 4.31986673,7.53796014 C5.36247632,7.79799728 5.88333438,8.57847104 5.88333438,9.87980285 L5.88333438,13.1475075 C5.88333438,14.680059 5.16094153,15.4902177 3.71615583,15.5779835 L3.71557948,16.6718671 C3.71531294,16.9595958 3.82935713,17.2356457 4.03262361,17.4392889 C4.23589009,17.6429321 4.5117283,17.7574874 4.79945692,17.7577536 L4.79945692,17.7577536 L7.60215445,17.7573784 C7.82584276,17.1250021 8.42899046,16.6719487 9.1379803,16.6718671 L12.382581,16.6718671 C12.8146605,16.6717339 13.2290888,16.8432835 13.5346622,17.1487627 C13.8402357,17.454242 14.011913,17.8686173 14.011913,18.3006969 L14.011913,18.3011992 C14.0117798,18.7331917 13.8400437,19.147438 13.5344847,19.4528086 C13.2289256,19.7581792 12.8145735,19.9296598 12.382581,19.9295267 L9.1379803,19.9295267 C8.42860867,19.929445 7.8251932,19.4759036 7.60179341,18.8429936 L4.79945692,18.8436401 C4.22399967,18.8431075 3.67232325,18.6139971 3.26579029,18.2067106 C2.85925733,17.7994242 2.6311978,17.2473244 2.63170202,16.6718671 L2.63170202,16.6718671 L2.63055287,15.5036479 C1.54744153,15.2598235 1.00588586,14.4744433 1.00588586,13.1475075 L1.00588586,9.87980285 C1.00588586,8.48600258 1.60339476,7.68971122 2.79841257,7.49092876 C3.46573827,3.25662933 7.1313533,0.0179244 11.5533494,0.0179244 Z"></path>
                                </g>
                            </g>
                        </g>
                    </g>
                </g>
            </g>
        </g>
    </g>
</svg>