<?xml version="1.0" encoding="UTF-8"?>
<svg width="22px" height="20px" viewBox="0 0 22 20" version="1.1" xmlns="http://www.w3.org/2000/svg" xmlns:xlink="http://www.w3.org/1999/xlink">
    <title>形状结合</title>
    <defs>
        <linearGradient x1="50%" y1="-14.7229184%" x2="50%" y2="133.581105%" id="linearGradient-1">
            <stop stop-color="#F9D423" offset="0%"></stop>
            <stop stop-color="#F83600" offset="100%"></stop>
        </linearGradient>
    </defs>
    <g id="页面-1" stroke="none" stroke-width="1" fill="none" fill-rule="evenodd">
        <g id="浏览器支持情况说明" transform="translate(-1239.000000, -291.000000)" fill="url(#linearGradient-1)" fill-rule="nonzero">
            <g id="浮动导航" transform="translate(1220.000000, 213.000000)">
                <g id="A&lt;v-1&gt;" transform="translate(0.000000, 4.000000)">
                    <g id="图标格子" transform="translate(0.000000, 61.000000)">
                        <path d="M34.3616366,13 C35.0764401,13.0167719 35.7488921,13.3556833 36.2040639,13.9285714 L36.2040639,13.9285714 L40.5076442,19.4714286 C41.2219767,20.4492792 41.1522288,21.8201362 40.3426507,22.7142857 L40.3426507,22.7142857 L31.8179869,32.2285714 C31.3846978,32.6976977 30.7933432,32.9741861 30.168052,33 L30.168052,33 L30.0855553,33 C29.4965509,32.9933223 28.9298667,32.7649139 28.4906182,32.3571429 L28.4906182,32.3571429 L28.3668731,32.2285714 L19.6359675,22.6714286 C18.8318639,21.7844704 18.7848152,20.415727 19.5259718,19.4714286 L19.5259718,19.4714286 L23.829552,13.9285714 C24.2748953,13.3428345 24.953548,13.0007979 25.6719794,13 L25.6719794,13 Z M35.4439376,19.0265374 C35.1830342,18.9510395 34.9059657,19.039316 34.7200836,19.2571639 L34.7200836,19.2571639 L29.9972618,24.5000211 L25.2744399,19.2571639 C24.9801931,18.9321631 24.5063718,18.9321631 24.212125,19.2571639 C23.9292917,19.5838343 23.9292917,20.1019221 24.212125,20.4285925 L24.212125,20.4285925 L29.4725038,26.2714497 C29.6116559,26.4268581 29.8004125,26.5142144 29.9972618,26.5143068 C30.194111,26.5142144 30.3828677,26.4268581 30.5220197,26.2714497 L30.5220197,26.2714497 L35.7695996,20.4285925 C35.9647757,20.2211182 36.0438651,19.9118652 35.9762244,19.6206551 C35.9085836,19.3294449 35.704841,19.1020354 35.4439376,19.0265374 Z" id="形状结合"></path>
                    </g>
                </g>
            </g>
        </g>
    </g>
</svg>