<?xml version="1.0" encoding="UTF-8"?>
<svg width="24px" height="24px" viewBox="0 0 24 24" version="1.1" xmlns="http://www.w3.org/2000/svg" xmlns:xlink="http://www.w3.org/1999/xlink">
    <!-- Generator: Sketch 55.2 (78181) - https://sketchapp.com -->
    <title>2</title>
    <desc>Created with Sketch.</desc>
    <g id="Page-1" stroke="none" stroke-width="1" fill="none" fill-rule="evenodd">
        <g id="控件状态" transform="translate(-107.000000, -1736.000000)" fill="#52C41A">
            <g id="Alert/Large/Error" transform="translate(83.000000, 1720.000000)">
                <path d="M40.9054687,32.8375 L33.2296875,25.1382812 L31.228125,28.6421875 C30.9960938,29.0476563 30.4828125,29.1882813 30.0773437,28.95625 C29.671875,28.7242188 29.53125,28.2109375 29.7632812,27.8054688 L32.3132812,23.340625 C32.4679687,23.06875 32.7539062,22.9140625 33.046875,22.9140625 C33.1898437,22.9140625 33.3328125,22.9492188 33.4640625,23.0242187 C33.5390625,23.06875 33.6070312,23.1203125 33.6632812,23.18125 C33.665625,23.1835938 33.6703125,23.1882812 33.6726562,23.190625 L42.0984375,31.6421875 C42.4265625,31.9726563 42.4265625,32.5070313 42.0960937,32.8351563 C41.7679687,33.1679688 41.2359375,33.1679688 40.9054687,32.8375 L40.9054687,32.8375 Z M36,40 C29.371875,40 24,34.628125 24,28 C24,21.371875 29.371875,16 36,16 C42.628125,16 48,21.371875 48,28 C48,34.628125 42.628125,40 36,40 L36,40 Z" id="2" transform="translate(36.000000, 28.000000) scale(1, -1) translate(-36.000000, -28.000000) "></path>
            </g>
        </g>
    </g>
</svg>