<?xml version="1.0" encoding="UTF-8"?>
<svg width="14px" height="14px" viewBox="0 0 14 14" version="1.1" xmlns="http://www.w3.org/2000/svg" xmlns:xlink="http://www.w3.org/1999/xlink">
    <!-- Generator: Sketch 55 (78076) - https://sketchapp.com -->
    <title>iconfont-checkcircle</title>
    <desc>Created with Sketch.</desc>
    <g id="Page-1" stroke="none" stroke-width="1" fill="none" fill-rule="evenodd">
        <g id="模板中心-菜单收起" transform="translate(-563.000000, -64.000000)" fill="#87D068">
            <g id="消息提示Message-浮出主动消失型消息提醒-绿色icon-&lt;8-16-8-17&gt;" transform="translate(546.000000, 54.000000)">
                <g id="间距-&lt;h9-&gt;" transform="translate(17.000000, 8.000000)">
                    <path d="M7.00340587,2 C3.13543521,2 0,5.13160684 0,8.9948547 C0,12.8581026 3.13543521,15.9897094 7.00340587,15.9897094 C10.8713765,15.9897094 14.0068117,12.8581026 14.0068117,8.9948547 C14.0068117,5.13160684 10.8713765,2 7.00340587,2 L7.00340587,2 Z M11.2369511,7.14049573 L5.54930562,12.6694017 C5.37815648,12.8403419 5.1002445,12.8403419 4.92909535,12.6694017 L2.7561687,10.5948889 C2.58501956,10.4239487 2.58501956,10.1463077 2.7561687,9.97536752 C2.92731785,9.80442735 3.20529829,9.80442735 3.37644743,9.97536752 L5.2399022,11.7408547 L10.6167237,6.52102564 C10.7878729,6.35008547 11.065802,6.35008547 11.2369511,6.52102564 C11.4081002,6.69196581 11.4081002,6.96955556 11.2369511,7.14049573 L11.2369511,7.14049573 Z" id="iconfont-checkcircle"></path>
                </g>
            </g>
        </g>
    </g>
</svg>