<?xml version="1.0" encoding="UTF-8"?>
<svg width="24px" height="24px" viewBox="0 0 24 24" version="1.1" xmlns="http://www.w3.org/2000/svg" xmlns:xlink="http://www.w3.org/1999/xlink">
    <!-- Generator: Sketch 55.2 (78181) - https://sketchapp.com -->
    <title>3</title>
    <desc>Created with Sketch.</desc>
    <g id="Page-1" stroke="none" stroke-width="1" fill="none" fill-rule="evenodd">
        <g id="控件状态" transform="translate(-107.000000, -1656.000000)" fill="#1890FF">
            <g id="Alert/Large/Error" transform="translate(83.000000, 1640.000000)">
                <path d="M36,40 C29.371875,40 24,34.628125 24,28 C24,21.371875 29.371875,16 36,16 C42.628125,16 48,21.371875 48,28 C48,34.628125 42.628125,40 36,40 L36,40 Z M38.7703125,23.4625 L36.7734375,23.4625 L36.7734375,31.6679688 C36.7734375,32.134375 36.3960937,32.5117188 35.9296875,32.5117188 L35.9296875,32.5117188 L35.0859375,32.5117188 L33.6796875,32.5117188 C33.2132813,32.5117188 32.8359375,32.134375 32.8359375,31.6679688 L32.8359375,31.6679688 C32.8359375,31.2015625 33.2132813,30.8242188 33.6796875,30.8242188 L35.0859375,30.8242188 L35.0859375,23.4625 L33.0890625,23.4625 C32.6226563,23.4625 32.2453125,23.0851562 32.2453125,22.61875 L32.2453125,22.61875 C32.2453125,22.1523438 32.6226563,21.775 33.0890625,21.775 L35.0859375,21.775 L36.7734375,21.775 L38.7703125,21.775 C39.2367188,21.775 39.6140625,22.1523438 39.6140625,22.61875 L39.6140625,22.61875 C39.6140625,23.0851563 39.2367188,23.4625 38.7703125,23.4625 L38.7703125,23.4625 Z M35.0859375,34.8320312 C35.0859375,35.2980215 35.4636972,35.6757812 35.9296875,35.6757812 C36.3956778,35.6757812 36.7734375,35.2980215 36.7734375,34.8320312 C36.7734375,34.366041 36.3956778,33.9882812 35.9296875,33.9882812 C35.4636972,33.9882812 35.0859375,34.366041 35.0859375,34.8320312 L35.0859375,34.8320312 Z" id="3" transform="translate(36.000000, 28.000000) scale(1, -1) translate(-36.000000, -28.000000) "></path>
            </g>
        </g>
    </g>
</svg>