<?xml version="1.0" encoding="UTF-8"?>
<svg width="24px" height="24px" viewBox="0 0 24 24" version="1.1" xmlns="http://www.w3.org/2000/svg" xmlns:xlink="http://www.w3.org/1999/xlink">
    <!-- Generator: Sketch 55.2 (78181) - https://sketchapp.com -->
    <title>4</title>
    <desc>Created with Sketch.</desc>
    <g id="Page-1" stroke="none" stroke-width="1" fill="none" fill-rule="evenodd">
        <g id="控件状态" transform="translate(-107.000000, -1576.000000)" fill="#F5222D">
            <g id="Alert/Large/Error" transform="translate(83.000000, 1560.000000)">
                <path d="M39.6164062,32.8210937 L36,29.1953125 L32.3835937,32.8210938 C32.0554687,33.1515625 31.5210937,33.1515625 31.190625,32.8234375 C30.8601562,32.4953125 30.8601562,31.9609375 31.1882812,31.6304687 L34.809375,28 L31.1882812,24.3695313 C30.8601562,24.0390625 30.8601562,23.5046875 31.190625,23.1765625 C31.3546875,23.0125 31.5703125,22.9304687 31.7859375,22.9304687 C32.0015625,22.9304687 32.2195312,23.0125 32.3835937,23.1789062 L36,26.8046875 L39.6164062,23.1765625 C39.7804687,23.0101563 39.9984375,22.928125 40.2140625,22.928125 C40.4296875,22.928125 40.6453125,23.0101563 40.809375,23.1742188 C41.1398437,23.5023438 41.1398437,24.0367187 40.8117187,24.3671875 L37.190625,28 L40.809375,31.6304687 C41.1398437,31.9609375 41.1398437,32.4953125 40.809375,32.8234375 C40.4789062,33.1515625 39.9445312,33.1515625 39.6164062,32.8210937 Z M24,28 C24,21.371875 29.371875,16 36,16 C42.628125,16 48,21.371875 48,28 C48,34.628125 42.628125,40 36,40 C29.371875,40 24,34.628125 24,28 Z" id="4" transform="translate(36.000000, 28.000000) scale(1, -1) translate(-36.000000, -28.000000) "></path>
            </g>
        </g>
    </g>
</svg>