<?xml version="1.0" encoding="UTF-8"?>
<svg width="50px" height="18px" viewBox="0 0 50 18" version="1.1" xmlns="http://www.w3.org/2000/svg" xmlns:xlink="http://www.w3.org/1999/xlink">
    <title>企业会员</title>
    <defs>
        <linearGradient x1="50%" y1="3.061617e-15%" x2="50%" y2="100%" id="linearGradient-1">
            <stop stop-color="#FCAA53" offset="0%"></stop>
            <stop stop-color="#E7681D" offset="100%"></stop>
        </linearGradient>
        <path d="M5.56,8.26 C7.3,7.33 8.69,6.23 9.74,4.97 C10.88,6.32 12.26,7.41 13.88,8.25 L14.45,7.23 C12.81,6.45 11.37,5.39 10.12,4.03 L9.36,4.03 C8.2,5.31 6.75,6.38 5,7.24 L5.56,8.26 Z M13.89,12.94 L13.89,11.92 L10.55,11.92 L10.55,9.84 L13.16,9.84 L13.16,8.83 L10.55,8.83 L10.55,6.74 L9.5,6.74 L9.5,11.92 L7.92,11.92 L7.92,8.18 L6.89,8.18 L6.89,11.92 L5.47,11.92 L5.47,12.94 L13.89,12.94 Z M24.21,12.94 L24.21,11.92 L21.33,11.92 L21.33,4.09 L20.28,4.09 L20.28,11.92 L19.18,11.92 L19.18,4.09 L18.13,4.09 L18.13,11.92 L15.27,11.92 L15.27,12.94 L24.21,12.94 Z M16.73,10.76 L17.68,10.53 C17.29,8.81 16.84,7.28 16.34,5.95 L15.45,6.25 C15.97,7.7 16.39,9.2 16.73,10.76 Z M22.58,10.73 C23.16,9.45 23.64,7.95 24.02,6.24 L23.1,5.98 C22.68,7.76 22.2,9.24 21.64,10.4 L22.58,10.73 Z M25.56,8.26 C26.16,7.93 26.73,7.58 27.26,7.21 L27.26,7.97 L32.25,7.97 L32.25,7.25 C32.76,7.61 33.3,7.95 33.88,8.25 L34.45,7.23 C32.81,6.45 31.37,5.37 30.12,4 L29.36,4 C28.2,5.3 26.75,6.38 25,7.24 L25.56,8.26 Z M31.91,6.99 L27.56,6.99 C28.4,6.37 29.12,5.68 29.74,4.94 C30.37,5.7 31.09,6.38 31.91,6.99 Z M32.76,13.27 L33.63,12.66 C33.13,11.94 32.43,11.08 31.52,10.1 L30.71,10.61 C31.04,10.99 31.35,11.36 31.64,11.72 C30.36,11.87 29.04,11.98 27.69,12.06 C28.25,11.48 28.74,10.79 29.16,10.01 L33.81,10.01 L33.81,8.99 L25.69,8.99 L25.69,10.01 L27.95,10.01 C27.6,10.65 27.18,11.27 26.68,11.86 C26.57,11.98 26.39,12.08 26.14,12.14 L26.42,13.05 C28.74,12.91 30.67,12.72 32.22,12.48 C32.41,12.74 32.59,13.01 32.76,13.27 Z M42.63,7.03 L42.63,4.3 L36.86,4.3 L36.86,7.03 L42.63,7.03 Z M41.62,6.13 L37.87,6.13 L37.87,5.22 L41.62,5.22 L41.62,6.13 Z M37.31,11.56 L37.31,8.54 L42.18,8.54 L42.18,11.4 L43.22,11.4 L43.22,7.59 L36.27,7.59 L36.27,11.56 L37.31,11.56 Z M35.75,13.33 C37.71,13.15 38.93,12.74 39.43,12.12 C39.91,11.63 40.22,10.63 40.36,9.11 L39.3,9.01 C39.23,10.19 38.97,11.03 38.52,11.51 C38,12.01 36.94,12.3 35.34,12.38 L35.75,13.33 Z M43.55,13.34 L44.11,12.47 C43.03,11.99 41.85,11.59 40.56,11.25 L40.04,12.02 C41.24,12.34 42.41,12.78 43.55,13.34 Z" id="path-2"></path>
        <filter x="-8.9%" y="-26.8%" width="117.9%" height="174.9%" filterUnits="objectBoundingBox" id="filter-3">
            <feOffset dx="0" dy="1" in="SourceAlpha" result="shadowOffsetOuter1"></feOffset>
            <feGaussianBlur stdDeviation="1" in="shadowOffsetOuter1" result="shadowBlurOuter1"></feGaussianBlur>
            <feColorMatrix values="0 0 0 0 0.590551404   0 0 0 0 0.244075915   0 0 0 0 0.0506942469  0 0 0 1 0" type="matrix" in="shadowBlurOuter1"></feColorMatrix>
        </filter>
    </defs>
    <g id="页面-1" stroke="none" stroke-width="1" fill="none" fill-rule="evenodd">
        <g id="导出mov" transform="translate(-1218.000000, -144.000000)">
            <g id="企业会员" transform="translate(1218.000000, 144.000000)">
                <rect id="矩形" fill="url(#linearGradient-1)" x="0" y="0" width="50" height="18" rx="9"></rect>
                <g fill-rule="nonzero">
                    <use fill="black" fill-opacity="1" filter="url(#filter-3)" xlink:href="#path-2"></use>
                    <use fill="#FFFFFF" xlink:href="#path-2"></use>
                </g>
            </g>
        </g>
    </g>
</svg>