<?xml version="1.0" encoding="UTF-8"?>
<svg width="24px" height="20px" viewBox="0 0 24 20" version="1.1" xmlns="http://www.w3.org/2000/svg" xmlns:xlink="http://www.w3.org/1999/xlink">
    <!-- Generator: Sketch 63.1 (92452) - https://sketch.com -->
    <title>帮助</title>
    <desc>Created with Sketch.</desc>
    <g id="帮助" stroke="none" stroke-width="1" fill="none" fill-rule="evenodd">
        <g fill="#323B47" fill-rule="nonzero" id="形状">
            <path d="M12.0001587,0.0144444531 C6.48507936,0.0144444531 2.01396826,4.48539682 2.01396826,10 C2.01396826,15.5146032 6.48507938,19.9855555 12.0001587,19.9855555 C17.5152381,19.9855555 21.9860317,15.5146032 21.9860317,10 C21.9860317,4.48539682 17.5152381,0.0144444531 12.0001587,0.0144444531 L12.0001587,0.0144444531 Z M11.6788889,16.0349206 C11.0393651,16.0349206 10.5214286,15.5069841 10.5214286,14.8542857 C10.5214286,14.2020635 11.0393651,13.6749206 11.6788889,13.6749206 C12.318254,13.6749206 12.8373016,14.2019048 12.8373016,14.8542857 C12.8373016,15.5066667 12.318254,16.0349206 11.6788889,16.0349206 L11.6788889,16.0349206 Z M14.9126984,8.61920635 C14.7526984,8.92301588 14.5639683,9.18603174 14.3431746,9.40730158 C14.1233333,9.62873016 13.7293651,10.0011111 13.1595238,10.5246032 C13.0026984,10.6719047 12.8761905,10.8011111 12.781746,10.9134921 C12.6861905,11.0257143 12.6155556,11.1273016 12.57,11.2209524 C12.5230159,11.3123809 12.4873016,11.4057143 12.4625397,11.4984127 C12.4365079,11.591746 12.3990476,11.7547619 12.3480952,11.987619 C12.2593651,12.4826984 11.984127,12.7306349 11.5206349,12.7306349 C11.2807937,12.7306349 11.0780952,12.6488889 10.9139683,12.4879365 C10.7490476,12.3250793 10.6674603,12.0852381 10.6674603,11.7660317 C10.6674603,11.3669841 10.7271429,11.0201587 10.8476191,10.7282539 C10.9677778,10.4353968 11.1280953,10.1782539 11.3268254,9.95714283 C11.5255556,9.73619045 11.7942857,9.4733333 12.1322222,9.16793648 C12.4285714,8.90253967 12.642381,8.70126982 12.7736508,8.56587299 C12.9069841,8.42968252 13.0173016,8.27888887 13.1079365,8.11253965 C13.1979365,7.94587299 13.2430159,7.76507934 13.2430159,7.56999996 C13.2430159,7.18920631 13.105873,6.86841266 12.8301587,6.60698408 C12.5549206,6.34507932 12.1985714,6.21365074 11.7644445,6.21365074 C11.2550794,6.21365074 10.8803175,6.34587297 10.6395238,6.60999994 C10.3988889,6.87428566 10.1949206,7.26317455 10.0279365,7.77730152 C9.87095238,8.31428564 9.57253969,8.58333326 9.13285715,8.58333326 C8.87333334,8.58333326 8.65444445,8.48920627 8.47666668,8.30126977 C8.29841271,8.11333326 8.21000002,7.90999992 8.21000002,7.69126977 C8.21000002,7.23920627 8.35015875,6.7814285 8.63253971,6.31746023 C8.91507939,5.85349197 9.3266667,5.46920627 9.86857145,5.16444436 C10.4095238,4.8599999 11.0420635,4.70793643 11.764127,4.70793643 C12.4353968,4.70793643 13.0276191,4.83523801 13.5407937,5.08920627 C14.0547619,5.34380945 14.4515873,5.69031738 14.7314286,6.12793643 C15.0119048,6.56603166 15.1519057,7.04238088 15.1519057,7.55539674 C15.1522222,7.95952381 15.0725397,8.31460318 14.9126984,8.61920635 L14.9126984,8.61920635 Z"></path>
        </g>
    </g>
</svg>