<?xml version="1.0" encoding="UTF-8"?>
<svg width="35px" height="30px" viewBox="0 0 35 30" version="1.1" xmlns="http://www.w3.org/2000/svg" xmlns:xlink="http://www.w3.org/1999/xlink">
    <title>红包</title>
    <g id="页面-1" stroke="none" stroke-width="1" fill="none" fill-rule="evenodd">
        <g id="邀请好友首页红包" transform="translate(-1234.000000, -223.000000)" fill-rule="nonzero">
            <g id="浮动导航" transform="translate(1220.000000, 213.000000)">
                <g id="红包" transform="translate(14.000000, 10.000000)">
                    <path d="M1.41066681,7.1163483 C1.41066681,7.1163483 1.49399419,7.10757699 1.53785071,7.16020479 C1.58170724,7.21721827 1.63872071,7.98909304 1.84046072,8.19960435 C2.04220072,8.41011566 2.86231765,8.29170304 2.86231765,8.56799914 C2.86231765,8.78728174 2.10359984,8.81359567 1.84484636,9.02410695 C1.58609288,9.23461827 1.73520505,10.1292913 1.41943812,10.0942061 C1.17384159,10.0678922 1.34488202,9.35741653 1.04227202,9.07234912 C0.739662014,8.78728174 0.00287248873,8.84429521 0.00287248873,8.58554173 C0.00287248873,8.32678825 0.757204664,8.48467173 1.01595811,8.19083304 C1.27032592,7.90137999 1.16068464,7.11634827 1.41066681,7.1163483 L1.41066681,7.1163483 Z" id="路径" fill="#FFBB5A"></path>
                    <path d="M29.0402752,0.879950982 C29.0402752,0.879950982 29.0972886,0.875565341 29.1279882,0.910650526 C29.1586878,0.945735741 29.1981586,1.46762834 29.3341139,1.61235487 C29.4700691,1.75708139 30.0226612,1.67375398 30.0226612,1.86233703 C30.0226612,2.0114492 29.5095399,2.02899182 29.3341139,2.16933271 C29.1586878,2.31405923 29.2595578,2.91489357 29.0446608,2.89296531 C28.878006,2.87542269 28.9964186,2.39738661 28.790293,2.20441792 C28.5841673,2.01144923 28.0885887,2.05092008 28.0885887,1.87549401 C28.0885887,1.70006794 28.5973243,1.80532359 28.7727504,1.60796922 C28.9481764,1.41061486 28.8736204,0.879950982 29.0402752,0.879950982 Z" id="路径" fill="#E94151"></path>
                    <path d="M33.3382142,10.4450583 C33.3382142,10.4450583 33.4215416,10.4362869 33.4697838,10.4933004 C33.518026,10.5503139 33.5706538,11.3353456 33.7767794,11.5502426 C33.9829051,11.7651395 34.8117933,11.6423413 34.8117933,11.923023 C34.8117933,12.1466913 34.0399186,12.1730052 33.7767794,12.3879021 C33.5136403,12.6027991 33.6627525,13.5106291 33.3425999,13.4755438 C33.0926177,13.4492299 33.2680438,12.729983 32.9610481,12.44053 C32.6540525,12.1510769 31.904106,12.2080904 31.904106,11.9449513 C31.904106,11.6818121 32.6715951,11.8440813 32.9303486,11.5414713 C33.1978734,11.2388613 33.088232,10.4450582 33.3382142,10.4450583 L33.3382142,10.4450583 Z" id="路径" fill="#FF0000"></path>
                    <path d="M4.82270414,0.879950982 C4.82270414,1.35798706 5.21302717,1.74831008 5.69106327,1.74831008 C6.16909938,1.74831008 6.5594224,1.35798706 6.5594224,0.879950982 C6.5594224,0.401914908 6.16909935,0.0115918542 5.69106327,0.0115918542 C5.20864153,0.0115918542 4.82270414,0.401914879 4.82270414,0.879950982 M28.1982299,8.60747 C28.1982299,9.08112043 28.5841673,9.46267217 29.0534321,9.46267217 C29.5270825,9.46267217 29.9130199,9.07673479 29.9130199,8.60747 C29.9130199,8.13381956 29.5270825,7.74788218 29.0534321,7.74788218 C28.5797817,7.75226782 28.1982299,8.13381956 28.1982299,8.60747" id="形状" fill="#FFEB00"></path>
                    <path d="M5.26565503,8.08996307 C5.26565503,11.3923591 10.1907424,14.0676069 16.2648705,14.0676069 C22.3389987,14.0676069 27.2640861,11.3923591 27.2640861,8.08996307 C27.2640861,4.78756701 22.3433844,2.11670487 16.2692562,2.11670487 C10.1907424,2.11670487 5.26565503,4.79195265 5.26565503,8.08996307 Z" id="路径" fill="#DB1818"></path>
                    <path d="M18.2910418,9.11620564 C18.2910418,11.3221887 20.0803879,13.1071491 22.2819852,13.1071491 C24.4879683,13.1071491 26.2729287,11.317803 26.2729287,9.11620564 C26.2729287,6.91460827 24.4835826,5.12526223 22.2819852,5.12526223 C20.0760022,5.12526223 18.2910418,6.91022265 18.2910418,9.11620564" id="路径" fill="#F4AD51"></path>
                    <path d="M18.9401183,9.11620564 C18.9401183,10.309103 19.5760379,11.4142874 20.6110518,12.0107361 C21.6460657,12.6071847 22.9179048,12.6071847 23.9529187,12.0107361 C24.9879326,11.4142874 25.6238522,10.309103 25.6238522,9.11620564 C25.6238522,7.92330828 24.9879326,6.81812393 23.9529187,6.22167527 C22.9188035,5.62522339 21.645167,5.62522339 20.6110518,6.22167527 C19.5760379,6.81812396 18.9401183,7.92330828 18.9401183,9.11620564" id="路径" fill="#F4E476"></path>
                    <path d="M23.6108378,9.55477086 L22.6152948,9.55477086 L22.6152948,8.86183783 L23.6108378,8.86183783 C23.7950352,8.86183783 23.9397617,8.71272567 23.9397617,8.53291393 C23.9397617,8.34871655 23.7906496,8.20399002 23.6108378,8.20399002 L23.0407031,8.20399002 L23.4047122,7.57684175 C23.4924252,7.41895827 23.4354118,7.22160394 23.2819139,7.13389089 C23.1284161,7.04617784 22.9266761,7.09442003 22.8345774,7.24791784 L22.2819852,8.19083304 L21.7381644,7.2435322 C21.6460657,7.09003436 21.4443257,7.03740656 21.2908279,7.12950525 C21.13733,7.2172183 21.0803165,7.41457263 21.1680296,7.57245611 L21.5276531,8.19960435 L20.9575183,8.19960435 C20.7733209,8.19960435 20.6285944,8.34871652 20.6285944,8.52852826 C20.6285944,8.71272564 20.7777066,8.85745216 20.9575183,8.85745216 L21.9530613,8.85745216 L21.9530613,9.55038522 L20.9575183,9.55038522 C20.7733209,9.55038522 20.6285944,9.69949739 20.6285944,9.87930913 C20.6285944,10.0635065 20.7777066,10.208233 20.9575183,10.208233 L21.9530613,10.208233 L21.9530613,10.813453 C21.9530613,10.9976504 22.1021735,11.1423769 22.2819852,11.1423769 C22.4661826,11.1423769 22.6109092,10.9932648 22.6109092,10.813453 L22.6109092,10.208233 L23.6064522,10.208233 C23.7248648,10.208233 23.8345061,10.1468339 23.8915196,10.0415782 C23.948533,9.94070825 23.948533,9.81352434 23.8915196,9.71265434 C23.8345061,9.62055565 23.7292505,9.55477086 23.6108378,9.55477086 Z M6.26119804,9.11620564 C6.26119804,11.3221887 8.0505441,13.1071491 10.2521415,13.1071491 C12.4581245,13.1071491 14.2430849,11.317803 14.2430849,9.11620564 C14.2430849,6.91460827 12.4537389,5.12526223 10.2521415,5.12526223 C8.0505441,5.12526223 6.26119804,6.91022265 6.26119804,9.11620564" id="形状" fill="#F4AD51"></path>
                    <path d="M6.91027457,9.11620564 C6.91027457,10.309103 7.54619412,11.4142874 8.58120801,12.0107361 C9.6162219,12.6071847 10.888061,12.6071847 11.9230749,12.0107361 C12.9580889,11.4142874 13.5940084,10.309103 13.5940084,9.11620564 C13.5940084,7.2698461 12.098501,5.77433874 10.2521415,5.77433874 C8.40578194,5.77433874 6.91027457,7.2698461 6.91027457,9.11620564" id="路径" fill="#F4E476"></path>
                    <path d="M11.5809941,9.55477086 L10.585451,9.55477086 L10.585451,8.86183783 L11.5809941,8.86183783 C11.7651914,8.86183783 11.909918,8.71272567 11.909918,8.53291393 C11.909918,8.34871655 11.7608058,8.20399002 11.5809941,8.20399002 L11.0108593,8.20399002 L11.3748684,7.57684175 C11.4625815,7.41895827 11.405568,7.22160394 11.2520702,7.13389089 C11.0985723,7.04617784 10.8968323,7.09442003 10.8047336,7.24791784 L10.2609128,8.19521871 L9.71709193,7.24791784 C9.62499324,7.09442001 9.42325323,7.0417922 9.2697554,7.13389089 C9.11625756,7.22160394 9.05924408,7.41895827 9.14695713,7.57684175 L9.51096628,8.20399002 L8.94083149,8.20399002 C8.75663411,8.20399002 8.61190758,8.35310219 8.61190758,8.53291393 C8.61190758,8.71711131 8.76101975,8.86183783 8.94083149,8.86183783 L9.93637452,8.86183783 L9.93637452,9.55477086 L8.94083149,9.55477086 C8.75663411,9.55477086 8.61190758,9.70388303 8.61190758,9.88369477 C8.61190758,10.0678922 8.76101975,10.2126187 8.94083149,10.2126187 L9.93637452,10.2126187 L9.93637452,10.8178387 C9.93637452,11.0020361 10.0854867,11.1467626 10.2652984,11.1467626 C10.4494958,11.1467626 10.5942223,10.9976504 10.5942223,10.8178387 L10.5942223,10.2126187 L11.5809941,10.2126187 C11.6994067,10.2126187 11.809048,10.1512196 11.8660615,10.0459639 C11.9230749,9.94509389 11.9230749,9.81790998 11.8660615,9.71703998 C11.809048,9.62055562 11.6994067,9.55477086 11.5809941,9.55477086 L11.5809941,9.55477086 Z" id="路径" fill="#F4AD51"></path>
                    <path d="M10.5898367,7.43211522 C10.5898367,10.5678565 13.1335149,13.1071491 16.2692562,13.1071491 C19.4049975,13.1071491 21.9486757,10.5678565 21.9486757,7.43211522 C21.9486757,4.29637393 19.4049974,1.75708139 16.2692562,1.75708139 C13.133515,1.75708139 10.5898367,4.29637396 10.5898367,7.43211522 Z" id="路径" fill="#FFBB5A"></path>
                    <path d="M11.5152093,7.43211522 C11.5152093,9.1293626 12.4230393,10.6994261 13.8922327,11.5458569 C15.3614262,12.3966734 17.1727005,12.3966734 18.6462796,11.5458569 C20.1154731,10.6950404 21.0233031,9.12936262 21.0233031,7.43211522 C21.0233031,4.80949525 18.8962618,2.67806836 16.2692562,2.67806836 C13.6422506,2.67806836 11.5152093,4.80510964 11.5152093,7.43211522" id="路径" fill="#FFF48D"></path>
                    <path d="M18.1550866,8.05926349 L16.738521,8.05926349 L16.738521,7.07249177 L18.1550866,7.07249177 C18.4138401,7.07249177 18.6243514,6.86198046 18.6243514,6.60322698 C18.6243514,6.3444735 18.4138401,6.13396222 18.1550866,6.13396222 L17.3437409,6.13396222 L17.8568623,5.24367483 C17.9752749,5.02000656 17.8963331,4.74371049 17.6770505,4.61652658 C17.4577679,4.48934268 17.1770862,4.55951311 17.0455166,4.77441006 L16.2692562,6.12080526 L15.4929958,4.77441006 C15.4096684,4.62968354 15.2561705,4.53758485 15.0851301,4.53758485 C14.9184753,4.53758485 14.7605918,4.6252979 14.6772645,4.77441006 C14.5939371,4.91913659 14.5939371,5.09894833 14.6772645,5.24367483 L15.1903858,6.13396222 L14.3790401,6.13396222 C14.1202867,6.13396222 13.9097753,6.34447353 13.9097753,6.60322698 C13.9097753,6.86198046 14.1202867,7.07249174 14.3790401,7.07249177 L15.7956058,7.07249177 L15.7956058,8.05926349 L14.3790401,8.05926349 C14.1202867,8.05926349 13.9097753,8.26977481 13.9097753,8.52852826 C13.9097753,8.78728174 14.1202867,8.99779302 14.3790401,8.99779305 L15.7956058,8.99779305 L15.7956058,9.85738087 C15.7956058,10.1161343 16.0061171,10.3266456 16.2648705,10.3266456 C16.523624,10.3266456 16.7341353,10.1161343 16.7341353,9.85738087 L16.7341353,8.99779305 L18.1507009,8.99779305 C18.3173557,8.99779305 18.4752392,8.91008 18.5585666,8.76096783 C18.641894,8.61624131 18.641894,8.43642957 18.5585666,8.29170304 C18.4796249,8.14697651 18.3217414,8.05926346 18.1550866,8.05926349 L18.1550866,8.05926349 Z" id="路径" fill="#FFBB5A"></path>
                    <path d="M16.2955701,10.2477039 C11.8178193,10.2477039 7.84003281,9.25216086 5.29635458,7.70841132 L5.29635458,27.2815767 C5.29635458,28.513945 6.29628325,29.5138736 7.5286515,29.5138736 L25.0624887,29.5138736 C26.2948569,29.5138736 27.2947856,28.513945 27.2947856,27.2815767 L27.2947856,7.70402565 C24.7511074,9.25216086 20.7733209,10.2477039 16.2955701,10.2477039 L16.2955701,10.2477039 Z" id="路径" fill="#FF4545"></path>
                    <path d="M15.0281166,22.8345255 L12.2476132,22.8345255 L12.2476132,21.5933859 L15.0281166,21.5933859 L15.0281166,20.7294125 L12.2476132,20.7294125 L12.2476132,19.4882729 L14.4974527,19.4882729 L11.1555858,14.1553199 L14.1816858,14.1553199 L15.2780988,16.5761999 C15.8263053,17.7734829 15.9534892,18.0892499 16.2999557,18.8523533 L16.3876688,18.8523533 C16.7472923,18.0892499 16.9051757,17.7120838 17.4095257,16.5761999 L18.4752392,14.1553199 L21.4443257,14.1553199 L18.1024588,19.4882729 L20.3522983,19.4882729 L20.3522983,20.7294125 L17.5981088,20.7294125 L17.5981088,21.5933859 L20.3522983,21.5933859 L20.3522983,22.8345255 L17.5981088,22.8345255 L17.5981088,24.9396385 L15.0325023,24.9396385 L15.0325023,22.8345255 L15.0281166,22.8345255 Z" id="路径" fill="#FFFFFF"></path>
                </g>
            </g>
        </g>
    </g>
</svg>