<?xml version="1.0" encoding="UTF-8"?>
<svg width="16px" height="16px" viewBox="0 0 16 16" version="1.1" xmlns="http://www.w3.org/2000/svg" xmlns:xlink="http://www.w3.org/1999/xlink">
    <!-- Generator: Sketch 53 (72520) - https://sketchapp.com -->
    <title>Combined Shape</title>
    <desc>Created with Sketch.</desc>
    <g id="Page-1" stroke="none" stroke-width="1" fill="none" fill-rule="evenodd">
        <g id="图表3" transform="translate(-18.000000, -776.000000)" fill="#FFFFFF" fill-rule="nonzero">
            <g id="左一块" transform="translate(0.000000, 37.000000)">
                <g id="帮助" transform="translate(14.000000, 738.000000)">
                    <g transform="translate(3.000000, 0.000000)" id="Combined-Shape">
                        <path d="M15.4998,13.29606 C15.99795,14.46057 16.25733,15.20253 16.31583,15.62913 C16.3746,16.0596 16.22943,16.18146 16.08912,16.29945 L16.02522,16.35291 L15.94908,16.38702 C15.75288,16.47612 15.42483,16.62471 12.91302,15.67215 C11.72799,16.34571 10.37556,16.70148 9.00018,16.70148 C4.68261,16.70148 1.17,13.24674 1.17,9 C1.17,4.75326 4.68261,1.29852 9.00018,1.29852 C13.31775,1.29852 16.83,4.75326 16.83,9 C16.83,10.54161 16.37019,12.02607 15.4998,13.29606 Z M6.70329,7.79958 L6.70329,7.79967 L7.60302,7.79967 C7.60302,6.65541 8.08515,6.08328 9.04986,6.08328 C9.47763,6.08328 9.80397,6.2046 10.02879,6.44706 C10.25361,6.68988 10.36611,6.96852 10.36611,7.2837 C10.36611,7.59861 10.31697,7.83594 10.21923,7.99515 C10.12149,8.15454 9.90189,8.40987 9.56106,8.76096 C9.22032,9.11232 8.98461,9.37845 8.85411,9.55953 C8.72343,9.74043 8.6256,9.95247 8.56035,10.19502 C8.49492,10.43757 8.46234,10.51146 8.46234,10.64916 L9.41985,10.64916 C9.41985,10.54044 9.43965,10.54269 9.50139,10.33614 C9.56277,10.12959 9.65367,9.95238 9.77328,9.80379 C9.89298,9.65556 10.13598,9.40572 10.5021,9.05436 C10.86831,8.70309 11.02716,8.40987 11.13966,8.17434 C11.25198,7.93917 11.2968,7.67664 11.2968,7.38675 C11.2968,6.76944 11.12706,6.23367 10.719,5.87322 C10.28034,5.48586 9.74241,5.25762 9.08262,5.25762 C8.75619,5.25762 8.44614,5.30838 8.15238,5.40963 C7.8588,5.51115 7.59213,5.66856 7.35273,5.88213 C7.11351,6.09588 6.96258,6.33843 6.85368,6.61005 C6.74487,6.88158 6.71787,7.27812 6.70329,7.79958 Z M9.4383,12.74238 L9.4383,11.6343 L8.44065,11.6343 L8.44065,12.74238 L9.4383,12.74238 Z"></path>
                    </g>
                </g>
            </g>
        </g>
    </g>
</svg>