<?xml version="1.0" encoding="UTF-8"?>
<svg width="28px" height="28px" viewBox="0 0 28 28" version="1.1" xmlns="http://www.w3.org/2000/svg" xmlns:xlink="http://www.w3.org/1999/xlink">
    <!-- Generator: Sketch 52.6 (67491) - http://www.bohemiancoding.com/sketch -->
    <title>Combined Shape</title>
    <desc>Created with Sketch.</desc>
    <defs>
        <linearGradient x1="50%" y1="0%" x2="50%" y2="100%" id="linearGradient-1">
            <stop stop-color="#00B1FD" offset="0%"></stop>
            <stop stop-color="#0079FA" offset="100%"></stop>
        </linearGradient>
    </defs>
    <g id="Page-1" stroke="none" stroke-width="1" fill="none" fill-rule="evenodd">
        <g id="选场景-帮助按钮" transform="translate(-1213.000000, -2048.000000)" fill="url(#linearGradient-1)" fill-rule="nonzero">
            <g id="帮助" transform="translate(1200.000000, 2035.000000)">
                <g transform="translate(11.000000, 11.000000)" id="Combined-Shape">
                    <path d="M27.5552,23.63744 C28.4408,25.70768 28.90192,27.02672 29.00592,27.78512 C29.1104,28.5504 28.85232,28.76704 28.60288,28.9768 L28.48928,29.07184 L28.35392,29.13248 C28.00512,29.29088 27.42192,29.55504 22.95648,27.8616 C20.84976,29.05904 18.44544,29.69152 16.00032,29.69152 C8.32464,29.69152 2.08,23.54976 2.08,16 C2.08,8.45024 8.32464,2.30848 16.00032,2.30848 C23.676,2.30848 29.92,8.45024 29.92,16 C29.92,18.74064 29.10256,21.37968 27.5552,23.63744 Z M11.91696,13.86592 L11.91696,13.86608 L13.51648,13.86608 C13.51648,11.83184 14.3736,10.81472 16.08864,10.81472 C16.84912,10.81472 17.42928,11.0304 17.82896,11.46144 C18.22864,11.89312 18.42864,12.38848 18.42864,12.9488 C18.42864,13.50864 18.34128,13.93056 18.16752,14.2136 C17.99376,14.49696 17.60336,14.95088 16.99744,15.57504 C16.39168,16.19968 15.97264,16.6728 15.74064,16.99472 C15.50832,17.31632 15.3344,17.69328 15.2184,18.12448 C15.10208,18.55568 15.04416,18.68704 15.04416,18.93184 L16.7464,18.93184 C16.7464,18.73856 16.7816,18.74256 16.89136,18.37536 C17.00048,18.00816 17.16208,17.69312 17.37472,17.42896 C17.58752,17.16544 18.01952,16.72128 18.6704,16.09664 C19.32144,15.47216 19.60384,14.95088 19.80384,14.53216 C20.00352,14.11408 20.0832,13.64736 20.0832,13.132 C20.0832,12.03456 19.78144,11.08208 19.056,10.44128 C18.27616,9.75264 17.31984,9.34688 16.14688,9.34688 C15.56656,9.34688 15.01536,9.43712 14.49312,9.61712 C13.9712,9.7976 13.49712,10.07744 13.07152,10.45712 C12.64624,10.83712 12.37792,11.26832 12.18432,11.7512 C11.99088,12.23392 11.94288,12.93888 11.91696,13.86592 Z M16.7792,22.65312 L16.7792,20.6832 L15.0056,20.6832 L15.0056,22.65312 L16.7792,22.65312 Z"></path>
                </g>
            </g>
        </g>
    </g>
</svg>