<?xml version="1.0" encoding="UTF-8"?>
<svg width="20px" height="23px" viewBox="0 0 20 23" version="1.1" xmlns="http://www.w3.org/2000/svg" xmlns:xlink="http://www.w3.org/1999/xlink">
    <!-- Generator: Sketch 56.2 (81672) - https://sketch.com -->
    <title>￥</title>
    <desc>Created with Sketch.</desc>
    <g id="页面1" stroke="none" stroke-width="1" fill="none" fill-rule="evenodd">
        <g id="数据详情页new1" transform="translate(-791.000000, -434.000000)" fill="#E63962" fill-rule="nonzero">
            <g id="详情页主要内容" transform="translate(0.000000, 220.000000)">
                <g id="详情页右方" transform="translate(705.000000, 65.000000)">
                    <g id="Group-7" transform="translate(0.000000, 128.000000)">
                        <g id="价-格-2" transform="translate(9.000000, 10.000000)">
                            <polygon id="￥" points="77.624 11.152 82.168 11.152 87 20.784 91.832 11.152 96.376 11.152 90.232 22.288 94.328 22.288 94.328 24.4 89.048 24.4 89.016 24.432 89.016 27.088 94.328 27.088 94.328 29.2 89.016 29.2 89.016 34 84.984 34 84.984 29.2 79.704 29.2 79.704 27.088 84.984 27.088 84.984 24.432 84.952 24.4 79.704 24.4 79.704 22.288 83.768 22.288"></polygon>
                        </g>
                    </g>
                </g>
            </g>
        </g>
    </g>
</svg>