<?xml version="1.0" encoding="UTF-8"?>
<svg width="226px" height="30px" viewBox="0 0 226 30" version="1.1" xmlns="http://www.w3.org/2000/svg" xmlns:xlink="http://www.w3.org/1999/xlink">
    <!-- Generator: Sketch 55.2 (78181) - https://sketchapp.com -->
    <title>广告条</title>
    <desc>Created with Sketch.</desc>
    <defs>
        <linearGradient x1="15.6604487%" y1="50%" x2="100%" y2="50%" id="linearGradient-1">
            <stop stop-color="#FED549" offset="0%"></stop>
            <stop stop-color="#F2AD3C" offset="100%"></stop>
        </linearGradient>
        <rect id="path-2" x="0" y="0" width="226" height="30" rx="4"></rect>
        <linearGradient x1="82.385998%" y1="39.7793018%" x2="33.1614536%" y2="70.3445325%" id="linearGradient-4">
            <stop stop-color="#FFEFAF" offset="0%"></stop>
            <stop stop-color="#F8D55D" offset="100%"></stop>
        </linearGradient>
        <linearGradient x1="82.385998%" y1="39.6146078%" x2="33.1614536%" y2="70.6723597%" id="linearGradient-5">
            <stop stop-color="#FFEFAF" offset="0%"></stop>
            <stop stop-color="#F8D55D" offset="100%"></stop>
        </linearGradient>
    </defs>
    <g id="页面1" stroke="none" stroke-width="1" fill="none" fill-rule="evenodd">
        <g id="数据详情页new2" transform="translate(-871.000000, -430.000000)">
            <g id="详情页主要内容" transform="translate(0.000000, 220.000000)">
                <g id="详情页右方" transform="translate(705.000000, 65.000000)">
                    <g id="Group-7" transform="translate(0.000000, 128.000000)">
                        <g id="广告条" transform="translate(166.000000, 17.000000)">
                            <g id="背景">
                                <mask id="mask-3" fill="white">
                                    <use xlink:href="#path-2"></use>
                                </mask>
                                <use id="蒙版" fill="url(#linearGradient-1)" xlink:href="#path-2"></use>
                                <ellipse id="椭圆形" fill="#F9C037" mask="url(#mask-3)" cx="14.5" cy="49" rx="35.5" ry="27"></ellipse>
                                <ellipse id="椭圆形" fill="url(#linearGradient-4)" opacity="0.699999988" mask="url(#mask-3)" cx="-15.5" cy="5" rx="35.5" ry="27"></ellipse>
                                <ellipse id="椭圆形" fill="url(#linearGradient-5)" opacity="0.300000012" mask="url(#mask-3)" cx="180" cy="34.5" rx="15" ry="11.5"></ellipse>
                                <path d="M210.013998,11 L226.986002,11 C224.667412,12.8761998 221.714945,14 218.5,14 C215.285055,14 212.332588,12.8761998 210.013998,11 Z M207.273324,8 C206.653802,7.07448255 206.14569,6.06808704 205.768176,5 L231.231824,5 C230.85431,6.06808704 230.346198,7.07448255 229.726676,8 L207.273324,8 Z M205.082393,2 C205.02795,1.50749922 205,1.00701364 205,0.5 C205,-0.0070136434 205.02795,-0.507499222 205.082393,-1 L231.917607,-1 C231.97205,-0.507499222 232,-0.0070136434 232,0.5 C232,1.00701364 231.97205,1.50749922 231.917607,2 L205.082393,2 Z M205.768176,-4 C206.14569,-5.06808704 206.653802,-6.07448255 207.273324,-7 L229.726676,-7 C230.346198,-6.07448255 230.85431,-5.06808704 231.231824,-4 L205.768176,-4 Z M210.013998,-10 C212.332588,-11.8761998 215.285055,-13 218.5,-13 C221.714945,-13 224.667412,-11.8761998 226.986002,-10 L210.013998,-10 Z" id="形状结合" fill="#FFFFFF" opacity="0.200000003" mask="url(#mask-3)" transform="translate(218.500000, 0.500000) rotate(-45.000000) translate(-218.500000, -0.500000) "></path>
                            </g>
                            <path d="M17.54,15.352 C17.54,15.2399994 17.577333,15.146667 17.652,15.072 C17.726667,14.997333 17.8153328,14.96 17.918,14.96 L18.632,14.96 C18.7253338,14.96 18.8069997,14.990333 18.877,15.051 C18.9470003,15.111667 18.9913332,15.1933328 19.01,15.296 L26.99,15.296 C27.0086668,15.1559993 27.0599996,15.0626669 27.144,15.016 C27.2280004,14.9693331 27.3213328,14.946 27.424,14.946 L28.04,14.946 C28.1520006,14.946 28.2523329,14.976333 28.341,15.037 C28.4296671,15.097667 28.474,15.2119992 28.474,15.38 L28.474,19.776 C28.474,20.2146689 28.4086673,20.5413323 28.278,20.756 C28.1473327,20.9706677 27.9046684,21.1293328 27.55,21.232 C27.4099993,21.2693335 27.2583341,21.2926666 27.095,21.302 C26.9316659,21.3113334 26.7706675,21.3253332 26.612,21.344 C26.4813327,21.3533334 26.385667,21.3346669 26.325,21.288 C26.264333,21.2413331 26.2060003,21.1713338 26.15,21.078 C26.1033331,20.9939996 26.0450004,20.8773341 25.975,20.728 C25.9049997,20.5786659 25.8466669,20.4526672 25.8,20.35 C25.7439997,20.1726658 25.8046658,20.0700001 25.982,20.042 L26.388,20 C26.6213345,19.9813332 26.7799996,19.9253338 26.864,19.832 C26.9480004,19.7386662 26.99,19.5426682 26.99,19.244 L26.99,15.926 L19.01,15.926 L19.01,20.924 C19.01,21.0266672 18.972667,21.1176663 18.898,21.197 C18.823333,21.2763337 18.7346672,21.316 18.632,21.316 L17.918,21.316 C17.8153328,21.316 17.726667,21.2763337 17.652,21.197 C17.577333,21.1176663 17.54,21.0266672 17.54,20.924 L17.54,15.352 Z M19.234,11.866 C19.234,11.7539994 19.271333,11.660667 19.346,11.586 C19.420667,11.511333 19.5093328,11.474 19.612,11.474 L20.284,11.474 C20.4520008,11.474 20.5686663,11.5626658 20.634,11.74 L25.254,11.74 C25.2726668,11.665333 25.3169996,11.6000003 25.387,11.544 C25.4570004,11.4879997 25.5339996,11.46 25.618,11.46 L26.29,11.46 C26.3833338,11.46 26.4696663,11.497333 26.549,11.572 C26.6283337,11.646667 26.668,11.7353328 26.668,11.838 L26.668,14.176 C26.668,14.2786672 26.630667,14.3696663 26.556,14.449 C26.481333,14.5283337 26.3926672,14.568 26.29,14.568 L25.618,14.568 C25.5246662,14.568 25.4430003,14.537667 25.373,14.477 C25.3029997,14.416333 25.2586668,14.3346672 25.24,14.232 L20.662,14.232 C20.6526666,14.3346672 20.610667,14.4209996 20.536,14.491 C20.461333,14.5610004 20.3773338,14.596 20.284,14.596 L19.612,14.596 C19.5186662,14.596 19.4323337,14.558667 19.353,14.484 C19.2736663,14.409333 19.234,14.3206672 19.234,14.218 L19.234,11.866 Z M20.34,17.06 C20.34,16.9573328 20.377333,16.868667 20.452,16.794 C20.526667,16.719333 20.6153328,16.682 20.718,16.682 L21.306,16.682 C21.380667,16.682 21.4506663,16.7029998 21.516,16.745 C21.5813337,16.7870002 21.6279999,16.845333 21.656,16.92 L24.302,16.92 C24.3300001,16.845333 24.3766663,16.7846669 24.442,16.738 C24.5073337,16.6913331 24.577333,16.668 24.652,16.668 L25.268,16.668 C25.3613338,16.668 25.4476663,16.7076663 25.527,16.787 C25.6063337,16.8663337 25.646,16.9573328 25.646,17.06 L25.646,19.496 C25.646,19.5986672 25.608667,19.6896663 25.534,19.769 C25.459333,19.8483337 25.3706672,19.888 25.268,19.888 L24.652,19.888 C24.5493328,19.888 24.460667,19.8483337 24.386,19.769 C24.311333,19.6896663 24.274,19.5986672 24.274,19.496 L24.274,19.44 L21.684,19.44 L21.684,19.664 C21.684,19.7666672 21.646667,19.855333 21.572,19.93 C21.497333,20.004667 21.4086672,20.042 21.306,20.042 L20.718,20.042 C20.6153328,20.042 20.526667,20.004667 20.452,19.93 C20.377333,19.855333 20.34,19.7666672 20.34,19.664 L20.34,17.06 Z M16.812,10.354 C16.812,10.3073331 16.8329998,10.2606669 16.875,10.214 C16.9170002,10.1673331 16.9659997,10.144 17.022,10.144 L22.51,10.144 C22.3979994,9.96666578 22.2766673,9.79866746 22.146,9.64 C22.0153327,9.48133254 21.8660008,9.31333422 21.698,9.136 C21.6699999,9.11733324 21.6583333,9.08700021 21.663,9.045 C21.6676667,9.00299979 21.6816665,8.96100021 21.705,8.919 C21.7283335,8.87699979 21.7563332,8.83966683 21.789,8.807 C21.8216668,8.77433317 21.8613331,8.76266662 21.908,8.772 C22.1973348,8.8186669 22.5099983,8.88633289 22.846,8.975 C23.1820017,9.06366711 23.4433324,9.1546662 23.63,9.248 C23.7980008,9.3413338 23.8889999,9.44633275 23.903,9.563 C23.9170001,9.67966725 23.8913337,9.79866606 23.826,9.92 C23.7979999,9.9666669 23.7723334,10.0086665 23.749,10.046 C23.7256665,10.0833335 23.7000001,10.1159999 23.672,10.144 L28.964,10.144 C29.0200003,10.144 29.0713331,10.1673331 29.118,10.214 C29.1646669,10.2606669 29.188,10.3073331 29.188,10.354 L29.188,10.578 C29.188,10.6340003 29.1646669,10.6829998 29.118,10.725 C29.0713331,10.7670002 29.0200003,10.788 28.964,10.788 L17.022,10.788 C16.9659997,10.788 16.9170002,10.7670002 16.875,10.725 C16.8329998,10.6829998 16.812,10.6340003 16.812,10.578 L16.812,10.354 Z M20.662,13.616 L25.24,13.616 L25.24,12.356 L20.662,12.356 L20.662,13.616 Z M21.684,18.852 L24.274,18.852 L24.274,17.508 L21.684,17.508 L21.684,18.852 Z M33.2605002,20.826 C33.5405016,20.4526648 33.7994991,20.0980017 34.0375002,19.762 C34.2755014,19.4259983 34.4971659,19.0946683 34.7025002,18.768 C34.4878325,18.8986673 34.2475016,19.0386659 33.9815002,19.188 C33.7154989,19.3373341 33.4425016,19.4866659 33.1625002,19.636 C32.8824988,19.7853341 32.6095016,19.9253327 32.3435003,20.056 C32.0774989,20.1866673 31.8418346,20.2939996 31.6365002,20.378 C31.5058329,20.4340003 31.3891674,20.4573334 31.2865002,20.448 C31.1838331,20.4386666 31.1045005,20.3826672 31.0485002,20.28 C30.9831666,20.1679994 30.9248338,20.0280008 30.8735002,19.86 C30.8221667,19.6919992 30.7825004,19.5566672 30.7545002,19.454 C30.7078334,19.3419994 30.7101667,19.2440004 30.7615002,19.16 C30.8128338,19.0759996 30.8991663,19.0200001 31.0205002,18.992 L35.0805003,17.928 L35.1645003,17.928 C35.3978348,17.4706644 35.5961661,16.9900025 35.7595003,16.486 C35.9228344,15.9819975 36.0558331,15.4313363 36.1585003,14.834 C36.2611674,14.2366637 36.3381667,13.5763369 36.3895002,12.853 C36.4408338,12.1296631 36.4665002,11.3106712 36.4665002,10.396 L35.4165002,10.396 C35.3511666,10.396 35.2951671,10.3726669 35.2485002,10.326 C35.2018334,10.2793331 35.1785002,10.2233337 35.1785002,10.158 L35.1785002,9.99 C35.1785002,9.92466634 35.2018334,9.8686669 35.2485002,9.822 C35.2951671,9.7753331 35.3511666,9.752 35.4165002,9.752 L40.0365003,9.752 L40.1205002,9.472 C40.1485004,9.36933282 40.2091664,9.2946669 40.3025002,9.248 C40.3958341,9.2013331 40.4891664,9.19199986 40.5825002,9.22 L41.2545002,9.388 C41.3571674,9.42533352 41.4295,9.48833289 41.4715002,9.577 C41.5135005,9.66566711 41.525167,9.7566662 41.5065003,9.85 L40.4705003,13.308 L41.3945002,13.308 L41.4365002,13.182 C41.4645004,13.0886662 41.5228331,13.0163336 41.6115002,12.965 C41.7001674,12.9136664 41.7958331,12.9019999 41.8985002,12.93 L42.6405003,13.154 C42.7431674,13.1820001 42.8155,13.2403329 42.8575003,13.329 C42.8995005,13.4176671 42.9065004,13.5133328 42.8785003,13.616 C42.5611653,14.5680048 42.2321686,15.4079964 41.8915002,16.136 C41.5508319,16.8640036 41.1425026,17.5219971 40.6665002,18.11 C41.0678356,18.4460017 41.4901647,18.7399987 41.9335002,18.992 C42.3768358,19.2440013 42.8504977,19.4773323 43.3545003,19.692 C43.4665008,19.7386669 43.5248336,19.8039996 43.5295002,19.888 C43.5341669,19.9720004 43.4991673,20.0653328 43.4245002,20.168 C43.3404998,20.2986673 43.2471674,20.4293327 43.1445002,20.56 C43.0418331,20.6906673 42.8925012,20.8586656 42.6965002,21.064 C42.5658329,21.1946673 42.4445008,21.26 42.3325002,21.26 C42.2204997,21.26 42.0758345,21.2040006 41.8985002,21.092 C41.5438318,20.8586655 41.1728355,20.5903348 40.7855002,20.287 C40.398165,19.9836652 40.0225021,19.6080022 39.6585003,19.16 C39.1451644,19.6080022 38.5548369,20.0186648 37.8875003,20.392 C37.2201636,20.7653352 36.4431714,21.1246649 35.5565002,21.47 C35.5098333,21.4886668 35.4655005,21.4793334 35.4235003,21.442 C35.3815,21.4046665 35.3465004,21.3603336 35.3185002,21.309 C35.2905001,21.2576664 35.2765002,21.2040003 35.2765002,21.148 C35.2765002,21.0919997 35.2998334,21.0500001 35.3465003,21.022 C36.1211708,20.5179975 36.7978307,20.0350023 37.3765002,19.573 C37.9551698,19.1109977 38.468498,18.6326691 38.9165002,18.138 C38.6458322,17.6993311 38.3961681,17.209336 38.1675003,16.668 C37.9388324,16.126664 37.7451677,15.5153367 37.5865003,14.834 C37.4651663,15.5433369 37.3018346,16.1873304 37.0965003,16.766 C36.8911659,17.3446696 36.6275019,17.8859975 36.3055002,18.39 C35.9834986,18.8940025 35.5985025,19.3746644 35.1505002,19.832 C34.702498,20.2893356 34.1845032,20.7559976 33.5965003,21.232 C33.5498334,21.2600001 33.4985005,21.2646668 33.4425002,21.246 C33.3865,21.2273332 33.3375005,21.1946669 33.2955003,21.148 C33.2535,21.1013331 33.2255003,21.047667 33.2115003,20.987 C33.1975002,20.926333 33.2138334,20.8726669 33.2605002,20.826 Z M30.6145002,13.21 C30.5865001,13.0979994 30.6028333,13.0093337 30.6635002,12.944 C30.7241672,12.8786663 30.8198329,12.846 30.9505002,12.846 L31.0065003,12.846 C31.1745011,12.5659986 31.3401661,12.260335 31.5035003,11.929 C31.6668344,11.597665 31.8231662,11.266335 31.9725002,10.935 C32.1218343,10.603665 32.2594996,10.2816682 32.3855002,9.969 C32.5115009,9.65633177 32.6211665,9.37400126 32.7145003,9.122 C32.7518338,9.01933282 32.8101665,8.94233359 32.8895002,8.891 C32.968834,8.83966641 33.0738329,8.83266648 33.2045002,8.87 L34.0025002,9.15 C34.2358347,9.25266718 34.2778343,9.43466536 34.1285003,9.696 C34.0164997,9.91066774 33.8718345,10.1556653 33.6945003,10.431 C33.517166,10.7063347 33.3258346,10.9863319 33.1205002,11.271 C32.9151659,11.5556681 32.7005014,11.833332 32.4765003,12.104 C32.2524991,12.374668 32.0285014,12.6126656 31.8045002,12.818 L33.4285002,12.762 C33.5311674,12.5379989 33.6268331,12.3256677 33.7155003,12.125 C33.8041674,11.9243323 33.8765,11.7446675 33.9325003,11.586 C33.9605004,11.4833328 34.0164998,11.3993337 34.1005002,11.334 C34.1845007,11.2686663 34.2918329,11.2546665 34.4225002,11.292 L35.2485002,11.614 C35.4351678,11.7073338 35.4678342,11.8799987 35.3465003,12.132 C35.1784994,12.4493349 34.9825014,12.7829983 34.7585002,13.133 C34.5344991,13.4830017 34.2988348,13.8306649 34.0515003,14.176 C33.8041657,14.5213351 33.5475016,14.8503318 33.2815002,15.163 C33.0154989,15.4756682 32.7518349,15.7579987 32.4905002,16.01 L35.0805003,15.688 C35.1365005,15.688 35.1878333,15.6973332 35.2345002,15.716 C35.2811672,15.7346668 35.3138335,15.7859996 35.3325002,15.87 C35.3605004,16.0193341 35.3231674,16.1173331 35.2205003,16.164 C35.0711662,16.2293337 34.8355019,16.3273327 34.5135002,16.458 C34.1914986,16.5886673 33.8485021,16.721666 33.4845002,16.857 C33.1204984,16.992334 32.7728352,17.1206661 32.4415003,17.242 C32.1101653,17.3633339 31.8605011,17.4473331 31.6925003,17.494 C31.5618329,17.5313335 31.4545007,17.5360001 31.3705002,17.508 C31.2864998,17.4799999 31.2211671,17.4006673 31.1745003,17.27 C31.1371667,17.1766662 31.0998338,17.0646673 31.0625002,16.934 C31.0251667,16.8033327 30.9925004,16.6820006 30.9645003,16.57 C30.9458335,16.4486661 30.9738332,16.3483337 31.0485002,16.269 C31.1231673,16.1896663 31.2258329,16.1453334 31.3565002,16.136 L31.5525003,16.122 C31.8045015,15.729998 32.0611656,15.3076689 32.3225003,14.855 C32.5838349,14.4023311 32.8264991,13.9520022 33.0505002,13.504 C32.7238319,13.6253339 32.3901686,13.7419994 32.0495003,13.854 C31.7088319,13.9660006 31.4405012,14.0499997 31.2445003,14.106 C31.1138329,14.1433335 31.0158339,14.1503335 30.9505002,14.127 C30.8851666,14.1036665 30.8291671,14.0313339 30.7825002,13.91 C30.7451667,13.8073328 30.7125004,13.6906673 30.6845002,13.56 C30.6565001,13.4293327 30.633167,13.3126672 30.6145002,13.21 Z M39.8685002,10.396 L37.8805002,10.396 C37.8711669,10.9840029 37.857167,11.5346641 37.8385003,12.048 C37.8198335,12.5613359 37.7871672,13.0466644 37.7405002,13.504 C38.029835,14.3066707 38.3354986,15.0019971 38.6575002,15.59 C38.9795019,16.1780029 39.3271651,16.6959978 39.7005003,17.144 C40.0178352,16.677331 40.2978324,16.1850026 40.5405003,15.667 C40.7831681,15.1489974 41.0071659,14.5726698 41.2125003,13.938 L40.2885002,13.938 L40.2325003,14.12 C40.2045001,14.2226672 40.1438341,14.2973331 40.0505002,14.344 C39.9571665,14.3906669 39.8685007,14.4000001 39.7845003,14.372 L39.2245002,14.204 C39.1311664,14.1666665 39.0588338,14.1036671 39.0075002,14.015 C38.9561667,13.9263329 38.9445001,13.8306672 38.9725003,13.728 L39.8685002,10.396 Z M45.9710005,19.888 C45.9243336,19.5613317 46.0643322,19.398 46.3910005,19.398 L46.8110005,19.398 C47.1843357,18.9779979 47.5343322,18.5393356 47.8610005,18.082 C48.1876688,17.6246644 48.467666,17.200002 48.7010005,16.808 L45.2150005,16.808 C45.1403335,16.808 45.0796674,16.7870002 45.0330005,16.745 C44.9863336,16.7029998 44.9630005,16.644667 44.9630005,16.57 L44.9630005,16.388 C44.9630005,16.313333 44.9863336,16.2526669 45.0330005,16.206 C45.0796674,16.1593331 45.1403335,16.136 45.2150005,16.136 L56.7930005,16.136 C56.8676675,16.136 56.9260003,16.1593331 56.9680005,16.206 C57.0100007,16.2526669 57.0310005,16.313333 57.0310005,16.388 L57.0310005,16.57 C57.0310005,16.7286675 56.951668,16.808 56.7930005,16.808 L50.8990005,16.808 C50.5069985,17.2280021 50.0636696,17.6643311 49.5690005,18.117 C49.0743314,18.5696689 48.575003,18.9873314 48.0710005,19.37 L53.4750005,19.244 C53.2883329,19.0013321 53.0923349,18.7540013 52.8870005,18.502 C52.6816661,18.2499987 52.4670016,17.9980013 52.2430005,17.746 C52.2150004,17.7086665 52.2080004,17.6643336 52.2220005,17.613 C52.2360006,17.5616664 52.2640003,17.5126669 52.3060005,17.466 C52.3480007,17.4193331 52.3946669,17.3843334 52.4460005,17.361 C52.4973341,17.3376666 52.5463336,17.3353332 52.5930005,17.354 C52.9103354,17.5033341 53.2393321,17.6806656 53.5800005,17.886 C53.9206689,18.0913344 54.2426657,18.2989989 54.5460005,18.509 C54.8493354,18.719001 55.1199993,18.921999 55.3580005,19.118 C55.5960017,19.314001 55.7663333,19.4819993 55.8690005,19.622 C55.9996678,19.7620007 56.0790004,19.9043326 56.1070005,20.049 C56.1350006,20.1936674 56.0976677,20.3686656 55.9950005,20.574 C55.9203335,20.7326675 55.8456675,20.8609995 55.7710005,20.959 C55.6963335,21.0570005 55.6030011,21.1526662 55.4910005,21.246 C55.3603332,21.3486672 55.2110013,21.3883334 55.0430005,21.365 C54.8749997,21.3416665 54.7396677,21.2226677 54.6370005,21.008 C54.5623335,20.8586659 54.4643344,20.6883343 54.3430005,20.497 C54.2216666,20.3056657 54.081668,20.0980011 53.9230005,19.874 C53.5589987,19.948667 53.0736702,20.0373328 52.4670005,20.14 C51.8603308,20.2426672 51.2163372,20.3429995 50.5350005,20.441 C49.8536638,20.5390005 49.1770039,20.6323329 48.5050005,20.721 C47.8329971,20.8096671 47.245003,20.8819997 46.7410005,20.938 C46.5543329,20.9660001 46.4143343,20.9590002 46.3210005,20.917 C46.2276667,20.8749998 46.1576674,20.7746675 46.1110005,20.616 L45.9710005,19.888 Z M44.6270005,14.246 C45.9523405,13.4246626 47.0676626,12.6080041 47.9730005,11.796 C48.8783384,10.9839959 49.582998,10.0880049 50.0870005,9.108 C50.1430008,8.98666606 50.2176667,8.9026669 50.3110005,8.856 C50.4043343,8.8093331 50.5349997,8.80466648 50.7030005,8.842 L51.1790005,8.954 C51.337668,8.99133352 51.5009997,9.04733296 51.6690005,9.122 C51.8836682,9.2153338 51.9303344,9.36933226 51.8090005,9.584 C51.771667,9.64933366 51.7366673,9.71233303 51.7040005,9.773 C51.6713337,9.83366697 51.6316674,9.89666634 51.5850005,9.962 C52.0703363,10.3633353 52.534665,10.7133318 52.9780005,11.012 C53.421336,11.3106682 53.8693316,11.5766655 54.3220005,11.81 C54.7746694,12.0433345 55.2413314,12.2509991 55.7220005,12.433 C56.2026696,12.6150009 56.7229977,12.7899992 57.2830005,12.958 C57.5070016,13.032667 57.5303347,13.1866655 57.3530005,13.42 C57.2503333,13.5506673 57.1383344,13.6883326 57.0170005,13.833 C56.8956666,13.9776674 56.7650012,14.1199993 56.6250005,14.26 C56.4943332,14.3813339 56.3636678,14.4466666 56.2330005,14.456 C56.1023332,14.4653334 55.9436681,14.4186672 55.7570005,14.316 C55.448999,14.1759993 55.110669,13.9916678 54.7420005,13.763 C54.373332,13.5343322 53.9976691,13.2566683 53.6150005,12.93 C53.2323319,12.6033317 52.8450025,12.2276688 52.4530005,11.803 C52.0609985,11.3783312 51.6830023,10.895336 51.3190005,10.354 C51.0203323,10.7646687 50.6516694,11.1799979 50.2130005,11.6 C49.7743316,12.0200021 49.2796699,12.4213314 48.7290005,12.804 C48.1783311,13.1866686 47.5763371,13.5389984 46.9230005,13.861 C46.2696639,14.1830016 45.5790041,14.4559989 44.8510005,14.68 C44.8043336,14.6986668 44.7576674,14.6916668 44.7110005,14.659 C44.6643336,14.6263332 44.629334,14.5820003 44.6060005,14.526 C44.582667,14.4699997 44.5710005,14.4163336 44.5710005,14.365 C44.5710005,14.3136664 44.589667,14.2740001 44.6270005,14.246 Z M47.7350005,13.728 C47.7350005,13.6813331 47.7560003,13.6346669 47.7980005,13.588 C47.8400007,13.5413331 47.8890002,13.518 47.9450005,13.518 L53.8530005,13.518 C53.9183342,13.518 53.9720003,13.5413331 54.0140005,13.588 C54.0560007,13.6346669 54.0770005,13.6813331 54.0770005,13.728 L54.0770005,13.952 C54.0770005,14.0173337 54.0536674,14.0709998 54.0070005,14.113 C53.9603336,14.1550002 53.9136674,14.176 53.8670005,14.176 L47.9450005,14.176 C47.8890002,14.176 47.8400007,14.1550002 47.7980005,14.113 C47.7560003,14.0709998 47.7350005,14.0173337 47.7350005,13.952 L47.7350005,13.728 Z M67.4035008,9.682 C67.4035007,9.57933282 67.4408337,9.48833373 67.5155008,9.409 C67.5901678,9.32966627 67.6788336,9.29 67.7815007,9.29 L68.4955007,9.29 C68.5981679,9.29 68.6868337,9.32966627 68.7615007,9.409 C68.8361678,9.48833373 68.8735008,9.57933282 68.8735008,9.682 L68.8735008,12.93 C68.8735008,13.0326672 68.8361678,13.1236663 68.7615007,13.203 C68.6868337,13.2823337 68.5981679,13.322 68.4955007,13.322 L67.7815007,13.322 C67.6881669,13.322 67.6018345,13.2823337 67.5225008,13.203 C67.443167,13.1236663 67.4035007,13.0326672 67.4035008,12.93 L67.4035008,12.902 L62.6995007,12.902 L62.6995007,12.986 C62.6995007,13.0886672 62.6621678,13.1796663 62.5875007,13.259 C62.5128337,13.3383337 62.4241679,13.378 62.3215007,13.378 L61.6075007,13.378 C61.5048336,13.378 61.4161678,13.3383337 61.3415007,13.259 C61.2668337,13.1796663 61.2295007,13.0886672 61.2295007,12.986 L61.2295007,9.766 C61.2295007,9.66333282 61.2668337,9.57233373 61.3415007,9.493 C61.4161678,9.41366627 61.5048336,9.374 61.6075007,9.374 L62.3215007,9.374 C62.4241679,9.374 62.5128337,9.41366627 62.5875007,9.493 C62.6621678,9.57233373 62.6995007,9.66333282 62.6995007,9.766 L67.4035008,9.766 L67.4035008,9.682 Z M68.2995007,14.218 C68.2995007,14.1059994 68.3368337,14.012667 68.4115008,13.938 C68.4861678,13.863333 68.5748336,13.826 68.6775008,13.826 L69.4195007,13.826 C69.5221679,13.826 69.6108337,13.863333 69.6855008,13.938 C69.7601678,14.012667 69.7975007,14.1059994 69.7975007,14.218 L69.7975007,18.166 C69.7975007,18.2780006 69.7601678,18.371333 69.6855008,18.446 C69.6108337,18.520667 69.5221679,18.558 69.4195007,18.558 L68.6775008,18.558 C68.5748336,18.558 68.4861678,18.520667 68.4115008,18.446 C68.3368337,18.371333 68.2995007,18.2780006 68.2995007,18.166 L68.2995007,14.932 L61.8595007,14.932 L61.8595007,18.53 C61.8595007,18.6420006 61.8221678,18.735333 61.7475008,18.81 C61.6728337,18.884667 61.5841679,18.922 61.4815007,18.922 L60.7395007,18.922 C60.6368336,18.922 60.5481678,18.884667 60.4735007,18.81 C60.3988337,18.735333 60.3615007,18.6420006 60.3615007,18.53 L60.3615007,14.26 C60.3615007,14.1479994 60.3988337,14.054667 60.4735007,13.98 C60.5481678,13.905333 60.6368336,13.868 60.7395007,13.868 L61.4815007,13.868 C61.5841679,13.868 61.6728337,13.9076663 61.7475008,13.987 C61.8221678,14.0663337 61.8595007,14.1573328 61.8595007,14.26 L61.8595007,14.316 L68.2995007,14.316 L68.2995007,14.218 Z M58.8215008,21.218 C58.802834,21.143333 58.8005007,21.0780003 58.8145008,21.022 C58.8285008,20.9659997 58.8588339,20.9286668 58.9055008,20.91 C59.8108386,20.6486654 60.5878308,20.3780014 61.2365008,20.098 C61.8851707,19.8179986 62.421832,19.5263348 62.8465008,19.223 C63.2711695,18.9196652 63.5931663,18.6000017 63.8125008,18.264 C64.0318352,17.9279983 64.1648339,17.5733352 64.2115008,17.2 L64.3095008,15.898 C64.3375009,15.5806651 64.4728329,15.422 64.7155008,15.422 L65.4575008,15.464 C65.7281688,15.4920001 65.8588341,15.6506652 65.8495008,15.94 L65.6955008,17.424 C65.6675006,17.5733341 65.6371676,17.7179993 65.6045008,17.858 C65.5718339,17.9980007 65.527501,18.1333327 65.4715008,18.264 C65.919503,18.3666672 66.3744984,18.4763328 66.8365008,18.593 C67.2985031,18.7096672 67.734832,18.8286661 68.1455008,18.95 C68.5561695,19.0713339 68.9248325,19.1879994 69.2515008,19.3 C69.5781691,19.4120006 69.8348332,19.5099996 70.0215008,19.594 C70.2175017,19.6873338 70.3458338,19.7853328 70.4065008,19.888 C70.4671677,19.9906672 70.4835009,20.1633321 70.4555008,20.406 C70.4461674,20.5086672 70.4298342,20.6136661 70.4065008,20.721 C70.3831673,20.8283339 70.3528343,20.9333328 70.3155008,21.036 C70.2408337,21.2226676 70.1265015,21.3253332 69.9725008,21.344 C69.8185,21.3626668 69.6435017,21.2973341 69.4475008,21.148 C69.2234996,20.9706658 68.9505024,20.7816677 68.6285008,20.581 C68.3064991,20.3803323 67.958836,20.175001 67.5855008,19.965 C67.2121656,19.754999 66.8225028,19.5496677 66.4165008,19.349 C66.0104987,19.1483323 65.6115027,18.9546676 65.2195008,18.768 C65.0421665,19.0573348 64.7995023,19.3279987 64.4915008,19.58 C64.1834992,19.8320013 63.7845032,20.0699989 63.2945008,20.294 C62.8044983,20.5180011 62.2095043,20.7209991 61.5095008,20.903 C60.8094973,21.0850009 59.9741723,21.2506659 59.0035008,21.4 C58.9568339,21.4093334 58.9195009,21.3953335 58.8915008,21.358 C58.8635006,21.3206665 58.8401675,21.2740003 58.8215008,21.218 Z M62.6995007,12.3 L67.4035008,12.3 L67.4035008,10.368 L62.6995007,10.368 L62.6995007,12.3 Z" id="高级会员" fill="#362F10" fill-rule="nonzero"></path>
                            <path d="M105.032,11.624 L105.032,21.188 L104.156,21.188 L104.156,20.444 L97.844,20.444 L97.844,21.188 L96.968,21.188 L96.968,11.624 L99.536,11.624 C99.8,11.144 100.004,10.664 100.124,10.16 L101,10.28 C100.868,10.76 100.676,11.216 100.436,11.624 L105.032,11.624 Z M97.844,19.616 L104.156,19.616 L104.156,17.66 L97.844,17.66 L97.844,19.616 Z M97.844,16.868 L104.156,16.868 L104.156,15.032 L97.844,15.032 L97.844,16.868 Z M97.844,14.24 L104.156,14.24 L104.156,12.452 L97.844,12.452 L97.844,14.24 Z M110.036,14.576 L116.012,14.576 L116.012,17.012 L110.036,17.012 L110.036,14.576 Z M115.208,16.352 L115.208,15.248 L110.84,15.248 L110.84,16.352 L115.208,16.352 Z M117.152,17.828 L117.152,21.212 L116.324,21.212 L116.324,20.72 L109.808,20.72 L109.808,21.212 L108.968,21.212 L108.968,17.828 L117.152,17.828 Z M109.808,19.988 L116.324,19.988 L116.324,18.548 L109.808,18.548 L109.808,19.988 Z M107.84,11.024 L110.54,11.024 L110.54,10.22 L111.404,10.22 L111.404,11.024 L114.596,11.024 L114.596,10.22 L115.46,10.22 L115.46,11.024 L118.16,11.024 L118.16,11.78 L115.46,11.78 L115.46,12.488 L114.596,12.488 L114.596,11.78 L111.404,11.78 L111.404,12.488 L110.54,12.488 L110.54,11.78 L107.84,11.78 L107.84,11.024 Z M117.824,12.992 L117.824,15.236 L116.996,15.236 L116.996,13.724 L109.004,13.724 L109.004,15.296 L108.176,15.296 L108.176,12.992 L117.824,12.992 Z M126.896,12.86 L126.74,13.484 C127.04,14.888 127.424,16.1 127.904,17.108 C128.372,15.896 128.624,14.48 128.672,12.86 L126.896,12.86 Z M127.508,17.972 C127.04,17.048 126.644,15.992 126.32,14.792 C126.104,15.344 125.864,15.836 125.612,16.268 L125.072,15.608 C125.78,14.264 126.26,12.452 126.5,10.172 L127.34,10.316 C127.268,10.928 127.172,11.504 127.076,12.032 L130.244,12.032 L130.244,12.86 L129.464,12.86 C129.404,14.864 129.032,16.58 128.36,17.996 C128.984,19.076 129.716,19.904 130.58,20.492 L130.112,21.2 C129.272,20.6 128.552,19.784 127.952,18.776 C127.376,19.736 126.632,20.54 125.732,21.188 L125.288,20.468 C126.224,19.82 126.956,18.992 127.508,17.972 Z M121.82,15.776 L122.624,15.872 C122.54,16.1 122.456,16.316 122.384,16.532 L124.892,16.532 L124.892,17.24 C124.628,18.032 124.184,18.716 123.56,19.292 C124.136,19.556 124.688,19.82 125.216,20.108 L124.748,20.78 C124.22,20.468 123.608,20.144 122.9,19.832 C122.108,20.384 121.112,20.828 119.912,21.164 L119.504,20.444 C120.488,20.18 121.34,19.856 122.036,19.46 C121.508,19.232 120.956,19.004 120.368,18.788 C120.68,18.26 120.956,17.768 121.196,17.288 L119.78,17.288 L119.78,16.532 L121.532,16.532 C121.64,16.268 121.736,16.016 121.82,15.776 Z M122.768,18.956 C123.368,18.476 123.824,17.912 124.112,17.288 L122.048,17.288 C121.856,17.696 121.64,18.08 121.4,18.44 C121.88,18.608 122.336,18.776 122.768,18.956 Z M120.728,10.424 C121.016,10.892 121.256,11.396 121.472,11.924 L120.848,12.212 C120.596,11.624 120.332,11.108 120.044,10.652 L120.728,10.424 Z M124.376,10.388 L125,10.676 C124.76,11.204 124.46,11.72 124.076,12.224 L123.464,11.912 C123.848,11.396 124.16,10.892 124.376,10.388 Z M119.804,12.5 L122.144,12.5 L122.144,10.208 L122.948,10.208 L122.948,12.5 L125.132,12.5 L125.132,13.256 L122.948,13.256 L122.948,13.388 C123.596,13.712 124.268,14.084 124.94,14.492 L124.496,15.164 C123.896,14.684 123.38,14.3 122.948,14.012 L122.948,15.572 L122.144,15.572 L122.144,13.292 C121.748,14.24 121.028,15.056 119.996,15.752 L119.576,15.056 C120.5,14.516 121.148,13.916 121.508,13.256 L119.804,13.256 L119.804,12.5 Z M132.968,21.092 L131.948,21.092 L131.768,20.276 C132.08,20.312 132.392,20.336 132.68,20.336 C132.98,20.336 133.136,20.156 133.136,19.82 L133.136,16.88 C132.656,17.06 132.188,17.228 131.72,17.372 L131.504,16.532 C132.056,16.4 132.608,16.232 133.136,16.04 L133.136,13.328 L131.696,13.328 L131.696,12.5 L133.136,12.5 L133.136,10.232 L133.976,10.232 L133.976,12.5 L135.128,12.5 L135.128,13.328 L133.976,13.328 L133.976,15.692 C134.36,15.524 134.732,15.344 135.092,15.152 L135.092,16.004 C134.72,16.196 134.348,16.364 133.976,16.532 L133.976,20.036 C133.976,20.732 133.64,21.092 132.968,21.092 Z M136.556,15.788 C136.412,17.84 135.944,19.64 135.152,21.2 L134.48,20.6 C135.332,19.016 135.764,16.952 135.776,14.432 L135.776,10.676 L142.1,10.676 L142.1,13.592 L139.844,13.592 L139.844,15.008 L142.412,15.008 L142.412,15.788 L139.844,15.788 L139.844,17.264 L141.86,17.264 L141.86,21.2 L141.056,21.2 L141.056,20.612 L137.804,20.612 L137.804,21.2 L137,21.2 L137,17.264 L139.004,17.264 L139.004,15.788 L136.556,15.788 Z M139.004,13.592 L136.616,13.592 L136.616,14.432 C136.616,14.624 136.604,14.816 136.604,15.008 L139.004,15.008 L139.004,13.592 Z M137.804,19.844 L141.056,19.844 L141.056,18.032 L137.804,18.032 L137.804,19.844 Z M141.26,11.48 L136.616,11.48 L136.616,12.812 L141.26,12.812 L141.26,11.48 Z M148.688,10.232 L149.312,10.232 C150.824,11.816 152.564,13.052 154.532,13.964 L154.1,14.732 C152.108,13.772 150.416,12.536 149,11.012 C147.692,12.464 145.976,13.724 143.852,14.792 L143.432,14.036 C145.544,13.016 147.296,11.744 148.688,10.232 Z M145.652,14.024 L152.348,14.024 L152.348,14.852 L149.444,14.852 L149.444,16.94 L152.912,16.94 L152.912,17.768 L149.444,17.768 L149.444,19.988 L154.004,19.988 L154.004,20.84 L144.008,20.84 L144.008,19.988 L148.556,19.988 L148.556,17.768 L145.076,17.768 L145.076,16.94 L148.556,16.94 L148.556,14.852 L145.652,14.852 L145.652,14.024 Z M157.256,12.644 C157.544,13.196 157.82,13.868 158.06,14.66 L159.32,14.66 C159.668,14 159.968,13.292 160.208,12.548 L161.012,12.824 C160.76,13.508 160.484,14.12 160.172,14.66 L161.624,14.66 L161.624,15.5 L155.612,15.5 L155.612,14.66 L157.232,14.66 C157.016,14.036 156.764,13.46 156.464,12.932 L157.256,12.644 Z M162.176,10.7 L166.112,10.7 L166.112,11.348 C165.74,12.608 165.344,13.784 164.912,14.864 C165.812,15.992 166.268,16.928 166.28,17.648 C166.28,18.392 166.124,18.908 165.812,19.196 C165.476,19.484 164.816,19.64 163.832,19.64 L163.556,18.728 C163.892,18.752 164.168,18.776 164.396,18.776 C164.828,18.752 165.104,18.668 165.224,18.524 C165.344,18.368 165.404,18.08 165.416,17.648 C165.404,16.94 164.924,16.016 163.988,14.864 C164.384,13.916 164.78,12.788 165.164,11.492 L163.016,11.492 L163.016,21.176 L162.176,21.176 L162.176,10.7 Z M155.84,11.36 L158.252,11.36 C158.108,10.964 157.964,10.604 157.808,10.28 L158.696,10.124 C158.828,10.484 158.96,10.904 159.092,11.36 L161.54,11.36 L161.54,12.2 L155.84,12.2 L155.84,11.36 Z M161.072,16.592 L161.072,21.116 L160.22,21.116 L160.22,20.444 L157.148,20.444 L157.148,21.116 L156.296,21.116 L156.296,16.592 L161.072,16.592 Z M157.148,19.628 L160.22,19.628 L160.22,17.408 L157.148,17.408 L157.148,19.628 Z M169.1,13.736 C168.788,13.964 168.476,14.18 168.164,14.384 L167.612,13.724 C169.124,12.812 170.36,11.624 171.332,10.136 L172.196,10.34 C172.004,10.652 171.8,10.952 171.584,11.24 L175.724,11.24 L175.724,11.9 C175.22,12.524 174.728,13.052 174.236,13.484 L177.176,13.484 L177.176,17.12 L174.44,17.12 L174.44,19.568 C174.44,19.964 174.608,20.168 174.956,20.168 L176.888,20.168 C177.104,20.168 177.248,20.084 177.344,19.94 C177.464,19.748 177.536,19.208 177.572,18.308 L178.4,18.572 C178.316,19.724 178.172,20.432 177.956,20.684 C177.764,20.9 177.464,21.008 177.044,21.008 L174.692,21.008 C173.948,21.008 173.576,20.588 173.576,19.748 L173.576,17.12 L172.952,17.12 C172.868,17.348 172.772,17.564 172.676,17.78 C172.028,19.172 170.528,20.312 168.2,21.212 L167.648,20.528 C169.736,19.76 171.128,18.788 171.8,17.636 C171.884,17.468 171.956,17.288 172.028,17.12 L169.1,17.12 L169.1,13.736 Z M173.132,13.484 C173.636,13.064 174.116,12.584 174.596,12.032 L170.948,12.032 C170.48,12.56 169.976,13.04 169.424,13.484 L173.132,13.484 Z M176.348,16.304 L176.348,14.288 L173.432,14.288 C173.408,15.02 173.336,15.692 173.192,16.304 L176.348,16.304 Z M172.292,16.304 C172.448,15.692 172.544,15.02 172.568,14.288 L169.94,14.288 L169.94,16.304 L172.292,16.304 Z M181.544,12.956 L181.352,13.712 L183.128,13.712 C183.2,13.472 183.248,13.22 183.26,12.956 L181.544,12.956 Z M184.1,12.956 C184.076,13.22 184.04,13.472 183.992,13.712 L185.852,13.712 L185.852,12.956 L184.1,12.956 Z M186.692,12.956 L186.692,13.712 L189.92,13.712 C189.92,14.6 189.824,15.152 189.644,15.38 C189.464,15.644 189.044,15.776 188.396,15.776 C188.204,15.776 188.012,15.764 187.844,15.764 L187.676,15.152 C187.892,15.164 188.096,15.176 188.288,15.176 C188.66,15.176 188.888,15.116 188.984,14.996 C189.056,14.888 189.092,14.684 189.104,14.372 L186.692,14.372 L186.692,15.74 L185.852,15.74 L185.852,14.372 L183.752,14.372 C183.596,14.672 183.404,14.936 183.188,15.164 C182.804,15.524 182.276,15.824 181.58,16.064 L188.948,16.064 L188.948,19.328 L188.096,19.328 L188.096,16.832 L182.216,16.832 L182.216,19.328 L181.364,19.328 L181.364,16.136 C181.064,16.232 180.752,16.316 180.44,16.388 L180.008,15.704 C181.232,15.44 182.072,15.092 182.54,14.66 C182.624,14.564 182.708,14.468 182.78,14.372 L180.416,14.372 L180.836,12.272 L183.26,12.272 L183.26,11.504 L180.524,11.504 L180.524,10.796 L183.26,10.796 L183.26,10.172 L184.1,10.172 L184.1,10.796 L185.852,10.796 L185.852,10.172 L186.692,10.172 L186.692,10.796 L189.344,10.796 L189.344,12.956 L186.692,12.956 Z M184.1,11.504 L184.1,12.272 L185.852,12.272 L185.852,11.504 L184.1,11.504 Z M186.692,11.504 L186.692,12.272 L188.528,12.272 L188.528,11.504 L186.692,11.504 Z M185.804,19.16 C187.352,19.532 188.768,19.988 190.052,20.54 L189.584,21.26 C188.216,20.636 186.812,20.156 185.372,19.808 L185.804,19.16 Z M184.688,17.252 L185.552,17.336 C185.396,18.704 185.036,19.616 184.472,20.096 C183.848,20.684 182.468,21.056 180.308,21.212 L179.96,20.444 C181.868,20.348 183.128,20.072 183.74,19.592 C184.28,19.124 184.592,18.344 184.688,17.252 Z" id="自营数据全部免费" fill="#362F10" fill-rule="nonzero"></path>
                            <path d="M211.486015,15.4999593 L208.185364,12.1108421 C208.0668,11.9896224 208,11.8238017 208,11.6507077 C208,11.4776137 208.0668,11.311793 208.185364,11.1905733 C208.434099,10.9364756 208.832192,10.9364756 209.080927,11.1905733 L212.816212,15.0263749 C213.061263,15.2905339 213.061263,15.709587 212.816212,15.9737461 L209.080927,19.8097499 C208.832023,20.0634167 208.434268,20.0634167 208.185364,19.8097499 C208.0668,19.6885302 208,19.5227095 208,19.3496155 C208,19.1765215 208.0668,19.0107008 208.185364,18.8894811 L211.486015,15.4999593 Z" id="路径" fill="#9A6C14" fill-rule="nonzero"></path>
                            <rect id="矩形" fill="#9D7A1A" x="83" y="11" width="1" height="10"></rect>
                        </g>
                    </g>
                </g>
            </g>
        </g>
    </g>
</svg>