<?xml version="1.0" encoding="UTF-8"?>
<svg width="15px" height="15px" viewBox="0 0 15 15" version="1.1" xmlns="http://www.w3.org/2000/svg" xmlns:xlink="http://www.w3.org/1999/xlink">
    <!-- Generator: Sketch 54.1 (76490) - https://sketchapp.com -->
    <title>小程序</title>
    <desc>Created with Sketch.</desc>
    <g id="Page-1" stroke="none" stroke-width="1" fill="none" fill-rule="evenodd">
        <g id="选场景-帮助按钮" transform="translate(-1152.000000, -1882.000000)" fill="#ffffff" fill-rule="nonzero">
            <g id="Group" transform="translate(919.000000, 1870.000000)">
                <g id="更多打开1" transform="translate(215.000000, 0.000000)">
                    <g id="小程序" transform="translate(18.000000, 12.000000)">
                        <path d="M7.5,15 C3.35786438,15 4.62592927e-16,11.6421356 0,7.5 C-5.78241159e-16,3.35786438 3.35786438,6.9388939e-16 7.5,0 C11.6421356,2.31296463e-16 15,3.35786438 15,7.5 C15,11.6421356 11.6421356,15 7.5,15 Z M7.5,0.789166667 C3.79370909,0.789166667 0.789166667,3.79370909 0.789166667,7.5 C0.789166667,11.2062909 3.79370909,14.2108333 7.5,14.2108333 C11.2062909,14.2108333 14.2108333,11.2062909 14.2108333,7.5 C14.2108333,3.79370909 11.2062909,0.789166667 7.5,0.789166667 Z M9.47333333,7.10583333 C10.1121224,7.10617043 10.6881995,6.72163262 10.9328871,6.13156523 C11.1775747,5.54149785 11.0426737,4.86213348 10.5911008,4.41032217 C10.1395279,3.95851087 9.46023483,3.82325126 8.87003838,4.06762735 C8.27984192,4.31200344 7.89500009,4.88787756 7.895,5.52666667 L7.895,8.685 C7.8945398,9.9928858 6.83399716,11.0528067 5.52611131,11.0524999 C4.21822546,11.0521932 3.15818015,9.99177486 3.1583335,8.68388899 C3.15848684,7.37600311 4.21878078,6.31583341 5.52666667,6.31583333 L5.52666667,7.105 C4.88787765,7.10466291 4.31180047,7.48920072 4.06711288,8.0792681 C3.8224253,8.66933548 3.95732632,9.34869985 4.40889921,9.80051116 C4.86047209,10.2523225 5.53976517,10.3875821 6.12996162,10.143206 C6.72015808,9.8988299 7.10499991,9.32295578 7.105,8.68416667 L7.20916667,4.73666667 C7.6125,3.60416667 8.8425,2.955 10.0141667,3.2275 C11.1848917,3.50025259 11.9645691,4.60808688 11.8261831,5.80217246 C11.6877971,6.99625803 10.6754091,7.89640474 9.47333333,7.89416667 L9.47333333,7.105 L9.47333333,7.10583333 Z" id="形状"></path>
                    </g>
                </g>
            </g>
        </g>
    </g>
</svg>
