<?xml version="1.0" encoding="UTF-8"?>
<svg width="226px" height="30px" viewBox="0 0 226 30" version="1.1" xmlns="http://www.w3.org/2000/svg" xmlns:xlink="http://www.w3.org/1999/xlink">
    <!-- Generator: Sketch 55.2 (78181) - https://sketchapp.com -->
    <title>广告条</title>
    <desc>Created with Sketch.</desc>
    <defs>
        <linearGradient x1="15.6604487%" y1="50%" x2="100%" y2="50%" id="linearGradient-1">
            <stop stop-color="#FED549" offset="0%"></stop>
            <stop stop-color="#F2AD3C" offset="100%"></stop>
        </linearGradient>
        <rect id="path-2" x="0" y="0" width="226" height="30" rx="4"></rect>
        <linearGradient x1="82.385998%" y1="39.7793018%" x2="33.1614536%" y2="70.3445325%" id="linearGradient-4">
            <stop stop-color="#FFEFAF" offset="0%"></stop>
            <stop stop-color="#F8D55D" offset="100%"></stop>
        </linearGradient>
        <linearGradient x1="82.385998%" y1="39.6146078%" x2="33.1614536%" y2="70.6723597%" id="linearGradient-5">
            <stop stop-color="#FFEFAF" offset="0%"></stop>
            <stop stop-color="#F8D55D" offset="100%"></stop>
        </linearGradient>
    </defs>
    <g id="页面1" stroke="none" stroke-width="1" fill="none" fill-rule="evenodd">
        <g id="数据详情页new1" transform="translate(-871.000000, -471.000000)">
            <g id="详情页主要内容" transform="translate(0.000000, 220.000000)">
                <g id="详情页右方" transform="translate(705.000000, 65.000000)">
                    <g id="Group-7" transform="translate(0.000000, 128.000000)">
                        <g id="广告条原件转曲" transform="translate(166.000000, 17.000000)">
                            <g id="广告条" transform="translate(0.000000, 41.000000)">
                                <g id="背景">
                                    <mask id="mask-3" fill="white">
                                        <use xlink:href="#path-2"></use>
                                    </mask>
                                    <use id="蒙版" fill="url(#linearGradient-1)" xlink:href="#path-2"></use>
                                    <ellipse id="椭圆形" fill="#F9C037" mask="url(#mask-3)" cx="14.5" cy="49" rx="35.5" ry="27"></ellipse>
                                    <ellipse id="椭圆形" fill="url(#linearGradient-4)" opacity="0.699999988" mask="url(#mask-3)" cx="-15.5" cy="5" rx="35.5" ry="27"></ellipse>
                                    <ellipse id="椭圆形" fill="url(#linearGradient-5)" opacity="0.300000012" mask="url(#mask-3)" cx="180" cy="34.5" rx="15" ry="11.5"></ellipse>
                                    <path d="M210.013998,11 L226.986002,11 C224.667412,12.8761998 221.714945,14 218.5,14 C215.285055,14 212.332588,12.8761998 210.013998,11 Z M207.273324,8 C206.653802,7.07448255 206.14569,6.06808704 205.768176,5 L231.231824,5 C230.85431,6.06808704 230.346198,7.07448255 229.726676,8 L207.273324,8 Z M205.082393,2 C205.02795,1.50749922 205,1.00701364 205,0.5 C205,-0.0070136434 205.02795,-0.507499222 205.082393,-1 L231.917607,-1 C231.97205,-0.507499222 232,-0.0070136434 232,0.5 C232,1.00701364 231.97205,1.50749922 231.917607,2 L205.082393,2 Z M205.768176,-4 C206.14569,-5.06808704 206.653802,-6.07448255 207.273324,-7 L229.726676,-7 C230.346198,-6.07448255 230.85431,-5.06808704 231.231824,-4 L205.768176,-4 Z M210.013998,-10 C212.332588,-11.8761998 215.285055,-13 218.5,-13 C221.714945,-13 224.667412,-11.8761998 226.986002,-10 L210.013998,-10 Z" id="形状结合" fill="#FFFFFF" opacity="0.200000003" mask="url(#mask-3)" transform="translate(218.500000, 0.500000) rotate(-45.000000) translate(-218.500000, -0.500000) "></path>
                                </g>
                                <path d="M12.54,15.352 C12.54,15.2399994 12.577333,15.146667 12.652,15.072 C12.726667,14.997333 12.8153328,14.96 12.918,14.96 L13.632,14.96 C13.7253338,14.96 13.8069996,14.990333 13.877,15.051 C13.9470003,15.111667 13.9913332,15.1933328 14.01,15.296 L21.99,15.296 C22.0086668,15.1559993 22.0599996,15.0626669 22.144,15.016 C22.2280004,14.9693331 22.3213328,14.946 22.424,14.946 L23.04,14.946 C23.1520006,14.946 23.2523329,14.976333 23.341,15.037 C23.4296671,15.097667 23.474,15.2119992 23.474,15.38 L23.474,19.776 C23.474,20.2146689 23.4086673,20.5413323 23.278,20.756 C23.1473327,20.9706677 22.9046684,21.1293328 22.55,21.232 C22.4099993,21.2693335 22.2583341,21.2926666 22.095,21.302 C21.9316659,21.3113334 21.7706675,21.3253332 21.612,21.344 C21.4813327,21.3533334 21.385667,21.3346669 21.325,21.288 C21.264333,21.2413331 21.2060003,21.1713338 21.15,21.078 C21.1033331,20.9939996 21.0450004,20.8773341 20.975,20.728 C20.9049997,20.5786659 20.8466669,20.4526672 20.8,20.35 C20.7439997,20.1726658 20.8046658,20.0700001 20.982,20.042 L21.388,20 C21.6213345,19.9813332 21.7799996,19.9253338 21.864,19.832 C21.9480004,19.7386662 21.99,19.5426682 21.99,19.244 L21.99,15.926 L14.01,15.926 L14.01,20.924 C14.01,21.0266672 13.972667,21.1176663 13.898,21.197 C13.823333,21.2763337 13.7346672,21.316 13.632,21.316 L12.918,21.316 C12.8153328,21.316 12.726667,21.2763337 12.652,21.197 C12.577333,21.1176663 12.54,21.0266672 12.54,20.924 L12.54,15.352 Z M14.234,11.866 C14.234,11.7539994 14.271333,11.660667 14.346,11.586 C14.420667,11.511333 14.5093328,11.474 14.612,11.474 L15.284,11.474 C15.4520008,11.474 15.5686663,11.5626658 15.634,11.74 L20.254,11.74 C20.2726668,11.665333 20.3169996,11.6000003 20.387,11.544 C20.4570004,11.4879997 20.5339996,11.46 20.618,11.46 L21.29,11.46 C21.3833338,11.46 21.4696663,11.497333 21.549,11.572 C21.6283337,11.646667 21.668,11.7353328 21.668,11.838 L21.668,14.176 C21.668,14.2786672 21.630667,14.3696663 21.556,14.449 C21.481333,14.5283337 21.3926672,14.568 21.29,14.568 L20.618,14.568 C20.5246662,14.568 20.4430003,14.537667 20.373,14.477 C20.3029997,14.416333 20.2586668,14.3346672 20.24,14.232 L15.662,14.232 C15.6526666,14.3346672 15.610667,14.4209996 15.536,14.491 C15.461333,14.5610004 15.3773338,14.596 15.284,14.596 L14.612,14.596 C14.5186662,14.596 14.4323337,14.558667 14.353,14.484 C14.2736663,14.409333 14.234,14.3206672 14.234,14.218 L14.234,11.866 Z M15.34,17.06 C15.34,16.9573328 15.377333,16.868667 15.452,16.794 C15.526667,16.719333 15.6153328,16.682 15.718,16.682 L16.306,16.682 C16.380667,16.682 16.4506663,16.7029998 16.516,16.745 C16.5813337,16.7870002 16.6279999,16.845333 16.656,16.92 L19.302,16.92 C19.3300001,16.845333 19.3766663,16.7846669 19.442,16.738 C19.5073337,16.6913331 19.577333,16.668 19.652,16.668 L20.268,16.668 C20.3613338,16.668 20.4476663,16.7076663 20.527,16.787 C20.6063337,16.8663337 20.646,16.9573328 20.646,17.06 L20.646,19.496 C20.646,19.5986672 20.608667,19.6896663 20.534,19.769 C20.459333,19.8483337 20.3706672,19.888 20.268,19.888 L19.652,19.888 C19.5493328,19.888 19.460667,19.8483337 19.386,19.769 C19.311333,19.6896663 19.274,19.5986672 19.274,19.496 L19.274,19.44 L16.684,19.44 L16.684,19.664 C16.684,19.7666672 16.646667,19.855333 16.572,19.93 C16.497333,20.004667 16.4086672,20.042 16.306,20.042 L15.718,20.042 C15.6153328,20.042 15.526667,20.004667 15.452,19.93 C15.377333,19.855333 15.34,19.7666672 15.34,19.664 L15.34,17.06 Z M11.812,10.354 C11.812,10.3073331 11.8329998,10.2606669 11.875,10.214 C11.9170002,10.1673331 11.9659997,10.144 12.022,10.144 L17.51,10.144 C17.3979994,9.96666578 17.2766673,9.79866746 17.146,9.64 C17.0153327,9.48133254 16.8660008,9.31333422 16.698,9.136 C16.6699999,9.11733324 16.6583333,9.08700021 16.663,9.045 C16.6676667,9.00299979 16.6816665,8.96100021 16.705,8.919 C16.7283335,8.87699979 16.7563332,8.83966683 16.789,8.807 C16.8216668,8.77433317 16.8613331,8.76266662 16.908,8.772 C17.1973348,8.8186669 17.5099983,8.88633289 17.846,8.975 C18.1820017,9.06366711 18.4433324,9.1546662 18.63,9.248 C18.7980008,9.3413338 18.8889999,9.44633275 18.903,9.563 C18.9170001,9.67966725 18.8913337,9.79866606 18.826,9.92 C18.7979999,9.9666669 18.7723334,10.0086665 18.749,10.046 C18.7256665,10.0833335 18.7000001,10.1159999 18.672,10.144 L23.964,10.144 C24.0200003,10.144 24.0713331,10.1673331 24.118,10.214 C24.1646669,10.2606669 24.188,10.3073331 24.188,10.354 L24.188,10.578 C24.188,10.6340003 24.1646669,10.6829998 24.118,10.725 C24.0713331,10.7670002 24.0200003,10.788 23.964,10.788 L12.022,10.788 C11.9659997,10.788 11.9170002,10.7670002 11.875,10.725 C11.8329998,10.6829998 11.812,10.6340003 11.812,10.578 L11.812,10.354 Z M15.662,13.616 L20.24,13.616 L20.24,12.356 L15.662,12.356 L15.662,13.616 Z M16.684,18.852 L19.274,18.852 L19.274,17.508 L16.684,17.508 L16.684,18.852 Z M28.2605002,20.826 C28.5405016,20.4526648 28.7994991,20.0980017 29.0375003,19.762 C29.2755014,19.4259983 29.4971659,19.0946683 29.7025002,18.768 C29.4878325,18.8986673 29.2475016,19.0386659 28.9815002,19.188 C28.7154989,19.3373341 28.4425017,19.4866659 28.1625003,19.636 C27.8824988,19.7853341 27.6095016,19.9253327 27.3435002,20.056 C27.0774989,20.1866673 26.8418346,20.2939996 26.6365002,20.378 C26.5058329,20.4340003 26.3891674,20.4573334 26.2865002,20.448 C26.1838331,20.4386666 26.1045005,20.3826672 26.0485002,20.28 C25.9831666,20.1679994 25.9248338,20.0280008 25.8735002,19.86 C25.8221667,19.6919992 25.7825004,19.5566672 25.7545002,19.454 C25.7078334,19.3419994 25.7101667,19.2440004 25.7615002,19.16 C25.8128338,19.0759996 25.8991663,19.0200001 26.0205002,18.992 L30.0805003,17.928 L30.1645002,17.928 C30.3978348,17.4706644 30.5961661,16.9900025 30.7595003,16.486 C30.9228344,15.9819975 31.0558331,15.4313363 31.1585002,14.834 C31.2611674,14.2366637 31.3381667,13.5763369 31.3895002,12.853 C31.4408338,12.1296631 31.4665002,11.3106712 31.4665002,10.396 L30.4165002,10.396 C30.3511666,10.396 30.2951671,10.3726669 30.2485002,10.326 C30.2018334,10.2793331 30.1785002,10.2233337 30.1785002,10.158 L30.1785002,9.99 C30.1785002,9.92466634 30.2018334,9.8686669 30.2485002,9.822 C30.2951671,9.7753331 30.3511666,9.752 30.4165002,9.752 L35.0365003,9.752 L35.1205002,9.472 C35.1485004,9.36933282 35.2091664,9.2946669 35.3025003,9.248 C35.3958341,9.2013331 35.4891664,9.19199986 35.5825003,9.22 L36.2545002,9.388 C36.3571674,9.42533352 36.4295,9.48833289 36.4715002,9.577 C36.5135005,9.66566711 36.525167,9.7566662 36.5065003,9.85 L35.4705003,13.308 L36.3945003,13.308 L36.4365003,13.182 C36.4645004,13.0886662 36.5228331,13.0163336 36.6115002,12.965 C36.7001674,12.9136664 36.7958331,12.9019999 36.8985002,12.93 L37.6405003,13.154 C37.7431674,13.1820001 37.8155,13.2403329 37.8575003,13.329 C37.8995005,13.4176671 37.9065004,13.5133328 37.8785003,13.616 C37.5611653,14.5680048 37.2321686,15.4079964 36.8915002,16.136 C36.5508319,16.8640036 36.1425026,17.5219971 35.6665002,18.11 C36.0678356,18.4460017 36.4901647,18.7399987 36.9335003,18.992 C37.3768358,19.2440013 37.8504977,19.4773323 38.3545003,19.692 C38.4665008,19.7386669 38.5248336,19.8039996 38.5295002,19.888 C38.5341669,19.9720004 38.4991673,20.0653328 38.4245003,20.168 C38.3404998,20.2986673 38.2471674,20.4293327 38.1445003,20.56 C38.0418331,20.6906673 37.8925012,20.8586656 37.6965002,21.064 C37.5658329,21.1946673 37.4445008,21.26 37.3325003,21.26 C37.2204997,21.26 37.0758345,21.2040006 36.8985002,21.092 C36.5438318,20.8586655 36.1728355,20.5903348 35.7855002,20.287 C35.398165,19.9836652 35.0225021,19.6080022 34.6585003,19.16 C34.1451644,19.6080022 33.5548369,20.0186648 32.8875003,20.392 C32.2201636,20.7653352 31.4431714,21.1246649 30.5565002,21.47 C30.5098333,21.4886668 30.4655005,21.4793334 30.4235002,21.442 C30.3815,21.4046665 30.3465004,21.3603336 30.3185002,21.309 C30.2905001,21.2576664 30.2765002,21.2040003 30.2765002,21.148 C30.2765002,21.0919997 30.2998334,21.0500001 30.3465002,21.022 C31.1211708,20.5179975 31.7978307,20.0350023 32.3765002,19.573 C32.9551698,19.1109977 33.468498,18.6326691 33.9165002,18.138 C33.6458322,17.6993311 33.3961681,17.209336 33.1675003,16.668 C32.9388324,16.126664 32.7451677,15.5153367 32.5865003,14.834 C32.4651663,15.5433369 32.3018346,16.1873304 32.0965003,16.766 C31.8911659,17.3446696 31.6275019,17.8859975 31.3055003,18.39 C30.9834986,18.8940025 30.5985025,19.3746644 30.1505003,19.832 C29.702498,20.2893356 29.1845032,20.7559976 28.5965002,21.232 C28.5498334,21.2600001 28.4985005,21.2646668 28.4425003,21.246 C28.3865,21.2273332 28.3375005,21.1946669 28.2955002,21.148 C28.2535,21.1013331 28.2255003,21.047667 28.2115003,20.987 C28.1975002,20.926333 28.2138333,20.8726669 28.2605002,20.826 Z M25.6145002,13.21 C25.5865001,13.0979994 25.6028333,13.0093337 25.6635002,12.944 C25.7241672,12.8786663 25.8198329,12.846 25.9505003,12.846 L26.0065003,12.846 C26.1745011,12.5659986 26.3401661,12.260335 26.5035003,11.929 C26.6668344,11.597665 26.8231662,11.266335 26.9725002,10.935 C27.1218343,10.603665 27.2594996,10.2816682 27.3855002,9.969 C27.5115009,9.65633177 27.6211665,9.37400126 27.7145003,9.122 C27.7518338,9.01933282 27.8101665,8.94233359 27.8895002,8.891 C27.968834,8.83966641 28.0738329,8.83266648 28.2045003,8.87 L29.0025002,9.15 C29.2358348,9.25266718 29.2778343,9.43466536 29.1285003,9.696 C29.0164997,9.91066774 28.8718345,10.1556653 28.6945002,10.431 C28.517166,10.7063347 28.3258346,10.9863319 28.1205002,11.271 C27.9151659,11.5556681 27.7005014,11.833332 27.4765003,12.104 C27.2524991,12.374668 27.0285014,12.6126656 26.8045003,12.818 L28.4285002,12.762 C28.5311674,12.5379989 28.6268331,12.3256677 28.7155002,12.125 C28.8041674,11.9243323 28.8765,11.7446675 28.9325002,11.586 C28.9605004,11.4833328 29.0164998,11.3993337 29.1005002,11.334 C29.1845007,11.2686663 29.2918329,11.2546665 29.4225002,11.292 L30.2485002,11.614 C30.4351678,11.7073338 30.4678342,11.8799987 30.3465002,12.132 C30.1784994,12.4493349 29.9825014,12.7829983 29.7585002,13.133 C29.5344991,13.4830017 29.2988348,13.8306649 29.0515002,14.176 C28.8041657,14.5213351 28.5475016,14.8503318 28.2815003,15.163 C28.0154989,15.4756682 27.7518349,15.7579987 27.4905003,16.01 L30.0805003,15.688 C30.1365005,15.688 30.1878333,15.6973332 30.2345002,15.716 C30.2811672,15.7346668 30.3138335,15.7859996 30.3325003,15.87 C30.3605004,16.0193341 30.3231674,16.1173331 30.2205003,16.164 C30.0711662,16.2293337 29.8355019,16.3273327 29.5135002,16.458 C29.1914986,16.5886673 28.8485021,16.721666 28.4845002,16.857 C28.1204984,16.992334 27.7728352,17.1206661 27.4415003,17.242 C27.1101653,17.3633339 26.8605011,17.4473331 26.6925003,17.494 C26.5618329,17.5313335 26.4545007,17.5360001 26.3705002,17.508 C26.2864998,17.4799999 26.2211671,17.4006673 26.1745003,17.27 C26.1371667,17.1766662 26.0998338,17.0646673 26.0625002,16.934 C26.0251667,16.8033327 25.9925004,16.6820006 25.9645003,16.57 C25.9458335,16.4486661 25.9738332,16.3483337 26.0485003,16.269 C26.1231673,16.1896663 26.2258329,16.1453334 26.3565002,16.136 L26.5525003,16.122 C26.8045015,15.729998 27.0611656,15.3076689 27.3225003,14.855 C27.5838349,14.4023311 27.8264991,13.9520022 28.0505002,13.504 C27.7238319,13.6253339 27.3901686,13.7419994 27.0495003,13.854 C26.7088319,13.9660006 26.4405012,14.0499997 26.2445003,14.106 C26.1138329,14.1433335 26.0158339,14.1503335 25.9505003,14.127 C25.8851666,14.1036665 25.8291671,14.0313339 25.7825002,13.91 C25.7451667,13.8073328 25.7125004,13.6906673 25.6845002,13.56 C25.6565001,13.4293327 25.633167,13.3126672 25.6145002,13.21 Z M34.8685002,10.396 L32.8805002,10.396 C32.8711669,10.9840029 32.857167,11.5346641 32.8385003,12.048 C32.8198335,12.5613359 32.7871672,13.0466644 32.7405002,13.504 C33.029835,14.3066707 33.3354986,15.0019971 33.6575002,15.59 C33.9795019,16.1780029 34.3271651,16.6959978 34.7005003,17.144 C35.0178352,16.677331 35.2978324,16.1850026 35.5405003,15.667 C35.7831681,15.1489974 36.0071659,14.5726698 36.2125003,13.938 L35.2885002,13.938 L35.2325003,14.12 C35.2045001,14.2226672 35.1438341,14.2973331 35.0505002,14.344 C34.9571665,14.3906669 34.8685007,14.4000001 34.7845003,14.372 L34.2245002,14.204 C34.1311664,14.1666665 34.0588338,14.1036671 34.0075002,14.015 C33.9561667,13.9263329 33.9445001,13.8306672 33.9725003,13.728 L34.8685002,10.396 Z M40.9710005,19.888 C40.9243336,19.5613317 41.0643322,19.398 41.3910005,19.398 L41.8110005,19.398 C42.1843357,18.9779979 42.5343322,18.5393356 42.8610005,18.082 C43.1876688,17.6246644 43.467666,17.200002 43.7010005,16.808 L40.2150005,16.808 C40.1403335,16.808 40.0796674,16.7870002 40.0330005,16.745 C39.9863336,16.7029998 39.9630005,16.644667 39.9630005,16.57 L39.9630005,16.388 C39.9630005,16.313333 39.9863336,16.2526669 40.0330005,16.206 C40.0796674,16.1593331 40.1403335,16.136 40.2150005,16.136 L51.7930005,16.136 C51.8676675,16.136 51.9260003,16.1593331 51.9680005,16.206 C52.0100007,16.2526669 52.0310005,16.313333 52.0310005,16.388 L52.0310005,16.57 C52.0310005,16.7286675 51.951668,16.808 51.7930005,16.808 L45.8990005,16.808 C45.5069985,17.2280021 45.0636696,17.6643311 44.5690005,18.117 C44.0743314,18.5696689 43.575003,18.9873314 43.0710005,19.37 L48.4750005,19.244 C48.2883329,19.0013321 48.0923349,18.7540013 47.8870005,18.502 C47.6816661,18.2499987 47.4670016,17.9980013 47.2430005,17.746 C47.2150004,17.7086665 47.2080004,17.6643336 47.2220005,17.613 C47.2360006,17.5616664 47.2640003,17.5126669 47.3060005,17.466 C47.3480007,17.4193331 47.3946669,17.3843334 47.4460005,17.361 C47.4973341,17.3376666 47.5463336,17.3353332 47.5930005,17.354 C47.9103354,17.5033341 48.2393321,17.6806656 48.5800005,17.886 C48.9206689,18.0913344 49.2426657,18.2989989 49.5460005,18.509 C49.8493354,18.719001 50.1199993,18.921999 50.3580005,19.118 C50.5960017,19.314001 50.7663333,19.4819993 50.8690005,19.622 C50.9996678,19.7620007 51.0790004,19.9043326 51.1070005,20.049 C51.1350006,20.1936674 51.0976677,20.3686656 50.9950005,20.574 C50.9203335,20.7326675 50.8456675,20.8609995 50.7710005,20.959 C50.6963335,21.0570005 50.6030011,21.1526662 50.4910005,21.246 C50.3603332,21.3486672 50.2110013,21.3883334 50.0430005,21.365 C49.8749997,21.3416665 49.7396677,21.2226677 49.6370005,21.008 C49.5623335,20.8586659 49.4643344,20.6883343 49.3430005,20.497 C49.2216666,20.3056657 49.081668,20.0980011 48.9230005,19.874 C48.5589987,19.948667 48.0736702,20.0373328 47.4670005,20.14 C46.8603308,20.2426672 46.2163372,20.3429995 45.5350005,20.441 C44.8536638,20.5390005 44.1770039,20.6323329 43.5050005,20.721 C42.8329971,20.8096671 42.245003,20.8819997 41.7410005,20.938 C41.5543329,20.9660001 41.4143343,20.9590002 41.3210005,20.917 C41.2276667,20.8749998 41.1576674,20.7746675 41.1110005,20.616 L40.9710005,19.888 Z M39.6270005,14.246 C40.9523405,13.4246626 42.0676626,12.6080041 42.9730005,11.796 C43.8783384,10.9839959 44.582998,10.0880049 45.0870005,9.108 C45.1430008,8.98666606 45.2176667,8.9026669 45.3110005,8.856 C45.4043343,8.8093331 45.5349997,8.80466648 45.7030005,8.842 L46.1790005,8.954 C46.337668,8.99133352 46.5009997,9.04733296 46.6690005,9.122 C46.8836682,9.2153338 46.9303344,9.36933226 46.8090005,9.584 C46.771667,9.64933366 46.7366673,9.71233303 46.7040005,9.773 C46.6713337,9.83366697 46.6316674,9.89666634 46.5850005,9.962 C47.0703363,10.3633353 47.5346649,10.7133318 47.9780005,11.012 C48.4213361,11.3106682 48.8693316,11.5766655 49.3220005,11.81 C49.7746694,12.0433345 50.2413314,12.2509991 50.7220005,12.433 C51.2026696,12.6150009 51.7229977,12.7899992 52.2830005,12.958 C52.5070016,13.032667 52.5303347,13.1866655 52.3530005,13.42 C52.2503333,13.5506673 52.1383344,13.6883326 52.0170005,13.833 C51.8956666,13.9776674 51.7650012,14.1199993 51.6250005,14.26 C51.4943332,14.3813339 51.3636678,14.4466666 51.2330005,14.456 C51.1023332,14.4653334 50.9436681,14.4186672 50.7570005,14.316 C50.448999,14.1759993 50.110669,13.9916678 49.7420005,13.763 C49.373332,13.5343322 48.9976691,13.2566683 48.6150005,12.93 C48.2323319,12.6033317 47.8450025,12.2276688 47.4530005,11.803 C47.0609985,11.3783312 46.6830023,10.895336 46.3190005,10.354 C46.0203323,10.7646687 45.6516694,11.1799979 45.2130005,11.6 C44.7743316,12.0200021 44.2796699,12.4213314 43.7290005,12.804 C43.1783311,13.1866686 42.5763371,13.5389984 41.9230005,13.861 C41.2696639,14.1830016 40.5790041,14.4559989 39.8510005,14.68 C39.8043336,14.6986668 39.7576674,14.6916668 39.7110005,14.659 C39.6643336,14.6263332 39.629334,14.5820003 39.6060005,14.526 C39.582667,14.4699997 39.5710005,14.4163336 39.5710005,14.365 C39.5710005,14.3136664 39.589667,14.2740001 39.6270005,14.246 Z M42.7350005,13.728 C42.7350005,13.6813331 42.7560003,13.6346669 42.7980005,13.588 C42.8400007,13.5413331 42.8890002,13.518 42.9450005,13.518 L48.8530005,13.518 C48.9183342,13.518 48.9720003,13.5413331 49.0140005,13.588 C49.0560007,13.6346669 49.0770005,13.6813331 49.0770005,13.728 L49.0770005,13.952 C49.0770005,14.0173337 49.0536674,14.0709998 49.0070005,14.113 C48.9603336,14.1550002 48.9136674,14.176 48.8670005,14.176 L42.9450005,14.176 C42.8890002,14.176 42.8400007,14.1550002 42.7980005,14.113 C42.7560003,14.0709998 42.7350005,14.0173337 42.7350005,13.952 L42.7350005,13.728 Z M62.4035007,9.682 C62.4035007,9.57933282 62.4408337,9.48833373 62.5155008,9.409 C62.5901678,9.32966627 62.6788336,9.29 62.7815007,9.29 L63.4955007,9.29 C63.5981679,9.29 63.6868337,9.32966627 63.7615007,9.409 C63.8361678,9.48833373 63.8735007,9.57933282 63.8735007,9.682 L63.8735007,12.93 C63.8735007,13.0326672 63.8361678,13.1236663 63.7615007,13.203 C63.6868337,13.2823337 63.5981679,13.322 63.4955007,13.322 L62.7815007,13.322 C62.6881669,13.322 62.6018345,13.2823337 62.5225007,13.203 C62.443167,13.1236663 62.4035007,13.0326672 62.4035007,12.93 L62.4035007,12.902 L57.6995007,12.902 L57.6995007,12.986 C57.6995007,13.0886672 57.6621678,13.1796663 57.5875007,13.259 C57.5128337,13.3383337 57.4241679,13.378 57.3215007,13.378 L56.6075007,13.378 C56.5048336,13.378 56.4161678,13.3383337 56.3415008,13.259 C56.2668337,13.1796663 56.2295007,13.0886672 56.2295007,12.986 L56.2295007,9.766 C56.2295007,9.66333282 56.2668337,9.57233373 56.3415008,9.493 C56.4161678,9.41366627 56.5048336,9.374 56.6075007,9.374 L57.3215007,9.374 C57.4241679,9.374 57.5128337,9.41366627 57.5875007,9.493 C57.6621678,9.57233373 57.6995007,9.66333282 57.6995007,9.766 L62.4035007,9.766 L62.4035007,9.682 Z M63.2995007,14.218 C63.2995007,14.1059994 63.3368337,14.012667 63.4115007,13.938 C63.4861678,13.863333 63.5748336,13.826 63.6775007,13.826 L64.4195007,13.826 C64.5221679,13.826 64.6108337,13.863333 64.6855008,13.938 C64.7601678,14.012667 64.7975007,14.1059994 64.7975007,14.218 L64.7975007,18.166 C64.7975007,18.2780006 64.7601678,18.371333 64.6855008,18.446 C64.6108337,18.520667 64.5221679,18.558 64.4195007,18.558 L63.6775007,18.558 C63.5748336,18.558 63.4861678,18.520667 63.4115007,18.446 C63.3368337,18.371333 63.2995007,18.2780006 63.2995007,18.166 L63.2995007,14.932 L56.8595007,14.932 L56.8595007,18.53 C56.8595007,18.6420006 56.8221678,18.735333 56.7475007,18.81 C56.6728337,18.884667 56.5841679,18.922 56.4815007,18.922 L55.7395007,18.922 C55.6368336,18.922 55.5481678,18.884667 55.4735007,18.81 C55.3988337,18.735333 55.3615007,18.6420006 55.3615007,18.53 L55.3615007,14.26 C55.3615007,14.1479994 55.3988337,14.054667 55.4735007,13.98 C55.5481678,13.905333 55.6368336,13.868 55.7395007,13.868 L56.4815007,13.868 C56.5841679,13.868 56.6728337,13.9076663 56.7475007,13.987 C56.8221678,14.0663337 56.8595007,14.1573328 56.8595007,14.26 L56.8595007,14.316 L63.2995007,14.316 L63.2995007,14.218 Z M53.8215008,21.218 C53.802834,21.143333 53.8005007,21.0780003 53.8145008,21.022 C53.8285008,20.9659997 53.8588339,20.9286668 53.9055008,20.91 C54.8108386,20.6486654 55.5878308,20.3780014 56.2365008,20.098 C56.8851707,19.8179986 57.421832,19.5263348 57.8465008,19.223 C58.2711695,18.9196652 58.5931663,18.6000017 58.8125008,18.264 C59.0318352,17.9279983 59.1648339,17.5733352 59.2115008,17.2 L59.3095008,15.898 C59.3375009,15.5806651 59.4728329,15.422 59.7155008,15.422 L60.4575008,15.464 C60.7281688,15.4920001 60.8588341,15.6506652 60.8495008,15.94 L60.6955008,17.424 C60.6675006,17.5733341 60.6371676,17.7179993 60.6045008,17.858 C60.5718339,17.9980007 60.527501,18.1333327 60.4715008,18.264 C60.919503,18.3666672 61.3744984,18.4763328 61.8365008,18.593 C62.2985031,18.7096672 62.734832,18.8286661 63.1455008,18.95 C63.5561695,19.0713339 63.9248325,19.1879994 64.2515008,19.3 C64.5781691,19.4120006 64.8348332,19.5099996 65.0215008,19.594 C65.2175017,19.6873338 65.3458338,19.7853328 65.4065008,19.888 C65.4671677,19.9906672 65.4835009,20.1633321 65.4555008,20.406 C65.4461674,20.5086672 65.4298342,20.6136661 65.4065008,20.721 C65.3831673,20.8283339 65.3528343,20.9333328 65.3155008,21.036 C65.2408337,21.2226676 65.1265015,21.3253332 64.9725008,21.344 C64.8185,21.3626668 64.6435017,21.2973341 64.4475008,21.148 C64.2234996,20.9706658 63.9505024,20.7816677 63.6285008,20.581 C63.3064991,20.3803323 62.958836,20.175001 62.5855008,19.965 C62.2121656,19.754999 61.8225028,19.5496677 61.4165008,19.349 C61.0104987,19.1483323 60.6115027,18.9546676 60.2195008,18.768 C60.0421665,19.0573348 59.7995023,19.3279987 59.4915008,19.58 C59.1834992,19.8320013 58.7845032,20.0699989 58.2945008,20.294 C57.8044983,20.5180011 57.2095043,20.7209991 56.5095008,20.903 C55.8094973,21.0850009 54.9741723,21.2506659 54.0035008,21.4 C53.9568339,21.4093334 53.9195009,21.3953335 53.8915008,21.358 C53.8635006,21.3206665 53.8401675,21.2740003 53.8215008,21.218 Z M57.6995007,12.3 L62.4035007,12.3 L62.4035007,10.368 L57.6995007,10.368 L57.6995007,12.3 Z" id="高级会员" fill="#362F10" fill-rule="nonzero"></path>
                                <path d="M80.412,12.74 L87.6,12.74 L87.6,15.164 L80.412,15.164 L80.412,12.74 Z M86.772,14.42 L86.772,13.484 L81.24,13.484 L81.24,14.42 L86.772,14.42 Z M83.868,10.172 C84.06,10.484 84.24,10.82 84.408,11.204 L89.208,11.204 L89.208,12.02 L78.792,12.02 L78.792,11.204 L83.46,11.204 C83.28,10.892 83.088,10.592 82.884,10.328 L83.868,10.172 Z M78.528,18.2 L83.784,18.2 L83.784,17.732 C84.528,17.444 85.404,17.096 86.412,16.676 L79.692,16.676 L79.692,15.896 L88.116,15.896 L88.116,16.52 C87.108,16.988 85.944,17.468 84.636,17.972 L84.636,18.2 L89.472,18.2 L89.472,18.992 L84.636,18.992 L84.636,20.108 C84.636,20.828 84.276,21.2 83.568,21.2 L81.876,21.2 L81.648,20.408 C82.32,20.444 82.848,20.468 83.232,20.468 C83.592,20.468 83.784,20.264 83.784,19.856 L83.784,18.992 L78.528,18.992 L78.528,18.2 Z M95.664,14.156 L91.668,14.156 L91.668,13.364 L100.416,13.364 L100.416,16.1 L96.504,16.1 L96.504,17.276 L100.836,17.276 C100.836,18.692 100.74,19.592 100.56,19.952 C100.368,20.36 99.948,20.564 99.3,20.576 C98.796,20.576 98.304,20.564 97.824,20.552 L97.608,19.736 C98.16,19.76 98.688,19.772 99.168,19.772 C99.528,19.772 99.756,19.628 99.852,19.364 C99.924,19.124 99.96,18.68 99.96,18.032 L96.504,18.032 L96.504,21.212 L95.664,21.212 L95.664,18.032 L95.628,18.032 C94.836,19.184 93.372,20.168 91.212,20.984 L90.72,20.192 C92.64,19.556 93.96,18.836 94.68,18.032 L91.392,18.032 L91.944,15.308 L95.664,15.308 L95.664,14.156 Z M95.664,16.1 L92.7,16.1 L92.412,17.276 L95.664,17.276 L95.664,16.1 Z M96.504,15.308 L99.528,15.308 L99.528,14.156 L96.504,14.156 L96.504,15.308 Z M92.376,11.792 C92.088,12.224 91.764,12.632 91.404,13.004 L90.648,12.536 C91.416,11.804 91.968,11 92.316,10.112 L93.144,10.292 C93.036,10.556 92.928,10.796 92.82,11.036 L96.012,11.036 L96.012,11.792 L94.032,11.792 C94.332,12.152 94.572,12.488 94.752,12.8 L93.972,13.088 C93.732,12.644 93.444,12.212 93.108,11.792 L92.376,11.792 Z M97.44,11.756 C97.176,12.212 96.888,12.632 96.552,13.016 L95.808,12.548 C96.48,11.816 96.96,11 97.272,10.112 L98.1,10.292 C98.016,10.532 97.92,10.772 97.824,11 L101.364,11 L101.364,11.756 L99.192,11.756 C99.492,12.14 99.732,12.488 99.912,12.812 L99.144,13.1 C98.904,12.632 98.604,12.188 98.268,11.756 L97.44,11.756 Z M103.476,11.108 L112.548,11.108 L112.548,11.948 L103.476,11.948 L103.476,11.108 Z M104.28,15.26 L111.732,15.26 L111.732,16.1 L104.28,16.1 L104.28,15.26 Z M102.588,19.7 L113.412,19.7 L113.412,20.564 L102.588,20.564 L102.588,19.7 Z M114.78,11.972 L119.952,11.972 C119.712,11.444 119.424,10.928 119.076,10.448 L119.892,10.148 C120.228,10.652 120.54,11.264 120.828,11.972 L125.316,11.972 L125.316,12.8 L118.992,12.8 L118.884,14.936 L118.884,14.96 L123.864,14.96 C123.84,17.336 123.744,18.86 123.588,19.532 C123.348,20.552 122.76,21.08 121.812,21.116 C121.428,21.116 120.96,21.092 120.432,21.068 L120.168,20.288 C120.792,20.312 121.308,20.324 121.728,20.324 C122.34,20.3 122.712,19.868 122.856,19.028 C122.928,18.524 122.964,17.432 122.988,15.776 L118.788,15.776 C118.632,16.748 118.332,17.624 117.9,18.416 C117.312,19.448 116.496,20.384 115.44,21.236 L114.816,20.636 C116.088,19.556 116.94,18.56 117.36,17.636 C117.768,16.712 117.996,15.68 118.056,14.54 C118.092,13.784 118.116,13.208 118.128,12.8 L114.78,12.8 L114.78,11.972 Z M133.896,12.86 L133.74,13.484 C134.04,14.888 134.424,16.1 134.904,17.108 C135.372,15.896 135.624,14.48 135.672,12.86 L133.896,12.86 Z M134.508,17.972 C134.04,17.048 133.644,15.992 133.32,14.792 C133.104,15.344 132.864,15.836 132.612,16.268 L132.072,15.608 C132.78,14.264 133.26,12.452 133.5,10.172 L134.34,10.316 C134.268,10.928 134.172,11.504 134.076,12.032 L137.244,12.032 L137.244,12.86 L136.464,12.86 C136.404,14.864 136.032,16.58 135.36,17.996 C135.984,19.076 136.716,19.904 137.58,20.492 L137.112,21.2 C136.272,20.6 135.552,19.784 134.952,18.776 C134.376,19.736 133.632,20.54 132.732,21.188 L132.288,20.468 C133.224,19.82 133.956,18.992 134.508,17.972 Z M128.82,15.776 L129.624,15.872 C129.54,16.1 129.456,16.316 129.384,16.532 L131.892,16.532 L131.892,17.24 C131.628,18.032 131.184,18.716 130.56,19.292 C131.136,19.556 131.688,19.82 132.216,20.108 L131.748,20.78 C131.22,20.468 130.608,20.144 129.9,19.832 C129.108,20.384 128.112,20.828 126.912,21.164 L126.504,20.444 C127.488,20.18 128.34,19.856 129.036,19.46 C128.508,19.232 127.956,19.004 127.368,18.788 C127.68,18.26 127.956,17.768 128.196,17.288 L126.78,17.288 L126.78,16.532 L128.532,16.532 C128.64,16.268 128.736,16.016 128.82,15.776 Z M129.768,18.956 C130.368,18.476 130.824,17.912 131.112,17.288 L129.048,17.288 C128.856,17.696 128.64,18.08 128.4,18.44 C128.88,18.608 129.336,18.776 129.768,18.956 Z M127.728,10.424 C128.016,10.892 128.256,11.396 128.472,11.924 L127.848,12.212 C127.596,11.624 127.332,11.108 127.044,10.652 L127.728,10.424 Z M131.376,10.388 L132,10.676 C131.76,11.204 131.46,11.72 131.076,12.224 L130.464,11.912 C130.848,11.396 131.16,10.892 131.376,10.388 Z M126.804,12.5 L129.144,12.5 L129.144,10.208 L129.948,10.208 L129.948,12.5 L132.132,12.5 L132.132,13.256 L129.948,13.256 L129.948,13.388 C130.596,13.712 131.268,14.084 131.94,14.492 L131.496,15.164 C130.896,14.684 130.38,14.3 129.948,14.012 L129.948,15.572 L129.144,15.572 L129.144,13.292 C128.748,14.24 128.028,15.056 126.996,15.752 L126.576,15.056 C127.5,14.516 128.148,13.916 128.508,13.256 L126.804,13.256 L126.804,12.5 Z M139.968,21.092 L138.948,21.092 L138.768,20.276 C139.08,20.312 139.392,20.336 139.68,20.336 C139.98,20.336 140.136,20.156 140.136,19.82 L140.136,16.88 C139.656,17.06 139.188,17.228 138.72,17.372 L138.504,16.532 C139.056,16.4 139.608,16.232 140.136,16.04 L140.136,13.328 L138.696,13.328 L138.696,12.5 L140.136,12.5 L140.136,10.232 L140.976,10.232 L140.976,12.5 L142.128,12.5 L142.128,13.328 L140.976,13.328 L140.976,15.692 C141.36,15.524 141.732,15.344 142.092,15.152 L142.092,16.004 C141.72,16.196 141.348,16.364 140.976,16.532 L140.976,20.036 C140.976,20.732 140.64,21.092 139.968,21.092 Z M143.556,15.788 C143.412,17.84 142.944,19.64 142.152,21.2 L141.48,20.6 C142.332,19.016 142.764,16.952 142.776,14.432 L142.776,10.676 L149.1,10.676 L149.1,13.592 L146.844,13.592 L146.844,15.008 L149.412,15.008 L149.412,15.788 L146.844,15.788 L146.844,17.264 L148.86,17.264 L148.86,21.2 L148.056,21.2 L148.056,20.612 L144.804,20.612 L144.804,21.2 L144,21.2 L144,17.264 L146.004,17.264 L146.004,15.788 L143.556,15.788 Z M146.004,13.592 L143.616,13.592 L143.616,14.432 C143.616,14.624 143.604,14.816 143.604,15.008 L146.004,15.008 L146.004,13.592 Z M144.804,19.844 L148.056,19.844 L148.056,18.032 L144.804,18.032 L144.804,19.844 Z M148.26,11.48 L143.616,11.48 L143.616,12.812 L148.26,12.812 L148.26,11.48 Z M153.504,11.264 C154.536,11.264 155.316,11.648 155.844,12.416 C156.348,13.136 156.6,14.168 156.6,15.488 C156.6,16.856 156.324,17.96 155.796,18.824 C155.22,19.712 154.452,20.168 153.492,20.168 C151.896,20.168 150.984,19.4 150.756,17.876 L151.728,17.876 C151.908,18.848 152.496,19.34 153.504,19.34 C154.164,19.34 154.692,19.004 155.088,18.344 C155.46,17.708 155.652,16.904 155.652,15.944 C155.652,15.884 155.64,15.776 155.64,15.632 L155.592,15.632 C155.376,16.064 155.064,16.412 154.668,16.664 C154.284,16.904 153.84,17.036 153.336,17.036 C152.508,17.036 151.848,16.76 151.344,16.22 C150.852,15.704 150.612,15.032 150.612,14.204 C150.612,13.352 150.876,12.656 151.428,12.104 C151.968,11.54 152.664,11.264 153.504,11.264 Z M153.528,12.092 C152.94,12.092 152.472,12.284 152.112,12.68 C151.752,13.076 151.584,13.58 151.584,14.204 C151.584,14.804 151.752,15.296 152.112,15.656 C152.46,16.028 152.928,16.22 153.528,16.22 C154.08,16.22 154.548,16.028 154.932,15.644 C155.292,15.26 155.484,14.768 155.484,14.18 C155.484,13.58 155.304,13.088 154.956,12.704 C154.596,12.296 154.116,12.092 153.528,12.092 Z M158.784,18.572 C158.976,18.572 159.156,18.644 159.3,18.788 C159.444,18.932 159.516,19.1 159.516,19.316 C159.516,19.52 159.444,19.688 159.3,19.832 C159.156,19.976 158.976,20.048 158.784,20.048 C158.568,20.048 158.4,19.976 158.268,19.832 C158.124,19.688 158.052,19.52 158.052,19.316 C158.052,19.1 158.124,18.932 158.268,18.788 C158.4,18.644 158.568,18.572 158.784,18.572 Z M161.628,11.432 L166.608,11.432 L166.608,12.308 L162.432,12.308 L162.144,15.176 L162.192,15.176 C162.432,14.888 162.744,14.672 163.116,14.528 C163.452,14.384 163.812,14.324 164.208,14.324 C165.024,14.324 165.684,14.576 166.188,15.092 C166.692,15.62 166.956,16.34 166.956,17.264 C166.956,18.128 166.644,18.836 166.032,19.388 C165.456,19.904 164.736,20.168 163.896,20.168 C163.14,20.168 162.492,19.964 161.964,19.556 C161.364,19.1 161.04,18.476 160.98,17.696 L161.952,17.696 C162,18.236 162.216,18.656 162.6,18.944 C162.936,19.196 163.38,19.328 163.908,19.328 C164.508,19.328 165,19.136 165.396,18.752 C165.78,18.368 165.984,17.876 165.984,17.276 C165.984,16.592 165.792,16.064 165.432,15.692 C165.084,15.308 164.592,15.128 163.968,15.128 C163.56,15.128 163.2,15.212 162.876,15.392 C162.54,15.56 162.276,15.824 162.108,16.16 L161.172,16.16 L161.628,11.432 Z M178.188,10.232 L178.608,11.012 C177.216,11.516 175.668,11.804 173.94,11.888 L173.94,14.084 L178.92,14.084 L178.92,14.912 L177.096,14.912 L177.096,21.272 L176.22,21.272 L176.22,14.912 L173.94,14.912 L173.94,15.44 C173.868,17.828 173.28,19.736 172.188,21.164 L171.576,20.528 C172.512,19.292 173.028,17.6 173.1,15.44 L173.1,11.168 C174.984,11.12 176.676,10.808 178.188,10.232 Z M169.788,21.068 L168.66,21.068 L168.468,20.24 C168.828,20.276 169.164,20.3 169.488,20.3 C169.824,20.3 169.992,20.12 169.992,19.76 L169.992,16.868 C169.44,17.06 168.876,17.24 168.3,17.408 L168.096,16.544 C168.744,16.4 169.368,16.22 169.992,16.016 L169.992,13.232 L168.288,13.232 L168.288,12.404 L169.992,12.404 L169.992,10.208 L170.844,10.208 L170.844,12.404 L172.332,12.404 L172.332,13.232 L170.844,13.232 L170.844,15.704 C171.36,15.488 171.876,15.26 172.38,15.008 L172.38,15.884 C171.876,16.124 171.36,16.34 170.844,16.556 L170.844,19.976 C170.844,20.696 170.484,21.068 169.788,21.068 Z M181.644,14.384 C181.224,14.96 180.756,15.512 180.252,16.028 L180,15.164 C181.296,13.724 182.232,12.08 182.82,10.232 L183.6,10.592 C183.312,11.456 182.94,12.284 182.508,13.064 L182.508,21.2 L181.644,21.2 L181.644,14.384 Z M183.372,13.124 L185.844,13.124 C185.856,12.884 185.868,12.644 185.868,12.404 L185.868,10.232 L186.696,10.232 L186.696,12.404 C186.696,12.644 186.684,12.884 186.672,13.124 L190.704,13.124 L190.704,13.964 L188.208,13.964 L188.208,19.856 C188.208,20.096 188.316,20.216 188.556,20.216 L189.6,20.216 C189.732,20.216 189.84,20.144 189.936,20.012 C190.044,19.832 190.116,19.196 190.152,18.092 L190.932,18.344 C190.848,19.616 190.716,20.396 190.548,20.66 C190.38,20.876 190.128,20.996 189.816,21.008 L188.328,21.008 C187.692,21.008 187.38,20.672 187.38,20.012 L187.38,13.964 L186.624,13.964 C186.36,17.168 185.352,19.568 183.624,21.164 L182.988,20.612 C184.596,19.148 185.532,16.94 185.796,13.964 L183.372,13.964 L183.372,13.124 Z M188.268,10.448 C189.012,10.964 189.648,11.492 190.152,12.02 L189.564,12.608 C189.108,12.092 188.496,11.552 187.704,10.988 L188.268,10.448 Z M192.252,10.976 L197.136,10.976 L197.136,10.172 L198,10.172 L198,10.976 L202.884,10.976 L202.884,11.72 L198,11.72 L198,12.404 L201.804,12.404 L201.804,15.884 L201.24,15.884 C201.936,16.484 202.476,17 202.86,17.456 L202.224,17.9 C202.032,17.648 201.804,17.396 201.552,17.132 C199.512,17.276 196.536,17.408 192.648,17.504 L192.54,16.736 C194.22,16.712 195.744,16.688 197.136,16.652 L197.136,15.884 L193.332,15.884 L193.332,12.404 L197.136,12.404 L197.136,11.72 L192.252,11.72 L192.252,10.976 Z M200.94,16.52 C200.772,16.364 200.616,16.208 200.448,16.064 L200.748,15.884 L198,15.884 L198,16.628 C199.08,16.592 200.052,16.556 200.94,16.52 Z M200.976,15.236 L200.976,14.432 L198,14.432 L198,15.236 L200.976,15.236 Z M197.136,15.236 L197.136,14.432 L194.16,14.432 L194.16,15.236 L197.136,15.236 Z M194.16,13.844 L197.136,13.844 L197.136,13.064 L194.16,13.064 L194.16,13.844 Z M198,13.064 L198,13.844 L200.976,13.844 L200.976,13.064 L198,13.064 Z M193.332,17.996 L194.112,18.152 C193.824,19.16 193.416,20.036 192.888,20.78 L192.168,20.324 C192.696,19.616 193.092,18.836 193.332,17.996 Z M199.212,21.008 L196.044,21.008 C195.336,21.008 194.988,20.672 194.988,20 L194.988,17.9 L195.828,17.9 L195.828,19.82 C195.828,20.084 195.984,20.216 196.296,20.216 L199.056,20.216 C199.284,20.216 199.44,20.156 199.536,20.048 C199.656,19.916 199.74,19.532 199.788,18.896 L200.58,19.148 C200.496,20.036 200.34,20.564 200.124,20.756 C199.932,20.924 199.632,21.008 199.212,21.008 Z M197.556,17.66 C198.168,18.212 198.636,18.704 198.972,19.124 L198.324,19.58 C197.976,19.124 197.508,18.608 196.908,18.056 L197.556,17.66 Z M201.18,17.744 C201.972,18.632 202.584,19.424 203.016,20.096 L202.332,20.552 C201.888,19.832 201.288,19.04 200.532,18.164 L201.18,17.744 Z" id="享第三方数据9.5折优惠" fill="#362F10" fill-rule="nonzero"></path>
                                <path d="M211.486015,15.4999593 L208.185364,12.1108421 C208.0668,11.9896224 208,11.8238017 208,11.6507077 C208,11.4776137 208.0668,11.311793 208.185364,11.1905733 C208.434099,10.9364756 208.832192,10.9364756 209.080927,11.1905733 L212.816212,15.0263749 C213.061263,15.2905339 213.061263,15.709587 212.816212,15.9737461 L209.080927,19.8097499 C208.832023,20.0634167 208.434268,20.0634167 208.185364,19.8097499 C208.0668,19.6885302 208,19.5227095 208,19.3496155 C208,19.1765215 208.0668,19.0107008 208.185364,18.8894811 L211.486015,15.4999593 Z" id="路径" fill="#9A6C14" fill-rule="nonzero"></path>
                                <rect id="矩形" fill="#9D7A1A" x="72" y="11" width="1" height="10"></rect>
                            </g>
                        </g>
                    </g>
                </g>
            </g>
        </g>
    </g>
</svg>