<?xml version="1.0" encoding="UTF-8"?>
<svg width="16px" height="14px" viewBox="0 0 16 14" version="1.1" xmlns="http://www.w3.org/2000/svg" xmlns:xlink="http://www.w3.org/1999/xlink">
    <!-- Generator: Sketch 52.6 (67491) - http://www.bohemiancoding.com/sketch -->
    <title>微信</title>
    <desc>Created with Sketch.</desc>
    <g id="Page-1" stroke="none" stroke-width="1" fill="none" fill-rule="evenodd">
        <g id="选场景-帮助按钮" transform="translate(-1151.000000, -1913.000000)">
            <g id="Group" transform="translate(919.000000, 1881.000000)">
                <g id="更多打开1" transform="translate(215.000000, 19.000000)">
                    <g id="微信" transform="translate(17.000000, 12.000000)">
                        <rect id="Rectangle" fill="#000000" opacity="0" x="0" y="0" width="16" height="16"></rect>
                        <path d="M5.8578125,4.9078125 C5.8578125,5.3390625 5.5078125,5.6890625 5.0765625,5.6890625 C4.6453125,5.6890625 4.2953125,5.3390625 4.2953125,4.9078125 C4.2953125,4.4765625 4.6453125,4.1265625 5.0765625,4.1265625 C5.5078125,4.1265625 5.8578125,4.4765625 5.8578125,4.9078125 Z M9.0140625,5.6890625 C9.4453125,5.6890625 9.7953125,5.3390625 9.7953125,4.9078125 C9.7953125,4.4765625 9.4453125,4.1265625 9.0140625,4.1265625 C8.5828125,4.1265625 8.2328125,4.4765625 8.2328125,4.9078125 C8.2328125,5.3390625 8.5828125,5.6890625 9.0140625,5.6890625 Z M13.73125,13.2703125 L13.9078125,14.98125 L12.3453125,14.1453125 C11.7421875,14.3953125 11.0703125,14.534375 10.359375,14.534375 C8.1546875,14.534375 6.30625,13.190625 5.80625,11.3796875 C5.38125,11.3046875 4.971875,11.190625 4.584375,11.04375 L2.8125,11.9921875 L3.0015625,10.1703125 C1.7453125,9.2109375 0.9515625,7.8109375 0.9515625,6.253125 C0.9515625,3.3625 3.6796875,1.01875 7.0453125,1.01875 C10.4109375,1.01875 13.1390625,3.3625 13.1390625,6.253125 C13.1390625,6.5125 13.1171875,6.7671875 13.075,7.0171875 C14.2703125,7.7671875 15.0484375,9 15.0484375,10.39375 C15.0484375,11.5109375 14.546875,12.5265625 13.73125,13.2703125 Z M4.8625,10.3125 C5.128125,10.4125 5.4,10.49375 5.6765625,10.55625 C5.6734375,10.5015625 5.671875,10.4484375 5.671875,10.39375 C5.671875,8.10625 7.7703125,6.253125 10.359375,6.253125 C11.065625,6.253125 11.7359375,6.390625 12.3359375,6.6390625 C12.3484375,6.5125 12.35625,6.3828125 12.35625,6.253125 C12.35625,3.7984375 9.9734375,1.8 7.04375,1.8 C4.1140625,1.8 1.73125,3.7984375 1.73125,6.253125 C1.73125,6.884375 1.8859375,7.4953125 2.1921875,8.06875 C2.49375,8.6328125 2.925,9.13125 3.475,9.55 L3.8234375,9.815625 L3.778125,10.2515625 L3.740625,10.609375 L4.2140625,10.35625 L4.528125,10.1890625 L4.8625,10.3125 Z M12.984375,6.9625 C13.0177083,6.99392857 13.0510417,7.02821429 13.084375,7.0625 C13.0510417,7.02821429 13.0177083,6.99392857 12.984375,6.9625 Z M12.8953125,6.909375 C12.9274554,6.940625 12.9631696,6.978125 12.9953125,7.009375 C12.9595982,6.978125 12.9274554,6.940625 12.8953125,6.909375 Z M12.8046875,6.859375 C12.8380208,6.889375 12.8713542,6.929375 12.9046875,6.959375 C12.8713542,6.929375 12.8380208,6.889375 12.8046875,6.859375 Z M12.7140625,6.8278125 C12.7504261,6.8478125 12.7776989,6.8678125 12.8140625,6.8878125 C12.7776989,6.8678125 12.7413352,6.8478125 12.7140625,6.8278125 Z M12.63875,6.79515625 L12.69875,6.82515625 L12.63875,6.79515625 Z M12.561875,6.75984375 C12.571875,6.75984375 12.571875,6.76984375 12.581875,6.76984375 C12.581875,6.75984375 12.571875,6.75984375 12.561875,6.75984375 Z M14.2671875,10.39375 C14.2671875,8.540625 12.515625,7.034375 10.3609375,7.034375 C8.20625,7.034375 6.4546875,8.540625 6.4546875,10.39375 C6.4546875,12.246875 8.20625,13.753125 10.3609375,13.753125 C10.9515625,13.753125 11.51875,13.6421875 12.046875,13.4234375 L12.3890625,13.2828125 L12.715625,13.4578125 L12.9796875,13.6 L12.9546875,13.353125 L12.9140625,12.9609375 L13.2046875,12.6953125 C13.8890625,12.0671875 14.2671875,11.25 14.2671875,10.39375 Z M8.8609375,8.93125 C8.515625,8.93125 8.2359375,9.2109375 8.2359375,9.55625 C8.2359375,9.9015625 8.515625,10.18125 8.8609375,10.18125 C9.20625,10.18125 9.4859375,9.9015625 9.4859375,9.55625 C9.4859375,9.2109375 9.20625,8.93125 8.8609375,8.93125 Z M11.8609375,8.93125 C11.515625,8.93125 11.2359375,9.2109375 11.2359375,9.55625 C11.2359375,9.9015625 11.515625,10.18125 11.8609375,10.18125 C12.20625,10.18125 12.4859375,9.9015625 12.4859375,9.55625 C12.4859375,9.2109375 12.20625,8.93125 11.8609375,8.93125 Z" id="Shape" fill="#5C6066" fill-rule="nonzero"></path>
                    </g>
                </g>
            </g>
        </g>
    </g>
</svg>