<?xml version="1.0" encoding="UTF-8"?>
<svg width="20px" height="20px" viewBox="0 0 20 20" version="1.1" xmlns="http://www.w3.org/2000/svg" xmlns:xlink="http://www.w3.org/1999/xlink">
    <!-- Generator: Sketch 63.1 (92452) - https://sketch.com -->
    <title>图标书打开</title>
    <desc>Created with Sketch.</desc>
    <defs>
        <linearGradient x1="100%" y1="50%" x2="0%" y2="50%" id="linearGradient-1">
            <stop stop-color="#7981FF" offset="0%"></stop>
            <stop stop-color="#2CAFFF" offset="100%"></stop>
        </linearGradient>
    </defs>
    <g id="图标书打开" stroke="none" stroke-width="1" fill="none" fill-rule="evenodd">
        <g fill="url(#linearGradient-1)" fill-rule="nonzero" id="形状结合">
            <path d="M19.4099379,3.98757764 L19.4099379,5.13082298 L19.4079969,5.13082298 L19.4079969,16.5108696 C19.371118,17.0329969 18.8315217,17.9180901 18.5054348,17.935559 L18.5054348,17.935559 L11.0423137,17.9375 C10.8823758,17.9343944 10.6578416,17.5325311 10.5724379,17.366941 L10.5376553,17.296972 C13.1832298,16.8660714 15.8540373,16.4351708 18.7791149,15.9596273 L18.7791149,15.9596273 L18.7791149,3.98757764 L19.4099379,3.98757764 Z M0.659937888,3.98951863 L0.659937888,15.9557453 C3.58501553,16.4332298 6.2189441,16.8641304 8.86451863,17.2930901 C8.86451863,17.2950311 8.5636646,17.929736 8.36180124,17.935559 L8.36180124,17.935559 L0.935559006,17.933618 C0.603649068,17.9180901 0.0155279503,16.992236 -1.17239551e-12,16.4759317 L-1.17239551e-12,16.4759317 L-1.17239551e-12,3.98951863 L0.659937888,3.98951863 Z M17.7232143,2.02135093 C17.7232143,5.52449811 17.7194542,11.3952276 17.7179771,13.5664195 L17.7173913,14.4068323 L17.7232143,15.441382 C17.7232143,15.441382 13.8625776,15.140528 10.1766304,16.5613354 L10.1766304,16.5613354 L10.1746894,6.07608696 C10.0854037,3.8109472 11.1374224,2.88509317 13.0434783,2.53959627 C14.5108696,2.27562112 16.0151398,2.19992236 17.7232143,2.02135093 Z M1.74495342,2.01746894 C3.45496894,2.19992236 4.95729814,2.27368012 6.42468944,2.53765528 C8.32880435,2.88315217 9.38470497,3.80900621 9.29347826,6.07414596 L9.29347826,6.07414596 L9.29153727,16.5593944 C5.60559006,15.138587 1.74495342,15.439441 1.74301242,15.435559 L1.74301242,15.435559 L1.7507764,14.4010093 C1.7507764,14.4010093 1.74536192,6.93804912 1.74497517,2.49785209 Z"></path>
        </g>
    </g>
</svg>