<?xml version="1.0" encoding="UTF-8"?>
<svg width="172px" height="73px" viewBox="0 0 172 73" version="1.1" xmlns="http://www.w3.org/2000/svg" xmlns:xlink="http://www.w3.org/1999/xlink">
    <title>微信公众号首图</title>
    <g id="页面-1" stroke="none" stroke-width="1" fill="none" fill-rule="evenodd">
        <g id="画板" transform="translate(-370.000000, -86.000000)">
            <g id="微信公众号首图" transform="translate(370.000000, 86.000000)">
                <rect id="矩形" fill="#F5F6F7" x="0" y="0" width="172" height="73"></rect>
                <g id="小加号" transform="translate(57.000000, 13.000000)">
                    <g id="Group-3">
                        <path d="M57.974026,39.2727273 L57.974026,41.1428571 L51.1167532,41.143 L51.1168831,48 L49.2467532,48 L49.2467532,39.2727273 L57.974026,39.2727273 Z M8.72727273,39.2727273 L8.72727273,48 L6.85714286,48 L6.85727273,41.143 L0,41.1428571 L0,39.2727273 L8.72727273,39.2727273 Z M47.3766234,9.97402597 L47.3766234,38.025974 L10.5974026,38.025974 L10.5974026,9.97402597 L47.3766234,9.97402597 Z M51.1168831,0 L51.1167532,6.857 L57.974026,6.85714286 L57.974026,8.72727273 L49.2467532,8.72727273 L49.2467532,0 L51.1168831,0 Z M8.72727273,0 L8.72727273,8.72727273 L0,8.72727273 L0,6.85714286 L6.85727273,6.857 L6.85714286,0 L8.72727273,0 Z" id="Combined-Shape" fill="#D5D8DB" fill-rule="nonzero"></path>
                        <path d="M28.987013,16.2077922 C29.5034351,16.2077922 29.9220779,16.626435 29.9220779,17.1428571 L29.9218052,23.0647922 L35.8441558,23.0649351 C36.3605779,23.0649351 36.7792208,23.4835779 36.7792208,24 C36.7792208,24.5164221 36.3605779,24.9350649 35.8441558,24.9350649 L29.9218052,24.9347922 L29.9220779,30.8571429 C29.9220779,31.373565 29.5034351,31.7922078 28.987013,31.7922078 C28.4705909,31.7922078 28.0519481,31.373565 28.0519481,30.8571429 L28.0518052,24.9347922 L22.1298701,24.9350649 C21.613448,24.9350649 21.1948052,24.5164221 21.1948052,24 C21.1948052,23.4835779 21.613448,23.0649351 22.1298701,23.0649351 L28.0518052,23.0647922 L28.0519481,17.1428571 C28.0519481,16.626435 28.4705909,16.2077922 28.987013,16.2077922 Z" id="Combined-Shape" fill="#FFFFFF" fill-rule="nonzero"></path>
                    </g>
                </g>
            </g>
        </g>
    </g>
</svg>