<?xml version="1.0" encoding="UTF-8"?>
<svg width="172px" height="430px" viewBox="0 0 172 430" version="1.1" xmlns="http://www.w3.org/2000/svg" xmlns:xlink="http://www.w3.org/1999/xlink">
    <title>新闻长图</title>
    <g id="页面-1" stroke="none" stroke-width="1" fill="none" fill-rule="evenodd">
        <g id="画板" transform="translate(-2066.000000, -86.000000)">
            <g id="新闻长图" transform="translate(2066.000000, 86.000000)">
                <rect id="矩形" fill="#F5F6F7" x="0" y="0" width="172" height="430"></rect>
                <g id="大加号" transform="translate(40.000000, 177.000000)">
                    <g id="Group-3">
                        <path d="M93,63 L93,66 L82,66 L82,77 L79,77 L79,63 L93,63 Z M14,63 L14,77 L11,77 L11,66 L0,66 L0,63 L14,63 Z M76,16 L76,61 L17,61 L17,16 L76,16 Z M82,0 L82,11 L93,11 L93,14 L79,14 L79,0 L82,0 Z M14,0 L14,14 L0,14 L0,11 L11,11 L11,0 L14,0 Z" id="Combined-Shape" fill="#D5D8DB" fill-rule="nonzero"></path>
                        <path d="M46.5,26 C47.3284271,26 48,26.6715729 48,27.5 L48,37 L57.5,37 C58.3284271,37 59,37.6715729 59,38.5 C59,39.3284271 58.3284271,40 57.5,40 L48,40 L48,49.5 C48,50.3284271 47.3284271,51 46.5,51 C45.6715729,51 45,50.3284271 45,49.5 L45,40 L35.5,40 C34.6715729,40 34,39.3284271 34,38.5 C34,37.6715729 34.6715729,37 35.5,37 L45,37 L45,27.5 C45,26.6715729 45.6715729,26 46.5,26 Z" id="Combined-Shape" fill="#FFFFFF" fill-rule="nonzero"></path>
                    </g>
                </g>
            </g>
        </g>
    </g>
</svg>