<?xml version="1.0" encoding="UTF-8"?>
<svg width="20px" height="20px" viewBox="0 0 20 20" version="1.1" xmlns="http://www.w3.org/2000/svg" xmlns:xlink="http://www.w3.org/1999/xlink">
    <!-- Generator: Sketch 64 (93537) - https://sketch.com -->
    <title>叉叉</title>
    <desc>Created with Sketch.</desc>
    <g id="页面-1" stroke="none" stroke-width="1" fill="none" fill-rule="evenodd">
        <g id="首页" transform="translate(-976.000000, -205.000000)" fill="#BEC3C9" fill-rule="nonzero">
            <path d="M986,205 C991.522321,205 996,209.477679 996,215 C996,220.522321 991.522321,225 986,225 C980.477679,225 976,220.522321 976,215 C976,209.477679 980.477679,205 986,205 Z M986,206.696429 C981.415179,206.696429 977.696429,210.415179 977.696429,215 C977.696429,219.584821 981.415179,223.303571 986,223.303571 C990.584821,223.303571 994.303571,219.584821 994.303571,215 C994.303571,210.415179 990.584821,206.696429 986,206.696429 Z M989.691964,211.290179 C989.790179,211.290179 989.870536,211.370536 989.870536,211.46875 C989.870536,211.511161 989.857143,211.553571 989.830357,211.584821 L989.830357,211.584821 L986.926339,215.044643 L989.825893,218.502232 C989.852679,218.535714 989.868304,218.575893 989.868304,218.618304 C989.868304,218.71875 989.787946,218.796875 989.689732,218.796875 L989.689732,218.796875 L988.216518,218.790179 L986,216.147321 L983.783482,218.792411 L982.308036,218.799107 C982.209821,218.799107 982.129464,218.71875 982.129464,218.620536 C982.129464,218.578125 982.145089,218.537946 982.171875,218.504464 L982.171875,218.504464 L985.075893,215.046875 L982.171875,211.587054 C982.145089,211.553571 982.129464,211.513393 982.129464,211.470982 C982.129464,211.370536 982.209821,211.292411 982.308036,211.292411 L982.308036,211.292411 L983.783482,211.299107 L986,213.941964 L988.21875,211.296875 Z" id="叉叉"></path>
        </g>
    </g>
</svg>