<?xml version="1.0" encoding="UTF-8"?>
<svg width="34px" height="16px" viewBox="0 0 34 16" version="1.1" xmlns="http://www.w3.org/2000/svg" xmlns:xlink="http://www.w3.org/1999/xlink">
    <!-- Generator: Sketch 59.1 (86144) - https://sketch.com -->
    <title>形状</title>
    <desc>Created with Sketch.</desc>
    <g id="Page-1" stroke="none" stroke-width="1" fill="none" fill-rule="evenodd">
        <g id="演示用" transform="translate(-280.000000, -288.000000)" fill="#F80400" fill-rule="nonzero">
            <path d="M284.358974,288 L309.641026,288 C312.048487,288 314,290.106824 314,292.705882 L314,299.294118 C314,301.893176 312.048487,304 309.641026,304 L284.358974,304 C281.951513,304 280,301.893176 280,299.294118 L280,292.705882 C280,290.106824 281.951513,288 284.358974,288 Z M286.305692,299.764706 L287.209744,295.165647 L287.306949,295.165647 L289.635513,299.764706 L290.943205,299.764706 L292.511564,291.807059 L290.713487,291.807059 L289.798974,296.450353 L289.702205,296.450353 L287.403718,291.807059 L286.075538,291.807059 L284.507615,299.764706 L286.305692,299.764706 Z M298.185205,298.137882 L295.007513,298.137882 L295.329641,296.511059 L298.312923,296.511059 L298.604103,295.022118 L295.620821,295.022118 L295.932487,293.433882 L299.104513,293.433882 L299.431436,291.807059 L294.379385,291.807059 L292.811462,299.764706 L297.863513,299.764706 L298.185205,298.137882 L298.185205,298.137882 Z M304.992179,294.889882 L305.084154,294.889882 L305.365308,299.764706 L307.158154,299.764706 L310.641846,291.807059 L308.716051,291.807059 L306.703513,297.084706 L306.611538,297.084706 L306.407103,291.807059 L304.931154,291.807059 L302.708949,297.084706 L302.616974,297.084706 L302.647487,291.807059 L300.732154,291.807059 L301.094821,299.764706 L302.836667,299.764706 L304.992179,294.889412 L304.992179,294.889882 Z" id="形状"></path>
        </g>
    </g>
</svg>