<?xml version="1.0" encoding="UTF-8"?>
<svg width="16px" height="16px" viewBox="0 0 16 16" version="1.1" xmlns="http://www.w3.org/2000/svg" xmlns:xlink="http://www.w3.org/1999/xlink">
    <title>剪切</title>
    <g id="剪切" stroke="none" stroke-width="1" fill="none" fill-rule="evenodd">
        <g fill="#D8D8D8" fill-rule="nonzero" id="Shape">
            <path d="M11.6368,9.28306667 C11.0733407,9.28295033 10.5238565,9.45846834 10.0648,9.7852 L8.88626667,8.188 C9.14732279,7.79512673 9.11296503,7.27610057 8.8024,6.92106667 L12.5876,1.79053333 C12.6959,1.64239124 12.6640932,1.43457608 12.5164416,1.32560826 C12.36879,1.21664045 12.1608334,1.24750862 12.0512,1.39466667 L8.22546667,6.58013333 C8.05620964,6.54446835 7.88074928,6.55134017 7.7148,6.60013333 L3.87453333,1.39453333 C3.76490016,1.24737462 3.55694299,1.21650605 3.40929109,1.3254741 C3.26163919,1.43444216 3.22983261,1.64225793 3.33813333,1.7904 L7.16746667,6.98093333 C6.91843152,7.31160699 6.88805127,7.75810773 7.09,8.11946667 L5.88733333,9.7496 C5.4374636,9.44500106 4.90648889,9.2825175 4.3632,9.2832 C2.85853333,9.2832 1.63426667,10.5074667 1.63426667,12.0122667 C1.63426667,13.5169333 2.85853334,14.7413333 4.3632,14.7413333 C5.86786666,14.7413333 7.092,13.5169333 7.092,12.0122667 C7.092,11.3121333 6.8248,10.6749333 6.38986667,10.1913333 L7.58506667,8.57133333 C7.71855476,8.63064265 7.86299592,8.66130233 8.00906667,8.66133333 C8.1328,8.66133333 8.25093334,8.63866666 8.36133333,8.59933333 L9.54306667,10.2012 C9.55173334,10.2130667 9.56266667,10.2222667 9.5728,10.2326667 C9.15973333,10.7109333 8.90813333,11.3322667 8.90813333,12.0124 C8.90813333,13.5170667 10.1324,14.7413333 11.6370667,14.7413333 C13.1417333,14.7413333 14.366,13.5170667 14.366,12.0124 C14.3657333,10.5073333 13.1416,9.28306667 11.6368,9.28306667 Z M6.4252,12.0121333 C6.4252,13.1492 5.50013333,14.0744 4.36306667,14.0744 C3.22600002,14.0744 2.3008,13.1493333 2.3008,12.0121333 C2.3008,10.8749333 3.22586667,9.94973333 4.36306667,9.94973333 C5.50026667,9.94973333 6.4252,10.8749333 6.4252,12.0121333 Z M11.6368,14.0744 C10.4997333,14.0744 9.57453333,13.1493333 9.57453333,12.0121333 C9.57453333,10.8749333 10.4996,9.94973333 11.6368,9.94973333 C12.774,9.94973333 13.6990667,10.8748 13.6990667,12.0121333 C13.6990667,13.1492 12.774,14.0744 11.6368,14.0744 Z"></path>
        </g>
    </g>
</svg>