<?xml version="1.0" encoding="UTF-8"?>
<svg width="16px" height="16px" viewBox="0 0 16 16" version="1.1" xmlns="http://www.w3.org/2000/svg" xmlns:xlink="http://www.w3.org/1999/xlink">
    <title>粘贴</title>
    <g id="粘贴" stroke="none" stroke-width="1" fill="none" fill-rule="evenodd">
        <g fill="#D8D8D8" fill-rule="nonzero" id="Combined-Shape">
            <path d="M13,3 L13,14 L4,14 L4,3 L13,3 Z M12,4 L5,4 L5,13 L12,13 L12,4 Z M11,1 L11,2 L3,2 L3,12 L2,12 L2,1 L11,1 Z M11,10 L11,11 L6,11 L6,10 L11,10 Z M11,8 L11,9 L6,9 L6,8 L11,8 Z M8,6 L8,7 L6,7 L6,6 L8,6 Z"></path>
        </g>
    </g>
</svg>