<?xml version="1.0" encoding="UTF-8"?>
<svg width="172px" height="172px" viewBox="0 0 172 172" version="1.1" xmlns="http://www.w3.org/2000/svg" xmlns:xlink="http://www.w3.org/1999/xlink">
    <!-- Generator: Sketch 64 (93537) - https://sketch.com -->
    <title>图裂了</title>
    <desc>Created with Sketch.</desc>
    <defs>
        <rect id="path-1" x="0" y="0" width="172" height="172" rx="6"></rect>
    </defs>
    <g id="页面-1" stroke="none" stroke-width="1" fill="none" fill-rule="evenodd">
        <g id="信息图模板" transform="translate(-932.000000, -1231.000000)">
            <g id="图裂了" transform="translate(932.000000, 1231.000000)">
                <mask id="mask-2" fill="white">
                    <use xlink:href="#path-1"></use>
                </mask>
                <use id="蒙版" fill="#F8F9FA" xlink:href="#path-1"></use>
                <path d="M107.413322,71.6234498 C107.012837,71.1935528 106.455549,70.9402494 105.865576,70.9199549 L89.0396353,70.270575 L87.7648601,73.0574971 L89.5173348,78.2985341 L86.3508696,84.2511833 L87.6392934,89.0538889 L90.8357854,93.1720398 L95.4762947,88.9294244 C95.6926835,88.7319233 95.979407,88.6277932 96.2733011,88.6399736 C96.5671952,88.652154 96.8441484,88.7796455 97.043149,88.9943624 L102.996649,95.3799315 C103.303352,95.7065026 103.380952,96.1842391 103.193158,96.5897277 C103.005364,96.9952163 102.589293,97.2483158 102.13952,97.2306643 L85.8213056,96.5948131 L85.0023922,98.9136405 L85.8868187,101.005185 L104.645395,101.724914 C105.872331,101.770618 106.904659,100.822432 106.952001,99.6063125 L107.997481,73.2036076 C108.025755,72.6203485 107.815094,72.050507 107.413322,71.6234498 Z M92.156519,80.2962309 C92.2283053,78.4733235 93.7771236,77.0531214 95.616191,77.1238555 C97.4552584,77.1945896 98.8883961,78.7294834 98.8174614,80.5524236 C98.7833763,81.4283709 98.3994799,82.2549808 97.7502959,82.8502554 C97.101112,83.4455301 96.2398681,83.7606622 95.3561874,83.7262679 C93.5171532,83.6546897 92.0847327,82.1191383 92.156519,80.2962309 Z M83.2608364,98.951521 L83.8258866,96.5163464 L70.5758677,97.4200668 C70.1252014,97.4555476 69.6979681,97.2161393 69.4962696,96.8150935 C69.2945712,96.4140476 69.3588443,95.9317661 69.6586847,95.5963915 L79.4856455,84.4189398 C79.6924214,84.1840863 79.9901184,84.0473641 80.3045589,84.0428406 C80.612816,84.0392693 80.9089738,84.1615852 81.1234724,84.3810593 L84.399126,87.7794808 L82.9851355,84.156482 L85.4910105,77.9034946 L83.1898639,72.8978579 L84.1398034,70 L66.0663845,71.2365276 C65.4787611,71.2767467 64.9313726,71.5468713 64.5448052,71.9873947 C64.1582377,72.4279181 63.9642054,73.0026994 64.0054524,73.5851183 L65.8370887,99.9499426 C65.8737157,100.53148 66.1453205,101.073823 66.5904891,101.454339 C67.0343084,101.838225 67.6131804,102.03273 68.2010188,101.995489 L84.3363426,100.894249 L83.2608364,98.951521 Z" id="形状" fill="#DFE1E6" fill-rule="nonzero" mask="url(#mask-2)"></path>
            </g>
        </g>
    </g>
</svg>