<?xml version="1.0" encoding="UTF-8"?>
<svg width="43px" height="30px" viewBox="0 0 43 30" version="1.1" xmlns="http://www.w3.org/2000/svg" xmlns:xlink="http://www.w3.org/1999/xlink">
    <!-- Generator: Sketch 64 (93537) - https://sketch.com -->
    <title>加载中</title>
    <desc>Created with Sketch.</desc>
    <g id="页面-1" stroke="none" stroke-width="1" fill="none" fill-rule="evenodd">
        <g id="信息图模板" transform="translate(-335.000000, -747.000000)" fill="#E1E5EB">
            <g id="内容" transform="translate(270.000000, 328.000000)">
                <g id="5-&lt;v12&gt;" transform="translate(0.000000, 358.000000)">
                    <g id="位图">
                        <path d="M80.3547836,65.2011295 C80.5086208,65.2895934 84.6898712,70.5630864 92.8985347,81.0216086 C93.4164679,81.6671153 94.3575102,81.7688325 95.0004116,81.2488004 C95.0222384,81.231145 96.1186725,80.1238979 98.2897137,77.9270589 C98.7396434,77.2320543 99.6655221,77.0348598 100.357722,77.4866129 C100.474581,77.5628795 102.941449,81.2943859 107.758324,88.681132 C108.208254,89.3761367 108.011855,90.3057675 107.319656,90.7575205 C107.077178,90.9157701 106.794186,91 106.504986,91 L66.4948389,91 C65.6692622,91 65,90.3280256 65,89.4991032 C65,89.2374089 65.0681475,88.9802623 65.1976816,88.7531752 L78.3147089,65.7576156 C78.7250108,65.0383121 79.6383834,64.7891648 80.3547836,65.2011295 Z M101.872693,61 C104.624616,61 106.85549,63.2399146 106.85549,66.0029892 C106.85549,68.7660639 104.624616,71.0059785 101.872693,71.0059785 C99.120771,71.0059785 96.8898971,68.7660639 96.8898971,66.0029892 C96.8898971,63.2399146 99.120771,61 101.872693,61 Z" id="加载中"></path>
                    </g>
                </g>
            </g>
        </g>
    </g>
</svg>