<?xml version="1.0" encoding="UTF-8"?>
<svg width="18px" height="16px" viewBox="0 0 18 16" version="1.1" xmlns="http://www.w3.org/2000/svg" xmlns:xlink="http://www.w3.org/1999/xlink">
    <!-- Generator: Sketch 52.5 (67469) - http://www.bohemiancoding.com/sketch -->
    <title>下载数据图标</title>
    <desc>Created with Sketch.</desc>
    <g id="Page-1" stroke="none" stroke-width="1" fill="none" fill-rule="evenodd">
        <g id="数据详情页2" transform="translate(-720.000000, -642.000000)" fill="#FFFFFF" fill-rule="nonzero">
            <g id="详情页主要内容" transform="translate(0.000000, 220.000000)">
                <g id="Group-2" transform="translate(140.000000, 65.000000)">
                    <g id="详情页右方" transform="translate(565.000000, 0.000000)">
                        <g id="Group" transform="translate(0.000000, 347.000000)">
                            <g id="下载数据图标" transform="translate(15.000000, 10.000000)">
                                <path d="M16.6849999,0 L0.643887468,0 C0.288105804,0 0,0.284548942 0,0.63593824 L0,14.8767534 C0,15.2281427 0.288105804,15.5126917 0.643887468,15.5126917 L16.6849999,15.5126917 C17.0407815,15.5126917 17.3288874,15.2281427 17.3288874,14.8767534 L17.3288874,0.63593824 C17.3288874,0.286458667 17.0407815,8.14164499e-16 16.6849999,0 Z M16.0411124,14.2427249 L1.28777494,14.2427249 L1.28777494,1.27187648 L16.0411124,1.27187648 L16.0411124,14.2427249 Z M3.1904334,8.8439339 L5.49141264,8.8439339 C5.76018248,8.8439339 6.00188198,8.67778788 6.09469459,8.42761397 L7.1040317,5.72726361 L9.00475657,10.0222339 C9.10723716,10.2533105 9.33926868,10.4041788 9.59450335,10.4041788 L9.60610493,10.4041788 C9.86520679,10.3984496 10.0972383,10.2399425 10.1939181,10.0012269 L11.8181388,5.9296944 L14.3318136,5.9296944 C14.6875952,5.9296944 14.975701,5.64514546 14.975701,5.29375616 C14.975701,4.94236686 14.6875952,4.65781792 14.3318136,4.65781792 L11.3792125,4.65781792 C11.1143098,4.65781792 10.8764775,4.81823477 10.7797977,5.06076978 L9.56163222,8.11059972 L7.64157139,3.76979605 C7.53715721,3.5310805 7.29159052,3.38212199 7.03248865,3.38976089 C6.7695196,3.39739979 6.53748808,3.56163609 6.44660906,3.80417109 L5.03895118,7.5701477 L3.1904334,7.5701477 C2.83465174,7.5701477 2.54654593,7.85469664 2.54654593,8.20608594 C2.54654593,8.55938496 2.83465174,8.8439339 3.1904334,8.8439339 Z M3.1904334,11.9319583 L6.90873851,11.9319583 C7.26452017,11.9319583 7.55262598,11.6474094 7.55262598,11.2960201 C7.55262598,10.9446308 7.26452017,10.6600818 6.90873851,10.6600818 L3.1904334,10.6600818 C2.83465174,10.6600818 2.54654593,10.9446308 2.54654593,11.2960201 C2.54654593,11.6474094 2.83465174,11.9319583 3.1904334,11.9319583 Z" id="Shape"></path>
                            </g>
                        </g>
                    </g>
                </g>
            </g>
        </g>
    </g>
</svg>