<?xml version="1.0" encoding="UTF-8"?>
<svg width="16px" height="16px" viewBox="0 0 16 16" version="1.1" xmlns="http://www.w3.org/2000/svg" xmlns:xlink="http://www.w3.org/1999/xlink">
    <!-- Generator: Sketch 52.5 (67469) - http://www.bohemiancoding.com/sketch -->
    <title>编辑数据图标</title>
    <desc>Created with Sketch.</desc>
    <g id="Page-1" stroke="none" stroke-width="1" fill="none" fill-rule="evenodd">
        <g id="数据详情页2" transform="translate(-889.000000, -642.000000)" fill="#FFFFFF" fill-rule="nonzero">
            <g id="详情页主要内容" transform="translate(0.000000, 220.000000)">
                <g id="Group-2" transform="translate(140.000000, 65.000000)">
                    <g id="详情页右方" transform="translate(565.000000, 0.000000)">
                        <g id="Group" transform="translate(167.000000, 347.000000)">
                            <g id="编辑数据图标" transform="translate(17.000000, 10.000000)">
                                <path d="M7.88215247,1.57024037 L7.22738981,1.57024037 C6.24524581,1.57024037 5.30238757,1.76666917 4.43810085,2.13333626 C3.60000463,2.4869081 2.82738469,2.99762298 2.15952677,3.67857615 C1.5047641,4.33333882 0.994049219,5.09286351 0.614286872,5.95715023 C0.234524526,6.86072271 0.051190979,7.80358095 0.051190979,8.74643919 C0.051190979,9.72858319 0.247619779,10.6714414 0.614286872,11.5357282 C0.967858712,12.3738244 1.47857359,13.1464443 2.15952677,13.8143022 C2.81428943,14.4690649 3.57381413,14.9797798 4.43810085,15.3595421 C5.34167333,15.7393045 6.28453157,15.922638 7.22738981,15.922638 C8.20953381,15.922638 9.15239205,15.7262092 10.0166788,15.3595421 C10.854775,15.0059703 11.6273949,14.4952554 12.2952528,13.8143022 C12.9500155,13.1595396 13.4607304,12.4000149 13.8404927,11.5357282 C14.2202551,10.6321557 14.4035886,9.68929743 14.4035886,8.74643919 L14.4035886,8.10477178 L7.88215247,8.10477178 L7.88215247,1.57024037 Z M13.1071586,9.41429711 C12.9631108,10.7238224 12.3607291,11.9809668 11.4178709,12.9500155 C10.3047743,14.063112 8.82501071,14.678589 7.24048506,14.678589 C5.49881637,14.678589 3.91429071,13.9452548 2.74881317,12.6095389 C1.96309797,11.6928712 1.46547834,10.5273936 1.34762106,9.30953509 C1.19047802,7.55477114 1.81905018,5.8261977 3.05000399,4.59524389 C4.00595749,3.63929039 5.26310181,3.03690874 6.6119129,2.89286095 L6.6119129,9.41429711 L13.1071586,9.41429711 Z M15.4119231,4.2547673 C15.0845418,3.4690521 14.5869222,2.73571791 13.9452548,2.08095525 C13.3166826,1.45238309 12.5833484,0.954763459 11.7714427,0.614286872 C10.9202512,0.260715032 10.029774,0.0773814857 9.11310629,0.0773814857 L8.47143887,0.0773814857 L8.47143887,7.58096165 L15.975019,7.58096165 L15.975019,6.93929423 C15.9619238,5.98334074 15.7785902,5.09286351 15.4119231,4.2547673 Z M9.74167845,6.27143631 L9.74167845,1.36071631 C10.9857275,1.5047641 12.1512051,2.06785999 13.0547775,2.95833722 C13.9452548,3.84881445 14.5083507,5.00119674 14.6523984,6.27143631 L9.74167845,6.27143631 Z" id="Shape"></path>
                            </g>
                        </g>
                    </g>
                </g>
            </g>
        </g>
    </g>
</svg>