<?xml version="1.0" encoding="UTF-8"?>
<svg width="462px" height="293px" viewBox="0 0 462 293" version="1.1" xmlns="http://www.w3.org/2000/svg" xmlns:xlink="http://www.w3.org/1999/xlink">
    <!-- Generator: Sketch 61.2 (89653) - https://sketch.com -->
    <title>详情页左方</title>
    <desc>Created with Sketch.</desc>
    <defs>
        <rect id="path-1" x="0" y="0" width="462" height="293"></rect>
        <filter x="-34.8%" y="-27.7%" width="169.5%" height="155.3%" filterUnits="objectBoundingBox" id="filter-3">
            <feGaussianBlur stdDeviation="18.24" in="SourceGraphic"></feGaussianBlur>
        </filter>
    </defs>
    <g id="页面1" stroke="none" stroke-width="1" fill="none" fill-rule="evenodd">
        <g id="数据详情页新无图表" transform="translate(-159.000000, -286.000000)">
            <g id="第一部分" transform="translate(159.000000, 285.000000)">
                <g id="详情页左方" transform="translate(0.000000, 1.000000)">
                    <g id="横版">
                        <mask id="mask-2" fill="white">
                            <use xlink:href="#path-1"></use>
                        </mask>
                        <use id="Mask" fill="#F5F7FB" fill-rule="nonzero" xlink:href="#path-1"></use>
                        <g id="竖版" mask="url(#mask-2)">
                            <g transform="translate(143.000000, 46.000000)">
                                <polygon id="矩形" fill="#E4EAF6" filter="url(#filter-3)" points="12 0 111.147342 0 164.955949 49.92 169.44 197.76 12 197.76"></polygon>
                                <g id="编组" stroke-width="1" fill="none" transform="translate(0.000000, 5.760000)">
                                    <path d="M164.20965,178.9755 C164.20965,182.2491 161.56965,184.7835 158.40165,184.7835 L22.70565,184.7835 C20.27685,184.7835 18.27045,182.7771 18.27045,180.3483 L18.27045,3.4683 C18.27045,1.6731 19.74885,0.1947 21.54405,0.1947 L112.88805,0.1947 C113.09925,0.1947 113.20485,0.4059 113.09925,0.6171 C112.99365,0.7227 112.99365,0.8283 113.09925,0.9339 L164.10405,48.0315 C164.20965,48.0315 164.20965,48.0315 164.20965,48.1371 L164.20965,178.9755 Z" id="路径" fill="#FFFFFF" fill-rule="nonzero"></path>
                                    <path d="M112.99365,44.9691 L112.99365,0.1947 L164.20965,48.1371 L116.05605,48.1371 C114.36645,48.0315 112.99365,46.6587 112.99365,44.9691 Z M5.15205,16.5147 L83.87205,16.5147 C86.5230168,16.5147 88.67205,18.6637332 88.67205,21.3147 L88.67205,54.9147 C88.67205,57.5656668 86.5230168,59.7147 83.87205,59.7147 L5.15205,59.7147 C2.5010832,59.7147 0.35205,57.5656668 0.35205,54.9147 L0.35205,21.3147 C0.35205,18.6637332 2.5010832,16.5147 5.15205,16.5147 Z M125.56005,88.1595 L54.17445,88.1595 C53.01285,88.1595 52.16805,89.1099 52.16805,90.1659 L52.16805,154.5819 C52.16805,155.8491 53.22405,156.9051 54.49125,156.9051 L124.92645,156.9051 C126.51045,156.9051 127.88325,155.5323 127.88325,153.9483 L127.88325,90.3771 C127.88325,89.2155 126.82725,88.1595 125.56005,88.1595 Z M123.34245,92.7003 L123.34245,109.8075 L104.86245,109.8075 L104.86245,92.7003 L123.34245,92.7003 Z M100.21605,152.0475 L79.83525,152.0475 L79.83525,135.2571 L100.21605,135.2571 L100.21605,152.0475 Z M79.83525,130.6107 L79.83525,114.4539 L100.21605,114.4539 L100.21605,130.6107 L79.83525,130.6107 L79.83525,130.6107 Z M75.18885,130.6107 L56.92005,130.6107 L56.92005,114.4539 L75.29445,114.4539 L75.29445,130.6107 L75.18885,130.6107 Z M79.83525,93.0171 L100.21605,93.0171 L100.21605,109.8075 L79.83525,109.8075 L79.83525,93.0171 L79.83525,93.0171 Z M104.86245,114.4539 L123.23685,114.4539 L123.23685,130.6107 L104.86245,130.6107 L104.86245,114.4539 Z M56.70885,92.7003 L75.18885,92.7003 L75.18885,109.8075 L56.70885,109.8075 L56.70885,92.7003 Z M56.70885,152.3643 L56.70885,135.2571 L75.18885,135.2571 L75.18885,152.3643 L56.70885,152.3643 Z M123.34245,152.3643 L104.86245,152.3643 L104.86245,135.2571 L123.34245,135.2571 L123.34245,152.3643 Z" id="形状" fill="#4BC929" fill-rule="nonzero"></path>
                                    <path d="M22.649129,44.7627907 L22.649129,48.6027907 L8.64,48.6027907 L8.64,27.1255814 L22.649129,27.1255814 L22.649129,30.9655814 L13.065478,30.9655814 L13.065478,35.9813953 L22.1069347,35.9813953 L22.1069347,39.5386047 L13.065478,39.5386047 L13.065478,44.7627907 L22.649129,44.7627907 Z M32.5473113,43.2446512 L32.2835411,43.2446512 L29.2794915,48.6027907 L24.7514362,48.6027907 L29.8216858,40.4911628 L24.7221284,32.1860465 L29.6165312,32.1860465 L32.4740418,37.5739535 L32.737812,37.5739535 L35.5953226,32.1860465 L40.255263,32.1860465 L35.1850134,40.2976744 L40.2992247,48.6027907 L35.5513609,48.6027907 L32.5473113,43.2446512 Z M55.8245049,37.975814 L51.8386439,37.975814 C51.6921042,37.172089 51.3428564,36.5395372 50.79089,36.0781395 C50.2389237,35.6167419 49.5184474,35.3860465 48.6294397,35.3860465 C47.4766604,35.3860465 46.5901083,35.8127089 45.9697567,36.6660465 C45.3494052,37.5193841 45.039234,38.7497594 45.039234,40.3572093 C45.039234,41.9845043 45.3494052,43.2322437 45.9697567,44.1004651 C46.5901083,44.9686865 47.4766604,45.4027907 48.6294397,45.4027907 C49.5086781,45.4027907 50.2242698,45.1894595 50.7762361,44.7627907 C51.3282025,44.3361219 51.6823349,43.7209343 51.8386439,42.9172093 L55.8245049,42.9172093 C55.6486572,44.7727225 54.9257387,46.2437155 53.6557276,47.3302326 C52.3857165,48.4167496 50.710304,48.96 48.6294397,48.96 C46.1089562,48.96 44.1624492,48.2133408 42.7898603,46.72 C41.4172714,45.2266592 40.7309873,43.1057502 40.7309873,40.3572093 C40.7309873,37.6285135 41.4148291,35.5249686 42.7825333,34.0465116 C44.1502376,32.5680546 46.0991869,31.8288372 48.6294397,31.8288372 C50.7396119,31.8288372 52.4223514,32.3795294 53.6777085,33.4809302 C54.9330656,34.5823311 55.6486572,36.0806107 55.8245049,37.975814 Z M65.1804929,35.147907 C64.193792,35.147907 63.3805086,35.4703844 62.7406184,36.1153488 C62.1007282,36.7603133 61.7417113,37.6136381 61.6635567,38.6753488 L68.55089,38.6753488 C68.5020435,37.5838705 68.1772186,36.7231039 67.5764056,36.0930233 C66.9755927,35.4629426 66.1769631,35.147907 65.1804929,35.147907 Z M68.6388134,43.9293023 L72.6100205,43.9293023 C72.2876331,45.4871396 71.4694651,46.7150343 70.1554921,47.6130233 C68.8415192,48.5110122 67.1978564,48.96 65.2244546,48.96 C62.762587,48.96 60.8429452,48.2133408 59.4654716,46.72 C58.0879981,45.2266592 57.3992717,43.1454397 57.3992717,40.4762791 C57.3992717,37.8071184 58.0928827,35.6986124 59.4801255,34.1506977 C60.8673684,32.602783 62.7625873,31.8288372 65.165839,31.8288372 C67.5495521,31.8288372 69.4081366,32.5581322 70.7416482,34.0167442 C72.0751598,35.4753561 72.7419056,37.5094443 72.7419056,40.1190698 L72.7419056,41.4437209 L61.6489028,41.4437209 L61.6489028,41.6669767 C61.6782108,42.887448 62.022574,43.8523996 62.6820028,44.5618605 C63.3414317,45.2713214 64.2279838,45.6260465 65.3416858,45.6260465 C66.181847,45.6260465 66.8852272,45.4796914 67.4518475,45.1869767 C68.0184678,44.8942621 68.4141192,44.4750415 68.6388134,43.9293023 Z M75.4157149,48.6027907 L75.4157149,25.92 L79.68,25.92 L79.68,48.6027907 L75.4157149,48.6027907 Z" id="Excel" fill-opacity="0.97" fill="#FFFFFF"></path>
                                </g>
                            </g>
                        </g>
                    </g>
                </g>
            </g>
        </g>
    </g>
</svg>