<?xml version="1.0" encoding="UTF-8"?>
<svg width="15px" height="15px" viewBox="0 0 15 15" version="1.1" xmlns="http://www.w3.org/2000/svg" xmlns:xlink="http://www.w3.org/1999/xlink">
    <!-- Generator: Sketch 54.1 (76490) - https://sketchapp.com -->
    <title>报表纠错_14</title>
    <desc>Created with Sketch.</desc>
    <g id="Page-1" stroke="none" stroke-width="1" fill="none" fill-rule="evenodd">
        <g id="数据详情页" transform="translate(-961.000000, -391.000000)" fill="#A4A5A7" fill-rule="nonzero">
            <g id="详情页主要内容" transform="translate(0.000000, 220.000000)">
                <g id="详情页右方" transform="translate(705.000000, 65.000000)">
                    <g id="浏览等" transform="translate(0.000000, 105.000000)">
                        <g id="编组" transform="translate(256.000000, 0.000000)">
                            <g id="报表纠错_14" transform="translate(0.000000, 1.000000)">
                                <path d="M10.7781671,1.20885014 C9.24524329,0.811592096 7.6190004,1.30697206 6.56785521,2.49137942 C5.51671003,3.67578678 5.21800653,5.34939423 5.79451755,6.82431723 L6.05114058,7.47879703 L1.51923867,12.010804 L2.98988602,13.4814854 L7.52254716,8.9487192 L8.17625256,9.20610744 C9.65137357,9.78585523 11.3270714,9.48823265 12.5123425,8.43596958 C13.6976136,7.38370652 14.1916899,5.75504149 13.7908303,4.22158316 L11.9572664,6.05518958 L8.94536239,3.0432158 L10.7789263,1.20960939 L10.7781671,1.20885014 Z M12.6299528,0.875536165 L10.4630826,3.04245654 L11.9572664,4.53667494 L14.1241365,2.36975457 C15.3947428,4.29266194 15.2730353,6.8171805 13.8233444,8.60893574 C12.3736535,10.400691 9.93018981,11.0466133 7.78448486,10.2052901 L2.98988602,15 L0,12.0100447 L4.79459884,7.21533475 C3.9534215,5.06945652 4.5995669,2.62590851 6.39148778,1.17633056 C8.18340865,-0.273247399 10.7079712,-0.394649907 12.630712,0.876295422 L12.6299528,0.875536165 Z" id="形状"></path>
                            </g>
                        </g>
                    </g>
                </g>
            </g>
        </g>
    </g>
</svg>