<?xml version="1.0" encoding="UTF-8"?>
<svg width="14px" height="13px" viewBox="0 0 14 13" version="1.1" xmlns="http://www.w3.org/2000/svg" xmlns:xlink="http://www.w3.org/1999/xlink">
    <!-- Generator: Sketch 54.1 (76490) - https://sketchapp.com -->
    <title>Path</title>
    <desc>Created with Sketch.</desc>
    <g id="Page-1" stroke="none" stroke-width="1" fill="none" fill-rule="evenodd">
        <g id="数据详情页" transform="translate(-843.000000, -392.000000)" fill="#969799" fill-rule="nonzero">
            <g id="详情页主要内容" transform="translate(0.000000, 220.000000)">
                <g id="详情页右方" transform="translate(705.000000, 65.000000)">
                    <g id="浏览等" transform="translate(0.000000, 105.000000)">
                        <g id="分享" transform="translate(138.000000, 2.000000)">
                            <path d="M13.5,7 C13.2400184,7 12.9972622,7.29237968 12.9972622,7.55234121 L12.9972622,11.0027058 C12.9972622,11.5737817 12.5326408,12.0384051 11.9615629,12.0384051 L2.02798983,12.0384051 C1.4568918,12.0384051 0.992352664,11.5737837 0.992352664,11.0027058 L0.992352664,2.65762197 C0.992352664,2.08654599 1.4568918,1.62204696 2.02798983,1.62204696 L5.2658837,1.62204696 C5.52580312,1.62204696 5.73653873,1.41120909 5.73653873,1.15116735 C5.73653873,0.891267989 5.52580312,0.680452171 5.2658837,0.680452171 L2.02798983,0.680452171 C0.937832991,0.680452171 0.0508380791,1.56738492 0.0508380791,2.65760392 L0.0508380791,11.0026877 C0.0508380791,12.0929268 0.937832991,12.9798395 2.02798983,12.9798395 L11.9615629,12.9798395 C13.0518641,12.9798395 13.9387146,12.0929067 13.9387146,11.0026877 L13.9387146,7.55236327 C13.9387146,7.37904221 13.7924764,7.19492113 13.5,7 Z M3.58934912,9.84007202 C3.54256475,10.0958467 3.71193226,10.3411361 3.96764615,10.3879216 C3.99629139,10.3932157 4.0248133,10.395719 4.05296606,10.395719 C4.27582718,10.395719 4.47383973,10.2367754 4.51547392,10.009708 C4.51906483,9.98992721 4.89253975,8.01006776 6.1925078,6.04177703 C6.94891537,4.8963606 7.86558138,3.98555381 8.91692737,3.33454211 C9.92047114,2.71313134 11.0547025,2.32634024 12.3003594,2.17882491 L10.767803,3.75995156 C10.586842,3.94663748 10.5915205,4.24468317 10.7782269,4.42562336 C10.8695795,4.51420574 10.9876892,4.55836369 11.1057179,4.55836369 C11.2287115,4.55836369 11.3515407,4.51049189 11.4437763,4.41519947 L13.8164018,1.96733855 C13.8181664,1.96557388 13.8197259,1.96368608 13.8214701,1.96177778 C13.8239119,1.95927441 13.8262921,1.95668895 13.8286519,1.95406247 C13.8312373,1.95121026 13.8338023,1.94823494 13.8363877,1.94525963 C13.836716,1.94486976 13.8370648,1.9443773 13.8374547,1.94404899 C13.8397529,1.94113524 13.8421332,1.9383651 13.8444313,1.93551291 C13.8469552,1.9324555 13.8494996,1.929275 13.8518183,1.92609447 C13.8541165,1.92318072 13.8562916,1.92020539 13.8585897,1.91723008 C13.8611547,1.91363917 13.8637401,1.90998671 13.866305,1.9063958 C13.8679466,1.903954 13.8696292,1.90145061 13.8712502,1.89900881 C13.8728713,1.89658752 13.8745744,1.89414569 13.8760723,1.89162181 C13.8766058,1.89082155 13.8771393,1.88987766 13.8778165,1.88891325 C13.8781653,1.88829767 13.8785552,1.88755897 13.8789861,1.88688183 C13.880484,1.88450157 13.8818998,1.88208028 13.8833977,1.87970003 C13.8857575,1.87543198 13.8881993,1.87130758 13.8905795,1.86716265 C13.8919338,1.86474136 13.8931445,1.8623611 13.8944372,1.85998085 C13.8949297,1.85909852 13.8954016,1.85815463 13.895853,1.85727229 C13.8975562,1.85388657 13.8993824,1.8504188 13.901065,1.84705362 C13.9024193,1.84420141 13.9037735,1.84130817 13.9051278,1.83845598 C13.9070361,1.83447521 13.9087803,1.83059704 13.910545,1.82653418 C13.9119608,1.82335367 13.9131715,1.82011159 13.9145257,1.81678745 C13.9160852,1.81305291 13.9175011,1.80940045 13.9189374,1.80574798 C13.9202917,1.80201344 13.9216665,1.79836099 13.9229387,1.79464696 C13.9240878,1.79124073 13.9252369,1.78787554 13.9263244,1.78455138 C13.9276787,1.78046801 13.9289099,1.77634361 13.9301206,1.77230127 C13.9310029,1.76903867 13.9318647,1.76591973 13.932747,1.76267764 C13.9339577,1.75849168 13.9350452,1.75414156 13.9360096,1.74981195 C13.9366252,1.74722649 13.9373024,1.74466157 13.9378974,1.74201457 C13.9381026,1.74129638 13.9381847,1.74047561 13.9383694,1.73979847 C13.9392517,1.7357151 13.9400725,1.7315907 13.9408727,1.72746628 C13.9412626,1.72508602 13.9417551,1.72270577 13.942227,1.72034604 C13.9424938,1.71845826 13.9427605,1.7167141 13.9431093,1.71480578 C13.9435813,1.71156372 13.9439917,1.70838319 13.9445252,1.70514113 C13.9447919,1.70302762 13.9451202,1.70085257 13.9454075,1.69875959 C13.9457974,1.69566116 13.9461462,1.69274738 13.9464745,1.68962844 C13.9466797,1.68786377 13.9468234,1.68603753 13.9469465,1.68433442 C13.9471517,1.68271339 13.9472953,1.68123599 13.9474389,1.67959443 C13.9475005,1.67865053 13.9475826,1.67774767 13.9477057,1.67688587 C13.9479724,1.67274094 13.9482597,1.6686781 13.9485265,1.66455368 C13.9485265,1.6639381 13.9485265,1.66326096 13.948588,1.66264538 C13.9486496,1.66014202 13.9487932,1.65763863 13.9488548,1.65513527 C13.9488548,1.65513527 13.9488548,1.65493007 13.9489163,1.654848 C13.94906,1.64984125 13.9491215,1.64489606 13.9491215,1.63980726 L13.9491215,1.63966362 L13.9491215,1.63933531 C13.9491215,1.63153793 13.9489163,1.62396625 13.9485675,1.61625092 C13.9485059,1.61557378 13.9485059,1.6149582 13.9483828,1.61434262 C13.9483213,1.61284471 13.9483213,1.61142887 13.9482392,1.61007457 L13.9482392,1.60974626 C13.9478904,1.60424705 13.9474184,1.59895303 13.9468849,1.59361797 C13.9466797,1.5920585 13.9464745,1.59043747 13.9463309,1.58887797 L13.9463309,1.58881641 C13.9462078,1.58799564 13.9462078,1.58717487 13.9461462,1.58637461 C13.9455306,1.58151149 13.9449151,1.57668942 13.9441764,1.57180581 C13.9439096,1.56971283 13.9436429,1.56761985 13.9433145,1.56550634 C13.9431709,1.56462401 13.9430273,1.56380323 13.9428221,1.56292088 C13.9422065,1.55879646 13.9414062,1.55473363 13.940647,1.55067077 C13.9401135,1.54804428 13.93958,1.54533571 13.939026,1.54268871 C13.939026,1.54229883 13.9389029,1.54188845 13.9387592,1.54153962 C13.9386156,1.54065729 13.9384104,1.53983652 13.9382668,1.53903626 C13.9375896,1.53599938 13.9368509,1.53302405 13.9361738,1.53002823 C13.9350247,1.52508304 13.9337525,1.52013785 13.9323982,1.51519268 C13.9318442,1.51330489 13.9313107,1.51141711 13.9307772,1.50957035 C13.9291562,1.5038249 13.9273915,1.49805893 13.9254832,1.49237504 C13.9251549,1.49130803 13.9247445,1.49019999 13.9244162,1.48913298 C13.9230619,1.48513168 13.9218307,1.48106884 13.9202712,1.47700599 C13.9201481,1.47661611 13.9199429,1.47614417 13.9197377,1.47565171 C13.9191222,1.47390756 13.9183835,1.47220445 13.9177063,1.47050132 C13.9175011,1.46982418 13.9172344,1.46929068 13.9169676,1.4686751 C13.9153466,1.46448914 13.9137255,1.46022109 13.9120224,1.45607616 C13.9109965,1.45377799 13.9098474,1.45141824 13.9088419,1.44909955 C13.9087804,1.44889436 13.9086983,1.44870968 13.9086983,1.44870968 C13.9067489,1.44429799 13.9049227,1.4400915 13.9028913,1.43590554 C13.9028913,1.43590554 13.9027476,1.43572086 13.9027476,1.43563879 C13.898336,1.42642557 13.8935344,1.41747908 13.8885071,1.40853255 L13.8885071,1.40847099 C13.8848547,1.40210996 13.8810791,1.39581049 13.8772009,1.38951103 C13.876811,1.38889545 13.8763186,1.38821831 13.8759903,1.38762324 C13.8737537,1.38409389 13.871517,1.38052351 13.8691368,1.37705572 L13.8686648,1.37637858 C13.8674952,1.37467547 13.8663667,1.37297235 13.8650739,1.37116664 C13.8638633,1.36940197 13.8624474,1.36751417 13.8610726,1.36562638 C13.8600672,1.36425157 13.8590412,1.36283573 13.8580973,1.36148145 C13.8570713,1.36012717 13.856189,1.35877289 13.8551836,1.35756224 C13.8542397,1.35620797 13.8532137,1.35483315 13.8521262,1.35347887 C13.8497459,1.35023681 13.8471194,1.34711784 13.8445955,1.34393734 C13.8432413,1.34231631 13.841969,1.34075683 13.8406148,1.33911527 C13.8399376,1.33810982 13.8391169,1.33722748 13.8384397,1.33620152 C13.8351771,1.33254905 13.8318735,1.32881452 13.8286109,1.32518258 C13.8277491,1.32415662 13.8269283,1.32321273 13.8259844,1.32226883 C13.8215112,1.31724157 13.8168533,1.31244001 13.8120927,1.30763847 C13.8117029,1.30722809 13.811272,1.3068177 13.8108205,1.30640732 C13.8058138,1.301339 13.8006634,1.29639383 13.7953694,1.29159228 C13.7951026,1.29138708 13.7948974,1.29124345 13.7947538,1.29105877 C13.7893572,1.28619565 13.7839811,1.2814967 13.7783793,1.27696192 C13.778092,1.27669517 13.7777637,1.27642841 13.777497,1.27614115 C13.772203,1.27181154 13.7668063,1.26754351 13.7613071,1.26348065 C13.7605684,1.26294714 13.7598913,1.26227 13.759091,1.26171598 C13.7541253,1.25806351 13.7491186,1.25453418 13.7439682,1.2510869 C13.7425523,1.25001989 13.7410749,1.24899392 13.739577,1.24796794 C13.7370531,1.24628534 13.7345497,1.24458222 13.7319233,1.24296119 C13.7299739,1.24160691 13.7278604,1.24045782 13.725829,1.23918562 C13.7235308,1.23776978 13.7212121,1.2363334 13.7189139,1.23497912 C13.716821,1.23376848 13.7148511,1.23247576 13.7128197,1.23126511 C13.7105215,1.23003395 13.7082849,1.22888485 13.7060482,1.22761264 C13.7033397,1.22611473 13.7005695,1.22463733 13.6978405,1.22320096 C13.6939213,1.22102591 13.6899815,1.21905603 13.6860008,1.21710668 C13.6829433,1.21554721 13.6799065,1.21419293 13.6768491,1.21277707 C13.6730735,1.21103292 13.6692774,1.20924772 13.6655429,1.20768825 C13.6620956,1.20612878 13.6585662,1.20471294 13.6550984,1.20335864 C13.6517127,1.2019428 13.6482039,1.20044489 13.6446746,1.19923422 C13.6408169,1.19767475 13.6369593,1.19638201 13.632958,1.19496617 C13.629839,1.19379657 13.6265969,1.19272956 13.623478,1.19178566 C13.621385,1.19104696 13.6194151,1.19043138 13.6173221,1.1898158 L10.1618228,0.0441948362 C9.91499542,-0.0376777148 9.64859115,0.096129592 9.56684071,0.342834871 C9.48502972,0.589684325 9.61877547,0.856026432 9.8655008,0.937837022 L11.2553243,1.39860034 C10.2337638,1.61937003 9.28580643,1.99873182 8.42117964,2.53398271 C7.25306823,3.25737449 6.23882866,4.26288938 5.40674645,5.52280936 C4.00208835,7.64987668 3.60552987,9.75161819 3.5893398,9.84008808 L3.5893398,9.84008808 L3.5893398,9.84008808 L3.58934912,9.84007202 Z" id="Shape"></path>
                        </g>
                    </g>
                </g>
            </g>
        </g>
    </g>
</svg>
