<?xml version="1.0" encoding="UTF-8"?>
<svg width="14px" height="9px" viewBox="0 0 14 9" version="1.1" xmlns="http://www.w3.org/2000/svg" xmlns:xlink="http://www.w3.org/1999/xlink">
    <!-- Generator: Sketch 52.5 (67469) - http://www.bohemiancoding.com/sketch -->
    <title>Shape</title>
    <desc>Created with Sketch.</desc>
    <g id="Symbols" stroke="none" stroke-width="1" fill="none" fill-rule="evenodd">
        <g id="右侧列表" transform="translate(-661.000000, -126.000000)" fill="#969799" fill-rule="nonzero">
            <g id="Group-3">
                <g id="Group-6" transform="translate(142.000000, 122.000000)">
                    <g id="浏览" transform="translate(519.000000, 0.000000)">
                        <path d="M7,13 C2.25555859,13 0,9.39999725 0,8.5 C0,7.56086879 2.64444141,4 7,4 C12.1722207,4 14,7.60000275 14,8.5 C14,9.4 12.1722207,13 7,13 Z M7,4.78261049 C2.99444141,4.78261049 0.855558594,7.99130112 0.777779297,8.5 C0.816668125,9.04782597 2.7222207,12.2173895 7,12.2173895 C11.8222207,12.2173895 13.2222207,8.93043646 13.2222207,8.5 C13.2222207,8.06956492 11.8222207,4.78261049 7,4.78261049 Z M7,11.4347928 C5.48333789,11.4347928 4.2777793,10.2217486 4.2777793,8.69566294 C4.2777793,7.16958005 5.48333516,5.9565331 7,5.9565331 C8.51666211,5.95653309 9.7222207,7.1695773 9.7222207,8.69566294 C9.7222207,10.2217458 8.51666484,11.4347928 7,11.4347928 Z M7,6.73914359 C5.91111172,6.73914359 5.05555859,7.60001376 5.05555859,8.69566294 C5.05555859,9.79131487 5.91111445,10.6521823 7,10.6521823 C8.08888828,10.6521823 8.94444141,9.79131212 8.94444141,8.69566294 C8.94444141,7.60001101 8.08888555,6.73914359 7,6.73914359 Z" id="Shape"></path>
                    </g>
                </g>
            </g>
        </g>
    </g>
</svg>