<?xml version="1.0" encoding="UTF-8"?>
<svg width="12px" height="12px" viewBox="0 0 12 12" version="1.1" xmlns="http://www.w3.org/2000/svg" xmlns:xlink="http://www.w3.org/1999/xlink">
    <title>颜色小球</title>
    <g id="页面-1" stroke="none" stroke-width="1" fill="none" fill-rule="evenodd">
        <g id="渐变色颜色盒" transform="translate(-172.000000, -109.000000)" fill="#FFFFFF" stroke="#B2B2B3">
            <g id="收起调色盘" transform="translate(58.000000, 22.000000)">
                <g id="颜色面板内容" transform="translate(14.000000, 57.000000)">
                    <g id="不透明度条" transform="translate(0.000000, 31.000000)">
                        <path d="M106,-0.5 C107.518783,-0.5 108.893783,0.115608469 109.889087,1.1109127 C110.884392,2.10621694 111.5,3.48121694 111.5,5 C111.5,6.51878306 110.884392,7.89378306 109.889087,8.8890873 C108.893783,9.88439153 107.518783,10.5 106,10.5 C104.481217,10.5 103.106217,9.88439153 102.110913,8.8890873 C101.115608,7.89378306 100.5,6.51878306 100.5,5 C100.5,3.48121694 101.115608,2.10621694 102.110913,1.1109127 C103.04401,0.177814984 104.310825,-0.421565755 105.716971,-0.492843434 L106,-0.5 L106,-0.5 Z M106,2.5 C105.309644,2.5 104.684644,2.77982203 104.232233,3.23223305 C103.779822,3.68464406 103.5,4.30964406 103.5,5 C103.5,5.69035594 103.779822,6.31535594 104.232233,6.76776695 C104.684644,7.22017797 105.309644,7.5 106,7.5 C106.690356,7.5 107.315356,7.22017797 107.767767,6.76776695 C108.220178,6.31535594 108.5,5.69035594 108.5,5 C108.5,4.30964406 108.220178,3.68464406 107.767767,3.23223305 C107.315356,2.77982203 106.690356,2.5 106,2.5 Z" id="颜色小球"></path>
                    </g>
                </g>
            </g>
        </g>
    </g>
</svg>