<?xml version="1.0" encoding="UTF-8"?>
<svg width="10px" height="10px" viewBox="0 0 10 10" version="1.1" xmlns="http://www.w3.org/2000/svg" xmlns:xlink="http://www.w3.org/1999/xlink">
    <title>关闭</title>
    <g id="页面-1" stroke="none" stroke-width="1" fill="none" fill-rule="evenodd">
        <g id="渐变色颜色盒" transform="translate(-479.000000, -39.000000)" fill="#9B9B9B" fill-rule="nonzero">
            <g id="渐变弹窗" transform="translate(289.000000, 22.000000)">
                <path d="M195.533447,21.7145996 L199.265869,17.9851074 C199.491455,17.7595215 199.491455,17.3947754 199.265869,17.1706543 C199.040283,16.9450684 198.675537,16.9450684 198.451416,17.1706543 L194.717529,20.8986816 L190.983643,17.1691895 C190.758057,16.9436035 190.393311,16.9436035 190.169189,17.1691895 C189.943604,17.3947754 189.943604,17.7595215 190.169189,17.9836426 L193.901611,21.7131348 L190.169189,25.4440918 C189.943604,25.6696777 189.943604,26.0344238 190.169189,26.2585449 C190.281982,26.3713379 190.429932,26.427002 190.576416,26.427002 C190.724365,26.427002 190.87085,26.3713379 190.983643,26.2585449 L194.717529,22.5290527 L198.451416,26.2600098 C198.564209,26.3728027 198.710693,26.4284668 198.858643,26.4284668 C199.006592,26.4284668 199.153076,26.3728027 199.265869,26.2600098 C199.491455,26.0344238 199.491455,25.6696777 199.265869,25.4455566 L195.533447,21.7145996 Z" id="关闭"></path>
            </g>
        </g>
    </g>
</svg>