<?xml version="1.0" encoding="UTF-8"?>
<svg width="9px" height="14px" viewBox="0 0 9 14" version="1.1" xmlns="http://www.w3.org/2000/svg" xmlns:xlink="http://www.w3.org/1999/xlink">
    <title>编组</title>
    <g id="页面-1" stroke="none" stroke-width="1" fill="none" fill-rule="evenodd">
        <g id="渐变色颜色盒" transform="translate(-306.000000, -82.000000)" fill-rule="nonzero">
            <g id="渐变弹窗" transform="translate(289.000000, 22.000000)">
                <g id="颜色面板内容" transform="translate(14.000000, 57.000000)">
                    <g id="编组" transform="translate(3.000000, 3.000000)">
                        <path d="M7,0 C8.1045695,0 9,0.8954305 9,2 L9,12 C9,13.1045695 8.1045695,14 7,14 L2,14 C0.8954305,14 0,13.1045695 0,12 L0,2 C0,0.8954305 0.8954305,0 2,0 L7,0 Z M7,1 L2,1 C1.48716416,1 1.06449284,1.38604019 1.00672773,1.88337887 L1,2 L1,12 C1,12.2876884 1.12148439,12.5470026 1.31595152,12.7294409 L4.5,10 L7.68404848,12.7294409 C7.85184955,12.5720192 7.96531092,12.3573592 7.99327227,12.1166211 L8,12 L8,2 C8,1.48716416 7.61395981,1.06449284 7.11662113,1.00672773 L7,1 Z" id="形状结合" fill="#FFFFFF"></path>
                        <path d="M8,1 L8,13 L4.5,10 L1,13 L1,1 L8,1 Z M7,2 L2,2 L2,11 L4.5,8.67962276 L7,11 L7,2 Z" id="路径-2" fill="#000000"></path>
                    </g>
                </g>
            </g>
        </g>
    </g>
</svg>