<?xml version="1.0" encoding="UTF-8"?>
<svg width="12px" height="12px" viewBox="0 0 12 12" version="1.1" xmlns="http://www.w3.org/2000/svg" xmlns:xlink="http://www.w3.org/1999/xlink">
    <!-- Generator: Sketch 63.1 (92452) - https://sketch.com -->
    <title>编组 2</title>
    <desc>Created with Sketch.</desc>
    <g id="页面-1" stroke="none" stroke-width="1" fill="none" fill-rule="evenodd">
        <g id="基础柱状图/条形图（固定色）" transform="translate(-19.000000, -546.000000)" fill="#A3A3A3" fill-rule="nonzero">
            <g id="输入框文案长-带px" transform="translate(16.000000, 515.000000)">
                <g id="输入框" transform="translate(0.000000, 27.000000)">
                    <g id="编组-3">
                        <g id="编组-2" transform="translate(4.000000, 5.000000)">
                            <path d="M9.5,0 L9.5,2 L10.5,2 L10.5,0 L9.5,0 Z M9.5,3 L9.5,5 L10.5,5 L10.5,3 L9.5,3 Z M9.5,6 L9.5,8 L10.5,8 L10.5,6 L9.5,6 Z M9.5,9 L9.5,10 L10,9.5 L9,9.5 L9,10.5 L10.5,10.5 L10.5,9 L9.5,9 Z M8,9.5 L6,9.5 L6,10.5 L8,10.5 L8,9.5 Z M5,9.5 L3,9.5 L3,10.5 L5,10.5 L5,9.5 Z M2,9.5 L0,9.5 L0,10.5 L2,10.5 L2,9.5 Z" id="路径-4"></path>
                            <path d="M10,-0.5 L10,0.5 L7,0.5 C3.48818936,0.5 0.626849443,3.28499621 0.504103005,6.76686587 L0.5,7 L0.5,10 L-0.5,10 L-0.5,7 C-0.5,2.93908272 2.72747441,-0.368017517 6.75726894,-0.496146432 L7,-0.5 L10,-0.5 Z" id="路径-5"></path>
                        </g>
                    </g>
                </g>
            </g>
        </g>
    </g>
</svg>