<?xml version="1.0" encoding="UTF-8"?>
<svg width="16px" height="16px" viewBox="0 0 16 16" version="1.1" xmlns="http://www.w3.org/2000/svg" xmlns:xlink="http://www.w3.org/1999/xlink">
    <!-- Generator: Sketch 61.2 (89653) - https://sketch.com -->
    <title>下划线</title>
    <desc>Created with Sketch.</desc>
    <g id="下划线" stroke="none" stroke-width="1" fill="none" fill-rule="evenodd">
        <path d="M13,14.9600666 L13,16 L3,16 L3,14.9600666 L13,14.9600666 Z M4.992,1 L4.992,8.40432612 C4.992,9.4359401 5.216,10.1846922 5.68,10.6838602 C6.128,11.1663894 6.864,11.4159734 7.872,11.4159734 C8.864,11.4159734 9.6,11.1663894 10.064,10.6838602 C10.512,10.1846922 10.752,9.4359401 10.752,8.40432612 L10.752,1 L12.624,1 L12.624,8.37104825 C12.624,9.91846922 12.208,11.0998336 11.376,11.9151414 C10.544,12.7138103 9.376,13.1131448 7.872,13.1131448 C6.352,13.1131448 5.184,12.7138103 4.384,11.9317804 C3.536,11.0998336 3.12,9.91846922 3.12,8.37104825 L3.12,1 L4.992,1 Z" id="Combined-Shape" fill="#7c7c7c"></path>
    </g>
</svg>