<?xml version="1.0" encoding="UTF-8"?>
<svg width="16px" height="16px" viewBox="0 0 16 16" version="1.1" xmlns="http://www.w3.org/2000/svg" xmlns:xlink="http://www.w3.org/1999/xlink">
    <!-- Generator: Sketch 61.2 (89653) - https://sketch.com -->
    <title>加粗</title>
    <desc>Created with Sketch.</desc>
    <g id="加粗" stroke="none" stroke-width="1" fill="none" fill-rule="evenodd">
        <path d="M3,2 L8.63793103,2 C9.86206897,2 10.8275862,2.28571429 11.5172414,2.85714286 C12.1551724,3.39495798 12.4827586,4.11764706 12.4827586,5.02521008 C12.4827586,5.69747899 12.3103448,6.26890756 11.9827586,6.7394958 C11.6551724,7.17647059 11.1896552,7.49579832 10.5689655,7.73109244 C11.3793103,7.88235294 11.9827586,8.20168067 12.3965517,8.68907563 C12.7931034,9.15966387 13,9.81512605 13,10.6218487 C13,11.8319328 12.5689655,12.7226891 11.7241379,13.2941176 C11,13.7647059 9.96551724,14 8.65517241,14 L3,14 L3,2 Z M5.01724138,3.61344538 L5.01724138,7.04201681 L8.10344828,7.04201681 C8.96551724,7.04201681 9.56896552,6.8907563 9.93103448,6.62184874 C10.2758621,6.33613445 10.4655172,5.88235294 10.4655172,5.2605042 C10.4655172,4.68907563 10.2758621,4.26890756 9.93103448,4.01680672 C9.55172414,3.74789916 8.96551724,3.61344538 8.13793103,3.61344538 L5.01724138,3.61344538 Z M5.01724138,8.65546218 L5.01724138,12.3865546 L8.36206897,12.3865546 C9.12068966,12.3865546 9.72413793,12.2689076 10.1551724,12.0336134 C10.7068966,11.7310924 10.9827586,11.2605042 10.9827586,10.5882353 C10.9827586,9.89915966 10.7758621,9.41176471 10.3793103,9.1092437 C9.96551724,8.80672269 9.31034483,8.65546218 8.4137931,8.65546218 L5.01724138,8.65546218 Z" id="B" fill="#7c7c7c"></path>
    </g>
</svg>