<?xml version="1.0" encoding="UTF-8"?>
<svg width="16px" height="16px" viewBox="0 0 16 16" version="1.1" xmlns="http://www.w3.org/2000/svg" xmlns:xlink="http://www.w3.org/1999/xlink">
    <!-- Generator: Sketch 61.2 (89653) - https://sketch.com -->
    <title>中划线</title>
    <desc>Created with Sketch.</desc>
    <g id="中划线" stroke="none" stroke-width="1" fill="none" fill-rule="evenodd">
        <path d="M7.62036364,2 C9.08654545,2 10.2385455,2.27493261 11.0589091,2.84097035 C11.9316364,3.4393531 12.4378182,4.37735849 12.56,5.63881402 L10.5352727,5.63881402 C10.3607273,4.92722372 10.0290909,4.4097035 9.57527273,4.10242588 C9.12145455,3.77897574 8.42327273,3.63342318 7.51563636,3.63342318 C6.73018182,3.63342318 6.13672727,3.73045822 5.71781818,3.94070081 C5.19418182,4.18328841 4.94981818,4.58760108 4.94981818,5.13746631 C4.94981818,5.62264151 5.22909091,6.02695418 5.82254545,6.3180593 C6.08436364,6.44743935 6.8,6.69002695 7.952,7.0296496 C9.64509091,7.5148248 10.7272727,7.90296496 11.216,8.16172507 C11.5194371,8.3295079 11.7803333,8.51509165 11.9986885,8.71883283 L14,8.71967655 L14,9.73045822 L12.683652,9.73010834 C12.7873991,10.0145661 12.8392727,10.3218004 12.8392727,10.6522911 C12.8392727,11.6873315 12.4029091,12.5121294 11.5301818,13.1105121 C10.6574545,13.6927224 9.41818182,14 7.82981818,14 C6.29381818,14 5.08945455,13.7250674 4.23418182,13.1752022 C3.18690909,12.4959569 2.61090909,11.4285714 2.52363636,9.95687332 L4.54836364,9.95687332 C4.688,10.8301887 5.01963636,11.4609164 5.56072727,11.8328841 C6.04945455,12.1563342 6.8,12.3342318 7.82981818,12.3342318 C8.73745455,12.3342318 9.47054545,12.1886792 9.99418182,11.9137466 C10.5178182,11.6226415 10.7970909,11.2506739 10.7970909,10.7654987 C10.7970909,10.3656772 10.62717,10.0206175 10.2969412,9.73031961 L2,9.73045822 L2,8.71967655 L7.79719239,8.71980581 C7.61221141,8.66626219 7.41365333,8.60959569 7.20145455,8.54986523 C5.66545455,8.09703504 4.70545455,7.77358491 4.33890909,7.57951482 C3.37890909,7.0458221 2.90763636,6.26954178 2.90763636,5.25067385 C2.90763636,4.23180593 3.36145455,3.42318059 4.304,2.84097035 C5.17672727,2.27493261 6.27636364,2 7.62036364,2 Z" id="Combined-Shape" fill="#FFFFFF"></path>
    </g>
</svg>