<?xml version="1.0" encoding="UTF-8"?>
<svg width="8px" height="10px" viewBox="0 0 8 10" version="1.1" xmlns="http://www.w3.org/2000/svg" xmlns:xlink="http://www.w3.org/1999/xlink">
    <!-- Generator: Sketch 61.2 (89653) - https://sketch.com -->
    <title>锁打开</title>
    <desc>Created with Sketch.</desc>
    <g id="组件" stroke="none" stroke-width="1" fill="none" fill-rule="evenodd">
        <g id="上侧固定部分" transform="translate(-146.000000, -217.000000)" fill="#A3A3A3">
            <g id="固定内容">
                <g transform="translate(16.000000, 0.000000)">
                    <g id="画布宽高" transform="translate(0.000000, 212.000000)">
                        <g id="锁打开" transform="translate(129.000000, 5.000000)">
                            <path d="M8,4 C8.55228475,4 9,4.44771525 9,5 L9,9 C9,9.55228475 8.55228475,10 8,10 L2,10 C1.44771525,10 1,9.55228475 1,9 L1,5 C1,4.44771525 1.44771525,4 2,4 L3,4 L3,2 C3,0.8954305 3.8954305,-9.28950074e-15 5,-9.49240686e-15 C6.1045695,-9.69531299e-15 7,0.8954305 7,2 L6,2 L5.99327227,1.88337887 C5.93550716,1.38604019 5.51283584,1 5,1 C4.44771525,1 4,1.44771525 4,2 L4,2 L4,4 L8,4 Z" id="Combined-Shape"></path>
                        </g>
                    </g>
                </g>
            </g>
        </g>
    </g>
</svg>