<?xml version="1.0" encoding="UTF-8"?>
<svg width="44px" height="11px" viewBox="0 0 44 11" version="1.1" xmlns="http://www.w3.org/2000/svg" xmlns:xlink="http://www.w3.org/1999/xlink">
    <!-- Generator: Sketch 63.1 (92452) - https://sketch.com -->
    <title>不透明度</title>
    <desc>Created with Sketch.</desc>
    <g id="页面-1" stroke="none" stroke-width="1" fill="none" fill-rule="evenodd">
        <g id="规范" transform="translate(-159.000000, -662.000000)" fill="#A3A3A3" fill-rule="nonzero">
            <g id="调色板3" transform="translate(55.000000, 420.000000)">
                <g id="自定义颜色" transform="translate(8.000000, 217.000000)">
                    <g id="编组-5" transform="translate(2.000000, 0.000000)">
                        <path d="M99.907,35.122 L99.907,27.675 C100.16,27.257 100.391,26.817 100.589,26.366 L104.175,26.366 L104.175,25.585 L94.825,25.585 L94.825,26.366 L99.709,26.366 C98.741,28.412 97.003,30.15 94.517,31.58 L95.034,32.273 C96.706,31.272 98.059,30.128 99.093,28.841 L99.093,35.122 L99.907,35.122 Z M103.867,32.163 L104.472,31.547 C103.614,30.546 102.558,29.545 101.293,28.544 L100.721,29.083 C102.052,30.172 103.097,31.195 103.867,32.163 Z M108.795,29.71 C109.95,29.16 110.797,28.456 111.336,27.609 L111.523,27.609 L111.523,29.303 L112.293,29.303 L112.293,27.609 L112.491,27.609 C113.173,28.467 114.064,29.149 115.153,29.666 L115.494,29.006 C114.504,28.61 113.723,28.137 113.173,27.609 L114.966,27.609 L114.966,26.905 L112.293,26.905 L112.293,26.08 C113.129,25.992 113.877,25.871 114.526,25.706 L114.174,25.101 C112.832,25.409 111.149,25.574 109.114,25.574 L109.334,26.212 C110.115,26.212 110.841,26.19 111.523,26.146 L111.523,26.905 L108.85,26.905 L108.85,27.609 L110.643,27.609 C110.159,28.181 109.411,28.665 108.399,29.061 L108.795,29.71 Z M107.717,27.444 L108.267,26.894 C107.761,26.322 107.134,25.761 106.386,25.189 L105.847,25.706 C106.639,26.322 107.255,26.894 107.717,27.444 Z M106.177,35.122 C106.793,34.11 107.233,33.604 107.508,33.604 C107.64,33.604 107.783,33.692 107.937,33.89 C108.278,34.286 108.663,34.55 109.092,34.682 C109.532,34.814 110.115,34.88 110.83,34.891 C111.534,34.902 112.183,34.913 112.788,34.913 L115.351,34.913 L115.527,34.154 C115.241,34.165 114.823,34.176 114.284,34.187 C113.734,34.198 113.206,34.209 112.678,34.209 C111.82,34.209 111.094,34.198 110.511,34.187 C109.862,34.165 109.367,34.077 109.026,33.923 C108.718,33.769 108.421,33.538 108.157,33.208 C108.069,33.109 107.981,33.021 107.893,32.955 L107.893,28.83 L105.594,28.83 L105.594,29.556 L107.156,29.556 L107.156,32.9 C106.694,33.098 106.177,33.659 105.583,34.583 L106.177,35.122 Z M113.481,33.593 C113.877,33.571 114.174,33.45 114.372,33.241 C114.592,32.999 114.735,32.339 114.823,31.272 L114.823,30.887 L113.415,30.887 C113.503,30.623 113.591,30.326 113.668,29.996 L113.668,29.644 L109.543,29.644 L109.543,30.348 L110.599,30.348 C110.467,31.481 109.796,32.295 108.575,32.801 L108.993,33.472 C110.412,32.812 111.193,31.778 111.325,30.348 L112.876,30.348 C112.777,30.766 112.656,31.151 112.524,31.514 L114.108,31.514 C114.042,32.196 113.921,32.614 113.767,32.757 C113.613,32.878 113.371,32.944 113.041,32.955 C112.777,32.955 112.392,32.922 111.886,32.878 L112.117,33.604 C112.667,33.604 113.118,33.593 113.481,33.593 Z M120.862,35.144 C121.588,34.176 122.017,32.944 122.16,31.448 L125.119,31.448 L125.119,33.714 C125.119,34.077 124.965,34.264 124.657,34.264 C124.228,34.264 123.766,34.242 123.26,34.22 L123.469,35.001 L124.91,35.001 C125.581,35.001 125.922,34.66 125.922,34 L125.922,25.376 L121.412,25.376 L121.412,30.568 C121.39,32.185 121.005,33.516 120.235,34.572 L120.862,35.144 Z M117.738,34.099 L117.738,33.23 L120.213,33.23 L120.213,25.64 L116.946,25.64 L116.946,34.099 L117.738,34.099 Z M125.119,28.071 L122.204,28.071 L122.204,26.135 L125.119,26.135 L125.119,28.071 Z M119.454,28.995 L117.738,28.995 L117.738,26.421 L119.454,26.421 L119.454,28.995 Z M125.119,30.711 L122.204,30.711 L122.204,28.808 L125.119,28.808 L125.119,30.711 Z M119.454,32.449 L117.738,32.449 L117.738,29.754 L119.454,29.754 L119.454,32.449 Z M128.045,35.067 C128.793,33.659 129.189,31.789 129.233,29.457 L129.233,28.599 L131.081,28.599 L131.081,30.315 L135.536,30.315 L135.536,28.599 L137.23,28.599 L137.23,27.873 L135.536,27.873 L135.536,26.971 L134.766,26.971 L134.766,27.873 L131.851,27.873 L131.851,26.982 L131.081,26.982 L131.081,27.873 L129.233,27.873 L129.233,26.619 L137.252,26.619 L137.252,25.871 L133.479,25.871 C133.358,25.541 133.226,25.233 133.094,24.958 L132.258,25.09 C132.412,25.332 132.544,25.585 132.676,25.871 L128.441,25.871 L128.441,29.457 C128.419,31.624 128.089,33.318 127.451,34.539 L128.045,35.067 Z M134.766,29.644 L131.851,29.644 L131.851,28.599 L134.766,28.599 L134.766,29.644 Z M137.164,35.144 L137.505,34.462 C136.196,34.286 135.052,33.989 134.062,33.571 C134.953,33.043 135.701,32.394 136.317,31.646 L136.317,31.063 L129.871,31.063 L129.871,31.745 L130.542,31.745 C131.048,32.438 131.719,33.043 132.533,33.549 C131.543,33.967 130.399,34.264 129.123,34.451 L129.464,35.144 C130.916,34.902 132.203,34.506 133.314,33.978 C134.359,34.506 135.646,34.891 137.164,35.144 Z M133.27,33.197 C132.511,32.801 131.884,32.317 131.378,31.745 L135.283,31.745 C134.711,32.306 134.04,32.79 133.27,33.197 Z" id="不透明度"></path>
                    </g>
                </g>
            </g>
        </g>
    </g>
</svg>