<?xml version="1.0" encoding="UTF-8"?>
<svg width="79px" height="79px" viewBox="0 0 79 79" version="1.1" xmlns="http://www.w3.org/2000/svg" xmlns:xlink="http://www.w3.org/1999/xlink">
    <title>装饰点点1</title>
    <defs>
        <linearGradient x1="-1.11022302e-14%" y1="50%" x2="100%" y2="50%" id="linearGradient-1">
            <stop stop-color="#968FFF" offset="0%"></stop>
            <stop stop-color="#F0F0FF" offset="100%"></stop>
        </linearGradient>
    </defs>
    <g id="页面-1" stroke="none" stroke-width="1" fill="none" fill-rule="evenodd" opacity="0.699999988">
        <g id="注册成功-新" transform="translate(-26.000000, -478.000000)" fill="url(#linearGradient-1)">
            <g id="装饰" transform="translate(-37.000000, 74.000000)">
                <path d="M68,473 C70.7614237,473 73,475.238576 73,478 C73,480.761424 70.7614237,483 68,483 C65.2385763,483 63,480.761424 63,478 C63,475.238576 65.2385763,473 68,473 Z M91,473 C93.7614237,473 96,475.238576 96,478 C96,480.761424 93.7614237,483 91,483 C88.2385763,483 86,480.761424 86,478 C86,475.238576 88.2385763,473 91,473 Z M114,473 C116.761424,473 119,475.238576 119,478 C119,480.761424 116.761424,483 114,483 C111.238576,483 109,480.761424 109,478 C109,475.238576 111.238576,473 114,473 Z M137,473 C139.761424,473 142,475.238576 142,478 C142,480.761424 139.761424,483 137,483 C134.238576,483 132,480.761424 132,478 C132,475.238576 134.238576,473 137,473 Z M68,450 C70.7614237,450 73,452.238576 73,455 C73,457.761424 70.7614237,460 68,460 C65.2385763,460 63,457.761424 63,455 C63,452.238576 65.2385763,450 68,450 Z M91,450 C93.7614237,450 96,452.238576 96,455 C96,457.761424 93.7614237,460 91,460 C88.2385763,460 86,457.761424 86,455 C86,452.238576 88.2385763,450 91,450 Z M114,450 C116.761424,450 119,452.238576 119,455 C119,457.761424 116.761424,460 114,460 C111.238576,460 109,457.761424 109,455 C109,452.238576 111.238576,450 114,450 Z M137,450 C139.761424,450 142,452.238576 142,455 C142,457.761424 139.761424,460 137,460 C134.238576,460 132,457.761424 132,455 C132,452.238576 134.238576,450 137,450 Z M68,427 C70.7614237,427 73,429.238576 73,432 C73,434.761424 70.7614237,437 68,437 C65.2385763,437 63,434.761424 63,432 C63,429.238576 65.2385763,427 68,427 Z M91,427 C93.7614237,427 96,429.238576 96,432 C96,434.761424 93.7614237,437 91,437 C88.2385763,437 86,434.761424 86,432 C86,429.238576 88.2385763,427 91,427 Z M114,427 C116.761424,427 119,429.238576 119,432 C119,434.761424 116.761424,437 114,437 C111.238576,437 109,434.761424 109,432 C109,429.238576 111.238576,427 114,427 Z M137,427 C139.761424,427 142,429.238576 142,432 C142,434.761424 139.761424,437 137,437 C134.238576,437 132,434.761424 132,432 C132,429.238576 134.238576,427 137,427 Z M68,404 C70.7614237,404 73,406.238576 73,409 C73,411.761424 70.7614237,414 68,414 C65.2385763,414 63,411.761424 63,409 C63,406.238576 65.2385763,404 68,404 Z M91,404 C93.7614237,404 96,406.238576 96,409 C96,411.761424 93.7614237,414 91,414 C88.2385763,414 86,411.761424 86,409 C86,406.238576 88.2385763,404 91,404 Z M114,404 C116.761424,404 119,406.238576 119,409 C119,411.761424 116.761424,414 114,414 C111.238576,414 109,411.761424 109,409 C109,406.238576 111.238576,404 114,404 Z M137,404 C139.761424,404 142,406.238576 142,409 C142,411.761424 139.761424,414 137,414 C134.238576,414 132,411.761424 132,409 C132,406.238576 134.238576,404 137,404 Z" id="装饰点点1"></path>
            </g>
        </g>
    </g>
</svg>