<?xml version="1.0" encoding="UTF-8"?>
<svg width="79px" height="79px" viewBox="0 0 79 79" version="1.1" xmlns="http://www.w3.org/2000/svg" xmlns:xlink="http://www.w3.org/1999/xlink">
    <title>装饰点点2</title>
    <defs>
        <linearGradient x1="-1.11022302e-14%" y1="50%" x2="100%" y2="50%" id="linearGradient-1">
            <stop stop-color="#988FFF" offset="0%"></stop>
            <stop stop-color="#F4F0FF" offset="100%"></stop>
        </linearGradient>
    </defs>
    <g id="页面-1" stroke="none" stroke-width="1" fill="none" fill-rule="evenodd" opacity="0.400000006">
        <g id="注册成功-新" transform="translate(-650.000000, -2497.000000)" fill="url(#linearGradient-1)">
            <g id="装饰" transform="translate(-37.000000, 74.000000)">
                <path d="M692,2492 C694.761424,2492 697,2494.23858 697,2497 C697,2499.76142 694.761424,2502 692,2502 C689.238576,2502 687,2499.76142 687,2497 C687,2494.23858 689.238576,2492 692,2492 Z M715,2492 C717.761424,2492 720,2494.23858 720,2497 C720,2499.76142 717.761424,2502 715,2502 C712.238576,2502 710,2499.76142 710,2497 C710,2494.23858 712.238576,2492 715,2492 Z M738,2492 C740.761424,2492 743,2494.23858 743,2497 C743,2499.76142 740.761424,2502 738,2502 C735.238576,2502 733,2499.76142 733,2497 C733,2494.23858 735.238576,2492 738,2492 Z M761,2492 C763.761424,2492 766,2494.23858 766,2497 C766,2499.76142 763.761424,2502 761,2502 C758.238576,2502 756,2499.76142 756,2497 C756,2494.23858 758.238576,2492 761,2492 Z M692,2469 C694.761424,2469 697,2471.23858 697,2474 C697,2476.76142 694.761424,2479 692,2479 C689.238576,2479 687,2476.76142 687,2474 C687,2471.23858 689.238576,2469 692,2469 Z M715,2469 C717.761424,2469 720,2471.23858 720,2474 C720,2476.76142 717.761424,2479 715,2479 C712.238576,2479 710,2476.76142 710,2474 C710,2471.23858 712.238576,2469 715,2469 Z M738,2469 C740.761424,2469 743,2471.23858 743,2474 C743,2476.76142 740.761424,2479 738,2479 C735.238576,2479 733,2476.76142 733,2474 C733,2471.23858 735.238576,2469 738,2469 Z M761,2469 C763.761424,2469 766,2471.23858 766,2474 C766,2476.76142 763.761424,2479 761,2479 C758.238576,2479 756,2476.76142 756,2474 C756,2471.23858 758.238576,2469 761,2469 Z M692,2446 C694.761424,2446 697,2448.23858 697,2451 C697,2453.76142 694.761424,2456 692,2456 C689.238576,2456 687,2453.76142 687,2451 C687,2448.23858 689.238576,2446 692,2446 Z M715,2446 C717.761424,2446 720,2448.23858 720,2451 C720,2453.76142 717.761424,2456 715,2456 C712.238576,2456 710,2453.76142 710,2451 C710,2448.23858 712.238576,2446 715,2446 Z M738,2446 C740.761424,2446 743,2448.23858 743,2451 C743,2453.76142 740.761424,2456 738,2456 C735.238576,2456 733,2453.76142 733,2451 C733,2448.23858 735.238576,2446 738,2446 Z M761,2446 C763.761424,2446 766,2448.23858 766,2451 C766,2453.76142 763.761424,2456 761,2456 C758.238576,2456 756,2453.76142 756,2451 C756,2448.23858 758.238576,2446 761,2446 Z M692,2423 C694.761424,2423 697,2425.23858 697,2428 C697,2430.76142 694.761424,2433 692,2433 C689.238576,2433 687,2430.76142 687,2428 C687,2425.23858 689.238576,2423 692,2423 Z M715,2423 C717.761424,2423 720,2425.23858 720,2428 C720,2430.76142 717.761424,2433 715,2433 C712.238576,2433 710,2430.76142 710,2428 C710,2425.23858 712.238576,2423 715,2423 Z M738,2423 C740.761424,2423 743,2425.23858 743,2428 C743,2430.76142 740.761424,2433 738,2433 C735.238576,2433 733,2430.76142 733,2428 C733,2425.23858 735.238576,2423 738,2423 Z M761,2423 C763.761424,2423 766,2425.23858 766,2428 C766,2430.76142 763.761424,2433 761,2433 C758.238576,2433 756,2430.76142 756,2428 C756,2425.23858 758.238576,2423 761,2423 Z" id="装饰点点2" transform="translate(726.500000, 2462.500000) scale(-1, 1) translate(-726.500000, -2462.500000) "></path>
            </g>
        </g>
    </g>
</svg>