<?xml version="1.0" encoding="UTF-8"?>
<svg width="650px" height="87px" viewBox="0 0 650 87" version="1.1" xmlns="http://www.w3.org/2000/svg" xmlns:xlink="http://www.w3.org/1999/xlink">
    <title>第一步配图</title>
    <defs>
        <path d="M14.7433525,-1.50248323e-15 L635.051276,-3.01772322e-14 C640.177861,1.75338409e-14 642.036885,0.533783925 643.911087,1.53611855 C645.78529,2.53845317 647.256176,4.0093385 648.25851,5.88354129 C649.260845,7.75774409 649.794629,9.61676764 649.794629,14.7433525 L649.794629,65.9956412 C649.794629,71.1222261 649.260845,72.9812496 648.25851,74.8554524 C647.256176,76.7296552 645.78529,78.2005405 643.911087,79.2028752 C642.036885,80.2052098 640.177861,80.7389937 635.051276,80.7389937 L14.7433525,80.7389937 C9.61676764,80.7389937 7.75774409,80.2052098 5.88354129,79.2028752 C4.0093385,78.2005405 2.53845317,76.7296552 1.53611855,74.8554524 C0.533783925,72.9812496 6.95592204e-15,71.1222261 -1.19717337e-14,65.9956412 L1.30393353e-15,14.7433525 C-7.57622932e-16,9.61676764 0.533783925,7.75774409 1.53611855,5.88354129 C2.53845317,4.0093385 4.0093385,2.53845317 5.88354129,1.53611855 C7.75774409,0.533783925 9.61676764,8.72986023e-16 14.7433525,-1.50248323e-15 Z" id="path-1"></path>
        <filter x="-0.5%" y="-3.7%" width="100.9%" height="114.9%" filterUnits="objectBoundingBox" id="filter-3">
            <feOffset dx="0" dy="6" in="SourceAlpha" result="shadowOffsetOuter1"></feOffset>
            <feColorMatrix values="0 0 0 0 0.792163597   0 0 0 0 0.848415694   0 0 0 0 0.912703804  0 0 0 1 0" type="matrix" in="shadowOffsetOuter1"></feColorMatrix>
        </filter>
        <path d="M7.37167625,-1.20465868e-15 L367.841594,-1.55592526e-16 C370.404886,9.04037385e-17 371.334398,0.266891963 372.271499,0.768059275 C373.208601,1.26922659 373.944044,2.00466925 374.445211,2.94177065 C374.946378,3.87887205 375.21327,4.80838382 375.21327,7.37167625 L375.21327,32.8810884 C375.21327,35.4443808 374.946378,36.3738926 374.445211,37.310994 C373.944044,38.2480954 373.208601,38.983538 372.271499,39.4847053 C371.334398,39.9858727 370.404886,40.2527646 367.841594,40.2527646 L7.37167625,40.2527646 C4.80838382,40.2527646 3.87887205,39.9858727 2.94177065,39.4847053 C2.00466925,38.983538 1.26922659,38.2480954 0.768059275,37.310994 C0.266891963,36.3738926 3.01329522e-15,35.4443808 -5.18613746e-15,32.8810884 L1.98549696e-16,7.37167625 C-1.15363091e-16,4.80838382 0.266891963,3.87887205 0.768059275,2.94177065 C1.26922659,2.00466925 2.00466925,1.26922659 2.94177065,0.768059275 C3.87887205,0.266891963 4.80838382,6.99941386e-16 7.37167625,-1.20465868e-15 Z" id="path-4"></path>
        <filter x="-0.1%" y="-1.2%" width="100.3%" height="102.5%" filterUnits="objectBoundingBox" id="filter-5">
            <feOffset dx="0" dy="1" in="SourceAlpha" result="shadowOffsetInner1"></feOffset>
            <feComposite in="shadowOffsetInner1" in2="SourceAlpha" operator="arithmetic" k2="-1" k3="1" result="shadowInnerInner1"></feComposite>
            <feColorMatrix values="0 0 0 0 0   0 0 0 0 0   0 0 0 0 0  0 0 0 0.24 0" type="matrix" in="shadowInnerInner1"></feColorMatrix>
        </filter>
    </defs>
    <g id="页面-1" stroke="none" stroke-width="1" fill="none" fill-rule="evenodd">
        <g id="注册成功-新" transform="translate(-50.000000, -754.000000)">
            <g id="第二部分" transform="translate(0.000000, 542.000000)">
                <g id="操作步骤-&lt;v96&gt;" transform="translate(50.000000, 0.000000)">
                    <g id="步骤一">
                        <g id="第一步配图" transform="translate(0.000000, 212.000000)">
                            <mask id="mask-2" fill="white">
                                <use xlink:href="#path-1"></use>
                            </mask>
                            <g id="Window">
                                <use fill="black" fill-opacity="1" filter="url(#filter-3)" xlink:href="#path-1"></use>
                                <use fill="#FFFFFF" fill-rule="evenodd" xlink:href="#path-1"></use>
                            </g>
                            <g id="Top-bar" mask="url(#mask-2)">
                                <path d="M14.7433525,-1.50248323e-15 L635.051276,-3.10840663e-14 C640.177861,1.80607377e-14 642.036885,0.533783925 643.911087,1.53611855 C645.78529,2.53845317 647.256176,4.0093385 648.25851,5.88354129 C649.260845,7.75774409 649.794629,9.61676764 649.794629,14.7433525 L649.794629,80.5055292 L649.794629,80.5055292 L0,80.5055292 L3.97099391e-16,14.7433525 C-2.30726182e-16,9.61676764 0.533783925,7.75774409 1.53611855,5.88354129 C2.53845317,4.0093385 4.0093385,2.53845317 5.88354129,1.53611855 C7.75774409,0.533783925 9.61676764,8.72986023e-16 14.7433525,-1.50248323e-15 Z" id="Rectangle" fill="#E8E8E8"></path>
                                <rect id="Maximize" fill="#28CA42" x="86.2559242" y="31.6271722" width="17.2511848" height="17.2511848" rx="8.62559242"></rect>
                                <rect id="Minimize" fill="#FFBE2F" x="60.3791469" y="31.6271722" width="17.2511848" height="17.2511848" rx="8.62559242"></rect>
                                <rect id="Close" fill="#FF5F57" x="34.5023697" y="31.6271722" width="17.2511848" height="17.2511848" rx="8.62559242"></rect>
                                <path d="M615.292259,48.878357 L615.292259,54.628752 L580.789889,54.628752 L580.789889,48.878357 L615.292259,48.878357 Z M615.292259,37.3775671 L615.292259,43.1279621 L580.789889,43.1279621 L580.789889,37.3775671 L615.292259,37.3775671 Z M615.292259,25.8767773 L615.292259,31.6271722 L580.789889,31.6271722 L580.789889,25.8767773 L615.292259,25.8767773 Z" id="Menu" fill="#B3B3B3"></path>
                                <g id="Address-bar" transform="translate(172.511848, 20.126382)">
                                    <g>
                                        <use fill="#FFFFFF" fill-rule="evenodd" xlink:href="#path-4"></use>
                                        <use fill="black" fill-opacity="1" filter="url(#filter-5)" xlink:href="#path-4"></use>
                                    </g>
                                    <g id="原版" transform="translate(38.399580, 11.691630)" fill-rule="nonzero">
                                        <path d="M75.339189,17.1390541 C76.8067378,17.1390541 77.9186305,16.5475421 78.6748674,15.3645181 L78.6748674,15.3645181 L78.6748674,16.8695043 L80.5504845,16.8695043 L80.5504845,0.404506282 L78.5400925,0.404506282 L78.5400925,6.31213859 C78.1881803,5.82545152 77.7314432,5.43048624 77.1698812,5.12724276 C76.6083192,4.82399927 75.9681385,4.67237753 75.2493391,4.67237753 C74.2684775,4.67237753 73.3812095,4.93069605 72.5875352,5.4473331 C71.7938609,5.96397014 71.1986052,6.70710387 70.801768,7.67673426 C70.4049309,8.64636466 70.2065123,9.72643559 70.2065123,10.916947 C70.2065123,12.1374085 70.4255215,13.2174794 70.8635399,14.1571598 C71.3015582,15.0968402 71.9192764,15.8287427 72.7166945,16.3528673 C73.5141125,16.8769918 74.3882774,17.1390541 75.339189,17.1390541 Z M75.5301201,15.4768305 C74.6540834,15.4768305 73.8941028,15.0987121 73.2501784,14.3424753 C72.6062539,13.5862384 72.2842917,12.4443957 72.2842917,10.916947 C72.2842917,9.33708593 72.5856633,8.1802682 73.1884066,7.44649384 C73.7911498,6.71271949 74.541771,6.34583231 75.4402702,6.34583231 C76.3612319,6.34583231 77.1361875,6.72769447 77.7651369,7.4914188 C78.3940864,8.25514313 78.7085611,9.45314208 78.7085611,11.0854156 C78.7085611,12.5679393 78.399702,13.6704727 77.7819838,14.3930159 C77.1642656,15.115559 76.4136443,15.4768305 75.5301201,15.4768305 Z M84.9418993,21.7101688 C85.5858238,21.7101688 86.1398983,21.5548033 86.6041229,21.2440723 C87.0683475,20.9333414 87.4801596,20.4447824 87.8395593,19.7783955 C88.1091091,19.2842209 88.4872275,18.381978 88.9739146,17.0716666 L88.9739146,17.0716666 L93.5113356,4.94192729 L91.4897123,4.94192729 L88.9402208,11.8940649 C88.6182586,12.7775892 88.3412214,13.6835759 88.1091091,14.612025 C87.8545343,13.6461384 87.5662658,12.7251767 87.2443036,11.84914 L87.2443036,11.84914 L84.7621995,4.94192729 L82.5833389,4.94192729 L87.1095287,16.8919668 C87.0271663,17.1091041 86.9672663,17.273829 86.9298289,17.3861414 C86.6453041,18.1873031 86.439398,18.6889652 86.3121106,18.8911275 C86.1398983,19.1606773 85.9190172,19.3703271 85.6494675,19.520077 C85.3799177,19.6698268 85.020518,19.7447018 84.5712684,19.7447018 C84.2418187,19.7447018 83.8562128,19.6848018 83.4144507,19.5650019 L83.4144507,19.5650019 L83.6390755,21.4630815 C84.1182751,21.6278064 84.5525497,21.7101688 84.9418993,21.7101688 Z M100.036686,17.1390541 C101.33951,17.1390541 102.4383,16.7515763 103.333055,15.9766207 C104.227811,15.2016651 104.783757,14.1290817 105.000894,12.7588704 L105.000894,12.7588704 L103.012965,12.5005519 C102.870702,13.5113635 102.533765,14.2601129 102.002153,14.7467999 C101.470541,15.233487 100.807898,15.4768305 100.014224,15.4768305 C99.0258745,15.4768305 98.2247127,15.1136871 97.6107382,14.3874002 C96.9967638,13.6611134 96.6897765,12.4968082 96.6897765,10.8944846 C96.6897765,9.31462345 97.007995,8.15967759 97.6444319,7.42964698 C98.2808689,6.69961637 99.1082369,6.33460107 100.126536,6.33460107 C100.80041,6.33460107 101.375076,6.53676339 101.850531,6.94108804 C102.325987,7.34541268 102.657309,7.9481559 102.844496,8.7493177 L102.844496,8.7493177 L104.809963,8.44607421 C104.577851,7.24058777 104.049983,6.31026671 103.226358,5.65511104 C102.402734,4.99995537 101.343254,4.67237753 100.047917,4.67237753 C99.0221307,4.67237753 98.0730909,4.91384919 97.2007979,5.39679252 C96.328505,5.87973584 95.6789649,6.60415083 95.2521778,7.57003748 C94.8253907,8.53592413 94.6119971,9.66279189 94.6119971,10.9506408 C94.6119971,12.942314 95.1080435,14.4716345 96.1001364,15.5386024 C97.0922293,16.6055702 98.4044125,17.1390541 100.036686,17.1390541 Z M108.752128,16.8695043 L108.752128,10.3441538 C108.752128,9.40821712 108.864441,8.67444276 109.089066,8.14283073 C109.31369,7.6112187 109.689937,7.19004719 110.217805,6.87931621 C110.745674,6.56858524 111.309107,6.41321975 111.908107,6.41321975 C112.709269,6.41321975 113.328859,6.64346017 113.766877,7.10394102 C114.204895,7.56442186 114.423905,8.30006809 114.423905,9.3108797 L114.423905,9.3108797 L114.423905,16.8695043 L116.445528,16.8695043 L116.445528,9.3108797 C116.445528,8.14283073 116.305137,7.25181901 116.024356,6.63784455 C115.743575,6.02387009 115.277479,5.54279864 114.626067,5.1946302 C113.974655,4.84646175 113.207187,4.67237753 112.323663,4.67237753 C110.886064,4.67237753 109.695553,5.21896455 108.752128,6.31213859 L108.752128,6.31213859 L108.752128,0.404506282 L106.730505,0.404506282 L106.730505,16.8695043 L108.752128,16.8695043 Z M122.914722,17.1390541 C123.708397,17.1390541 124.45153,17.0080229 125.144123,16.7459607 C125.836717,16.4838984 126.557388,16.0346488 127.306137,15.3982119 C127.366037,15.9597739 127.500812,16.4502047 127.710462,16.8695043 L127.710462,16.8695043 L129.821935,16.8695043 C129.56736,16.4127672 129.39702,15.9354395 129.310913,15.4375212 C129.224807,14.9396029 129.181754,13.7509633 129.181754,11.8716025 L129.181754,9.17610482 C129.181754,8.27760561 129.14806,7.65614366 129.080673,7.31171896 C128.960873,6.75764445 128.751223,6.29903547 128.451724,5.93589204 C128.152224,5.57274861 127.684256,5.271377 127.047819,5.03177721 C126.411382,4.79217742 125.584014,4.67237753 124.565715,4.67237753 C123.539928,4.67237753 122.637685,4.81276803 121.858986,5.09354903 C121.080286,5.37433004 120.485031,5.77491094 120.073218,6.29529173 C119.661406,6.81567252 119.36565,7.4989063 119.18595,8.34499305 L119.18595,8.34499305 L121.162649,8.61454281 C121.379786,7.76845606 121.714851,7.17881595 122.167845,6.84562249 C122.620838,6.51242904 123.322791,6.34583231 124.273702,6.34583231 C125.292001,6.34583231 126.059469,6.57420086 126.576106,7.03093796 C126.957969,7.36787516 127.1489,7.9481559 127.1489,8.77178018 C127.1489,8.84665511 127.145156,9.02261121 127.137669,9.29964846 C126.366457,9.56919822 125.164714,9.80131052 123.53244,9.99598535 C122.731279,10.0933228 122.132279,10.1944039 121.735442,10.2992288 C121.196342,10.4489787 120.711527,10.6698598 120.280996,10.961872 C119.850466,11.2538842 119.502297,11.641362 119.236491,12.1243054 C118.970685,12.6072487 118.837782,13.1407326 118.837782,13.7247571 C118.837782,14.7205937 119.189694,15.5386024 119.893519,16.178783 C120.597343,16.8189637 121.604411,17.1390541 122.914722,17.1390541 Z M123.397666,15.5554492 C122.611479,15.5554492 122.014351,15.3757494 121.606283,15.0163497 C121.198214,14.65695 120.99418,14.2077004 120.99418,13.6686009 C120.99418,13.3166887 121.087774,12.9965983 121.274961,12.7083298 C121.462148,12.4200613 121.727955,12.2010522 122.072379,12.0513023 C122.416804,11.9015524 123.004572,11.7667775 123.835684,11.6469776 C125.303233,11.4373278 126.403894,11.1827531 127.137669,10.8832533 L127.137669,10.8832533 L127.137669,11.6245152 C127.137669,12.5155269 127.0291,13.1894013 126.811963,13.6461384 C126.527438,14.2376504 126.081932,14.7037468 125.475445,15.0444278 C124.868958,15.3851087 124.176365,15.5554492 123.397666,15.5554492 Z M134.314431,16.8695043 L134.314431,10.6249348 C134.314431,9.77136055 134.426743,8.98517374 134.651368,8.26637437 C134.801118,7.79466229 135.051949,7.42590323 135.403861,7.16009722 C135.755773,6.8942912 136.152611,6.76138819 136.594373,6.76138819 C137.088547,6.76138819 137.582722,6.90739432 138.076896,7.19940656 L138.076896,7.19940656 L138.773233,5.32378946 C138.069409,4.88951484 137.376816,4.67237753 136.695454,4.67237753 C136.223742,4.67237753 135.791339,4.80715241 135.398246,5.07670217 C135.005152,5.34625194 134.576493,5.9040702 134.112269,6.75015695 L134.112269,6.75015695 L134.112269,4.94192729 L132.292808,4.94192729 L132.292808,16.8695043 L134.314431,16.8695043 Z M143.153417,17.0267417 C143.602667,17.0267417 144.111816,16.9668417 144.680866,16.8470418 L144.680866,16.8470418 L144.388853,15.0612746 C144.021966,15.1136871 143.72621,15.1398933 143.501585,15.1398933 C143.202086,15.1398933 142.971845,15.0912246 142.810864,14.9938872 C142.649883,14.8965498 142.533827,14.7655187 142.462696,14.6007938 C142.391564,14.4360689 142.355999,14.065438 142.355999,13.488901 L142.355999,13.488901 L142.355999,6.51430091 L144.388853,6.51430091 L144.388853,4.94192729 L142.355999,4.94192729 L142.355999,0.775137206 L140.345607,1.98811114 L140.345607,4.94192729 L138.863083,4.94192729 L138.863083,6.51430091 L140.345607,6.51430091 L140.345607,13.3765886 C140.345607,14.5895626 140.427969,15.3851087 140.592694,15.7632272 C140.757419,16.1413456 141.041944,16.4464609 141.446268,16.6785732 C141.850593,16.9106855 142.419643,17.0267417 143.153417,17.0267417 Z M150.655885,17.1390541 C151.591822,17.1390541 152.430421,16.9762011 153.171683,16.6504951 C153.912945,16.3247892 154.480123,15.8643083 154.873216,15.2690526 C155.266309,14.6737969 155.462856,14.0392318 155.462856,13.3653574 C155.462856,12.676508 155.301875,12.099971 154.979913,11.6357464 C154.657951,11.1715218 154.214317,10.8177378 153.649011,10.5743942 C153.083705,10.3310507 152.085997,10.0184478 150.655885,9.63658567 C149.667536,9.3670359 149.07228,9.19482355 148.870118,9.11994862 C148.518206,8.97768624 148.259887,8.7979864 148.095163,8.58084909 C147.930438,8.37119928 147.848075,8.13534324 147.848075,7.87328097 C147.848075,7.46146883 148.046494,7.10206914 148.443331,6.79508191 C148.840168,6.48809468 149.502811,6.33460107 150.431261,6.33460107 C151.217447,6.33460107 151.825806,6.50681342 152.256337,6.85123811 C152.686868,7.19566281 152.947058,7.67486239 153.036908,8.28883685 L153.036908,8.28883685 L155.013606,8.01928709 C154.886319,7.24807527 154.654207,6.63222893 154.31727,6.17174809 C153.980332,5.71126724 153.45808,5.34625194 152.750512,5.07670217 C152.042943,4.80715241 151.221191,4.67237753 150.285254,4.67237753 C149.663792,4.67237753 149.08164,4.75286808 148.538797,4.91384919 C147.995953,5.0748303 147.567294,5.271377 147.25282,5.5034893 C146.83352,5.80298904 146.502198,6.17923558 146.258855,6.63222893 C146.015511,7.08522228 145.89384,7.57752498 145.89384,8.10913701 C145.89384,8.6931615 146.041718,9.2266454 146.337473,9.70958873 C146.633229,10.1925321 147.067504,10.5706505 147.640297,10.843944 C148.213091,11.1172375 149.240749,11.4410716 150.723273,11.8154463 C151.823934,12.0924835 152.512784,12.3208521 152.789821,12.5005519 C153.186658,12.7626142 153.385077,13.1220139 153.385077,13.578751 C153.385077,14.0879005 153.160452,14.5315345 152.711202,14.9096529 C152.261953,15.2877713 151.573103,15.4768305 150.644654,15.4768305 C149.723692,15.4768305 149.006765,15.263437 148.493872,14.8366498 C147.980978,14.4098627 147.668375,13.7958883 147.556063,12.9947265 L147.556063,12.9947265 L145.556902,13.3092012 C145.781527,14.5745876 146.300036,15.529243 147.112429,16.1731674 C147.924822,16.8170919 149.105974,17.1390541 150.655885,17.1390541 Z M160.741539,16.8695043 L160.741539,14.5671001 L158.439135,14.5671001 L158.439135,16.8695043 L160.741539,16.8695043 Z M169.063888,17.1390541 C170.366712,17.1390541 171.465501,16.7515763 172.360257,15.9766207 C173.255012,15.2016651 173.810959,14.1290817 174.028096,12.7588704 L174.028096,12.7588704 L172.040167,12.5005519 C171.897904,13.5113635 171.560967,14.2601129 171.029355,14.7467999 C170.497743,15.233487 169.8351,15.4768305 169.041425,15.4768305 C168.053076,15.4768305 167.251914,15.1136871 166.63794,14.3874002 C166.023966,13.6611134 165.716978,12.4968082 165.716978,10.8944846 C165.716978,9.31462345 166.035197,8.15967759 166.671634,7.42964698 C167.308071,6.69961637 168.135439,6.33460107 169.153738,6.33460107 C169.827612,6.33460107 170.402277,6.53676339 170.877733,6.94108804 C171.353189,7.34541268 171.684511,7.9481559 171.871698,8.7493177 L171.871698,8.7493177 L173.837165,8.44607421 C173.605053,7.24058777 173.077184,6.31026671 172.25356,5.65511104 C171.429936,4.99995537 170.370455,4.67237753 169.075119,4.67237753 C168.049333,4.67237753 167.100293,4.91384919 166.228,5.39679252 C165.355707,5.87973584 164.706167,6.60415083 164.27938,7.57003748 C163.852592,8.53592413 163.639199,9.66279189 163.639199,10.9506408 C163.639199,12.942314 164.135245,14.4716345 165.127338,15.5386024 C166.119431,16.6055702 167.431614,17.1390541 169.063888,17.1390541 Z M180.598372,17.1390541 C181.639133,17.1390541 182.599404,16.8957105 183.479185,16.4090235 C184.358965,15.9223364 185.029096,15.2391026 185.489577,14.3593221 C185.950057,13.4795417 186.180298,12.2721833 186.180298,10.7372472 C186.180298,8.84291136 185.659917,7.35851579 184.619155,6.28406049 C183.578394,5.20960518 182.238133,4.67237753 180.598372,4.67237753 C179.123335,4.67237753 177.872924,5.11413964 176.847137,5.99766386 C175.619188,7.06088793 175.005214,8.69690524 175.005214,10.9057158 C175.005214,12.9198515 175.519979,14.4622752 176.549509,15.5329867 C177.57904,16.6036983 178.92866,17.1390541 180.598372,17.1390541 Z M180.598372,15.4768305 C179.58756,15.4768305 178.748961,15.0968402 178.082574,14.3368597 C177.416187,13.5768791 177.082993,12.4331645 177.082993,10.9057158 C177.082993,9.37826714 177.416187,8.2364244 178.082574,7.48018756 C178.748961,6.72395073 179.58756,6.34583231 180.598372,6.34583231 C181.594208,6.34583231 182.427192,6.7258226 183.097322,7.48580318 C183.767453,8.24578376 184.102518,9.36329216 184.102518,10.8383284 C184.102518,12.4032145 183.769325,13.5675197 183.102938,14.331244 C182.436551,15.0949684 181.601696,15.4768305 180.598372,15.4768305 Z M190.571713,16.8695043 L190.571713,10.681091 C190.571713,9.59540445 190.680281,8.76429268 190.897419,8.18775569 C191.114556,7.6112187 191.464596,7.17320033 191.94754,6.87370059 C192.430483,6.57420086 192.956479,6.42445099 193.525529,6.42445099 C194.274278,6.42445099 194.813378,6.64907579 195.142827,7.0983254 C195.472277,7.547575 195.637002,8.22144941 195.637002,9.11994862 L195.637002,9.11994862 L195.637002,16.8695043 L197.658625,16.8695043 L197.658625,9.93982915 C197.658625,8.71188023 197.935663,7.81899664 198.489737,7.26117838 C199.043812,6.70336012 199.740148,6.42445099 200.578748,6.42445099 C201.042972,6.42445099 201.447297,6.53301964 201.791722,6.75015695 C202.136146,6.96729426 202.373874,7.25369089 202.504905,7.60934682 C202.635937,7.96500276 202.701452,8.54715537 202.701452,9.35580466 L202.701452,9.35580466 L202.701452,16.8695043 L204.711844,16.8695043 L204.711844,8.68193026 C204.711844,7.31920645 204.393626,6.31026671 203.757189,5.65511104 C203.120752,4.99995537 202.211021,4.67237753 201.027997,4.67237753 C199.515524,4.67237753 198.287575,5.36871442 197.344151,6.76138819 C197.112038,6.10248877 196.713329,5.58959547 196.148023,5.2227083 C195.582718,4.85582112 194.858303,4.67237753 193.974778,4.67237753 C193.181104,4.67237753 192.473536,4.8502055 191.852074,5.20586144 C191.230612,5.56151737 190.732694,6.03135759 190.358319,6.61538207 L190.358319,6.61538207 L190.358319,4.94192729 L188.55009,4.94192729 L188.55009,16.8695043 L190.571713,16.8695043 Z" id="dycharts.com" fill="#000000"></path>
                                        <path d="M53.6741268,7.24433152 L53.6741268,4.94192729 L51.3717226,4.94192729 L51.3717226,7.24433152 L53.6741268,7.24433152 Z M53.6741268,16.8695043 L53.6741268,14.5671001 L51.3717226,14.5671001 L51.3717226,16.8695043 L53.6741268,16.8695043 Z M57.3130486,17.1502853 L62.0750945,0.123725279 L60.4577959,0.123725279 L55.6845188,17.1502853 L57.3130486,17.1502853 Z M63.7036243,17.1502853 L68.4656701,0.123725279 L66.8483715,0.123725279 L62.0750945,17.1502853 L63.7036243,17.1502853 Z" id="://" fill="#808080"></path>
                                        <path d="M2.51582806,16.8695043 L2.51582806,10.3441538 C2.51582806,9.40821712 2.62814046,8.67444276 2.85276526,8.14283073 C3.07739007,7.6112187 3.45363661,7.19004719 3.9815049,6.87931621 C4.50937318,6.56858524 5.07280706,6.41321975 5.67180654,6.41321975 C6.47296833,6.41321975 7.09255841,6.64346017 7.53057678,7.10394102 C7.96859514,7.56442186 8.18760433,8.30006809 8.18760433,9.3108797 L8.18760433,9.3108797 L8.18760433,16.8695043 L10.2092275,16.8695043 L10.2092275,9.3108797 C10.2092275,8.14283073 10.068837,7.25181901 9.78805604,6.63784455 C9.50727504,6.02387009 9.04117857,5.54279864 8.38976665,5.1946302 C7.73835472,4.84646175 6.97088664,4.67237753 6.08736242,4.67237753 C4.64976369,4.67237753 3.45925223,5.21896455 2.51582806,6.31213859 L2.51582806,6.31213859 L2.51582806,0.404506282 L0.494204838,0.404506282 L0.494204838,16.8695043 L2.51582806,16.8695043 Z M16.4650283,17.0267417 C16.9142779,17.0267417 17.4234275,16.9668417 17.992477,16.8470418 L17.992477,16.8470418 L17.7004647,15.0612746 C17.3335775,15.1136871 17.0378215,15.1398933 16.8131967,15.1398933 C16.513697,15.1398933 16.2834566,15.0912246 16.1224755,14.9938872 C15.9614944,14.8965498 15.8454382,14.7655187 15.774307,14.6007938 C15.7031758,14.4360689 15.6676102,14.065438 15.6676102,13.488901 L15.6676102,13.488901 L15.6676102,6.51430091 L17.7004647,6.51430091 L17.7004647,4.94192729 L15.6676102,4.94192729 L15.6676102,0.775137206 L13.6572183,1.98811114 L13.6572183,4.94192729 L12.1746946,4.94192729 L12.1746946,6.51430091 L13.6572183,6.51430091 L13.6572183,13.3765886 C13.6572183,14.5895626 13.7395807,15.3851087 13.9043055,15.7632272 C14.0690304,16.1413456 14.3535552,16.4464609 14.7578798,16.6785732 C15.1622044,16.9106855 15.7312539,17.0267417 16.4650283,17.0267417 Z M22.8556039,17.0267417 C23.3048535,17.0267417 23.8140031,16.9668417 24.3830526,16.8470418 L24.3830526,16.8470418 L24.0910403,15.0612746 C23.7241532,15.1136871 23.4283972,15.1398933 23.2037724,15.1398933 C22.9042726,15.1398933 22.6740322,15.0912246 22.5130511,14.9938872 C22.35207,14.8965498 22.2360138,14.7655187 22.1648827,14.6007938 C22.0937515,14.4360689 22.0581859,14.065438 22.0581859,13.488901 L22.0581859,13.488901 L22.0581859,6.51430091 L24.0910403,6.51430091 L24.0910403,4.94192729 L22.0581859,4.94192729 L22.0581859,0.775137206 L20.0477939,1.98811114 L20.0477939,4.94192729 L18.5652702,4.94192729 L18.5652702,6.51430091 L20.0477939,6.51430091 L20.0477939,13.3765886 C20.0477939,14.5895626 20.1301563,15.3851087 20.2948812,15.7632272 C20.459606,16.1413456 20.7441308,16.4464609 21.1484554,16.6785732 C21.5527801,16.9106855 22.1218296,17.0267417 22.8556039,17.0267417 Z M28.0893618,21.440619 L28.0893618,15.6340679 C28.4337865,16.0683425 28.8736768,16.4277422 29.4090325,16.7122669 C29.9443883,16.9967917 30.5490034,17.1390541 31.2228778,17.1390541 C32.1438395,17.1390541 33.0217481,16.8788637 33.8566036,16.3584829 C34.6914591,15.8381021 35.3278961,15.0893527 35.7659145,14.1122349 C36.2039328,13.135117 36.422942,12.0363273 36.422942,10.8158659 C36.422942,9.67776688 36.2245234,8.63138967 35.8276863,7.67673426 C35.4308491,6.72207885 34.8430809,5.98268888 34.0643816,5.45856434 C33.2856823,4.9344398 32.3871831,4.67237753 31.3688839,4.67237753 C30.5901846,4.67237753 29.9275415,4.82399927 29.3809544,5.12724276 C28.8343674,5.43048624 28.3439366,5.88535146 27.909662,6.49183843 L27.909662,6.49183843 L27.909662,4.94192729 L26.0677386,4.94192729 L26.0677386,21.440619 L28.0893618,21.440619 Z M31.0881029,15.4768305 C30.2045787,15.4768305 29.4520856,15.1099434 28.8306237,14.376169 C28.2091617,13.6423946 27.8984307,12.5080394 27.8984307,10.9731032 C27.8984307,9.43816709 28.2297523,8.26824624 28.8923955,7.4633407 C29.5550387,6.65843516 30.3168911,6.25598239 31.1779529,6.25598239 C32.0465021,6.25598239 32.7933796,6.63410081 33.4185853,7.39033764 C34.043791,8.14657448 34.3563938,9.28467348 34.3563938,10.8046346 C34.3563938,12.3994707 34.0363035,13.5768791 33.3961228,14.3368597 C32.7559421,15.0968402 31.9866022,15.4768305 31.0881029,15.4768305 Z M43.1504548,17.1390541 C44.0863915,17.1390541 44.9249908,16.9762011 45.6662526,16.6504951 C46.4075145,16.3247892 46.9746921,15.8643083 47.3677855,15.2690526 C47.7608789,14.6737969 47.9574256,14.0392318 47.9574256,13.3653574 C47.9574256,12.676508 47.7964445,12.099971 47.4744823,11.6357464 C47.1525201,11.1715218 46.7088861,10.8177378 46.1435803,10.5743942 C45.5782746,10.3310507 44.5805661,10.0184478 43.1504548,9.63658567 C42.1621057,9.3670359 41.56685,9.19482355 41.3646877,9.11994862 C41.0127755,8.97768624 40.7544569,8.7979864 40.5897321,8.58084909 C40.4250072,8.37119928 40.3426448,8.13534324 40.3426448,7.87328097 C40.3426448,7.46146883 40.5410634,7.10206914 40.9379005,6.79508191 C41.3347377,6.48809468 41.9973809,6.33460107 42.92583,6.33460107 C43.7120168,6.33460107 44.3203757,6.50681342 44.7509066,6.85123811 C45.1814374,7.19566281 45.4416278,7.67486239 45.5314777,8.28883685 L45.5314777,8.28883685 L47.508176,8.01928709 C47.3808886,7.24807527 47.1487763,6.63222893 46.8118391,6.17174809 C46.4749019,5.71126724 45.9526492,5.34625194 45.2450811,5.07670217 C44.537513,4.80715241 43.7157606,4.67237753 42.7798239,4.67237753 C42.158362,4.67237753 41.5762093,4.75286808 41.0333661,4.91384919 C40.4905228,5.0748303 40.0618638,5.271377 39.7473891,5.5034893 C39.3280894,5.80298904 38.9967679,6.17923558 38.7534243,6.63222893 C38.5100808,7.08522228 38.388409,7.57752498 38.388409,8.10913701 C38.388409,8.6931615 38.536287,9.2266454 38.832043,9.70958873 C39.127799,10.1925321 39.5620736,10.5706505 40.1348669,10.843944 C40.7076601,11.1172375 41.7353186,11.4410716 43.2178423,11.8154463 C44.3185038,12.0924835 45.0073532,12.3208521 45.2843905,12.5005519 C45.6812276,12.7626142 45.8796462,13.1220139 45.8796462,13.578751 C45.8796462,14.0879005 45.6550214,14.5315345 45.2057718,14.9096529 C44.7565222,15.2877713 44.0676728,15.4768305 43.1392236,15.4768305 C42.2182619,15.4768305 41.5013344,15.263437 40.9884411,14.8366498 C40.4755478,14.4098627 40.162945,13.7958883 40.0506326,12.9947265 L40.0506326,12.9947265 L38.0514718,13.3092012 C38.2760966,14.5745876 38.7946055,15.529243 39.6069986,16.1731674 C40.4193916,16.8170919 41.6005437,17.1390541 43.1504548,17.1390541 Z" id="https" fill="#088043"></path>
                                    </g>
                                    <path d="M21.4630969,17.2768562 L21.4630969,15.6210506 C21.4630969,14.9279191 21.1898718,14.3310649 20.6434134,13.83047 C20.096955,13.3298751 19.4454183,13.0795814 18.6887836,13.0795814 C17.9321489,13.0795814 17.2806121,13.3298751 16.7341537,13.83047 C16.1876953,14.3310649 15.9144702,14.9279191 15.9144702,15.6210506 L15.9144702,17.2768562 L21.4630969,17.2768562 Z M24.0692701,17.2768562 C24.5456697,17.2768562 24.966016,17.4373009 25.3303216,17.7581951 C25.6946272,18.0790893 25.8767773,18.4577387 25.8767773,18.8941548 L25.8767773,27.1346761 C25.8767773,27.5710922 25.6946272,27.9497417 25.3303216,28.2706359 C24.966016,28.59153 24.5456697,28.7519747 24.0692701,28.7519747 L13.3082971,28.7519747 C12.8318974,28.7519747 12.4115511,28.59153 12.0472455,28.2706359 C11.68294,27.9497417 11.5007899,27.5710922 11.5007899,27.1346761 L11.5007899,18.8941548 C11.5007899,18.4577387 11.68294,18.0790893 12.0472455,17.7581951 C12.4115511,17.4373009 12.8318974,17.2768562 13.3082971,17.2768562 L14.1910331,17.2768562 L14.1910331,15.6210506 C14.1910331,14.491503 14.6323968,13.5224172 15.5151372,12.7137638 C16.3978777,11.9051105 17.4557492,11.5007899 18.6887836,11.5007899 C19.9218179,11.5007899 20.9796894,11.9051105 21.8624299,12.7137638 C22.7451704,13.5224172 23.186534,14.491503 23.186534,15.6210506 L23.186534,17.2768562 L24.0692701,17.2768562 Z" id="icon" fill="#088043"></path>
                                </g>
                            </g>
                        </g>
                    </g>
                </g>
            </g>
        </g>
    </g>
</svg>