<?xml version="1.0" encoding="UTF-8"?>
<svg width="73px" height="68px" viewBox="0 0 73 68" version="1.1" xmlns="http://www.w3.org/2000/svg" xmlns:xlink="http://www.w3.org/1999/xlink">
    <title>数字3</title>
    <defs>
        <linearGradient x1="88.7880513%" y1="29.3979931%" x2="13.0914383%" y2="66.1256235%" id="linearGradient-1">
            <stop stop-color="#7981FF" offset="0%"></stop>
            <stop stop-color="#2CAFFF" offset="100%"></stop>
        </linearGradient>
    </defs>
    <g id="页面-1" stroke="none" stroke-width="1" fill="none" fill-rule="evenodd">
        <g id="注册成功-新" transform="translate(-345.000000, -1596.000000)">
            <g id="第二部分" transform="translate(0.000000, 542.000000)">
                <g id="操作步骤-&lt;v96&gt;" transform="translate(50.000000, 0.000000)">
                    <g id="步骤三" transform="translate(0.000000, 1054.000000)">
                        <g id="数字3" transform="translate(295.000000, 0.000000)">
                            <polygon id="Polygon" fill="url(#linearGradient-1)" points="36.5 0 68.1099272 17 68.1099272 51 36.5 68 4.89007276 51 4.89007276 17"></polygon>
                            <path d="M35.726,47.588 C39.002,47.588 41.648,46.664 43.664,44.858 C45.596,43.094 46.562,40.826 46.562,38.054 C46.562,36.29 46.058,34.82 45.05,33.686 C44.126,32.594 42.74,31.796 40.976,31.25 C44.294,30.158 45.974,27.974 45.974,24.698 C45.974,22.094 45.05,20.078 43.244,18.608 C41.396,17.138 38.918,16.424 35.894,16.424 C32.954,16.424 30.518,17.222 28.628,18.902 C26.612,20.582 25.52,22.934 25.268,25.958 L30.098,25.958 C30.266,24.152 30.854,22.808 31.862,21.926 C32.828,21.044 34.172,20.624 35.936,20.624 C37.658,20.624 38.96,21.002 39.842,21.758 C40.64,22.514 41.06,23.606 41.06,25.076 C41.06,26.546 40.598,27.68 39.716,28.436 C38.792,29.192 37.448,29.57 35.684,29.57 L33.584,29.57 L33.584,33.266 L35.684,33.266 C37.616,33.266 39.086,33.644 40.094,34.484 C41.102,35.282 41.648,36.542 41.648,38.264 C41.648,39.692 41.144,40.868 40.178,41.834 C39.086,42.884 37.574,43.43 35.684,43.43 C33.962,43.43 32.576,42.926 31.526,41.96 C30.35,40.91 29.762,39.398 29.678,37.466 L24.68,37.466 C24.932,40.826 26.108,43.43 28.208,45.194 C30.098,46.79 32.618,47.588 35.726,47.588 Z" id="3" fill="#FFFFFF" fill-rule="nonzero"></path>
                        </g>
                    </g>
                </g>
            </g>
        </g>
    </g>
</svg>