<?xml version="1.0" encoding="UTF-8"?>
<svg width="73px" height="68px" viewBox="0 0 73 68" version="1.1" xmlns="http://www.w3.org/2000/svg" xmlns:xlink="http://www.w3.org/1999/xlink">
    <title>数字</title>
    <defs>
        <linearGradient x1="88.7880513%" y1="29.3979931%" x2="13.0914383%" y2="66.1256235%" id="linearGradient-1">
            <stop stop-color="#7981FF" offset="0%"></stop>
            <stop stop-color="#2CAFFF" offset="100%"></stop>
        </linearGradient>
    </defs>
    <g id="页面-1" stroke="none" stroke-width="1" fill="none" fill-rule="evenodd">
        <g id="注册成功-新" transform="translate(-345.000000, -931.000000)">
            <g id="第二部分" transform="translate(0.000000, 542.000000)">
                <g id="操作步骤-&lt;v96&gt;" transform="translate(50.000000, 0.000000)">
                    <g id="步骤二" transform="translate(0.000000, 389.000000)">
                        <g id="数字" transform="translate(295.000000, 0.000000)">
                            <polygon id="Polygon" fill="url(#linearGradient-1)" points="36.5 0 68.1099272 17 68.1099272 51 36.5 68 4.89007276 51 4.89007276 17"></polygon>
                            <path d="M47.058,47 L47.058,42.674 L32.274,42.674 C32.946,41.162 34.794,39.398 37.86,37.382 C40.8,35.408 42.9,33.812 44.076,32.552 C46.008,30.41 47.016,28.058 47.016,25.454 C47.016,22.766 46.092,20.624 44.244,18.944 C42.354,17.264 39.96,16.424 37.062,16.424 C33.828,16.424 31.224,17.516 29.25,19.7 C27.318,21.758 26.352,24.446 26.31,27.806 L31.224,27.806 C31.308,25.454 31.812,23.648 32.736,22.472 C33.66,21.212 35.046,20.582 36.894,20.582 C38.616,20.582 39.918,20.96 40.8,21.758 C41.64,22.556 42.102,23.774 42.102,25.412 C42.102,27.092 41.43,28.688 40.128,30.158 C39.288,31.04 37.944,32.174 36.012,33.518 C32.526,35.912 30.216,37.76 29.124,39.02 C27.108,41.288 26.142,43.934 26.142,47 L47.058,47 Z" id="2" fill="#FFFFFF" fill-rule="nonzero"></path>
                        </g>
                    </g>
                </g>
            </g>
        </g>
    </g>
</svg>