<?xml version="1.0" encoding="UTF-8"?>
<svg width="8px" height="13px" viewBox="0 0 8 13" version="1.1" xmlns="http://www.w3.org/2000/svg" xmlns:xlink="http://www.w3.org/1999/xlink">
    <title>形状</title>
    <g id="页面-1" stroke="none" stroke-width="1" fill="none" fill-rule="evenodd">
        <g id="数据图文-手机" transform="translate(-653.000000, -69.000000)" fill="#FFFFFF" fill-rule="nonzero">
            <g id="矩形" transform="translate(565.000000, 61.000000)">
                <g id="手机" transform="translate(88.000000, 8.932615)">
                    <path d="M7.07964602,0 L0.920353988,0 C0.42477877,0 0,0.394609161 0,0.854986528 L0,11.0490566 C0,11.4436658 0.424778757,11.8382749 0.920353988,11.8382749 L7.07964602,11.8382749 C7.57522124,11.8382749 8,11.4436658 8,10.9832884 L8,0.854986528 C7.92920354,0.394609172 7.57522124,0 7.07964602,0 Z M2.49326146,10 L5.50673854,10 C5.77915932,10 6,10.2208407 6,10.4932615 C6,10.7656822 5.77915932,10.9865229 5.50673854,10.9865229 L2.49326146,10.9865229 C2.22084068,10.9865229 2,10.7656822 2,10.4932615 C2,10.2208407 2.22084068,10 2.49326146,10 Z M7,8.89218329 L1,8.89218329 L1,1 L7,1 L7,8.89218329 Z" id="形状"></path>
                </g>
            </g>
        </g>
    </g>
</svg>