<?xml version="1.0" encoding="UTF-8"?>
<svg width="13px" height="13px" viewBox="0 0 13 13" version="1.1" xmlns="http://www.w3.org/2000/svg" xmlns:xlink="http://www.w3.org/1999/xlink">
    <title>形状</title>
    <g id="页面-1" stroke="none" stroke-width="1" fill="none" fill-rule="evenodd">
        <g id="数据图文-手机" transform="translate(-581.000000, -69.000000)" fill="#FFFFFF" fill-rule="nonzero">
            <g id="矩形" transform="translate(565.000000, 61.000000)">
                <g id="电脑" transform="translate(16.000000, 8.932615)">
                    <path d="M12.3709677,1.27330146e-10 L0.629032258,1.27330146e-10 C0.281387097,1.27330146e-10 0,0.283695803 0,0.6341933 L0,9.09010397 C0,9.44017867 0.519021505,9.30150173 0.866666667,9.30150173 L5.2,9.30150173 L5.2,10.9926839 L4,11.8382749 L9,11.8382749 L7.8,10.9926839 L7.8,9.30150173 L12.1333333,9.30150173 C12.4805591,9.30150173 13,9.44017867 13,9.09010397 L13,0.6341933 C13,0.283695803 12.7181935,1.27330146e-10 12.3709677,1.27330146e-10 Z M12,7.89218329 L1,7.89218329 L1,0.986522911 L12,0.986522911 L12,7.89218329 Z" id="形状"></path>
                </g>
            </g>
        </g>
    </g>
</svg>