<?xml version="1.0" encoding="UTF-8"?>
<svg width="14px" height="14px" viewBox="0 0 14 14" version="1.1" xmlns="http://www.w3.org/2000/svg" xmlns:xlink="http://www.w3.org/1999/xlink">
    <!-- Generator: Sketch 52.5 (67469) - http://www.bohemiancoding.com/sketch -->
    <title>返回</title>
    <desc>Created with Sketch.</desc>
    <g id="Page-1" stroke="none" stroke-width="1" fill="none" fill-rule="evenodd">
        <g id="会员付款页-按钮" transform="translate(-271.000000, -143.000000)">
            <g id="Group-2" transform="translate(230.000000, 125.000000)">
                <g id="返回按钮">
                    <g id="返回" transform="translate(40.000000, 17.000000)">
                        <rect id="Rectangle" fill="#000000" opacity="0" x="0" y="0" width="16" height="16"></rect>
                        <path d="M10.9433004,6.1644605 L2.71919639,6.1644605 L6.71845289,2.60967064 C6.91203364,2.4376113 6.92947781,2.14122025 6.75740248,1.9476395 C6.58534314,1.75410672 6.28900006,1.73659858 6.09540331,1.90868991 L1.19415036,6.26524017 C1.08539209,6.35111795 1.0154875,6.48405181 1.0154875,6.63339056 C1.0154875,6.63359842 1.01550348,6.63380628 1.01550348,6.63401414 C1.01550348,6.63420602 1.0154875,6.63441387 1.0154875,6.63460573 C1.0154875,6.64200872 1.01572734,6.6493957 1.01607909,6.6567667 C1.01609508,6.65702253 1.01609508,6.65727836 1.01609508,6.65753419 C1.02223492,6.78301711 1.07848478,6.90120897 1.17288478,6.98507211 L6.09538733,11.3605215 C6.18471877,11.4399557 6.29593936,11.4789692 6.40672823,11.4789692 C6.53601658,11.4789692 6.66476128,11.4257893 6.75738648,11.321556 C6.92944583,11.1280072 6.91201764,10.8316001 6.71843689,10.6595568 L2.71643025,7.10228861 L10.9432844,7.10228861 C12.6498394,7.10228861 14.0382101,8.4906593 14.0382101,10.1972143 C14.0382101,11.9037692 12.6498394,13.2921399 10.9432844,13.2921399 L5.53632637,13.2921399 C5.27734997,13.2921399 5.06739631,13.5020936 5.06739631,13.76107 C5.06739631,14.0200464 5.27734997,14.23 5.53632637,14.23 L10.9433005,14.23 C13.1669928,14.23 14.9760862,12.4208906 14.9760862,10.1972143 C14.9760862,7.97353794 13.1669768,6.1644605 10.9433004,6.1644605 Z" id="Path" fill="#5C6066"></path>
                    </g>
                </g>
            </g>
        </g>
    </g>
</svg>