<?xml version="1.0" encoding="UTF-8"?>
<svg width="18px" height="18px" viewBox="0 0 18 18" version="1.1" xmlns="http://www.w3.org/2000/svg" xmlns:xlink="http://www.w3.org/1999/xlink">
    <title>问号</title>
    <g id="页面-1" stroke="none" stroke-width="1" fill="none" fill-rule="evenodd">
        <g id="会员购买页" transform="translate(-896.000000, -550.000000)" fill="#666666" fill-rule="nonzero">
            <g id="发票需求" transform="translate(773.000000, 229.000000)">
                <g id="编组-3" transform="translate(123.000000, 319.000000)">
                    <path d="M9,2 C4.02991071,2 0,6.02991071 0,11 C0,15.9700893 4.02991071,20 9,20 C13.9700893,20 18,15.9700893 18,11 C18,6.02991071 13.9700893,2 9,2 Z M9,16.2232143 C8.55602679,16.2232143 8.19642857,15.8636161 8.19642857,15.4196429 C8.19642857,14.9756696 8.55602679,14.6160714 9,14.6160714 C9.44397321,14.6160714 9.80357143,14.9756696 9.80357143,15.4196429 C9.80357143,15.8636161 9.44397321,16.2232143 9,16.2232143 Z M10.2636161,11.8136161 C9.89196429,11.95625 9.64285714,12.3178571 9.64285714,12.7136161 L9.64285714,13.1696429 C9.64285714,13.2580357 9.57053571,13.3303571 9.48214286,13.3303571 L8.51785714,13.3303571 C8.42946429,13.3303571 8.35714286,13.2580357 8.35714286,13.1696429 L8.35714286,12.7377232 C8.35714286,12.2736607 8.49174107,11.815625 8.75691964,11.4339286 C9.01607143,11.0602679 9.37767857,10.775 9.80357143,10.6122768 C10.4866071,10.3491071 10.9285714,9.7765625 10.9285714,9.15178571 C10.9285714,8.26584821 10.0627232,7.54464286 9,7.54464286 C7.93727679,7.54464286 7.07142857,8.26584821 7.07142857,9.15178571 L7.07142857,9.30446429 C7.07142857,9.39285714 6.99910714,9.46517857 6.91071429,9.46517857 L5.94642857,9.46517857 C5.85803571,9.46517857 5.78571429,9.39285714 5.78571429,9.30446429 L5.78571429,9.15178571 C5.78571429,8.36227679 6.13125,7.625 6.75803571,7.0765625 C7.36071429,6.54821429 8.15625,6.25892857 9,6.25892857 C9.84375,6.25892857 10.6392857,6.55022321 11.2419643,7.0765625 C11.86875,7.625 12.2142857,8.36227679 12.2142857,9.15178571 C12.2142857,10.3129464 11.4488839,11.3575893 10.2636161,11.8136161 Z" id="问号"></path>
                </g>
            </g>
        </g>
    </g>
</svg>