<?xml version="1.0" encoding="UTF-8"?>
<svg width="137px" height="35px" viewBox="0 0 137 35" version="1.1" xmlns="http://www.w3.org/2000/svg" xmlns:xlink="http://www.w3.org/1999/xlink">
    <!-- Generator: Sketch 64 (93537) - https://sketch.com -->
    <title>价格3</title>
    <desc>Created with Sketch.</desc>
    <g id="页面-1" stroke="none" stroke-width="1" fill="none" fill-rule="evenodd">
        <g id="会员页1" transform="translate(-1016.000000, -417.000000)" fill="#000A1A" fill-rule="nonzero">
            <g id="右侧所有内容" transform="translate(190.000000, 116.000000)">
                <g id="表格所有内容" transform="translate(62.000000, 154.000000)">
                    <g id="3" transform="translate(746.000000, 0.000000)">
                        <g id="价格3" transform="translate(18.000000, 126.000000)">
                            <path d="M15.56,55.568 C21.592,53.7306667 26.1073333,51.616 29.106,49.224 C32.1046667,46.832 33.604,44.024 33.604,40.8 C33.604,39.5173333 33.3873333,38.3733333 32.954,37.368 C32.5206667,36.3626667 31.9226667,35.5133333 31.16,34.82 C30.3973333,34.1266667 29.496,33.598 28.456,33.234 C27.416,32.87 26.2893333,32.688 25.076,32.688 C24.1746667,32.688 23.2733333,32.766 22.372,32.922 C21.4706667,33.078 20.6386667,33.2946667 19.876,33.572 L19.876,33.572 L20.708,26.552 L30.9,26.552 C32.0093333,26.552 32.5813333,25.928 32.616,24.68 L32.616,24.68 L32.772,21.976 L18.056,21.976 L16.756,36.952 C17.692,36.6746667 18.5326667,36.4753333 19.278,36.354 C20.0233333,36.2326667 20.7426667,36.172 21.436,36.172 C23.1,36.172 24.374,36.6226667 25.258,37.524 C26.142,38.4253333 26.584,39.708 26.584,41.372 C26.584,42.2733333 26.4453333,43.218 26.168,44.206 C25.8906667,45.194 25.3533333,46.208 24.556,47.248 C23.7586667,48.288 22.6406667,49.3366667 21.202,50.394 C19.7633333,51.4513333 17.8653333,52.5 15.508,53.54 C15.196,53.7133333 15.04,53.9213333 15.04,54.164 C15.04,54.3373333 15.092,54.5713333 15.196,54.866 C15.3,55.1606667 15.4213333,55.3946667 15.56,55.568 Z M49.1,46.624 C51.076,46.624 52.8526667,46.3033333 54.43,45.662 C56.0073333,45.0206667 57.3333333,44.128 58.408,42.984 C59.4826667,41.84 60.306,40.5053333 60.878,38.98 C61.45,37.4546667 61.736,35.808 61.736,34.04 C61.736,32.168 61.4326667,30.452 60.826,28.892 C60.2193333,27.332 59.3613333,25.9886667 58.252,24.862 C57.1426667,23.7353333 55.808,22.8513333 54.248,22.21 C52.688,21.5686667 50.972,21.248 49.1,21.248 C47.1933333,21.248 45.4686667,21.586 43.926,22.262 C42.3833333,22.938 41.0573333,23.848 39.948,24.992 C38.8386667,26.136 37.9806667,27.488 37.374,29.048 C36.7673333,30.608 36.464,32.272 36.464,34.04 C36.464,35.912 36.75,37.6193333 37.322,39.162 C37.894,40.7046667 38.7173333,42.0306667 39.792,43.14 C40.8666667,44.2493333 42.1926667,45.1073333 43.77,45.714 C45.3473333,46.3206667 47.124,46.624 49.1,46.624 Z M49.204,43.92 C48.4413333,43.92 47.7046667,43.7293333 46.994,43.348 C46.2833333,42.9666667 45.6593333,42.3773333 45.122,41.58 C44.5846667,40.7826667 44.16,39.76 43.848,38.512 C43.536,37.264 43.38,35.7733333 43.38,34.04 C43.38,32.2373333 43.536,30.6946667 43.848,29.412 C44.16,28.1293333 44.5846667,27.0893333 45.122,26.292 C45.6593333,25.4946667 46.2746667,24.9053333 46.968,24.524 C47.6613333,24.1426667 48.372,23.952 49.1,23.952 C49.828,23.952 50.5386667,24.1426667 51.232,24.524 C51.9253333,24.9053333 52.5406667,25.512 53.078,26.344 C53.6153333,27.176 54.04,28.2246667 54.352,29.49 C54.664,30.7553333 54.82,32.272 54.82,34.04 C54.82,35.808 54.6553333,37.316 54.326,38.564 C53.9966667,39.812 53.572,40.8346667 53.052,41.632 C52.532,42.4293333 51.934,43.01 51.258,43.374 C50.582,43.738 49.8973333,43.92 49.204,43.92 Z M76.712,46.624 C78.688,46.624 80.4646667,46.3033333 82.042,45.662 C83.6193333,45.0206667 84.9453333,44.128 86.02,42.984 C87.0946667,41.84 87.918,40.5053333 88.49,38.98 C89.062,37.4546667 89.348,35.808 89.348,34.04 C89.348,32.168 89.0446667,30.452 88.438,28.892 C87.8313333,27.332 86.9733333,25.9886667 85.864,24.862 C84.7546667,23.7353333 83.42,22.8513333 81.86,22.21 C80.3,21.5686667 78.584,21.248 76.712,21.248 C74.8053333,21.248 73.0806667,21.586 71.538,22.262 C69.9953333,22.938 68.6693333,23.848 67.56,24.992 C66.4506667,26.136 65.5926667,27.488 64.986,29.048 C64.3793333,30.608 64.076,32.272 64.076,34.04 C64.076,35.912 64.362,37.6193333 64.934,39.162 C65.506,40.7046667 66.3293333,42.0306667 67.404,43.14 C68.4786667,44.2493333 69.8046667,45.1073333 71.382,45.714 C72.9593333,46.3206667 74.736,46.624 76.712,46.624 Z M76.816,43.92 C76.0533333,43.92 75.3166667,43.7293333 74.606,43.348 C73.8953333,42.9666667 73.2713333,42.3773333 72.734,41.58 C72.1966667,40.7826667 71.772,39.76 71.46,38.512 C71.148,37.264 70.992,35.7733333 70.992,34.04 C70.992,32.2373333 71.148,30.6946667 71.46,29.412 C71.772,28.1293333 72.1966667,27.0893333 72.734,26.292 C73.2713333,25.4946667 73.8866667,24.9053333 74.58,24.524 C75.2733333,24.1426667 75.984,23.952 76.712,23.952 C77.44,23.952 78.1506667,24.1426667 78.844,24.524 C79.5373333,24.9053333 80.1526667,25.512 80.69,26.344 C81.2273333,27.176 81.652,28.2246667 81.964,29.49 C82.276,30.7553333 82.432,32.272 82.432,34.04 C82.432,35.808 82.2673333,37.316 81.938,38.564 C81.6086667,39.812 81.184,40.8346667 80.664,41.632 C80.144,42.4293333 79.546,43.01 78.87,43.374 C78.194,43.738 77.5093333,43.92 76.816,43.92 Z M104.324,46.624 C106.3,46.624 108.076667,46.3033333 109.654,45.662 C111.231333,45.0206667 112.557333,44.128 113.632,42.984 C114.706667,41.84 115.53,40.5053333 116.102,38.98 C116.674,37.4546667 116.96,35.808 116.96,34.04 C116.96,32.168 116.656667,30.452 116.05,28.892 C115.443333,27.332 114.585333,25.9886667 113.476,24.862 C112.366667,23.7353333 111.032,22.8513333 109.472,22.21 C107.912,21.5686667 106.196,21.248 104.324,21.248 C102.417333,21.248 100.692667,21.586 99.15,22.262 C97.6073333,22.938 96.2813333,23.848 95.172,24.992 C94.0626667,26.136 93.2046667,27.488 92.598,29.048 C91.9913333,30.608 91.688,32.272 91.688,34.04 C91.688,35.912 91.974,37.6193333 92.546,39.162 C93.118,40.7046667 93.9413333,42.0306667 95.016,43.14 C96.0906667,44.2493333 97.4166667,45.1073333 98.994,45.714 C100.571333,46.3206667 102.348,46.624 104.324,46.624 Z M104.428,43.92 C103.665333,43.92 102.928667,43.7293333 102.218,43.348 C101.507333,42.9666667 100.883333,42.3773333 100.346,41.58 C99.8086667,40.7826667 99.384,39.76 99.072,38.512 C98.76,37.264 98.604,35.7733333 98.604,34.04 C98.604,32.2373333 98.76,30.6946667 99.072,29.412 C99.384,28.1293333 99.8086667,27.0893333 100.346,26.292 C100.883333,25.4946667 101.498667,24.9053333 102.192,24.524 C102.885333,24.1426667 103.596,23.952 104.324,23.952 C105.052,23.952 105.762667,24.1426667 106.456,24.524 C107.149333,24.9053333 107.764667,25.512 108.302,26.344 C108.839333,27.176 109.264,28.2246667 109.576,29.49 C109.888,30.7553333 110.044,32.272 110.044,34.04 C110.044,35.808 109.879333,37.316 109.55,38.564 C109.220667,39.812 108.796,40.8346667 108.276,41.632 C107.756,42.4293333 107.158,43.01 106.482,43.374 C105.806,43.738 105.121333,43.92 104.428,43.92 Z" id="5000"></path>
                            <path d="M7.968,32.088 L7.968,31.704 L6.96,31.528 C6.544,31.464 6.336,31.2773333 6.336,30.968 L6.336,30.968 L6.336,29.768 L9.488,29.768 L9.488,29.304 L6.336,29.304 L6.336,28.44 C6.336,28.0986667 6.352,27.848 6.384,27.688 L6.384,27.688 L9.488,27.688 L9.488,27.224 L6.592,27.224 L8.848,23.784 C9.12533333,23.3573333 9.38133333,23.0426667 9.616,22.84 C9.85066667,22.6373333 10.048,22.52 10.208,22.488 L10.208,22.488 L10.752,22.36 L10.752,21.992 C10.6346667,22.0133333 10.424,22.0293333 10.12,22.04 C9.816,22.0506667 9.424,22.056 8.944,22.056 L8.56326531,22.0550204 C7.85404082,22.051102 7.45828571,22.0354286 7.376,22.008 L7.376,22.008 L7.376,22.376 L8.24,22.536 C8.50666667,22.6 8.64,22.7173333 8.64,22.888 C8.64,23.0373333 8.56533333,23.224 8.416,23.448 C8.01066667,24.056 7.61333333,24.6666667 7.224,25.28 C6.83466667,25.8933333 6.44266667,26.5093333 6.048,27.128 L6.048,27.128 L3.504,23 C3.46133333,22.9466667 3.44,22.888 3.44,22.824 C3.44,22.6746667 3.584,22.5733333 3.872,22.52 L3.872,22.52 L4.592,22.376 L4.592,22.008 C4.48533333,22.0186667 4.34133333,22.0266667 4.16,22.032 C3.97866667,22.0373333 3.77333333,22.0426667 3.544,22.048 C3.31466667,22.0533333 3.06666667,22.056 2.8,22.056 L1.53208163,22.0550204 C0.684408163,22.051102 0.173714286,22.0354286 0,22.008 L0,22.008 L0,22.376 L0.704,22.472 C0.981333333,22.504 1.32266667,22.84 1.728,23.48 L1.728,23.48 L4.08,27.224 L1.04,27.224 L1.04,27.688 L4.368,27.688 C4.44266667,27.816 4.50666667,27.9386667 4.56,28.056 C4.61333333,28.184 4.63466667,28.3066667 4.624,28.424 L4.624,28.424 L4.624,29.304 L1.04,29.304 L1.04,29.768 L4.624,29.768 L4.624,31 C4.624,31.16 4.54933333,31.288 4.4,31.384 C4.25066667,31.48 4.064,31.544 3.84,31.576 L3.84,31.576 L2.944,31.736 L2.944,32.088 C3.296,32.0666667 3.656,32.0533333 4.024,32.048 C4.392,32.0426667 4.736,32.04 5.056,32.04 C5.38666667,32.04 5.8,32.0426667 6.296,32.048 C6.792,32.0533333 7.34933333,32.0666667 7.968,32.088 L7.968,32.088 Z" id="¥"></path>
                            <path d="M117.376,54.4 L122.234,41.52 L120.862,41.52 L115.99,54.4 L117.376,54.4 Z M131.852,54.498 L131.852,51.516 L136.528,51.516 L136.528,50.088 L131.852,50.088 L131.852,47.498 L135.618,47.498 L135.618,46.126 L131.852,46.126 L131.852,44.32 L136.108,44.32 L136.108,42.906 L127.666,42.906 C127.82,42.514 127.96,42.094 128.086,41.646 L126.574,41.366 C126.098,43.116 125.16,44.502 123.774,45.538 L124.754,46.784 C125.636,46.112 126.378,45.3 126.966,44.32 L130.382,44.32 L130.382,46.126 L126.238,46.126 L126.238,50.088 L124.082,50.088 L124.082,51.516 L130.382,51.516 L130.382,54.498 L131.852,54.498 Z M130.382,50.088 L127.708,50.088 L127.708,47.498 L130.382,47.498 L130.382,50.088 Z" id="/年"></path>
                        </g>
                    </g>
                </g>
            </g>
        </g>
    </g>
</svg>