<?xml version="1.0" encoding="UTF-8"?>
<svg width="102px" height="37px" viewBox="0 0 102 37" version="1.1" xmlns="http://www.w3.org/2000/svg" xmlns:xlink="http://www.w3.org/1999/xlink">
    <!-- Generator: Sketch 64 (93537) - https://sketch.com -->
    <title>价格2</title>
    <desc>Created with Sketch.</desc>
    <g id="页面-1" stroke="none" stroke-width="1" fill="none" fill-rule="evenodd">
        <g id="会员页1" transform="translate(-800.000000, -415.000000)" fill="#000A1A">
            <g id="右侧所有内容" transform="translate(190.000000, 116.000000)">
                <g id="表格所有内容" transform="translate(62.000000, 154.000000)">
                    <g id="2" transform="translate(514.000000, 0.000000)">
                        <g id="价格2" transform="translate(34.000000, 140.000000)">
                            <path d="M66.804173,5 C69.24351,5 71.2418599,5.38482619 72.7992828,6.15449011 C74.3567056,6.92415403 75.5857377,7.91907051 76.486416,9.13926941 C77.3870943,10.3594683 78.0156832,11.739211 78.3722017,13.2785388 C78.7287202,14.8178667 78.9069767,16.3571714 78.9069767,17.8964992 C78.9069767,20.074085 78.5692275,22.3173401 77.8937188,24.6263318 C77.2182101,26.9353236 76.1299068,29.1691927 74.6287764,31.3280061 C73.1276459,33.4868195 71.2043514,35.4954245 68.858835,37.3538813 C66.5133187,39.2123381 63.6893594,40.7610288 60.3868724,42 C59.9740615,41.3992867 59.7676592,40.8924425 59.7676592,40.4794521 C59.7676592,40.21664 59.9365338,39.9350598 60.2742882,39.6347032 C61.96306,38.3581874 63.3609667,37.1849369 64.4680504,36.1149163 C65.5751341,35.0448957 66.5133266,33.9655052 67.2826559,32.8767123 C68.0519853,31.7879195 68.6805742,30.6052829 69.1684416,29.3287671 C69.656309,28.0522514 70.1066414,26.5880346 70.5194523,24.9360731 C68.8682088,26.3252226 66.8229492,27.0197869 64.3836123,27.0197869 C63.0325949,27.0197869 61.775417,26.8320668 60.6120409,26.456621 C59.4486648,26.0811752 58.4354169,25.4710849 57.5722669,24.6263318 C56.7091169,23.7815787 56.0336183,22.7115742 55.5457509,21.4162861 C55.0578835,20.1209981 54.8139535,18.5347633 54.8139535,16.6575342 C54.8139535,15.1932956 55.0860293,13.7666229 55.6301891,12.3774734 C56.1743489,10.9883239 56.9530486,9.74937125 57.9663117,8.66057839 C58.9795747,7.57178553 60.2273707,6.6895011 61.709737,6.01369863 C63.1921033,5.33789616 64.8902317,5 66.804173,5 Z M32.3855684,5 C34.8249053,5 36.8232553,5.38482619 38.3806781,6.15449011 C39.938101,6.92415403 41.1671331,7.91907051 42.0678113,9.13926941 C42.9684896,10.3594683 43.5970786,11.739211 43.953597,13.2785388 C44.3101155,14.8178667 44.4883721,16.3571714 44.4883721,17.8964992 C44.4883721,20.074085 44.1506228,22.3173401 43.4751141,24.6263318 C42.7996054,26.9353236 41.7113022,29.1691927 40.2101717,31.3280061 C38.7090413,33.4868195 36.7857467,35.4954245 34.4402304,37.3538813 C32.0947141,39.2123381 29.2707548,40.7610288 25.9682678,42 C25.5554569,41.3992867 25.3490546,40.8924425 25.3490546,40.4794521 C25.3490546,40.21664 25.5179292,39.9350598 25.8556835,39.6347032 C27.5444553,38.3581874 28.9423621,37.1849369 30.0494458,36.1149163 C31.1565295,35.0448957 32.0947219,33.9655052 32.8640513,32.8767123 C33.6333806,31.7879195 34.2619696,30.6052829 34.749837,29.3287671 C35.2377044,28.0522514 35.6880368,26.5880346 36.1008476,24.9360731 C34.4496041,26.3252226 32.4043446,27.0197869 29.9650076,27.0197869 C28.6139902,27.0197869 27.3568123,26.8320668 26.1934362,26.456621 C25.0300601,26.0811752 24.0168123,25.4710849 23.1536622,24.6263318 C22.2905122,23.7815787 21.6150137,22.7115742 21.1271463,21.4162861 C20.6392789,20.1209981 20.3953488,18.5347633 20.3953488,16.6575342 C20.3953488,15.1932956 20.6674247,13.7666229 21.2115844,12.3774734 C21.7557442,10.9883239 22.534444,9.74937125 23.547707,8.66057839 C24.5609701,7.57178553 25.808766,6.6895011 27.2911324,6.01369863 C28.7734987,5.33789616 30.471627,5 32.3855684,5 Z M50.5116279,29.9534884 C51.9372932,29.9534884 53.0930233,31.1092184 53.0930233,32.5348837 C53.0930233,33.960549 51.9372932,35.1162791 50.5116279,35.1162791 C49.0859626,35.1162791 47.9302326,33.960549 47.9302326,32.5348837 C47.9302326,31.1092184 49.0859626,29.9534884 50.5116279,29.9534884 Z M66.804173,7.64687976 C65.3405708,7.64687976 64.195976,8.26635606 63.3703543,9.50532725 C62.5447325,10.7442984 62.1319278,12.8843075 62.1319278,15.9254186 C62.1319278,18.7037176 62.5165867,20.6653925 63.2859161,21.8105023 C64.0552455,22.955612 65.1716945,23.5281583 66.6352967,23.5281583 C67.6485597,23.5281583 68.4554052,23.3404382 69.0558574,22.9649924 C69.6563096,22.5895466 70.106642,22.0920883 70.4068681,21.4726027 C70.7070942,20.8531171 70.9041146,20.1210088 70.9979352,19.2762557 C71.0917559,18.4315026 71.1386655,17.5586042 71.1386655,16.6575342 C71.1386655,10.6504012 69.6938491,7.64687976 66.804173,7.64687976 Z M32.3855684,7.64687976 C30.9219662,7.64687976 29.7773714,8.26635606 28.9517496,9.50532725 C28.1261279,10.7442984 27.7133232,12.8843075 27.7133232,15.9254186 C27.7133232,18.7037176 28.0979821,20.6653925 28.8673115,21.8105023 C29.6366408,22.955612 30.7530898,23.5281583 32.216692,23.5281583 C33.2299551,23.5281583 34.0368006,23.3404382 34.6372528,22.9649924 C35.237705,22.5895466 35.6880373,22.0920883 35.9882634,21.4726027 C36.2884895,20.8531171 36.4855099,20.1210088 36.5793306,19.2762557 C36.6731512,18.4315026 36.7200609,17.5586042 36.7200609,16.6575342 C36.7200609,10.6504012 35.2752445,7.64687976 32.3855684,7.64687976 Z" id="Combined-Shape"></path>
                            <path d="M84.0760003,40.4 L88.9340003,27.52 L87.5620003,27.52 L82.6900003,40.4 L84.0760003,40.4 Z M92.9380003,40.554 C93.8060003,39.364 94.3380003,37.88 94.5340003,36.116 L100.148,36.116 L100.148,38.412 C100.148,38.776 100.008,38.972 99.7280003,38.972 C99.2100003,38.972 98.6360003,38.944 98.0200003,38.902 L98.4120003,40.33 L100.204,40.33 C101.156,40.33 101.632,39.868 101.632,38.944 L101.632,27.968 L93.1480003,27.968 L93.1480003,34.842 C93.1200003,36.746 92.6860003,38.314 91.8180003,39.532 L92.9380003,40.554 Z M100.148,31.328 L94.6180003,31.328 L94.6180003,29.368 L100.148,29.368 L100.148,31.328 Z M100.148,34.758 L94.6180003,34.758 L94.6180003,32.686 L100.148,32.686 L100.148,34.758 Z" id="/月" fill-rule="nonzero"></path>
                            <path d="M7.968,16.088 L7.968,15.704 L6.96,15.528 C6.544,15.464 6.336,15.2773333 6.336,14.968 L6.336,14.968 L6.336,13.768 L9.488,13.768 L9.488,13.304 L6.336,13.304 L6.336,12.44 C6.336,12.0986667 6.352,11.848 6.384,11.688 L6.384,11.688 L9.488,11.688 L9.488,11.224 L6.592,11.224 L8.848,7.784 C9.12533333,7.35733333 9.38133333,7.04266667 9.616,6.84 C9.85066667,6.63733333 10.048,6.52 10.208,6.488 L10.208,6.488 L10.752,6.36 L10.752,5.992 C10.6346667,6.01333333 10.424,6.02933333 10.12,6.04 C9.816,6.05066667 9.424,6.056 8.944,6.056 L8.56326531,6.05502041 C7.85404082,6.05110204 7.45828571,6.03542857 7.376,6.008 L7.376,6.008 L7.376,6.376 L8.24,6.536 C8.50666667,6.6 8.64,6.71733333 8.64,6.888 C8.64,7.03733333 8.56533333,7.224 8.416,7.448 C8.01066667,8.056 7.61333333,8.66666667 7.224,9.28 C6.83466667,9.89333333 6.44266667,10.5093333 6.048,11.128 L6.048,11.128 L3.504,7 C3.46133333,6.94666667 3.44,6.888 3.44,6.824 C3.44,6.67466667 3.584,6.57333333 3.872,6.52 L3.872,6.52 L4.592,6.376 L4.592,6.008 C4.48533333,6.01866667 4.34133333,6.02666667 4.16,6.032 C3.97866667,6.03733333 3.77333333,6.04266667 3.544,6.048 C3.31466667,6.05333333 3.06666667,6.056 2.8,6.056 L1.53208163,6.05502041 C0.684408163,6.05110204 0.173714286,6.03542857 0,6.008 L0,6.008 L0,6.376 L0.704,6.472 C0.981333333,6.504 1.32266667,6.84 1.728,7.48 L1.728,7.48 L4.08,11.224 L1.04,11.224 L1.04,11.688 L4.368,11.688 C4.44266667,11.816 4.50666667,11.9386667 4.56,12.056 C4.61333333,12.184 4.63466667,12.3066667 4.624,12.424 L4.624,12.424 L4.624,13.304 L1.04,13.304 L1.04,13.768 L4.624,13.768 L4.624,15 C4.624,15.16 4.54933333,15.288 4.4,15.384 C4.25066667,15.48 4.064,15.544 3.84,15.576 L3.84,15.576 L2.944,15.736 L2.944,16.088 C3.296,16.0666667 3.656,16.0533333 4.024,16.048 C4.392,16.0426667 4.736,16.04 5.056,16.04 C5.38666667,16.04 5.8,16.0426667 6.296,16.048 C6.792,16.0533333 7.34933333,16.0666667 7.968,16.088 L7.968,16.088 Z" id="¥" fill-rule="nonzero"></path>
                        </g>
                    </g>
                </g>
            </g>
        </g>
    </g>
</svg>