<?xml version="1.0" encoding="UTF-8"?>
<svg width="85px" height="37px" viewBox="0 0 85 37" version="1.1" xmlns="http://www.w3.org/2000/svg" xmlns:xlink="http://www.w3.org/1999/xlink">
    <!-- Generator: Sketch 64 (93537) - https://sketch.com -->
    <title>价格1</title>
    <desc>Created with Sketch.</desc>
    <g id="页面-1" stroke="none" stroke-width="1" fill="none" fill-rule="evenodd">
        <g id="会员页1" transform="translate(-578.000000, -414.000000)" fill="#5C6066">
            <g id="右侧所有内容" transform="translate(190.000000, 116.000000)">
                <g id="表格所有内容" transform="translate(62.000000, 154.000000)">
                    <g id="1" transform="translate(280.000000, 0.000000)">
                        <g id="价格1" transform="translate(46.000000, 138.000000)">
                            <g id="Group">
                                <path d="M8.416,16.088 L8.416,15.704 L7.408,15.528 C6.992,15.464 6.784,15.2773333 6.784,14.968 L6.784,14.968 L6.784,13.768 L9.936,13.768 L9.936,13.304 L6.784,13.304 L6.784,12.44 C6.784,12.0986667 6.8,11.848 6.832,11.688 L6.832,11.688 L9.936,11.688 L9.936,11.224 L7.04,11.224 L9.296,7.784 C9.57333333,7.35733333 9.82933333,7.04266667 10.064,6.84 C10.2986667,6.63733333 10.496,6.52 10.656,6.488 L10.656,6.488 L11.2,6.36 L11.2,5.992 C11.0826667,6.01333333 10.872,6.02933333 10.568,6.04 C10.264,6.05066667 9.872,6.056 9.392,6.056 L9.01126531,6.05502041 C8.30204082,6.05110204 7.90628571,6.03542857 7.824,6.008 L7.824,6.008 L7.824,6.376 L8.688,6.536 C8.95466667,6.6 9.088,6.71733333 9.088,6.888 C9.088,7.03733333 9.01333333,7.224 8.864,7.448 C8.45866667,8.056 8.06133333,8.66666667 7.672,9.28 C7.28266667,9.89333333 6.89066667,10.5093333 6.496,11.128 L6.496,11.128 L3.952,7 C3.90933333,6.94666667 3.888,6.888 3.888,6.824 C3.888,6.67466667 4.032,6.57333333 4.32,6.52 L4.32,6.52 L5.04,6.376 L5.04,6.008 C4.93333333,6.01866667 4.78933333,6.02666667 4.608,6.032 C4.42666667,6.03733333 4.22133333,6.04266667 3.992,6.048 C3.76266667,6.05333333 3.51466667,6.056 3.248,6.056 L1.98008163,6.05502041 C1.13240816,6.05110204 0.621714286,6.03542857 0.448,6.008 L0.448,6.008 L0.448,6.376 L1.152,6.472 C1.42933333,6.504 1.77066667,6.84 2.176,7.48 L2.176,7.48 L4.528,11.224 L1.488,11.224 L1.488,11.688 L4.816,11.688 C4.89066667,11.816 4.95466667,11.9386667 5.008,12.056 C5.06133333,12.184 5.08266667,12.3066667 5.072,12.424 L5.072,12.424 L5.072,13.304 L1.488,13.304 L1.488,13.768 L5.072,13.768 L5.072,15 C5.072,15.16 4.99733333,15.288 4.848,15.384 C4.69866667,15.48 4.512,15.544 4.288,15.576 L4.288,15.576 L3.392,15.736 L3.392,16.088 C3.744,16.0666667 4.104,16.0533333 4.472,16.048 C4.84,16.0426667 5.184,16.04 5.504,16.04 C5.83466667,16.04 6.248,16.0426667 6.744,16.048 C7.24,16.0533333 7.79733333,16.0666667 8.416,16.088 L8.416,16.088 Z" id="¥" fill-rule="nonzero"></path>
                                <path d="M40,43 C37.1851711,43 34.6543322,42.5696764 32.4074074,41.7090164 C30.1604826,40.8483564 28.2716126,39.6311554 26.7407407,38.057377 C25.2098689,36.4835987 24.0370411,34.60247 23.2222222,32.4139344 C22.4074033,30.2253989 22,27.803292 22,25.147541 C22,22.6393317 22.4320944,20.2786996 23.2962963,18.0655738 C24.1604981,15.852448 25.3827081,13.9344343 26.962963,12.3114754 C28.5432178,10.6885165 30.4320878,9.39754578 32.6296296,8.43852459 C34.8271715,7.4795034 37.283937,7 40,7 C42.66668,7 45.1111,7.45491348 47.3333333,8.3647541 C49.5555667,9.27459471 51.4567822,10.5286805 53.037037,12.1270492 C54.6172919,13.7254178 55.8395019,15.6311365 56.7037037,17.8442623 C57.5679056,20.0573881 58,22.49179 58,25.147541 C58,27.6557502 57.5925967,29.9917925 56.7777778,32.1557377 C55.9629589,34.319683 54.7901311,36.2131066 53.2592593,37.8360656 C51.7283874,39.4590245 49.8395174,40.7254053 47.5925926,41.6352459 C45.3456678,42.5450865 42.8148289,43 40,43 Z M32.0465116,25.5668605 C32.0465116,28.0378031 32.2634228,30.1627818 32.6972516,31.9418605 C33.1310804,33.7209391 33.7215607,35.1787734 34.4687104,36.315407 C35.21586,37.4520406 36.0835046,38.2921484 37.0716702,38.8357558 C38.0598358,39.3793632 39.0841385,39.6511628 40.1446089,39.6511628 C41.1086729,39.6511628 42.0606718,39.3917177 43.0006342,38.8728198 C43.9405967,38.3539218 44.7720894,37.5261685 45.4951374,36.3895349 C46.2181854,35.2529013 46.8086658,33.795067 47.2665962,32.0159884 C47.7245266,30.2369097 47.9534884,28.0872219 47.9534884,25.5668605 C47.9534884,23.046499 47.7365772,20.8844567 47.3027484,19.0806686 C46.8689196,17.2768805 46.2784393,15.7819827 45.5312896,14.5959302 C44.78414,13.4098778 43.928546,12.5450609 42.964482,12.0014535 C42.000418,11.4578461 41.0122672,11.1860465 40,11.1860465 C38.9877328,11.1860465 37.999582,11.4578461 37.035518,12.0014535 C36.071454,12.5450609 35.21586,13.3851687 34.4687104,14.5218023 C33.7215607,15.6584359 33.1310804,17.1409792 32.6972516,18.9694767 C32.2634228,20.7979743 32.0465116,22.9970802 32.0465116,25.5668605 Z" id="0"></path>
                                <path d="M67.064,41.4 L71.922,28.52 L70.55,28.52 L65.678,41.4 L67.064,41.4 Z M75.926,41.554 C76.794,40.364 77.326,38.88 77.522,37.116 L83.136,37.116 L83.136,39.412 C83.136,39.776 82.996,39.972 82.716,39.972 C82.198,39.972 81.624,39.944 81.008,39.902 L81.4,41.33 L83.192,41.33 C84.144,41.33 84.62,40.868 84.62,39.944 L84.62,28.968 L76.136,28.968 L76.136,35.842 C76.108,37.746 75.674,39.314 74.806,40.532 L75.926,41.554 Z M83.136,32.328 L77.606,32.328 L77.606,30.368 L83.136,30.368 L83.136,32.328 Z M83.136,35.758 L77.606,35.758 L77.606,33.686 L83.136,33.686 L83.136,35.758 Z" id="/月" fill-rule="nonzero"></path>
                            </g>
                        </g>
                    </g>
                </g>
            </g>
        </g>
    </g>
</svg>