<?xml version="1.0" encoding="UTF-8"?>
<svg width="125px" height="37px" viewBox="0 0 125 37" version="1.1" xmlns="http://www.w3.org/2000/svg" xmlns:xlink="http://www.w3.org/1999/xlink">
    <!-- Generator: Sketch 56.3 (81716) - https://sketch.com -->
    <title>价格</title>
    <desc>Created with Sketch.</desc>
    <g id="页面1" stroke="none" stroke-width="1" fill="none" fill-rule="evenodd">
        <g id="价格页面" transform="translate(-786.000000, -290.000000)">
            <g id="编组-5" transform="translate(140.000000, 125.000000)">
                <g id="间距-&lt;10-12-10-12&gt;">
                    <g id="内容" transform="translate(12.000000, 10.000000)">
                        <g id="编组-4" transform="translate(261.000000, 27.000000)">
                            <g id="编组-2" transform="translate(360.000000, 0.000000)">
                                <g id="价格" transform="translate(13.000000, 123.000000)">
                                    <path d="M93.5194523,24.9360731 C91.8682088,26.3252226 89.8229492,27.0197869 87.3836123,27.0197869 C86.0325949,27.0197869 84.775417,26.8320668 83.6120409,26.456621 C82.4486648,26.0811752 81.4354169,25.4710849 80.5722669,24.6263318 C79.7091169,23.7815787 79.0336183,22.7115742 78.5457509,21.4162861 C78.0578835,20.1209981 77.8139535,18.5347633 77.8139535,16.6575342 C77.8139535,15.1932956 78.0860293,13.7666229 78.6301891,12.3774734 C79.1743489,10.9883239 79.9530486,9.74937125 80.9663117,8.66057839 C81.9795747,7.57178553 83.2273707,6.6895011 84.709737,6.01369863 C86.1921033,5.33789616 87.8902317,5 89.804173,5 C92.24351,5 94.2418599,5.38482619 95.7992828,6.15449011 C97.3567056,6.92415403 98.5857377,7.91907051 99.486416,9.13926941 C100.387094,10.3594683 101.015683,11.739211 101.372202,13.2785388 C101.72872,14.8178667 101.906977,16.3571714 101.906977,17.8964992 C101.906977,20.074085 101.569227,22.3173401 100.893719,24.6263318 C100.21821,26.9353236 99.1299068,29.1691927 97.6287764,31.3280061 C96.1276459,33.4868195 94.2043514,35.4954245 91.858835,37.3538813 C89.5133187,39.2123381 86.6893594,40.7610288 83.3868724,42 C82.9740615,41.3992867 82.7676592,40.8924425 82.7676592,40.4794521 C82.7676592,40.21664 82.9365338,39.9350598 83.2742882,39.6347032 C84.96306,38.3581874 86.3609667,37.1849369 87.4680504,36.1149163 C88.5751341,35.0448957 89.5133266,33.9655052 90.2826559,32.8767123 C91.0519853,31.7879195 91.6805742,30.6052829 92.1684416,29.3287671 C92.656309,28.0522514 93.1066414,26.5880346 93.5194523,24.9360731 Z M89.6352967,23.5281583 C90.6485597,23.5281583 91.4554052,23.3404382 92.0558574,22.9649924 C92.6563096,22.5895466 93.106642,22.0920883 93.4068681,21.4726027 C93.7070942,20.8531171 93.9041146,20.1210088 93.9979352,19.2762557 C94.0917559,18.4315026 94.1386655,17.5586042 94.1386655,16.6575342 C94.1386655,10.6504012 92.6938491,7.64687976 89.804173,7.64687976 C88.3405708,7.64687976 87.195976,8.26635606 86.3703543,9.50532725 C85.5447325,10.7442984 85.1319278,12.8843075 85.1319278,15.9254186 C85.1319278,18.7037176 85.5165867,20.6653925 86.2859161,21.8105023 C87.0552455,22.955612 88.1716945,23.5281583 89.6352967,23.5281583 Z M59.1008476,24.9360731 C57.4496041,26.3252226 55.4043446,27.0197869 52.9650076,27.0197869 C51.6139902,27.0197869 50.3568123,26.8320668 49.1934362,26.456621 C48.0300601,26.0811752 47.0168123,25.4710849 46.1536622,24.6263318 C45.2905122,23.7815787 44.6150137,22.7115742 44.1271463,21.4162861 C43.6392789,20.1209981 43.3953488,18.5347633 43.3953488,16.6575342 C43.3953488,15.1932956 43.6674247,13.7666229 44.2115844,12.3774734 C44.7557442,10.9883239 45.534444,9.74937125 46.547707,8.66057839 C47.5609701,7.57178553 48.808766,6.6895011 50.2911324,6.01369863 C51.7734987,5.33789616 53.471627,5 55.3855684,5 C57.8249053,5 59.8232553,5.38482619 61.3806781,6.15449011 C62.938101,6.92415403 64.1671331,7.91907051 65.0678113,9.13926941 C65.9684896,10.3594683 66.5970786,11.739211 66.953597,13.2785388 C67.3101155,14.8178667 67.4883721,16.3571714 67.4883721,17.8964992 C67.4883721,20.074085 67.1506228,22.3173401 66.4751141,24.6263318 C65.7996054,26.9353236 64.7113022,29.1691927 63.2101717,31.3280061 C61.7090413,33.4868195 59.7857467,35.4954245 57.4402304,37.3538813 C55.0947141,39.2123381 52.2707548,40.7610288 48.9682678,42 C48.5554569,41.3992867 48.3490546,40.8924425 48.3490546,40.4794521 C48.3490546,40.21664 48.5179292,39.9350598 48.8556835,39.6347032 C50.5444553,38.3581874 51.9423621,37.1849369 53.0494458,36.1149163 C54.1565295,35.0448957 55.0947219,33.9655052 55.8640513,32.8767123 C56.6333806,31.7879195 57.2619696,30.6052829 57.749837,29.3287671 C58.2377044,28.0522514 58.6880368,26.5880346 59.1008476,24.9360731 Z M55.216692,23.5281583 C56.2299551,23.5281583 57.0368006,23.3404382 57.6372528,22.9649924 C58.237705,22.5895466 58.6880373,22.0920883 58.9882634,21.4726027 C59.2884895,20.8531171 59.4855099,20.1210088 59.5793306,19.2762557 C59.6731512,18.4315026 59.7200609,17.5586042 59.7200609,16.6575342 C59.7200609,10.6504012 58.2752445,7.64687976 55.3855684,7.64687976 C53.9219662,7.64687976 52.7773714,8.26635606 51.9517496,9.50532725 C51.1261279,10.7442984 50.7133232,12.8843075 50.7133232,15.9254186 C50.7133232,18.7037176 51.0979821,20.6653925 51.8673115,21.8105023 C52.6366408,22.955612 53.7530898,23.5281583 55.216692,23.5281583 Z M73.5116279,35.1162791 C72.0859626,35.1162791 70.9302326,33.960549 70.9302326,32.5348837 C70.9302326,31.1092184 72.0859626,29.9534884 73.5116279,29.9534884 C74.9372932,29.9534884 76.0930233,31.1092184 76.0930233,32.5348837 C76.0930233,33.960549 74.9372932,35.1162791 73.5116279,35.1162791 Z M41.6744186,27.0445525 L41.6744186,31.5549468 L37.5706619,31.5549468 L37.5706619,41.1395349 L30.8450606,41.1395349 L30.8450606,31.5549468 L15.1139932,31.5549468 C15.0759953,31.2542524 15.0474973,30.9065796 15.0284983,30.5119182 C15.0094993,30.1172567 15,29.8635495 15,29.7507891 C15,29.6380287 15.028498,29.4782871 15.0854949,29.2715597 C15.1424918,29.0648323 15.2659833,28.8675045 15.455973,28.6795704 L33.7518883,5.39465951 C33.8278842,5.28189908 33.9228776,5.18793347 34.0368714,5.11275986 C34.1508652,5.03758624 34.3218534,5 34.549841,5 L37.5706619,5 L37.5706619,27.0445525 L41.6744186,27.0445525 Z M30.4883721,13.6046512 L20.1627907,27.372093 L30.4883721,27.372093 L30.4883721,13.6046512 Z" id="Combined-Shape" fill="#8352E7"></path>
                                    <path d="M110.562,27.52 L111.934,27.52 L107.076,40.4 L105.69,40.4 L110.562,27.52 Z M117.618,32.686 L117.618,34.758 L123.148,34.758 L123.148,32.686 L117.618,32.686 Z M123.148,31.328 L123.148,29.368 L117.618,29.368 L117.618,31.328 L123.148,31.328 Z M117.534,36.116 C117.338,37.88 116.806,39.364 115.938,40.554 L114.818,39.532 C115.686,38.314 116.12,36.746 116.148,34.842 L116.148,27.968 L124.632,27.968 L124.632,38.944 C124.632,39.868 124.156,40.33 123.204,40.33 L121.412,40.33 L121.02,38.902 C121.636,38.944 122.21,38.972 122.728,38.972 C123.008,38.972 123.148,38.776 123.148,38.412 L123.148,36.116 L117.534,36.116 Z" id="/月" fill="#7540E6" fill-rule="nonzero"></path>
                                    <path d="M1.04,11.688 L1.04,11.224 L4.08,11.224 L1.728,7.48 C1.32266464,6.8399968 0.98133472,6.50400016 0.704,6.472 L0,6.376 L0,6.008 C0.20266768,6.04000016 0.8639944,6.056 1.984,6.056 L2.8,6.056 C3.066668,6.056 3.31466552,6.05333336 3.544,6.048 C3.77333448,6.04266664 3.97866576,6.03733336 4.16,6.032 C4.34133424,6.02666664 4.4853328,6.01866672 4.592,6.008 L4.592,6.376 L3.872,6.52 C3.58399856,6.5733336 3.44,6.67466592 3.44,6.824 C3.44,6.88800032 3.46133312,6.9466664 3.504,7 L6.048,11.128 C6.44266864,10.5093302 6.83466472,9.8933364 7.224,9.28 C7.61333528,8.6666636 8.01066464,8.05600304 8.416,7.448 C8.56533408,7.22399888 8.64,7.03733408 8.64,6.888 C8.64,6.71733248 8.506668,6.60000032 8.24,6.536 L7.376,6.376 L7.376,6.008 C7.47200048,6.04000016 7.99466192,6.056 8.944,6.056 C9.4240024,6.056 9.81599848,6.05066672 10.12,6.04 C10.4240015,6.02933328 10.6346661,6.01333344 10.752,5.992 L10.752,6.36 L10.208,6.488 C10.0479992,6.52000016 9.85066784,6.63733232 9.616,6.84 C9.38133216,7.04266768 9.12533472,7.3573312 8.848,7.784 L6.592,11.224 L9.488,11.224 L9.488,11.688 L6.384,11.688 C6.35199984,11.8480008 6.336,12.098665 6.336,12.44 L6.336,13.304 L9.488,13.304 L9.488,13.768 L6.336,13.768 L6.336,14.968 C6.336,15.2773349 6.54399792,15.4639997 6.96,15.528 L7.968,15.704 L7.968,16.088 C7.34933024,16.0666666 6.79200248,16.0533334 6.296,16.048 C5.79999752,16.0426666 5.38666832,16.04 5.056,16.04 C4.7359984,16.04 4.39200184,16.0426666 4.024,16.048 C3.65599816,16.0533334 3.29600176,16.0666666 2.944,16.088 L2.944,15.736 L3.84,15.576 C4.06400112,15.5439998 4.25066592,15.4800005 4.4,15.384 C4.54933408,15.2879995 4.624,15.1600008 4.624,15 L4.624,13.768 L1.04,13.768 L1.04,13.304 L4.624,13.304 L4.624,12.424 C4.63466672,12.3066661 4.6133336,12.1840006 4.56,12.056 C4.5066664,11.9386661 4.44266704,11.8160006 4.368,11.688 L1.04,11.688 Z" id="¥" fill="#8352E7" fill-rule="nonzero"></path>
                                </g>
                            </g>
                        </g>
                    </g>
                </g>
            </g>
        </g>
    </g>
</svg>