<?xml version="1.0" encoding="UTF-8"?>
<svg width="137px" height="35px" viewBox="0 0 137 35" version="1.1" xmlns="http://www.w3.org/2000/svg" xmlns:xlink="http://www.w3.org/1999/xlink">
    <!-- Generator: Sketch 56.3 (81716) - https://sketch.com -->
    <title>价格1</title>
    <desc>Created with Sketch.</desc>
    <g id="页面1" stroke="none" stroke-width="1" fill="none" fill-rule="evenodd">
        <g id="价格页面" transform="translate(-965.000000, -291.000000)" fill-rule="nonzero">
            <g id="编组-5" transform="translate(140.000000, 125.000000)">
                <g id="间距-&lt;10-12-10-12&gt;">
                    <g id="内容" transform="translate(12.000000, 10.000000)">
                        <g id="编组-4" transform="translate(261.000000, 27.000000)">
                            <g id="编组-2" transform="translate(539.000000, 0.000000)">
                                <g id="价格1" transform="translate(13.000000, 129.000000)">
                                    <path d="M17.978,15.536 C19.6420083,14.7039958 21.011328,13.9500034 22.086,13.274 C23.160672,12.5979966 24.0013303,11.9480031 24.608,11.324 C25.2146697,10.6999969 25.6393321,10.05867 25.882,9.4 C26.1246679,8.74133004 26.246,8.01333732 26.246,7.216 C26.246,6.21066164 25.9080034,5.42200286 25.232,4.85 C24.5559966,4.27799714 23.7153384,3.992 22.71,3.992 C22.2593311,3.992 21.8433352,4.02666632 21.462,4.096 C21.0806648,4.16533368 20.6906687,4.27799922 20.292,4.434 C19.8933313,4.59000078 19.4686689,4.7979987 19.018,5.058 C18.5673311,5.3180013 18.0646694,5.63866476 17.51,6.02 C17.3713326,6.08933368 17.2500005,6.15866632 17.146,6.228 C17.0419995,6.29733368 16.9033342,6.332 16.73,6.332 C16.5566658,6.332 16.3486679,6.26266736 16.106,6.124 C15.8633321,5.98533264 15.6553342,5.77733472 15.482,5.5 C17.1460083,3.73199116 18.740659,2.414671 20.266,1.548 C21.791341,0.681329 23.524657,0.248 25.466,0.248 C27.4766767,0.248 29.1493267,0.71599532 30.484,1.652 C31.8186733,2.58800468 32.486,4.02665696 32.486,5.968 C32.486,6.834671 32.3300016,7.63199636 32.018,8.36 C31.7059984,9.08800364 31.2900026,9.76399688 30.77,10.388 C30.2499974,11.0120031 29.6433368,11.5666642 28.95,12.052 C28.2566632,12.5373358 27.5286705,12.9879979 26.766,13.404 L26.766,13.508 C29.0193446,13.9240021 30.743994,14.7646603 31.94,16.03 C33.136006,17.2953397 33.734,18.8639906 33.734,20.736 C33.734,22.2266741 33.3440039,23.673993 32.564,25.078 C31.7839961,26.482007 30.6226744,27.7906606 29.08,29.004 C27.5373256,30.2173394 25.6046783,31.3006619 23.282,32.254 C20.9593217,33.2073381 18.2553488,33.9786637 15.17,34.568 C14.9966658,34.3946658 14.8753337,34.1780013 14.806,33.918 C14.7366663,33.6579987 14.702,33.4413342 14.702,33.268 C14.702,32.9559984 14.8579984,32.748 15.17,32.644 C17.5966788,31.8119958 19.5553259,30.9540044 21.046,30.07 C22.5366741,29.1859956 23.6979958,28.2760047 24.53,27.34 C25.3620042,26.4039953 25.9253319,25.4680047 26.22,24.532 C26.5146681,23.5959953 26.662,22.6600047 26.662,21.724 C26.662,20.1639922 26.2893371,18.9333378 25.544,18.032 C24.7986629,17.1306622 23.663341,16.68 22.138,16.68 C20.9593274,16.68 19.5726746,16.9919969 17.978,17.616 L17.978,15.536 Z M49.23,25.624 C47.2539901,25.624 45.4773412,25.3206697 43.9,24.714 C42.3226588,24.1073303 40.996672,23.2493389 39.922,22.14 C38.847328,21.0306611 38.0240029,19.7046744 37.452,18.162 C36.8799971,16.6193256 36.594,14.9120094 36.594,13.04 C36.594,11.2719912 36.8973303,9.6080078 37.504,8.048 C38.1106697,6.4879922 38.9686611,5.13600572 40.078,3.992 C41.1873389,2.84799428 42.5133256,1.93800338 44.056,1.262 C45.5986744,0.58599662 47.3233238,0.248 49.23,0.248 C51.1020094,0.248 52.8179922,0.56866346 54.378,1.21 C55.9380078,1.85133654 57.2726611,2.7353277 58.382,3.862 C59.4913389,4.9886723 60.3493303,6.3319922 60.956,7.892 C61.5626697,9.4520078 61.866,11.1679906 61.866,13.04 C61.866,14.8080088 61.5800029,16.454659 61.008,17.98 C60.4359971,19.505341 59.612672,20.8399943 58.538,21.984 C57.463328,23.1280057 56.1373412,24.0206635 54.56,24.662 C52.9826588,25.3033365 51.2060099,25.624 49.23,25.624 Z M43.51,13.04 C43.51,14.773342 43.6659984,16.2639938 43.978,17.512 C44.2900016,18.7600062 44.714664,19.7826627 45.252,20.58 C45.789336,21.3773373 46.4133298,21.9666648 47.124,22.348 C47.8346702,22.7293352 48.5713295,22.92 49.334,22.92 C50.0273368,22.92 50.7119966,22.7380018 51.388,22.374 C52.0640034,22.0099982 52.6619974,21.4293373 53.182,20.632 C53.7020026,19.8346627 54.126665,18.8120062 54.456,17.564 C54.785335,16.3159938 54.95,14.8080088 54.95,13.04 C54.95,11.2719912 54.7940016,9.75533966 54.482,8.49 C54.1699984,7.22466034 53.745336,6.17600416 53.208,5.344 C52.670664,4.51199584 52.0553368,3.90533524 51.362,3.524 C50.6686632,3.14266476 49.9580036,2.952 49.23,2.952 C48.5019964,2.952 47.7913368,3.14266476 47.098,3.524 C46.4046632,3.90533524 45.789336,4.49466268 45.252,5.292 C44.714664,6.08933732 44.2900016,7.12932692 43.978,8.412 C43.6659984,9.69467308 43.51,11.2373243 43.51,13.04 Z M76.842,25.624 C74.8659901,25.624 73.0893412,25.3206697 71.512,24.714 C69.9346588,24.1073303 68.608672,23.2493389 67.534,22.14 C66.459328,21.0306611 65.6360029,19.7046744 65.064,18.162 C64.4919971,16.6193256 64.206,14.9120094 64.206,13.04 C64.206,11.2719912 64.5093303,9.6080078 65.116,8.048 C65.7226697,6.4879922 66.5806611,5.13600572 67.69,3.992 C68.7993389,2.84799428 70.1253256,1.93800338 71.668,1.262 C73.2106744,0.58599662 74.9353238,0.248 76.842,0.248 C78.7140094,0.248 80.4299922,0.56866346 81.99,1.21 C83.5500078,1.85133654 84.8846611,2.7353277 85.994,3.862 C87.1033389,4.9886723 87.9613303,6.3319922 88.568,7.892 C89.1746697,9.4520078 89.478,11.1679906 89.478,13.04 C89.478,14.8080088 89.1920029,16.454659 88.62,17.98 C88.0479971,19.505341 87.224672,20.8399943 86.15,21.984 C85.075328,23.1280057 83.7493412,24.0206635 82.172,24.662 C80.5946588,25.3033365 78.8180099,25.624 76.842,25.624 Z M71.122,13.04 C71.122,14.773342 71.2779984,16.2639938 71.59,17.512 C71.9020016,18.7600062 72.326664,19.7826627 72.864,20.58 C73.401336,21.3773373 74.0253298,21.9666648 74.736,22.348 C75.4466702,22.7293352 76.1833295,22.92 76.946,22.92 C77.6393368,22.92 78.3239966,22.7380018 79,22.374 C79.6760034,22.0099982 80.2739974,21.4293373 80.794,20.632 C81.3140026,19.8346627 81.738665,18.8120062 82.068,17.564 C82.397335,16.3159938 82.562,14.8080088 82.562,13.04 C82.562,11.2719912 82.4060016,9.75533966 82.094,8.49 C81.7819984,7.22466034 81.357336,6.17600416 80.82,5.344 C80.282664,4.51199584 79.6673368,3.90533524 78.974,3.524 C78.2806632,3.14266476 77.5700036,2.952 76.842,2.952 C76.1139964,2.952 75.4033368,3.14266476 74.71,3.524 C74.0166632,3.90533524 73.401336,4.49466268 72.864,5.292 C72.326664,6.08933732 71.9020016,7.12932692 71.59,8.412 C71.2779984,9.69467308 71.122,11.2373243 71.122,13.04 Z M104.454,25.624 C102.47799,25.624 100.701341,25.3206697 99.124,24.714 C97.5466588,24.1073303 96.220672,23.2493389 95.146,22.14 C94.071328,21.0306611 93.2480029,19.7046744 92.676,18.162 C92.1039971,16.6193256 91.818,14.9120094 91.818,13.04 C91.818,11.2719912 92.1213303,9.6080078 92.728,8.048 C93.3346697,6.4879922 94.1926611,5.13600572 95.302,3.992 C96.4113389,2.84799428 97.7373256,1.93800338 99.28,1.262 C100.822674,0.58599662 102.547324,0.248 104.454,0.248 C106.326009,0.248 108.041992,0.56866346 109.602,1.21 C111.162008,1.85133654 112.496661,2.7353277 113.606,3.862 C114.715339,4.9886723 115.57333,6.3319922 116.18,7.892 C116.78667,9.4520078 117.09,11.1679906 117.09,13.04 C117.09,14.8080088 116.804003,16.454659 116.232,17.98 C115.659997,19.505341 114.836672,20.8399943 113.762,21.984 C112.687328,23.1280057 111.361341,24.0206635 109.784,24.662 C108.206659,25.3033365 106.43001,25.624 104.454,25.624 Z M98.734,13.04 C98.734,14.773342 98.8899984,16.2639938 99.202,17.512 C99.5140016,18.7600062 99.938664,19.7826627 100.476,20.58 C101.013336,21.3773373 101.63733,21.9666648 102.348,22.348 C103.05867,22.7293352 103.79533,22.92 104.558,22.92 C105.251337,22.92 105.935997,22.7380018 106.612,22.374 C107.288003,22.0099982 107.885997,21.4293373 108.406,20.632 C108.926003,19.8346627 109.350665,18.8120062 109.68,17.564 C110.009335,16.3159938 110.174,14.8080088 110.174,13.04 C110.174,11.2719912 110.018002,9.75533966 109.706,8.49 C109.393998,7.22466034 108.969336,6.17600416 108.432,5.344 C107.894664,4.51199584 107.279337,3.90533524 106.586,3.524 C105.892663,3.14266476 105.182004,2.952 104.454,2.952 C103.725996,2.952 103.015337,3.14266476 102.322,3.524 C101.628663,3.90533524 101.013336,4.49466268 100.476,5.292 C99.938664,6.08933732 99.5140016,7.12932692 99.202,8.412 C98.8899984,9.69467308 98.734,11.2373243 98.734,13.04 Z" id="3000" fill="#8352E7"></path>
                                    <path d="M1.04,6.688 L1.04,6.224 L4.08,6.224 L1.728,2.48 C1.32266464,1.8399968 0.98133472,1.50400016 0.704,1.472 L0,1.376 L0,1.008 C0.20266768,1.04000016 0.8639944,1.056 1.984,1.056 L2.8,1.056 C3.066668,1.056 3.31466552,1.05333336 3.544,1.048 C3.77333448,1.04266664 3.97866576,1.03733336 4.16,1.032 C4.34133424,1.02666664 4.4853328,1.01866672 4.592,1.008 L4.592,1.376 L3.872,1.52 C3.58399856,1.5733336 3.44,1.67466592 3.44,1.824 C3.44,1.88800032 3.46133312,1.9466664 3.504,2 L6.048,6.128 C6.44266864,5.50933024 6.83466472,4.8933364 7.224,4.28 C7.61333528,3.6666636 8.01066464,3.05600304 8.416,2.448 C8.56533408,2.22399888 8.64,2.03733408 8.64,1.888 C8.64,1.71733248 8.506668,1.60000032 8.24,1.536 L7.376,1.376 L7.376,1.008 C7.47200048,1.04000016 7.99466192,1.056 8.944,1.056 C9.4240024,1.056 9.81599848,1.05066672 10.12,1.04 C10.4240015,1.02933328 10.6346661,1.01333344 10.752,0.992 L10.752,1.36 L10.208,1.488 C10.0479992,1.52000016 9.85066784,1.63733232 9.616,1.84 C9.38133216,2.04266768 9.12533472,2.3573312 8.848,2.784 L6.592,6.224 L9.488,6.224 L9.488,6.688 L6.384,6.688 C6.35199984,6.8480008 6.336,7.09866496 6.336,7.44 L6.336,8.304 L9.488,8.304 L9.488,8.768 L6.336,8.768 L6.336,9.968 C6.336,10.2773349 6.54399792,10.4639997 6.96,10.528 L7.968,10.704 L7.968,11.088 C7.34933024,11.0666666 6.79200248,11.0533334 6.296,11.048 C5.79999752,11.0426666 5.38666832,11.04 5.056,11.04 C4.7359984,11.04 4.39200184,11.0426666 4.024,11.048 C3.65599816,11.0533334 3.29600176,11.0666666 2.944,11.088 L2.944,10.736 L3.84,10.576 C4.06400112,10.5439998 4.25066592,10.4800005 4.4,10.384 C4.54933408,10.2879995 4.624,10.1600008 4.624,10 L4.624,8.768 L1.04,8.768 L1.04,8.304 L4.624,8.304 L4.624,7.424 C4.63466672,7.30666608 4.6133336,7.18400064 4.56,7.056 C4.5066664,6.93866608 4.44266704,6.81600064 4.368,6.688 L1.04,6.688 Z" id="¥" fill="#8352E7"></path>
                                    <path d="M120.862,20.52 L122.234,20.52 L117.376,33.4 L115.99,33.4 L120.862,20.52 Z M126.966,23.32 C126.378,24.3 125.636,25.112 124.754,25.784 L123.774,24.538 C125.16,23.502 126.098,22.116 126.574,20.366 L128.086,20.646 C127.96,21.094 127.82,21.514 127.666,21.906 L136.108,21.906 L136.108,23.32 L131.852,23.32 L131.852,25.126 L135.618,25.126 L135.618,26.498 L131.852,26.498 L131.852,29.088 L136.528,29.088 L136.528,30.516 L131.852,30.516 L131.852,33.498 L130.382,33.498 L130.382,30.516 L124.082,30.516 L124.082,29.088 L126.238,29.088 L126.238,25.126 L130.382,25.126 L130.382,23.32 L126.966,23.32 Z M127.708,29.088 L130.382,29.088 L130.382,26.498 L127.708,26.498 L127.708,29.088 Z" id="/年" fill="#7540E6"></path>
                                </g>
                            </g>
                        </g>
                    </g>
                </g>
            </g>
        </g>
    </g>
</svg>