<?xml version="1.0" encoding="UTF-8"?>
<svg width="186px" height="159px" viewBox="0 0 186 159" version="1.1" xmlns="http://www.w3.org/2000/svg" xmlns:xlink="http://www.w3.org/1999/xlink">
    <!-- Generator: Sketch 56.3 (81716) - https://sketch.com -->
    <title>插画确定</title>
    <desc>Created with Sketch.</desc>
    <defs>
        <linearGradient x1="-1.11022302e-14%" y1="50%" x2="100%" y2="50%" id="linearGradient-1">
            <stop stop-color="#C490F5" offset="0%"></stop>
            <stop stop-color="#92C8F8" offset="100%"></stop>
        </linearGradient>
        <path d="M24.3218391,32.0075758 C-6.34482759,65.7648687 -8.01149425,93.3809121 19.3218391,114.855706 C33.1463007,125.717077 46.2976838,127.125405 60.2926829,127 C69.4096937,126.918305 83.4194124,122.870207 102.321839,114.855706 L152.321839,120.007576 C183.655172,107.340909 187.655172,78.6742424 164.321839,34.0075758 C140.988506,-10.6590909 94.3218391,-11.3257576 24.3218391,32.0075758 Z" id="path-2"></path>
        <linearGradient x1="50%" y1="0%" x2="50%" y2="85.333585%" id="linearGradient-4">
            <stop stop-color="#5678E7" offset="0%"></stop>
            <stop stop-color="#102494" offset="100%"></stop>
        </linearGradient>
        <linearGradient x1="50%" y1="0%" x2="50%" y2="100%" id="linearGradient-5">
            <stop stop-color="#2F49D2" offset="0%"></stop>
            <stop stop-color="#1B2082" offset="100%"></stop>
        </linearGradient>
        <polygon id="path-6" points="1.08074316e-05 0.05786 49.984 0.05786 49.984 98.339934 1.08074316e-05 98.339934"></polygon>
        <polygon id="path-8" points="1.08074316e-05 0.05786 49.984 0.05786 49.984 98.339934 1.08074316e-05 98.339934"></polygon>
        <path d="M0,22.447205 C0,20.7204969 1.08985507,18.9937888 3.26956522,17.2670807 C5.44927536,15.5403727 7.62898551,14.6770186 9.80869565,14.6770186 L94,0 C92.7023914,1.36462203 91.6125364,2.80354543 90.7304348,4.31677019 C90.0734918,5.44374061 89.2561005,7.45823336 88.2782609,10.3602484 L88.2782609,139 L0,139 L0,22.447205 Z" id="path-10"></path>
        <linearGradient x1="50%" y1="100%" x2="50%" y2="3.061617e-15%" id="linearGradient-12">
            <stop stop-color="#5CD3F3" offset="0%"></stop>
            <stop stop-color="#53B5EA" offset="100%"></stop>
        </linearGradient>
        <linearGradient x1="50%" y1="100%" x2="50%" y2="3.061617e-15%" id="linearGradient-13">
            <stop stop-color="#FFFFFF" offset="0%"></stop>
            <stop stop-color="#2BA3C3" offset="100%"></stop>
        </linearGradient>
        <linearGradient x1="100%" y1="50%" x2="0%" y2="50%" id="linearGradient-14">
            <stop stop-color="#FFFFFF" stop-opacity="0" offset="0%"></stop>
            <stop stop-color="#FFFFFF" offset="99.9815245%"></stop>
        </linearGradient>
        <linearGradient x1="14.2106811%" y1="50%" x2="82.0834072%" y2="50%" id="linearGradient-15">
            <stop stop-color="#2B3CCA" offset="0%"></stop>
            <stop stop-color="#171B58" offset="100%"></stop>
        </linearGradient>
        <linearGradient x1="50%" y1="0%" x2="50%" y2="100%" id="linearGradient-16">
            <stop stop-color="#F26F3B" offset="0%"></stop>
            <stop stop-color="#F3CA7B" offset="100%"></stop>
        </linearGradient>
        <linearGradient x1="50%" y1="0%" x2="50%" y2="100%" id="linearGradient-17">
            <stop stop-color="#E82BA7" offset="0%"></stop>
            <stop stop-color="#CD136E" offset="100%"></stop>
        </linearGradient>
    </defs>
    <g id="页面1" stroke="none" stroke-width="1" fill="none" fill-rule="evenodd">
        <g id="价格页面" transform="translate(-176.000000, -237.000000)">
            <g id="编组-5" transform="translate(140.000000, 125.000000)">
                <g id="间距-&lt;10-12-10-12&gt;">
                    <g id="内容" transform="translate(12.000000, 10.000000)">
                        <g id="插画确定" transform="translate(24.000000, 102.000000)">
                            <g id="Group-9" transform="translate(0.000000, 32.000000)">
                                <g id="Image">
                                    <polygon id="Rectangle" fill="#7C55E1" points="64 111 166.846154 111 186 120 64 120"></polygon>
                                    <g id="Path-2">
                                        <mask id="mask-3" fill="white">
                                            <use xlink:href="#path-2"></use>
                                        </mask>
                                        <use id="Mask" fill="url(#linearGradient-1)" xlink:href="#path-2"></use>
                                        <path d="M8,63 C11.3333333,63 13.6666667,64.6666667 15,68 C16.3333333,71.3333333 16.3333333,75 15,79 C17.6666667,79 19.6666667,79.6666667 21,81 C22.3333333,82.3333333 23,84 23,86 C28.9782271,83.809746 32.9782271,83.809746 35,86 C37.0217729,88.190254 37.0217729,92.5235874 35,99 C38.7828699,97.9754548 40.7828699,99.3087882 41,103 C41.2171301,106.691212 39.5504634,111.024545 36,116 L11,116 L-9,68 L8,63 Z" fill="url(#linearGradient-4)" mask="url(#mask-3)"></path>
                                        <rect id="Rectangle" fill="#7C55E1" mask="url(#mask-3)" x="13" y="107" width="162" height="24"></rect>
                                        <path d="M179,54 C171.198649,55.5008977 166.30976,57.5135559 164.333333,60.0379747 C162.356906,62.5623934 161.468017,67.929482 161.666667,76.1392405 C159.355323,76.7566665 157.799767,77.4275526 157,78.1518987 C156.200233,78.8762449 155.533566,80.218017 155,82.1772152 C147.435629,82.1433448 142.435629,83.2614883 140,85.5316456 C137.564371,87.8018029 136.566147,92.2743767 137.005328,98.9493671 C135.509039,99.7188082 134.507263,100.613323 134,101.632911 C133.492737,102.6525 133.159404,104.441529 133,107 L179,107 L179,54 Z" id="Path-13" fill="url(#linearGradient-5)" mask="url(#mask-3)"></path>
                                    </g>
                                    <g id="编组" transform="translate(26.000000, 59.000000) scale(-1, 1) translate(-26.000000, -59.000000) translate(1.000000, 9.000000)">
                                        <g transform="translate(0.000000, 0.052140)">
                                            <mask id="mask-7" fill="white">
                                                <use xlink:href="#path-6"></use>
                                            </mask>
                                            <g id="Clip-2"></g>
                                            <path d="M36.618505,24.399804 C36.698145,24.337104 36.776465,24.266484 36.854785,24.188054 L36.757875,24.188054 L36.773165,24.167154 C38.588495,23.760264 36.738295,20.952514 35.777885,22.437294 C35.362195,22.706134 34.669415,23.227864 34.462065,23.641354 C33.896005,24.171224 33.779405,25.468014 34.877975,25.468014 C35.563385,25.468014 36.251545,24.954864 36.618505,24.399804 L36.618505,24.399804 Z M31.971115,4.548104 C28.189865,6.398414 24.312915,8.062934 20.461705,9.779154 C20.461705,10.036114 20.716905,10.223224 20.717675,10.527484 C20.834935,10.684124 21.015775,11.135454 21.092005,11.342694 C21.255355,11.594704 21.364145,11.929764 21.575675,12.141074 C21.737265,12.302774 22.045815,12.851784 22.074415,13.052864 C22.189475,13.248664 22.307065,13.347774 22.333905,13.592634 C22.451055,13.745974 22.509685,13.929674 22.509685,14.113484 L22.509685,13.843214 C22.691515,14.023614 22.751135,14.397394 22.936375,14.537424 L22.936375,14.525874 C23.272095,14.859174 23.407285,15.260674 23.566455,15.694514 C23.961795,16.304024 23.902945,17.531954 22.931205,17.531954 C22.583605,17.531954 22.381095,17.403144 22.171325,17.208884 C21.767625,17.038714 21.102125,16.513794 20.844505,16.114934 C20.728125,16.040024 20.635175,15.940584 20.568845,15.826844 C20.081215,15.486174 19.594245,14.905924 19.347295,14.412024 C19.095285,13.907784 18.612165,13.456124 18.442875,12.920534 L18.434515,12.907334 C17.702465,12.472614 17.806085,11.720544 17.410855,11.147554 C15.112845,12.200694 12.860705,13.330064 10.775655,14.795374 C6.332425,17.973604 3.562625,21.088254 3.391355,26.641054 C3.303795,29.433184 3.965445,32.178234 4.726315,34.843204 C5.515455,37.570764 6.034545,40.042244 4.874595,42.739774 C4.992735,42.918744 5.116705,43.100354 5.202175,43.298684 C5.439005,43.535294 5.473435,43.826024 5.703445,44.055924 C5.782645,44.135124 5.843255,44.225984 5.884945,44.322894 C6.183045,44.631774 6.455185,45.065284 6.845685,45.260424 C7.055675,45.365364 7.232665,45.574914 7.360155,45.766864 C7.591375,45.943414 7.793775,46.161214 8.040395,46.284414 C8.234105,46.381214 8.395035,46.566014 8.519225,46.739484 C8.989035,47.017124 9.687095,47.654354 9.708875,48.213154 C9.988495,48.789004 10.104435,49.605754 9.742645,50.163894 C9.358965,51.210104 7.647475,50.872624 7.022455,50.191174 C6.606765,49.894174 6.269615,49.502684 5.810255,49.264754 C5.629085,49.235274 5.466945,49.148924 5.342755,49.024734 L5.400725,49.082704 C5.161805,49.003064 4.998565,48.856654 4.834885,48.691104 C4.615325,48.593754 4.459125,48.455814 4.227685,48.378814 C4.002845,48.303794 3.829485,48.144734 3.731255,47.948274 C3.544915,47.575044 3.046615,47.496834 2.909885,47.046824 L2.872595,47.028234 L2.872595,47.066624 C2.715625,46.909654 2.476815,46.909874 2.299825,46.748614 C1.500895,47.881724 0.762795,49.046294 0.359315,50.398084 C-0.729135,54.057894 0.848375,58.129434 2.514325,61.344844 C3.122405,62.513484 3.778885,63.661334 4.470125,64.782564 C5.556265,66.549274 6.727545,68.313234 6.988355,70.416654 L6.987915,70.414454 C7.164245,72.798594 6.097135,74.491274 4.789345,76.451144 C3.893065,77.775984 3.125925,79.071564 2.716395,80.631584 C1.897225,83.736334 2.313905,87.094304 3.062455,90.170674 C4.065655,93.058284 5.718405,95.693884 7.218475,98.339934 C7.381935,97.890914 7.554855,97.435954 7.755495,97.002114 L7.744385,97.017184 C10.445545,91.096214 15.513025,86.493154 20.740995,82.780544 L20.708545,82.798144 C24.745325,79.979504 29.348825,78.019744 33.136785,74.836454 C34.543355,73.654944 35.826725,72.274664 36.735435,70.669214 C36.598265,70.689234 36.448995,70.922984 36.282895,70.984034 C35.696375,71.364084 35.067175,71.730494 34.402995,71.952144 L34.461075,71.894174 C34.278475,72.076664 33.545435,72.316244 33.256685,72.316244 C33.009845,72.316244 32.784455,72.436034 32.543445,72.475524 C32.339395,72.581894 32.069125,72.608624 31.845605,72.690574 C31.214425,73.099774 30.008715,72.732044 30.008715,71.884384 C30.008715,71.387734 30.199565,70.989644 30.614705,70.666904 C31.270305,70.157274 32.272185,69.396954 33.032285,69.190704 C33.235455,69.012614 34.059465,68.689324 34.311145,68.647964 C34.403325,68.600004 34.505515,68.568104 34.613535,68.556334 C34.750045,68.452164 35.015145,68.322584 35.179705,68.262304 C36.042765,67.703284 36.823325,66.951544 37.746335,66.503624 C37.929265,66.231044 38.156305,65.908414 38.418655,65.645184 C38.791445,63.253344 38.734905,60.823884 38.729075,58.411144 C38.720715,56.943524 38.722035,55.481954 38.935655,54.026324 L38.931915,54.039744 C39.210765,52.397444 39.757135,50.874494 40.724035,49.507524 C41.480285,47.725854 42.735385,46.227874 43.883235,44.691834 C46.908785,40.652964 49.605215,35.879734 49.984055,30.738334 C49.672755,30.877044 49.394455,30.913124 49.076005,30.990454 C48.936195,31.105404 48.759205,31.177014 48.565825,31.184714 C48.228785,31.354224 47.861605,31.531434 47.497395,31.591054 C47.082365,31.801704 46.315995,32.068784 45.858615,32.111024 C45.710885,32.188794 45.461515,32.271734 45.297065,32.289664 C45.094775,32.444104 44.880165,32.465444 44.637945,32.465444 C44.449185,32.559824 44.297495,32.632864 44.129415,32.676314 C43.374705,33.291984 42.002345,33.934274 41.013775,34.063304 C40.899045,34.127434 40.768255,34.166044 40.628775,34.171434 C40.435505,34.265264 40.275125,34.342704 40.051935,34.342704 C39.327915,34.584044 36.835535,35.398704 36.835535,33.910954 C36.835535,33.560604 36.813975,33.235554 37.086995,32.962534 C37.718395,32.331024 38.405015,31.803794 39.242445,31.506024 C39.487635,31.330244 39.844585,31.099354 40.136085,31.028624 C40.342445,30.859004 40.723815,30.748344 40.990015,30.748344 C41.352355,30.567284 41.714365,30.430994 42.074175,30.249054 C42.182965,30.191854 42.305615,30.157314 42.435745,30.151924 C42.801715,29.963934 43.536625,29.656484 43.975195,29.639764 C44.223575,29.519204 44.479435,29.444514 44.736835,29.350134 C44.862345,29.268734 45.010515,29.219234 45.169795,29.213074 C45.818135,28.898034 46.541055,28.742714 47.211615,28.496754 C47.490465,28.316024 48.132315,28.017704 48.450765,28.017704 C48.896155,27.756014 49.447035,27.579354 49.927955,27.392794 C49.258055,20.997834 45.472405,15.737414 42.795335,10.072524 C42.334545,9.098474 41.877605,8.111554 41.548705,7.089984 C40.815225,4.797364 40.626575,2.394304 40.088565,0.057794 C37.481675,1.709114 34.755215,3.185754 31.971115,4.548104 Z" id="Fill-1" fill="#F88F19" mask="url(#mask-7)"></path>
                                        </g>
                                        <path d="M28.602904,23.508408 C28.597074,23.522048 28.591464,23.535688 28.585634,23.549328 C28.591464,23.535578 28.597074,23.522158 28.602904,23.508518 L28.602904,23.508408 Z M7.068754,90.830718 C7.065784,90.855578 7.061274,90.881098 7.058634,90.905958 C7.061384,90.881098 7.065784,90.855688 7.068644,90.830828 L7.068754,90.830718 Z M34.237434,10.965768 C34.248654,10.980288 34.259654,10.995138 34.269224,11.010098 C34.258004,10.995358 34.248544,10.980618 34.237434,10.965988 L34.237434,10.965768 Z M20.469174,38.329038 C20.480504,38.337398 20.491944,38.345868 20.501624,38.354668 C20.491944,38.345868 20.480394,38.337508 20.468954,38.329148 L20.469174,38.329038 Z M13.963664,47.788708 C13.981924,47.801798 13.998094,47.815218 14.014594,47.828638 C13.998204,47.815218 13.981704,47.801908 13.963554,47.788818 L13.963664,47.788708 Z M9.375674,43.195658 C9.378754,43.200608 9.381944,43.205558 9.386784,43.210068 C9.381944,43.205228 9.378644,43.200278 9.375454,43.194998 C9.375564,43.195108 9.375674,43.195548 9.375674,43.195768 L9.375674,43.195658 Z M14.282334,59.044348 C14.288934,59.047648 14.296964,59.050618 14.303454,59.054138 C14.295314,59.050618 14.288714,59.046988 14.280354,59.043908 C14.280464,59.044018 14.282334,59.044018 14.282334,59.044348 Z M6.501594,84.440708 C6.513694,84.451708 6.527444,84.462158 6.541304,84.472608 C6.527554,84.462048 6.513584,84.451708 6.501484,84.440708 L6.501594,84.440708 Z M6.546364,84.477118 C6.555494,84.484158 6.564624,84.491308 6.572214,84.498788 C6.564734,84.491198 6.555384,84.484158 6.546144,84.477228 L6.546364,84.477118 Z M38.226804,17.784448 C38.235714,17.783348 38.242974,17.782688 38.251994,17.781478 C38.243084,17.782578 38.235714,17.783348 38.226694,17.784558 L38.226804,17.784448 Z M41.459704,36.884518 C41.464764,36.882428 41.471364,36.879898 41.478184,36.877368 C41.485004,36.874508 41.493364,36.871318 41.501724,36.868348 C41.486654,36.873738 41.473124,36.879238 41.459704,36.884628 L41.459704,36.884518 Z M7.423284,88.985248 C8.175354,89.061698 8.929294,89.046628 9.672234,88.953348 C10.509774,88.848628 11.331584,88.641168 12.127984,88.385418 C12.208394,88.359678 12.274614,88.273218 12.301344,88.197978 C12.332694,88.112288 12.325874,88.014938 12.283854,87.931448 C12.242604,87.850708 12.171984,87.786358 12.085744,87.753908 C11.987514,87.717718 11.907984,87.732458 11.813604,87.761278 C11.691944,87.798458 11.568414,87.836848 11.444774,87.873698 C10.494814,88.150678 9.519334,88.344388 8.516464,88.375848 C8.201424,88.380908 7.886274,88.370018 7.571564,88.342408 C7.826984,87.279368 8.128164,86.228208 8.454534,85.185848 C8.765944,84.189138 9.121134,83.208598 9.503714,82.239168 C9.806544,82.266008 10.110804,82.274698 10.413744,82.283498 C10.751554,82.293618 11.089364,82.296698 11.428274,82.297138 C12.097514,82.299448 12.767964,82.286358 13.436984,82.267218 C14.806484,82.228278 16.174224,82.154908 17.542514,82.104858 C17.716754,82.098478 17.858654,81.974948 17.854694,81.796088 C17.852714,81.631528 17.703004,81.469498 17.528764,81.475988 C16.180604,81.524388 14.833544,81.585658 13.485824,81.615468 C12.815704,81.630428 12.146574,81.634828 11.475574,81.625148 C11.137544,81.620748 10.799624,81.610518 10.461484,81.599078 C10.232024,81.590938 10.002234,81.578728 9.772554,81.569818 C10.126424,80.703898 10.499214,79.845898 10.879044,78.991748 C10.869804,79.012758 10.860344,79.033658 10.850994,79.054558 C11.223564,78.217898 11.602844,77.384318 11.979154,76.549308 C12.006324,76.557228 12.034594,76.562178 12.063634,76.563938 C12.583054,76.596168 13.102914,76.587258 13.620024,76.596168 C14.136914,76.604528 14.653034,76.616738 15.169374,76.630268 C16.198204,76.655788 17.226374,76.685818 18.253334,76.704628 C20.303184,76.740268 22.352154,76.722888 24.385724,76.532038 C25.716064,76.407078 27.034524,76.208088 28.328344,75.914608 C28.497964,75.876108 28.595974,75.697688 28.549114,75.532138 C28.499834,75.363398 28.319874,75.262968 28.150254,75.301468 C27.109764,75.536868 26.056184,75.707588 24.991384,75.828588 C22.979814,76.046278 20.946354,76.081148 18.914544,76.050788 C16.856554,76.018888 14.795264,75.918348 12.733974,75.888868 C12.581294,75.886668 12.428724,75.885238 12.276154,75.888098 L12.388684,75.635978 C12.900514,74.486588 13.407614,73.333238 13.830124,72.146668 C14.075974,71.456968 14.290804,70.757038 14.482204,70.050288 C14.523344,70.067228 14.566684,70.076358 14.611784,70.077348 C15.031874,70.140048 15.458564,70.143348 15.878104,70.140378 C16.343844,70.136638 16.809254,70.110788 17.271694,70.080648 C17.719724,70.051388 18.164014,70.015858 18.611274,69.983848 C19.074704,69.950518 19.537144,69.920378 20.000134,69.885068 C21.982884,69.733598 23.962334,69.527238 25.916704,69.203398 C28.877684,68.712908 31.828874,67.943128 34.461944,66.562628 C34.616714,66.481558 34.665774,66.279048 34.576454,66.127578 C34.484054,65.971818 34.283084,65.918138 34.128094,65.999208 C33.460284,66.349228 32.768494,66.658438 32.062404,66.933548 C32.089464,66.923648 32.114654,66.913858 32.139844,66.904178 C29.199324,68.041578 26.037044,68.605878 22.879164,68.958648 C22.908094,68.955238 22.936804,68.952598 22.965624,68.949408 C21.531114,69.108028 20.089124,69.216158 18.645704,69.312848 C17.959634,69.357948 17.272574,69.415478 16.583974,69.444738 C16.236484,69.460358 15.889764,69.466518 15.541944,69.460578 C15.243954,69.455518 14.947944,69.432858 14.651384,69.400848 C15.009324,67.970408 15.281794,66.515438 15.529734,65.060248 C15.714424,63.983018 15.883384,62.903368 16.063234,61.824818 C16.477384,61.868488 16.891424,61.861558 17.308104,61.840108 C17.812344,61.813708 18.312734,61.773338 18.817194,61.747708 C19.933804,61.690838 21.051404,61.644968 22.167464,61.593268 C23.285064,61.540138 24.400904,61.480628 25.514874,61.399228 C26.021864,61.362158 26.526654,61.317388 27.033094,61.277678 C27.501254,61.241268 27.970074,61.206838 28.439994,61.169438 C29.777154,61.063618 31.114974,60.932168 32.426504,60.670808 C33.685014,60.419458 34.932414,60.032698 36.028014,59.390518 C36.182454,59.300758 36.239104,59.105838 36.143844,58.945788 C36.051994,58.792118 35.838044,58.724468 35.685474,58.813898 C35.290354,59.045668 34.876314,59.241358 34.448414,59.411088 C34.461944,59.406028 34.475474,59.401078 34.487134,59.396348 C34.473604,59.401408 34.461944,59.406138 34.448414,59.411308 C34.435104,59.416478 34.423224,59.421318 34.409804,59.426598 C34.421574,59.421428 34.434994,59.416478 34.448524,59.411418 C33.060214,59.938978 31.571584,60.189558 30.085594,60.356318 C30.092854,60.355768 30.099894,60.354998 30.107264,60.354338 C29.172814,60.455978 28.233084,60.524178 27.294014,60.594248 C26.249894,60.672788 25.208084,60.761228 24.161104,60.822608 C21.974304,60.950978 19.778154,61.007518 17.591574,61.143918 C17.120224,61.172848 16.649094,61.188138 16.175324,61.161958 C16.368264,60.042598 16.583094,58.927418 16.828174,57.819828 C17.202284,56.143428 17.630954,54.481878 18.100764,52.832868 C18.239144,52.812188 18.376864,52.792058 18.516784,52.775338 C19.017724,52.722318 19.521524,52.701638 20.026204,52.684368 C20.547604,52.665888 21.066694,52.640918 21.585674,52.607148 C22.657844,52.535978 23.725284,52.432908 24.787554,52.302338 C26.915394,52.039658 29.023654,51.645748 31.087144,51.107408 C33.528374,50.470178 35.908334,49.618448 38.157064,48.519328 C38.321514,48.438918 38.366614,48.221008 38.274544,48.066458 C38.177744,47.900908 37.972704,47.853058 37.808254,47.932808 C36.947614,48.353998 36.065854,48.736908 35.169464,49.085058 C35.196634,49.074938 35.221604,49.064488 35.248554,49.054478 C31.679164,50.436298 27.887354,51.271198 24.044504,51.702838 C24.048244,51.702288 24.049894,51.702178 24.051654,51.701958 C24.048244,51.702288 24.044504,51.702728 24.040874,51.703058 C24.033614,51.704048 24.028224,51.704488 24.021074,51.705368 C24.026464,51.704598 24.031964,51.704268 24.039114,51.703278 C23.009294,51.815808 21.975624,51.899848 20.939974,51.954958 C20.419564,51.982458 19.898054,51.992358 19.376434,52.016008 C19.123764,52.026898 18.874064,52.042408 18.623044,52.066718 C18.519754,52.076508 18.415914,52.087178 18.312514,52.099938 C18.470364,51.560498 18.632504,51.022158 18.798384,50.485138 C19.791574,47.263458 20.925564,44.092598 22.094314,40.935268 C22.478104,40.914588 22.860904,40.885658 23.242164,40.859148 C23.746074,40.824168 24.250974,40.786548 24.753674,40.747608 C25.774034,40.669068 26.793294,40.579858 27.808814,40.476458 C29.872414,40.266028 31.927984,39.996198 33.961774,39.621758 C37.718494,38.929968 41.421424,37.861648 44.780934,36.120898 C44.939224,36.038838 44.988834,35.830718 44.896654,35.676388 C44.803154,35.516338 44.596574,35.462438 44.438394,35.544388 C43.487224,36.037628 42.503494,36.476858 41.501724,36.868348 C41.508434,36.865598 41.516794,36.862298 41.525264,36.859328 C41.510304,36.865158 41.493364,36.871538 41.478184,36.877368 C41.468174,36.881218 41.456294,36.885728 41.446174,36.889688 C41.451344,36.887708 41.454644,36.886498 41.459704,36.884628 C37.684944,38.332338 33.656414,39.110258 29.611054,39.603498 C29.324064,39.638258 29.037954,39.670928 28.751954,39.703488 C28.780774,39.700078 28.809594,39.696888 28.838304,39.693698 C27.657784,39.825038 26.473194,39.933828 25.286844,40.028758 C24.701094,40.075288 24.114134,40.118518 23.528384,40.158778 C23.137334,40.185288 22.745404,40.207618 22.354354,40.234348 C22.761684,39.138748 23.172424,38.044468 23.581954,36.949858 C24.426864,34.689578 25.267154,32.426218 26.066414,30.147678 L26.084234,30.097298 C26.220744,30.106098 26.357144,30.113798 26.493984,30.118418 C26.749954,30.127218 27.005814,30.128428 27.261344,30.128208 C27.757334,30.127218 28.253544,30.112808 28.748874,30.087838 C29.768464,30.035038 30.783764,29.930978 31.791914,29.791938 C33.833184,29.509678 35.843324,29.058898 37.814634,28.500868 C41.101434,27.569278 44.284394,26.323528 47.348884,24.872298 C47.513664,24.793978 47.557884,24.572548 47.466254,24.420088 C47.383864,24.281048 47.228984,24.226928 47.083454,24.258058 C47.055514,24.263998 47.028234,24.273348 47.000074,24.286438 L47.000074,24.286218 C45.594164,24.952598 44.160204,25.569038 42.703694,26.134438 C42.730644,26.123658 42.757594,26.113648 42.786084,26.102538 C38.990864,27.570268 35.019204,28.709868 30.927644,29.195848 C30.846684,29.205198 30.765834,29.214658 30.684874,29.223568 C30.717104,29.219278 30.747794,29.216528 30.778264,29.212678 C29.941384,29.305298 29.100324,29.368438 28.256184,29.397258 C27.841484,29.411558 27.424144,29.416288 27.008344,29.412108 C26.781194,29.409908 26.553494,29.407378 26.325574,29.402758 C26.630714,28.519678 26.932334,27.635388 27.262664,26.761218 C27.669334,25.683988 28.112744,24.620398 28.577604,23.568138 C29.311304,21.921878 30.105394,20.307738 30.939414,18.715158 C31.084284,18.750798 31.232784,18.769718 31.380404,18.784898 C31.633404,18.810198 31.888054,18.807338 32.139074,18.804478 C32.631984,18.797878 33.123464,18.794468 33.616484,18.782148 C34.659834,18.756518 35.703294,18.703608 36.741364,18.622648 C38.849954,18.457208 40.953264,18.171868 42.988814,17.647498 C43.502404,17.514948 44.013024,17.363698 44.515064,17.193858 C44.603834,17.164158 44.674344,17.122468 44.721644,17.041398 C44.769824,16.962308 44.779834,16.866498 44.754534,16.776518 C44.704924,16.606568 44.497464,16.464558 44.318824,16.525058 C42.372264,17.184728 40.318674,17.547618 38.262664,17.780378 C37.062124,17.912378 35.856084,17.996198 34.646524,18.044158 C34.058464,18.067698 33.467214,18.080348 32.877944,18.085958 C32.587984,18.088488 32.297694,18.090468 32.008724,18.090028 C31.767824,18.089478 31.525824,18.084858 31.286464,18.058238 C32.352254,16.055798 33.477334,14.085258 34.620784,12.124728 C35.119634,12.119558 35.617164,12.069618 36.109194,12.003838 C36.714084,11.923098 37.310944,11.797478 37.897354,11.639078 C38.490914,11.478258 39.070944,11.274538 39.635244,11.037818 C40.164564,10.816278 40.673754,10.553268 41.153684,10.248458 C41.233214,10.198408 41.290854,10.135268 41.315054,10.043418 C41.337054,9.956738 41.323414,9.861698 41.276774,9.782168 C41.199224,9.654458 41.032464,9.576798 40.888584,9.607488 C40.855474,9.614528 40.825114,9.626628 40.796624,9.644778 L40.796734,9.644668 C40.232544,10.003158 39.627654,10.297408 39.001314,10.544688 C37.923644,10.956638 36.786354,11.232958 35.624974,11.367268 C35.428844,11.387618 35.232714,11.403018 35.035704,11.414898 C36.561514,8.810758 38.111194,6.219928 39.589374,3.591258 C39.678144,3.433738 39.634144,3.229798 39.468814,3.128378 C39.389724,3.079538 39.293364,3.065458 39.205584,3.084268 C39.121434,3.102198 39.045204,3.151038 39.000544,3.228698 L39.000544,3.228588 C37.503004,5.894438 35.932754,8.517388 34.386264,11.154418 C34.331154,11.085558 34.276484,11.016478 34.223024,10.946628 C33.622644,10.140438 33.120494,9.271988 32.738574,8.352608 C32.524514,7.821308 32.353354,7.277688 32.232574,6.721198 C32.190884,6.525728 31.971764,6.402198 31.782234,6.442788 C31.580604,6.485908 31.473574,6.679508 31.515154,6.874648 C31.719094,7.821418 32.066914,8.738598 32.508564,9.610018 C32.729664,10.046168 32.980134,10.468458 33.253154,10.877218 C33.393404,11.088638 33.543334,11.294448 33.697664,11.496408 C33.788414,11.615538 33.880374,11.736208 33.978054,11.851708 C33.192214,13.197558 32.414624,14.548138 31.658264,15.911368 C31.506134,16.185488 31.354884,16.460048 31.204624,16.735378 C31.089344,16.567298 30.967904,16.403288 30.847124,16.238288 C30.643294,15.959438 30.443644,15.676958 30.248834,15.391068 C29.860974,14.817748 29.493354,14.231448 29.148724,13.633158 C28.470684,12.465178 27.881744,11.248688 27.373324,10.006788 C27.290164,9.800428 27.208544,9.594178 27.128684,9.386498 C27.093484,9.294318 27.053994,9.220508 26.965554,9.165618 C26.884044,9.115678 26.785374,9.098958 26.693964,9.118538 C26.602774,9.137788 26.524454,9.192788 26.476164,9.270338 L26.476274,9.270338 C26.431834,9.341398 26.406754,9.451508 26.437444,9.534448 C26.967424,10.929248 27.586504,12.290938 28.301944,13.609508 C28.662634,14.276768 29.051154,14.930168 29.459034,15.572348 C29.656594,15.882548 29.863614,16.187248 30.071954,16.490188 C30.298664,16.819858 30.534174,17.148538 30.813464,17.439268 L30.820064,17.446088 C29.943804,19.079038 29.107804,20.733768 28.331974,22.417868 C27.828724,23.507968 27.354734,24.611268 26.908354,25.727108 C26.691214,26.272928 26.482544,26.822928 26.281904,27.375898 L26.245494,27.476108 C25.813084,27.035558 25.364944,26.608978 24.931214,26.170188 C24.386384,25.620408 23.851674,25.060508 23.330604,24.488618 C22.293194,23.348248 21.309904,22.160248 20.383154,20.933528 C20.383704,20.934958 20.384034,20.936828 20.386234,20.937928 C18.837544,18.878728 17.451874,16.707658 16.253314,14.443418 C16.176974,14.298988 16.001854,14.231448 15.849284,14.264118 C15.819584,14.270498 15.790654,14.280618 15.764694,14.294478 L15.764584,14.294368 C15.591994,14.385228 15.541394,14.596538 15.632584,14.769018 C16.662184,16.711178 17.822904,18.587998 19.105394,20.385068 C20.389424,22.180818 21.792254,23.892858 23.287704,25.525918 C23.720224,25.999468 24.161764,26.465318 24.612214,26.922148 C25.053974,27.369408 25.500464,27.815128 25.982044,28.222678 C25.867534,28.553228 25.754784,28.884438 25.640384,29.214988 L25.555244,29.459628 C25.476814,29.523098 25.426874,29.620888 25.428964,29.725718 C25.429514,29.749808 25.432594,29.773128 25.437764,29.795568 C24.303224,33.028468 23.081894,36.228698 21.881574,39.436628 C21.414294,39.060648 20.935244,38.700948 20.466644,38.327278 C18.854484,37.027628 17.316904,35.638328 15.869744,34.162018 C14.387714,32.650508 12.996104,31.053858 11.693484,29.393078 C11.468864,29.105428 11.245124,28.815908 11.024684,28.524078 C10.076374,27.263588 9.178224,25.968338 8.331224,24.642618 C8.247734,24.513698 8.099564,24.442858 7.955794,24.473438 C7.927744,24.479378 7.900574,24.489278 7.872854,24.503578 L7.872854,24.503468 C7.719734,24.583548 7.650214,24.793428 7.749544,24.947648 C10.012794,28.491628 12.631894,31.831778 15.591114,34.855788 C16.517094,35.802338 17.477394,36.717098 18.472234,37.593908 C18.959534,38.021808 19.453544,38.440138 19.957674,38.847248 C20.225414,39.064278 20.495684,39.278118 20.770464,39.487448 C21.032374,39.689188 21.297364,39.889718 21.573024,40.073748 C21.591724,40.086288 21.611524,40.096628 21.631984,40.104768 L21.546734,40.333788 C21.529134,40.344458 21.512194,40.357328 21.495364,40.373058 L21.495474,40.372948 C21.432004,40.434548 21.396914,40.521118 21.398124,40.611098 C21.398894,40.639368 21.403734,40.667638 21.412094,40.695138 C21.087814,41.567988 20.766064,42.441828 20.449044,43.317538 C19.585104,45.700908 18.761424,48.100998 18.016064,50.526168 C17.397864,50.192098 16.797484,49.818648 16.211294,49.431558 C15.455594,48.932158 14.726844,48.395248 14.018994,47.831498 C14.024054,47.835898 14.028784,47.840408 14.035384,47.844368 C13.143944,47.130138 12.289354,46.372348 11.478874,45.570448 C10.732084,44.828388 10.022694,44.045628 9.386784,43.210068 C9.398774,43.227448 9.412414,43.244388 9.424294,43.261658 C9.407574,43.239658 9.392394,43.217658 9.375674,43.195768 C9.373364,43.193678 9.372704,43.191478 9.370284,43.189388 C9.372594,43.190928 9.373144,43.193348 9.375454,43.194998 C9.094184,42.818578 8.828754,42.432258 8.590714,42.029768 C8.509424,41.894798 8.350584,41.825608 8.203184,41.857068 C8.175134,41.863008 8.146204,41.873128 8.120134,41.886988 L8.120244,41.886988 C7.958874,41.971028 7.896834,42.181238 7.992534,42.342718 C8.407234,43.038688 8.895634,43.692088 9.415934,44.318208 C9.993434,45.014178 10.618564,45.672968 11.269764,46.303818 C11.951654,46.966788 12.667314,47.596868 13.407064,48.198128 C14.138234,48.793998 14.893274,49.361818 15.675594,49.891468 C16.051464,50.147218 16.435584,50.392408 16.825974,50.626158 C17.151354,50.820528 17.482784,51.001368 17.818614,51.175388 C17.166534,53.342608 16.579464,55.530288 16.084684,57.744698 C15.943774,58.374668 15.815844,59.007278 15.696274,59.641758 C15.486394,59.559698 15.277504,59.471588 15.069384,59.386008 C14.810664,59.281068 14.555794,59.169748 14.303454,59.054138 C14.322264,59.062168 14.339204,59.070638 14.358014,59.078888 C14.332934,59.067338 14.307524,59.055788 14.282334,59.044348 C14.280244,59.043248 14.278044,59.042258 14.276064,59.041378 C14.278044,59.041818 14.278374,59.043138 14.280354,59.043908 C12.013364,57.988128 9.928754,56.560438 7.977574,55.004268 C6.622264,53.916258 5.325914,52.756528 4.078184,51.548508 C3.991614,51.464578 3.871604,51.430478 3.762814,51.453688 C3.710234,51.464908 3.661064,51.489658 3.619374,51.528598 L3.619484,51.528598 C3.495734,51.643658 3.48824588,51.855628 3.616734,51.980588 C4.929034,53.251638 6.293254,54.466588 7.723584,55.607838 C9.210344,56.794958 10.774984,57.898368 12.432024,58.836228 C12.946714,59.126738 13.472734,59.398108 14.005024,59.650228 C14.277274,59.778378 14.551614,59.900918 14.828154,60.017188 C14.959494,60.072848 15.091604,60.125868 15.225034,60.176138 C15.340974,60.220248 15.457904,60.259078 15.575494,60.298678 C15.192474,62.427618 14.884694,64.572728 14.474284,66.696388 C14.445794,66.844008 14.416644,66.991518 14.386834,67.138808 C14.015254,66.869858 13.631464,66.616968 13.248774,66.363308 C12.776544,66.049368 12.304424,65.736968 11.830214,65.423798 C10.877064,64.792288 9.934474,64.144718 9.038194,63.432688 C8.593024,63.073648 8.161714,62.698108 7.750644,62.299358 C7.663304,62.212348 7.537464,62.177478 7.425264,62.201568 C7.370814,62.213118 7.319994,62.238528 7.276874,62.279008 L7.276874,62.278898 C7.148724,62.398028 7.142234,62.615718 7.274124,62.745298 C8.323524,63.766648 9.509764,64.639938 10.714594,65.469778 C11.305404,65.874798 11.902704,66.270908 12.495494,66.670648 C13.081574,67.064668 13.653134,67.475518 14.228104,67.884828 L14.229644,67.885818 C13.993804,68.963488 13.718914,70.031148 13.388144,71.081208 C13.099834,71.996958 12.750254,72.888948 12.377244,73.770928 C12.351944,73.685568 12.295294,73.607688 12.213564,73.554998 C11.440484,73.052518 10.662564,72.561478 9.939424,71.988818 C9.865174,71.930738 9.744064,71.920948 9.658044,71.939318 C9.565204,71.959228 9.481824,72.016538 9.432544,72.097388 L9.432654,72.097388 C9.383044,72.177358 9.368084,72.276578 9.392504,72.370188 C9.419344,72.473368 9.481384,72.533978 9.563114,72.598988 C10.284164,73.170548 11.058234,73.676108 11.843964,74.155048 C11.958364,74.224568 12.096304,74.226988 12.205754,74.172318 C12.027774,74.584598 11.845834,74.995228 11.663894,75.405418 C11.668624,75.394638 11.673024,75.383968 11.677644,75.373188 C11.047564,76.785918 10.398674,78.190728 9.778934,79.608188 C9.634284,79.515018 9.488864,79.424158 9.344984,79.329998 C9.144014,79.198218 8.946014,79.063578 8.749224,78.926408 C8.366534,78.657678 7.992644,78.374758 7.626124,78.083478 C7.642624,78.096788 7.660884,78.109988 7.677274,78.123298 C7.335834,77.849618 7.001324,77.568018 6.674404,77.279708 C6.598064,77.213488 6.519634,77.168828 6.417994,77.162558 C6.385984,77.160468 6.353424,77.163328 6.321854,77.170148 C6.258714,77.183678 6.199754,77.213598 6.152014,77.257488 L6.152124,77.257378 C6.019574,77.381898 5.998014,77.633578 6.149704,77.768108 C6.682434,78.235168 7.229024,78.684958 7.796844,79.109558 C8.075254,79.317898 8.358944,79.518868 8.649894,79.711478 C8.927424,79.896828 9.210894,80.079648 9.506244,80.237608 C9.441124,80.388968 9.376664,80.540548 9.312534,80.692348 C8.917524,81.628778 8.545174,82.574778 8.203954,83.532878 C7.992094,84.124568 7.797724,84.722308 7.613914,85.323788 C7.583224,85.272638 7.539884,85.232048 7.487634,85.191898 C7.172044,84.952758 6.851834,84.719228 6.541524,84.473598 C5.657894,83.760358 4.825414,82.981118 4.089844,82.118828 C4.007234,82.021478 3.871494,81.991228 3.754014,82.016418 C3.692744,82.029508 3.636754,82.056898 3.593634,82.097378 L3.593744,82.097268 C3.527964,82.157878 3.490784,82.243348 3.48824588,82.332778 C3.487594,82.429578 3.527194,82.510758 3.590994,82.585228 C4.105024,83.186598 4.664374,83.749798 5.252654,84.280988 C5.550094,84.548288 5.855894,84.806018 6.167524,85.056818 C6.479044,85.306848 6.795294,85.555228 7.127384,85.777868 C7.232214,85.848598 7.364544,85.849258 7.471134,85.798658 C7.436154,85.916468 7.401614,86.034278 7.367404,86.152198 C6.872954,87.851588 6.475084,89.582108 6.245294,91.345848 C6.126934,92.256648 6.066764,93.178228 6.085134,94.102338 C6.101964,94.956268 6.196894,95.819438 6.402154,96.657748 C6.447144,96.844308 6.648774,96.964538 6.834564,96.924828 C7.027724,96.883468 7.131124,96.697898 7.089764,96.510568 C7.011884,96.154278 6.948524,95.797328 6.902874,95.436968 C6.733804,93.919078 6.838084,92.399318 7.058854,90.907058 C7.159724,90.261688 7.282594,89.621268 7.423284,88.985248 L7.423284,88.985248 Z M11.677864,75.373078 C11.686004,75.355148 11.692604,75.337878 11.700964,75.320168 C11.692604,75.337878 11.686004,75.355478 11.677644,75.373188 L11.677864,75.373078 Z" id="Fill-3" fill="#F8D21C"></path>
                                    </g>
                                    <g id="编组" transform="translate(130.000000, 10.000000)">
                                        <g transform="translate(0.000000, 0.052140)">
                                            <mask id="mask-9" fill="white">
                                                <use xlink:href="#path-8"></use>
                                            </mask>
                                            <g id="Clip-2"></g>
                                            <path d="M36.618505,24.399804 C36.698145,24.337104 36.776465,24.266484 36.854785,24.188054 L36.757875,24.188054 L36.773165,24.167154 C38.588495,23.760264 36.738295,20.952514 35.777885,22.437294 C35.362195,22.706134 34.669415,23.227864 34.462065,23.641354 C33.896005,24.171224 33.779405,25.468014 34.877975,25.468014 C35.563385,25.468014 36.251545,24.954864 36.618505,24.399804 L36.618505,24.399804 Z M31.971115,4.548104 C28.189865,6.398414 24.312915,8.062934 20.461705,9.779154 C20.461705,10.036114 20.716905,10.223224 20.717675,10.527484 C20.834935,10.684124 21.015775,11.135454 21.092005,11.342694 C21.255355,11.594704 21.364145,11.929764 21.575675,12.141074 C21.737265,12.302774 22.045815,12.851784 22.074415,13.052864 C22.189475,13.248664 22.307065,13.347774 22.333905,13.592634 C22.451055,13.745974 22.509685,13.929674 22.509685,14.113484 L22.509685,13.843214 C22.691515,14.023614 22.751135,14.397394 22.936375,14.537424 L22.936375,14.525874 C23.272095,14.859174 23.407285,15.260674 23.566455,15.694514 C23.961795,16.304024 23.902945,17.531954 22.931205,17.531954 C22.583605,17.531954 22.381095,17.403144 22.171325,17.208884 C21.767625,17.038714 21.102125,16.513794 20.844505,16.114934 C20.728125,16.040024 20.635175,15.940584 20.568845,15.826844 C20.081215,15.486174 19.594245,14.905924 19.347295,14.412024 C19.095285,13.907784 18.612165,13.456124 18.442875,12.920534 L18.434515,12.907334 C17.702465,12.472614 17.806085,11.720544 17.410855,11.147554 C15.112845,12.200694 12.860705,13.330064 10.775655,14.795374 C6.332425,17.973604 3.562625,21.088254 3.391355,26.641054 C3.303795,29.433184 3.965445,32.178234 4.726315,34.843204 C5.515455,37.570764 6.034545,40.042244 4.874595,42.739774 C4.992735,42.918744 5.116705,43.100354 5.202175,43.298684 C5.439005,43.535294 5.473435,43.826024 5.703445,44.055924 C5.782645,44.135124 5.843255,44.225984 5.884945,44.322894 C6.183045,44.631774 6.455185,45.065284 6.845685,45.260424 C7.055675,45.365364 7.232665,45.574914 7.360155,45.766864 C7.591375,45.943414 7.793775,46.161214 8.040395,46.284414 C8.234105,46.381214 8.395035,46.566014 8.519225,46.739484 C8.989035,47.017124 9.687095,47.654354 9.708875,48.213154 C9.988495,48.789004 10.104435,49.605754 9.742645,50.163894 C9.358965,51.210104 7.647475,50.872624 7.022455,50.191174 C6.606765,49.894174 6.269615,49.502684 5.810255,49.264754 C5.629085,49.235274 5.466945,49.148924 5.342755,49.024734 L5.400725,49.082704 C5.161805,49.003064 4.998565,48.856654 4.834885,48.691104 C4.615325,48.593754 4.459125,48.455814 4.227685,48.378814 C4.002845,48.303794 3.829485,48.144734 3.731255,47.948274 C3.544915,47.575044 3.046615,47.496834 2.909885,47.046824 L2.872595,47.028234 L2.872595,47.066624 C2.715625,46.909654 2.476815,46.909874 2.299825,46.748614 C1.500895,47.881724 0.762795,49.046294 0.359315,50.398084 C-0.729135,54.057894 0.848375,58.129434 2.514325,61.344844 C3.122405,62.513484 3.778885,63.661334 4.470125,64.782564 C5.556265,66.549274 6.727545,68.313234 6.988355,70.416654 L6.987915,70.414454 C7.164245,72.798594 6.097135,74.491274 4.789345,76.451144 C3.893065,77.775984 3.125925,79.071564 2.716395,80.631584 C1.897225,83.736334 2.313905,87.094304 3.062455,90.170674 C4.065655,93.058284 5.718405,95.693884 7.218475,98.339934 C7.381935,97.890914 7.554855,97.435954 7.755495,97.002114 L7.744385,97.017184 C10.445545,91.096214 15.513025,86.493154 20.740995,82.780544 L20.708545,82.798144 C24.745325,79.979504 29.348825,78.019744 33.136785,74.836454 C34.543355,73.654944 35.826725,72.274664 36.735435,70.669214 C36.598265,70.689234 36.448995,70.922984 36.282895,70.984034 C35.696375,71.364084 35.067175,71.730494 34.402995,71.952144 L34.461075,71.894174 C34.278475,72.076664 33.545435,72.316244 33.256685,72.316244 C33.009845,72.316244 32.784455,72.436034 32.543445,72.475524 C32.339395,72.581894 32.069125,72.608624 31.845605,72.690574 C31.214425,73.099774 30.008715,72.732044 30.008715,71.884384 C30.008715,71.387734 30.199565,70.989644 30.614705,70.666904 C31.270305,70.157274 32.272185,69.396954 33.032285,69.190704 C33.235455,69.012614 34.059465,68.689324 34.311145,68.647964 C34.403325,68.600004 34.505515,68.568104 34.613535,68.556334 C34.750045,68.452164 35.015145,68.322584 35.179705,68.262304 C36.042765,67.703284 36.823325,66.951544 37.746335,66.503624 C37.929265,66.231044 38.156305,65.908414 38.418655,65.645184 C38.791445,63.253344 38.734905,60.823884 38.729075,58.411144 C38.720715,56.943524 38.722035,55.481954 38.935655,54.026324 L38.931915,54.039744 C39.210765,52.397444 39.757135,50.874494 40.724035,49.507524 C41.480285,47.725854 42.735385,46.227874 43.883235,44.691834 C46.908785,40.652964 49.605215,35.879734 49.984055,30.738334 C49.672755,30.877044 49.394455,30.913124 49.076005,30.990454 C48.936195,31.105404 48.759205,31.177014 48.565825,31.184714 C48.228785,31.354224 47.861605,31.531434 47.497395,31.591054 C47.082365,31.801704 46.315995,32.068784 45.858615,32.111024 C45.710885,32.188794 45.461515,32.271734 45.297065,32.289664 C45.094775,32.444104 44.880165,32.465444 44.637945,32.465444 C44.449185,32.559824 44.297495,32.632864 44.129415,32.676314 C43.374705,33.291984 42.002345,33.934274 41.013775,34.063304 C40.899045,34.127434 40.768255,34.166044 40.628775,34.171434 C40.435505,34.265264 40.275125,34.342704 40.051935,34.342704 C39.327915,34.584044 36.835535,35.398704 36.835535,33.910954 C36.835535,33.560604 36.813975,33.235554 37.086995,32.962534 C37.718395,32.331024 38.405015,31.803794 39.242445,31.506024 C39.487635,31.330244 39.844585,31.099354 40.136085,31.028624 C40.342445,30.859004 40.723815,30.748344 40.990015,30.748344 C41.352355,30.567284 41.714365,30.430994 42.074175,30.249054 C42.182965,30.191854 42.305615,30.157314 42.435745,30.151924 C42.801715,29.963934 43.536625,29.656484 43.975195,29.639764 C44.223575,29.519204 44.479435,29.444514 44.736835,29.350134 C44.862345,29.268734 45.010515,29.219234 45.169795,29.213074 C45.818135,28.898034 46.541055,28.742714 47.211615,28.496754 C47.490465,28.316024 48.132315,28.017704 48.450765,28.017704 C48.896155,27.756014 49.447035,27.579354 49.927955,27.392794 C49.258055,20.997834 45.472405,15.737414 42.795335,10.072524 C42.334545,9.098474 41.877605,8.111554 41.548705,7.089984 C40.815225,4.797364 40.626575,2.394304 40.088565,0.057794 C37.481675,1.709114 34.755215,3.185754 31.971115,4.548104 Z" id="Fill-1" fill="#0DE1B6" mask="url(#mask-9)"></path>
                                        </g>
                                        <path d="M28.602904,23.508408 C28.597074,23.522048 28.591464,23.535688 28.585634,23.549328 C28.591464,23.535578 28.597074,23.522158 28.602904,23.508518 L28.602904,23.508408 Z M7.068754,90.830718 C7.065784,90.855578 7.061274,90.881098 7.058634,90.905958 C7.061384,90.881098 7.065784,90.855688 7.068644,90.830828 L7.068754,90.830718 Z M34.237434,10.965768 C34.248654,10.980288 34.259654,10.995138 34.269224,11.010098 C34.258004,10.995358 34.248544,10.980618 34.237434,10.965988 L34.237434,10.965768 Z M20.469174,38.329038 C20.480504,38.337398 20.491944,38.345868 20.501624,38.354668 C20.491944,38.345868 20.480394,38.337508 20.468954,38.329148 L20.469174,38.329038 Z M13.963664,47.788708 C13.981924,47.801798 13.998094,47.815218 14.014594,47.828638 C13.998204,47.815218 13.981704,47.801908 13.963554,47.788818 L13.963664,47.788708 Z M9.375674,43.195658 C9.378754,43.200608 9.381944,43.205558 9.386784,43.210068 C9.381944,43.205228 9.378644,43.200278 9.375454,43.194998 C9.375564,43.195108 9.375674,43.195548 9.375674,43.195768 L9.375674,43.195658 Z M14.282334,59.044348 C14.288934,59.047648 14.296964,59.050618 14.303454,59.054138 C14.295314,59.050618 14.288714,59.046988 14.280354,59.043908 C14.280464,59.044018 14.282334,59.044018 14.282334,59.044348 Z M6.501594,84.440708 C6.513694,84.451708 6.527444,84.462158 6.541304,84.472608 C6.527554,84.462048 6.513584,84.451708 6.501484,84.440708 L6.501594,84.440708 Z M6.546364,84.477118 C6.555494,84.484158 6.564624,84.491308 6.572214,84.498788 C6.564734,84.491198 6.555384,84.484158 6.546144,84.477228 L6.546364,84.477118 Z M38.226804,17.784448 C38.235714,17.783348 38.242974,17.782688 38.251994,17.781478 C38.243084,17.782578 38.235714,17.783348 38.226694,17.784558 L38.226804,17.784448 Z M41.459704,36.884518 C41.464764,36.882428 41.471364,36.879898 41.478184,36.877368 C41.485004,36.874508 41.493364,36.871318 41.501724,36.868348 C41.486654,36.873738 41.473124,36.879238 41.459704,36.884628 L41.459704,36.884518 Z M7.423284,88.985248 C8.175354,89.061698 8.929294,89.046628 9.672234,88.953348 C10.509774,88.848628 11.331584,88.641168 12.127984,88.385418 C12.208394,88.359678 12.274614,88.273218 12.301344,88.197978 C12.332694,88.112288 12.325874,88.014938 12.283854,87.931448 C12.242604,87.850708 12.171984,87.786358 12.085744,87.753908 C11.987514,87.717718 11.907984,87.732458 11.813604,87.761278 C11.691944,87.798458 11.568414,87.836848 11.444774,87.873698 C10.494814,88.150678 9.519334,88.344388 8.516464,88.375848 C8.201424,88.380908 7.886274,88.370018 7.571564,88.342408 C7.826984,87.279368 8.128164,86.228208 8.454534,85.185848 C8.765944,84.189138 9.121134,83.208598 9.503714,82.239168 C9.806544,82.266008 10.110804,82.274698 10.413744,82.283498 C10.751554,82.293618 11.089364,82.296698 11.428274,82.297138 C12.097514,82.299448 12.767964,82.286358 13.436984,82.267218 C14.806484,82.228278 16.174224,82.154908 17.542514,82.104858 C17.716754,82.098478 17.858654,81.974948 17.854694,81.796088 C17.852714,81.631528 17.703004,81.469498 17.528764,81.475988 C16.180604,81.524388 14.833544,81.585658 13.485824,81.615468 C12.815704,81.630428 12.146574,81.634828 11.475574,81.625148 C11.137544,81.620748 10.799624,81.610518 10.461484,81.599078 C10.232024,81.590938 10.002234,81.578728 9.772554,81.569818 C10.126424,80.703898 10.499214,79.845898 10.879044,78.991748 C10.869804,79.012758 10.860344,79.033658 10.850994,79.054558 C11.223564,78.217898 11.602844,77.384318 11.979154,76.549308 C12.006324,76.557228 12.034594,76.562178 12.063634,76.563938 C12.583054,76.596168 13.102914,76.587258 13.620024,76.596168 C14.136914,76.604528 14.653034,76.616738 15.169374,76.630268 C16.198204,76.655788 17.226374,76.685818 18.253334,76.704628 C20.303184,76.740268 22.352154,76.722888 24.385724,76.532038 C25.716064,76.407078 27.034524,76.208088 28.328344,75.914608 C28.497964,75.876108 28.595974,75.697688 28.549114,75.532138 C28.499834,75.363398 28.319874,75.262968 28.150254,75.301468 C27.109764,75.536868 26.056184,75.707588 24.991384,75.828588 C22.979814,76.046278 20.946354,76.081148 18.914544,76.050788 C16.856554,76.018888 14.795264,75.918348 12.733974,75.888868 C12.581294,75.886668 12.428724,75.885238 12.276154,75.888098 L12.388684,75.635978 C12.900514,74.486588 13.407614,73.333238 13.830124,72.146668 C14.075974,71.456968 14.290804,70.757038 14.482204,70.050288 C14.523344,70.067228 14.566684,70.076358 14.611784,70.077348 C15.031874,70.140048 15.458564,70.143348 15.878104,70.140378 C16.343844,70.136638 16.809254,70.110788 17.271694,70.080648 C17.719724,70.051388 18.164014,70.015858 18.611274,69.983848 C19.074704,69.950518 19.537144,69.920378 20.000134,69.885068 C21.982884,69.733598 23.962334,69.527238 25.916704,69.203398 C28.877684,68.712908 31.828874,67.943128 34.461944,66.562628 C34.616714,66.481558 34.665774,66.279048 34.576454,66.127578 C34.484054,65.971818 34.283084,65.918138 34.128094,65.999208 C33.460284,66.349228 32.768494,66.658438 32.062404,66.933548 C32.089464,66.923648 32.114654,66.913858 32.139844,66.904178 C29.199324,68.041578 26.037044,68.605878 22.879164,68.958648 C22.908094,68.955238 22.936804,68.952598 22.965624,68.949408 C21.531114,69.108028 20.089124,69.216158 18.645704,69.312848 C17.959634,69.357948 17.272574,69.415478 16.583974,69.444738 C16.236484,69.460358 15.889764,69.466518 15.541944,69.460578 C15.243954,69.455518 14.947944,69.432858 14.651384,69.400848 C15.009324,67.970408 15.281794,66.515438 15.529734,65.060248 C15.714424,63.983018 15.883384,62.903368 16.063234,61.824818 C16.477384,61.868488 16.891424,61.861558 17.308104,61.840108 C17.812344,61.813708 18.312734,61.773338 18.817194,61.747708 C19.933804,61.690838 21.051404,61.644968 22.167464,61.593268 C23.285064,61.540138 24.400904,61.480628 25.514874,61.399228 C26.021864,61.362158 26.526654,61.317388 27.033094,61.277678 C27.501254,61.241268 27.970074,61.206838 28.439994,61.169438 C29.777154,61.063618 31.114974,60.932168 32.426504,60.670808 C33.685014,60.419458 34.932414,60.032698 36.028014,59.390518 C36.182454,59.300758 36.239104,59.105838 36.143844,58.945788 C36.051994,58.792118 35.838044,58.724468 35.685474,58.813898 C35.290354,59.045668 34.876314,59.241358 34.448414,59.411088 C34.461944,59.406028 34.475474,59.401078 34.487134,59.396348 C34.473604,59.401408 34.461944,59.406138 34.448414,59.411308 C34.435104,59.416478 34.423224,59.421318 34.409804,59.426598 C34.421574,59.421428 34.434994,59.416478 34.448524,59.411418 C33.060214,59.938978 31.571584,60.189558 30.085594,60.356318 C30.092854,60.355768 30.099894,60.354998 30.107264,60.354338 C29.172814,60.455978 28.233084,60.524178 27.294014,60.594248 C26.249894,60.672788 25.208084,60.761228 24.161104,60.822608 C21.974304,60.950978 19.778154,61.007518 17.591574,61.143918 C17.120224,61.172848 16.649094,61.188138 16.175324,61.161958 C16.368264,60.042598 16.583094,58.927418 16.828174,57.819828 C17.202284,56.143428 17.630954,54.481878 18.100764,52.832868 C18.239144,52.812188 18.376864,52.792058 18.516784,52.775338 C19.017724,52.722318 19.521524,52.701638 20.026204,52.684368 C20.547604,52.665888 21.066694,52.640918 21.585674,52.607148 C22.657844,52.535978 23.725284,52.432908 24.787554,52.302338 C26.915394,52.039658 29.023654,51.645748 31.087144,51.107408 C33.528374,50.470178 35.908334,49.618448 38.157064,48.519328 C38.321514,48.438918 38.366614,48.221008 38.274544,48.066458 C38.177744,47.900908 37.972704,47.853058 37.808254,47.932808 C36.947614,48.353998 36.065854,48.736908 35.169464,49.085058 C35.196634,49.074938 35.221604,49.064488 35.248554,49.054478 C31.679164,50.436298 27.887354,51.271198 24.044504,51.702838 C24.048244,51.702288 24.049894,51.702178 24.051654,51.701958 C24.048244,51.702288 24.044504,51.702728 24.040874,51.703058 C24.033614,51.704048 24.028224,51.704488 24.021074,51.705368 C24.026464,51.704598 24.031964,51.704268 24.039114,51.703278 C23.009294,51.815808 21.975624,51.899848 20.939974,51.954958 C20.419564,51.982458 19.898054,51.992358 19.376434,52.016008 C19.123764,52.026898 18.874064,52.042408 18.623044,52.066718 C18.519754,52.076508 18.415914,52.087178 18.312514,52.099938 C18.470364,51.560498 18.632504,51.022158 18.798384,50.485138 C19.791574,47.263458 20.925564,44.092598 22.094314,40.935268 C22.478104,40.914588 22.860904,40.885658 23.242164,40.859148 C23.746074,40.824168 24.250974,40.786548 24.753674,40.747608 C25.774034,40.669068 26.793294,40.579858 27.808814,40.476458 C29.872414,40.266028 31.927984,39.996198 33.961774,39.621758 C37.718494,38.929968 41.421424,37.861648 44.780934,36.120898 C44.939224,36.038838 44.988834,35.830718 44.896654,35.676388 C44.803154,35.516338 44.596574,35.462438 44.438394,35.544388 C43.487224,36.037628 42.503494,36.476858 41.501724,36.868348 C41.508434,36.865598 41.516794,36.862298 41.525264,36.859328 C41.510304,36.865158 41.493364,36.871538 41.478184,36.877368 C41.468174,36.881218 41.456294,36.885728 41.446174,36.889688 C41.451344,36.887708 41.454644,36.886498 41.459704,36.884628 C37.684944,38.332338 33.656414,39.110258 29.611054,39.603498 C29.324064,39.638258 29.037954,39.670928 28.751954,39.703488 C28.780774,39.700078 28.809594,39.696888 28.838304,39.693698 C27.657784,39.825038 26.473194,39.933828 25.286844,40.028758 C24.701094,40.075288 24.114134,40.118518 23.528384,40.158778 C23.137334,40.185288 22.745404,40.207618 22.354354,40.234348 C22.761684,39.138748 23.172424,38.044468 23.581954,36.949858 C24.426864,34.689578 25.267154,32.426218 26.066414,30.147678 L26.084234,30.097298 C26.220744,30.106098 26.357144,30.113798 26.493984,30.118418 C26.749954,30.127218 27.005814,30.128428 27.261344,30.128208 C27.757334,30.127218 28.253544,30.112808 28.748874,30.087838 C29.768464,30.035038 30.783764,29.930978 31.791914,29.791938 C33.833184,29.509678 35.843324,29.058898 37.814634,28.500868 C41.101434,27.569278 44.284394,26.323528 47.348884,24.872298 C47.513664,24.793978 47.557884,24.572548 47.466254,24.420088 C47.383864,24.281048 47.228984,24.226928 47.083454,24.258058 C47.055514,24.263998 47.028234,24.273348 47.000074,24.286438 L47.000074,24.286218 C45.594164,24.952598 44.160204,25.569038 42.703694,26.134438 C42.730644,26.123658 42.757594,26.113648 42.786084,26.102538 C38.990864,27.570268 35.019204,28.709868 30.927644,29.195848 C30.846684,29.205198 30.765834,29.214658 30.684874,29.223568 C30.717104,29.219278 30.747794,29.216528 30.778264,29.212678 C29.941384,29.305298 29.100324,29.368438 28.256184,29.397258 C27.841484,29.411558 27.424144,29.416288 27.008344,29.412108 C26.781194,29.409908 26.553494,29.407378 26.325574,29.402758 C26.630714,28.519678 26.932334,27.635388 27.262664,26.761218 C27.669334,25.683988 28.112744,24.620398 28.577604,23.568138 C29.311304,21.921878 30.105394,20.307738 30.939414,18.715158 C31.084284,18.750798 31.232784,18.769718 31.380404,18.784898 C31.633404,18.810198 31.888054,18.807338 32.139074,18.804478 C32.631984,18.797878 33.123464,18.794468 33.616484,18.782148 C34.659834,18.756518 35.703294,18.703608 36.741364,18.622648 C38.849954,18.457208 40.953264,18.171868 42.988814,17.647498 C43.502404,17.514948 44.013024,17.363698 44.515064,17.193858 C44.603834,17.164158 44.674344,17.122468 44.721644,17.041398 C44.769824,16.962308 44.779834,16.866498 44.754534,16.776518 C44.704924,16.606568 44.497464,16.464558 44.318824,16.525058 C42.372264,17.184728 40.318674,17.547618 38.262664,17.780378 C37.062124,17.912378 35.856084,17.996198 34.646524,18.044158 C34.058464,18.067698 33.467214,18.080348 32.877944,18.085958 C32.587984,18.088488 32.297694,18.090468 32.008724,18.090028 C31.767824,18.089478 31.525824,18.084858 31.286464,18.058238 C32.352254,16.055798 33.477334,14.085258 34.620784,12.124728 C35.119634,12.119558 35.617164,12.069618 36.109194,12.003838 C36.714084,11.923098 37.310944,11.797478 37.897354,11.639078 C38.490914,11.478258 39.070944,11.274538 39.635244,11.037818 C40.164564,10.816278 40.673754,10.553268 41.153684,10.248458 C41.233214,10.198408 41.290854,10.135268 41.315054,10.043418 C41.337054,9.956738 41.323414,9.861698 41.276774,9.782168 C41.199224,9.654458 41.032464,9.576798 40.888584,9.607488 C40.855474,9.614528 40.825114,9.626628 40.796624,9.644778 L40.796734,9.644668 C40.232544,10.003158 39.627654,10.297408 39.001314,10.544688 C37.923644,10.956638 36.786354,11.232958 35.624974,11.367268 C35.428844,11.387618 35.232714,11.403018 35.035704,11.414898 C36.561514,8.810758 38.111194,6.219928 39.589374,3.591258 C39.678144,3.433738 39.634144,3.229798 39.468814,3.128378 C39.389724,3.079538 39.293364,3.065458 39.205584,3.084268 C39.121434,3.102198 39.045204,3.151038 39.000544,3.228698 L39.000544,3.228588 C37.503004,5.894438 35.932754,8.517388 34.386264,11.154418 C34.331154,11.085558 34.276484,11.016478 34.223024,10.946628 C33.622644,10.140438 33.120494,9.271988 32.738574,8.352608 C32.524514,7.821308 32.353354,7.277688 32.232574,6.721198 C32.190884,6.525728 31.971764,6.402198 31.782234,6.442788 C31.580604,6.485908 31.473574,6.679508 31.515154,6.874648 C31.719094,7.821418 32.066914,8.738598 32.508564,9.610018 C32.729664,10.046168 32.980134,10.468458 33.253154,10.877218 C33.393404,11.088638 33.543334,11.294448 33.697664,11.496408 C33.788414,11.615538 33.880374,11.736208 33.978054,11.851708 C33.192214,13.197558 32.414624,14.548138 31.658264,15.911368 C31.506134,16.185488 31.354884,16.460048 31.204624,16.735378 C31.089344,16.567298 30.967904,16.403288 30.847124,16.238288 C30.643294,15.959438 30.443644,15.676958 30.248834,15.391068 C29.860974,14.817748 29.493354,14.231448 29.148724,13.633158 C28.470684,12.465178 27.881744,11.248688 27.373324,10.006788 C27.290164,9.800428 27.208544,9.594178 27.128684,9.386498 C27.093484,9.294318 27.053994,9.220508 26.965554,9.165618 C26.884044,9.115678 26.785374,9.098958 26.693964,9.118538 C26.602774,9.137788 26.524454,9.192788 26.476164,9.270338 L26.476274,9.270338 C26.431834,9.341398 26.406754,9.451508 26.437444,9.534448 C26.967424,10.929248 27.586504,12.290938 28.301944,13.609508 C28.662634,14.276768 29.051154,14.930168 29.459034,15.572348 C29.656594,15.882548 29.863614,16.187248 30.071954,16.490188 C30.298664,16.819858 30.534174,17.148538 30.813464,17.439268 L30.820064,17.446088 C29.943804,19.079038 29.107804,20.733768 28.331974,22.417868 C27.828724,23.507968 27.354734,24.611268 26.908354,25.727108 C26.691214,26.272928 26.482544,26.822928 26.281904,27.375898 L26.245494,27.476108 C25.813084,27.035558 25.364944,26.608978 24.931214,26.170188 C24.386384,25.620408 23.851674,25.060508 23.330604,24.488618 C22.293194,23.348248 21.309904,22.160248 20.383154,20.933528 C20.383704,20.934958 20.384034,20.936828 20.386234,20.937928 C18.837544,18.878728 17.451874,16.707658 16.253314,14.443418 C16.176974,14.298988 16.001854,14.231448 15.849284,14.264118 C15.819584,14.270498 15.790654,14.280618 15.764694,14.294478 L15.764584,14.294368 C15.591994,14.385228 15.541394,14.596538 15.632584,14.769018 C16.662184,16.711178 17.822904,18.587998 19.105394,20.385068 C20.389424,22.180818 21.792254,23.892858 23.287704,25.525918 C23.720224,25.999468 24.161764,26.465318 24.612214,26.922148 C25.053974,27.369408 25.500464,27.815128 25.982044,28.222678 C25.867534,28.553228 25.754784,28.884438 25.640384,29.214988 L25.555244,29.459628 C25.476814,29.523098 25.426874,29.620888 25.428964,29.725718 C25.429514,29.749808 25.432594,29.773128 25.437764,29.795568 C24.303224,33.028468 23.081894,36.228698 21.881574,39.436628 C21.414294,39.060648 20.935244,38.700948 20.466644,38.327278 C18.854484,37.027628 17.316904,35.638328 15.869744,34.162018 C14.387714,32.650508 12.996104,31.053858 11.693484,29.393078 C11.468864,29.105428 11.245124,28.815908 11.024684,28.524078 C10.076374,27.263588 9.178224,25.968338 8.331224,24.642618 C8.247734,24.513698 8.099564,24.442858 7.955794,24.473438 C7.927744,24.479378 7.900574,24.489278 7.872854,24.503578 L7.872854,24.503468 C7.719734,24.583548 7.650214,24.793428 7.749544,24.947648 C10.012794,28.491628 12.631894,31.831778 15.591114,34.855788 C16.517094,35.802338 17.477394,36.717098 18.472234,37.593908 C18.959534,38.021808 19.453544,38.440138 19.957674,38.847248 C20.225414,39.064278 20.495684,39.278118 20.770464,39.487448 C21.032374,39.689188 21.297364,39.889718 21.573024,40.073748 C21.591724,40.086288 21.611524,40.096628 21.631984,40.104768 L21.546734,40.333788 C21.529134,40.344458 21.512194,40.357328 21.495364,40.373058 L21.495474,40.372948 C21.432004,40.434548 21.396914,40.521118 21.398124,40.611098 C21.398894,40.639368 21.403734,40.667638 21.412094,40.695138 C21.087814,41.567988 20.766064,42.441828 20.449044,43.317538 C19.585104,45.700908 18.761424,48.100998 18.016064,50.526168 C17.397864,50.192098 16.797484,49.818648 16.211294,49.431558 C15.455594,48.932158 14.726844,48.395248 14.018994,47.831498 C14.024054,47.835898 14.028784,47.840408 14.035384,47.844368 C13.143944,47.130138 12.289354,46.372348 11.478874,45.570448 C10.732084,44.828388 10.022694,44.045628 9.386784,43.210068 C9.398774,43.227448 9.412414,43.244388 9.424294,43.261658 C9.407574,43.239658 9.392394,43.217658 9.375674,43.195768 C9.373364,43.193678 9.372704,43.191478 9.370284,43.189388 C9.372594,43.190928 9.373144,43.193348 9.375454,43.194998 C9.094184,42.818578 8.828754,42.432258 8.590714,42.029768 C8.509424,41.894798 8.350584,41.825608 8.203184,41.857068 C8.175134,41.863008 8.146204,41.873128 8.120134,41.886988 L8.120244,41.886988 C7.958874,41.971028 7.896834,42.181238 7.992534,42.342718 C8.407234,43.038688 8.895634,43.692088 9.415934,44.318208 C9.993434,45.014178 10.618564,45.672968 11.269764,46.303818 C11.951654,46.966788 12.667314,47.596868 13.407064,48.198128 C14.138234,48.793998 14.893274,49.361818 15.675594,49.891468 C16.051464,50.147218 16.435584,50.392408 16.825974,50.626158 C17.151354,50.820528 17.482784,51.001368 17.818614,51.175388 C17.166534,53.342608 16.579464,55.530288 16.084684,57.744698 C15.943774,58.374668 15.815844,59.007278 15.696274,59.641758 C15.486394,59.559698 15.277504,59.471588 15.069384,59.386008 C14.810664,59.281068 14.555794,59.169748 14.303454,59.054138 C14.322264,59.062168 14.339204,59.070638 14.358014,59.078888 C14.332934,59.067338 14.307524,59.055788 14.282334,59.044348 C14.280244,59.043248 14.278044,59.042258 14.276064,59.041378 C14.278044,59.041818 14.278374,59.043138 14.280354,59.043908 C12.013364,57.988128 9.928754,56.560438 7.977574,55.004268 C6.622264,53.916258 5.325914,52.756528 4.078184,51.548508 C3.991614,51.464578 3.871604,51.430478 3.762814,51.453688 C3.710234,51.464908 3.661064,51.489658 3.619374,51.528598 L3.619484,51.528598 C3.495734,51.643658 3.48824588,51.855628 3.616734,51.980588 C4.929034,53.251638 6.293254,54.466588 7.723584,55.607838 C9.210344,56.794958 10.774984,57.898368 12.432024,58.836228 C12.946714,59.126738 13.472734,59.398108 14.005024,59.650228 C14.277274,59.778378 14.551614,59.900918 14.828154,60.017188 C14.959494,60.072848 15.091604,60.125868 15.225034,60.176138 C15.340974,60.220248 15.457904,60.259078 15.575494,60.298678 C15.192474,62.427618 14.884694,64.572728 14.474284,66.696388 C14.445794,66.844008 14.416644,66.991518 14.386834,67.138808 C14.015254,66.869858 13.631464,66.616968 13.248774,66.363308 C12.776544,66.049368 12.304424,65.736968 11.830214,65.423798 C10.877064,64.792288 9.934474,64.144718 9.038194,63.432688 C8.593024,63.073648 8.161714,62.698108 7.750644,62.299358 C7.663304,62.212348 7.537464,62.177478 7.425264,62.201568 C7.370814,62.213118 7.319994,62.238528 7.276874,62.279008 L7.276874,62.278898 C7.148724,62.398028 7.142234,62.615718 7.274124,62.745298 C8.323524,63.766648 9.509764,64.639938 10.714594,65.469778 C11.305404,65.874798 11.902704,66.270908 12.495494,66.670648 C13.081574,67.064668 13.653134,67.475518 14.228104,67.884828 L14.229644,67.885818 C13.993804,68.963488 13.718914,70.031148 13.388144,71.081208 C13.099834,71.996958 12.750254,72.888948 12.377244,73.770928 C12.351944,73.685568 12.295294,73.607688 12.213564,73.554998 C11.440484,73.052518 10.662564,72.561478 9.939424,71.988818 C9.865174,71.930738 9.744064,71.920948 9.658044,71.939318 C9.565204,71.959228 9.481824,72.016538 9.432544,72.097388 L9.432654,72.097388 C9.383044,72.177358 9.368084,72.276578 9.392504,72.370188 C9.419344,72.473368 9.481384,72.533978 9.563114,72.598988 C10.284164,73.170548 11.058234,73.676108 11.843964,74.155048 C11.958364,74.224568 12.096304,74.226988 12.205754,74.172318 C12.027774,74.584598 11.845834,74.995228 11.663894,75.405418 C11.668624,75.394638 11.673024,75.383968 11.677644,75.373188 C11.047564,76.785918 10.398674,78.190728 9.778934,79.608188 C9.634284,79.515018 9.488864,79.424158 9.344984,79.329998 C9.144014,79.198218 8.946014,79.063578 8.749224,78.926408 C8.366534,78.657678 7.992644,78.374758 7.626124,78.083478 C7.642624,78.096788 7.660884,78.109988 7.677274,78.123298 C7.335834,77.849618 7.001324,77.568018 6.674404,77.279708 C6.598064,77.213488 6.519634,77.168828 6.417994,77.162558 C6.385984,77.160468 6.353424,77.163328 6.321854,77.170148 C6.258714,77.183678 6.199754,77.213598 6.152014,77.257488 L6.152124,77.257378 C6.019574,77.381898 5.998014,77.633578 6.149704,77.768108 C6.682434,78.235168 7.229024,78.684958 7.796844,79.109558 C8.075254,79.317898 8.358944,79.518868 8.649894,79.711478 C8.927424,79.896828 9.210894,80.079648 9.506244,80.237608 C9.441124,80.388968 9.376664,80.540548 9.312534,80.692348 C8.917524,81.628778 8.545174,82.574778 8.203954,83.532878 C7.992094,84.124568 7.797724,84.722308 7.613914,85.323788 C7.583224,85.272638 7.539884,85.232048 7.487634,85.191898 C7.172044,84.952758 6.851834,84.719228 6.541524,84.473598 C5.657894,83.760358 4.825414,82.981118 4.089844,82.118828 C4.007234,82.021478 3.871494,81.991228 3.754014,82.016418 C3.692744,82.029508 3.636754,82.056898 3.593634,82.097378 L3.593744,82.097268 C3.527964,82.157878 3.490784,82.243348 3.48824588,82.332778 C3.487594,82.429578 3.527194,82.510758 3.590994,82.585228 C4.105024,83.186598 4.664374,83.749798 5.252654,84.280988 C5.550094,84.548288 5.855894,84.806018 6.167524,85.056818 C6.479044,85.306848 6.795294,85.555228 7.127384,85.777868 C7.232214,85.848598 7.364544,85.849258 7.471134,85.798658 C7.436154,85.916468 7.401614,86.034278 7.367404,86.152198 C6.872954,87.851588 6.475084,89.582108 6.245294,91.345848 C6.126934,92.256648 6.066764,93.178228 6.085134,94.102338 C6.101964,94.956268 6.196894,95.819438 6.402154,96.657748 C6.447144,96.844308 6.648774,96.964538 6.834564,96.924828 C7.027724,96.883468 7.131124,96.697898 7.089764,96.510568 C7.011884,96.154278 6.948524,95.797328 6.902874,95.436968 C6.733804,93.919078 6.838084,92.399318 7.058854,90.907058 C7.159724,90.261688 7.282594,89.621268 7.423284,88.985248 L7.423284,88.985248 Z M11.677864,75.373078 C11.686004,75.355148 11.692604,75.337878 11.700964,75.320168 C11.692604,75.337878 11.686004,75.355478 11.677644,75.373188 L11.677864,75.373078 Z" id="Fill-3" fill="#B6FFFB"></path>
                                    </g>
                                </g>
                            </g>
                            <g id="Group-8" transform="translate(44.000000, 0.000000)">
                                <g id="Group">
                                    <g id="Rectangle">
                                        <mask id="mask-11" fill="white">
                                            <use xlink:href="#path-10"></use>
                                        </mask>
                                        <use id="Mask" fill="#5CD3F3" xlink:href="#path-10"></use>
                                        <rect fill="url(#linearGradient-12)" mask="url(#mask-11)" x="10.5203252" y="7.23121387" width="28.2764228" height="131.768786"></rect>
                                    </g>
                                    <path d="M97,0 C101.970563,-9.13077564e-16 106,4.02943725 106,9 L106,34 L88,34 L88,9 C88,4.02943725 92.0294373,9.13077564e-16 97,0 Z" id="Rectangle" fill="url(#linearGradient-13)"></path>
                                </g>
                                <g id="编组-6" transform="translate(11.000000, 50.391431)">
                                    <g id="编组-8" transform="translate(0.000000, 0.608569)">
                                        <path d="M5.09836066,10.0238982 L61.9016393,2.03084932 C63.6128167,1.79006174 65,2.98503325 65,4.69989289 L65,26.4350893 C65,28.1499489 63.6128167,29.7353142 61.9016393,29.9761018 L5.09836066,37.9691507 C3.38718332,38.2099383 2,37.0149667 2,35.3001071 L2,13.5649107 C2,11.8500511 3.38718332,10.2646858 5.09836066,10.0238982 Z" id="矩形" fill="#6C4ED3"></path>
                                        <path d="M3.09836066,8.0238982 L59.9016393,0.0308493248 C61.6128167,-0.209938257 63,0.985033252 63,2.69989289 L63,24.4350893 C63,26.1499489 61.6128167,27.7353142 59.9016393,27.9761018 L3.09836066,35.9691507 C1.38718332,36.2099383 0,35.0149667 0,33.3001071 L0,11.5649107 C0,9.8500511 1.38718332,8.26468579 3.09836066,8.0238982 Z" id="矩形" fill="#8478FC"></path>
                                    </g>
                                    <path d="M13.5,29.6085686 C8.80557963,29.6085686 5,25.802989 5,21.1085686 C5,16.4141482 8.80557963,12.6085686 13.5,12.6085686 C18.1944204,12.6085686 22,16.4141482 22,21.1085686 C22,25.802989 18.1944204,29.6085686 13.5,29.6085686 Z M13.4373646,23.6341297 L11.2483758,22.2247756 L10,24.0332169 L14,26.6085686 L18,24.0332169 L16.7516242,22.2247756 L14.5626354,23.6341297 L14.5626354,16.6085686 L13.4373646,16.6085686 L13.4373646,23.6341297 Z" id="形状结合" fill="#FFFFFF"></path>
                                    <polygon id="矩形" fill="url(#linearGradient-14)" points="28 12.8567545 57 9.28210623 57 13.2821062 28 16.8567545"></polygon>
                                    <polygon id="矩形" fill="url(#linearGradient-14)" points="28 23.1832169 57 19.6085686 57 23.6085686 28 27.1832169"></polygon>
                                </g>
                                <g id="Group-3" transform="translate(14.000000, 14.000000)">
                                    <g id="编组-7" transform="translate(4.000000, 78.557807)">
                                        <path d="M4.31147541,7.67122867 L46.6885246,2.33879399 C47.9651172,2.17815641 49,3.28363917 49,4.80795886 L49,24.1281334 C49,25.6524531 47.9651172,27.0183808 46.6885246,27.1790184 L4.31147541,32.5114531 C3.03488279,32.6720907 2,31.5666079 2,30.0422882 L2,10.7221137 C2,9.19779399 3.03488279,7.83186625 4.31147541,7.67122867 Z" id="矩形" fill="#186FD4"></path>
                                        <path d="M2.31147541,5.65460077 L44.6885246,0.0173213647 C45.9651172,-0.152499551 47,0.945538651 47,2.46985833 L47,21.7900329 C47,23.3143526 45.9651172,24.6877249 44.6885246,24.8575458 L2.31147541,30.4948252 C1.03488279,30.6646461 0,29.5666079 0,28.0422882 L0,8.72211368 C0,7.19779399 1.03488279,5.82442169 2.31147541,5.65460077 Z" id="矩形" fill="#3597FE"></path>
                                        <polygon id="矩形" fill="#1C7EE5" points="5 8.44219302 42 3.98857309 42 7.98857309 5 12.442193"></polygon>
                                        <rect id="矩形" fill="#1B67B8" opacity="0.800000012" x="8" y="18.442193" width="5" height="5"></rect>
                                        <rect id="矩形" fill="#FFFFFF" opacity="0.800000012" x="5" y="14.442193" width="5" height="5"></rect>
                                        <rect id="矩形" fill="#FFFFFF" opacity="0.600000024" x="16" y="12.442193" width="5" height="5"></rect>
                                        <rect id="矩形" fill="#FFFFFF" opacity="0.300000012" x="26" y="18.442193" width="5" height="5"></rect>
                                        <rect id="矩形" fill="#1E60A5" opacity="0.600000024" x="26" y="11.442193" width="5" height="5"></rect>
                                        <rect id="矩形" fill="#FFFFFF" opacity="0.600000024" x="36" y="11.442193" width="5" height="5"></rect>
                                        <rect id="矩形" fill="#FFFFFF" opacity="0.300000012" x="5" y="21.442193" width="5" height="5"></rect>
                                    </g>
                                    <g id="Chart" transform="translate(0.000000, 10.000000)" fill="#FFFFFF">
                                        <path d="M13.7992881,13.6323 C13.0971728,14.3803 12.1025552,14.85 10.9963249,14.85 C8.87073531,14.85 7.14761119,13.1263 7.14761119,11 C7.14761119,8.8737 8.87073531,7.15 10.9963249,7.15 L10.9963249,0 C4.94944584,0 0,4.9511 0,11 C0,17.0489 4.94944584,22 10.9963249,22 C14.1726134,22 17.043204,20.6558 19,18.5174 L13.7992881,13.6323 Z" id="Value"></path>
                                        <path d="M10,0 L10,7.8 C12.3196,7.8 14.2,9.6804 14.2,12 L22,12 C22,5.4012 16.5988,0 10,0 Z" id="Value" opacity="0.800000012"></path>
                                        <path d="M15.3656545,12 C15.3656545,13.1356611 14.8308242,14.1451377 14,14.7969217 L18.0872672,20 C20.4664455,18.1372512 22,15.2497615 22,12 L15.3656545,12 Z" id="Value" opacity="0.400000006"></path>
                                    </g>
                                    <g id="Group-2" transform="translate(33.000000, 0.000000)" fill="#FFFFFF">
                                        <polygon id="Rectangle" points="0 3.52263899 32 0 32 5.47736101 0 9"></polygon>
                                        <polygon id="Rectangle" points="0 14.3721598 32 11 32 16.6278402 0 20"></polygon>
                                        <polygon id="Rectangle" points="0 25.6499321 16.9527715 24 17 29.3454714 0 31"></polygon>
                                    </g>
                                </g>
                            </g>
                            <g id="Humaaan" transform="translate(131.500000, 98.000000) scale(-1, 1) translate(-131.500000, -98.000000) translate(100.000000, 46.000000)">
                                <g id="Head/Front" transform="translate(22.650381, 16.041295) rotate(7.000000) translate(-22.650381, -16.041295) translate(3.150381, 2.541295)">
                                    <g id="Head" transform="translate(28.347409, 9.101778)" fill="#E6C09F">
                                        <path d="M1.88921623,7.9013296 C0.835591332,6.66224098 0.122475963,5.1437208 0.241637959,3.44217533 C0.584976853,-1.46045096 7.39667675,-0.381935641 8.7216934,2.09248911 C10.0467101,4.56691386 9.88926363,10.8434974 8.17679766,11.2857462 C7.49386879,11.4621143 6.03902744,11.0300832 4.55833817,10.1359114 L5.48773741,16.7235413 L0,16.7235413 L1.88921623,7.9013296 Z"></path>
                                    </g>
                                    <path d="M33.9412314,8.3424046 C33.2179635,8.22357148 31.2705328,8.14187042 30.9113918,8.14192316 C30.6818837,8.14192316 30.4331669,8.19445658 30.297236,7.98332077 C30.1859196,7.81042465 30.2266989,7.51800974 30.1934771,7.31737006 C30.1549022,7.08429259 30.1001099,6.85422155 30.0446879,6.62473069 C29.8869766,5.97170236 29.6484939,5.35042615 29.3148071,4.7671259 C28.6886852,3.67278523 27.7714402,2.81558335 26.6134558,2.31677962 C25.3347081,1.76602267 23.8876999,1.63991083 22.5122261,1.75162345 C21.0402885,1.87114225 19.7078507,2.357973 18.3181015,2.8161108 C16.993746,3.25267614 15.6066209,3.42451737 14.2214902,3.21132453 C12.8259154,2.99654937 11.7714274,2.23871792 10.5942867,1.51944263 C9.38922507,0.783078157 8.01207176,0.301469102 6.58747383,0.412179584 C5.25766016,0.515558594 4.0320252,1.06568262 2.93240187,1.80057025 C1.90357807,2.48814616 1.05466592,3.31538922 0.575391371,4.47966896 C0.0597986056,5.73208458 0.0602709524,7.10681445 0.908133445,8.21365554 C2.13707483,9.81803449 4.41856233,10.2329219 6.31666167,10.1916758 C7.41455307,10.1678881 8.49281583,9.96709015 9.52935462,9.60183523 C10.9117038,9.11468801 12.1062688,8.28902728 13.3995018,7.61912074 C14.006415,7.30476415 14.633744,7.04658035 15.2913032,6.86060362 C15.9293912,6.68005956 16.5578749,6.59725086 17.1356075,6.98344531 C17.7467718,7.39200338 18.2944316,7.79333547 18.9936099,8.04909303 C19.6643423,8.29445995 20.3748044,8.43170086 21.0894126,8.4261627 C22.4797916,8.41540284 23.8503845,7.98136923 25.2007715,7.69064213 C26.3019694,7.45360883 27.4802122,7.21736669 28.6028756,7.44522247 C29.0713386,7.54032061 29.7556117,7.73663525 29.9248168,8.22441539 C27.077038,8.74152143 25.9585759,12.2701213 26.761408,14.8604512 C27.1947074,16.2585469 29.79933,17.8929059 30.8120415,17.1579059 C31.4536234,16.6922623 31.0641172,16.0809565 30.8120415,15.6774091 C30.3293031,14.9045983 30.1641392,13.9118961 31.0573994,13.3738505 C31.827902,12.9098053 32.6380324,14.0117895 32.6533574,14.0105764 C32.8651262,13.9938564 34.6949928,12.9570228 35.9557375,11.4440195 C37.1994669,11.5178864 37.3881587,10.6962471 37.0911804,10.0243006 C36.7942022,9.35235409 34.9405598,8.50670339 33.9412314,8.3424046 Z" id="hair" fill="url(#linearGradient-15)"></path>
                                </g>
                                <g id="Bottom/Skinny-Jeans-1" transform="translate(2.000000, 42.000000)">
                                    <path d="M42.3043802,4.85443052 C37.9263901,8.42073626 39.5027802,39.5796165 39.2101364,39.9727615 C39.0800725,40.1474926 32.1533873,41.65022 18.4300808,44.4809438 L19.0154908,46.8912902 C35.0614874,46.0527293 43.5536556,45.0379206 44.4919955,43.8468643 C45.8354294,42.1416128 47.5161605,32.620685 49.534189,15.2840808 L42.3043802,4.85443052 Z" id="Leg" fill="#E6C09F" transform="translate(33.982135, 25.872860) rotate(-55.000000) translate(-33.982135, -25.872860) "></path>
                                    <path d="M20.7317739,41.9382115 L21.7639068,45.8200044 C33.7195863,47.1578005 41.6083137,45.4398186 44.3906116,42.7977046 C46.2454769,41.0362953 47.9303982,31.5412195 49.4453754,14.3124772 L41.7109193,3.26652905 C31.2911312,11.1242236 37.4190089,36.7369198 37.1516691,37.3240841 C36.8843294,37.9112484 30.5759598,38.3922123 20.7317739,41.9382115 Z" id="Pant" fill="#681564" transform="translate(35.088575, 24.775594) rotate(-55.000000) translate(-35.088575, -24.775594) "></path>
                                    <g id="Accessories/Shoe/Flat-Sneaker" transform="translate(45.823216, 49.857863) rotate(20.000000) translate(-45.823216, -49.857863) translate(38.884005, 45.280966)" fill="#000A1A">
                                        <path d="M0.532975846,5.91203425 C0.3291123,6.48140921 0.227180527,6.91527505 0.227180527,7.21363177 C0.227180527,7.61880139 0.295428785,8.21004465 0.4319253,8.98736152 C0.907173004,8.98736152 5.17830415,8.98736152 13.2453187,8.98736152 C13.5782934,7.89865665 13.3860811,7.31089992 12.6686819,7.22409133 C11.9512826,7.13728275 11.3553269,7.05890155 10.8808146,6.98894773 L5.01487379,4.40261905 C4.8508671,4.33030751 4.65929333,4.40464112 4.58698179,4.5686478 C4.58609403,4.57066129 4.58522678,4.57268374 4.58438016,4.57471487 L4.23991859,5.40111107 C3.57579452,5.70757046 3.03612475,5.86080016 2.62090931,5.86080016 C2.31746773,5.86080016 1.910034,5.75178011 1.3986081,5.53374002 L1.3985974,5.53376513 C1.06884914,5.39318105 0.687569442,5.54652891 0.546985358,5.87627716 C0.541963853,5.8880554 0.537291971,5.89997964 0.532975846,5.91203425 Z" id="shoe"></path>
                                    </g>
                                    <polygon id="Leg" fill="#E6C09F" points="24.5769641 7 12.8039759 35.4286888 1.23296083 59.462749 3.96293778 59.462749 33.8308426 7"></polygon>
                                    <g id="Accessories/Shoe/Flat-Sneaker" transform="translate(0.460363, 52.540126)" fill="#000A1A">
                                        <path d="M0.532975846,5.91203425 C0.3291123,6.48140921 0.227180527,6.91527505 0.227180527,7.21363177 C0.227180527,7.61880139 0.295428785,8.21004465 0.4319253,8.98736152 C0.907173004,8.98736152 5.17830415,8.98736152 13.2453187,8.98736152 C13.5782934,7.89865665 13.3860811,7.31089992 12.6686819,7.22409133 C11.9512826,7.13728275 11.3553269,7.05890155 10.8808146,6.98894773 L5.01487379,4.40261905 C4.8508671,4.33030751 4.65929333,4.40464112 4.58698179,4.5686478 C4.58609403,4.57066129 4.58522678,4.57268374 4.58438016,4.57471487 L4.23991859,5.40111107 C3.57579452,5.70757046 3.03612475,5.86080016 2.62090931,5.86080016 C2.31746773,5.86080016 1.910034,5.75178011 1.3986081,5.53374002 L1.3985974,5.53376513 C1.06884914,5.39318105 0.687569442,5.54652891 0.546985358,5.87627716 C0.541963853,5.8880554 0.537291971,5.89997964 0.532975846,5.91203425 Z" id="shoe"></path>
                                    </g>
                                    <path d="M2.27787815,54.4699491 L8.34391716,55.6141734 C13.0341615,48.6783402 32.6630256,20.2390956 34.815144,7 L21.3107738,7 C14.1237553,16.5705257 6.74864966,47.419384 2.27787815,54.4699491 Z" id="Pant" fill="#7834AB"></path>
                                </g>
                                <g id="Body/Long-Sleeve-1" transform="translate(31.243739, 44.514908) rotate(7.000000) translate(-31.243739, -44.514908) translate(2.243739, 25.014908)">
                                    <path d="M44.9043232,17.7569768 L53.1219429,14.1164738 C54.5614783,12.6694268 55.9515549,11.5696041 57.2921726,10.8170059 C57.6930428,10.6882639 58.3779108,10.6493694 57.6472102,11.7259854 C56.9165096,12.8026013 56.1959211,13.96819 56.4878899,14.3455072 C56.7798586,14.7228245 57.6256285,14.306369 57.9597663,14.9199608 C58.1825249,15.3290221 56.7568615,15.8183448 53.6827762,16.3879289 L47.5282642,21.1479498 L44.9043232,17.7569768 Z M11.6815383,18.7596848 L16.3288448,19.689855 C11.6551852,28.4760711 9.14878556,33.1327706 8.80964578,33.6599538 C8.04658129,34.8461159 8.75853591,37.0200046 9.02152897,38.1647894 C7.37165798,38.5522091 8.02231642,36.047193 5.93443656,36.5702176 C4.02871666,37.0476101 2.41289597,38.2727696 0.635890212,36.6204466 C0.417417796,36.4173032 0.257485657,35.7823344 1.00236879,35.4566619 C2.85814433,34.6452931 5.59989638,33.1260213 6.04447171,32.5361788 C6.65072959,31.731823 8.52975178,27.1396584 11.6815383,18.7596848 Z" id="Skin" fill="#E6C09F"></path>
                                    <path d="M27.9499221,2.25080783 L29.8739632,1.74186569 C34.4934136,5.53345493 37.1050651,15.3851298 40.0566716,16.4611754 C42.8472962,17.4785329 46.5419579,15.9345503 50.9165211,13.9035079 L52.5728413,16.9006985 C48.8600213,21.7395367 40.4464632,26.2892679 36.7128476,24.4387822 C30.7435724,21.4802402 28.355869,9.2567584 27.9499221,2.25080783 Z" id="Coat-Back" fill="#DB2721" transform="translate(40.261382, 13.301305) rotate(5.000000) translate(-40.261382, -13.301305) "></path>
                                    <path d="M20.411056,26.0805374 C28.2742465,26.0805374 34.0582447,26.0805374 37.7630505,26.0805374 C38.5559481,26.0805374 38.4065417,24.9255898 38.2919235,24.342797 C36.9690915,17.6166632 31.8052568,10.3662164 31.8052568,0.791734261 L26.8001248,0 C22.6602376,6.71651777 21.2285928,14.9859111 20.411056,26.0805374 Z" id="Shirt" fill="#DDE3E9"></path>
                                    <path d="M18.6803698,19.2705814 C15.143049,25.7071353 12.1697394,30.3411459 9.76044115,33.1726133 L6.1233168,32.4539847 C8.46618687,17.7966889 15.2508259,6.97869398 26.4772339,-9.9475983e-14 L27.3806295,-9.9475983e-14 L28.4589988,0 C32.9522717,15.4508762 34.1909874,25.7458252 32.1751462,30.8848469 L16.5556343,30.8848469 C16.8027505,27.1245483 17.5951005,23.1478953 18.6803698,19.2705814 Z" id="Coat-Front" fill="url(#linearGradient-16)"></path>
                                </g>
                            </g>
                            <g id="Humaaan" transform="translate(11.000000, 59.000000)">
                                <g id="Head/Front" transform="translate(28.569587, 12.495134) rotate(-8.000000) translate(-28.569587, -12.495134) translate(22.069587, 0.995134)">
                                    <g id="Head" transform="translate(3.550802, 6.509963)" fill="#F0D1B7">
                                        <path d="M1.76733131,7.24288547 C0.781682214,6.10705424 0.114574288,4.7150774 0.226048414,3.15532739 C0.547236411,-1.33874671 6.9194718,-0.350107671 8.1590035,1.91811501 C9.39853521,4.1863377 9.25124662,9.93987265 7.64926233,10.3452673 C7.01039338,10.5069381 5.64941277,10.1109096 4.26425184,9.29125215 L5.13368984,15.3299129 L0,15.3299129 L1.76733131,7.24288547 Z"></path>
                                    </g>
                                    <path d="M9.68203103,5.95766117 C8.98054619,5.74766237 7.96223668,5.67644505 7.53386414,5.72462296 C7.77754196,5.15144796 7.87423691,4.51286204 7.79540719,3.89108591 C7.71878811,3.2869152 7.44380111,2.77248136 7.18947948,2.23341686 C7.07225016,1.98494341 6.93939899,1.73782422 6.74132582,1.54777029 C6.53955187,1.3541445 6.28413311,1.2263359 6.01630202,1.1653602 C5.74221565,1.10294559 5.4556187,1.10814258 5.18110657,1.16478464 C5.05966885,1.18983851 4.95070895,1.2443476 4.83161287,1.27464925 C4.70965115,1.30569573 4.65048792,1.23075419 4.56196415,1.15544022 C4.34862939,0.973968941 4.03588141,0.884384425 3.76598706,0.852322241 C3.46317876,0.816366551 3.1489734,0.861209594 2.86018219,0.958936618 C2.57908727,1.05407361 2.30904555,1.2085612 2.10581422,1.43362283 C2.01532543,1.53380445 1.93318794,1.64783342 1.87980513,1.77372912 C1.85791162,1.82539427 1.85429272,1.85600062 1.80177779,1.87492645 C1.75320925,1.89244723 1.69640404,1.89295508 1.64627987,1.90962944 C1.16160974,2.07078677 0.747221537,2.4384354 0.521589075,2.91048079 C0.38994967,3.18587023 0.3275933,3.6707337 0.344672526,4.21418598 C0.361751752,4.75763827 0.861585215,6.17566035 1.32907786,6.69288735 C1.74636446,7.15455571 2.35972647,7.45921416 2.95166985,7.59257524 C2.55876578,8.03347258 2.29722273,8.58442074 2.10381645,9.14474717 C1.89374033,9.75340387 1.76372206,10.3858279 1.71571028,11.0302033 C1.67010563,11.6424319 1.66588086,12.2898713 1.81207772,12.8890312 C1.94884254,13.4493407 2.24131814,13.9089946 2.72957441,14.2006014 C2.95322549,14.3341825 3.19385754,14.4345334 3.43588147,14.5262509 C3.67440114,14.616631 3.91364131,14.7045058 4.16349254,14.7552229 C4.63635622,14.8511725 5.18120482,14.8347013 5.54545248,14.4651905 C5.67673163,14.3319818 5.82111086,14.1645949 5.91688881,14.0018632 C5.95132564,13.9433421 5.97208926,13.9050672 5.93025089,13.8478666 C5.88012671,13.7793578 5.79905361,13.7268631 5.73466673,13.6732682 C5.36748793,13.3676956 5.14020158,12.9597576 5.08290511,12.4749652 C5.02477352,11.9830799 5.15936044,11.3481843 5.64648683,11.1335167 C6.24779677,10.8685212 6.91000569,11.1726887 7.44445611,11.4562207 C7.67159508,10.6691906 8.13797422,9.96055537 8.86917143,9.59954264 C9.6781176,9.20015347 10.6063727,9.15341445 11.4376873,8.81073506 C11.6543134,8.72143832 11.8749515,8.62007172 12.0344449,8.43812645 C12.1010916,8.36208456 12.1792827,8.26344341 12.2058922,8.16287243 C12.240853,8.03076405 12.154065,7.92000224 12.0870254,7.81701052 C11.7315548,7.27092078 10.3835159,6.16765998 9.68203103,5.95766117 Z" id="hair" fill="url(#linearGradient-17)"></path>
                                </g>
                                <g id="Bottom/Skinny-Jeans-1" transform="translate(0.000000, 41.000000)">
                                    <polygon id="Leg" fill="#E6C09F" points="28.8067826 0 44.7399499 26.2624697 56.6852414 48.4651742 59.2581512 48.4651742 39.2436477 1.07614305e-13"></polygon>
                                    <g id="Right-Shoe" transform="translate(54.586301, 45.654545)" fill="#000A1A">
                                        <path d="M0.49710844,1.6747738 C0.310813819,2.16965184 0.217666509,2.54821071 0.217666509,2.81045041 C0.217666509,3.17510307 0.28305662,3.707222 0.413836843,4.40680719 C0.869181806,4.40680719 4.96144366,4.40680719 12.6906224,4.40680719 C13.0096526,3.4269728 12.8254899,2.89799174 12.1381343,2.81986402 C11.4507788,2.74173629 10.8797809,2.67119321 10.4251406,2.60823477 L4.80693191,0.28139808 C4.64425022,0.214021846 4.45751846,0.28865962 4.38609919,0.449607375 L4.06235644,1.17918178 C3.426045,1.45499524 2.90897589,1.59290196 2.51114911,1.59290196 C2.22148365,1.59290196 1.83291202,1.49550372 1.34543423,1.30070723 L1.34543352,1.30070902 C1.01254747,1.1676875 0.63485476,1.32970972 0.501833246,1.66259578 C0.500217503,1.66663917 0.498642488,1.67069872 0.49710844,1.6747738 Z" id="shoe"></path>
                                    </g>
                                    <path d="M53.3677002,44.9098537 L58.3295114,43.4300029 C56.1556067,37.0226688 53.4911778,29.9716326 50.3362248,22.2768941 C47.1812717,14.5821557 43.7929695,7.15652433 40.1713181,0 L26.1573605,0 C30.1838581,9.05267467 34.4524855,17.2781917 38.9632427,24.676551 C43.4739999,32.0749103 48.2754857,38.8193445 53.3677002,44.9098537 Z" id="Pant" fill="#040733"></path>
                                    <path d="M27.7596646,0 C26.2558728,9.22881219 23.3554703,21.0196881 23.0817505,21.383558 C22.8992707,21.626138 16.3299488,23.7964654 3.37378506,27.8945403 L3.92956463,30.13144 C19.3797595,27.933616 27.5206946,26.2284536 28.3523699,25.015953 C29.5998828,23.1972022 35.8288831,8.82903011 38.2414913,0 L27.7596646,0 Z" id="Leg" fill="#E6C09F"></path>
                                    <path d="M7.92809552,25.9609116 L8.9070407,29.5636004 C20.4628863,30.5628551 27.5434081,29.8408308 30.1486062,27.3975274 C32.7538043,24.954224 35.7229611,15.8217149 39.0560766,-1.13686838e-13 L25.6929312,-1.13686838e-13 C23.5811476,12.9558556 22.4005232,19.7057196 22.1510579,20.249592 C21.9015925,20.7934645 17.1606051,22.6972377 7.92809552,25.9609116 Z" id="Pant" fill="#161968"></path>
                                    <g id="Left-Shoe" transform="translate(3.990336, 32.199132) rotate(80.000000) translate(-3.990336, -32.199132) translate(-2.509664, 29.699132)" fill="#000A1A">
                                        <path d="M0.49710844,1.6747738 C0.310813819,2.16965184 0.217666509,2.54821071 0.217666509,2.81045041 C0.217666509,3.17510307 0.28305662,3.707222 0.413836843,4.40680719 C0.869181806,4.40680719 4.96144366,4.40680719 12.6906224,4.40680719 C13.0096526,3.4269728 12.8254899,2.89799174 12.1381343,2.81986402 C11.4507788,2.74173629 10.8797809,2.67119321 10.4251406,2.60823477 L4.80693191,0.28139808 C4.64425022,0.214021846 4.45751846,0.28865962 4.38609919,0.449607375 L4.06235644,1.17918178 C3.426045,1.45499524 2.90897589,1.59290196 2.51114911,1.59290196 C2.22148365,1.59290196 1.83291202,1.49550372 1.34543423,1.30070723 L1.34543352,1.30070902 C1.01254747,1.1676875 0.63485476,1.32970972 0.501833246,1.66259578 C0.500217503,1.66663917 0.498642488,1.67069872 0.49710844,1.6747738 Z" id="shoe"></path>
                                    </g>
                                </g>
                                <g id="Body/Long-Sleeve-1" transform="translate(40.291000, 32.360822) rotate(-8.000000) translate(-40.291000, -32.360822) translate(20.291000, 16.860822)">
                                    <path d="M18.1165411,9.08727061 L25.5811927,5.04156085 C26.8225186,3.58285978 28.0455703,2.44997402 29.2503479,1.64290358 C29.6184892,1.49081398 30.262275,1.39875849 29.6602129,2.45621138 C29.0581508,3.51366427 28.4729308,4.6527405 28.7796577,4.97851885 C29.0863846,5.3042972 29.8512357,4.8491992 30.2171563,5.3904827 C30.4611033,5.75133837 29.1544158,6.32138872 26.2970936,7.10063377 L20.8731145,12.0150604 L18.1165411,9.08727061 Z M29.8075711,12.5007473 L33.0864733,10.7182829 C33.5465497,8.98590192 34.096515,8.11428247 34.7363692,8.10342456 C35.2279102,7.87710137 34.3718949,10.0661265 35.3037013,9.87629465 C36.2355077,9.68646277 38.5097808,8.01264949 38.9016494,8.35249683 C39.4813937,8.85527907 38.964458,10.3991119 38.355385,11.1670861 C37.2170283,12.6024288 36.2745181,13.0932728 33.9449576,13.7360358 C32.7269432,14.0721055 31.4100541,14.7457283 29.9942905,15.7569042 L29.8075711,12.5007473 Z" id="Skin" fill="#F0D1B7"></path>
                                    <path d="M14.7213977,7.38683276 C17.3080849,7.76885008 20.837225,7.77454002 24.8771854,6.0484706 L25.8158332,9.46146933 C22.8870922,11.5490978 18.9994236,13.0297171 15.8970485,12.4495793 C13.4522058,11.9923988 12.662707,8.85428286 14.7213977,7.38683276 Z" id="Sleeve" fill="#2026A2" transform="translate(19.678663, 9.312464) rotate(-9.000000) translate(-19.678663, -9.312464) "></path>
                                    <path d="M18.0017486,13.3565623 C20.7774703,14.0415878 25.4321837,13.2337535 31.965889,10.9330593 C33.5865179,14.2508736 34.335694,16.6162207 34.2134174,18.0291006 C28.6084616,20.9263693 23.8045305,22.2181136 19.8467329,22.3033887 C19.9725047,24.6272992 19.6866609,26.8385535 18.7264256,28.8590491 C16.7523446,33.0128453 5.19300346,29.1659668 1.30639875,29.9231265 C-1.12750739,22.1011688 3.57852379,18.9223568 3.58231033,13.9174123 C3.58645699,8.4364648 8.03379381,-2.4158453e-13 8.68813034,-2.4158453e-13 L14.655319,-2.4158453e-13 C14.9845637,4.18587182 16.641744,8.79906525 18.0017486,13.3565623 Z" id="Clothes" fill="#5B34E9"></path>
                                </g>
                            </g>
                        </g>
                    </g>
                </g>
            </g>
        </g>
    </g>
</svg>