<?xml version="1.0" encoding="UTF-8"?>
<svg width="18px" height="18px" viewBox="0 0 18 18" version="1.1" xmlns="http://www.w3.org/2000/svg" xmlns:xlink="http://www.w3.org/1999/xlink">
    <!-- Generator: Sketch 53.1 (72631) - https://sketchapp.com -->
    <title>赞</title>
    <desc>Created with Sketch.</desc>
    <g id="Page-1" stroke="none" stroke-width="1" fill="none" fill-rule="evenodd">
        <g id="帮助中心二级页面2" transform="translate(-430.000000, -2224.000000)">
            <g id="尾部" transform="translate(429.000000, 2223.000000)">
                <g id="赞" transform="translate(0.000000, 1.000000)">
                    <rect id="Rectangle" fill="#000000" opacity="0" x="0" y="0" width="20" height="20"></rect>
                    <path d="M12.9104961,4.77436342 L12.9013461,4.79353055 C12.5948966,5.4354659 12.6255277,5.5 13.125,5.5 L16.056,5.5 C17.1605174,5.5 18.056,6.39548263 18.0559999,7.50024188 C18.0559608,7.5811899 18.0510072,7.66206089 18.0411981,7.74215075 L17.1570712,14.9921667 C17.0346719,15.9955974 16.1827729,16.7499403 15.171875,16.75 L8.25,16.75 C7.14548263,16.75 6.25,15.8545174 6.25,14.75 L6.25,7.5 C6.25,6.68256989 6.74217174,5.9741776 7.4525684,5.6652122 L7.44418669,5.64425794 L7.59769817,5.60875439 C7.7267183,5.56430973 7.86184388,5.53265455 8.00161304,5.51533848 L8.01233577,5.51285857 C8.29232883,5.44810284 8.5800027,5.21868171 8.84899167,4.82736742 L10.5436619,1.89223186 C10.5533524,1.87550985 10.5557136,1.8714354 10.55037,1.8831653 C10.5845403,1.80740691 10.6016966,1.75937422 10.6103163,1.71981381 C10.6223693,1.66449591 10.625,1.60701684 10.625,1.375 C10.6250049,1.1200137 10.736229,0.877722692 10.9295762,0.711500134 C11.1229234,0.545277577 11.3791582,0.471660507 11.6182674,0.508111062 C12.0609041,0.563440659 12.8346884,1.05905475 13.2411756,1.48472767 C13.8352608,2.03434545 13.9762233,2.92830737 13.5665231,3.63798195 L12.9104961,4.77436342 Z M3.75,5.5 L4.5,5.5 C5.46651737,5.5 6.25,6.28348263 6.25,7.25 L6.25,15 C6.25,15.9665174 5.46651737,16.75 4.5,16.75 L3.75,16.75 C2.78348263,16.75 2,15.9665174 2,15 L2,7.25 C2,6.28348263 2.78348263,5.5 3.75,5.5 Z" id="Shape" stroke="#979797" fill-rule="nonzero"></path>
                </g>
            </g>
        </g>
    </g>
</svg>