<?xml version="1.0" encoding="UTF-8"?>
<svg width="360px" height="40px" viewBox="0 0 360 40" version="1.1" xmlns="http://www.w3.org/2000/svg" xmlns:xlink="http://www.w3.org/1999/xlink">
    <title>兑换属于你的会员特权</title>
    <defs>
        <linearGradient x1="50%" y1="0%" x2="50%" y2="100%" id="linearGradient-1">
            <stop stop-color="#E5E8FA" offset="0%"></stop>
            <stop stop-color="#E3E9FB" offset="33.3287806%"></stop>
            <stop stop-color="#E2EFFF" offset="100%"></stop>
        </linearGradient>
        <path d="M566.360433,249 L572.614894,236.280335 L575.513303,236.280335 L574.025961,249 L588.441732,249 L589.242608,242.260809 L587.678992,243.956764 L581.577079,243.956764 L582.454229,236.280335 L588.441732,236.280335 L590.157895,221.953975 L584.971268,221.953975 L587.030664,217 L579.365136,217 L580.356697,218.249651 L578.754944,221.953975 L573.873414,221.953975 L572.805579,217 L565.368872,217 L566.39857,218.383543 L567.161309,221.953975 L562.050957,221.953975 L560.334794,236.280335 L565.254461,236.280335 L559,249 L566.360433,249 Z M582.651616,232.157895 L568.263158,232.157895 L569.032594,226.263158 L583.421053,226.263158 L582.651616,232.157895 Z M599.685714,249 C600.429975,249 601.077995,248.717341 601.629774,248.152022 C602.181554,247.586704 602.508772,246.887494 602.611429,246.054393 L602.611429,246.054393 L603.881805,235.476987 L605.46015,234.941423 L606.037594,230.299861 L604.459248,230.835425 L604.959699,226.550907 L606.499549,226.550907 L607,222.311018 L605.498647,222.311018 L606.153083,217 L598.838797,217 L599.762707,218.249651 L599.262256,222.311018 L596.836992,222.311018 L596.336541,226.550907 L598.761805,226.550907 L597.953383,233.022315 L595.489624,233.870293 L594.91218,238.556485 L597.414436,237.708508 L596.529023,244.983264 L593.526316,249 L599.685714,249 Z M625.379921,249 L619.187023,239.666667 L626.704189,239.666667 L627.210526,235.666667 L625.925208,235.666667 L627.132628,226.022222 L623.78301,226.022222 L625.769412,223 L626.2368,219 L618.135398,219 L619.69336,217 L611.630907,217 L612.370939,218.022222 L607.229665,224.644444 L613.812054,224.644444 L615.175271,222.866667 L619.070175,222.866667 L617.044825,226.022222 L607.03492,226.022222 L605.827499,235.666667 L604.542181,235.666667 L604.035843,239.666667 L610.540334,239.666667 L602.789474,248.822222 L609.722404,248.822222 L615.058424,242.244444 L619.109124,249 L625.379921,249 Z M620.699615,235.526316 L618.789474,235.526316 L619.405648,229.631579 L621.315789,229.631579 L620.699615,235.526316 Z M613.11306,235.526316 L611.210526,235.526316 L611.834308,229.631579 L613.736842,229.631579 L613.11306,235.526316 Z M634.641917,249 L638.765038,224.598168 L661.769737,224.598168 L662.578947,217.842105 L631.828947,217.842105 L633.023496,219.442225 L628.052632,249 L634.641917,249 Z M656.487457,222.052632 L639.842105,222.052632 L640.11756,220.368421 L656.684211,220.368421 L656.487457,222.052632 Z M655.076555,242.371817 L652.431927,242.371817 L652.466725,243.512733 L651.631579,243.560272 L651.875163,241.421053 L655.842105,241.421053 L655.250544,247.315789 L655.076555,242.371817 Z M646.391813,234.684211 L644.052632,234.684211 L644.208577,233 L646.578947,233 L646.391813,234.684211 Z M654.844055,234.684211 L652.473684,234.684211 L652.62963,233 L655,233 L654.844055,234.684211 Z M653.616541,249 L657.657077,249 C658.415495,249 659.08238,248.725654 659.657731,248.176961 C660.233083,247.628269 660.573063,246.923866 660.677672,246.063754 L660.677672,246.063754 L661.619157,238.500695 L651.929716,238.500695 L652.08663,237.255015 L660.285387,237.255015 L661.109186,230.492751 L652.910428,230.492751 L653.106571,229.158093 L661.344557,228.802185 L661.736842,225.421053 L640.043478,226.266336 L639.611965,229.647468 L647.849951,229.336048 L647.693037,230.492751 L639.494279,230.492751 L638.670481,237.255015 L646.83001,237.255015 L646.673096,238.500695 L637.768225,238.500695 L636.473684,249 L641.691076,249 L642.671788,241.036544 L646.359268,241.036544 L646.084668,243.438928 L643.103302,243.616882 L642.789474,246.108242 L652.400458,245.440914 L652.439686,246.553128 L655.421053,246.553128 L653.616541,249 Z M679.525077,249 C680.272074,249 680.928916,248.725905 681.495604,248.177716 C682.062291,247.629527 682.397152,246.92577 682.500186,246.066446 L682.500186,246.066446 L684.084334,233.043246 L696.564334,233.043246 L697.105263,228.820707 L684.586625,228.820707 L685.436656,222.064644 L695.714303,222.064644 L696.216594,217.842105 L668.320124,217.842105 L667.817833,222.064644 L678.09548,222.064644 L677.245449,228.820707 L664.804087,228.820707 L664.263158,233.043246 L676.743158,233.043246 L675.31356,244.866356 L671.874799,249 L679.525077,249 Z M706.633253,249 L709.960015,222.066667 L710.578947,217 L701.101544,219.133333 L700.482611,224.2 L702.764925,223.711111 L699.631579,249 L706.633253,249 Z M716.397129,227.947368 L717.239234,224.578947 L726.54067,224.578947 L725.966507,227.105263 L731.784689,227.105263 L733.315789,220.368421 L718.311005,220.368421 L719.191388,217 L712.301435,217 L713.066986,218.108033 L710.578947,227.947368 L716.397129,227.947368 Z M719.481203,249 C720.223484,249 720.882579,248.735778 721.458487,248.207333 C722.034394,247.678889 722.386338,247.000481 722.514318,246.172108 L722.514318,246.172108 L724.894737,227.105263 L717.945449,227.105263 L715.718605,245.015244 L712.263158,249 L719.481203,249 Z M730.306502,246.473684 L730.789474,229.631579 L726.182663,229.631579 L725.736842,246.473684 L730.306502,246.473684 Z M712.938431,246.473684 L716.473684,229.631579 L711.587885,229.631579 L708.052632,246.473684 L712.938431,246.473684 Z M749.496036,248.157895 L751.823032,228.789474 L757.621446,228.789474 L759.261787,225.421053 L762.046552,225.421053 L760.444358,238.717452 L759.147345,230.916898 L752.624128,230.916898 L754.302617,241.022161 L760.139179,241.022161 L759.795851,243.947368 L756.400727,248.157895 L762.847649,248.157895 C763.585166,248.157895 764.233673,247.869806 764.793169,247.293629 C765.352665,246.717452 765.683277,246.000923 765.785003,245.144044 L765.785003,245.144044 L768.684211,221.210526 L761.32175,221.210526 L763.381713,217 L754.684091,217 L755.59963,218.196676 L752.318949,224.844875 L752.853013,220.368421 L748.046433,220.368421 L749.610479,217 L740.912857,217 L741.828396,218.196676 L740.798414,220.368421 L738.356977,220.368421 L735,248.157895 L749.496036,248.157895 Z M745.207959,232.157895 L743.421053,232.157895 L744.160462,224.578947 L745.947368,224.578947 L745.207959,232.157895 Z M743.523748,243.947368 L741.736842,243.947368 L742.476252,236.368421 L744.263158,236.368421 L743.523748,243.947368 Z M796.473684,232.157895 L796.665072,230.519341 L803.210526,230.519341 L796.090909,217.842105 L779.746411,217.842105 L780.588517,219.006341 L771.210526,230.519341 L777.755981,230.519341 L777.564593,232.157895 L796.473684,232.157895 Z M794.789474,227.947368 L780.473684,227.947368 L785.530892,222.052632 L791.28833,222.052632 L794.789474,227.947368 Z M800.178532,249 L796.451879,240.618576 L789.882212,240.618576 L791.2653,243.783901 L781.814199,244.363467 L787.961256,238.077399 L801.868973,238.077399 L802.368421,233.842105 L771.709975,233.842105 L771.210526,238.077399 L779.970082,238.077399 L773.323577,244.85387 L772.78571,249 L793.109417,247.885449 L793.608865,249 L800.178532,249 Z M838.100756,228.789474 L839.421053,217.842105 L809.947368,217.842105 L811.190001,219.481994 L810.063865,228.789474 L838.100756,228.789474 Z M830.69203,224.578947 L817.526316,224.578947 L817.834286,222.052632 L831,222.052632 L830.69203,224.578947 Z M812.398854,243.105263 L815.775706,240.496568 L816.458665,234.82151 L830.876688,234.82151 L830.193729,240.496568 L832.963507,243.105263 L837.099203,243.105263 L838.578947,230.473684 L809.742902,230.473684 L808.263158,243.105263 L812.398854,243.105263 Z M816.79818,249 L822.192719,244.98289 L826.675505,249 L836.894737,249 L826.789474,239.805282 L827.207361,236.368421 L819.305501,236.368421 L818.887614,239.805282 L806.578947,249 L816.79818,249 Z M867.468348,249 C868.238464,249 868.931568,248.724779 869.547661,248.174338 C870.163754,247.623896 870.523142,246.917248 870.625824,246.054393 L870.625824,246.054393 L871.665481,237.485356 L873.821806,237.485356 L874.283876,233.60251 L872.12755,233.60251 L872.435597,231.192469 L875.131003,231.192469 L875.631579,227.175732 L870.009731,227.175732 L870.394789,224.051604 L875.092498,224.051604 L875.593073,220.034868 L870.895365,220.034868 L871.280423,217 L862.501099,217 L863.887308,218.338912 L863.656273,220.034868 L858.496495,220.034868 L857.995919,224.051604 L863.194203,224.051604 L862.809145,227.175732 L856.879251,227.175732 L856.378675,231.192469 L865.88961,231.192469 L865.581563,233.60251 L856.725228,233.60251 L856.263158,237.485356 L865.119494,237.485356 L864.23386,244.849372 L860.614314,249 L867.468348,249 Z M851.308229,249 L852.415528,240.022222 L854.155568,239.8 L854.669671,235.577778 L852.969177,235.8 L853.957837,227.977778 L854.90695,227.977778 L855.421053,223.755556 L854.47194,223.755556 L855.34196,217 L850.31957,217 L849.449549,223.755556 L848.223612,223.755556 L849.093632,219.533333 L843.87351,219.533333 L844.664437,220.688889 L842.291655,232.2 L846.483571,232.2 L847.353591,227.977778 L848.381797,227.977778 L847.274498,236.555556 L841.658912,237.266667 L841.105263,241.488889 L846.760395,240.777778 L845.73219,249 L851.308229,249 Z M863,244.789474 L861.421654,238.894737 L856.263158,238.894737 L857.841504,244.789474 L863,244.789474 Z M886.470808,249 L889.287029,226.466667 L892.807305,226.466667 L893.315789,222.244444 L889.795513,222.244444 L890.460454,217 L883.02876,217 L884.006615,218.288889 L883.498131,222.244444 L879.508484,222.244444 L879,226.466667 L882.989646,226.466667 L880.173425,249 L886.470808,249 Z M896.478294,249 L899.820592,243.296595 L901.971955,248.956128 L908.541299,248.956128 L903.815982,236.496382 L910.116404,225.747658 L911,218.684211 L894.480599,218.684211 L893.942758,223.027573 L904.622743,223.027573 L904.430657,224.563105 L901.280446,229.871658 L899.590088,225.352807 L893.750672,225.352807 L893.558586,226.712849 L897.285056,236.627999 L889.947368,249 L896.478294,249 Z M879.245382,247.315789 L882.368421,227.947368 L879.596724,227.947368 L876.473684,247.315789 L879.245382,247.315789 Z M891.110276,243.947368 L892.473684,227.105263 L889.626566,227.105263 L888.263158,243.947368 L891.110276,243.947368 Z" id="path-2"></path>
        <filter x="-2.0%" y="-15.6%" width="104.0%" height="143.8%" filterUnits="objectBoundingBox" id="filter-3">
            <feOffset dx="0" dy="2" in="SourceAlpha" result="shadowOffsetOuter1"></feOffset>
            <feGaussianBlur stdDeviation="2" in="shadowOffsetOuter1" result="shadowBlurOuter1"></feGaussianBlur>
            <feColorMatrix values="0 0 0 0 0   0 0 0 0 0   0 0 0 0 0  0 0 0 0.5 0" type="matrix" in="shadowBlurOuter1"></feColorMatrix>
        </filter>
    </defs>
    <g id="页面-1" stroke="none" stroke-width="1" fill="none" fill-rule="evenodd">
        <g id="个人中心-特权兑换" transform="translate(-555.000000, -215.000000)" fill-rule="nonzero">
            <g id="兑换属于你的会员特权">
                <use fill="black" fill-opacity="1" filter="url(#filter-3)" xlink:href="#path-2"></use>
                <use fill="url(#linearGradient-1)" xlink:href="#path-2"></use>
            </g>
        </g>
    </g>
</svg>