<?xml version="1.0" encoding="UTF-8"?>
<svg width="930px" height="222px" viewBox="0 0 930 222" version="1.1" xmlns="http://www.w3.org/2000/svg" xmlns:xlink="http://www.w3.org/1999/xlink">
    <title>笔记本</title>
    <defs>
        <linearGradient x1="99.0590545%" y1="52.1685404%" x2="-6.74758326%" y2="51.6317519%" id="linearGradient-1">
            <stop stop-color="#0083D3" offset="0%"></stop>
            <stop stop-color="#0968CF" offset="46.2636191%"></stop>
            <stop stop-color="#3862E3" offset="72.7079539%"></stop>
            <stop stop-color="#7977FF" offset="100%"></stop>
        </linearGradient>
        <rect id="path-2" x="0" y="0" width="930" height="222"></rect>
        <linearGradient x1="0.431614881%" y1="50.4546382%" x2="99.5639748%" y2="49.2925703%" id="linearGradient-4">
            <stop stop-color="#0041DB" offset="0%"></stop>
            <stop stop-color="#0082DB" offset="25.5654502%"></stop>
            <stop stop-color="#9CC0DB" offset="100%"></stop>
        </linearGradient>
        <linearGradient x1="0.350158435%" y1="50.3647423%" x2="99.6496093%" y2="49.4280587%" id="linearGradient-5">
            <stop stop-color="#00ABDB" offset="0%"></stop>
            <stop stop-color="#009BDB" offset="29.067417%"></stop>
            <stop stop-color="#005FDB" offset="61.6%"></stop>
            <stop stop-color="#1F3DDA" offset="100%"></stop>
        </linearGradient>
        <linearGradient x1="0.233680931%" y1="50.6334572%" x2="61.480488%" y2="50.041922%" id="linearGradient-6">
            <stop stop-color="#00D6DB" offset="0%"></stop>
            <stop stop-color="#0038DB" offset="26.79%"></stop>
            <stop stop-color="#0000DB" offset="100%"></stop>
        </linearGradient>
        <filter x="-54.3%" y="-40.5%" width="208.6%" height="181.0%" filterUnits="objectBoundingBox" id="filter-7">
            <feGaussianBlur stdDeviation="37" in="SourceGraphic"></feGaussianBlur>
        </filter>
        <filter x="-74.4%" y="-36.6%" width="248.8%" height="173.2%" filterUnits="objectBoundingBox" id="filter-8">
            <feGaussianBlur stdDeviation="45" in="SourceGraphic"></feGaussianBlur>
        </filter>
    </defs>
    <g id="页面-1" stroke="none" stroke-width="1" fill="none" fill-rule="evenodd">
        <g id="个人中心-特权兑换" transform="translate(-270.000000, -159.000000)">
            <g id="笔记本" transform="translate(270.000000, 159.000000)">
                <mask id="mask-3" fill="white">
                    <use xlink:href="#path-2"></use>
                </mask>
                <use id="蒙版" fill="url(#linearGradient-1)" xlink:href="#path-2"></use>
                <g id="电商几何黄色banner背景" opacity="0.5" mask="url(#mask-3)" fill-rule="nonzero">
                    <g transform="translate(-4.603960, -28.000000)" id="路径">
                        <path d="M0,1.68304133 C0,1.27027265 94.7485208,-13.1766312 165.765883,50.6477263 C236.871302,116.226351 217.4549,224.062169 320.965017,173.240025 C381.151461,145.068563 419.543984,104.462443 459.081239,74.2271373 C498.618493,44.6625804 539.300479,25.4688367 604.330017,55.0333936 C664.868686,83.3596445 680.542698,134.95573 696.392822,177.367712 C712.242946,219.986078 728.313211,253.420342 789.688415,249.860212 C885.581667,243.152721 934.408855,144.604198 934.408855,145.326543 C935.993868,226.383993 937.57888,307.441443 939.207921,388.447297 C862.99524,390.614333 786.782559,392.832964 710.613906,395 C710.613906,394.380847 675.787661,388.756874 637.79139,366.26098 C599.79512,343.919875 558.628825,304.706851 546.08081,241.604838 C514.028337,82.1729345 441.073737,279.166788 312.027308,311.259553 C247.48208,327.357532 203.14576,298.51532 166.294221,266.370959 C129.398654,233.917022 99.9438393,198.21253 65.0295377,194.188036 C43.8520106,191.711424 22.9386521,197.232205 4.05058732,206.5195" fill-opacity="0.48" fill="url(#linearGradient-4)"></path>
                        <path d="M1.70609977,79.5656202 C1.70609977,79.5656202 96.4423845,64.5400179 167.450576,127.585586 C238.458767,190.631155 218.64867,277.273631 322.189442,230.028181 C442.590808,175.089209 475.915792,74.6087204 605.517847,113.231231 C726.183348,149.168754 667.105237,264.519941 789.971859,261.008804 C885.940772,258.220548 935.333946,191.147499 935.333946,191.147499 L939.207921,388.442435 L710.643427,395 C710.643427,395 571.180346,365.36187 546.571804,264.468307 C515.139784,135.743817 441.754381,309.700017 312.592551,338.047287 C183.474743,366.394558 136.062578,260.13102 66.0669028,245.157052 C44.9801555,240.613227 23.981453,241.852452 4.96376011,245.776664" fill="url(#linearGradient-5)" opacity="0.28"></path>
                        <path d="M637.001373,373.63258 C652.238595,382.960928 666.947359,390.433914 679.145944,396 L938.354871,388.578552 C936.725457,306.118017 935.096043,223.709021 933.466629,141.248486 C933.466629,140.475418 921.444197,174.078086 897.399332,207.423065 C873.354467,240.974195 837.331208,274.216098 789.373593,277.875284 C727.940285,281.276781 711.910375,248.034878 696.01258,203.042349 C680.114785,158.874425 664.349104,102.955875 603.884636,79.6092364 C538.972309,56.3141353 498.457152,84.6084063 458.910836,113.211904 C419.36452,143.258462 380.787045,173.717321 320.278539,187.838688 C268.269408,199.950079 247.307219,189.487899 230.572697,172.531951 C213.838176,155.782155 201.331323,132.538592 166.232867,123.467933 C131.178449,115.273418 90.090795,121.509496 57.7227078,127.230195 C25.3546206,133.414735 1.70609977,139.083897 1.70609977,139.599275 L3.15936082,212.576848 C22.0957928,205.000787 43.0139444,198.919322 63.9761342,197.424725 C98.7663232,194.641682 127.831544,210.15457 164.515377,231.130469 C201.199209,251.384837 245.457614,277.050679 310.325903,277.411444 C342.738028,276.999141 371.759211,270.299223 397.43349,259.579353 C423.107768,249.065635 445.523219,234.480428 464.811957,222.935953 C503.389432,199.69239 529.636208,189.487899 545.489965,260.713185 C557.864703,314.62176 598.952356,350.07979 637.001373,373.63258 Z" fill-opacity="0.28" fill="url(#linearGradient-6)"></path>
                    </g>
                </g>
                <ellipse id="椭圆形" fill="#9FB2FF" opacity="0.5" filter="url(#filter-7)" mask="url(#mask-3)" cx="832.39604" cy="286" rx="102.207921" ry="137"></ellipse>
                <rect id="矩形" fill="#A4B6FF" opacity="0.100000001" filter="url(#filter-8)" mask="url(#mask-3)" x="-90.2376238" y="-83" width="181.39604" height="369" rx="4"></rect>
            </g>
        </g>
    </g>
</svg>