<?xml version="1.0" encoding="UTF-8"?>
<svg width="930px" height="175px" viewBox="0 0 930 175" version="1.1" xmlns="http://www.w3.org/2000/svg" xmlns:xlink="http://www.w3.org/1999/xlink">
    <title>热门特权内容</title>
    <defs>
        <linearGradient x1="50%" y1="100%" x2="50%" y2="3.061617e-15%" id="linearGradient-1">
            <stop stop-color="#7981FF" offset="0%"></stop>
            <stop stop-color="#2CAFFF" offset="100%"></stop>
        </linearGradient>
    </defs>
    <g id="页面-1" stroke="none" stroke-width="1" fill="none" fill-rule="evenodd">
        <g id="个人中心-特权兑换" transform="translate(-270.000000, -485.000000)">
            <g id="编组-5" transform="translate(270.000000, 435.000000)">
                <g id="热门特权内容" transform="translate(0.000000, 50.000000)">
                    <g id="编组-7" transform="translate(243.000000, 0.000000)">
                        <rect id="矩形" stroke="#E6E6E6" fill="#FFFFFF" x="0.5" y="0.5" width="199" height="174"></rect>
                        <g id="编组-6" transform="translate(20.000000, 35.000000)">
                            <g id="GIF、MP4等格式导出" transform="translate(44.000000, 0.000000)">
                                <circle id="椭圆形" fill="url(#linearGradient-1)" cx="35.6571429" cy="35.6571429" r="35.6571429"></circle>
                                <path d="M50.3012568,20.1142857 L20.847054,20.1142857 C18.8602791,20.1142857 17.3714286,21.8409558 17.3714286,24.0868987 L17.3714286,47.4004779 C17.3714286,49.4733299 18.8602791,51.2 20.847054,51.2 L50.4672317,51.2 C52.2880318,51.2 53.9428571,49.4733299 53.9428571,47.227387 L53.9428571,24.0868987 C53.7768823,21.8409558 52.2880318,20.1142857 50.3012568,20.1142857 Z M24.3219762,47.227387 C24.3219762,47.9190442 23.8254583,48.6092883 23.1636688,48.6092883 L20.847054,48.6092883 C20.1845613,48.6092883 19.6880434,48.0914286 19.6880434,47.227387 L19.6880434,44.6373818 C19.6880434,43.9464312 20.1845613,43.256187 20.847054,43.256187 L23.1629655,43.256187 C23.824755,43.256187 24.3219762,43.7740468 24.3219762,44.6373818 L24.3219762,47.227387 Z M24.3219762,36.8666597 C24.3219762,37.5569039 23.8254583,38.2478545 23.1636688,38.2478545 L20.847054,38.2478545 C20.1845613,38.2478545 19.6880434,37.7307013 19.6880434,36.8666597 L19.6880434,34.4483325 C19.6880434,33.7573818 20.1845613,33.0671377 20.847054,33.0671377 L23.1629655,33.0671377 C23.824755,33.0671377 24.3219762,33.5849974 24.3219762,34.4483325 L24.3219762,36.8666597 Z M24.3219762,26.5045195 C24.3219762,27.1954701 23.8254583,27.8857143 23.1636688,27.8857143 L20.847054,27.8857143 C20.1845613,27.8857143 19.6873401,27.3678545 19.6873401,26.5045195 L19.6873401,24.0868987 C19.6873401,23.395948 20.183858,22.7049974 20.8463507,22.7049974 L23.1622623,22.7049974 C23.8240517,22.7049974 24.3212729,23.2228571 24.3212729,24.0868987 L24.3212729,26.5045195 L24.3219762,26.5045195 Z M40.7049579,36.8666597 L31.6037703,42.0473766 C30.7767093,42.392852 29.948945,41.8742857 29.948945,40.8385662 L29.948945,30.476426 C29.948945,29.44 30.776006,28.9221403 31.6037703,29.2676156 L40.7049579,34.4483325 C41.5320189,34.9668987 41.5320189,36.347387 40.7049579,36.8666597 Z M51.4602675,47.227387 C51.4602675,47.9190442 50.9637496,48.6092883 50.3012568,48.6092883 L47.9853453,48.6092883 C47.3235559,48.6092883 46.8270379,48.0914286 46.8270379,47.227387 L46.8270379,44.6373818 C46.8270379,43.9464312 47.3235558,43.256187 47.9853453,43.256187 L50.3019601,43.256187 C50.9644529,43.256187 51.4609708,43.7740468 51.4609708,44.6373818 L51.4609708,47.227387 L51.4602675,47.227387 Z M51.4602675,36.8666597 C51.4602675,37.5569039 50.9637496,38.2478545 50.3012568,38.2478545 L47.9853453,38.2478545 C47.3235559,38.2478545 46.8270379,37.7307013 46.8270379,36.8666597 L46.8270379,34.4483325 C46.8270379,33.7573818 47.3235558,33.0671377 47.9853453,33.0671377 L50.3019601,33.0671377 C50.9644529,33.0671377 51.4609708,33.5849974 51.4609708,34.4483325 L51.4609708,36.8666597 L51.4602675,36.8666597 Z M51.4602675,26.5045195 C51.4602675,27.1954701 50.9637496,27.8857143 50.3012568,27.8857143 L47.9853453,27.8857143 C47.3235559,27.8857143 46.8270379,27.3678545 46.8270379,26.5045195 L46.8270379,24.0868987 C46.8270379,23.395948 47.3235558,22.7049974 47.9853453,22.7049974 L50.3019601,22.7049974 C50.9644529,22.7049974 51.4609708,23.2228571 51.4609708,24.0868987 L51.4609708,26.5045195 L51.4602675,26.5045195 Z" id="形状" fill="#FFFFFF" fill-rule="nonzero"></path>
                            </g>
                        </g>
                    </g>
                    <g id="编组-8" transform="translate(487.000000, 0.000000)">
                        <rect id="矩形" stroke="#E6E6E6" fill="#FFFFFF" x="0.5" y="0.5" width="199" height="174"></rect>
                        <g id="3" transform="translate(20.000000, 34.000000)">
                            <g id="更大项目存储空间" transform="translate(45.000000, 0.000000)">
                                <circle id="椭圆形" fill="url(#linearGradient-1)" cx="35.6571429" cy="35.6571429" r="35.6571429"></circle>
                                <path d="M34.4179661,36.4192681 L17.5698946,27.4285714 C17.2478287,28.2026049 17.0666667,29.0560265 17.0666667,29.929295 L17.0666667,42.0161257 C17.0666667,44.4176142 18.3951884,46.6404796 20.549004,47.7916064 L32.1635049,54.1029564 C32.8680241,54.4800496 33.6530596,54.7380608 34.4380952,54.8571429 L34.4380952,36.4192681 L34.4179661,36.4192681 Z M34.8952381,34.7428571 L51.8095238,25.4175483 C51.2841099,24.7485588 50.6374467,24.1809313 49.8695341,23.7552106 L38.2093873,17.3085841 C36.1885646,16.1733291 33.7231609,16.1733291 31.6821301,17.3085841 L20.0219833,23.7552106 C19.2136542,24.2012037 18.5265745,24.7891036 17.9809524,25.4783655 L34.8952381,34.7428571 Z M53.1348673,27.4285714 L36.2666667,36.4657308 L36.2666667,54.8571429 C37.0718314,54.7382329 37.8367378,54.5004129 38.541257,54.1040462 L50.1557579,47.8018167 C52.2894444,46.6523534 53.6380952,44.4327002 53.6380952,42.0346821 L53.6380952,29.9851363 C53.6380952,29.0933113 53.4569332,28.2213047 53.1348673,27.4285714 Z" id="形状" fill="#FFFFFF" fill-rule="nonzero"></path>
                            </g>
                        </g>
                    </g>
                    <g id="编组-9" transform="translate(730.000000, 0.000000)">
                        <rect id="矩形" stroke="#E6E6E6" fill="#FFFFFF" x="0.5" y="0.5" width="199" height="174"></rect>
                        <g id="编组-11" transform="translate(20.000000, 35.000000)">
                            <g id="更大素材存储空间" transform="translate(44.000000, 0.000000)">
                                <circle id="椭圆形" fill="url(#linearGradient-1)" cx="35.6571429" cy="35.6571429" r="35.6571429"></circle>
                                <path d="M38.6232782,20.1142857 C39.5799202,20.1142857 40.3553583,20.8899746 40.3553583,21.8466165 C40.3553583,22.8032585 39.5799202,23.5788089 38.6232782,23.5789474 L38.6232782,23.5789474 L23.4827068,23.5789474 C22.5259669,23.5789474 21.750376,24.3545383 21.750376,25.3112782 L21.750376,25.3112782 L21.750376,45.3196993 L27.7442406,40.0707368 C28.9821449,39.0801255 30.7789941,39.2324008 31.8325414,40.417203 L31.8325414,40.417203 L33.5648722,41.768421 L36.7696842,37.9226466 C37.9669644,36.4277115 40.1182873,36.1171332 41.6895038,37.212391 L41.6895038,37.212391 L41.9493534,37.437594 L46.592,42.3227669 L47.7353384,43.5007519 L47.7353384,33.1067669 C47.7353384,32.150027 48.5109293,31.3744361 49.4676692,31.3744361 C50.4244091,31.3744361 51.2,32.150027 51.2,33.1067669 L51.2,33.1067669 L51.2,47.831579 C51.2,50.7017986 48.8732272,53.0285714 46.0030075,53.0285714 L46.0030075,53.0285714 L23.4827068,53.0285714 C20.6124871,53.0285714 18.2857143,50.7017986 18.2857143,47.831579 L18.2857143,47.831579 L18.2857143,25.3112782 C18.2857143,22.4410585 20.6124871,20.1142857 23.4827068,20.1142857 L23.4827068,20.1142857 Z M26.5142735,28.8328228 C27.6458037,28.1795353 29.0399106,28.1795353 30.1714408,28.8328228 C31.3029709,29.4861103 32,30.6934337 32,32 C32,33.3065663 31.3029709,34.5138897 30.1714408,35.1671772 C29.0399106,35.8204647 27.6458037,35.8204647 26.5142735,35.1671772 C25.3827434,34.5138897 24.6857143,33.3065663 24.6857143,32 C24.6857143,30.6934337 25.3827434,29.4861103 26.5142735,28.8328228 Z M49.3714286,16.4571429 C50.3812664,16.4571429 51.1999424,17.2757012 51.2000876,18.285539 L51.2000876,18.285539 L51.2000876,20.1141981 L53.0287467,20.1141981 C54.0385845,20.1143433 54.8571429,20.9330193 54.8571429,21.9428571 C54.8571429,22.952695 54.0385845,23.771371 53.0287467,23.7715162 L53.0287467,23.7715162 L51.2000876,23.7715162 L51.2000876,25.6001753 C51.1999424,26.6100131 50.3812664,27.4285714 49.3714286,27.4285714 C48.3615907,27.4285714 47.5429147,26.6100131 47.5427695,25.6001753 L47.5427695,25.6001753 L47.5427695,23.7715162 L45.7141104,23.7715162 C44.7042726,23.771371 43.8857143,22.952695 43.8857143,21.9428571 C43.8857143,20.9330193 44.7042726,20.1143433 45.7141104,20.1141981 L45.7141104,20.1141981 L47.5427695,20.1141981 L47.5427695,18.285539 C47.5429147,17.2757012 48.3615907,16.4571429 49.3714286,16.4571429 Z" id="形状结合" fill="#FFFFFF" fill-rule="nonzero"></path>
                            </g>
                        </g>
                    </g>
                    <g id="编组-10">
                        <rect id="矩形" stroke="#E6E6E6" fill="#FFFFFF" x="0.5" y="0.5" width="199" height="174"></rect>
                        <g id="1" transform="translate(20.000000, 35.000000)">
                            <g id="提升每日导出量" transform="translate(44.000000, 0.000000)">
                                <circle id="椭圆形" fill="url(#linearGradient-1)" cx="35.6571429" cy="35.6571429" r="35.6571429"></circle>
                                <path d="M31.9535483,18.306356 C31.9535483,18.306356 33.327469,17.985199 34.3623702,19.8764569 C35.5221734,21.5536102 36.1466828,22.6062915 36.1466828,22.6062915 L36.1466828,22.6062915 L36.1746819,22.6270993 C36.2948204,22.7128681 36.7937935,23.0345009 37.5206034,23.0345009 L37.5206034,23.0345009 L51.3017974,23.0340527 C51.4432373,23.0247569 53.9184356,22.9014501 53.9184356,25.6572831 L53.9184356,25.6572831 L53.9184356,49.2801655 C53.9184356,49.2801655 54.3466706,52.1170525 51.6166725,52.0992104 L51.6166725,52.0992104 L20.9086537,52.0992104 C20.9086537,52.0992104 18.2857143,52.5095777 18.2857143,49.0482188 L18.2857143,49.0482188 L18.2861877,21.3151837 C18.29471,21.0286287 18.4566326,18.306356 21.5331631,18.306356 L21.5331631,18.306356 Z M36.1322215,28.3428571 C35.9092105,28.3428571 35.6861995,28.4537705 35.574694,28.6755972 L29.4418912,36.2177049 C29.2188802,36.4395316 29.2188802,36.7722717 29.3303857,36.9940984 C29.4418912,37.2159251 29.7764077,37.4377518 29.9994188,37.4377518 L33.5675949,37.4377518 L33.5675949,45.4235129 C33.5675949,45.7562529 34.1251224,46.088993 34.7941555,46.088993 L37.2472766,46.088993 C37.9163096,46.088993 38.4738371,45.7562529 38.4738371,45.4235129 L38.4738371,37.4377518 L42.0420133,37.4377518 C42.3765298,37.4377518 42.5995408,37.3268384 42.7110463,36.9940984 C42.8225518,36.7722717 42.8225518,36.4395316 42.5995408,36.2177049 L36.5782435,28.6755972 C36.5782435,28.4537705 36.3552325,28.3428571 36.1322215,28.3428571 Z" id="形状结合" fill="#FFFFFF"></path>
                            </g>
                        </g>
                        <path d="M271.784,140.224 C272.728,140.224 273.608,140.096 274.44,139.84 C275.224,139.584 275.896,139.248 276.44,138.8 L276.44,134.128 L271.56,134.128 L271.56,135.264 L275.144,135.264 L275.144,138.176 C274.744,138.432 274.264,138.656 273.704,138.816 C273.128,138.976 272.536,139.072 271.912,139.072 C270.424,139.072 269.304,138.624 268.552,137.744 C267.848,136.912 267.496,135.776 267.496,134.336 C267.496,132.864 267.848,131.696 268.584,130.832 C269.32,129.952 270.296,129.52 271.544,129.52 C272.552,129.52 273.368,129.76 273.992,130.256 C274.584,130.72 274.968,131.376 275.144,132.24 L276.456,132.24 C276.248,130.992 275.752,130.048 274.952,129.392 C274.104,128.688 272.968,128.352 271.544,128.352 C269.864,128.352 268.536,128.944 267.56,130.144 C266.632,131.248 266.184,132.64 266.184,134.336 C266.184,136.032 266.648,137.424 267.576,138.496 C268.568,139.648 269.976,140.224 271.784,140.224 Z M280.024,140 L280.024,128.576 L278.728,128.576 L278.728,140 L280.024,140 Z M283.736,140 L283.736,134.688 L289.736,134.688 L289.736,133.552 L283.736,133.552 L283.736,129.712 L290.072,129.712 L290.072,128.576 L282.424,128.576 L282.424,140 L283.736,140 Z M295.688,141.68 L296.488,141.008 C296.104,140.464 295.64,139.904 295.112,139.36 C294.504,138.72 293.88,138.192 293.272,137.76 L292.552,138.432 C293.144,138.88 293.736,139.408 294.328,140.048 C294.84,140.592 295.304,141.136 295.688,141.68 Z M308.968,140 L308.968,130.912 L309.016,130.912 L312.968,140 L314.152,140 L318.104,130.912 L318.152,130.912 L318.152,140 L319.464,140 L319.464,128.576 L317.832,128.576 L313.592,138.32 L313.544,138.32 L309.288,128.576 L307.656,128.576 L307.656,140 L308.968,140 Z M323.08,140 L323.08,135.328 L326.424,135.328 C329.048,135.328 330.376,134.192 330.376,131.936 C330.376,129.696 329.064,128.576 326.44,128.576 L321.768,128.576 L321.768,140 L323.08,140 Z M326.36,134.192 L323.08,134.192 L323.08,129.712 L326.36,129.712 C327.272,129.712 327.944,129.888 328.392,130.272 C328.84,130.608 329.064,131.168 329.064,131.936 C329.064,132.704 328.84,133.264 328.408,133.632 C327.96,134 327.288,134.192 326.36,134.192 Z M338.264,140 L338.264,137.408 L340.12,137.408 L340.12,136.336 L338.264,136.336 L338.264,128.576 L337.032,128.576 L331.272,136.16 L331.272,137.408 L337.016,137.408 L337.016,140 L338.264,140 Z M337.016,136.336 L332.376,136.336 L336.968,130.288 L337.016,130.288 L337.016,136.336 Z M352.376,130.96 L353.368,130.592 C353.128,130.112 352.792,129.584 352.36,129.024 L355.256,129.024 L355.256,128.048 L350.648,128.048 C350.76,127.728 350.872,127.392 350.968,127.056 L349.88,126.832 C349.56,127.952 349.064,128.96 348.36,129.888 L349.32,130.496 C349.64,130.048 349.944,129.568 350.216,129.024 L351.16,129.024 C351.64,129.648 352.04,130.288 352.376,130.96 Z M342.392,131.104 C342.888,130.496 343.336,129.808 343.72,129.072 L344.36,129.072 C344.808,129.696 345.208,130.336 345.528,131.008 L346.568,130.624 C346.312,130.144 345.976,129.632 345.56,129.072 L348.264,129.072 L348.264,128.096 L344.168,128.096 C344.296,127.776 344.408,127.44 344.536,127.088 L343.448,126.848 C343.016,128.16 342.328,129.376 341.4,130.48 L342.392,131.104 Z M351.08,141.6 C352.024,141.6 352.504,141.152 352.504,140.272 L352.504,137.76 L354.904,137.76 L354.904,136.752 L352.504,136.752 L352.504,135.216 L355.592,135.216 L355.592,134.208 L349.064,134.208 L349.064,132.656 L353.768,132.656 L353.768,131.648 L349.064,131.648 L349.064,130.64 L347.912,130.64 L347.912,131.648 L343.144,131.648 L343.144,132.656 L347.912,132.656 L347.912,134.208 L341.368,134.208 L341.368,135.216 L351.352,135.216 L351.352,136.752 L342.312,136.752 L342.312,137.76 L351.352,137.76 L351.352,140 C351.352,140.384 351.128,140.592 350.68,140.592 C350.008,140.592 349.288,140.56 348.52,140.512 L348.76,141.6 L351.08,141.6 Z M346.088,141.056 L346.984,140.432 C346.536,139.792 345.88,139.04 345.016,138.208 L344.088,138.784 C344.92,139.616 345.592,140.368 346.088,141.056 Z M360.648,141.536 L360.648,133.328 C361.032,133.888 361.512,134.624 362.072,135.552 L362.312,135.184 L362.744,135.76 C364.488,135.088 365.976,134.288 367.192,133.344 C368.312,134.224 369.688,135.008 371.352,135.712 L371.864,134.64 C370.36,134.08 369.064,133.424 367.992,132.672 C369.08,131.664 369.928,130.528 370.504,129.248 L370.504,128.352 L365.992,128.352 C366.184,127.968 366.36,127.568 366.52,127.152 L365.416,126.912 C364.68,128.688 363.736,130.128 362.568,131.232 L363.304,132.112 C363.768,131.648 364.216,131.136 364.632,130.592 C365.08,131.296 365.656,131.968 366.344,132.624 C365.32,133.376 364.088,134.032 362.68,134.608 L362.696,134.592 C362.008,133.648 361.32,132.8 360.648,132.032 L360.648,131.168 L362.392,131.168 L362.392,130.064 L360.648,130.064 L360.648,126.944 L359.512,126.944 L359.512,130.064 L357.384,130.064 L357.384,131.168 L359.496,131.168 C359,133.136 358.184,134.88 357.064,136.416 L357.56,137.664 C358.36,136.416 359.016,135.024 359.512,133.504 L359.512,141.536 L360.648,141.536 Z M367.128,132 C366.344,131.328 365.704,130.576 365.208,129.76 C365.272,129.664 365.32,129.552 365.384,129.456 L369.24,129.456 C368.712,130.384 368.008,131.232 367.128,132 Z M364.824,141.568 L364.824,140.864 L369.352,140.864 L369.352,141.568 L370.472,141.568 L370.472,135.6 L363.704,135.6 L363.704,141.568 L364.824,141.568 Z M369.352,139.792 L364.824,139.792 L364.824,136.672 L369.352,136.672 L369.352,139.792 Z M385.72,141.552 C386.536,141.536 387.192,140.368 387.672,138.064 L386.632,137.52 C386.296,139.312 385.96,140.224 385.64,140.272 C385.112,140.272 384.504,139.376 383.832,137.616 C383.208,135.824 382.792,133.6 382.6,130.912 L387.48,130.912 L387.48,129.792 L382.536,129.792 C382.488,128.896 382.472,127.952 382.472,126.96 L381.288,126.96 C381.288,127.936 381.304,128.88 381.352,129.792 L373.528,129.792 L373.528,130.912 L381.416,130.912 C381.544,132.928 381.784,134.688 382.152,136.208 C383.112,139.696 384.296,141.488 385.72,141.552 Z M385.432,129.632 L386.392,129.152 C385.912,128.384 385.416,127.68 384.888,127.04 L383.928,127.504 C384.472,128.128 384.968,128.832 385.432,129.632 Z M373.72,140.56 C376.376,140.176 378.872,139.712 381.176,139.152 L381.176,138.032 C380.056,138.32 378.92,138.592 377.736,138.816 L377.736,134.656 L380.552,134.656 L380.552,133.568 L373.768,133.568 L373.768,134.656 L376.584,134.656 L376.584,139.024 C375.56,139.184 374.504,139.344 373.448,139.472 L373.72,140.56 Z M401.688,134.24 C402.36,134.208 402.808,133.968 403.032,133.488 C403.16,133.168 403.272,132.656 403.352,131.936 L402.264,131.584 C402.2,132.256 402.104,132.672 402.008,132.848 C401.88,133.04 401.672,133.152 401.352,133.168 L392.792,133.168 C392.344,133.168 392.104,132.944 392.104,132.512 L392.104,131.36 L401.272,131.36 L401.272,127.552 L390.952,127.552 L390.952,132.928 C390.952,133.792 391.416,134.24 392.376,134.24 L401.688,134.24 Z M400.12,130.304 L392.104,130.304 L392.104,128.592 L400.12,128.592 L400.12,130.304 Z M398.712,141.648 C399.672,141.648 400.168,141.2 400.168,140.304 L400.168,136.912 L403.688,136.912 L403.688,135.792 L400.168,135.792 L400.168,134.784 L399.016,134.784 L399.016,135.792 L389.272,135.792 L389.272,136.912 L399.016,136.912 L399.016,140.016 C399.016,140.4 398.776,140.592 398.312,140.592 C397.704,140.592 397.08,140.56 396.408,140.512 L396.664,141.648 L398.712,141.648 Z M394.792,140.768 L395.656,139.904 C394.92,139.072 394.024,138.224 392.952,137.392 L392.136,138.176 C393.256,139.088 394.152,139.952 394.792,140.768 Z M407.384,141.488 L407.384,140.592 L417.592,140.592 L417.592,141.488 L418.76,141.488 L418.76,135.12 L417.592,135.12 L417.592,139.488 L413.08,139.488 L413.08,133.616 L417.976,133.616 L417.976,128.128 L416.824,128.128 L416.824,132.496 L413.08,132.496 L413.08,126.912 L411.896,126.912 L411.896,132.496 L408.152,132.496 L408.152,128.128 L407,128.128 L407,133.616 L411.896,133.616 L411.896,139.488 L407.384,139.488 L407.384,135.12 L406.216,135.12 L406.216,141.488 L407.384,141.488 Z" id="GIF、MP4等格式导出" fill="#231A1A" fill-rule="nonzero"></path>
                        <path d="M525.149333,140.8 C527.693333,140.512 529.533333,139.904 530.653333,138.944 C533.037333,140.032 535.837333,140.656 539.053333,140.784 L539.341333,139.68 C536.269333,139.584 533.613333,139.056 531.373333,138.112 C531.821333,137.472 532.125333,136.624 532.317333,135.568 L537.469333,135.568 L537.469333,129.232 L532.509333,129.232 L532.509333,127.84 L538.797333,127.84 L538.797333,126.768 L525.085333,126.768 L525.085333,127.84 L531.357333,127.84 L531.357333,129.232 L526.461333,129.232 L526.461333,135.568 L531.149333,135.568 C530.989333,136.4 530.701333,137.088 530.317333,137.632 C529.421333,137.168 528.589333,136.624 527.837333,136 L526.957333,136.608 C527.741333,137.28 528.605333,137.872 529.533333,138.384 C528.509333,139.12 526.877333,139.568 524.653333,139.744 L525.149333,140.8 Z M531.357333,131.904 L527.597333,131.904 L527.597333,130.224 L531.357333,130.224 L531.357333,131.904 Z M536.333333,131.904 L532.509333,131.904 L532.509333,130.224 L536.333333,130.224 L536.333333,131.904 Z M536.333333,134.56 L532.461333,134.56 L532.509333,133.424 L532.509333,132.864 L536.333333,132.864 L536.333333,134.56 Z M531.309333,134.56 L527.597333,134.56 L527.597333,132.864 L531.357333,132.864 L531.357333,133.424 C531.357333,133.808 531.341333,134.192 531.309333,134.56 Z M541.309333,140.848 C544.717333,139.072 546.925333,136.24 547.917333,132.352 C549.117333,135.968 551.325333,138.752 554.541333,140.736 L555.261333,139.808 C551.981333,137.856 549.773333,135.072 548.653333,131.456 L554.957333,131.456 L554.957333,130.336 L548.317333,130.336 C548.445333,129.344 548.525333,128.304 548.525333,127.184 L548.525333,126.144 L547.341333,126.144 L547.341333,127.44 C547.325333,128.448 547.261333,129.408 547.133333,130.336 L540.909333,130.336 L540.909333,131.456 L546.941333,131.456 C546.109333,135.392 543.997333,138.208 540.589333,139.888 L541.309333,140.848 Z M564.205333,137.168 L564.205333,130.704 L569.341333,130.704 L569.341333,137.168 L570.461333,137.168 L570.461333,129.648 L567.069333,129.648 C567.197333,129.104 567.309333,128.544 567.405333,127.936 L571.229333,127.936 L571.229333,126.816 L562.365333,126.816 L562.365333,127.936 L566.269333,127.936 C566.189333,128.528 566.077333,129.104 565.917333,129.648 L563.101333,129.648 L563.101333,137.168 L564.205333,137.168 Z M556.973333,138.096 C558.829333,137.6 560.461333,137.056 561.869333,136.464 L561.869333,135.312 C561.245333,135.568 560.589333,135.808 559.901333,136.048 L559.901333,128.816 L561.757333,128.816 L561.757333,127.696 L556.813333,127.696 L556.813333,128.816 L558.717333,128.816 L558.717333,136.416 C558.045333,136.608 557.357333,136.784 556.637333,136.96 L556.973333,138.096 Z M561.757333,140.864 C563.677333,140.32 565.053333,139.568 565.901333,138.624 C566.765333,137.584 567.213333,136.208 567.277333,134.48 L567.277333,131.728 L566.125333,131.728 L566.125333,134.48 C566.077333,135.872 565.709333,137.008 565.037333,137.872 C564.301333,138.704 562.989333,139.376 561.133333,139.872 L561.757333,140.864 Z M570.573333,140.912 L571.405333,140.08 C570.509333,139.12 569.389333,138.16 568.077333,137.2 L567.309333,137.936 C568.685333,138.992 569.773333,139.984 570.573333,140.912 Z M575.741333,140.816 L575.741333,139.744 L584.157333,139.744 L584.157333,140.784 L585.309333,140.784 L585.309333,126.912 L574.573333,126.912 L574.573333,140.816 L575.741333,140.816 Z M584.157333,130.688 L575.741333,130.688 L575.741333,128.032 L584.157333,128.032 L584.157333,130.688 Z M584.157333,134.56 L575.741333,134.56 L575.741333,131.744 L584.157333,131.744 L584.157333,134.56 Z M584.157333,138.624 L575.741333,138.624 L575.741333,135.616 L584.157333,135.616 L584.157333,138.624 Z M592.125333,140.816 L592.125333,132.672 C592.989333,131.52 593.725333,130.256 594.317333,128.88 L602.941333,128.88 L602.941333,127.76 L594.749333,127.76 C594.925333,127.248 595.085333,126.736 595.245333,126.208 L594.077333,126.064 C593.917333,126.64 593.725333,127.2 593.517333,127.76 L589.165333,127.76 L589.165333,128.88 L593.053333,128.88 C592.013333,131.136 590.525333,133.12 588.573333,134.832 L589.293333,135.744 C589.901333,135.2 590.461333,134.64 591.005333,134.048 L591.005333,140.816 L592.125333,140.816 Z M597.741333,140.752 C598.685333,140.752 599.165333,140.272 599.165333,139.328 L599.165333,136.304 L603.165333,136.304 L603.165333,135.2 L599.165333,135.2 L599.165333,134.192 C600.253333,133.472 601.229333,132.704 602.093333,131.904 L602.093333,130.832 L594.605333,130.832 L594.605333,131.904 L600.621333,131.904 C599.789333,132.608 598.925333,133.2 598.013333,133.712 L598.013333,135.2 L593.373333,135.2 L593.373333,136.304 L598.013333,136.304 L598.013333,138.96 C598.013333,139.44 597.757333,139.696 597.277333,139.696 C596.621333,139.696 596.013333,139.68 595.437333,139.664 L595.741333,140.752 L597.741333,140.752 Z M607.197333,140.816 L607.197333,129.712 C607.613333,128.736 607.981333,127.696 608.269333,126.608 L607.229333,126.128 C606.669333,128.496 605.757333,130.592 604.493333,132.432 L604.877333,133.664 C605.309333,133.088 605.709333,132.496 606.077333,131.888 L606.077333,140.816 L607.197333,140.816 Z M614.253333,140.768 L614.253333,140.096 L617.245333,140.096 L617.245333,140.768 L618.333333,140.768 L618.333333,133.632 L615.069333,133.632 C615.565333,133.184 616.045333,132.672 616.493333,132.128 L619.117333,132.128 L619.117333,131.072 L617.277333,131.072 C617.981333,130.016 618.621333,128.816 619.165333,127.472 L618.205333,126.976 C617.917333,127.648 617.613333,128.304 617.293333,128.944 L617.293333,128 L615.485333,128 L615.485333,126.16 L614.445333,126.16 L614.445333,128 L612.525333,128 L612.525333,129.008 L614.445333,129.008 L614.445333,131.072 L612.173333,131.072 L612.173333,132.128 L615.085333,132.128 C614.029333,133.248 612.813333,134.112 611.453333,134.736 L612.029333,135.648 C612.413333,135.456 612.797333,135.264 613.181333,135.04 L613.181333,140.768 L614.253333,140.768 Z M610.861333,130 L611.709333,129.152 C611.069333,128.352 610.285333,127.568 609.357333,126.768 L608.573333,127.536 C609.533333,128.4 610.301333,129.232 610.861333,130 Z M615.965333,131.072 L615.485333,131.072 L615.485333,129.008 L617.261333,129.008 C616.861333,129.744 616.429333,130.432 615.965333,131.072 Z M609.757333,140.24 C610.653333,139.44 611.517333,138.544 612.317333,137.536 L612.045333,136.4 C611.581333,136.944 611.149333,137.44 610.733333,137.888 L610.733333,131.104 L607.837333,131.104 L607.837333,132.176 L609.629333,132.176 L609.629333,138.56 C609.629333,138.784 609.517333,138.992 609.293333,139.184 L609.757333,140.24 Z M617.245333,136.368 L614.253333,136.368 L614.253333,134.64 L617.245333,134.64 L617.245333,136.368 Z M617.245333,139.088 L614.253333,139.088 L614.253333,137.328 L617.245333,137.328 L617.245333,139.088 Z M634.733333,130.928 L634.733333,127.712 L628.605333,127.712 C628.413333,127.088 628.205333,126.528 627.997333,126.032 L626.749333,126.224 C626.989333,126.672 627.213333,127.168 627.421333,127.712 L621.149333,127.712 L621.149333,130.912 L622.317333,130.912 L622.317333,128.784 L633.565333,128.784 L633.565333,130.928 L634.733333,130.928 Z M633.357333,133.584 L634.013333,132.608 C632.637333,131.504 631.101333,130.56 629.421333,129.792 L628.813333,130.704 C630.365333,131.408 631.885333,132.368 633.357333,133.584 Z M622.141333,133.552 C623.997333,132.8 625.549333,131.856 626.797333,130.736 L626.077333,129.904 C624.909333,130.976 623.437333,131.84 621.645333,132.496 L622.141333,133.552 Z M634.765333,140.272 L634.765333,139.168 L628.509333,139.168 L628.509333,135.376 L633.421333,135.376 L633.421333,134.288 L622.461333,134.288 L622.461333,135.376 L627.341333,135.376 L627.341333,139.168 L621.117333,139.168 L621.117333,140.272 L634.765333,140.272 Z M640.765333,129.424 L641.789333,128.88 C641.229333,127.824 640.573333,126.864 639.837333,125.984 L638.781333,126.448 C639.501333,127.312 640.157333,128.304 640.765333,129.424 Z M648.701333,140.672 C649.773333,140.672 650.317333,140.096 650.317333,138.976 L650.317333,126.928 L642.989333,126.928 L642.989333,128 L649.197333,128 L649.197333,138.656 C649.197333,139.296 648.941333,139.632 648.461333,139.632 L647.069333,139.6 L647.357333,140.672 L648.701333,140.672 Z M638.637333,140.816 L638.637333,128.784 L637.517333,128.784 L637.517333,140.816 L638.637333,140.816 Z M646.909333,137.92 L646.909333,130.464 L640.829333,130.464 L640.829333,137.92 L646.909333,137.92 Z M645.837333,133.68 L641.917333,133.68 L641.917333,131.488 L645.837333,131.488 L645.837333,133.68 Z M645.837333,136.896 L641.917333,136.896 L641.917333,134.704 L645.837333,134.704 L645.837333,136.896 Z" id="更大项目存储空间" fill="#231A1A" fill-rule="nonzero"></path>
                        <path d="M767.216,141.6 C769.76,141.312 771.6,140.704 772.72,139.744 C775.104,140.832 777.904,141.456 781.12,141.584 L781.408,140.48 C778.336,140.384 775.68,139.856 773.44,138.912 C773.888,138.272 774.192,137.424 774.384,136.368 L779.536,136.368 L779.536,130.032 L774.576,130.032 L774.576,128.64 L780.864,128.64 L780.864,127.568 L767.152,127.568 L767.152,128.64 L773.424,128.64 L773.424,130.032 L768.528,130.032 L768.528,136.368 L773.216,136.368 C773.056,137.2 772.768,137.888 772.384,138.432 C771.488,137.968 770.656,137.424 769.904,136.8 L769.024,137.408 C769.808,138.08 770.672,138.672 771.6,139.184 C770.576,139.92 768.944,140.368 766.72,140.544 L767.216,141.6 Z M773.424,132.704 L769.664,132.704 L769.664,131.024 L773.424,131.024 L773.424,132.704 Z M778.4,132.704 L774.576,132.704 L774.576,131.024 L778.4,131.024 L778.4,132.704 Z M778.4,135.36 L774.528,135.36 L774.576,134.224 L774.576,133.664 L778.4,133.664 L778.4,135.36 Z M773.376,135.36 L769.664,135.36 L769.664,133.664 L773.424,133.664 L773.424,134.224 C773.424,134.608 773.408,134.992 773.376,135.36 Z M783.376,141.648 C786.784,139.872 788.992,137.04 789.984,133.152 C791.184,136.768 793.392,139.552 796.608,141.536 L797.328,140.608 C794.048,138.656 791.84,135.872 790.72,132.256 L797.024,132.256 L797.024,131.136 L790.384,131.136 C790.512,130.144 790.592,129.104 790.592,127.984 L790.592,126.944 L789.408,126.944 L789.408,128.24 C789.392,129.248 789.328,130.208 789.2,131.136 L782.976,131.136 L782.976,132.256 L789.008,132.256 C788.176,136.192 786.064,139.008 782.656,140.688 L783.376,141.648 Z M805.392,141.616 C806.224,141.616 806.656,141.184 806.656,140.336 L806.656,137.776 C807.808,137.712 809.152,137.616 810.672,137.504 C810.992,137.872 811.296,138.24 811.584,138.624 L812.4,138.064 C811.76,137.216 810.816,136.224 809.584,135.088 L808.8,135.584 C809.216,135.968 809.6,136.352 809.968,136.736 C807.216,136.96 804.88,137.104 802.96,137.168 C805.296,136.432 807.632,135.408 809.952,134.064 L809.056,133.488 C808.4,133.888 807.728,134.272 807.056,134.64 C805.648,134.704 804.224,134.752 802.8,134.8 C803.76,134.352 804.704,133.76 805.648,133.024 L812.896,133.024 L812.896,132.048 L806.608,132.048 L806.608,130.96 L811.52,130.96 L811.52,130.048 L806.608,130.048 L806.608,128.96 L812.192,128.96 L812.192,128.016 L806.608,128.016 L806.608,126.896 L805.456,126.896 L805.456,128.016 L799.808,128.016 L799.808,128.96 L805.456,128.96 L805.456,130.048 L800.48,130.048 L800.48,130.96 L805.456,130.96 L805.456,132.048 L799.12,132.048 L799.12,133.024 L804.304,133.024 C803.312,133.776 802.432,134.288 801.696,134.544 C801.488,134.64 801.264,134.688 801.04,134.72 L801.248,135.568 C802.752,135.504 804.176,135.456 805.52,135.408 C803.952,136.128 802.368,136.704 800.768,137.12 L800.144,137.056 L800.368,138.016 L801.712,137.968 C802.608,137.968 803.888,137.92 805.536,137.84 L805.536,140.08 C805.536,140.464 805.36,140.656 805.024,140.656 C804.576,140.656 804.128,140.624 803.648,140.592 L803.872,141.616 L805.392,141.616 Z M812.464,141.408 L813.04,140.528 C811.648,139.68 810.112,138.96 808.448,138.352 L807.888,139.168 C809.456,139.712 810.976,140.464 812.464,141.408 Z M799.408,141.36 C801.264,140.768 802.816,140.032 804.064,139.136 L803.408,138.4 C802.24,139.232 800.752,139.888 798.944,140.4 L799.408,141.36 Z M825.84,141.408 C826.768,141.408 827.248,140.912 827.248,139.936 L827.248,131.2 L829.088,131.2 L829.088,130.096 L827.248,130.096 L827.248,126.928 L826.096,126.928 L826.096,130.096 L821.504,130.096 L821.504,131.2 L825.584,131.2 C824.496,134.192 822.704,136.64 820.24,138.528 L820.848,139.568 C823.216,137.6 824.976,135.12 826.096,132.128 L826.096,139.648 C826.096,140.112 825.872,140.352 825.456,140.352 C824.944,140.352 824.4,140.32 823.84,140.288 L824.096,141.408 L825.84,141.408 Z M818.656,141.536 L818.656,133.312 C819.168,133.92 819.776,134.72 820.48,135.712 L821.152,134.72 C820.304,133.744 819.472,132.88 818.656,132.112 L818.656,131.168 L820.784,131.168 L820.784,130.064 L818.656,130.064 L818.656,126.944 L817.504,126.944 L817.504,130.064 L814.928,130.064 L814.928,131.168 L817.456,131.168 C816.88,133.184 815.936,134.976 814.608,136.544 L815.12,137.84 C816.112,136.448 816.912,134.88 817.504,133.152 L817.504,141.536 L818.656,141.536 Z M834.192,141.616 L834.192,133.472 C835.056,132.32 835.792,131.056 836.384,129.68 L845.008,129.68 L845.008,128.56 L836.816,128.56 C836.992,128.048 837.152,127.536 837.312,127.008 L836.144,126.864 C835.984,127.44 835.792,128 835.584,128.56 L831.232,128.56 L831.232,129.68 L835.12,129.68 C834.08,131.936 832.592,133.92 830.64,135.632 L831.36,136.544 C831.968,136 832.528,135.44 833.072,134.848 L833.072,141.616 L834.192,141.616 Z M839.808,141.552 C840.752,141.552 841.232,141.072 841.232,140.128 L841.232,137.104 L845.232,137.104 L845.232,136 L841.232,136 L841.232,134.992 C842.32,134.272 843.296,133.504 844.16,132.704 L844.16,131.632 L836.672,131.632 L836.672,132.704 L842.688,132.704 C841.856,133.408 840.992,134 840.08,134.512 L840.08,136 L835.44,136 L835.44,137.104 L840.08,137.104 L840.08,139.76 C840.08,140.24 839.824,140.496 839.344,140.496 C838.688,140.496 838.08,140.48 837.504,140.464 L837.808,141.552 L839.808,141.552 Z M849.264,141.616 L849.264,130.512 C849.68,129.536 850.048,128.496 850.336,127.408 L849.296,126.928 C848.736,129.296 847.824,131.392 846.56,133.232 L846.944,134.464 C847.376,133.888 847.776,133.296 848.144,132.688 L848.144,141.616 L849.264,141.616 Z M856.32,141.568 L856.32,140.896 L859.312,140.896 L859.312,141.568 L860.4,141.568 L860.4,134.432 L857.136,134.432 C857.632,133.984 858.112,133.472 858.56,132.928 L861.184,132.928 L861.184,131.872 L859.344,131.872 C860.048,130.816 860.688,129.616 861.232,128.272 L860.272,127.776 C859.984,128.448 859.68,129.104 859.36,129.744 L859.36,128.8 L857.552,128.8 L857.552,126.96 L856.512,126.96 L856.512,128.8 L854.592,128.8 L854.592,129.808 L856.512,129.808 L856.512,131.872 L854.24,131.872 L854.24,132.928 L857.152,132.928 C856.096,134.048 854.88,134.912 853.52,135.536 L854.096,136.448 C854.48,136.256 854.864,136.064 855.248,135.84 L855.248,141.568 L856.32,141.568 Z M852.928,130.8 L853.776,129.952 C853.136,129.152 852.352,128.368 851.424,127.568 L850.64,128.336 C851.6,129.2 852.368,130.032 852.928,130.8 Z M858.032,131.872 L857.552,131.872 L857.552,129.808 L859.328,129.808 C858.928,130.544 858.496,131.232 858.032,131.872 Z M851.824,141.04 C852.72,140.24 853.584,139.344 854.384,138.336 L854.112,137.2 C853.648,137.744 853.216,138.24 852.8,138.688 L852.8,131.904 L849.904,131.904 L849.904,132.976 L851.696,132.976 L851.696,139.36 C851.696,139.584 851.584,139.792 851.36,139.984 L851.824,141.04 Z M859.312,137.168 L856.32,137.168 L856.32,135.44 L859.312,135.44 L859.312,137.168 Z M859.312,139.888 L856.32,139.888 L856.32,138.128 L859.312,138.128 L859.312,139.888 Z M876.8,131.728 L876.8,128.512 L870.672,128.512 C870.48,127.888 870.272,127.328 870.064,126.832 L868.816,127.024 C869.056,127.472 869.28,127.968 869.488,128.512 L863.216,128.512 L863.216,131.712 L864.384,131.712 L864.384,129.584 L875.632,129.584 L875.632,131.728 L876.8,131.728 Z M875.424,134.384 L876.08,133.408 C874.704,132.304 873.168,131.36 871.488,130.592 L870.88,131.504 C872.432,132.208 873.952,133.168 875.424,134.384 Z M864.208,134.352 C866.064,133.6 867.616,132.656 868.864,131.536 L868.144,130.704 C866.976,131.776 865.504,132.64 863.712,133.296 L864.208,134.352 Z M876.832,141.072 L876.832,139.968 L870.576,139.968 L870.576,136.176 L875.488,136.176 L875.488,135.088 L864.528,135.088 L864.528,136.176 L869.408,136.176 L869.408,139.968 L863.184,139.968 L863.184,141.072 L876.832,141.072 Z M882.832,130.224 L883.856,129.68 C883.296,128.624 882.64,127.664 881.904,126.784 L880.848,127.248 C881.568,128.112 882.224,129.104 882.832,130.224 Z M890.768,141.472 C891.84,141.472 892.384,140.896 892.384,139.776 L892.384,127.728 L885.056,127.728 L885.056,128.8 L891.264,128.8 L891.264,139.456 C891.264,140.096 891.008,140.432 890.528,140.432 L889.136,140.4 L889.424,141.472 L890.768,141.472 Z M880.704,141.616 L880.704,129.584 L879.584,129.584 L879.584,141.616 L880.704,141.616 Z M888.976,138.72 L888.976,131.264 L882.896,131.264 L882.896,138.72 L888.976,138.72 Z M887.904,134.48 L883.984,134.48 L883.984,132.288 L887.904,132.288 L887.904,134.48 Z M887.904,137.696 L883.984,137.696 L883.984,135.504 L887.904,135.504 L887.904,137.696 Z" id="更大素材存储空间" fill="#231A1A" fill-rule="nonzero"></path>
                        <path d="M46.64,141.456 C47.552,141.456 48.016,140.992 48.016,140.096 L48.016,135.376 C48.48,135.152 48.944,134.928 49.392,134.688 L49.392,133.52 C48.944,133.776 48.48,134 48.016,134.224 L48.016,131.104 L49.632,131.104 L49.632,130 L48.016,130 L48.016,126.976 L46.832,126.976 L46.832,130 L44.896,130 L44.896,131.104 L46.832,131.104 L46.832,134.72 C46.128,134.992 45.424,135.216 44.704,135.392 L44.976,136.544 C45.6,136.352 46.224,136.128 46.832,135.888 L46.832,139.792 C46.832,140.192 46.624,140.4 46.24,140.4 C45.824,140.4 45.408,140.368 44.96,140.336 L45.2,141.456 L46.64,141.456 Z M57.856,133.04 L57.856,127.488 L50.88,127.488 L50.88,133.04 L57.856,133.04 Z M56.736,129.824 L52,129.824 L52,128.432 L56.736,128.432 L56.736,129.824 Z M56.736,132.096 L52,132.096 L52,130.72 L56.736,130.72 L56.736,132.096 Z M49.696,141.568 C50.384,140.736 50.912,139.824 51.296,138.832 C51.776,139.728 52.336,140.336 52.944,140.656 C53.712,141.04 55.152,141.248 57.264,141.264 C57.776,141.264 58.368,141.28 59.008,141.28 L59.328,140.16 C58.736,140.208 58.016,140.24 57.184,140.24 C56.304,140.24 55.552,140.192 54.912,140.096 L54.912,138.032 L58.256,138.032 L58.256,136.992 L54.912,136.992 L54.912,135.184 L58.912,135.184 L58.912,134.16 L49.76,134.16 L49.76,135.184 L53.808,135.184 L53.808,139.856 C53.664,139.808 53.536,139.76 53.424,139.712 C52.752,139.408 52.16,138.72 51.648,137.648 C51.776,137.104 51.856,136.56 51.888,135.984 L50.864,135.872 C50.736,137.696 50.064,139.36 48.848,140.832 L49.696,141.568 Z M61.968,141.6 C64.432,140 65.744,137.52 65.936,134.128 L70.24,134.128 L70.24,141.584 L71.408,141.584 L71.408,134.128 L75.104,134.128 L75.104,133.008 L71.408,133.008 L71.408,127.088 L70.24,127.088 L70.24,133.008 L65.952,133.008 L65.952,128.992 C66.944,128.72 67.92,128.384 68.848,127.968 L68.304,127.024 C66.4,127.872 64.032,128.432 61.216,128.704 L61.584,129.744 C62.672,129.648 63.744,129.504 64.768,129.28 L64.768,133.008 L60.88,133.008 L60.88,134.128 L64.752,134.128 C64.592,137.168 63.376,139.408 61.104,140.848 L61.968,141.6 Z M77.552,132.592 C78.544,131.696 79.408,130.624 80.16,129.408 L90.64,129.408 L90.64,128.304 L80.784,128.304 C80.976,127.92 81.168,127.504 81.36,127.088 L80.192,126.816 C79.312,128.832 78.192,130.448 76.816,131.696 L77.552,132.592 Z M84.544,141.6 C85.248,141.6 85.888,141.584 86.432,141.584 C87.2,141.584 87.792,141.472 88.176,141.248 C88.592,140.992 88.864,140.624 89.008,140.128 C89.04,140 89.088,139.728 89.12,139.312 L90.96,139.312 L90.96,138.24 L89.2,138.24 C89.232,137.536 89.28,136.624 89.328,135.504 L91.392,135.504 L91.392,134.416 L89.376,134.416 L89.488,130.736 L79.552,130.736 C79.52,131.968 79.456,133.2 79.344,134.416 L76.64,134.416 L76.64,135.504 L79.232,135.504 C79.088,136.784 78.896,138.064 78.656,139.312 L88,139.312 C87.968,139.536 87.952,139.696 87.92,139.76 C87.776,140.112 87.552,140.352 87.264,140.464 C86.976,140.544 86.64,140.592 86.256,140.592 C85.648,140.592 84.96,140.56 84.192,140.528 L84.544,141.6 Z M85.472,134.416 L80.496,134.416 C80.56,133.6 80.608,132.736 80.64,131.808 L88.336,131.808 C88.304,132.752 88.288,133.616 88.256,134.416 L85.536,134.416 L86.064,133.616 C85.104,133.024 84.032,132.528 82.864,132.112 L82.336,132.88 C83.392,133.264 84.448,133.776 85.472,134.416 Z M88.096,138.24 L79.984,138.24 C80.144,137.408 80.272,136.496 80.384,135.504 L88.224,135.504 C88.176,136.624 88.128,137.536 88.096,138.24 Z M85.424,138.16 L85.968,137.328 C84.992,136.736 83.92,136.24 82.736,135.824 L82.208,136.576 C83.296,136.96 84.368,137.488 85.424,138.16 Z M96.368,141.536 L96.368,140.304 L103.936,140.304 L103.936,141.52 L105.104,141.52 L105.104,127.568 L95.216,127.568 L95.216,141.536 L96.368,141.536 Z M103.936,133.248 L96.368,133.248 L96.368,128.688 L103.936,128.688 L103.936,133.248 Z M103.936,139.184 L96.368,139.184 L96.368,134.368 L103.936,134.368 L103.936,139.184 Z M121.2,134.24 C121.872,134.208 122.32,133.968 122.544,133.488 C122.672,133.168 122.784,132.656 122.864,131.936 L121.776,131.584 C121.712,132.256 121.616,132.672 121.52,132.848 C121.392,133.04 121.184,133.152 120.864,133.168 L112.304,133.168 C111.856,133.168 111.616,132.944 111.616,132.512 L111.616,131.36 L120.784,131.36 L120.784,127.552 L110.464,127.552 L110.464,132.928 C110.464,133.792 110.928,134.24 111.888,134.24 L121.2,134.24 Z M119.632,130.304 L111.616,130.304 L111.616,128.592 L119.632,128.592 L119.632,130.304 Z M118.224,141.648 C119.184,141.648 119.68,141.2 119.68,140.304 L119.68,136.912 L123.2,136.912 L123.2,135.792 L119.68,135.792 L119.68,134.784 L118.528,134.784 L118.528,135.792 L108.784,135.792 L108.784,136.912 L118.528,136.912 L118.528,140.016 C118.528,140.4 118.288,140.592 117.824,140.592 C117.216,140.592 116.592,140.56 115.92,140.512 L116.176,141.648 L118.224,141.648 Z M114.304,140.768 L115.168,139.904 C114.432,139.072 113.536,138.224 112.464,137.392 L111.648,138.176 C112.768,139.088 113.664,139.952 114.304,140.768 Z M126.896,141.488 L126.896,140.592 L137.104,140.592 L137.104,141.488 L138.272,141.488 L138.272,135.12 L137.104,135.12 L137.104,139.488 L132.592,139.488 L132.592,133.616 L137.488,133.616 L137.488,128.128 L136.336,128.128 L136.336,132.496 L132.592,132.496 L132.592,126.912 L131.408,126.912 L131.408,132.496 L127.664,132.496 L127.664,128.128 L126.512,128.128 L126.512,133.616 L131.408,133.616 L131.408,139.488 L126.896,139.488 L126.896,135.12 L125.728,135.12 L125.728,141.488 L126.896,141.488 Z M153.248,131.136 L153.248,127.184 L142.8,127.184 L142.8,131.136 L153.248,131.136 Z M152.128,128.816 L143.92,128.816 L143.92,127.888 L152.128,127.888 L152.128,128.816 Z M152.128,130.448 L143.92,130.448 L143.92,129.504 L152.128,129.504 L152.128,130.448 Z M155.168,132.832 L155.168,131.968 L140.832,131.968 L140.832,132.832 L155.168,132.832 Z M155.152,141.216 L155.152,140.32 L148.56,140.32 L148.56,139.376 L153.984,139.376 L153.984,138.608 L148.56,138.608 L148.56,137.712 L153.584,137.712 L153.584,133.632 L142.448,133.632 L142.448,137.712 L147.408,137.712 L147.408,138.608 L142.048,138.608 L142.048,139.376 L147.408,139.376 L147.408,140.32 L140.848,140.32 L140.848,141.216 L155.152,141.216 Z M147.408,135.344 L143.552,135.344 L143.552,134.352 L147.408,134.352 L147.408,135.344 Z M152.48,135.344 L148.56,135.344 L148.56,134.352 L152.48,134.352 L152.48,135.344 Z M152.48,136.992 L148.56,136.992 L148.56,136.016 L152.48,136.016 L152.48,136.992 Z M147.408,136.992 L143.552,136.992 L143.552,136.016 L147.408,136.016 L147.408,136.992 Z" id="提升每日导出量" fill="#231A1A" fill-rule="nonzero"></path>
                    </g>
                </g>
            </g>
        </g>
    </g>
</svg>