<?xml version="1.0" encoding="UTF-8"?>
<svg width="120px" height="120px" viewBox="0 0 120 120" version="1.1" xmlns="http://www.w3.org/2000/svg" xmlns:xlink="http://www.w3.org/1999/xlink">
    <title>编组</title>
    <g id="页面-1" stroke="none" stroke-width="1" fill="none" fill-rule="evenodd">
        <g id="会员兑换页-登陆后2" transform="translate(-315.000000, -501.000000)" fill="#7DBE50" fill-rule="nonzero">
            <g id="modal/alert/customized" transform="translate(65.000000, 437.000000)">
                <g id="编组" transform="translate(250.000000, 64.000000)">
                    <path d="M60,0 C26.862915,0 0,26.862915 0,60 C0,93.137085 26.862915,120 60,120 C93.137085,120 120,93.137085 120,60 C120,44.0870106 113.67859,28.8257758 102.426407,17.5735931 C91.1742242,6.32141042 75.9129894,0 60,0 Z M54.4693505,94.473925 L25.7731016,68.6596523 L34.3092407,60.0617566 L51.4089661,73.3188472 C73.1061299,43.8129002 92.0928636,34.3709973 92.0928636,34.3709973 L94.4670632,37.9391583 C71.4592864,55.8142726 54.4693505,94.473925 54.4693505,94.473925 Z" id="形状"></path>
                </g>
            </g>
        </g>
    </g>
</svg>