<?xml version="1.0" encoding="UTF-8"?>
<svg width="180px" height="30px" viewBox="0 0 180 30" version="1.1" xmlns="http://www.w3.org/2000/svg" xmlns:xlink="http://www.w3.org/1999/xlink">
    <title>热门特权</title>
    <g id="页面-1" stroke="none" stroke-width="1" fill="none" fill-rule="evenodd">
        <g id="个人中心-特权兑换" transform="translate(-645.000000, -413.000000)">
            <g id="热门特权" transform="translate(645.000000, 413.000000)">
                <path d="M49.846,19.568 C51.078,19.568 51.694,18.93 51.694,17.654 L51.694,14.156 C52.574,13.936 53.432,13.716 54.29,13.452 L54.29,11.912 C53.454,12.176 52.574,12.44 51.694,12.682 L51.694,9.338 L54.378,9.338 L54.378,7.798 L51.694,7.798 L51.694,4.938 L50.088,4.938 L50.088,7.798 L46.964,7.798 L46.964,9.338 L50.088,9.338 L50.088,13.056 C48.878,13.32 47.646,13.562 46.37,13.738 L46.744,15.234 C47.866,15.014 48.988,14.794 50.088,14.552 L50.088,17.258 C50.088,17.852 49.824,18.16 49.296,18.16 C48.702,18.16 48.086,18.116 47.448,18.05 L47.8,19.568 L49.846,19.568 Z M54.972,19.788 C56.358,18.688 57.414,17.28 58.14,15.564 C58.976,16.268 59.834,17.038 60.67,17.896 L61.55,16.554 C60.626,15.63 59.68,14.794 58.668,14.046 C59.042,12.682 59.24,11.142 59.262,9.426 L62.166,9.426 L62.166,12.132 C62.166,15.322 62.606,17.478 63.486,18.622 C63.97,19.238 64.564,19.546 65.246,19.568 C65.598,19.568 65.906,19.348 66.17,18.952 C66.522,18.424 66.742,17.214 66.852,15.322 L65.642,14.706 C65.598,15.806 65.51,16.642 65.378,17.214 C65.246,17.742 65.092,18.006 64.938,18.006 C64.762,18.006 64.586,17.786 64.41,17.368 C63.948,16.378 63.728,14.64 63.728,12.132 L63.728,7.886 L59.262,7.886 L59.262,5.004 L57.722,5.004 L57.722,7.886 L55.17,7.886 L55.17,9.426 L57.722,9.426 C57.7,10.724 57.568,11.934 57.304,13.078 C56.732,12.682 56.16,12.33 55.566,11.978 L54.73,13.21 C55.434,13.606 56.16,14.068 56.864,14.574 C56.204,16.29 55.192,17.698 53.806,18.754 L54.972,19.788 Z M64.718,25.244 L66.016,24.32 C65.312,23.088 64.322,21.658 63.002,20.008 L61.726,20.822 C62.98,22.428 63.97,23.902 64.718,25.244 Z M47.976,25.332 C49.032,24.1 49.978,22.626 50.77,20.91 L49.45,20.272 C48.658,21.856 47.734,23.242 46.678,24.386 L47.976,25.332 Z M58.844,25.244 L60.428,24.892 C59.944,23.308 59.372,21.856 58.712,20.514 L57.216,20.844 C57.876,22.12 58.404,23.572 58.844,25.244 Z M53.784,25.288 L55.39,24.936 C55.038,23.462 54.62,22.098 54.158,20.822 L52.662,21.13 C53.124,22.318 53.498,23.704 53.784,25.288 Z M74.266,9.558 L75.696,8.81 C74.904,7.358 73.98,6.038 72.968,4.828 L71.516,5.466 C72.528,6.654 73.43,8.018 74.266,9.558 Z M85.2,25.024 C86.652,25.024 87.378,24.276 87.378,22.78 L87.378,6.17 L77.39,6.17 L77.39,7.622 L85.838,7.622 L85.838,22.34 C85.838,23.176 85.508,23.594 84.87,23.594 L82.912,23.55 L83.308,25.024 L85.2,25.024 Z M71.318,25.222 L71.318,8.678 L69.778,8.678 L69.778,25.222 L71.318,25.222 Z M110.566,12.88 L110.566,11.384 L105.528,11.384 L105.528,8.81 L109.598,8.81 L109.598,7.38 L105.528,7.38 L105.528,5.026 L103.944,5.026 L103.944,7.38 L100.072,7.38 L100.072,8.81 L103.944,8.81 L103.944,11.384 L98.862,11.384 L98.862,12.88 L110.566,12.88 Z M96.288,25.2 L96.288,17.918 C96.97,17.654 97.652,17.368 98.356,17.06 L98.356,15.564 C97.674,15.872 96.992,16.158 96.288,16.444 L96.288,11.164 L98.29,11.164 L98.29,9.624 L96.288,9.624 L96.288,5.048 L94.77,5.048 L94.77,9.624 L92.922,9.624 C93.032,8.744 93.098,7.842 93.142,6.896 L91.69,6.786 C91.602,9.316 91.206,11.714 90.524,14.002 L91.91,14.398 C92.218,13.364 92.482,12.286 92.702,11.164 L94.77,11.164 L94.77,16.994 C93.406,17.434 92.02,17.808 90.612,18.094 L90.986,19.634 C92.262,19.282 93.538,18.908 94.77,18.49 L94.77,25.2 L96.288,25.2 Z M106.232,25.046 C107.376,25.046 107.97,24.408 107.97,23.176 L107.97,16.972 L110.39,16.972 L110.39,15.476 L107.97,15.476 L107.97,14.046 L106.43,14.046 L106.43,15.476 L99.39,15.476 L99.39,16.972 L106.43,16.972 L106.43,22.78 C106.43,23.352 106.166,23.66 105.682,23.66 C104.846,23.66 103.988,23.616 103.108,23.55 L103.438,25.046 L106.232,25.046 Z M102.404,22.208 L103.658,21.328 C103.042,20.36 102.162,19.26 101.018,17.984 L99.786,18.754 C100.886,20.008 101.766,21.152 102.404,22.208 Z M117.914,25.112 L117.914,13.738 C118.596,14.574 119.41,15.674 120.356,17.038 L121.258,15.696 C120.136,14.376 119.014,13.166 117.914,12.11 L117.914,10.856 L120.818,10.856 L120.818,9.338 L117.914,9.338 L117.914,5.048 L116.33,5.048 L116.33,9.338 L112.876,9.338 L112.876,10.856 L116.286,10.856 C115.516,13.606 114.218,16.048 112.414,18.204 L113.118,19.986 C114.46,18.116 115.538,16.026 116.33,13.694 L116.33,25.112 L117.914,25.112 Z M131.752,25.134 L132.83,23.858 C130.674,22.252 128.914,20.448 127.506,18.468 C129.354,15.52 130.608,11.978 131.246,7.864 L131.246,6.368 L121.346,6.368 L121.346,7.886 L122.226,7.886 C122.534,11.736 123.678,15.234 125.636,18.402 C124.14,20.492 122.226,22.296 119.916,23.836 L120.928,25.112 C123.15,23.66 125.042,21.9 126.582,19.81 C127.946,21.724 129.684,23.506 131.752,25.134 Z M126.56,16.994 C124.954,14.31 124.03,11.274 123.766,7.886 L129.706,7.886 C129.178,11.318 128.144,14.354 126.56,16.994 Z" fill="#231A1A" fill-rule="nonzero"></path>
                <rect id="矩形" fill="#2F6ED1" x="0" y="12.8" width="25.6" height="4.8" rx="2.4"></rect>
                <rect id="矩形" fill="#2F6ED1" x="153.6" y="12.8" width="25.6" height="4.8" rx="2.4"></rect>
            </g>
        </g>
    </g>
</svg>