<?xml version="1.0" encoding="UTF-8"?>
<svg width="180px" height="30px" viewBox="0 0 180 30" version="1.1" xmlns="http://www.w3.org/2000/svg" xmlns:xlink="http://www.w3.org/1999/xlink">
    <title>近期福利</title>
    <g id="页面-1" stroke="none" stroke-width="1" fill="none" fill-rule="evenodd">
        <g id="个人中心-特权兑换" transform="translate(-645.000000, -883.000000)">
            <g id="近期福利" transform="translate(645.000000, 883.000000)">
                <path d="M62.188,21.966 L62.188,12.704 L66.016,12.704 L66.016,11.186 L56.38,11.186 L56.38,7.754 C59.482,7.644 62.298,7.248 64.806,6.588 L64.058,5.202 C61.33,5.95 58.294,6.346 54.906,6.412 L54.906,12.11 C54.796,15.542 54.07,18.226 52.706,20.162 L53.806,21.306 C55.302,19.15 56.16,16.268 56.336,12.704 L60.648,12.704 L60.648,21.966 L62.188,21.966 Z M50.968,9.954 L52.112,8.832 C51.1,7.666 49.868,6.5 48.416,5.334 L47.338,6.368 C48.878,7.644 50.088,8.854 50.968,9.954 Z M48.174,25.244 C49.384,23.22 50.242,22.208 50.77,22.208 C51.034,22.208 51.32,22.384 51.606,22.758 C52.288,23.572 53.058,24.122 53.916,24.386 C54.796,24.606 55.918,24.738 57.326,24.782 C58.712,24.804 60.01,24.826 61.198,24.826 L66.28,24.826 L66.676,23.242 C66.104,23.286 65.268,23.308 64.19,23.33 C63.09,23.33 62.034,23.352 60.978,23.352 C59.284,23.352 57.854,23.33 56.71,23.308 C55.434,23.264 54.444,23.11 53.784,22.802 C53.168,22.494 52.618,22.032 52.09,21.416 C51.914,21.218 51.738,21.042 51.562,20.91 L51.562,12.66 L46.942,12.66 L46.942,14.112 L50.088,14.112 L50.088,20.8 C49.186,21.196 48.152,22.318 46.986,24.166 L48.174,25.244 Z M79.15,19.832 L79.15,18.336 L77.72,18.336 L77.72,9.03 L79.04,9.03 L79.04,7.556 L77.72,7.556 L77.72,5.136 L76.18,5.136 L76.18,7.556 L71.89,7.556 L71.89,5.092 L70.35,5.092 L70.35,7.556 L68.986,7.556 L68.986,9.03 L70.35,9.03 L70.35,18.336 L68.744,18.336 L68.744,19.832 L79.15,19.832 Z M79.194,25.266 C80.646,23.33 81.526,20.932 81.834,18.028 L86.102,18.028 L86.102,22.538 C86.102,23.198 85.816,23.528 85.244,23.528 C84.54,23.528 83.792,23.484 82.978,23.44 L83.418,25.002 L85.75,25.002 C87.026,25.002 87.686,24.364 87.686,23.11 L87.686,5.862 L80.382,5.862 L80.382,16.158 C80.338,19.238 79.612,21.812 78.16,23.858 C77.61,22.89 76.818,21.724 75.784,20.404 L74.552,21.174 C75.542,22.494 76.334,23.726 76.906,24.848 L78.072,24.012 C78.05,24.056 78.028,24.1 77.984,24.144 L79.194,25.266 Z M86.102,11.208 L81.944,11.208 L81.944,7.358 L86.102,7.358 L86.102,11.208 Z M76.18,11.23 L71.89,11.23 L71.89,9.03 L76.18,9.03 L76.18,11.23 Z M76.18,14.794 L71.89,14.794 L71.89,12.616 L76.18,12.616 L76.18,14.794 Z M86.102,16.576 L81.922,16.576 C81.922,16.4 81.944,16.224 81.944,16.026 L81.944,12.66 L86.102,12.66 L86.102,16.576 Z M76.18,18.336 L71.89,18.336 L71.89,16.18 L76.18,16.18 L76.18,18.336 Z M69.866,25.134 C70.966,23.968 71.934,22.582 72.77,20.998 L71.494,20.382 C70.68,21.878 69.712,23.154 68.612,24.232 L69.866,25.134 Z M95.144,25.2 L95.144,15.872 C95.848,16.466 96.53,17.17 97.212,17.984 L98.07,16.686 C97.19,15.784 96.2,14.992 95.144,14.288 L95.144,14.244 C96.31,12.66 97.168,11.076 97.696,9.47 L97.696,8.128 L94.968,8.128 L95.606,7.886 C95.342,6.962 94.968,5.972 94.506,4.872 L93.01,5.312 C93.45,6.214 93.846,7.16 94.176,8.128 L90.986,8.128 L90.986,9.646 L96.112,9.646 C95.188,12.022 93.318,14.464 90.546,16.972 L91.03,18.644 C91.954,17.808 92.812,16.972 93.604,16.114 L93.604,25.2 L95.144,25.2 Z M110.346,7.314 L110.346,5.906 L98.378,5.906 L98.378,7.314 L110.346,7.314 Z M109.026,13.716 L109.026,8.854 L99.654,8.854 L99.654,13.716 L109.026,13.716 Z M107.53,12.44 L101.15,12.44 L101.15,10.13 L107.53,10.13 L107.53,12.44 Z M100.116,25.222 L100.116,24.32 L108.52,24.32 L108.52,25.222 L110.016,25.222 L110.016,15.3 L98.62,15.3 L98.62,25.222 L100.116,25.222 Z M103.57,19.106 L100.116,19.106 L100.116,16.62 L103.57,16.62 L103.57,19.106 Z M108.52,19.106 L105.066,19.106 L105.066,16.62 L108.52,16.62 L108.52,19.106 Z M103.57,22.934 L100.116,22.934 L100.116,20.426 L103.57,20.426 L103.57,22.934 Z M108.52,22.934 L105.066,22.934 L105.066,20.426 L108.52,20.426 L108.52,22.934 Z M129.486,25.002 C130.85,25.002 131.532,24.276 131.532,22.868 L131.532,5.092 L129.926,5.092 L129.926,22.472 C129.926,23.176 129.596,23.55 128.958,23.55 C127.99,23.55 126.978,23.506 125.922,23.462 L126.252,25.002 L129.486,25.002 Z M118.86,25.2 L118.86,15.124 C119.762,16.048 120.862,17.324 122.138,18.952 L123.084,17.544 C121.632,16.026 120.224,14.684 118.86,13.496 L118.86,12.484 L122.93,12.484 L122.93,10.966 L118.86,10.966 L118.86,7.644 C120.18,7.336 121.456,6.94 122.688,6.456 L121.918,5.114 C119.52,6.082 116.528,6.698 112.942,6.984 L113.426,8.458 C114.724,8.37 116,8.194 117.254,7.974 L117.254,10.966 L112.876,10.966 L112.876,12.484 L117.254,12.484 L117.254,12.528 C116.286,15.058 114.658,17.324 112.392,19.304 L113.096,21.13 C114.812,19.392 116.198,17.456 117.254,15.322 L117.254,25.2 L118.86,25.2 Z M126.34,20.69 L126.34,7.094 L124.756,7.094 L124.756,20.69 L126.34,20.69 Z" fill="#271B1B" fill-rule="nonzero"></path>
                <rect id="矩形" fill="#2F6ED1" x="0" y="12.8" width="25.6" height="4.8" rx="2.4"></rect>
                <rect id="矩形" fill="#2F6ED1" x="153.6" y="12.8" width="25.6" height="4.8" rx="2.4"></rect>
            </g>
        </g>
    </g>
</svg>