<?xml version="1.0" encoding="UTF-8"?>
<svg width="180px" height="30px" viewBox="0 0 180 30" version="1.1" xmlns="http://www.w3.org/2000/svg" xmlns:xlink="http://www.w3.org/1999/xlink">
    <title>兑换说明</title>
    <g id="页面-1" stroke="none" stroke-width="1" fill="none" fill-rule="evenodd">
        <g id="个人中心-特权兑换" transform="translate(-645.000000, -609.000000)">
            <g id="兑换说明" transform="translate(645.000000, 609.000000)">
                <path d="M47.91,25.288 C52.398,23.572 54.774,20.844 55.082,17.06 L58.382,17.06 L58.382,22.67 C58.382,24.144 59.02,24.892 60.34,24.892 L64.014,24.892 C64.762,24.892 65.29,24.716 65.62,24.364 C66.016,23.946 66.28,22.78 66.412,20.844 L64.894,20.36 C64.85,21.812 64.718,22.692 64.52,23 C64.366,23.264 64.102,23.396 63.728,23.396 L60.846,23.396 C60.252,23.396 59.966,23.044 59.966,22.34 L59.966,17.06 L63.354,17.06 L63.354,9.712 L59.658,9.712 C60.582,8.458 61.44,7.05 62.188,5.466 L60.582,4.916 C59.834,6.632 58.976,8.216 57.964,9.712 L49.912,9.712 L49.912,17.06 L53.586,17.06 C53.3,20.228 51.1,22.494 47.008,23.88 L47.91,25.288 Z M53.388,9.624 L54.796,8.92 C54.048,7.512 53.278,6.236 52.442,5.048 L51.056,5.708 C51.892,6.852 52.662,8.172 53.388,9.624 Z M61.814,15.586 L51.452,15.586 L51.452,11.208 L61.814,11.208 L61.814,15.586 Z M88.104,25.288 L88.83,23.792 C86.234,22.516 84.342,20.778 83.176,18.534 L88.72,18.534 L88.72,17.082 L87.334,17.082 L87.334,11.098 L83.44,11.098 C84.1,10.196 84.76,9.096 85.398,7.82 L85.398,6.676 L80.734,6.676 C80.998,6.17 81.218,5.642 81.416,5.092 L79.876,4.894 C79.084,6.984 77.588,8.766 75.388,10.218 L76.312,11.45 C77.764,10.46 78.974,9.316 79.898,8.04 L83.726,8.04 C83.11,9.206 82.472,10.218 81.834,11.098 L76.818,11.098 L76.818,17.082 L75.256,17.082 L75.256,18.534 L80.382,18.534 C79.502,20.734 77.566,22.538 74.574,23.946 L75.608,25.266 C78.864,23.55 80.954,21.416 81.878,18.864 C83.11,21.504 85.2,23.66 88.104,25.288 Z M71.054,24.958 C72.33,24.958 72.968,24.298 72.968,23 L72.968,16.642 C73.76,16.29 74.53,15.894 75.3,15.498 L75.3,13.892 C74.53,14.332 73.76,14.728 72.968,15.08 L72.968,10.592 L75.212,10.592 L75.212,9.074 L72.968,9.074 L72.968,5.048 L71.384,5.048 L71.384,9.074 L68.766,9.074 L68.766,10.592 L71.384,10.592 L71.384,15.718 C70.394,16.092 69.382,16.4 68.348,16.664 L68.744,18.248 C69.624,17.962 70.504,17.654 71.384,17.302 L71.384,22.604 C71.384,23.22 71.076,23.55 70.504,23.55 C69.976,23.55 69.426,23.506 68.854,23.44 L69.184,24.958 L71.054,24.958 Z M80.822,17.082 L78.226,17.082 L78.226,12.484 L81.284,12.484 C81.24,14.266 81.086,15.806 80.822,17.082 Z M85.926,17.082 L82.34,17.082 C82.56,15.85 82.692,14.31 82.736,12.484 L85.926,12.484 L85.926,17.082 Z M97.476,25.222 C100.644,23.418 102.338,20.558 102.602,16.642 L104.714,16.642 L104.714,22.934 C104.714,24.21 105.308,24.848 106.518,24.848 L108.542,24.848 C109.246,24.848 109.774,24.65 110.126,24.254 C110.5,23.814 110.764,22.538 110.896,20.426 L109.466,19.986 C109.4,21.636 109.268,22.626 109.048,22.978 C108.894,23.264 108.63,23.418 108.256,23.418 L106.958,23.418 C106.474,23.418 106.232,23.132 106.232,22.604 L106.232,16.642 L109.202,16.642 L109.202,9.69 L106.1,9.69 C106.958,8.414 107.728,6.984 108.41,5.356 L106.892,4.828 C106.21,6.566 105.418,8.194 104.494,9.69 L98.312,9.69 L98.312,16.642 L101.172,16.642 C100.952,19.986 99.434,22.406 96.618,23.88 L97.476,25.222 Z M101.282,9.206 L102.602,8.546 C101.898,7.226 101.128,6.038 100.314,4.938 L98.906,5.598 C99.742,6.654 100.534,7.864 101.282,9.206 Z M95.804,9.69 L96.882,8.59 C95.87,7.49 94.66,6.39 93.208,5.29 L92.108,6.368 C93.67,7.534 94.902,8.634 95.804,9.69 Z M107.728,15.19 L99.808,15.19 L99.808,11.142 L107.728,11.142 L107.728,15.19 Z M93.89,24.386 C95.342,23.396 96.706,22.274 97.982,20.998 L97.564,19.326 C96.75,20.14 95.98,20.866 95.276,21.482 L95.276,11.758 L90.524,11.758 L90.524,13.276 L93.758,13.276 L93.758,21.922 C93.758,22.318 93.582,22.67 93.274,22.978 L93.89,24.386 Z M121.324,25.288 C122.776,23.352 123.634,20.888 123.92,17.896 L129.838,17.896 L129.838,22.428 C129.838,23.154 129.53,23.528 128.914,23.528 C128.056,23.528 127.132,23.484 126.12,23.44 L126.538,25.002 L129.42,25.002 C130.762,25.002 131.444,24.32 131.444,23 L131.444,5.752 L122.424,5.752 L122.424,16.136 C122.38,19.37 121.61,22.032 120.07,24.144 L121.324,25.288 Z M115.076,23.198 L115.076,21.46 L120.026,21.46 L120.026,6.28 L113.492,6.28 L113.492,23.198 L115.076,23.198 Z M129.838,11.142 L124.008,11.142 L124.008,7.27 L129.838,7.27 L129.838,11.142 Z M118.508,12.99 L115.076,12.99 L115.076,7.842 L118.508,7.842 L118.508,12.99 Z M129.838,16.422 L124.008,16.422 L124.008,12.616 L129.838,12.616 L129.838,16.422 Z M118.508,19.898 L115.076,19.898 L115.076,14.508 L118.508,14.508 L118.508,19.898 Z" fill="#271B1B" fill-rule="nonzero"></path>
                <rect id="矩形" fill="#2F6ED1" x="-7.28306304e-13" y="12.8" width="25.6" height="4.8" rx="2.4"></rect>
                <rect id="矩形" fill="#2F6ED1" x="153.6" y="12.8" width="25.6" height="4.8" rx="2.4"></rect>
            </g>
        </g>
    </g>
</svg>