<?xml version="1.0" encoding="UTF-8"?>
<svg width="36px" height="36px" viewBox="0 0 36 36" version="1.1" xmlns="http://www.w3.org/2000/svg" xmlns:xlink="http://www.w3.org/1999/xlink">
    <title>编组</title>
    <g id="页面-1" stroke="none" stroke-width="1" fill="none" fill-rule="evenodd">
        <g id="会员兑换页-登陆后2" transform="translate(-617.000000, -469.000000)" fill="#C3C4C7" fill-rule="nonzero">
            <g id="modal/alert/customized" transform="translate(65.000000, 437.000000)">
                <g id="编组" transform="translate(552.000000, 32.000000)">
                    <path d="M21.3415179,17.9200893 L34.6165179,31.184375 C35.5040477,32.1177914 35.5040477,33.5831014 34.6165179,34.5165179 C33.6823812,35.402243 32.2185117,35.402243 31.284375,34.5165179 L18.009375,21.2522321 L4.17723214,35.084375 C3.21483378,35.999569 1.70391622,35.999569 0.741517857,35.084375 C-0.173676178,34.1219766 -0.173676178,32.6110591 0.741517857,31.6486607 L14.5736607,17.8165179 L1.29508929,4.54508929 C0.409821083,3.61215019 0.409821083,2.14945695 1.29508929,1.21651786 C2.22922596,0.330792683 3.69309546,0.330792683 4.62723214,1.21651786 L17.9058036,14.484375 L31.6486607,0.741517857 C32.6110591,-0.173676178 34.1219766,-0.173676178 35.084375,0.741517857 C35.999569,1.70391622 35.999569,3.21483378 35.084375,4.17723214 L21.3415179,17.9200893 Z" id="路径"></path>
                </g>
            </g>
        </g>
    </g>
</svg>