<?xml version="1.0" encoding="UTF-8"?>
<svg width="44px" height="34px" viewBox="0 0 44 34" version="1.1" xmlns="http://www.w3.org/2000/svg" xmlns:xlink="http://www.w3.org/1999/xlink">
    <!-- Generator: Sketch 49.3 (51167) - http://www.bohemiancoding.com/sketch -->
    <title>00</title>
    <desc>Created with Sketch.</desc>
    <defs></defs>
    <g id="00" stroke="none" stroke-width="1" fill="none" fill-rule="evenodd">
        <g fill="#63B9FD" id="Combined-Shape">
            <path d="M6,2 L38,2 C40.209139,2 42,3.790861 42,6 L42,28 C42,30.209139 40.209139,32 38,32 L6,32 C3.790861,32 2,30.209139 2,28 L2,6 C2,3.790861 3.790861,2 6,2 Z M16,22 L18,22 L15,12 L12,12 L9,22 L11,22 L12,20 L15,20 L16,22 Z M13.5,14 L15,18 L12,18 L13.5,14 Z M26,20 L22.0615234,20 L22.0615234,12 L19.9970703,12 L19.9970703,22 L26,22 L26,20 Z M34,20 L30,20 L30,12.1357422 L28,12.1357422 L28,22 L34,22 L34,20 Z"></path>
        </g>
    </g>
</svg>