<?xml version="1.0" encoding="UTF-8"?>
<svg width="44px" height="34px" viewBox="0 0 44 34" version="1.1" xmlns="http://www.w3.org/2000/svg" xmlns:xlink="http://www.w3.org/1999/xlink">
    <!-- Generator: Sketch 49.3 (51167) - http://www.bohemiancoding.com/sketch -->
    <title>22</title>
    <desc>Created with Sketch.</desc>
    <defs></defs>
    <g id="22" stroke="none" stroke-width="1" fill="none" fill-rule="evenodd">
        <g fill-rule="nonzero" id="Group">
            <g transform="translate(7.000000, 2.000000)">
                <path d="M24.7794182,3.87096774 L15.483871,16.1719648 L25.4769785,26.1290323 C28.2692417,23.3713496 30,19.5484642 30,15.3218975 C29.9995956,10.7549011 27.9776817,6.66047757 24.7794182,3.87096774 Z" id="Shape" fill="#2DA1FC" opacity="0.800000012"></path>
                <path d="M14.0317534,16.4536271 C14.0258397,16.4476615 14.0215029,16.4405027 14.0155892,16.4341394 C13.9978479,16.4150493 13.9824722,16.3947661 13.9667022,16.374483 C13.9556632,16.3601654 13.9426529,16.347041 13.9327967,16.3319281 C13.9280657,16.3247693 13.9245174,16.3172129 13.9201807,16.3096564 C13.9071704,16.2881801 13.8965257,16.2663061 13.8854867,16.2436367 C13.8772074,16.2273306 13.8673512,16.2122176 13.8606489,16.1951161 C13.8571007,16.1867642 13.8551294,16.1780146 13.8523697,16.1700605 C13.8440904,16.1469933 13.8377824,16.1235285 13.8314744,16.1000636 C13.8263491,16.0821667 13.8196469,16.0650652 13.8160986,16.0467706 C13.8145216,16.0384187 13.8145216,16.0304645 13.8129446,16.0221126 C13.8086079,15.997057 13.8074251,15.9712059 13.8054539,15.9457525 C13.8042711,15.9278556 13.8003286,15.9103563 13.8003286,15.8924594 C13.8003286,15.891664 13.8003286,15.8912663 13.8003286,15.8908686 L13.8003286,0 C6.08603798,0.564349348 0,7.05178174 0,14.9777283 C0,23.2743398 6.66716255,30 14.8916128,30 C18.4118714,30 21.6443276,28.7651129 24.1935484,26.7049793 L14.0317534,16.4536271 Z" id="Shape" fill="#B3DDFF"></path>
                <path d="M15,0 L15,14 L23.2258065,2.72368174 C21.0227337,1.09010926 17.8777142,0.097473273 15,0 Z" id="Shape" fill="#B3DDFF"></path>
            </g>
        </g>
    </g>
</svg>