<?xml version="1.0" encoding="UTF-8"?>
<svg width="44px" height="34px" viewBox="0 0 44 34" version="1.1" xmlns="http://www.w3.org/2000/svg" xmlns:xlink="http://www.w3.org/1999/xlink">
    <!-- Generator: Sketch 49.3 (51167) - http://www.bohemiancoding.com/sketch -->
    <title>1414</title>
    <desc>Created with Sketch.</desc>
    <defs></defs>
    <g id="1414" stroke="none" stroke-width="1" fill="none" fill-rule="evenodd">
        <g id="Group-8">
            <g transform="translate(4.000000, 5.000000)">
                <path d="M4.96305885,13.0307993 L7.24696471,13.3253768 C7.12101077,13.8655784 6.91439897,14.3331508 6.62730672,14.7282083 C6.34009624,15.1232657 5.97317405,15.4302531 5.52665842,15.6489415 C5.08014279,15.86763 4.51258127,15.9769742 3.82415124,15.9769742 C3.15919717,15.9769742 2.60547286,15.9067468 2.16286002,15.7662921 C1.72024718,15.6258374 1.33960605,15.3983991 1.02093665,15.0838629 C0.702267238,14.7694983 0.452369864,14.4004615 0.271481046,13.9767526 C0.090473996,13.5530437 0,12.9910533 0,12.2908385 C0,11.5593989 0.110106217,10.9505711 0.330496056,10.4643554 C0.491752596,10.1075569 0.712083319,9.78764501 0.991488227,9.50439083 C1.27077485,9.22119388 1.5580445,9.01045458 1.85306055,8.87217305 C2.32121897,8.65371333 2.92124468,8.54436913 3.65301939,8.54436913 C4.67590743,8.54436913 5.45587576,8.75190583 5.9929245,9.16709363 C6.52991412,9.58222426 6.90659329,10.1893363 7.12302122,10.9884299 L4.86276866,11.3299018 C4.79198606,11.026403 4.66307547,10.7975922 4.47627336,10.6435838 C4.28935295,10.4895754 4.03850944,10.4125426 3.72380199,10.4125426 C3.32642612,10.4125426 3.00480007,10.5740999 2.75892377,10.8971572 C2.51304747,11.2202145 2.39010929,11.7092896 2.39010929,12.3643256 C2.39010929,12.9481049 2.51204216,13.3914293 2.75596706,13.6944135 C2.99989197,13.9973977 3.31069663,14.148947 3.68844022,14.148947 C4.00308855,14.148947 4.26765099,14.0575027 4.48218665,13.8743854 C4.69648591,13.6915541 4.85685542,13.4103016 4.96305885,13.0307993 Z M8.12036374,6 L10.5280947,6 L10.5280947,15.8163892 L8.12036374,15.8163892 L8.12036374,6 Z M11.7674107,12.2808306 C11.7674107,11.196081 12.0899829,10.3021691 12.7352457,9.59909482 C13.3804492,8.89602063 14.2518968,8.54448348 15.3495885,8.54448348 C16.6045747,8.54448348 17.5527773,8.95744092 18.1940781,9.78324148 C18.709425,10.448457 18.967187,11.2675664 18.967187,12.2406843 C18.967187,13.3344125 18.6475124,14.2305548 18.0082221,14.9291111 C17.3688727,15.627839 16.4846523,15.9770314 15.3555018,15.9770314 C14.3482841,15.9770314 13.5339592,15.6869146 12.9122907,15.1065667 C12.148998,14.3878801 11.7674107,13.4459871 11.7674107,12.2808306 Z M14.17526,12.2741396 C14.17526,12.908073 14.2882638,13.3767892 14.514567,13.680288 C14.7407519,13.9839013 15.0250057,14.1356221 15.3673285,14.1356221 C15.7134357,14.1356221 15.9977487,13.9860744 16.2200308,13.6869791 C16.4422538,13.3879409 16.5534244,12.9080731 16.5534244,12.2473754 C16.5534244,11.631342 16.4413076,11.172691 16.2170741,10.8713653 C15.9928406,10.5700396 15.7154462,10.4194054 15.3849501,10.4194054 C15.0347035,10.4194054 14.7456007,10.5723272 14.5174053,10.8780564 C14.2893281,11.1838427 14.17526,11.6492419 14.17526,12.2741396 Z M24.4849754,15.816332 L24.4849754,14.6646147 C24.1505765,15.1378488 23.813221,15.47486 23.4729088,15.6757057 C23.1325966,15.8765513 22.7145832,15.9769742 22.2188686,15.9769742 C21.5579356,15.9769742 21.0395139,15.7526813 20.66384,15.3040383 C20.2881069,14.8553381 20.1002995,14.1646165 20.1002995,13.2315878 L20.1002995,8.70512575 L22.514003,8.70512575 L22.514003,12.6155543 C22.514003,13.0620241 22.586737,13.3789051 22.7323231,13.5663687 C22.8778502,13.7538894 23.0824515,13.8476212 23.3461269,13.8476212 C23.6332782,13.8476212 23.8683923,13.7227217 24.0513508,13.4726369 C24.2343092,13.2227236 24.3257885,12.7740805 24.3257885,12.126765 L24.3257885,8.70512575 L26.7276653,8.70512575 L26.7276653,15.816332 L24.4849754,15.816332 Z M35,6 L35,15.8389316 L32.9259708,15.8389316 L32.9259708,14.7852803 C32.6355641,15.2327754 32.3707399,15.5347358 32.1311708,15.6912759 C31.8117998,15.8970538 31.4562099,16 31.0642373,16 C30.2767466,16 29.6752056,15.6308609 29.2596688,14.8926402 C28.8440775,14.154362 28.6363636,13.2573083 28.6363636,12.2013642 C28.6363636,11.0201765 28.8658416,10.1164163 29.3249612,9.48996904 C29.7840262,8.86357905 30.3674577,8.55038405 31.0751466,8.55038405 C31.4198818,8.55038405 31.7328707,8.62197637 32.0141681,8.76510375 C32.2953563,8.90834575 32.5449075,9.12312281 32.7626033,9.40943484 L32.7626033,6 L35,6 Z M32.672376,12.0821998 C32.672376,11.5774664 32.5532267,11.200921 32.3150631,10.9525635 C32.0767645,10.7042576 31.7757841,10.5801047 31.4117843,10.5801047 C31.0926343,10.5801047 30.8253589,10.6992398 30.6096203,10.9374582 C30.3938142,11.1757283 30.2860124,11.5755007 30.2860124,12.1367236 C30.2860124,12.6616835 30.3972589,13.0462989 30.6197521,13.2905698 C30.8421776,13.5349441 31.1173558,13.6570278 31.4454217,13.6570278 C31.7959801,13.6570278 32.088112,13.5339095 32.3217501,13.2875694 C32.5554557,13.041281 32.672376,12.6394395 32.672376,12.0821998 Z" id="Shape" fill="#C1E3FE" fill-rule="nonzero"></path>
                <path d="M1,0 L2.3602812,0 L2.85061511,2.19865772 L3.5655536,0 L4.92267135,0 L5.64077329,2.19865772 L6.13110721,0 L7.48506151,0 L6.46326889,3.93557047 L5.05869947,3.93557047 L4.2456942,1.45771812 L3.43585237,3.93557047 L2.03128295,3.93557047 L1,0 Z M7.71282953,2.51812081 C7.71282953,2.0832193 7.88576277,1.72483362 8.23163445,1.44295302 C8.57750612,1.16107242 9.04463678,1.02013423 9.63304042,1.02013423 C10.305803,1.02013423 10.814058,1.18568067 11.1578207,1.51677852 C11.4340963,1.78344652 11.572232,2.11185487 11.572232,2.50201342 C11.572232,2.94049436 11.4008804,3.29977489 11.0581722,3.57986577 C10.715464,3.85995666 10.2414793,4 9.63620387,4 C9.09630662,4 8.65975562,3.88367007 8.32653779,3.65100671 C7.9173969,3.36286209 7.71282953,2.98523723 7.71282953,2.51812081 Z M9.00351494,2.51543624 C9.00351494,2.76957621 9.06414702,2.9574938 9.18541301,3.07919463 C9.30667899,3.20089546 9.45905005,3.26174497 9.64253076,3.26174497 C9.82812044,3.26174497 9.9804915,3.20179031 10.0996485,3.08187919 C10.2188055,2.96196808 10.2783831,2.76957627 10.2783831,2.50469799 C10.2783831,2.25771689 10.2182783,2.07382611 10.0980668,1.95302013 C9.97785529,1.83221416 9.82917488,1.77181208 9.65202109,1.77181208 C9.46432244,1.77181208 9.3093152,1.83310901 9.18699473,1.9557047 C9.06467426,2.07830039 9.00351494,2.2648757 9.00351494,2.51543624 Z M12.2049209,1.08456376 L13.4101933,1.08456376 L13.4101933,1.55167785 C13.5261869,1.3494397 13.6458693,1.21029121 13.7692443,1.13422819 C13.8926192,1.05816517 14.0449903,1.02013423 14.226362,1.02013423 C14.4161697,1.02013423 14.6239005,1.07024558 14.8495606,1.1704698 L14.4509666,1.94899329 C14.2991205,1.89530174 14.1789108,1.86845638 14.0903339,1.86845638 C13.921616,1.86845638 13.7908616,1.92751619 13.6980668,2.04563758 C13.5652014,2.21208137 13.4987698,2.52348765 13.4987698,2.97986577 L13.4987698,3.93557047 L12.2049209,3.93557047 L12.2049209,1.08456376 Z M15.0678383,0 L16.3838313,0 L16.3838313,2.0295302 L17.3455185,1.08456376 L18.9304042,1.08456376 L17.7251318,2.08322148 L19,3.93557047 L17.5479789,3.93557047 L16.8678383,2.79194631 L16.3838313,3.19463087 L16.3838313,3.93557047 L15.0678383,3.93557047 L15.0678383,0 Z" id="Work" fill="#3CA8FD" opacity="0.800000012"></path>
                <path d="M19,0 L21.1501597,0 C21.574017,0 21.9163991,0.0483216644 22.1773163,0.144966443 C22.4382335,0.241611221 22.6538863,0.380312295 22.8242812,0.561073826 C22.994676,0.741835356 23.1182105,0.952124081 23.1948882,1.19194631 C23.2715659,1.43176854 23.3099042,1.6859047 23.3099042,1.95436242 C23.3099042,2.37494617 23.2529292,2.70111741 23.1389776,2.93288591 C23.0250261,3.1646544 22.8668807,3.35883591 22.6645367,3.51543624 C22.4621928,3.67203658 22.2449426,3.77628609 22.0127796,3.82818792 C21.6954191,3.89977664 21.407882,3.93557047 21.1501597,3.93557047 L19,3.93557047 L19,0 Z M20.4472843,0.891275168 L20.4472843,3.04161074 L20.8019169,3.04161074 C21.1043679,3.04161074 21.3194882,3.0134231 21.4472843,2.95704698 C21.5750805,2.90067086 21.675186,2.80223784 21.7476038,2.66174497 C21.8200217,2.52125209 21.85623,2.29351388 21.85623,1.97852349 C21.85623,1.56151917 21.7752937,1.27606341 21.6134185,1.12214765 C21.4515434,0.968231893 21.1831755,0.891275168 20.8083067,0.891275168 L20.4472843,0.891275168 Z M25.1693291,2.00805369 L23.9265176,1.89798658 C23.9733762,1.71543533 24.0410006,1.5718126 24.129393,1.46711409 C24.2177853,1.36241558 24.3450471,1.27158875 24.5111821,1.19463087 C24.6304585,1.13914961 24.7944612,1.09619702 25.0031949,1.06577181 C25.2119286,1.0353466 25.4376985,1.02013423 25.6805112,1.02013423 C26.0702895,1.02013423 26.3833854,1.03847856 26.6198083,1.07516779 C26.8562312,1.11185701 27.0532473,1.18836631 27.2108626,1.30469799 C27.3216193,1.3852353 27.4089454,1.49932812 27.4728435,1.64697987 C27.5367415,1.79463161 27.5686901,1.9355698 27.5686901,2.06979866 L27.5686901,3.32885906 C27.5686901,3.46308792 27.5788071,3.56823228 27.5990415,3.6442953 C27.6192759,3.72035832 27.6634714,3.81744907 27.7316294,3.93557047 L26.5111821,3.93557047 C26.4621936,3.86219203 26.430245,3.80626417 26.4153355,3.76778523 C26.4004259,3.7293063 26.3855166,3.66890421 26.370607,3.58657718 C26.2002121,3.72438548 26.0308848,3.8228185 25.8626198,3.88187919 C25.6325867,3.96062679 25.3652837,4 25.0607029,4 C24.656015,4 24.3487763,3.92125358 24.1389776,3.76375839 C23.9291789,3.60626319 23.8242812,3.41208169 23.8242812,3.18120805 C23.8242812,2.96465216 23.8998927,2.78657788 24.0511182,2.64697987 C24.2023437,2.50738185 24.4813611,2.40357976 24.8881789,2.33557047 C25.3759343,2.25324344 25.692225,2.19552589 25.8370607,2.16241611 C25.9818964,2.12930632 26.1352495,2.08590631 26.2971246,2.03221477 C26.2971246,1.89798591 26.2641111,1.80402711 26.1980831,1.75033557 C26.132055,1.69664403 26.0159753,1.66979866 25.8498403,1.66979866 C25.6368466,1.66979866 25.4771038,1.69843372 25.370607,1.7557047 C25.2875395,1.80044765 25.2204475,1.88456314 25.1693291,2.00805369 Z M26.2971246,2.58255034 C26.11821,2.63624188 25.9318434,2.6836687 25.7380192,2.72483221 C25.4739071,2.78389291 25.3067096,2.84205788 25.2364217,2.89932886 C25.1640039,2.95838956 25.1277955,3.02550298 25.1277955,3.10067114 C25.1277955,3.18657761 25.1634714,3.25682299 25.2348243,3.3114094 C25.3061771,3.3659958 25.4110749,3.39328859 25.5495208,3.39328859 C25.6943564,3.39328859 25.8290729,3.36375868 25.9536741,3.30469799 C26.0782754,3.24563729 26.1666664,3.17360221 26.2188498,3.0885906 C26.2710333,3.00357899 26.2971246,2.89306556 26.2971246,2.75704698 L26.2971246,2.58255034 Z M29.9169329,0 L29.9169329,1.08456376 L30.6325879,1.08456376 L30.6325879,1.88187919 L29.9169329,1.88187919 L29.9169329,2.89395973 C29.9169329,3.01566056 29.9307773,3.09619667 29.9584665,3.13557047 C30.0010652,3.19642089 30.0756118,3.22684564 30.1821086,3.22684564 C30.2779558,3.22684564 30.4121397,3.20357965 30.5846645,3.15704698 L30.6805112,3.9114094 C30.3588908,3.97047009 30.0585743,4 29.7795527,4 C29.4558024,4 29.2172532,3.96510102 29.0638978,3.89530201 C28.9105424,3.82550301 28.797125,3.7194638 28.7236422,3.57718121 C28.6501594,3.43489862 28.6134185,3.20447587 28.6134185,2.88590604 L28.6134185,1.88187919 L28.1341853,1.88187919 L28.1341853,1.08456376 L28.6134185,1.08456376 L28.6134185,0.561073826 L29.9169329,0 Z M32.4376997,2.00805369 L31.1948882,1.89798658 C31.2417468,1.71543533 31.3093712,1.5718126 31.3977636,1.46711409 C31.4861559,1.36241558 31.6134177,1.27158875 31.7795527,1.19463087 C31.8988291,1.13914961 32.0628318,1.09619702 32.2715655,1.06577181 C32.4802992,1.0353466 32.7060691,1.02013423 32.9488818,1.02013423 C33.3386601,1.02013423 33.651756,1.03847856 33.8881789,1.07516779 C34.1246018,1.11185701 34.321618,1.18836631 34.4792332,1.30469799 C34.5899899,1.3852353 34.677316,1.49932812 34.7412141,1.64697987 C34.8051121,1.79463161 34.8370607,1.9355698 34.8370607,2.06979866 L34.8370607,3.32885906 C34.8370607,3.46308792 34.8471777,3.56823228 34.8674121,3.6442953 C34.8876465,3.72035832 34.931842,3.81744907 35,3.93557047 L33.7795527,3.93557047 C33.7305642,3.86219203 33.6986156,3.80626417 33.6837061,3.76778523 C33.6687965,3.7293063 33.6538872,3.66890421 33.6389776,3.58657718 C33.4685827,3.72438548 33.2992554,3.8228185 33.1309904,3.88187919 C32.9009573,3.96062679 32.6336543,4 32.3290735,4 C31.9243856,4 31.6171469,3.92125358 31.4073482,3.76375839 C31.1975495,3.60626319 31.0926518,3.41208169 31.0926518,3.18120805 C31.0926518,2.96465216 31.1682634,2.78657788 31.3194888,2.64697987 C31.4707143,2.50738185 31.7497317,2.40357976 32.1565495,2.33557047 C32.6443049,2.25324344 32.9605957,2.19552589 33.1054313,2.16241611 C33.250267,2.12930632 33.4036201,2.08590631 33.5654952,2.03221477 C33.5654952,1.89798591 33.5324817,1.80402711 33.4664537,1.75033557 C33.4004257,1.69664403 33.2843459,1.66979866 33.1182109,1.66979866 C32.9052173,1.66979866 32.7454744,1.69843372 32.6389776,1.7557047 C32.5559101,1.80044765 32.4888181,1.88456314 32.4376997,2.00805369 Z M33.5654952,2.58255034 C33.3865806,2.63624188 33.200214,2.6836687 33.0063898,2.72483221 C32.7422777,2.78389291 32.5750802,2.84205788 32.5047923,2.89932886 C32.4323745,2.95838956 32.3961661,3.02550298 32.3961661,3.10067114 C32.3961661,3.18657761 32.431842,3.25682299 32.5031949,3.3114094 C32.5745477,3.3659958 32.6794455,3.39328859 32.8178914,3.39328859 C32.962727,3.39328859 33.0974435,3.36375868 33.2220447,3.30469799 C33.346646,3.24563729 33.435037,3.17360221 33.4872204,3.0885906 C33.5394039,3.00357899 33.5654952,2.89306556 33.5654952,2.75704698 L33.5654952,2.58255034 Z" id="Data" fill="#C1E3FE"></path>
                <path d="M12.174462,22.8713759 L10.6144407,22.8713759 L10.3997866,23.6367949 L9,23.6367949 L10.6658367,19 L12.1593455,19 L13.8251823,23.6367949 L12.3921394,23.6367949 L12.174462,22.8713759 Z M11.8872488,21.8687401 L11.3974747,20.2018977 L10.9107238,21.8687401 L11.8872488,21.8687401 Z M16.416148,20.2778071 L17.5680242,20.2778071 L17.5680242,23.4501845 L17.5710475,23.5988403 C17.5710475,23.8097006 17.5282179,24.010542 17.4425574,24.2013706 C17.3568968,24.3921992 17.2430205,24.546652 17.1009248,24.6647338 C16.9588291,24.7828156 16.7784408,24.8682127 16.5597546,24.9209278 C16.3410683,24.9736429 16.090641,25 15.8084652,25 C15.1634919,25 14.7205833,24.8987886 14.4797261,24.6963627 C14.2388689,24.4939368 14.1184421,24.2229854 14.1184421,23.8835003 C14.1184421,23.8413282 14.1204576,23.7843968 14.1244887,23.7127043 L15.3186911,23.8550343 C15.3489242,23.9710074 15.395281,24.0511331 15.4577628,24.0954138 C15.5484621,24.1607805 15.6623385,24.1934634 15.7993953,24.1934634 C15.976763,24.1934634 16.1092829,24.1439119 16.1969589,24.0448076 C16.284635,23.9457032 16.3284723,23.7728004 16.3284723,23.5260938 L16.3284723,23.0168687 C16.2075399,23.1665796 16.0866092,23.275171 15.9656767,23.3426463 C15.7762158,23.4480764 15.5716414,23.5007907 15.3519474,23.5007907 C14.922637,23.5007907 14.5759691,23.3046936 14.3119331,22.9124934 C14.1244878,22.6341578 14.0307665,22.2662121 14.0307665,21.8086452 C14.0307665,21.2857117 14.1516972,20.8871917 14.3935622,20.6130733 C14.6354271,20.3389549 14.9518624,20.2018977 15.3428775,20.2018977 C15.5928046,20.2018977 15.7988906,20.2461777 15.9611417,20.3347391 C16.1233928,20.4233004 16.2750601,20.5698461 16.416148,20.7743806 L16.416148,20.2778071 Z M15.2582251,21.9066948 C15.2582251,22.1491841 15.3076052,22.3289398 15.4063667,22.4459673 C15.5051282,22.5629948 15.6351287,22.6215076 15.796372,22.6215076 C15.9495532,22.6215076 16.078042,22.5608862 16.1818424,22.4396415 C16.2856428,22.3183969 16.3375422,22.1354783 16.3375422,21.8908803 C16.3375422,21.6462824 16.2831234,21.4591467 16.1742842,21.3294676 C16.0654449,21.1997885 15.9324212,21.1349499 15.775209,21.1349499 C15.6179967,21.1349499 15.4925311,21.1945171 15.3988085,21.3136531 C15.3050858,21.4327892 15.2582251,21.6304678 15.2582251,21.9066948 Z M18.3571047,19 L19.5875867,19 L19.5875867,19.8761202 L18.3571047,19.8761202 L18.3571047,19 Z M18.3571047,20.2778071 L19.5875867,20.2778071 L19.5875867,23.6367949 L18.3571047,23.6367949 L18.3571047,20.2778071 Z M20.4159701,19 L21.6494754,19 L21.6494754,23.6367949 L20.4159701,23.6367949 L20.4159701,19 Z M26,22.2767528 L23.5329895,22.2767528 C23.5551605,22.4833959 23.6085715,22.6373216 23.6932243,22.7385345 C23.8121412,22.8840281 23.9673356,22.9567739 24.158812,22.9567739 C24.2797445,22.9567739 24.3946287,22.9251453 24.5034679,22.8618872 C24.5699808,22.8218237 24.6415314,22.7511866 24.718122,22.6499736 L25.9304642,22.7670005 C25.7450343,23.104377 25.5213126,23.3463356 25.2592922,23.4928835 C24.9972718,23.6394314 24.6213789,23.7127043 24.1316023,23.7127043 C23.7063231,23.7127043 23.3717482,23.6499743 23.1278677,23.5245124 C22.8839872,23.3990505 22.6819322,23.1997905 22.5216966,22.9267264 C22.3614611,22.6536623 22.2813445,22.3326323 22.2813445,21.9636268 C22.2813445,21.4385846 22.4420815,21.0137075 22.7635604,20.6889826 C23.0850393,20.3642577 23.5289556,20.2018977 24.0953228,20.2018977 C24.5548662,20.2018977 24.9176583,20.2746434 25.1837098,20.4201371 C25.4497612,20.5656307 25.6523201,20.7764878 25.7913925,21.0527148 C25.9304649,21.3289418 26,21.6884532 26,22.1312599 L26,22.2767528 Z M24.748355,21.6599895 C24.7241685,21.4111743 24.660176,21.233 24.5563756,21.1254613 C24.4525752,21.0179225 24.3160243,20.9641539 24.1467188,20.9641539 C23.9512113,20.9641539 23.7950092,21.0453339 23.6781078,21.2076964 C23.6035327,21.3089093 23.5561682,21.4596722 23.5360128,21.6599895 L24.748355,21.6599895 Z" id="Agile" fill="#C1E3FE"></path>
                <path d="M28,19 L30.5606442,19 C30.9874204,19 31.3150467,19.095497 31.543533,19.2864939 C31.7720193,19.4774907 31.8862607,19.7139595 31.8862607,19.9959072 C31.8862607,20.2323795 31.8047316,20.435197 31.6416709,20.6043656 C31.5329637,20.7171447 31.3739316,20.8062753 31.1645697,20.8717599 C31.4826387,20.9408826 31.7166575,21.0595717 31.8666331,21.2278308 C32.0166087,21.39609 32.0915954,21.6075476 32.0915954,21.8622101 C32.0915954,22.0695781 32.0382491,22.2560246 31.9315551,22.4215553 C31.8248611,22.5870859 31.6789139,22.7180532 31.4937091,22.8144611 C31.3789627,22.8744887 31.2058391,22.9181445 30.9743332,22.9454297 C30.6663296,22.9818101 30.4620035,23 30.3613488,23 L28,23 L28,19 Z M29.3799698,20.568895 L29.9748364,20.568895 C30.1882245,20.568895 30.3366881,20.5356984 30.4202315,20.4693042 C30.503775,20.4029101 30.545546,20.3069583 30.545546,20.1814461 C30.545546,20.065029 30.503775,19.9740795 30.4202315,19.9085948 C30.3366881,19.8431102 30.1912441,19.8103683 29.9838953,19.8103683 L29.3799698,19.8103683 L29.3799698,20.568895 Z M29.3799698,22.1405184 L30.0775038,22.1405184 C30.3130359,22.1405184 30.4791138,22.1027744 30.5757423,22.0272851 C30.6723709,21.9517959 30.7206844,21.8503872 30.7206844,21.7230559 C30.7206844,21.6048198 30.6728742,21.5097775 30.5772521,21.4379263 C30.4816301,21.3660751 30.3140425,21.3301501 30.0744841,21.3301501 L29.3799698,21.3301501 L29.3799698,22.1405184 Z M32.7710116,19 L34,19 L34,19.7557981 L32.7710116,19.7557981 L32.7710116,19 Z M32.7710116,20.1023192 L34,20.1023192 L34,23 L32.7710116,23 L32.7710116,20.1023192 Z" id="Bi" fill="#3CA8FD" opacity="0.800000012"></path>
            </g>
        </g>
    </g>
</svg>