<?xml version="1.0" encoding="UTF-8"?>
<svg width="16px" height="16px" viewBox="0 0 16 16" version="1.1" xmlns="http://www.w3.org/2000/svg" xmlns:xlink="http://www.w3.org/1999/xlink">
    <!-- Generator: Sketch 52.5 (67469) - http://www.bohemiancoding.com/sketch -->
    <title>数据</title>
    <desc>Created with Sketch.</desc>
    <defs>
        <linearGradient x1="100%" y1="100%" x2="-1.11022302e-14%" y2="1.72254642e-14%" id="linearGradient-1">
            <stop stop-color="#7981FF" offset="0%"></stop>
            <stop stop-color="#2CAFFF" offset="100%"></stop>
        </linearGradient>
    </defs>
    <g id="Page-1" stroke="none" stroke-width="1" fill="none" fill-rule="evenodd">
        <g id="拖拽上传" transform="translate(-98.000000, -142.000000)">
            <g id="数据" transform="translate(98.000000, 142.000000)">
                <rect id="Rectangle" fill="#000000" opacity="0" x="0" y="0" width="15.9843902" height="15.9843902"></rect>
                <path d="M7.99285908,1.37834627 C7.72973143,1.37834627 7.53300048,1.42998814 7.44324197,1.47548218 L2.13519485,4.12889096 L7.44324197,6.78229974 C7.53300048,6.82779376 7.72973142,6.87943564 7.99285908,6.87943564 C8.25598675,6.87943564 8.45271771,6.82779378 8.54247621,6.78229974 L13.8492938,4.13012052 L8.54247621,1.47548218 C8.45271769,1.42998815 8.25598673,1.37834627 7.99285908,1.37834627 Z M7.99285908,0.148777787 C8.39123927,0.148777787 8.78961947,0.223781463 9.09209332,0.37501838 L15.4993747,3.57927385 C16.1043224,3.88174768 16.1043224,4.37603422 15.4993747,4.67850807 L9.09209332,7.88276352 C8.78961947,8.03400045 8.39123926,8.10900414 7.99285908,8.10900413 C7.59447891,8.10900411 7.19609872,8.03400044 6.8923953,7.88276352 L0.485113943,4.67850807 C-0.119833756,4.37603423 -0.119833756,3.8817477 0.485113943,3.57927385 L6.89362487,0.37501838 C7.1960987,0.223781463 7.59447889,0.148777787 7.99285908,0.148777787 Z M7.99285908,12.0239502 C7.5010317,12.0239502 7.01043387,11.9255847 6.61820152,11.7300833 L0.340024866,8.59222455 C0.0361401799,8.44011244 -0.0868958042,8.070454 0.0652163044,7.76656931 C0.217328413,7.46268462 0.586986853,7.33964864 0.89087154,7.49176075 L7.16781865,10.6308491 C7.60062675,10.8472531 8.38509143,10.8472531 8.81789954,10.6308491 L15.0948466,7.49176075 C15.3987313,7.33998818 15.7681145,7.46329941 15.9198871,7.76718409 C16.0716597,8.07106878 15.9483484,8.44045197 15.6444637,8.59222455 L9.36751664,11.7300833 C8.93734938,11.9305336 8.46738463,12.0310001 7.99285908,12.0239502 Z M7.99285908,15.8356125 C7.5010317,15.8356125 7.01043387,15.737247 6.61820152,15.5417456 L0.341254431,12.4026573 C0.0363214517,12.2514203 -0.0866353951,11.8825498 0.0658311024,11.5788464 C0.2182976,11.275143 0.585938576,11.1534157 0.89087154,11.303423 L7.16781865,14.4425114 C7.60062675,14.6589154 8.38509143,14.6589154 8.81789954,14.4425114 L15.0948466,11.303423 C15.3987313,11.1516505 15.7681145,11.2749617 15.9198871,11.5788464 C16.0716597,11.8827311 15.9483484,12.2521143 15.6444637,12.4038868 L9.36751664,15.5417456 C8.97528429,15.7384766 8.48468647,15.8356125 7.99285908,15.8356125 Z" id="Combined-Shape" fill="url(#linearGradient-1)" fill-rule="nonzero"></path>
            </g>
        </g>
    </g>
</svg>