<?xml version="1.0" encoding="UTF-8"?>
<svg width="44px" height="34px" viewBox="0 0 44 34" version="1.1" xmlns="http://www.w3.org/2000/svg" xmlns:xlink="http://www.w3.org/1999/xlink">
    <!-- Generator: Sketch 49.3 (51167) - http://www.bohemiancoding.com/sketch -->
    <title>1111</title>
    <desc>Created with Sketch.</desc>
    <defs></defs>
    <g id="1111" stroke="none" stroke-width="1" fill="none" fill-rule="evenodd">
        <g fill-rule="nonzero" id="Group-4">
            <g transform="translate(0.000000, 2.000000)">
                <path d="M12.4308858,15.7752236 C12.3807276,15.8227624 12.3231656,15.8900107 12.2801505,15.9094427 M11.5979055,16.3195258 C11.3687525,16.3195258 11.3538406,16.4254992 11.303526,16.4536061 C11.2047739,16.4601991 11.0805255,16.4006541 11.0019513,16.3195952 M10.1757492,14.8573427 C10.1689189,14.6859254 10.2120382,14.4845967 10.2192335,14.3601629 C10.2266372,14.236215 10.2907167,14.0734032 10.3263801,13.9872087 C10.3628256,13.9014307 10.2833129,13.7198809 10.2265851,13.6626955 M9.97485569,13.8633301 C9.91739801,13.9586854 9.93877516,14.0926963 9.91739801,14.16973 M9.63704406,14.3698095 C9.62046373,14.3764718 9.5973138,14.378415 9.5706705,14.378415 C9.51868746,14.378415 9.453096,14.3698095 9.40033085,14.3698095 C9.32128741,14.3698095 9.24224397,14.0447411 9.19208578,13.968679 C9.14197975,13.8915759 9.09124804,13.5858006 9.07701394,13.5291704 C9.0625713,13.4717768 9.07701394,13.0502428 9.07002725,12.9645342 C9.0625713,12.8792419 9.08441777,12.6296804 9.0625713,12.5252338 C9.04129839,12.420232 9.24949133,12.1426331 9.34297741,12.0564386 C9.40721324,11.9975876 9.49887447,11.9423455 9.62739824,11.9423455 C9.68475168,11.9423455 9.75081239,11.9536576 9.82438119,11.9803071 C9.85196298,11.99037 9.8785541,11.994881 9.90285111,11.994881 C10.0860692,11.994881 10.1765834,11.7449031 10.2335718,11.7028469 C10.3563603,11.6963928 10.6405204,11.9002892 10.6932334,11.9610834 C10.7507433,12.0274296 10.9008528,12.295382 10.9515845,12.4767235 C11.0004913,12.653207 11.1706224,12.8029022 11.2593638,12.8029022 C11.3537884,12.7923534 11.2028968,12.2193198 11.2028968,12.1041856 C11.2028968,11.9896066 11.1023719,11.7987574 11.0877728,11.7696095 C11.0734866,11.7410168 11.0805254,11.5594671 11.2533678,11.0335558 C11.3140581,10.8479809 11.3653112,10.7969027 11.4097862,10.7969027 C11.4371073,10.7969027 11.4616128,10.8159183 11.4848671,10.835142 C11.508017,10.8534636 11.5294463,10.8730343 11.5509278,10.8730343 C11.5717314,10.8730343 11.5920659,10.8527001 11.6121395,10.7942655 C11.7052606,10.5267296 11.7699657,10.3266501 11.7128208,10.1732073 C11.6554674,10.0212218 11.8275798,9.84834711 11.8423874,9.77145214 C11.8563087,9.69545945 12.0142913,9.52355626 12.2517866,9.44666136 C12.4884998,9.37032164 12.4740572,9.34152075 12.6250531,9.05476104 C12.7634834,8.7919442 12.575677,8.64953595 12.6269301,8.64953595 C12.7535247,8.68201501 12.8116603,8.70123875 13.1347686,8.70123875 C13.4574077,8.70123875 13.5508416,8.24250647 13.5508416,8.24250647 C13.5508416,8.24250647 13.4723717,8.15631202 13.4290959,8.09933479 C13.3857159,8.04124723 13.2926469,7.8503285 13.1993694,7.7458125 C13.1641752,7.70569945 13.1280947,7.69459549 13.0905543,7.69459549 C13.0674565,7.69459549 13.0436288,7.69896765 13.0198532,7.70354802 C12.9957126,7.70792019 12.9719892,7.71270876 12.94764,7.71270876 C12.8044129,7.67828648 12.732669,7.41054224 12.8754268,7.25737707 C12.9216746,7.20928306 12.9923757,7.19345991 13.0763203,7.19345991 C13.1506712,7.19345991 13.2361799,7.20643764 13.3228357,7.21858262 C13.4087094,7.23135215 13.4959909,7.24432995 13.5754515,7.24432995 C13.605171,7.24432995 13.6331699,7.24245618 13.6597089,7.23863918 C13.9106562,7.20039991 13.9253074,7.05708946 14.0755734,6.97103377 C14.1003396,6.95618219 14.1172328,6.95069962 14.1291728,6.95069962 C14.189081,6.95069962 14.0981498,7.11371959 14.0681696,7.21025464 C14.0320891,7.32455599 13.9963735,7.37258061 13.8245739,7.70667096 C13.6959459,7.9567182 13.7467818,7.98787872 13.7807768,7.98787872 L14.4493091,7.71652576 C14.4493091,7.71652576 14.4132286,7.382019 14.3696921,7.333925 C14.3267813,7.28659436 14.3773045,6.9518794 14.3911736,6.88504751 C14.4057727,6.81800735 14.4420617,6.7219581 14.4272541,6.64582664 C14.4131764,6.56969512 14.3267813,6.3400514 14.2478943,6.22575005 C14.1690073,6.11019947 13.730775,5.85279581 13.6874471,5.77576216 C13.6448492,5.69956126 13.6302501,5.34562256 13.5728967,5.16400347 C13.5156475,4.98266195 13.292647,4.93484553 13.2565143,4.92554597 C13.2197039,4.92533776 13.2058348,5.02957618 13.0342438,5.23152942 C12.9867447,5.28704921 12.9508727,5.30814673 12.9237602,5.30814673 C12.8479494,5.30814673 12.8356966,5.14172617 12.8043086,5.0782948 C12.7613978,4.99237793 12.7038359,4.96350766 12.5387101,4.68639448 C12.4690518,4.57008053 12.4199886,4.54301459 12.3630001,4.54301459 C12.3383902,4.54301459 12.3120598,4.54773378 12.2824446,4.55328573 C12.2518387,4.55814368 12.2178959,4.56355687 12.1778528,4.56355687 C12.1305623,4.56355687 12.0751902,4.55640866 12.0064704,4.53371496 C11.8871231,4.49394894 11.8429088,4.48097114 11.816787,4.48097114 C11.7723641,4.48097114 11.7766917,4.5145606 11.576424,4.5145606 C11.2532635,4.5145606 11.5330961,4.74371853 11.4679738,4.87745183 C11.4039466,5.01174029 11.5044715,5.145196 11.5618249,5.24034306 C11.6192305,5.33618411 11.5903452,5.33618411 11.684092,5.66111365 C11.7772652,5.98632084 11.6481157,5.82399486 11.5545775,6.07223771 C11.4904981,6.24233644 11.4472223,6.26898597 11.4262622,6.26898597 C11.4109853,6.26391981 11.4320497,6.34005133 11.4679216,6.6457572 C11.5044192,6.95174065 11.4679216,6.7506896 11.4320496,6.92335617 C11.4109853,7.0264148 11.3945092,7.03675532 11.3570209,7.03675532 C11.3041515,7.03550609 11.2784989,7.03765745 11.246016,7.04744287 C11.215775,7.05632602 11.1971091,7.05993482 11.1861598,7.05993482 C11.148828,7.05993482 11.1894446,7.01940536 11.1453868,6.98956351 C11.0876684,6.95167127 10.9440241,6.59759381 10.8293173,6.36829705 C10.7147147,6.13906973 10.7364047,6.17751715 10.6212286,6.0906287 C10.5062611,6.00540582 10.4555815,6.01470538 10.2540624,5.90956477 C10.0537426,5.80435478 10.0824193,5.89061861 9.85258846,5.81476474 C9.62286194,5.73717586 9.68042392,5.62301326 9.62254909,5.52696401 C9.56514353,5.43160875 9.47202242,5.22146635 9.42874666,5.1354801 C9.38536661,5.0494244 9.3640937,4.82019708 9.3640937,4.82019708 C9.3640937,4.82019708 9.44266787,4.73393318 9.55826109,4.66717067 C9.67328075,4.5999223 9.79539145,4.42850497 9.87412204,4.24640008 C9.90384157,4.17894351 9.9209433,4.15777661 9.94211191,4.15777661 C9.97803601,4.15777661 10.0230845,4.21739099 10.154476,4.21739099 C10.3629817,4.21739099 10.4556336,3.73964317 10.4556336,3.73964317 C10.4556336,3.73964317 10.7430786,3.59633273 10.7718074,3.59633273 C10.8006927,3.59633273 10.9874041,3.53921674 11.0590438,3.47217658 C11.1310484,3.40513642 11.0090942,3.24274106 10.9654534,3.13690646 C10.9221255,3.03266804 11.0877726,2.91781146 11.1311006,2.90823431 C11.1747413,2.89858772 11.3320982,2.69705089 11.3821,2.66908282 C11.4382021,2.66491886 11.4629683,2.77845684 11.4761596,2.81267091 C11.4899765,2.85084074 11.4761596,2.81267091 12.0001613,3.02357675 C12.5243195,3.23344157 12.179104,3.19478588 12.2588253,3.23344157 C12.3374516,3.2716114 12.1865078,3.44386155 12.1437013,3.52984787 C12.1011555,3.61583412 11.9210658,3.83534553 11.7489012,3.86393821 C11.5765802,3.89322489 11.6337772,4.04576552 11.6337772,4.04576552 C11.6337772,4.04576552 11.9210657,4.04576552 11.978732,4.04576552 C12.0357726,4.04576552 12.0933867,4.15090613 12.2876584,4.24653897 C12.4807309,4.34140845 12.4885518,4.35223475 12.5817771,4.46653617 C12.6189526,4.51261758 12.6884545,4.52580352 12.7586343,4.52580352 C12.8637996,4.52580352 12.969382,4.49512885 12.969382,4.49512885 C12.969382,4.49512885 12.840389,4.4091426 12.7680194,4.3228787 C12.7225537,4.26770594 12.7534203,4.24459582 12.803787,4.24459582 C12.8318902,4.24459582 12.866563,4.25229919 12.8977945,4.26555451 C12.9123936,4.27221686 12.9292868,4.27450704 12.9485262,4.27450704 C13.0412302,4.27450704 13.1707968,4.20864666 13.1707968,4.20864666 C13.1707968,4.20864666 13.1206386,4.0175198 13.0486861,3.96949517 C12.9766815,3.92167875 12.8257899,3.74942859 12.7973217,3.5873802 C12.7854339,3.52186685 12.8038392,3.49688296 12.8339237,3.49688296 C12.8781901,3.49688296 12.9463885,3.55281916 12.9767337,3.6159035 C13.0263183,3.71868448 13.2745544,3.92160937 13.3257032,3.92160937 C13.3720031,3.91251801 13.4575639,3.7213217 13.5085563,3.66365054 C13.5584538,3.60625698 13.7596079,3.53928619 13.5225297,3.46336288 C13.2855037,3.38598219 13.2423322,3.28084158 13.0487383,3.21428721 C12.8545709,3.14683063 12.818699,3.09901421 12.7468507,2.95639776 C12.6750025,2.81274029 12.6106103,2.73660877 12.6106103,2.73660877 C12.6106103,2.73660877 12.4808873,2.64055951 12.4167036,2.58309657 C12.3517378,2.52598058 12.1866642,2.3155606 11.8775814,2.30598338 C11.5688636,2.2960592 11.7634481,2.30598338 11.4474828,2.24858981 C11.131309,2.19168203 11.289396,2.1238785 11.2323554,2.03796162 C11.2128552,2.00985473 11.1857949,2 11.1547718,2 C11.0940815,2 11.0183228,2.03796162 10.9656619,2.03796162 C10.8873484,2.03796162 10.9010611,2.0672483 10.7219099,2.1719725 C10.6574655,2.20965654 10.6239398,2.2214545 10.6069945,2.2214545 C10.5993821,2.18134145 10.549641,2.01943188 10.4131399,2.01943188 C10.276378,2.01943188 10.162349,2.15344276 10.1259556,2.19161265 C10.0901879,2.22957428 10.1904,2.63112119 10.2693913,2.69712033 C10.3485912,2.76513207 10.4705454,2.83147824 10.4846752,2.94647359 C10.4983879,3.05168358 10.4324314,3.14912082 10.2925934,3.14912082 C10.0901879,3.12809268 10.0394562,3.09006161 9.97506398,3.03273749 C9.91046319,2.97492751 9.88877313,2.88914939 9.81734208,2.72668466 C9.74591102,2.56366469 9.73037342,2.45921807 9.55857384,2.40133871 C9.5236404,2.39002655 9.49256524,2.3851686 9.46513988,2.3851686 C9.35705473,2.3851686 9.30402891,2.46254928 9.29266249,2.51661171 C9.27858481,2.58309663 9.42149915,2.90830382 9.42149915,2.90830382 C9.40325034,2.90899782 9.37436506,2.89678346 9.32368547,2.88422213 C9.27206739,2.87179957 9.19808145,2.85951582 9.0930204,2.85951582 L9.04145445,2.8604874 C8.77543885,2.87006455 9.0558971,2.9659056 9.04849326,3.13690659 C9.04510419,3.21518947 9.01689672,3.23316405 8.97831354,3.23316405 L8.92674758,3.22691805 C8.90813381,3.22428083 8.88863362,3.22115789 8.86949845,3.22115789 C8.85025898,3.22115789 8.8302374,3.2242809 8.81125866,3.23337226 C8.78602316,3.24537841 8.7443637,3.25023637 8.6943098,3.25023637 C8.55249042,3.25023637 8.34174264,3.21178888 8.23026847,3.20408551 C8.06717623,3.20311394 8.01430677,3.24010398 7.94991452,3.30013477 C7.92728599,3.32074649 7.89256109,3.33136466 7.8385446,3.33136466 C7.71799813,3.33136466 7.50125432,3.27855146 7.10942616,3.16640147 C6.86207646,3.09554431 6.78663064,3.0755572 6.78068674,3.0755572 L6.87954321,3.1087997 C6.87954321,3.1087997 6.36982771,2.98436597 6.19031145,2.8604874 C6.11486563,2.80836819 6.07372756,2.79344724 6.05135975,2.79344724 C6.02476862,2.82273391 5.95312897,2.86964814 5.78086017,2.93661885 C5.72074336,2.96042296 5.68106522,2.96833454 5.65040721,2.96833454 C5.5926888,2.96833454 5.56865251,2.93995006 5.50791001,2.92697233 C5.4147889,2.90830382 5.4631222,2.76034357 5.25310441,2.75264019 C5.03568278,2.75264019 4.96367816,2.81843113 4.78489189,2.83147831 C4.59572986,2.84584403 4.32173692,2.9748582 4.24623898,2.99692729 C4.11510815,2.99900927 3.79627527,2.8890107 3.64288092,2.80330204 C3.47561749,2.70940421 2.77011825,2.70940421 2.73226495,2.66637636 C2.69451595,2.62341789 1.99986173,2.63112126 1.7252431,2.62341789 C1.45062446,2.61668609 1.56361073,2.60204279 1.53128425,2.60204279 C1.49880134,2.60204279 1.21354628,2.63105188 1.18085482,2.65971394 C1.14931045,2.68872304 0.987104521,2.78886687 0.874326849,2.87464492 C0.761027785,2.96035358 0.373266458,3.0899923 0.373266458,3.0899923 C0.373266458,3.0899923 0.432653333,3.10421926 0.508411998,3.11122864 C0.583127878,3.11886263 0.594025029,3.16903862 0.713059452,3.36162292 C0.83141606,3.55573396 0.906288363,3.58425726 0.890229369,3.59910884 C0.874326849,3.61285001 0.739546278,3.61285001 0.632191119,3.61285001 C0.524627363,3.61285001 0.51294815,3.62777097 0.356842545,3.63422511 C0.20110191,3.64144269 0.222270572,3.75671562 0.211946936,3.82826677 C0.20110191,3.89960972 0.260123816,3.92868819 0.368261088,4.00717928 C0.393288038,4.02598661 0.417167906,4.0334124 0.440213588,4.0334124 C0.515502985,4.0334124 0.583127878,3.95457428 0.66973157,3.92147061 C0.697574075,3.91071368 0.71790845,3.90682724 0.737043618,3.90682724 C0.794918443,3.90682724 0.837412089,3.94506651 1.02016099,3.94985509 C1.26193175,3.95728088 1.0414339,4.1006607 1.01421709,4.23675362 C0.987156696,4.37298531 0.814992148,4.29421664 0.647937268,4.36576772 C0.481038811,4.43704122 0.459557354,4.49499003 0.34625824,4.58819386 C0.233480568,4.68105074 0.518735633,4.88140778 0.680211577,4.93928714 C0.842261087,4.99675016 1.04143385,5.17614845 1.29462316,5.17614845 C1.54770816,5.17614845 1.45573413,5.26956049 1.44530625,5.36991253 C1.43409625,5.46957058 1.36443791,5.5347369 1.29462316,5.67062162 C1.22459985,5.80678392 1.01421704,5.84252474 0.933922271,5.88624658 C0.853106063,5.9287192 0.723695881,6.07209909 0.675154032,6.11512694 C0.626612183,6.15808541 0.378897517,6.26544676 0.249539511,6.30868281 C0.120181453,6.35261286 0.0445270878,6.4520627 0.00125132967,6.50924806 C0.0220028481,6.53756316 0.0779485293,6.50876228 0.120181504,6.48086359 C0.184730172,6.43741933 0.410859083,6.3943221 0.658938717,6.20111326 C0.906288414,6.00755738 1.20796739,5.84252481 1.4777892,5.70657071 C1.74662036,5.5702002 1.71486739,5.53466758 1.8815573,5.37629736 C2.0486643,5.21903754 1.95679457,5.16851452 1.98385496,5.03235222 C2.01107178,4.89618991 2.01638999,4.95358348 2.09699761,4.82484697 C2.12285879,4.78383172 2.15101409,4.7676616 2.17786594,4.7676616 C2.23558434,4.7676616 2.28720242,4.84046192 2.29048719,4.88987453 C2.29658752,4.96128686 2.11905258,5.11112089 2.11905258,5.13298184 C2.2034664,5.1440858 2.29241638,5.1204899 2.35576584,5.04706497 C2.40018868,4.99466818 2.47704226,4.98175982 2.56667005,4.98175982 C2.66192885,4.98175982 2.77199532,4.99668078 2.87246809,4.99668078 C3.06627051,4.99668078 3.3300963,5.11119033 3.47572184,5.14054646 C3.62134739,5.16858397 3.86306603,5.44146375 3.93293291,5.45610705 C4.00347761,5.4695012 4.05692058,5.51273725 4.22475757,5.61322805 C4.39123893,5.71358009 4.3432706,5.77118186 4.42898788,5.92871927 C4.51559157,6.08597909 4.47768615,6.08597909 4.56392482,6.39439155 C4.64979853,6.70328979 4.68812104,6.72459551 4.7794173,6.77463274 C4.83515439,6.7904559 4.77722744,6.72584474 4.76888512,6.65283623 C4.75772725,6.55963239 4.75230479,6.46649793 4.71987401,6.30146536 C4.68817321,6.13650217 4.66643103,6.03559496 4.71481646,5.9714696 C4.76184626,5.95418908 4.77472473,6.07931681 4.92483431,6.3732941 C5.10737461,6.73188254 5.02186588,6.50223882 5.09767667,6.6737256 C5.17270539,6.84597576 5.19976579,6.9180127 5.16191249,7.04001742 C5.12400707,7.16174456 5.27500301,7.2054664 5.32844598,7.28402693 C5.38308815,7.36286505 5.4415365,7.49847212 5.49028689,7.66378234 C5.53846377,7.82881491 5.5491002,7.86407001 5.62485886,8.03701416 C5.70030468,8.20877852 5.71094116,8.53127912 5.71094116,8.76064526 C5.71094116,8.98994202 5.63064635,9.14033122 5.63570389,9.29786863 C5.64128283,9.45589182 5.71094116,9.49940546 5.85077923,9.98673042 C5.99134728,10.4742636 5.96444331,10.2515598 6.15803714,10.5959907 C6.26846858,10.7921838 6.30256778,10.8212623 6.32566554,10.8212623 L6.38958857,10.8325051 C6.4704569,10.896908 6.4435008,10.918769 6.55685199,11.1552833 C6.66962966,11.3913812 6.63208926,11.2988713 6.71796297,11.5849371 C6.80498375,11.872252 6.89080533,12.0873218 6.90707287,12.1586647 C6.92292327,12.2307016 7.02016339,12.3671415 7.10567212,12.4886604 C7.19232793,12.6099712 7.18727039,12.6536236 7.2133923,12.8473877 C7.24066124,13.0412906 7.2133923,12.9907676 7.36970645,13.1485826 C7.46277544,13.2428968 7.49270346,13.2644801 7.51329855,13.2644801 C7.61215502,13.2348464 7.54254881,13.140671 7.50964881,13.0475365 C7.47753088,12.9549573 7.38607824,12.8185868 7.38607824,12.7542532 C7.38607824,12.6891563 7.35375175,12.5820724 7.28915096,12.5032343 C7.22455017,12.4239798 7.21917978,12.367072 7.2133923,12.266373 C7.20833475,12.1655352 7.06844456,11.9583076 7.02485596,11.8934188 C6.98225802,11.8296404 6.88553929,11.6213024 6.86374499,11.5138022 C6.84825956,11.4369073 6.89873055,11.4260809 6.93481108,11.4260809 C6.98225797,11.4278159 7.12793569,11.685983 7.12793569,11.7214463 C7.12793569,11.7577423 7.25171481,11.9224279 7.32710851,12.0797571 C7.40161584,12.2380579 7.34280248,12.2452755 7.49906451,12.4311974 C7.58316549,12.5318271 7.58780589,12.5423758 7.58472966,12.5423758 C7.67633872,12.6393967 7.67169832,12.7109478 7.70903018,12.8040823 C7.74657057,12.8970779 7.74829122,13.031297 7.91399047,13.1934842 C8.07906404,13.3563654 8.1077929,13.7958045 8.10038912,13.948831 C8.0937674,14.1017187 8.20826572,14.1498821 8.24418977,14.2357295 C8.28011387,14.3217852 8.39492499,14.4367806 8.50295801,14.4848052 C8.61067819,14.5319276 8.73998407,14.6565002 8.96976272,14.8861439 C9.02763755,14.9432599 9.08347893,14.9663006 9.13582694,14.9663006 C9.29094189,14.9663006 9.41691088,14.7737163 9.48693418,14.7516473 C9.58725053,14.7502593 9.66410415,15.0316058 9.91061956,15.2780443 C10.060677,15.4284336 10.1061948,15.4617455 10.1457165,15.4617455 M10.2545316,15.4396764 C10.3923362,15.4396764 10.4148604,15.8925791 10.6283716,16.1855154 C10.8441769,16.4821993 11.0312533,16.5774851 11.0379272,16.6250933 C11.1595686,16.6430678 11.3107731,16.6005952 11.4115065,16.5588165 C11.4403396,16.5461164 11.4624989,16.5409808 11.4796528,16.5409808 C11.5449836,16.5409808 11.5442536,16.6214844 11.5841403,16.7494576 C11.6340899,16.9121306 11.6630273,17.1705058 11.6692841,17.4567798 C11.6770007,17.7433313 11.533565,17.8775503 11.4684429,17.9447987 C11.4044156,18.0117694 11.3037864,18.3273995 11.2674452,18.5081164 C11.2324596,18.6904295 11.2032094,18.9199344 11.274484,19.0154284 C11.3468536,19.1105755 11.2324596,19.2060695 11.18178,19.4073981 C11.1314133,19.6081716 11.2324596,19.6746565 11.2959655,19.8369131 C11.3611399,19.9995861 11.5550465,20.6302215 11.6705877,21.0221913 C11.7845645,21.4144387 11.9213785,21.7683773 12.0653878,21.9585326 C12.2086671,22.1507005 12.41686,22.4088675 12.5027337,22.4466209 C12.5892852,22.4847907 12.5099811,24.2434496 12.4451717,24.6173754 C12.380988,24.9899132 12.3307777,25.4868847 12.3948572,25.744566 C12.459823,26.00308 12.3739492,26.2032289 12.3739492,26.4337748 C12.3739492,26.6616836 12.1442227,27.1687874 12.1083507,27.3700467 C12.0719052,27.5698485 12.0937516,27.9153204 12.1584567,28.1150529 C12.2229533,28.3158957 12.114816,28.6885723 12.0719052,28.831744 C12.0296722,28.9749157 11.9710154,29.0325174 11.9790969,29.1194753 C11.9857708,29.2049757 11.9790969,29.4537044 11.9790969,29.5583592 C11.9790969,29.664055 12.0509451,30.400525 12.1442227,30.5335643 C12.2367703,30.666673 12.3810402,30.7823624 12.5749469,30.925534 C12.652739,30.98265 12.7194254,31 12.7762574,31 C12.8616097,31 12.9242293,30.9596094 12.9626561,30.9548208 C13.0272569,30.9437862 12.8981074,30.6960292 12.8626004,30.6772218 C12.8261028,30.6584145 12.7109788,30.3419517 12.6752633,30.1694933 C12.6395999,29.9989782 12.6543032,29.9506065 12.7110309,29.7982047 C12.7341809,29.7377575 12.749927,29.7208241 12.7639004,29.7208241 L12.8261028,29.7299848 C12.8694307,29.683487 12.9627082,29.4917355 13.0272569,29.3866643 C13.0918577,29.280899 12.9336665,29.0998351 12.8758438,29.0325868 C12.8189075,28.9658242 12.926732,28.7266034 13.0632331,28.6219485 C13.1997864,28.517155 13.1278339,28.4873824 13.1710575,28.3345642 C13.2143333,28.1818154 13.2501531,28.0670976 13.2070337,28.0670976 C13.1642794,28.0670976 13.1425372,27.8754155 13.1491068,27.7713159 C13.1532779,27.7169759 13.1725174,27.7001812 13.2023412,27.7001812 C13.2297145,27.7001812 13.2663685,27.7145469 13.307298,27.7241935 C13.3280495,27.7280105 13.3504173,27.7298843 13.3722638,27.7298843 C13.4427042,27.7298843 13.5095992,27.7073988 13.5160644,27.6560429 C13.5227383,27.5892804 13.5227383,27.4456923 13.4941137,27.3120978 C13.4656456,27.1785033 13.802258,27.196339 13.8890702,27.1882192 C13.9751525,27.1785033 14.0467921,27.083495 14.1262006,26.978285 C14.2049833,26.8729362 14.2267255,26.7857702 14.1904364,26.6618222 C14.1546166,26.5379437 14.148047,26.5189282 14.0901201,26.3852643 C14.049347,26.2915747 14.0664487,26.2781111 14.080005,26.2781111 C14.0901201,26.2802624 14.2483112,26.3474414 14.312912,26.3474414 C14.3777214,26.3474414 14.5355997,26.2034369 14.6712667,26.0222342 C14.8081849,25.8404762 14.8805545,25.7447046 15.0025609,25.5443476 C15.1243587,25.3432966 15.1676867,25.2381559 15.2175841,25.0854765 C15.2681594,24.9325888 15.3252,24.835915 15.3114873,24.6643589 C15.2968361,24.4929415 15.4330766,23.8997125 15.5698384,23.7947801 C15.7062874,23.6890843 16.0225655,23.6994943 16.1014004,23.5082286 C16.1804438,23.3161301 16.2020817,23.1543594 16.2514578,22.9441475 C16.302398,22.7342133 16.4673152,22.1316847 16.4460423,21.7971086 C16.4247694,21.4623243 16.5751918,21.2418413 16.6758731,21.0614713 C16.7758245,20.87895 16.7692028,20.887972 16.8841182,20.6589528 C16.9990858,20.4293091 16.991682,20.3625465 16.9990858,20.2197219 C17.0060724,20.0760644 16.9707219,19.7511349 16.9707219,19.694227 C16.9706178,19.6509908 16.9338073,19.6455777 16.8846919,19.6455777 L16.833491,19.6462023 C16.7616428,19.6462023 16.6896903,19.5610488 16.5965692,19.4646525 C16.5034481,19.3698525 16.4306092,19.1880252 16.2806561,19.1779622 C16.1298166,19.1690791 16.1298166,19.073238 16.0431608,19.0634527 C16.0186552,19.0613013 15.9912299,19.0592887 15.9641695,19.0592887 C15.8975874,19.0592887 15.8306924,19.0663675 15.7844447,19.0733075 C15.7229723,19.0737933 15.7560808,18.9472081 15.7422117,18.9107038 C15.7279777,18.8724646 15.4401678,18.6244993 15.4401678,18.6244993 C15.4401678,18.6244993 15.3322912,18.6047204 15.2535606,18.5854273 C15.1743607,18.5664811 15.1386451,18.4804949 15.0670577,18.2511287 C14.9946359,18.0212768 15.0240948,18.0789479 15.0162738,18.0405005 C15.0092871,18.0021225 14.9017756,17.4862742 14.8225235,17.3714176 C14.7887893,17.3221439 14.7445229,17.3083333 14.6996829,17.3083333 C14.6396704,17.3083333 14.5794493,17.3329008 14.5422217,17.3329008 C14.4775166,17.3329008 14.2555589,17.17113 14.2265172,17.1507959 C14.1977883,17.132405 13.9035652,16.9410699 13.852625,16.8269073 C13.8020497,16.7121202 13.7529864,16.6069796 13.7235798,16.4056509 C13.6952159,16.2056409 13.5942217,16.28205 13.2499447,16.1481085 C13.15844,16.1120206 13.0976453,16.099251 13.0572372,16.099251 C12.9442509,16.099251 12.985389,16.2014074 12.9478486,16.2139688 C12.8708386,16.2171612 12.7522734,16.1446384 12.7328254,16.1191687 C12.7107704,16.0912701 12.5534656,15.9281806 12.5534656,15.9281806 C12.5098249,15.9659341 12.4668098,15.985366 12.4668098,15.985366 L12.3945966,16.4352151" id="Shape" fill="#C1E3FE"></path>
                <path d="M17.380507,2.65444836 C17.380507,2.65444836 17.3392058,2.45108559 17.5024701,2.45108559 L17.5451646,2.45514459 C17.665834,2.47660916 17.7684402,2.52015736 17.8189471,2.52015736 C17.8571632,2.52015736 17.8640301,2.49539059 17.8253165,2.41751281 C17.7368422,2.23705932 17.6752885,2.15209552 17.6680731,2.09561346 C17.6615545,2.03871868 17.9146864,1.84017165 17.9837042,1.71613137 C18.0517766,1.59326062 18.1137285,1.24267314 18.0999946,1.07212635 C18.0864099,0.901648339 17.99704,0.740320296 18.2093185,0.674344392 C18.421995,0.607405288 18.6620896,0.607405288 18.8127645,0.532004179 C18.964136,0.456259122 19.0116573,0.436996054 18.9976746,0.380170051 C18.9840402,0.323206428 18.6686082,0.294931079 18.4627489,0.294931079 C18.3412336,0.294931079 18.253058,0.321349005 18.1591101,0.321349005 C18.0940731,0.321349005 18.0258514,0.309172019 17.942403,0.266862059 C17.7368422,0.16277281 17.4555459,0.0590275084 17.2363508,0.0394892691 C17.0855266,0.0261427543 16.9611253,0 16.7672582,0 C16.6783859,0 16.5744859,0.00543491926 16.4481439,0.0207077678 C16.0440386,0.0681086325 15.4758728,0.143372123 15.2692174,0.162841586 C15.0636068,0.181485468 15.0975933,0.171853934 14.5222122,0.228817557 C14.3722339,0.244021629 14.222604,0.249043758 14.0824286,0.249043758 C13.9246877,0.249043758 13.7796855,0.242852033 13.6581205,0.235972414 C13.5369039,0.229574362 13.439622,0.222901071 13.379163,0.222901071 C13.3475153,0.222901071 13.326168,0.225033733 13.3161164,0.228817557 C13.2472478,0.257161749 13.1174225,0.361663788 13.1649439,0.465202694 L13.1449402,0.513085126 C13.1449402,0.513085126 12.630466,0.588623787 12.561896,0.598874507 C12.4933757,0.607611684 12.4451578,0.645793805 12.5000436,0.674550788 C12.5552281,0.702069399 12.706102,0.759789759 12.706102,0.835259645 C12.706102,0.911417492 12.6924676,1.00587521 12.6101139,1.05334491 C12.5722959,1.07467187 12.460683,1.08086353 12.3485725,1.08086353 C12.2145674,1.08086353 12.0825527,1.07226397 12.0825527,1.07226397 L12,1.1856408 C12,1.1856408 12.2508429,1.28106172 12.362804,1.28106172 L12.4031101,1.27941062 C12.4733719,1.27941062 12.444461,1.31924384 12.4385893,1.41322006 C12.4341606,1.48800198 12.6273808,1.50389401 12.7513342,1.50389401 C12.8010948,1.50389401 12.8398582,1.50162373 12.8497108,1.49845909 C12.9112646,1.49770236 13.2235617,1.60364916 13.3024321,1.6222242 L13.3286062,1.62435686 L13.3604529,1.6222242 L13.3943896,1.62057311 C13.4473846,1.62057311 13.5056542,1.6448583 13.5832806,1.81148371 C13.7068858,2.07676345 13.7404243,2.34149278 13.885128,2.40808787 C14.0287866,2.47447657 14.0290852,2.45569513 14.0973566,2.47447657 C14.1665238,2.49360201 13.7952604,2.44640755 13.9333957,2.6073228 C13.9956958,2.68114159 14.0497856,2.69524484 14.100392,2.69524484 L14.1458732,2.69187381 L14.1898117,2.69001632 C14.2159858,2.69001632 14.2423091,2.69400654 14.2686821,2.71168722 C14.3717859,2.77759435 14.4197053,2.92949725 14.399403,3.07163107 C14.3783543,3.21328325 14.1935935,3.39373681 14.1245259,3.50759515 C14.056354,3.62110953 13.9535487,3.68763585 13.9669343,3.78181846 C13.9805189,3.87682658 14.1935935,4.06656759 14.2963987,4.20870141 C14.399403,4.35104162 14.5223115,4.56912683 14.5838156,4.65429702 C14.645668,4.73912327 14.6525349,4.67328492 14.885663,4.82456864 C15.0826152,4.95335587 15.1768616,5 15.2505569,5 L15.2901166,4.99504665 C15.3722712,4.97647154 15.5644464,4.71029751 15.5847984,4.59671428 C15.6051007,4.48264948 15.6462527,4.20863263 15.7289547,4.12359999 C15.8112088,4.0384298 15.7826463,3.82983851 16.1057415,3.80108152 C16.4271945,3.77273733 16.7089884,3.60239694 16.8046779,3.51695151 C16.9007655,3.4312309 16.8322453,3.37481769 17.2019162,3.28868436 C17.571836,3.20365178 17.7707786,3.18535185 17.7232076,3.04294286 C17.6752885,2.90129054 17.380507,2.65444836 17.380507,2.65444836 Z" id="Shape" fill="#C1E3FE"></path>
                <path d="M43.7036963,3.31441735 C43.627821,3.29497196 43.3596583,3.15276453 43.0083227,2.94267117 C42.6997232,2.75825129 42.3697306,2.63998731 42.1771933,2.63998731 C42.1509019,2.63998731 42.1273596,2.64247853 42.1056666,2.6466998 C42.06453,2.65631872 42.0310409,2.65839473 42.0026002,2.65839473 L41.9582646,2.65694155 L41.9200271,2.65528075 C41.8817895,2.65528075 41.8477006,2.66462282 41.7967172,2.71347858 C41.7223915,2.78434013 41.8290567,2.8808751 41.7787231,2.8808751 C41.7541311,2.8808751 41.6926011,2.85838484 41.5551459,2.80025626 C41.2177557,2.65361996 41.2177557,2.56435105 41.0985445,2.56435105 C41.069554,2.56435105 41.0335157,2.5693335 40.9840318,2.58061322 C40.8430777,2.61175355 40.6801307,2.67285775 40.5384769,2.67285775 C40.4234143,2.67285775 40.3222473,2.63209856 40.2610172,2.5041464 C40.1760448,2.32844584 40.1252114,2.28561057 40.052635,2.28561057 C40.0067999,2.28561057 39.9531674,2.30256474 39.8750928,2.31287567 C39.7873714,2.3260238 39.6752079,2.33702673 39.5613449,2.33702673 C39.4158923,2.33702673 39.2698899,2.31938056 39.174021,2.26575003 C39.0010774,2.17018385 39.0148728,2.07537892 38.7672035,2.04659138 C38.7392126,2.04396173 38.7136709,2.04160893 38.6909283,2.04160893 C38.5119366,2.04160893 38.4648519,2.13426868 38.1478052,2.21807074 C37.9020352,2.28401903 37.905584,2.35792538 37.8115646,2.35792538 C37.7696782,2.35792538 37.7062489,2.34283961 37.5903367,2.30408724 C37.3318208,2.21807074 37.4086458,2.13219267 37.3533638,2.13219267 C37.3287218,2.13219267 37.279188,2.14866244 37.1630258,2.19011364 C36.8914642,2.28567982 36.8284847,2.49930238 36.7619064,2.49930238 C36.7357649,2.49930238 36.7083238,2.46650125 36.6672872,2.38006954 C36.5226842,2.07544803 36.9083587,2.16091089 36.4945934,2.00860014 C36.1844943,1.89393459 36.2483235,1.83857403 36.1927916,1.83857403 C36.1733979,1.83857403 36.1432077,1.84459451 36.0817778,1.85566663 C35.8902401,1.89303498 35.9172313,1.90735957 35.8043181,1.90735957 C35.7714288,1.90735957 35.7267933,1.90590639 35.6621144,1.90320755 C35.49137,1.89822511 35.432889,1.88244733 35.3250741,1.88244733 C35.2493987,1.88244733 35.1507808,1.88936743 34.9741383,1.91338006 C34.5398797,1.97081663 34.1608531,2.01870353 34.1128188,2.01870353 C34.0829785,2.01870353 33.9205813,2.04119379 33.8277116,2.04119379 C33.774129,2.04119379 33.7422394,2.03358169 33.7756285,2.00860027 C33.8657992,1.94195998 33.9546703,1.79906055 34.1407597,1.77013466 C34.3266991,1.74183158 34.4366133,1.70356355 34.5879141,1.52267294 C34.7396147,1.3411595 35.5038159,1.27431161 34.8566266,1.17957585 C34.4532579,1.11964806 34.2745161,1.10906034 34.1903435,1.10906034 C34.13946,1.10906034 34.1231154,1.11252035 34.1128187,1.11252035 C34.0937749,1.11252035 33.9648169,1.1369482 33.8781951,1.1369482 C33.8434564,1.1369482 33.8153156,1.13286536 33.8041693,1.12213921 C33.7719797,1.09314414 33.8144159,1 33.7418895,1 C33.7177474,1 33.6806594,1.01031093 33.6244277,1.03619196 C33.3972017,1.14103103 33.2383534,1.22704747 33.1555304,1.24621607 C33.0737071,1.26559229 32.5296342,1.26559229 32.4541587,1.27444997 L32.4162211,1.27618001 L32.3702361,1.275488 C32.3533416,1.27500361 32.3354974,1.27500361 32.3162536,1.27500361 C32.2253332,1.27500361 32.1081713,1.28337689 31.9990069,1.34129786 C31.8201651,1.43686404 31.6755622,1.46509793 31.6000868,1.51305401 C31.5247613,1.5607333 31.5031683,1.59900126 31.2558989,1.67491444 C31.0912525,1.72639978 30.9750903,1.73477306 30.9153098,1.73477306 C30.8863192,1.73477306 30.8698746,1.73235102 30.8698746,1.73235102 C30.8698746,1.73235102 30.7669581,1.8084718 30.9255564,1.97953595 C31.083655,2.15170731 31.277042,2.12291978 31.2625967,2.32311742 C31.2491511,2.52379947 31.2491511,2.63784225 31.2491511,2.63784225 C31.2491511,2.63784225 31.231207,2.64912197 31.2012167,2.64912197 C31.1637289,2.64912197 31.1077971,2.63168341 31.0420685,2.55210261 C30.9255065,2.40920317 31.0013318,2.34256289 30.8698246,2.24755028 C30.7628094,2.16873066 30.7574112,2.11558453 30.709127,2.11558453 L30.6705395,2.12298902 C30.5805688,2.15170731 30.6434484,2.14243442 30.4440133,2.19032131 C30.4243697,2.19391976 30.4066254,2.19627255 30.3894311,2.19627255 C30.3304503,2.19627255 30.2797667,2.17302111 30.2349813,2.15004645 C30.1909957,2.12714104 30.1517584,2.10382035 30.1170197,2.10382035 C30.088479,2.10382035 30.0625375,2.11911373 30.0374457,2.16104932 C29.9408771,2.32318654 29.9886615,2.60891629 30.0167524,2.64739187 C30.0441934,2.68552147 30.1468101,2.79015294 30.2365808,2.79015294 C30.3256018,2.79015294 30.601662,2.89554559 30.5806188,2.99062737 C30.5657737,3.06052007 30.5844676,3.19705305 30.5379827,3.19705305 C30.5210883,3.19705305 30.4959464,3.17857644 30.457259,3.13359599 C30.3125061,2.96232424 30.2778674,2.92405627 30.2231852,2.92405627 C30.1681531,2.92405627 30.1542076,2.97125116 30.0587388,3.09574324 C29.9611705,3.21954331 29.8101697,3.32369038 29.7893765,3.33330924 C29.7779802,3.33891451 29.6949572,3.35967473 29.6416745,3.35967473 C29.5991384,3.35967473 29.5748963,3.34652661 29.6174824,3.30528296 C29.7142009,3.20971677 29.9478749,2.87637698 29.9063884,2.73347755 C29.864702,2.59023208 29.8445585,2.50442319 29.8513063,2.2755765 C29.8581041,2.04686817 30.1126712,2.01884189 29.8719996,1.96064406 C29.7584866,1.93379417 29.6732143,1.90459149 29.6053364,1.90459149 C29.5303108,1.90459149 29.4756286,1.94119867 29.4248952,2.05641785 C29.3279267,2.27550725 29.1217439,2.22803557 29.231808,2.49487351 C29.342472,2.7613654 29.4248952,2.80952909 29.3964544,2.85693159 C29.3847083,2.87824538 29.3283266,2.89208557 29.2621982,2.89208557 C29.1800749,2.89208557 29.0847559,2.87153296 29.0391208,2.81880205 C28.9692435,2.73804485 28.8393358,2.61549035 28.7170256,2.61549035 C28.6955326,2.61549035 28.6744395,2.6197808 28.6533963,2.62815408 C28.6381513,2.63458971 28.6189576,2.63777301 28.5978644,2.63777301 C28.4380665,2.63777301 28.1581576,2.46650125 28.1581576,2.46650125 C28.1581576,2.46650125 28.4263702,2.63777301 28.2953129,2.79001451 C28.1987443,2.90329605 28.0709859,3.01657758 27.8763993,3.01657758 C27.8092712,3.01657758 27.7333959,3.00322185 27.6486235,2.97111273 C27.570149,2.94211766 27.5019712,2.92986915 27.4409911,2.92986915 C27.2481539,2.92986915 27.1377898,3.05173157 27.0424708,3.09560481 C26.9182613,3.15283378 26.5126433,3.21940488 26.4984479,3.25725763 L26.4910003,3.26320887 C26.464509,3.26320887 26.3948316,3.13698675 26.4984479,3.0188612 C26.5730736,2.93409034 26.5522304,2.841915 26.5049958,2.841915 C26.4786044,2.841915 26.4416664,2.87208654 26.409177,2.95256695 C26.319906,3.17165635 26.3745383,3.28569913 26.3683903,3.36230432 C26.3612426,3.4384251 26.0234526,3.42866781 25.9828158,3.55267543 C25.9435286,3.66983219 25.9716194,3.96525006 25.8770502,3.96525006 L25.8584563,3.9626204 C25.7411945,3.92428319 25.3486722,3.7530115 25.3284288,3.7530115 C25.3166826,3.7530115 25.3021874,3.82532624 25.2625502,3.82532624 C25.23241,3.82532624 25.1885743,3.78525905 25.121946,3.64782646 C24.9631477,3.32334435 24.8465357,3.35220106 24.9846407,3.28556077 C25.0081331,3.27400427 25.0248277,3.26971382 25.0378734,3.26971382 C25.0686634,3.26971382 25.0787101,3.29483367 25.1040019,3.32036873 C25.1299434,3.34604222 25.1718298,3.37136967 25.266549,3.37136967 L25.2872922,3.37116206 C25.5419593,3.36209678 25.954625,3.30486781 25.976068,3.27628788 C25.9961614,3.24736199 26.0993278,3.24736199 26.037348,3.12376952 C25.976068,2.99969266 25.6311303,2.77049994 25.2250125,2.64649226 C25.125145,2.61632072 25.0585167,2.60594067 25.0092327,2.60594067 C24.9576995,2.60594067 24.9240105,2.61652839 24.8881221,2.62773886 C24.8537833,2.63853419 24.8162955,2.64974466 24.7588642,2.64974466 C24.7033823,2.64974466 24.6283567,2.63950298 24.5157434,2.60836265 C24.2260377,2.52926624 24.0671894,2.44650222 23.9283346,2.44650222 C23.8495603,2.44650222 23.7769839,2.47328285 23.6893624,2.542276 C23.4487907,2.73292397 23.5388614,2.70358286 23.3178834,2.7895993 C23.26665,2.80932148 23.2151168,2.81471914 23.1642834,2.81471914 C23.1324937,2.81471914 23.0995544,2.81312753 23.0691643,2.8104287 C23.0376246,2.80800665 23.0078343,2.80634586 22.9788437,2.80634586 C22.8837747,2.80634586 22.8020513,2.82932052 22.7465694,2.95215173 C22.7465694,2.95215173 22.6982851,3.3618891 22.6502007,3.44755957 C22.6022164,3.53309161 22.5064475,3.68560997 22.3334539,3.80920243 C22.1618598,3.9334869 21.9411316,4.04794484 21.8450129,4.13340776 C21.7488942,4.21914741 21.5144705,4.15250719 21.5962439,4.39055759 C21.6794668,4.62909238 21.7275511,4.54390638 21.7347488,4.70549003 C21.7420964,4.86741971 21.7901808,5.134396 21.8312674,5.17252561 C21.8483118,5.18830338 21.866306,5.19404701 21.8930472,5.19404701 C21.930635,5.19404701 21.9863168,5.18345929 22.0858345,5.17252561 C22.2218901,5.15764745 22.2634266,4.92679393 22.2951163,4.92679393 C22.3039634,4.92679393 22.3108112,4.94264088 22.3198083,4.98187771 C22.3616446,5.17252568 22.4437179,5.33445529 22.4852544,5.4206794 C22.5263411,5.50572704 22.4852544,5.64883415 22.4370202,5.67762162 L22.4227748,5.68170446 C22.3776895,5.68170446 22.3246567,5.56461687 22.299115,5.48725051 C22.2856694,5.44316966 22.2421836,5.42164826 22.1916,5.42164826 C22.1446653,5.42164826 22.0920324,5.44012486 22.0512457,5.47763165 C21.9689725,5.55382161 21.9569264,5.90397715 21.967323,6.01123827 C21.9773198,6.11946818 21.9515782,6.31129254 21.8530602,6.36852151 C21.7550422,6.42644248 21.6931623,6.58332046 21.5901958,6.5926626 C21.4868295,6.60221228 21.3840629,6.67840225 21.3078878,6.82164772 C21.2320125,6.96454715 21.3217333,7.06945541 21.0325274,7.18398259 C20.7437214,7.29816373 20.8192468,7.3738693 20.6193619,7.39345313 C20.4198769,7.41220652 20.4406201,7.60278524 20.5160955,7.65039535 C20.5923707,7.69828224 20.8394403,7.79412521 20.874179,7.97487746 C20.9086677,8.1559065 20.9914408,8.29908279 20.8266944,8.41333312 C20.7021849,8.49886516 20.6904388,8.57401715 20.6112146,8.57401715 C20.5849731,8.57401715 20.5510842,8.56585148 20.5025999,8.54675205 C20.3099627,8.47014687 20.0616935,8.41333312 20.0616935,8.41333312 C20.0616935,8.41333312 19.9687737,8.68466911 20.0206569,8.8561484 C20.0721901,9.02804297 20.0958824,9.30948222 20.0407503,9.40497915 C19.9857682,9.49957654 19.9029952,9.5096798 19.9655248,9.69984337 C20.0276546,9.89118334 20.1372689,10.0526286 20.1859031,10.0621091 C20.2339874,10.0716587 20.3855381,10.1763595 20.3514491,10.2812677 C20.3168104,10.3864527 20.2954674,10.4529547 20.1578122,10.6919739 C20.0206569,10.9294015 19.8826518,11.0442747 19.8415152,11.1680747 C19.8001286,11.2920824 19.875754,11.6825127 19.8553107,11.7399493 C19.8345674,11.7969707 19.6906643,11.8159317 19.587048,11.9303204 C19.4830819,12.0447784 19.2767491,12.4595674 19.2565057,12.5738178 C19.2359623,12.6882757 19.132646,12.9886068 19.1119027,13.1030648 C19.0911595,13.2177303 18.9668999,13.7745192 19.0084364,13.8605357 C19.0499729,13.9468982 19.0394263,14.0178289 19.0291796,14.2326278 C19.0186331,14.4462504 19.0291796,15.1235177 19.0499729,15.2009533 C19.0707161,15.2762437 19.0776639,15.5236362 19.0973574,15.6577471 C19.1185006,15.7908893 19.2150191,16.0480391 19.270751,16.1050605 C19.3248333,16.1630507 19.5731025,16.5819917 19.6973121,16.8297995 C19.8214717,17.077884 19.786733,17.2493633 20.0136091,17.2493633 C20.0487477,17.2493633 20.0802874,17.2497093 20.1075785,17.2497093 C20.2589293,17.2497093 20.3134115,17.2422357 20.4476678,17.1546275 C20.5441864,17.0894405 20.5666791,17.0576082 20.5970692,17.0576082 C20.6171126,17.0576082 20.6407049,17.0711715 20.6884894,17.0970526 C20.7690632,17.1401647 20.8057512,17.2124794 20.8657317,17.2124794 C20.8975713,17.2124794 20.9361587,17.1919268 20.9914907,17.135113 C21.1493893,16.9720762 21.1153004,16.9826639 21.2391601,16.8777556 C21.322533,16.8068249 21.3496241,16.6849624 21.3965588,16.6849624 C21.4195514,16.6849624 21.4466925,16.7138192 21.4869294,16.7919467 C21.6106891,17.0299279 21.6452779,17.03927 21.6799166,17.1250789 C21.7074576,17.1952484 21.6406794,17.2962815 21.7058082,17.2962815 C21.7211032,17.2962815 21.7433959,17.2908838 21.7760853,17.2775281 C21.9016444,17.2294336 21.9389823,17.1763566 21.973571,17.1763566 L22.016807,17.2007845 C22.0786368,17.2681168 22.2511307,17.5828416 22.2032962,17.8211688 C22.154812,18.0601188 22.1132756,18.0689073 22.1344187,18.3073037 C22.154812,18.5457693 22.1132755,18.5934486 22.1957987,18.8314298 C22.2790216,19.0697571 22.7124804,20.3090033 22.7332237,20.4513491 C22.7332237,20.4513491 22.7527673,20.8142376 22.6360053,21.0051624 C22.5192933,21.1953259 22.4852044,22.0916134 22.4917023,22.2152751 C22.4994498,22.339698 22.7258761,22.9106038 22.7465693,23.2259514 C22.7675125,23.5403301 22.781358,23.7307705 22.7675125,24.1113744 C22.7527673,24.4935699 22.8363401,24.3886616 22.925661,24.5702442 C23.0153818,24.7505121 23.3111855,25.1133313 23.2631511,25.4278486 C23.2148168,25.7419506 23.0698141,25.7708765 23.1869759,25.8563393 C23.263401,25.9131531 23.4901772,26 23.7043574,26 C23.81922,26 23.9313835,25.9744649 24.0138067,25.9049875 C24.2476806,25.7029214 24.5021477,25.6561417 24.5848208,25.5701252 C24.6674439,25.4846624 24.7293737,25.3041177 24.7356217,25.0080771 C24.7432192,24.7126593 24.811397,24.5316995 24.8739267,24.4269296 C24.9359065,24.3222982 25.0121816,24.0447342 25.0660141,23.9977469 C25.1220459,23.9499984 25.3487721,23.6735415 25.3487721,23.3492671 C25.3487721,23.0250618 25.2324099,22.7684656 25.3978061,22.5209347 C25.5628524,22.2725734 25.9135382,22.158669 25.9135382,21.5768295 C25.9135382,20.99499 26.0171044,20.9471031 25.9277335,20.4330111 C25.8379628,19.9179503 25.9761678,18.7933004 26.0445455,18.6698463 C26.1131732,18.545631 26.7535147,17.2971811 26.8567811,17.0494426 C26.9604973,16.8009429 27.2361576,16.3052583 27.2144647,16.1726005 C27.1945711,16.038974 27.1455871,15.6852199 27.1455871,15.6852199 L27.1428879,15.6850123 C27.1329911,15.6850123 27.0939539,15.6902715 26.9323565,15.7342832 C26.7780567,15.7749732 26.6886858,15.8911612 26.5829202,15.8911612 C26.5428332,15.8911612 26.4999472,15.874207 26.4508132,15.8296418 C26.2714216,15.6670201 26.2032938,15.9241699 26.0927298,15.4094551 C25.9829155,14.8944635 26.0373978,15.1049721 25.8516583,14.6471402 C25.6662186,14.1895159 25.4173496,13.6170877 25.4116015,13.4267858 C25.403954,13.2359302 25.1562846,12.2545258 25.1426891,12.1692013 C25.1290935,12.0828389 25.1562347,11.9211168 25.1901237,11.9211168 C25.2250123,11.9211168 25.3977061,12.0828389 25.4730815,12.2545258 C25.5481571,12.4261435 25.5481571,12.5974845 25.6173346,12.8263312 C25.6859122,13.0555931 25.7832306,12.8929023 25.8177693,13.2359301 C25.8516583,13.5795116 25.7893786,13.6460827 25.8787495,13.7795016 C25.9689201,13.9136126 26.0648889,13.9799069 26.1273186,14.208892 C26.1889485,14.4377388 26.264374,14.6852005 26.2783194,14.8759868 C26.292015,15.0662196 26.2783194,15.2481482 26.292015,15.2854474 C26.3003123,15.3082144 26.3584433,15.3423304 26.454612,15.3423304 C26.5175915,15.3423304 26.5985152,15.3277983 26.6915849,15.2854474 C26.9252588,15.1804007 27.1945711,14.9233893 27.2768944,14.8183426 C27.3591676,14.713642 27.3109833,14.579877 27.5725481,14.5041714 C27.8345628,14.4282583 27.9376792,14.2282682 27.9588223,14.1034993 C27.9788658,13.9799069 27.96582,13.8657257 28.1238186,13.7131382 C28.2820671,13.5602739 28.2335329,13.3979982 28.2064417,13.2935744 C28.1784508,13.1886661 28.1166709,12.9982257 27.9722679,12.8928331 C27.8279149,12.7887552 27.6965077,12.6162379 27.6759144,12.5503588 L27.6691166,12.5396328 C27.6503228,12.5396328 27.6290797,12.7623206 27.5795958,12.7887553 C27.539059,12.8085467 27.5584527,13.0895707 27.4609344,13.0895707 C27.425396,13.0895707 27.3765619,13.0550396 27.3041855,12.9597502 C27.0288251,12.5974846 26.9529498,12.1975045 26.9252088,12.0741196 C26.8978678,11.9496967 26.7670103,11.644314 26.8085968,11.5300637 C26.8353881,11.4553269 26.8976678,11.3931155 26.9509505,11.3931155 C26.9793412,11.3931155 27.004633,11.4104157 27.0210276,11.4539429 C27.0698118,11.5780198 26.973793,11.5399594 27.1945212,11.7969016 C27.4148994,12.0538439 27.4692317,12.187678 27.6140845,12.2166731 C27.6432751,12.2219323 27.6745149,12.2246311 27.7072542,12.2246311 C27.8392112,12.2246311 27.9846639,12.1876779 28.0068567,12.1876779 L28.0200024,12.1871935 C28.0486931,12.1871935 28.1061244,12.2013797 28.3783857,12.3687762 C28.7018304,12.5689738 28.6402505,12.607311 28.9087131,12.6359601 C29.1763259,12.6643324 29.1359891,12.6359601 29.2183623,12.8647376 C29.289989,13.0625132 29.3871073,13.1676983 29.4393903,13.1676983 L29.458784,13.1594634 L29.4980712,13.1432013 C29.5304107,13.1432013 29.5563522,13.177248 29.5212137,13.2454799 C29.4732793,13.3410461 29.4732793,13.551001 29.5345094,13.5795809 C29.5529034,13.5877466 29.5708475,13.5922446 29.5895914,13.5922446 C29.6345768,13.5922446 29.683011,13.5666404 29.741492,13.5128022 L29.7757308,13.497232 C29.8462079,13.497232 29.9084876,13.6775691 29.9199839,13.7510602 C29.9338794,13.8367998 29.9827134,14.6853389 30.0588387,14.9811719 C30.1336643,15.2762437 30.2366808,15.6005182 30.2779673,15.6954616 C30.3195038,15.7908894 30.3195038,16.0768959 30.3195038,16.2098304 C30.3195038,16.3439414 30.3883814,16.4777756 30.3883814,16.4777756 C30.3883814,16.4777756 30.5604254,16.3150847 30.5883163,16.2292067 C30.6156574,16.143121 30.6156574,16.0957877 30.6982805,15.7524138 C30.7812035,15.4094551 30.7881513,15.1431016 30.7881513,15.0193015 C30.7881513,14.8945327 30.6156574,14.9044284 30.7881513,14.771217 C30.9600953,14.6373136 30.911811,14.6658243 31.0155272,14.5042407 C31.1186437,14.3420342 31.111446,14.4089513 31.2492512,14.2283375 C31.3862565,14.0466164 31.2978354,14.0178289 31.455484,13.885102 C31.6133826,13.750991 31.6065848,13.7989471 31.7586853,13.560343 C31.9103359,13.3218774 31.8474064,13.30347 31.9444748,13.2359302 C32.0036555,13.195171 31.993059,13.136904 32.0088038,13.136904 C32.0196003,13.136904 32.0397438,13.1605014 32.0960254,13.2267957 C32.2405784,13.3980675 32.2682693,13.3602839 32.2819149,13.531694 C32.2959603,13.7031734 32.220235,13.6370175 32.3233015,13.7990163 C32.4263179,13.9610844 32.4955454,14.0939497 32.5158888,14.2369184 C32.5361821,14.3805791 32.5361821,14.6373137 32.5361821,14.6761353 C32.5361821,14.6878994 32.5574752,14.6935738 32.5861659,14.6935738 C32.650345,14.6935738 32.7588596,14.6624335 32.7779035,14.590188 L32.7970472,14.5685282 C32.8482306,14.5685282 32.9664421,14.8030494 32.9836365,14.9333543 C33.0051295,15.085665 33.0255229,15.0568775 33.0182252,15.3237154 C33.0116274,15.5915221 32.9969821,16.0573813 33.0050795,16.0957877 C33.0116273,16.133848 33.0116273,16.4777755 33.052514,16.5631692 C33.0939506,16.6487012 33.1423848,16.6298095 33.1555805,16.8484837 C33.1701257,17.0677115 33.2384035,17.210957 33.2731922,17.3158652 C33.3070811,17.4202199 33.4451862,17.6967459 33.5486025,17.7541133 C33.6520688,17.8115498 33.7968217,17.897774 33.7968217,17.897774 C33.7968217,17.897774 33.5692458,17.4591107 33.5351569,17.2205759 C33.5002682,16.9825947 33.5213114,16.9348462 33.4381385,16.7826046 C33.3556153,16.6298095 33.3071311,16.7062762 33.1976668,16.5154207 C33.0873027,16.3253264 32.9914839,16.1910079 33.080205,16.0297702 C33.1701757,15.8678405 33.2731922,15.8191924 33.2322555,15.5430817 C33.1942179,15.2902223 33.190769,15.2365918 33.2384535,15.2365918 L33.2524989,15.2389446 C33.313679,15.2482866 33.4249427,15.3909785 33.5486025,15.514571 C33.6726621,15.6383018 33.7279941,15.9242392 33.7413897,16.0480392 C33.7540356,16.1573071 33.728344,16.376535 33.8154156,16.376535 L33.8584516,16.3625564 C33.9962567,16.2866432 34.1476074,16.0768959 34.1609531,15.8863172 C34.1754984,15.6955309 34.2578716,15.829711 34.2162851,15.4384502 C34.1754984,15.0476047 34.1609531,14.9137704 34.0785799,14.7514948 C33.9962567,14.5903264 33.7967717,14.2284066 33.8101673,14.0178981 C33.8239628,13.8083584 33.8997382,13.6081608 34.0578867,13.5317632 C34.192043,13.4673373 34.1199665,13.389971 34.26287,13.389971 C34.2894113,13.389971 34.3232503,13.3924622 34.3675359,13.3981366 L34.3934275,13.400005 C34.6888813,13.400005 35.3125782,12.8061246 35.365611,12.759691 C35.4211429,12.7120808 35.4144451,12.7120808 35.5309572,12.4356932 C35.6490687,12.1593748 35.7519852,12.2167422 35.7582832,11.8731607 C35.7656807,11.5301328 35.7656807,11.5206523 35.7582832,11.4061251 C35.7519852,11.2921516 35.8143149,11.3488962 35.6970531,10.9866305 C35.5795414,10.62478 35.4898706,10.3965561 35.5794414,10.2726868 C35.6693622,10.147918 35.9173814,9.9387242 35.8068674,9.89941819 C35.7337412,9.87499035 35.6887558,9.86606343 35.6539172,9.86606343 L35.6073823,9.87201467 L35.586689,9.87443671 C35.5307572,9.87443671 35.4181439,9.84142798 35.4006996,9.69991255 C35.3801063,9.53846733 35.3457675,9.54753262 35.448584,9.45245083 C35.5525002,9.35667704 35.5108137,9.39549865 35.6622145,9.24249589 C35.795871,9.10907696 35.7789265,9.04824955 35.811116,9.04824955 L35.8273107,9.0513636 C35.8825927,9.0710166 35.9097339,9.30948222 35.8482039,9.42366336 C35.792622,9.52573442 35.8086668,9.62842824 35.8526524,9.62842824 L35.8687472,9.62489898 C35.9235794,9.59562705 36.1031209,9.44262429 36.1031209,9.44262429 C36.1031209,9.44262429 36.1928917,9.50974898 36.2200329,9.61417284 C36.2476239,9.71921952 36.3366449,9.84288116 36.3784813,10.0717279 C36.4189681,10.300713 36.4611543,10.214489 36.4189681,10.4436817 C36.407072,10.510668 36.4124202,10.5355803 36.4255659,10.5355803 C36.4573556,10.5355803 36.5400287,10.3969713 36.5640708,10.3768339 L36.5902123,10.3715747 L36.6104557,10.372059 L36.6335482,10.3724743 C36.7164712,10.3724743 36.8295843,10.3464548 36.7496104,10.0242563 C36.6396462,9.57625097 36.5983096,9.68136683 36.5983096,9.49023447 C36.5983096,9.29986336 36.4473088,9.30948222 36.6193528,9.15737907 C36.7913468,9.00409953 37.156128,8.6225268 37.2111101,8.61366913 C37.2658423,8.60363505 37.5142614,8.60363505 37.644669,8.23202722 C37.7761762,7.86076543 37.8029174,7.71779682 37.8583994,7.57462053 C37.9137314,7.4312367 37.954618,7.44099399 37.9891568,7.14550694 C38.0237955,6.85022751 37.982209,6.91728301 38.0514366,6.74504247 C38.1202642,6.5733555 38.1611508,6.48733907 38.0652821,6.31613649 C37.9809095,6.165971 38.0126492,6.10306751 37.9557677,6.10306751 L37.9266772,6.10659677 C37.8625481,6.11932968 37.7577822,6.24382176 37.6783081,6.24382176 C37.6404704,6.24382176 37.6082809,6.21344268 37.5903367,6.12507338 C37.5348048,5.85802784 37.6034324,6.08722063 37.7272921,5.80169848 C37.8511518,5.51562276 38.0237956,5.36351961 38.2307782,5.200898 C38.4365612,5.03924517 38.4716498,5.04789524 38.6222507,5.02941863 C38.7744512,5.01004242 39.2353012,5.01959217 39.3452653,4.97218967 C39.4036963,4.94658543 39.5049134,4.92471799 39.5663433,4.92471799 C39.6206257,4.92471799 39.6444679,4.9420182 39.5794891,4.9912891 C39.4817209,5.06602588 39.5937344,5.15584836 39.6728587,5.15584836 C39.7049982,5.15584836 39.7320894,5.14124698 39.7379375,5.10560867 C39.7583808,4.98173942 39.6000824,4.74368902 39.7724263,4.71476312 C39.9441204,4.68604483 39.9311746,4.60058197 40.1024189,4.5438374 C40.2457722,4.49595051 40.4219148,4.3960247 40.5168839,4.3960247 C40.5366275,4.3960247 40.5527223,4.40038433 40.5639686,4.40993407 C40.6280477,4.4623882 40.5801633,4.65227492 40.6259484,4.65227492 L40.6398938,4.64819208 C40.7083216,4.61040851 40.8468265,4.3531895 40.8948109,4.34267096 L40.9172535,4.34101017 C40.961939,4.34101017 41.0090237,4.36806767 40.9563908,4.45761336 C40.8948109,4.5627984 40.8665701,4.55276433 40.7504079,4.76271926 C40.6325962,4.97225898 40.5981574,5.03931449 40.4677499,5.09626666 C40.3371424,5.15301124 40.3434903,5.11502006 40.234076,5.23875088 C40.123312,5.36351975 39.9102814,5.2486466 39.9716614,5.66814125 C40.0336912,6.08728994 40.0063501,6.1924058 40.0063501,6.4114952 C40.0063501,6.63113825 39.9925546,6.8308515 40.0200457,6.90745668 C40.0309421,6.93548296 40.0679301,6.94932309 40.1151647,6.94932309 C40.1924395,6.94932309 40.2943564,6.91126273 40.3370425,6.84088557 C40.4056701,6.72594318 40.3927243,6.52546874 40.4676499,6.29648363 C40.5430254,6.06832887 40.5091364,6.04936794 40.5574207,5.99165451 C40.6055051,5.93518673 40.6258484,5.91601812 40.7017737,5.83007087 C40.777699,5.74433122 40.8324311,5.62073875 40.8186856,5.46794361 C40.8046402,5.31466406 40.7082716,5.26795357 40.777699,5.17245663 C40.8467765,5.07716724 40.7017737,5.02948795 40.9013587,4.98180866 C41.1016935,4.93399095 41.2115078,4.90568788 41.2313513,4.8963458 C41.2524945,4.88631173 41.1422303,4.67684119 41.5482481,4.67684119 C41.9547158,4.67684119 42.0240433,4.54397583 42.1339075,4.419553 C42.2441216,4.29582218 42.2301261,4.24814289 42.4498046,4.24814289 C42.577763,4.24814289 42.6660343,4.28959408 42.7122192,4.28959408 C42.7459082,4.28959408 42.7585541,4.26731143 42.7459082,4.19063707 C42.718917,4.00953885 42.6296961,3.86663935 42.5813618,3.80006831 C42.5335274,3.73328966 42.7326126,3.70498652 42.8083379,3.67599145 C42.8839633,3.64748077 42.8839633,3.58070205 42.9666364,3.5421573 C43.0061235,3.52416509 43.0640547,3.4947548 43.1399799,3.4947548 C43.2220532,3.4947548 43.32422,3.52893993 43.4489294,3.64748077 C43.5764379,3.76823597 43.6779548,3.81466968 43.7544299,3.81466968 C43.8228576,3.81466968 43.8698923,3.77827012 43.8962337,3.72346312 C43.9514158,3.60921273 44,3.51385422 44,3.46603651 C44.0000999,3.41925643 43.7795716,3.33303232 43.7036963,3.31441735 Z" id="Shape" fill="#3CA8FD" opacity="0.699999988"></path>
                <path d="M39.4641659,23.60879 C39.385382,23.5238978 39.217034,23.2158158 39.20375,23.1881969 C39.1888823,23.1597638 39.0269718,22.7856545 38.9222332,22.5614467 C38.8159619,22.3373747 38.851011,22.2902124 38.8373694,22.1227352 C38.823779,21.9539007 38.823779,21.8702979 38.7735044,21.6367255 C38.7252225,21.402271 38.7252225,21.4395937 38.6897136,21.2812097 C38.6547156,21.1219435 38.5702094,21 38.5702094,21 C38.5702094,21 38.5631076,21.0937818 38.5201393,21.4305006 C38.4780906,21.7672872 38.5065999,21.7672872 38.4780906,21.8703658 C38.4499389,21.9726979 38.4499389,22.3941053 38.4499389,22.3941053 C38.4499389,22.3941053 38.4259767,22.4403854 38.3541414,22.4403854 C38.3150561,22.4403854 38.261716,22.4271528 38.1904427,22.3841978 C37.9853595,22.2625935 37.8311639,22.1228031 37.8233979,21.8612725 C37.8176756,21.5991992 37.8453675,21.5244859 37.8176756,21.4683661 C37.7886043,21.4118392 37.676253,21.3746522 37.5213932,21.3657626 C37.3608111,21.3643376 37.236351,21.5546834 37.0844546,21.6646836 C36.9985179,21.7269108 36.9311275,21.7518152 36.8656276,21.7518152 C36.8129518,21.7518152 36.7600205,21.7364111 36.6978415,21.7116424 C36.678069,21.70316 36.6610553,21.6990205 36.6468517,21.6990205 C36.5634185,21.6990205 36.5717465,21.8348074 36.4519358,22.0098848 C36.310973,22.2163813 36.1567774,22.3473501 36.0222523,22.4217919 C35.8880336,22.4969802 36.0645564,22.8043837 35.9377972,22.9546246 C35.8114978,23.1040512 35.7402756,23.0670677 35.4661671,23.1693998 C35.1923141,23.2713248 35.3468162,23.3750141 35.2409536,23.5898572 C35.1357041,23.8050396 35.0720436,23.9548055 35.0153314,24.2252934 C34.9600499,24.4963242 35.0720436,24.6000813 35.0720436,24.8524507 C35.0720436,25.1043452 35.1712131,25.2625256 35.1426527,25.5899476 C35.1138368,25.9173018 35.1426527,25.7111447 35.3325616,26.3287338 C35.3886095,26.5105294 35.4117541,26.576421 35.4278481,26.576421 C35.4655029,26.576421 35.4557954,26.1941685 35.7338891,26.0946187 C35.8609548,26.0491528 35.9187909,26.0338166 35.9516942,26.0338166 C36.0197998,26.0338166 35.9741235,26.1039833 36.2126209,26.1229839 C36.2641727,26.1269876 36.3025939,26.1295663 36.3305923,26.1295663 C36.4964369,26.1295663 36.3203228,26.066457 36.3739183,26.0108122 C36.4380899,25.9452599 36.5921322,25.8240629 36.6978926,25.7775113 C36.8032443,25.7304168 36.9795627,25.7027302 37.2682324,25.6838652 C37.2937784,25.6818294 37.3164632,25.6809472 37.3350607,25.6809472 C37.5302321,25.6809472 37.4089908,25.7651608 37.5564423,25.9266664 C37.6572979,26.0372774 37.7037405,26.0832861 37.7278048,26.0832861 C37.7428259,26.0832861 37.748446,26.066457 37.753453,26.0377524 C37.7633138,25.9863828 37.8771978,25.9569997 37.9493397,25.9569997 C37.980046,25.9569997 38.0026797,25.9619534 38.0073802,25.9725395 C38.0207663,26.0107444 38.1120165,26.2352235 38.1548316,26.3197087 C38.1971869,26.4042616 38.3447405,26.6095365 38.4362974,26.8610916 C38.4748718,26.9694632 38.4872361,27 38.4881046,27 L38.4711421,26.9455088 C38.4711421,26.9455088 39.1467314,26.9455088 39.2807456,26.8702526 C39.414811,26.7960822 39.3999943,26.6645705 39.5060612,26.2530706 C39.6114129,25.8423172 39.7249393,25.9831934 39.8997761,25.7209844 C40.0758901,25.459454 39.9846399,24.6836843 39.8932874,24.4492298 C39.8015262,24.2157931 39.5412126,23.6923929 39.4641659,23.60879 Z" id="Shape" fill="#C1E3FE"></path>
                <path d="M33.8884225,18.3601005 C33.8017111,18.1460002 33.8262973,18.2040206 33.7556968,18.0137093 C33.6861358,17.8231746 33.7525786,17.8522127 33.6401216,17.736507 C33.5287839,17.6210805 33.4469098,17.6039927 33.4012553,17.5115734 C33.3551611,17.419489 33.2647718,17.3211504 33.1900536,17.1885244 C33.1284481,17.0778445 33.0384984,17 33.0091549,17 L33,17.0097725 C33,17.0502583 33.041097,17.0966076 33.078476,17.1600447 C33.1157352,17.2236493 32.9922444,17.1885244 33.169625,17.4830378 C33.3475254,17.7772163 33.4706564,17.9215133 33.4753738,18.0314673 C33.4797713,18.1406394 33.3551211,18.3889711 33.5331814,18.5557727 C33.7104821,18.7229094 33.8516431,18.7631718 33.8966579,18.8674857 C33.9419125,18.9714086 34,19 34,19 C34,19 33.9832494,18.6773419 33.9582234,18.613458 C33.9335572,18.5503559 33.9754138,18.573754 33.8884225,18.3601005 Z" id="Shape" fill="#C1E3FE"></path>
                <path d="M26.8244502,21.232772 C26.8287318,21.1837649 26.8819753,21.0742053 26.871246,21.0297971 C26.8665614,21.009102 26.8435413,21 26.8196144,21 C26.792363,21 26.7648094,21.0115931 26.7623411,21.0297971 C26.7623411,21.0297971 26.5537999,21.480251 26.4811127,21.5002754 L26.4643891,21.5023833 L26.4275166,21.4900716 L26.3957317,21.4766581 C26.3761872,21.4766581 26.350044,21.4953411 26.3048601,21.5639895 C26.1943938,21.7278257 25.9555788,21.8956861 26.0072104,21.9953771 C26.0590938,22.0944932 26.1792317,22.3318642 26.1638681,22.3615655 C26.1483535,22.3909315 26.0960671,22.7819349 26.1483535,22.8121152 C26.2002369,22.8409542 26.1791813,22.9943951 26.2832504,23 L26.2900003,23 C26.3955806,23 26.5806987,22.8949436 26.590068,22.8609308 C26.6007469,22.826391 26.7413359,22.5589355 26.7933705,22.4557474 C26.8452539,22.3509305 26.8503919,22.0593786 26.8917979,21.9111595 C26.9337076,21.7627008 27.0372226,21.569307 26.9861452,21.5100481 C26.9337076,21.4505976 26.81901,21.2828331 26.8244502,21.232772 Z" id="Shape" fill="#C1E3FE"></path>
                <path d="M30.2305538,16.1306409 C30.1797275,16.0322453 30.1009183,16 30.1009183,16 C30.1009183,16 30.1178059,16.1745041 30.0835411,16.3266419 C30.0504184,16.4792539 30,16.4034617 30,16.588319 C30,16.7731763 30.0057924,16.8870623 30.0835411,16.9135383 C30.1367333,16.9331384 30.3050391,17 30.4111788,17 C30.464942,17 30.5043466,16.9820596 30.4996148,16.9310045 C30.4879484,16.7779973 30.3920067,16.6694065 30.363779,16.5176639 C30.3363671,16.3648147 30.2806458,16.2288785 30.2305538,16.1306409 Z" id="Shape" fill="#C1E3FE"></path>
                <path d="M6.10524753,2.46623885 L6.14652575,2.4634317 C6.29979663,2.44262865 6.32652597,2.40152384 6.3864133,2.37375301 C6.44630058,2.34618273 6.35311035,2.29811012 6.54635442,2.27675569 C6.67966284,2.26292039 6.73350828,2.23865853 6.7758499,2.23865853 C6.79513563,2.23865853 6.81214962,2.2431199 6.83220872,2.25665442 C6.89949129,2.29811012 6.98528627,2.36041903 6.84579091,2.421976 C6.70610221,2.48458563 6.62586582,2.5048874 6.85903475,2.5671963 C7.01776753,2.60935383 7.08418004,2.62303869 7.13502865,2.62303869 C7.15876121,2.62303869 7.17998039,2.62008115 7.20540469,2.61577018 L7.22469042,2.61451697 C7.31696232,2.61451697 7.51639328,2.69226523 7.49164565,2.70529848 C7.46506132,2.71933428 7.45118911,2.73998694 7.23841762,2.73998694 C7.09669884,2.73998694 7.02545279,2.68479621 6.99214985,2.68479621 C6.97503921,2.68479621 6.96769224,2.69813019 6.96556551,2.73998694 C6.9590886,2.86385281 7.2584284,2.80189479 7.42537815,2.87808912 C7.54384767,2.93182613 7.39260687,3 7.50339113,3 C7.54863288,3 7.63718295,2.98872123 7.80456768,2.96044913 C8.19719439,2.89508246 8.33881648,2.86455459 8.42934831,2.86455459 C8.47144827,2.86455459 8.50310779,2.87152238 8.54322599,2.88505686 C8.61829056,2.9094691 8.81849489,2.9579427 8.92695904,2.9579427 C9.00265197,2.9579427 9.03416648,2.93483378 8.94933824,2.86390292 L8.55709819,2.67762792 C8.55709819,2.67762792 8.31068541,2.53952574 8.25703335,2.44272893 C8.20347798,2.34623289 8.17051337,2.24963657 8.11753799,2.24236801 L8.10845095,2.24216751 C8.06296755,2.24216751 8.04924035,2.2942002 8.02415439,2.34623289 C8.00704375,2.38127223 8.00912215,2.41305327 7.95121659,2.41305327 C7.91656024,2.41305327 7.86203817,2.401975 7.77155471,2.37385333 C7.52533526,2.29821045 6.94560305,2.13930523 6.94560305,2.13930523 C6.94560305,2.13930523 6.69986695,2.00822095 6.64621489,2.00120305 L6.63113429,2 C6.55887317,2 6.35876553,2.03699434 6.26649364,2.05639378 L6.24242274,2.05864954 C6.22033356,2.05864954 6.20592968,2.05138103 6.19457091,2.04391196 L6.16431307,2.02932477 C6.15111754,2.02932477 6.13569865,2.04220764 6.10727756,2.08381372 C6.02689616,2.20146375 6.00002181,2.27048973 6.00002181,2.33209686 C6.00007013,2.38783893 5.99518827,2.46623885 6.10524753,2.46623885 Z" id="Shape" fill="#C1E3FE"></path>
                <path d="M9.14238504,0.573451784 C9.38750061,0.628238159 9.5899455,0.699210517 9.63119554,0.699210517 C9.654738,0.699210517 9.70248251,0.675288576 9.7337879,0.675288576 C9.75798995,0.675288576 9.77295767,0.690284421 9.7569752,0.743126892 C9.72257477,0.863291908 9.60384773,1 9.60384773,1 C9.60384773,1 9.96312394,0.883008686 10.1991067,0.883008686 C10.2183871,0.883008686 10.2365006,0.883722792 10.2535486,0.88499225 C10.4218975,0.900860839 10.433618,0.92260084 10.5855278,0.92260084 C10.6416948,0.92260084 10.7172438,0.920022188 10.8262799,0.912127553 C11.23188,0.884952551 11.4905426,0.798032246 11.4905426,0.693973854 C11.4905426,0.59003448 11.2597859,0.584678799 11.7075493,0.480620407 C12.1543994,0.376998388 12.1754557,0.376998388 12.4616184,0.294600639 C12.7483392,0.213194692 12.7281454,0.179989602 12.8398199,0.158447976 C12.9510377,0.136747674 13,0.0820803165 13,0.0820803165 C13,0.0820803165 12.4960696,0.0281270655 12.1940766,0.0281270655 C12.1467887,0.0281270655 12.1051835,0.029674257 12.0700728,0.0328082998 C11.8978678,0.0474074316 11.7847726,0.0568492583 11.6703076,0.0568492583 C11.613075,0.0568492583 11.5554366,0.0549450136 11.4904919,0.0490339813 C11.2950489,0.0328083386 10.7776221,0 10.7776221,0 C10.7776221,0 10.5818747,0.0105923054 10.4073357,0.065338982 C10.2331519,0.11996668 9.7433774,0.185623016 9.62459959,0.202126393 C9.50566955,0.218312376 9.51251923,0.234776054 9.61774996,0.272940074 C9.72257482,0.311540466 9.79964593,0.338993162 9.88336373,0.382354108 C9.96713229,0.425715092 10.1274138,0.46403775 9.95323006,0.469552108 L9.90264422,0.470504211 C9.75372799,0.470504211 9.64388008,0.446780646 9.56168442,0.388146122 C9.47055886,0.322212052 9.45706256,0.305748374 9.38750066,0.305748374 C9.35096928,0.305748374 9.28693782,0.294124607 9.22579845,0.294124607 C9.16821072,0.294124607 9.11356587,0.304399519 9.08687765,0.34411073 C9.03040618,0.425675355 8.89782762,0.518784427 9.14238504,0.573451784 Z" id="Shape" fill="#C1E3FE"></path>
                <path d="M8.29176004,1.68973385 C8.52759093,1.83472381 8.41634634,1.81101253 8.62577861,1.88302447 C8.76361173,1.93141302 8.92124378,2 9.06710095,2 C9.14254596,2 9.21533208,1.9812066 9.27990423,1.93229121 C9.42481182,1.82102395 9.51635236,1.73741987 9.58966078,1.73741987 C9.61202363,1.73741987 9.63248732,1.74470885 9.65238123,1.76200934 C9.71239537,1.81338371 9.87026484,1.97286384 9.95074266,1.97286384 C9.98431068,1.97286384 10.0046794,1.94590327 9.99907685,1.87152022 C9.98654224,1.70975678 9.9317034,1.68024944 9.89329244,1.68024944 C9.87140438,1.68024944 9.85483401,1.68964614 9.85483401,1.68964614 C9.85483401,1.68964614 9.53491687,1.61271631 9.36911832,1.61271631 C9.31655847,1.61271631 9.27938198,1.6207079 9.27282981,1.64134547 C9.25388548,1.70422418 9.01601298,1.80574348 8.83573314,1.80574348 C8.77168324,1.80574348 8.71518261,1.79327315 8.67805358,1.76192155 C8.53409563,1.64125759 8.41629887,1.59330819 8.42299348,1.45982265 C8.42959315,1.32677616 8.53409563,1.22982349 8.42299348,1.18178629 C8.31165395,1.13278302 8.10924868,1 8.10924868,1 C8.10924868,1 7.95888096,1.20602441 8.01096602,1.25353477 C8.06305109,1.30288913 8.05649892,1.54412916 8.29176004,1.68973385 Z" id="Shape" fill="#C1E3FE"></path>
                <path d="M37.9094042,19.1638889 C37.8112989,19.0902046 37.7129582,19 37.6291639,19 C37.601201,19 37.5744151,19.0106725 37.5495122,19.0351608 C37.452113,19.1339181 37.3744384,19.2619152 37.3744384,19.3599415 L37.3567851,19.383845 C37.3121105,19.383845 37.195222,19.2706871 37.1547842,19.2304093 L37.1412265,19.2163011 L37,19.2010233 L37.005602,19.4801169 C37.005602,19.4801169 37.2479465,19.5940789 37.3797579,19.6395468 C37.5105807,19.6847222 37.5159473,19.8967836 37.5346834,20.0847222 C37.5535606,20.2633041 37.536943,20.4350878 37.653596,20.4350878 L37.6758627,20.43231 L37.7074033,20.4298246 C37.8074387,20.4298246 37.7580565,20.5387427 37.8026841,20.6286551 C37.8511247,20.7271199 38.0841484,20.8326024 38.1085806,20.8326024 C38.1332011,20.8326024 38.2402507,20.5831141 38.3031436,20.2888889 C38.3186314,20.2176169 38.3359081,20.1886696 38.3547854,20.1886696 C38.4131119,20.1886696 38.4851374,20.4724416 38.551608,20.6209796 C38.6390742,20.817617 38.7949882,20.8855994 38.8490309,20.9688597 C38.8626357,20.9910819 38.8841021,21 38.9054273,21 C38.9640834,21 39.030554,20.933041 38.9847495,20.8780701 C38.9216684,20.8034356 38.9871975,19.9190789 38.8298712,19.9190789 L38.8242221,19.9193713 C38.8039326,19.9220759 38.7871267,19.9236841 38.7718742,19.9236841 C38.6592226,19.9236841 38.6558331,19.852266 38.5663897,19.7455408 C38.4632944,19.6238303 38.4345313,19.601535 38.3031436,19.4425438 C38.1717088,19.2835527 38.0410743,19.2619152 37.9094042,19.1638889 Z" id="Shape" fill="#C1E3FE"></path>
            </g>
        </g>
    </g>
</svg>