<?xml version="1.0" encoding="UTF-8"?>
<svg width="44px" height="34px" viewBox="0 0 44 34" version="1.1" xmlns="http://www.w3.org/2000/svg" xmlns:xlink="http://www.w3.org/1999/xlink">
    <!-- Generator: Sketch 49.3 (51167) - http://www.bohemiancoding.com/sketch -->
    <title>15</title>
    <desc>Created with Sketch.</desc>
    <defs></defs>
    <g id="15" stroke="none" stroke-width="1" fill="none" fill-rule="evenodd">
        <g id="Group-15">
            <g transform="translate(7.000000, 6.000000)">
                <path d="M0,23 C0.823191535,9 4.25636384,2 10.2995169,2 C18.589372,2 9.79710145,22.4939759 19.8454106,22.4939759 C24.5346216,22.4939759 26.5442834,18.3614458 25.8743961,10.0963855" id="Path-13" stroke="#CFE7FA" stroke-width="1.88888889" stroke-dasharray="3.777777777777778"></path>
                <path d="M26,4.07529106 L29.8837776,0.191513493 C30.1391289,-0.063837831 30.5531352,-0.063837831 30.8084865,0.191513493 C31.0638378,0.446864817 31.0638378,0.860871113 30.8084865,1.11622244 L26.9247089,5 L30.8084865,8.88377756 C31.0638378,9.13912889 31.0638378,9.55313518 30.8084865,9.80848651 C30.5531352,10.0638378 30.1391289,10.0638378 29.8837776,9.80848651 L26,5.92470894 L22.1162224,9.80848651 C21.8608711,10.0638378 21.4468648,10.0638378 21.1915135,9.80848651 C20.9361622,9.55313518 20.9361622,9.13912889 21.1915135,8.88377756 L25.0752911,5 L21.1915135,1.11622244 C20.9361622,0.860871113 20.9361622,0.446864817 21.1915135,0.191513493 C21.4468648,-0.063837831 21.8608711,-0.063837831 22.1162224,0.191513493 L26,4.07529106 Z" id="Combined-Shape" fill="#72BEF9"></path>
            </g>
        </g>
    </g>
</svg>