<?xml version="1.0" encoding="UTF-8"?>
<svg width="44px" height="34px" viewBox="0 0 44 34" version="1.1" xmlns="http://www.w3.org/2000/svg" xmlns:xlink="http://www.w3.org/1999/xlink">
    <title>1717</title>
    <g id="1717" stroke="none" stroke-width="1" fill="none" fill-rule="evenodd">
        <g id="录像" fill="#63B9FD" fill-rule="nonzero">
            <path d="M21.9207678,30.9995217 C16.7206992,30.9995217 11.5206307,30.9998141 6.32051878,30.9992979 C4.09714476,30.9989781 3.00077849,30.2004011 3.00056151,28.5785265 C2.99981283,20.8585759 2.99981283,13.1386253 3.00056151,5.41867472 C3.00077853,3.82107305 4.10131133,3.00074953 6.24721359,3.00055765 C16.7498651,2.99981412 27.2525166,2.99981412 37.7552115,3.00055765 C39.8706893,3.00074953 40.9978706,3.82094511 40.9983046,5.36427644 C41.0003011,13.1219636 41.0003445,20.8796828 40.9982612,28.63737 C40.9978272,30.1789424 39.8684758,30.9985303 37.7516092,30.999074 C32.4746765,31.0004172 27.1977438,30.9995217 21.9207678,30.9995217 Z M17.0040684,16.9714629 C17.0040684,18.2328045 16.9924011,19.4942605 17.0077038,20.7554113 C17.0203855,21.8006275 17.9624687,22.3185804 18.9576037,21.790821 C21.4080937,20.4913217 23.844676,19.1698055 26.2654485,17.8256616 C27.2536509,17.2769536 27.243421,16.2658886 26.2413955,15.7609093 C23.8256112,14.5434109 21.3933829,13.3515546 18.9469511,12.1849204 C17.9212531,11.6957767 17.0164542,12.2183848 17.0067315,13.2550155 C16.9950643,14.4937678 17.0039415,15.7326344 17.0040684,16.9714629 Z M8.95582904,26.9975948 C8.95582904,26.9968741 8.95582904,26.9961533 8.95582904,26.9953965 C9.47110639,26.9953965 9.98641739,26.9919729 10.5016274,26.9965857 C10.8486571,26.999685 11.0026345,26.825802 10.9998128,26.4525571 C10.9923357,25.4764697 10.9937829,24.5002381 10.9991679,23.5240786 C11.0012546,23.1466173 10.8385939,22.9969517 10.4897467,23.0008078 C9.49890643,23.0117633 8.50776319,23.0141058 7.51702387,22.9999429 C7.12967398,22.9943931 6.99471237,23.1679517 7.00157826,23.5722253 C7.01776691,24.5268701 7.02096425,25.4824159 7.00016469,26.4368446 C6.99090923,26.8615876 7.16417165,27.0059917 7.52890453,26.9996129 C8.00443389,26.9913242 8.48019878,26.9975948 8.95582904,26.9975948 Z M35.0398638,23.0044545 C34.5445777,23.0044545 34.0489888,23.0162175 33.5541402,23.0005214 C33.1915675,22.9890109 32.9950548,23.1158065 32.9999003,23.5414051 C33.0110047,24.5184598 33.007707,25.495767 33.0018857,26.4729299 C32.9998667,26.8100891 33.1265905,26.9968185 33.4525526,26.9971793 C34.4826291,26.998334 35.5127056,26.9985866 36.5427822,26.9998141 C36.8616442,27.0002103 37.0022316,26.8410122 36.9983955,26.4896724 C36.9877287,25.5126177 36.9849021,24.5351301 36.9996405,23.5581837 C37.005933,23.1418224 36.8400749,22.9881811 36.4661287,23.0009184 C35.9911669,23.0171196 35.5153303,23.0048514 35.0398638,23.0044545 Z M8.97435739,10.9907804 C8.97532365,10.9749436 8.97628991,10.9591068 8.97722283,10.9432338 C9.48787126,10.9432338 9.99915273,10.9260229 10.5089349,10.9490912 C10.868248,10.965362 11.0029238,10.8037394 10.9997584,10.4283196 C10.9916952,9.46932303 10.9943607,8.51018184 10.9990254,7.55114916 C11.0007247,7.19695353 10.8985684,6.99418415 10.5246615,6.99993315 C9.52322282,7.01529994 8.521351,7.01468527 7.51987899,7.00007777 C7.15853341,6.99479881 7.02932198,7.15982014 7.04291617,7.53567389 C7.05827627,7.96124375 7.03688543,8.38829604 7.04734762,8.81422746 C7.06397385,9.49051111 6.86162698,10.4048536 7.1841225,10.7746691 C7.49918783,11.1359515 8.35558852,10.9413536 8.97435739,10.9907804 Z M35.0236002,10.9893137 C35.5397007,10.9893137 36.0589004,11.0234891 36.5699814,10.9685303 C36.7237672,10.9519914 36.9717448,10.6926749 36.9775054,10.5359214 C37.0147644,9.52423204 36.9918565,8.51009112 36.9998128,7.49686497 C37.0025693,7.13835174 36.8576097,6.99879576 36.5325877,7.00183275 C35.52033,7.01138286 34.5078028,7.01441986 33.4956462,6.99993005 C33.1344433,6.9947708 32.9968951,7.16162324 32.9998596,7.53857808 C33.0077089,8.53025247 33.0084501,9.52207317 33.0015104,10.5137476 C32.9989501,10.8776396 33.1504114,11.0059623 33.4753997,10.9948388 C33.9910286,10.9772754 34.5074997,10.9901918 35.0236002,10.9893137 Z M8.97185815,18.9919556 C9.46765564,18.9919556 9.96409242,18.9755864 10.4590824,18.9972537 C10.838762,19.0138787 11.0040054,18.8532922 10.9997321,18.4374483 C10.9897724,17.4684489 10.9910847,16.4992303 10.9985881,15.5301944 C11.0015155,15.1530081 10.866925,14.993664 10.5038001,15.0001313 C9.49262216,15.0181448 8.48080496,15.0193505 7.46966074,15.0000217 C7.09085599,14.9927871 6.99677728,15.1746754 7.00202629,15.5443348 C7.01541804,16.4917034 7.01972493,17.4397662 7.00024297,18.3868791 C6.99125905,18.8234038 7.12137435,19.0214421 7.54422382,18.9979479 C8.0189579,18.9716037 8.49591272,18.9919191 8.97185815,18.9919556 Z M35.010686,15.0058968 C34.4948103,15.0058968 33.9785641,15.0190369 33.4632272,15.0012118 C33.1284704,14.9896456 32.9979017,15.14524 32.9999561,15.4967272 C33.0057487,16.4885998 33.0030544,17.4805456 32.9998128,18.4724182 C32.9987437,18.8026031 33.0992044,19.0023758 33.4447381,18.9994477 C34.4763885,18.9906999 35.5082073,18.9909561 36.5398577,18.9998141 C36.871853,19.0026321 36.9995926,18.8402664 36.9971342,18.4913779 C36.9901292,17.4995053 36.9853133,16.5073765 36.99966,15.5157236 C37.0054526,15.1158853 36.8467294,14.9871933 36.4986025,15.0007726 C36.0032365,15.0200984 35.5067255,15.0056772 35.010686,15.0058968 Z" id="形状"></path>
        </g>
    </g>
</svg>