<?xml version="1.0" encoding="UTF-8"?>
<svg width="44px" height="34px" viewBox="0 0 44 34" version="1.1" xmlns="http://www.w3.org/2000/svg" xmlns:xlink="http://www.w3.org/1999/xlink">
    <!-- Generator: Sketch 49.3 (51167) - http://www.bohemiancoding.com/sketch -->
    <title>12</title>
    <desc>Created with Sketch.</desc>
    <defs></defs>
    <g id="12" stroke="none" stroke-width="1" fill="none" fill-rule="evenodd">
        <g id="Combined-Shape">
            <path d="M12,11 C10.3431458,11 9,9.65685425 9,8 C9,6.34314575 10.3431458,5 12,5 C13.6568542,5 15,6.34314575 15,8 C15,9.65685425 13.6568542,11 12,11 Z M6,19 C4.34314575,19 3,17.6568542 3,16 C3,14.3431458 4.34314575,13 6,13 C7.65685425,13 9,14.3431458 9,16 C9,17.6568542 7.65685425,19 6,19 Z M16,21 C14.3431458,21 13,19.6568542 13,18 C13,16.3431458 14.3431458,15 16,15 C17.6568542,15 19,16.3431458 19,18 C19,19.6568542 17.6568542,21 16,21 Z M10,29 C8.34314575,29 7,27.6568542 7,26 C7,24.3431458 8.34314575,23 10,23 C11.6568542,23 13,24.3431458 13,26 C13,27.6568542 11.6568542,29 10,29 Z M22,13 C20.3431458,13 19,11.6568542 19,10 C19,8.34314575 20.3431458,7 22,7 C23.6568542,7 25,8.34314575 25,10 C25,11.6568542 23.6568542,13 22,13 Z" fill="#C2E4FF"></path>
            <path d="M34,18 C32.3431458,18 31,16.6568542 31,15 C31,13.3431458 32.3431458,12 34,12 C35.6568542,12 37,13.3431458 37,15 C37,16.6568542 35.6568542,18 34,18 Z M38,27 C36.3431458,27 35,25.6568542 35,24 C35,22.3431458 36.3431458,21 38,21 C39.6568542,21 41,22.3431458 41,24 C41,25.6568542 39.6568542,27 38,27 Z" fill="#72BEF9"></path>
        </g>
    </g>
</svg>