<?xml version="1.0" encoding="UTF-8"?>
<svg width="44px" height="34px" viewBox="0 0 44 34" version="1.1" xmlns="http://www.w3.org/2000/svg" xmlns:xlink="http://www.w3.org/1999/xlink">
    <!-- Generator: Sketch 49.3 (51167) - http://www.bohemiancoding.com/sketch -->
    <title>3</title>
    <desc>Created with Sketch.</desc>
    <defs></defs>
    <g id="3" stroke="none" stroke-width="1" fill="none" fill-rule="evenodd">
        <g id="Page-1">
            <g transform="translate(3.000000, 4.000000)">
                <path d="M22.034207,8.47723383 C22.2181442,8.44832304 22.4358084,8.44956651 22.6263037,8.37868845 C24.0384666,7.85332037 24.5356278,8.54593581 24.8682137,9.82205177 C25.2139157,11.1488393 24.9159937,11.890572 23.5331858,12.1753277 C22.7228004,12.3419533 21.9274048,12.5051594 21.8593262,13.6497779 C21.7887493,14.8425811 21.1494973,16.1015992 22.7406008,16.8392906 C24.0525195,17.4476607 23.8692069,18.2957104 23.1625008,19.3315249 C22.4820269,20.3284808 21.9180362,21.0695917 20.5964366,20.1419596 C20.006526,19.7278825 19.3026306,19.0374431 18.3904395,19.8665299 C17.5122878,20.6639081 16.1354134,21.0422353 16.8033958,22.7433088 C17.3567688,24.1530982 16.4042927,24.610697 15.1966779,24.8870592 C13.9884386,25.1634215 13.2317666,25.003635 12.9725682,23.599752 C12.8492147,22.9326278 12.849527,21.935361 11.7218578,21.9182633 C10.487074,21.8996111 9.04680529,20.9816159 8.23423389,22.7834108 C7.67773803,24.0175595 6.88890046,24.0094769 5.80089171,23.2630812 C4.75691547,22.5477723 3.9509021,21.9900739 4.94397553,20.6356191 C5.40428692,20.0079752 5.90207278,19.2895576 5.11791952,18.4247209 C4.31659046,17.5409213 3.89593955,16.2138228 2.21552191,16.8321407 C0.773067145,17.3631044 0.374588626,16.414644 0.098838993,15.2069192 C-0.190338992,13.9416836 0.123197398,13.2459595 1.45728849,13.0351905 C2.31732755,12.8993409 3.08742788,12.5592506 3.07275038,11.4954579 C3.05807288,10.4210957 3.95808471,9.18601443 2.39789766,8.36780805 C1.88762031,8.10015011 0.993854224,7.79114663 1.22994338,6.94092077 C1.49288923,5.99308215 2.0640626,5.13259762 2.80449564,4.48878857 C3.28229512,4.07315713 3.71949726,4.73717265 4.17449977,4.91032651 C4.98269914,5.21777564 5.61476852,6.00582776 6.67560827,5.14192368 C7.73613574,4.27864134 8.97747752,3.73399939 8.26764863,2.0065021 C7.92100979,1.16249361 8.13648799,0.45060432 9.24073567,0.39371535 C10.186966,0.344908966 11.5897603,-0.789140005 11.8598888,1.03037442 C12.1874781,3.23536602 13.7838904,3.23412255 15.34033,3.48779139 C16.1529014,3.61991059 16.4526972,2.9506103 16.7421875,2.46689863 C17.4214122,1.33222792 18.0669099,0.991826705 19.2842056,1.88806113 C20.3153781,2.64751333 21.0536251,3.17878792 20.1342515,4.55966663 C19.3569685,5.72697855 19.8566281,7.42805201 20.973055,8.31589298 C21.3065778,8.58137484 21.6613361,8.45298607 22.034207,8.47723383 Z M18.9999216,12.5047243 C18.9944577,8.91055918 16.0995719,6.00576042 12.5168815,6.00000771 C8.91426405,5.99457459 6.02452069,8.86166115 6.00009399,12.4660533 C5.97502448,16.1896544 8.81944987,19.0235031 12.5580212,18.9998531 C16.2107777,18.9768422 19.0053854,16.1589733 18.9999216,12.5047243 Z" id="Combined-Shape" fill="#B3DDFF"></path>
                <path d="M28.9019408,13.8573054 C28.9059514,13.3793334 28.542537,12.9181979 28.822656,12.4788877 C29.0981476,12.0467486 29.5991535,11.9703604 30.0625223,12.0087104 C30.6992688,12.0617145 30.6631741,12.674691 30.7245659,13.0831341 C30.8266797,13.7647041 30.9892599,14.1591168 31.7885864,14.3162583 C32.6162951,14.4783884 32.8871592,14.0727513 33.2209575,13.5180793 C33.5211291,13.0189057 33.6908048,12.3367121 34.5913197,12.8268438 C35.4437085,13.2910972 35.2894579,13.8058602 34.9433196,14.4584339 C34.6212443,15.0648629 34.3824644,15.6329418 34.9491811,16.2992342 C35.4902922,16.9352831 36.0486793,16.7042477 36.6252681,16.5262163 C37.2361004,16.3372724 37.7068732,16.2845801 37.9296111,17.0852534 C38.1218073,17.7743064 37.9252921,18.0892129 37.2799076,18.3835414 C35.2786604,19.2952115 35.186727,19.9253364 36.8122198,21.3324386 C37.2842266,21.74057 37.4468067,22.087279 37.0877113,22.6450689 C36.7628596,23.149543 36.4716345,23.3175971 35.8358135,23.0379226 C33.9277337,22.1988993 33.2906787,22.6706356 33.6291045,24.6551704 C33.7491115,25.3582539 33.6229345,25.6987271 32.9457744,25.9247739 C32.1708194,26.1835585 31.9767722,25.7373889 31.7389178,25.1549677 C30.9920364,23.3272625 30.1050955,23.1953759 28.8809628,24.7293761 C28.4595501,25.2572343 28.1272944,25.6532059 27.371775,25.1848994 C26.5514703,24.6763721 26.9000766,24.1809399 27.2363429,23.6443516 C27.6074699,23.0516413 27.8835784,22.5272128 27.3187128,21.8319241 C26.7985797,21.1921337 26.2534582,21.3623703 25.6565084,21.5167057 C25.0021773,21.6856952 24.3490803,21.9597574 24.0649507,20.958604 C23.7829806,19.9655571 24.4718638,19.8261876 25.1160143,19.6285136 C25.7524522,19.4336457 26.3719226,19.3404208 26.4746535,18.4169028 C26.5702889,17.5560543 26.1158666,17.1878319 25.5411289,16.8196095 C24.9447961,16.4373566 24.4854378,16.1074842 24.9849013,15.2394645 C25.562107,14.2361286 26.071751,14.8837137 26.6094685,15.1593348 C27.1576751,15.4402564 27.635852,15.805361 28.2855555,15.2884153 C28.7890294,14.8880787 29.0583509,14.4787002 28.9019408,13.8573054 Z M33.9999699,18.9830778 C33.9922828,17.3605398 32.6748198,16.0422458 31.0191214,16.0008501 C29.3690405,15.9600334 27.9634708,17.3946985 28.000724,19.0815011 C28.0362033,20.6646697 29.4639475,22.0310175 31.0501657,21.9994641 C32.651167,21.9679108 34.0073614,20.5812994 33.9999699,18.9830778 Z" id="Combined-Shape" fill="#54B1FA"></path>
            </g>
        </g>
    </g>
</svg>