<?xml version="1.0" encoding="UTF-8"?>
<svg width="44px" height="34px" viewBox="0 0 44 34" version="1.1" xmlns="http://www.w3.org/2000/svg" xmlns:xlink="http://www.w3.org/1999/xlink">
    <!-- Generator: Sketch 49.3 (51167) - http://www.bohemiancoding.com/sketch -->
    <title>77</title>
    <desc>Created with Sketch.</desc>
    <defs></defs>
    <g id="77" stroke="none" stroke-width="1" fill="none" fill-rule="evenodd">
        <g fill-rule="nonzero" id="Group">
            <g transform="translate(3.000000, 0.000000)">
                <circle id="Oval" fill="#C2E4FF" cx="4.07726563" cy="23.3269531" r="2.6840625"></circle>
                <circle id="Oval" fill="#C2E4FF" cx="12.5302344" cy="24.8811719" r="1.9775"></circle>
                <circle id="Oval" fill="#C2E4FF" cx="2.50109375" cy="12.8745313" r="1.6953125"></circle>
                <circle id="Oval" fill="#C2E4FF" cx="23.4070312" cy="2.4215625" r="1.97695312"></circle>
                <circle id="Oval" fill="#C2E4FF" cx="24.1130469" cy="24.1751563" r="1.41257812"></circle>
                <circle id="Oval" fill="#C2E4FF" cx="31.4592187" cy="16.6878906" r="1.41257813"></circle>
                <rect id="Rectangle-path" fill="#C2E4FF" transform="translate(11.408466, 16.645928) rotate(48.504420) translate(-11.408466, -16.645928) " x="10.9084659" y="6.31956489" width="1" height="20.6527266"></rect>
                <rect id="Rectangle-path" fill="#C2E4FF" transform="translate(27.134581, 18.758354) rotate(44.497632) translate(-27.134581, -18.758354) " x="15.7472217" y="18.2583543" width="22.7747195" height="1"></rect>
                <rect id="Rectangle-path" fill="#C2E4FF" transform="translate(35.543473, 17.930672) rotate(16.946626) translate(-35.543473, -17.930672) " x="35.0434734" y="11.7341789" width="1" height="12.3929857"></rect>
                <rect id="Rectangle-path" fill="#C2E4FF" transform="translate(34.363778, 14.386490) rotate(48.088591) translate(-34.363778, -14.386490) " x="33.8637781" y="10.6854064" width="1" height="7.40216645"></rect>
                <rect id="Rectangle-path" fill="#C2E4FF" transform="translate(21.632849, 6.407697) rotate(26.987843) translate(-21.632849, -6.407697) " x="21.1328485" y="2.04857012" width="1" height="8.71825357"></rect>
                <rect id="Rectangle-path" fill="#C2E4FF" transform="translate(3.514264, 18.068087) rotate(-8.650310) translate(-3.514264, -18.068087) " x="3.01426398" y="12.8375611" width="1" height="10.461052"></rect>
                <rect id="Rectangle-path" fill="#C2E4FF" transform="translate(7.270207, 24.327243) rotate(8.459087) translate(-7.270207, -24.327243) " x="1.98614079" y="23.8272427" width="10.5681333" height="1"></rect>
                <rect id="Rectangle-path" fill="#C2E4FF" transform="translate(18.335398, 24.757654) rotate(86.525879) translate(-18.335398, -24.757654) " x="17.835398" y="18.955638" width="1" height="11.6040324"></rect>
                <circle id="Oval" fill="#C2E4FF" cx="17.4745312" cy="31.8024219" r="1.41257813"></circle>
                <circle id="Oval" fill="#C2E4FF" cx="31.8825" cy="7.08257812" r="1"></circle>
                <circle id="Oval" fill="#C2E4FF" cx="10.8354688" cy="5.24617188" r="1"></circle>
                <rect id="Rectangle-path" fill="#C2E4FF" transform="translate(15.030973, 7.913009) rotate(29.849354) translate(-15.030973, -7.913009) " x="10.0641935" y="7.4130087" width="9.93356009" height="1"></rect>
                <rect id="Rectangle-path" fill="#C2E4FF" transform="translate(34.270512, 9.581653) rotate(42.515726) translate(-34.270512, -9.581653) " x="30.8213336" y="9.08165324" width="6.8983573" height="1"></rect>
                <rect id="Rectangle-path" fill="#C2E4FF" transform="translate(14.816256, 28.474880) rotate(54.466318) translate(-14.816256, -28.474880) " x="10.5630732" y="27.9748804" width="8.50636543" height="1"></rect>
                <circle id="Oval" fill="#2DA1FC" opacity="0.699999988" cx="19.4520312" cy="10.1904687" r="3.81390625"></circle>
                <circle id="Oval" fill="#2DA1FC" opacity="0.699999988" cx="33.4136719" cy="24.5764844" r="3.10789062"></circle>
                <circle id="Oval" fill="#2DA1FC" opacity="0.699999988" cx="36.9673438" cy="11.7441406" r="1.9775"></circle>
            </g>
        </g>
    </g>
</svg>