<?xml version="1.0" encoding="UTF-8"?>
<svg width="34px" height="34px" viewBox="0 0 34 34" version="1.1" xmlns="http://www.w3.org/2000/svg" xmlns:xlink="http://www.w3.org/1999/xlink">
    <!-- Generator: Sketch 50.2 (55047) - http://www.bohemiancoding.com/sketch -->
    <title>66</title>
    <desc>Created with Sketch.</desc>
    <defs></defs>
    <g id="Page-1" stroke="none" stroke-width="1" fill="none" fill-rule="evenodd">
        <g id="规范-UI-icons" transform="translate(-1057.000000, -655.000000)">
            <g id="66" transform="translate(1051.000000, 655.000000)">
                <g id="Group-107" opacity="0.600000024" transform="translate(6.000000, 0.000000)">
                    <circle id="Oval-5" stroke="#C2E4FF" cx="17" cy="17" r="16.5"></circle>
                    <path d="M17,15.6923077 L29,6 L30,7 L17.5503393,17.0554951 L30.9511131,27 L30,28.0351677 L17,18.3886055 L17,34 L16,34 L16,18.3076923 L4,28 L3,27 L15.2601562,17.0975661 L3,8 L4,7 L16,15.9050125 L16,0 L17,0 L17,15.6923077 Z" id="Combined-Shape" fill="#C2E4FF" fill-rule="nonzero"></path>
                    <circle id="Oval-5" stroke="#C2E4FF" cx="16.5" cy="16.5" r="9"></circle>
                </g>
                <polygon id="Path-4" fill="#3CA8FD" opacity="0.699999988" points="34 8 23 12 18 8 12 25 23 23 34 27 28 17"></polygon>
            </g>
        </g>
    </g>
</svg>