<?xml version="1.0" encoding="UTF-8"?>
<svg width="44px" height="34px" viewBox="0 0 44 34" version="1.1" xmlns="http://www.w3.org/2000/svg" xmlns:xlink="http://www.w3.org/1999/xlink">
    <!-- Generator: Sketch 49.3 (51167) - http://www.bohemiancoding.com/sketch -->
    <title>1212</title>
    <desc>Created with Sketch.</desc>
    <defs></defs>
    <g id="1212" stroke="none" stroke-width="1" fill="none" fill-rule="evenodd" opacity="0.699999988">
        <g>
            <path d="M4,5.99263102 C4.66666667,4.66421034 5.4381206,4.00827217 6.31436181,4.02481651 C17.3011433,3.97518349 27.2879248,4.02481651 38.2747063,4 C39.4249021,4.01654434 40,4.68075468 40,5.99263102 L35,13 L9,13 L4,5.99263102 Z" id="Combined-Shape" fill="#C1E3FE" fill-rule="nonzero"></path>
            <polygon id="Shape" fill="#76C2FD" points="10 15 34 15 30.8128342 20.9832967 13.1176471 21"></polygon>
            <path d="M15,23.0192443 C19.6684804,22.9895254 24.3315196,22.9994317 29,23.0142912 C27.0520793,25.4512371 25.125923,27.9030425 23.2052079,30.3598011 C22.7209483,31.2018352 21.1539059,31.2315541 20.7131753,30.3399885 C18.7924602,27.9079957 17.007773,25.3868463 15,23.0192443 Z" id="Shape" fill="#C1E3FE"></path>
        </g>
    </g>
</svg>