<?xml version="1.0" encoding="UTF-8"?>
<svg width="36px" height="28px" viewBox="0 0 36 28" version="1.1" xmlns="http://www.w3.org/2000/svg" xmlns:xlink="http://www.w3.org/1999/xlink">
    <!-- Generator: Sketch 50.2 (55047) - http://www.bohemiancoding.com/sketch -->
    <title>33</title>
    <desc>Created with Sketch.</desc>
    <defs></defs>
    <g id="Page-1" stroke="none" stroke-width="1" fill="none" fill-rule="evenodd" opacity="0.800000012">
        <g id="规范-UI-icons" transform="translate(-1005.000000, -658.000000)">
            <g id="33" transform="translate(1001.000000, 655.000000)">
                <g id="Group-2" transform="translate(4.000000, 3.000000)">
                    <path d="M0,28 L8.41816821,8.35760751 C8.63572383,7.84997772 9.22360276,7.61482615 9.73123254,7.83238177 C9.84816565,7.88249596 9.9544623,7.9544623 10.04442,8.04442002 L16.9393398,14.9393398 C17.3298641,15.3298641 17.9630291,15.3298641 18.3535534,14.9393398 C18.4469099,14.8459833 18.5208558,14.7350644 18.5711247,14.6129829 L24.0371672,1.33830823 C24.2474495,0.827622622 24.8319095,0.58409763 25.3425951,0.794379941 C25.5981844,0.899622589 25.7988132,1.10596213 25.8968428,1.36440381 L36,28 L0,28 Z" id="Path-2" fill="#D3EBFE"></path>
                    <path d="M0,28 L9.55626187,20.3549905 C9.83142484,20.1348601 10.2021362,20.0758011 10.5320804,20.1995301 L17.2741793,22.7278173 C17.7013966,22.8880237 18.1828821,22.7387399 18.4445347,22.3649504 L24.1996731,14.1433241 C24.5163876,13.6908748 25.1399181,13.58084 25.5923674,13.8975545 C25.6819515,13.9602634 25.7606436,14.0372413 25.82531,14.1254228 L36,28 L0,28 Z" id="Path-2" fill="#9FD4FD"></path>
                </g>
            </g>
        </g>
    </g>
</svg>