<?xml version="1.0" encoding="UTF-8"?>
<svg width="31px" height="30px" viewBox="0 0 31 30" version="1.1" xmlns="http://www.w3.org/2000/svg" xmlns:xlink="http://www.w3.org/1999/xlink">
    <!-- Generator: Sketch 49.3 (51167) - http://www.bohemiancoding.com/sketch -->
    <title>44</title>
    <desc>Created with Sketch.</desc>
    <defs></defs>
    <g id="Page-1" stroke="none" stroke-width="1" fill="none" fill-rule="evenodd">
        <g id="规范-UI-icons" transform="translate(-1058.000000, -737.000000)">
            <g id="44" transform="translate(1051.000000, 735.000000)">
                <g id="Group-107" transform="translate(7.000000, 2.000000)">
                    <path d="M0,16 L6,16 L6,22 L0,22 L0,16 Z M24,0 L30,0 L30,21 L24,21 L24,0 Z M16,5 L22,5 L22,21 L16,21 L16,5 Z M8,10 L14,10 L14,21 L8,21 L8,10 Z" id="Combined-Shape" fill="#B3DDFF" fill-rule="nonzero"></path>
                    <rect id="Rectangle-16" fill="#68B9F8" x="0" y="25" width="29" height="2"></rect>
                    <path d="M25.5,22.9342585 L25.5,29.0657415 L30.0986122,26 L25.5,22.9342585 Z" id="Triangle" stroke="#76BFF8"></path>
                </g>
            </g>
        </g>
    </g>
</svg>