<?xml version="1.0" encoding="UTF-8"?>
<svg width="34px" height="25px" viewBox="0 0 34 25" version="1.1" xmlns="http://www.w3.org/2000/svg" xmlns:xlink="http://www.w3.org/1999/xlink">
    <!-- Generator: Sketch 50.2 (55047) - http://www.bohemiancoding.com/sketch -->
    <title>1313</title>
    <desc>Created with Sketch.</desc>
    <defs></defs>
    <g id="Page-1" stroke="none" stroke-width="1" fill="none" fill-rule="evenodd">
        <g id="规范-UI-icons" transform="translate(-956.000000, -660.000000)">
            <g id="1313" transform="translate(951.000000, 655.000000)">
                <g id="Group" transform="translate(5.000000, 5.000000)">
                    <path d="M0,18 L10,18 L10,25 L0,25 L0,18 Z M12,18 L22,18 L22,25 L12,25 L12,18 Z M24,18 L34,18 L34,25 L24,25 L24,18 Z" id="Combined-Shape" fill="#C1E3FE" fill-rule="nonzero" opacity="0.7"></path>
                    <rect id="Combined-Shape" fill="#76C2FD" fill-rule="nonzero" opacity="0.7" x="0" y="9" width="10" height="7"></rect>
                    <rect id="Rectangle-path" fill="#C1E3FE" opacity="0.7" x="12" y="9" width="10" height="7"></rect>
                    <rect id="Rectangle-path" fill="#C1E3FE" opacity="0.7" x="24" y="9" width="10" height="7"></rect>
                    <rect id="Combined-Shape" fill="#C1E3FE" fill-rule="nonzero" opacity="0.7" x="24" y="0" width="10" height="7"></rect>
                    <rect id="Rectangle-path" fill="#76C2FD" opacity="0.7" x="12" y="0" width="10" height="7"></rect>
                    <rect id="Rectangle-path" fill="#76C2FD" x="0" y="0" width="10" height="7"></rect>
                </g>
            </g>
        </g>
    </g>
</svg>