<?xml version="1.0" encoding="UTF-8"?>
<svg width="44px" height="34px" viewBox="0 0 44 34" version="1.1" xmlns="http://www.w3.org/2000/svg" xmlns:xlink="http://www.w3.org/1999/xlink">
    <!-- Generator: Sketch 55.2 (78181) - https://sketchapp.com -->
    <title>1515</title>
    <desc>Created with Sketch.</desc>
    <g id="1515" stroke="none" stroke-width="1" fill="none" fill-rule="evenodd">
        <g></g>
        <g id="编组" transform="translate(3.000000, 1.000000)" fill-rule="nonzero">
            <path d="M25.867392,7.48097338 L28.9984914,2.74118511 C26.009909,0.945471143 22.5704965,-0.0034736541 19.0632451,4.61852778e-14 C8.55058257,4.61852778e-14 -2.98427949e-13,8.36647405 -2.98427949e-13,18.6510512 C-2.98427949e-13,23.277029 1.73366713,27.5116099 4.59521101,30.7746384 L9.17339751,27.3339546 C6.97853106,24.9518935 5.76480887,21.8580554 5.76706789,18.6510512 C5.76706789,11.4782179 11.7313369,5.64196329 19.0632451,5.64196329 C21.5474113,5.64196329 23.8755192,6.31511039 25.867392,7.48097338 Z" id="路径" fill="#B3DDFF"></path>
            <path d="M29.8043203,3.25333207 L26.673221,7.99312034 C30.2348827,10.4233777 32.358011,14.4028631 32.3594222,18.6510512 C32.3594222,21.9848642 31.0683935,25.0299873 28.9530926,27.3339546 L33.5312791,30.7732505 C36.4988365,27.4019487 38.1300571,23.1001052 38.1279109,18.6510512 C38.1279109,12.2623996 34.8251452,6.61490369 29.8043203,3.25333207" id="路径" fill="#6CBDFC"></path>
            <path d="M23.1079955,13.2270124 L17.1593323,21.4657775 L17.1579136,21.4796569 C16.6303397,22.085217 16.5393418,22.9464228 16.9291419,23.6447553 C17.3189421,24.3430877 18.1087208,24.7337574 18.9146703,24.626911 C19.7206197,24.5200646 20.3756377,23.9378553 20.5614059,23.1632185 L23.4882105,13.4060557 C23.5577275,13.1798227 23.2470293,13.0327019 23.1079955,13.2256245" id="路径" fill="#32CBFF"></path>
        </g>
    </g>
</svg>