<?xml version="1.0" encoding="UTF-8"?>
<svg width="44px" height="34px" viewBox="0 0 44 34" version="1.1" xmlns="http://www.w3.org/2000/svg" xmlns:xlink="http://www.w3.org/1999/xlink">
    <!-- Generator: Sketch 49.3 (51167) - http://www.bohemiancoding.com/sketch -->
    <title>7</title>
    <desc>Created with Sketch.</desc>
    <defs></defs>
    <g id="7" stroke="none" stroke-width="1" fill="none" fill-rule="evenodd">
        <g id="Group-12">
            <g transform="translate(7.000000, 2.000000)">
                <path d="M2,0 L18,0 C19.1045695,-2.02906125e-16 20,0.8954305 20,2 L20,28 C20,29.1045695 19.1045695,30 18,30 L2,30 C0.8954305,30 1.3527075e-16,29.1045695 0,28 L0,2 C-1.3527075e-16,0.8954305 0.8954305,2.02906125e-16 2,0 Z M5,3 C3.8954305,3 3,3.8954305 3,5 L3,21 C3,22.1045695 3.8954305,23 5,23 L15,23 C16.1045695,23 17,22.1045695 17,21 L17,5 C17,3.8954305 16.1045695,3 15,3 L5,3 Z M10,28 C11.1045695,28 12,27.1045695 12,26 C12,24.8954305 11.1045695,24 10,24 C8.8954305,24 8,24.8954305 8,26 C8,27.1045695 8.8954305,28 10,28 Z" id="Combined-Shape" fill="#B3DDFF"></path>
                <path d="M17,8 L20,6" id="Path-10"></path>
                <circle id="Oval-6" fill="#54B1FA" cx="7.5" cy="12.5" r="1.5"></circle>
                <circle id="Oval-6" fill="#54B1FA" cx="13.5" cy="16.5" r="1.5"></circle>
                <polyline id="Path-8" stroke="#54B1FA" points="8 12 23 4 31 4"></polyline>
                <polyline id="Path-9" stroke="#54B1FA" points="14 17 23 22 31 22"></polyline>
            </g>
        </g>
    </g>
</svg>