<?xml version="1.0" encoding="UTF-8"?>
<svg width="44px" height="34px" viewBox="0 0 44 34" version="1.1" xmlns="http://www.w3.org/2000/svg" xmlns:xlink="http://www.w3.org/1999/xlink">
    <!-- Generator: Sketch 49.3 (51167) - http://www.bohemiancoding.com/sketch -->
    <title>1</title>
    <desc>Created with Sketch.</desc>
    <defs></defs>
    <g id="1" stroke="none" stroke-width="1" fill="none" fill-rule="evenodd">
        <g>
            <path d="M10,3.99803129 C10.0098969,2.50050551 10.475567,2.01003129 12,2.00662922 C19.5228866,1.98961892 27.4771134,2.0112684 35,2.00662922 C36.3889691,2.00570139 36.9996907,2.5935983 37,3.99803129 C37.0024742,11.5722581 37,19.4237781 37,26.9980313 C37,27.9980313 36,28.9980313 35,28.9980313 C31.5477644,28.9980313 29.4521649,28.9927736 26,28.9980313 C25,28.9980313 24,27.9980313 24,26.9980313 C24,24.0659927 24.0034021,20.92999 24,17.9980313 C23.9969072,15.4137014 23.5141237,15.0014333 21,14.9980313 C18.0163918,14.9946292 14.983299,15.0230828 12,14.9980313 C11.2475258,14.9918457 10,13.9980313 10,12.9980313 C9.98453608,9.40194881 9.98453608,6.40194881 10,3.99803129 Z" id="Combined-Shape" fill="#B3DDFF"></path>
            <rect id="Path" fill="#54B1FA" x="7" y="17.9980313" width="14" height="14" rx="3"></rect>
        </g>
    </g>
</svg>