<?xml version="1.0" encoding="UTF-8"?>
<svg width="24px" height="24px" viewBox="0 0 24 24" version="1.1" xmlns="http://www.w3.org/2000/svg" xmlns:xlink="http://www.w3.org/1999/xlink">
    <title>A</title>
    <defs>
        <linearGradient x1="50%" y1="125.947732%" x2="50%" y2="0%" id="linearGradient-1">
            <stop stop-color="#7981FF" offset="0%"></stop>
            <stop stop-color="#2CAFFF" offset="100%"></stop>
        </linearGradient>
    </defs>
    <g id="页面-1" stroke="none" stroke-width="1" fill="none" fill-rule="evenodd">
        <g id="弹窗全部内容" transform="translate(-463.000000, -205.000000)" fill="url(#linearGradient-1)" fill-rule="nonzero">
            <g id="弹窗" transform="translate(433.000000, 135.000000)">
                <g id="问答" transform="translate(30.000000, 34.000000)">
                    <g id="A" transform="translate(0.000000, 36.000000)">
                        <path d="M12,0 C18.6,0 24,5.4 24,12 C24,18.6 18.6,24 12,24 C5.4,24 0,18.6 0,12 C0,5.4 5.4,0 12,0 Z M13.8,6 L10.2,6 L6.45,18 L9.3,18 L10.2,15 L13.65,15 L14.55,18 L14.55,18.15 L17.55,18.15 L13.8,6 Z M11.5,8 C11.6666667,8.75757576 12,9.66666667 12.1666667,10.4242424 L12.1666667,10.4242424 L13,13 L10,13 L10.8333333,10.4242424 C11.1666667,9.66666667 11.3333333,8.75757576 11.5,8 Z" id="形状结合"></path>
                    </g>
                </g>
            </g>
        </g>
    </g>
</svg>