<?xml version="1.0" encoding="UTF-8"?>
<svg width="14px" height="14px" viewBox="0 0 14 14" version="1.1" xmlns="http://www.w3.org/2000/svg" xmlns:xlink="http://www.w3.org/1999/xlink">
    <title>退出全屏</title>
    <g id="页面-1" stroke="none" stroke-width="1" fill="none" fill-rule="evenodd">
        <g id="视频缩小" transform="translate(-7.000000, -7.000000)" fill="#FFFFFF">
            <g id="缩小">
                <path d="M12.9793701,15.9746093 L12.9793701,20.9666747 L10.9825439,20.9666747 L10.9825439,17.9714355 L7.98730466,17.9714355 L7.98730466,15.9746093 L12.9793701,15.9746093 Z M20.9666747,15.9746093 L20.9666747,17.9714355 L17.9714355,17.9714355 L17.9714355,20.9666747 L15.9746093,20.9666747 L15.9746093,15.9746093 L20.9666747,15.9746093 Z M12.9793701,7.98730466 L12.9793701,12.9793701 L7.98730466,12.9793701 L7.98730466,10.9825439 L10.9825439,10.9825439 L10.9825439,7.98730466 L12.9793701,7.98730466 Z M17.9714355,7.98730466 L17.9714355,10.9825439 L20.9666747,10.9825439 L20.9666747,12.9793701 L15.9746093,12.9793701 L15.9746093,7.98730466 L17.9714355,7.98730466 Z" id="退出全屏"></path>
            </g>
        </g>
    </g>
</svg>