<?xml version="1.0" encoding="UTF-8"?>
<svg width="82px" height="82px" viewBox="0 0 82 82" version="1.1" xmlns="http://www.w3.org/2000/svg" xmlns:xlink="http://www.w3.org/1999/xlink">
    <title>关闭音乐</title>
    <defs>
        <circle id="path-1" cx="41" cy="41" r="41"></circle>
    </defs>
    <g id="页面-1" stroke="none" stroke-width="1" fill="none" fill-rule="evenodd" opacity="0.600000024">
        <g id="插入音乐1" transform="translate(-934.000000, -276.000000)">
            <g id="内容区域" transform="translate(332.000000, 76.000000)">
                <g id="关闭音乐" transform="translate(602.000000, 200.000000)">
                    <mask id="mask-2" fill="white">
                        <use xlink:href="#path-1"></use>
                    </mask>
                    <use id="椭圆形" fill="#FFFFFF" xlink:href="#path-1"></use>
                    <circle id="椭圆形" fill="#FFFFFF" mask="url(#mask-2)" cx="41" cy="41" r="41"></circle>
                    <path d="M55.018924,2.48287046 C33.7476139,-5.25853784 10.226429,5.70653535 2.48255483,26.9806736 C-5.25875682,48.2548119 5.70874197,71.778853 26.9800521,79.5176988 C48.2539248,87.2591071 71.7725472,76.2889088 79.5164213,55.0198956 C87.2602955,33.7457573 76.2902342,10.2268413 55.018924,2.48287046 Z M29.438159,18.0367742 L41.265,38.328 L42.4908629,34.9603974 C43.9207378,31.0422864 45.6760501,26.1145379 47.4954249,21.2149773 C47.8464873,20.2514653 48.1001748,19.7927722 48.8151122,19.3597043 C49.5300496,18.9266365 50.311612,18.8061975 51.167487,19.0035124 C51.8901119,19.1521392 52.4051743,19.5006436 52.7049868,20.0439003 C53.0099242,20.587157 53.2661742,21.2816031 53.4788617,22.1272386 C53.6864242,22.9754366 53.9734241,23.9491986 54.3296116,25.0562123 C54.6857991,26.1606635 55.285424,27.3394281 56.1284864,28.587381 C56.8331738,29.7097699 57.4942988,30.563093 58.1067362,31.1652879 C58.7166111,31.7649203 59.3008611,32.3261148 59.833861,32.8386211 C60.3694234,33.35369 60.8716734,33.9200095 61.3508608,34.5478298 C61.8300483,35.1730875 62.2810482,36.0699736 62.7064232,37.2410506 C63.1471731,38.3736896 63.2804231,39.4371403 63.1061731,40.4314026 C62.9651851,41.3264648 62.6611955,42.1880689 62.2092982,42.973434 C61.8553232,43.5965533 61.3815597,44.1434783 60.8152984,44.5827039 C60.3130484,44.949146 59.951736,45.069585 59.7339235,44.9517085 C59.5135485,44.8389571 59.3700485,44.5955166 59.3008611,44.2316371 C59.2291111,43.8703201 59.2906111,43.2758128 59.4776735,42.4404274 C59.787736,41.0874107 59.715986,39.9752719 59.2701111,39.1193863 C58.8242361,38.2635007 57.9427362,37.4434906 56.6332988,36.6670435 C55.3038733,35.8677126 54.1915172,34.7535825 53.3942992,33.4228783 C52.6837585,32.2719237 52.0519394,31.074192 51.5031744,29.8378965 C51.0367995,28.8769471 50.572987,28.428504 50.1066121,28.4823172 C49.6427996,28.5386929 49.2789247,29.1127 49.0841747,29.6405815 L47.1084874,35.4395908 L44.212,43.385 L56.7813585,64.9499861 L55.0534346,65.9571004 L43.322,45.829 L42.101363,49.1798858 L39.4107382,56.5856025 C39.1519258,57.3902374 38.5804883,57.8822435 37.9475509,58.7586294 C37.2674349,59.6751376 36.3864838,60.4237363 35.3722387,60.9470315 C34.2883013,61.5338512 32.999364,61.8977307 31.4977391,62.0514826 C29.9986768,62.202672 28.2792395,61.9771692 26.3419897,61.3877869 C24.3765524,60.785592 22.7647401,59.8041423 21.4937402,58.4408754 C20.2304279,57.0776086 19.3924905,55.6349032 18.9824905,54.1178844 C18.5725925,52.6562054 18.6417427,51.1016525 19.179803,49.682142 C19.7230529,48.2394367 20.8300528,47.1119227 22.4982401,46.2919126 C24.1689899,45.4719024 25.7961773,45.069585 27.3849271,45.0849602 C28.868056,45.0851285 30.3426861,45.3088743 31.7591141,45.7486559 C33.0890514,46.1714736 34.2268013,46.689105 35.1723637,47.3015501 C36.1179261,47.903745 37.071176,48.3240002 37.491426,48.7006924 L40.375,40.773 L27.7102352,19.0438885 L29.438159,18.0367742 Z" id="形状" fill="#000000" fill-rule="nonzero" mask="url(#mask-2)" transform="translate(41.000000, 41.000000) rotate(-20.000000) translate(-41.000000, -41.000000) "></path>
                    <circle id="椭圆形" stroke="#FFFFFF" stroke-width="2.27777778" mask="url(#mask-2)" cx="41" cy="41" r="39.8611111"></circle>
                </g>
            </g>
        </g>
    </g>
</svg>