<?xml version="1.0" encoding="UTF-8"?>
<svg width="48px" height="48px" viewBox="0 0 48 48" version="1.1" xmlns="http://www.w3.org/2000/svg" xmlns:xlink="http://www.w3.org/1999/xlink">
    <title>背景音乐</title>
    <g id="页面-1" stroke="none" stroke-width="1" fill="none" fill-rule="evenodd" opacity="0.699999988">
        <g id="插入音乐1" transform="translate(-102.000000, -101.000000)" fill="#000000" fill-rule="nonzero">
            <g id="添加图表" transform="translate(66.000000, 91.000000)">
                <g id="缩略图">
                    <g id="3-Donut-Chart-1024x1024">
                        <path d="M60.3672753,10 C66.7146481,10.1337979 72.2913449,12.4672334 76.8244181,17.0003066 C79.1578536,19.3337421 80.8437073,21.7956237 82.0050732,24.6428432 C83.3055889,27.4954146 83.9531708,30.604878 83.9531708,33.9658815 L83.9531708,33.9658815 L83.9531708,35.1379512 C83.6909268,41.2284321 81.3574913,46.542885 76.8244181,50.9475122 C72.1682509,55.6090313 66.591554,57.9424669 59.9819373,57.9424669 C53.3669687,57.9424669 47.6671777,55.6143833 43.0003066,50.9475122 C38.3334355,46.2806411 36,40.5808501 36,33.9712334 C36,27.3616167 38.3334356,21.7956237 43.0056586,17.0003066 C47.6725296,12.3334355 53.3723206,10 59.9819373,10 L59.9819373,10 Z M62.3831419,20.0316372 C62.1094621,19.7928358 61.7563719,19.7042551 61.3291258,19.7671754 C60.818836,19.8299916 60.4130394,20.052715 60.1064813,20.4340654 C59.7999231,20.8154158 59.7522124,21.1185164 59.7520073,21.7187947 C59.7321607,24.778118 59.7531959,27.8401205 59.7511062,30.281603 L59.7519981,38.8405662 C59.4454174,38.7174983 58.8369309,38.6771783 58.1962475,38.5352407 C57.553512,38.3876648 56.8240434,38.3307198 56.0078417,38.3644057 C55.1406684,38.4060763 54.284732,38.578233 53.4688826,38.8750731 C52.5918903,39.1846944 51.7773799,39.7317689 51.0225323,40.5173226 C50.2690943,41.3023633 49.8859096,42.1441971 49.875927,43.0465398 C49.8641553,43.9350847 50.1373504,44.8040326 50.6554588,45.5259852 C51.1847027,46.2783577 51.9344614,46.9041771 52.9022995,47.4011372 C53.8743662,47.8965582 54.9574591,48.1137224 56.1591389,48.051474 C57.3427486,47.9878212 58.3336964,47.7676189 59.1280074,47.3843324 C59.9232149,46.9991234 60.5593617,46.5409122 61.0381113,46.001112 C61.4912437,45.5102073 61.8259485,44.9220577 62.0165645,44.2817556 C62.1892621,43.6729688 62.4050862,43.2879283 62.3863561,42.7935115 L62.3863561,42.7935115 L62.3836962,38.1812119 L62.3870329,29.6207097 L62.3127856,26.0353374 C62.314225,25.7059785 62.3994593,25.3173876 62.643299,25.1935189 C62.8890613,25.0705467 63.2339692,25.2243606 63.682894,25.6595728 C64.2322648,26.2297479 64.8195998,26.7620824 65.4408717,27.2529259 C66.1458088,27.8252898 66.9807324,28.2154312 67.872033,28.3889541 C68.7477574,28.5538913 69.3968105,28.828467 69.8134244,29.2099916 C70.2300384,29.5915161 70.4921633,30.1888988 70.5924925,30.9952212 C70.6568461,31.4921878 70.7420416,31.8315176 70.8538468,32.0159002 C70.9647556,32.2022054 71.0924282,32.3073835 71.2362222,32.3252834 C71.3796327,32.3465154 71.5542649,32.207929 71.7571703,31.9058086 C71.9807142,31.5508369 72.1318163,31.1551425 72.2017724,30.7415188 C72.2931093,30.2190448 72.2878239,29.6842466 72.1861787,29.1636783 C72.0829692,28.5818844 71.796763,28.023596 71.3275601,27.4888133 C70.859119,26.929809 70.4314774,26.5267576 70.0427127,26.2787625 C69.653435,26.0293578 69.2637843,25.8183998 68.8660703,25.6423023 C68.470279,25.4671012 68.0365491,25.2753793 67.5810283,25.0676443 C67.123585,24.8590127 66.5890828,24.5219922 65.9767496,24.0456898 C65.2631626,23.5280228 64.6973337,22.9996759 64.280289,22.4634683 C63.8627313,21.9258512 63.5099091,21.4476791 63.2259213,21.0226714 C62.9396276,20.6000993 62.6596408,20.2694125 62.3831419,20.0316372 Z" id="背景音乐"></path>
                    </g>
                </g>
            </g>
        </g>
    </g>
</svg>