<?xml version="1.0" encoding="UTF-8"?>
<svg width="82px" height="82px" viewBox="0 0 82 82" version="1.1" xmlns="http://www.w3.org/2000/svg" xmlns:xlink="http://www.w3.org/1999/xlink">
    <title>音乐</title>
    <g id="页面-1" stroke="none" stroke-width="1" fill="none" fill-rule="evenodd" opacity="0.600000024">
        <g id="插入音乐1" transform="translate(-934.000000, -126.000000)" fill-rule="nonzero">
            <g id="内容区域" transform="translate(332.000000, 76.000000)">
                <g id="音乐" transform="translate(604.000000, 52.000000)">
                    <path d="M1.42177221,25.3224949 C-2.35460134,35.700464 -1.56760354,46.6271134 2.75764891,55.9029955 C7.08276708,65.1785897 14.9459023,72.8035123 25.3220598,76.5785258 C35.6990486,80.3546369 46.6235509,79.567382 55.8983107,75.2425448 C65.1739516,70.9172969 72.7995317,63.0537864 76.5772274,52.6781193 C80.3546005,42.3008383 79.5679714,31.3761733 75.243178,22.1012758 C70.9179844,12.8255199 63.0539569,5.19983243 52.6771663,1.42208844 C42.3003356,-2.35442005 31.374808,-1.56793128 22.0992023,2.75730026 C12.8243497,7.08218068 5.19914097,14.9452259 1.42177221,25.3224949 Z" id="路径" stroke="#FFFFFF" stroke-width="2" fill="#000000"></path>
                    <path d="M59.0966544,42.6712402 C58.5944044,43.0376822 58.233092,43.1581212 58.0152795,43.0402447 C57.7949045,42.9274933 57.6514046,42.6840528 57.5822171,42.3201733 C57.5104671,41.9588564 57.5719671,41.364349 57.7590295,40.5289637 C58.069092,39.1759469 57.997342,38.0638082 57.5514671,37.2079226 C57.1055921,36.352037 56.2240922,35.5320268 54.9146549,34.7555797 C53.5852294,33.9562489 52.4728732,32.8421188 51.6756552,31.5114146 C50.9651145,30.3604599 50.3332954,29.1627283 49.7845304,27.9264327 C49.3181555,26.9654833 48.854343,26.5170403 48.3879681,26.5708534 C47.9241556,26.6272291 47.5602807,27.2012362 47.3655307,27.7291178 L45.3898434,33.528127 L40.382719,47.2684221 L37.6920943,54.6741387 C37.4332818,55.4787737 36.8618443,55.9707798 36.2289069,56.8471656 C35.5487909,57.7636739 34.6678398,58.5122725 33.6535947,59.0355677 C32.5696573,59.6223874 31.28072,59.986267 29.7790951,60.1400189 C28.2800328,60.2912082 26.5605955,60.0657054 24.6233457,59.4763231 C22.6579084,58.8741282 21.0460961,57.8926785 19.7750962,56.5294117 C18.5117839,55.1661448 17.6738465,53.7234394 17.2638465,52.2064207 C16.8539485,50.7447417 16.9230987,49.1901888 17.461159,47.7706783 C18.0044089,46.3279729 19.1114088,45.200459 20.7795961,44.3804488 C22.4503459,43.5604387 24.0775333,43.1581212 25.6662831,43.1734964 C27.149412,43.1736648 28.6240421,43.3974105 30.0404701,43.8371921 C31.3704075,44.2600098 32.5081573,44.7776412 33.4537197,45.3900863 C34.3992821,45.9922813 35.352532,46.4125365 35.772782,46.7892286 L40.7722189,33.0489336 C42.2020938,29.1308226 43.9574061,24.2030741 45.7767809,19.3035135 C46.1278433,18.3400016 46.3815308,17.8813084 47.0964682,17.4482405 C47.8114056,17.0151727 48.5929681,16.8947337 49.448843,17.0920486 C50.1714679,17.2406755 50.6865303,17.5891798 50.9863428,18.1324365 C51.2912803,18.6756932 51.5475302,19.3701393 51.7602177,20.2157748 C51.9677802,21.0639728 52.2547801,22.0377348 52.6109676,23.1447485 C52.9671551,24.2491997 53.56678,25.4279643 54.4098424,26.6759172 C55.1145298,27.7983061 55.7756548,28.6516292 56.3880922,29.2538241 C56.9979671,29.8534566 57.5822171,30.414651 58.115217,30.9271573 C58.6507794,31.4422262 59.1530294,32.0085457 59.6322168,32.636366 C60.1114043,33.2616237 60.5624042,34.1585098 60.9877792,35.3295868 C61.4285291,36.4622258 61.5617791,37.5256765 61.3875291,38.5199388 C61.2465411,39.4150011 60.9425515,40.2766052 60.4906542,41.0619703 C60.1366792,41.6850896 59.6629157,42.2320145 59.0966544,42.6712402 Z" id="路径" fill="#FFFFFF" transform="translate(39.230793, 38.592817) rotate(-20.000000) translate(-39.230793, -38.592817) "></path>
                </g>
            </g>
        </g>
    </g>
</svg>