<?xml version="1.0" encoding="UTF-8"?>
<svg width="40px" height="40px" viewBox="0 0 40 40" version="1.1" xmlns="http://www.w3.org/2000/svg" xmlns:xlink="http://www.w3.org/1999/xlink">
    <title>close-circle</title>
    <g id="页面-1" stroke="none" stroke-width="1" fill="none" fill-rule="evenodd">
        <g id="插入视频-弹窗" transform="translate(-863.000000, -135.000000)" fill-rule="nonzero">
            <g id="close-circle" transform="translate(863.000000, 135.000000)">
                <rect id="矩形" fill="#000000" opacity="0" x="0" y="0" width="40" height="40"></rect>
                <path d="M20,2.5390625 C29.6640625,2.5390625 37.5,10.375 37.5,20.0390625 C37.5,29.703125 29.6640625,37.5390625 20,37.5390625 C10.3359375,37.5390625 2.5,29.703125 2.5,20.0390625 C2.5,10.375 10.3359375,2.5390625 20,2.5390625 Z M20,5.5078125 C11.9765625,5.5078125 5.46875,12.015625 5.46875,20.0390625 C5.46875,28.0625 11.9765625,34.5703125 20,34.5703125 C28.0234375,34.5703125 34.53125,28.0625 34.53125,20.0390625 C34.53125,12.015625 28.0234375,5.5078125 20,5.5078125 Z M26.4609375,13.546875 C26.6328125,13.546875 26.7734375,13.6875 26.7734375,13.859375 C26.7734375,13.9335938 26.75,14.0078125 26.703125,14.0625 L26.703125,14.0625 L21.6210938,20.1171875 L26.6953125,26.1679687 C26.7421875,26.2265625 26.7695312,26.296875 26.7695312,26.3710937 C26.7695312,26.546875 26.6289062,26.6835937 26.4570312,26.6835937 L26.4570312,26.6835937 L23.8789062,26.671875 L20,22.046875 L16.1210938,26.6757812 L13.5390625,26.6875 C13.3671875,26.6875 13.2265625,26.546875 13.2265625,26.375 C13.2265625,26.3007812 13.2539062,26.2304688 13.3007812,26.171875 L13.3007812,26.171875 L18.3828125,20.1210938 L13.3007812,14.0664062 C13.2539062,14.0078125 13.2265625,13.9375 13.2265625,13.8632812 C13.2265625,13.6875 13.3671875,13.5507812 13.5390625,13.5507812 L13.5390625,13.5507812 L16.1210938,13.5625 L20,18.1875 L23.8828125,13.5585938 Z" id="形状结合" fill="#FFFFFF"></path>
            </g>
        </g>
    </g>
</svg>