<?xml version="1.0" encoding="UTF-8"?>
<svg width="13px" height="13px" viewBox="0 0 13 13" version="1.1" xmlns="http://www.w3.org/2000/svg" xmlns:xlink="http://www.w3.org/1999/xlink">
    <title>全屏</title>
    <g id="页面-1" stroke="none" stroke-width="1" fill="none" fill-rule="evenodd">
        <g id="视频放大" transform="translate(-8.000000, -8.000000)" fill="#FFFFFF">
            <g id="放大hover">
                <path d="M10,16 L10,19 L13,19 L13,21 L8,21 L8,16 L10,16 Z M21,16 L21,21 L16,21 L16,19 L19,19 L19,16 L21,16 Z M13,8 L13,10 L10,10 L10,13 L8,13 L8,8 L13,8 Z M21,8 L21,13 L19,13 L19,10 L16,10 L16,8 L21,8 Z" id="全屏"></path>
            </g>
        </g>
    </g>
</svg>