<?xml version="1.0" encoding="UTF-8"?>
<svg width="22px" height="22px" viewBox="0 0 22 22" version="1.1" xmlns="http://www.w3.org/2000/svg" xmlns:xlink="http://www.w3.org/1999/xlink">
    <title>链接</title>
    <g id="页面-1" stroke="none" stroke-width="1" fill="none" fill-rule="evenodd">
        <g id="音乐模块" transform="translate(-27.000000, -133.000000)" fill-rule="nonzero">
            <g id="上侧固定部分" transform="translate(16.000000, 60.000000)">
                <g id="背景音乐">
                    <g id="链接" transform="translate(11.000000, 73.000000)">
                        <g id="路径">
                            <path d="M1.33840057,12.3800426 L2.71844315,11 L4.5591506,12.8400568 L3.63847155,13.7607358 C2.62245326,14.777061 2.62245326,16.4245242 3.63847155,17.4408494 L4.5591506,18.3615285 C5.57547578,19.3775467 7.22293899,19.3775467 8.23926417,18.3615285 L12.8400568,13.7607358 C13.3281729,13.2726449 13.6023958,12.6106364 13.6023958,11.9203537 C13.6023958,11.2300711 13.3281729,10.5680626 12.8400568,10.0799716 L11.9200284,9.15994322 C11.7625885,9.00622411 11.5861295,8.87327853 11.3949485,8.76434402 L13.3007216,6.85922157 L15.1407784,8.69927837 C15.9950314,9.55344417 16.474953,10.7119939 16.474953,11.9200284 C16.474953,13.1280629 15.9950314,14.2866126 15.1407784,15.1407784 L9.6199574,20.6615994 C8.76579161,21.5158524 7.60724186,21.995774 6.39920738,21.995774 C5.19117289,21.995774 4.03262314,21.5158524 3.17845735,20.6615994 L1.33840057,18.8215427 C0.484147613,17.9673769 0.00422597006,16.8088271 0.00422597006,15.6007926 C0.00422597006,14.3927581 0.484147613,13.2342084 1.33840057,12.3800426 L1.33840057,12.3800426 Z" fill="#E13455"></path>
                            <path d="M20.6615994,9.6199574 L19.2815569,11 L17.4408494,9.15994322 L18.3615285,8.23926417 C19.3775467,7.22293899 19.3775467,5.57547578 18.3615285,4.5591506 L17.4408494,3.63847155 C16.4245242,2.62245326 14.777061,2.62245326 13.7607358,3.63847155 L9.15994322,8.23926417 C8.67182711,8.72735514 8.39760422,9.38936364 8.39760422,10.0796463 C8.39760422,10.7699289 8.67182711,11.4319374 9.15994322,11.9200284 L10.0799716,12.8400568 C10.2374115,12.9937759 10.4138705,13.1267215 10.6050515,13.235656 L8.69927837,15.1407784 L6.85922157,13.3007216 C6.00496862,12.4465558 5.52504697,11.2880061 5.52504697,10.0799716 C5.52504697,8.87193711 6.00496862,7.71338737 6.85922157,6.85922157 L12.3800426,1.33840057 C13.2342084,0.484147613 14.3927581,0.00422597006 15.6007926,0.00422597006 C16.8088271,0.00422597006 17.9673769,0.484147613 18.8215427,1.33840057 L20.6615994,3.17845735 C21.5158524,4.03262314 21.995774,5.19117289 21.995774,6.39920738 C21.995774,7.60724186 21.5158524,8.76579161 20.6615994,9.6199574 L20.6615994,9.6199574 Z" fill="#1296DB"></path>
                        </g>
                    </g>
                </g>
            </g>
        </g>
    </g>
</svg>