<?xml version="1.0" encoding="UTF-8"?>
<svg width="48px" height="48px" viewBox="0 0 48 48" version="1.1" xmlns="http://www.w3.org/2000/svg" xmlns:xlink="http://www.w3.org/1999/xlink">
    <title>音乐模块</title>
    <g id="页面-1" stroke="none" stroke-width="1" fill="none" fill-rule="evenodd" opacity="0.699999988">
        <g id="插入音乐1" transform="translate(-232.000000, -101.000000)" fill="#000000" fill-rule="nonzero">
            <g id="添加图表" transform="translate(66.000000, 91.000000)">
                <g id="缩略图">
                    <g id="DVP_1_100-05" transform="translate(130.000000, 0.000000)">
                        <path d="M82.0284878,24.6716098 C80.867122,21.8243902 79.1812683,19.3625087 76.8478328,17.0290732 C72.3147596,12.496 66.7380627,10.1625645 60.3906899,10.0287666 L60.0053519,10.0287666 C53.3957352,10.0287666 47.6959442,12.3622021 43.0290732,17.0290732 C38.3568502,21.8243902 36.0234146,27.3903833 36.0234146,34 C36.0234146,40.6096167 38.3568501,46.3094077 43.0237212,50.9762788 C47.6905923,55.6431499 53.3903833,57.9712334 60.0053519,57.9712334 C66.6149686,57.9712334 72.1916655,55.6377979 76.8478328,50.9762788 C81.3809059,46.5716516 83.7143414,41.2571986 83.9765854,35.1667178 L83.9765854,33.9946481 C83.9765854,30.6336446 83.3290035,27.5241812 82.0284878,24.6716098 Z M71.7902718,15.3432195 C73.4761254,16.3814913 74.8997352,17.5428571 76.1948989,18.9718188 L67.2571986,25.7098815 C67.1287526,25.7098815 67.1287526,25.7098815 67.1287526,25.8383275 C66.8665087,25.5760836 66.4811707,25.3245435 66.0904809,25.0622997 C65.0522091,24.5431637 63.8908432,24.2862718 62.7187735,24.2862718 L62.7187735,24.1578258 L59.8662021,13.4004739 C64.0139373,12.496 67.9047805,13.1435819 71.7902718,15.3432195 Z M68.2954704,35.1720697 C68.0332264,36.9863693 67.2571986,38.6668711 65.8282369,39.9673868 C64.2761812,41.6532404 62.1996376,42.4292683 59.9946481,42.4292683 C57.6612126,42.4292683 55.5900209,41.6532404 54.0379652,39.9673868 C52.3521115,38.4099791 51.5760836,36.3387875 51.5760836,34 C51.5760836,31.8003624 52.3521115,29.8522648 54.0379652,28.1664111 C55.5900209,26.6143554 57.6665645,25.7045296 59.9946481,25.7045296 L60.3799861,25.7045296 C62.4511777,25.7045296 64.2654774,26.6143554 65.822885,28.1664111 C66.5989129,28.813993 67.1180488,29.7238188 67.6371846,30.4998467 C68.0225226,31.6612125 68.2847665,32.8332822 68.2847666,33.9946481 L68.2954704,35.1720697 Z M68.9430523,28.6908989 C68.8146063,28.171763 68.5577143,27.6526272 68.2954704,27.2672892 L68.4239164,27.2672892 L77.3669687,20.4007805 C78.4052404,22.0866341 79.1812683,23.7724878 79.8288502,25.7152334 L68.9430523,28.6908989 L68.9430523,28.6908989 Z M59.871554,29.3384809 C61.1667177,29.3384809 62.3334355,29.8576168 63.2432613,30.7620906 C64.1530871,31.6719164 64.5384251,32.7101881 64.6668711,34 C64.5384251,35.2951637 64.1530871,36.4618815 63.2432613,37.3717073 C62.3334355,38.2815331 61.1720697,38.7953171 59.871554,38.7953171 C58.5763902,38.7953171 57.4096724,38.2761811 56.4998467,37.3717073 C55.5900209,36.4618815 55.2046829,35.3005157 55.2046829,34 C55.2046829,32.6994843 55.5900209,31.6665645 56.4998467,30.7620906 C57.4096725,29.8522648 58.5710383,29.3384809 59.871554,29.3384809 L59.871554,29.3384809 Z" id="音乐模块"></path>
                    </g>
                </g>
            </g>
        </g>
    </g>
</svg>