<?xml version="1.0" encoding="UTF-8"?>
<svg width="23px" height="24px" viewBox="0 0 23 24" version="1.1" xmlns="http://www.w3.org/2000/svg" xmlns:xlink="http://www.w3.org/1999/xlink">
    <title>音乐</title>
    <defs>
        <path d="M21.3993808,0 L6.91021671,2.40000001 L6.24148607,2.40000001 C5.79566565,2.40000001 5.57275542,2.61818183 5.57275542,3.05454546 L5.57275542,17.0181818 C5.126935,16.8 4.45820432,16.5818182 3.78947368,16.5818182 C1.78328174,16.5818182 0,18.3272727 0,20.2909091 C0,22.2545454 1.78328174,24 3.78947368,24 C5.79566562,24 7.57894736,22.2545454 7.57894736,20.2909091 L7.57894736,19.8545455 L7.57894736,8.72727272 L20.9535604,6.32727271 L20.9535604,13.3090909 C20.2848297,13.0909091 19.8390093,12.8727273 18.9473684,12.8727273 C16.9411765,12.8727273 15.1578947,14.6181818 15.1578947,16.5818182 C15.1578947,18.5454545 16.9411765,20.2909091 18.9473684,20.2909091 C20.9535604,20.2909091 22.7368421,18.5454545 22.7368421,16.5818182 L22.7368421,16.1454546 L22.7368421,0.654545451 C22.7368421,0.436363624 22.5139319,0 22.2910217,0 L21.3993808,0 Z" id="path-1"></path>
    </defs>
    <g id="页面-1" stroke="none" stroke-width="1" fill="none" fill-rule="evenodd">
        <g id="插入音乐2" transform="translate(-1096.000000, -153.000000)">
            <g id="编组-7" transform="translate(1057.000000, 96.000000)">
                <g id="上侧固定部分">
                    <g id="背景音乐">
                        <g id="音乐" transform="translate(39.000000, 57.000000)">
                            <mask id="mask-2" fill="white">
                                <use xlink:href="#path-1"></use>
                            </mask>
                            <use id="路径" fill="#F15353" fill-rule="nonzero" xlink:href="#path-1"></use>
                            <rect id="矩形" fill="#A16CF3" mask="url(#mask-2)" x="0" y="13.2631579" width="7.57894737" height="11.3684211"></rect>
                            <rect id="矩形" fill="#479DF1" mask="url(#mask-2)" x="15.1578947" y="9.47368421" width="7.57894737" height="11.3684211"></rect>
                        </g>
                    </g>
                </g>
            </g>
        </g>
    </g>
</svg>