<?xml version="1.0" encoding="UTF-8"?>
<svg width="9px" height="13px" viewBox="0 0 9 13" version="1.1" xmlns="http://www.w3.org/2000/svg" xmlns:xlink="http://www.w3.org/1999/xlink">
    <title>暂停</title>
    <g id="页面-1" stroke="none" stroke-width="1" fill="none" fill-rule="evenodd">
        <g id="视频暂停" transform="translate(-10.000000, -8.000000)" fill="#469fff">
            <path d="M11.5,8 C12.3284271,8 13,8.67157288 13,9.5 L13,19.5 C13,20.3284271 12.3284271,21 11.5,21 C10.6715729,21 10,20.3284271 10,19.5 L10,9.5 C10,8.67157288 10.6715729,8 11.5,8 Z M17.5,8 C18.3284271,8 19,8.67157288 19,9.5 L19,19.5 C19,20.3284271 18.3284271,21 17.5,21 C16.6715729,21 16,20.3284271 16,19.5 L16,9.5 C16,8.67157288 16.6715729,8 17.5,8 Z" id="暂停"></path>
        </g>
    </g>
</svg>