<?xml version="1.0" encoding="UTF-8"?>
<svg width="24px" height="24px" viewBox="0 0 24 24" version="1.1" xmlns="http://www.w3.org/2000/svg" xmlns:xlink="http://www.w3.org/1999/xlink">
    <title>Q</title>
    <defs>
        <linearGradient x1="50%" y1="0%" x2="50%" y2="100%" id="linearGradient-1">
            <stop stop-color="#F8C813" offset="0%"></stop>
            <stop stop-color="#EF9708" offset="100%"></stop>
        </linearGradient>
    </defs>
    <g id="页面-1" stroke="none" stroke-width="1" fill="none" fill-rule="evenodd">
        <g id="弹窗全部内容" transform="translate(-463.000000, -169.000000)" fill="url(#linearGradient-1)" fill-rule="nonzero">
            <g id="弹窗" transform="translate(433.000000, 135.000000)">
                <g id="问答" transform="translate(30.000000, 34.000000)">
                    <g id="Q">
                        <path d="M12.000975,0 C18.6182139,0 24,5.38328763 24,11.9997096 C24.0012738,14.3063896 23.3330501,16.5638717 22.0763935,18.4982745 L22.0763935,18.4982745 L23.1027141,21.918115 C23.2751374,22.4879997 23.1198584,23.1065187 22.6986996,23.5274156 C22.2775407,23.9483124 21.6588774,24.1032544 21.0890234,23.9305532 L21.0890234,23.9305532 L17.2577337,22.7792492 C15.6271988,23.5784548 13.8106714,23.99958 12.0000642,23.99958 C5.38282534,23.9985621 -4.23661106e-12,18.6152745 -4.23661106e-12,11.9997364 C-4.23661106e-12,5.38328763 5.38282534,0 12.000975,0 Z M12.0874751,6.85556494 C11.2625503,6.85556494 10.5248757,6.98515428 9.87691577,7.24294008 C9.22895581,7.50217232 8.67949712,7.87347602 8.22717349,8.36065477 C7.77487664,8.84772637 7.42965339,9.43703908 7.19163767,10.129825 C6.94644357,10.8659377 6.82562519,11.6377557 6.83414529,12.4135759 C6.83414529,13.2283172 6.94880002,13.9821478 7.17682363,14.6748267 C7.40484725,15.3688983 7.74623975,15.964345 8.19725074,16.4689344 C8.64828853,16.9723989 9.20784648,17.3573633 9.87319217,17.6251402 C10.5398505,17.893051 11.2924731,18.0263636 12.1322386,18.0263636 C13.1702122,18.0263636 14.0435973,17.8457206 14.7564658,17.4818366 C15.1401573,17.7560153 15.4915687,17.9977028 15.814236,18.2033101 C16.1358051,18.4088905 16.4161734,18.5670066 16.6541355,18.6742567 C16.8921512,18.7838906 17.0951812,18.8375503 17.2621538,18.8375503 C17.4641484,18.8395316 17.6570171,18.7535353 17.7905032,18.6019352 C17.9338216,18.4436851 18.0072489,18.2879797 18.0072489,18.1310422 C18.0072489,17.908051 17.945046,17.7384974 17.8241495,17.6190331 C17.6995295,17.4993812 17.4478249,17.337408 17.0690892,17.1330865 C16.7100126,16.9403106 16.3606925,16.7298927 16.0224094,16.5026041 C16.9507377,15.5009252 17.4154912,14.1416836 17.4154912,12.4272634 C17.4154912,11.2971469 17.2098627,10.3129322 16.7961949,9.47566409 C16.4025478,8.65757247 15.765893,7.9809552 14.9732114,7.53825269 C14.16953,7.08227931 13.2075554,6.85556494 12.0874751,6.85556494 Z M11.963805,9 C12.5633849,9 13.0949067,9.15419378 13.5569849,9.46375116 C14.0191675,9.77213872 14.375459,10.2282303 14.624761,10.8319424 C14.8740107,11.4330085 14.99925,12.1469068 14.9993023,12.9694314 C15.0079446,13.5518043 14.9362544,14.1323724 14.7865262,14.6925525 C14.6558027,15.1664367 14.4314856,15.6050725 14.1286147,15.9790511 C13.1021492,15.2017039 12.3700876,14.8156067 11.9334757,14.8156067 C11.7851882,14.8172396 11.643363,14.8805037 11.5382267,14.9919157 C11.4251867,15.0923268 11.3593163,15.2406131 11.358107,15.3973985 C11.3505836,15.5601025 11.4211423,15.7157408 11.545443,15.8106245 C11.6706823,15.9079148 11.9017344,16.0477086 12.2399328,16.2251874 C12.5780005,16.4028055 12.8600896,16.5827911 13.0862786,16.7616068 C12.7387456,16.9136177 12.367433,16.9944935 11.9917812,17 C11.129591,17 10.4144981,16.6500837 9.8488819,15.9519224 C9.28337026,15.2561285 9,14.2611107 9,12.9682337 C9,12.334719 9.07545733,11.7646254 9.2263197,11.2555018 C9.35213605,10.798111 9.56257439,10.3721544 9.84524761,10.0027052 C10.1067598,9.67621326 10.4180801,9.42623328 10.7805159,9.25646971 C11.1429255,9.08556418 11.5369194,9 11.963805,9 Z" id="形状结合"></path>
                    </g>
                </g>
            </g>
        </g>
    </g>
</svg>