<?xml version="1.0" encoding="UTF-8"?>
<svg width="22px" height="16px" viewBox="0 0 22 16" version="1.1" xmlns="http://www.w3.org/2000/svg" xmlns:xlink="http://www.w3.org/1999/xlink">
    <title>上传</title>
    <g id="页面-1" stroke="none" stroke-width="1" fill="none" fill-rule="evenodd">
        <g id="插入音乐2" transform="translate(-137.000000, -208.000000)" fill="#C3C4C7" fill-rule="nonzero">
            <g id="自定义音乐链接" transform="translate(67.000000, 200.000000)">
                <g id="自定义" transform="translate(70.000000, 8.000000)">
                    <path d="M22,11.6393387 C22,12.8447247 21.571,13.870121 20.71025,14.7237089 C19.8495,15.5772967 18.81275,16 17.6,16 L5.13425,16 C3.7235,16 2.5135,15.5036646 1.507,14.5055395 C0.50325,13.5101415 0,12.3129368 0,10.9084711 C0,9.92398159 0.26675,9.01585137 0.803,8.18135333 C1.33925,7.34685529 2.057,6.72234532 2.95625,6.3050963 C2.9425,6.07874553 2.9315,5.91511846 2.9315,5.81694222 C2.9315,4.21066985 3.50625,2.83892961 4.65025,1.70444861 C5.79425,0.569967615 7.1775,0 8.79725,0 C9.988,0 11.07975,0.329981251 12.067,0.989943753 C13.05425,1.64990626 13.77475,2.52531106 14.22575,3.61343106 C14.7675,3.14163968 15.40275,2.90983467 16.126,2.90983467 C16.9345,2.90983467 17.6275,3.19345492 18.1995,3.76342253 C18.77425,4.33339015 19.06025,5.01789671 19.06025,5.81966934 C19.06025,6.39509119 18.9035,6.9186978 18.59,7.38776206 C19.58275,7.62229419 20.39675,8.13499233 21.03475,8.92585649 C21.67825,9.71944776 22,10.6221237 22,11.6393387 Z M14.6685,8.36407022 C14.6685,8.25771263 14.6355,8.17044486 14.564,8.10226692 L10.52975,4.10431225 C10.461,4.03613431 10.373,4.00068178 10.26575,4.00068178 C10.1585,4.00068178 10.0705,4.03340719 10.00175,4.10431225 L5.98125,8.09135845 C5.90425,8.18135333 5.86575,8.27407534 5.86575,8.36407022 C5.86575,8.47042782 5.89875,8.55769559 5.97025,8.62587353 C6.039,8.69405147 6.127,8.72950401 6.23425,8.72950401 L8.8,8.72950401 L8.8,12.7301858 C8.8,12.828362 8.83575,12.9129027 8.90725,12.9865349 C8.97875,13.0574399 9.06675,13.0928924 9.16575,13.0928924 L11.36575,13.0928924 C11.46475,13.0928924 11.55,13.0574399 11.62425,12.9865349 C11.69575,12.9156298 11.7315,12.828362 11.7315,12.7301858 L11.7315,8.72677689 L14.29725,8.72677689 C14.39625,8.72677689 14.4815,8.69132436 14.55575,8.62041929 C14.63,8.54951423 14.6685,8.46224646 14.6685,8.36407022 L14.6685,8.36407022 Z" id="上传"></path>
                </g>
            </g>
        </g>
    </g>
</svg>