<?xml version="1.0" encoding="UTF-8"?>
<svg width="25px" height="25px" viewBox="0 0 25 25" version="1.1" xmlns="http://www.w3.org/2000/svg" xmlns:xlink="http://www.w3.org/1999/xlink">
    <!-- Generator: Sketch 54.1 (76490) - https://sketchapp.com -->
    <title>新手任务</title>
    <desc>Created with Sketch.</desc>
    <g id="新手任务" stroke="none" stroke-width="1" fill="none" fill-rule="evenodd">
        <g fill="#0079FA" fill-rule="nonzero" id="Combined-Shape">
            <path d="M8,5 L8,3 L9,3 L9,1 L16,1 L16,3 L17,3 L17,5 L20,5 C21.1045695,5 22,5.8954305 22,7 L22,22 C22,23.1045695 21.1045695,24 20,24 L5,24 C3.8954305,24 3,23.1045695 3,22 L3,7 C3,5.8954305 3.8954305,5 5,5 L8,5 Z M8,6.8 L5,6.8 C4.88954305,6.8 4.8,6.88954305 4.8,7 L4.8,22 C4.8,22.1104569 4.88954305,22.2 5,22.2 L20,22.2 C20.1104569,22.2 20.2,22.1104569 20.2,22 L20.2,7 C20.2,6.88954305 20.1104569,6.8 20,6.8 L17,6.8 L17,8 L8,8 L8,6.8 Z M17.4524732,11.3287855 L18.6515913,12.6712145 L11.4026807,19.146268 L6.53569011,15.7371504 L7.56837445,14.2628496 L11.2672203,16.853732 L17.4524732,11.3287855 Z M14.2,4.8 L14.2,2.8 L10.8,2.8 L10.8,4.8 L9.8,4.8 L9.8,6.2 L15.2,6.2 L15.2,4.8 L14.2,4.8 Z"></path>
        </g>
    </g>
</svg>
