<?xml version="1.0" encoding="UTF-8"?>
<svg width="50px" height="50px" viewBox="0 0 50 50" version="1.1" xmlns="http://www.w3.org/2000/svg" xmlns:xlink="http://www.w3.org/1999/xlink">
    <!-- Generator: Sketch 64 (93537) - https://sketch.com -->
    <title>邮箱</title>
    <desc>Created with Sketch.</desc>
    <g id="页面-1" stroke="none" stroke-width="1" fill="none" fill-rule="evenodd">
        <g id="个人中心-我的账户" transform="translate(-290.000000, -963.000000)" fill="#4A90E2">
            <g id="右侧" transform="translate(280.000000, 96.000000)">
                <g id="内容" transform="translate(0.000000, 67.000000)">
                    <g id="安全设置" transform="translate(0.000000, 573.000000)">
                        <g transform="translate(0.000000, 47.000000)" id="邮箱">
                            <g transform="translate(10.000000, 180.000000)">
                                <path d="M25,0 C38.8071187,0 50,11.1928813 50,25 C50,38.8071187 38.8071187,50 25,50 C11.1928813,50 0,38.8071187 0,25 C0,11.1928813 11.1928813,0 25,0 Z M34.5437594,20.9083042 L25.0057959,25.967163 C24.8602978,26.0455081 24.6834616,26.0455081 24.5379634,25.967163 L15.0089537,20.9127811 L15,30.298531 C15,31.3438793 15.8797042,32.1989607 16.9541521,32.1989607 L32.5896073,32.1989607 C33.6640552,32.1989607 34.5437594,31.3438793 34.5437594,30.298531 L34.5437594,20.9083042 Z M32.5896072,17 L16.9541521,17 C15.884181,17 15.0179074,17.8438893 15.0089537,18.8825222 L15.0089537,18.8825222 L24.7774757,24.1831318 L34.5437593,18.8780454 C34.5303287,17.8416508 33.6573398,17 32.5896072,17 L32.5896072,17 Z"></path>
                            </g>
                        </g>
                    </g>
                </g>
            </g>
        </g>
    </g>
</svg>