<?xml version="1.0" encoding="UTF-8"?>
<svg width="50px" height="50px" viewBox="0 0 50 50" version="1.1" xmlns="http://www.w3.org/2000/svg" xmlns:xlink="http://www.w3.org/1999/xlink">
    <!-- Generator: Sketch 64 (93537) - https://sketch.com -->
    <title>密码</title>
    <desc>Created with Sketch.</desc>
    <g id="页面-1" stroke="none" stroke-width="1" fill="none" fill-rule="evenodd">
        <g id="个人中心-我的账户" transform="translate(-290.000000, -783.000000)" fill="#92BC83">
            <g id="右侧" transform="translate(280.000000, 96.000000)">
                <g id="内容" transform="translate(0.000000, 67.000000)">
                    <g id="安全设置" transform="translate(0.000000, 573.000000)">
                        <g transform="translate(0.000000, 47.000000)" id="密码">
                            <g transform="translate(10.000000, 0.000000)">
                                <path d="M25,0 C38.8071187,0 50,11.1928813 50,25 C50,38.8071187 38.8071187,50 25,50 C11.1928813,50 0,38.8071187 0,25 C0,11.1928813 11.1928813,0 25,0 Z M25.2777778,13 L24.7222222,13 L24.4891075,13.0039617 C20.9292541,13.1251178 18.0555555,16.0096139 18.0555555,19.5185185 L18.0555555,19.5185185 L18.055,20.333 L17.3527778,20.3333333 L17.1922614,20.3383709 C15.9719763,20.415192 15,21.3609053 15,22.5061728 L15,22.5061728 L15,32.8271605 L15.0054527,32.9753565 C15.0886044,34.1020062 16.1122685,35 17.3527778,35 L17.3527778,35 L32.6472222,35 L32.8077386,34.9949624 C34.0280237,34.9181413 35,33.972428 35,32.8271605 L35,32.8271605 L35,22.5061728 L34.9945473,22.3579768 C34.9113956,21.2313272 33.8877315,20.3333333 32.6472222,20.3333333 L32.6472222,20.3333333 L31.944,20.333 L31.9444445,19.5185185 L31.9403927,19.2905842 C31.8164831,15.8098385 28.8664303,13 25.2777778,13 L25.2777778,13 Z M25,24.9777778 C25.65,24.9777778 26.1777778,25.4639506 26.1777778,26.0641975 L26.1777778,26.0641975 L26.1777778,29.8666667 L26.1708609,29.9850848 C26.1068642,30.5295759 25.6066666,30.9530864 25,30.9530864 C24.35,30.9530864 23.8222222,30.4669136 23.8222222,29.8666667 L23.8222222,29.8666667 L23.8222222,26.0641975 L23.8291391,25.9457794 C23.8931358,25.4012883 24.3933334,24.9777778 25,24.9777778 Z M25.2777778,15.1728395 C26.4583333,15.1728395 27.5722222,15.6264198 28.4138889,16.4520988 C29.2583333,17.2750617 29.7222222,18.3641975 29.7222222,19.5185185 L29.7222222,19.5185185 L29.722,20.333 L20.274,20.333 L20.275,19.5185185 L20.2811605,19.288583 C20.3385432,18.2201624 20.7951852,17.2201975 21.5833333,16.4520988 C22.4277778,15.6264198 23.5416667,15.1728395 24.7222222,15.1728395 L24.7222222,15.1728395 Z"></path>
                            </g>
                        </g>
                    </g>
                </g>
            </g>
        </g>
    </g>
</svg>