<?xml version="1.0" encoding="UTF-8"?>
<svg width="50px" height="50px" viewBox="0 0 50 50" version="1.1" xmlns="http://www.w3.org/2000/svg" xmlns:xlink="http://www.w3.org/1999/xlink">
    <!-- Generator: Sketch 64 (93537) - https://sketch.com -->
    <title>手机</title>
    <desc>Created with Sketch.</desc>
    <g id="页面-1" stroke="none" stroke-width="1" fill="none" fill-rule="evenodd">
        <g id="个人中心-我的账户" transform="translate(-290.000000, -873.000000)" fill="#C0B3E6">
            <g id="右侧" transform="translate(280.000000, 96.000000)">
                <g id="内容" transform="translate(0.000000, 67.000000)">
                    <g id="安全设置" transform="translate(0.000000, 573.000000)">
                        <g transform="translate(0.000000, 47.000000)" id="手机">
                            <g transform="translate(10.000000, 90.000000)">
                                <path d="M25,0 C38.8071187,0 50,11.1928813 50,25 C50,38.8071187 38.8071187,50 25,50 C11.1928813,50 0,38.8071187 0,25 C0,11.1928813 11.1928813,0 25,0 Z M30.048758,11 L19.951242,11 C17.7688323,11 16,12.7975524 16,15.0153652 L16,35.9846025 C16,38.2024476 17.7688323,40 19.951242,40 L30.048758,40 C32.2311359,40 34,38.2024476 34,35.9846025 L34,15.0153652 C34,12.7975524 32.2311359,11 30.048758,11 Z M25.0000159,35.9846025 C25.6063291,35.9846025 26.0975796,36.4838616 26.0975796,37.0999871 C26.0975796,37.7161449 25.6063291,38.2153717 25.0000477,38.2153717 C24.3937027,38.2153717 23.902484,37.7161449 23.902484,37.1000194 C23.902484,36.4838616 24.3937027,35.9846025 25.0000159,35.9846025 Z M31.8049044,16.3538203 L31.8049044,34.6461474 L18.1951274,34.6461474 L18.1951274,16.3538203 L31.8049044,16.3538203 Z"></path>
                            </g>
                        </g>
                    </g>
                </g>
            </g>
        </g>
    </g>
</svg>