<?xml version="1.0" encoding="UTF-8"?>
<svg width="106px" height="38px" viewBox="0 0 106 38" version="1.1" xmlns="http://www.w3.org/2000/svg" xmlns:xlink="http://www.w3.org/1999/xlink">
    <!-- Generator: Sketch 55 (78076) - https://sketchapp.com -->
    <title>企业高级会员灰</title>
    <desc>Created with Sketch.</desc>
    <defs>
        <path d="M51.476,15.408 C51.588,15.744 51.714,16.122 51.826,16.528 L57.23,16.528 L57.23,17.872 L44.756,17.872 L44.756,16.528 L50.23,16.528 C50.104,16.22 49.978,15.94 49.838,15.688 L51.476,15.408 Z M54.948,28.414 L53.8,28.414 L53.45,27.126 L54.528,27.168 C55.018,27.168 55.27,27 55.27,26.664 L55.27,23.234 L46.73,23.234 L46.73,28.456 L45.344,28.456 L45.344,21.974 L56.656,21.974 L56.656,26.958 C56.656,27.924 56.082,28.414 54.948,28.414 Z M46.912,18.446 L55.102,18.446 L55.102,21.414 L46.912,21.414 L46.912,18.446 Z M53.702,20.322 L53.702,19.538 L48.312,19.538 L48.312,20.322 L53.702,20.322 Z M48.13,23.794 L53.898,23.794 L53.898,26.818 L48.13,26.818 L48.13,23.794 Z M52.61,25.74 L52.61,24.872 L49.418,24.872 L49.418,25.74 L52.61,25.74 Z M62.872,25.236 L62.872,26.44 C64.104,24.424 64.734,21.568 64.762,17.844 L64.762,17.312 L63.544,17.312 L63.544,15.94 L69.942,15.94 L69.942,16.85 C69.732,17.984 69.522,18.964 69.312,19.804 L71.02,19.804 L71.02,20.616 C70.712,22.506 70.11,24.088 69.214,25.376 C69.914,26.062 70.698,26.678 71.594,27.224 L70.67,28.47 C69.774,27.868 68.99,27.196 68.318,26.468 C67.492,27.308 66.512,27.98 65.392,28.498 L64.58,27.168 C65.672,26.636 66.596,25.992 67.338,25.236 C66.708,24.326 66.204,23.332 65.826,22.254 C65.378,24.886 64.51,26.944 63.236,28.428 L62.13,27.462 C62.34,27.21 62.536,26.944 62.732,26.664 C61.528,27.126 60.184,27.504 58.686,27.784 L58.49,26.356 C60.156,26.076 61.612,25.712 62.872,25.236 Z M68.192,24.214 C68.836,23.29 69.298,22.24 69.564,21.078 L67.632,21.078 C67.87,20.21 68.136,18.95 68.444,17.312 L66.19,17.312 L66.19,17.844 C66.19,18.46 66.162,19.062 66.134,19.622 C66.498,21.358 67.184,22.898 68.192,24.214 Z M60.926,15.45 L62.326,16.01 C61.654,17.578 60.968,18.88 60.268,19.902 C60.744,19.846 61.22,19.79 61.71,19.72 C61.962,19.272 62.242,18.782 62.522,18.264 L63.796,18.754 C62.62,20.784 61.64,22.282 60.842,23.248 C61.682,23.08 62.536,22.87 63.404,22.604 L63.404,23.92 C61.864,24.382 60.422,24.69 59.05,24.844 L58.672,23.528 C58.924,23.43 59.148,23.29 59.33,23.108 C59.75,22.716 60.282,22.016 60.912,21.036 C60.268,21.12 59.582,21.218 58.882,21.302 L58.532,19.972 C58.756,19.888 58.952,19.706 59.134,19.44 C59.82,18.236 60.422,16.906 60.926,15.45 Z M78.468,15.464 L79.532,15.464 C81.282,17.382 83.298,18.894 85.594,19.986 L84.796,21.414 C83.984,20.994 83.228,20.518 82.514,20.014 L82.514,21.022 L75.528,21.022 L75.528,19.958 C74.786,20.476 73.988,20.966 73.148,21.428 L72.364,20 C74.814,18.796 76.844,17.284 78.468,15.464 Z M75.948,19.65 L82.038,19.65 C80.89,18.796 79.882,17.844 79,16.78 C78.132,17.816 77.124,18.782 75.948,19.65 Z M73.33,22.45 L84.698,22.45 L84.698,23.878 L78.188,23.878 C77.6,24.97 76.914,25.936 76.13,26.748 C78.02,26.636 79.868,26.482 81.66,26.272 C81.254,25.768 80.82,25.25 80.358,24.718 L81.492,24.004 C82.766,25.376 83.746,26.58 84.446,27.588 L83.228,28.442 C82.99,28.078 82.738,27.7 82.472,27.336 C80.302,27.672 77.6,27.938 74.352,28.134 L73.96,26.86 C74.31,26.776 74.562,26.636 74.716,26.468 C75.416,25.642 76.004,24.774 76.494,23.878 L73.33,23.878 L73.33,22.45 Z M97.872,20.49 L97.872,25.824 L96.416,25.824 L96.416,21.82 L89.598,21.82 L89.598,26.048 L88.142,26.048 L88.142,20.49 L97.872,20.49 Z M88.968,15.884 L97.046,15.884 L97.046,19.706 L88.968,19.706 L88.968,15.884 Z M95.632,18.446 L95.632,17.172 L90.382,17.172 L90.382,18.446 L95.632,18.446 Z M92.384,22.478 L93.868,22.618 C93.672,24.746 93.238,26.146 92.566,26.832 C91.866,27.7 90.158,28.274 87.414,28.526 L86.84,27.196 C89.08,27.084 90.564,26.678 91.292,25.978 C91.922,25.306 92.286,24.13 92.384,22.478 Z M94.148,25.614 C95.954,26.09 97.606,26.65 99.118,27.322 L98.334,28.54 C96.738,27.756 95.1,27.14 93.42,26.692 L94.148,25.614 Z" id="path-1"></path>
        <filter x="-9.2%" y="-30.5%" width="118.4%" height="176.1%" filterUnits="objectBoundingBox" id="filter-2">
            <feOffset dx="0" dy="1" in="SourceAlpha" result="shadowOffsetOuter1"></feOffset>
            <feGaussianBlur stdDeviation="1.5" in="shadowOffsetOuter1" result="shadowBlurOuter1"></feGaussianBlur>
            <feColorMatrix values="0 0 0 0 0   0 0 0 0 0   0 0 0 0 0  0 0 0 0.195421766 0" type="matrix" in="shadowBlurOuter1"></feColorMatrix>
        </filter>
        <circle id="path-3" cx="20.5" cy="20.5" r="10.5"></circle>
    </defs>
    <g id="Page-1" stroke="none" stroke-width="1" fill="none" fill-rule="evenodd">
        <g id="画板" transform="translate(-482.000000, -225.000000)">
            <g id="企业高级会员灰" transform="translate(482.000000, 223.000000)">
                <path d="M25,10 L98,10 C102.418278,10 106,13.581722 106,18 L106,26 C106,30.418278 102.418278,34 98,34 L25,34 L25,10 Z" id="矩形" fill="#CCCCCC"></path>
                <g id="高级会员" fill-rule="nonzero">
                    <use fill="black" fill-opacity="1" filter="url(#filter-2)" xlink:href="#path-1"></use>
                    <use fill="#FFFFFF" xlink:href="#path-1"></use>
                </g>
                <polygon id="星形" fill="#ACACAC" points="21 36.0024414 10.5 39.1865335 8.00750462 28.5012207 0 21 8.00750462 13.4987793 10.5 2.81346652 21 5.99755859 31.5 2.81346652 33.9924954 13.4987793 42 21 33.9924954 28.5012207 31.5 39.1865335"></polygon>
                <g id="椭圆形">
                    <use fill="#C5C5C5" fill-rule="evenodd" xlink:href="#path-3"></use>
                    <circle stroke="#979797" stroke-width="3" cx="20.5" cy="20.5" r="12"></circle>
                    <circle stroke="#E1E1E1" stroke-width="2" stroke-linejoin="square" cx="20.5" cy="20.5" r="9.5"></circle>
                </g>
                <text id="企" font-family="PingFangSC-Semibold, PingFang SC" font-size="10" font-weight="500" fill="#FFFFFF">
                    <tspan x="16" y="24">企</tspan>
                </text>
            </g>
        </g>
    </g>
</svg>