<?xml version="1.0" encoding="UTF-8"?>
<svg width="107px" height="37px" viewBox="0 0 107 37" version="1.1" xmlns="http://www.w3.org/2000/svg" xmlns:xlink="http://www.w3.org/1999/xlink">
    <!-- Generator: Sketch 55 (78076) - https://sketchapp.com -->
    <title>企业高级会员</title>
    <desc>Created with Sketch.</desc>
    <defs>
        <linearGradient x1="50%" y1="0%" x2="50%" y2="100%" id="linearGradient-1">
            <stop stop-color="#FFE683" offset="0%"></stop>
            <stop stop-color="#FFBC22" offset="100%"></stop>
        </linearGradient>
        <path d="M20.4196056,36.1784442 L12.5431119,38.5669662 C11.4860755,38.8875092 10.3693267,38.2904633 10.0487838,37.2334269 C10.0361558,37.1917843 10.0248902,37.1497406 10.0150051,37.107363 L8.14527894,29.0918584 C8.05544914,28.7067586 7.85347587,28.3569306 7.56488454,28.0865858 L1.55811694,22.4596032 C0.752000376,21.7044543 0.710682916,20.4387985 1.46583181,19.632682 C1.49558138,19.6009245 1.52635947,19.5701464 1.55811694,19.5403968 L7.56488454,13.9134142 C7.85347587,13.6430694 8.05544914,13.2932414 8.14527894,12.9081416 L10.0150051,4.89263696 C10.2659249,3.81694508 11.3413562,3.14833525 12.4170481,3.39925509 C12.4594256,3.40914024 12.5014693,3.4204058 12.5431119,3.43303379 L20.4196056,5.82155581 C20.7980267,5.93631083 21.2019733,5.93631083 21.5803944,5.82155581 L29.4568881,3.43303379 C30.5139245,3.11249082 31.6306733,3.70953671 31.9512162,4.76657313 C31.9638442,4.80821574 31.9751098,4.8502594 31.9849949,4.89263696 L33.8547211,12.9081416 C33.9445509,13.2932414 34.1465241,13.6430694 34.4351155,13.9134142 L40.4418831,19.5403968 C41.2479996,20.2955457 41.2893171,21.5612015 40.5341682,22.367318 C40.5044186,22.3990755 40.4736405,22.4298536 40.4418831,22.4596032 L34.4351155,28.0865858 C34.1465241,28.3569306 33.9445509,28.7067586 33.8547211,29.0918584 L31.9849949,37.107363 C31.7340751,38.1830549 30.6586438,38.8516648 29.5829519,38.6007449 C29.5405744,38.5908598 29.4985307,38.5795942 29.4568881,38.5669662 L21.5803944,36.1784442 C21.2019733,36.0636892 20.7980267,36.0636892 20.4196056,36.1784442 Z" id="path-2"></path>
        <filter x="1.0%" y="6.8%" width="100.4%" height="88.8%" filterUnits="objectBoundingBox" id="filter-3">
            <feOffset dx="1" dy="1" in="SourceAlpha" result="shadowOffsetOuter1"></feOffset>
            <feColorMatrix values="0 0 0 0 0.829285553   0 0 0 0 0.534993394   0 0 0 0 0.0892493293  0 0 0 1 0" type="matrix" in="shadowOffsetOuter1"></feColorMatrix>
        </filter>
        <filter x="-2.6%" y="3.2%" width="107.5%" height="96.0%" filterUnits="objectBoundingBox" id="filter-4">
            <feGaussianBlur stdDeviation="1.5" in="SourceAlpha" result="shadowBlurInner1"></feGaussianBlur>
            <feOffset dx="0" dy="1" in="shadowBlurInner1" result="shadowOffsetInner1"></feOffset>
            <feComposite in="shadowOffsetInner1" in2="SourceAlpha" operator="arithmetic" k2="-1" k3="1" result="shadowInnerInner1"></feComposite>
            <feColorMatrix values="0 0 0 0 0.997452446   0 0 0 0 0.937036163   0 0 0 0 0.730451456  0 0 0 1 0" type="matrix" in="shadowInnerInner1"></feColorMatrix>
        </filter>
        <linearGradient x1="50%" y1="0%" x2="50%" y2="100%" id="linearGradient-5">
            <stop stop-color="#FAFA85" offset="0%"></stop>
            <stop stop-color="#F7C105" offset="100%"></stop>
        </linearGradient>
        <linearGradient x1="50%" y1="0%" x2="50%" y2="100%" id="linearGradient-6">
            <stop stop-color="#FFF4BD" offset="0%"></stop>
            <stop stop-color="#FFAB00" offset="100%"></stop>
        </linearGradient>
        <linearGradient x1="50%" y1="0%" x2="50%" y2="100%" id="linearGradient-7">
            <stop stop-color="#E89F00" offset="0%"></stop>
            <stop stop-color="#FBF01C" offset="100%"></stop>
        </linearGradient>
        <circle id="path-8" cx="20.5" cy="20.5" r="10.5"></circle>
        <filter x="-47.6%" y="-38.1%" width="195.2%" height="195.2%" filterUnits="objectBoundingBox" id="filter-9">
            <feMorphology radius="3" operator="dilate" in="SourceAlpha" result="shadowSpreadOuter1"></feMorphology>
            <feOffset dx="0" dy="2" in="shadowSpreadOuter1" result="shadowOffsetOuter1"></feOffset>
            <feGaussianBlur stdDeviation="2" in="shadowOffsetOuter1" result="shadowBlurOuter1"></feGaussianBlur>
            <feComposite in="shadowBlurOuter1" in2="SourceAlpha" operator="out" result="shadowBlurOuter1"></feComposite>
            <feColorMatrix values="0 0 0 0 0.904495018   0 0 0 0 0.618311072   0 0 0 0 0.0133226877  0 0 0 1 0" type="matrix" in="shadowBlurOuter1"></feColorMatrix>
        </filter>
        <text id="text-10" font-family="PingFangSC-Semibold, PingFang SC" font-size="10" font-weight="500" fill="#FFFFFF">
            <tspan x="16" y="24">企</tspan>
        </text>
        <filter x="-50.0%" y="-28.6%" width="200.0%" height="171.4%" filterUnits="objectBoundingBox" id="filter-11">
            <feOffset dx="0" dy="1" in="SourceAlpha" result="shadowOffsetOuter1"></feOffset>
            <feGaussianBlur stdDeviation="1.5" in="shadowOffsetOuter1" result="shadowBlurOuter1"></feGaussianBlur>
            <feColorMatrix values="0 0 0 0 0.890058877   0 0 0 0 0.518140885   0 0 0 0 0.071248806  0 0 0 1 0" type="matrix" in="shadowBlurOuter1"></feColorMatrix>
        </filter>
    </defs>
    <g id="Page-1" stroke="none" stroke-width="1" fill="none" fill-rule="evenodd">
        <g id="画板" transform="translate(-453.000000, -578.000000)">
            <g id="企业高级会员" transform="translate(453.000000, 575.000000)">
                <path d="M25,10 L99,10 C103.418278,10 107,13.581722 107,18 L107,26 C107,30.418278 103.418278,34 99,34 L25,34 L25,10 Z" id="矩形" fill="#FFDB61"></path>
                <path d="M51.476,15.2789677 C51.588,15.6149677 51.714,15.9929677 51.826,16.3989677 L57.23,16.3989677 L57.23,17.7429677 L44.756,17.7429677 L44.756,16.3989677 L50.23,16.3989677 C50.104,16.0909677 49.978,15.8109677 49.838,15.5589677 L51.476,15.2789677 Z M54.948,28.2849677 L53.8,28.2849677 L53.45,26.9969677 L54.528,27.0389677 C55.018,27.0389677 55.27,26.8709677 55.27,26.5349677 L55.27,23.1049677 L46.73,23.1049677 L46.73,28.3269677 L45.344,28.3269677 L45.344,21.8449677 L56.656,21.8449677 L56.656,26.8289677 C56.656,27.7949677 56.082,28.2849677 54.948,28.2849677 Z M46.912,18.3169677 L55.102,18.3169677 L55.102,21.2849677 L46.912,21.2849677 L46.912,18.3169677 Z M53.702,20.1929677 L53.702,19.4089677 L48.312,19.4089677 L48.312,20.1929677 L53.702,20.1929677 Z M48.13,23.6649677 L53.898,23.6649677 L53.898,26.6889677 L48.13,26.6889677 L48.13,23.6649677 Z M52.61,25.6109677 L52.61,24.7429677 L49.418,24.7429677 L49.418,25.6109677 L52.61,25.6109677 Z M62.872,25.1069677 L62.872,26.3109677 C64.104,24.2949677 64.734,21.4389677 64.762,17.7149677 L64.762,17.1829677 L63.544,17.1829677 L63.544,15.8109677 L69.942,15.8109677 L69.942,16.7209677 C69.732,17.8549677 69.522,18.8349677 69.312,19.6749677 L71.02,19.6749677 L71.02,20.4869677 C70.712,22.3769677 70.11,23.9589677 69.214,25.2469677 C69.914,25.9329677 70.698,26.5489677 71.594,27.0949677 L70.67,28.3409677 C69.774,27.7389677 68.99,27.0669677 68.318,26.3389677 C67.492,27.1789677 66.512,27.8509677 65.392,28.3689677 L64.58,27.0389677 C65.672,26.5069677 66.596,25.8629677 67.338,25.1069677 C66.708,24.1969677 66.204,23.2029677 65.826,22.1249677 C65.378,24.7569677 64.51,26.8149677 63.236,28.2989677 L62.13,27.3329677 C62.34,27.0809677 62.536,26.8149677 62.732,26.5349677 C61.528,26.9969677 60.184,27.3749677 58.686,27.6549677 L58.49,26.2269677 C60.156,25.9469677 61.612,25.5829677 62.872,25.1069677 Z M68.192,24.0849677 C68.836,23.1609677 69.298,22.1109677 69.564,20.9489677 L67.632,20.9489677 C67.87,20.0809677 68.136,18.8209677 68.444,17.1829677 L66.19,17.1829677 L66.19,17.7149677 C66.19,18.3309677 66.162,18.9329677 66.134,19.4929677 C66.498,21.2289677 67.184,22.7689677 68.192,24.0849677 Z M60.926,15.3209677 L62.326,15.8809677 C61.654,17.4489677 60.968,18.7509677 60.268,19.7729677 C60.744,19.7169677 61.22,19.6609677 61.71,19.5909677 C61.962,19.1429677 62.242,18.6529677 62.522,18.1349677 L63.796,18.6249677 C62.62,20.6549677 61.64,22.1529677 60.842,23.1189677 C61.682,22.9509677 62.536,22.7409677 63.404,22.4749677 L63.404,23.7909677 C61.864,24.2529677 60.422,24.5609677 59.05,24.7149677 L58.672,23.3989677 C58.924,23.3009677 59.148,23.1609677 59.33,22.9789677 C59.75,22.5869677 60.282,21.8869677 60.912,20.9069677 C60.268,20.9909677 59.582,21.0889677 58.882,21.1729677 L58.532,19.8429677 C58.756,19.7589677 58.952,19.5769677 59.134,19.3109677 C59.82,18.1069677 60.422,16.7769677 60.926,15.3209677 Z M78.468,15.3349677 L79.532,15.3349677 C81.282,17.2529677 83.298,18.7649677 85.594,19.8569677 L84.796,21.2849677 C83.984,20.8649677 83.228,20.3889677 82.514,19.8849677 L82.514,20.8929677 L75.528,20.8929677 L75.528,19.8289677 C74.786,20.3469677 73.988,20.8369677 73.148,21.2989677 L72.364,19.8709677 C74.814,18.6669677 76.844,17.1549677 78.468,15.3349677 Z M75.948,19.5209677 L82.038,19.5209677 C80.89,18.6669677 79.882,17.7149677 79,16.6509677 C78.132,17.6869677 77.124,18.6529677 75.948,19.5209677 Z M73.33,22.3209677 L84.698,22.3209677 L84.698,23.7489677 L78.188,23.7489677 C77.6,24.8409677 76.914,25.8069677 76.13,26.6189677 C78.02,26.5069677 79.868,26.3529677 81.66,26.1429677 C81.254,25.6389677 80.82,25.1209677 80.358,24.5889677 L81.492,23.8749677 C82.766,25.2469677 83.746,26.4509677 84.446,27.4589677 L83.228,28.3129677 C82.99,27.9489677 82.738,27.5709677 82.472,27.2069677 C80.302,27.5429677 77.6,27.8089677 74.352,28.0049677 L73.96,26.7309677 C74.31,26.6469677 74.562,26.5069677 74.716,26.3389677 C75.416,25.5129677 76.004,24.6449677 76.494,23.7489677 L73.33,23.7489677 L73.33,22.3209677 Z M97.872,20.3609677 L97.872,25.6949677 L96.416,25.6949677 L96.416,21.6909677 L89.598,21.6909677 L89.598,25.9189677 L88.142,25.9189677 L88.142,20.3609677 L97.872,20.3609677 Z M88.968,15.7549677 L97.046,15.7549677 L97.046,19.5769677 L88.968,19.5769677 L88.968,15.7549677 Z M95.632,18.3169677 L95.632,17.0429677 L90.382,17.0429677 L90.382,18.3169677 L95.632,18.3169677 Z M92.384,22.3489677 L93.868,22.4889677 C93.672,24.6169677 93.238,26.0169677 92.566,26.7029677 C91.866,27.5709677 90.158,28.1449677 87.414,28.3969677 L86.84,27.0669677 C89.08,26.9549677 90.564,26.5489677 91.292,25.8489677 C91.922,25.1769677 92.286,24.0009677 92.384,22.3489677 Z M94.148,25.4849677 C95.954,25.9609677 97.606,26.5209677 99.118,27.1929677 L98.334,28.4109677 C96.738,27.6269677 95.1,27.0109677 93.42,26.5629677 L94.148,25.4849677 Z" id="高级会员" fill="#BF5E5E" fill-rule="nonzero"></path>
                <g id="星形">
                    <use fill="black" fill-opacity="1" filter="url(#filter-3)" xlink:href="#path-2"></use>
                    <use fill="url(#linearGradient-1)" fill-rule="evenodd" xlink:href="#path-2"></use>
                    <use fill="black" fill-opacity="1" filter="url(#filter-4)" xlink:href="#path-2"></use>
                </g>
                <g id="椭圆形">
                    <use fill="black" fill-opacity="1" filter="url(#filter-9)" xlink:href="#path-8"></use>
                    <use fill="url(#linearGradient-5)" fill-rule="evenodd" xlink:href="#path-8"></use>
                    <circle stroke="url(#linearGradient-6)" stroke-width="3" cx="20.5" cy="20.5" r="12"></circle>
                    <circle stroke="url(#linearGradient-7)" stroke-width="2" stroke-linejoin="square" cx="20.5" cy="20.5" r="9.5"></circle>
                </g>
                <g id="企" fill="#FFFFFF" fill-opacity="1">
                    <use filter="url(#filter-11)" xlink:href="#text-10"></use>
                    <use xlink:href="#text-10"></use>
                </g>
            </g>
        </g>
    </g>
</svg>