<?xml version="1.0" encoding="UTF-8"?>
<svg width="230px" height="34px" viewBox="0 0 230 34" version="1.1" xmlns="http://www.w3.org/2000/svg" xmlns:xlink="http://www.w3.org/1999/xlink">
    <!-- Generator: Sketch 63.1 (92452) - https://sketch.com -->
    <title>镝数运营banner现在</title>
    <desc>Created with Sketch.</desc>
    <defs>
        <linearGradient x1="50%" y1="100%" x2="50%" y2="0%" id="linearGradient-1">
            <stop stop-color="#00AEFF" offset="0%"></stop>
            <stop stop-color="#28D7A7" offset="100%"></stop>
        </linearGradient>
    </defs>
    <g id="控件" stroke="none" stroke-width="1" fill="none" fill-rule="evenodd">
        <g id="顶部栏登录前" transform="translate(-912.000000, -11.000000)" fill-rule="nonzero">
            <g id="镝数运营banner现在">
                <g transform="translate(912.000000, 11.000000)">
                    <rect id="矩形" fill="url(#linearGradient-1)" x="0" y="0" width="230" height="34" rx="6"></rect>
                    <path d="M30.39,18.226 L30.624,16.516 L28.23,16.516 L28.59,13.942 L30.3,13.942 L30.534,12.25 L28.824,12.25 L29.148,10.018 L25.044,10.018 L25.62,10.702 L25.404,12.25 L21.984,12.25 L22.308,10.018 L18.204,10.018 L18.78,10.702 L18.564,12.25 L16.854,12.25 L16.62,13.942 L18.33,13.942 L17.97,16.516 L15.576,16.516 L15.342,18.226 L30.39,18.226 Z M24.81,16.516 L21.39,16.516 L21.75,13.942 L25.17,13.942 L24.81,16.516 Z M29.346,22.978 L27.924,18.748 L24.162,18.748 L25.602,22.978 L29.346,22.978 Z M18.744,22.978 L21.426,18.748 L17.682,18.748 L15,22.978 L18.744,22.978 Z M46.212,22.798 L46.572,20.278 L45.78,20.962 L45.132,20.962 L44.88,19.036 L46.518,18.082 L46.824,15.85 L44.646,17.128 L44.394,15.04 L46.986,14.77 L47.238,12.97 L44.178,13.294 L43.764,10.018 L40.416,10.018 L40.992,10.702 L41.334,13.6 L40.29,13.708 L40.038,15.508 L41.55,15.346 L41.946,18.694 L39.426,20.17 L39.102,22.402 L42.18,20.602 L42.45,22.798 L46.212,22.798 Z M38.436,22.582 L39.39,15.778 L37.356,15.778 L37.644,13.654 L39.804,13.654 L40.038,11.98 L37.896,11.98 L38.166,10.054 L34.512,10.054 L35.07,10.738 L34.35,15.778 L32.442,15.778 L31.488,22.582 L38.436,22.582 Z M47.22,12.448 L46.932,10.378 L44.502,10.378 L44.862,12.448 L47.22,12.448 Z M36.024,20.962 L34.332,20.962 L34.836,17.416 L36.528,17.416 L36.024,20.962 Z M51.81,22.96 L53.862,12.592 L63.87,12.592 L64.104,10.936 L59.838,10.936 L59.964,10.054 L55.59,10.054 L56.166,10.72 L56.13,10.936 L50.892,10.936 L51.342,11.512 L50.82,14.356 L50.622,13.06 L48.858,13.06 L49.164,15.706 L50.568,15.706 L50.424,16.48 L49.128,16.48 L47.76,20.548 L49.308,20.548 L50.064,18.37 L49.218,22.96 L51.81,22.96 Z M56.364,16.84 L56.922,14.338 L59.01,14.338 L58.668,16.84 L62.646,16.84 L62.916,14.842 L62.178,15.346 L61.53,15.346 L61.854,13.078 L54.204,13.078 L53.394,16.84 L56.364,16.84 Z M55.752,22.978 L57.21,22.186 L58.506,22.978 L62.43,22.978 L59.334,21.034 L61.926,19.63 L62.286,17.092 L53.358,17.092 L53.16,18.496 L59.442,18.496 L59.406,18.748 L57.462,19.846 L56.004,18.91 L53.088,18.91 L52.998,19.63 L55.302,21.034 L51.846,22.978 L55.752,22.978 Z M80.088,15.796 L80.268,14.464 L77.064,14.464 L77.136,13.888 L79.638,13.888 L79.818,12.628 L77.316,12.628 L77.406,12.052 L80.25,12.052 L80.43,10.702 L77.586,10.702 L77.694,10.036 L74.364,10.036 L74.706,10.486 L74.67,10.702 L71.898,10.702 L71.718,12.052 L74.472,12.052 L74.382,12.628 L71.97,12.628 L71.79,13.888 L74.202,13.888 L74.13,14.464 L71.142,14.464 L70.962,15.796 L80.088,15.796 Z M68.244,22.96 L70.08,10.036 L67.146,10.036 L67.56,10.792 L65.832,22.96 L68.244,22.96 Z M65.886,19.396 L67.038,12.646 L65.778,12.646 L64.536,19.396 L65.886,19.396 Z M70.764,16.336 L71.142,12.646 L69.864,12.646 L69.432,16.336 L70.764,16.336 Z M73.14,22.924 L73.356,21.322 L76.11,21.322 L76.038,21.934 L75.12,22.924 L77.784,22.924 C78.132,22.924 78.399,22.813 78.585,22.591 C78.771,22.369 78.888,22.084 78.936,21.736 L78.936,21.736 L79.71,16.192 L71.196,16.192 L70.26,22.924 L73.14,22.924 Z M76.542,18.226 L73.788,18.226 L73.878,17.596 L76.632,17.596 L76.542,18.226 Z M76.272,20.116 L73.518,20.116 L73.626,19.414 L76.38,19.414 L76.272,20.116 Z M85.614,23.446 L87.216,19.666 L84.822,19.666 L83.562,23.446 L85.614,23.446 Z M103.056,22.654 L106.818,18.262 L107.34,18.262 L106.854,21.826 L106.746,22.654 L114.09,22.654 L114.468,19.972 L113.676,20.656 L110.166,20.656 L110.49,18.262 L114.036,18.262 L114.702,13.456 L112.47,13.456 L113.496,12.286 L113.712,10.666 L105.216,10.666 L105.738,10 L102.372,10 L102.714,10.396 L100.716,13.06 L103.398,13.06 L104.028,12.232 L109.572,12.232 L108.492,13.456 L101.058,13.456 L100.392,18.262 L103.524,18.262 L99.384,22.654 L103.056,22.654 Z M111.03,16.678 L109.14,16.678 L109.374,15.04 L111.264,15.04 L111.03,16.678 Z M105.684,16.678 L103.812,16.678 L104.046,15.04 L105.918,15.04 L105.684,16.678 Z M130.02,16.696 C130.308,16.696 130.566,16.594 130.794,16.39 C131.022,16.186 131.16,15.94 131.208,15.652 L131.208,15.652 L131.388,14.266 L127.248,14.266 L127.32,13.744 L131.1,13.744 L131.55,10.522 L127.77,10.522 L127.842,10.036 L125.304,10.036 L125.232,10.522 L124.188,10.522 L124.26,10.036 L120.894,10.036 L121.254,10.522 L117.618,10.522 L117.42,11.89 L121.128,11.89 L121.038,12.448 L117.348,12.448 L116.898,15.634 L119.994,15.634 L118.698,16.678 L122.298,16.678 L123.36,15.634 L124.206,15.634 L124.08,16.678 L126.906,16.678 L127.05,15.634 L127.968,15.634 L127.914,15.976 L127.23,16.696 L130.02,16.696 Z M124.962,12.448 L123.918,12.448 L123.99,11.89 L125.034,11.89 L124.962,12.448 Z M128.4,12.448 L127.5,12.448 L127.572,11.89 L128.472,11.89 L128.4,12.448 Z M124.692,14.266 L123.666,14.266 L123.738,13.744 L124.764,13.744 L124.692,14.266 Z M120.786,14.266 L119.778,14.266 L119.868,13.744 L120.858,13.744 L120.786,14.266 Z M119.22,20.962 L119.958,20.62 L120.264,18.442 L127.068,18.442 L126.762,20.62 L127.392,20.962 L129.804,20.962 L130.362,17.038 L117.366,17.038 L116.808,20.962 L119.22,20.962 Z M120.462,22.96 L123.198,21.7 L125.574,22.96 L130.362,22.96 L125.124,20.17 L125.304,18.892 L121.884,18.892 L121.704,20.17 L115.656,22.96 L120.462,22.96 Z M141.054,19.378 L141.468,18.946 L142.098,14.482 L145.266,14.482 L144.636,18.946 L144.942,19.378 L146.652,19.378 L147.57,12.88 L144.762,12.88 L145.068,12.106 L147.984,12.106 L148.218,10.36 L140.388,10.36 L140.154,12.106 L142.782,12.106 L142.476,12.88 L140.244,12.88 L139.326,19.378 L141.054,19.378 Z M137.4,15.436 L137.076,13.528 L135.222,13.528 L135.888,11.962 L137.31,11.962 L137.832,15.22 L139.794,15.22 L139.146,10.378 L133.782,10.378 L134.214,10.864 L132.378,15.238 L134.52,15.238 L134.988,14.104 L135.222,15.436 L137.4,15.436 Z M141.234,22.942 L142.836,20.692 L143.682,22.942 L146.508,22.942 L144.114,18.874 L144.636,15.112 L142.548,15.112 L142.026,18.802 L138.57,22.942 L141.234,22.942 Z M137.31,22.942 L136.5,21.628 L136.536,21.628 L138.966,17.884 L139.236,15.976 L132.45,15.976 L132.216,17.65 L136.176,17.65 L135.114,19.612 L134.736,18.946 L132.108,18.946 L134.502,22.942 L137.31,22.942 Z M153.51,15.382 L156.786,11.8 L158.568,11.8 L160.854,15.382 L164.598,15.382 L161.232,10.072 L153.6,10.072 L154.014,10.576 L149.622,15.382 L153.51,15.382 Z M163.212,22.618 L163.446,20.908 L158.334,20.908 L158.712,18.226 L162.798,18.226 L163.05,16.48 L158.946,16.48 L159.342,13.78 L156.156,13.78 L155.148,20.908 L153.546,20.908 L154.23,16.138 L151.242,16.138 L150.558,20.908 L149.082,20.908 L148.848,22.618 L163.212,22.618 Z M180.096,22.672 L180.33,20.962 L176.91,20.962 L178.404,10.36 L174.3,10.36 L174.894,11.044 L173.49,20.962 L172.122,20.962 L173.616,10.36 L169.512,10.36 L170.106,11.044 L168.702,20.962 L165.282,20.962 L165.048,22.672 L180.096,22.672 Z M179.934,18.91 L181.536,12.412 L179.142,12.412 L177.54,18.91 L179.934,18.91 Z M168.648,18.91 L168.882,12.412 L166.488,12.412 L166.254,18.91 L168.648,18.91 Z M194.262,15.994 L194.352,15.31 L197.43,15.31 L194.082,10.018 L186.396,10.018 L186.792,10.504 L182.382,15.31 L185.46,15.31 L185.37,15.994 L194.262,15.994 Z M193.362,14.284 L186.738,14.284 L189.078,11.728 L191.742,11.728 L193.362,14.284 Z M195.846,22.978 L194.1,19.594 L191.022,19.594 L191.67,20.872 L187.242,21.106 L190.122,18.568 L196.638,18.568 L196.872,16.858 L182.508,16.858 L182.274,18.568 L186.378,18.568 L183.264,21.304 L183.012,22.978 L192.534,22.528 L192.768,22.978 L195.846,22.978 Z M213.522,14.806 L214.134,10.36 L200.472,10.36 L201.048,11.026 L200.526,14.806 L213.522,14.806 Z M210.336,13.096 L204.18,13.096 L204.324,12.07 L210.48,12.07 L210.336,13.096 Z M201.336,20.458 L202.938,19.432 L203.262,17.2 L210.102,17.2 L209.778,19.432 L211.092,20.458 L213.054,20.458 L213.756,15.49 L200.076,15.49 L199.374,20.458 L201.336,20.458 Z M203.532,22.978 L206.088,21.358 L208.212,22.978 L213.054,22.978 L208.266,19.27 L208.464,17.884 L204.72,17.884 L204.522,19.27 L198.69,22.978 L203.532,22.978 Z" id="共战疫情，免费领企业会员" fill="#FFFFFF"></path>
                </g>
            </g>
        </g>
    </g>
</svg>