<?xml version="1.0" encoding="UTF-8"?>
<svg width="238px" height="40px" viewBox="0 0 238 40" version="1.1" xmlns="http://www.w3.org/2000/svg" xmlns:xlink="http://www.w3.org/1999/xlink">
    <!-- Generator: Sketch 64 (93537) - https://sketch.com -->
    <title>A</title>
    <desc>Created with Sketch.</desc>
    <defs>
        <linearGradient x1="9.40864111%" y1="50%" x2="97.9183996%" y2="50%" id="linearGradient-1">
            <stop stop-color="#EBF4FF" offset="0%"></stop>
            <stop stop-color="#D4EDFF" offset="100%"></stop>
        </linearGradient>
        <linearGradient x1="50%" y1="0%" x2="50%" y2="100%" id="linearGradient-2">
            <stop stop-color="#4B86C6" offset="0%"></stop>
            <stop stop-color="#004B98" offset="100%"></stop>
        </linearGradient>
        <path d="M70.488,30.466 L75.086,25.098 L75.724,25.098 L75.13,29.454 L74.998,30.466 L83.974,30.466 L84.436,27.188 L83.468,28.024 L79.178,28.024 L79.574,25.098 L83.908,25.098 L84.722,19.224 L81.994,19.224 L83.248,17.794 L83.512,15.814 L73.128,15.814 L73.766,15 L69.652,15 L70.07,15.484 L67.628,18.74 L70.906,18.74 L71.676,17.728 L78.452,17.728 L77.132,19.224 L68.046,19.224 L67.232,25.098 L71.06,25.098 L66,30.466 L70.488,30.466 Z M80.234,23.162 L77.924,23.162 L78.21,21.16 L80.52,21.16 L80.234,23.162 Z M73.7,23.162 L71.412,23.162 L71.698,21.16 L73.986,21.16 L73.7,23.162 Z M102.710667,23.184 C103.062667,23.184 103.378,23.0593333 103.656667,22.81 C103.935333,22.5606667 104.104,22.26 104.162667,21.908 L104.162667,21.908 L104.382667,20.214 L99.3226667,20.214 L99.4106667,19.576 L104.030667,19.576 L104.580667,15.638 L99.9606667,15.638 L100.048667,15.044 L96.9466667,15.044 L96.8586667,15.638 L95.5826667,15.638 L95.6706667,15.044 L91.5566667,15.044 L91.9966667,15.638 L87.5526667,15.638 L87.3106667,17.31 L91.8426667,17.31 L91.7326667,17.992 L87.2226667,17.992 L86.6726667,21.886 L90.4566667,21.886 L88.8726667,23.162 L93.2726667,23.162 L94.5706667,21.886 L95.6046667,21.886 L95.4506667,23.162 L98.9046667,23.162 L99.0806667,21.886 L100.202667,21.886 L100.136667,22.304 L99.3006667,23.184 L102.710667,23.184 Z M96.5286667,17.992 L95.2526667,17.992 L95.3406667,17.31 L96.6166667,17.31 L96.5286667,17.992 Z M100.730667,17.992 L99.6306667,17.992 L99.7186667,17.31 L100.818667,17.31 L100.730667,17.992 Z M96.1986667,20.214 L94.9446667,20.214 L95.0326667,19.576 L96.2866667,19.576 L96.1986667,20.214 Z M91.4246667,20.214 L90.1926667,20.214 L90.3026667,19.576 L91.5126667,19.576 L91.4246667,20.214 Z M89.5106667,28.398 L90.4126667,27.98 L90.7866667,25.318 L99.1026667,25.318 L98.7286667,27.98 L99.4986667,28.398 L102.446667,28.398 L103.128667,23.602 L87.2446667,23.602 L86.5626667,28.398 L89.5106667,28.398 Z M91.0286667,30.84 L94.3726667,29.3 L97.2766667,30.84 L103.128667,30.84 L96.7266667,27.43 L96.9466667,25.868 L92.7666667,25.868 L92.5466667,27.43 L85.1546667,30.84 L91.0286667,30.84 Z M113.615333,30.862 L114.957333,21.336 L117.839333,27.562 L122.019333,27.562 L118.169333,19.202 L115.265333,19.202 L115.485333,17.53 L123.009333,17.53 L123.295333,15.44 L105.739333,15.44 L105.453333,17.53 L111.305333,17.53 L109.435333,30.862 L113.615333,30.862 Z M142.34,30.84 L142.78,27.738 L141.856,28.574 L140.514,28.574 L140.382,26.286 L142.802,24.394 L143.198,21.468 L140.25,23.756 L140.074,20.544 L143.33,20.544 L143.616,18.564 L139.964,18.564 L139.766,15.044 L136.136,15.044 L136.752,15.77 L136.884,18.564 L133.034,18.564 L133.122,17.904 L136.202,17.904 L136.466,16.034 L133.386,16.034 L133.54,15.044 L129.272,15.044 L129.8,15.66 L129.734,16.034 L126.654,16.034 L126.39,17.904 L129.47,17.904 L129.382,18.564 L125.73,18.564 L125.444,20.544 L127.864,20.544 L127.314,21.534 L125.554,21.534 L125.29,23.426 L126.258,23.426 L125.356,25.076 L125.136,26.726 L128.942,26.726 L128.788,27.782 L124.366,28.244 L124.102,30.202 L128.524,29.762 L128.37,30.818 L131.648,30.818 L131.846,29.41 L134.75,29.102 L135.014,27.144 L132.11,27.452 L132.22,26.726 L134.992,26.726 L135.278,24.746 L132.484,24.746 L132.616,23.888 L129.8,23.888 L129.668,24.746 L128.832,24.746 L129.514,23.426 L135.696,23.426 L135.96,21.534 L130.526,21.534 L131.032,20.544 L136.994,20.544 L137.28,26.044 L135.542,27.386 L135.102,30.4 L137.412,28.596 L137.544,30.84 L142.34,30.84 Z M143.682,17.838 L143.462,15.572 L140.294,15.572 L140.558,17.838 L143.682,17.838 Z M159.734667,30.84 C160.028,30.84 160.299333,30.697 160.548667,30.411 C160.798,30.125 160.952,29.7693333 161.010667,29.344 L161.010667,29.344 L161.186667,28.156 L161.758667,28.156 L162.022667,26.264 L161.450667,26.264 L161.714667,24.416 L162.616667,24.416 L162.902667,22.392 L162.000667,22.392 L162.506667,18.718 L153.838667,18.718 L154.344667,17.904 L162.924667,17.904 L163.210667,15.924 L155.532667,15.924 L156.082667,15.022 L151.396667,15.022 L152.144667,15.792 L149.482667,20.016 L151.242667,20.016 L150.912667,22.392 L149.592667,22.392 L149.306667,24.416 L150.626667,24.416 L150.098667,28.156 L157.952667,28.156 L157.842667,28.838 L154.894667,28.838 L152.848667,30.84 L159.734667,30.84 Z M149.548667,19.202 L149.328667,15.44 L146.050667,15.44 L146.248667,19.202 L149.548667,19.202 Z M148.910667,23.778 L148.690667,20.016 L145.412667,20.016 L145.610667,23.778 L148.910667,23.778 Z M155.290667,22.502 L154.146667,22.502 L154.410667,20.566 L159.008667,20.566 L158.744667,22.502 L157.886667,22.502 L157.754667,21.094 L155.158667,21.094 L155.290667,22.502 Z M154.872667,26.286 L153.618667,26.286 L153.882667,24.306 L158.480667,24.306 L158.216667,26.286 L157.578667,26.286 L157.424667,24.834 L154.718667,24.834 L154.872667,26.286 Z M146.886667,30.84 L148.844667,24.614 L145.566667,24.614 L143.586667,30.84 L146.886667,30.84 Z M182.035333,20.038 L182.673333,15.418 L165.953333,15.418 L165.315333,20.038 L182.035333,20.038 Z M179.087333,17.112 L169.055333,17.112 L169.121333,16.672 L179.153333,16.672 L179.087333,17.112 Z M178.867333,18.784 L168.835333,18.784 L168.879333,18.366 L178.911333,18.366 L178.867333,18.784 Z M182.629333,21.71 L182.805333,20.456 L164.413333,20.456 L164.237333,21.71 L182.629333,21.71 Z M181.397333,30.466 L181.617333,28.816 L174.511333,28.816 L174.577333,28.398 L181.265333,28.398 L181.441333,27.144 L174.753333,27.144 L174.797333,26.726 L181.089333,26.726 L181.727333,22.128 L165.007333,22.128 L164.369333,26.726 L170.617333,26.726 L170.573333,27.144 L163.885333,27.144 L163.709333,28.398 L170.397333,28.398 L170.331333,28.816 L163.225333,28.816 L163.005333,30.466 L181.397333,30.466 Z M178.141333,23.8 L175.215333,23.8 L175.259333,23.382 L178.207333,23.382 L178.141333,23.8 Z M171.035333,23.8 L168.109333,23.8 L168.175333,23.382 L171.079333,23.382 L171.035333,23.8 Z M177.921333,25.472 L174.973333,25.472 L175.039333,25.054 L177.965333,25.054 L177.921333,25.472 Z M170.793333,25.472 L167.889333,25.472 L167.933333,25.054 L170.859333,25.054 L170.793333,25.472 Z M186.494,30.862 L187.198,30.356 L187.748,30.862 L194.854,30.862 L196.548,28.398 L197.78,30.862 L201.124,30.862 L198.484,25.582 L201.168,21.688 L201.564,18.784 L202.202,18.784 L202.488,16.694 L198.176,16.694 L198.77,15.022 L194.81,15.022 L195.228,15.528 L193.336,20.874 L196.68,20.874 L197.428,18.784 L198.22,18.784 L197.824,21.688 L197.824,21.71 L197.098,22.766 L196.57,21.71 L193.226,21.71 L195.14,25.582 L191.664,30.642 L189.53,28.662 L191.62,27.144 L191.906,25.054 L192.764,25.054 L193.05,22.964 L192.192,22.964 L192.302,22.26 L189.376,22.26 L189.266,22.964 L187.176,22.964 L187.286,22.26 L184.36,22.26 L184.25,22.964 L183.436,22.964 L183.15,25.054 L183.964,25.054 L183.678,27.144 L185.328,28.662 L182.314,30.862 L186.494,30.862 Z M186.054,22.128 L187.132,20.456 L186.89,22.128 L189.816,22.128 L190.036,20.61 L190.652,22.128 L193.16,22.128 L192.148,19.62 L193.512,19.62 L193.82,17.53 L190.476,17.53 L190.828,15.022 L187.418,15.022 L187.792,15.836 L187.55,17.53 L184.206,17.53 L183.898,19.62 L185.152,19.62 L183.546,22.128 L186.054,22.128 Z M193.446,17.112 L194.106,15.44 L191.598,15.44 L190.938,17.112 L193.446,17.112 Z M187.176,17.112 L187,15.44 L184.492,15.44 L184.668,17.112 L187.176,17.112 Z M187.682,26.968 L186.758,26.11 L186.89,25.054 L188.98,25.054 L188.848,26.11 L187.682,26.968 Z M205.230667,30.84 C205.656,30.84 206.03,30.7043333 206.352667,30.433 C206.675333,30.1616667 206.866,29.8133333 206.924667,29.388 L206.924667,29.388 L207.584667,24.592 L208.530667,24.306 L208.860667,22.018 L207.914667,22.304 L208.288667,19.642 L209.256667,19.642 L209.542667,17.706 L208.552667,17.706 L208.926667,15.066 L204.856667,15.066 L205.406667,15.704 L205.120667,17.706 L203.822667,17.706 L203.536667,19.642 L204.856667,19.642 L204.328667,23.382 L202.986667,23.778 L202.656667,26.088 L203.998667,25.692 L203.558667,28.86 L201.864667,30.84 L205.230667,30.84 Z M210.796667,30.818 L212.732667,20.588 L221.224667,20.588 L221.950667,15.44 L210.510667,15.44 L207.628667,30.818 L210.796667,30.818 Z M218.518667,18.85 L213.282667,18.85 L213.502667,17.398 L218.738667,17.398 L218.518667,18.85 Z M219.706667,30.444 L220.498667,24.79 L218.056667,24.79 L218.232667,23.58 L220.894667,23.58 L221.158667,21.644 L218.496667,21.644 L218.606667,20.962 L215.592667,20.962 L215.482667,21.644 L212.798667,21.644 L212.534667,23.58 L215.218667,23.58 L215.042667,24.79 L212.270667,24.79 L211.478667,30.444 L219.706667,30.444 Z M217.220667,28.64 L214.580667,28.64 L214.844667,26.748 L217.484667,26.748 L217.220667,28.64 Z" id="path-3"></path>
        <filter x="-0.6%" y="-6.3%" width="101.3%" height="125.2%" filterUnits="objectBoundingBox" id="filter-4">
            <feOffset dx="0" dy="2" in="SourceAlpha" result="shadowOffsetOuter1"></feOffset>
            <feColorMatrix values="0 0 0 0 0.894117647   0 0 0 0 0.980392157   0 0 0 0 1  0 0 0 1 0" type="matrix" in="shadowOffsetOuter1"></feColorMatrix>
        </filter>
        <linearGradient x1="50%" y1="0%" x2="50%" y2="100%" id="linearGradient-5">
            <stop stop-color="#EDFBFF" offset="0%"></stop>
            <stop stop-color="#B8D6FF" offset="100%"></stop>
        </linearGradient>
        <rect id="path-6" x="3" y="9" width="26" height="31"></rect>
        <filter x="-7.7%" y="-6.5%" width="115.4%" height="112.9%" filterUnits="objectBoundingBox" id="filter-7">
            <feGaussianBlur stdDeviation="1.5" in="SourceAlpha" result="shadowBlurInner1"></feGaussianBlur>
            <feOffset dx="0" dy="1" in="shadowBlurInner1" result="shadowOffsetInner1"></feOffset>
            <feComposite in="shadowOffsetInner1" in2="SourceAlpha" operator="arithmetic" k2="-1" k3="1" result="shadowInnerInner1"></feComposite>
            <feColorMatrix values="0 0 0 0 0.309802837   0 0 0 0 0.693271414   0 0 0 0 0.976307745  0 0 0 1 0" type="matrix" in="shadowInnerInner1"></feColorMatrix>
        </filter>
        <linearGradient x1="0%" y1="50%" x2="100%" y2="50%" id="linearGradient-8">
            <stop stop-color="#F6DAA6" offset="0%"></stop>
            <stop stop-color="#FFC343" offset="31.6421692%"></stop>
            <stop stop-color="#FDDB67" offset="58.7899317%"></stop>
            <stop stop-color="#FCEA7B" offset="100%"></stop>
        </linearGradient>
        <linearGradient x1="0%" y1="50%" x2="100%" y2="50%" id="linearGradient-9">
            <stop stop-color="#F6DAA6" offset="0%"></stop>
            <stop stop-color="#FDC95A" offset="31.6421692%"></stop>
            <stop stop-color="#FDDB67" offset="58.7899317%"></stop>
            <stop stop-color="#FCEA7B" offset="100%"></stop>
        </linearGradient>
    </defs>
    <g id="页面-1" stroke="none" stroke-width="1" fill="none" fill-rule="evenodd">
        <g id="A">
            <rect id="矩形" fill="url(#linearGradient-1)" x="0" y="4" width="238" height="36" rx="18"></rect>
            <g id="免费下载海量数据" fill-rule="nonzero">
                <use fill="black" fill-opacity="1" filter="url(#filter-4)" xlink:href="#path-3"></use>
                <use fill="url(#linearGradient-2)" xlink:href="#path-3"></use>
            </g>
            <g id="编组-13" transform="translate(20.000000, 0.000000)">
                <path d="M4,0 L28,0 C30.209139,-4.05812251e-16 32,1.790861 32,4 L32,40 L32,40 L0,40 L0,4 C-2.705415e-16,1.790861 1.790861,4.05812251e-16 4,0 Z" id="矩形" fill="#59BBFF"></path>
                <g id="编组-12" transform="translate(2.000000, 0.000000)">
                    <path d="M4,0 L28,0 C30.209139,-4.05812251e-16 32,1.790861 32,4 L32,40 L32,40 L0,40 L0,4 C-2.705415e-16,1.790861 1.790861,4.05812251e-16 4,0 Z" id="矩形" fill="url(#linearGradient-5)"></path>
                    <rect id="矩形" fill="#C4E2FF" x="10" y="4" width="12" height="2"></rect>
                    <g id="矩形">
                        <use fill="#6DC1FF" fill-rule="evenodd" xlink:href="#path-6"></use>
                        <use fill="black" fill-opacity="1" filter="url(#filter-7)" xlink:href="#path-6"></use>
                    </g>
                    <g id="编组" transform="translate(7.000000, 14.000000)" fill="#1799F0">
                        <path d="M13.0835187,0 C13.0458039,0 13.0100803,0.0232093885 12.9949181,0.0615607206 C12.9797559,0.0999120527 12.9895188,0.142388079 13.0163975,0.169758937 L15.0345564,2.22418371 L9.5751607,7.0909182 L5.86890916,3.82256557 L0,8.8348799 L0,11 L5.8689129,5.98794504 L9.57516444,9.25576345 L16.1697044,3.37841697 L17.8371776,5.07623667 C17.8638657,5.10339075 17.9046241,5.1128847 17.9412844,5.09696853 C17.9779447,5.08105236 18,5.04430562 18,5.00557685 L18,0.0991017468 C18,0.0737322651 17.9906578,0.0483821391 17.9719528,0.0290167874 C17.9532683,0.00967272702 17.9287639,0 17.9042782,0 L13.0835194,0 L13.0835187,0 Z" id="路径" fill-rule="nonzero"></path>
                        <rect id="矩形" x="0" y="15" width="3" height="8"></rect>
                        <rect id="矩形" x="5" y="12" width="3" height="11"></rect>
                        <rect id="矩形" x="10" y="13" width="3" height="10"></rect>
                        <rect id="矩形" x="15" y="9" width="3" height="14"></rect>
                    </g>
                </g>
                <g id="编组-14" transform="translate(24.000000, 26.000000)">
                    <rect id="矩形" fill="#FFE397" x="0" y="3" width="17" height="7"></rect>
                    <rect id="矩形" fill="url(#linearGradient-8)" x="0" y="0" width="17" height="4"></rect>
                    <rect id="矩形" fill="url(#linearGradient-9)" x="0" y="5" width="17" height="4"></rect>
                    <rect id="矩形" fill="url(#linearGradient-9)" x="0" y="10" width="17" height="4"></rect>
                </g>
            </g>
        </g>
    </g>
</svg>