<?xml version="1.0" encoding="UTF-8"?>
<svg width="18px" height="18px" viewBox="0 0 18 18" version="1.1" xmlns="http://www.w3.org/2000/svg" xmlns:xlink="http://www.w3.org/1999/xlink">
    <!-- Generator: Sketch 52.5 (67469) - http://www.bohemiancoding.com/sketch -->
    <title>微笑</title>
    <desc>Created with Sketch.</desc>
    <g id="Page-1" stroke="none" stroke-width="1" fill="none" fill-rule="evenodd">
        <g id="新手任务" transform="translate(-553.000000, -227.000000)">
            <g id="表格" transform="translate(334.000000, 155.000000)">
                <g id="间距-&lt;h80-&gt;" transform="translate(40.000000, 16.000000)">
                    <g id="2" transform="translate(178.000000, 0.000000)">
                        <g id="状态们" transform="translate(0.000000, 54.000000)">
                            <g id="2.1">
                                <g id="微笑" transform="translate(1.000000, 2.000000)">
                                    <path d="M9.07500001,15.075 C12.3,15.075 14.925,12.9 14.925,10.2 C14.925,9.45 3.30000001,9.52500001 3.29999999,10.2 C3.29999999,12.9 5.85,15.075 9.07500001,15.075 Z" id="Path" fill="#FFFFFF"></path>
                                    <path d="M0,9 C6.08718376e-16,13.9705627 4.02943725,18 9,18 C13.9705627,18 18,13.9705627 18,9 C18,4.02943725 13.9705627,3.04359188e-16 9,0 C4.02943725,-3.04359188e-16 6.08718376e-16,4.02943725 0,9 Z" id="Path" fill="#FEE440"></path>
                                    <path d="M11.7,6.44999999 C11.7,7.19558441 12.3044156,7.79999999 13.05,7.79999999 C13.7955844,7.79999999 14.4,7.19558441 14.4,6.44999999 C14.4,5.70441558 13.7955844,5.09999999 13.05,5.09999999 C12.3044156,5.09999999 11.7,5.70441558 11.7,6.44999999 Z" id="Path" fill="#F4A84C"></path>
                                    <path d="M3.6,6.44999999 C3.6,7.19558441 4.20441559,7.79999999 4.95,7.79999999 C5.69558441,7.79999999 6.3,7.19558441 6.3,6.44999999 C6.30000001,5.96769144 6.04269147,5.52201995 5.62500001,5.28086568 C5.20730855,5.0397114 4.69269145,5.0397114 4.27499999,5.28086568 C3.85730853,5.52201995 3.59999999,5.96769144 3.6,6.44999999 Z" id="Path" fill="#F4A84C"></path>
                                    <path d="M9.07500001,15.075 C12.3,15.075 14.925,12.9 14.925,10.2 C14.925,9.45 3.30000001,9.52500001 3.29999999,10.2 C3.29999999,12.9 5.85,15.075 9.07500001,15.075 Z" id="Path" fill="#F4A84C"></path>
                                </g>
                            </g>
                        </g>
                    </g>
                </g>
            </g>
        </g>
    </g>
</svg>