<?xml version="1.0" encoding="UTF-8"?>
<svg width="25px" height="25px" viewBox="0 0 25 25" version="1.1" xmlns="http://www.w3.org/2000/svg" xmlns:xlink="http://www.w3.org/1999/xlink">
    <!-- Generator: Sketch 61.2 (89653) - https://sketch.com -->
    <title>邀请有礼25*25</title>
    <desc>Created with Sketch.</desc>
    <g id="邀请有礼25*25" stroke="none" stroke-width="1" fill="none" fill-rule="evenodd">
        <g id="邀请有礼" fill="#0079fa" fill-rule="nonzero">
            <path d="M20.9710245,5.91032014 L20.2337816,5.91032014 C20.6075949,5.27752272 20.7716574,4.67377174 20.7197389,4.11359041 C20.6761274,3.6446979 20.4539161,2.97455506 19.6377571,2.43927068 C18.9628165,1.99527511 18.0947389,1.88531359 17.1290546,2.12598409 C15.565269,2.51811101 13.7148932,3.86669568 12.4979233,5.49537101 C11.2809533,3.86669568 9.43057753,2.51811101 7.86679193,2.12598409 C6.90110759,1.88323885 6.03095332,1.99320037 5.35601266,2.43927068 C4.54193038,2.97455506 4.31971915,3.6446979 4.27610759,4.11359041 C4.22418908,4.67377174 4.38617484,5.27752272 4.76206487,5.91032014 L4.02482199,5.91032014 C2.9075356,5.91032014 2,6.81905873 2,7.93527189 L2,10.5432272 C2,11.4270688 2.58356408,12.2071732 3.42672073,12.4685911 C3.34572785,12.6905889 3.30419304,12.9188109 3.30419304,13.1511824 L3.30419304,20.9750483 C3.30419304,22.0912614 4.21380538,23 5.33109177,23 L19.670985,23 C20.7882714,23 21.695807,22.0912614 21.695807,20.9750483 L21.695807,13.1511824 C21.695807,12.9188109 21.6542722,12.6864394 21.575356,12.4685911 C22.4164359,12.2050984 23,11.4249941 23,10.5432272 L23,7.93527189 C22.9958465,6.82113348 22.0883109,5.91032014 20.9710245,5.91032014 M19.6689082,21.555977 L13.2185522,21.555977 L13.2185522,12.5681789 L19.6689082,12.5681789 C19.990803,12.5681789 20.2503956,12.8295969 20.2503956,13.1511824 L20.2503956,20.9750483 C20.2503956,21.2945591 19.990803,21.555977 19.6689082,21.555977 M14.0139438,5.91032014 C15.0398536,4.72771512 16.3855815,3.80030382 17.4800237,3.52436265 C18.0469739,3.3812052 18.5121638,3.42062537 18.8485957,3.64262315 C19.2057951,3.87706941 19.2701741,4.08661872 19.2847112,4.24429939 C19.3407832,4.82315342 18.7198378,5.60533253 18.4270174,5.90824539 L14.0139438,5.90824539 L14.0139438,5.91032014 Z M21.5525119,7.93527189 L21.5525119,10.5432272 C21.5525119,10.8648127 21.2929193,11.1262307 20.9710245,11.1262307 L13.2185522,11.1262307 L13.2185522,7.35434311 L20.9710245,7.35434311 C21.2929193,7.35434311 21.5525119,7.61576106 21.5525119,7.93527189 M11.7772943,12.5681789 L11.7772943,21.555977 L5.32901503,21.555977 C5.00712025,21.555977 4.74545095,21.2945591 4.74545095,20.9729735 L4.74545095,13.1511824 C4.74545095,12.8295969 5.00712025,12.5681789 5.32901503,12.5681789 L11.7772943,12.5681789 Z M5.71321203,4.24637413 C5.72774921,4.08869347 5.79212816,3.87914416 6.14725079,3.6446979 C6.48160601,3.42270011 6.94679589,3.38327995 7.51789953,3.5264374 C8.60611155,3.79822908 9.94976266,4.72771512 10.9777492,5.91239489 L6.57090585,5.91239489 C6.30715981,5.6447527 5.65506329,4.83975139 5.71321203,4.24637413 M3.44125791,7.93527189 C3.44125791,7.61368631 3.70292722,7.35226836 4.02482199,7.35226836 L11.7772943,7.35226836 L11.7772943,11.1241559 L4.02482199,11.1241559 C3.70292722,11.1241559 3.44125791,10.862738 3.44125791,10.5411524 L3.44125791,7.93527189 Z" id="形状"></path>
        </g>
    </g>
</svg>