<?xml version="1.0" encoding="UTF-8"?>
<svg width="18px" height="18px" viewBox="0 0 18 18" version="1.1" xmlns="http://www.w3.org/2000/svg" xmlns:xlink="http://www.w3.org/1999/xlink">
    <!-- Generator: Sketch 52.5 (67469) - http://www.bohemiancoding.com/sketch -->
    <title>温馨提示</title>
    <desc>Created with Sketch.</desc>
    <g id="Page-1" stroke="none" stroke-width="1" fill="none" fill-rule="evenodd">
        <g id="新手任务" transform="translate(-334.000000, -396.000000)" fill="#5C6066" fill-rule="nonzero">
            <g id="温馨提示" transform="translate(334.000000, 396.000000)">
                <g id="Shape">
                    <path d="M8.74758078,5.00520664 C10.6872232,5.00520664 12.2652124,6.57061503 12.2652124,8.49479336 C12.2652124,10.4189717 10.6872232,11.9843801 8.74758078,11.9843801 C6.80793833,11.9843801 5.22994916,10.4189717 5.22994916,8.49479336 C5.22994916,6.57061503 6.80793833,5.00520664 8.74758078,5.00520664 Z M8.93726423,0 C8.60513367,0 8.15048384,0.26724699 8.15048384,0.597461764 L8.15048384,1.79165311 C8.15048384,2.1211357 8.55863539,2.43451025 8.89076595,2.43451025 C9.22289651,2.43451025 9.72330654,2.1211357 9.72330654,1.79165311 L9.72330654,0.597461764 C9.72404461,0.26724699 9.27013285,0 8.93726423,0 Z M2.97736592,2.28880573 C2.82310973,2.28880573 2.6695916,2.34738041 2.55150074,2.46379759 C2.31605708,2.69663196 2.31605708,3.30361211 2.55150074,3.53717865 L3.40249303,4.38138627 C3.49844186,4.47657013 3.64015089,4.5175724 3.79145481,4.5175724 C4.01287518,4.5175724 4.25274725,4.4289782 4.39298015,4.28986333 C4.62768575,4.05702896 4.48966705,3.54157175 4.25422339,3.30800521 L3.4032311,2.46379759 C3.2858783,2.34738041 3.13162211,2.28880573 2.97736592,2.28880573 Z M14.7886666,3.01073869 C14.6536001,3.01073869 14.5288667,3.04734787 14.4417746,3.13374553 L13.5907824,3.97795314 C13.3553387,4.21151969 13.4859767,4.71892288 13.7214204,4.95175724 C13.8550107,5.08428246 14.0565032,5.1626261 14.2491389,5.1626261 C14.3952764,5.1626261 14.5362473,5.11723072 14.6381007,5.01692158 L15.489093,4.17271396 C15.7245367,3.9398796 15.6588486,3.49690856 15.424143,3.26334201 C15.2757914,3.11617312 15.0182057,3.01073869 14.7886666,3.01073869 Z M8.74758078,3.48958672 C5.96137445,3.48958672 3.7021486,5.73080052 3.7021486,8.49479336 C3.7021486,11.2587862 5.96137445,13.5 8.74758078,13.5 C11.5337871,13.5 13.793013,11.2587862 13.793013,8.49479336 C13.793013,5.73006834 11.5337871,3.48958672 8.74758078,3.48958672 Z M17.3977366,7.00699642 L16.1939478,7.00699642 C15.8618173,7.00699642 15.5916844,7.45728929 15.5916844,7.78750407 C15.5916844,8.11698666 15.8610792,8.47648877 16.1939478,8.47648877 L17.3977366,8.47648877 C17.7298671,8.47648877 18,8.11771884 18,7.78750407 C17.9992619,7.45728929 17.7298671,7.00699642 17.3977366,7.00699642 Z M1.80605216,7.00699642 L0.602263408,7.00699642 C0.270132852,7.00699642 0,7.45728929 0,7.78750407 C0,8.11698666 0.269394784,8.47648877 0.602263408,8.47648877 L1.80605216,8.47648877 C2.13818271,8.47648877 2.40831557,8.11771884 2.40831557,7.78750407 C2.4075775,7.45728929 2.13818271,7.00699642 1.80605216,7.00699642 Z M10.9123339,14.3573869 L6.95481384,14.3573869 C6.62194522,14.3573869 6.28391012,14.7388545 6.28391012,15.0690693 C6.28391012,15.3985519 6.62268329,15.8034494 6.95481384,15.8034494 L10.9123339,15.8034494 C11.2444645,15.8034494 11.6297359,15.3985519 11.6297359,15.0690693 C11.6297359,14.5792385 11.2452026,14.3573869 10.9123339,14.3573869 Z M10.1285058,16.5539375 L7.73864196,16.5539375 C7.40577333,16.5539375 7.04412006,16.9581028 7.04412006,17.2883176 C7.04412006,17.6178002 7.40577333,18 7.73864196,18 L10.1277678,18 C10.4598983,18 10.8451698,17.5951025 10.8451698,17.2656199 C10.8459078,16.7757891 10.4606364,16.5539375 10.1285058,16.5539375 Z"></path>
                </g>
            </g>
        </g>
    </g>
</svg>