<?xml version="1.0" encoding="UTF-8"?>
<svg width="25px" height="25px" viewBox="0 0 25 25" version="1.1" xmlns="http://www.w3.org/2000/svg" xmlns:xlink="http://www.w3.org/1999/xlink">
    <!-- Generator: Sketch 54.1 (76490) - https://sketchapp.com -->
    <title>我的账单</title>
    <desc>Created with Sketch.</desc>
    <g id="我的账单" stroke="none" stroke-width="1" fill="none" fill-rule="evenodd">
        <g fill="#0079FA" fill-rule="nonzero" id="Combined-Shape">
            <path d="M18.9,5.1 L20,5.1 C21.6016258,5.1 22.9,6.39837423 22.9,8 L22.9,20 C22.9,21.6016258 21.6016258,22.9 20,22.9 L9,22.9 C7.39837423,22.9 6.1,21.6016258 6.1,20 L6.1,19.9 L5,19.9 C3.39837423,19.9 2.1,18.6016258 2.1,17 L2.1,5 C2.1,3.39837423 3.39837423,2.1 5,2.1 L16,2.1 C17.6016258,2.1 18.9,3.39837423 18.9,5 L18.9,5.1 Z M18.9,6.9 L18.9,17 C18.9,18.6016258 17.6016258,19.9 16,19.9 L7.9,19.9 L7.9,20 C7.9,20.6075132 8.39248678,21.1 9,21.1 L20,21.1 C20.6075132,21.1 21.1,20.6075132 21.1,20 L21.1,8 C21.1,7.39248678 20.6075132,6.9 20,6.9 L18.9,6.9 Z M5,3.9 C4.39248678,3.9 3.9,4.39248678 3.9,5 L3.9,17 C3.9,17.6075132 4.39248678,18.1 5,18.1 L16,18.1 C16.6075132,18.1 17.1,17.6075132 17.1,17 L17.1,5 C17.1,4.39248678 16.6075132,3.9 16,3.9 L5,3.9 Z M7,10.0896484 L7,8.28964844 L13.5,8.28964844 L13.5,10.0896484 L7,10.0896484 Z M7,14.0896484 L7,12.2896484 L13.5,12.2896484 L13.5,14.0896484 L7,14.0896484 Z"></path>
        </g>
    </g>
</svg>
