<?xml version="1.0" encoding="UTF-8"?>
<svg width="25px" height="25px" viewBox="0 0 25 25" version="1.1" xmlns="http://www.w3.org/2000/svg" xmlns:xlink="http://www.w3.org/1999/xlink">
    <!-- Generator: Sketch 54.1 (76490) - https://sketchapp.com -->
    <title>我的会员</title>
    <desc>Created with Sketch.</desc>
    <g id="我的会员" stroke="none" stroke-width="1" fill="none" fill-rule="evenodd">
        <g fill="#C3C4C7" fill-rule="nonzero" id="Combined-Shape">
            <path d="M19.2204459,21 C19.6524431,21 20,21.4449089 20,21.9979101 C20,22.5509113 19.6524699,22.9958202 19.2204459,22.9958202 L5.77955411,23 C5.3475569,23 5,22.5550911 5,22.0020899 C5,21.4490887 5.34753013,21.0041798 5.77955411,21.0041798 L19.2204459,21 Z M22.5666432,7.22385025 L22.5666707,7.22385025 C23.3585325,7.22385025 24,7.85104042 24,8.62527748 C24,9.39951455 23.358505,10.0267047 22.5666707,10.0267047 L22.5432706,10.0267047 L20.3181071,19.3923784 C20.2345547,19.7484618 19.9105036,20 19.5362936,20 L5.40688528,20 C5.03267526,20 4.70862419,19.7484618 4.62507182,19.3923784 L2.40326693,10.0267047 C1.62478455,10.0103662 1,9.38968989 1,8.62527748 C1,7.85106733 1.64812966,7.22713411 2.43999143,7.22713411 C3.2318532,7.22713411 3.87332069,7.85435119 3.87332069,8.62856134 C3.87332069,8.83436779 3.82657541,9.02709263 3.74638165,9.20350584 L8.0062588,11.0687916 L11.6513446,5.54803238 C11.2838518,5.29323721 11.0432981,4.87511044 11.0432981,4.40142723 C11.0432981,3.62719016 11.6847656,3 12.4766274,3 C13.2684891,3 13.9099566,3.62721708 13.9099566,4.40142723 C13.9099566,4.87836738 13.6660718,5.2997511 13.2918618,5.55457318 L16.576117,11.0720486 L21.2469287,9.17736956 C21.1733971,9.00747023 21.1333139,8.82128618 21.1333139,8.62527748 C21.1333139,7.85104042 21.774809,7.22385025 22.5666432,7.22385025 Z M18.4026365,18 L18.4026111,17.9999759 L20,11.4675678 L16.2338892,12.9532697 C15.8929168,13.0875442 15.4997266,12.9620481 15.3154077,12.6584814 L12.4616276,8 L9.27915135,12.6876789 C9.08253096,12.9795329 8.68934079,13.0875442 8.35758183,12.9474494 L5,11.5172082 L6.58199941,18 L18.4026365,18 Z"></path>
        </g>
    </g>
</svg>
