<?xml version="1.0" encoding="UTF-8"?>
<svg width="72px" height="20px" viewBox="0 0 72 20" version="1.1" xmlns="http://www.w3.org/2000/svg" xmlns:xlink="http://www.w3.org/1999/xlink">
    <!-- Generator: Sketch 64 (93537) - https://sketch.com -->
    <title>个人免费</title>
    <desc>Created with Sketch.</desc>
    <g id="控件" stroke="none" stroke-width="1" fill="none" fill-rule="evenodd">
        <g id="顶部栏登录后" transform="translate(-1160.000000, -28.000000)" fill="#0079FA">
            <g id="个人信息">
                <g transform="translate(1108.000000, 8.000000)">
                    <g id="编组-7" transform="translate(52.000000, 0.000000)">
                        <g id="个人免费" transform="translate(0.000000, 20.000000)">
                            <rect id="矩形" stroke-opacity="0.2" stroke="#0079FA" fill-opacity="0.1" x="0.5" y="0.5" width="71" height="19" rx="9.5"></rect>
                            <path d="M13.588,15.088 C15.916,14.188 17.416,13.048 18.064,11.656 C18.16,11.44 18.256,11.224 18.34,10.996 L18.964,10.996 L18.964,13.624 C18.964,14.464 19.336,14.884 20.08,14.884 L22.432,14.884 C22.852,14.884 23.152,14.776 23.344,14.56 C23.56,14.308 23.704,13.6 23.788,12.448 L22.96,12.184 C22.924,13.084 22.852,13.624 22.732,13.816 C22.636,13.96 22.492,14.044 22.276,14.044 L20.344,14.044 C19.996,14.044 19.828,13.84 19.828,13.444 L19.828,10.996 L22.564,10.996 L22.564,7.36 L19.624,7.36 C20.116,6.928 20.608,6.4 21.112,5.776 L21.112,5.116 L16.972,5.116 C17.188,4.828 17.392,4.528 17.584,4.216 L16.72,4.012 C15.748,5.5 14.512,6.688 13,7.6 L13.552,8.26 C13.864,8.056 14.176,7.84 14.488,7.612 L14.488,10.996 L17.416,10.996 C17.344,11.164 17.272,11.344 17.188,11.512 C16.516,12.664 15.124,13.636 13.036,14.404 L13.588,15.088 Z M18.52,7.36 L14.812,7.36 C15.364,6.916 15.868,6.436 16.336,5.908 L19.984,5.908 C19.504,6.46 19.024,6.94 18.52,7.36 Z M21.736,10.18 L18.58,10.18 C18.724,9.568 18.796,8.896 18.82,8.164 L21.736,8.164 L21.736,10.18 Z M17.68,10.18 L15.328,10.18 L15.328,8.164 L17.956,8.164 C17.932,8.896 17.836,9.568 17.68,10.18 Z M27.604,13.204 L27.604,10.708 L33.484,10.708 L33.484,13.204 L34.336,13.204 L34.336,9.94 L26.968,9.94 C27.664,9.7 28.192,9.4 28.576,9.04 C28.792,8.812 28.984,8.548 29.14,8.248 L31.24,8.248 L31.24,9.616 L32.08,9.616 L32.08,8.248 L34.492,8.248 C34.48,8.56 34.444,8.764 34.372,8.872 C34.276,8.992 34.048,9.052 33.676,9.052 C33.484,9.052 33.28,9.04 33.064,9.028 L33.232,9.64 C33.4,9.64 33.592,9.652 33.784,9.652 C34.432,9.652 34.852,9.52 35.032,9.256 C35.212,9.028 35.308,8.476 35.308,7.588 L32.08,7.588 L32.08,6.832 L34.732,6.832 L34.732,4.672 L32.08,4.672 L32.08,4.048 L31.24,4.048 L31.24,4.672 L29.488,4.672 L29.488,4.048 L28.648,4.048 L28.648,4.672 L25.912,4.672 L25.912,5.38 L28.648,5.38 L28.648,6.148 L26.224,6.148 L25.804,8.248 L28.168,8.248 C28.096,8.344 28.012,8.44 27.928,8.536 C27.46,8.968 26.62,9.316 25.396,9.58 L25.828,10.264 C26.14,10.192 26.452,10.108 26.752,10.012 L26.752,13.204 L27.604,13.204 Z M31.24,6.148 L29.488,6.148 L29.488,5.38 L31.24,5.38 L31.24,6.148 Z M33.916,6.148 L32.08,6.148 L32.08,5.38 L33.916,5.38 L33.916,6.148 Z M28.516,7.588 L26.74,7.588 L26.932,6.832 L28.648,6.832 C28.636,7.096 28.588,7.348 28.516,7.588 Z M31.24,7.588 L29.38,7.588 C29.428,7.348 29.464,7.096 29.488,6.832 L31.24,6.832 L31.24,7.588 Z M25.696,15.088 C27.856,14.932 29.236,14.56 29.86,13.972 C30.424,13.492 30.784,12.58 30.94,11.212 L30.076,11.128 C29.98,12.22 29.668,13 29.128,13.468 C28.516,13.948 27.256,14.224 25.348,14.32 L25.696,15.088 Z M34.972,15.136 L35.44,14.416 C34.156,13.864 32.74,13.408 31.192,13.036 L30.76,13.684 C32.2,14.032 33.604,14.512 34.972,15.136 Z M37.552,14.968 C38.32,13.96 38.764,12.688 38.896,11.152 L41.992,11.152 L41.992,14.668 L42.88,14.668 L42.88,11.152 L46.144,11.152 L46.144,13.24 C46.144,13.744 45.916,13.996 45.484,13.996 C45.076,13.996 44.632,13.972 44.152,13.948 L44.38,14.8 L45.76,14.8 C46.6,14.8 47.02,14.38 47.02,13.54 L47.02,4.552 L38.08,4.552 L38.08,10.312 C38.056,11.956 37.66,13.312 36.892,14.38 L37.552,14.968 Z M46.144,7.456 L42.88,7.456 L42.88,5.392 L46.144,5.392 L46.144,7.456 Z M41.992,7.456 L38.944,7.456 L38.944,5.392 L41.992,5.392 L41.992,7.456 Z M41.992,10.36 L38.944,10.36 L38.944,8.26 L41.992,8.26 L41.992,10.36 Z M46.144,10.36 L42.88,10.36 L42.88,8.26 L46.144,8.26 L46.144,10.36 Z M49.42,15.124 C50.5,13.576 51.064,11.728 51.124,9.58 L58.852,9.58 L58.852,5.548 L55.06,5.548 C54.844,4.972 54.628,4.456 54.412,4 L53.488,4.144 C53.74,4.576 53.968,5.044 54.184,5.548 L50.272,5.548 L50.272,9.304 C50.248,11.452 49.756,13.204 48.784,14.548 L49.42,15.124 Z M57.976,8.74 L51.124,8.74 L51.124,6.4 L57.976,6.4 L57.976,8.74 Z" id="免费用户" fill-rule="nonzero"></path>
                        </g>
                    </g>
                </g>
            </g>
        </g>
    </g>
</svg>