<?xml version="1.0" encoding="UTF-8"?>
<svg width="25px" height="25px" viewBox="0 0 25 25" version="1.1" xmlns="http://www.w3.org/2000/svg" xmlns:xlink="http://www.w3.org/1999/xlink">
    <!-- Generator: Sketch 54.1 (76490) - https://sketchapp.com -->
    <title>个人设置</title>
    <desc>Created with Sketch.</desc>
    <g id="个人设置" stroke="none" stroke-width="1" fill="none" fill-rule="evenodd">
        <g fill="#0079FA" fill-rule="nonzero" id="Shape">
            <path d="M13.5328899,22.9999954 L11.4671095,22.9999954 C10.8572991,23.0013613 10.3077734,22.6322284 10.0784382,22.0671833 C9.94789138,21.7477303 9.75945396,21.2531993 9.55601654,20.6091371 C9.31617289,20.5219496 9.08023549,20.4241371 8.84820433,20.3156997 C8.2489077,20.6271839 7.76562665,20.8437463 7.4475799,20.97734 C6.88612151,21.2141929 6.23710427,21.0867074 5.80695557,20.6550745 L4.34375304,19.1939814 C3.9120014,18.7638962 3.78450069,18.1148017 4.02148755,17.5533571 C4.15508124,17.235076 4.37164365,16.7515606 4.6831279,16.1522639 C4.57562795,15.9205453 4.47812799,15.6845298 4.39062802,15.4442174 C3.74680016,15.2407799 3.25203474,15.0523425 2.93258174,14.9217957 C2.36762869,14.6923866 1.99859947,14.1428772 2.000004,13.5331244 L2.000004,11.4668753 C1.99863811,10.8570649 2.36777104,10.3075391 2.93281612,10.078204 C3.25226911,9.94765715 3.74703453,9.75898535 4.39109677,9.55578231 C4.47828424,9.31578241 4.57601857,9.07992314 4.68429978,8.84820448 C4.37281553,8.24890786 4.15625312,7.76562681 4.02265942,7.44758007 C3.78567257,6.88613549 3.91317327,6.23704098 4.34492492,5.80695575 L5.80601807,4.34375324 C6.2361033,3.9120016 6.88519782,3.7845009 7.4466424,4.02148775 C7.76492352,4.15508144 8.2479702,4.37164385 8.84726683,4.6831281 C9.07929799,4.57578439 9.31546977,4.47828443 9.55578217,4.39062822 C9.75921959,3.74656599 9.94765701,3.25180057 10.0784382,2.93234758 C10.3079211,2.36748655 10.8574143,1.99856104 11.4671095,2.00000422 L13.5331243,2.00000422 C14.1429347,1.99863834 14.6924604,2.36777126 14.9217956,2.93281633 C15.0523424,3.25226932 15.2410142,3.74703474 15.4442173,4.39086259 C15.6840609,4.47805006 15.9199983,4.57586252 16.1520295,4.68429997 C16.7510917,4.37281573 17.2343728,4.15625332 17.5524195,4.02265962 C18.1138641,3.78567277 18.7629586,3.91317348 19.1930439,4.34492511 L20.6562464,5.80601825 C21.087998,6.23610348 21.2154987,6.88519799 20.9785119,7.44664257 C20.8449182,7.76492368 20.6283558,8.24797036 20.3168715,8.84726698 C20.4243715,9.07929814 20.5218715,9.31546991 20.6093714,9.55578231 C21.2531993,9.75921973 21.7479647,9.94765715 22.0674177,10.078204 C22.6324501,10.307645 23.0014957,10.8572715 22.9999954,11.4671096 L22.9999954,13.5331244 C23.0013613,14.1429348 22.6322284,14.6924605 22.0671833,14.9217957 C21.7477303,15.0523425 21.2531993,15.2407799 20.609137,15.4442174 C20.5219496,15.684061 20.4241371,15.9199984 20.3156997,16.1520296 C20.6271839,16.7510918 20.8437463,17.2343729 20.97734,17.5524196 C21.2143269,18.1138642 21.0868262,18.7629587 20.6550745,19.1930439 L19.1939814,20.6562464 C18.7638961,21.0879981 18.1148016,21.2154988 17.553357,20.9785119 C17.2350759,20.8449182 16.7520292,20.6283558 16.1527326,20.3168716 C15.9207015,20.4243715 15.6845297,20.5218715 15.4442173,20.6093714 C15.2407799,21.2531993 15.0523424,21.7479647 14.9217956,22.0674177 C14.6923546,22.6324501 14.1427281,23.0014957 13.5328899,22.9999954 Z M9.0398328,18.3774464 C9.15483302,18.3774066 9.26811386,18.4053663 9.36988906,18.4589101 C9.7316416,18.6493437 10.1100567,18.8062839 10.5004037,18.9277687 C10.7261187,18.9979125 10.901978,19.176016 10.9692562,19.4026043 C11.1850878,20.1289146 11.389851,20.6721531 11.52422,21 L13.47578,21 C13.610149,20.671489 13.815355,20.1280292 14.0309652,19.4019402 C14.0982434,19.1753519 14.2741027,18.9972484 14.4998177,18.9271046 C14.8901647,18.8056198 15.2685798,18.6486796 15.6303323,18.458246 C15.8395897,18.3480367 16.0900442,18.3495314 16.2979712,18.4622306 C16.964282,18.8235041 17.493346,19.0625822 17.8203031,19.1998307 L19.2007396,17.8202617 C19.0632715,17.4928576 18.8244179,16.9635653 18.4629278,16.2972459 C18.35023,16.0893162 18.3487353,15.8388584 18.4589432,15.6295983 C18.6493721,15.26784 18.8063102,14.8894202 18.9277957,14.4990689 C18.9979386,14.273351 19.1760397,14.0974894 19.4026251,14.0302103 C20.128926,13.8143759 20.6721574,13.60961 21,13.4752393 L21,11.5236539 C20.6714933,11.3892832 20.1282619,11.1840745 19.401961,10.9684615 C19.1753756,10.9011824 18.9972745,10.7253208 18.9271316,10.4996028 C18.8056461,10.1092516 18.648708,9.73083182 18.4582791,9.36907351 C18.3480712,9.15981339 18.3495659,8.90935563 18.4622637,8.70142587 C18.8235325,8.03510645 19.0626074,7.50603555 19.1996328,7.17907416 L17.8207459,5.79928381 C17.493346,5.93653233 16.9640606,6.17561039 16.2977499,6.53710528 C16.0898228,6.64980446 15.8393683,6.65129924 15.6301109,6.54108991 C15.2683584,6.35065625 14.8899433,6.19371606 14.4995963,6.07223127 C14.2738813,6.00208748 14.098022,5.82398401 14.0307438,5.59739566 C13.8151336,4.87130673 13.610149,4.32784687 13.47578,4 L11.52422,4 C11.3914006,4.32718276 11.186416,4.86754346 10.9708058,5.58920503 C10.9055755,5.81981607 10.7281673,6.00180752 10.4992968,6.07289537 C10.1089575,6.19430897 9.73054263,6.35117498 9.36878223,6.54153265 C9.15952484,6.65174197 8.90907034,6.6502472 8.70114329,6.53754802 C8.03483254,6.1762745 7.50576853,5.93719643 7.1788114,5.80016928 L5.79926038,7.17929553 C5.93650711,7.50669965 6.17558206,8.03599193 6.53707224,8.70231135 C6.64976996,8.91024111 6.65126471,9.16069887 6.54105683,9.36995898 C6.35070163,9.73172409 6.19383767,10.1101439 6.07242565,10.5004883 C6.00228277,10.7262063 5.82418163,10.9020679 5.59759623,10.969347 C4.87129538,11.18496 4.32806396,11.3899473 4,11.524318 L4,13.4759034 C4.32629304,13.6087245 4.86332621,13.812605 5.58276473,14.026447 C5.82265689,14.0921251 6.01068337,14.2785584 6.07840252,14.5178853 C6.19757013,14.8967807 6.35009802,15.2643636 6.53419449,15.6163162 C6.65521602,15.8343386 6.65269378,16.0999348 6.52755352,16.3156195 C6.17181884,16.9733056 5.93584301,17.4961781 5.79992448,17.8209258 L7.17969686,19.2016017 C7.50709672,19.0643531 8.0363821,18.8252751 8.70269285,18.4637802 C8.80614524,18.4074143 8.9220222,18.3777409 9.0398328,18.3774464 L9.0398328,18.3774464 Z M13.5328899,22.9999954 L11.4671095,22.9999954 C10.8572991,23.0013613 10.3077734,22.6322284 10.0784382,22.0671833 C9.94789138,21.7477303 9.75945396,21.2531993 9.55601654,20.6091371 C9.31617289,20.5219496 9.08023549,20.4241371 8.84820433,20.3156997 C8.2489077,20.6271839 7.76562665,20.8437463 7.4475799,20.97734 C6.88612151,21.2141929 6.23710427,21.0867074 5.80695557,20.6550745 L4.34375304,19.1939814 C3.9120014,18.7638962 3.78450069,18.1148017 4.02148755,17.5533571 C4.15508124,17.235076 4.37164365,16.7515606 4.6831279,16.1522639 C4.57562795,15.9205453 4.47812799,15.6845298 4.39062802,15.4442174 C3.74680016,15.2407799 3.25203474,15.0523425 2.93258174,14.9217957 C2.36762869,14.6923866 1.99859947,14.1428772 2.000004,13.5331244 L2.000004,11.4668753 C1.99863811,10.8570649 2.36777104,10.3075391 2.93281612,10.078204 C3.25226911,9.94765715 3.74703453,9.75898535 4.39109677,9.55578231 C4.47828424,9.31578241 4.57601857,9.07992314 4.68429978,8.84820448 C4.37281553,8.24890786 4.15625312,7.76562681 4.02265942,7.44758007 C3.78567257,6.88613549 3.91317327,6.23704098 4.34492492,5.80695575 L5.80601807,4.34375324 C6.2361033,3.9120016 6.88519782,3.7845009 7.4466424,4.02148775 C7.76492352,4.15508144 8.2479702,4.37164385 8.84726683,4.6831281 C9.07929799,4.57578439 9.31546977,4.47828443 9.55578217,4.39062822 C9.75921959,3.74656599 9.94765701,3.25180057 10.0784382,2.93234758 C10.3079211,2.36748655 10.8574143,1.99856104 11.4671095,2.00000422 L13.5331243,2.00000422 C14.1429347,1.99863834 14.6924604,2.36777126 14.9217956,2.93281633 C15.0523424,3.25226932 15.2410142,3.74703474 15.4442173,4.39086259 C15.6840609,4.47805006 15.9199983,4.57586252 16.1520295,4.68429997 C16.7510917,4.37281573 17.2343728,4.15625332 17.5524195,4.02265962 C18.1138641,3.78567277 18.7629586,3.91317348 19.1930439,4.34492511 L20.6562464,5.80601825 C21.087998,6.23610348 21.2154987,6.88519799 20.9785119,7.44664257 C20.8449182,7.76492368 20.6283558,8.24797036 20.3168715,8.84726698 C20.4243715,9.07929814 20.5218715,9.31546991 20.6093714,9.55578231 C21.2531993,9.75921973 21.7479647,9.94765715 22.0674177,10.078204 C22.6324501,10.307645 23.0014957,10.8572715 22.9999954,11.4671096 L22.9999954,13.5331244 C23.0013613,14.1429348 22.6322284,14.6924605 22.0671833,14.9217957 C21.7477303,15.0523425 21.2531993,15.2407799 20.609137,15.4442174 C20.5219496,15.684061 20.4241371,15.9199984 20.3156997,16.1520296 C20.6271839,16.7510918 20.8437463,17.2343729 20.97734,17.5524196 C21.2143269,18.1138642 21.0868262,18.7629587 20.6550745,19.1930439 L19.1939814,20.6562464 C18.7638961,21.0879981 18.1148016,21.2154988 17.553357,20.9785119 C17.2350759,20.8449182 16.7520292,20.6283558 16.1527326,20.3168716 C15.9207015,20.4243715 15.6845297,20.5218715 15.4442173,20.6093714 C15.2407799,21.2531993 15.0523424,21.7479647 14.9217956,22.0674177 C14.6923546,22.6324501 14.1427281,23.0014957 13.5328899,22.9999954 Z M9.0398328,18.3774464 C9.15483302,18.3774066 9.26811386,18.4053663 9.36988906,18.4589101 C9.7316416,18.6493437 10.1100567,18.8062839 10.5004037,18.9277687 C10.7261187,18.9979125 10.901978,19.176016 10.9692562,19.4026043 C11.1850878,20.1289146 11.389851,20.6721531 11.52422,21 L13.47578,21 C13.610149,20.671489 13.815355,20.1280292 14.0309652,19.4019402 C14.0982434,19.1753519 14.2741027,18.9972484 14.4998177,18.9271046 C14.8901647,18.8056198 15.2685798,18.6486796 15.6303323,18.458246 C15.8395897,18.3480367 16.0900442,18.3495314 16.2979712,18.4622306 C16.964282,18.8235041 17.493346,19.0625822 17.8203031,19.1998307 L19.2007396,17.8202617 C19.0632715,17.4928576 18.8244179,16.9635653 18.4629278,16.2972459 C18.35023,16.0893162 18.3487353,15.8388584 18.4589432,15.6295983 C18.6493721,15.26784 18.8063102,14.8894202 18.9277957,14.4990689 C18.9979386,14.273351 19.1760397,14.0974894 19.4026251,14.0302103 C20.128926,13.8143759 20.6721574,13.60961 21,13.4752393 L21,11.5236539 C20.6714933,11.3892832 20.1282619,11.1840745 19.401961,10.9684615 C19.1753756,10.9011824 18.9972745,10.7253208 18.9271316,10.4996028 C18.8056461,10.1092516 18.648708,9.73083182 18.4582791,9.36907351 C18.3480712,9.15981339 18.3495659,8.90935563 18.4622637,8.70142587 C18.8235325,8.03510645 19.0626074,7.50603555 19.1996328,7.17907416 L17.8207459,5.79928381 C17.493346,5.93653233 16.9640606,6.17561039 16.2977499,6.53710528 C16.0898228,6.64980446 15.8393683,6.65129924 15.6301109,6.54108991 C15.2683584,6.35065625 14.8899433,6.19371606 14.4995963,6.07223127 C14.2738813,6.00208748 14.098022,5.82398401 14.0307438,5.59739566 C13.8151336,4.87130673 13.610149,4.32784687 13.47578,4 L11.52422,4 C11.3914006,4.32718276 11.186416,4.86754346 10.9708058,5.58920503 C10.9055755,5.81981607 10.7281673,6.00180752 10.4992968,6.07289537 C10.1089575,6.19430897 9.73054263,6.35117498 9.36878223,6.54153265 C9.15952484,6.65174197 8.90907034,6.6502472 8.70114329,6.53754802 C8.03483254,6.1762745 7.50576853,5.93719643 7.1788114,5.80016928 L5.79926038,7.17929553 C5.93650711,7.50669965 6.17558206,8.03599193 6.53707224,8.70231135 C6.64976996,8.91024111 6.65126471,9.16069887 6.54105683,9.36995898 C6.35070163,9.73172409 6.19383767,10.1101439 6.07242565,10.5004883 C6.00228277,10.7262063 5.82418163,10.9020679 5.59759623,10.969347 C4.87129538,11.18496 4.32806396,11.3899473 4,11.524318 L4,13.4759034 C4.32629304,13.6087245 4.86332621,13.812605 5.58276473,14.026447 C5.82265689,14.0921251 6.01068337,14.2785584 6.07840252,14.5178853 C6.19757013,14.8967807 6.35009802,15.2643636 6.53419449,15.6163162 C6.65521602,15.8343386 6.65269378,16.0999348 6.52755352,16.3156195 C6.17181884,16.9733056 5.93584301,17.4961781 5.79992448,17.8209258 L7.17969686,19.2016017 C7.50709672,19.0643531 8.0363821,18.8252751 8.70269285,18.4637802 C8.80614524,18.4074143 8.9220222,18.3777409 9.0398328,18.3774464 L9.0398328,18.3774464 Z M12.5,17 C10.0147186,17 8,14.9852814 8,12.5 C8,10.0147186 10.0147186,8 12.5,8 C14.9852814,8 17,10.0147186 17,12.5 C17,14.9852814 14.9852814,17 12.5,17 Z M12.5,15 C13.8807119,15 15,13.8807119 15,12.5 C15,11.1192881 13.8807119,10 12.5,10 C11.1192881,10 10,11.1192881 10,12.5 C10,13.8807119 11.1192881,15 12.5,15 Z"></path>
        </g>
    </g>
</svg>
