<?xml version="1.0" encoding="UTF-8"?>
<svg width="25px" height="25px" viewBox="0 0 25 25" version="1.1" xmlns="http://www.w3.org/2000/svg" xmlns:xlink="http://www.w3.org/1999/xlink">
    <!-- Generator: Sketch 54.1 (76490) - https://sketchapp.com -->
    <title>安全设置</title>
    <desc>Created with Sketch.</desc>
    <g id="安全设置" stroke="none" stroke-width="1" fill="none" fill-rule="evenodd">
        <g fill="#C3C4C7" fill-rule="nonzero" id="Combined-Shape">
            <path d="M4.8,5.27359488 L4.8,14.8416611 C8.26952389,19.1167133 10.9521365,21.2 12.4904399,21.2 C14.0298399,21.2 16.7189563,19.1158331 20.2,14.8400934 L20.2,5.24676611 C17.0028164,4.2784586 14.4984108,3.8 12.7246705,3.8 C10.9301433,3.8 8.27350078,4.28794228 4.8,5.27359488 Z M3,3.92498681 C7.26089144,2.64166227 10.5024483,2 12.7246705,2 C14.9468927,2 18.0386692,2.64166227 22,3.92498681 L22,15.4749077 C18,20.4916359 14.8301466,23 12.4904399,23 C10.1507331,23 6.98725316,20.4916359 3,15.4749077 L3,3.92498681 Z M17.4524732,8.32878547 L18.6515913,9.67121453 L11.4026807,16.146268 L6.53569011,12.7371504 L7.56837445,11.2628496 L11.2672203,13.853732 L17.4524732,8.32878547 Z"></path>
        </g>
    </g>
</svg>
