<?xml version="1.0" encoding="UTF-8"?>
<svg width="18px" height="18px" viewBox="0 0 18 18" version="1.1" xmlns="http://www.w3.org/2000/svg" xmlns:xlink="http://www.w3.org/1999/xlink">
    <!-- Generator: Sketch 52.5 (67469) - http://www.bohemiancoding.com/sketch -->
    <title>难过</title>
    <desc>Created with Sketch.</desc>
    <defs>
        <filter x="-4.8%" y="-7.3%" width="109.6%" height="114.6%" filterUnits="objectBoundingBox" id="filter-1">
            <feGaussianBlur stdDeviation="0.17578125" in="SourceGraphic"></feGaussianBlur>
        </filter>
    </defs>
    <g id="Page-1" stroke="none" stroke-width="1" fill="none" fill-rule="evenodd">
        <g id="新手任务" transform="translate(-553.000000, -281.000000)">
            <g id="表格" transform="translate(334.000000, 155.000000)">
                <g id="间距-&lt;h80-&gt;" transform="translate(40.000000, 16.000000)">
                    <g id="2" transform="translate(178.000000, 0.000000)">
                        <g id="状态们" transform="translate(0.000000, 54.000000)">
                            <g id="2.2" transform="translate(1.000000, 54.000000)">
                                <g id="难过" transform="translate(0.000000, 2.000000)">
                                    <path d="M0,9 C6.08718376e-16,13.9705627 4.02943725,18 9,18 C13.9705627,18 18,13.9705627 18,9 C18,4.02943725 13.9705627,3.04359188e-16 9,0 C4.02943725,-3.04359188e-16 6.08718376e-16,4.02943725 0,9 Z" id="Path" fill="#E6E6E6"></path>
                                    <path d="M11.325,13.05 C11.175,13.05 10.95,12.975 10.8,12.825 C10.275,12.3 9.675,12.075 9,12.075 C8.325,12.075 7.72500001,12.3 7.2,12.825 C6.89999999,13.125 6.44999999,13.125 6.15000001,12.825 C5.85,12.525 5.85,12.075 6.15000001,11.775 C6.975,11.025 7.95000001,10.575 9,10.575 C10.05,10.575 11.025,10.95 11.85,11.775 C12.15,12.075 12.15,12.525 11.85,12.825 C11.775,12.975 11.55,13.05 11.325,13.05 Z M11.775,7.2 C11.775,6.45441559 12.3794156,5.85 13.125,5.85 C13.8705844,5.85 14.475,6.45441559 14.475,7.2 C14.475,7.94558441 13.8705844,8.55 13.125,8.55 C12.3794156,8.55 11.775,7.94558441 11.775,7.2 Z M3.52499999,7.2 C3.52499999,6.45441559 4.12941558,5.85 4.87499999,5.85 C5.62058441,5.85 6.22499999,6.45441559 6.22499999,7.2 C6.22499999,7.94558441 5.62058441,8.55 4.87499999,8.55 C4.12941558,8.55 3.52499999,7.94558441 3.52499999,7.2 Z" id="Combined-Shape" fill="#B0B0B0" filter="url(#filter-1)"></path>
                                </g>
                            </g>
                        </g>
                    </g>
                </g>
            </g>
        </g>
    </g>
</svg>