<?xml version="1.0" encoding="UTF-8"?>
<svg width="76px" height="31px" viewBox="0 0 76 31" version="1.1" xmlns="http://www.w3.org/2000/svg" xmlns:xlink="http://www.w3.org/1999/xlink">
    <!-- Generator: Sketch 55 (78076) - https://sketchapp.com -->
    <title>会员</title>
    <desc>Created with Sketch.</desc>
    <defs>
        <linearGradient x1="50%" y1="0%" x2="50%" y2="100%" id="linearGradient-1">
            <stop stop-color="#C9D6EF" offset="0%"></stop>
            <stop stop-color="#7790C9" offset="100%"></stop>
        </linearGradient>
        <linearGradient x1="50%" y1="0%" x2="50%" y2="100%" id="linearGradient-2">
            <stop stop-color="#8097BF" offset="0%"></stop>
            <stop stop-color="#495D8B" offset="100%"></stop>
        </linearGradient>
        <linearGradient x1="76.8855439%" y1="0%" x2="38.5694196%" y2="87.5841463%" id="linearGradient-3">
            <stop stop-color="#A9BFE6" offset="0%"></stop>
            <stop stop-color="#617DBB" offset="100%"></stop>
        </linearGradient>
        <path d="M11.7016086,4.99571191 C11.3997097,4.49795428 11.2258065,3.91331006 11.2258065,3.28787879 C11.2258065,1.47203347 12.6917128,-1.42108547e-13 14.5,-1.42108547e-13 C16.3082872,-1.42108547e-13 17.7741935,1.47203347 17.7741935,3.28787879 C17.7741935,3.91331006 17.6002903,4.49795428 17.2983914,4.99571191 L28.7427474,25.4262723 C25.4794264,28.439417 21.2658487,30.4308956 16.6049971,30.8956229 L12.3950029,30.8956229 C7.73415129,30.4308956 3.52057361,28.439417 0.257252644,25.4262723 L11.7016086,4.99571191 Z" id="path-4"></path>
        <linearGradient x1="50%" y1="0%" x2="50%" y2="100%" id="linearGradient-6">
            <stop stop-color="#D0DDF7" offset="0%"></stop>
            <stop stop-color="#A4B5DE" offset="100%"></stop>
        </linearGradient>
        <path d="M46.468,11.464 L47.532,11.464 C49.282,13.382 51.298,14.894 53.594,15.986 L52.796,17.414 C51.984,16.994 51.228,16.518 50.514,16.014 L50.514,17.022 L43.528,17.022 L43.528,15.958 C42.786,16.476 41.988,16.966 41.148,17.428 L40.364,16 C42.814,14.796 44.844,13.284 46.468,11.464 Z M43.948,15.65 L50.038,15.65 C48.89,14.796 47.882,13.844 47,12.78 C46.132,13.816 45.124,14.782 43.948,15.65 Z M41.33,18.45 L52.698,18.45 L52.698,19.878 L46.188,19.878 C45.6,20.97 44.914,21.936 44.13,22.748 C46.02,22.636 47.868,22.482 49.66,22.272 C49.254,21.768 48.82,21.25 48.358,20.718 L49.492,20.004 C50.766,21.376 51.746,22.58 52.446,23.588 L51.228,24.442 C50.99,24.078 50.738,23.7 50.472,23.336 C48.302,23.672 45.6,23.938 42.352,24.134 L41.96,22.86 C42.31,22.776 42.562,22.636 42.716,22.468 C43.416,21.642 44.004,20.774 44.494,19.878 L41.33,19.878 L41.33,18.45 Z M65.872,16.49 L65.872,21.824 L64.416,21.824 L64.416,17.82 L57.598,17.82 L57.598,22.048 L56.142,22.048 L56.142,16.49 L65.872,16.49 Z M56.968,11.884 L65.046,11.884 L65.046,15.706 L56.968,15.706 L56.968,11.884 Z M63.632,14.446 L63.632,13.172 L58.382,13.172 L58.382,14.446 L63.632,14.446 Z M60.384,18.478 L61.868,18.618 C61.672,20.746 61.238,22.146 60.566,22.832 C59.866,23.7 58.158,24.274 55.414,24.526 L54.84,23.196 C57.08,23.084 58.564,22.678 59.292,21.978 C59.922,21.306 60.286,20.13 60.384,18.478 Z M62.148,21.614 C63.954,22.09 65.606,22.65 67.118,23.322 L66.334,24.54 C64.738,23.756 63.1,23.14 61.42,22.692 L62.148,21.614 Z" id="path-7"></path>
        <filter x="-18.7%" y="-30.6%" width="137.4%" height="176.5%" filterUnits="objectBoundingBox" id="filter-8">
            <feOffset dx="0" dy="1" in="SourceAlpha" result="shadowOffsetOuter1"></feOffset>
            <feGaussianBlur stdDeviation="1.5" in="shadowOffsetOuter1" result="shadowBlurOuter1"></feGaussianBlur>
            <feColorMatrix values="0 0 0 0 0.128868624   0 0 0 0 0.27070496   0 0 0 0 0.544921875  0 0 0 1 0" type="matrix" in="shadowBlurOuter1"></feColorMatrix>
        </filter>
    </defs>
    <g id="Page-1" stroke="none" stroke-width="1" fill="none" fill-rule="evenodd">
        <g id="画板" transform="translate(-483.000000, -424.000000)">
            <g id="会员" transform="translate(483.000000, 424.000000)">
                <g id="编组-2">
                    <path d="M22,6 L68,6 C72.418278,6 76,9.581722 76,14 L76,22 C76,26.418278 72.418278,30 68,30 L22,30 L22,6 Z" id="矩形" fill="#99B7F1"></path>
                    <g id="编组">
                        <path d="M5.46179819,7.53559227 L12,13.5454545 L12,25 L4.61538462,25 L3.05915039,9.71176719 C2.96386351,9.72201828 2.86714053,9.72727273 2.76923077,9.72727273 C1.23982685,9.72727273 0,8.44517906 0,6.86363636 C0,5.28209367 1.23982685,4 2.76923077,4 C4.29863469,4 5.53846154,5.28209367 5.53846154,6.86363636 C5.53846154,7.09505965 5.51191467,7.3200712 5.46179819,7.53559227 Z" id="形状结合" fill="url(#linearGradient-1)"></path>
                        <path d="M30.4617982,7.53559227 L37,13.5454545 L37,25 L29.6153846,25 L28.0591504,9.71176719 C27.9638635,9.72201828 27.8671405,9.72727273 27.7692308,9.72727273 C26.2398268,9.72727273 25,8.44517906 25,6.86363636 C25,5.28209367 26.2398268,4 27.7692308,4 C29.2986347,4 30.5384615,5.28209367 30.5384615,6.86363636 C30.5384615,7.09505965 30.5119147,7.3200712 30.4617982,7.53559227 Z" id="形状结合" fill="url(#linearGradient-2)" transform="translate(31.000000, 14.500000) scale(-1, 1) translate(-31.000000, -14.500000) "></path>
                        <g id="矩形" transform="translate(4.000000, 0.000000)">
                            <mask id="mask-5" fill="white">
                                <use xlink:href="#path-4"></use>
                            </mask>
                            <use id="蒙版" fill="url(#linearGradient-3)" xlink:href="#path-4"></use>
                            <rect fill="url(#linearGradient-6)" mask="url(#mask-5)" x="0" y="0" width="14.9677419" height="31.9393939"></rect>
                        </g>
                    </g>
                </g>
                <g fill-rule="nonzero">
                    <use fill="black" fill-opacity="1" filter="url(#filter-8)" xlink:href="#path-7"></use>
                    <use fill="#FFFFFF" xlink:href="#path-7"></use>
                </g>
            </g>
        </g>
    </g>
</svg>