<?xml version="1.0" encoding="UTF-8"?>
<svg width="76px" height="31px" viewBox="0 0 76 31" version="1.1" xmlns="http://www.w3.org/2000/svg" xmlns:xlink="http://www.w3.org/1999/xlink">
    <!-- Generator: Sketch 55 (78076) - https://sketchapp.com -->
    <title>会员灰</title>
    <desc>Created with Sketch.</desc>
    <defs>
        <path d="M11.7016086,4.99571191 C11.3997097,4.49795428 11.2258065,3.91331006 11.2258065,3.28787879 C11.2258065,1.47203347 12.6917128,-1.42108547e-13 14.5,-1.42108547e-13 C16.3082872,-1.42108547e-13 17.7741935,1.47203347 17.7741935,3.28787879 C17.7741935,3.91331006 17.6002903,4.49795428 17.2983914,4.99571191 L28.7427474,25.4262723 C25.4794264,28.439417 21.2658487,30.4308956 16.6049971,30.8956229 L12.3950029,30.8956229 C7.73415129,30.4308956 3.52057361,28.439417 0.257252644,25.4262723 L11.7016086,4.99571191 Z" id="path-1"></path>
        <path d="M47.468,10.464 L48.532,10.464 C50.282,12.382 52.298,13.894 54.594,14.986 L53.796,16.414 C52.984,15.994 52.228,15.518 51.514,15.014 L51.514,16.022 L44.528,16.022 L44.528,14.958 C43.786,15.476 42.988,15.966 42.148,16.428 L41.364,15 C43.814,13.796 45.844,12.284 47.468,10.464 Z M44.948,14.65 L51.038,14.65 C49.89,13.796 48.882,12.844 48,11.78 C47.132,12.816 46.124,13.782 44.948,14.65 Z M42.33,17.45 L53.698,17.45 L53.698,18.878 L47.188,18.878 C46.6,19.97 45.914,20.936 45.13,21.748 C47.02,21.636 48.868,21.482 50.66,21.272 C50.254,20.768 49.82,20.25 49.358,19.718 L50.492,19.004 C51.766,20.376 52.746,21.58 53.446,22.588 L52.228,23.442 C51.99,23.078 51.738,22.7 51.472,22.336 C49.302,22.672 46.6,22.938 43.352,23.134 L42.96,21.86 C43.31,21.776 43.562,21.636 43.716,21.468 C44.416,20.642 45.004,19.774 45.494,18.878 L42.33,18.878 L42.33,17.45 Z M66.872,15.49 L66.872,20.824 L65.416,20.824 L65.416,16.82 L58.598,16.82 L58.598,21.048 L57.142,21.048 L57.142,15.49 L66.872,15.49 Z M57.968,10.884 L66.046,10.884 L66.046,14.706 L57.968,14.706 L57.968,10.884 Z M64.632,13.446 L64.632,12.172 L59.382,12.172 L59.382,13.446 L64.632,13.446 Z M61.384,17.478 L62.868,17.618 C62.672,19.746 62.238,21.146 61.566,21.832 C60.866,22.7 59.158,23.274 56.414,23.526 L55.84,22.196 C58.08,22.084 59.564,21.678 60.292,20.978 C60.922,20.306 61.286,19.13 61.384,17.478 Z M63.148,20.614 C64.954,21.09 66.606,21.65 68.118,22.322 L67.334,23.54 C65.738,22.756 64.1,22.14 62.42,21.692 L63.148,20.614 Z" id="path-3"></path>
        <filter x="-18.7%" y="-30.6%" width="137.4%" height="176.5%" filterUnits="objectBoundingBox" id="filter-4">
            <feOffset dx="0" dy="1" in="SourceAlpha" result="shadowOffsetOuter1"></feOffset>
            <feGaussianBlur stdDeviation="1.5" in="shadowOffsetOuter1" result="shadowBlurOuter1"></feGaussianBlur>
            <feColorMatrix values="0 0 0 0 0   0 0 0 0 0   0 0 0 0 0  0 0 0 0.195421766 0" type="matrix" in="shadowBlurOuter1"></feColorMatrix>
        </filter>
    </defs>
    <g id="Page-1" stroke="none" stroke-width="1" fill="none" fill-rule="evenodd">
        <g id="画板" transform="translate(-483.000000, -64.000000)">
            <g id="会员灰" transform="translate(482.000000, 65.000000)">
                <g id="编组-2">
                    <path d="M23,5 L69,5 C73.418278,5 77,8.581722 77,13 L77,21 C77,25.418278 73.418278,29 69,29 L23,29 L23,5 Z" id="矩形" fill="#CCCCCC"></path>
                    <g id="编组" transform="translate(1.000000, -1.000000)">
                        <path d="M5.46179819,7.53559227 L12,13.5454545 L12,25 L4.61538462,25 L3.05915039,9.71176719 C2.96386351,9.72201828 2.86714053,9.72727273 2.76923077,9.72727273 C1.23982685,9.72727273 0,8.44517906 0,6.86363636 C0,5.28209367 1.23982685,4 2.76923077,4 C4.29863469,4 5.53846154,5.28209367 5.53846154,6.86363636 C5.53846154,7.09505965 5.51191467,7.3200712 5.46179819,7.53559227 Z" id="形状结合" fill="#AAAAAA"></path>
                        <path d="M30.4617982,7.53559227 L37,13.5454545 L37,25 L29.6153846,25 L28.0591504,9.71176719 C27.9638635,9.72201828 27.8671405,9.72727273 27.7692308,9.72727273 C26.2398268,9.72727273 25,8.44517906 25,6.86363636 C25,5.28209367 26.2398268,4 27.7692308,4 C29.2986347,4 30.5384615,5.28209367 30.5384615,6.86363636 C30.5384615,7.09505965 30.5119147,7.3200712 30.4617982,7.53559227 Z" id="形状结合" fill="#8B8B8B" transform="translate(31.000000, 14.500000) scale(-1, 1) translate(-31.000000, -14.500000) "></path>
                        <g id="矩形" transform="translate(4.000000, 0.000000)">
                            <mask id="mask-2" fill="white">
                                <use xlink:href="#path-1"></use>
                            </mask>
                            <use id="蒙版" fill="#A8A8A8" xlink:href="#path-1"></use>
                            <rect fill="#C0C0C0" mask="url(#mask-2)" x="0" y="0" width="14.9677419" height="31.9393939"></rect>
                        </g>
                    </g>
                </g>
                <g id="会员" fill-rule="nonzero">
                    <use fill="black" fill-opacity="1" filter="url(#filter-4)" xlink:href="#path-3"></use>
                    <use fill="#FFFFFF" xlink:href="#path-3"></use>
                </g>
            </g>
        </g>
    </g>
</svg>