<?xml version="1.0" encoding="UTF-8"?>
<svg width="99px" height="31px" viewBox="0 0 99 31" version="1.1" xmlns="http://www.w3.org/2000/svg" xmlns:xlink="http://www.w3.org/1999/xlink">
    <!-- Generator: Sketch 55 (78076) - https://sketchapp.com -->
    <title>高级会员</title>
    <desc>Created with Sketch.</desc>
    <defs>
        <linearGradient x1="43.3630082%" y1="0%" x2="58.4589114%" y2="100%" id="linearGradient-1">
            <stop stop-color="#FFE972" offset="0%"></stop>
            <stop stop-color="#FBC730" offset="100%"></stop>
        </linearGradient>
        <linearGradient x1="37.7737906%" y1="0%" x2="57.2044798%" y2="80.3058754%" id="linearGradient-2">
            <stop stop-color="#FFC32D" offset="0%"></stop>
            <stop stop-color="#EAA502" offset="100%"></stop>
        </linearGradient>
        <linearGradient x1="92.5033955%" y1="50%" x2="7.49660454%" y2="69.1010009%" id="linearGradient-3">
            <stop stop-color="#FFC657" offset="0%"></stop>
            <stop stop-color="#F0B543" offset="100%"></stop>
        </linearGradient>
        <path d="M11.7016086,4.99571191 C11.3997097,4.49795428 11.2258065,3.91331006 11.2258065,3.28787879 C11.2258065,1.47203347 12.6917128,-1.42108547e-13 14.5,-1.42108547e-13 C16.3082872,-1.42108547e-13 17.7741935,1.47203347 17.7741935,3.28787879 C17.7741935,3.91331006 17.6002903,4.49795428 17.2983914,4.99571191 L28.7427474,25.4262723 C25.4794264,28.439417 21.2658487,30.4308956 16.6049971,30.8956229 L12.3950029,30.8956229 C7.73415129,30.4308956 3.52057361,28.439417 0.257252644,25.4262723 L11.7016086,4.99571191 Z" id="path-4"></path>
    </defs>
    <g id="Page-1" stroke="none" stroke-width="1" fill="none" fill-rule="evenodd">
        <g id="画板" transform="translate(-460.000000, -472.000000)">
            <g id="高级会员" transform="translate(460.000000, 472.000000)">
                <g id="编组-2">
                    <path d="M22,6 L91,6 C95.418278,6 99,9.581722 99,14 L99,22 C99,26.418278 95.418278,30 91,30 L22,30 L22,6 Z" id="矩形" fill="#FFDB61"></path>
                    <g id="编组">
                        <path d="M5.46179819,7.53559227 L12,13.5454545 L12,25 L4.61538462,25 L3.05915039,9.71176719 C2.96386351,9.72201828 2.86714053,9.72727273 2.76923077,9.72727273 C1.23982685,9.72727273 0,8.44517906 0,6.86363636 C0,5.28209367 1.23982685,4 2.76923077,4 C4.29863469,4 5.53846154,5.28209367 5.53846154,6.86363636 C5.53846154,7.09505965 5.51191467,7.3200712 5.46179819,7.53559227 Z" id="形状结合" fill="url(#linearGradient-1)"></path>
                        <path d="M30.4617982,7.53559227 L37,13.5454545 L37,25 L29.6153846,25 L28.0591504,9.71176719 C27.9638635,9.72201828 27.8671405,9.72727273 27.7692308,9.72727273 C26.2398268,9.72727273 25,8.44517906 25,6.86363636 C25,5.28209367 26.2398268,4 27.7692308,4 C29.2986347,4 30.5384615,5.28209367 30.5384615,6.86363636 C30.5384615,7.09505965 30.5119147,7.3200712 30.4617982,7.53559227 Z" id="形状结合" fill="url(#linearGradient-2)" transform="translate(31.000000, 14.500000) scale(-1, 1) translate(-31.000000, -14.500000) "></path>
                        <g id="矩形" transform="translate(4.000000, 0.000000)">
                            <mask id="mask-5" fill="white">
                                <use xlink:href="#path-4"></use>
                            </mask>
                            <use id="蒙版" fill="url(#linearGradient-3)" xlink:href="#path-4"></use>
                            <rect fill="#FFE390" mask="url(#mask-5)" x="0" y="0" width="14.9677419" height="31.9393939"></rect>
                        </g>
                    </g>
                </g>
                <path d="M44.476,11.2789677 C44.588,11.6149677 44.714,11.9929677 44.826,12.3989677 L50.23,12.3989677 L50.23,13.7429677 L37.756,13.7429677 L37.756,12.3989677 L43.23,12.3989677 C43.104,12.0909677 42.978,11.8109677 42.838,11.5589677 L44.476,11.2789677 Z M47.948,24.2849677 L46.8,24.2849677 L46.45,22.9969677 L47.528,23.0389677 C48.018,23.0389677 48.27,22.8709677 48.27,22.5349677 L48.27,19.1049677 L39.73,19.1049677 L39.73,24.3269677 L38.344,24.3269677 L38.344,17.8449677 L49.656,17.8449677 L49.656,22.8289677 C49.656,23.7949677 49.082,24.2849677 47.948,24.2849677 Z M39.912,14.3169677 L48.102,14.3169677 L48.102,17.2849677 L39.912,17.2849677 L39.912,14.3169677 Z M46.702,16.1929677 L46.702,15.4089677 L41.312,15.4089677 L41.312,16.1929677 L46.702,16.1929677 Z M41.13,19.6649677 L46.898,19.6649677 L46.898,22.6889677 L41.13,22.6889677 L41.13,19.6649677 Z M45.61,21.6109677 L45.61,20.7429677 L42.418,20.7429677 L42.418,21.6109677 L45.61,21.6109677 Z M55.872,21.1069677 L55.872,22.3109677 C57.104,20.2949677 57.734,17.4389677 57.762,13.7149677 L57.762,13.1829677 L56.544,13.1829677 L56.544,11.8109677 L62.942,11.8109677 L62.942,12.7209677 C62.732,13.8549677 62.522,14.8349677 62.312,15.6749677 L64.02,15.6749677 L64.02,16.4869677 C63.712,18.3769677 63.11,19.9589677 62.214,21.2469677 C62.914,21.9329677 63.698,22.5489677 64.594,23.0949677 L63.67,24.3409677 C62.774,23.7389677 61.99,23.0669677 61.318,22.3389677 C60.492,23.1789677 59.512,23.8509677 58.392,24.3689677 L57.58,23.0389677 C58.672,22.5069677 59.596,21.8629677 60.338,21.1069677 C59.708,20.1969677 59.204,19.2029677 58.826,18.1249677 C58.378,20.7569677 57.51,22.8149677 56.236,24.2989677 L55.13,23.3329677 C55.34,23.0809677 55.536,22.8149677 55.732,22.5349677 C54.528,22.9969677 53.184,23.3749677 51.686,23.6549677 L51.49,22.2269677 C53.156,21.9469677 54.612,21.5829677 55.872,21.1069677 Z M61.192,20.0849677 C61.836,19.1609677 62.298,18.1109677 62.564,16.9489677 L60.632,16.9489677 C60.87,16.0809677 61.136,14.8209677 61.444,13.1829677 L59.19,13.1829677 L59.19,13.7149677 C59.19,14.3309677 59.162,14.9329677 59.134,15.4929677 C59.498,17.2289677 60.184,18.7689677 61.192,20.0849677 Z M53.926,11.3209677 L55.326,11.8809677 C54.654,13.4489677 53.968,14.7509677 53.268,15.7729677 C53.744,15.7169677 54.22,15.6609677 54.71,15.5909677 C54.962,15.1429677 55.242,14.6529677 55.522,14.1349677 L56.796,14.6249677 C55.62,16.6549677 54.64,18.1529677 53.842,19.1189677 C54.682,18.9509677 55.536,18.7409677 56.404,18.4749677 L56.404,19.7909677 C54.864,20.2529677 53.422,20.5609677 52.05,20.7149677 L51.672,19.3989677 C51.924,19.3009677 52.148,19.1609677 52.33,18.9789677 C52.75,18.5869677 53.282,17.8869677 53.912,16.9069677 C53.268,16.9909677 52.582,17.0889677 51.882,17.1729677 L51.532,15.8429677 C51.756,15.7589677 51.952,15.5769677 52.134,15.3109677 C52.82,14.1069677 53.422,12.7769677 53.926,11.3209677 Z M71.468,11.3349677 L72.532,11.3349677 C74.282,13.2529677 76.298,14.7649677 78.594,15.8569677 L77.796,17.2849677 C76.984,16.8649677 76.228,16.3889677 75.514,15.8849677 L75.514,16.8929677 L68.528,16.8929677 L68.528,15.8289677 C67.786,16.3469677 66.988,16.8369677 66.148,17.2989677 L65.364,15.8709677 C67.814,14.6669677 69.844,13.1549677 71.468,11.3349677 Z M68.948,15.5209677 L75.038,15.5209677 C73.89,14.6669677 72.882,13.7149677 72,12.6509677 C71.132,13.6869677 70.124,14.6529677 68.948,15.5209677 Z M66.33,18.3209677 L77.698,18.3209677 L77.698,19.7489677 L71.188,19.7489677 C70.6,20.8409677 69.914,21.8069677 69.13,22.6189677 C71.02,22.5069677 72.868,22.3529677 74.66,22.1429677 C74.254,21.6389677 73.82,21.1209677 73.358,20.5889677 L74.492,19.8749677 C75.766,21.2469677 76.746,22.4509677 77.446,23.4589677 L76.228,24.3129677 C75.99,23.9489677 75.738,23.5709677 75.472,23.2069677 C73.302,23.5429677 70.6,23.8089677 67.352,24.0049677 L66.96,22.7309677 C67.31,22.6469677 67.562,22.5069677 67.716,22.3389677 C68.416,21.5129677 69.004,20.6449677 69.494,19.7489677 L66.33,19.7489677 L66.33,18.3209677 Z M90.872,16.3609677 L90.872,21.6949677 L89.416,21.6949677 L89.416,17.6909677 L82.598,17.6909677 L82.598,21.9189677 L81.142,21.9189677 L81.142,16.3609677 L90.872,16.3609677 Z M81.968,11.7549677 L90.046,11.7549677 L90.046,15.5769677 L81.968,15.5769677 L81.968,11.7549677 Z M88.632,14.3169677 L88.632,13.0429677 L83.382,13.0429677 L83.382,14.3169677 L88.632,14.3169677 Z M85.384,18.3489677 L86.868,18.4889677 C86.672,20.6169677 86.238,22.0169677 85.566,22.7029677 C84.866,23.5709677 83.158,24.1449677 80.414,24.3969677 L79.84,23.0669677 C82.08,22.9549677 83.564,22.5489677 84.292,21.8489677 C84.922,21.1769677 85.286,20.0009677 85.384,18.3489677 Z M87.148,21.4849677 C88.954,21.9609677 90.606,22.5209677 92.118,23.1929677 L91.334,24.4109677 C89.738,23.6269677 88.1,23.0109677 86.42,22.5629677 L87.148,21.4849677 Z" fill="#BF5E5E" fill-rule="nonzero"></path>
            </g>
        </g>
    </g>
</svg>