<?xml version="1.0" encoding="UTF-8"?>
<svg width="99px" height="31px" viewBox="0 0 99 31" version="1.1" xmlns="http://www.w3.org/2000/svg" xmlns:xlink="http://www.w3.org/1999/xlink">
    <!-- Generator: Sketch 55 (78076) - https://sketchapp.com -->
    <title>高级会员灰</title>
    <desc>Created with Sketch.</desc>
    <defs>
        <path d="M11.7016086,4.99571191 C11.3997097,4.49795428 11.2258065,3.91331006 11.2258065,3.28787879 C11.2258065,1.47203347 12.6917128,-1.42108547e-13 14.5,-1.42108547e-13 C16.3082872,-1.42108547e-13 17.7741935,1.47203347 17.7741935,3.28787879 C17.7741935,3.91331006 17.6002903,4.49795428 17.2983914,4.99571191 L28.7427474,25.4262723 C25.4794264,28.439417 21.2658487,30.4308956 16.6049971,30.8956229 L12.3950029,30.8956229 C7.73415129,30.4308956 3.52057361,28.439417 0.257252644,25.4262723 L11.7016086,4.99571191 Z" id="path-1"></path>
        <path d="M45.476,10.408 C45.588,10.744 45.714,11.122 45.826,11.528 L51.23,11.528 L51.23,12.872 L38.756,12.872 L38.756,11.528 L44.23,11.528 C44.104,11.22 43.978,10.94 43.838,10.688 L45.476,10.408 Z M48.948,23.414 L47.8,23.414 L47.45,22.126 L48.528,22.168 C49.018,22.168 49.27,22 49.27,21.664 L49.27,18.234 L40.73,18.234 L40.73,23.456 L39.344,23.456 L39.344,16.974 L50.656,16.974 L50.656,21.958 C50.656,22.924 50.082,23.414 48.948,23.414 Z M40.912,13.446 L49.102,13.446 L49.102,16.414 L40.912,16.414 L40.912,13.446 Z M47.702,15.322 L47.702,14.538 L42.312,14.538 L42.312,15.322 L47.702,15.322 Z M42.13,18.794 L47.898,18.794 L47.898,21.818 L42.13,21.818 L42.13,18.794 Z M46.61,20.74 L46.61,19.872 L43.418,19.872 L43.418,20.74 L46.61,20.74 Z M56.872,20.236 L56.872,21.44 C58.104,19.424 58.734,16.568 58.762,12.844 L58.762,12.312 L57.544,12.312 L57.544,10.94 L63.942,10.94 L63.942,11.85 C63.732,12.984 63.522,13.964 63.312,14.804 L65.02,14.804 L65.02,15.616 C64.712,17.506 64.11,19.088 63.214,20.376 C63.914,21.062 64.698,21.678 65.594,22.224 L64.67,23.47 C63.774,22.868 62.99,22.196 62.318,21.468 C61.492,22.308 60.512,22.98 59.392,23.498 L58.58,22.168 C59.672,21.636 60.596,20.992 61.338,20.236 C60.708,19.326 60.204,18.332 59.826,17.254 C59.378,19.886 58.51,21.944 57.236,23.428 L56.13,22.462 C56.34,22.21 56.536,21.944 56.732,21.664 C55.528,22.126 54.184,22.504 52.686,22.784 L52.49,21.356 C54.156,21.076 55.612,20.712 56.872,20.236 Z M62.192,19.214 C62.836,18.29 63.298,17.24 63.564,16.078 L61.632,16.078 C61.87,15.21 62.136,13.95 62.444,12.312 L60.19,12.312 L60.19,12.844 C60.19,13.46 60.162,14.062 60.134,14.622 C60.498,16.358 61.184,17.898 62.192,19.214 Z M54.926,10.45 L56.326,11.01 C55.654,12.578 54.968,13.88 54.268,14.902 C54.744,14.846 55.22,14.79 55.71,14.72 C55.962,14.272 56.242,13.782 56.522,13.264 L57.796,13.754 C56.62,15.784 55.64,17.282 54.842,18.248 C55.682,18.08 56.536,17.87 57.404,17.604 L57.404,18.92 C55.864,19.382 54.422,19.69 53.05,19.844 L52.672,18.528 C52.924,18.43 53.148,18.29 53.33,18.108 C53.75,17.716 54.282,17.016 54.912,16.036 C54.268,16.12 53.582,16.218 52.882,16.302 L52.532,14.972 C52.756,14.888 52.952,14.706 53.134,14.44 C53.82,13.236 54.422,11.906 54.926,10.45 Z M72.468,10.464 L73.532,10.464 C75.282,12.382 77.298,13.894 79.594,14.986 L78.796,16.414 C77.984,15.994 77.228,15.518 76.514,15.014 L76.514,16.022 L69.528,16.022 L69.528,14.958 C68.786,15.476 67.988,15.966 67.148,16.428 L66.364,15 C68.814,13.796 70.844,12.284 72.468,10.464 Z M69.948,14.65 L76.038,14.65 C74.89,13.796 73.882,12.844 73,11.78 C72.132,12.816 71.124,13.782 69.948,14.65 Z M67.33,17.45 L78.698,17.45 L78.698,18.878 L72.188,18.878 C71.6,19.97 70.914,20.936 70.13,21.748 C72.02,21.636 73.868,21.482 75.66,21.272 C75.254,20.768 74.82,20.25 74.358,19.718 L75.492,19.004 C76.766,20.376 77.746,21.58 78.446,22.588 L77.228,23.442 C76.99,23.078 76.738,22.7 76.472,22.336 C74.302,22.672 71.6,22.938 68.352,23.134 L67.96,21.86 C68.31,21.776 68.562,21.636 68.716,21.468 C69.416,20.642 70.004,19.774 70.494,18.878 L67.33,18.878 L67.33,17.45 Z M91.872,15.49 L91.872,20.824 L90.416,20.824 L90.416,16.82 L83.598,16.82 L83.598,21.048 L82.142,21.048 L82.142,15.49 L91.872,15.49 Z M82.968,10.884 L91.046,10.884 L91.046,14.706 L82.968,14.706 L82.968,10.884 Z M89.632,13.446 L89.632,12.172 L84.382,12.172 L84.382,13.446 L89.632,13.446 Z M86.384,17.478 L87.868,17.618 C87.672,19.746 87.238,21.146 86.566,21.832 C85.866,22.7 84.158,23.274 81.414,23.526 L80.84,22.196 C83.08,22.084 84.564,21.678 85.292,20.978 C85.922,20.306 86.286,19.13 86.384,17.478 Z M88.148,20.614 C89.954,21.09 91.606,21.65 93.118,22.322 L92.334,23.54 C90.738,22.756 89.1,22.14 87.42,21.692 L88.148,20.614 Z" id="path-3"></path>
        <filter x="-9.2%" y="-30.5%" width="118.4%" height="176.1%" filterUnits="objectBoundingBox" id="filter-4">
            <feOffset dx="0" dy="1" in="SourceAlpha" result="shadowOffsetOuter1"></feOffset>
            <feGaussianBlur stdDeviation="1.5" in="shadowOffsetOuter1" result="shadowBlurOuter1"></feGaussianBlur>
            <feColorMatrix values="0 0 0 0 0   0 0 0 0 0   0 0 0 0 0  0 0 0 0.195421766 0" type="matrix" in="shadowBlurOuter1"></feColorMatrix>
        </filter>
    </defs>
    <g id="Page-1" stroke="none" stroke-width="1" fill="none" fill-rule="evenodd">
        <g id="画板" transform="translate(-483.000000, -113.000000)">
            <g id="高级会员灰" transform="translate(482.000000, 114.000000)">
                <g id="编组-2">
                    <path d="M23,5 L92,5 C96.418278,5 100,8.581722 100,13 L100,21 C100,25.418278 96.418278,29 92,29 L23,29 L23,5 Z" id="矩形" fill="#CCCCCC"></path>
                    <g id="编组" transform="translate(1.000000, -1.000000)">
                        <path d="M5.46179819,7.53559227 L12,13.5454545 L12,25 L4.61538462,25 L3.05915039,9.71176719 C2.96386351,9.72201828 2.86714053,9.72727273 2.76923077,9.72727273 C1.23982685,9.72727273 0,8.44517906 0,6.86363636 C0,5.28209367 1.23982685,4 2.76923077,4 C4.29863469,4 5.53846154,5.28209367 5.53846154,6.86363636 C5.53846154,7.09505965 5.51191467,7.3200712 5.46179819,7.53559227 Z" id="形状结合" fill="#AAAAAA"></path>
                        <path d="M30.4617982,7.53559227 L37,13.5454545 L37,25 L29.6153846,25 L28.0591504,9.71176719 C27.9638635,9.72201828 27.8671405,9.72727273 27.7692308,9.72727273 C26.2398268,9.72727273 25,8.44517906 25,6.86363636 C25,5.28209367 26.2398268,4 27.7692308,4 C29.2986347,4 30.5384615,5.28209367 30.5384615,6.86363636 C30.5384615,7.09505965 30.5119147,7.3200712 30.4617982,7.53559227 Z" id="形状结合" fill="#8B8B8B" transform="translate(31.000000, 14.500000) scale(-1, 1) translate(-31.000000, -14.500000) "></path>
                        <g id="矩形" transform="translate(4.000000, 0.000000)">
                            <mask id="mask-2" fill="white">
                                <use xlink:href="#path-1"></use>
                            </mask>
                            <use id="蒙版" fill="#A8A8A8" xlink:href="#path-1"></use>
                            <rect fill="#C0C0C0" mask="url(#mask-2)" x="0" y="0" width="14.9677419" height="31.9393939"></rect>
                        </g>
                    </g>
                </g>
                <g id="高级会员" fill-rule="nonzero">
                    <use fill="black" fill-opacity="1" filter="url(#filter-4)" xlink:href="#path-3"></use>
                    <use fill="#FFFFFF" xlink:href="#path-3"></use>
                </g>
            </g>
        </g>
    </g>
</svg>