<?xml version="1.0" encoding="UTF-8"?>
<svg width="25px" height="25px" viewBox="0 0 25 25" version="1.1" xmlns="http://www.w3.org/2000/svg" xmlns:xlink="http://www.w3.org/1999/xlink">
    <title>2</title>
    <g id="页面-1" stroke="none" stroke-width="1" fill="none" fill-rule="evenodd">
        <g id="IE内核浏览器" transform="translate(-430.000000, -298.000000)">
            <g id="编组" transform="translate(356.000000, 163.000000)">
                <g id="编组-5" transform="translate(74.000000, 37.000000)">
                    <g id="2" transform="translate(0.000000, 98.000000)">
                        <circle id="椭圆形" fill="#AFD0FF" cx="12.5" cy="12.5" r="12.5"></circle>
                        <path d="M16.608,18 L16.608,16.832 L10.608,16.832 C10.816,16.064 11.648,15.184 13.104,14.208 C14.288,13.408 15.072,12.784 15.472,12.368 C16.208,11.568 16.592,10.672 16.592,9.68 C16.592,8.688 16.24,7.872 15.568,7.264 C14.88,6.656 14.016,6.352 12.96,6.352 C11.808,6.352 10.864,6.736 10.16,7.504 C9.456,8.256 9.088,9.28 9.088,10.56 L10.4,10.56 C10.416,9.552 10.656,8.784 11.104,8.272 C11.52,7.728 12.128,7.472 12.912,7.472 C13.648,7.472 14.24,7.664 14.656,8.048 C15.072,8.432 15.28,8.96 15.28,9.664 C15.28,10.4 14.976,11.088 14.4,11.712 C14.096,12.032 13.504,12.496 12.608,13.136 C11.392,13.968 10.576,14.656 10.128,15.168 C9.36,16.016 8.992,16.96 8.992,18 L16.608,18 Z" fill="#FFFFFF" fill-rule="nonzero"></path>
                    </g>
                </g>
            </g>
        </g>
    </g>
</svg>