<?xml version="1.0" encoding="UTF-8"?>
<svg width="127px" height="41px" viewBox="0 0 127 41" version="1.1" xmlns="http://www.w3.org/2000/svg" xmlns:xlink="http://www.w3.org/1999/xlink">
    <title>白色镝数图表</title>
    <defs>
        <linearGradient x1="54.5959135%" y1="95.5013618%" x2="47.1594122%" y2="21.0928143%" id="linearGradient-1">
            <stop stop-color="#BDC2C4" offset="0%"></stop>
            <stop stop-color="#E7E8E8" offset="58.7%"></stop>
            <stop stop-color="#FFFFFF" offset="83.03%"></stop>
        </linearGradient>
        <linearGradient x1="53.4434603%" y1="141.89447%" x2="47.1866938%" y2="23.77714%" id="linearGradient-2">
            <stop stop-color="#BDC2C4" offset="0%"></stop>
            <stop stop-color="#C4C8CA" offset="9.48%"></stop>
            <stop stop-color="#FFFFFF" offset="83.03%"></stop>
        </linearGradient>
    </defs>
    <g id="页面-1" stroke="none" stroke-width="1" fill="none" fill-rule="evenodd">
        <g id="IE内核浏览器" transform="translate(-72.000000, -34.000000)" fill-rule="nonzero">
            <g id="白色镝数图表" transform="translate(72.000000, 34.000000)">
                <g id="编组-18">
                    <g id="SVGID_1_-link" transform="translate(0.000000, 7.801605)" fill="url(#linearGradient-1)">
                        <path d="M0.97962963,0.0980246914 C0.97962963,0.0980246914 1.34530864,5.20567901 5.82790123,8.92222222 C8.01876543,10.738642 13.0646914,13.118642 20.1176543,14.0617284 C20.1176543,14.0617284 34.8918519,16.797037 35.8351852,21.1580247 C36.2351852,23.2687654 34.748642,25.9628395 29.3209877,28.96 C21.1258025,33.1962963 9.02296296,34.2896296 3.71864198,24.5248148 C-1.7108642,13.3955556 0.451358025,2.36444444 0.97962963,0.0980246914 Z" id="SVGID_1_"></path>
                    </g>
                    <path d="M15.9304938,0 C13.1288889,4.31358025 9.75888889,10.6208642 9.14493827,15.9414815 C8.75876543,19.2881481 9.46703704,21.3687654 9.80283951,22.5203704 C11.1067901,27.4448148 9.94530864,31.9180247 8.34123457,34.8108642 C7.91049383,35.6580247 7.67740741,36.8650617 9.2808642,38.0117284 C10.8130864,38.9261728 16.845679,39.5459259 20.3762963,38.322963 C23.9709877,37.0779012 27.4709877,34.5381481 29.2835802,31.0098765 C33.7940741,23.0934568 29.147284,17.0401235 26.2354321,13.6195062 C26.2354321,13.6195062 23.4482716,10.4049383 21.3766667,7.89962963 C20.2149383,6.5682716 17.167284,3.92419753 15.9304938,0 Z" id="路径" fill="url(#linearGradient-2)"></path>
                </g>
                <g id="编组-2" transform="translate(40.370370, 4.938272)" fill="#FFFFFF">
                    <path d="M15.9428572,19.4698575 C18.2873949,19.2455974 18.5932043,18.3485569 18.5932043,16.6360248 L18.5932043,7.44135915 C18.9601754,7.35981 19.2048228,7.21709901 19.3271464,7.05400073 L17.0029959,5.3006942 L15.9224699,6.52393132 L14.1895506,6.52393132 C15.2089148,6.01424919 16.1059554,5.40263062 16.7379612,4.85217391 C17.1660943,4.91333577 17.4107417,4.77062478 17.5126781,4.54636463 L14.9031056,3.56777494 L19.1028864,3.56777494 C19.3883084,3.56777494 19.6125685,3.46583851 19.6737304,3.24157837 C18.8174643,2.38531238 17.3088053,1.08052612 17.3088053,1.08052612 L15.9836317,2.99693094 L13.3740591,2.99693094 C14.8215564,2.50763609 15.147753,-0.020387284 10.8052612,0.0815491358 L10.6625502,0.183485568 C11.1926197,0.774716838 11.6819145,1.77369383 11.7634637,2.71150895 C11.9469492,2.83383265 12.150822,2.93576909 12.3343076,2.99693094 L7.25787363,2.99693094 L7.42097188,3.56777494 L9.54124958,3.56777494 L9.39853857,3.64932407 C9.84705884,4.30171721 10.3567409,5.34146877 10.4790647,6.2588966 C10.642163,6.38122032 10.8052612,6.46276946 10.9683596,6.52393132 L10.1528681,6.52393132 L7.5229083,5.46379248 L7.5229083,10.2344173 C6.85012784,9.52086222 5.78998905,8.52188527 5.78998905,8.52188527 L4.87256115,9.92860802 L4.87256115,7.2374863 L6.62586777,7.2374863 C6.91128978,7.2374863 7.11516262,7.13554986 7.15593721,6.91128974 C6.46276951,6.15696019 5.219145,5.03565948 5.219145,5.03565948 L4.13861898,6.66664231 L1.38633541,6.66664231 C1.99795393,5.76960175 2.58918521,4.75023748 3.07848006,3.77164779 L6.78896601,3.77164779 C7.07438802,3.77164779 7.27826086,3.66971136 7.3394227,3.44545122 C6.56470593,2.75228352 5.38224337,1.87563026 5.38224337,1.87563026 L4.30171722,3.20080379 L3.36390209,3.20080379 C3.64932411,2.58918523 3.87358419,1.97756668 4.05706979,1.42710998 C4.54636465,1.36594812 4.72985026,1.18246255 4.79101209,0.897040553 L1.12130074,0.122323716 C1.06013879,2.0998904 0.591231283,6.01424919 0,8.09375228 L0.20387284,8.1956887 C0.509682099,7.82871757 0.835878714,7.44135915 1.14168797,7.01322616 L1.2028498,7.2374863 L2.32415053,7.2374863 L2.32415053,10.1120935 L0.0407745917,10.1120935 L0.20387284,10.6829376 L2.32415053,10.6829376 L2.32415053,15.4535622 C2.32415053,15.9020826 2.18143953,16.0855681 1.36594817,16.7787358 L3.83280959,19.082499 C4.03668256,18.858239 4.2405554,18.4708805 4.32210446,17.9611984 C5.68805263,16.2078919 6.74819142,14.6176836 7.25787363,13.8021922 L7.17632444,13.6187067 C6.40160757,14.0672269 5.60650344,14.4953599 4.87256115,14.8827184 L4.87256115,10.6829376 L7.07438802,10.6829376 C7.25787363,10.6829376 7.42097188,10.642163 7.5229083,10.5402265 L7.5229083,19.4086957 L7.91026674,19.4086957 C8.99079289,19.4086957 10.0101571,18.8174643 10.0101571,18.5524298 L10.0101571,9.01118012 L10.1732553,9.58202417 L11.9469492,9.58202417 L11.9469492,11.1518451 L10.7237121,10.642163 L10.7237121,16.3506028 L10.9683596,16.3506028 C11.6819145,16.3506028 12.4362441,15.9632443 12.4362441,15.8205335 L12.4362441,15.1885277 L13.5371574,15.1885277 L13.5371574,16.1263427 L13.8429668,16.1263427 C14.780782,16.1263427 15.3108512,15.5147241 15.3108512,15.3516258 L15.3108512,12.2731458 C15.6370479,12.2323712 15.9020826,12.069273 16.0447936,11.9265619 L14.4749726,10.5198392 L13.9449032,11.0906832 L13.9449032,9.58202417 L15.6574351,9.58202417 C15.8816953,9.58202417 16.0447936,9.52086222 16.1263427,9.35776398 L16.1263427,16.3709901 C16.1263427,16.5952502 16.0651807,16.7175741 15.8409207,16.7175741 C15.5962733,16.7175741 14.8215564,16.6564121 14.8215564,16.6564121 L14.8215564,16.9418341 C15.3720131,17.0641579 15.5962733,17.3291926 15.7389843,17.6961636 C15.8816953,18.0427475 15.9224699,18.6747533 15.9428572,19.4698575 Z M13.577932,6.52393132 L11.8857873,6.52393132 C13.0478627,6.09579832 13.29251,4.01629521 9.76550965,3.56777494 L14.4545853,3.56777494 C14.291487,4.48520278 13.9652905,5.66766533 13.577932,6.52393132 Z M10.0101571,7.0947753 L16.1263427,7.0947753 L16.1263427,9.21505296 C15.575886,8.68498356 14.7400073,8.03259042 14.7400073,8.03259042 L13.9652905,9.01118012 L13.9449032,9.01118012 L13.9449032,7.930654 C14.4138107,7.84910485 14.5565217,7.66561928 14.5972963,7.42097186 L11.9469492,7.17632443 L11.9469492,9.01118012 L10.0101571,9.01118012 L10.0101571,7.0947753 Z M13.5371574,14.6176836 L12.4362441,14.6176836 L12.4362441,11.9469492 L13.5371574,11.9469492 L13.5371574,14.6176836 Z M22.4124223,19.4290828 C24.9812204,18.9601754 27.040336,18.144684 28.6305444,17.0029959 C29.1402265,17.3088053 29.5683596,17.6350019 29.894556,17.9815857 C31.4439898,18.4912678 32.8099379,16.432152 30.5877238,15.1681402 C31.2605042,14.3730362 31.7905736,13.4556084 32.1983194,12.4566314 C32.6672269,12.3954695 32.8507125,12.3343076 32.9934235,12.1304348 L30.7100475,10.1528681 L29.3237121,11.4780417 L27.6111801,11.4780417 L27.9985385,10.6829376 C28.6305444,10.7440994 28.8140299,10.5606138 28.9159663,10.3567409 L26.7141396,9.58202417 L26.7549142,9.58202417 C27.7538911,9.58202417 28.9363537,9.11311654 28.9363537,8.92963099 L28.9363537,6.05502375 C29.4460358,6.80935331 29.9557179,7.72678115 30.1595907,8.60343442 C32.4429668,10.0713189 34.3593715,5.89192547 28.9363537,5.4230179 L28.9363537,5.11720863 L32.891487,5.11720863 C33.176909,5.11720863 33.380782,5.0152722 33.4215564,4.79101206 C32.6876142,4.05706978 31.4236025,2.97654365 31.4236025,2.97654365 L30.3023017,4.54636463 L28.9363537,4.54636463 L28.9363537,0.917427837 C29.4256485,0.835878701 29.5683596,0.652393135 29.6091341,0.407745702 L26.2860065,0.101936432 L26.2860065,4.54636463 L22.3512605,4.54636463 L22.5143588,5.11720863 L25.3481914,5.11720863 C24.6957983,6.78896602 23.6152722,8.46072342 22.1881622,9.643186 L22.3716478,9.90822067 C23.8599196,9.27621479 25.2054804,8.50149799 26.2860065,7.56368286 L26.2860065,9.4189258 L25.8578736,9.27621479 C25.674388,9.78589701 25.3278042,10.6013884 24.9200585,11.4780417 L22.4735842,11.4780417 L22.6570698,12.0488856 L24.6550237,12.0488856 C24.1861162,13.0070881 23.6764341,13.9652905 23.2890757,14.6176836 L23.1463647,14.8215564 C24.3492144,15.0458165 25.7763244,15.5351115 27.0811106,16.14673 C25.8782609,17.4107417 24.3084399,18.4301059 22.2900988,19.1640483 L22.4124223,19.4290828 Z M39.2930947,19.4902448 C39.6600657,18.1650712 40.4347826,17.3699672 41.821118,17.0641579 L41.8822799,16.8602851 C40.251297,16.1263427 38.885349,15.1681402 37.7640483,13.9856777 C39.4154183,11.5595907 40.1289733,8.60343442 40.4347826,5.36185605 L41.3929849,5.36185605 C41.6987943,5.36185605 41.9230544,5.25991962 41.9842163,5.03565948 C41.026014,4.17939349 39.4358057,2.89499452 39.4358057,2.89499452 L38.0086957,4.79101206 L36.1330654,4.79101206 C36.5204238,3.77164779 36.8262331,2.67073437 37.1116551,1.50865912 C37.5805626,1.48827184 37.82521,1.28439898 37.9067593,1.01936427 L34.0127877,0.163098284 C33.8496894,3.89397149 33.0953599,7.99181585 32.096383,10.784874 L32.3410304,10.927585 C32.9934235,10.3159663 33.5642674,9.62279864 34.0943369,8.86846912 C34.3593715,10.6217757 34.7059554,12.2527584 35.2360248,13.7002558 C34.0331751,15.8816953 32.177932,17.7777128 29.4256485,19.286372 L29.5275849,19.4698575 C32.4429668,18.6339788 34.5836317,17.4107417 36.17384,15.8613079 C36.9689441,17.3088053 37.9679211,18.5320423 39.2930947,19.4902448 Z M29.6295214,4.19978078 C30.4246256,3.66971136 31.321666,2.85421994 32.0556084,2.07950311 C32.4837412,2.07950311 32.748776,1.89601754 32.8303252,1.65137012 L29.9557179,0.754329554 C29.7722325,1.93679211 29.5479722,3.26196565 29.3440994,4.05706978 L29.6295214,4.19978078 Z M23.1259773,0.835878701 L22.9424919,0.937815121 C23.3298502,1.67175741 23.7375959,2.79305809 23.7375959,3.79203507 C25.5928389,5.44340519 27.9781512,1.91640483 23.1259773,0.835878701 Z M36.0922907,11.7838509 C35.4602851,10.7033248 34.9506028,9.48008763 34.5632443,8.13452685 C35.0729265,7.27826086 35.5214469,6.36083304 35.9291926,5.36185605 L37.2543662,5.36185605 C37.1728169,7.645232 36.8466205,9.80628425 36.0922907,11.7838509 Z M28.3655096,14.4545853 C27.7131165,14.3526489 26.958787,14.291487 26.0821337,14.2710998 C26.4898794,13.577932 26.9180125,12.7828279 27.3053709,12.0488856 L29.4052612,12.0488856 C29.1606138,12.9051517 28.8140299,13.7206431 28.3655096,14.4545853 Z M46.1704056,19.4698575 C47.4140299,19.4698575 48.5761053,18.7563026 48.5761053,18.3893314 L48.5761053,17.7573256 L59.4017537,17.7573256 L59.4017537,19.3679211 L59.8706614,19.3679211 C60.9715747,19.3679211 62.3375228,18.6747533 62.3579101,18.4708805 L62.3579101,2.83383265 C62.7860431,2.73189623 63.0306906,2.56879795 63.1734016,2.38531238 L60.563829,0.285421999 L59.1978809,1.79408111 L48.8003653,1.79408111 L45.6811106,0.550456702 L45.6811106,19.4698575 L46.1704056,19.4698575 Z M48.5761053,11.4372671 L48.5761053,2.3649251 L50.9818048,2.3649251 C50.696383,4.13861893 49.8605042,6.78896602 48.8207527,8.4811107 L48.983851,8.70537084 C49.8808915,8.11413957 50.7575448,7.31903543 51.5118743,6.50354404 C51.91962,7.31903543 52.4089148,8.03259042 52.9593715,8.66459627 C51.7361344,9.78589701 50.2478627,10.7440994 48.5761053,11.4372671 Z M59.4017537,8.97040556 C58.2804531,8.84808184 57.1591523,8.64420899 56.0786262,8.3383997 C56.9960541,7.56368286 57.7503836,6.6870296 58.3416149,5.7084399 C58.8309098,5.66766533 59.0143954,5.60650347 59.1571063,5.38224333 L56.9145049,3.44545122 L55.5077822,4.75023748 L52.8982098,4.75023748 C53.1428572,4.40365363 53.3263427,4.07745707 53.489441,3.75126051 C53.8767994,3.79203507 54.0602851,3.73087322 54.1418341,3.52700036 L51.3895506,2.3649251 L59.4017537,2.3649251 L59.4017537,8.97040556 Z M54.0195105,7.58407015 C53.1836317,7.17632443 52.4496894,6.6870296 51.8788454,6.09579832 C52.1031056,5.83076362 52.3069784,5.58611619 52.4904641,5.32108148 L55.5077822,5.32108148 C55.1204238,6.1161856 54.631129,6.87051517 54.0195105,7.58407015 Z M59.4017537,17.1864815 L48.5761053,17.1864815 L48.5761053,11.5392035 L48.6576543,11.7226891 C50.7371574,11.2945561 52.5720131,10.6013884 54.1214469,9.70434783 C55.1408111,10.499452 56.343661,11.0906832 57.709609,11.5799781 C57.9542564,10.4179028 58.5251005,9.62279864 59.4017537,9.29660215 L59.4017537,17.1864815 Z M52.062331,10.7237121 L51.9603946,10.9887468 C53.2651807,11.6819145 54.1826086,12.7012789 54.5088053,13.3128974 C56.5883084,14.1895506 57.7707709,9.92860802 52.062331,10.7237121 Z M50.5944465,13.8429668 L50.553672,14.0876142 C52.9593715,14.8419437 55.0184874,16.1059554 55.8951407,16.8602851 C58.4435514,17.4719036 59.0959444,12.3750822 50.5944465,13.8429668 Z M71.9671173,19.7552795 C72.1302156,19.6533431 72.3137012,19.4902448 72.4564121,19.286372 C75.1271464,17.6553891 77.2270367,16.1059554 78.3279504,15.2496894 L78.2667883,15.0458165 C76.9212275,15.3924005 75.5348922,15.7185969 74.3320423,16.004019 L74.3320423,11.8654001 C75.4533431,11.0906832 76.411546,10.2344173 77.1454873,9.29660215 C78.1240779,14.291487 80.0404822,17.3088053 83.5063207,18.8990136 C83.6286448,17.5126781 84.4441356,16.3913774 85.8100836,15.6370479 L85.8508583,15.3312386 C83.7917425,15.0458165 81.916113,14.4545853 80.387066,13.2721227 C81.9976612,12.8032153 83.6082575,12.1712094 84.770332,11.5799781 C85.23924,11.6615273 85.4431123,11.5392035 85.5450491,11.3557179 L82.3646323,9.23544032 C81.8345636,10.1528681 80.7540373,11.5595907 79.7142857,12.6808915 C78.776471,11.7838509 78.0221411,10.5810011 77.4920711,9.01118012 L85.0353677,9.01118012 C85.3411768,9.01118012 85.5654364,8.90924369 85.6265985,8.68498356 C84.6683964,7.787943 83.0578001,6.46276946 83.0578001,6.46276946 L81.63069,8.44033614 L77.5940079,8.44033614 L77.5940079,6.01424919 L83.5470954,6.01424919 C83.8325172,6.01424919 84.0567769,5.91231275 84.117939,5.68805262 C83.2208989,4.83178663 81.6510773,3.54738764 81.6510773,3.54738764 L80.2851293,5.44340519 L77.5940079,5.44340519 L77.5940079,3.18041651 L84.2198758,3.18041651 C84.5052975,3.18041651 84.7295585,3.07848009 84.7907194,2.85421994 C83.873292,1.97756668 82.2830842,0.672780419 82.2830842,0.672780419 L80.8967488,2.60957252 L77.5940079,2.60957252 L77.5940079,0.876653269 C78.1648515,0.795104133 78.307563,0.59123127 78.3483377,0.305809283 L74.5766898,0 L74.5766898,2.60957252 L67.6857874,2.60957252 L67.8488856,3.18041651 L74.5766898,3.18041651 L74.5766898,5.44340519 L68.7051517,5.44340519 L68.8682499,6.01424919 L74.5766898,6.01424919 L74.5766898,8.44033614 L66.7071977,8.44033614 L66.870296,9.01118012 L73.0884179,9.01118012 C71.6816953,11.1518451 69.2148338,13.5167702 66.2382901,14.9642674 L66.3402265,15.1681402 C68.1343077,14.7400073 69.8264523,14.1691633 71.3554986,13.496383 L71.3554986,15.5962733 C71.3554986,16.0244063 71.1924005,16.2690537 70.1526489,16.8398977 L71.9671173,19.7552795 Z" id="镝数图表"></path>
                    <path d="M8.01135802,32.0590123 C8.73728395,32.0590123 9.47530864,31.817037 9.93506173,31.1032099 L10.0318519,31.9259259 L11.4111111,31.9259259 L11.4111111,23.4688889 L9.93506173,23.4688889 L9.93506173,26.7718519 C9.58419753,26.1548148 8.60419753,25.8160494 7.97506173,25.8160494 C6.23283951,25.8160494 4.9382716,26.8807407 4.9382716,28.9375309 C4.9382716,30.8975309 6.25703704,32.0590123 8.01135802,32.0590123 Z M8.10814815,30.6918519 C7.16444444,30.6918519 6.41432099,29.9780247 6.41432099,28.9375309 C6.41432099,27.8607407 7.16444444,27.1953086 8.10814815,27.1953086 C9.03975309,27.1953086 9.8382716,27.897037 9.8382716,28.9375309 C9.8382716,30.014321 9.03975309,30.6918519 8.10814815,30.6918519 Z M15.0649383,34.4182716 L18.7066667,25.9612346 L17.0733333,25.9612346 L15.9844444,28.5745679 L15.3674074,30.22 L14.7987654,28.5382716 L13.891358,25.9612346 L12.1733333,25.9612346 L14.5567901,31.8291358 L13.4437037,34.4182716 L15.0649383,34.4182716 Z M22.3,32.1074074 C23.1832099,32.1074074 23.9091358,31.8412346 24.5987654,31.1637037 L23.6066667,30.1958025 C23.2437037,30.5587654 22.7718519,30.6918519 22.3,30.6918519 C21.3804938,30.6918519 20.6061728,30.0869136 20.6061728,28.9496296 C20.6061728,27.9091358 21.3320988,27.1832099 22.3241975,27.1832099 C22.7355556,27.1832099 23.1711111,27.3404938 23.5219753,27.6550617 L24.4535802,26.6750617 C23.8002469,26.0338272 23.1469136,25.7918519 22.3,25.7918519 C20.5698765,25.7918519 19.1301235,26.8323457 19.1301235,28.9496296 C19.1301235,31.0669136 20.5698765,32.1074074 22.3,32.1074074 Z M26.7281481,31.9259259 L26.7281481,28.877037 C26.7281481,27.9817284 27.3330864,27.2437037 28.2041975,27.2437037 C28.9906173,27.2437037 29.5592593,27.7034568 29.5592593,28.7923457 L29.5592593,31.9259259 L31.0353086,31.9259259 L31.0353086,28.7802469 C31.0353086,27.0259259 30.2851852,25.8765432 28.591358,25.8765432 C27.9138272,25.8765432 27.2604938,26.0822222 26.7281481,26.7718519 L26.7281481,23.4567901 L25.2520988,23.4567901 L25.2520988,31.9259259 L26.7281481,31.9259259 Z M35.0279012,32.1074074 C35.6933333,32.0953086 36.6249383,31.7565432 36.9637037,31.0548148 L37.0362963,31.9259259 L38.4276543,31.9259259 L38.4276543,25.9612346 L37.0120988,25.9612346 L36.9637037,26.7839506 C36.6249383,26.1911111 35.862716,25.8160494 35.0641975,25.8160494 C33.3219753,25.8039506 31.9548148,26.8807407 31.9548148,28.9375309 C31.9548148,31.0306173 33.2614815,32.1195062 35.0279012,32.1074074 Z M35.197284,30.7523457 C34.217284,30.7523457 33.4308642,30.0748148 33.4308642,28.9375309 C33.4308642,27.8002469 34.217284,27.1348148 35.197284,27.1348148 C37.5202469,27.1348148 37.5202469,30.7523457 35.197284,30.7523457 Z M41.1498765,31.9259259 L41.1498765,28.7802469 C41.1498765,27.6792593 41.8637037,27.2679012 42.6380247,27.2679012 C43.1219753,27.2679012 43.4002469,27.4009877 43.702716,27.6550617 L44.3681481,26.3725926 C44.0414815,26.0459259 43.448642,25.8039506 42.8316049,25.8039506 C42.2266667,25.8039506 41.6096296,25.9128395 41.1498765,26.6508642 L41.0409877,25.9612346 L39.6738272,25.9612346 L39.6738272,31.9259259 L41.1498765,31.9259259 Z M48.0461728,31.9985185 C48.4938272,31.9864198 48.8446914,31.9138272 49.2681481,31.7444444 L48.8567901,30.4861728 C48.6390123,30.5950617 48.3728395,30.6676543 48.142963,30.6676543 C47.6832099,30.6676543 47.368642,30.3893827 47.368642,29.8207407 L47.368642,27.2437037 L49.0261728,27.2437037 L49.0261728,25.9733333 L47.3807407,25.9733333 L47.3807407,24.2795062 L45.9046914,24.4367901 L45.9046914,25.9733333 L44.7916049,25.9733333 L44.7916049,27.2437037 L45.9046914,27.2437037 L45.9046914,29.8207407 C45.9046914,31.3088889 46.7516049,32.0469136 48.0461728,31.9985185 Z M52.5590123,32.1316049 C54.2649383,32.1316049 55.1239506,31.2241975 55.1239506,30.1716049 C55.1239506,28.5866667 53.6962963,28.3325926 52.5711111,28.26 C51.8088889,28.2116049 51.4580247,27.9938272 51.4580247,27.6066667 C51.4580247,27.2316049 51.8451852,27.0138272 52.5469136,27.0138272 C53.1155556,27.0138272 53.5995062,27.1469136 54.022963,27.5461728 L54.845679,26.5782716 C54.1560494,25.9733333 53.454321,25.7918519 52.522716,25.7918519 C51.4338272,25.7918519 50.0061728,26.2758025 50.0061728,27.6550617 C50.0061728,29.0101235 51.3491358,29.4214815 52.474321,29.5061728 C53.3212346,29.5545679 53.66,29.7239506 53.66,30.1353086 C53.66,30.5708642 53.1397531,30.8612346 52.5832099,30.8491358 C51.9177778,30.837037 50.9498765,30.4861728 50.5264198,30.014321 L49.8004938,31.0669136 C50.6716049,31.974321 51.6153086,32.1316049 52.5590123,32.1316049 Z M57.7735802,31.1637037 C57.7735802,30.014321 56.031358,30.014321 56.031358,31.1637037 C56.031358,32.3130864 57.7735802,32.3130864 57.7735802,31.1637037 Z M61.6330864,32.1074074 C62.5162963,32.1074074 63.2422222,31.8412346 63.9318519,31.1637037 L62.9397531,30.1958025 C62.5767901,30.5587654 62.1049383,30.6918519 61.6330864,30.6918519 C60.7135802,30.6918519 59.9392593,30.0869136 59.9392593,28.9496296 C59.9392593,27.9091358 60.6651852,27.1832099 61.657284,27.1832099 C62.068642,27.1832099 62.5041975,27.3404938 62.8550617,27.6550617 L63.7866667,26.6750617 C63.1333333,26.0338272 62.48,25.7918519 61.6330864,25.7918519 C59.902963,25.7918519 58.4632099,26.8323457 58.4632099,28.9496296 C58.4632099,31.0669136 59.902963,32.1074074 61.6330864,32.1074074 Z M67.5251852,32.0590123 C69.4609877,32.0590123 70.6345679,30.6676543 70.6345679,28.9496296 C70.6345679,27.2437037 69.4125926,25.8402469 67.5130864,25.8402469 C65.6135802,25.8402469 64.4279012,27.2437037 64.4279012,28.9496296 C64.4279012,30.6676543 65.5893827,32.0590123 67.5251852,32.0590123 Z M67.5251852,30.7039506 C66.4483951,30.7039506 65.9039506,29.857037 65.9039506,28.9496296 C65.9039506,28.054321 66.4604938,27.1832099 67.5251852,27.1832099 C68.517284,27.1832099 69.1464198,28.054321 69.1464198,28.9496296 C69.1464198,29.857037 68.6019753,30.7039506 67.5251852,30.7039506 Z M73.1269136,31.9259259 L73.1269136,28.7318519 C73.1269136,27.9454321 73.5987654,27.2316049 74.397284,27.2316049 C75.2079012,27.2316049 75.6192593,27.9454321 75.6192593,28.7318519 L75.6192593,31.9259259 L77.0953086,31.9259259 L77.0953086,28.7318519 C77.0953086,27.9454321 77.591358,27.2558025 78.3898765,27.2558025 C79.1883951,27.2558025 79.5150617,27.9212346 79.5150617,28.7076543 L79.5150617,31.9259259 L80.9911111,31.9259259 L80.9911111,28.7076543 C80.9911111,26.917037 80.1562963,25.8765432 78.4624691,25.8765432 C77.6881481,25.8765432 76.9985185,26.1185185 76.4661728,26.9654321 C76.1274074,26.142716 75.4135802,25.8523457 74.6997531,25.8523457 C74.1311111,25.8523457 73.4414815,26.0701235 73.1269136,26.6750617 L73.0180247,25.9491358 L71.6508642,25.9491358 L71.6508642,31.9259259 L73.1269136,31.9259259 Z" id="dycharts.com"></path>
                </g>
            </g>
        </g>
    </g>
</svg>