<?xml version="1.0" encoding="UTF-8"?>
<svg width="36px" height="36px" viewBox="0 0 36 36" version="1.1" xmlns="http://www.w3.org/2000/svg" xmlns:xlink="http://www.w3.org/1999/xlink">
    <title>形状结合</title>
    <g id="页面-1" stroke="none" stroke-width="1" fill="none" fill-rule="evenodd">
        <g id="兼容提醒弹窗" transform="translate(-895.000000, -188.000000)" fill="#FFFFFF" fill-rule="nonzero">
            <g id="编组-4">
                <path d="M913,188.539062 C922.664062,188.539062 930.5,196.375 930.5,206.039062 C930.5,215.703125 922.664062,223.539062 913,223.539062 C903.335938,223.539062 895.5,215.703125 895.5,206.039062 C895.5,196.375 903.335938,188.539062 913,188.539062 Z M913,191.507812 C904.976562,191.507812 898.46875,198.015625 898.46875,206.039062 C898.46875,214.0625 904.976562,220.570312 913,220.570312 C921.023438,220.570312 927.53125,214.0625 927.53125,206.039062 C927.53125,198.015625 921.023438,191.507812 913,191.507812 Z M919.460938,199.546875 C919.632812,199.546875 919.773438,199.6875 919.773438,199.859375 C919.773438,199.933594 919.75,200.007812 919.703125,200.0625 L919.703125,200.0625 L914.621094,206.117188 L919.695312,212.167969 C919.742188,212.226562 919.769531,212.296875 919.769531,212.371094 C919.769531,212.546875 919.628906,212.683594 919.457031,212.683594 L919.457031,212.683594 L916.878906,212.671875 L913,208.046875 L909.121094,212.675781 L906.539062,212.6875 C906.367188,212.6875 906.226562,212.546875 906.226562,212.375 C906.226562,212.300781 906.253906,212.230469 906.300781,212.171875 L906.300781,212.171875 L911.382812,206.121094 L906.300781,200.066406 C906.253906,200.007812 906.226562,199.9375 906.226562,199.863281 C906.226562,199.6875 906.367188,199.550781 906.539062,199.550781 L906.539062,199.550781 L909.121094,199.5625 L913,204.1875 L916.882812,199.558594 Z" id="形状结合"></path>
            </g>
        </g>
    </g>
</svg>